<svg width="213" height="212" viewBox="0 0 213 212" fill="none" xmlns="http://www.w3.org/2000/svg">
<path d="M72.3282 102.624L85.5707 113.905C86.5798 114.765 88.0898 114.664 88.9766 113.679L128.739 69.4985" stroke="white" stroke-width="13.0516" stroke-linecap="square"/>
<path d="M74.8239 99.53L92.5723 115.632C93.5782 116.544 95.135 116.463 96.0405 115.451L133.641 73.416" stroke="#99E0B8" stroke-width="13.0516" stroke-linecap="square"/>
<g opacity="0.1" filter="url(#filter0_f_160_1104)">
<circle cx="106.781" cy="106" r="74" fill="#57BA88" fill-opacity="0.63"/>
</g>
<path opacity="0.6" d="M173.392 34.9741C173.617 34.1472 174.79 34.1472 175.016 34.9741L176.474 40.3106C176.537 40.5413 176.695 40.7343 176.909 40.8415L181.473 43.1297C182.092 43.4403 182.092 44.3246 181.473 44.6352L176.909 46.9234C176.695 47.0305 176.537 47.2236 176.474 47.4543L175.016 52.7908C174.79 53.6177 173.617 53.6177 173.392 52.7908L171.934 47.4543C171.871 47.2236 171.713 47.0305 171.499 46.9234L166.935 44.6352C166.315 44.3246 166.315 43.4403 166.935 43.1297L171.499 40.8415C171.713 40.7343 171.871 40.5413 171.934 40.3106L173.392 34.9741Z" fill="#FEF5DC"/>
<path opacity="0.6" d="M28.6802 139.124C28.9061 138.297 30.079 138.297 30.3048 139.124L31.7623 144.46C31.8253 144.691 31.9835 144.884 32.1972 144.991L36.7614 147.279C37.381 147.59 37.381 148.474 36.7614 148.785L32.1972 151.073C31.9835 151.18 31.8253 151.373 31.7623 151.604L30.3048 156.94C30.079 157.767 28.9061 157.767 28.6802 156.94L27.2227 151.604C27.1597 151.373 27.0016 151.18 26.7878 151.073L22.2236 148.785C21.6041 148.474 21.6041 147.59 22.2236 147.279L26.7878 144.991C27.0016 144.884 27.1597 144.691 27.2227 144.46L28.6802 139.124Z" fill="#FEF5DC"/>
<path opacity="0.2" d="M186.253 50.4895C186.408 49.921 187.214 49.921 187.37 50.4895L188.372 54.1584C188.415 54.317 188.524 54.4497 188.671 54.5234L191.808 56.0965C192.234 56.31 192.234 56.918 191.808 57.1315L188.671 58.7046C188.524 58.7783 188.415 58.911 188.372 59.0696L187.37 62.7385C187.214 63.307 186.408 63.307 186.253 62.7385L185.251 59.0696C185.207 58.911 185.099 58.7783 184.952 58.7046L181.814 57.1315C181.388 56.918 181.388 56.31 181.814 56.0965L184.952 54.5234C185.099 54.4497 185.207 54.317 185.251 54.1584L186.253 50.4895Z" fill="#FEF5DC"/>
<path opacity="0.2" d="M40.4453 154.637C40.6006 154.068 41.4069 154.068 41.5622 154.637L42.5642 158.306C42.6076 158.464 42.7163 158.597 42.8632 158.671L46.0011 160.244C46.4271 160.457 46.4271 161.065 46.0011 161.279L42.8632 162.852C42.7163 162.926 42.6076 163.058 42.5642 163.217L41.5622 166.886C41.4069 167.454 40.6006 167.454 40.4453 166.886L39.4433 163.217C39.4 163.058 39.2912 162.926 39.1443 162.852L36.0064 161.279C35.5804 161.065 35.5804 160.457 36.0064 160.244L39.1443 158.671C39.2912 158.597 39.4 158.464 39.4433 158.306L40.4453 154.637Z" fill="#FEF5DC"/>
<circle opacity="0.3" cx="33.3297" cy="111.481" r="4.93333" fill="#C4C4C4"/>
<circle opacity="0.3" cx="158.308" cy="157.526" r="4.93333" fill="#C4C4C4"/>
<circle opacity="0.3" cx="122.678" cy="34.1926" r="2.19259" fill="#C4C4C4"/>
<defs>
<filter id="filter0_f_160_1104" x="0.968119" y="0.186625" width="211.627" height="211.627" filterUnits="userSpaceOnUse" color-interpolation-filters="sRGB">
<feFlood flood-opacity="0" result="BackgroundImageFix"/>
<feBlend mode="normal" in="SourceGraphic" in2="BackgroundImageFix" result="shape"/>
<feGaussianBlur stdDeviation="15.9067" result="effect1_foregroundBlur_160_1104"/>
</filter>
</defs>
</svg>
