<svg width="45" height="45" viewBox="0 0 45 45" fill="none" xmlns="http://www.w3.org/2000/svg">
<path d="M10.7498 32.5759C9.68087 31.9968 9.65867 31.0121 10.7004 30.3842L25.3739 21.5392C26.3898 20.9269 28.0436 20.8808 29.1022 21.4353L35.9393 25.0167C37.059 25.6032 37.0716 26.626 35.967 27.2565L20.7609 35.9353C19.7253 36.5264 18.088 36.551 17.0543 35.9911L10.7498 32.5759Z" fill="#2D2D2D"/>
<path d="M33.9249 13.1735L15.4546 24.5841L8.69092 22.8932L9.44105 21.1429C9.50293 20.9985 9.6099 20.878 9.74596 20.7995L28.0921 10.2104C28.3176 10.0803 28.5955 10.0806 28.8207 10.2113L33.9249 13.1735Z" fill="#F2B826"/>
<mask id="mask0_167_1095" style="mask-type:alpha" maskUnits="userSpaceOnUse" x="8" y="10" width="26" height="15">
<path d="M33.5 13.5L14.7636 24.5841L8 22.8932L8.89864 21.1919C8.96477 21.0667 9.06601 20.9635 9.18994 20.895L27.6505 10.6931C27.8682 10.5728 28.1322 10.5721 28.3505 10.6912L33.5 13.5Z" fill="#F2B826"/>
</mask>
<g mask="url(#mask0_167_1095)">
<rect opacity="0.9" x="7.30908" y="17" width="20" height="3" fill="white"/>
<rect opacity="0.9" x="12.3091" y="15" width="20" height="1" fill="white"/>
</g>
<path d="M9.38283 21.2624L7.37195 25.7379C7.19763 26.1259 7.51855 26.8446 7.97594 27.0905L16.1492 31.485C17.0351 31.9613 17.6133 31.2425 17.2633 30.1001L15.5739 24.5861C15.4708 24.2495 15.2302 23.9357 14.9692 23.7975L9.93913 21.1339C9.69361 21.0039 9.47642 21.0541 9.38283 21.2624Z" fill="#C28C02"/>
<path d="M16.4184 31.1143L15.4132 24.4776C15.3686 24.1825 15.5087 23.8901 15.7666 23.74L33.9545 13.1589L36.0068 18.6442C36.3165 19.4719 35.994 20.4029 35.2386 20.8617L17.515 31.627C17.0712 31.8965 16.4961 31.6277 16.4184 31.1143Z" fill="#F7CC60"/>
</svg>
