<svg width="32" height="32" viewBox="0 0 32 32" fill="none" xmlns="http://www.w3.org/2000/svg">
<g opacity="0.5">
<path d="M16 20C20.9706 20 25 16.1198 25 11.3333C25 6.54686 20.9706 2.66666 16 2.66666C11.0294 2.66666 7 6.54686 7 11.3333C7 16.1198 11.0294 20 16 20Z" fill="white"/>
<path d="M21.0533 20.8134C21.4933 20.5867 22 20.92 22 21.4134V27.88C22 29.08 21.16 29.6667 20.12 29.1734L16.5467 27.48C16.24 27.3467 15.76 27.3467 15.4533 27.48L11.88 29.1734C10.84 29.6534 10 29.0667 10 27.8667L10.0267 21.4134C10.0267 20.92 10.5467 20.6 10.9733 20.8134C12.48 21.5734 14.1867 22 16 22C17.8133 22 19.5333 21.5734 21.0533 20.8134Z" fill="white"/>
</g>
</svg>
