<svg width="304" height="408" viewBox="0 0 304 408" fill="none" xmlns="http://www.w3.org/2000/svg">
<ellipse cx="152" cy="322.5" rx="152" ry="85.5" fill="#F79780"/>
<ellipse cx="133.5" cy="331.819" rx="96.5" ry="42.5" fill="#1B262C"/>
<path d="M52 213.383C53.3059 192.489 61.9028 184.871 66.038 183.674V173.081C66.038 164.55 67.216 155.722 72.6016 149.107C88.8639 129.131 122.45 121.319 143.084 121.319C188.437 121.319 209.617 139.647 218.265 154.004C221.696 159.7 222.415 166.487 222.415 173.138V183.674C233.907 192.815 235.256 205.548 234.494 210.771V298.917C229.162 315.458 202.762 347.756 139.819 344.622C76.8767 341.488 55.047 312.846 52 298.917V213.383Z" fill="#118D82" stroke="#3FD9D0" stroke-width="3"/>
<path fill-rule="evenodd" clip-rule="evenodd" d="M214.227 178.319C215.387 175.331 216 172.222 216 169.029C216 145.94 183.96 127.223 144.436 127.223C104.912 127.223 72.8711 145.94 72.8711 169.029C72.8711 172.222 73.4839 175.331 74.6444 178.319C81.8761 159.702 110.377 145.804 144.436 145.804C178.494 145.804 206.995 159.702 214.227 178.319Z" fill="#1B262C"/>
<path d="M216 168.819C216 180.051 208.173 190.405 195.116 198.007C182.083 205.594 164.013 210.319 144 210.319C123.986 210.319 105.917 205.594 92.8843 198.007C79.8272 190.405 72 180.051 72 168.819C72 157.588 79.8272 147.233 92.8843 139.632C105.917 132.044 123.986 127.319 144 127.319C164.013 127.319 182.083 132.044 195.116 139.632C208.173 147.233 216 157.588 216 168.819Z" stroke="#31D4CA" stroke-width="2"/>
<ellipse cx="151.032" cy="310.518" rx="16.1314" ry="24.5408" transform="rotate(-90.0044 151.032 310.518)" fill="#121312"/>
<ellipse cx="151.057" cy="305.708" rx="16.1314" ry="24.5408" transform="rotate(-90.0044 151.057 305.708)" fill="#BEF9D8"/>
<ellipse cx="178.881" cy="289.004" rx="16.1314" ry="24.5408" transform="rotate(-68.4179 178.881 289.004)" fill="#C18E48"/>
<ellipse cx="180.675" cy="284.54" rx="16.1314" ry="24.5408" transform="rotate(-68.4179 180.675 284.54)" fill="#FFD979"/>
<mask id="mask0_736_1291" style="mask-type:alpha" maskUnits="userSpaceOnUse" x="156" y="270" width="47" height="32">
<path d="M184.623 273.654C190.809 276.101 195.832 279.742 198.956 283.64C202.085 287.545 203.28 291.662 201.922 295.096C200.564 298.53 196.875 300.716 191.922 301.423C186.976 302.129 180.821 301.349 174.636 298.902C168.451 296.456 163.428 292.814 160.303 288.916C157.174 285.012 155.979 280.894 157.337 277.46C158.696 274.026 162.384 271.84 167.337 271.133C172.283 270.427 178.438 271.207 184.623 273.654Z" fill="white" stroke="black" stroke-width="0.469899"/>
</mask>
<g mask="url(#mask0_736_1291)">
<ellipse cx="180.938" cy="283.829" rx="10.4025" ry="15.8253" transform="rotate(-68.4179 180.938 283.829)" fill="#FFD979"/>
</g>
<ellipse cx="130.646" cy="267.827" rx="11.8564" ry="18.0372" transform="rotate(-80.3642 130.646 267.827)" fill="#C18E48"/>
<ellipse cx="131.257" cy="264.344" rx="11.8564" ry="18.0372" transform="rotate(-80.3642 131.257 264.344)" fill="#FFD979"/>
<mask id="mask1_736_1291" style="mask-type:alpha" maskUnits="userSpaceOnUse" x="113" y="255" width="36" height="22">
<path d="M132.43 255.977C137.241 256.794 141.396 258.644 144.226 260.964C147.062 263.288 148.529 266.047 148.08 268.692C147.631 271.336 145.336 273.456 141.892 274.714C138.455 275.97 133.921 276.346 129.11 275.529C124.299 274.712 120.143 272.861 117.313 270.542C114.478 268.217 113.011 265.458 113.46 262.814C113.909 260.169 116.204 258.049 119.648 256.791C123.085 255.535 127.618 255.16 132.43 255.977Z" fill="white" stroke="black" stroke-width="0.469899"/>
</mask>
<g mask="url(#mask1_736_1291)">
<ellipse cx="131.338" cy="263.792" rx="7.64566" ry="11.6314" transform="rotate(-80.3642 131.338 263.792)" fill="#FFD979"/>
</g>
<ellipse cx="97.3772" cy="296.194" rx="14.3259" ry="21.794" transform="rotate(-94.8509 97.3772 296.194)" fill="#317D6F"/>
<ellipse cx="97.0389" cy="291.935" rx="14.3259" ry="21.794" transform="rotate(-94.8509 97.0389 291.935)" fill="#1ADAB7"/>
<mask id="mask2_736_1291" style="mask-type:alpha" maskUnits="userSpaceOnUse" x="75" y="281" width="44" height="26">
<path d="M95.8776 281.743C101.76 281.244 107.189 282.154 111.21 284.016C115.238 285.882 117.806 288.678 118.082 291.932C118.359 295.187 116.298 298.375 112.642 300.893C108.993 303.407 103.794 305.218 97.9122 305.717C92.03 306.217 86.6006 305.307 82.5798 303.444C78.5519 301.579 75.9837 298.783 75.7075 295.528C75.4313 292.274 77.4916 289.085 81.1475 286.568C84.7969 284.054 89.9953 282.242 95.8776 281.743Z" fill="white" stroke="black" stroke-width="0.469899"/>
</mask>
<g mask="url(#mask2_736_1291)">
</g>
<ellipse cx="173.1" cy="152.733" rx="16.9868" ry="25.8421" transform="rotate(-156.017 173.1 152.733)" fill="#C18E48"/>
<ellipse cx="168.483" cy="150.65" rx="16.9868" ry="25.8421" transform="rotate(-156.017 168.483 150.65)" fill="white"/>
<mask id="mask3_736_1291" style="mask-type:alpha" maskUnits="userSpaceOnUse" x="153" y="127" width="35" height="49">
<path d="M157.192 146.01C160.04 139.609 164.094 134.483 168.335 131.366C172.582 128.245 176.972 127.167 180.531 128.75C184.09 130.333 186.228 134.316 186.754 139.56C187.279 144.797 186.186 151.241 183.338 157.642C180.49 164.043 176.436 169.169 172.195 172.286C167.948 175.407 163.558 176.485 159.999 174.902C156.44 173.319 154.302 169.336 153.776 164.092C153.251 158.855 154.344 152.411 157.192 146.01Z" fill="white" stroke="black" stroke-width="0.469899"/>
</mask>
<g mask="url(#mask3_736_1291)">
<ellipse cx="167.851" cy="150.63" rx="13.7274" ry="20.8836" transform="rotate(-156.017 167.851 150.63)" fill="#FFD979"/>
</g>
<ellipse rx="14.3229" ry="21.7895" transform="matrix(0.913664 -0.40647 -0.40647 -0.913664 101.407 35.6854)" fill="#C18E48"/>
<ellipse rx="14.3229" ry="21.7895" transform="matrix(0.913664 -0.40647 -0.40647 -0.913664 105.3 33.929)" fill="white"/>
<mask id="mask4_736_1291" style="mask-type:alpha" maskUnits="userSpaceOnUse" x="89" y="14" width="30" height="42">
<path d="M114.786 30.0313C112.387 24.6387 108.973 20.3221 105.403 17.6985C101.826 15.0704 98.1394 14.1692 95.156 15.4964C92.1726 16.8237 90.3733 20.1657 89.9308 24.5816C89.4891 28.9899 90.4089 34.4164 92.8079 39.8091C95.207 45.2017 98.6217 49.5182 102.192 52.1418C105.768 54.7699 109.455 55.6712 112.438 54.3439C115.422 53.0166 117.221 49.6747 117.664 45.2587C118.105 40.8504 117.186 35.4239 114.786 30.0313Z" fill="white" stroke="black" stroke-width="0.469899"/>
</mask>
<g mask="url(#mask4_736_1291)">
<ellipse rx="11.5747" ry="17.6087" transform="matrix(0.913664 -0.40647 -0.40647 -0.913664 105.833 33.9114)" fill="#FFD979"/>
</g>
<path opacity="0.7" d="M127.5 231.819V216.319C103.5 216.319 81.1667 197.653 73 188.319V197.819C62.6 200.219 59.3333 211.153 59 216.319V299.819C63.4 322.219 94.8333 335.819 110 339.819C109.667 313.153 109.2 257.819 110 249.819C110.8 241.819 122 234.486 127.5 231.819Z" fill="#1B262C"/>
<path fill-rule="evenodd" clip-rule="evenodd" d="M73.7734 181.319C72.6128 184.307 72 187.417 72 190.61C72 213.698 104.04 232.416 143.564 232.416C183.088 232.416 215.129 213.698 215.129 190.61C215.129 187.417 214.516 184.307 213.356 181.319C206.124 199.937 177.623 213.835 143.564 213.835C109.506 213.835 81.005 199.937 73.7734 181.319Z" fill="#1B262C"/>
<path d="M223.716 238.347C225.957 228.291 214.378 210.88 208.307 208.319L195 218.794C211.809 228.85 209.008 245.098 208.307 250.917V333.319L223.716 322.844C222.782 295.61 221.475 248.403 223.716 238.347Z" fill="url(#paint0_linear_736_1291)"/>
<defs>
<linearGradient id="paint0_linear_736_1291" x1="206.698" y1="208.319" x2="206.698" y2="333.319" gradientUnits="userSpaceOnUse">
<stop stop-color="#1ADAB7"/>
<stop offset="1" stop-color="#BEF9D8" stop-opacity="0"/>
</linearGradient>
</defs>
</svg>
