<svg width="68" height="83" viewBox="0 0 68 83" fill="none" xmlns="http://www.w3.org/2000/svg">
<path opacity="0.5" d="M18.7499 40.9742H41.4501V82.5911L30.1 73.5293L18.7499 82.5911V40.9742Z" fill="#232326"/>
<path d="M23.2899 37.9474H45.9901V79.5644L34.64 70.5026L23.2899 79.5644V37.9474Z" fill="#F2B826"/>
<circle opacity="0.5" cx="33.9259" cy="33.4259" r="33.4259" fill="#232326"/>
<circle cx="33.5871" cy="30.3472" r="30.3472" fill="#F2B826"/>
<circle cx="33.5112" cy="26.6596" r="20.4301" fill="#FFD979"/>
<path d="M27.6247 21.4732V19.4972C27.6247 19.1399 27.781 18.872 28.0936 18.6934L31.5768 16.5834C32.001 16.3378 32.3582 16.215 32.6485 16.215H34.658C35.0376 16.215 35.2274 16.4048 35.2274 16.7843V37.181C35.2274 37.5605 35.0488 37.7503 34.6915 37.7503H32.5145C32.135 37.7503 31.9452 37.5605 31.9452 37.181V19.6981L28.2945 21.8081C27.848 22.0091 27.6247 21.8974 27.6247 21.4732Z" fill="#39393C"/>
</svg>
