<svg width="50" height="70" viewBox="0 0 50 70" fill="none" xmlns="http://www.w3.org/2000/svg">
<path opacity="0.5" d="M13.9482 35.1398H31.3676V69.9785L22.6579 62.3927L13.9482 69.9785V35.1398Z" fill="#232326"/>
<path d="M16.7354 36.5334H34.1547V65.798L25.445 59.4259L16.7354 65.798V36.5334Z" fill="#34C3A7"/>
<circle opacity="0.5" cx="25.0967" cy="24.688" r="24.3871" fill="#232326"/>
<circle cx="25.445" cy="22.9459" r="21.9484" fill="#34C3A7"/>
<circle cx="25.445" cy="22.9462" r="17.7678" fill="#BEF9D8"/>
<path d="M24.4745 21.4029H26.199C27.7459 21.4029 28.5193 20.64 28.5193 19.114V17.4836C28.5193 15.9785 27.7459 15.226 26.199 15.226H24.3491C23.5757 15.226 23.0008 15.4037 22.6246 15.7591C22.2692 16.1144 22.0915 16.6893 22.0915 17.4836V18.3929C22.0915 18.7482 21.9139 18.9259 21.5585 18.9259H19.5518C19.1964 18.9259 19.0188 18.7482 19.0188 18.3929V17.4209C19.0188 15.8949 19.4473 14.7139 20.3043 13.8778C21.1614 13.0416 22.3633 12.6236 23.9101 12.6236H26.638C28.1848 12.6236 29.3868 13.0416 30.2438 13.8778C31.1008 14.7139 31.5294 15.8949 31.5294 17.4209V19.1454C31.5294 20.9849 30.6932 22.1555 29.021 22.6571C30.6932 23.0543 31.5294 24.2249 31.5294 26.1689V27.9875C31.5294 29.5134 31.1008 30.6944 30.2438 31.5306C29.3868 32.3667 28.1848 32.7848 26.638 32.7848H23.9101C22.3633 32.7848 21.1614 32.3667 20.3043 31.5306C19.4473 30.6944 19.0188 29.5134 19.0188 27.9875V26.89C19.0188 26.5138 19.1964 26.3257 19.5518 26.3257H21.5585C21.9139 26.3257 22.0915 26.5138 22.0915 26.89V27.9248C22.0915 28.6982 22.2692 29.273 22.6246 29.6493C23.0008 30.0046 23.5757 30.1823 24.3491 30.1823H26.199C27.7459 30.1823 28.5193 29.4298 28.5193 27.9248V26.2002C28.5193 24.6743 27.7459 23.9113 26.199 23.9113H24.4745C24.1192 23.9113 23.9415 23.7337 23.9415 23.3783V21.9673C23.9415 21.5911 24.1192 21.4029 24.4745 21.4029Z" fill="#39393C"/>
</svg>
