<svg width="34" height="34" viewBox="0 0 34 34" fill="none" xmlns="http://www.w3.org/2000/svg">
<path d="M24.0834 27.9585H9.91669V28.3335V28.7085H24.0834V28.3335V27.9585Z" fill="#FEF5DC" fill-opacity="0.05" stroke="#FEF5DC" stroke-width="0.75"/>
<path d="M14.1667 28.3332C21.9584 24.7915 15.3 19.2665 18.4167 14.1665" stroke="#FEF5DC" stroke-width="1.4143"/>
<path d="M16.1387 19.1934L16.9242 19.0363L16.6709 18.2764C16.5351 17.8688 16.4163 17.4711 16.2975 17.0734C16.2652 16.9653 16.2329 16.8573 16.2003 16.749C16.05 16.2501 15.8933 15.7502 15.7054 15.276C15.3271 14.3214 14.8034 13.4206 13.8743 12.7449C12.125 11.4727 9.6508 10.7537 5.54238 11.4874L4.75826 11.6274L4.99018 12.3894C6.0172 15.7639 7.66962 17.7965 9.59077 18.7611C10.5915 19.2986 11.5055 19.5644 12.5575 19.6077C13.5853 19.6499 14.7177 19.4776 16.1387 19.1934Z" fill="#FEF5DC" fill-opacity="0.05" stroke="#FEF5DC" stroke-width="1.4143"/>
<path d="M19.4494 8.02678L19.4107 8.06987L19.3794 8.11871C18.2223 9.92712 17.6403 12.0437 17.71 14.1895L17.7334 14.9106L18.4539 14.8727C21.2491 14.7256 23.3877 13.9853 24.9501 12.7354L24.9807 12.7109L25.0084 12.6832C26.5791 11.1126 27.4758 9.08678 27.6232 5.69722L27.6565 4.93147L26.8906 4.95984C24.9031 5.03345 23.39 5.40324 22.19 5.9645C20.9863 6.52753 20.1336 7.26655 19.4494 8.02678Z" fill="#FEF5DC" fill-opacity="0.05" stroke="#FEF5DC" stroke-width="1.4143"/>
</svg>
