<svg width="22" height="22" viewBox="0 0 22 22" fill="none" xmlns="http://www.w3.org/2000/svg">
<path fill-rule="evenodd" clip-rule="evenodd" d="M11.3411 1.28938C12.2295 0.400935 13.6699 0.400935 14.5583 1.28938L15.5662 2.29718C16.0945 2.82559 16.004 3.57832 15.7479 4.04664C15.6218 4.27712 15.55 4.54163 15.55 4.82489C15.55 5.72234 16.2774 6.44989 17.175 6.44989C17.4582 6.44989 17.7228 6.37796 17.9531 6.2519C18.4215 5.99573 19.1742 5.90525 19.7027 6.43366L20.7103 7.44128C21.5987 8.32973 21.5987 9.77018 20.7103 10.6586L10.6584 20.7105C9.76993 21.599 8.32948 21.599 7.44104 20.7105L6.43351 19.703C5.90502 19.1745 5.99559 18.4216 6.25186 17.9534C6.37799 17.7228 6.44996 17.4582 6.44996 17.1749C6.44996 16.2774 5.72242 15.5499 4.82495 15.5499C4.54162 15.5499 4.27704 15.6218 4.04651 15.7479C3.57818 16.0043 2.82533 16.0948 2.29685 15.5663L1.28914 14.5586C0.400691 13.6701 0.400691 12.2297 1.28914 11.3413L11.3411 1.28938ZM11 13C12.1046 13 13 12.1046 13 11C13 9.89543 12.1046 9 11 9C9.89543 9 9 9.89543 9 11C9 12.1046 9.89543 13 11 13Z" fill="#62E3C4"/>
</svg>
