<svg width="19" height="20" viewBox="0 0 19 20" fill="none" xmlns="http://www.w3.org/2000/svg">
<g style="mix-blend-mode:multiply" opacity="0.5">
<circle cx="9.5" cy="10.5" r="9.5" fill="#39393C"/>
</g>
<circle cx="9" cy="9" r="9" fill="#F2B826"/>
<path d="M7.75 7.3335C7.75 6.91928 7.41421 6.5835 7 6.5835C6.58579 6.5835 6.25 6.91928 6.25 7.3335H7.75ZM6.25 12.0002C6.25 12.4144 6.58579 12.7502 7 12.7502C7.41421 12.7502 7.75 12.4144 7.75 12.0002H6.25ZM6.25 7.3335V12.0002H7.75V7.3335H6.25Z" fill="#232326"/>
<path d="M11.25 5C11.25 4.58579 10.9142 4.25 10.5 4.25C10.0858 4.25 9.75 4.58579 9.75 5L11.25 5ZM9.75 12C9.75 12.4142 10.0858 12.75 10.5 12.75C10.9142 12.75 11.25 12.4142 11.25 12L9.75 12ZM9.75 5L9.75 12L11.25 12L11.25 5L9.75 5Z" fill="#232326"/>
</svg>
