<svg width="12" height="12" viewBox="0 0 12 12" fill="none" xmlns="http://www.w3.org/2000/svg">
<g style="mix-blend-mode:multiply" opacity="0.5">
<circle cx="6.57695" cy="6.48466" r="4.42653" fill="#39393C"/>
</g>
<circle cx="6.34397" cy="5.78575" r="4.19355" fill="#F2B826"/>
<path d="M5.76154 5.00923C5.76154 4.81623 5.60508 4.65977 5.41208 4.65977C5.21908 4.65977 5.06262 4.81623 5.06262 5.00923H5.76154ZM5.06262 7.18367C5.06262 7.37667 5.21908 7.53313 5.41208 7.53313C5.60508 7.53313 5.76154 7.37667 5.76154 7.18367H5.06262ZM5.06262 5.00923V7.18367H5.76154V5.00923H5.06262Z" fill="#232326"/>
<path d="M7.39234 3.92194C7.39234 3.72893 7.23588 3.57247 7.04288 3.57247C6.84987 3.57247 6.69341 3.72893 6.69341 3.92194L7.39234 3.92194ZM6.69341 7.18359C6.69341 7.37659 6.84987 7.53305 7.04288 7.53305C7.23588 7.53305 7.39234 7.37659 7.39234 7.18359L6.69341 7.18359ZM6.69341 3.92194L6.69341 7.18359L7.39234 7.18359L7.39234 3.92194L6.69341 3.92194Z" fill="#232326"/>
</svg>
