<svg width="42" height="42" viewBox="0 0 42 42" fill="none" xmlns="http://www.w3.org/2000/svg">
<path d="M21 5.25001C19.9343 5.2486 18.8856 5.51757 17.9521 6.03175C17.0187 6.54593 16.2309 7.28851 15.6625 8.19001C15.147 8.06561 14.6178 8.00681 14.0875 8.01501C12.4918 8.07428 10.9781 8.7373 9.8525 9.87001C9.11374 10.6232 8.57598 11.5499 8.28856 12.5651C8.00114 13.5802 7.97327 14.6513 8.2075 15.68C7.30526 16.2447 6.56081 17.0288 6.04363 17.9591C5.52645 18.8894 5.25342 19.9356 5.25 21C5.25046 22.0674 5.52209 23.1171 6.0394 24.0507C6.55672 24.9843 7.30275 25.7712 8.2075 26.3375C7.97549 27.3677 8.00614 28.4396 8.29664 29.4549C8.58714 30.4701 9.12817 31.396 9.87 32.1475C10.6251 32.9009 11.559 33.4503 12.5844 33.7441C13.6098 34.038 14.693 34.0667 15.7325 33.8275C16.2966 34.7158 17.0742 35.4486 17.9943 35.9591C18.9144 36.4696 19.9478 36.7415 21 36.75C22.0611 36.7503 23.1051 36.4826 24.0352 35.9717C24.9652 35.4608 25.7511 34.7233 26.32 33.8275C27.356 34.0596 28.4339 34.0262 29.4535 33.7302C30.4732 33.4343 31.4015 32.8854 32.1522 32.1347C32.9029 31.384 33.4518 30.4557 33.7477 29.436C34.0437 28.4164 34.0771 27.3385 33.845 26.3025C34.735 25.7331 35.4675 24.9491 35.9752 24.0225C36.4828 23.0959 36.7492 22.0565 36.75 21C36.7503 19.9389 36.4826 18.8949 35.9717 17.9648C35.4608 17.0348 34.7232 16.2489 33.8275 15.68V15.68C34.0596 14.644 34.0262 13.5661 33.7302 12.5465C33.4343 11.5268 32.8854 10.5986 32.1347 9.84781C31.384 9.09707 30.4557 8.54824 29.436 8.25229C28.4164 7.95634 27.3385 7.92287 26.3025 8.15501C25.7331 7.265 24.9491 6.53248 24.0225 6.02485C23.0959 5.51721 22.0565 5.25076 21 5.25001V5.25001Z" fill="#62E3C4"/>
<path d="M26.25 17.5L19.25 24.5" stroke="#39393C" stroke-width="3.5" stroke-linecap="round" stroke-linejoin="round"/>
<path d="M15.75 21L19.25 24.5" stroke="#39393C" stroke-width="3.5" stroke-linecap="round" stroke-linejoin="round"/>
</svg>
