<svg width="119" height="126" viewBox="0 0 119 126" fill="none" xmlns="http://www.w3.org/2000/svg">
<g style="mix-blend-mode:multiply">
<circle cx="15.3639" cy="113.361" r="11.7902" fill="#93B5FE"/>
</g>
<circle cx="14.4678" cy="112.465" r="10.8941" fill="#93B5FE"/>
<circle cx="13.3682" cy="111.368" r="8.01359" transform="rotate(36.995 13.3682 111.368)" stroke="white" stroke-width="0.208129"/>
<circle cx="13.3702" cy="111.363" r="6.83944" transform="rotate(36.995 13.3702 111.363)" fill="white"/>
<path d="M11.2784 108.344L11.4804 108.078C11.5309 108.012 11.5945 107.984 11.6711 107.993L12.7783 108.135C12.8793 108.149 12.9519 108.173 12.9961 108.207L13.2745 108.419C13.3363 108.466 13.3437 108.52 13.2966 108.582L10.1905 112.659C10.1433 112.72 10.0888 112.728 10.027 112.681L9.72872 112.453C9.66686 112.406 9.65949 112.352 9.70663 112.29L12.4895 108.638L11.3573 108.488C11.2441 108.471 11.2178 108.423 11.2784 108.344ZM11.0936 113.347L11.5482 112.75C11.7738 112.454 12.0827 112.305 12.4749 112.304L14.5218 112.271C14.8707 112.272 15.1394 112.148 15.3279 111.901L15.5098 111.662C15.796 111.287 15.7491 110.954 15.3691 110.664L14.9647 110.356C14.5936 110.074 14.2649 110.12 13.9787 110.496L13.7716 110.767C13.7211 110.834 13.6649 110.843 13.6031 110.796L13.3048 110.569C13.2474 110.525 13.2439 110.47 13.2944 110.404L13.5065 110.125C13.7389 109.82 14.0052 109.65 14.3054 109.613C14.6091 109.572 14.9133 109.668 15.2182 109.9L15.7485 110.304C16.0534 110.536 16.2263 110.804 16.2673 111.108C16.3117 111.407 16.2177 111.709 15.9854 112.014L15.7783 112.286C15.5157 112.631 15.1649 112.807 14.726 112.815L12.6441 112.852C12.4107 112.856 12.2317 112.939 12.1072 113.103L11.8748 113.408L13.724 114.817C13.7859 114.864 13.7933 114.918 13.7461 114.98L13.5592 115.226C13.5121 115.287 13.4576 115.295 13.3957 115.248L11.1157 113.51C11.0539 113.463 11.0465 113.409 11.0936 113.347Z" fill="black"/>
<g style="mix-blend-mode:multiply" opacity="0.8">
<path d="M11.5391 30.3837V10.5266L41.6619 19.0995V105.404L20.0702 100.345V33.2599L11.5391 30.3837Z" fill="#01656B"/>
</g>
<path d="M31.888 16.9704V1L60.2028 10.8559V91.4091L39.8874 85.6165V19.7093L31.888 16.9704Z" fill="white" stroke="black" stroke-width="0.673535"/>
<g style="mix-blend-mode:multiply" opacity="0.8">
<path d="M41.3865 58.147C42.1796 44.4924 49.1855 42.1456 58.3063 44.4925C69.6743 48.475 74.477 61.6792 74.1686 69.668V108.356C74.1686 111.485 74.1686 125.708 58.3063 121.868C45.6164 118.796 41.739 104.752 41.3865 98.1148V58.147Z" fill="#01656B"/>
</g>
<path d="M29.1009 24.6009L39.9958 19.1913V85.3989L29.1009 90.3381V24.6009Z" fill="#7ACECE" stroke="black" stroke-width="0.673535"/>
<path d="M20.9642 22.0623V6.50524L31.8592 1V16.7118L20.9642 22.0623Z" fill="#7ACECE" stroke="black" stroke-width="0.673535"/>
<path d="M28.8541 24.5188L20.8125 22.0912L31.8886 16.629L40.0819 19.0566L28.8541 24.5188Z" fill="#196B6F" stroke="black" stroke-width="0.336768"/>
<path d="M47.9146 94.9304L29.157 90.8448L39.5281 85.8164L59.019 90.8448L47.9146 94.9304Z" fill="black" stroke="black" stroke-width="0.673535"/>
<g style="mix-blend-mode:multiply">
<path d="M28.864 73.2633C36.8386 70.2113 39.8168 60.9158 39.9399 57.1418V86.1218L28.864 90.5078V73.2633Z" fill="#348489"/>
</g>
<path fill-rule="evenodd" clip-rule="evenodd" d="M72.4094 41.0908L72.4095 53.7115V102.771L88.8074 107.546V46.7037L72.4094 41.0908ZM89.3047 58.1042C89.8839 56.3735 93.6489 54.9586 97.5587 55.4338C103.785 56.1906 107.904 63.6622 107.904 63.6622L104.654 71.8059C103.399 69.4982 100.6 64.4503 96.6899 64.4503C92.7801 64.4503 90.1735 65.9624 89.3047 73.6065V58.1042Z" fill="#023C40"/>
<path fill-rule="evenodd" clip-rule="evenodd" d="M87.4161 39.0869L87.416 49.9008V94.5099L98.4268 97.1991V56.1774C99.7295 54.1525 101.578 53.6214 103.883 53.6214C107.766 53.6214 110.547 58.6555 111.793 60.9568L114.057 50.9674C114.057 50.9674 110.93 45.3846 104.746 44.6299C102.347 44.3372 100.004 44.7634 98.4268 45.5387V42.6769L87.4161 39.0869Z" fill="white"/>
<path d="M87.416 49.9008L87.0792 49.9008V49.9008H87.416ZM87.4161 39.0869L87.5205 38.7667C87.418 38.7333 87.3056 38.751 87.2183 38.8143C87.131 38.8777 87.0794 38.979 87.0793 39.0869L87.4161 39.0869ZM87.416 94.5099H87.0792C87.0792 94.6651 87.1853 94.8002 87.3361 94.837L87.416 94.5099ZM98.4268 97.1991L98.3469 97.5262C98.4474 97.5508 98.5535 97.5278 98.6348 97.464C98.7161 97.4001 98.7636 97.3025 98.7636 97.1991H98.4268ZM98.4268 56.1774L98.1436 55.9952C98.1087 56.0495 98.0901 56.1127 98.0901 56.1774H98.4268ZM111.793 60.9568L111.497 61.1171C111.564 61.2405 111.7 61.3095 111.839 61.2904C111.978 61.2712 112.091 61.168 112.122 61.0312L111.793 60.9568ZM114.057 50.9674L114.386 51.0418C114.404 50.9606 114.392 50.8754 114.351 50.8028L114.057 50.9674ZM104.746 44.6299L104.705 44.9641L104.705 44.9641L104.746 44.6299ZM98.4268 45.5387H98.0901C98.0901 45.655 98.1501 45.7631 98.2488 45.8246C98.3476 45.8861 98.471 45.8923 98.5754 45.841L98.4268 45.5387ZM98.4268 42.6769H98.7636C98.7636 42.5311 98.6698 42.4019 98.5312 42.3567L98.4268 42.6769ZM87.7528 49.9008L87.7529 39.0869L87.0793 39.0869L87.0792 49.9008L87.7528 49.9008ZM87.7528 94.5099V49.9008H87.0792V94.5099H87.7528ZM98.5067 96.8719L87.4959 94.1827L87.3361 94.837L98.3469 97.5262L98.5067 96.8719ZM98.0901 56.1774V97.1991H98.7636V56.1774H98.0901ZM98.7101 56.3596C99.3263 55.4016 100.062 54.8086 100.91 54.4503C101.765 54.0889 102.753 53.9582 103.883 53.9582V53.2847C102.708 53.2847 101.619 53.4195 100.648 53.8299C99.6697 54.2433 98.83 54.9282 98.1436 55.9952L98.7101 56.3596ZM103.883 53.9582C105.674 53.9582 107.255 55.1226 108.572 56.6463C109.882 58.1616 110.873 59.9655 111.497 61.1171L112.089 60.7964C111.467 59.6468 110.445 57.7829 109.082 56.2059C107.726 54.6373 105.974 53.2847 103.883 53.2847V53.9582ZM112.122 61.0312L114.386 51.0418L113.729 50.8929L111.465 60.8823L112.122 61.0312ZM114.057 50.9674C114.351 50.8028 114.351 50.8026 114.351 50.8025C114.351 50.8024 114.351 50.8022 114.351 50.8021C114.351 50.8018 114.35 50.8013 114.35 50.8009C114.349 50.7999 114.349 50.7986 114.348 50.7969C114.346 50.7936 114.343 50.789 114.34 50.7831C114.333 50.7712 114.323 50.7542 114.31 50.7324C114.284 50.6887 114.246 50.6257 114.195 50.5458C114.094 50.3862 113.944 50.159 113.744 49.885C113.345 49.3372 112.748 48.6 111.954 47.8385C110.366 46.317 107.974 44.6846 104.786 44.2956L104.705 44.9641C107.702 45.3299 109.966 46.8662 111.488 48.3248C112.248 49.0533 112.819 49.7589 113.2 50.2815C113.39 50.5426 113.532 50.7576 113.626 50.9061C113.673 50.9804 113.708 51.038 113.731 51.0765C113.743 51.0958 113.751 51.1102 113.756 51.1196C113.759 51.1242 113.761 51.1276 113.762 51.1297C113.763 51.1307 113.763 51.1314 113.763 51.1318C113.764 51.132 113.764 51.1321 113.764 51.1321C113.764 51.1321 113.764 51.1321 113.764 51.1321C113.764 51.132 113.763 51.1319 114.057 50.9674ZM104.786 44.2956C102.33 43.9958 99.9202 44.4294 98.2783 45.2365L98.5754 45.841C100.088 45.0975 102.364 44.6785 104.705 44.9641L104.786 44.2956ZM98.0901 42.6769V45.5387H98.7636V42.6769H98.0901ZM87.3117 39.4071L98.3224 42.997L98.5312 42.3567L87.5205 38.7667L87.3117 39.4071Z" fill="black"/>
<path d="M79.8624 43.1761L87.4153 39.0869L87.6292 94.5834L79.8624 97.9184V43.1761Z" fill="#FFE9B1"/>
<path d="M87.4153 39.0869L87.752 39.0856C87.7516 38.9672 87.6889 38.8577 87.5871 38.7972C87.4852 38.7368 87.3591 38.7344 87.2549 38.7908L87.4153 39.0869ZM79.8624 43.1761L79.7021 42.8799L79.5257 42.9755V43.1761H79.8624ZM79.8624 97.9184H79.5257V98.4295L79.9953 98.2279L79.8624 97.9184ZM87.6292 94.5834L87.7621 94.8928L87.9669 94.8049L87.966 94.5821L87.6292 94.5834ZM87.2549 38.7908L79.7021 42.8799L80.0228 43.4722L87.5756 39.383L87.2549 38.7908ZM79.5257 43.1761V97.9184H80.1992V43.1761H79.5257ZM79.9953 98.2279L87.7621 94.8928L87.4964 94.2739L79.7296 97.609L79.9953 98.2279ZM87.966 94.5821L87.752 39.0856L87.0785 39.0882L87.2925 94.5847L87.966 94.5821Z" fill="black"/>
<path d="M89.2421 100.222L79.9992 97.6257L87.002 94.2303L97.8906 97.1874L89.2421 100.222Z" fill="black" stroke="black" stroke-width="0.673535"/>
<path d="M107.303 64.5651C107.303 60.165 100.913 55.9196 98.4969 58.9512C98.4969 57.6519 97.7385 53.6407 103.504 53.6407C108.511 53.6407 111.009 58.2026 111.546 61.3788L107.303 64.5651Z" fill="#196B6F" stroke="black" stroke-width="0.336768"/>
<g style="mix-blend-mode:multiply">
<path d="M79.8617 84.1118C85.1834 81.3584 87.162 73.6463 87.2763 70.1396V93.9545L79.8617 98.2071V84.1118Z" fill="#EFAF4E"/>
</g>
<path d="M63.0329 45.8989L50.4303 52.2319C46.2264 54.3808 45.7085 61.3742 45.9751 64.6022V95.7572C46.3874 101.584 48.898 105.406 52.0219 107.894C58.8511 113.333 68.5332 111.194 76.9777 108.978L77.1618 108.929L66.1971 94.6572V45.8989H63.0329Z" fill="#FFE9B1" stroke="black" stroke-width="0.673535"/>
<path d="M75.3953 84.4435L75.3955 98.2437C75.3955 100.287 73.5058 101.807 71.5099 101.369C68.5748 100.724 66.4837 98.1238 66.4837 95.1188L66.4837 87.8954L75.3953 84.4435Z" fill="#196B6F" stroke="black" stroke-width="0.336768"/>
<path fill-rule="evenodd" clip-rule="evenodd" d="M55.6399 57.367C56.3284 46.3919 62.4096 44.5056 70.3266 46.3919C80.1941 49.593 84.363 60.206 84.0952 66.6272V70.067L75.653 73.9991L74.9157 73.7392L74.7098 61.6043C74.6651 58.9701 72.9736 56.6467 70.4805 55.795C68.4524 55.1022 66.3445 56.6095 66.3445 58.7527V92.3699C66.3445 95.485 68.3452 98.2478 71.3048 99.2196C73.2941 99.8729 75.3337 98.3693 75.2982 96.2759L75.1032 84.7857L75.653 84.6434L84.0952 85.8838V97.7231C84.0952 100.238 84.0952 111.671 70.3266 108.584C59.3116 106.114 55.9459 94.8269 55.6399 89.4918V57.367Z" fill="white"/>
<path d="M70.3266 46.3919L70.4305 46.0716L70.4177 46.0675L70.4046 46.0643L70.3266 46.3919ZM55.6399 57.367L55.3038 57.3459L55.3032 57.3565V57.367H55.6399ZM84.0952 66.6272L83.7585 66.6131V66.6272H84.0952ZM84.0952 70.067L84.2374 70.3722L84.432 70.2816V70.067H84.0952ZM75.653 73.9991L75.5411 74.3167L75.6707 74.3623L75.7952 74.3043L75.653 73.9991ZM74.9157 73.7392L74.579 73.7449L74.583 73.979L74.8038 74.0568L74.9157 73.7392ZM74.7098 61.6043L74.3731 61.61L74.3731 61.61L74.7098 61.6043ZM70.4805 55.795L70.3716 56.1137L70.3716 56.1137L70.4805 55.795ZM71.3048 99.2196L71.1998 99.5396L71.1998 99.5396L71.3048 99.2196ZM75.2982 96.2759L74.9614 96.2816L74.9614 96.2816L75.2982 96.2759ZM75.1032 84.7857L75.0188 84.4597L74.762 84.5262L74.7665 84.7914L75.1032 84.7857ZM75.653 84.6434L75.702 84.3102L75.6346 84.3003L75.5686 84.3173L75.653 84.6434ZM84.0952 85.8838H84.432V85.5929L84.1442 85.5507L84.0952 85.8838ZM70.3266 108.584L70.2529 108.912L70.2529 108.912L70.3266 108.584ZM55.6399 89.4918H55.3032V89.5014L55.3037 89.5111L55.6399 89.4918ZM70.4046 46.0643C66.4185 45.1146 62.8072 45.0906 60.0952 46.7701C57.367 48.4597 55.6513 51.8059 55.3038 57.3459L55.9761 57.3881C56.317 51.953 57.9861 48.8685 60.4498 47.3427C62.9298 45.8069 66.3176 45.783 70.2485 46.7195L70.4046 46.0643ZM84.4317 66.6412C84.5685 63.3608 83.5743 59.0392 81.3028 55.1327C79.0284 51.2214 75.4595 47.703 70.4305 46.0716L70.2226 46.7123C75.0612 48.2819 78.5104 51.6705 80.7205 55.4713C82.9334 59.2769 83.8897 63.4724 83.7588 66.6132L84.4317 66.6412ZM84.432 70.067V66.6272H83.7585V70.067H84.432ZM83.9531 69.7617L75.5108 73.6938L75.7952 74.3043L84.2374 70.3722L83.9531 69.7617ZM75.765 73.6814L75.0277 73.4216L74.8038 74.0568L75.5411 74.3167L75.765 73.6814ZM75.2524 73.7335L75.0465 61.5986L74.3731 61.61L74.579 73.7449L75.2524 73.7335ZM75.0465 61.5986C74.9994 58.8225 73.2168 56.3739 70.5893 55.4763L70.3716 56.1137C72.7304 56.9195 74.3308 59.1177 74.3731 61.61L75.0465 61.5986ZM70.5893 55.4763C68.3427 54.7088 66.0078 56.3786 66.0078 58.7527H66.6813C66.6813 56.8405 68.5621 55.4955 70.3716 56.1137L70.5893 55.4763ZM66.0078 58.7527V92.3699H66.6813V58.7527H66.0078ZM66.0078 92.3699C66.0078 95.6305 68.1019 98.5223 71.1998 99.5396L71.4099 98.8997C68.5885 97.9732 66.6813 95.3395 66.6813 92.3699H66.0078ZM71.1998 99.5396C73.4091 100.265 75.6743 98.5952 75.6349 96.2701L74.9614 96.2816C74.993 98.1434 73.1791 99.4806 71.4099 98.8997L71.1998 99.5396ZM75.6349 96.2701L75.4399 84.78L74.7665 84.7914L74.9614 96.2816L75.6349 96.2701ZM75.1876 85.1117L75.7374 84.9694L75.5686 84.3173L75.0188 84.4597L75.1876 85.1117ZM75.6041 84.9765L84.0463 86.217L84.1442 85.5507L75.702 84.3102L75.6041 84.9765ZM84.432 97.7231V85.8838H83.7585V97.7231H84.432ZM70.2529 108.912C73.7364 109.693 76.3853 109.564 78.3977 108.861C80.4158 108.155 81.7649 106.882 82.6607 105.431C84.438 102.553 84.432 98.9743 84.432 97.7231H83.7585C83.7585 98.9869 83.7525 102.382 82.0876 105.077C81.2624 106.413 80.0298 107.576 78.1754 108.225C76.3154 108.875 73.8011 109.018 70.4002 108.255L70.2529 108.912ZM55.3037 89.5111C55.4593 92.2245 56.3899 96.4341 58.6779 100.284C60.9699 104.142 64.6346 107.653 70.2529 108.912L70.4002 108.255C65.0035 107.045 61.4779 103.678 59.2569 99.9404C57.0318 96.1959 56.1265 92.0942 55.9762 89.4725L55.3037 89.5111ZM55.3032 57.367V89.4918H55.9767V57.367H55.3032Z" fill="black"/>
<g style="mix-blend-mode:multiply">
<path d="M56.4943 93.8723L56.4889 93.8112L66.1982 85.4645C66.1982 93.2452 67.3817 95.2642 67.3817 95.2642C72.9596 102.544 75.7139 99.6657 75.2405 84.8967C75.1407 85.1634 80.2132 84.6867 82.3072 85.164V97.2457C81.6746 106.624 76.3944 110.362 65.7667 106.307C57.3048 103.078 56.8724 98.1668 56.4943 93.8723Z" fill="#FFD979"/>
</g>
<path d="M66.3412 71.6398L66.3416 58.8098C66.3417 56.6377 68.478 55.11 70.5335 55.8122C73.005 56.6565 74.7051 58.9308 74.8154 61.5402L74.9899 65.6706C75.1725 69.9915 70.9815 73.1636 66.8726 71.8143L66.3412 71.6398Z" fill="#196B6F" stroke="black" stroke-width="0.336768"/>
<g style="mix-blend-mode:multiply">
<path d="M48.5301 103.551C55.5447 104.856 56.9585 98.861 56.7886 95.7003C61.5194 108.425 71.5384 109.974 75.9565 109.159L68.5137 110.892L63.2119 111.912C54.4844 111.912 49.7875 106.338 48.5301 103.551Z" fill="#EFA036"/>
</g>
<path d="M74.8199 74.6636L66.4855 72.0746L74.8199 67.9036L84.3063 70.4925L74.8199 74.6636Z" fill="#196B6F" stroke="black" stroke-width="0.336768"/>
<g style="mix-blend-mode:darken">
<path d="M87.1316 74.0384L96.6518 65.6963V96.9346L87.1316 94.4498V74.0384Z" fill="#FFD979"/>
</g>
<circle cx="82.5" cy="30.2969" r="1.5" fill="#72F7FF"/>
<circle cx="109" cy="85" r="1" fill="#96E4E9"/>
<circle cx="30" cy="114" r="1" fill="#96E4E9"/>
<circle cx="59.5" cy="5.29688" r="0.5" fill="#72F7FF"/>
<circle cx="86" cy="10.7969" r="1" fill="#FFD979"/>
<circle cx="1" cy="93" r="1" fill="#FFD979"/>
<circle cx="97.5" cy="29.2969" r="0.5" fill="#96E4E9"/>
<circle cx="68" cy="39.7969" r="1" fill="#FFD979"/>
<circle cx="10.5" cy="59.2969" r="1.5" fill="#A5E4FF"/>
<circle cx="96" cy="112.797" r="1" fill="#C9E4F0"/>
<circle cx="64" cy="18.7969" r="1" fill="#C9E4F0"/>
<circle cx="109.775" cy="13.779" r="8.9977" fill="#A5381B"/>
<ellipse cx="110.284" cy="13.0997" rx="8.71454" ry="8.31843" fill="#C34B29"/>
<circle cx="111.726" cy="12.5612" r="6.11559" stroke="white" stroke-width="0.158834"/>
<circle cx="111.725" cy="12.5594" r="5.21954" fill="white"/>
<path d="M111.355 13.5607L110.639 11.1662L109.978 13.9723L111.355 13.5607ZM112.038 14.6242L111.782 14.7007C111.729 14.7165 111.695 14.696 111.678 14.6391L111.472 13.9506L109.778 14.457C109.693 14.4825 109.637 14.4526 109.612 14.3673L109.568 14.2211C109.547 14.152 109.543 14.0869 109.556 14.0256L110.276 11.016C110.288 10.9238 110.337 10.865 110.422 10.8395L110.818 10.7211C110.908 10.6944 110.965 10.7237 110.99 10.809L111.776 13.435L112.226 13.3002C112.283 13.2832 112.32 13.3011 112.335 13.3539L112.401 13.5732C112.419 13.6341 112.4 13.6731 112.343 13.6901L111.892 13.8249L112.098 14.5134C112.115 14.5703 112.095 14.6072 112.038 14.6242ZM113.649 14.1426L113.363 14.2282C113.298 14.2477 113.271 14.218 113.283 14.1392L113.587 10.3381L111.966 10.8226C111.909 10.8396 111.872 10.8197 111.855 10.7628L111.784 10.5252C111.767 10.4683 111.787 10.4314 111.844 10.4144L113.855 9.81326C113.911 9.79626 113.948 9.81619 113.965 9.87306L114.042 10.129C114.061 10.1939 114.065 10.2638 114.051 10.3385L113.765 14.0215C113.761 14.0804 113.722 14.1208 113.649 14.1426Z" fill="black"/>
</svg>
