<svg width="81" height="84" viewBox="0 0 81 84" fill="none" xmlns="http://www.w3.org/2000/svg">
<g style="mix-blend-mode:multiply" opacity="0.8">
<path d="M32.1094 40.8468C32.6181 32.1892 37.1116 30.7012 42.9616 32.1892C50.2529 34.7143 53.3333 43.0864 53.1355 48.1516V72.6814C53.1355 74.6654 53.1355 83.6838 42.9616 81.2488C34.8224 79.3009 32.3355 70.3968 32.1094 66.1882V40.8468Z" fill="#01656B"/>
</g>
<path fill-rule="evenodd" clip-rule="evenodd" d="M53.4844 24.6124L53.4845 33.2311V66.7342L64.0795 69.9946V28.4455L53.4844 24.6124ZM64.4004 36.2327C64.7746 35.0508 67.2073 34.0846 69.7335 34.4091C73.7568 34.9259 76.4181 40.0283 76.4181 40.0283L74.3182 45.5896C73.5073 44.0137 71.6984 40.5664 69.1721 40.5664C66.6459 40.5664 64.9618 41.5991 64.4004 46.8193V36.2327Z" fill="#023C40"/>
<path fill-rule="evenodd" clip-rule="evenodd" d="M63.1837 23.2419L63.1836 30.6267V61.0903L70.298 62.9267V34.9098C71.1395 33.5305 72.3331 33.1685 73.8206 33.1685C76.3298 33.1685 78.1264 36.6063 78.9319 38.1778L80.3947 31.3561C80.3947 31.3561 78.3743 27.5436 74.3782 27.0282C72.8299 26.8285 71.317 27.1189 70.298 27.6475V25.6935L63.1837 23.2419Z" fill="#FFE9B1"/>
<path d="M63.1836 30.6267L62.9288 30.6267V30.6267H63.1836ZM63.1837 23.2419L63.2667 23.001C63.1888 22.9742 63.1028 22.9866 63.0357 23.0344C62.9687 23.0823 62.9289 23.1595 62.9289 23.2419L63.1837 23.2419ZM63.1836 61.0903H62.9288C62.9288 61.2064 63.0074 61.3079 63.1199 61.337L63.1836 61.0903ZM70.298 62.9267L70.2343 63.1734C70.3106 63.1931 70.3917 63.1764 70.454 63.1281C70.5163 63.0799 70.5528 63.0055 70.5528 62.9267H70.298ZM70.298 34.9098L70.0805 34.7771C70.0561 34.8171 70.0432 34.863 70.0432 34.9098H70.298ZM78.9319 38.1778L78.7051 38.294C78.7543 38.3899 78.8584 38.4445 78.9652 38.4304C79.072 38.4163 79.1584 38.3366 79.181 38.2312L78.9319 38.1778ZM80.3947 31.3561L80.6438 31.4095C80.6564 31.3509 80.6479 31.2897 80.6198 31.2368L80.3947 31.3561ZM74.3782 27.0282L74.4108 26.7755L74.3782 27.0282ZM70.298 27.6475H70.0432C70.0432 27.7365 70.0896 27.819 70.1657 27.8653C70.2417 27.9115 70.3363 27.9147 70.4153 27.8737L70.298 27.6475ZM70.298 25.6935H70.5528C70.5528 25.5848 70.4838 25.488 70.381 25.4526L70.298 25.6935ZM63.4384 30.6267L63.4385 23.2419L62.9289 23.2419L62.9288 30.6267L63.4384 30.6267ZM63.4384 61.0903V30.6267H62.9288V61.0903H63.4384ZM70.3617 62.68L63.2473 60.8436L63.1199 61.337L70.2343 63.1734L70.3617 62.68ZM70.0432 34.9098V62.9267H70.5528V34.9098H70.0432ZM70.5155 35.0425C70.9114 34.3935 71.382 33.9949 71.9208 33.7546C72.4649 33.512 73.0952 33.4233 73.8206 33.4233V32.9137C73.0585 32.9137 72.3483 33.006 71.7133 33.2892C71.073 33.5747 70.5261 34.0468 70.0805 34.7771L70.5155 35.0425ZM73.8206 33.4233C74.9558 33.4233 75.9667 34.2042 76.8179 35.2451C77.6622 36.2775 78.3019 37.5073 78.7051 38.294L79.1586 38.0616C78.7564 37.2768 78.0951 36.0019 77.2124 34.9226C76.3366 33.8517 75.1946 32.9137 73.8206 32.9137V33.4233ZM79.181 38.2312L80.6438 31.4095L80.1455 31.3026L78.6827 38.1244L79.181 38.2312ZM80.3947 31.3561C80.6198 31.2368 80.6197 31.2367 80.6197 31.2365C80.6196 31.2365 80.6196 31.2364 80.6195 31.2362C80.6194 31.236 80.6192 31.2357 80.6191 31.2354C80.6187 31.2347 80.6182 31.2338 80.6176 31.2326C80.6164 31.2303 80.6146 31.2271 80.6124 31.2231C80.6079 31.2149 80.6015 31.2032 80.5931 31.1882C80.5762 31.1582 80.5514 31.115 80.5186 31.0603C80.4531 30.9509 80.3556 30.7954 80.2263 30.6077C79.9679 30.2328 79.5812 29.728 79.0663 29.2064C78.038 28.1649 76.4846 27.043 74.4108 26.7755L74.3456 27.2809C76.2678 27.5288 77.7226 28.5708 78.7037 29.5644C79.1933 30.0604 79.5614 30.5409 79.8067 30.8969C79.9293 31.0747 80.0209 31.2211 80.0815 31.3222C80.1118 31.3727 80.1342 31.4119 80.1489 31.438C80.1563 31.4511 80.1617 31.4608 80.1651 31.4671C80.1668 31.4703 80.168 31.4726 80.1688 31.4739C80.1692 31.4746 80.1694 31.4751 80.1695 31.4753C80.1696 31.4755 80.1696 31.4755 80.1696 31.4755C80.1696 31.4755 80.1696 31.4755 80.1696 31.4755C80.1696 31.4754 80.1695 31.4754 80.3947 31.3561ZM74.4108 26.7755C72.816 26.5698 71.2501 26.8666 70.1807 27.4214L70.4153 27.8737C71.3839 27.3712 72.8438 27.0872 74.3456 27.2809L74.4108 26.7755ZM70.0432 25.6935V27.6475H70.5528V25.6935H70.0432ZM63.1007 23.4828L70.215 25.9344L70.381 25.4526L63.2667 23.001L63.1007 23.4828Z" fill="black"/>
<path d="M58.2998 26.0344L63.1799 23.2419L63.3181 61.1405L58.2998 63.4179V26.0344Z" fill="#FFE9B1"/>
<path d="M63.1799 23.2419L63.4347 23.241C63.4343 23.1503 63.3858 23.0666 63.3073 23.0212C63.2288 22.9759 63.132 22.9757 63.0533 23.0207L63.1799 23.2419ZM58.2998 26.0344L58.1733 25.8133L58.045 25.8866V26.0344H58.2998ZM58.2998 63.4179H58.045V63.8134L58.4051 63.65L58.2998 63.4179ZM63.3181 61.1405L63.4234 61.3725L63.5735 61.3044L63.5729 61.1395L63.3181 61.1405ZM63.0533 23.0207L58.1733 25.8133L58.4263 26.2555L63.3064 23.463L63.0533 23.0207ZM58.045 26.0344V63.4179H58.5546V26.0344H58.045ZM58.4051 63.65L63.4234 61.3725L63.2128 60.9085L58.1945 63.1859L58.4051 63.65ZM63.5729 61.1395L63.4347 23.241L62.9251 23.2428L63.0634 61.1414L63.5729 61.1395Z" fill="black"/>
<path d="M64.3617 64.9904L58.3896 63.2174L62.9144 60.8987L69.9497 62.9181L64.3617 64.9904Z" fill="black" stroke="black" stroke-width="0.509562"/>
<path d="M76.0304 40.6407C76.0304 37.6359 71.9015 34.7367 70.3406 36.8069C70.3406 35.9197 69.8506 33.1804 73.5759 33.1804C76.811 33.1804 78.4249 36.2957 78.7718 38.4648L76.0304 40.6407Z" fill="#196B6F" stroke="black" stroke-width="0.254781"/>
<g style="mix-blend-mode:multiply">
<path d="M58.2998 53.9899C61.7383 52.1096 63.0167 46.843 63.0906 44.4483V60.7115L58.2998 63.6156V53.9899Z" fill="#EFAF4E"/>
</g>
<path d="M47.431 31.3998L39.2882 35.7246C36.5719 37.1921 36.2373 41.9679 36.4095 44.1724V65.4481C36.673 69.3837 38.2628 71.9798 40.2504 73.6801C44.6122 77.4112 51.029 75.9777 56.5601 74.4433L49.4755 64.6969V31.3998H47.431Z" fill="#FFD979" stroke="black" stroke-width="0.509562"/>
<path d="M53.1294 58.2226L53.1295 67.7501C53.1295 69.0863 51.8855 70.0747 50.5839 69.7726C48.7028 69.336 47.3714 67.6601 47.3714 65.7289L47.3714 60.5799L53.1294 58.2226Z" fill="#196B6F" stroke="black" stroke-width="0.254781"/>
<path fill-rule="evenodd" clip-rule="evenodd" d="M42.6553 39.2365C43.1001 31.7416 47.0293 30.4534 52.1447 31.7416C58.5203 33.9276 61.2139 41.1753 61.041 45.5603V47.9066L55.5857 50.5921L55.1093 50.4146L54.9732 41.9377C54.9461 40.2505 53.8786 38.7559 52.2916 38.1829C50.968 37.705 49.5713 38.6856 49.5713 40.0929V63.3683C49.5713 65.3675 50.8376 67.1474 52.7263 67.8029C54.0268 68.2543 55.38 67.2751 55.3579 65.8987L55.2304 57.9583L55.5857 57.8611L61.041 58.7083V66.7956C61.041 68.5132 61.041 76.3204 52.1447 74.2124C45.0276 72.5261 42.853 64.8178 42.6553 61.1745V39.2365Z" fill="#FFE9B1"/>
<path d="M52.1447 31.7416L52.2273 31.5006L52.2172 31.4971L52.2069 31.4945L52.1447 31.7416ZM42.6553 39.2365L42.4009 39.2214L42.4005 39.2289V39.2365H42.6553ZM61.041 45.5603L60.7862 45.5502V45.5603H61.041ZM61.041 47.9066L61.1535 48.1352L61.2957 48.0652V47.9066H61.041ZM55.5857 50.5921L55.4968 50.8309L55.5997 50.8692L55.6983 50.8207L55.5857 50.5921ZM55.1093 50.4146L54.8545 50.4187L54.8573 50.5926L55.0203 50.6534L55.1093 50.4146ZM54.9732 41.9377L55.2279 41.9336L54.9732 41.9377ZM52.2916 38.1829L52.2051 38.4225L52.2916 38.1829ZM52.7263 67.8029L52.6428 68.0436H52.6428L52.7263 67.8029ZM55.3579 65.8987L55.6126 65.8946L55.3579 65.8987ZM55.2304 57.9583L55.1631 57.7126L54.9725 57.7648L54.9756 57.9624L55.2304 57.9583ZM55.5857 57.8611L55.6248 57.6093L55.571 57.601L55.5185 57.6154L55.5857 57.8611ZM61.041 58.7083H61.2957V58.49L61.0801 58.4565L61.041 58.7083ZM52.1447 74.2124L52.0859 74.4604L52.1447 74.2124ZM42.6553 61.1745H42.4001L42.4009 61.1883L42.6553 61.1745ZM52.2069 31.4945C49.6267 30.8448 47.2767 30.8251 45.509 31.9822C43.7334 33.1444 42.6254 35.4391 42.4009 39.2214L42.9096 39.2516C43.1299 35.5389 44.2089 33.4421 45.788 32.4086C47.3749 31.3699 49.5472 31.3502 52.0824 31.9887L52.2069 31.4945ZM61.2955 45.5703C61.384 43.3281 60.7412 40.3743 59.2718 37.7035C57.8009 35.0299 55.4897 32.6191 52.2273 31.5006L52.062 31.9826C55.1753 33.05 57.3988 35.3561 58.8253 37.9491C60.2534 40.5449 60.8709 43.4074 60.7864 45.5502L61.2955 45.5703ZM61.2957 47.9066V45.5603H60.7862V47.9066H61.2957ZM60.9284 47.6781L55.4732 50.3635L55.6983 50.8207L61.1535 48.1352L60.9284 47.6781ZM55.6747 50.3533L55.1982 50.1759L55.0203 50.6534L55.4968 50.8309L55.6747 50.3533ZM55.364 50.4105L55.2279 41.9336L54.7184 41.9417L54.8545 50.4187L55.364 50.4105ZM55.2279 41.9336C55.1991 40.1406 54.0647 38.5522 52.3781 37.9432L52.2051 38.4225C53.6926 38.9596 54.693 40.3605 54.7184 41.9417L55.2279 41.9336ZM52.3781 37.9432C50.8884 37.4054 49.3165 38.509 49.3165 40.0929H49.8261C49.8261 38.8622 51.0475 38.0046 52.2051 38.4225L52.3781 37.9432ZM49.3165 40.0929V63.3683H49.8261V40.0929H49.3165ZM49.3165 63.3683C49.3165 65.476 50.6515 67.3525 52.6428 68.0436L52.8099 67.5622C51.0236 66.9423 49.8261 65.259 49.8261 63.3683H49.3165ZM52.6428 68.0436C54.1104 68.553 55.6376 67.4479 55.6126 65.8946L55.1031 65.9028C55.1224 67.1022 53.9431 67.9555 52.8098 67.5622L52.6428 68.0436ZM55.6126 65.8946L55.4851 57.9542L54.9756 57.9624L55.1031 65.9028L55.6126 65.8946ZM55.2976 58.2041L55.653 58.1068L55.5185 57.6154L55.1631 57.7126L55.2976 58.2041ZM55.5466 58.1129L61.0019 58.9601L61.0801 58.4565L55.6248 57.6093L55.5466 58.1129ZM61.2957 66.7956V58.7083H60.7862V66.7956H61.2957ZM52.0859 74.4604C54.3429 74.9951 56.0648 74.908 57.3762 74.4234C58.6913 73.9373 59.5682 73.0609 60.1489 72.0671C61.3 70.0972 61.2957 67.6493 61.2957 66.7956H60.7862C60.7862 67.6596 60.7819 69.974 59.709 71.81C59.1776 72.7193 58.3865 73.5067 57.1995 73.9454C56.0088 74.3854 54.3945 74.4837 52.2034 73.9645L52.0859 74.4604ZM42.4009 61.1883C42.5015 63.0426 43.1031 65.9197 44.5831 68.5522C46.0656 71.189 48.4399 73.5964 52.0859 74.4604L52.2034 73.9645C48.7324 73.1421 46.4609 70.8523 45.0273 68.3025C43.5914 65.7485 43.0068 62.9498 42.9097 61.1607L42.4009 61.1883ZM42.4005 39.2365V61.1745H42.9101V39.2365H42.4005Z" fill="black"/>
<g style="mix-blend-mode:multiply">
<path d="M43.2076 64.16L43.2041 64.1183L49.4775 58.4183C49.4775 63.7317 50.2422 65.1105 50.2422 65.1105C53.8462 70.0818 55.6259 68.1163 55.32 58.0306C55.2555 58.2127 58.533 57.8872 59.8859 58.2131V66.4637C59.4772 72.8681 56.0655 75.4211 49.1987 72.6516C43.7313 70.4465 43.4519 67.0927 43.2076 64.16Z" fill="#FFD979"/>
</g>
<path d="M49.5693 48.978L49.5696 40.1201C49.5697 38.695 50.984 37.702 52.3243 38.186C53.8977 38.7541 54.9703 40.2185 55.0371 41.89L55.1548 44.8337C55.2733 47.7972 52.3713 49.9504 49.5693 48.978Z" fill="#196B6F" stroke="black" stroke-width="0.254781"/>
<g style="mix-blend-mode:multiply">
<path d="M38.0605 70.7715C42.5929 71.6627 43.5064 67.5687 43.3966 65.4102C46.4533 74.0996 52.9268 75.158 55.7815 74.6009L50.9724 75.7846L47.5468 76.4809C41.9078 76.4809 38.873 72.6746 38.0605 70.7715Z" fill="#EFA036"/>
</g>
<path d="M55.0472 51.0424L49.6621 49.2744L55.0472 46.426L61.1766 48.194L55.0472 51.0424Z" fill="#196B6F" stroke="black" stroke-width="0.254781"/>
<g style="mix-blend-mode:multiply" opacity="0.8">
<path d="M7.54492 21.4884V7.92801L27.008 13.7825V72.7198L13.0571 69.2652V23.4526L7.54492 21.4884Z" fill="#01656B"/>
</g>
<g style="mix-blend-mode:multiply" opacity="0.8">
<path d="M35.592 70.7413L0.787598 58.13L0.787598 73.2582L35.592 83.8877V70.7413Z" fill="#01656B"/>
</g>
<path d="M13.708 17.9451L20.7475 14.2509V59.464L13.708 62.837V17.9451Z" fill="#7ACECE" stroke="black" stroke-width="0.509562"/>
<g style="mix-blend-mode:multiply">
<path d="M13.5547 51.1723C18.7073 49.0881 20.6315 42.7402 20.7111 40.1629V59.9534L13.5547 62.9485V51.1723Z" fill="#348489"/>
</g>
<path d="M6.43652 15.298V4.67411L13.476 0.914581V11.6442L6.43652 15.298Z" fill="#7ACECE" stroke="black" stroke-width="0.509562"/>
<path d="M13.4934 17.9259L6.33691 15.3171L13.4934 11.587L20.748 14.1958L13.4934 17.9259Z" fill="#196B6F" stroke="black" stroke-width="0.254781"/>
<path d="M23.8483 65.0584L11.7285 62.2684L18.4296 58.8344L31.0231 62.2684L23.8483 65.0584Z" fill="black" stroke="black" stroke-width="0.509562"/>
<path fill-rule="evenodd" clip-rule="evenodd" d="M13.4932 0.914581V11.8208L20.5876 14.2131V58.4217L13.4932 55.7566V66.6628L18.6617 68.5332L38.8116 75.4206V65.2677L31.788 62.6292V7.64516L13.4932 0.914581Z" fill="white"/>
<path d="M13.4932 11.8208H13.2384V12.0038L13.4118 12.0622L13.4932 11.8208ZM13.4932 0.914581L13.5811 0.675469L13.2384 0.549373V0.914581H13.4932ZM20.5876 14.2131H20.8424V14.0301L20.669 13.9716L20.5876 14.2131ZM20.5876 58.4217L20.498 58.6602L20.8424 58.7896V58.4217H20.5876ZM13.4932 55.7566L13.5828 55.5181L13.2384 55.3887V55.7566H13.4932ZM13.4932 66.6628H13.2384V66.8415L13.4065 66.9024L13.4932 66.6628ZM18.6617 68.5332L18.575 68.7728L18.5793 68.7743L18.6617 68.5332ZM38.8116 75.4206L38.7292 75.6616L39.0664 75.7769V75.4206H38.8116ZM38.8116 65.2677H39.0664V65.0912L38.9012 65.0292L38.8116 65.2677ZM31.788 62.6292H31.5333V62.8057L31.6984 62.8677L31.788 62.6292ZM31.788 7.64516H32.0428V7.46741L31.876 7.40605L31.788 7.64516ZM13.7479 11.8208V0.914581H13.2384V11.8208H13.7479ZM20.669 13.9716L13.5746 11.5794L13.4118 12.0622L20.5062 14.4545L20.669 13.9716ZM20.8424 58.4217V14.2131H20.3329V58.4217H20.8424ZM13.4036 55.9951L20.498 58.6602L20.6772 58.1832L13.5828 55.5181L13.4036 55.9951ZM13.7479 66.6628V55.7566H13.2384V66.6628H13.7479ZM18.7484 68.2936L13.5799 66.4232L13.4065 66.9024L18.575 68.7728L18.7484 68.2936ZM38.894 75.1795L18.7441 68.2921L18.5793 68.7743L38.7292 75.6616L38.894 75.1795ZM38.5568 65.2677V75.4206H39.0664V65.2677H38.5568ZM31.6984 62.8677L38.722 65.5062L38.9012 65.0292L31.8776 62.3907L31.6984 62.8677ZM31.5333 7.64516V62.6292H32.0428V7.64516H31.5333ZM13.4052 1.15369L31.7001 7.88427L31.876 7.40605L13.5811 0.675469L13.4052 1.15369Z" fill="black"/>
<path d="M6.43652 70.1411V59.5172L13.476 55.7576V66.4872L6.43652 70.1411Z" fill="#7ACECE" stroke="black" stroke-width="0.509562"/>
<path d="M11.5328 71.818L6.33691 70.1601L13.4934 66.43L18.7874 68.0878L38.5349 75.5837L27.866 77.0545L11.5328 71.818Z" fill="#196B6F" stroke="black" stroke-width="0.254781"/>
<g style="mix-blend-mode:darken">
<path d="M61.4785 46.5874L67.6298 40.8906V62.2232L61.4785 60.5263V46.5874Z" fill="#FFD979"/>
</g>
</svg>
