<svg width="109" height="104" viewBox="0 0 109 104" fill="none" xmlns="http://www.w3.org/2000/svg">
<g style="mix-blend-mode:multiply" opacity="0.8">
<path d="M0 25.9059V9.0752L31.7337 16.3416V89.4925L8.98735 85.2047V28.3438L0 25.9059Z" fill="#01656B"/>
</g>
<path d="M21.4377 14.5364V1L51.2667 9.35375V77.63L29.8649 72.7203V16.8579L21.4377 14.5364Z" fill="white" stroke="black" stroke-width="0.673535"/>
<g style="mix-blend-mode:multiply" opacity="0.8">
<path d="M31.4438 49.4376C32.2794 37.8641 39.6599 35.875 49.2684 37.8641C61.2443 41.2397 66.3039 52.4314 65.979 59.2027V91.994C65.979 94.6463 65.979 106.702 49.2684 103.447C35.9 100.843 31.8152 88.9399 31.4438 83.314V49.4376Z" fill="#01656B"/>
</g>
<path d="M18.5015 21.0041L29.979 16.4189V72.5359L18.5015 76.7223V21.0041Z" fill="#7ACECE" stroke="black" stroke-width="0.673535"/>
<path d="M9.92993 18.8522V5.6662L21.4075 1V14.3172L9.92993 18.8522Z" fill="#7ACECE" stroke="black" stroke-width="0.673535"/>
<path d="M18.2409 20.9344L9.76929 18.8768L21.4376 14.2471L30.0691 16.3047L18.2409 20.9344Z" fill="#196B6F" stroke="black" stroke-width="0.336768"/>
<path d="M38.32 80.6146L18.5593 77.1517L29.485 72.8896L50.0183 77.1517L38.32 80.6146Z" fill="black" stroke="black" stroke-width="0.673535"/>
<g style="mix-blend-mode:multiply">
<path d="M18.2507 62.2484C26.6518 59.6616 29.7892 51.7828 29.9189 48.584V73.1472L18.2507 76.8647V62.2484Z" fill="#348489"/>
</g>
<path fill-rule="evenodd" clip-rule="evenodd" d="M64.1265 34.9805L64.1266 45.6777V87.2605L81.4014 91.3072V39.7379L64.1265 34.9805ZM81.9243 49.4009C82.5345 47.9339 86.5008 46.7346 90.6197 47.1374C97.1794 47.7789 101.519 54.1118 101.519 54.1118L98.0948 61.0143C96.7726 59.0583 93.8233 54.7797 89.7044 54.7797C85.5855 54.7797 82.8396 56.0614 81.9243 62.5405V49.4009Z" fill="#023C40"/>
<path fill-rule="evenodd" clip-rule="evenodd" d="M79.9347 33.2812L79.9346 42.447V80.2573L91.5342 82.5367V47.766C92.9065 46.0502 94.8539 45.6002 97.2814 45.6002C101.372 45.6002 104.302 49.867 105.615 51.8176L108 43.3506C108 43.3506 104.706 38.6187 98.1905 37.979C95.6642 37.731 93.1957 38.0921 91.5342 38.7492V36.3241L79.9347 33.2812Z" fill="white"/>
<path d="M79.9346 42.447L79.5978 42.447V42.447H79.9346ZM79.9347 33.2812L80.0202 32.9555C79.9192 32.929 79.8116 32.9508 79.729 33.0146C79.6463 33.0784 79.5979 33.1769 79.5979 33.2812L79.9347 33.2812ZM79.9346 80.2573H79.5978C79.5978 80.4183 79.7117 80.5567 79.8696 80.5878L79.9346 80.2573ZM91.5342 82.5367L91.4693 82.8671C91.5681 82.8865 91.6704 82.8607 91.7482 82.7967C91.8259 82.7328 91.871 82.6374 91.871 82.5367H91.5342ZM91.5342 47.766L91.2712 47.5557C91.2235 47.6154 91.1975 47.6896 91.1975 47.766H91.5342ZM105.615 51.8176L105.336 52.0056C105.409 52.1145 105.539 52.1709 105.668 52.1501C105.798 52.1293 105.904 52.0352 105.939 51.9089L105.615 51.8176ZM108 43.3506L108.324 43.4419C108.352 43.345 108.334 43.2409 108.276 43.1582L108 43.3506ZM98.1905 37.979L98.1576 38.3142L98.1905 37.979ZM91.5342 38.7492H91.1975C91.1975 38.8607 91.2527 38.965 91.3449 39.0277C91.4371 39.0904 91.5544 39.1034 91.6581 39.0624L91.5342 38.7492ZM91.5342 36.3241H91.871C91.871 36.171 91.7678 36.0372 91.6197 35.9983L91.5342 36.3241ZM80.2713 42.447L80.2715 33.2813L79.5979 33.2812L79.5978 42.447L80.2713 42.447ZM80.2713 80.2573V42.447H79.5978V80.2573H80.2713ZM91.5992 82.2062L79.9995 79.9269L79.8696 80.5878L91.4693 82.8671L91.5992 82.2062ZM91.1975 47.766V82.5367H91.871V47.766H91.1975ZM91.7972 47.9764C93.0729 46.3813 94.8889 45.937 97.2814 45.937V45.2634C94.8189 45.2634 92.7401 45.7191 91.2712 47.5557L91.7972 47.9764ZM97.2814 45.937C99.2054 45.937 100.882 46.9407 102.26 48.2239C103.637 49.5054 104.679 51.0305 105.336 52.0056L105.894 51.6295C105.238 50.6541 104.158 49.0705 102.719 47.7309C101.282 46.3931 99.4484 45.2634 97.2814 45.2634V45.937ZM105.939 51.9089L108.324 43.4419L107.676 43.2593L105.291 51.7263L105.939 51.9089ZM108 43.3506C108.276 43.1582 108.276 43.1581 108.276 43.1579C108.276 43.1579 108.276 43.1577 108.276 43.1575C108.276 43.1572 108.276 43.1569 108.275 43.1564C108.275 43.1555 108.274 43.1544 108.273 43.1529C108.271 43.15 108.268 43.146 108.264 43.1408C108.257 43.1306 108.246 43.116 108.232 43.0972C108.205 43.0598 108.164 43.0059 108.11 42.9378C108.003 42.8016 107.844 42.6083 107.633 42.3753C107.212 41.9094 106.582 41.2837 105.744 40.638C104.069 39.3466 101.559 37.9713 98.2234 37.6439L98.1576 38.3142C101.338 38.6264 103.732 39.937 105.333 41.1714C106.133 41.7887 106.734 42.3859 107.134 42.8273C107.334 43.0479 107.483 43.2292 107.581 43.3543C107.63 43.4168 107.667 43.4653 107.691 43.4974C107.703 43.5135 107.711 43.5255 107.717 43.5332C107.719 43.5371 107.721 43.5398 107.723 43.5415C107.723 43.5423 107.724 43.5428 107.724 43.5431C107.724 43.5432 107.724 43.5433 107.724 43.5433C107.724 43.5433 107.724 43.5432 107.724 43.5432C107.724 43.5431 107.724 43.543 108 43.3506ZM98.2234 37.6439C95.6515 37.3913 93.1283 37.7567 91.4104 38.436L91.6581 39.0624C93.2632 38.4276 95.677 38.0706 98.1576 38.3142L98.2234 37.6439ZM91.1975 36.3241V38.7492H91.871V36.3241H91.1975ZM79.8493 33.607L91.4488 36.6498L91.6197 35.9983L80.0202 32.9555L79.8493 33.607Z" fill="black"/>
<path d="M71.9758 36.7472L79.9326 33.2812L80.158 80.3196L71.9758 83.1464V36.7472Z" fill="#FFE9B1"/>
<path d="M79.9326 33.2812L80.2693 33.2796C80.2688 33.1664 80.2113 33.061 80.1164 32.9991C80.0215 32.9373 79.9019 32.9273 79.7981 32.9725L79.9326 33.2812ZM71.9758 36.7472L71.8413 36.4385L71.6391 36.5266V36.7472H71.9758ZM71.9758 83.1464H71.6391V83.619L72.0858 83.4647L71.9758 83.1464ZM80.158 80.3196L80.2679 80.6379L80.4959 80.5592L80.4947 80.318L80.158 80.3196ZM79.7981 32.9725L71.8413 36.4385L72.1103 37.056L80.067 33.59L79.7981 32.9725ZM71.6391 36.7472V83.1464H72.3126V36.7472H71.6391ZM72.0858 83.4647L80.2679 80.6379L80.048 80.0013L71.8659 82.8281L72.0858 83.4647ZM80.4947 80.318L80.2693 33.2796L79.5958 33.2829L79.8212 80.3212L80.4947 80.318Z" fill="black"/>
<path d="M81.8573 85.0999L72.1201 82.8993L79.4975 80.0215L90.9683 82.5279L81.8573 85.0999Z" fill="black" stroke="black" stroke-width="0.673535"/>
<path d="M100.884 54.8776C100.884 51.1481 94.1519 47.5497 91.6069 50.1193C91.6069 49.018 90.808 45.6182 96.8819 45.6182C102.157 45.6182 104.788 49.4848 105.354 52.1769L100.884 54.8776Z" fill="#196B6F" stroke="black" stroke-width="0.336768"/>
<g style="mix-blend-mode:multiply">
<path d="M71.9758 71.4462C77.5821 69.1124 79.6666 62.5757 79.787 59.6035V79.7888L71.9758 83.3933V71.4462Z" fill="#EFAF4E"/>
</g>
<path d="M54.2486 39.0557L40.9721 44.4234C36.5433 46.2448 35.9977 52.1723 36.2786 54.9085V81.3151C36.8209 87.482 40.8097 90.9989 45.1993 92.9742C51.6409 95.8729 59.0086 94.6178 65.9199 93.1583L69.1331 92.4797L57.582 80.3828V39.0557H54.2486Z" fill="#FFE9B1" stroke="black" stroke-width="0.673535"/>
<path d="M67.2709 71.727L67.2711 82.8387C67.2712 84.9034 65.4073 86.4666 63.3739 86.1073C60.1983 85.5462 57.8828 82.7859 57.8828 79.5615L57.8828 74.6529L67.2709 71.727Z" fill="#196B6F" stroke="black" stroke-width="0.336768"/>
<path fill-rule="evenodd" clip-rule="evenodd" d="M46.4602 48.7752C47.1855 39.4727 53.5918 37.8739 61.9322 39.4728C72.3274 42.1859 76.7192 51.1815 76.4372 56.624V59.5397L67.544 62.8724L66.7672 62.6521L66.5735 53.4655C66.5132 50.6072 64.582 48.1282 61.8252 47.3705C59.7683 46.8052 57.7377 48.353 57.7377 50.4862V77.1777C57.7377 80.533 59.9976 83.4675 63.2416 84.3246C65.2478 84.8546 67.2031 83.3157 67.1593 81.2412L66.9647 72.015L67.544 71.8944L76.4372 72.9457V82.9806C76.4372 85.1124 76.4372 94.8023 61.9322 92.1861C50.3282 90.093 46.7825 80.5258 46.4602 76.0039V48.7752Z" fill="white"/>
<path d="M61.9322 39.4728L62.0172 39.1469L62.0065 39.1441L61.9956 39.142L61.9322 39.4728ZM46.4602 48.7752L46.1245 48.749L46.1234 48.762V48.7752H46.4602ZM76.4372 56.624L76.1009 56.6066L76.1004 56.6153V56.624H76.4372ZM76.4372 59.5397L76.5554 59.8551L76.774 59.7732V59.5397H76.4372ZM67.544 62.8724L67.4521 63.1963L67.5586 63.2265L67.6622 63.1877L67.544 62.8724ZM66.7672 62.6521L66.4305 62.6592L66.4358 62.9081L66.6754 62.9761L66.7672 62.6521ZM66.5735 53.4655L66.9102 53.4584L66.5735 53.4655ZM61.8252 47.3705L61.9145 47.0458L61.8252 47.3705ZM63.2416 84.3246L63.1556 84.6502H63.1556L63.2416 84.3246ZM67.1593 81.2412L67.496 81.2341L67.1593 81.2412ZM66.9647 72.015L66.896 71.6853L66.6221 71.7424L66.628 72.0221L66.9647 72.015ZM67.544 71.8944L67.5836 71.5599L67.5291 71.5535L67.4753 71.5647L67.544 71.8944ZM76.4372 72.9457H76.774V72.6464L76.4767 72.6113L76.4372 72.9457ZM61.9322 92.1861L61.992 91.8546L61.9322 92.1861ZM46.4602 76.0039H46.1234V76.0158L46.1243 76.0278L46.4602 76.0039ZM61.9956 39.142C57.8045 38.3386 54.0264 38.3215 51.1903 39.7346C48.3207 41.1644 46.4934 44.0161 46.1245 48.749L46.796 48.8013C47.1522 44.2318 48.8908 41.6328 51.4907 40.3374C54.1243 39.0252 57.7195 39.0081 61.8688 39.8035L61.9956 39.142ZM76.7735 56.6414C77.0636 51.0429 72.5704 41.9013 62.0172 39.1469L61.8471 39.7986C72.0844 42.4705 76.3748 51.3201 76.1009 56.6066L76.7735 56.6414ZM76.774 59.5397V56.624H76.1004V59.5397H76.774ZM76.319 59.2244L67.4258 62.557L67.6622 63.1877L76.5554 59.8551L76.319 59.2244ZM67.6359 62.5484L66.8591 62.3281L66.6754 62.9761L67.4521 63.1963L67.6359 62.5484ZM67.1039 62.645L66.9102 53.4584L66.2368 53.4726L66.4305 62.6592L67.1039 62.645ZM66.9102 53.4584C66.8467 50.4512 64.8149 47.843 61.9145 47.0458L61.736 47.6953C64.349 48.4135 66.1796 50.7633 66.2368 53.4726L66.9102 53.4584ZM61.9145 47.0458C59.6432 46.4215 57.401 48.1306 57.401 50.4862H58.0745C58.0745 48.5753 59.8935 47.1888 61.736 47.6953L61.9145 47.0458ZM57.401 50.4862V77.1777H58.0745V50.4862H57.401ZM57.401 77.1777C57.401 80.6859 59.7638 83.754 63.1556 84.6502L63.3277 83.999C60.2314 83.1809 58.0745 80.3801 58.0745 77.1777H57.401ZM63.1556 84.6502C65.3783 85.2374 67.5445 83.5325 67.496 81.2341L66.8226 81.2483C66.8616 83.099 65.1174 84.4718 63.3277 83.999L63.1556 84.6502ZM67.496 81.2341L67.3014 72.0079L66.628 72.0221L66.8226 81.2483L67.496 81.2341ZM67.0334 72.3447L67.6127 72.2241L67.4753 71.5647L66.896 71.6853L67.0334 72.3447ZM67.5045 72.2288L76.3977 73.2802L76.4767 72.6113L67.5836 71.5599L67.5045 72.2288ZM76.774 82.9806V72.9457H76.1004V82.9806H76.774ZM61.8724 92.5175C69.1963 93.8385 72.9734 92.0672 74.8912 89.5689C76.7807 87.1075 76.774 84.0437 76.774 82.9806H76.1004C76.1004 84.0493 76.0937 86.8964 74.3569 89.1588C72.6484 91.3844 69.1731 93.1499 61.992 91.8546L61.8724 92.5175ZM46.1243 76.0278C46.4535 80.6458 50.0668 90.3881 61.8724 92.5175L61.992 91.8546C50.5896 89.798 47.1116 80.4058 46.7961 75.9799L46.1243 76.0278ZM46.1234 48.7752V76.0039H46.797V48.7752H46.1234Z" fill="black"/>
<g style="mix-blend-mode:multiply">
<path d="M47.3606 79.716L47.355 79.6642L57.5835 72.5897C57.5835 79.1845 58.8303 80.8958 58.8303 80.8958C64.7065 87.066 67.6081 84.6265 67.1093 72.1084C67.0042 72.3344 72.3479 71.9304 74.5539 72.3349V82.5753C73.8875 90.5242 68.3249 93.6929 57.129 90.2555C48.2145 87.5186 47.759 83.356 47.3606 79.716Z" fill="#FFD979"/>
</g>
<path d="M57.7339 60.8722L57.7343 50.5565C57.7344 48.3859 59.8006 46.811 61.8935 47.3863C64.6252 48.1371 66.5689 50.553 66.7175 53.382L66.8656 56.2017C67.052 59.7523 63.7262 62.4554 60.2887 61.5472L57.7339 60.8722Z" fill="#196B6F" stroke="black" stroke-width="0.336768"/>
<g style="mix-blend-mode:multiply">
<path d="M38.9705 87.9208C46.3602 89.0269 47.8496 83.9456 47.6706 81.2666C52.6544 92.0516 63.2092 93.3651 67.8636 92.6738L60.0227 94.1429L54.4374 95.0071C45.2432 95.0071 40.2952 90.2829 38.9705 87.9208Z" fill="#EFA036"/>
</g>
<path d="M66.6656 63.4358L57.8855 61.2414L66.6656 57.7061L76.6593 59.9004L66.6656 63.4358Z" fill="#196B6F" stroke="black" stroke-width="0.336768"/>
<g style="mix-blend-mode:darken">
<path d="M79.6343 62.9056L89.6636 55.835V82.3123L79.6343 80.2061V62.9056Z" fill="#FFD979"/>
</g>
</svg>

