<svg width="124" height="95" viewBox="0 0 124 95" fill="none" xmlns="http://www.w3.org/2000/svg">
<path d="M7.92 90.9971H5.4C4.96 90.9971 4.74 90.7871 4.74 90.3671V75.3371C4.74 75.1171 4.63 75.0071 4.41 75.0071H0.99C0.57 75.0071 0.36 74.7971 0.36 74.3771V72.3371C0.36 71.9171 0.57 71.7071 0.99 71.7071H12.33C12.75 71.7071 12.96 71.9171 12.96 72.3371V74.3771C12.96 74.7971 12.75 75.0071 12.33 75.0071H8.91C8.67 75.0071 8.55 75.1171 8.55 75.3371V90.3671C8.55 90.7871 8.34 90.9971 7.92 90.9971ZM20.3208 90.9971H19.6008C18.0208 90.9971 16.8008 90.5771 15.9408 89.7371C15.0808 88.8971 14.6508 87.6871 14.6508 86.1071V80.5871C14.6508 79.0071 15.0808 77.7971 15.9408 76.9571C16.8008 76.1171 18.0208 75.6971 19.6008 75.6971H26.5308C26.9708 75.6971 27.1908 75.9071 27.1908 76.3271V90.3671C27.1908 90.7871 26.9708 90.9971 26.5308 90.9971H24.0108C23.5908 90.9971 23.3808 90.7871 23.3808 90.3671V89.3771H23.2608C23.0408 89.9171 22.6508 90.3271 22.0908 90.6071C21.5308 90.8671 20.9408 90.9971 20.3208 90.9971ZM23.3808 85.4171V79.3271C23.3808 79.1071 23.2608 78.9971 23.0208 78.9971H20.2008C19.5608 78.9971 19.1108 79.1371 18.8508 79.4171C18.5908 79.6771 18.4608 80.1271 18.4608 80.7671V85.9271C18.4608 86.5671 18.5908 87.0271 18.8508 87.3071C19.1108 87.5671 19.5608 87.6971 20.2008 87.6971H21.3108C22.6908 87.6971 23.3808 86.9371 23.3808 85.4171ZM33.6581 90.9971H31.1081C30.6881 90.9971 30.4781 90.7871 30.4781 90.3671V76.3271C30.4781 75.9071 30.6881 75.6971 31.1081 75.6971H33.6581C34.0781 75.6971 34.2881 75.9071 34.2881 76.3271V77.3171H34.4081C34.6481 76.8371 35.0481 76.4471 35.6081 76.1471C36.1881 75.8471 36.8481 75.6971 37.5881 75.6971H38.4281C40.1681 75.6971 41.4181 76.3371 42.1781 77.6171C42.8581 76.3371 44.0281 75.6971 45.6881 75.6971H46.5581C48.0981 75.6971 49.2581 76.1171 50.0381 76.9571C50.8381 77.7971 51.2381 79.0071 51.2381 80.5871V90.3671C51.2381 90.7871 51.0281 90.9971 50.6081 90.9971H48.0581C47.6381 90.9971 47.4281 90.7871 47.4281 90.3671V80.7671C47.4281 80.1271 47.2981 79.6771 47.0381 79.4171C46.7781 79.1371 46.3281 78.9971 45.6881 78.9971H44.9381C43.5581 78.9971 42.8681 79.7671 42.8681 81.3071V90.3671C42.8681 90.7871 42.6481 90.9971 42.2081 90.9971H39.6881C39.2681 90.9971 39.0581 90.7871 39.0581 90.3671V80.7671C39.0581 80.1271 38.9181 79.6771 38.6381 79.4171C38.3781 79.1371 37.9281 78.9971 37.2881 78.9971H36.3581C34.9781 78.9971 34.2881 79.7571 34.2881 81.2771V90.3671C34.2881 90.7871 34.0781 90.9971 33.6581 90.9971ZM58.5537 87.6971H61.6137C62.2537 87.6971 62.7037 87.5671 62.9637 87.3071C63.2437 87.0271 63.3837 86.5671 63.3837 85.9271V80.7071C63.3837 80.0671 63.2437 79.6171 62.9637 79.3571C62.7037 79.0771 62.2537 78.9371 61.6137 78.9371H60.2937C58.9137 78.9371 58.2237 79.6971 58.2237 81.2171V87.3671C58.2237 87.5871 58.3337 87.6971 58.5537 87.6971ZM54.4137 90.3671V70.5371C54.4137 70.1171 54.6237 69.9071 55.0437 69.9071H57.5937C58.0137 69.9071 58.2237 70.1171 58.2237 70.5371V77.2871H58.3437C58.5637 76.7471 58.9537 76.3371 59.5137 76.0571C60.0737 75.7771 60.6637 75.6371 61.2837 75.6371H62.2437C63.8237 75.6371 65.0437 76.0571 65.9037 76.8971C66.7637 77.7371 67.1937 78.9471 67.1937 80.5271V86.1071C67.1937 87.6871 66.7637 88.8971 65.9037 89.7371C65.0437 90.5771 63.8237 90.9971 62.2437 90.9971H55.0437C54.6237 90.9971 54.4137 90.7871 54.4137 90.3671ZM77.5247 90.9971H74.8547C73.2747 90.9971 72.0547 90.5771 71.1947 89.7371C70.3347 88.8971 69.9047 87.6871 69.9047 86.1071V80.5871C69.9047 79.0071 70.3347 77.7971 71.1947 76.9571C72.0547 76.1171 73.2747 75.6971 74.8547 75.6971H77.5247C79.0847 75.6971 80.2947 76.1271 81.1547 76.9871C82.0347 77.8271 82.4747 79.0271 82.4747 80.5871V86.1071C82.4747 87.6671 82.0347 88.8771 81.1547 89.7371C80.2947 90.5771 79.0847 90.9971 77.5247 90.9971ZM75.4247 87.7271H76.9547C77.5947 87.7271 78.0447 87.5971 78.3047 87.3371C78.5847 87.0771 78.7247 86.6271 78.7247 85.9871V80.7071C78.7247 80.0671 78.5847 79.6171 78.3047 79.3571C78.0447 79.0971 77.5947 78.9671 76.9547 78.9671H75.4247C74.7847 78.9671 74.3347 79.0971 74.0747 79.3571C73.8147 79.6171 73.6847 80.0671 73.6847 80.7071V85.9871C73.6847 86.6271 73.8147 87.0771 74.0747 87.3371C74.3347 87.5971 74.7847 87.7271 75.4247 87.7271ZM88.7984 90.9971H86.2484C85.8284 90.9971 85.6184 90.7871 85.6184 90.3671V70.5371C85.6184 70.1171 85.8284 69.9071 86.2484 69.9071H88.7984C89.2184 69.9071 89.4284 70.1171 89.4284 70.5371V90.3671C89.4284 90.7871 89.2184 90.9971 88.7984 90.9971ZM98.2505 90.9971H97.5305C95.9505 90.9971 94.7305 90.5771 93.8705 89.7371C93.0105 88.8971 92.5805 87.6871 92.5805 86.1071V80.5871C92.5805 79.0071 93.0105 77.7971 93.8705 76.9571C94.7305 76.1171 95.9505 75.6971 97.5305 75.6971H104.46C104.9 75.6971 105.12 75.9071 105.12 76.3271V90.3671C105.12 90.7871 104.9 90.9971 104.46 90.9971H101.94C101.52 90.9971 101.31 90.7871 101.31 90.3671V89.3771H101.19C100.97 89.9171 100.58 90.3271 100.02 90.6071C99.4605 90.8671 98.8705 90.9971 98.2505 90.9971ZM101.31 85.4171V79.3271C101.31 79.1071 101.19 78.9971 100.95 78.9971H98.1305C97.4905 78.9971 97.0405 79.1371 96.7805 79.4171C96.5205 79.6771 96.3905 80.1271 96.3905 80.7671V85.9271C96.3905 86.5671 96.5205 87.0271 96.7805 87.3071C97.0405 87.5671 97.4905 87.6971 98.1305 87.6971H99.2405C100.62 87.6971 101.31 86.9371 101.31 85.4171Z" fill="#003439"/>
<path d="M50.7285 9.68098V1L65.373 6.35732V50.1433L54.8658 46.9947V11.1698L50.7285 9.68098Z" fill="white" stroke="black" stroke-width="0.673535"/>
<path d="M49.2871 13.8292L54.922 10.8887V46.8768L49.2871 49.5616V13.8292Z" fill="#7ACECE" stroke="black" stroke-width="0.673535"/>
<path d="M45.0789 12.4487V3.99246L50.7137 1V9.54042L45.0789 12.4487Z" fill="#7ACECE" stroke="black" stroke-width="0.673535"/>
<path d="M49.1591 13.7847L45 12.4652L50.7286 9.49609L54.9662 10.8157L49.1591 13.7847Z" fill="#196B6F" stroke="black" stroke-width="0.336768"/>
<path d="M59.0169 52.0576L49.3154 49.8368L54.6794 47.1035L64.7602 49.8368L59.0169 52.0576Z" fill="black" stroke="black" stroke-width="0.673535"/>
<g style="mix-blend-mode:multiply">
<path d="M49.1641 40.2777C53.2885 38.6188 54.8289 33.5661 54.8925 31.5146V47.2672L49.1641 49.6512V40.2777Z" fill="#348489"/>
</g>
<path fill-rule="evenodd" clip-rule="evenodd" d="M95.8116 19.375L95.8115 25.2531V49.5011L103.705 50.9628V28.6649C104.639 27.5644 105.965 27.2758 107.617 27.2758C110.401 27.2758 112.394 30.0121 113.288 31.263L114.911 25.8331C114.911 25.8331 112.669 22.7985 108.235 22.3882C106.516 22.2291 104.836 22.4608 103.705 22.8822V21.3264L95.8116 19.375Z" fill="white"/>
<path d="M95.8115 25.2531L95.4748 25.2531V25.2531H95.8115ZM95.8116 19.375L95.8924 19.0481C95.7919 19.0232 95.6855 19.046 95.604 19.1098C95.5225 19.1737 95.4748 19.2714 95.4748 19.375L95.8116 19.375ZM95.8115 49.5011H95.4748C95.4748 49.6634 95.5906 49.8026 95.7502 49.8322L95.8115 49.5011ZM103.705 50.9628L103.644 51.2939C103.742 51.3122 103.844 51.2857 103.921 51.2217C103.998 51.1577 104.042 51.0629 104.042 50.9628H103.705ZM103.705 28.6649L103.449 28.447C103.397 28.5078 103.369 28.5851 103.369 28.6649H103.705ZM113.288 31.263L113.014 31.4587C113.089 31.5634 113.216 31.6163 113.343 31.5952C113.47 31.5741 113.574 31.4826 113.611 31.3594L113.288 31.263ZM114.911 25.8331L115.234 25.9295C115.264 25.828 115.245 25.7182 115.182 25.633L114.911 25.8331ZM108.235 22.3882L108.204 22.7236L108.235 22.3882ZM103.705 22.8822H103.369C103.369 22.9925 103.423 23.0959 103.513 23.1588C103.604 23.2217 103.72 23.2363 103.823 23.1978L103.705 22.8822ZM103.705 21.3264H104.042C104.042 21.1715 103.937 21.0366 103.786 20.9995L103.705 21.3264ZM96.1483 25.2531L96.1484 19.375L95.4748 19.375L95.4748 25.2531L96.1483 25.2531ZM96.1483 49.5011V25.2531H95.4748V49.5011H96.1483ZM103.767 50.6317L95.8728 49.1699L95.7502 49.8322L103.644 51.2939L103.767 50.6317ZM103.369 28.6649V50.9628H104.042V28.6649H103.369ZM103.962 28.8828C104.798 27.8979 105.994 27.6125 107.617 27.6125V26.939C105.935 26.939 104.481 27.2308 103.449 28.447L103.962 28.8828ZM107.617 27.6125C108.894 27.6125 110.012 28.2404 110.939 29.0534C111.865 29.8657 112.567 30.8337 113.014 31.4587L113.562 31.0672C113.115 30.4413 112.373 29.4157 111.383 28.5471C110.394 27.6793 109.123 26.939 107.617 26.939V27.6125ZM113.611 31.3594L115.234 25.9295L114.588 25.7366L112.965 31.1665L113.611 31.3594ZM114.911 25.8331C115.182 25.633 115.182 25.6328 115.182 25.6327C115.182 25.6326 115.181 25.6325 115.181 25.6324C115.181 25.6321 115.181 25.6318 115.181 25.6315C115.18 25.6308 115.18 25.6299 115.179 25.6289C115.177 25.6268 115.175 25.624 115.172 25.6205C115.167 25.6134 115.16 25.6036 115.15 25.5911C115.13 25.5662 115.102 25.5307 115.064 25.486C114.99 25.3967 114.88 25.2707 114.734 25.1192C114.443 24.8163 114.01 24.4105 113.434 23.9921C112.282 23.1549 110.556 22.2648 108.266 22.0529L108.204 22.7236C110.348 22.9219 111.961 23.7542 113.038 24.5369C113.577 24.9284 113.981 25.3069 114.249 25.5858C114.382 25.7252 114.482 25.8395 114.547 25.9177C114.58 25.9569 114.604 25.987 114.62 26.0067C114.627 26.0165 114.633 26.0238 114.636 26.0282C114.638 26.0305 114.639 26.032 114.64 26.0329C114.64 26.0333 114.64 26.0335 114.64 26.0336C114.64 26.0336 114.64 26.0336 114.64 26.0335C114.64 26.0335 114.64 26.0334 114.64 26.0334C114.64 26.0333 114.64 26.0332 114.911 25.8331ZM108.266 22.0529C106.504 21.8898 104.773 22.1251 103.588 22.5666L103.823 23.1978C104.9 22.7965 106.528 22.5684 108.204 22.7236L108.266 22.0529ZM103.369 21.3264V22.8822H104.042V21.3264H103.369ZM95.7308 19.7019L103.625 21.6533L103.786 20.9995L95.8924 19.0481L95.7308 19.7019Z" fill="black"/>
<path d="M90.3953 21.5977L95.81 19.375L95.9634 49.541L90.3953 51.3538V21.5977Z" fill="#FFE9B1"/>
<path d="M95.81 19.375L96.1468 19.3733C96.1462 19.2613 96.09 19.1569 95.9968 19.0948C95.9037 19.0327 95.7857 19.0209 95.6821 19.0635L95.81 19.375ZM90.3953 21.5977L90.2674 21.2862L90.0585 21.3719V21.5977H90.3953ZM90.3953 51.3538H90.0585V51.8176L90.4995 51.674L90.3953 51.3538ZM95.9634 49.541L96.0677 49.8612L96.3014 49.7851L96.3002 49.5393L95.9634 49.541ZM95.6821 19.0635L90.2674 21.2862L90.5232 21.9093L95.9379 19.6865L95.6821 19.0635ZM90.0585 21.5977V51.3538H90.732V21.5977H90.0585ZM90.4995 51.674L96.0677 49.8612L95.8592 49.2208L90.291 51.0336L90.4995 51.674ZM96.3002 49.5393L96.1468 19.3733L95.4732 19.3767L95.6267 49.5427L96.3002 49.5393Z" fill="black"/>
<path d="M97.1198 52.6074L90.4934 51.1962L95.5139 49.3506L103.32 50.9579L97.1198 52.6074Z" fill="black" stroke="black" stroke-width="0.673535"/>
<path d="M110.068 33.2252C110.068 30.8335 105.486 28.5258 103.755 30.1737C103.755 29.4675 103.211 27.2871 107.344 27.2871C110.934 27.2871 112.725 29.7668 113.109 31.4933L110.068 33.2252Z" fill="#196B6F" stroke="black" stroke-width="0.336768"/>
<g style="mix-blend-mode:multiply">
<path d="M90.3953 43.8506C94.2105 42.354 95.629 38.162 95.711 36.2559V49.2008L90.3953 51.5124V43.8506Z" fill="#EFAF4E"/>
</g>
<path d="M75.6448 18.373L66.6098 21.8154C63.596 22.9835 63.2247 26.7849 63.4158 28.5395V45.4743C63.7005 48.5248 65.3806 50.5642 67.5049 51.9187C72.7989 55.2943 79.6163 53.8597 85.7741 52.6342L77.9133 44.8764V18.373H75.6448Z" fill="#FFE9B1" stroke="black" stroke-width="0.673535"/>
<path d="M84.5069 39.3265L84.507 46.334C84.5071 47.7249 83.2588 48.7824 81.8865 48.5539C79.7124 48.1919 78.118 46.3103 78.118 44.1066L78.118 41.2028L84.5069 39.3265Z" fill="#196B6F" stroke="black" stroke-width="0.336768"/>
<path fill-rule="evenodd" clip-rule="evenodd" d="M70.3442 24.6079C70.8378 18.6422 75.1975 17.6169 80.8733 18.6422C87.9475 20.3822 90.9362 26.1511 90.7443 29.6414V31.5107L84.6926 33.6478L84.1642 33.5066L84.0372 27.8357C83.9934 25.8772 82.654 24.1861 80.7576 23.6949C79.3714 23.3359 78.0194 24.3823 78.0194 25.8143V42.5668C78.0194 44.8617 79.5824 46.8616 81.8094 47.4161C83.1595 47.7522 84.4597 46.7124 84.4286 45.3214L84.2986 39.5111L84.6926 39.4337L90.7443 40.1079V46.5441C90.7443 47.9112 90.7443 54.1254 80.8733 52.4476C72.9765 51.1053 70.5636 44.9698 70.3442 42.0698V24.6079Z" fill="white"/>
<path d="M80.8733 18.6422L80.9537 18.3152L80.9435 18.3127L80.9332 18.3108L80.8733 18.6422ZM70.3442 24.6079L70.0086 24.5801L70.0075 24.594V24.6079H70.3442ZM90.7443 29.6414L90.408 29.6229L90.4075 29.6322V29.6414H90.7443ZM90.7443 31.5107L90.8564 31.8283L91.0811 31.7489V31.5107H90.7443ZM84.6926 33.6478L84.6057 33.9732L84.7064 34.0001L84.8047 33.9654L84.6926 33.6478ZM84.1642 33.5066L83.8275 33.5142L83.8331 33.7668L84.0772 33.832L84.1642 33.5066ZM84.0372 27.8357L83.7006 27.8432L84.0372 27.8357ZM80.7576 23.6949L80.8421 23.3689L80.7576 23.6949ZM81.8094 47.4161L81.728 47.7429L81.8094 47.4161ZM84.4286 45.3214L84.0919 45.3289L84.4286 45.3214ZM84.2986 39.5111L84.2337 39.1806L83.9555 39.2352L83.9619 39.5186L84.2986 39.5111ZM84.6926 39.4337L84.7299 39.099L84.6785 39.0933L84.6277 39.1033L84.6926 39.4337ZM90.7443 40.1079H91.0811V39.8066L90.7816 39.7732L90.7443 40.1079ZM80.8733 52.4476L80.9297 52.1156H80.9297L80.8733 52.4476ZM70.3442 42.0698H70.0075V42.0826L70.0084 42.0952L70.3442 42.0698ZM80.9332 18.3108C78.0758 17.7946 75.4805 17.7791 73.5223 18.6986C71.5277 19.6352 70.2629 21.5066 70.0086 24.5801L70.6799 24.6357C70.9191 21.7435 72.081 20.1194 73.8086 19.3083C75.5725 18.48 77.995 18.4645 80.8134 18.9736L80.9332 18.3108ZM91.0806 29.6599C91.2819 25.9981 88.1756 20.0915 80.9537 18.3152L80.7929 18.9692C87.7195 20.6729 90.5906 26.304 90.408 29.6229L91.0806 29.6599ZM91.0811 31.5107V29.6414H90.4075V31.5107H91.0811ZM90.6322 31.1932L84.5805 33.3303L84.8047 33.9654L90.8564 31.8283L90.6322 31.1932ZM84.7795 33.3225L84.2511 33.1813L84.0772 33.832L84.6057 33.9732L84.7795 33.3225ZM84.5009 33.4991L84.3739 27.8282L83.7006 27.8432L83.8275 33.5142L84.5009 33.4991ZM84.3739 27.8282C84.3267 25.719 82.8843 23.8979 80.8421 23.3689L80.6732 24.0209C82.4237 24.4744 83.6601 26.0354 83.7006 27.8432L84.3739 27.8282ZM80.8421 23.3689C79.2426 22.9546 77.6826 24.1621 77.6826 25.8143H78.3561C78.3561 24.6026 79.5002 23.7171 80.6732 24.0209L80.8421 23.3689ZM77.6826 25.8143V42.5668H78.3561V25.8143H77.6826ZM77.6826 42.5668C77.6826 45.0163 79.351 47.1511 81.728 47.7429L81.8907 47.0893C79.8139 46.5722 78.3561 44.707 78.3561 42.5668H77.6826ZM81.728 47.7429C83.2937 48.1327 84.8014 46.9269 84.7653 45.3138L84.0919 45.3289C84.1181 46.4979 83.0254 47.3718 81.8907 47.0893L81.728 47.7429ZM84.7653 45.3138L84.6352 39.5035L83.9619 39.5186L84.0919 45.3289L84.7653 45.3138ZM84.3634 39.8415L84.7575 39.7642L84.6277 39.1033L84.2337 39.1806L84.3634 39.8415ZM84.6553 39.7684L90.707 40.4426L90.7816 39.7732L84.7299 39.099L84.6553 39.7684ZM91.0811 46.5441V40.1079H90.4075V46.5441H91.0811ZM80.8169 52.7796C85.8163 53.6294 88.431 52.4961 89.7715 50.8504C91.0878 49.2345 91.0811 47.2264 91.0811 46.5441H90.4075C90.4075 47.2289 90.4008 49.0115 89.2493 50.425C88.1221 51.8088 85.8013 52.9437 80.9297 52.1156L80.8169 52.7796ZM70.0084 42.0952C70.2361 45.1053 72.7279 51.4047 80.8169 52.7796L80.9297 52.1156C73.2251 50.806 70.8911 44.8343 70.68 42.0444L70.0084 42.0952ZM70.0075 24.6079V42.0698H70.681V24.6079H70.0075Z" fill="black"/>
<g style="mix-blend-mode:multiply">
<path d="M70.9575 44.4501L70.9536 44.4169L77.9143 39.8799C77.9143 44.1092 78.7629 45.2067 78.7629 45.2067C82.7617 49.1637 84.7363 47.5992 84.3969 39.5713C84.3254 39.7163 87.9619 39.4571 89.4632 39.7166V46.2838C89.0096 51.3814 85.2242 53.4136 77.605 51.2092C71.5385 49.454 71.2285 46.7844 70.9575 44.4501Z" fill="#FFD979"/>
</g>
<path d="M78.0166 32.3651L78.0169 25.8651C78.0169 24.4062 79.3944 23.3402 80.8066 23.706C82.6855 24.1926 84.0341 25.8383 84.1421 27.7761L84.2341 29.4261C84.36 31.686 82.2618 33.4221 80.0654 32.8752L78.0166 32.3651Z" fill="#196B6F" stroke="black" stroke-width="0.336768"/>
<g style="mix-blend-mode:multiply">
<path d="M65.2478 49.7098C70.2767 50.4191 71.2903 47.1604 71.1685 45.4424C74.5601 52.3588 81.7428 53.2012 84.9103 52.7579L79.5744 53.7L75.7734 54.2542C69.5165 54.2542 66.1493 51.2246 65.2478 49.7098Z" fill="#EFA036"/>
</g>
<path d="M84.0949 34.0075L78.1199 32.6003L84.0949 30.333L90.8959 31.7403L84.0949 34.0075Z" fill="#196B6F" stroke="black" stroke-width="0.336768"/>
<g style="mix-blend-mode:darken">
<path d="M89.1396 37.7285L95.4544 33.5332V49.2433L89.1396 47.9936V37.7285Z" fill="#FFD979"/>
</g>
<path d="M10.92 90.9971H8.4C7.96 90.9971 7.74 90.7871 7.74 90.3671V75.3371C7.74 75.1171 7.63 75.0071 7.41 75.0071H3.99C3.57 75.0071 3.36 74.7971 3.36 74.3771V72.3371C3.36 71.9171 3.57 71.7071 3.99 71.7071H15.33C15.75 71.7071 15.96 71.9171 15.96 72.3371V74.3771C15.96 74.7971 15.75 75.0071 15.33 75.0071H11.91C11.67 75.0071 11.55 75.1171 11.55 75.3371V90.3671C11.55 90.7871 11.34 90.9971 10.92 90.9971ZM23.3208 90.9971H22.6008C21.0208 90.9971 19.8008 90.5771 18.9408 89.7371C18.0808 88.8971 17.6508 87.6871 17.6508 86.1071V80.5871C17.6508 79.0071 18.0808 77.7971 18.9408 76.9571C19.8008 76.1171 21.0208 75.6971 22.6008 75.6971H29.5308C29.9708 75.6971 30.1908 75.9071 30.1908 76.3271V90.3671C30.1908 90.7871 29.9708 90.9971 29.5308 90.9971H27.0108C26.5908 90.9971 26.3808 90.7871 26.3808 90.3671V89.3771H26.2608C26.0408 89.9171 25.6508 90.3271 25.0908 90.6071C24.5308 90.8671 23.9408 90.9971 23.3208 90.9971ZM26.3808 85.4171V79.3271C26.3808 79.1071 26.2608 78.9971 26.0208 78.9971H23.2008C22.5608 78.9971 22.1108 79.1371 21.8508 79.4171C21.5908 79.6771 21.4608 80.1271 21.4608 80.7671V85.9271C21.4608 86.5671 21.5908 87.0271 21.8508 87.3071C22.1108 87.5671 22.5608 87.6971 23.2008 87.6971H24.3108C25.6908 87.6971 26.3808 86.9371 26.3808 85.4171ZM36.6581 90.9971H34.1081C33.6881 90.9971 33.4781 90.7871 33.4781 90.3671V76.3271C33.4781 75.9071 33.6881 75.6971 34.1081 75.6971H36.6581C37.0781 75.6971 37.2881 75.9071 37.2881 76.3271V77.3171H37.4081C37.6481 76.8371 38.0481 76.4471 38.6081 76.1471C39.1881 75.8471 39.8481 75.6971 40.5881 75.6971H41.4281C43.1681 75.6971 44.4181 76.3371 45.1781 77.6171C45.8581 76.3371 47.0281 75.6971 48.6881 75.6971H49.5581C51.0981 75.6971 52.2581 76.1171 53.0381 76.9571C53.8381 77.7971 54.2381 79.0071 54.2381 80.5871V90.3671C54.2381 90.7871 54.0281 90.9971 53.6081 90.9971H51.0581C50.6381 90.9971 50.4281 90.7871 50.4281 90.3671V80.7671C50.4281 80.1271 50.2981 79.6771 50.0381 79.4171C49.7781 79.1371 49.3281 78.9971 48.6881 78.9971H47.9381C46.5581 78.9971 45.8681 79.7671 45.8681 81.3071V90.3671C45.8681 90.7871 45.6481 90.9971 45.2081 90.9971H42.6881C42.2681 90.9971 42.0581 90.7871 42.0581 90.3671V80.7671C42.0581 80.1271 41.9181 79.6771 41.6381 79.4171C41.3781 79.1371 40.9281 78.9971 40.2881 78.9971H39.3581C37.9781 78.9971 37.2881 79.7571 37.2881 81.2771V90.3671C37.2881 90.7871 37.0781 90.9971 36.6581 90.9971ZM61.5537 87.6971H64.6137C65.2537 87.6971 65.7037 87.5671 65.9637 87.3071C66.2437 87.0271 66.3837 86.5671 66.3837 85.9271V80.7071C66.3837 80.0671 66.2437 79.6171 65.9637 79.3571C65.7037 79.0771 65.2537 78.9371 64.6137 78.9371H63.2937C61.9137 78.9371 61.2237 79.6971 61.2237 81.2171V87.3671C61.2237 87.5871 61.3337 87.6971 61.5537 87.6971ZM57.4137 90.3671V70.5371C57.4137 70.1171 57.6237 69.9071 58.0437 69.9071H60.5937C61.0137 69.9071 61.2237 70.1171 61.2237 70.5371V77.2871H61.3437C61.5637 76.7471 61.9537 76.3371 62.5137 76.0571C63.0737 75.7771 63.6637 75.6371 64.2837 75.6371H65.2437C66.8237 75.6371 68.0437 76.0571 68.9037 76.8971C69.7637 77.7371 70.1937 78.9471 70.1937 80.5271V86.1071C70.1937 87.6871 69.7637 88.8971 68.9037 89.7371C68.0437 90.5771 66.8237 90.9971 65.2437 90.9971H58.0437C57.6237 90.9971 57.4137 90.7871 57.4137 90.3671ZM80.5247 90.9971H77.8547C76.2747 90.9971 75.0547 90.5771 74.1947 89.7371C73.3347 88.8971 72.9047 87.6871 72.9047 86.1071V80.5871C72.9047 79.0071 73.3347 77.7971 74.1947 76.9571C75.0547 76.1171 76.2747 75.6971 77.8547 75.6971H80.5247C82.0847 75.6971 83.2947 76.1271 84.1547 76.9871C85.0347 77.8271 85.4747 79.0271 85.4747 80.5871V86.1071C85.4747 87.6671 85.0347 88.8771 84.1547 89.7371C83.2947 90.5771 82.0847 90.9971 80.5247 90.9971ZM78.4247 87.7271H79.9547C80.5947 87.7271 81.0447 87.5971 81.3047 87.3371C81.5847 87.0771 81.7247 86.6271 81.7247 85.9871V80.7071C81.7247 80.0671 81.5847 79.6171 81.3047 79.3571C81.0447 79.0971 80.5947 78.9671 79.9547 78.9671H78.4247C77.7847 78.9671 77.3347 79.0971 77.0747 79.3571C76.8147 79.6171 76.6847 80.0671 76.6847 80.7071V85.9871C76.6847 86.6271 76.8147 87.0771 77.0747 87.3371C77.3347 87.5971 77.7847 87.7271 78.4247 87.7271ZM91.7984 90.9971H89.2484C88.8284 90.9971 88.6184 90.7871 88.6184 90.3671V70.5371C88.6184 70.1171 88.8284 69.9071 89.2484 69.9071H91.7984C92.2184 69.9071 92.4284 70.1171 92.4284 70.5371V90.3671C92.4284 90.7871 92.2184 90.9971 91.7984 90.9971ZM101.25 90.9971H100.53C98.9505 90.9971 97.7305 90.5771 96.8705 89.7371C96.0105 88.8971 95.5805 87.6871 95.5805 86.1071V80.5871C95.5805 79.0071 96.0105 77.7971 96.8705 76.9571C97.7305 76.1171 98.9505 75.6971 100.53 75.6971H107.46C107.9 75.6971 108.12 75.9071 108.12 76.3271V90.3671C108.12 90.7871 107.9 90.9971 107.46 90.9971H104.94C104.52 90.9971 104.31 90.7871 104.31 90.3671V89.3771H104.19C103.97 89.9171 103.58 90.3271 103.02 90.6071C102.46 90.8671 101.87 90.9971 101.25 90.9971ZM104.31 85.4171V79.3271C104.31 79.1071 104.19 78.9971 103.95 78.9971H101.13C100.49 78.9971 100.04 79.1371 99.7805 79.4171C99.5205 79.6771 99.3905 80.1271 99.3905 80.7671V85.9271C99.3905 86.5671 99.5205 87.0271 99.7805 87.3071C100.04 87.5671 100.49 87.6971 101.13 87.6971H102.24C103.62 87.6971 104.31 86.9371 104.31 85.4171Z" fill="#FFD979"/>
<path d="M6.888 42.9971H3.528C3.176 42.9971 2.976 42.8291 2.928 42.4931L0.36 28.0691C0.312 27.7331 0.48 27.5651 0.864 27.5651H3.36C3.728 27.5651 3.92 27.7331 3.936 28.0691L5.328 39.9011H5.496L7.8 27.9971C7.848 27.7091 8.016 27.5651 8.304 27.5651H10.992C11.296 27.5651 11.472 27.7011 11.52 27.9731L13.872 39.9011H14.064L15.432 28.0931C15.448 27.7411 15.64 27.5651 16.008 27.5651H18.504C18.888 27.5651 19.056 27.7411 19.008 28.0931L16.416 42.4931C16.368 42.8291 16.184 42.9971 15.864 42.9971H12.48C12.144 42.9971 11.952 42.8291 11.904 42.4931L9.744 31.2371H9.648L7.464 42.4931C7.4 42.8291 7.208 42.9971 6.888 42.9971ZM20.7994 28.6931V26.6051C20.7994 26.2851 20.9594 26.1251 21.2794 26.1251H23.3674C23.6874 26.1251 23.8474 26.2771 23.8474 26.5811V28.6931C23.8474 29.0131 23.6874 29.1731 23.3674 29.1731H21.2794C20.9594 29.1731 20.7994 29.0131 20.7994 28.6931ZM20.7994 42.4931V31.2611C20.7994 30.9251 20.9594 30.7571 21.2794 30.7571H23.3434C23.6794 30.7571 23.8474 30.9251 23.8474 31.2611V42.4931C23.8474 42.7011 23.8074 42.8371 23.7274 42.9011C23.6634 42.9651 23.5434 42.9971 23.3674 42.9971H21.3034C20.9674 42.9971 20.7994 42.8291 20.7994 42.4931ZM29.1531 42.9971H27.1131C26.7771 42.9971 26.6091 42.8291 26.6091 42.4931V31.2611C26.6091 30.9251 26.7771 30.7571 27.1131 30.7571H29.1531C29.4891 30.7571 29.6571 30.9251 29.6571 31.2611V32.0531H29.7531C30.1051 31.1891 30.8891 30.7571 32.1051 30.7571H32.8731C35.3851 30.7571 36.6411 32.0611 36.6411 34.6691V42.4931C36.6411 42.8291 36.4651 42.9971 36.1131 42.9971H34.0971C33.7611 42.9971 33.5931 42.8291 33.5931 42.4931V34.8131C33.5931 34.3011 33.4811 33.9411 33.2571 33.7331C33.0491 33.5091 32.6891 33.3971 32.1771 33.3971H31.3131C30.2091 33.3971 29.6571 34.0051 29.6571 35.2211V42.4931C29.6571 42.8291 29.4891 42.9971 29.1531 42.9971Z" fill="#003439"/>
<path d="M8.888 41.9971H5.528C5.176 41.9971 4.976 41.8291 4.928 41.4931L2.36 27.0691C2.312 26.7331 2.48 26.5651 2.864 26.5651H5.36C5.728 26.5651 5.92 26.7331 5.936 27.0691L7.328 38.9011H7.496L9.8 26.9971C9.848 26.7091 10.016 26.5651 10.304 26.5651H12.992C13.296 26.5651 13.472 26.7011 13.52 26.9731L15.872 38.9011H16.064L17.432 27.0931C17.448 26.7411 17.64 26.5651 18.008 26.5651H20.504C20.888 26.5651 21.056 26.7411 21.008 27.0931L18.416 41.4931C18.368 41.8291 18.184 41.9971 17.864 41.9971H14.48C14.144 41.9971 13.952 41.8291 13.904 41.4931L11.744 30.2371H11.648L9.464 41.4931C9.4 41.8291 9.208 41.9971 8.888 41.9971ZM22.7994 27.6931V25.6051C22.7994 25.2851 22.9594 25.1251 23.2794 25.1251H25.3674C25.6874 25.1251 25.8474 25.2771 25.8474 25.5811V27.6931C25.8474 28.0131 25.6874 28.1731 25.3674 28.1731H23.2794C22.9594 28.1731 22.7994 28.0131 22.7994 27.6931ZM22.7994 41.4931V30.2611C22.7994 29.9251 22.9594 29.7571 23.2794 29.7571H25.3434C25.6794 29.7571 25.8474 29.9251 25.8474 30.2611V41.4931C25.8474 41.7011 25.8074 41.8371 25.7274 41.9011C25.6634 41.9651 25.5434 41.9971 25.3674 41.9971H23.3034C22.9674 41.9971 22.7994 41.8291 22.7994 41.4931ZM31.1531 41.9971H29.1131C28.7771 41.9971 28.6091 41.8291 28.6091 41.4931V30.2611C28.6091 29.9251 28.7771 29.7571 29.1131 29.7571H31.1531C31.4891 29.7571 31.6571 29.9251 31.6571 30.2611V31.0531H31.7531C32.1051 30.1891 32.8891 29.7571 34.1051 29.7571H34.8731C37.3851 29.7571 38.6411 31.0611 38.6411 33.6691V41.4931C38.6411 41.8291 38.4651 41.9971 38.1131 41.9971H36.0971C35.7611 41.9971 35.5931 41.8291 35.5931 41.4931V33.8131C35.5931 33.3011 35.4811 32.9411 35.2571 32.7331C35.0491 32.5091 34.6891 32.3971 34.1771 32.3971H33.3131C32.2091 32.3971 31.6571 33.0051 31.6571 34.2211V41.4931C31.6571 41.8291 31.4891 41.9971 31.1531 41.9971Z" fill="#FFD979"/>
<path d="M50.7285 9.68098V1L65.373 6.35732V50.1433L54.8658 46.9947V11.1698L50.7285 9.68098Z" fill="white" stroke="black" stroke-width="0.673535"/>
<path d="M49.2871 13.8292L54.922 10.8887V46.8768L49.2871 49.5616V13.8292Z" fill="#7ACECE" stroke="black" stroke-width="0.673535"/>
<path d="M45.0789 12.4487V3.99246L50.7137 1V9.54042L45.0789 12.4487Z" fill="#7ACECE" stroke="black" stroke-width="0.673535"/>
<path d="M49.1591 13.7847L45 12.4652L50.7286 9.49609L54.9662 10.8157L49.1591 13.7847Z" fill="#196B6F" stroke="black" stroke-width="0.336768"/>
<path d="M59.0169 52.0576L49.3154 49.8368L54.6794 47.1035L64.7602 49.8368L59.0169 52.0576Z" fill="black" stroke="black" stroke-width="0.673535"/>
<g style="mix-blend-mode:multiply">
<path d="M49.1641 40.2777C53.2885 38.6188 54.8289 33.5661 54.8925 31.5146V47.2672L49.1641 49.6512V40.2777Z" fill="#348489"/>
</g>
<path fill-rule="evenodd" clip-rule="evenodd" d="M95.8116 19.375L95.8115 25.2531V49.5011L103.705 50.9628V28.6649C104.639 27.5644 105.965 27.2758 107.617 27.2758C110.401 27.2758 112.394 30.0121 113.288 31.263L114.911 25.8331C114.911 25.8331 112.669 22.7985 108.235 22.3882C106.516 22.2291 104.836 22.4608 103.705 22.8822V21.3264L95.8116 19.375Z" fill="white"/>
<path d="M95.8115 25.2531L95.4748 25.2531V25.2531H95.8115ZM95.8116 19.375L95.8924 19.0481C95.7919 19.0232 95.6855 19.046 95.604 19.1098C95.5225 19.1737 95.4748 19.2714 95.4748 19.375L95.8116 19.375ZM95.8115 49.5011H95.4748C95.4748 49.6634 95.5906 49.8026 95.7502 49.8322L95.8115 49.5011ZM103.705 50.9628L103.644 51.2939C103.742 51.3122 103.844 51.2857 103.921 51.2217C103.998 51.1577 104.042 51.0629 104.042 50.9628H103.705ZM103.705 28.6649L103.449 28.447C103.397 28.5078 103.369 28.5851 103.369 28.6649H103.705ZM113.288 31.263L113.014 31.4587C113.089 31.5634 113.216 31.6163 113.343 31.5952C113.47 31.5741 113.574 31.4826 113.611 31.3594L113.288 31.263ZM114.911 25.8331L115.234 25.9295C115.264 25.828 115.245 25.7182 115.182 25.633L114.911 25.8331ZM108.235 22.3882L108.204 22.7236L108.235 22.3882ZM103.705 22.8822H103.369C103.369 22.9925 103.423 23.0959 103.513 23.1588C103.604 23.2217 103.72 23.2363 103.823 23.1978L103.705 22.8822ZM103.705 21.3264H104.042C104.042 21.1715 103.937 21.0366 103.786 20.9995L103.705 21.3264ZM96.1483 25.2531L96.1484 19.375L95.4748 19.375L95.4748 25.2531L96.1483 25.2531ZM96.1483 49.5011V25.2531H95.4748V49.5011H96.1483ZM103.767 50.6317L95.8728 49.1699L95.7502 49.8322L103.644 51.2939L103.767 50.6317ZM103.369 28.6649V50.9628H104.042V28.6649H103.369ZM103.962 28.8828C104.798 27.8979 105.994 27.6125 107.617 27.6125V26.939C105.935 26.939 104.481 27.2308 103.449 28.447L103.962 28.8828ZM107.617 27.6125C108.894 27.6125 110.012 28.2404 110.939 29.0534C111.865 29.8657 112.567 30.8337 113.014 31.4587L113.562 31.0672C113.115 30.4413 112.373 29.4157 111.383 28.5471C110.394 27.6793 109.123 26.939 107.617 26.939V27.6125ZM113.611 31.3594L115.234 25.9295L114.588 25.7366L112.965 31.1665L113.611 31.3594ZM114.911 25.8331C115.182 25.633 115.182 25.6328 115.182 25.6327C115.182 25.6326 115.181 25.6325 115.181 25.6324C115.181 25.6321 115.181 25.6318 115.181 25.6315C115.18 25.6308 115.18 25.6299 115.179 25.6289C115.177 25.6268 115.175 25.624 115.172 25.6205C115.167 25.6134 115.16 25.6036 115.15 25.5911C115.13 25.5662 115.102 25.5307 115.064 25.486C114.99 25.3967 114.88 25.2707 114.734 25.1192C114.443 24.8163 114.01 24.4105 113.434 23.9921C112.282 23.1549 110.556 22.2648 108.266 22.0529L108.204 22.7236C110.348 22.9219 111.961 23.7542 113.038 24.5369C113.577 24.9284 113.981 25.3069 114.249 25.5858C114.382 25.7252 114.482 25.8395 114.547 25.9177C114.58 25.9569 114.604 25.987 114.62 26.0067C114.627 26.0165 114.633 26.0238 114.636 26.0282C114.638 26.0305 114.639 26.032 114.64 26.0329C114.64 26.0333 114.64 26.0335 114.64 26.0336C114.64 26.0336 114.64 26.0336 114.64 26.0335C114.64 26.0335 114.64 26.0334 114.64 26.0334C114.64 26.0333 114.64 26.0332 114.911 25.8331ZM108.266 22.0529C106.504 21.8898 104.773 22.1251 103.588 22.5666L103.823 23.1978C104.9 22.7965 106.528 22.5684 108.204 22.7236L108.266 22.0529ZM103.369 21.3264V22.8822H104.042V21.3264H103.369ZM95.7308 19.7019L103.625 21.6533L103.786 20.9995L95.8924 19.0481L95.7308 19.7019Z" fill="black"/>
<path d="M90.3953 21.5977L95.81 19.375L95.9634 49.541L90.3953 51.3538V21.5977Z" fill="#FFE9B1"/>
<path d="M95.81 19.375L96.1468 19.3733C96.1462 19.2613 96.09 19.1569 95.9968 19.0948C95.9037 19.0327 95.7857 19.0209 95.6821 19.0635L95.81 19.375ZM90.3953 21.5977L90.2674 21.2862L90.0585 21.3719V21.5977H90.3953ZM90.3953 51.3538H90.0585V51.8176L90.4995 51.674L90.3953 51.3538ZM95.9634 49.541L96.0677 49.8612L96.3014 49.7851L96.3002 49.5393L95.9634 49.541ZM95.6821 19.0635L90.2674 21.2862L90.5232 21.9093L95.9379 19.6865L95.6821 19.0635ZM90.0585 21.5977V51.3538H90.732V21.5977H90.0585ZM90.4995 51.674L96.0677 49.8612L95.8592 49.2208L90.291 51.0336L90.4995 51.674ZM96.3002 49.5393L96.1468 19.3733L95.4732 19.3767L95.6267 49.5427L96.3002 49.5393Z" fill="black"/>
<path d="M97.1198 52.6074L90.4934 51.1962L95.5139 49.3506L103.32 50.9579L97.1198 52.6074Z" fill="black" stroke="black" stroke-width="0.673535"/>
<path d="M110.068 33.2252C110.068 30.8335 105.486 28.5258 103.755 30.1737C103.755 29.4675 103.211 27.2871 107.344 27.2871C110.934 27.2871 112.725 29.7668 113.109 31.4933L110.068 33.2252Z" fill="#196B6F" stroke="black" stroke-width="0.336768"/>
<g style="mix-blend-mode:multiply">
<path d="M90.3953 43.8506C94.2105 42.354 95.629 38.162 95.711 36.2559V49.2008L90.3953 51.5124V43.8506Z" fill="#EFAF4E"/>
</g>
<path d="M75.6448 18.373L66.6098 21.8154C63.596 22.9835 63.2247 26.7849 63.4158 28.5395V45.4743C63.7005 48.5248 65.3806 50.5642 67.5049 51.9187C72.7989 55.2943 79.6163 53.8597 85.7741 52.6342L77.9133 44.8764V18.373H75.6448Z" fill="#FFE9B1" stroke="black" stroke-width="0.673535"/>
<path d="M84.5069 39.3265L84.507 46.334C84.5071 47.7249 83.2588 48.7824 81.8865 48.5539C79.7124 48.1919 78.118 46.3103 78.118 44.1066L78.118 41.2028L84.5069 39.3265Z" fill="#196B6F" stroke="black" stroke-width="0.336768"/>
<path fill-rule="evenodd" clip-rule="evenodd" d="M70.3442 24.6079C70.8378 18.6422 75.1975 17.6169 80.8733 18.6422C87.9475 20.3822 90.9362 26.1511 90.7443 29.6414V31.5107L84.6926 33.6478L84.1642 33.5066L84.0372 27.8357C83.9934 25.8772 82.654 24.1861 80.7576 23.6949C79.3714 23.3359 78.0194 24.3823 78.0194 25.8143V42.5668C78.0194 44.8617 79.5824 46.8616 81.8094 47.4161C83.1595 47.7522 84.4597 46.7124 84.4286 45.3214L84.2986 39.5111L84.6926 39.4337L90.7443 40.1079V46.5441C90.7443 47.9112 90.7443 54.1254 80.8733 52.4476C72.9765 51.1053 70.5636 44.9698 70.3442 42.0698V24.6079Z" fill="white"/>
<path d="M80.8733 18.6422L80.9537 18.3152L80.9435 18.3127L80.9332 18.3108L80.8733 18.6422ZM70.3442 24.6079L70.0086 24.5801L70.0075 24.594V24.6079H70.3442ZM90.7443 29.6414L90.408 29.6229L90.4075 29.6322V29.6414H90.7443ZM90.7443 31.5107L90.8564 31.8283L91.0811 31.7489V31.5107H90.7443ZM84.6926 33.6478L84.6057 33.9732L84.7064 34.0001L84.8047 33.9654L84.6926 33.6478ZM84.1642 33.5066L83.8275 33.5142L83.8331 33.7668L84.0772 33.832L84.1642 33.5066ZM84.0372 27.8357L83.7006 27.8432L84.0372 27.8357ZM80.7576 23.6949L80.8421 23.3689L80.7576 23.6949ZM81.8094 47.4161L81.728 47.7429L81.8094 47.4161ZM84.4286 45.3214L84.0919 45.3289L84.4286 45.3214ZM84.2986 39.5111L84.2337 39.1806L83.9555 39.2352L83.9619 39.5186L84.2986 39.5111ZM84.6926 39.4337L84.7299 39.099L84.6785 39.0933L84.6277 39.1033L84.6926 39.4337ZM90.7443 40.1079H91.0811V39.8066L90.7816 39.7732L90.7443 40.1079ZM80.8733 52.4476L80.9297 52.1156H80.9297L80.8733 52.4476ZM70.3442 42.0698H70.0075V42.0826L70.0084 42.0952L70.3442 42.0698ZM80.9332 18.3108C78.0758 17.7946 75.4805 17.7791 73.5223 18.6986C71.5277 19.6352 70.2629 21.5066 70.0086 24.5801L70.6799 24.6357C70.9191 21.7435 72.081 20.1194 73.8086 19.3083C75.5725 18.48 77.995 18.4645 80.8134 18.9736L80.9332 18.3108ZM91.0806 29.6599C91.2819 25.9981 88.1756 20.0915 80.9537 18.3152L80.7929 18.9692C87.7195 20.6729 90.5906 26.304 90.408 29.6229L91.0806 29.6599ZM91.0811 31.5107V29.6414H90.4075V31.5107H91.0811ZM90.6322 31.1932L84.5805 33.3303L84.8047 33.9654L90.8564 31.8283L90.6322 31.1932ZM84.7795 33.3225L84.2511 33.1813L84.0772 33.832L84.6057 33.9732L84.7795 33.3225ZM84.5009 33.4991L84.3739 27.8282L83.7006 27.8432L83.8275 33.5142L84.5009 33.4991ZM84.3739 27.8282C84.3267 25.719 82.8843 23.8979 80.8421 23.3689L80.6732 24.0209C82.4237 24.4744 83.6601 26.0354 83.7006 27.8432L84.3739 27.8282ZM80.8421 23.3689C79.2426 22.9546 77.6826 24.1621 77.6826 25.8143H78.3561C78.3561 24.6026 79.5002 23.7171 80.6732 24.0209L80.8421 23.3689ZM77.6826 25.8143V42.5668H78.3561V25.8143H77.6826ZM77.6826 42.5668C77.6826 45.0163 79.351 47.1511 81.728 47.7429L81.8907 47.0893C79.8139 46.5722 78.3561 44.707 78.3561 42.5668H77.6826ZM81.728 47.7429C83.2937 48.1327 84.8014 46.9269 84.7653 45.3138L84.0919 45.3289C84.1181 46.4979 83.0254 47.3718 81.8907 47.0893L81.728 47.7429ZM84.7653 45.3138L84.6352 39.5035L83.9619 39.5186L84.0919 45.3289L84.7653 45.3138ZM84.3634 39.8415L84.7575 39.7642L84.6277 39.1033L84.2337 39.1806L84.3634 39.8415ZM84.6553 39.7684L90.707 40.4426L90.7816 39.7732L84.7299 39.099L84.6553 39.7684ZM91.0811 46.5441V40.1079H90.4075V46.5441H91.0811ZM80.8169 52.7796C85.8163 53.6294 88.431 52.4961 89.7715 50.8504C91.0878 49.2345 91.0811 47.2264 91.0811 46.5441H90.4075C90.4075 47.2289 90.4008 49.0115 89.2493 50.425C88.1221 51.8088 85.8013 52.9437 80.9297 52.1156L80.8169 52.7796ZM70.0084 42.0952C70.2361 45.1053 72.7279 51.4047 80.8169 52.7796L80.9297 52.1156C73.2251 50.806 70.8911 44.8343 70.68 42.0444L70.0084 42.0952ZM70.0075 24.6079V42.0698H70.681V24.6079H70.0075Z" fill="black"/>
<g style="mix-blend-mode:multiply">
<path d="M70.9575 44.4501L70.9536 44.4169L77.9143 39.8799C77.9143 44.1092 78.7629 45.2067 78.7629 45.2067C82.7617 49.1637 84.7363 47.5992 84.3969 39.5713C84.3254 39.7163 87.9619 39.4571 89.4632 39.7166V46.2838C89.0096 51.3814 85.2242 53.4136 77.605 51.2092C71.5385 49.454 71.2285 46.7844 70.9575 44.4501Z" fill="#FFD979"/>
</g>
<path d="M78.0166 32.3651L78.0169 25.8651C78.0169 24.4062 79.3944 23.3402 80.8066 23.706C82.6855 24.1926 84.0341 25.8383 84.1421 27.7761L84.2341 29.4261C84.36 31.686 82.2618 33.4221 80.0654 32.8752L78.0166 32.3651Z" fill="#196B6F" stroke="black" stroke-width="0.336768"/>
<g style="mix-blend-mode:multiply">
<path d="M65.2478 49.7098C70.2767 50.4191 71.2903 47.1604 71.1685 45.4424C74.5601 52.3588 81.7428 53.2012 84.9103 52.7579L79.5744 53.7L75.7734 54.2542C69.5165 54.2542 66.1493 51.2246 65.2478 49.7098Z" fill="#EFA036"/>
</g>
<path d="M84.0949 34.0075L78.1199 32.6003L84.0949 30.333L90.8959 31.7403L84.0949 34.0075Z" fill="#196B6F" stroke="black" stroke-width="0.336768"/>
<g style="mix-blend-mode:darken">
<path d="M89.1396 37.7285L95.4544 33.5332V49.2433L89.1396 47.9936V37.7285Z" fill="#FFD979"/>
</g>
<path d="M10.92 90.9971H8.4C7.96 90.9971 7.74 90.7871 7.74 90.3671V75.3371C7.74 75.1171 7.63 75.0071 7.41 75.0071H3.99C3.57 75.0071 3.36 74.7971 3.36 74.3771V72.3371C3.36 71.9171 3.57 71.7071 3.99 71.7071H15.33C15.75 71.7071 15.96 71.9171 15.96 72.3371V74.3771C15.96 74.7971 15.75 75.0071 15.33 75.0071H11.91C11.67 75.0071 11.55 75.1171 11.55 75.3371V90.3671C11.55 90.7871 11.34 90.9971 10.92 90.9971ZM23.3208 90.9971H22.6008C21.0208 90.9971 19.8008 90.5771 18.9408 89.7371C18.0808 88.8971 17.6508 87.6871 17.6508 86.1071V80.5871C17.6508 79.0071 18.0808 77.7971 18.9408 76.9571C19.8008 76.1171 21.0208 75.6971 22.6008 75.6971H29.5308C29.9708 75.6971 30.1908 75.9071 30.1908 76.3271V90.3671C30.1908 90.7871 29.9708 90.9971 29.5308 90.9971H27.0108C26.5908 90.9971 26.3808 90.7871 26.3808 90.3671V89.3771H26.2608C26.0408 89.9171 25.6508 90.3271 25.0908 90.6071C24.5308 90.8671 23.9408 90.9971 23.3208 90.9971ZM26.3808 85.4171V79.3271C26.3808 79.1071 26.2608 78.9971 26.0208 78.9971H23.2008C22.5608 78.9971 22.1108 79.1371 21.8508 79.4171C21.5908 79.6771 21.4608 80.1271 21.4608 80.7671V85.9271C21.4608 86.5671 21.5908 87.0271 21.8508 87.3071C22.1108 87.5671 22.5608 87.6971 23.2008 87.6971H24.3108C25.6908 87.6971 26.3808 86.9371 26.3808 85.4171ZM36.6581 90.9971H34.1081C33.6881 90.9971 33.4781 90.7871 33.4781 90.3671V76.3271C33.4781 75.9071 33.6881 75.6971 34.1081 75.6971H36.6581C37.0781 75.6971 37.2881 75.9071 37.2881 76.3271V77.3171H37.4081C37.6481 76.8371 38.0481 76.4471 38.6081 76.1471C39.1881 75.8471 39.8481 75.6971 40.5881 75.6971H41.4281C43.1681 75.6971 44.4181 76.3371 45.1781 77.6171C45.8581 76.3371 47.0281 75.6971 48.6881 75.6971H49.5581C51.0981 75.6971 52.2581 76.1171 53.0381 76.9571C53.8381 77.7971 54.2381 79.0071 54.2381 80.5871V90.3671C54.2381 90.7871 54.0281 90.9971 53.6081 90.9971H51.0581C50.6381 90.9971 50.4281 90.7871 50.4281 90.3671V80.7671C50.4281 80.1271 50.2981 79.6771 50.0381 79.4171C49.7781 79.1371 49.3281 78.9971 48.6881 78.9971H47.9381C46.5581 78.9971 45.8681 79.7671 45.8681 81.3071V90.3671C45.8681 90.7871 45.6481 90.9971 45.2081 90.9971H42.6881C42.2681 90.9971 42.0581 90.7871 42.0581 90.3671V80.7671C42.0581 80.1271 41.9181 79.6771 41.6381 79.4171C41.3781 79.1371 40.9281 78.9971 40.2881 78.9971H39.3581C37.9781 78.9971 37.2881 79.7571 37.2881 81.2771V90.3671C37.2881 90.7871 37.0781 90.9971 36.6581 90.9971ZM61.5537 87.6971H64.6137C65.2537 87.6971 65.7037 87.5671 65.9637 87.3071C66.2437 87.0271 66.3837 86.5671 66.3837 85.9271V80.7071C66.3837 80.0671 66.2437 79.6171 65.9637 79.3571C65.7037 79.0771 65.2537 78.9371 64.6137 78.9371H63.2937C61.9137 78.9371 61.2237 79.6971 61.2237 81.2171V87.3671C61.2237 87.5871 61.3337 87.6971 61.5537 87.6971ZM57.4137 90.3671V70.5371C57.4137 70.1171 57.6237 69.9071 58.0437 69.9071H60.5937C61.0137 69.9071 61.2237 70.1171 61.2237 70.5371V77.2871H61.3437C61.5637 76.7471 61.9537 76.3371 62.5137 76.0571C63.0737 75.7771 63.6637 75.6371 64.2837 75.6371H65.2437C66.8237 75.6371 68.0437 76.0571 68.9037 76.8971C69.7637 77.7371 70.1937 78.9471 70.1937 80.5271V86.1071C70.1937 87.6871 69.7637 88.8971 68.9037 89.7371C68.0437 90.5771 66.8237 90.9971 65.2437 90.9971H58.0437C57.6237 90.9971 57.4137 90.7871 57.4137 90.3671ZM80.5247 90.9971H77.8547C76.2747 90.9971 75.0547 90.5771 74.1947 89.7371C73.3347 88.8971 72.9047 87.6871 72.9047 86.1071V80.5871C72.9047 79.0071 73.3347 77.7971 74.1947 76.9571C75.0547 76.1171 76.2747 75.6971 77.8547 75.6971H80.5247C82.0847 75.6971 83.2947 76.1271 84.1547 76.9871C85.0347 77.8271 85.4747 79.0271 85.4747 80.5871V86.1071C85.4747 87.6671 85.0347 88.8771 84.1547 89.7371C83.2947 90.5771 82.0847 90.9971 80.5247 90.9971ZM78.4247 87.7271H79.9547C80.5947 87.7271 81.0447 87.5971 81.3047 87.3371C81.5847 87.0771 81.7247 86.6271 81.7247 85.9871V80.7071C81.7247 80.0671 81.5847 79.6171 81.3047 79.3571C81.0447 79.0971 80.5947 78.9671 79.9547 78.9671H78.4247C77.7847 78.9671 77.3347 79.0971 77.0747 79.3571C76.8147 79.6171 76.6847 80.0671 76.6847 80.7071V85.9871C76.6847 86.6271 76.8147 87.0771 77.0747 87.3371C77.3347 87.5971 77.7847 87.7271 78.4247 87.7271ZM91.7984 90.9971H89.2484C88.8284 90.9971 88.6184 90.7871 88.6184 90.3671V70.5371C88.6184 70.1171 88.8284 69.9071 89.2484 69.9071H91.7984C92.2184 69.9071 92.4284 70.1171 92.4284 70.5371V90.3671C92.4284 90.7871 92.2184 90.9971 91.7984 90.9971ZM101.25 90.9971H100.53C98.9505 90.9971 97.7305 90.5771 96.8705 89.7371C96.0105 88.8971 95.5805 87.6871 95.5805 86.1071V80.5871C95.5805 79.0071 96.0105 77.7971 96.8705 76.9571C97.7305 76.1171 98.9505 75.6971 100.53 75.6971H107.46C107.9 75.6971 108.12 75.9071 108.12 76.3271V90.3671C108.12 90.7871 107.9 90.9971 107.46 90.9971H104.94C104.52 90.9971 104.31 90.7871 104.31 90.3671V89.3771H104.19C103.97 89.9171 103.58 90.3271 103.02 90.6071C102.46 90.8671 101.87 90.9971 101.25 90.9971ZM104.31 85.4171V79.3271C104.31 79.1071 104.19 78.9971 103.95 78.9971H101.13C100.49 78.9971 100.04 79.1371 99.7805 79.4171C99.5205 79.6771 99.3905 80.1271 99.3905 80.7671V85.9271C99.3905 86.5671 99.5205 87.0271 99.7805 87.3071C100.04 87.5671 100.49 87.6971 101.13 87.6971H102.24C103.62 87.6971 104.31 86.9371 104.31 85.4171Z" fill="#FFD979"/>
<path d="M6.888 42.9971H3.528C3.176 42.9971 2.976 42.8291 2.928 42.4931L0.36 28.0691C0.312 27.7331 0.48 27.5651 0.864 27.5651H3.36C3.728 27.5651 3.92 27.7331 3.936 28.0691L5.328 39.9011H5.496L7.8 27.9971C7.848 27.7091 8.016 27.5651 8.304 27.5651H10.992C11.296 27.5651 11.472 27.7011 11.52 27.9731L13.872 39.9011H14.064L15.432 28.0931C15.448 27.7411 15.64 27.5651 16.008 27.5651H18.504C18.888 27.5651 19.056 27.7411 19.008 28.0931L16.416 42.4931C16.368 42.8291 16.184 42.9971 15.864 42.9971H12.48C12.144 42.9971 11.952 42.8291 11.904 42.4931L9.744 31.2371H9.648L7.464 42.4931C7.4 42.8291 7.208 42.9971 6.888 42.9971ZM20.7994 28.6931V26.6051C20.7994 26.2851 20.9594 26.1251 21.2794 26.1251H23.3674C23.6874 26.1251 23.8474 26.2771 23.8474 26.5811V28.6931C23.8474 29.0131 23.6874 29.1731 23.3674 29.1731H21.2794C20.9594 29.1731 20.7994 29.0131 20.7994 28.6931ZM20.7994 42.4931V31.2611C20.7994 30.9251 20.9594 30.7571 21.2794 30.7571H23.3434C23.6794 30.7571 23.8474 30.9251 23.8474 31.2611V42.4931C23.8474 42.7011 23.8074 42.8371 23.7274 42.9011C23.6634 42.9651 23.5434 42.9971 23.3674 42.9971H21.3034C20.9674 42.9971 20.7994 42.8291 20.7994 42.4931ZM29.1531 42.9971H27.1131C26.7771 42.9971 26.6091 42.8291 26.6091 42.4931V31.2611C26.6091 30.9251 26.7771 30.7571 27.1131 30.7571H29.1531C29.4891 30.7571 29.6571 30.9251 29.6571 31.2611V32.0531H29.7531C30.1051 31.1891 30.8891 30.7571 32.1051 30.7571H32.8731C35.3851 30.7571 36.6411 32.0611 36.6411 34.6691V42.4931C36.6411 42.8291 36.4651 42.9971 36.1131 42.9971H34.0971C33.7611 42.9971 33.5931 42.8291 33.5931 42.4931V34.8131C33.5931 34.3011 33.4811 33.9411 33.2571 33.7331C33.0491 33.5091 32.6891 33.3971 32.1771 33.3971H31.3131C30.2091 33.3971 29.6571 34.0051 29.6571 35.2211V42.4931C29.6571 42.8291 29.4891 42.9971 29.1531 42.9971Z" fill="#003439"/>
<path d="M8.888 41.9971H5.528C5.176 41.9971 4.976 41.8291 4.928 41.4931L2.36 27.0691C2.312 26.7331 2.48 26.5651 2.864 26.5651H5.36C5.728 26.5651 5.92 26.7331 5.936 27.0691L7.328 38.9011H7.496L9.8 26.9971C9.848 26.7091 10.016 26.5651 10.304 26.5651H12.992C13.296 26.5651 13.472 26.7011 13.52 26.9731L15.872 38.9011H16.064L17.432 27.0931C17.448 26.7411 17.64 26.5651 18.008 26.5651H20.504C20.888 26.5651 21.056 26.7411 21.008 27.0931L18.416 41.4931C18.368 41.8291 18.184 41.9971 17.864 41.9971H14.48C14.144 41.9971 13.952 41.8291 13.904 41.4931L11.744 30.2371H11.648L9.464 41.4931C9.4 41.8291 9.208 41.9971 8.888 41.9971ZM22.7994 27.6931V25.6051C22.7994 25.2851 22.9594 25.1251 23.2794 25.1251H25.3674C25.6874 25.1251 25.8474 25.2771 25.8474 25.5811V27.6931C25.8474 28.0131 25.6874 28.1731 25.3674 28.1731H23.2794C22.9594 28.1731 22.7994 28.0131 22.7994 27.6931ZM22.7994 41.4931V30.2611C22.7994 29.9251 22.9594 29.7571 23.2794 29.7571H25.3434C25.6794 29.7571 25.8474 29.9251 25.8474 30.2611V41.4931C25.8474 41.7011 25.8074 41.8371 25.7274 41.9011C25.6634 41.9651 25.5434 41.9971 25.3674 41.9971H23.3034C22.9674 41.9971 22.7994 41.8291 22.7994 41.4931ZM31.1531 41.9971H29.1131C28.7771 41.9971 28.6091 41.8291 28.6091 41.4931V30.2611C28.6091 29.9251 28.7771 29.7571 29.1131 29.7571H31.1531C31.4891 29.7571 31.6571 29.9251 31.6571 30.2611V31.0531H31.7531C32.1051 30.1891 32.8891 29.7571 34.1051 29.7571H34.8731C37.3851 29.7571 38.6411 31.0611 38.6411 33.6691V41.4931C38.6411 41.8291 38.4651 41.9971 38.1131 41.9971H36.0971C35.7611 41.9971 35.5931 41.8291 35.5931 41.4931V33.8131C35.5931 33.3011 35.4811 32.9411 35.2571 32.7331C35.0491 32.5091 34.6891 32.3971 34.1771 32.3971H33.3131C32.2091 32.3971 31.6571 33.0051 31.6571 34.2211V41.4931C31.6571 41.8291 31.4891 41.9971 31.1531 41.9971Z" fill="#FFD979"/>
</svg>
