<svg width="173" height="180" viewBox="0 0 173 180" fill="none" xmlns="http://www.w3.org/2000/svg">
<path d="M12.7751 151.116H8.71031C8.00058 151.116 7.64572 150.777 7.64572 150.1V125.856C7.64572 125.501 7.46829 125.324 7.11342 125.324H1.59689C0.919422 125.324 0.580688 124.985 0.580688 124.308V121.017C0.580688 120.34 0.919422 120.001 1.59689 120.001H19.8886C20.566 120.001 20.9048 120.34 20.9048 121.017V124.308C20.9048 124.985 20.566 125.324 19.8886 125.324H14.372C13.9849 125.324 13.7913 125.501 13.7913 125.856V150.1C13.7913 150.777 13.4526 151.116 12.7751 151.116ZM32.7778 151.116H31.6165C29.0679 151.116 27.1 150.439 25.7128 149.084C24.3256 147.729 23.632 145.777 23.632 143.229V134.325C23.632 131.776 24.3256 129.824 25.7128 128.469C27.1 127.114 29.0679 126.437 31.6165 126.437H42.7947C43.5044 126.437 43.8593 126.776 43.8593 127.453V150.1C43.8593 150.777 43.5044 151.116 42.7947 151.116H38.7299C38.0524 151.116 37.7137 150.777 37.7137 150.1V148.503H37.5201C37.1653 149.374 36.5362 150.035 35.6329 150.487C34.7296 150.907 33.7779 151.116 32.7778 151.116ZM37.7137 142.116V132.292C37.7137 131.937 37.5201 131.76 37.133 131.76H32.5843C31.552 131.76 30.8261 131.986 30.4067 132.437C29.9873 132.857 29.7776 133.583 29.7776 134.615V142.938C29.7776 143.971 29.9873 144.713 30.4067 145.164C30.8261 145.584 31.552 145.793 32.5843 145.793H34.3747C36.6007 145.793 37.7137 144.567 37.7137 142.116ZM54.2913 151.116H50.1781C49.5006 151.116 49.1619 150.777 49.1619 150.1V127.453C49.1619 126.776 49.5006 126.437 50.1781 126.437H54.2913C54.9687 126.437 55.3075 126.776 55.3075 127.453V129.05H55.501C55.8882 128.276 56.5334 127.647 57.4367 127.163C58.3722 126.679 59.4368 126.437 60.6304 126.437H61.9854C64.792 126.437 66.8083 127.469 68.0342 129.534C69.1311 127.469 71.0183 126.437 73.6959 126.437H75.0992C77.5833 126.437 79.4544 127.114 80.7126 128.469C82.003 129.824 82.6482 131.776 82.6482 134.325V150.1C82.6482 150.777 82.3094 151.116 81.632 151.116H77.5188C76.8413 151.116 76.5026 150.777 76.5026 150.1V134.615C76.5026 133.583 76.2929 132.857 75.8735 132.437C75.4541 131.986 74.7282 131.76 73.6959 131.76H72.4861C70.2602 131.76 69.1472 133.002 69.1472 135.486V150.1C69.1472 150.777 68.7923 151.116 68.0826 151.116H64.0178C63.3403 151.116 63.0016 150.777 63.0016 150.1V134.615C63.0016 133.583 62.7758 132.857 62.3241 132.437C61.9047 131.986 61.1789 131.76 60.1465 131.76H58.6464C56.4205 131.76 55.3075 132.986 55.3075 135.438V150.1C55.3075 150.777 54.9687 151.116 54.2913 151.116ZM94.4483 145.793H99.3842C100.416 145.793 101.142 145.584 101.562 145.164C102.013 144.713 102.239 143.971 102.239 142.938V134.518C102.239 133.486 102.013 132.76 101.562 132.341C101.142 131.889 100.416 131.663 99.3842 131.663H97.255C95.029 131.663 93.916 132.889 93.916 135.341V145.261C93.916 145.616 94.0934 145.793 94.4483 145.793ZM87.7704 150.1V118.114C87.7704 117.436 88.1091 117.098 88.7866 117.098H92.8998C93.5773 117.098 93.916 117.436 93.916 118.114V129.002H94.1096C94.4644 128.131 95.0935 127.469 95.9968 127.018C96.9001 126.566 97.8518 126.34 98.8519 126.34H100.4C102.949 126.34 104.917 127.018 106.304 128.373C107.691 129.728 108.385 131.679 108.385 134.228V143.229C108.385 145.777 107.691 147.729 106.304 149.084C104.917 150.439 102.949 151.116 100.4 151.116H88.7866C88.1091 151.116 87.7704 150.777 87.7704 150.1ZM125.049 151.116H120.742C118.194 151.116 116.226 150.439 114.839 149.084C113.451 147.729 112.758 145.777 112.758 143.229V134.325C112.758 131.776 113.451 129.824 114.839 128.469C116.226 127.114 118.194 126.437 120.742 126.437H125.049C127.565 126.437 129.517 127.131 130.904 128.518C132.324 129.873 133.033 131.808 133.033 134.325V143.229C133.033 145.745 132.324 147.697 130.904 149.084C129.517 150.439 127.565 151.116 125.049 151.116ZM121.662 145.842H124.13C125.162 145.842 125.888 145.632 126.307 145.213C126.759 144.793 126.985 144.067 126.985 143.035V134.518C126.985 133.486 126.759 132.76 126.307 132.341C125.888 131.921 125.162 131.712 124.13 131.712H121.662C120.629 131.712 119.903 131.921 119.484 132.341C119.065 132.76 118.855 133.486 118.855 134.518V143.035C118.855 144.067 119.065 144.793 119.484 145.213C119.903 145.632 120.629 145.842 121.662 145.842ZM143.234 151.116H139.12C138.443 151.116 138.104 150.777 138.104 150.1V118.114C138.104 117.436 138.443 117.098 139.12 117.098H143.234C143.911 117.098 144.25 117.436 144.25 118.114V150.1C144.25 150.777 143.911 151.116 143.234 151.116ZM158.48 151.116H157.319C154.77 151.116 152.802 150.439 151.415 149.084C150.028 147.729 149.334 145.777 149.334 143.229V134.325C149.334 131.776 150.028 129.824 151.415 128.469C152.802 127.114 154.77 126.437 157.319 126.437H168.497C169.207 126.437 169.562 126.776 169.562 127.453V150.1C169.562 150.777 169.207 151.116 168.497 151.116H164.432C163.755 151.116 163.416 150.777 163.416 150.1V148.503H163.222C162.868 149.374 162.238 150.035 161.335 150.487C160.432 150.907 159.48 151.116 158.48 151.116ZM163.416 142.116V132.292C163.416 131.937 163.222 131.76 162.835 131.76H158.287C157.254 131.76 156.528 131.986 156.109 132.437C155.69 132.857 155.48 133.583 155.48 134.615V142.938C155.48 143.971 155.69 144.713 156.109 145.164C156.528 145.584 157.254 145.793 158.287 145.793H160.077C162.303 145.793 163.416 144.567 163.416 142.116Z" fill="white"/>
<path d="M26.9979 174.44H24.2712C23.9856 174.44 23.8233 174.304 23.7843 174.031L21.7003 162.326C21.6614 162.054 21.7977 161.917 22.1093 161.917H24.1349C24.4335 161.917 24.5893 162.054 24.6023 162.326L25.7319 171.928H25.8683L27.738 162.268C27.7769 162.034 27.9133 161.917 28.147 161.917H30.3283C30.575 161.917 30.7179 162.028 30.7568 162.248L32.6655 171.928H32.8213L33.9314 162.346C33.9444 162.06 34.1002 161.917 34.3989 161.917H36.4244C36.736 161.917 36.8724 162.06 36.8334 162.346L34.73 174.031C34.691 174.304 34.5417 174.44 34.282 174.44H31.5359C31.2632 174.44 31.1074 174.304 31.0684 174.031L29.3156 164.897H29.2377L27.4653 174.031C27.4134 174.304 27.2576 174.44 26.9979 174.44ZM38.2871 162.833V161.138C38.2871 160.878 38.417 160.749 38.6766 160.749H40.3711C40.6308 160.749 40.7606 160.872 40.7606 161.119V162.833C40.7606 163.092 40.6308 163.222 40.3711 163.222H38.6766C38.417 163.222 38.2871 163.092 38.2871 162.833ZM38.2871 174.031V164.917C38.2871 164.644 38.417 164.508 38.6766 164.508H40.3516C40.6243 164.508 40.7606 164.644 40.7606 164.917V174.031C40.7606 174.2 40.7281 174.311 40.6632 174.363C40.6113 174.414 40.5139 174.44 40.3711 174.44H38.6961C38.4235 174.44 38.2871 174.304 38.2871 174.031ZM45.0662 174.44H43.4107C43.1381 174.44 43.0017 174.304 43.0017 174.031V164.917C43.0017 164.644 43.1381 164.508 43.4107 164.508H45.0662C45.3389 164.508 45.4752 164.644 45.4752 164.917V165.559H45.5531C45.8388 164.858 46.475 164.508 47.4618 164.508H48.0851C50.1236 164.508 51.1428 165.566 51.1428 167.682V174.031C51.1428 174.304 51 174.44 50.7143 174.44H49.0783C48.8057 174.44 48.6693 174.304 48.6693 174.031V167.799C48.6693 167.384 48.5785 167.091 48.3967 166.923C48.2279 166.741 47.9357 166.65 47.5202 166.65H46.8191C45.9232 166.65 45.4752 167.143 45.4752 168.13V174.031C45.4752 174.304 45.3389 174.44 45.0662 174.44ZM61.0594 174.44H60.4167C59.4169 174.44 58.6574 174.168 58.138 173.622C57.6316 173.077 57.3784 172.292 57.3784 171.266V164.917C57.3784 164.644 57.5148 164.508 57.7874 164.508H59.4429C59.7156 164.508 59.8519 164.644 59.8519 164.917V171.149C59.8519 171.564 59.9363 171.863 60.1051 172.045C60.2869 172.214 60.579 172.298 60.9815 172.298H61.7022C62.5981 172.298 63.046 171.805 63.046 170.818V164.917C63.046 164.644 63.1823 164.508 63.455 164.508H65.091C65.3767 164.508 65.5195 164.644 65.5195 164.917V174.031C65.5195 174.304 65.3767 174.44 65.091 174.44H63.455C63.1823 174.44 63.046 174.304 63.046 174.031V173.389H62.9681C62.8253 173.739 62.5721 174.005 62.2085 174.187C61.845 174.356 61.4619 174.44 61.0594 174.44ZM69.7349 177.089H68.0794C67.8067 177.089 67.6704 176.959 67.6704 176.7V164.917C67.6704 164.644 67.8067 164.508 68.0794 164.508H69.7349C70.0076 164.508 70.1439 164.644 70.1439 164.917V165.559H70.2218C70.3646 165.209 70.6178 164.949 70.9814 164.78C71.3449 164.598 71.728 164.508 72.1305 164.508H72.929C73.9288 164.508 74.6819 164.78 75.1882 165.326C75.7076 165.871 75.9673 166.656 75.9673 167.682V171.266C75.9673 172.292 75.7076 173.077 75.1882 173.622C74.6819 174.168 73.9288 174.44 72.929 174.44H72.1305C71.728 174.44 71.3449 174.356 70.9814 174.187C70.6178 174.005 70.3646 173.739 70.2218 173.389H70.1439V176.7C70.1439 176.959 70.0076 177.089 69.7349 177.089ZM71.4878 172.298H72.3447C72.7602 172.298 73.0524 172.214 73.2211 172.045C73.4029 171.863 73.4938 171.564 73.4938 171.149V167.799C73.4938 167.384 73.4029 167.091 73.2211 166.923C73.0524 166.741 72.7602 166.65 72.3447 166.65H71.4878C70.5919 166.65 70.1439 167.143 70.1439 168.13V170.818C70.1439 171.805 70.5919 172.298 71.4878 172.298ZM78.1363 166.65H77.3573C77.2015 166.65 77.0911 166.624 77.0262 166.572C76.9742 166.52 76.9483 166.416 76.9483 166.26V164.917C76.9483 164.644 77.0846 164.508 77.3573 164.508H78.1363C78.2791 164.508 78.3506 164.436 78.3506 164.293V162.443C78.3506 162.17 78.4934 162.034 78.779 162.034H80.415C80.6877 162.034 80.824 162.17 80.824 162.443V164.293C80.824 164.436 80.9019 164.508 81.0578 164.508H82.5769C82.8496 164.508 82.9859 164.644 82.9859 164.917V166.26C82.9859 166.403 82.9534 166.507 82.8885 166.572C82.8366 166.624 82.7327 166.65 82.5769 166.65H81.0578C80.9019 166.65 80.824 166.721 80.824 166.864V171.168C80.824 171.571 80.9149 171.863 81.0967 172.045C81.2785 172.214 81.5771 172.298 81.9926 172.298H82.7717C83.0443 172.298 83.1807 172.434 83.1807 172.707V174.051C83.1807 174.194 83.1482 174.298 83.0833 174.363C83.0313 174.414 82.9275 174.44 82.7717 174.44H81.5836C80.5579 174.44 79.7593 174.168 79.188 173.622C78.6297 173.077 78.3506 172.298 78.3506 171.285V166.864C78.3506 166.721 78.2791 166.65 78.1363 166.65ZM89.5404 174.44H87.807C86.7813 174.44 85.9893 174.168 85.4309 173.622C84.8726 173.077 84.5935 172.292 84.5935 171.266V167.682C84.5935 166.656 84.8726 165.871 85.4309 165.326C85.9893 164.78 86.7813 164.508 87.807 164.508H89.5404C90.5532 164.508 91.3387 164.787 91.8971 165.345C92.4684 165.89 92.754 166.669 92.754 167.682V171.266C92.754 172.279 92.4684 173.064 91.8971 173.622C91.3387 174.168 90.5532 174.44 89.5404 174.44ZM88.1771 172.318H89.1704C89.5859 172.318 89.878 172.233 90.0468 172.064C90.2286 171.896 90.3195 171.603 90.3195 171.188V167.76C90.3195 167.345 90.2286 167.052 90.0468 166.884C89.878 166.715 89.5859 166.63 89.1704 166.63H88.1771C87.7616 166.63 87.4695 166.715 87.3007 166.884C87.1319 167.052 87.0475 167.345 87.0475 167.76V171.188C87.0475 171.603 87.1319 171.896 87.3007 172.064C87.4695 172.233 87.7616 172.318 88.1771 172.318Z" fill="#FFD979"/>
<path d="M98.3537 165.403V163.806C98.3537 163.586 98.4511 163.417 98.6459 163.3L100.418 162.19C100.717 162.008 100.97 161.917 101.178 161.917H102.736C103.009 161.917 103.145 162.054 103.145 162.326V174.031C103.145 174.187 103.112 174.298 103.048 174.363C102.996 174.414 102.898 174.44 102.755 174.44H101.08C100.808 174.44 100.671 174.304 100.671 174.031V164.546L98.7627 165.637C98.4901 165.754 98.3537 165.676 98.3537 165.403ZM115.098 174.44H112.975C111.949 174.44 111.157 174.168 110.599 173.622C110.04 173.077 109.761 172.292 109.761 171.266V165.092C109.761 164.066 110.04 163.281 110.599 162.735C111.157 162.19 111.949 161.917 112.975 161.917H115.098C116.11 161.917 116.896 162.196 117.454 162.755C118.026 163.3 118.311 164.079 118.311 165.092V166.007C118.311 166.293 118.168 166.436 117.883 166.436H116.247C115.974 166.436 115.838 166.293 115.838 166.007V165.209C115.838 164.793 115.747 164.501 115.565 164.332C115.396 164.15 115.104 164.06 114.689 164.06H113.364C112.962 164.06 112.67 164.15 112.488 164.332C112.319 164.501 112.235 164.793 112.235 165.209V171.149C112.235 171.564 112.319 171.863 112.488 172.045C112.67 172.214 112.962 172.298 113.364 172.298H114.689C115.104 172.298 115.396 172.214 115.565 172.045C115.747 171.863 115.838 171.564 115.838 171.149V170.35C115.838 170.065 115.974 169.922 116.247 169.922H117.883C118.168 169.922 118.311 170.065 118.311 170.35V171.266C118.311 172.279 118.026 173.064 117.454 173.622C116.896 174.168 116.11 174.44 115.098 174.44ZM122.306 174.44H120.65C120.377 174.44 120.241 174.304 120.241 174.031V164.917C120.241 164.644 120.377 164.508 120.65 164.508H122.306C122.578 164.508 122.715 164.644 122.715 164.917V165.579H122.792C122.935 165.228 123.189 164.962 123.552 164.78C123.916 164.598 124.299 164.508 124.701 164.508H125.402C125.662 164.508 125.792 164.644 125.792 164.917V166.26C125.792 166.416 125.759 166.527 125.694 166.591C125.643 166.643 125.545 166.663 125.402 166.65H124.058C123.163 166.65 122.715 167.156 122.715 168.169V174.031C122.715 174.304 122.578 174.44 122.306 174.44ZM131.783 174.44H130.05C129.024 174.44 128.232 174.168 127.674 173.622C127.116 173.077 126.836 172.292 126.836 171.266V167.682C126.836 166.656 127.116 165.871 127.674 165.326C128.232 164.78 129.024 164.508 130.05 164.508H131.783C132.796 164.508 133.582 164.787 134.14 165.345C134.711 165.89 134.997 166.669 134.997 167.682V171.266C134.997 172.279 134.711 173.064 134.14 173.622C133.582 174.168 132.796 174.44 131.783 174.44ZM130.42 172.318H131.413C131.829 172.318 132.121 172.233 132.29 172.064C132.472 171.896 132.562 171.603 132.562 171.188V167.76C132.562 167.345 132.472 167.052 132.29 166.884C132.121 166.715 131.829 166.63 131.413 166.63H130.42C130.005 166.63 129.712 166.715 129.544 166.884C129.375 167.052 129.29 167.345 129.29 167.76V171.188C129.29 171.603 129.375 171.896 129.544 172.064C129.712 172.233 130.005 172.318 130.42 172.318ZM139.005 174.44H137.349C137.077 174.44 136.94 174.304 136.94 174.031V164.917C136.94 164.644 137.077 164.508 137.349 164.508H139.005C139.278 164.508 139.414 164.644 139.414 164.917V165.579H139.492C139.635 165.228 139.888 164.962 140.251 164.78C140.615 164.598 140.998 164.508 141.401 164.508H142.102C142.361 164.508 142.491 164.644 142.491 164.917V166.26C142.491 166.416 142.459 166.527 142.394 166.591C142.342 166.643 142.245 166.663 142.102 166.65H140.758C139.862 166.65 139.414 167.156 139.414 168.169V174.031C139.414 174.304 139.278 174.44 139.005 174.44ZM151.054 174.44H146.749C145.724 174.44 144.932 174.168 144.373 173.622C143.815 173.077 143.536 172.292 143.536 171.266V167.682C143.536 166.656 143.815 165.871 144.373 165.326C144.932 164.78 145.724 164.508 146.749 164.508H148.288C149.314 164.508 150.106 164.78 150.664 165.326C151.222 165.871 151.502 166.656 151.502 167.682V170.156C151.502 170.428 151.365 170.565 151.093 170.565H146.204C146.048 170.565 145.97 170.636 145.97 170.779V171.207C145.97 171.61 146.055 171.902 146.223 172.084C146.405 172.253 146.704 172.337 147.119 172.337H151.054C151.326 172.337 151.463 172.48 151.463 172.765V174.051C151.463 174.194 151.43 174.298 151.365 174.363C151.313 174.414 151.209 174.44 151.054 174.44ZM146.204 168.909H148.853C148.996 168.909 149.067 168.838 149.067 168.695V167.76C149.067 167.345 148.983 167.052 148.814 166.884C148.645 166.715 148.353 166.63 147.937 166.63H147.119C146.704 166.63 146.412 166.715 146.243 166.884C146.074 167.052 145.99 167.345 145.99 167.76V168.695C145.99 168.838 146.061 168.909 146.204 168.909ZM153.257 165.345V162.326C153.257 162.054 153.394 161.917 153.666 161.917H155.516C155.789 161.917 155.925 162.054 155.925 162.326V165.345C155.925 165.864 155.893 166.449 155.828 167.098C155.776 167.734 155.737 168.208 155.711 168.52C155.685 168.831 155.659 169.084 155.633 169.279C155.607 169.474 155.594 169.578 155.594 169.591C155.542 169.864 155.393 170 155.146 170H154.036C153.79 170 153.64 169.864 153.588 169.591C153.588 169.578 153.575 169.474 153.549 169.279C153.523 169.084 153.491 168.831 153.452 168.52C153.426 168.208 153.4 167.87 153.374 167.507C153.296 166.442 153.257 165.722 153.257 165.345ZM155.867 171.636V174.031C155.867 174.304 155.737 174.44 155.477 174.44H153.764C153.504 174.44 153.374 174.298 153.374 174.012V171.655C153.374 171.396 153.504 171.266 153.764 171.266H155.477C155.737 171.266 155.867 171.389 155.867 171.636Z" fill="white"/>
<g style="mix-blend-mode:multiply" opacity="0.8">
<path d="M44.6113 26.2525V9.18652L70.5002 16.5545V90.7282L51.9434 86.3804V28.7245L44.6113 26.2525Z" fill="#01656B"/>
</g>
<path d="M62.1006 14.7257V1L86.4355 9.47055V78.7014L68.9756 73.723V17.0796L62.1006 14.7257Z" fill="white" stroke="black" stroke-width="0.494646"/>
<g style="mix-blend-mode:multiply" opacity="0.8">
<path d="M70.2632 50.1147C70.9448 38.3794 76.9659 36.3625 84.8047 38.3794C94.5749 41.8022 98.7025 53.1504 98.4375 60.0163V93.2662C98.4375 95.9555 98.4375 108.18 84.8047 104.879C73.8986 102.239 70.5661 90.1694 70.2632 84.4647V50.1147Z" fill="#01656B"/>
</g>
<path d="M59.7046 21.283L69.0681 16.6338V73.5353L59.7046 77.7803V21.283Z" fill="#7ACECE" stroke="black" stroke-width="0.494646"/>
<path d="M52.7126 19.1018V5.73144L62.0762 1V14.5034L52.7126 19.1018Z" fill="#7ACECE" stroke="black" stroke-width="0.494646"/>
<path d="M59.4926 21.2125L52.5813 19.1261L62.1005 14.4316L69.1422 16.5181L59.4926 21.2125Z" fill="#196B6F" stroke="black" stroke-width="0.247323"/>
<path d="M75.873 81.7285L59.752 78.2171L68.6653 73.8955L85.4166 78.2171L75.873 81.7285Z" fill="black" stroke="black" stroke-width="0.494646"/>
<g style="mix-blend-mode:multiply">
<path d="M59.5007 63.1055C66.3544 60.4825 68.914 52.4935 69.0198 49.25V74.1566L59.5007 77.9261V63.1055Z" fill="#348489"/>
</g>
<path fill-rule="evenodd" clip-rule="evenodd" d="M96.9268 35.4541L96.9269 46.3008V88.4651L111.02 92.5683V40.2781L96.9268 35.4541ZM111.446 50.0757C111.944 48.5883 115.18 47.3722 118.54 47.7806C123.892 48.4311 127.432 54.8525 127.432 54.8525L124.639 61.8515C123.56 59.8682 121.154 55.5298 117.794 55.5298C114.433 55.5298 112.193 56.8294 111.446 63.399V50.0757Z" fill="#023C40"/>
<path fill-rule="evenodd" clip-rule="evenodd" d="M109.824 33.7305L109.824 43.0244V81.3633L119.287 83.6745V48.4166C120.407 46.6773 121.995 46.221 123.975 46.221C127.313 46.221 129.703 50.5475 130.774 52.5253L132.72 43.94C132.72 43.94 130.032 39.142 124.717 38.4933C122.656 38.2418 120.643 38.608 119.287 39.2741V36.8158L109.824 33.7305Z" fill="white"/>
<path d="M109.824 43.0244L109.577 43.0244V43.0244H109.824ZM109.824 33.7305L109.901 33.4953C109.825 33.4708 109.743 33.4838 109.679 33.5303C109.615 33.5768 109.577 33.6513 109.577 33.7305L109.824 33.7305ZM109.824 81.3633H109.577C109.577 81.4773 109.655 81.5765 109.765 81.6036L109.824 81.3633ZM119.287 83.6745L119.228 83.9148C119.302 83.9328 119.38 83.9159 119.44 83.869C119.5 83.8222 119.534 83.7504 119.534 83.6745H119.287ZM119.287 48.4166L119.079 48.2828C119.054 48.3227 119.04 48.3692 119.04 48.4166H119.287ZM130.774 52.5253L130.557 52.6431C130.606 52.7337 130.706 52.7844 130.808 52.7703C130.91 52.7563 130.993 52.6805 131.015 52.58L130.774 52.5253ZM132.72 43.94L132.961 43.9947C132.975 43.935 132.966 43.8725 132.936 43.8192L132.72 43.94ZM124.717 38.4933L124.747 38.2478L124.747 38.2478L124.717 38.4933ZM119.287 39.2741H119.04C119.04 39.3595 119.084 39.4389 119.156 39.484C119.229 39.5292 119.32 39.5337 119.396 39.4961L119.287 39.2741ZM119.287 36.8158H119.534C119.534 36.7088 119.466 36.6139 119.364 36.5807L119.287 36.8158ZM110.071 43.0244L110.071 33.7305L109.577 33.7305L109.577 43.0244L110.071 43.0244ZM110.071 81.3633V43.0244H109.577V81.3633H110.071ZM119.346 83.4343L109.883 81.1231L109.765 81.6036L119.228 83.9148L119.346 83.4343ZM119.04 48.4166V83.6745H119.534V48.4166H119.04ZM119.495 48.5505C120.029 47.7208 120.668 47.2057 121.405 46.8944C122.147 46.5809 123.002 46.4684 123.975 46.4684V45.9737C122.969 45.9737 122.039 46.0893 121.212 46.4388C120.38 46.7904 119.665 47.3731 119.079 48.2828L119.495 48.5505ZM123.975 46.4684C125.534 46.4684 126.903 47.4809 128.038 48.7932C129.167 50.0994 130.021 51.6535 130.557 52.6431L130.992 52.4075C130.456 51.4194 129.58 49.8213 128.412 48.4698C127.249 47.1245 125.754 45.9737 123.975 45.9737V46.4684ZM131.015 52.58L132.961 43.9947L132.479 43.8853L130.533 52.4707L131.015 52.58ZM132.72 43.94C132.936 43.8192 132.936 43.8191 132.936 43.8189C132.936 43.8189 132.935 43.8187 132.935 43.8186C132.935 43.8183 132.935 43.818 132.935 43.8176C132.934 43.8168 132.934 43.8157 132.933 43.8143C132.931 43.8116 132.929 43.8077 132.926 43.8027C132.921 43.7927 132.912 43.7782 132.901 43.7596C132.879 43.7224 132.846 43.6686 132.803 43.6003C132.717 43.4637 132.588 43.2693 132.417 43.0346C132.075 42.5654 131.564 41.9337 130.883 41.2813C129.523 39.9776 127.475 38.5807 124.747 38.2478L124.687 38.7388C127.275 39.0546 129.229 40.381 130.541 41.6385C131.196 42.2667 131.689 42.8751 132.017 43.3258C132.181 43.551 132.304 43.7365 132.385 43.8649C132.426 43.9291 132.456 43.9789 132.476 44.0123C132.486 44.029 132.493 44.0416 132.498 44.0498C132.5 44.0539 132.502 44.0569 132.503 44.0587C132.503 44.0597 132.504 44.0603 132.504 44.0607C132.504 44.0608 132.504 44.061 132.504 44.061C132.504 44.061 132.504 44.061 132.504 44.061C132.504 44.0609 132.504 44.0609 132.72 43.94ZM124.747 38.2478C122.644 37.9911 120.581 38.3626 119.178 39.0521L119.396 39.4961C120.704 38.8533 122.669 38.4925 124.687 38.7388L124.747 38.2478ZM119.04 36.8158V39.2741H119.534V36.8158H119.04ZM109.747 33.9656L119.21 37.051L119.364 36.5807L109.901 33.4953L109.747 33.9656Z" fill="black"/>
<path d="M103.331 37.2449L109.823 33.7305L110.006 81.4265L103.331 84.2927V37.2449Z" fill="#FFE9B1"/>
<path d="M109.823 33.7305L110.07 33.7295C110.07 33.6425 110.024 33.5621 109.949 33.5177C109.874 33.4734 109.781 33.4716 109.705 33.513L109.823 33.7305ZM103.331 37.2449L103.214 37.0274L103.084 37.0975V37.2449H103.331ZM103.331 84.2927H103.084V84.6681L103.429 84.52L103.331 84.2927ZM110.006 81.4265L110.104 81.6538L110.254 81.5892L110.254 81.4255L110.006 81.4265ZM109.705 33.513L103.214 37.0274L103.449 37.4624L109.94 33.948L109.705 33.513ZM103.084 37.2449V84.2927H103.579V37.2449H103.084ZM103.429 84.52L110.104 81.6538L109.909 81.1992L103.234 84.0655L103.429 84.52ZM110.254 81.4255L110.07 33.7295L109.575 33.7314L109.759 81.4274L110.254 81.4255Z" fill="black"/>
<path d="M111.392 86.2725L103.448 84.0411L109.467 81.123L118.825 83.6645L111.392 86.2725Z" fill="black" stroke="black" stroke-width="0.494646"/>
<path d="M126.914 55.6272C126.914 51.8455 121.422 48.1968 119.346 50.8023C119.346 49.6857 118.694 46.2383 123.65 46.2383C127.953 46.2383 130.099 50.1589 130.561 52.8887L126.914 55.6272Z" fill="#196B6F" stroke="black" stroke-width="0.247323"/>
<g style="mix-blend-mode:multiply">
<path d="M103.332 72.4291C107.905 70.0627 109.606 63.4347 109.704 60.4209V80.8884L103.332 84.5433V72.4291Z" fill="#EFAF4E"/>
</g>
<path d="M88.8682 39.5859L78.037 45.0288C74.424 46.8756 73.9789 52.886 74.208 55.6604V82.4362C74.6198 88.2566 77.4677 91.749 80.7478 93.8197C86.1695 97.2424 93.0573 95.8446 99.259 94.2168L101.011 93.7569L91.5877 81.4909V39.5859H88.8682Z" fill="#FFE9B1" stroke="black" stroke-width="0.494646"/>
<path d="M99.4926 72.7136L99.4928 84.5741C99.4928 86.3304 97.8687 87.6365 96.1533 87.2598C93.6308 86.7058 91.8336 84.4711 91.8336 81.8885L91.8336 75.6804L99.4926 72.7136Z" fill="#196B6F" stroke="black" stroke-width="0.247323"/>
<path fill-rule="evenodd" clip-rule="evenodd" d="M82.5144 49.4421C83.1061 40.0096 88.3325 38.3885 95.1367 40.0096C103.617 42.7607 107.2 51.8821 106.97 57.4007V60.3576L99.7149 63.7368L99.0811 63.5134L98.9041 53.0855C98.8657 50.8215 97.4119 48.8247 95.2692 48.0927C93.5262 47.4972 91.7146 48.7928 91.7146 50.6347V79.5267C91.7146 82.2039 93.4341 84.5784 95.9777 85.4137C97.6874 85.9751 99.4403 84.6829 99.4098 82.8837L99.2422 73.0074L99.7149 72.885L106.97 73.9511V84.1258C106.97 86.2874 106.97 96.1128 95.1367 93.4599C85.67 91.3377 82.7774 81.6367 82.5144 77.0515V49.4421Z" fill="white"/>
<path d="M95.1367 40.0096L95.213 39.7744L95.2036 39.7713L95.194 39.7691L95.1367 40.0096ZM82.5144 49.4421L82.2676 49.4266L82.2671 49.4343V49.4421H82.5144ZM106.97 57.4007L106.723 57.3904V57.4007H106.97ZM106.97 60.3576L107.075 60.5818L107.217 60.5152V60.3576H106.97ZM99.7149 63.7368L99.6326 63.9701L99.7278 64.0036L99.8193 63.961L99.7149 63.7368ZM99.0811 63.5134L98.8338 63.5176L98.8367 63.6896L98.9989 63.7467L99.0811 63.5134ZM98.9041 53.0855L98.6568 53.0897L98.6568 53.0897L98.9041 53.0855ZM95.2692 48.0927L95.3492 47.8586L95.3492 47.8586L95.2692 48.0927ZM95.9777 85.4137L95.9006 85.6486L95.9006 85.6486L95.9777 85.4137ZM99.4098 82.8837L99.1625 82.8879L99.1625 82.8879L99.4098 82.8837ZM99.2422 73.0074L99.1802 72.7679L98.9916 72.8168L98.9949 73.0116L99.2422 73.0074ZM99.7149 72.885L99.7508 72.6403L99.7013 72.633L99.6529 72.6456L99.7149 72.885ZM106.97 73.9511H107.217V73.7374L107.006 73.7064L106.97 73.9511ZM95.1367 93.4599L95.0826 93.7013L95.0826 93.7013L95.1367 93.4599ZM82.5144 77.0515H82.2671V77.0586L82.2675 77.0656L82.5144 77.0515ZM95.194 39.7691C91.7716 38.9536 88.6819 38.936 86.3656 40.3705C84.0374 41.8123 82.5658 44.6719 82.2676 49.4266L82.7612 49.4576C83.0547 44.7798 84.4921 42.1126 86.6261 40.791C88.772 39.4621 91.6976 39.4445 95.0794 40.2502L95.194 39.7691ZM107.217 57.411C107.334 54.6004 106.482 50.8941 104.534 47.543C102.583 44.1884 99.5233 41.1726 95.213 39.7744L95.0604 40.2449C99.2307 41.5978 102.203 44.5182 104.106 47.7917C106.012 51.0687 106.836 54.6823 106.723 57.3904L107.217 57.411ZM107.217 60.3576V57.4007H106.723V60.3576H107.217ZM106.866 60.1334L99.6104 63.5126L99.8193 63.961L107.075 60.5818L106.866 60.1334ZM99.7971 63.5036L99.1633 63.2802L98.9989 63.7467L99.6326 63.9701L99.7971 63.5036ZM99.3284 63.5093L99.1514 53.0813L98.6568 53.0897L98.8338 63.5176L99.3284 63.5093ZM99.1514 53.0813C99.1112 50.7131 97.5905 48.6243 95.3492 47.8586L95.1893 48.3267C97.2333 49.025 98.6202 50.9299 98.6568 53.0897L99.1514 53.0813ZM95.3492 47.8586C93.4457 47.2084 91.4673 48.6232 91.4673 50.6347H91.962C91.962 48.9623 93.6068 47.7861 95.1893 48.3267L95.3492 47.8586ZM91.4673 50.6347V79.5267H91.962V50.6347H91.4673ZM91.4673 79.5267C91.4673 82.3108 93.2554 84.78 95.9006 85.6486L96.0549 85.1787C93.6128 84.3768 91.962 82.0971 91.962 79.5267H91.4673ZM95.9006 85.6486C97.7719 86.2631 99.6905 84.8488 99.6571 82.8795L99.1625 82.8879C99.1901 84.517 97.6029 85.687 96.0549 85.1787L95.9006 85.6486ZM99.6571 82.8795L99.4895 73.0032L98.9949 73.0116L99.1625 82.8879L99.6571 82.8795ZM99.3042 73.2468L99.7768 73.1244L99.6529 72.6456L99.1802 72.7679L99.3042 73.2468ZM99.6789 73.1297L106.934 74.1958L107.006 73.7064L99.7508 72.6403L99.6789 73.1297ZM107.217 84.1258V73.9511H106.723V84.1258H107.217ZM95.0826 93.7013C98.0713 94.3713 100.339 94.2595 102.06 93.6581C103.784 93.0552 104.936 91.9677 105.701 90.7282C107.222 88.2664 107.217 85.2019 107.217 84.1258H106.723C106.723 85.2112 106.718 88.1402 105.28 90.4683C104.567 91.6238 103.5 92.6303 101.896 93.1912C100.288 93.7534 98.1188 93.875 95.1908 93.2186L95.0826 93.7013ZM82.2675 77.0656C82.4009 79.3919 83.1991 83.0031 85.1615 86.3056C87.127 89.6132 90.2679 92.6219 95.0826 93.7013L95.1908 93.2186C90.5388 92.1757 87.5 89.2727 85.5868 86.053C83.6705 82.8282 82.8909 79.2963 82.7613 77.0373L82.2675 77.0656ZM82.2671 49.4421V77.0515H82.7617V49.4421H82.2671Z" fill="black"/>
<g style="mix-blend-mode:multiply">
<path d="M83.2495 80.8146L83.2449 80.7621L91.5894 73.5886C91.5894 80.2756 92.6066 82.0108 92.6066 82.0108C97.4005 88.2673 99.7677 85.7937 99.3608 73.1006C99.275 73.3298 103.635 72.9201 105.434 73.3303V83.7138C104.891 91.7738 100.352 94.9869 91.2186 91.5014C83.9461 88.7263 83.5745 84.5054 83.2495 80.8146Z" fill="#FFD979"/>
</g>
<path d="M91.7114 61.7086L91.7118 50.682C91.7118 48.8152 93.5479 47.5022 95.3145 48.1057C97.4386 48.8313 98.8998 50.786 98.9945 53.0286L99.1824 57.4758C99.321 60.7553 96.1401 63.1629 93.0214 62.1388L91.7114 61.7086Z" fill="#196B6F" stroke="black" stroke-width="0.247323"/>
<g style="mix-blend-mode:multiply">
<path d="M76.4043 89.1349C82.433 90.2565 83.6481 85.1041 83.502 82.3877C87.5679 93.3234 96.1786 94.6554 99.9757 93.9544L93.579 95.444L89.0225 96.3203C81.5217 96.3203 77.485 91.53 76.4043 89.1349Z" fill="#EFA036"/>
</g>
<path d="M98.9989 64.3059L91.8359 62.0809L98.9989 58.4961L107.152 60.7211L98.9989 64.3059Z" fill="#196B6F" stroke="black" stroke-width="0.247323"/>
<g style="mix-blend-mode:darken">
<path d="M109.578 63.7681L117.76 56.5986V83.4461L109.578 81.3105V63.7681Z" fill="#FFD979"/>
</g>
</svg>
