<svg width="111" height="111" viewBox="0 0 111 111" fill="none" xmlns="http://www.w3.org/2000/svg">
    <path
        d="M11.4299 32.37V77.22C11.4299 78.99 12.3699 80.62 13.8999 81.5L52.7399 103.93C54.2699 104.81 56.1499 104.81 57.6799 103.93L96.5199 81.5C98.0499 80.62 98.9899 78.99 98.9899 77.22V32.37C98.9899 30.6 98.0499 28.97 96.5199 28.09L57.6899 5.66C56.1599 4.78 54.2799 4.78 52.7499 5.66L13.8999 28.09C12.3699 28.97 11.4299 30.6 11.4299 32.37Z"
        fill="#93B5FE" />
    <mask id="mask0_324_4608" style="mask-type:luminance" maskUnits="userSpaceOnUse" x="11" y="5"
        width="88" height="100">
        <path
            d="M11.4299 32.37V77.22C11.4299 78.99 12.3699 80.62 13.8999 81.5L52.7399 103.93C54.2699 104.81 56.1499 104.81 57.6799 103.93L96.5199 81.5C98.0499 80.62 98.9899 78.99 98.9899 77.22V32.37C98.9899 30.6 98.0499 28.97 96.5199 28.09L57.6899 5.66C56.1599 4.78 54.2799 4.78 52.7499 5.66L13.8999 28.09C12.3699 28.97 11.4299 30.6 11.4299 32.37Z"
            fill="white" />
    </mask>
    <g mask="url(#mask0_324_4608)">
        <path opacity="0.67" d="M108.01 36.77L-1.23999 73.94V57.05L108.01 19.88V36.77Z"
            fill="white" />
        <path opacity="0.33" d="M108.01 88.58L-1.23999 125.75V108.85L108.01 71.69V88.58Z"
            fill="#495DB2" />
        <path opacity="0.67" d="M112.51 43.53L3.27002 80.7V76.19L112.51 39.03V43.53Z"
            fill="white" />
    </g>
    <path
        d="M19.1299 36.69V72.89C19.1299 74.58 20.0299 76.15 21.4999 76.99L52.8499 95.09C54.3199 95.94 56.1199 95.94 57.5899 95.09L88.9399 76.99C90.4099 76.14 91.3099 74.58 91.3099 72.89V36.69C91.3099 35 90.4099 33.43 88.9399 32.59L57.5899 14.49C56.1199 13.64 54.3199 13.64 52.8499 14.49L21.4999 32.59C20.0299 33.44 19.1299 35 19.1299 36.69Z"
        fill="#1F2C65" />
    <mask id="mask1_324_4608" style="mask-type:luminance" maskUnits="userSpaceOnUse" x="19" y="13"
        width="73" height="83">
        <path
            d="M19.1299 36.69V72.89C19.1299 74.58 20.0299 76.15 21.4999 76.99L52.8499 95.09C54.3199 95.94 56.1199 95.94 57.5899 95.09L88.9399 76.99C90.4099 76.14 91.3099 74.58 91.3099 72.89V36.69C91.3099 35 90.4099 33.43 88.9399 32.59L57.5899 14.49C56.1199 13.64 54.3199 13.64 52.8499 14.49L21.4999 32.59C20.0299 33.44 19.1299 35 19.1299 36.69Z"
            fill="white" />
    </mask>
    <g mask="url(#mask1_324_4608)">
        <path
            d="M24.7598 40.42V77.09C24.7598 78.8 25.6698 80.39 27.1598 81.25L58.9198 99.59C60.3998 100.45 62.2298 100.45 63.7198 99.59L95.4798 81.25C96.9598 80.39 97.8798 78.81 97.8798 77.09V40.42C97.8798 38.71 96.9698 37.12 95.4798 36.26L63.7198 17.92C62.2398 17.06 60.4098 17.06 58.9198 17.92L27.1598 36.26C25.6798 37.12 24.7598 38.7 24.7598 40.42Z"
            fill="#495DB2" />
        <path opacity="0.61"
            d="M91.1197 49.16C91.1197 68.44 70.9797 88.58 51.6997 88.58C45.8197 88.58 40.7997 87.77 35.9297 85.2L42.3597 103.03C42.3597 103.03 67.4697 104.35 68.5897 104.35C69.7097 104.35 95.6197 86.33 95.6197 86.33L109.13 67.18L91.1097 49.16H91.1197Z"
            fill="#1F2C65" />
        <path d="M77.1598 80.4L57.9498 69.02L38.7498 80.4V14.96H77.1598V80.4Z" fill="#1F2C65" />
        <path d="M74.3097 76.13L55.1097 64.75L35.8997 76.13V10.69H74.3097V76.13Z" fill="#FFD979"
            stroke="#231F20" stroke-width="1.07" stroke-miterlimit="10" />
        <path d="M70.9697 70.44L55.1097 61.04L39.2397 70.44V12.11H70.9697V70.44Z" fill="#FFD979"
            stroke="#231F20" stroke-width="0.88" stroke-miterlimit="10" />
        <path
            d="M53.9354 55.3691H50.022C49.7722 55.3691 49.5918 55.2998 49.4808 55.161C49.3976 54.9945 49.4253 54.7724 49.5641 54.4949L58.3484 33.4292H48.5649C47.9821 33.4292 47.6907 33.1378 47.6907 32.555V29.4742C47.6907 28.8914 47.9821 28.6 48.5649 28.6H63.136C63.7189 28.6 64.0103 28.8914 64.0103 29.4742V32.9713C64.0103 33.5264 63.816 34.2758 63.4274 35.2194L55.3509 54.5781C55.1289 55.1055 54.657 55.3691 53.9354 55.3691Z"
            fill="#232326" />
    </g>
    <path
        d="M19.1299 36.69V72.89C19.1299 74.58 20.0299 76.15 21.4999 76.99L52.8499 95.09C54.3199 95.94 56.1199 95.94 57.5899 95.09L88.9399 76.99C90.4099 76.14 91.3099 74.58 91.3099 72.89V36.69C91.3099 35 90.4099 33.43 88.9399 32.59L57.5899 14.49C56.1199 13.64 54.3199 13.64 52.8499 14.49L21.4999 32.59C20.0299 33.44 19.1299 35 19.1299 36.69Z"
        stroke="#231F20" stroke-width="0.36" stroke-miterlimit="10" />
    <path
        d="M16.12 40.15H15.2C15.2 34.81 10.87 30.47 5.52002 30.47V29.55C10.86 29.55 15.2 25.22 15.2 19.87H16.12C16.12 25.21 20.45 29.55 25.8 29.55V30.47C20.46 30.47 16.12 34.8 16.12 40.15Z"
        fill="white" />
    <path
        d="M94.7 94.21H94.29C94.29 91.83 92.36 89.91 89.99 89.91V89.5C92.37 89.5 94.29 87.57 94.29 85.2H94.7C94.7 87.58 96.63 89.5 99 89.5V89.91C96.62 89.91 94.7 91.84 94.7 94.21Z"
        fill="white" />
    <path
        d="M55.82 73.14L57.92 77.41L62.62 78.09L59.22 81.41L60.02 86.09L55.82 83.88L51.61 86.09L52.41 81.41L49.01 78.09L53.71 77.41L55.82 73.14Z"
        fill="#FFDA72" />
</svg>
