<svg width="37" height="36" viewBox="0 0 37 36" fill="none" xmlns="http://www.w3.org/2000/svg">
<ellipse cx="18.7945" cy="18.043" rx="17.8804" ry="17.5" fill="#023C40"/>
<mask id="mask0_3325_12739" style="mask-type:alpha" maskUnits="userSpaceOnUse" x="0" y="0" width="37" height="36">
<ellipse cx="18.7945" cy="18.043" rx="17.8804" ry="17.5" fill="#627F8E"/>
</mask>
<g mask="url(#mask0_3325_12739)">
<path d="M29.1233 25.006C29.1233 26.9833 24.5488 28.5863 18.9059 28.5863C13.263 28.5863 8.68848 26.9833 8.68848 25.006C8.68848 23.0287 13.263 21.4258 18.9059 21.4258C24.5488 21.4258 29.1233 23.0287 29.1233 25.006Z" fill="#C9E4F0"/>
<path d="M28.8236 25.8702C29.0194 25.5935 29.1233 25.304 29.1233 25.006C29.1233 23.0287 24.5488 21.4258 18.9059 21.4258C13.263 21.4258 8.68848 23.0287 8.68848 25.006C8.68848 25.304 8.79236 25.5935 8.98812 25.8702C10.0914 24.3104 14.1133 23.1542 18.9059 23.1542C23.6984 23.1542 27.7203 24.3104 28.8236 25.8702Z" fill="#627F8E"/>
</g>
<path d="M9.94971 17.3519C9.94971 12.5108 13.9594 8.58643 18.9057 8.58643C23.8519 8.58643 27.8617 12.5108 27.8617 17.3519V25.6235H9.94971L9.94971 17.3519Z" fill="#C9E4F0"/>
<path fill-rule="evenodd" clip-rule="evenodd" d="M15.735 10.8465C15.8529 11.0419 15.7867 11.2939 15.5871 11.4094C15.2449 11.6072 14.9288 11.8314 14.6377 12.0757C14.4616 12.2235 14.1966 12.2036 14.0456 12.0313C13.8946 11.859 13.915 11.5996 14.091 11.4518C14.4176 11.1777 14.7735 10.9252 15.1599 10.7017C15.3595 10.5863 15.617 10.6511 15.735 10.8465ZM13.3998 12.8637C13.5638 13.0242 13.5638 13.2844 13.3998 13.4449C12.8964 13.9376 12.5138 14.6582 12.2576 15.448C12.0024 16.2343 11.8832 17.0565 11.8832 17.7222C11.8833 17.9491 11.6953 18.1332 11.4634 18.1332C11.2315 18.1332 11.0435 17.9492 11.0435 17.7223C11.0434 16.971 11.1763 16.0649 11.4572 15.1992C11.7369 14.3371 12.1742 13.4821 12.806 12.8637C12.97 12.7032 13.2359 12.7032 13.3998 12.8637Z" fill="white"/>
<path d="M18.2749 16.9815C18.2749 16.5724 18.6138 16.2407 19.0317 16.2407C19.4497 16.2407 19.7886 16.5724 19.7886 16.9815V18.9568C19.7886 19.3659 19.4497 19.6975 19.0317 19.6975C18.6138 19.6975 18.2749 19.3659 18.2749 18.9568V16.9815Z" fill="#1F2C65"/>
<path d="M23.3208 16.9815C23.3208 16.5724 23.6597 16.2407 24.0776 16.2407C24.4956 16.2407 24.8345 16.5724 24.8345 16.9815V18.9568C24.8345 19.3659 24.4956 19.6975 24.0776 19.6975C23.6597 19.6975 23.3208 19.3659 23.3208 18.9568V16.9815Z" fill="#1F2C65"/>
</svg>
