<svg width="17" height="17" viewBox="0 0 17 17" fill="none" xmlns="http://www.w3.org/2000/svg">
<path d="M6.85076 0.582703C5.70343 0.758991 4.6128 1.19966 3.66504 1.86988C2.71729 2.54011 1.93836 3.42155 1.3898 4.44455C0.84124 5.46755 0.538075 6.6041 0.504254 7.7644C0.470434 8.92471 0.706885 10.077 1.19493 11.1302C1.36126 11.504 1.37914 11.9271 1.24493 12.3135L0.544928 14.3969C0.494427 14.5444 0.486318 14.7031 0.521523 14.855C0.556727 15.0069 0.633834 15.1458 0.744078 15.2561C0.854322 15.3663 0.993282 15.4434 1.14516 15.4786C1.29705 15.5138 1.45576 15.5057 1.60326 15.4552L3.68659 14.7552C4.07308 14.621 4.49615 14.6389 4.86993 14.8052C5.85029 15.2617 6.9185 15.4986 7.99993 15.4994C8.41246 15.4997 8.82435 15.4669 9.23159 15.401C9.26611 15.3943 9.29882 15.3804 9.32758 15.3602C9.35635 15.34 9.38053 15.3139 9.39854 15.2837C9.41655 15.2535 9.42798 15.2198 9.4321 15.1849C9.43622 15.15 9.43292 15.1146 9.42243 15.081C9.27819 14.5767 9.22182 14.0512 9.25576 13.5277C9.34079 12.4244 9.81762 11.3879 10.6001 10.6054C11.3826 9.8229 12.4191 9.34607 13.5224 9.26104C14.0459 9.22709 14.5714 9.28347 15.0758 9.4277C15.1093 9.4382 15.1447 9.44149 15.1796 9.43738C15.2146 9.43326 15.2482 9.42182 15.2784 9.40381C15.3086 9.3858 15.3347 9.36163 15.3549 9.33286C15.3751 9.30409 15.389 9.27138 15.3958 9.23687C15.4638 8.82786 15.4987 8.41401 15.4999 7.99937C15.5007 6.91685 15.2671 5.84699 14.8152 4.86329C14.3633 3.8796 13.7038 3.00539 12.882 2.30072C12.0603 1.59606 11.0957 1.07763 10.0546 0.78107C9.01348 0.484508 7.9205 0.416836 6.85076 0.582703ZM8.83326 10.291H4.66659C4.50083 10.291 4.34186 10.2252 4.22465 10.108C4.10744 9.99077 4.04159 9.8318 4.04159 9.66604C4.04159 9.50028 4.10744 9.34131 4.22465 9.2241C4.34186 9.10688 4.50083 9.04104 4.66659 9.04104H8.83326C8.99902 9.04104 9.15799 9.10688 9.2752 9.2241C9.39241 9.34131 9.45826 9.50028 9.45826 9.66604C9.45826 9.8318 9.39241 9.99077 9.2752 10.108C9.15799 10.2252 8.99902 10.291 8.83326 10.291ZM11.3333 6.9577H4.66659C4.50083 6.9577 4.34186 6.89186 4.22465 6.77464C4.10744 6.65743 4.04159 6.49846 4.04159 6.3327C4.04159 6.16694 4.10744 6.00797 4.22465 5.89076C4.34186 5.77355 4.50083 5.7077 4.66659 5.7077H11.3333C11.499 5.7077 11.658 5.77355 11.7752 5.89076C11.8924 6.00797 11.9583 6.16694 11.9583 6.3327C11.9583 6.49846 11.8924 6.65743 11.7752 6.77464C11.658 6.89186 11.499 6.9577 11.3333 6.9577ZM16.1249 13.416C16.1249 13.5818 16.0591 13.7408 15.9419 13.858C15.8247 13.9752 15.6657 14.041 15.4999 14.041H14.0416V15.4994C14.0416 15.6651 13.9757 15.8241 13.8585 15.9413C13.7413 16.0585 13.5824 16.1244 13.4166 16.1244C13.2508 16.1244 13.0919 16.0585 12.9747 15.9413C12.8574 15.8241 12.7916 15.6651 12.7916 15.4994V14.041H11.3333C11.1675 14.041 11.0085 13.9752 10.8913 13.858C10.7741 13.7408 10.7083 13.5818 10.7083 13.416C10.7083 13.2503 10.7741 13.0913 10.8913 12.9741C11.0085 12.8569 11.1675 12.791 11.3333 12.791H12.7916V11.3327C12.7916 11.1669 12.8574 11.008 12.9747 10.8908C13.0919 10.7736 13.2508 10.7077 13.4166 10.7077C13.5824 10.7077 13.7413 10.7736 13.8585 10.8908C13.9757 11.008 14.0416 11.1669 14.0416 11.3327V12.791H15.4999C15.6657 12.791 15.8247 12.8569 15.9419 12.9741C16.0591 13.0913 16.1249 13.2503 16.1249 13.416Z" fill="white"/>
</svg>
