<svg width="26" height="24" viewBox="0 0 26 24" fill="none" xmlns="http://www.w3.org/2000/svg">
<path d="M21.2248 22.2204L21.2258 22.2204C21.7756 22.2198 22.3157 22.0746 22.7916 21.7993C23.2676 21.524 23.6628 21.1284 23.9375 20.652C24.2121 20.1757 24.3567 19.6355 24.3565 19.0856C24.3564 18.5366 24.212 17.9973 23.9379 17.5216C23.9375 17.5209 23.9371 17.5202 23.9367 17.5195L15.4048 2.58875C15.4045 2.58825 15.4043 2.58775 15.404 2.58725C15.1307 2.10561 14.7346 1.70498 14.2561 1.42616C13.7771 1.14705 13.2327 1 12.6783 1C12.1239 1 11.5795 1.14706 11.1005 1.42616C10.6221 1.70493 10.226 2.10548 9.95274 2.58701C9.95241 2.58759 9.95208 2.58817 9.95175 2.58875L1.41994 17.5194C1.41953 17.5201 1.41912 17.5209 1.4187 17.5216C1.14322 17.9995 0.998786 18.5418 1.00001 19.0935C1.00123 19.646 1.14851 20.1884 1.42691 20.6656C1.70531 21.1429 2.10495 21.5381 2.5853 21.8111C3.06424 22.0833 3.60645 22.2245 4.15728 22.2204L21.2248 22.2204Z" stroke="white" stroke-width="2" stroke-linecap="round" stroke-linejoin="round"/>
<path d="M12.6895 8.4165V12.6844" stroke="white" stroke-width="2.13395" stroke-linecap="round" stroke-linejoin="round"/>
<path d="M12.6895 16.9524H12.6997" stroke="white" stroke-width="2.13395" stroke-linecap="round" stroke-linejoin="round"/>
</svg>
