<svg width="34" height="34" viewBox="0 0 34 34" fill="none" xmlns="http://www.w3.org/2000/svg">
<path d="M25.3732 27.5212H25.3742C25.9241 27.5206 26.4641 27.3754 26.9401 27.1001C27.4161 26.8248 27.8112 26.4291 28.0859 25.9528C28.3606 25.4765 28.5051 24.9363 28.505 24.3864C28.5048 23.8373 28.3604 23.2979 28.0862 22.8221C28.0858 22.8215 28.0855 22.8209 28.0851 22.8203L19.5533 7.88953C19.5529 7.88896 19.5526 7.88838 19.5523 7.8878C19.279 7.40626 18.883 7.00572 18.4046 6.72694C17.9256 6.44784 17.3811 6.30078 16.8267 6.30078C16.2724 6.30078 15.7279 6.44784 15.2489 6.72694C14.7705 7.00573 14.3745 7.40629 14.1011 7.88784C14.1008 7.88841 14.1005 7.88897 14.1002 7.88953L5.56838 22.8202C5.56798 22.8209 5.56758 22.8216 5.56717 22.8223C5.29167 23.3003 5.14722 23.8425 5.14845 24.3943C5.14967 24.9468 5.29694 25.4892 5.57535 25.9664C5.85375 26.4437 6.25338 26.8389 6.73373 27.1119C7.21267 27.3841 7.75489 27.5253 8.30572 27.5212H25.3732Z" stroke="white" stroke-width="2" stroke-linecap="round" stroke-linejoin="round"/>
<path d="M16.8379 13.7166V17.9845" stroke="white" stroke-width="2.13395" stroke-linecap="round" stroke-linejoin="round"/>
<path d="M16.8379 22.2529H16.8481" stroke="white" stroke-width="2.13395" stroke-linecap="round" stroke-linejoin="round"/>
</svg>
