<svg width="11" height="7" viewBox="0 0 11 7" fill="none" xmlns="http://www.w3.org/2000/svg">
<path d="M4.14821 3.8863C4.11155 3.92983 4.07995 3.97686 4.03855 4.01513C3.03104 4.94643 2.02194 5.87599 1.01475 6.80758C0.849147 6.96066 0.662056 7.03749 0.426928 6.98199C0.0252502 6.88675 -0.133714 6.44213 0.128277 6.14591C0.155772 6.11495 0.186427 6.08632 0.217082 6.05798C1.38451 4.98061 2.55288 3.90383 3.71872 2.82499C3.89475 2.66199 4.09449 2.57698 4.33752 2.65352C4.4377 2.68507 4.53409 2.74846 4.61088 2.8174C4.99518 3.16357 5.37315 3.51617 5.75176 3.8676C5.79032 3.90353 5.82097 3.94677 5.84689 3.97657C6.91508 2.99063 7.96557 2.02135 9.01701 1.0509C8.98888 1.0509 8.95096 1.0509 8.91304 1.0509C8.5338 1.0509 8.15456 1.05353 7.77532 1.05002C7.45233 1.0471 7.2033 0.811644 7.20614 0.519808C7.20899 0.233814 7.45834 0.00274031 7.77627 0.00186393C8.66116 -0.000473101 9.54605 -0.00076523 10.4309 0.00186393C10.7492 0.00274031 10.9963 0.228848 10.9976 0.522145C11.0007 1.34215 11.0011 2.16245 10.997 2.98245C10.9957 3.27487 10.7384 3.50156 10.4271 3.5004C10.1165 3.49952 9.86493 3.2702 9.86177 2.97807C9.85829 2.6281 9.86082 2.27813 9.86082 1.92845C9.86082 1.8931 9.86082 1.85776 9.86082 1.80167C9.81468 1.84111 9.78307 1.86594 9.75368 1.8931C8.61123 2.9471 7.46877 4.0014 6.32599 5.0554C6.08992 5.27333 5.81086 5.31335 5.56751 5.16348C5.51221 5.1296 5.46386 5.08519 5.41645 5.04167C5.01067 4.66862 4.60583 4.29469 4.20067 3.92135C4.1953 3.91639 4.18803 3.91288 4.1479 3.88688L4.14821 3.8863Z" fill="#023C40"/>
</svg>
