<svg width="177" height="197" viewBox="0 0 177 197" fill="none" xmlns="http://www.w3.org/2000/svg">
<rect width="44.4435" height="93.4642" transform="matrix(-0.86602 0.500009 2.203e-08 1 127.704 48.7153)" fill="#01656B"/>
<rect width="41.902" height="82.2887" transform="matrix(0.86602 0.500009 -2.203e-08 1 52.9993 50.5447)" fill="#62E3C4"/>
<rect width="41.4807" height="44.8555" transform="matrix(0.86602 0.500009 -0.86602 0.500009 91.8462 28.1152)" fill="#151D22"/>
<path d="M96.4057 37.858C96.4057 34.9582 94.6191 31.9274 92.0544 30.4515C90.7845 29.7204 89.7017 29.608 88.9397 30.0452L83.8848 32.9451C84.6467 32.5079 85.7308 32.6215 87.0007 33.3526C89.5654 34.8285 91.352 37.8605 91.352 40.7591C91.352 42.2349 90.9059 43.2304 90.1378 43.6713L95.1902 40.7714C95.9584 40.3305 96.4057 39.3351 96.4057 37.858Z" fill="#45BA9B" stroke="#231F20" stroke-width="0.468942" stroke-miterlimit="10"/>
<path d="M83.4889 16.3587L87.2652 14.1912C87.0187 13.9948 86.756 13.8059 86.4611 13.6367C84.4924 12.5066 83.4889 13.3526 83.4889 16.3587Z" fill="#45BA9B" stroke="#231F20" stroke-width="0.468942" stroke-miterlimit="10"/>
<path d="M100.509 10.6194C99.6549 9.14596 98.5523 7.75162 97.2303 6.47336C95.8464 5.12965 94.2147 3.90821 92.3823 2.85596C88.9838 0.90215 86.2829 0.511881 84.4145 1.58636C84.4145 1.58018 79.3608 4.48126 79.3608 4.48126C81.2329 3.41296 83.9326 3.80323 87.3286 5.75705C89.161 6.81052 90.7939 8.03073 92.1766 9.37444C93.4973 10.6527 94.6012 12.047 95.4549 13.5204C96.814 15.8608 97.5425 18.4025 97.5425 21.0232C97.5425 28.8261 90.6254 26.1066 90.6242 32.0076L95.6779 29.1065C95.6779 23.2055 102.595 25.9238 102.596 18.1221C102.596 15.5002 101.868 12.9597 100.509 10.6194Z" fill="#45BA9B" stroke="#231F20" stroke-width="0.468942" stroke-miterlimit="10"/>
<circle opacity="0.6" cx="5.5277" cy="5.5277" r="5.5277" transform="matrix(0.866027 0.499998 -0.866027 0.499998 89.9415 44.6062)" fill="#1A1A1A"/>
<path d="M87.0199 33.3505C84.5011 31.9006 82.7145 32.8762 82.7145 35.7761C82.7145 38.7278 84.5011 41.8117 87.0199 43.2616C89.5845 44.7374 91.3711 43.7099 91.3711 40.7569C91.3711 37.8571 89.5845 34.8263 87.0199 33.3505Z" fill="#FFE9B1" stroke="#231F20" stroke-width="0.468942" stroke-miterlimit="10"/>
<path d="M86.4638 13.6337C88.1153 14.5847 89.0309 15.9556 89.0309 17.8563C89.0309 18.1045 89.0123 18.3318 88.9813 18.5442C88.6889 20.6178 87.0374 20.9525 85.6597 22.2307C85.4292 22.437 85.2112 22.6766 85.0117 22.9631C84.2634 23.9536 83.7158 25.4529 83.7158 28.0243L90.6329 32.0047C90.6329 26.1038 97.5499 28.8221 97.5499 21.0204C97.5499 18.3984 96.8214 15.858 95.4623 13.5176C94.6087 12.0442 93.506 10.6499 92.184 9.37162C90.8001 8.02791 89.1684 6.80647 87.336 5.75423C82.3318 2.87661 78.8355 3.38174 77.2905 6.97567C76.7107 8.31567 76.3997 10.0805 76.3873 12.2653L79.9146 14.2944L83.4915 16.3557C83.4915 13.3496 84.4951 12.5037 86.4638 13.6337Z" fill="#FFE9B1" stroke="#231F20" stroke-width="0.468942" stroke-miterlimit="10"/>
<ellipse cx="104.393" cy="9.51709" rx="0.981382" ry="0.978943" fill="#FFEFC7"/>
<ellipse cx="76.107" cy="2.60443" rx="0.981382" ry="0.978943" fill="#FFD979"/>
<ellipse cx="110.051" cy="17.0639" rx="0.981382" ry="0.978943" fill="#FFD979"/>
<ellipse cx="76.7393" cy="23.9803" rx="0.981382" ry="0.978943" fill="#FFD979"/>
<ellipse cx="71.7807" cy="14.6257" rx="0.428512" ry="0.427447" fill="#FFEFC7"/>
<ellipse cx="105.096" cy="25.3155" rx="0.428512" ry="0.427447" fill="#FFEFC7"/>
<ellipse cx="102.589" cy="2.05294" rx="0.428512" ry="0.427447" fill="#FFEFC7"/>
<ellipse cx="67.3787" cy="10.2284" rx="0.428512" ry="0.427447" fill="#FFEFC7"/>
<rect width="44.4435" height="93.4642" transform="matrix(-0.86602 0.500009 2.203e-08 1 175.994 80.913)" fill="#01656B"/>
<rect width="41.902" height="82.2887" transform="matrix(0.86602 0.500009 -2.203e-08 1 101.29 82.7413)" fill="#62E3C4"/>
<rect width="41.4807" height="44.8555" transform="matrix(0.86602 0.500009 -0.86602 0.500009 140.136 60.311)" fill="#151D22"/>
<path opacity="0.6" d="M124.309 89.8051C122.465 88.8061 122.427 87.1075 124.224 86.0242L143.821 74.2122C145.573 73.1559 148.426 73.0764 150.253 74.033L158.69 78.4524C160.622 79.4642 160.644 81.2286 158.738 82.3162L138.441 93.8999C136.654 94.9196 133.83 94.9621 132.047 93.9962L124.309 89.8051Z" fill="#1A1A1A"/>
<path d="M156.483 57.8063L130.361 73.9431L120.795 71.5518L121.827 69.1457C121.933 68.8966 122.118 68.6888 122.353 68.5533L148.121 53.6812C148.51 53.4567 148.989 53.4572 149.378 53.6827L156.483 57.8063Z" fill="#FFD979" stroke="black" stroke-width="0.431283" stroke-linejoin="round"/>
<mask id="mask0_26_364" style="mask-type:alpha" maskUnits="userSpaceOnUse" x="119" y="54" width="37" height="20">
<path d="M155.878 58.2705L129.38 73.9457L119.814 71.5544L122.232 69.0618C122.313 68.9783 122.406 68.9064 122.507 68.8482L147.081 54.6932C147.438 54.4876 147.873 54.4703 148.245 54.647L155.878 58.2705Z" fill="#FFD979"/>
</mask>
<g mask="url(#mask0_26_364)">
<path opacity="0.9" d="M118.835 63.2196H147.12V67.4622H118.835V63.2196Z" fill="white"/>
<rect opacity="0.9" x="125.903" y="60.3937" width="28.2856" height="1.4142" fill="white"/>
</g>
<path d="M121.727 69.3534L119.047 75.3191C118.746 75.9884 119.3 77.2282 120.089 77.6524L130.772 83.3961C132.3 84.2178 133.298 82.9778 132.694 81.007L130.584 74.1214C130.406 73.5406 129.991 72.9994 129.541 72.761L122.687 69.1318C122.263 68.9075 121.889 68.994 121.727 69.3534Z" fill="#C28C02" stroke="black" stroke-width="0.43128" stroke-linejoin="round"/>
<path d="M131.668 82.8401L130.32 73.942C130.243 73.4329 130.485 72.9285 130.93 72.6696L156.52 57.7831L159.256 65.0966C159.791 66.5246 159.234 68.1307 157.931 68.9222L133.56 83.7245C132.794 84.1895 131.802 83.7256 131.668 82.8401Z" fill="#F7CC60" stroke="black" stroke-width="0.431283" stroke-linejoin="round"/>
<rect width="44.4435" height="93.4642" transform="matrix(-0.86602 0.500009 2.203e-08 1 74.7046 80.9108)" fill="#01656B"/>
<rect width="41.902" height="82.2887" transform="matrix(0.86602 0.500009 -2.203e-08 1 0 82.7357)" fill="#62E3C4"/>
<rect width="41.4807" height="44.8555" transform="matrix(0.86602 0.500009 -0.86602 0.500009 38.8469 60.309)" fill="#151D22"/>
<circle opacity="0.6" cx="4.53352" cy="4.53352" r="4.53352" transform="matrix(0.866027 0.499998 -0.866027 0.499998 40.5854 77.1178)" fill="#1A1A1A"/>
<path d="M35.4433 44.4223L37.4499 51.3261L42.4946 50.0664L35.9951 44.0804C35.7442 43.8493 35.3481 44.0947 35.4433 44.4223Z" fill="#3EA59E"/>
<path d="M32.3888 52.924L34.8065 44.3865C34.8989 44.0602 35.3611 44.0594 35.4546 44.3854L37.4575 51.3657L32.3888 52.924Z" fill="#09454A"/>
<path d="M55.7164 64.2341L48.713 62.4093L47.2674 67.527L55.7319 64.8818C56.0552 64.7807 56.0441 64.3195 55.7164 64.2341Z" fill="#CEF8F5"/>
<path d="M49.8443 57.3434L56.0077 63.6838C56.2457 63.9287 56.0104 64.3315 55.6802 64.2445L48.7031 62.4064L49.8443 57.3434Z" fill="#81D9CA"/>
<path d="M29.2367 71.4987L33.7744 66.547L38.1437 69.7223L29.5735 72.0516C29.2476 72.1401 29.0085 71.7477 29.2367 71.4987Z" fill="#81D9CA"/>
<path d="M30.4956 62.5301L28.7153 71.181C28.6464 71.5162 29.0632 71.7289 29.2941 71.4763L34.1138 66.2043L30.4956 62.5301Z" fill="#09454A"/>
<path d="M51.0835 47.8595L37.439 51.3343L39.7473 60.2935L51.3818 48.3765C51.6006 48.1524 51.3869 47.7822 51.0835 47.8595Z" fill="#094549"/>
<path d="M39.7113 60.2139L51.3052 48.4371C51.5437 48.1948 51.9503 48.4182 51.8736 48.7495L48.7069 62.4341L39.7113 60.2139Z" fill="#3EA49E"/>
<path d="M24.0718 55.4234L37.4536 51.3354L39.7244 60.2074L24.0841 56.0714C23.7561 55.9847 23.7474 55.5225 24.0718 55.4234Z" fill="#CEF8F5"/>
<path d="M39.7571 60.2177L24.1379 56.0805C23.8063 55.9927 23.5708 56.3987 23.8117 56.6429L33.6934 66.661L39.7571 60.2177Z" fill="#3DA49D"/>
<path d="M43.7532 76.2943L33.6845 66.6568L39.7253 60.2043L44.3097 75.9567C44.406 76.2876 44.0022 76.5326 43.7532 76.2943Z" fill="#09454A"/>
<path d="M39.7245 60.2046L44.3227 76.0196C44.4176 76.3459 44.881 76.3425 44.9712 76.0149L48.7177 62.4068L39.7245 60.2046Z" fill="#81D9CA"/>
<path d="M42.1486 49.7937L35.9475 44.0695C35.5796 43.7298 34.9829 43.8958 34.8432 44.3767L32.4801 52.5118C32.4168 52.7299 32.2478 52.9014 32.0306 52.9681L23.9873 55.4359C23.5056 55.5836 23.3505 56.1884 23.7016 56.5498L30.0223 63.0554C30.176 63.2137 30.2426 63.4371 30.2005 63.6537L28.7217 71.2584C28.6263 71.7489 29.0793 72.169 29.5613 72.037L36.7675 70.0635C36.9965 70.0008 37.2416 70.0632 37.4127 70.2278L43.826 76.3968C44.196 76.7527 44.8121 76.5808 44.9444 76.0847L47.1297 67.8896C47.1895 67.6656 47.3602 67.488 47.5816 67.4195L55.7816 64.8812C56.2635 64.7321 56.4167 64.1258 56.0635 63.7656L50.1074 57.6905C49.9457 57.5255 49.8798 57.2893 49.9326 57.0644L51.9014 48.6922C52.0169 48.2013 51.572 47.7622 51.0827 47.8839L42.7685 49.9525C42.5483 50.0073 42.3153 49.9476 42.1486 49.7937Z" stroke="black" stroke-width="0.336967"/>
<path d="M23.579 55.8193L39.3437 60.1032C39.578 60.1669 39.8284 60.0996 39.9993 59.9271L51.7135 48.0985" stroke="black" stroke-width="0.336967"/>
<path d="M35.282 43.9629L44.4583 76.4965" stroke="black" stroke-width="0.336967"/>
<path d="M29.0223 71.8944L39.6058 60.3488C39.7751 60.1641 40.033 60.0886 40.2752 60.1527L56.3343 64.4084" stroke="black" stroke-width="0.336967"/>
<path d="M30.09 63.2016L37.6529 70.439" stroke="black" stroke-width="0.336967"/>
<path d="M49.9872 56.8716L47.031 68.2757" stroke="black" stroke-width="0.336967"/>
<path d="M32.0949 52.9502L42.675 49.9769" stroke="black" stroke-width="0.336967"/>
</svg>
