<svg width="61" height="10" viewBox="0 0 61 10" fill="none" xmlns="http://www.w3.org/2000/svg">
<path fill-rule="evenodd" clip-rule="evenodd" d="M40.2972 0.866598C38.4959 1.1473 37.0578 2.44211 36.606 4.18998C36.426 4.88645 36.4229 5.69537 36.5975 6.39381C37.045 8.18321 38.5112 9.49949 40.3479 9.76057C40.6114 9.79798 41.2359 9.8034 41.5025 9.77052C42.2737 9.67541 43.0242 9.37281 43.6582 8.90128C43.9052 8.71753 44.3591 8.26399 44.5419 8.01806C45.748 6.39617 45.7497 4.21955 44.5458 2.60752C44.3908 2.39984 44.0139 2.00799 43.8025 1.83462C43.3067 1.42808 42.7095 1.12559 42.0822 0.963261C41.8239 0.896408 41.4352 0.833008 41.2835 0.833008H41.1909L41.2059 0.936817C41.2453 1.21168 41.3559 1.49157 41.4657 1.59477C41.4957 1.62285 41.5923 1.65631 41.7295 1.68603C42.2238 1.79314 42.7662 2.04001 43.1646 2.33919C43.4368 2.54365 43.7999 2.91449 43.9868 3.17891C44.2807 3.59491 44.5177 4.16632 44.6084 4.67762C44.6615 4.97751 44.672 5.55237 44.6291 5.82675C44.4367 7.06033 43.6987 8.07986 42.6055 8.6224C42.2832 8.78237 42.0155 8.87643 41.699 8.94092C41.272 9.02795 40.6939 9.03247 40.2649 8.95218C39.7924 8.86376 39.2124 8.61678 38.8137 8.33425C38.5481 8.14597 38.1236 7.72167 37.9341 7.45491C37.7553 7.20354 37.5268 6.75275 37.4372 6.47505C36.9551 4.97963 37.4481 3.35066 38.6717 2.39661C39.1094 2.05531 39.6514 1.7978 40.1499 1.69429C40.2807 1.66713 40.3502 1.64027 40.3943 1.59982C40.5129 1.49089 40.6714 1.09347 40.6714 0.904909C40.6714 0.83456 40.6694 0.833052 40.5786 0.835128C40.5274 0.836286 40.4008 0.850448 40.2972 0.866598ZM40.3866 2.12172C40.0708 2.18064 39.8251 2.26308 39.5405 2.40559C39.1972 2.57734 38.9367 2.76446 38.6718 3.02942C37.7736 3.9276 37.4773 5.21396 37.8967 6.39497C38.0614 6.85887 38.2972 7.22557 38.6703 7.59775C39.0561 7.98263 39.4615 8.23942 39.9327 8.39728C40.1468 8.46903 40.5166 8.54763 40.6398 8.54763C40.7117 8.54763 40.7152 8.54429 40.7019 8.48753C40.668 8.34325 40.6046 8.19256 40.5314 8.08222C40.4548 7.96701 40.4476 7.96222 40.2942 7.92509C39.8264 7.81192 39.4116 7.57546 39.0514 7.2165C38.673 6.83942 38.436 6.3987 38.3192 5.85508C38.2643 5.59986 38.2639 5.04347 38.3182 4.78867C38.5228 3.8302 39.1568 3.10148 40.0644 2.78136C40.3647 2.67543 40.5963 2.63823 40.9555 2.63823C41.1681 2.63823 41.3355 2.65071 41.4642 2.67617C42.5449 2.88999 43.3559 3.68865 43.5909 4.77035C43.6099 4.85855 43.6306 5.05857 43.6367 5.21483C43.6658 5.96153 43.411 6.64346 42.9032 7.17751C42.5398 7.55975 42.0974 7.80797 41.5257 7.95042C41.4097 7.97935 41.2625 8.2229 41.2078 8.47661C41.1927 8.54626 41.194 8.54763 41.2699 8.54763C41.3125 8.54763 41.4446 8.52877 41.5636 8.50571C42.2201 8.37843 42.8074 8.05433 43.2947 7.55028C44.2296 6.58329 44.465 5.17613 43.8972 3.94777C43.7878 3.71092 43.5281 3.32776 43.3375 3.12191C42.8517 2.59714 42.216 2.24802 41.5174 2.12222C41.2032 2.06564 40.6882 2.06543 40.3866 2.12172Z" fill="white"/>
<path fill-rule="evenodd" clip-rule="evenodd" d="M3.67142 1.22349C3.58066 1.43829 3.47355 1.68796 3.43343 1.77839C3.39332 1.86881 3.11464 2.53469 2.81401 3.25811C2.51346 3.98152 2.18356 4.75838 2.08105 4.98444C1.97846 5.21051 1.71795 5.8024 1.50215 6.29975C1.28628 6.7971 0.89292 7.70047 0.628051 8.30732C0.363181 8.91408 0.146484 9.45978 0.146484 9.51987C0.146484 9.59608 0.269877 9.62913 0.554229 9.62913H0.961974L1.12548 9.11533C1.27403 8.64889 1.46796 8.11208 1.94615 6.8442C2.03789 6.60112 2.13588 6.37916 2.16392 6.35096C2.19195 6.32277 2.8316 6.28849 3.58527 6.27468C4.62066 6.25577 4.98788 6.27583 5.08776 6.35688C5.21543 6.46055 5.77155 7.82879 6.16713 9.01257L6.35941 9.58802L6.99339 9.61203C7.64192 9.63661 7.70546 9.60315 7.54796 9.3197C7.44594 9.13613 7.13404 8.41723 7.13404 8.3656C7.13404 8.34398 6.93354 7.85181 6.68857 7.27193C6.44351 6.69196 6.07136 5.77363 5.86149 5.23106C5.6517 4.6885 5.43056 4.13361 5.37006 3.99797C5.30955 3.86232 5.05216 3.21495 4.79814 2.55935C4.18085 0.966593 4.11641 0.833008 3.9658 0.833008C3.8896 0.833008 3.76884 0.993228 3.67142 1.22349ZM21.0269 0.881428C18.9969 1.25243 17.6535 2.3979 17.1965 4.14725C17.0185 4.82891 17.0229 6.15309 17.2053 6.7957C17.6219 8.26309 18.6917 9.28271 20.2101 9.65962C21.2023 9.90583 23.0128 9.80044 24.3974 9.41572L24.8495 9.2901V7.67161V6.05313L24.3358 6.02863L23.822 6.00422V7.39556C23.822 8.54481 23.8 8.80508 23.696 8.8914C23.5592 9.00492 22.2789 9.2966 21.9072 9.2989C21.7809 9.29964 21.3957 9.2421 21.051 9.17091C19.6557 8.8826 18.7337 7.87409 18.4266 6.29975C18.2824 5.56055 18.2849 5.1371 18.4384 4.33485C18.7703 2.60062 19.8645 1.5362 21.4219 1.43229C22.5984 1.35387 23.4737 1.64069 24.1479 2.32564C24.3635 2.54455 24.5725 2.7236 24.6125 2.72335C24.6524 2.72311 24.7431 2.47986 24.814 2.18276L24.9429 1.64266L24.5656 1.45145C23.7935 1.06023 23.1671 0.909214 22.1778 0.875756C21.6579 0.858163 21.14 0.860712 21.0269 0.881428ZM27.1565 0.928944C27.1171 1.04905 26.8343 3.06229 26.6563 4.4912C26.4635 6.03784 26.2901 7.19383 25.9716 9.05368C25.929 9.30235 25.911 9.53352 25.9316 9.56747C25.9522 9.60142 26.1703 9.62913 26.4163 9.62913C26.8246 9.62913 26.8639 9.61301 26.8662 9.44416C26.8787 8.52516 27.4062 3.47127 27.4799 3.56391C27.5001 3.58923 28.0045 4.53592 28.6749 5.80651C29.3937 7.16884 30.2341 8.86928 30.2341 8.96152C30.2341 9.13983 30.5152 9.62913 30.6177 9.62913C30.6763 9.62913 30.7491 9.52735 30.7796 9.40306C30.8825 8.98322 32.5516 5.55257 32.9933 4.85275C33.1034 4.67831 33.1935 4.51817 33.1935 4.49696C33.1935 4.47575 33.3214 4.24598 33.4778 3.98637C33.6574 3.68829 33.7772 3.55808 33.8031 3.63289C33.8652 3.81242 34.1594 6.74251 34.3267 8.84815L34.3855 9.58802L34.9124 9.61285C35.2269 9.62765 35.4613 9.60192 35.494 9.54906C35.5241 9.50031 35.5196 9.26717 35.4839 9.03099C35.4482 8.7948 35.3785 8.21311 35.3289 7.73837C35.2793 7.26362 35.1879 6.41278 35.1257 5.84761C35.0636 5.28244 34.9555 4.28363 34.8856 3.62804C34.5683 0.653304 34.5859 0.748829 34.3859 0.914885C34.3264 0.964292 34.0293 1.49321 33.7257 2.09028C33.4221 2.68735 33.0718 3.36086 32.9471 3.58693C32.8225 3.813 32.5467 4.3309 32.3342 4.73782C31.4241 6.48036 30.8451 7.48862 30.7684 7.46454C30.6615 7.43091 30.5284 7.17903 29.0672 4.24458C27.3765 0.84912 27.3966 0.887346 27.2887 0.851422C27.2358 0.833748 27.1763 0.868686 27.1565 0.928944ZM46.4853 0.894663C46.4576 0.942754 46.3362 6.65792 46.3102 9.13589L46.3055 9.58802H46.7165H47.1275L47.0955 6.40251C47.074 4.2713 47.0911 3.217 47.1472 3.217C47.1933 3.217 47.3688 3.37418 47.5373 3.56638C47.8436 3.91592 47.978 4.06151 49.6864 5.89398C50.5704 6.84215 52.1405 8.62562 52.7833 9.41161C53.3504 10.105 53.3341 10.193 53.3341 6.43597C53.3341 4.58928 53.3583 2.62865 53.3879 2.07902L53.4416 1.07963H53.0208H52.5999L52.6514 4.20348C52.6861 6.3032 52.6756 7.32733 52.6193 7.32733C52.5732 7.32733 52.3361 7.11244 52.0922 6.84979C51.8484 6.58706 51.205 5.89357 50.6624 5.30858C50.1199 4.72369 49.602 4.16674 49.5115 4.07105C49.2383 3.78184 48.3014 2.72343 47.7005 2.02501C46.682 0.841146 46.5739 0.740608 46.4853 0.894663ZM8.99831 1.06335L8.51978 1.08818L8.55086 4.31051C8.57922 7.24693 8.59583 7.56565 8.7378 7.90278C9.09762 8.75682 9.50857 9.18529 10.3401 9.57372C10.6614 9.72383 10.8665 9.74685 11.902 9.74915C13.3913 9.7526 13.826 9.61186 14.5391 8.89518C15.3477 8.08281 15.4713 7.39195 15.5515 3.23336L15.5933 1.07132L15.17 1.09599L14.7466 1.12073L14.7676 3.50473C14.7982 6.9676 14.6635 7.83167 13.9875 8.50765C13.5057 8.98947 13.1817 9.09495 12.1897 9.09306C11.1734 9.09108 10.8418 8.97599 10.3798 8.46491C9.69526 7.70754 9.63648 7.33358 9.6632 3.9045C9.68046 1.69593 9.66295 1.09188 9.58099 1.06837C9.52377 1.05192 9.26153 1.0497 8.99831 1.06335ZM54.5993 1.12073C54.5606 1.22941 54.6052 1.59926 54.6697 1.7035C54.7029 1.75726 54.9884 1.76236 55.4866 1.71805C55.9079 1.68056 56.4559 1.66034 56.7046 1.67308L57.1567 1.69618L57.1419 5.6661L57.1271 9.63611L57.7053 9.61203L58.2835 9.58802L58.2956 5.6421L58.3076 1.69618L58.9653 1.69832C59.327 1.69955 59.8819 1.71533 60.1984 1.73334L60.7738 1.76622V1.40426V1.04239L57.7012 1.04041C55.7254 1.03918 54.6181 1.06787 54.5993 1.12073ZM3.87776 3.19678C3.96309 3.41134 4.08204 3.69791 4.14205 3.83355C4.27293 4.1295 4.83226 5.60083 4.83226 5.64917C4.83226 5.66791 4.29586 5.6832 3.64026 5.6832C2.98467 5.6832 2.44827 5.66265 2.44827 5.63749C2.44827 5.61234 2.60882 5.2147 2.80513 4.75377C3.00135 4.29284 3.2645 3.6661 3.38978 3.36086C3.51515 3.05563 3.64125 2.80613 3.67011 2.8063C3.69888 2.80646 3.79235 2.98214 3.87776 3.19678Z" fill="white"/>
</svg>
