<svg width="69" height="10" viewBox="0 0 69 10" fill="none" xmlns="http://www.w3.org/2000/svg">
<path fill-rule="evenodd" clip-rule="evenodd" d="M45.6983 0.0364851C43.6473 0.339894 42.012 1.73068 41.4978 3.63594C41.2929 4.39163 41.289 5.29998 41.488 6.05567C41.9983 7.99108 43.667 9.41391 45.7574 9.71543C46.0568 9.74558 46.7681 9.74558 47.0715 9.71543C47.9502 9.62497 48.8033 9.29141 49.5244 8.77693C49.8061 8.56587 50.3223 8.08154 50.5311 7.80829C51.9044 6.05379 51.9063 3.6642 50.5351 1.90971C50.3578 1.69864 49.9302 1.27462 49.6899 1.09371C49.1244 0.639535 48.4467 0.307858 47.7315 0.125058C47.438 0.0647532 46.9947 0.00444697 46.8232 0.00444697H46.7188L46.7366 0.094905C46.7819 0.398314 46.908 0.699839 47.0321 0.820449C47.0656 0.850601 47.1759 0.880754 47.3316 0.910907C47.895 1.03152 48.5117 1.30477 48.9648 1.63645C49.2742 1.84752 49.6879 2.24138 49.9007 2.54479C50.2356 2.99897 50.5055 3.63405 50.608 4.17868C50.6691 4.51036 50.6809 5.11718 50.6316 5.4187C50.4129 6.77933 49.5717 7.86859 48.3285 8.47352C47.962 8.65444 47.6566 8.7449 47.2961 8.8052C46.8095 8.89566 46.1514 8.92581 45.6628 8.83535C45.1249 8.7449 44.4649 8.47352 44.0118 8.17011C43.7103 7.95905 43.2257 7.47472 43.0109 7.20147C42.808 6.92821 42.5479 6.44577 42.4455 6.14236C41.8978 4.50847 42.4573 2.72382 43.8502 1.69487C44.3487 1.33116 44.9654 1.02963 45.5328 0.939175C45.6825 0.909023 45.7613 0.87887 45.8106 0.818565C45.9465 0.697955 46.1258 0.273936 46.1258 0.0628684C46.1258 0.00256342 46.1238 0.00256348 46.0194 0.00256348C45.9603 0.00256348 45.8165 0.00256273 45.7002 0.0327152L45.6983 0.0364851ZM45.8007 1.39712C45.4402 1.45742 45.1604 1.54788 44.8373 1.70052C44.4472 1.88144 44.1497 2.09439 43.8483 2.39592C42.8257 3.36456 42.4888 4.75535 42.9656 6.05567C43.1528 6.54 43.4207 6.96402 43.8463 7.356C44.2856 7.78002 44.7467 8.05139 45.2826 8.2323C45.5269 8.29261 45.9465 8.38307 46.0884 8.38307C46.1711 8.38307 46.1731 8.38307 46.1593 8.32276C46.1199 8.172 46.049 7.9892 45.9662 7.86859C45.8795 7.74798 45.8716 7.74798 45.6963 7.71783C45.1643 7.59722 44.6915 7.32396 44.2817 6.93198C43.8502 6.53811 43.5803 6.05567 43.4483 5.45074C43.3853 5.17748 43.3853 4.57255 43.4483 4.30118C43.6808 3.24207 44.4019 2.45622 45.4362 2.12266C45.7791 2.00205 46.0411 1.9719 46.4509 1.9719C46.6932 1.9719 46.8843 1.9719 47.0301 2.00205C48.2595 2.24327 49.1835 3.09131 49.4515 4.27102C49.4732 4.36148 49.4968 4.6027 49.5027 4.75535C49.5362 5.57135 49.2466 6.32893 48.6674 6.90371C48.2536 7.32773 47.7512 7.5991 47.0991 7.74987C46.9671 7.78002 46.7996 8.05327 46.7366 8.32465C46.7188 8.38495 46.7208 8.38495 46.8075 8.38495C46.8567 8.38495 47.0065 8.38495 47.1405 8.3548C47.8872 8.20404 48.557 7.84032 49.1106 7.29569C50.1745 6.26674 50.4425 4.72519 49.7963 3.39283C49.6721 3.12146 49.3766 2.69744 49.1599 2.48449C48.6063 1.90971 47.8832 1.51584 47.0892 1.39523C46.7307 1.33493 46.1455 1.33493 45.8027 1.39523L45.8007 1.39712Z" fill="#B3B3B3"/>
<path fill-rule="evenodd" clip-rule="evenodd" d="M4.01131 0.428501C3.90886 0.639569 3.78671 0.912827 3.73942 1.03344C3.69411 1.12389 3.37691 1.84944 3.03409 2.63717C2.69128 3.42302 2.31694 4.27106 2.2007 4.51228C2.08446 4.7535 1.78696 5.39047 1.54266 5.93321C1.29639 6.47784 0.849152 7.47664 0.547713 8.14188C0.246274 8.77697 0 9.3819 0 9.44221C0 9.53267 0.139884 9.56282 0.464965 9.56282H0.92796L1.11513 9.01819C1.28456 8.50371 1.50523 7.92893 2.049 6.53815C2.15342 6.26489 2.26572 6.02367 2.29724 5.99352C2.32876 5.96337 3.05774 5.93321 3.91477 5.90306C5.09294 5.90306 5.51062 5.90306 5.62489 5.99352C5.77069 6.11413 6.40312 7.59725 6.85429 8.89758L7.07298 9.53267L7.79407 9.56282C8.53289 9.56282 8.60382 9.53267 8.42453 9.23114C8.30829 9.02007 7.95366 8.26249 7.95366 8.20219C7.95366 8.17203 7.72512 7.62741 7.44732 6.99232C7.16952 6.35723 6.74396 5.35843 6.50557 4.78365C6.26717 4.17872 6.01499 3.57378 5.94603 3.42302C5.87708 3.30241 5.58352 2.57687 5.29587 1.87959C4.59251 0.125093 4.51962 0.004482 4.34821 0.004482C4.26152 0.004482 4.12361 0.155244 4.01328 0.428501H4.01131ZM23.7644 0.0346352C21.4534 0.458654 19.9245 1.69868 19.4044 3.60393C19.2015 4.32948 19.2074 5.78245 19.4143 6.47784C19.8891 8.08158 21.1066 9.20099 22.8345 9.59297C23.9634 9.86623 26.0242 9.74373 27.6004 9.3216L28.1146 9.20099V5.66184H27.5295L26.9443 5.63169V7.14497C26.9443 8.38499 26.9187 8.65824 26.8005 8.77885C26.6449 8.89946 25.1869 9.20287 24.7653 9.20287C24.6215 9.20287 24.1841 9.14257 23.79 9.08226C22.2021 8.7487 21.152 7.66133 20.8032 5.93698C20.6397 5.15113 20.6417 4.66681 20.817 3.81877C21.1953 1.91351 22.4405 0.763949 24.2136 0.643339C25.5534 0.552881 26.5483 0.884559 27.3167 1.61199C27.563 1.85321 27.7994 2.06616 27.8447 2.06616C27.89 2.06616 27.9925 1.7929 28.0732 1.46122L28.219 0.886442L27.7895 0.675376C26.9108 0.251356 26.1976 0.070441 25.0726 0.0402885C24.4816 0.0101361 23.8905 0.0402885 23.7625 0.0402885L23.7644 0.0346352ZM30.7409 0.0949401C30.6956 0.21555 30.3744 2.42422 30.1715 3.96576C29.9528 5.65996 29.7538 6.89998 29.3913 8.92585C29.342 9.19722 29.3223 9.47048 29.346 9.50063C29.3696 9.53078 29.6179 9.56093 29.8976 9.56093C30.3626 9.56093 30.4079 9.56093 30.4099 9.34987C30.4237 8.35107 31.0246 2.87651 31.1093 2.96696C31.1329 2.99712 31.7063 4.02607 32.4687 5.41685C33.2864 6.89998 34.2439 8.74493 34.2439 8.83539C34.2439 9.04646 34.563 9.56093 34.6813 9.56093C34.7482 9.56093 34.831 9.44032 34.8665 9.31971C34.9827 8.86554 36.8839 5.11533 37.3863 4.35963C37.5124 4.17872 37.6149 3.99592 37.6149 3.96576C37.6149 3.96576 37.7607 3.69251 37.938 3.42114C38.1429 3.08757 38.2788 2.96696 38.3084 3.02727C38.3793 3.23834 38.7142 6.41565 38.9034 8.71478L38.9704 9.53078L39.5693 9.56093C39.9279 9.56093 40.1939 9.53078 40.2313 9.47048C40.2648 9.41017 40.2608 9.16707 40.2195 8.92585C40.1781 8.65259 40.0993 8.0175 40.0421 7.50491C39.985 6.99043 39.8826 6.05382 39.8116 5.44889C39.7407 4.84396 39.6186 3.7547 39.5378 3.02915C39.1772 -0.206585 39.1969 -0.0859748 38.9684 0.0949401C38.9014 0.125093 38.5625 0.699874 38.2178 1.36511C37.873 2.0002 37.473 2.7559 37.3312 2.999C37.1893 3.24022 36.876 3.78485 36.6337 4.23902C35.5974 6.14428 34.9394 7.23354 34.8527 7.20339C34.7305 7.17323 34.5788 6.89998 32.916 3.69439C30.9911 0.00448227 31.0147 0.064787 30.8926 0.004482C30.8315 0.004482 30.7645 0.0346351 30.7428 0.0949401H30.7409ZM52.74 0.0647883C52.7085 0.125093 52.5706 6.32708 52.541 9.01819L52.5351 9.53267H53.471L53.4335 6.05382C53.4099 3.72455 53.4296 2.57498 53.4926 2.57498C53.5439 2.57498 53.7448 2.7559 53.9359 2.96885C54.2846 3.36271 54.4383 3.51348 56.3829 5.50919C57.3897 6.53815 59.1766 8.47356 59.9076 9.3216C60.5538 10.0773 60.5341 10.1678 60.5341 6.08586C60.5341 4.09014 60.5617 1.94178 60.5952 1.33685L60.6562 0.247587H59.6987L59.7578 3.66612C59.7972 5.9351 59.7854 7.05451 59.7204 7.05451C59.6672 7.05451 59.3973 6.84344 59.1215 6.54003C58.8437 6.26677 58.1108 5.51108 57.4941 4.87599C56.8774 4.24091 56.2864 3.63597 56.1839 3.51536C55.8726 3.21195 54.8067 2.06427 54.1231 1.27654C52.9646 0.00636661 52.8405 -0.114243 52.74 0.0666718V0.0647883ZM10.0736 0.245703L9.52981 0.275855L9.56527 3.78485C9.59877 6.96028 9.6165 7.324 9.77805 7.68583C10.1879 8.62432 10.6548 9.07661 11.6024 9.50063C11.9689 9.68154 12.2014 9.68154 13.3796 9.68154C15.0739 9.7117 15.5684 9.56093 16.3802 8.7732C17.3002 7.86486 17.4421 7.13931 17.5327 2.60325L17.58 0.243818L16.6166 0.304123L16.6402 2.90477C16.6757 6.65499 16.522 7.59348 15.7517 8.34918C15.204 8.86366 14.8355 8.98427 13.7066 8.98427C12.5777 8.98427 12.1718 8.86366 11.6458 8.28888C10.8676 7.47288 10.8006 7.07901 10.8301 3.32879C10.8498 0.93921 10.8301 0.273971 10.7356 0.243818C10.6705 0.213666 10.3711 0.213666 10.0716 0.243818L10.0736 0.245703ZM61.9743 0.306008C61.931 0.426618 61.9822 0.820484 62.0551 0.941094C62.0925 1.0014 62.4176 1.0014 62.985 0.941094C63.4638 0.910941 64.0883 0.880789 64.372 0.910942L64.8862 0.941094L64.8508 9.56093H65.5088L66.1669 9.53078L66.1945 0.941094H66.9431C67.3549 0.941094 67.9873 0.941094 68.3459 0.971247L69 1.0014V0.21555H65.5029C63.2549 0.21555 61.994 0.245703 61.9723 0.306008H61.9743ZM4.24576 2.57687C4.3423 2.78793 4.47824 3.12149 4.5472 3.27226C4.69693 3.57567 5.3333 5.17752 5.3333 5.23782C5.3333 5.26797 4.72255 5.26797 3.97584 5.26797C3.22914 5.26797 2.61838 5.23782 2.61838 5.20767C2.61838 5.20767 2.80161 4.7535 3.02424 4.26917C3.24687 3.7547 3.54634 3.08946 3.69017 2.7559C3.83202 2.42422 3.97584 2.15096 4.00934 2.15096C4.04283 2.15096 4.14922 2.33188 4.24576 2.57498V2.57687Z" fill="#8E8E8E"/>
</svg>
