<svg width="522" height="74" viewBox="0 0 522 74" fill="none" xmlns="http://www.w3.org/2000/svg">
<path fill-rule="evenodd" clip-rule="evenodd" d="M345.718 0.270063C330.201 2.51529 317.83 12.8071 313.94 26.906C312.39 32.4981 312.36 39.2199 313.866 44.812C317.726 59.1341 330.35 69.663 346.165 71.8943C348.43 72.1174 353.811 72.1174 356.106 71.8943C362.754 71.2249 369.208 68.7565 374.663 64.9494C376.794 63.3875 380.699 59.8035 382.279 57.7814C392.668 44.7981 392.682 27.1152 382.309 14.1319C380.968 12.57 377.733 9.43226 375.915 8.09353C371.637 4.73263 366.51 2.27822 361.099 0.925502C358.879 0.479247 355.525 0.0329808 354.228 0.0329808H353.438L353.572 0.70237C353.915 2.9476 354.869 5.17888 355.808 6.0714C356.061 6.29452 356.896 6.51765 358.074 6.74078C362.336 7.63332 367.002 9.65537 370.429 12.1098C372.77 13.6717 375.9 16.5863 377.51 18.8315C380.043 22.1925 382.085 26.892 382.861 30.9223C383.323 33.3767 383.412 37.8672 383.039 40.0985C381.385 50.1671 375.021 58.2276 365.616 62.7041C362.843 64.0429 360.533 64.7123 357.805 65.1586C354.124 65.828 349.145 66.0511 345.449 65.3817C341.38 64.7123 336.387 62.7041 332.959 60.4589C330.678 58.897 327.012 55.313 325.387 53.291C323.852 51.2688 321.884 47.6988 321.109 45.4535C316.966 33.3628 321.199 20.1563 331.736 12.5421C335.508 9.85066 340.173 7.61934 344.465 6.94997C345.598 6.72684 346.194 6.50371 346.567 6.05745C347.595 5.16494 348.952 2.0272 348.952 0.465299C348.952 0.0190425 348.937 0.019043 348.147 0.019043C347.7 0.019043 346.612 0.0190374 345.732 0.242166L345.718 0.270063ZM346.492 10.3388C343.765 10.785 341.648 11.4544 339.204 12.5839C336.253 13.9227 334.002 15.4986 331.722 17.7299C323.986 24.8978 321.437 35.1897 325.044 44.812C326.46 48.3961 328.487 51.5338 331.707 54.4345C335.03 57.5722 338.518 59.5804 342.573 60.9191C344.421 61.3654 347.595 62.0348 348.669 62.0348C349.294 62.0348 349.31 62.0348 349.205 61.5885C348.907 60.4729 348.371 59.1202 347.744 58.2276C347.088 57.3351 347.029 57.3351 345.702 57.112C341.678 56.2195 338.101 54.1974 335.001 51.2967C331.736 48.3821 329.694 44.812 328.696 40.3355C328.219 38.3134 328.219 33.8369 328.696 31.8288C330.455 23.9914 335.91 18.1761 343.735 15.7078C346.329 14.8152 348.311 14.5921 351.411 14.5921C353.244 14.5921 354.69 14.5921 355.793 14.8152C365.094 16.6003 372.084 22.8758 374.111 31.6056C374.275 32.275 374.454 34.0601 374.499 35.1897C374.752 41.2281 372.561 46.8342 368.179 51.0875C365.049 54.2253 361.248 56.2334 356.315 57.3491C355.316 57.5722 354.049 59.5943 353.572 61.6025C353.438 62.0487 353.453 62.0487 354.109 62.0487C354.481 62.0487 355.614 62.0487 356.628 61.8256C362.277 60.71 367.344 58.0184 371.532 53.9882C379.581 46.374 381.608 34.9665 376.72 25.107C375.78 23.0989 373.545 19.9611 371.905 18.3853C367.717 14.1319 362.247 11.2173 356.24 10.3248C353.528 9.87856 349.101 9.87856 346.507 10.3248L346.492 10.3388Z" fill="white"/>
<path fill-rule="evenodd" clip-rule="evenodd" d="M30.3464 3.17091C29.5714 4.73281 28.6473 6.75492 28.2895 7.64746C27.9467 8.31679 25.5471 13.6859 22.9536 19.5151C20.3601 25.3303 17.5282 31.6058 16.6488 33.3909C15.7694 35.1759 13.5187 39.8895 11.6706 43.9058C9.80747 47.936 6.42402 55.3271 4.14357 60.2499C1.86312 64.9496 0 69.4261 0 69.8724C0 70.5418 1.05825 70.7649 3.51756 70.7649H7.02022L8.4362 66.7346C9.71798 62.9275 11.3874 58.6741 15.5011 48.3823C16.2911 46.3602 17.1407 44.5752 17.3791 44.352C17.6176 44.1289 23.1325 43.9058 29.6161 43.6826C38.5292 43.6826 41.689 43.6826 42.5535 44.352C43.6565 45.2446 48.441 56.2197 51.8542 65.8421L53.5086 70.5418L58.9638 70.7649C64.5532 70.7649 65.0898 70.5418 63.7334 68.3104C62.854 66.7485 60.1712 61.1424 60.1712 60.6962C60.1712 60.473 58.4422 56.4428 56.3406 51.7432C54.239 47.0435 51.0195 39.6524 49.2161 35.399C47.4125 30.9225 45.5047 26.446 44.983 25.3303C44.4614 24.4378 42.2405 19.0688 40.0644 13.909C34.7433 0.925688 34.1919 0.0331668 32.8952 0.0331668C32.2393 0.0331668 31.196 1.14881 30.3613 3.17091H30.3464ZM179.783 0.2563C162.3 3.39404 150.733 12.5702 146.799 26.6691C145.264 32.0382 145.308 42.7901 146.873 47.936C150.465 59.8037 159.676 68.0873 172.748 70.988C181.288 73.0101 196.879 72.1036 208.803 68.9798L212.693 68.0873V41.8976H208.267L203.839 41.6745V52.8728C203.839 62.0489 203.646 64.071 202.752 64.9635C201.574 65.856 190.544 68.1012 187.355 68.1012C186.267 68.1012 182.958 67.655 179.977 67.2087C167.964 64.7404 160.019 56.6938 157.381 43.9337C156.144 38.1184 156.159 34.5344 157.485 28.2589C160.347 14.16 169.767 5.65322 183.181 4.76071C193.317 4.09132 200.844 6.54574 206.657 11.9287C208.52 13.7138 210.309 15.2896 210.651 15.2896C210.994 15.2896 211.769 13.2675 212.38 10.813L213.483 6.55967L210.234 4.99778C203.586 1.86003 198.191 0.521263 189.68 0.298135C185.209 0.0750071 180.737 0.298135 179.768 0.298135L179.783 0.2563ZM232.562 0.702557C232.219 1.59507 229.789 17.9392 228.254 29.3466C226.599 41.8837 225.094 51.0599 222.352 66.0513C221.979 68.0594 221.83 70.0816 222.009 70.3047C222.187 70.5278 224.066 70.7509 226.182 70.7509C229.7 70.7509 230.042 70.7509 230.058 69.189C230.162 61.7979 234.708 21.2862 235.349 21.9555C235.527 22.1787 239.865 29.7929 245.633 40.0847C251.819 51.0599 259.063 64.7125 259.063 65.3819C259.063 66.9438 261.477 70.7509 262.372 70.7509C262.878 70.7509 263.504 69.8584 263.773 68.9659C264.652 65.605 279.035 37.8534 282.835 32.2613C283.789 30.9225 284.565 29.5698 284.565 29.3466C284.565 29.3466 285.668 27.3246 287.009 25.3164C288.559 22.848 289.587 21.9555 289.811 22.4018C290.348 23.9637 292.881 47.4758 294.313 64.4894L294.82 70.5278L299.35 70.7509C302.063 70.7509 304.076 70.5278 304.359 70.0816C304.612 69.6353 304.582 67.8363 304.269 66.0513C303.956 64.0292 303.36 59.3295 302.927 55.5363C302.495 51.7292 301.721 44.7983 301.183 40.3218C300.647 35.8453 299.723 27.7848 299.112 22.4157C296.384 -1.52873 296.533 -0.636214 294.804 0.702557C294.298 0.925688 291.734 5.17907 289.126 10.1018C286.517 14.8015 283.491 20.3937 282.419 22.1926C281.345 23.9776 278.975 28.0079 277.142 31.3687C269.302 45.4677 264.324 53.5282 263.668 53.3051C262.744 53.0819 261.596 51.0599 249.017 27.3385C234.454 0.0331688 234.633 0.479424 233.709 0.0331668C233.247 0.0331668 232.74 0.2563 232.576 0.702557H232.562ZM398.99 0.479433C398.751 0.925688 397.708 46.8204 397.484 66.7346L397.439 70.5418H404.52L404.236 44.7983C404.057 27.5617 404.207 19.0549 404.683 19.0549C405.071 19.0549 406.591 20.3937 408.037 21.9695C410.675 24.8841 411.838 25.9998 426.549 40.768C434.166 48.3823 447.684 62.7043 453.214 68.9798C458.103 74.572 457.954 75.2417 457.954 45.0354C457.954 30.267 458.162 14.3692 458.416 9.89269L458.877 1.83214H451.634L452.081 27.1293C452.379 43.9197 452.29 52.2034 451.798 52.2034C451.395 52.2034 449.353 50.6415 447.267 48.3962C445.165 46.3741 439.621 40.782 434.955 36.0823C430.29 31.3827 425.819 26.9062 425.043 26.0137C422.688 23.7684 414.625 15.2756 409.453 9.4464C400.689 0.0471129 399.75 -0.845398 398.99 0.493371V0.479433ZM76.209 1.8182L72.0951 2.04133L72.3634 28.0079C72.6168 51.5061 72.7509 54.1976 73.9731 56.8751C77.0737 63.82 80.6059 67.1669 87.7747 70.3047C90.5473 71.6434 92.3062 71.6434 101.22 71.6434C114.037 71.8666 117.778 70.7509 123.92 64.9217C130.88 58.2 131.953 52.8309 132.639 19.2641L132.997 1.80425L125.708 2.25051L125.887 21.4953C126.155 49.2469 124.993 56.1918 119.165 61.7839C115.022 65.5911 112.234 66.4836 103.693 66.4836C95.153 66.4836 92.0823 65.5911 88.103 61.3377C82.2158 55.2993 81.7089 52.3847 81.9321 24.633C82.0811 6.95015 81.9321 2.02739 81.2172 1.80425C80.7247 1.58113 78.4596 1.58113 76.1938 1.80425L76.209 1.8182ZM468.849 2.26446C468.521 3.15697 468.909 6.07158 469.46 6.9641C469.743 7.41036 472.203 7.41036 476.495 6.9641C480.117 6.74096 484.842 6.51784 486.988 6.74097L490.878 6.9641L490.61 70.7509H495.588L500.567 70.5278L500.776 6.9641H506.439C509.554 6.9641 514.339 6.9641 517.052 7.18723L522 7.41036V1.59507H495.544C478.537 1.59507 468.998 1.8182 468.834 2.26446H468.849ZM32.1201 19.0688C32.8504 20.6307 33.8789 23.099 34.4006 24.2147C35.5333 26.46 40.3476 38.3136 40.3476 38.7599C40.3476 38.983 35.7271 38.983 30.0781 38.983C24.4291 38.983 19.8086 38.7599 19.8086 38.5368C19.8086 38.5368 21.1948 35.1759 22.879 31.5919C24.5633 27.7848 26.8288 22.862 27.9169 20.3937C28.9901 17.9392 30.0781 15.9171 30.3315 15.9171C30.5849 15.9171 31.3898 17.2559 32.1201 19.0549V19.0688Z" fill="white"/>
</svg>
