<svg width="116" height="108" viewBox="0 0 116 108" fill="none" xmlns="http://www.w3.org/2000/svg">
<rect width="85.7087" height="47.0709" rx="2.94969" transform="matrix(-0.866025 -0.5 -0.866025 0.5 115.406 83.5728)" fill="black"/>
<path d="M90.5977 42.6414L90.2516 91.4908C90.2456 92.3415 89.6334 93.3683 88.9003 93.7574L84.5947 96.0427C83.7245 96.5045 82.8995 96.5633 82.284 96.2074L78.7729 94.1773C78.4468 93.9887 78.2822 93.5591 78.3236 93.0045L81.7438 47.238C81.8288 46.1015 82.7268 44.8333 83.6477 44.5494L90.3999 42.4679C90.5157 42.4322 90.5977 42.5041 90.5977 42.6414Z" fill="#627F8E"/>
<path d="M83.5723 46.9891L27.1356 10.8901C26.8659 10.7176 26.597 10.6269 26.3555 10.6269L21.0581 10.6269C20.4128 10.6269 19.999 11.1421 19.9828 11.9656L19.0449 59.7001L82.2732 96.2049C82.9907 96.6192 83.5723 96.2834 83.5723 95.4549L83.5723 46.9891Z" fill="black"/>
<path d="M83.6777 46.536L27.0339 10.8235C26.8286 10.694 26.6233 10.6117 26.4301 10.5813L20.7911 9.69459C20.1547 9.59453 19.6845 9.95312 19.5495 10.6414L10.7705 55.3929C10.3068 57.7567 12.0036 61.2174 14.3279 62.6484L69.8014 96.8018C72.4915 98.4581 74.8407 97.6253 75.3216 94.845L83.6777 46.536Z" fill="#A9C6D6"/>
<rect width="74.014" height="8.59918" rx="0.492437" transform="matrix(-0.866025 -0.5 -0.866025 0.5 90.875 42.5259)" fill="#627F8E"/>
<path d="M65.8836 40.2572C66.109 39.1098 65.2619 37.4262 64.1328 36.7776C63.2873 36.2919 62.5597 36.5599 62.3909 37.4191L62.2656 38.057C62.0402 39.2044 62.8874 40.888 64.0165 41.5366C64.862 42.0223 65.5896 41.7543 65.7583 40.8951L65.8836 40.2572Z" fill="black"/>
<path d="M39.8192 25.1967C40.0446 24.0492 39.1974 22.3656 38.0683 21.717C37.2228 21.2314 36.4952 21.4993 36.3264 22.3585L36.2011 22.9964C35.9758 24.1439 36.8229 25.8275 37.952 26.4761C38.7975 26.9617 39.5251 26.6938 39.6939 25.8346L39.8192 25.1967Z" fill="black"/>
<path opacity="0.5" d="M69.3887 53.1543C69.5127 52.5232 69.0468 51.5973 68.4258 51.2405L59.7624 46.2641C59.2974 45.997 58.8973 46.1443 58.8044 46.6169L56.7079 57.29C56.584 57.9211 57.0499 58.847 57.6709 59.2037L66.3342 64.1802C66.7992 64.4473 67.1994 64.2999 67.2922 63.8274L69.3887 53.1543Z" fill="black"/>
<path opacity="0.8" d="M66.0802 71.4961C66.2041 70.865 65.7382 69.939 65.1172 69.5823L56.4538 64.6059C55.9889 64.3388 55.5887 64.4861 55.4959 64.9587L53.3993 75.6318C53.2754 76.2629 53.7413 77.1888 54.3623 77.5455L63.0257 82.522C63.4906 82.7891 63.8908 82.6417 63.9836 82.1692L66.0802 71.4961Z" fill="black"/>
<path d="M53.2286 42.7168C53.3525 42.0857 52.8866 41.1598 52.2656 40.803L43.6023 35.8266C43.1373 35.5595 42.7371 35.7068 42.6443 36.1794L40.5478 46.8525C40.4238 47.4836 40.8897 48.4095 41.5107 48.7662L50.1741 53.7427C50.6391 54.0098 51.0393 53.8624 51.1321 53.3899L53.2286 42.7168Z" fill="white"/>
<path opacity="0.5" d="M49.463 61.0586C49.5869 60.4275 49.121 59.5015 48.5 59.1448L39.8367 54.1684C39.3717 53.9013 38.9715 54.0486 38.8787 54.5212L36.7822 65.1943C36.6582 65.8254 37.1241 66.7513 37.7451 67.108L46.4085 72.0845C46.8735 72.3516 47.2736 72.2042 47.3665 71.7317L49.463 61.0586Z" fill="black"/>
<path opacity="0.5" d="M37.0665 33.3535C37.1904 32.7224 36.7245 31.7965 36.1035 31.4398L27.4402 26.4633C26.9752 26.1962 26.575 26.3436 26.4822 26.8161L24.3857 37.4892C24.2617 38.1203 24.7276 39.0462 25.3486 39.403L34.012 44.3794C34.477 44.6465 34.8772 44.4992 34.97 44.0266L37.0665 33.3535Z" fill="black"/>
<path d="M34.5802 51.6953C34.7041 51.0642 34.2382 50.1383 33.6172 49.7816L24.9538 44.8051C24.4889 44.538 24.0887 44.6854 23.9959 45.1579L21.8993 55.831C21.7754 56.4621 22.2413 57.388 22.8623 57.7447L31.5257 62.7212C31.9906 62.9883 32.3908 62.841 32.4836 62.3684L34.5802 51.6953Z" fill="white"/>
<path d="M48.9103 18.3496C49.4571 18.6117 50.1192 18.3823 50.32 17.8102C50.8704 16.2426 51.0249 14.5569 50.7614 12.905C50.4401 10.8902 49.5125 9.02126 48.102 7.54711C46.6916 6.07295 44.8655 5.06364 42.8669 4.65366C40.8683 4.24368 38.7922 4.45252 36.9154 5.25234C35.0385 6.05216 33.4499 7.40497 32.3614 9.1305C31.2728 10.856 30.736 12.8723 30.8224 14.9107C30.9088 16.9491 31.6144 18.9127 32.8451 20.5399C33.8542 21.8741 35.177 22.9302 36.6889 23.619C37.2407 23.8704 37.8647 23.5518 38.0544 22.9758C38.244 22.3998 37.9261 21.7859 37.3823 21.5177C36.2916 20.9798 35.3362 20.1932 34.5965 19.2152C33.6351 17.9441 33.0839 16.4101 33.0164 14.8177C32.9489 13.2253 33.3682 11.6501 34.2186 10.3022C35.069 8.95416 36.31 7.89733 37.7762 7.2725C39.2425 6.64768 40.8643 6.48454 42.4256 6.80481C43.9869 7.12509 45.4135 7.91357 46.5154 9.06519C47.6172 10.2168 48.3419 11.6769 48.5929 13.2508C48.786 14.4616 48.6916 15.6956 48.3241 16.8549C48.1409 17.433 48.3635 18.0875 48.9103 18.3496Z" fill="white"/>
<path d="M76.2668 34.2877C76.8756 34.5795 77.6127 34.3241 77.8363 33.687C78.4531 31.9303 78.6233 30.0406 78.3221 28.1902C77.9552 25.936 76.9065 23.8484 75.3171 22.2084C73.7278 20.5684 71.6741 19.4547 69.4325 19.0173C67.191 18.5799 64.8693 18.8398 62.78 19.762C60.6906 20.6842 58.934 22.2244 57.7466 24.1753C56.5592 26.1261 55.998 28.3939 56.1386 30.6734C56.2792 32.9528 57.1149 35.1345 58.533 36.9246C59.6972 38.3941 61.208 39.5419 62.9216 40.2701C63.543 40.5342 64.2284 40.1617 64.4231 39.5152C64.6177 38.8687 64.2464 38.1945 63.6334 37.9115C62.3955 37.34 61.3032 36.4839 60.4495 35.4064C59.3416 34.0079 58.6888 32.3036 58.579 30.5229C58.4691 28.7421 58.9075 26.9705 59.8351 25.4465C60.7628 23.9225 62.135 22.7192 63.7672 21.9988C65.3994 21.2784 67.2132 21.0754 68.9643 21.4171C70.7154 21.7588 72.3197 22.6288 73.5614 23.91C74.803 25.1911 75.6222 26.822 75.9089 28.5829C76.1297 29.9398 76.0261 31.3238 75.6141 32.6234C75.4101 33.267 75.658 33.9958 76.2668 34.2877Z" fill="white"/>
<g style="mix-blend-mode:multiply">
<path d="M83.3673 88.0121L83.7012 46.3613L78.4726 76.9961L83.3673 88.0121Z" fill="black"/>
</g>
</svg>
