<svg width="76" height="71" viewBox="0 0 76 71" fill="none" xmlns="http://www.w3.org/2000/svg">
<rect width="56.3877" height="30.9679" rx="1.7269" transform="matrix(0.866025 -0.5 0.866025 0.5 0.3479 55.1914)" fill="black"/>
<path d="M16.6702 28.2634L16.8986 60.5141C16.9022 61.0122 17.2605 61.6133 17.6898 61.8411L20.7175 63.4481C21.227 63.7185 21.71 63.753 22.0704 63.5446L24.4869 62.1473C24.6779 62.0369 24.7742 61.7854 24.75 61.4607L22.4834 31.1317C22.4337 30.4663 21.908 29.7239 21.3688 29.5577L16.8003 28.1493C16.7241 28.1258 16.6702 28.1731 16.6702 28.2634Z" fill="#627F8E"/>
<path d="M21.2915 31.1225L58.451 7.35394C58.6089 7.25295 58.7663 7.19984 58.9077 7.19984L62.4955 7.19984C62.8733 7.19984 63.1156 7.50148 63.1251 7.98358L63.744 39.485L22.052 63.5559C21.632 63.7984 21.2915 63.6018 21.2915 63.1168L21.2915 31.1225Z" fill="black"/>
<path d="M21.2214 30.8266L58.5099 7.31712C58.6301 7.2413 58.7503 7.19311 58.8634 7.17532L62.6687 6.57696C63.0413 6.51838 63.3166 6.72832 63.3956 7.13127L69.2513 36.981C69.5228 38.3648 68.5294 40.3909 67.1686 41.2287L30.0114 64.1053C28.4365 65.075 27.0611 64.5874 26.7796 62.9597L21.2214 30.8266Z" fill="#A9C6D6"/>
<rect width="48.6937" height="5.6574" rx="0.288298" transform="matrix(0.866025 -0.5 0.866025 0.5 16.4866 28.1875)" fill="#627F8E"/>
<path d="M32.9289 26.693C32.7806 25.9381 33.3379 24.8305 34.0808 24.4038C34.637 24.0842 35.1157 24.2605 35.2268 24.8258L35.3092 25.2455C35.4575 26.0004 34.9001 27.108 34.1573 27.5347C33.6011 27.8542 33.1224 27.6779 33.0113 27.1127L32.9289 26.693Z" fill="black"/>
<path d="M50.0761 16.7867C49.9278 16.0319 50.4852 14.9242 51.228 14.4975C51.7842 14.178 52.2629 14.3543 52.374 14.9195L52.4564 15.3392C52.6047 16.0941 52.0474 17.2018 51.3045 17.6285C50.7483 17.948 50.2696 17.7717 50.1585 17.2064L50.0761 16.7867Z" fill="black"/>
<path opacity="0.5" d="M30.6059 35.0908C30.5334 34.7213 30.8061 34.1792 31.1697 33.9704L37.0143 30.6131C37.2866 30.4567 37.5208 30.543 37.5752 30.8196L38.9834 37.9888C39.056 38.3583 38.7832 38.9004 38.4197 39.1092L32.575 42.4666C32.3028 42.6229 32.0685 42.5367 32.0142 42.26L30.6059 35.0908Z" fill="black"/>
<path opacity="0.8" d="M32.7822 47.1572C32.7096 46.7877 32.9824 46.2456 33.346 46.0368L39.1906 42.6795C39.4628 42.5231 39.6971 42.6094 39.7515 42.886L41.1597 50.0552C41.2323 50.4247 40.9595 50.9668 40.5959 51.1756L34.7513 54.533C34.4791 54.6893 34.2448 54.6031 34.1904 54.3264L32.7822 47.1572Z" fill="black"/>
<path d="M41.2383 28.2236C41.1657 27.8541 41.4385 27.312 41.802 27.1032L47.6467 23.7459C47.9189 23.5895 48.1532 23.6758 48.2075 23.9524L49.6158 31.1217C49.6883 31.4911 49.4155 32.0332 49.052 32.242L43.2074 35.5994C42.9351 35.7557 42.7008 35.6695 42.6465 35.3928L41.2383 28.2236Z" fill="white"/>
<path opacity="0.5" d="M43.7153 40.29C43.6427 39.9206 43.9155 39.3785 44.2791 39.1696L50.1237 35.8123C50.3959 35.6559 50.6302 35.7422 50.6846 36.0188L52.0928 43.1881C52.1654 43.5575 51.8926 44.0996 51.529 44.3085L45.6844 47.6658C45.4122 47.8222 45.1779 47.7359 45.1235 47.4592L43.7153 40.29Z" fill="black"/>
<path opacity="0.5" d="M51.8708 22.0634C51.7983 21.694 52.071 21.1519 52.4346 20.943L58.2792 17.5857C58.5515 17.4294 58.7857 17.5156 58.8401 17.7923L60.2483 24.9615C60.3209 25.331 60.0481 25.8731 59.6846 26.0819L53.8399 29.4392C53.5677 29.5956 53.3334 29.5093 53.2791 29.2327L51.8708 22.0634Z" fill="black"/>
<path d="M53.5066 34.1299C53.434 33.7604 53.7068 33.2183 54.0703 33.0095L59.915 29.6521C60.1872 29.4958 60.4215 29.582 60.4758 29.8587L61.8841 37.0279C61.9566 37.3974 61.6839 37.9395 61.3203 38.1483L55.4757 41.5056C55.2034 41.662 54.9691 41.5757 54.9148 41.2991L53.5066 34.1299Z" fill="white"/>
<path d="M44.096 12.2783C43.7362 12.4507 43.3007 12.2998 43.1685 11.9234C42.8065 10.892 42.7048 9.78307 42.8781 8.69625C43.0895 7.37075 43.6998 6.14115 44.6277 5.17131C45.5557 4.20146 46.7571 3.53743 48.072 3.26771C49.3868 2.99798 50.7527 3.13538 51.9875 3.66158C53.2223 4.18778 54.2674 5.07779 54.9835 6.21302C55.6997 7.34825 56.0529 8.67477 55.996 10.0158C55.9392 11.3568 55.475 12.6487 54.6653 13.7192C54.0014 14.597 53.1311 15.2918 52.1364 15.745C51.7734 15.9104 51.3629 15.7008 51.2381 15.3218C51.1133 14.9429 51.3225 14.539 51.6803 14.3626C52.3979 14.0087 53.0264 13.4911 53.513 12.8478C54.1456 12.0115 54.5082 11.0022 54.5526 9.95461C54.597 8.90698 54.3211 7.87069 53.7616 6.98385C53.2022 6.097 52.3857 5.40172 51.4211 4.99064C50.4565 4.57957 49.3895 4.47224 48.3623 4.68295C47.3351 4.89366 46.3965 5.4124 45.6716 6.17005C44.9467 6.9277 44.47 7.88828 44.3048 8.92376C44.1778 9.72038 44.2399 10.5322 44.4816 11.2949C44.6022 11.6752 44.4557 12.1058 44.096 12.2783Z" fill="white"/>
<path d="M26.0983 22.7658C25.6978 22.9578 25.2129 22.7898 25.0657 22.3707C24.66 21.2149 24.548 19.9717 24.7462 18.7543C24.9875 17.2713 25.6775 15.8978 26.7231 14.8189C27.7688 13.7399 29.1199 13.0072 30.5946 12.7195C32.0693 12.4317 33.5967 12.6027 34.9713 13.2094C36.3459 13.8161 37.5016 14.8294 38.2828 16.1129C39.0639 17.3963 39.4331 18.8883 39.3406 20.388C39.2481 21.8876 38.6984 23.3229 37.7654 24.5007C36.9994 25.4675 36.0055 26.2225 34.8781 26.7016C34.4693 26.8754 34.0184 26.6303 33.8903 26.205C33.7622 25.7797 34.0066 25.3361 34.4099 25.1499C35.2243 24.774 35.9429 24.2107 36.5045 23.5018C37.2334 22.5818 37.6629 21.4605 37.7351 20.2889C37.8074 19.1174 37.519 17.9518 36.9087 16.9492C36.2984 15.9465 35.3956 15.1549 34.3218 14.681C33.248 14.207 32.0547 14.0734 30.9027 14.2982C29.7506 14.523 28.6951 15.0954 27.8782 15.9383C27.0614 16.7812 26.5224 17.8542 26.3338 19.0127C26.1885 19.9054 26.2567 20.8159 26.5277 21.6709C26.662 22.0943 26.4989 22.5738 26.0983 22.7658Z" fill="white"/>
<g style="mix-blend-mode:multiply">
<path d="M21.426 58.1129L21.2063 30.7109L24.6462 50.8655L21.426 58.1129Z" fill="black"/>
</g>
</svg>
