<svg width="81" height="74" viewBox="0 0 81 74" fill="none" xmlns="http://www.w3.org/2000/svg">
<rect width="60.1784" height="33.0498" rx="2.07106" transform="matrix(0.866025 -0.5 0.866025 0.5 0.144531 56.3672)" fill="#232326"/>
<path d="M17.25 29.4378L17.493 63.7363C17.4972 64.3336 17.927 65.0546 18.4418 65.3278L21.4648 66.9323C22.0758 67.2566 22.6551 67.2979 23.0873 67.048L25.5525 65.6226C25.7815 65.4902 25.897 65.1886 25.8679 64.7991L23.4665 32.6652C23.4069 31.8672 22.7764 30.9768 22.1297 30.7775L17.3889 29.316C17.3075 29.2909 17.25 29.3414 17.25 29.4378Z" fill="#627F8E"/>
<path d="M22.1836 32.492L61.8094 7.1459C61.9987 7.02478 62.1875 6.9611 62.3571 6.9611L66.0766 6.9611C66.5296 6.9611 66.8202 7.32284 66.8315 7.90102L67.49 41.4167L23.0957 67.0478C22.592 67.3386 22.1836 67.1029 22.1836 66.5212L22.1836 32.492Z" fill="#232326"/>
<path d="M22.1074 32.1733L61.8786 7.09853C62.0228 7.00761 62.1669 6.94982 62.3026 6.92848L66.2619 6.30591C66.7087 6.23565 67.0389 6.48743 67.1337 6.97068L73.2977 38.392C73.6232 40.0516 72.4318 42.4815 70.7999 43.4863L31.8504 67.4663C29.9616 68.6292 28.3121 68.0445 27.9745 66.0924L22.1074 32.1733Z" fill="#A7A7A8"/>
<rect width="51.9673" height="6.03773" rx="0.345754" transform="matrix(0.866025 -0.5 0.866025 0.5 17.0547 29.3574)" fill="#627F8E"/>
<path d="M34.6035 27.7659C34.4452 26.9603 35.04 25.7782 35.8328 25.3228V25.3228C36.4264 24.9818 36.9373 25.1699 37.0558 25.7732L37.1438 26.2211C37.3021 27.0267 36.7072 28.2088 35.9145 28.6642V28.6642C35.3208 29.0052 34.8099 28.8171 34.6914 28.2138L34.6035 27.7659Z" fill="black"/>
<path d="M52.9023 17.1898C52.744 16.3841 53.3389 15.202 54.1316 14.7466V14.7466C54.7253 14.4056 55.2362 14.5938 55.3547 15.197L55.4426 15.6449C55.6009 16.4506 55.0061 17.6327 54.2133 18.0881V18.0881C53.6197 18.4291 53.1088 18.2409 52.9903 17.6377L52.9023 17.1898Z" fill="black"/>
<path d="M46.5199 12.3834C46.1359 12.5674 45.6711 12.4063 45.5301 12.0046C45.1437 10.9039 45.0352 9.72041 45.2202 8.56053C45.4458 7.14592 46.0971 5.83366 47.0874 4.79862C48.0777 3.76357 49.3599 3.0549 50.7631 2.76704C52.1664 2.47919 53.6241 2.62582 54.9419 3.18739C56.2597 3.74897 57.3751 4.69882 58.1394 5.91036C58.9037 7.1219 59.2806 8.5376 59.2199 9.96879C59.1592 11.4 58.6638 12.7787 57.7997 13.9212C57.0912 14.858 56.1624 15.5995 55.1009 16.0831C54.7134 16.2596 54.2753 16.0359 54.1421 15.6315V15.6315C54.009 15.2271 54.2322 14.7961 54.614 14.6078C55.3799 14.2301 56.0507 13.6778 56.57 12.9911C57.245 12.0986 57.632 11.0215 57.6794 9.90348C57.7269 8.78543 57.4324 7.67947 56.8353 6.73301C56.2382 5.78654 55.3669 5.04451 54.3374 4.60581C53.3079 4.1671 52.1692 4.05255 51.073 4.27743C49.9767 4.5023 48.9751 5.05592 48.2014 5.86451C47.4278 6.67309 46.919 7.69824 46.7428 8.80334C46.6072 9.6535 46.6734 10.5199 46.9314 11.3339C47.0601 11.7397 46.9038 12.1993 46.5199 12.3834V12.3834Z" fill="white"/>
<path d="M27.3118 23.5737C26.8844 23.7786 26.3668 23.5992 26.2098 23.152C25.7768 21.9185 25.6573 20.5917 25.8688 19.2925C26.1264 17.7098 26.8627 16.244 27.9786 15.0925C29.0946 13.941 30.5365 13.1591 32.1104 12.8519C33.6842 12.5448 35.3143 12.7273 36.7813 13.3748C38.2483 14.0223 39.4817 15.1037 40.3154 16.4735C41.1491 17.8432 41.5431 19.4355 41.4444 21.036C41.3457 22.6365 40.7589 24.1683 39.7632 25.4252C38.9458 26.4569 37.885 27.2628 36.6819 27.7741C36.2456 27.9595 35.7643 27.698 35.6276 27.2441V27.2441C35.491 26.7902 35.7517 26.3168 36.1821 26.1181C37.0513 25.7168 37.8182 25.1157 38.4176 24.3591C39.1955 23.3773 39.6538 22.1806 39.7309 20.9303C39.8081 19.68 39.5003 18.4361 38.849 17.366C38.1977 16.296 37.2341 15.4512 36.0881 14.9453C34.9421 14.4395 33.6686 14.297 32.4391 14.5369C31.2097 14.7768 30.0832 15.3876 29.2114 16.2872C28.3396 17.1868 27.7644 18.3318 27.5632 19.5682C27.4081 20.5209 27.4808 21.4926 27.7701 22.4052C27.9134 22.8571 27.7393 23.3687 27.3118 23.5737V23.5737Z" fill="white"/>
<g style="mix-blend-mode:multiply">
<path d="M22.3262 61.2949L22.0918 32.0508L25.7629 53.5603L22.3262 61.2949Z" fill="#232326"/>
</g>
<circle r="13.0753" transform="matrix(0.866025 -0.5 2.20305e-08 1 50.0052 38.1275)" fill="white"/>
<rect width="3.73708" height="14.0118" rx="1" transform="matrix(0.893825 -0.448416 0.0336107 0.999435 45.9043 33.2192)" fill="#1B262C"/>
<rect width="3.73708" height="14.0118" rx="1" transform="matrix(0.893825 -0.448416 0.0336107 0.999435 50.9668 30.9885)" fill="#1B262C"/>
</svg>
