<svg width="37" height="36" viewBox="0 0 37 36" fill="none" xmlns="http://www.w3.org/2000/svg">
    <g id="Group 1244829455">
        <ellipse id="Ellipse 350" cx="17.8308" cy="27.4832" rx="17.8308" ry="8.32104"
            fill="#0E100F" />
        <g id="Group 1244828524">
            <g id="Union">
                <mask id="path-2-inside-1_624_4454" fill="white">
                    <path fill-rule="evenodd" clip-rule="evenodd"
                        d="M8.04975 29.8713C7.41597 29.1597 7.03589 28.1977 7.03589 26.9258C7.03589 18.9344 13.5142 12.4561 21.5056 12.4561C29.2912 12.4561 35.6406 18.605 35.9625 26.3115C36.2588 28.6445 34.862 31.0359 31.7721 32.8198C26.1329 36.0756 16.9901 36.0756 11.3509 32.8198C9.85223 31.9545 8.75184 30.9464 8.04975 29.8713Z" />
                </mask>
                <path fill-rule="evenodd" clip-rule="evenodd"
                    d="M8.04975 29.8713C7.41597 29.1597 7.03589 28.1977 7.03589 26.9258C7.03589 18.9344 13.5142 12.4561 21.5056 12.4561C29.2912 12.4561 35.6406 18.605 35.9625 26.3115C36.2588 28.6445 34.862 31.0359 31.7721 32.8198C26.1329 36.0756 16.9901 36.0756 11.3509 32.8198C9.85223 31.9545 8.75184 30.9464 8.04975 29.8713Z"
                    fill="white" />
                <path
                    d="M8.04975 29.8713L8.42796 29.6243L8.40951 29.5961L8.38707 29.5709L8.04975 29.8713ZM35.9625 26.3115L35.5112 26.3303L35.512 26.3494L35.5144 26.3684L35.9625 26.3115ZM31.7721 32.8198L31.9979 33.211L31.7721 32.8198ZM11.3509 32.8198L11.1251 33.211L11.3509 32.8198ZM8.38707 29.5709C7.83579 28.9519 7.4876 28.1009 7.4876 26.9258H6.58418C6.58418 28.2944 6.99616 29.3675 7.71243 30.1717L8.38707 29.5709ZM7.4876 26.9258C7.4876 19.1839 13.7637 12.9078 21.5056 12.9078V12.0044C13.2647 12.0044 6.58418 18.6849 6.58418 26.9258H7.4876ZM21.5056 12.9078C29.048 12.9078 35.1994 18.8648 35.5112 26.3303L36.4139 26.2926C36.0819 18.3453 29.5344 12.0044 21.5056 12.0044V12.9078ZM35.5144 26.3684C35.7793 28.4546 34.5459 30.6967 31.5462 32.4286L31.9979 33.211C35.178 31.375 36.7383 28.8345 36.4107 26.2546L35.5144 26.3684ZM31.5462 32.4286C28.8115 34.0075 25.1987 34.8099 21.5615 34.8099C17.9243 34.8099 14.3115 34.0075 11.5768 32.4286L11.1251 33.211C14.0295 34.8879 17.8077 35.7133 21.5615 35.7133C25.3153 35.7133 29.0935 34.8879 31.9979 33.211L31.5462 32.4286ZM11.5768 32.4286C10.125 31.5904 9.08305 30.6274 8.42796 29.6243L7.67155 30.1183C8.42064 31.2654 9.57952 32.3187 11.1251 33.211L11.5768 32.4286Z"
                    fill="black" mask="url(#path-2-inside-1_624_4454)" />
            </g>
            <path id="Vector 289"
                d="M34.8715 28.77C34.8715 20.8837 28.8407 15.7808 26.0573 15.7808C26.0573 16.1058 25.5684 16.1862 25.1295 16.7086C24.566 17.3791 23.9986 18.4772 23.7378 18.5642C28.1913 22.2754 29.15 29.8525 28.8407 33.4091C33.2942 31.9246 34.8715 29.2339 34.8715 28.77Z"
                fill="#FFD979" />
            <ellipse id="Ellipse 349" cx="21.5408" cy="16.6699" rx="3.93351" ry="2.14555"
                fill="#3F4748" />
            <path id="Ellipse 348"
                d="M29.5404 9.16016C29.5404 13.5873 26.11 17.1589 21.8992 17.1589C17.6885 17.1589 14.2581 13.5873 14.2581 9.16016C14.2581 4.733 17.6885 1.1614 21.8992 1.1614C26.11 1.1614 29.5404 4.733 29.5404 9.16016Z"
                fill="white" stroke="black" stroke-width="0.451713" />
        </g>
    </g>
</svg>
