<svg width="25" height="24" viewBox="0 0 25 24" fill="none" xmlns="http://www.w3.org/2000/svg">
    <path fill-rule="evenodd" clip-rule="evenodd"
        d="M17.0692 16.5963H18.2207C18.8349 16.5963 19.22 15.9327 18.9153 15.3994L17.9992 13.7963V9.39629C17.9992 7.62898 16.5665 6.19629 14.7992 6.19629H14.6625C15.6338 6.92607 16.2621 8.08781 16.2621 9.39629V13.5838L17.0727 15.0025C17.3768 15.5346 17.3375 16.1316 17.0692 16.5963ZM9.77647 16.5963C9.16295 16.5954 8.7786 15.9323 9.08315 15.3994L9.9992 13.7963V9.39629C9.9992 7.78814 11.1854 6.45706 12.7306 6.23035C14.2758 6.45707 15.4621 7.78815 15.4621 9.39629V13.7963L16.3781 15.3994C16.6829 15.9327 16.2978 16.5963 15.6835 16.5963L9.77774 16.5963C9.77732 16.5963 9.77689 16.5963 9.77647 16.5963Z"
        fill="#A9C6D6" />
    <rect x="9.46133" y="16.9965" width="4.8" height="2.4" rx="1.2" fill="white" stroke="#353538"
        stroke-width="0.8" />
    <path
        d="M10.6613 5.79629C8.6731 5.79629 7.06133 7.40806 7.06133 9.39629V13.6901L6.19798 15.2009C5.74084 16.0009 6.31848 16.9963 7.23987 16.9963H15.6828C16.6042 16.9963 17.1818 16.0009 16.7247 15.2009L15.8613 13.6901V9.39629C15.8613 7.40806 14.2496 5.79629 12.2613 5.79629H10.6613Z"
        fill="white" stroke="#353538" stroke-width="0.8" />
    <rect x="10.2617" y="5.00391" width="2.4" height="1.6" rx="0.8" fill="white" />
</svg>
