<svg width="44" height="71" viewBox="0 0 44 71" fill="none" xmlns="http://www.w3.org/2000/svg">
<rect x="-0.433013" y="-0.25" width="48.227" height="45.3616" rx="3.7651" transform="matrix(0.866025 -0.5 2.20305e-08 1 1.77011 23.9827)" fill="#93B5FE" stroke="black"/>
<path d="M13.8562 27.9591L13.8562 28.0099C14.01 28.0141 14.0869 28.1388 14.0869 28.3841L14.0869 28.4602L15.0756 27.8894C15.2514 27.7879 15.3393 27.8344 15.3393 28.0289L15.3393 28.752C15.3393 28.9549 15.2514 29.1071 15.0756 29.2086L14.0869 29.7795L14.0869 29.8302C14.0869 30.4645 13.9148 31.067 13.5706 31.6378C13.2264 32.2002 12.765 32.6484 12.1864 32.9825L12.1095 33.0269L13.6805 34.0988C13.7464 34.1537 13.7793 34.2235 13.7793 34.3081C13.7793 34.4941 13.7024 34.6315 13.5486 34.7203L12.6478 35.2404C12.5892 35.2743 12.5123 35.2637 12.4171 35.2087L11.0109 34.0797L10.6374 33.8641L10.6374 32.9508C10.6374 32.8408 10.6667 32.7351 10.7253 32.6336C10.7912 32.5279 10.8718 32.4476 10.967 32.3926L11.9777 31.8091C12.5123 31.5004 12.7796 31.0966 12.7796 30.5977L12.7796 30.5342L10.9011 31.6188C10.7253 31.7203 10.6374 31.6695 10.6374 31.4666L10.6374 30.7308C10.6374 30.5448 10.7253 30.401 10.9011 30.2996L12.7796 29.215L12.7796 29.0754C12.7796 28.7456 12.6002 28.6843 12.2413 28.8915L10.9011 29.6653C10.7253 29.7668 10.6374 29.716 10.6374 29.5131L10.6374 28.7773C10.6374 28.5913 10.7253 28.4475 10.9011 28.346L15.0756 25.9359C15.2514 25.8344 15.3393 25.8809 15.3393 26.0754L15.3393 26.7984C15.3393 27.0014 15.2514 27.1536 15.0756 27.2551L13.8562 27.9591Z" fill="black"/>
<rect x="-0.433013" y="-0.25" width="39.6539" height="38.7376" rx="3.7651" transform="matrix(0.866025 -0.5 2.20305e-08 1 5.47714 24.8694)" stroke="black"/>
<path d="M17.6709 63.664L18.9058 63.821L16.3861 56.5182L14.2503 58.9782L16.77 66.281L17.225 64.1776L17.3451 63.6226L17.6709 63.664Z" fill="#62E3C4" stroke="black"/>
<path d="M10.5353 60.4876L8.68169 67.1431L10.32 66.2975L10.6477 66.1284L10.784 66.3183L11.9163 67.8955L13.7128 59.6362L10.5353 60.4876Z" fill="#62E3C4" stroke="black"/>
<rect opacity="0.5" width="26.3326" height="3.05863" transform="matrix(-0.866025 0.5 2.20305e-08 1 35.957 25.5)" fill="#495DB2"/>
<rect width="17.4333" height="6.47613" rx="2" transform="matrix(-0.866025 0.5 2.20305e-08 1 32.1016 16.7852)" fill="#495DB2"/>
<rect opacity="0.5" width="28.8269" height="3.05863" transform="matrix(-0.866025 0.5 2.20305e-08 1 35.957 30.293)" fill="#495DB2"/>
<path d="M14.9101 45.1756C14.6361 44.7046 13.8583 45.1537 13.5843 45.941C13.1661 47.1428 12.1312 48.0912 11.3298 48.0071C10.8047 47.952 10.1504 48.8153 10.2145 49.4786C10.3123 50.4911 9.60595 51.8402 8.67569 52.4176C8.06626 52.7959 7.74315 53.7994 8.12495 54.1281C8.70774 54.6298 8.55425 55.9512 7.79055 57.0068C7.29023 57.6983 7.40093 58.5234 7.97922 58.4131C8.86196 58.2448 9.31001 59.119 8.95535 60.3176C8.72299 61.1029 9.23234 61.4876 9.82354 60.9733C10.726 60.1884 11.6333 60.3379 11.8003 61.299C11.9097 61.9286 12.6559 61.7508 13.0723 60.9958C13.7079 59.8435 14.7865 59.2208 15.4221 59.6392C15.8385 59.9133 16.5848 59.2294 16.6941 58.4735C16.8611 57.3196 17.7685 56.1224 18.6709 55.8653C19.2621 55.6969 19.7714 54.7241 19.5391 54.2071C19.1844 53.418 19.6325 52.0265 20.5152 51.1755C21.0935 50.618 21.2042 49.6651 20.7039 49.5513C19.9402 49.3775 19.7867 48.2334 20.3695 47.0587C20.7513 46.2891 20.4282 45.6587 19.8187 45.9842C18.8885 46.4809 18.1821 45.9475 18.28 44.822C18.344 44.0847 17.6897 43.9769 17.1647 44.6383C16.3632 45.6478 15.3283 45.8944 14.9101 45.1756Z" fill="#62E3C4" stroke="black"/>
<circle cx="4.78509" cy="4.78509" r="4.28509" transform="matrix(-0.866025 0.5 2.20305e-08 1 18.3828 45.8008)" fill="#FFD979" stroke="black"/>
</svg>
