<svg width="65" height="71" viewBox="0 0 65 71" fill="none" xmlns="http://www.w3.org/2000/svg">
<rect width="49.8399" height="24.5366" rx="6" transform="matrix(0.866025 -0.5 0.866025 0.5 0.421875 58.5664)" fill="black"/>
<rect x="-0.433013" y="-0.25" width="48.227" height="45.3616" rx="3.7651" transform="matrix(0.866025 -0.5 2.20305e-08 1 19.7697 23.9827)" fill="#93B5FE" stroke="black"/>
<path d="M31.8559 27.9591L31.8559 28.0099C32.0097 28.0141 32.0866 28.1388 32.0866 28.3841L32.0866 28.4602L33.0753 27.8894C33.251 27.7879 33.3389 27.8344 33.3389 28.0289L33.3389 28.752C33.3389 28.9549 33.251 29.1071 33.0753 29.2086L32.0866 29.7795L32.0866 29.8302C32.0866 30.4645 31.9144 31.067 31.5702 31.6378C31.226 32.2002 30.7646 32.6484 30.186 32.9825L30.1091 33.0269L31.6801 34.0988C31.746 34.1537 31.779 34.2235 31.779 34.3081C31.779 34.4941 31.7021 34.6315 31.5483 34.7203L30.6474 35.2404C30.5888 35.2743 30.5119 35.2637 30.4167 35.2087L29.0106 34.0797L28.6371 33.8641L28.6371 32.9508C28.6371 32.8408 28.6663 32.7351 28.7249 32.6336C28.7909 32.5279 28.8714 32.4476 28.9666 32.3926L29.9773 31.8091C30.5119 31.5004 30.7793 31.0966 30.7793 30.5977L30.7793 30.5342L28.9007 31.6188C28.7249 31.7203 28.6371 31.6695 28.6371 31.4666L28.6371 30.7308C28.6371 30.5448 28.7249 30.401 28.9007 30.2996L30.7793 29.215L30.7793 29.0754C30.7793 28.7456 30.5998 28.6843 30.241 28.8915L28.9007 29.6653C28.7249 29.7668 28.6371 29.716 28.6371 29.5131L28.6371 28.7773C28.6371 28.5913 28.7249 28.4475 28.9007 28.346L33.0753 25.9359C33.251 25.8344 33.3389 25.8809 33.3389 26.0754L33.3389 26.7984C33.3389 27.0014 33.251 27.1536 33.0753 27.2551L31.8559 27.9591Z" fill="black"/>
<rect x="-0.433013" y="-0.25" width="39.6539" height="38.7376" rx="3.7651" transform="matrix(0.866025 -0.5 2.20305e-08 1 23.4768 24.8694)" stroke="black"/>
<path d="M35.6705 63.664L36.9054 63.821L34.3857 56.5182L32.2499 58.9782L34.7697 66.281L35.2247 64.1776L35.3447 63.6226L35.6705 63.664Z" fill="#62E3C4" stroke="black"/>
<path d="M28.535 60.4876L26.6813 67.1431L28.3197 66.2975L28.6473 66.1284L28.7837 66.3183L29.9159 67.8955L31.7124 59.6362L28.535 60.4876Z" fill="#62E3C4" stroke="black"/>
<rect opacity="0.5" width="26.3326" height="3.05863" transform="matrix(-0.866025 0.5 2.20305e-08 1 53.9567 25.5)" fill="#495DB2"/>
<rect width="17.4333" height="6.47613" rx="2" transform="matrix(-0.866025 0.5 2.20305e-08 1 50.1012 16.7852)" fill="#495DB2"/>
<rect opacity="0.5" width="28.8269" height="3.05863" transform="matrix(-0.866025 0.5 2.20305e-08 1 53.9567 30.293)" fill="#495DB2"/>
<path d="M35.1643 44.6383C34.3628 45.6478 33.3279 45.8944 32.9097 45.1756C32.6357 44.7046 31.8579 45.1537 31.584 45.941C31.1657 47.1428 30.1309 48.0912 29.3294 48.0071C28.8043 47.952 28.15 48.8153 28.2141 49.4786C28.3119 50.4911 27.6056 51.8402 26.6753 52.4176C26.0659 52.7959 25.7428 53.7994 26.1246 54.1281C26.7074 54.6298 26.5539 55.9512 25.7902 57.0068C25.2899 57.6983 25.4006 58.5234 25.9789 58.4131C26.8616 58.2448 27.3096 59.119 26.955 60.3176C26.7226 61.1029 27.232 61.4876 27.8232 60.9733C28.7256 60.1884 29.6329 60.3379 29.7999 61.299C29.9093 61.9286 30.6556 61.7508 31.072 60.9958C31.7076 59.8435 32.7861 59.2208 33.4217 59.6392C33.8381 59.9133 34.5844 59.2294 34.6938 58.4735C34.8607 57.3196 35.7681 56.1224 36.6705 55.8653C37.2617 55.6969 37.7711 54.7241 37.5387 54.2071C37.184 53.418 37.6321 52.0265 38.5148 51.1755C39.0931 50.618 39.2038 49.6651 38.7035 49.5513C37.9398 49.3775 37.7863 48.2334 38.3691 47.0587C38.7509 46.2891 38.4278 45.6587 37.8184 45.9842C36.8881 46.4809 36.1818 45.9475 36.2796 44.822C36.3437 44.0847 35.6893 43.9769 35.1643 44.6383Z" fill="#62E3C4" stroke="black"/>
<circle cx="4.78509" cy="4.78509" r="4.28509" transform="matrix(-0.866025 0.5 2.20305e-08 1 36.3824 45.8008)" fill="#FFD979" stroke="black"/>
</svg>
