<svg width="21" height="22" viewBox="0 0 21 22" fill="none" xmlns="http://www.w3.org/2000/svg">
<path d="M6.5 4.75C6.09 4.75 5.75 4.41 5.75 4V1C5.75 0.59 6.09 0.25 6.5 0.25C6.91 0.25 7.25 0.59 7.25 1V4C7.25 4.41 6.91 4.75 6.5 4.75ZM14.5 4.75C14.09 4.75 13.75 4.41 13.75 4V1C13.75 0.59 14.09 0.25 14.5 0.25C14.91 0.25 15.25 0.59 15.25 1V4C15.25 4.41 14.91 4.75 14.5 4.75ZM7 13.5C6.87 13.5 6.74 13.47 6.62 13.42C6.49 13.37 6.39 13.3 6.29 13.21C6.11 13.02 6 12.77 6 12.5C6 12.37 6.03 12.24 6.08 12.12C6.13 12 6.2 11.89 6.29 11.79C6.39 11.7 6.49 11.63 6.62 11.58C6.98 11.43 7.43 11.51 7.71 11.79C7.89 11.98 8 12.24 8 12.5C8 12.56 7.99 12.63 7.98 12.7C7.97 12.76 7.95 12.82 7.92 12.88C7.9 12.94 7.87 13 7.83 13.06C7.8 13.11 7.75 13.16 7.71 13.21C7.52 13.39 7.26 13.5 7 13.5ZM10.5 13.5C10.37 13.5 10.24 13.47 10.12 13.42C9.99 13.37 9.89 13.3 9.79 13.21C9.61 13.02 9.5 12.77 9.5 12.5C9.5 12.37 9.53 12.24 9.58 12.12C9.63 12 9.7 11.89 9.79 11.79C9.89 11.7 9.99 11.63 10.12 11.58C10.48 11.42 10.93 11.51 11.21 11.79C11.39 11.98 11.5 12.24 11.5 12.5C11.5 12.56 11.49 12.63 11.48 12.7C11.47 12.76 11.45 12.82 11.42 12.88C11.4 12.94 11.37 13 11.33 13.06C11.3 13.11 11.25 13.16 11.21 13.21C11.02 13.39 10.76 13.5 10.5 13.5ZM14 13.5C13.87 13.5 13.74 13.47 13.62 13.42C13.49 13.37 13.39 13.3 13.29 13.21L13.17 13.06C13.1321 13.0043 13.1019 12.9437 13.08 12.88C13.0511 12.8233 13.0309 12.7627 13.02 12.7C13.01 12.63 13 12.56 13 12.5C13 12.24 13.11 11.98 13.29 11.79C13.39 11.7 13.49 11.63 13.62 11.58C13.99 11.42 14.43 11.51 14.71 11.79C14.89 11.98 15 12.24 15 12.5C15 12.56 14.99 12.63 14.98 12.7C14.97 12.76 14.95 12.82 14.92 12.88C14.9 12.94 14.87 13 14.83 13.06C14.8 13.11 14.75 13.16 14.71 13.21C14.52 13.39 14.26 13.5 14 13.5ZM7 17C6.87 17 6.74 16.97 6.62 16.92C6.5 16.87 6.39 16.8 6.29 16.71C6.11 16.52 6 16.26 6 16C6 15.87 6.03 15.74 6.08 15.62C6.13 15.49 6.2 15.38 6.29 15.29C6.66 14.92 7.34 14.92 7.71 15.29C7.89 15.48 8 15.74 8 16C8 16.26 7.89 16.52 7.71 16.71C7.52 16.89 7.26 17 7 17ZM10.5 17C10.24 17 9.98 16.89 9.79 16.71C9.61 16.52 9.5 16.26 9.5 16C9.5 15.87 9.53 15.74 9.58 15.62C9.63 15.49 9.7 15.38 9.79 15.29C10.16 14.92 10.84 14.92 11.21 15.29C11.3 15.38 11.37 15.49 11.42 15.62C11.47 15.74 11.5 15.87 11.5 16C11.5 16.26 11.39 16.52 11.21 16.71C11.02 16.89 10.76 17 10.5 17ZM14 17C13.74 17 13.48 16.89 13.29 16.71C13.1975 16.6161 13.1259 16.5036 13.08 16.38C13.03 16.26 13 16.13 13 16C13 15.87 13.03 15.74 13.08 15.62C13.13 15.49 13.2 15.38 13.29 15.29C13.52 15.06 13.87 14.95 14.19 15.02C14.26 15.03 14.32 15.05 14.38 15.08C14.44 15.1 14.5 15.13 14.56 15.17C14.61 15.2 14.66 15.25 14.71 15.29C14.89 15.48 15 15.74 15 16C15 16.26 14.89 16.52 14.71 16.71C14.52 16.89 14.26 17 14 17ZM19 8.84H2C1.59 8.84 1.25 8.5 1.25 8.09C1.25 7.68 1.59 7.34 2 7.34H19C19.41 7.34 19.75 7.68 19.75 8.09C19.75 8.5 19.41 8.84 19 8.84Z" fill="white"/>
<path d="M14.5 21.75H6.5C2.85 21.75 0.75 19.65 0.75 16V7.5C0.75 3.85 2.85 1.75 6.5 1.75H14.5C18.15 1.75 20.25 3.85 20.25 7.5V16C20.25 19.65 18.15 21.75 14.5 21.75ZM6.5 3.25C3.64 3.25 2.25 4.64 2.25 7.5V16C2.25 18.86 3.64 20.25 6.5 20.25H14.5C17.36 20.25 18.75 18.86 18.75 16V7.5C18.75 4.64 17.36 3.25 14.5 3.25H6.5Z" fill="white"/>
</svg>
