<svg width="16" height="24" viewBox="0 0 16 24" fill="none" xmlns="http://www.w3.org/2000/svg">
<g style="mix-blend-mode:multiply" opacity="0.3">
<path d="M12.5948 13.5658C12.6027 12.1001 10.5511 10.9008 8.0123 10.8871C5.47352 10.8734 3.40901 12.0504 3.40108 13.5161C3.39315 14.9818 5.44481 16.1811 7.98358 16.1948C10.5224 16.2085 12.5869 15.0315 12.5948 13.5658Z" fill="#6BACD1"/>
</g>
<path d="M5.18932 22.1867H5.18961L5.18889 22.1731L5.00356 18.6635H10.9911L10.8058 22.177L10.8053 22.1864L10.8054 22.1958C10.8123 22.5282 10.5999 22.9132 10.0439 23.2345C9.49556 23.5509 8.75905 23.7159 8.00746 23.7146C7.25598 23.7133 6.51731 23.5457 5.96492 23.2267L5.18932 22.1867ZM5.18932 22.1867C5.18935 22.1873 5.18941 22.1881 5.18948 22.1891L5.19019 22.1986L5.1912 22.2139L5.1916 22.221V22.2277C5.20746 22.5486 5.42961 22.9174 5.96489 23.2267L5.18932 22.1867Z" fill="white" stroke="black" stroke-width="0.514403"/>
<path d="M10.2698 19.4794C9.02275 20.1997 6.99515 20.1958 5.74024 19.4716C4.48532 18.7475 4.47906 17.5763 5.72615 16.8561C6.97324 16.1359 9.00162 16.1398 10.2558 16.8639C11.5107 17.5881 11.5169 18.7592 10.2698 19.4794Z" fill="#A2878F"/>
<path d="M10.278 20.5806C9.02624 21.3032 6.99082 21.2992 5.7312 20.5727C5.15815 20.2416 4.84736 19.8181 4.79334 19.3867C4.72523 19.9089 5.03681 20.4459 5.7312 20.8467C6.99082 21.574 9.02624 21.5779 10.278 20.8546C10.9599 20.4608 11.266 19.9324 11.201 19.4157C11.1454 19.8408 10.8393 20.2565 10.278 20.5806Z" fill="black"/>
<path d="M10.2377 21.6454C9.00787 22.3554 7.00845 22.3515 5.77154 21.6375C5.20866 21.3127 4.90335 20.8962 4.8509 20.4727C4.78357 20.9854 5.08967 21.5131 5.77154 21.9068C7.00845 22.6208 9.00865 22.6247 10.2377 21.9147C10.9079 21.5279 11.2077 21.0089 11.1451 20.5008C11.0903 20.9181 10.7896 21.3268 10.2377 21.6454Z" fill="black"/>
<path d="M10.1373 19.4008C8.96297 20.0788 7.05358 20.0757 5.87147 19.393C4.69014 18.7111 4.68388 17.6081 5.85816 16.9301C7.03245 16.2522 8.94183 16.2553 10.1239 16.938C11.3053 17.6198 11.3115 18.7229 10.1373 19.4008Z" fill="#846A72"/>
<path d="M5.49658 19.13C5.60462 19.2231 5.72909 19.3116 5.87157 19.393C7.0529 20.0749 8.96307 20.0788 10.1374 19.4009C10.2744 19.3218 10.3933 19.2365 10.4983 19.1472C10.3824 18.903 10.1601 18.672 9.82734 18.4794C8.81041 17.8923 7.16798 17.8892 6.15731 18.4732C5.83086 18.6618 5.61166 18.8889 5.49736 19.1292L5.49658 19.13Z" fill="#6D5159"/>
<path d="M10.2028 22.7094C8.99254 23.4085 7.02366 23.4046 5.80553 22.7016C5.25127 22.3814 4.95065 21.9719 4.89899 21.5547C4.83323 22.0596 5.13384 22.5794 5.80553 22.967C7.02366 23.67 8.99254 23.6739 10.2028 22.9748C10.8628 22.5935 11.1579 22.0831 11.0961 21.5829C11.0421 21.9939 10.7461 22.3955 10.2028 22.7094Z" fill="black"/>
<path d="M6.73151 15.2852C6.49822 13.1347 5.99015 10.83 5.22217 8.43525L5.36152 8.39062C6.13263 10.7948 6.64227 13.1089 6.87713 15.2696L6.73151 15.2852Z" fill="#6D5159"/>
<path d="M9.22422 15.2852L9.07861 15.2696C9.31347 13.1089 9.82311 10.7948 10.5942 8.39062L10.7336 8.43525C9.96559 10.83 9.45751 13.1347 9.22422 15.2852Z" fill="#6D5159"/>
<path d="M8.13968 11.0118C8.08645 11.0118 7.96276 10.9821 7.96276 10.7042C7.96276 10.3652 8.19213 9.96203 8.42308 9.67786C8.35419 9.54399 8.25476 9.44456 8.1162 9.44456C7.95806 9.44456 7.82419 9.54634 7.7279 9.66925C7.7647 9.74675 7.7874 9.83521 7.7874 9.93385C7.7874 10.0481 7.75608 10.2415 7.63865 10.2415C7.56037 10.2415 7.51183 10.1656 7.51183 10.0442C7.51183 9.96203 7.56976 9.8039 7.67154 9.66455C7.56898 9.47431 7.37483 9.36158 7.25662 9.36158C7.20026 9.36158 7.12745 9.3835 7.05621 9.42265C7.11336 9.51737 7.14076 9.62384 7.14076 9.72718C7.14076 9.83051 7.07422 10.0959 6.95052 10.0959C6.819 10.0959 6.74933 9.92054 6.74933 9.79372C6.74933 9.62462 6.8605 9.49075 6.9881 9.40777C6.87928 9.25903 6.68435 9.14865 6.39313 9.14865C6.15279 9.14865 5.88741 9.23085 5.62437 9.38585L5.6001 9.34436C5.87018 9.18466 6.14418 9.10089 6.39313 9.10089C6.70549 9.10089 6.91373 9.22067 7.02959 9.38272C7.11023 9.3381 7.19399 9.31383 7.25662 9.31383C7.38579 9.31383 7.59012 9.42656 7.70363 9.62227C7.80697 9.49702 7.94867 9.39603 8.11698 9.39603C8.26885 9.39603 8.37845 9.49936 8.45517 9.63871C8.61723 9.44691 8.77536 9.31853 8.84973 9.31853C8.94602 9.31853 9.00865 9.3929 9.04623 9.48606C9.25917 9.29661 9.61145 9.12125 10.0921 9.12125C10.226 9.12125 10.3967 9.13064 10.4452 9.17683L10.4123 9.21206C10.3849 9.18622 10.2597 9.16978 10.0921 9.16978C9.59501 9.16978 9.2576 9.35141 9.06267 9.53538C9.08146 9.59801 9.08929 9.66455 9.08929 9.71935C9.08929 9.80077 9.08929 10.0176 8.93115 10.0176C8.87244 10.0176 8.80981 9.9589 8.80981 9.86418C8.80981 9.78119 8.87713 9.65124 9.00787 9.52363C8.97734 9.43752 8.92489 9.36863 8.84973 9.36863C8.79102 9.36863 8.63915 9.49937 8.48101 9.69195C8.56947 9.8814 8.60392 10.1186 8.60392 10.2634C8.60392 10.6502 8.34244 11.0134 8.14047 11.0134L8.13968 11.0118ZM8.44813 9.73031C8.23049 10.0043 8.01129 10.3871 8.01129 10.7042C8.01129 10.795 8.0246 10.8647 8.05122 10.9093C8.07314 10.9461 8.10289 10.9641 8.13968 10.9641C8.30017 10.9641 8.55538 10.6423 8.55538 10.2619C8.55538 10.1272 8.52485 9.90802 8.44813 9.73031ZM7.69424 9.71465C7.60812 9.83912 7.5588 9.97534 7.5588 10.045C7.5588 10.0701 7.56272 10.1945 7.63787 10.1945C7.71303 10.1945 7.73886 10.0348 7.73886 9.93463C7.73886 9.854 7.72242 9.78041 7.69424 9.71465ZM7.01394 9.44848C6.89729 9.52442 6.7963 9.64654 6.7963 9.7945C6.7963 9.88531 6.84719 10.0481 6.94974 10.0481C7.0249 10.0481 7.09222 9.83051 7.09222 9.72796C7.09222 9.63323 7.06639 9.53538 7.01394 9.44848ZM9.02275 9.57452C8.9108 9.69116 8.85756 9.80311 8.85756 9.86339C8.85756 9.93228 8.89984 9.96908 8.93115 9.96908C9.00709 9.96908 9.04153 9.89158 9.04153 9.71856C9.04153 9.67394 9.03527 9.62306 9.02353 9.57374L9.02275 9.57452Z" fill="#6D5159"/>
<path d="M9.36812 19.4838H6.58741C6.57254 19.4838 6.55923 19.4767 6.55062 19.4642C6.54279 19.4517 6.54122 19.436 6.5467 19.4227C6.54905 19.4173 6.78391 18.8646 6.77608 17.8774C6.77138 17.2237 6.83557 16.7923 6.8755 16.5904C6.75259 15.8498 6.73772 15.3276 6.73615 15.2305H6.73772C6.73694 15.2266 6.73615 15.2219 6.73615 15.218C6.73772 14.9957 6.86767 14.789 7.10175 14.6348C7.57772 14.3224 8.3551 14.324 8.83499 14.6379C9.07611 14.7961 9.20763 15.0074 9.20528 15.2337C9.20528 15.236 9.20528 15.2384 9.20528 15.2415C9.2045 15.2689 9.20215 15.2939 9.19824 15.319C9.1771 15.557 9.11995 16.1606 9.0581 16.581C9.12152 16.916 9.16692 17.5509 9.18336 17.875C9.20528 18.2939 9.40804 19.4212 9.41039 19.4329C9.41274 19.4454 9.40882 19.4587 9.401 19.4689C9.39238 19.4791 9.38064 19.4846 9.36733 19.4846L9.36812 19.4838ZM6.65082 19.3961H9.31566C9.27496 19.1667 9.11682 18.2563 9.09725 17.8789C9.08081 17.5548 9.0354 16.9184 8.97199 16.5896C8.97121 16.5849 8.97121 16.5802 8.97199 16.5747C9.03384 16.1567 9.09177 15.5492 9.1129 15.3073C9.11682 15.283 9.11838 15.2619 9.11917 15.2407C9.11917 15.2407 9.11917 15.2391 9.11917 15.2384C9.12308 15.0403 9.00565 14.8532 8.78802 14.7107C8.33553 14.414 7.60043 14.4125 7.15107 14.7076C6.94204 14.8446 6.82618 15.0254 6.82462 15.2172C6.82462 15.2211 6.82462 15.2251 6.82305 15.2282H6.82462C6.82618 15.3253 6.84106 15.8451 6.96396 16.5833C6.96475 16.5888 6.96396 16.5943 6.96396 16.599C6.93265 16.7571 6.85906 17.1971 6.86454 17.8766C6.8708 18.7064 6.71267 19.2255 6.6516 19.3961H6.65082Z" fill="#6D5159"/>
<path d="M7.9786 17.2956C7.70303 17.2956 7.4259 17.2267 7.21531 17.0882C7.01803 16.959 6.90295 16.7852 6.89121 16.5981C6.88964 16.5738 6.90765 16.5535 6.93192 16.5519C6.95384 16.5519 6.97654 16.5683 6.97811 16.5926C6.98828 16.7508 7.08927 16.9011 7.26306 17.0146C7.65684 17.2721 8.29409 17.2737 8.68473 17.0177C8.85852 16.9034 8.95873 16.7531 8.96578 16.5934C8.96656 16.5691 8.9877 16.5472 9.01118 16.5519C9.03545 16.5527 9.05424 16.573 9.05267 16.5973C9.04406 16.786 8.93055 16.9613 8.73248 17.0913C8.52503 17.2275 8.25181 17.2956 7.97781 17.2956H7.9786Z" fill="#6D5159"/>
<path d="M8.81016 15.552C8.79607 15.552 8.78198 15.5449 8.77337 15.5324C8.76006 15.5121 8.76554 15.4854 8.78589 15.4721C8.95421 15.3618 9.06146 15.2216 9.0959 15.0674C9.10138 15.0439 9.12487 15.029 9.14836 15.0345C9.17184 15.04 9.18672 15.0627 9.18124 15.087C9.14209 15.2639 9.02153 15.4228 8.83365 15.5457C8.8266 15.5504 8.81799 15.5528 8.81016 15.5528V15.552Z" fill="#6D5159"/>
<path d="M8.84684 15.4866C8.83353 15.4663 8.80692 15.4608 8.78656 15.4741C8.34033 15.7661 7.61306 15.7645 7.1637 15.471C6.99147 15.3574 6.88187 15.215 6.84743 15.0584C6.84273 15.0349 6.81925 15.02 6.79576 15.0247C6.77227 15.0302 6.7574 15.0529 6.7621 15.0764C6.80124 15.2557 6.92336 15.4169 7.11595 15.543C7.35472 15.6996 7.66786 15.7778 7.98022 15.7778C8.29258 15.7778 8.59946 15.7011 8.83432 15.5469C8.85467 15.5336 8.86015 15.507 8.84684 15.4866Z" fill="#6D5159"/>
<path d="M6.80491 15.1098C6.80099 15.1098 6.7963 15.1098 6.7916 15.1074C6.7689 15.1004 6.75559 15.0761 6.76263 15.0526C6.77124 15.0244 6.78299 14.9955 6.79629 14.9681C6.80647 14.9461 6.83309 14.9367 6.85423 14.9477C6.87615 14.9579 6.88554 14.9845 6.87458 15.0056C6.86284 15.0299 6.85344 15.0542 6.84562 15.0784C6.84014 15.0972 6.82291 15.109 6.80412 15.109L6.80491 15.1098Z" fill="#6D5159"/>
<path d="M9.18471 17.8755C9.16827 17.5514 9.12287 16.9165 9.05946 16.5814C9.1213 16.161 9.17845 15.5574 9.19959 15.3194C9.2035 15.2944 9.20585 15.2693 9.20663 15.2419C9.20663 15.2396 9.20663 15.2372 9.20663 15.2341C9.2082 15.0079 9.07668 14.7965 8.83634 14.6384C8.52633 14.4356 8.09185 14.3651 7.69416 14.4238C7.91336 14.4567 8.12238 14.5264 8.29304 14.6384C8.53416 14.7965 8.66568 15.0079 8.66333 15.2341C8.66333 15.2365 8.66333 15.2388 8.66333 15.2419C8.66255 15.2693 8.6602 15.2944 8.65629 15.3194C8.63515 15.5574 8.578 16.161 8.51615 16.5814C8.45353 16.8491 7.93997 17.1787 6.97314 16.8476C7.85542 17.6179 8.58035 17.0668 8.58739 17.1302C8.61636 17.4198 8.63202 17.679 8.64219 17.8755C8.66411 18.2943 8.86687 19.4216 8.86922 19.4333C8.87157 19.4459 8.86766 19.4592 8.85983 19.4694C8.85122 19.4795 8.83947 19.485 8.82617 19.485H9.36947C9.38278 19.485 9.39452 19.4795 9.40313 19.4694C9.41174 19.4592 9.41487 19.4467 9.41252 19.4333C9.41018 19.4216 9.20742 18.2943 9.1855 17.8755H9.18471Z" fill="#6D5159"/>
<path d="M7.9942 13.1316C7.8799 13.1316 7.7656 13.1065 7.67871 13.0564C7.58789 13.004 7.53857 12.9327 7.53857 12.8552C7.53857 12.7777 7.58789 12.708 7.67714 12.6564C7.85015 12.557 8.13198 12.557 8.30499 12.6572C8.3958 12.7096 8.44512 12.7809 8.44512 12.8584C8.44512 12.9359 8.3958 13.0055 8.30656 13.0572C8.22044 13.1065 8.10771 13.1316 7.9942 13.1316ZM7.98872 12.6454C7.88695 12.6454 7.78596 12.6673 7.70924 12.712C7.64113 12.7519 7.60277 12.802 7.60277 12.8544C7.60277 12.9069 7.64113 12.9586 7.7108 12.9993C7.86659 13.0893 8.11945 13.0893 8.27368 13.0001C8.34178 12.9601 8.38014 12.91 8.38014 12.8576C8.38014 12.8051 8.34179 12.7527 8.27211 12.7127C8.19383 12.6673 8.09127 12.6446 7.98872 12.6446V12.6454Z" fill="#6D5159"/>
<path d="M7.99463 14.9608C7.88033 14.9608 7.76603 14.9357 7.67914 14.8856C7.58363 14.8308 7.53431 14.7533 7.54057 14.6711V14.6617V12.8408H8.43616V14.6312C8.46747 14.7252 8.41815 14.8222 8.30699 14.8864C8.22087 14.9357 8.10814 14.9608 7.99463 14.9608ZM7.60555 14.6289H7.61103L7.60711 14.6664C7.59772 14.7252 7.63608 14.7847 7.71202 14.8285C7.8678 14.9185 8.11988 14.9185 8.27489 14.8293C8.36179 14.7792 8.3978 14.7126 8.37353 14.6469L8.37118 14.6359V12.9058H7.60555V14.6289Z" fill="#6D5159"/>
<path d="M8.41145 12.8784C8.18129 13.0115 7.80631 13.0107 7.57458 12.8768C7.34285 12.743 7.34129 12.5269 7.57223 12.3938C7.80239 12.2607 8.17738 12.2615 8.40911 12.3954C8.64083 12.5293 8.6424 12.7453 8.41145 12.8784Z" fill="#6D5159"/>
<path d="M7.5841 12.6079C7.57706 12.6079 7.57001 12.6025 7.56845 12.5954C7.41657 11.739 7.23652 10.8285 6.94843 9.9705C6.94608 9.96267 6.94999 9.95327 6.9586 9.95092C6.96643 9.94779 6.97504 9.95249 6.97817 9.9611C7.26705 10.8207 7.4471 11.7327 7.59898 12.5899C7.60054 12.5985 7.59506 12.6064 7.58645 12.6079C7.58567 12.6079 7.58489 12.6079 7.5841 12.6079Z" fill="#6D5159"/>
<path d="M8.50098 12.5494C8.50098 12.5494 8.49942 12.5494 8.49863 12.5494C8.49002 12.5478 8.48454 12.54 8.48611 12.5314C8.67399 11.3994 8.83839 10.5445 9.01767 9.76009C9.02001 9.75148 9.02784 9.74678 9.03645 9.74835C9.04507 9.74991 9.04976 9.75852 9.0482 9.76713C8.86892 10.5508 8.70531 11.4057 8.51742 12.5369C8.51585 12.5447 8.50959 12.5502 8.50176 12.5502L8.50098 12.5494Z" fill="#6D5159"/>
<path d="M15.6274 8.62035C15.5333 11.422 14.1715 13.7652 11.8669 15.3201C11.8893 15.2941 11.4176 16.5984 11.2224 17.2983C11.167 17.497 10.9178 18.4187 10.9409 18.3962C10.9838 19.7469 9.02381 20.1814 8.00593 20.1786C6.98243 20.1758 5.05056 19.7377 5.06039 18.3983C5.08356 18.4208 4.83997 17.4879 4.78802 17.2955C4.59848 16.5991 4.10639 15.3096 4.13026 15.3356C-0.33298 12.5332 -0.933179 6.07424 3.08921 2.64222C6.03264 0.130512 10.4348 0.317241 13.2301 2.95742C14.8082 4.44774 15.5347 6.48631 15.6281 8.62175L15.6274 8.62035Z" fill="#E7B445" stroke="black" stroke-width="0.606812" stroke-miterlimit="10"/>
<path d="M5.19238 20.2793C5.19238 20.2793 6.43321 21.391 8.68314 21.1451C8.68314 21.1451 6.49192 21.6689 5.19238 20.2793Z" fill="#949DAB"/>
<path d="M5.19238 21.332C5.19238 21.332 6.43321 22.4437 8.68314 22.1979C8.68314 22.1979 6.49192 22.7216 5.19238 21.332Z" fill="#949DAB"/>
<path d="M5.19238 22.3867C5.19238 22.3867 6.43321 23.4984 8.68314 23.2526C8.68314 23.2526 6.49192 23.7763 5.19238 22.3867Z" fill="#949DAB"/>
<g style="mix-blend-mode:multiply" opacity="0.5">
<path d="M11.1727 18.7155C11.1015 18.8814 10.9966 19.0294 10.8776 19.1617C10.7555 19.2924 10.6216 19.4036 10.4728 19.5054C10.4361 19.532 10.4016 19.5516 10.3664 19.575C10.3272 19.6017 10.2897 19.6189 10.2513 19.6408C10.1746 19.6815 10.1002 19.7285 10.0196 19.7614C9.93972 19.7958 9.86222 19.8357 9.7808 19.8655L9.55534 19.9438L9.42382 22.4489C9.434 22.9084 9.14121 23.3343 8.54233 23.6138C8.16655 23.7892 7.71563 23.8855 7.2373 23.9089C8.25502 24.0624 9.3792 23.9129 10.1738 23.4541C10.7782 23.1049 11.0733 22.6462 11.0639 22.1874L11.2628 18.4102C11.2463 18.5158 11.2173 18.6192 11.1735 18.7163L11.1727 18.7155Z" fill="#48484A"/>
</g>
<g style="mix-blend-mode:multiply" opacity="0.5">
<path d="M11.1722 18.7191C11.101 18.8851 10.9961 19.033 10.8771 19.1653C10.755 19.2961 10.6211 19.4072 10.4724 19.509C10.4356 19.5356 10.4011 19.5552 10.3659 19.5787C10.3267 19.6053 10.2892 19.6225 10.2508 19.6444C10.1741 19.6851 10.0997 19.7321 10.0191 19.765C9.93923 19.7994 9.86173 19.8394 9.78031 19.8691L9.5345 19.9544C9.36853 20.0014 9.201 20.0468 9.0319 20.0781C8.94735 20.0977 8.86202 20.1079 8.77669 20.1212C8.69136 20.1345 8.60603 20.1463 8.51991 20.1517C8.34847 20.1705 8.17624 20.1752 8.00401 20.1791C7.83178 20.1736 7.65956 20.169 7.48889 20.1486C7.40278 20.1423 7.31745 20.1298 7.2329 20.1165C7.14757 20.1032 7.06224 20.0922 6.97847 20.0727C6.80859 20.0413 6.64263 19.9952 6.47588 19.9474L6.23084 19.8605C6.14943 19.8308 6.06879 19.7893 5.98816 19.754C5.90439 19.7196 5.83707 19.6758 5.76191 19.6358C5.72277 19.6131 5.6938 19.6006 5.64683 19.5701C5.61004 19.5458 5.57246 19.5239 5.53645 19.4988C5.39162 19.4002 5.25462 19.2882 5.13328 19.1583C5.08631 19.1066 5.04247 19.0526 5.00098 18.9962C5.2828 19.5114 5.98738 20.1635 7.75193 20.2551C9.58147 20.3506 10.661 19.6875 11.2216 19.163L11.2536 18.5469H11.2317C11.2153 18.6048 11.1965 18.6627 11.1714 18.7183L11.1722 18.7191Z" fill="#868D9C"/>
</g>
<path d="M7.09091 19L6 10H10L8.54545 19" stroke="white" stroke-width="0.5"/>
</svg>
