<svg width="19" height="19" viewBox="0 0 19 19" fill="none" xmlns="http://www.w3.org/2000/svg">
<path d="M18.25 3.33135V5.8751H0.75V3.33135C0.756427 2.84007 0.957427 2.3714 1.30892 2.0281C1.66041 1.68481 2.13371 1.49493 2.625 1.5001H3.875V2.7501C3.875 3.24738 4.07254 3.7243 4.42417 4.07593C4.77581 4.42756 5.25272 4.6251 5.75 4.6251C6.24728 4.6251 6.72419 4.42756 7.07583 4.07593C7.42746 3.7243 7.625 3.24738 7.625 2.7501V1.5001H11.375V2.7501C11.375 3.24738 11.5725 3.7243 11.9242 4.07593C12.2758 4.42756 12.7527 4.6251 13.25 4.6251C13.7473 4.6251 14.2242 4.42756 14.5758 4.07593C14.9275 3.7243 15.125 3.24738 15.125 2.7501V1.5001H16.375C16.8663 1.49493 17.3396 1.68481 17.6911 2.0281C18.0426 2.3714 18.2436 2.84007 18.25 3.33135ZM0.75 7.1251V17.1689C0.756427 17.6601 0.957427 18.1288 1.30892 18.4721C1.66041 18.8154 2.13371 19.0053 2.625 19.0001H16.375C16.8663 19.0053 17.3396 18.8154 17.6911 18.4721C18.0426 18.1288 18.2436 17.6601 18.25 17.1689V7.1251H0.75ZM6.375 15.8751C6.37451 16.0407 6.3085 16.1994 6.1914 16.3165C6.07429 16.4336 5.91561 16.4996 5.75 16.5001H4.5C4.33439 16.4996 4.17571 16.4336 4.0586 16.3165C3.9415 16.1994 3.87549 16.0407 3.875 15.8751V14.6251C3.87549 14.4595 3.9415 14.3008 4.0586 14.1837C4.17571 14.0666 4.33439 14.0006 4.5 14.0001H5.75C5.91561 14.0006 6.07429 14.0666 6.1914 14.1837C6.3085 14.3008 6.37451 14.4595 6.375 14.6251V15.8751ZM6.375 11.5001C6.37451 11.6657 6.3085 11.8244 6.1914 11.9415C6.07429 12.0586 5.91561 12.1246 5.75 12.1251H4.5C4.33439 12.1246 4.17571 12.0586 4.0586 11.9415C3.9415 11.8244 3.87549 11.6657 3.875 11.5001V10.2501C3.87549 10.0845 3.9415 9.92581 4.0586 9.80871C4.17571 9.6916 4.33439 9.6256 4.5 9.6251H5.75C5.91561 9.6256 6.07429 9.6916 6.1914 9.80871C6.3085 9.92581 6.37451 10.0845 6.375 10.2501V11.5001ZM10.75 15.8751C10.7495 16.0407 10.6835 16.1994 10.5664 16.3165C10.4493 16.4336 10.2906 16.4996 10.125 16.5001H8.875C8.70939 16.4996 8.55071 16.4336 8.4336 16.3165C8.3165 16.1994 8.25049 16.0407 8.25 15.8751V14.6251C8.25049 14.4595 8.3165 14.3008 8.4336 14.1837C8.55071 14.0666 8.70939 14.0006 8.875 14.0001H10.125C10.2906 14.0006 10.4493 14.0666 10.5664 14.1837C10.6835 14.3008 10.7495 14.4595 10.75 14.6251V15.8751ZM10.75 11.5001C10.7495 11.6657 10.6835 11.8244 10.5664 11.9415C10.4493 12.0586 10.2906 12.1246 10.125 12.1251H8.875C8.70939 12.1246 8.55071 12.0586 8.4336 11.9415C8.3165 11.8244 8.25049 11.6657 8.25 11.5001V10.2501C8.25049 10.0845 8.3165 9.92581 8.4336 9.80871C8.55071 9.6916 8.70939 9.6256 8.875 9.6251H10.125C10.2906 9.6256 10.4493 9.6916 10.5664 9.80871C10.6835 9.92581 10.7495 10.0845 10.75 10.2501V11.5001ZM15.125 11.5001C15.1245 11.6657 15.0585 11.8244 14.9414 11.9415C14.8243 12.0586 14.6656 12.1246 14.5 12.1251H13.25C13.0844 12.1246 12.9257 12.0586 12.8086 11.9415C12.6915 11.8244 12.6255 11.6657 12.625 11.5001V10.2501C12.6255 10.0845 12.6915 9.92581 12.8086 9.80871C12.9257 9.6916 13.0844 9.6256 13.25 9.6251H14.5C14.6656 9.6256 14.8243 9.6916 14.9414 9.80871C15.0585 9.92581 15.1245 10.0845 15.125 10.2501V11.5001Z" fill="white"/>
<path d="M6.375 1.5V2.75C6.375 2.91576 6.30915 3.07473 6.19194 3.19194C6.07473 3.30915 5.91576 3.375 5.75 3.375C5.58424 3.375 5.42527 3.30915 5.30806 3.19194C5.19085 3.07473 5.125 2.91576 5.125 2.75V1.5C5.125 1.33424 5.19085 1.17527 5.30806 1.05806C5.42527 0.940848 5.58424 0.875 5.75 0.875C5.91576 0.875 6.07473 0.940848 6.19194 1.05806C6.30915 1.17527 6.375 1.33424 6.375 1.5ZM13.875 1.5V2.75C13.875 2.91576 13.8092 3.07473 13.6919 3.19194C13.5747 3.30915 13.4158 3.375 13.25 3.375C13.0842 3.375 12.9253 3.30915 12.8081 3.19194C12.6908 3.07473 12.625 2.91576 12.625 2.75V1.5C12.625 1.33424 12.6908 1.17527 12.8081 1.05806C12.9253 0.940848 13.0842 0.875 13.25 0.875C13.4158 0.875 13.5747 0.940848 13.6919 1.05806C13.8092 1.17527 13.875 1.33424 13.875 1.5Z" fill="white"/>
</svg>
