<svg width="95" height="87" viewBox="0 0 95 87" fill="none" xmlns="http://www.w3.org/2000/svg">
    <g id="Group 1244832254">
        <circle id="Ellipse 4092" opacity="0.2" cx="43.5" cy="43.5" r="43.5" fill="black" />
        <g id="Group 1244832105">
            <g id="Group">
                <path id="Vector"
                    d="M10.9229 56.0872L53.5192 57.2337C55.5687 57.2858 57.6008 56.8428 59.4419 55.9309L89.2984 42.2773L57.6877 27.9724L10.8187 53.7682C9.33368 54.2112 10.2976 56.0698 10.9229 56.0872Z"
                    fill="black" />
                <path id="Vector_2"
                    d="M68.6993 43.1938C69.1529 36.8494 65.4679 31.4164 60.4686 31.0589C55.4694 30.7014 51.049 35.5547 50.5954 41.8991C50.1418 48.2436 53.8267 53.6765 58.826 54.0341C63.8252 54.3916 68.2457 49.5383 68.6993 43.1938Z"
                    fill="#627F8E" stroke="#262127" stroke-width="0.738213"
                    stroke-miterlimit="10" />
                <path id="Vector_3"
                    d="M26.7718 43.2C27.2254 36.8555 23.5404 31.4225 18.5411 31.065C13.5419 30.7075 9.12147 35.5608 8.66787 41.9052C8.21427 48.2497 11.8993 53.6827 16.8985 54.0402C21.8978 54.3977 26.3182 49.5444 26.7718 43.2Z"
                    fill="#627F8E" stroke="#262127" stroke-width="0.738213"
                    stroke-miterlimit="10" />
                <g id="Group_2">
                    <path id="Vector_4"
                        d="M66.4608 43.3663C66.7529 39.2803 65.6053 35.8688 63.8974 35.7467C62.1895 35.6246 60.5682 38.838 60.276 42.924C59.9839 47.0101 61.1316 50.4215 62.8395 50.5437C64.5473 50.6658 66.1687 47.4524 66.4608 43.3663Z"
                        fill="#1B262C" />
                    <path id="Vector_5"
                        d="M66.4635 43.3544C66.2725 45.5605 65.569 50.3896 62.8335 50.6588C62.0085 50.5893 61.4527 49.9292 61.088 49.3039C59.4553 46.0208 59.7506 42.0168 60.9229 38.6295C61.4701 37.344 62.269 35.6243 63.9017 35.6069C66.5764 36.267 66.5851 41.1482 66.4548 43.3544H66.4635ZM66.4635 43.3544C66.5504 41.183 66.4635 36.5102 63.8843 35.8762C60.1935 36.4755 59.8027 46.4811 61.4006 49.1302C62.1474 50.6849 63.5109 50.7978 64.5356 49.4081C65.8296 47.6884 66.2464 45.4649 66.4635 43.3544Z"
                        fill="#F0F2F8" />
                </g>
                <path id="Vector_6"
                    d="M93.5212 33.6746C93.8893 28.5263 91.2364 24.1418 87.5958 23.8814C83.9552 23.621 80.7055 27.5835 80.3374 32.7317C79.9693 37.88 82.6222 42.2645 86.2629 42.5249C89.9035 42.7852 93.1531 38.8228 93.5212 33.6746Z"
                    fill="#627F8E" stroke="#262127" stroke-width="0.564516"
                    stroke-miterlimit="10" />
                <g id="Group_3">
                    <path id="Vector_7"
                        d="M91.7001 33.8072C91.9163 30.7833 91.1685 28.266 90.0299 28.1845C88.8913 28.1031 87.7931 30.4884 87.5769 33.5123C87.3607 36.5362 88.1084 39.0536 89.247 39.135C90.3856 39.2164 91.4839 36.8311 91.7001 33.8072Z"
                        fill="#1B262C" />
                    <path id="Vector_8"
                        d="M91.6829 33.8002C91.5266 35.3636 91.1358 38.9507 89.2252 39.2286C86.2639 38.5685 86.9847 28.3197 90.0242 28.0852C91.8739 28.6237 91.7524 32.2455 91.6829 33.8089V33.8002ZM91.6829 33.8002C91.7263 32.2542 91.7784 28.8148 90.0068 28.2676C87.4623 28.589 86.7589 38.3514 89.2339 39.0376C91.0576 38.7509 91.5005 35.3376 91.6742 33.8002H91.6829Z"
                        fill="#F0F2F8" />
                </g>
                <g id="Group_4">
                    <path id="Vector_9"
                        d="M93.2079 28.2764C93.2079 28.2764 92.4871 23.0478 87.6586 21.6755C87.6586 21.6755 84.2804 20.6332 82.1875 16.7682C80.0946 12.9032 76.8728 10.8881 76.8728 10.8881C76.8728 10.8881 70.1946 7.90904 65.2011 8.2304C60.2077 8.55176 45.2447 8.20435 45.2447 8.20435C45.2447 8.20435 38.9312 8.98604 35.362 15.4914L30.9851 20.7982C30.9851 20.7982 15.6226 23.2823 7.00783 27.0605C7.00783 27.0605 0.729107 29.5532 3.46465 36.7187L3.26491 40.4447C3.26491 40.4447 1.95359 40.8877 2.01438 41.4349C2.07517 41.9821 3.52544 45.7255 3.52544 45.7255C3.52544 45.7255 3.37781 47.1846 4.07255 49.1041C4.33308 49.825 6.66915 50.294 6.66915 50.294C6.66915 50.294 29.7867 54.1156 48.6228 52.6652L52.661 52.3004C54.2329 52.1614 55.5182 50.9889 55.8047 49.4342L56.7079 44.5182C56.7079 44.5182 58.3405 33.2879 63.7682 32.263C69.1959 31.2382 68.2927 44.6398 68.2927 44.6398L82.8997 38.9074L83.5683 38.8814C85.2097 38.8292 86.5818 37.6046 86.8249 35.9804C87.346 32.5757 88.4228 27.1473 90.1336 26.0443C92.6694 24.4114 93.1905 28.2764 93.1905 28.2764H93.2079Z"
                        fill="#93B5FE" />
                    <g id="Clip path group">
                        <mask id="mask0_728_23779" style="mask-type:luminance"
                            maskUnits="userSpaceOnUse" x="1" y="8" width="93" height="45">
                            <g id="clippath">
                                <path id="Vector_10"
                                    d="M93.1936 28.2762C93.1936 28.2762 92.4728 23.0475 87.6443 21.6752C87.6443 21.6752 84.2662 20.633 82.1733 16.768C80.0803 12.9029 76.8585 10.8879 76.8585 10.8879C76.8585 10.8879 70.1803 7.9088 65.1868 8.23016C60.1934 8.55152 45.2304 8.2041 45.2304 8.2041C45.2304 8.2041 38.9169 8.98579 35.3477 15.4912L30.9708 20.798C30.9708 20.798 15.6083 23.282 6.99355 27.0602C6.99355 27.0602 0.714825 29.5529 3.45037 36.7184L3.25063 40.4445C3.25063 40.4445 1.93931 40.8875 2.0001 41.4346C2.06089 41.9818 3.51116 45.7252 3.51116 45.7252C3.51116 45.7252 3.36353 47.1844 4.05827 49.1039C4.3188 49.8248 6.65486 50.2938 6.65486 50.2938C6.65486 50.2938 29.7724 54.1154 48.6086 52.6649L52.6467 52.3001C54.2186 52.1612 55.5039 50.9886 55.7905 49.4339L56.6936 44.518C56.6936 44.518 58.3263 33.2877 63.7539 32.2628C69.1816 31.2379 68.2784 44.6396 68.2784 44.6396L82.8854 38.9072L83.5541 38.8811C85.1954 38.829 86.5675 37.6044 86.8107 35.9802C87.3317 32.5755 88.4086 27.1471 90.1194 26.044C92.6552 24.4111 93.1762 28.2762 93.1762 28.2762H93.1936Z"
                                    fill="white" />
                            </g>
                        </mask>
                        <g mask="url(#mask0_728_23779)">
                            <g id="Group_5">
                                <path id="Vector_11"
                                    d="M89.3224 22.3783C89.3224 22.3783 85.7965 23.5248 84.2681 30.1257C82.7397 36.7267 69.0533 43.7011 69.0533 43.7011L82.896 38.898L85.6315 38.733L86.5868 36.7962L88.81 27.9283L90.1387 26.0349L91.8234 25.7483L91.1634 23.9156L89.3137 22.3696L89.3224 22.3783Z"
                                    fill="#F4EDD9" />
                                <g id="Group_6">
                                    <path id="Vector_12"
                                        d="M41.3179 9.98436L66.5457 10.6358C67.3447 10.6531 67.9873 11.3132 67.9873 12.121V21.2494C67.9873 22.0919 67.2839 22.7693 66.4328 22.7259L31.0792 21.0323C30.9663 21.0323 30.9055 20.8933 30.975 20.7977L39.0513 11.0092C39.6071 10.3318 40.4408 9.95831 41.3179 9.97568V9.98436Z"
                                        fill="#FFD979" />
                                    <g id="Clip path group_2">
                                        <mask id="mask1_728_23779" style="mask-type:luminance"
                                            maskUnits="userSpaceOnUse" x="30" y="9" width="38"
                                            height="14">
                                            <g id="clippath-1">
                                                <path id="Vector_13"
                                                    d="M41.3092 9.98461L66.537 10.636C67.336 10.6534 67.9786 11.3135 67.9786 12.1212V21.2496C67.9786 22.0921 67.2752 22.7696 66.4241 22.7262L31.0705 21.0325C30.9576 21.0325 30.8968 20.8935 30.9663 20.798L39.0426 11.0095C39.5984 10.332 40.4321 9.95855 41.3092 9.97592V9.98461Z"
                                                    fill="white" />
                                            </g>
                                        </mask>
                                        <g mask="url(#mask1_728_23779)">
                                            <g id="Group_7">
                                                <path id="Vector_14"
                                                    d="M38.5224 21.3971L51.1667 10.3752L58.8957 10.436L47.884 21.6663L38.5224 21.3971Z"
                                                    fill="#F0F2F8" />
                                                <path id="Vector_15"
                                                    d="M50.0167 21.7531L60.8286 10.488L62.6089 10.5488L52.014 21.8052L50.0167 21.7531Z"
                                                    fill="#F0F2F8" />
                                            </g>
                                        </g>
                                    </g>
                                    <path id="Vector_16"
                                        d="M41.3179 9.98436L66.5457 10.6358C67.3447 10.6531 67.9873 11.3132 67.9873 12.121V21.2494C67.9873 22.0919 67.2839 22.7693 66.4328 22.7259L31.0792 21.0323C30.9663 21.0323 30.9055 20.8933 30.975 20.7977L39.0513 11.0092C39.6071 10.3318 40.4408 9.95831 41.3179 9.97568V9.98436Z"
                                        stroke="#262127" stroke-width="0.425558"
                                        stroke-miterlimit="10" />
                                </g>
                                <path id="Vector_17"
                                    d="M52.3668 42.9717C52.3668 42.9717 56.5439 30.7253 61.9195 31.3159C61.9195 31.3159 65.0371 31.3159 66.4787 33.2006C66.4787 33.2006 62.3971 30.925 59.6268 35.0245C56.8565 39.1328 56.5352 43.8403 56.5352 43.8403L52.3668 44.8738V42.9717Z"
                                    fill="#F4EDD9" />
                                <path id="Vector_18"
                                    d="M15.2943 51.136V47.436C18.3338 47.905 21.6425 48.2872 25.1944 48.5304C28.7202 48.7736 32.0289 48.8431 35.0944 48.7997V52.6647C31.9594 52.5952 28.6681 52.4475 25.2291 52.1783C21.7467 51.909 18.438 51.5529 15.303 51.136H15.2943Z"
                                    fill="#1F2C65" />
                                <path id="Vector_19"
                                    d="M60.4513 31.0552C60.4513 31.0552 54.5547 29.8132 49.6307 43.1714C49.6307 43.1714 50.4296 43.736 52.3662 42.9716C54.3028 42.2073 53.6515 36.805 60.4513 31.0552Z"
                                    fill="black" />
                            </g>
                        </g>
                    </g>
                    <path id="Vector_20"
                        d="M93.2079 28.2764C93.2079 28.2764 92.4871 23.0478 87.6586 21.6755C87.6586 21.6755 84.2804 20.6332 82.1875 16.7682C80.0946 12.9032 76.8728 10.8881 76.8728 10.8881C76.8728 10.8881 70.1946 7.90904 65.2011 8.2304C60.2077 8.55176 45.2447 8.20435 45.2447 8.20435C45.2447 8.20435 38.9312 8.98604 35.362 15.4914L30.9851 20.7982C30.9851 20.7982 15.6226 23.2823 7.00783 27.0605C7.00783 27.0605 0.729108 29.5532 3.46465 36.7187L3.26491 40.4447C3.26491 40.4447 1.95359 40.8877 2.01438 41.4349C2.07517 41.9821 3.52544 45.7255 3.52544 45.7255C3.52544 45.7255 3.37781 47.1846 4.07255 49.1041C4.33308 49.825 6.66915 50.294 6.66915 50.294C6.66915 50.294 29.7867 54.1156 48.6228 52.6652L52.661 52.3004C54.2329 52.1614 55.5182 50.9889 55.8047 49.4342L56.7079 44.5182C56.7079 44.5182 58.3405 33.2879 63.7682 32.263C69.1959 31.2382 68.2927 44.6398 68.2927 44.6398L82.8996 38.9074L83.5683 38.8814C85.2097 38.8292 86.5818 37.6046 86.8249 35.9804C87.346 32.5757 88.4228 27.1473 90.1336 26.0443C92.6695 24.4114 93.1905 28.2764 93.1905 28.2764H93.2079Z"
                        stroke="#262127" stroke-width="0.64268" stroke-miterlimit="10" />
                </g>
                <path id="Vector_21"
                    d="M40.3549 42.2165V41.6953C40.3549 40.766 41.1278 40.0277 42.057 40.0712L48.466 40.3751C49.3344 40.4186 50.0118 41.1308 50.0118 41.9993V42.1557C50.0118 43.0503 49.291 43.7712 48.4052 43.7798L41.9962 43.8406C41.0931 43.8406 40.3549 43.1198 40.3549 42.2165Z"
                    fill="#FBAC33" stroke="#262127" stroke-width="0.425558"
                    stroke-miterlimit="10" />
                <path id="Vector_22"
                    d="M3.34167 38.8117L3.37641 38.2906C3.44589 37.3612 4.13194 36.6751 4.89616 36.7706L10.1588 37.4568C10.8709 37.5523 11.3833 38.2992 11.3225 39.1678V39.3241C11.2444 40.21 10.6017 40.8962 9.87225 40.8528L4.58353 40.5314C3.83668 40.488 3.28089 39.715 3.35036 38.8117H3.34167Z"
                    fill="#FBAC33" stroke="#262127" stroke-width="0.390819"
                    stroke-miterlimit="10" />
                <path id="Vector_23"
                    d="M2.23401 42.1818C2.23401 42.1818 17.3881 43.8494 22.0255 44.2923C28.1739 44.8916 41.3306 45.847 41.3306 45.847C41.3306 45.847 48.5906 46.2813 54.2875 44.3097L54.3223 42.1991C54.3223 42.1991 51.3783 44.1186 41.5477 44.2315C35.9029 44.2923 13.9751 42.1818 13.9751 42.1818C13.9751 42.1818 5.91614 41.1569 3.27612 40.4534L2.23401 42.1818Z"
                    fill="#F4EDD9" />
                <path id="Vector_24"
                    d="M50.1335 35.6242C50.6257 32.8664 49.1223 30.2912 46.7757 29.8723C44.4291 29.4534 42.1278 31.3494 41.6356 34.1072C41.1435 36.865 42.6468 39.4402 44.9934 39.8591C47.3401 40.278 49.6413 38.3819 50.1335 35.6242Z"
                    fill="#F4EDD9" stroke="#262127" stroke-width="0.64268" stroke-miterlimit="10" />
                <path id="Vector_25"
                    d="M11.6558 32.8029C12.148 30.0451 10.6447 27.4699 8.29804 27.051C5.95142 26.6321 3.65014 28.5281 3.15798 31.2859C2.66582 34.0437 4.16915 36.6189 6.51577 37.0378C8.86239 37.4567 11.1637 35.5606 11.6558 32.8029Z"
                    fill="#F4EDD9" stroke="#262127" stroke-width="0.64268" stroke-miterlimit="10" />
                <path id="Vector_26"
                    d="M69.0635 11.4701L69.2632 21.8666C69.2719 22.3269 69.6801 22.6657 70.1316 22.5962L79.7364 21.0328L77.3569 12.5471C77.3569 12.5471 75.8633 10.81 69.8103 10.7058C69.3848 10.7058 69.0461 11.0445 69.0548 11.4701H69.0635Z"
                    fill="#FFD979" stroke="#262127" stroke-width="0.425558"
                    stroke-miterlimit="10" />
                <path id="Vector_27"
                    d="M78.5633 13.6501L80.552 20.7288L82.4191 20.4074C82.8707 20.2945 83.0618 19.756 82.7752 19.3825L78.5633 13.6501Z"
                    fill="#F4EDD9" stroke="#262127" stroke-width="0.425558"
                    stroke-miterlimit="10" />
                <g id="Group_8">
                    <path id="Vector_28"
                        d="M73.3818 24.7848C75.6744 24.7848 77.5329 23.7699 77.5329 22.5179C77.5329 21.2659 75.6744 20.251 73.3818 20.251C71.0892 20.251 69.2307 21.2659 69.2307 22.5179C69.2307 23.7699 71.0892 24.7848 73.3818 24.7848Z"
                        fill="#93B5FE" />
                    <g id="Clip path group_3">
                        <mask id="mask2_728_23779" style="mask-type:luminance"
                            maskUnits="userSpaceOnUse" x="69" y="20" width="9" height="5">
                            <g id="clippath-2">
                                <path id="Vector_29"
                                    d="M73.3836 24.7848C75.6762 24.7848 77.5347 23.7699 77.5347 22.5179C77.5347 21.2659 75.6762 20.251 73.3836 20.251C71.091 20.251 69.2325 21.2659 69.2325 22.5179C69.2325 23.7699 71.091 24.7848 73.3836 24.7848Z"
                                    fill="white" />
                            </g>
                        </mask>
                        <g mask="url(#mask2_728_23779)">
                            <g id="Group_9">
                                <path id="Vector_30"
                                    d="M71.2509 25.2798H69.2795L73.4133 19.365H75.3846L71.2509 25.2798Z"
                                    fill="#F0F2F8" />
                                <path id="Vector_31"
                                    d="M72.8076 25.4707H71.6786L75.8124 19.5559H76.9413L72.8076 25.4707Z"
                                    fill="#F0F2F8" />
                            </g>
                        </g>
                    </g>
                    <path id="Vector_32"
                        d="M73.3818 24.7848C75.6744 24.7848 77.5329 23.7699 77.5329 22.5179C77.5329 21.2659 75.6744 20.251 73.3818 20.251C71.0892 20.251 69.2307 21.2659 69.2307 22.5179C69.2307 23.7699 71.0892 24.7848 73.3818 24.7848Z"
                        stroke="#262127" stroke-width="0.425558" stroke-miterlimit="10" />
                </g>
                <path id="Vector_33"
                    d="M69.0654 23.1519C69.0654 23.1519 70.8631 31.2554 69.4649 40.4533C69.4649 40.4533 71.2018 35.1465 71.0889 29.4835C70.976 23.8206 73.3902 24.776 73.3902 24.776C73.3902 24.776 69.7949 25.5056 69.0654 23.1519Z"
                    fill="#262127" />
                <path id="Vector_34"
                    d="M20.232 30.0568C24.4439 28.0418 28.7599 26.2699 33.1108 24.585C36.4542 24.6197 39.789 24.8976 43.089 25.4709C46.9361 26.1831 46.9969 26.2873 43.0195 26.5044C39.7369 26.6521 36.4629 26.4871 33.1976 26.1223L33.5102 26.0789C29.1247 27.5467 24.7218 28.9364 20.232 30.0655V30.0568Z"
                    fill="#262127" />
                <path id="Vector_35"
                    d="M33.5797 26.1486L20.232 30.057L32.9979 24.5417L33.5797 26.1486Z"
                    fill="white" />
                <path id="Vector_36"
                    d="M27.6134 37.4135C27.6134 38.2039 26.9707 39.6717 26.1805 39.6717C25.3902 39.6717 24.7476 38.2125 24.7476 37.4135C24.7476 36.6144 25.3902 36.7534 26.1805 36.7534C26.9707 36.7534 27.6134 36.6231 27.6134 37.4135Z"
                    fill="white" />
            </g>
            <path id="Vector_37"
                d="M83.0681 9.32464H82.7555C82.7555 7.10116 80.9578 5.30328 78.7346 5.30328V4.9906C80.9578 4.9906 82.7555 3.19271 82.7555 0.969238H83.0681C83.0681 3.19271 84.8657 4.9906 87.0889 4.9906V5.30328C84.8657 5.30328 83.0681 7.10116 83.0681 9.32464Z"
                fill="#FFDA72" />
            <path id="Vector_38"
                d="M92.6814 15.8562H92.5164C92.5164 14.6836 91.5698 13.7369 90.3975 13.7369V13.5719C91.5698 13.5719 92.5164 12.6252 92.5164 11.4526H92.6814C92.6814 12.6252 93.628 13.5719 94.8004 13.5719V13.7369C93.628 13.7369 92.6814 14.6836 92.6814 15.8562Z"
                fill="#F79780" />
            <path id="Vector_39"
                d="M20.3743 19.4784H20.1051C20.1051 17.5502 18.5419 15.9955 16.6227 15.9955V15.7263C18.5506 15.7263 20.1051 14.1629 20.1051 12.2434H20.3743C20.3743 14.1716 21.9375 15.7263 23.8567 15.7263V15.9955C21.9288 15.9955 20.3743 17.5589 20.3743 19.4784Z"
                fill="#93B5FE" />
        </g>
    </g>
</svg>
