<svg width="59" height="38" viewBox="0 0 59 38" fill="none" xmlns="http://www.w3.org/2000/svg">
<g style="mix-blend-mode:multiply">
<path d="M0.780304 26.3248L20.3437 37.4467L58.1166 15.4989L38.5477 4.37695L0.780304 26.3248Z" fill="black"/>
</g>
<path d="M0.917328 25.2994L20.0148 36.3227L57.7822 14.3748L38.6902 3.35156L0.917328 25.2994Z" fill="#127F7F" stroke="black" stroke-width="0.25" stroke-miterlimit="10"/>
<path d="M51.0181 13.1079C49.8176 13.8095 49.8231 14.9387 51.0345 15.6404L39.2932 22.4648C41.1185 20.1352 40.3676 17.2903 37.0403 15.3718C33.7185 13.4532 28.8016 13.0257 24.7837 14.0891L36.5251 7.26465C37.7365 7.96628 39.6933 7.96628 40.8938 7.26465L51.0181 13.1079Z" fill="#ADDA88" stroke="black" stroke-width="0.25" stroke-miterlimit="10"/>
<path d="M33.9213 25.5837L22.18 32.4082C20.9686 31.7065 19.0117 31.7065 17.8113 32.4082L7.68698 26.5649C8.8929 25.8633 8.88194 24.7341 7.67053 24.0325L19.4119 17.208C17.5865 19.5376 18.3375 22.3825 21.6648 24.301C24.9865 26.2196 29.9034 26.6471 33.9213 25.5837Z" fill="#ADDA88" stroke="black" stroke-width="0.25" stroke-miterlimit="10"/>
<path d="M38.6957 4.40918L55.9569 14.3745L20.0094 35.2644L2.74817 25.2991L38.6957 4.40918ZM20.0039 34.7327L55.0415 14.3745L38.7012 4.94088L3.66358 25.2991L20.0039 34.7327Z" fill="#62E1C2" stroke="black" stroke-width="0.25" stroke-miterlimit="10"/>
<path d="M32.9621 18.0587C33.9159 18.6068 34.0584 19.4839 32.9401 20.4103L33.9213 20.9749L32.6825 21.6929L31.7507 21.1558C30.8243 21.6326 29.7335 21.9889 28.8839 22.1095L28.0233 20.8433C28.9441 20.7063 29.9418 20.3883 30.6215 19.9937C31.208 19.6538 31.2902 19.4565 31.0819 19.3359C30.309 18.8864 27.5354 21.2215 25.2332 19.895C24.2356 19.3194 24.1095 18.415 25.3538 17.4612L24.389 16.9021L25.6278 16.184L26.5761 16.7322C27.2833 16.3923 28.0836 16.1237 28.8619 15.9922L29.7554 17.2255C28.8455 17.4009 28.1219 17.6476 27.5847 17.9546C26.9818 18.3054 26.9653 18.5191 27.1791 18.6452C27.9136 19.0673 30.6873 16.7431 32.9676 18.0587H32.9621Z" fill="#ADDA88" stroke="black" stroke-width="0.25" stroke-miterlimit="10"/>
<path d="M1.31747 22.8981L20.4095 33.9213L58.1824 11.9735L39.0849 0.950195L1.31747 22.8981Z" fill="#127F7F" stroke="black" stroke-width="0.25" stroke-miterlimit="10"/>
<path d="M51.4182 10.7065C50.2178 11.4082 50.2233 12.5374 51.4347 13.239L39.6933 20.0634C41.5187 17.7338 40.7677 14.8889 37.4404 12.9704C34.1187 11.0519 29.2018 10.6243 25.1839 11.6877L36.9252 4.86328C38.1366 5.56491 40.0935 5.56491 41.2939 4.86328L51.4182 10.7065Z" fill="#62E1C2" stroke="black" stroke-width="0.25" stroke-miterlimit="10"/>
<path d="M34.316 23.1823L22.5747 30.0068C21.3633 29.3052 19.4064 29.3052 18.2059 30.0068L8.08163 24.1635C9.28756 23.4619 9.27659 22.3327 8.06519 21.6311L19.8065 14.8066C17.9812 17.1363 18.7322 19.9812 22.0594 21.8997C25.3812 23.8182 30.2981 24.2458 34.316 23.1823Z" fill="#62E1C2" stroke="black" stroke-width="0.25" stroke-miterlimit="10"/>
<path d="M39.0904 2.00781L56.3516 11.9732L20.404 32.8631L3.14282 22.8977L39.0904 2.00781ZM20.3985 32.3314L55.4362 11.9732L39.0959 2.53952L4.05823 22.8977L20.3985 32.3314Z" fill="#62E1C2" stroke="black" stroke-width="0.25" stroke-miterlimit="10"/>
</svg>
