<svg width="75" height="52" viewBox="0 0 75 52" fill="none" xmlns="http://www.w3.org/2000/svg">
<g style="mix-blend-mode:multiply">
<path d="M0.0158539 29.8183L37.0652 51.5743L74.3831 29.3195L37.3338 7.56348L0.0158539 29.8183Z" fill="black"/>
</g>
<path d="M27.6316 13.3631L28.0427 14.6238C27.5987 14.6732 27.2259 14.7335 26.919 14.8102C26.612 14.887 26.2996 15.0185 25.9816 15.2049C25.5102 15.479 25.3896 15.6818 25.6253 15.8188C25.7185 15.8736 25.8336 15.8846 25.9652 15.8462C26.0968 15.8078 26.327 15.7037 26.6613 15.5338C27.3739 15.1775 28.092 14.9637 28.8156 14.8924C29.5391 14.8212 30.1695 14.9363 30.7012 15.2433C31.1671 15.5119 31.4138 15.8572 31.4412 16.2683C31.4631 16.6849 31.2603 17.0905 30.8273 17.4961L31.9455 18.1923L29.709 19.3653L28.6018 18.6089C27.9111 18.8007 27.2588 18.883 26.6449 18.8556L26.3873 17.4578C26.7216 17.4413 27.0999 17.3701 27.511 17.244C27.9276 17.1179 28.2455 16.9864 28.4702 16.8548C28.6676 16.7397 28.7882 16.6301 28.8265 16.5204C28.8704 16.4108 28.8265 16.3176 28.7059 16.2464C28.6128 16.1915 28.5086 16.1806 28.4045 16.2135C28.3003 16.2464 28.081 16.3395 27.7576 16.4985C26.9135 16.8767 26.157 17.1015 25.4883 17.1672C24.8196 17.233 24.255 17.1398 23.8055 16.8767C23.4602 16.6794 23.2464 16.4327 23.1642 16.1313C23.0765 15.8353 23.1313 15.5283 23.3176 15.2158L22.0788 14.4101L24.107 13.1055L25.2581 13.8455C25.6528 13.703 26.0584 13.5878 26.475 13.5001C26.8916 13.4124 27.2808 13.3686 27.637 13.3631H27.6316Z" fill="#ADDA88" stroke="black" stroke-width="0.25" stroke-miterlimit="10"/>
<path d="M53.9098 10.9951L53.8879 18.428L18.3788 39.0658L18.4007 31.6329L53.9098 10.9951Z" fill="#01656B" stroke="black" stroke-width="0.25" stroke-miterlimit="10"/>
<path d="M18.4007 31.6331L18.3788 39.066L0.426971 28.7005L0.448894 21.2676L18.4007 31.6331Z" fill="#01656B" stroke="black" stroke-width="0.25" stroke-miterlimit="10"/>
<path d="M0.449066 21.2726L18.4009 31.6326L53.91 11.0002L35.9581 0.634766L0.449066 21.2726Z" fill="#127F7F" stroke="black" stroke-width="0.25" stroke-miterlimit="10"/>
<path d="M47.5513 9.8114C46.4221 10.4692 46.4276 11.5326 47.5677 12.1904L36.528 18.6037C38.2437 16.4111 37.5366 13.7361 34.4122 11.9327C31.2877 10.1293 26.6668 9.72917 22.8901 10.7268L33.9298 4.31348C35.0699 4.97125 36.9062 4.97125 38.0354 4.31348L47.5513 9.80591V9.8114Z" fill="#62E1C2" stroke="black" stroke-width="0.25" stroke-miterlimit="10"/>
<path d="M31.4741 21.5413L20.4344 27.9547C19.2942 27.2969 17.4579 27.2969 16.3233 27.9547L6.80741 22.4622C7.9366 21.8044 7.93111 20.741 6.79645 20.0832L17.8362 13.6699C16.1204 15.8625 16.8276 18.5375 19.952 20.3409C23.0764 22.1443 27.6973 22.5444 31.4741 21.5468V21.5413Z" fill="#62E1C2" stroke="black" stroke-width="0.25" stroke-miterlimit="10"/>
<path d="M35.9634 1.63281L52.1886 11.0007L18.3953 30.6408L2.17007 21.273L35.9634 1.63281ZM18.3898 30.142L51.328 11.0007L35.9634 2.13163L3.02519 21.273L18.3898 30.142Z" fill="#62E1C2" stroke="black" stroke-width="0.25" stroke-miterlimit="10"/>
<path d="M13.2591 13.8232L31.211 24.1832L41.423 18.2467L23.4766 7.88672L13.2591 13.8232Z" fill="#FDE7AE" stroke="black" stroke-width="0.25" stroke-miterlimit="10"/>
<path d="M39.1482 18.2524L23.1313 8.9668L15.1448 13.6096L31.211 22.8678L39.1482 18.2524Z" stroke="black" stroke-width="0.25" stroke-miterlimit="10"/>
<path d="M14.0156 13.3632L31.9729 23.7451L32.373 23.5149L14.3828 13.1494L14.0156 13.3632Z" fill="#FFCB00" stroke="black" stroke-width="0.25" stroke-miterlimit="10"/>
<path d="M22.6982 8.33105L22.3529 8.5284L40.3486 18.8939L40.7049 18.6856L22.6982 8.33105Z" fill="#FFCB00" stroke="black" stroke-width="0.25" stroke-miterlimit="10"/>
<path d="M31.211 24.189L31.189 31.6219L41.423 25.6745V18.2471L31.211 24.189Z" fill="#DBD8AB" stroke="black" stroke-width="0.25" stroke-miterlimit="10"/>
<path d="M31.9729 23.7505L31.951 31.1779L32.3511 30.9477V23.5312L31.9729 23.7505Z" fill="#E5AE00" stroke="black" stroke-width="0.25" stroke-miterlimit="10"/>
<path d="M40.2938 18.9263L40.2719 26.3537L40.672 26.118V18.707L40.2938 18.9263Z" fill="#E5AE00" stroke="black" stroke-width="0.25" stroke-miterlimit="10"/>
<path d="M46.3179 24.4354L46.729 25.6961C46.285 25.7454 45.9123 25.8057 45.6053 25.8825C45.2984 25.9592 44.9859 26.0908 44.668 26.2772C44.1966 26.5512 44.076 26.754 44.3117 26.8911C44.4049 26.9459 44.52 26.9568 44.6516 26.9185C44.7831 26.8801 45.0133 26.776 45.3477 26.606C46.0603 26.2497 46.7784 26.036 47.5019 25.9647C48.2255 25.8934 48.8559 26.0085 49.3876 26.3155C49.8535 26.5841 50.1002 26.9294 50.1276 27.3405C50.1495 27.7571 49.9467 28.1628 49.5136 28.5684L50.6319 29.2645L48.3954 30.4376L47.2882 29.6811C46.5975 29.873 45.9452 29.9552 45.3313 29.9278L45.0736 28.53C45.408 28.5136 45.7862 28.4423 46.1973 28.3162C46.6139 28.1902 46.9318 28.0586 47.1566 27.9271C47.3539 27.812 47.4745 27.7023 47.5129 27.5927C47.5568 27.4831 47.5129 27.3899 47.3923 27.3186C47.2991 27.2638 47.195 27.2529 47.0908 27.2857C46.9867 27.3186 46.7674 27.4118 46.444 27.5708C45.5999 27.949 44.8434 28.1737 44.1747 28.2395C43.5059 28.3053 42.9413 28.2121 42.4919 27.949C42.1465 27.7517 41.9327 27.505 41.8505 27.2035C41.7628 26.9075 41.8176 26.6006 42.004 26.2881L40.7652 25.4823L42.7933 24.1777L43.9445 24.9177C44.3391 24.7752 44.7447 24.6601 45.1613 24.5724C45.5779 24.4847 45.9671 24.4408 46.3234 24.4354H46.3179Z" fill="#ADDA88" stroke="black" stroke-width="0.25" stroke-miterlimit="10"/>
<path d="M72.5961 22.0723L72.5742 29.4997L37.0652 50.1375L37.0871 42.7046L72.5961 22.0723Z" fill="#01656B" stroke="black" stroke-width="0.25" stroke-miterlimit="10"/>
<path d="M37.0871 42.7043L37.0652 50.1372L19.1133 39.7718L19.1353 32.3389L37.0871 42.7043Z" fill="#01656B" stroke="black" stroke-width="0.25" stroke-miterlimit="10"/>
<path d="M19.1354 32.3448L37.0873 42.7103L72.5963 22.0725L54.6445 11.707L19.1354 32.3448Z" fill="#127F7F" stroke="black" stroke-width="0.25" stroke-miterlimit="10"/>
<path d="M66.2376 20.8837C65.1085 21.5414 65.1139 22.6049 66.2541 23.2626L55.2144 29.676C56.9301 27.4834 56.223 24.8084 53.0985 23.005C49.9741 21.2016 45.3532 20.8015 41.5764 21.7991L52.6162 15.3857C53.7563 16.0435 55.5926 16.0435 56.7218 15.3857L66.2376 20.8782V20.8837Z" fill="#62E1C2" stroke="black" stroke-width="0.25" stroke-miterlimit="10"/>
<path d="M50.1604 32.6136L39.1207 39.0269C37.9806 38.3691 36.1443 38.3691 35.0096 39.0269L25.4938 33.5345C26.623 32.8767 26.6175 31.8133 25.4828 31.1555L36.5225 24.7422C34.8068 26.9348 35.5139 29.6098 38.6384 31.4132C41.7628 33.2166 46.3837 33.6167 50.1604 32.6191V32.6136Z" fill="#62E1C2" stroke="black" stroke-width="0.25" stroke-miterlimit="10"/>
<path d="M54.6498 12.7051L70.875 22.0729L37.0816 41.7131L20.8564 32.3452L54.6498 12.7051ZM37.0761 41.2143L70.0144 22.0729L54.6498 13.2039L21.7116 32.3452L37.0761 41.2143Z" fill="#62E1C2" stroke="black" stroke-width="0.25" stroke-miterlimit="10"/>
<path d="M31.9455 24.8954L49.8973 35.2609L60.1093 29.319L42.163 18.959L31.9455 24.8954Z" fill="#FDE7AE" stroke="black" stroke-width="0.25" stroke-miterlimit="10"/>
<path d="M57.8345 29.3247L41.8176 20.0391L33.8311 24.6819L49.8973 33.9401L57.8345 29.3247Z" stroke="black" stroke-width="0.25" stroke-miterlimit="10"/>
<path d="M32.7019 24.4349L50.6593 34.8168L51.0594 34.5866L33.0692 24.2266L32.7019 24.4349Z" fill="#FFCB00" stroke="black" stroke-width="0.25" stroke-miterlimit="10"/>
<path d="M41.3846 19.4033L41.0393 19.6061L59.035 29.9661L59.3913 29.7633L41.3846 19.4033Z" fill="#FFCB00" stroke="black" stroke-width="0.25" stroke-miterlimit="10"/>
<path d="M49.8973 35.2613L49.8754 42.6941L60.1093 36.7467V29.3193L49.8973 35.2613Z" fill="#DBD8AB" stroke="black" stroke-width="0.25" stroke-miterlimit="10"/>
<path d="M50.6593 34.8228L50.6373 42.2502L51.0375 42.02V34.6035L50.6593 34.8228Z" fill="#E5AE00" stroke="black" stroke-width="0.25" stroke-miterlimit="10"/>
<path d="M58.9802 29.9986L58.9582 37.426L59.3584 37.1957V29.7793L58.9802 29.9986Z" fill="#E5AE00" stroke="black" stroke-width="0.25" stroke-miterlimit="10"/>
</svg>
