<svg width="80" height="87" viewBox="0 0 80 87" fill="none" xmlns="http://www.w3.org/2000/svg">
<g style="mix-blend-mode:multiply">
<path d="M3.64416 62.979L42.8861 85.5847L80.9714 62.6118L40.825 37.1064L3.64416 62.979Z" fill="black"/>
</g>
<path d="M31.4681 45.2576L31.8793 46.5184C31.4353 46.5677 31.0625 46.628 30.7556 46.7047C30.4486 46.7815 30.1362 46.913 29.8182 47.0994C29.3468 47.3735 29.2262 47.5763 29.4619 47.7133C29.5551 47.7682 29.6702 47.7791 29.8018 47.7407C29.9333 47.7024 30.1636 47.5982 30.4979 47.4283C31.2105 47.072 31.9286 46.8582 32.6521 46.787C33.3757 46.7157 34.0061 46.8308 34.5378 47.1378C35.0037 47.4064 35.2504 47.7517 35.2778 48.1628C35.2997 48.5794 35.0969 48.985 34.6639 49.3907L35.7821 50.0868L33.5456 51.2599L32.4384 50.5034C31.7477 50.6953 31.0954 50.7775 30.4815 50.7501L30.2239 49.3523C30.5582 49.3359 30.9364 49.2646 31.3476 49.1385C31.7641 49.0125 32.0821 48.8809 32.3068 48.7493C32.5041 48.6342 32.6247 48.5246 32.6631 48.415C32.707 48.3053 32.6631 48.2122 32.5425 48.1409C32.4493 48.0861 32.3452 48.0751 32.241 48.108C32.1369 48.1409 31.9176 48.2341 31.5942 48.393C30.7501 48.7713 29.9936 48.996 29.3249 49.0618C28.6562 49.1276 28.0916 49.0344 27.6421 48.7713C27.2967 48.5739 27.083 48.3273 27.0007 48.0258C26.913 47.7298 26.9678 47.4228 27.1542 47.1104L25.9154 46.3046L27.9436 45L29.0947 45.74C29.4893 45.5975 29.895 45.4824 30.3116 45.3947C30.7282 45.307 31.1173 45.2631 31.4736 45.2576H31.4681Z" fill="#ADDA88" stroke="black" stroke-width="0.25" stroke-miterlimit="10"/>
<path d="M57.7519 42.8896L57.7299 50.3225L22.2209 70.9548L22.2428 63.5219L57.7519 42.8896Z" fill="#01656B" stroke="black" stroke-width="0.25" stroke-miterlimit="10"/>
<path d="M22.2428 63.5221L22.2209 70.955L4.26904 60.595L4.29097 53.1621L22.2428 63.5221Z" fill="#01656B" stroke="black" stroke-width="0.25" stroke-miterlimit="10"/>
<path d="M4.29114 53.1616L22.243 63.5271L57.752 42.8893L39.8002 32.5293L4.29114 53.1616Z" fill="#127F7F" stroke="black" stroke-width="0.25" stroke-miterlimit="10"/>
<path d="M51.3933 41.7001C50.2642 42.3579 50.2696 43.4213 51.4098 44.079L40.3701 50.4924C42.0858 48.2998 41.3787 45.6248 38.2542 43.8214C35.1298 42.018 30.5089 41.6179 26.7322 42.6155L37.7718 36.2021C38.912 36.8599 40.7483 36.8599 41.8775 36.2021L51.3933 41.6946V41.7001Z" fill="#62E1C2" stroke="black" stroke-width="0.25" stroke-miterlimit="10"/>
<path d="M35.3162 53.43L24.2764 59.8433C23.1363 59.1856 21.3 59.1856 20.1653 59.8433L10.6495 54.3509C11.7787 53.6931 11.7732 52.6297 10.6385 51.9719L21.6782 45.5586C19.9625 47.7512 20.6696 50.4261 23.7941 52.2295C26.9185 54.033 31.5394 54.4331 35.3162 53.4355V53.43Z" fill="#62E1C2" stroke="black" stroke-width="0.25" stroke-miterlimit="10"/>
<path d="M39.8055 33.5215L56.0307 42.8894L22.2373 62.5295L6.01215 53.1616L39.8055 33.5215ZM22.2319 62.0307L55.1701 42.8894L39.8055 34.0203L6.86727 53.1616L22.2319 62.0307Z" fill="#62E1C2" stroke="black" stroke-width="0.25" stroke-miterlimit="10"/>
<path d="M17.1012 45.7122L35.053 56.0777L45.265 50.1412L27.3187 39.7812L17.1012 45.7122Z" fill="#FDE7AE" stroke="black" stroke-width="0.25" stroke-miterlimit="10"/>
<path d="M42.9902 50.1415L26.9733 40.8613L18.9868 45.4987L35.053 54.7624L42.9902 50.1415Z" stroke="black" stroke-width="0.25" stroke-miterlimit="10"/>
<path d="M17.8576 45.2567L35.815 55.6387L36.2151 55.403L18.2249 45.043L17.8576 45.2567Z" fill="#FFCB00" stroke="black" stroke-width="0.25" stroke-miterlimit="10"/>
<path d="M26.5403 40.2197L26.195 40.4226L44.1907 50.788L44.547 50.5797L26.5403 40.2197Z" fill="#FFCB00" stroke="black" stroke-width="0.25" stroke-miterlimit="10"/>
<path d="M35.053 56.0777L35.0311 63.5106L45.265 57.5631V50.1357L35.053 56.0777Z" fill="#DBD8AB" stroke="black" stroke-width="0.25" stroke-miterlimit="10"/>
<path d="M35.815 55.645L35.793 63.0724L36.1932 62.8367V55.4258L35.815 55.645Z" fill="#E5AE00" stroke="black" stroke-width="0.25" stroke-miterlimit="10"/>
<path d="M44.1359 50.8159L44.1139 58.2433L44.5141 58.0131V50.5967L44.1359 50.8159Z" fill="#E5AE00" stroke="black" stroke-width="0.25" stroke-miterlimit="10"/>
<path d="M31.4681 40.325L31.8793 41.5858C31.4353 41.6351 31.0625 41.6954 30.7556 41.7721C30.4486 41.8489 30.1362 41.9804 29.8182 42.1668C29.3468 42.4409 29.2262 42.6437 29.4619 42.7807C29.5551 42.8355 29.6702 42.8465 29.8018 42.8081C29.9333 42.7698 30.1636 42.6656 30.4979 42.4957C31.2105 42.1394 31.9286 41.9256 32.6521 41.8544C33.3757 41.7831 34.0061 41.8982 34.5378 42.2052C35.0037 42.4738 35.2504 42.8191 35.2778 43.2302C35.2997 43.6468 35.0969 44.0524 34.6639 44.4581L35.7821 45.1542L33.5456 46.3272L32.4384 45.5708C31.7477 45.7626 31.0954 45.8449 30.4815 45.8175L30.2239 44.4197C30.5582 44.4032 30.9364 44.332 31.3476 44.2059C31.7641 44.0798 32.0821 43.9483 32.3068 43.8167C32.5041 43.7016 32.6247 43.592 32.6631 43.4824C32.707 43.3727 32.6631 43.2795 32.5425 43.2083C32.4493 43.1535 32.3452 43.1425 32.241 43.1754C32.1369 43.2083 31.9176 43.3015 31.5942 43.4604C30.7501 43.8386 29.9936 44.0634 29.3249 44.1292C28.6562 44.1949 28.0916 44.1018 27.6421 43.8386C27.2967 43.6413 27.083 43.3947 27.0007 43.0932C26.913 42.7972 26.9678 42.4902 27.1542 42.1778L25.9154 41.372L27.9436 40.0674L29.0947 40.8074C29.4893 40.6649 29.895 40.5498 30.3116 40.4621C30.7282 40.3743 31.1173 40.3305 31.4736 40.325H31.4681Z" fill="#ADDA88" stroke="black" stroke-width="0.25" stroke-miterlimit="10"/>
<path d="M57.7519 37.957L57.7299 45.3899L22.2209 66.0222L22.2428 58.5893L57.7519 37.957Z" fill="#01656B" stroke="black" stroke-width="0.25" stroke-miterlimit="10"/>
<path d="M22.2428 58.5895L22.2209 66.0224L4.26904 55.6624L4.29097 48.2295L22.2428 58.5895Z" fill="#01656B" stroke="black" stroke-width="0.25" stroke-miterlimit="10"/>
<path d="M4.29114 48.229L22.243 58.5945L57.752 37.9567L39.8002 27.5967L4.29114 48.229Z" fill="#127F7F" stroke="black" stroke-width="0.25" stroke-miterlimit="10"/>
<path d="M51.3933 36.7675C50.2642 37.4252 50.2696 38.4886 51.4098 39.1464L40.3701 45.5598C42.0858 43.3672 41.3787 40.6922 38.2542 38.8888C35.1298 37.0854 30.5089 36.6852 26.7322 37.6829L37.7718 31.2695C38.912 31.9273 40.7483 31.9273 41.8775 31.2695L51.3933 36.762V36.7675Z" fill="#62E1C2" stroke="black" stroke-width="0.25" stroke-miterlimit="10"/>
<path d="M35.3162 48.4974L24.2764 54.9107C23.1363 54.2529 21.3 54.2529 20.1653 54.9107L10.6495 49.4183C11.7787 48.7605 11.7732 47.6971 10.6385 47.0393L21.6782 40.626C19.9625 42.8186 20.6696 45.4935 23.7941 47.2969C26.9185 49.1003 31.5394 49.5005 35.3162 48.5029V48.4974Z" fill="#62E1C2" stroke="black" stroke-width="0.25" stroke-miterlimit="10"/>
<path d="M39.8055 28.5889L56.0307 37.9567L22.2373 57.5969L6.01215 48.229L39.8055 28.5889ZM22.2319 57.0981L55.1701 37.9567L39.8055 29.0877L6.86727 48.229L22.2319 57.0981Z" fill="#62E1C2" stroke="black" stroke-width="0.25" stroke-miterlimit="10"/>
<path d="M17.1012 40.7796L35.053 51.1451L45.265 45.2086L27.3187 34.8486L17.1012 40.7796Z" fill="#FDE7AE" stroke="black" stroke-width="0.25" stroke-miterlimit="10"/>
<path d="M42.9902 45.2089L26.9733 35.9287L18.9868 40.566L35.053 49.8297L42.9902 45.2089Z" stroke="black" stroke-width="0.25" stroke-miterlimit="10"/>
<path d="M17.8576 40.3241L35.815 50.706L36.2151 50.4703L18.2249 40.1104L17.8576 40.3241Z" fill="#FFCB00" stroke="black" stroke-width="0.25" stroke-miterlimit="10"/>
<path d="M26.5403 35.2871L26.195 35.4899L44.1907 45.8554L44.547 45.6471L26.5403 35.2871Z" fill="#FFCB00" stroke="black" stroke-width="0.25" stroke-miterlimit="10"/>
<path d="M35.053 51.145L35.0311 58.5779L45.265 52.6305V45.2031L35.053 51.145Z" fill="#DBD8AB" stroke="black" stroke-width="0.25" stroke-miterlimit="10"/>
<path d="M35.815 50.7124L35.793 58.1398L36.1932 57.9041V50.4932L35.815 50.7124Z" fill="#E5AE00" stroke="black" stroke-width="0.25" stroke-miterlimit="10"/>
<path d="M44.1359 45.8833L44.1139 53.3107L44.5141 53.0805V45.6641L44.1359 45.8833Z" fill="#E5AE00" stroke="black" stroke-width="0.25" stroke-miterlimit="10"/>
<path d="M31.9286 31.866L32.3397 33.1268C31.8957 33.1761 31.523 33.2364 31.216 33.3131C30.909 33.3899 30.5966 33.5214 30.2787 33.7078C29.8073 33.9819 29.6867 34.1847 29.9224 34.3217C30.0156 34.3766 30.1307 34.3875 30.2622 34.3491C30.3938 34.3108 30.624 34.2066 30.9584 34.0367C31.671 33.6804 32.389 33.4666 33.1126 33.3954C33.8362 33.3241 34.4665 33.4392 34.9982 33.7462C35.4642 34.0148 35.7108 34.3601 35.7382 34.7712C35.7602 35.1878 35.5573 35.5934 35.1243 35.9991L36.2425 36.6952L34.0061 37.8683L32.8988 37.1118C32.2082 37.3037 31.5559 37.3859 30.9419 37.3585L30.6843 35.9607C31.0187 35.9443 31.3969 35.873 31.808 35.7469C32.2246 35.6209 32.5425 35.4893 32.7673 35.3577C32.9646 35.2426 33.0852 35.133 33.1236 35.0234C33.1674 34.9137 33.1236 34.8206 33.003 34.7493C32.9098 34.6945 32.8056 34.6835 32.7015 34.7164C32.5973 34.7493 32.3781 34.8425 32.0547 35.0014C31.2105 35.3797 30.4541 35.6044 29.7853 35.6702C29.1166 35.736 28.552 35.6428 28.1025 35.3797C27.7572 35.1823 27.5434 34.9357 27.4612 34.6342C27.3735 34.3382 27.4283 34.0312 27.6147 33.7188L26.3759 32.913L28.404 31.6084L29.5551 32.3484C29.9498 32.2059 30.3554 32.0908 30.772 32.0031C31.1886 31.9154 31.5778 31.8715 31.9341 31.866H31.9286Z" fill="#ADDA88" stroke="black" stroke-width="0.25" stroke-miterlimit="10"/>
<path d="M58.2068 29.498L58.1849 36.9309L22.6759 57.5632L22.6978 50.1304L58.2068 29.498Z" fill="#01656B" stroke="black" stroke-width="0.25" stroke-miterlimit="10"/>
<path d="M22.6978 50.1301L22.6759 57.563L4.72401 47.1975L4.74593 39.7646L22.6978 50.1301Z" fill="#01656B" stroke="black" stroke-width="0.25" stroke-miterlimit="10"/>
<path d="M4.7461 39.7706L22.698 50.1361L58.207 29.4983L40.2551 19.1328L4.7461 39.7706Z" fill="#127F7F" stroke="black" stroke-width="0.25" stroke-miterlimit="10"/>
<path d="M51.8483 28.3094C50.7191 28.9672 50.7246 30.0306 51.8648 30.6884L40.825 37.1017C42.5408 34.9091 41.8336 32.2342 38.7092 30.4308C35.5848 28.6274 30.9639 28.2272 27.1871 29.2248L38.2268 22.8115C39.367 23.4693 41.2033 23.4693 42.3325 22.8115L51.8483 28.304V28.3094Z" fill="#62E1C2" stroke="black" stroke-width="0.25" stroke-miterlimit="10"/>
<path d="M35.7711 40.0394L24.7314 46.4527C23.5913 45.7949 21.755 45.7949 20.6203 46.4527L11.1045 40.9603C12.2336 40.3025 12.2282 39.2391 11.0935 38.5813L22.1332 32.168C20.4175 34.3606 21.1246 37.0355 24.2491 38.8389C27.3735 40.6423 31.9944 41.0425 35.7711 40.0449V40.0394Z" fill="#62E1C2" stroke="black" stroke-width="0.25" stroke-miterlimit="10"/>
<path d="M40.2605 20.1309L56.4856 29.4987L22.6923 49.1389L6.46712 39.771L40.2605 20.1309ZM22.6868 48.6401L55.625 29.4987L40.2605 20.6297L7.32223 39.771L22.6868 48.6401Z" fill="#62E1C2" stroke="black" stroke-width="0.25" stroke-miterlimit="10"/>
<path d="M17.5616 32.3216L35.508 42.6871L45.72 36.7506L27.7736 26.3906L17.5616 32.3216Z" fill="#FDE7AE" stroke="black" stroke-width="0.25" stroke-miterlimit="10"/>
<path d="M43.4452 36.7508L27.4283 27.4707L19.4418 32.108L35.508 41.3717L43.4452 36.7508Z" stroke="black" stroke-width="0.25" stroke-miterlimit="10"/>
<path d="M18.3181 31.8661L36.2699 42.2426L36.6701 42.0123L18.6799 31.6523L18.3181 31.8661Z" fill="#FFCB00" stroke="black" stroke-width="0.25" stroke-miterlimit="10"/>
<path d="M26.9953 26.8291L26.6499 27.0319L44.6456 37.3974L45.0019 37.1891L26.9953 26.8291Z" fill="#FFCB00" stroke="black" stroke-width="0.25" stroke-miterlimit="10"/>
<path d="M35.508 42.687L35.4916 50.1199L45.72 44.1725V36.7451L35.508 42.687Z" fill="#DBD8AB" stroke="black" stroke-width="0.25" stroke-miterlimit="10"/>
<path d="M36.2699 42.2486L36.248 49.676L36.6482 49.4457V42.0293L36.2699 42.2486Z" fill="#E5AE00" stroke="black" stroke-width="0.25" stroke-miterlimit="10"/>
<path d="M44.5908 37.4244L44.5689 44.8518L44.969 44.6215V37.2051L44.5908 37.4244Z" fill="#E5AE00" stroke="black" stroke-width="0.25" stroke-miterlimit="10"/>
<path d="M32.4219 22.3348L32.833 23.5955C32.389 23.6448 32.0163 23.7051 31.7093 23.7819C31.4024 23.8586 31.0899 23.9902 30.772 24.1765C30.3006 24.4506 30.18 24.6534 30.4157 24.7905C30.5089 24.8453 30.624 24.8563 30.7556 24.8179C30.8871 24.7795 31.1173 24.6754 31.4517 24.5054C32.1643 24.1491 32.8824 23.9354 33.6059 23.8641C34.3295 23.7928 34.9599 23.908 35.4916 24.2149C35.9575 24.4835 36.2041 24.8288 36.2316 25.24C36.2535 25.6565 36.0507 26.0622 35.6176 26.4678L36.7359 27.164L34.4994 28.337L33.3921 27.5805C32.7015 27.7724 32.0492 27.8546 31.4353 27.8272L31.1776 26.4294C31.512 26.413 31.8902 26.3417 32.3013 26.2157C32.7179 26.0896 33.0359 25.958 33.2606 25.8265C33.4579 25.7114 33.5785 25.6017 33.6169 25.4921C33.6607 25.3825 33.6169 25.2893 33.4963 25.218C33.4031 25.1632 33.299 25.1523 33.1948 25.1851C33.0907 25.218 32.8714 25.3112 32.548 25.4702C31.7038 25.8484 30.9474 26.0731 30.2787 26.1389C29.6099 26.2047 29.0453 26.1115 28.5959 25.8484C28.2505 25.6511 28.0368 25.4044 27.9545 25.1029C27.8668 24.8069 27.9216 24.4999 28.108 24.1875L26.8692 23.3817L28.8973 22.0771L30.0484 22.8171C30.4431 22.6746 30.8487 22.5595 31.2653 22.4718C31.6819 22.3841 32.0711 22.3403 32.4274 22.3348H32.4219Z" fill="#ADDA88" stroke="black" stroke-width="0.25" stroke-miterlimit="10"/>
<path d="M58.7002 19.9668L58.6782 27.3997L23.1692 48.0375L23.1911 40.6046L58.7002 19.9668Z" fill="#01656B" stroke="black" stroke-width="0.25" stroke-miterlimit="10"/>
<path d="M23.1911 40.6047L23.1692 48.0376L5.21734 37.6721L5.23927 30.2393L23.1911 40.6047Z" fill="#01656B" stroke="black" stroke-width="0.25" stroke-miterlimit="10"/>
<path d="M5.23944 30.2442L23.1913 40.6097L58.7003 19.9719L40.7485 9.60645L5.23944 30.2442Z" fill="#127F7F" stroke="black" stroke-width="0.25" stroke-miterlimit="10"/>
<path d="M52.3416 18.7831C51.2125 19.4409 51.2179 20.5043 52.3581 21.162L41.3184 27.5754C43.0341 25.3828 42.327 22.7078 39.2025 20.9044C36.0781 19.101 31.4572 18.7009 27.6805 19.6985L38.7202 13.2852C39.8603 13.9429 41.6966 13.9429 42.8258 13.2852L52.3416 18.7776V18.7831Z" fill="#62E1C2" stroke="black" stroke-width="0.25" stroke-miterlimit="10"/>
<path d="M36.2644 30.513L25.2248 36.9263C24.0846 36.2686 22.2483 36.2686 21.1136 36.9263L11.5978 31.4339C12.727 30.7761 12.7215 29.7127 11.5868 29.0549L22.6265 22.6416C20.9108 24.8342 21.6179 27.5091 24.7424 29.3126C27.8668 31.116 32.4877 31.5161 36.2644 30.5185V30.513Z" fill="#62E1C2" stroke="black" stroke-width="0.25" stroke-miterlimit="10"/>
<path d="M40.7538 10.6045L56.979 19.9723L23.1856 39.6125L6.96045 30.2446L40.7538 10.6045ZM23.1802 39.1137L56.1184 19.9723L40.7538 11.1033L7.81556 30.2446L23.1802 39.1137Z" fill="#62E1C2" stroke="black" stroke-width="0.25" stroke-miterlimit="10"/>
<path d="M18.055 22.7949L36.0013 33.1603L46.2133 27.2184L28.267 16.8584L18.055 22.7949Z" fill="#FDE7AE" stroke="black" stroke-width="0.25" stroke-miterlimit="10"/>
<path d="M43.9385 27.2241L27.9216 17.9385L19.9351 22.5813L36.0013 31.8395L43.9385 27.2241Z" stroke="black" stroke-width="0.25" stroke-miterlimit="10"/>
<path d="M18.8114 22.3343L36.7633 32.7162L37.1634 32.486L19.1732 22.126L18.8114 22.3343Z" fill="#FFCB00" stroke="black" stroke-width="0.25" stroke-miterlimit="10"/>
<path d="M27.4886 17.3027L27.1433 17.5055L45.139 27.8656L45.4953 27.6627L27.4886 17.3027Z" fill="#FFCB00" stroke="black" stroke-width="0.25" stroke-miterlimit="10"/>
<path d="M36.0013 33.1607L35.9849 40.5936L46.2133 34.6462V27.2188L36.0013 33.1607Z" fill="#DBD8AB" stroke="black" stroke-width="0.25" stroke-miterlimit="10"/>
<path d="M36.7633 32.7222L36.7413 40.1496L37.1415 39.9194V32.5029L36.7633 32.7222Z" fill="#E5AE00" stroke="black" stroke-width="0.25" stroke-miterlimit="10"/>
<path d="M45.0842 27.898L45.0622 35.3254L45.4624 35.0952V27.6787L45.0842 27.898Z" fill="#E5AE00" stroke="black" stroke-width="0.25" stroke-miterlimit="10"/>
<path d="M32.8769 12.994L33.288 14.2547C32.844 14.304 32.4713 14.3643 32.1643 14.4411C31.8573 14.5178 31.5449 14.6494 31.227 14.8357C30.7556 15.1098 30.635 15.3126 30.8707 15.4497C30.9639 15.5045 31.079 15.5154 31.2105 15.4771C31.3421 15.4387 31.5723 15.3345 31.9067 15.1646C32.6193 14.8083 33.3373 14.5946 34.0609 14.5233C34.7844 14.452 35.4148 14.5671 35.9465 14.8741C36.4124 15.1427 36.6591 15.488 36.6865 15.8991C36.7085 16.3157 36.5056 16.7214 36.0726 17.127L37.1908 17.8231L34.9544 18.9962L33.8471 18.2397C33.1565 18.4316 32.5042 18.5138 31.8902 18.4864L31.6326 17.0886C31.967 17.0722 32.3452 17.0009 32.7563 16.8748C33.1729 16.7488 33.4908 16.6172 33.7156 16.4857C33.9129 16.3705 34.0335 16.2609 34.0718 16.1513C34.1157 16.0417 34.0718 15.9485 33.9513 15.8772C33.8581 15.8224 33.7539 15.8114 33.6498 15.8443C33.5456 15.8772 33.3264 15.9704 33.003 16.1294C32.1588 16.5076 31.4024 16.7323 30.7336 16.7981C30.0649 16.8639 29.5003 16.7707 29.0508 16.5076C28.7055 16.3103 28.4917 16.0636 28.4095 15.7621C28.3218 15.4661 28.3766 15.1591 28.563 14.8467L27.3241 14.0409L29.3523 12.7363L30.5034 13.4763C30.8981 13.3338 31.3037 13.2187 31.7203 13.131C32.1369 13.0433 32.5261 12.9994 32.8824 12.994H32.8769Z" fill="#ADDA88" stroke="black" stroke-width="0.25" stroke-miterlimit="10"/>
<path d="M59.1551 10.626L59.1332 18.0589L23.6241 38.6966L23.6461 31.2638L59.1551 10.626Z" fill="#01656B" stroke="black" stroke-width="0.25" stroke-miterlimit="10"/>
<path d="M23.6461 31.2639L23.6241 38.6968L5.67229 28.3313L5.69423 20.8984L23.6461 31.2639Z" fill="#01656B" stroke="black" stroke-width="0.25" stroke-miterlimit="10"/>
<path d="M5.6944 20.9034L23.6462 31.2634L59.1553 10.6311L41.2034 0.265625L5.6944 20.9034Z" fill="#127F7F" stroke="black" stroke-width="0.25" stroke-miterlimit="10"/>
<path d="M52.7966 9.44226C51.6674 10.1 51.6729 11.1634 52.813 11.8212L41.7733 18.2346C43.489 16.042 42.7819 13.367 39.6575 11.5636C36.533 9.76018 31.9122 9.36005 28.1354 10.3577L39.1751 3.94434C40.3153 4.60211 42.1516 4.60211 43.2808 3.94434L52.7966 9.43679V9.44226Z" fill="#62E1C2" stroke="black" stroke-width="0.25" stroke-miterlimit="10"/>
<path d="M36.7194 21.1722L25.6797 27.5855C24.5396 26.9277 22.7033 26.9277 21.5686 27.5855L12.0527 22.0931C13.1819 21.4353 13.1764 20.3719 12.0418 19.7141L23.0815 13.3008C21.3658 15.4934 22.0729 18.1683 25.1973 19.9717C28.3218 21.7751 32.9427 22.1753 36.7194 21.1777V21.1722Z" fill="#62E1C2" stroke="black" stroke-width="0.25" stroke-miterlimit="10"/>
<path d="M41.2088 1.26367L57.4339 10.6315L23.6406 30.2717L7.41542 20.9038L41.2088 1.26367ZM23.6351 29.7728L56.5733 10.6315L41.2088 1.76249L8.27053 20.9038L23.6351 29.7728Z" fill="#62E1C2" stroke="black" stroke-width="0.25" stroke-miterlimit="10"/>
<path d="M18.5099 13.454L36.4618 23.8195L46.6683 17.8776L28.7219 7.51758L18.5099 13.454Z" fill="#FDE7AE" stroke="black" stroke-width="0.25" stroke-miterlimit="10"/>
<path d="M44.3935 17.8833L28.3766 8.59766L20.3901 13.2405L36.4563 22.4987L44.3935 17.8833Z" stroke="black" stroke-width="0.25" stroke-miterlimit="10"/>
<path d="M19.2664 12.9941L37.2182 23.376L37.6184 23.1458L19.6282 12.7803L19.2664 12.9941Z" fill="#FFCB00" stroke="black" stroke-width="0.25" stroke-miterlimit="10"/>
<path d="M27.949 7.96191L27.5982 8.16473L45.5939 18.5247L45.9502 18.3164L27.949 7.96191Z" fill="#FFCB00" stroke="black" stroke-width="0.25" stroke-miterlimit="10"/>
<path d="M36.4563 23.8199L36.4398 31.2527L46.6738 25.3053V17.8779L36.4563 23.8199Z" fill="#DBD8AB" stroke="black" stroke-width="0.25" stroke-miterlimit="10"/>
<path d="M37.2182 23.3814L37.1963 30.8088L37.5965 30.5786V23.1621L37.2182 23.3814Z" fill="#E5AE00" stroke="black" stroke-width="0.25" stroke-miterlimit="10"/>
<path d="M45.5391 18.5571L45.5172 25.9845L45.9173 25.7543V18.3379L45.5391 18.5571Z" fill="#E5AE00" stroke="black" stroke-width="0.25" stroke-miterlimit="10"/>
<path d="M51.8428 57.7391L52.2539 58.9998C51.8099 59.0491 51.4372 59.1094 51.1302 59.1862C50.8233 59.2629 50.5108 59.3945 50.1929 59.5808C49.7215 59.8549 49.6009 60.0577 49.8366 60.1948C49.9298 60.2496 50.0449 60.2606 50.1764 60.2222C50.308 60.1838 50.5382 60.0797 50.8726 59.9097C51.5852 59.5534 52.3033 59.3397 53.0268 59.2684C53.7504 59.1971 54.3808 59.3123 54.9125 59.6192C55.3784 59.8878 55.6251 60.2331 55.6525 60.6443C55.6744 61.0608 55.4716 61.4665 55.0385 61.8721L56.1567 62.5683L53.9203 63.7413L52.813 62.9848C52.1224 63.1767 51.4701 63.2589 50.8562 63.2315L50.5985 61.8337C50.9329 61.8173 51.3111 61.746 51.7222 61.62C52.1388 61.4939 52.4567 61.3623 52.6815 61.2308C52.8788 61.1157 52.9994 61.006 53.0378 60.8964C53.0816 60.7868 53.0378 60.6936 52.9172 60.6223C52.824 60.5675 52.7199 60.5565 52.6157 60.5894C52.5116 60.6223 52.2923 60.7155 51.9689 60.8745C51.1248 61.2527 50.3683 61.4774 49.6996 61.5432C49.0308 61.609 48.4662 61.5158 48.0167 61.2527C47.6714 61.0554 47.4576 60.8087 47.3754 60.5072C47.2877 60.2112 47.3425 59.9043 47.5289 59.5918L46.2901 58.786L48.3182 57.4814L49.4693 58.2214C49.864 58.0789 50.2696 57.9638 50.6862 57.8761C51.1028 57.7884 51.492 57.7446 51.8483 57.7391H51.8428Z" fill="#ADDA88" stroke="black" stroke-width="0.25" stroke-miterlimit="10"/>
<path d="M78.1265 55.3711L78.1046 62.804L42.5956 83.4418L42.6175 76.0089L78.1265 55.3711Z" fill="#01656B" stroke="black" stroke-width="0.25" stroke-miterlimit="10"/>
<path d="M42.6175 76.009L42.5956 83.4419L24.6437 73.0764L24.6656 65.6436L42.6175 76.009Z" fill="#01656B" stroke="black" stroke-width="0.25" stroke-miterlimit="10"/>
<path d="M24.6658 65.6485L42.6177 76.0085L78.1267 55.3762L60.1749 45.0107L24.6658 65.6485Z" fill="#127F7F" stroke="black" stroke-width="0.25" stroke-miterlimit="10"/>
<path d="M71.7625 54.1874C70.6333 54.8452 70.6388 55.9086 71.779 56.5663L60.7393 62.9797C62.455 60.7871 61.7479 58.1121 58.6234 56.3087C55.499 54.5053 50.8781 54.1052 47.1013 55.1028L58.141 48.6895C59.2812 49.3472 61.1175 49.3472 62.2467 48.6895L71.7625 54.1819V54.1874Z" fill="#62E1C2" stroke="black" stroke-width="0.25" stroke-miterlimit="10"/>
<path d="M55.6853 65.9173L44.6456 72.3306C43.5055 71.6729 41.6692 71.6729 40.5345 72.3306L31.0187 66.8382C32.1479 66.1804 32.1424 65.117 31.0077 64.4592L42.0474 58.0459C40.3317 60.2385 41.0388 62.9134 44.1633 64.7169C47.2877 66.5203 51.9086 66.9204 55.6853 65.9228V65.9173Z" fill="#62E1C2" stroke="black" stroke-width="0.25" stroke-miterlimit="10"/>
<path d="M60.1802 46.0088L76.4053 55.3767L42.612 75.0168L26.3868 65.6489L60.1802 46.0088ZM42.6065 74.518L75.5447 55.3767L60.1802 46.5076L27.2419 65.6489L42.6065 74.518Z" fill="#62E1C2" stroke="black" stroke-width="0.25" stroke-miterlimit="10"/>
<path d="M37.4759 58.1991L55.4277 68.5591L65.6342 62.6227L47.6933 52.2627L37.4759 58.1991Z" fill="#FDE7AE" stroke="black" stroke-width="0.25" stroke-miterlimit="10"/>
<path d="M63.3649 62.6284L47.3425 53.3428L39.356 57.9856L55.4222 67.2438L63.3649 62.6284Z" stroke="black" stroke-width="0.25" stroke-miterlimit="10"/>
<path d="M38.2323 57.7392L56.1842 68.1211L56.5843 67.8909L38.5996 57.5254L38.2323 57.7392Z" fill="#FFCB00" stroke="black" stroke-width="0.25" stroke-miterlimit="10"/>
<path d="M46.915 52.707L46.5642 52.9044L64.5599 63.2699L64.9162 63.0616L46.915 52.707Z" fill="#FFCB00" stroke="black" stroke-width="0.25" stroke-miterlimit="10"/>
<path d="M55.4277 68.565L55.4058 75.9979L65.6397 70.0504V62.623L55.4277 68.565Z" fill="#DBD8AB" stroke="black" stroke-width="0.25" stroke-miterlimit="10"/>
<path d="M56.1842 68.1265L56.1677 75.5539L56.5624 75.3237V67.9072L56.1842 68.1265Z" fill="#E5AE00" stroke="black" stroke-width="0.25" stroke-miterlimit="10"/>
<path d="M64.5051 63.3023L64.4831 70.7297L64.8833 70.494V63.083L64.5051 63.3023Z" fill="#E5AE00" stroke="black" stroke-width="0.25" stroke-miterlimit="10"/>
<path d="M52.2978 48.3992L52.7089 49.66C52.2649 49.7093 51.8922 49.7696 51.5852 49.8463C51.2782 49.9231 50.9658 50.0546 50.6479 50.241C50.1765 50.5151 50.0559 50.7179 50.2916 50.8549C50.3848 50.9098 50.4999 50.9207 50.6314 50.8823C50.763 50.844 50.9932 50.7398 51.3276 50.5699C52.0402 50.2136 52.7582 49.9998 53.4818 49.9286C54.2053 49.8573 54.8357 49.9724 55.3674 50.2794C55.8333 50.548 56.08 50.8933 56.1074 51.3044C56.1293 51.721 55.9265 52.1266 55.4935 52.5323L56.6117 53.2284L54.3753 54.4015L53.268 53.645C52.5773 53.8369 51.925 53.9191 51.3111 53.8917L51.0535 52.4939C51.3879 52.4775 51.7661 52.4062 52.1772 52.2801C52.5938 52.154 52.9117 52.0225 53.1364 51.8909C53.3338 51.7758 53.4544 51.6662 53.4928 51.5566C53.5366 51.4469 53.4928 51.3538 53.3722 51.2825C53.279 51.2277 53.1748 51.2167 53.0707 51.2496C52.9665 51.2825 52.7473 51.3757 52.4239 51.5346C51.5797 51.9129 50.8233 52.1376 50.1545 52.2034C49.4858 52.2692 48.9212 52.176 48.4717 51.9129C48.1264 51.7155 47.9126 51.4689 47.8304 51.1674C47.7427 50.8714 47.7975 50.5644 47.9839 50.252L46.7451 49.4462L48.7732 48.1416L49.9243 48.8816C50.319 48.7391 50.7246 48.624 51.1412 48.5363C51.5578 48.4486 51.947 48.4047 52.3033 48.3992H52.2978Z" fill="#ADDA88" stroke="black" stroke-width="0.25" stroke-miterlimit="10"/>
<path d="M78.5815 46.0312L78.5596 53.4641L43.0505 74.1019L43.0724 66.669L78.5815 46.0312Z" fill="#01656B" stroke="black" stroke-width="0.25" stroke-miterlimit="10"/>
<path d="M43.0725 66.6692L43.0505 74.1021L25.0987 63.7366L25.1206 56.3037L43.0725 66.6692Z" fill="#01656B" stroke="black" stroke-width="0.25" stroke-miterlimit="10"/>
<path d="M25.1208 56.3032L43.0726 66.6687L78.5817 46.0364L60.6298 35.6709L25.1208 56.3032Z" fill="#127F7F" stroke="black" stroke-width="0.25" stroke-miterlimit="10"/>
<path d="M72.2175 44.8475C71.0883 45.5053 71.0938 46.5687 72.2339 47.2265L61.1942 53.6398C62.9099 51.4472 62.2028 48.7723 59.0784 46.9689C55.9539 45.1655 51.333 44.7653 47.5563 45.7629L58.596 39.3496C59.7362 40.0074 61.5725 40.0074 62.7016 39.3496L72.2175 44.8421V44.8475Z" fill="#62E1C2" stroke="black" stroke-width="0.25" stroke-miterlimit="10"/>
<path d="M56.1458 56.5775L45.1061 62.9908C43.9659 62.333 42.1296 62.333 40.995 62.9908L31.4791 57.4984C32.6083 56.8406 32.6028 55.7772 31.4682 55.1194L42.5079 48.7061C40.7922 50.8986 41.4993 53.5736 44.6237 55.377C47.7482 57.1804 52.3691 57.5806 56.1458 56.5829V56.5775Z" fill="#62E1C2" stroke="black" stroke-width="0.25" stroke-miterlimit="10"/>
<path d="M60.6351 36.6689L76.8603 46.0368L43.067 65.6769L26.8418 56.3091L60.6351 36.6689ZM43.0615 65.1781L75.9997 46.0368L60.6351 37.1678L27.6969 56.3091L43.0615 65.1781Z" fill="#62E1C2" stroke="black" stroke-width="0.25" stroke-miterlimit="10"/>
<path d="M37.9308 48.8593L55.8827 59.2193L66.0892 53.2828L48.1483 42.9229L37.9308 48.8593Z" fill="#FDE7AE" stroke="black" stroke-width="0.25" stroke-miterlimit="10"/>
<path d="M63.8199 53.2886L47.803 44.0029L39.811 48.6403L55.8827 57.904L63.8199 53.2886Z" stroke="black" stroke-width="0.25" stroke-miterlimit="10"/>
<path d="M38.6873 48.3984L56.6391 58.7803L57.0393 58.5446L39.0545 48.1846L38.6873 48.3984Z" fill="#FFCB00" stroke="black" stroke-width="0.25" stroke-miterlimit="10"/>
<path d="M47.3699 43.3613L47.0191 43.5641L65.0148 53.9296L65.3711 53.7213L47.3699 43.3613Z" fill="#FFCB00" stroke="black" stroke-width="0.25" stroke-miterlimit="10"/>
<path d="M55.8827 59.2251L55.8607 66.658L66.0947 60.7051V53.2832L55.8827 59.2251Z" fill="#DBD8AB" stroke="black" stroke-width="0.25" stroke-miterlimit="10"/>
<path d="M56.6446 58.7867L56.6227 66.2141L57.0173 65.9838V58.5674L56.6446 58.7867Z" fill="#E5AE00" stroke="black" stroke-width="0.25" stroke-miterlimit="10"/>
<path d="M64.96 53.9624L64.9436 61.3898L65.3382 61.1541V53.7432L64.96 53.9624Z" fill="#E5AE00" stroke="black" stroke-width="0.25" stroke-miterlimit="10"/>
<path d="M52.7911 38.8719L53.2022 40.1326C52.7582 40.182 52.3855 40.2423 52.0785 40.319C51.7716 40.3957 51.4591 40.5273 51.1412 40.7137C50.6698 40.9877 50.5492 41.1906 50.7849 41.3276C50.8781 41.3824 50.9932 41.3934 51.1247 41.355C51.2563 41.3166 51.4865 41.2125 51.8209 41.0426C52.5335 40.6863 53.2516 40.4725 53.9751 40.4012C54.6987 40.33 55.329 40.4451 55.8607 40.752C56.3267 41.0206 56.5733 41.366 56.6007 41.7771C56.6227 42.1937 56.4199 42.5993 55.9868 43.0049L57.105 43.7011L54.8686 44.8741L53.7613 44.1177C53.0707 44.3095 52.4184 44.3917 51.8044 44.3643L51.5468 42.9666C51.8812 42.9501 52.2594 42.8789 52.6705 42.7528C53.0871 42.6267 53.405 42.4951 53.6298 42.3636C53.8271 42.2485 53.9477 42.1389 53.9861 42.0292C54.0299 41.9196 53.9861 41.8264 53.8655 41.7552C53.7723 41.7003 53.6681 41.6894 53.564 41.7223C53.4598 41.7552 53.2406 41.8483 52.9172 42.0073C52.073 42.3855 51.3166 42.6103 50.6479 42.676C49.9791 42.7418 49.4145 42.6486 48.965 42.3855C48.6197 42.1882 48.4059 41.9415 48.3237 41.64C48.236 41.344 48.2908 41.0371 48.4772 40.7246L47.2384 39.9189L49.2665 38.6143L50.4176 39.3543C50.8123 39.2117 51.2179 39.0966 51.6345 39.0089C52.0511 38.9212 52.4403 38.8774 52.7966 38.8719H52.7911Z" fill="#ADDA88" stroke="black" stroke-width="0.25" stroke-miterlimit="10"/>
<path d="M79.0748 36.5039L79.0529 43.9368L43.5438 64.5691L43.5658 57.1362L79.0748 36.5039Z" fill="#01656B" stroke="black" stroke-width="0.25" stroke-miterlimit="10"/>
<path d="M43.5658 57.1364L43.5439 64.5693L25.592 54.2093L25.6139 46.7764L43.5658 57.1364Z" fill="#01656B" stroke="black" stroke-width="0.25" stroke-miterlimit="10"/>
<path d="M25.6141 46.7759L43.566 57.1413L79.075 36.5036L61.1231 26.1436L25.6141 46.7759Z" fill="#127F7F" stroke="black" stroke-width="0.25" stroke-miterlimit="10"/>
<path d="M72.7108 35.3143C71.5816 35.9721 71.5871 37.0355 72.7273 37.6933L61.6876 44.1066C63.4033 41.914 62.6962 39.2391 59.5717 37.4357C56.4473 35.6323 51.8264 35.2321 48.0496 36.2297L59.0893 29.8164C60.2295 30.4742 62.0658 30.4742 63.195 29.8164L72.7108 35.3088V35.3143Z" fill="#62E1C2" stroke="black" stroke-width="0.25" stroke-miterlimit="10"/>
<path d="M56.6391 47.0501L45.5994 53.4635C44.4593 52.8057 42.623 52.8057 41.4883 53.4635L31.9725 47.971C33.1016 47.3132 33.0962 46.2498 31.9615 45.5921L43.0012 39.1787C41.2855 41.3713 41.9926 44.0463 45.1171 45.8497C48.2415 47.6531 52.8624 48.0532 56.6391 47.0556V47.0501Z" fill="#62E1C2" stroke="black" stroke-width="0.25" stroke-miterlimit="10"/>
<path d="M61.1285 27.1357L77.3536 36.5036L43.5603 56.1437L27.3351 46.7759L61.1285 27.1357ZM43.5548 55.6449L76.493 36.5036L61.1285 27.6346L28.1902 46.7759L43.5548 55.6449Z" fill="#62E1C2" stroke="black" stroke-width="0.25" stroke-miterlimit="10"/>
<path d="M38.4241 39.3265L56.376 49.6919L66.5825 43.7555L48.6416 33.3955L38.4241 39.3265Z" fill="#FDE7AE" stroke="black" stroke-width="0.25" stroke-miterlimit="10"/>
<path d="M64.3132 43.7612L48.2963 34.4756L40.3043 39.1129L56.376 48.3766L64.3132 43.7612Z" stroke="black" stroke-width="0.25" stroke-miterlimit="10"/>
<path d="M39.1806 38.871L57.1324 49.2529L57.5326 49.0172L39.5479 38.6572L39.1806 38.871Z" fill="#FFCB00" stroke="black" stroke-width="0.25" stroke-miterlimit="10"/>
<path d="M47.8633 33.834L47.5125 34.0368L65.5082 44.4023L65.8644 44.194L47.8633 33.834Z" fill="#FFCB00" stroke="black" stroke-width="0.25" stroke-miterlimit="10"/>
<path d="M56.376 49.6919L56.3541 57.1248L66.588 51.1774V43.75L56.376 49.6919Z" fill="#DBD8AB" stroke="black" stroke-width="0.25" stroke-miterlimit="10"/>
<path d="M57.1379 49.2593L57.116 56.6867L57.5107 56.4565V49.04L57.1379 49.2593Z" fill="#E5AE00" stroke="black" stroke-width="0.25" stroke-miterlimit="10"/>
<path d="M65.4533 44.4302L65.4369 51.8576L65.8316 51.6274V44.2109L65.4533 44.4302Z" fill="#E5AE00" stroke="black" stroke-width="0.25" stroke-miterlimit="10"/>
<path d="M53.2461 29.532L53.6572 30.7928C53.2132 30.8421 52.8405 30.9024 52.5335 30.9792C52.2265 31.0559 51.9141 31.1875 51.5961 31.3738C51.1247 31.6479 51.0042 31.8507 51.2399 31.9878C51.333 32.0426 51.4481 32.0535 51.5797 32.0152C51.7113 31.9768 51.9415 31.8726 52.2759 31.7027C52.9885 31.3464 53.7065 31.1326 54.4301 31.0614C55.1536 30.9901 55.784 31.1052 56.3157 31.4122C56.7816 31.6808 57.0283 32.0261 57.0557 32.4372C57.0776 32.8538 56.8748 33.2595 56.4418 33.6651L57.56 34.3612L55.3236 35.5343L54.2163 34.7778C53.5256 34.9697 52.8733 35.0519 52.2594 35.0245L52.0018 33.6267C52.3362 33.6103 52.7144 33.539 53.1255 33.4129C53.5421 33.2869 53.86 33.1553 54.0847 33.0238C54.2821 32.9087 54.4027 32.799 54.441 32.6894C54.4849 32.5798 54.441 32.4866 54.3204 32.4153C54.2273 32.3605 54.1231 32.3495 54.019 32.3824C53.9148 32.4153 53.6956 32.5085 53.3722 32.6675C52.528 33.0457 51.7716 33.2704 51.1028 33.3362C50.4341 33.402 49.8695 33.3088 49.42 33.0457C49.0747 32.8483 48.8609 32.6017 48.7787 32.3002C48.691 32.0042 48.7458 31.6972 48.9322 31.3848L47.6933 30.579L49.7215 29.2744L50.8726 30.0144C51.2673 29.8719 51.6729 29.7568 52.0895 29.6691C52.5061 29.5814 52.8953 29.5375 53.2516 29.532H53.2461Z" fill="#ADDA88" stroke="black" stroke-width="0.25" stroke-miterlimit="10"/>
<path d="M79.5298 27.1641L79.5079 34.597L43.9988 55.2292L44.0208 47.7964L79.5298 27.1641Z" fill="#01656B" stroke="black" stroke-width="0.25" stroke-miterlimit="10"/>
<path d="M44.0208 47.7965L43.9988 55.2294L26.047 44.8639L26.0689 37.4365L44.0208 47.7965Z" fill="#01656B" stroke="black" stroke-width="0.25" stroke-miterlimit="10"/>
<path d="M26.0691 37.436L44.0209 47.8015L79.53 27.1637L61.5781 16.8037L26.0691 37.436Z" fill="#127F7F" stroke="black" stroke-width="0.25" stroke-miterlimit="10"/>
<path d="M73.1713 25.9745C72.0421 26.6323 72.0476 27.6957 73.1877 28.3534L62.148 34.7668C63.8637 32.5742 63.1566 29.8992 60.0322 28.0958C56.9077 26.2924 52.2868 25.8923 48.5101 26.8899L59.5498 20.4766C60.6899 21.1343 62.5262 21.1343 63.6554 20.4766L73.1713 25.969V25.9745Z" fill="#62E1C2" stroke="black" stroke-width="0.25" stroke-miterlimit="10"/>
<path d="M57.0941 37.7044L46.0544 44.1177C44.9142 43.46 43.0779 43.46 41.9433 44.1177L32.4274 38.6253C33.5566 37.9675 33.5511 36.9041 32.4165 36.2463L43.4562 29.833C41.7405 32.0256 42.4476 34.7006 45.572 36.504C48.6965 38.3074 53.3173 38.7075 57.0941 37.7099V37.7044Z" fill="#62E1C2" stroke="black" stroke-width="0.25" stroke-miterlimit="10"/>
<path d="M61.5834 17.7959L77.8086 27.1637L44.0153 46.8039L27.7901 37.436L61.5834 17.7959ZM44.0098 46.3051L76.948 27.1637L61.5834 18.2947L28.6452 37.436L44.0098 46.3051Z" fill="#62E1C2" stroke="black" stroke-width="0.25" stroke-miterlimit="10"/>
<path d="M38.8791 29.9866L56.831 40.3521L67.0375 34.4157L49.0966 24.0557L38.8791 29.9866Z" fill="#FDE7AE" stroke="black" stroke-width="0.25" stroke-miterlimit="10"/>
<path d="M64.7681 34.4159L48.7513 25.1357L40.7648 29.7731L56.831 39.0368L64.7681 34.4159Z" stroke="black" stroke-width="0.25" stroke-miterlimit="10"/>
<path d="M39.6356 29.5312L57.5874 39.9131L57.9876 39.6774L40.0028 29.3174L39.6356 29.5312Z" fill="#FFCB00" stroke="black" stroke-width="0.25" stroke-miterlimit="10"/>
<path d="M48.3182 24.4941L47.9729 24.697L65.9631 35.0625L66.3249 34.8542L48.3182 24.4941Z" fill="#FFCB00" stroke="black" stroke-width="0.25" stroke-miterlimit="10"/>
<path d="M56.831 40.3521L56.809 47.785L67.043 41.8376V34.4102L56.831 40.3521Z" fill="#DBD8AB" stroke="black" stroke-width="0.25" stroke-miterlimit="10"/>
<path d="M57.5929 39.9191L57.571 47.3465L57.9711 47.1108L57.9656 39.6943L57.5929 39.9191Z" fill="#E5AE00" stroke="black" stroke-width="0.25" stroke-miterlimit="10"/>
<path d="M65.9083 35.0903L65.8919 42.5178L66.2865 42.2875V34.8711L65.9083 35.0903Z" fill="#E5AE00" stroke="black" stroke-width="0.25" stroke-miterlimit="10"/>
<path d="M15.8678 68.4501C19.4363 70.5111 19.4527 73.8493 15.9062 75.9049C12.3652 77.9659 6.59866 77.9659 3.0357 75.9049C-0.532747 73.8439 -0.549184 70.5056 2.99185 68.4501C6.53837 66.389 12.2994 66.389 15.8678 68.4501Z" fill="black" stroke="black" stroke-width="0.25" stroke-miterlimit="10"/>
<path d="M16.9696 69.9956V71.6675C16.9642 72.8899 16.1584 74.1122 14.5523 75.0441C11.3237 76.9242 6.06696 76.9242 2.81645 75.0441C1.17748 74.1012 0.360742 72.8569 0.366223 71.6181V69.9463C0.366223 71.1851 1.18297 72.4239 2.82193 73.3722C6.07245 75.2469 11.3292 75.2469 14.5578 73.3722C16.1639 72.4404 16.9696 71.218 16.9696 69.9956Z" fill="#AE7518" stroke="black" stroke-width="0.25" stroke-miterlimit="10"/>
<path d="M14.5194 66.9697C17.7699 68.8443 17.7864 71.8921 14.5578 73.7722C11.3292 75.6524 6.07246 75.6524 2.82194 73.7722C-0.428577 71.8921 -0.450507 68.8498 2.78357 66.9697C6.01764 65.0895 11.2689 65.0895 14.5249 66.9697H14.5194Z" fill="#FDE7AE" stroke="black" stroke-width="0.25" stroke-miterlimit="10"/>
<path d="M14.5195 66.5752C17.77 68.4498 17.7865 71.4975 14.5579 73.3777C11.3293 75.2578 6.07257 75.2578 2.82205 73.3777C-0.42847 71.4975 -0.4504 68.4553 2.78367 66.5752C6.01775 64.695 11.269 64.695 14.525 66.5752H14.5195Z" fill="#FDD778" stroke="black" stroke-width="0.25" stroke-miterlimit="10"/>
<path d="M13.2696 67.3041C15.824 68.7786 15.835 71.1686 13.297 72.6486C10.7591 74.1231 6.62609 74.1231 4.07172 72.6486C1.51735 71.1741 1.50089 68.7786 4.0443 67.3041C6.58223 65.8296 10.7153 65.8296 13.2696 67.3041Z" fill="#FFCB00" stroke="black" stroke-width="0.25" stroke-miterlimit="10"/>
<path d="M4.04429 68.2364C6.58222 66.7618 10.7153 66.7618 13.2696 68.2364C14.344 68.8558 14.9689 69.6451 15.1443 70.4564C15.3855 69.3381 14.7606 68.1651 13.2696 67.31C10.7153 65.8355 6.58222 65.8355 4.04429 67.31C2.57526 68.1651 1.96134 69.3217 2.20252 70.4344C2.37245 69.6341 2.98637 68.8558 4.04429 68.2418V68.2364Z" fill="#ED9B20" stroke="black" stroke-width="0.25" stroke-miterlimit="10"/>
<path d="M16.9696 67.94V69.6118C16.9642 70.8342 16.1584 72.0565 14.5523 72.9884C11.3237 74.8685 6.06696 74.8685 2.81645 72.9884C1.17748 72.0456 0.360742 70.8013 0.366223 69.5625V67.8906C0.366223 69.1294 1.18297 70.3683 2.82193 71.3166C6.07245 73.1967 11.3292 73.1912 14.5578 71.3166C16.1639 70.3847 16.9696 69.1623 16.9696 67.94Z" fill="#AE7518" stroke="black" stroke-width="0.25" stroke-miterlimit="10"/>
<path d="M14.5194 64.914C17.7699 66.7887 17.7864 69.8364 14.5578 71.7165C11.3292 73.5967 6.07246 73.5967 2.82194 71.7165C-0.428577 69.8364 -0.450507 66.7942 2.78357 64.914C6.01764 63.0339 11.2689 63.0339 14.5249 64.914H14.5194Z" fill="#FDE7AE" stroke="black" stroke-width="0.25" stroke-miterlimit="10"/>
<path d="M14.5195 64.5195C17.77 66.3942 17.7865 69.4419 14.5579 71.322C11.3293 73.2022 6.07257 73.2022 2.82205 71.322C-0.42847 69.4419 -0.4504 66.3996 2.78367 64.5195C6.01775 62.6393 11.269 62.6393 14.525 64.5195H14.5195Z" fill="#FDD778" stroke="black" stroke-width="0.25" stroke-miterlimit="10"/>
<path d="M13.2696 65.2485C15.824 66.723 15.835 69.1129 13.297 70.5929C10.7591 72.0674 6.62609 72.0674 4.07172 70.5929C1.51735 69.1184 1.50089 66.723 4.0443 65.2485C6.58223 63.7739 10.7153 63.7739 13.2696 65.2485Z" fill="#FFCB00" stroke="black" stroke-width="0.25" stroke-miterlimit="10"/>
<path d="M4.04429 66.1807C6.58222 64.7062 10.7153 64.7062 13.2696 66.1807C14.344 66.8001 14.9689 67.5894 15.1443 68.4007C15.3855 67.2825 14.7606 66.1094 13.2696 65.2543C10.7153 63.7798 6.58222 63.7798 4.04429 65.2543C2.57526 66.1094 1.96134 67.266 2.20252 68.3788C2.37245 67.5785 2.98637 66.8001 4.04429 66.1862V66.1807Z" fill="#ED9B20" stroke="black" stroke-width="0.25" stroke-miterlimit="10"/>
<path d="M16.9696 65.8853V67.5571C16.9642 68.7795 16.1584 70.0019 14.5523 70.9337C11.3237 72.8139 6.06696 72.8139 2.81645 70.9337C1.17748 69.9909 0.360742 68.7466 0.366223 67.5078V65.8359C0.366223 67.0748 1.18297 68.3136 2.82193 69.2619C6.07245 71.142 11.3292 71.142 14.5578 69.2619C16.1639 68.33 16.9696 67.1076 16.9696 65.8853Z" fill="#AE7518" stroke="black" stroke-width="0.25" stroke-miterlimit="10"/>
<path d="M14.5194 62.8593C17.7699 64.734 17.7864 67.7817 14.5578 69.6619C11.3292 71.542 6.07246 71.542 2.82194 69.6619C-0.428577 67.7817 -0.450507 64.7395 2.78357 62.8593C6.01764 60.9792 11.2689 60.9792 14.5249 62.8593H14.5194Z" fill="#FDE7AE" stroke="black" stroke-width="0.25" stroke-miterlimit="10"/>
<path d="M14.5195 62.4589C17.77 64.3336 17.7865 67.3813 14.5579 69.2615C11.3293 71.1416 6.07257 71.1416 2.82205 69.2615C-0.42847 67.3813 -0.4504 64.3391 2.78367 62.4589C6.01775 60.5788 11.269 60.5788 14.525 62.4589H14.5195Z" fill="#FDD778" stroke="black" stroke-width="0.25" stroke-miterlimit="10"/>
<path d="M13.2696 63.1879C15.824 64.6624 15.835 67.0524 13.297 68.5324C10.7591 70.0069 6.62609 70.0069 4.07172 68.5324C1.51735 67.0578 1.50089 64.6624 4.0443 63.1879C6.58223 61.7134 10.7153 61.7134 13.2696 63.1879Z" fill="#FFCB00" stroke="black" stroke-width="0.25" stroke-miterlimit="10"/>
<path d="M4.04429 64.1202C6.58222 62.6456 10.7153 62.6456 13.2696 64.1202C14.344 64.7396 14.9689 65.5289 15.1443 66.3402C15.3855 65.2219 14.7606 64.0489 13.2696 63.1938C10.7153 61.7193 6.58222 61.7193 4.04429 63.1938C2.57526 64.0489 1.96134 65.2055 2.20252 66.3182C2.37245 65.5179 2.98637 64.7396 4.04429 64.1256V64.1202Z" fill="#ED9B20" stroke="black" stroke-width="0.25" stroke-miterlimit="10"/>
<path d="M16.9696 63.8296V65.5015C16.9642 66.7238 16.1584 67.9462 14.5523 68.878C11.3237 70.7582 6.06696 70.7582 2.81645 68.878C1.17748 67.9352 0.360742 66.6909 0.366223 65.4521V63.7803C0.366223 65.0191 1.18297 66.2579 2.82193 67.2062C6.07245 69.0863 11.3292 69.0809 14.5578 67.2062C16.1639 66.2743 16.9696 65.052 16.9696 63.8296Z" fill="#AE7518" stroke="black" stroke-width="0.25" stroke-miterlimit="10"/>
<path d="M14.5194 60.7978C17.7699 62.6725 17.7864 65.7202 14.5578 67.6003C11.3292 69.4805 6.07246 69.4805 2.82194 67.6003C-0.428577 65.7202 -0.450507 62.678 2.78357 60.7978C6.01764 58.9177 11.2689 58.9177 14.5249 60.7978H14.5194Z" fill="#FDE7AE" stroke="black" stroke-width="0.25" stroke-miterlimit="10"/>
<path d="M14.5195 60.4033C17.77 62.2779 17.7865 65.3256 14.5579 67.2058C11.3293 69.0859 6.07257 69.0859 2.82205 67.2058C-0.42847 65.3256 -0.4504 62.2834 2.78367 60.4033C6.01775 58.5231 11.269 58.5231 14.525 60.4033H14.5195Z" fill="#FDD778" stroke="black" stroke-width="0.25" stroke-miterlimit="10"/>
<path d="M13.2696 61.1323C15.824 62.6068 15.835 64.9967 13.297 66.4767C10.7591 67.9512 6.62609 67.9512 4.07172 66.4767C1.51735 65.0022 1.50089 62.6068 4.0443 61.1323C6.58223 59.6577 10.7153 59.6577 13.2696 61.1323Z" fill="#FFCB00" stroke="black" stroke-width="0.25" stroke-miterlimit="10"/>
<path d="M4.04429 62.0645C6.58222 60.59 10.7153 60.59 13.2696 62.0645C14.344 62.6839 14.9689 63.4732 15.1443 64.2845C15.3855 63.1663 14.7606 61.9932 13.2696 61.1381C10.7153 59.6636 6.58222 59.6636 4.04429 61.1381C2.57526 61.9932 1.96134 63.1498 2.20252 64.2626C2.37245 63.4623 2.98637 62.6839 4.04429 62.07V62.0645Z" fill="#ED9B20" stroke="black" stroke-width="0.25" stroke-miterlimit="10"/>
<path d="M16.9696 61.7681V63.4399C16.9642 64.6623 16.1584 65.8847 14.5523 66.8165C11.3237 68.6967 6.06696 68.6967 2.81645 66.8165C1.17748 65.8737 0.360742 64.6294 0.366223 63.3906V61.7188C0.366223 62.9576 1.18297 64.1964 2.82193 65.1447C6.07245 67.0248 11.3292 67.0248 14.5578 65.1447C16.1639 64.2128 16.9696 62.9905 16.9696 61.7681Z" fill="#AE7518" stroke="black" stroke-width="0.25" stroke-miterlimit="10"/>
<path d="M14.5194 58.7421C17.7699 60.6168 17.7864 63.6645 14.5578 65.5447C11.3292 67.4248 6.07246 67.4248 2.82194 65.5447C-0.428577 63.6645 -0.450507 60.6223 2.78357 58.7421C6.01764 56.862 11.2689 56.862 14.5249 58.7421H14.5194Z" fill="#FDE7AE" stroke="black" stroke-width="0.25" stroke-miterlimit="10"/>
<path d="M14.5195 58.3476C17.77 60.2223 17.7865 63.27 14.5579 65.1501C11.3293 67.0303 6.07257 67.0303 2.82205 65.1501C-0.42847 63.27 -0.4504 60.2278 2.78367 58.3476C6.01775 56.4675 11.269 56.4675 14.525 58.3476H14.5195Z" fill="#FDD778" stroke="black" stroke-width="0.25" stroke-miterlimit="10"/>
<path d="M13.2696 59.0766C15.824 60.5511 15.835 62.941 13.297 64.421C10.7591 65.8956 6.62609 65.8956 4.07172 64.421C1.51735 62.9465 1.50089 60.5511 4.0443 59.0766C6.58223 57.6021 10.7153 57.6021 13.2696 59.0766Z" fill="#FFCB00" stroke="black" stroke-width="0.25" stroke-miterlimit="10"/>
<path d="M4.04429 60.0088C6.58222 58.5343 10.7153 58.5343 13.2696 60.0088C14.344 60.6282 14.9689 61.4176 15.1443 62.2288C15.3855 61.1106 14.7606 59.9376 13.2696 59.0825C10.7153 57.6079 6.58222 57.6079 4.04429 59.0825C2.57526 59.9376 1.96134 61.0942 2.20252 62.2069C2.37245 61.4066 2.98637 60.6282 4.04429 60.0143V60.0088Z" fill="#ED9B20" stroke="black" stroke-width="0.25" stroke-miterlimit="10"/>
<path d="M16.9696 59.7124V61.3843C16.9642 62.6066 16.1584 63.829 14.5523 64.7609C11.3237 66.641 6.06696 66.641 2.81645 64.7609C1.17748 63.8181 0.360742 62.5738 0.366223 61.3349V59.6631C0.366223 60.9019 1.18297 62.1407 2.82193 63.089C6.07245 64.9637 11.3292 64.9637 14.5578 63.089C16.1639 62.1572 16.9696 60.9348 16.9696 59.7124Z" fill="#AE7518" stroke="black" stroke-width="0.25" stroke-miterlimit="10"/>
<path d="M14.5194 56.6865C17.7699 58.5611 17.7864 61.6089 14.5578 63.489C11.3292 65.3691 6.07246 65.3691 2.82194 63.489C-0.428577 61.6089 -0.450507 58.5666 2.78357 56.6865C6.01764 54.8063 11.2689 54.8063 14.5249 56.6865H14.5194Z" fill="#FDE7AE" stroke="black" stroke-width="0.25" stroke-miterlimit="10"/>
<path d="M14.5195 56.2919C17.77 58.1666 17.7865 61.2143 14.5579 63.0945C11.3293 64.9746 6.07257 64.9746 2.82205 63.0945C-0.42847 61.2143 -0.4504 58.1721 2.78367 56.2919C6.01775 54.4118 11.269 54.4118 14.525 56.2919H14.5195Z" fill="#FDD778" stroke="black" stroke-width="0.25" stroke-miterlimit="10"/>
<path d="M13.2696 57.0209C15.824 58.4954 15.835 60.8854 13.297 62.3654C10.7591 63.8399 6.62609 63.8399 4.07172 62.3654C1.51735 60.8909 1.50089 58.4954 4.0443 57.0209C6.58223 55.5464 10.7153 55.5464 13.2696 57.0209Z" fill="#FFCB00" stroke="black" stroke-width="0.25" stroke-miterlimit="10"/>
<path d="M4.04429 57.9532C6.58222 56.4786 10.7153 56.4786 13.2696 57.9532C14.344 58.5726 14.9689 59.3619 15.1443 60.1732C15.3855 59.0549 14.7606 57.8819 13.2696 57.0268C10.7153 55.5523 6.58222 55.5523 4.04429 57.0268C2.57526 57.8819 1.96134 59.0385 2.20252 60.1512C2.37245 59.3509 2.98637 58.5726 4.04429 57.9586V57.9532Z" fill="#ED9B20" stroke="black" stroke-width="0.25" stroke-miterlimit="10"/>
<path d="M16.9696 57.6577V59.3296C16.9642 60.552 16.1584 61.7743 14.5523 62.7062C11.3237 64.5863 6.06696 64.5863 2.81645 62.7062C1.17748 61.7634 0.360742 60.5191 0.366223 59.2803V57.6084C0.366223 58.8472 1.18297 60.086 2.82193 61.0343C6.07245 62.909 11.3292 62.909 14.5578 61.0343C16.1639 60.1025 16.9696 58.8801 16.9696 57.6577Z" fill="#AE7518" stroke="black" stroke-width="0.25" stroke-miterlimit="10"/>
<path d="M14.5194 54.6318C17.7699 56.5065 17.7864 59.5542 14.5578 61.4343C11.3292 63.3145 6.07246 63.3145 2.82194 61.4343C-0.428577 59.5542 -0.450507 56.5119 2.78357 54.6318C6.01764 52.7516 11.2689 52.7516 14.5249 54.6318H14.5194Z" fill="#FDE7AE" stroke="black" stroke-width="0.25" stroke-miterlimit="10"/>
<path d="M14.5195 54.2314C17.77 56.1061 17.7865 59.1538 14.5579 61.0339C11.3293 62.9141 6.07257 62.9141 2.82205 61.0339C-0.42847 59.1538 -0.4504 56.1115 2.78367 54.2314C6.01775 52.3513 11.269 52.3513 14.525 54.2314H14.5195Z" fill="#FDD778" stroke="black" stroke-width="0.25" stroke-miterlimit="10"/>
<path d="M13.2696 54.9604C15.824 56.4349 15.835 58.8248 13.297 60.3048C10.7591 61.7793 6.62609 61.7793 4.07172 60.3048C1.51735 58.8303 1.50089 56.4349 4.0443 54.9604C6.58223 53.4859 10.7153 53.4859 13.2696 54.9604Z" fill="#FFCB00" stroke="black" stroke-width="0.25" stroke-miterlimit="10"/>
<path d="M4.04429 55.8926C6.58222 54.4181 10.7153 54.4181 13.2696 55.8926C14.344 56.512 14.9689 57.3013 15.1443 58.1126C15.3855 56.9944 14.7606 55.8214 13.2696 54.9662C10.7153 53.4917 6.58222 53.4917 4.04429 54.9662C2.57526 55.8214 1.96134 56.9779 2.20252 58.0907C2.37245 57.2904 2.98637 56.512 4.04429 55.8981V55.8926Z" fill="#ED9B20" stroke="black" stroke-width="0.25" stroke-miterlimit="10"/>
<path d="M16.9696 55.6021V57.2739C16.9642 58.4963 16.1584 59.7187 14.5523 60.6505C11.3237 62.5307 6.06696 62.5307 2.81645 60.6505C1.17748 59.7077 0.360742 58.4634 0.366223 57.2246V55.5527C0.366223 56.7915 1.18297 58.0304 2.82193 58.9787C6.07245 60.8533 11.3292 60.8533 14.5578 58.9787C16.1639 58.0468 16.9696 56.8244 16.9696 55.6021Z" fill="#AE7518" stroke="black" stroke-width="0.25" stroke-miterlimit="10"/>
<path d="M14.5194 52.5703C17.7699 54.4504 17.7864 57.4926 14.5578 59.3728C11.3292 61.2529 6.07246 61.2529 2.82194 59.3728C-0.428577 57.4926 -0.450507 54.4504 2.78357 52.5703C6.01764 50.6901 11.2689 50.6901 14.5249 52.5703H14.5194Z" fill="#FDE7AE" stroke="black" stroke-width="0.25" stroke-miterlimit="10"/>
<path d="M14.5195 52.1757C17.77 54.0504 17.7865 57.0981 14.5579 58.9783C11.3293 60.8584 6.07257 60.8584 2.82205 58.9783C-0.42847 57.0981 -0.4504 54.0559 2.78367 52.1757C6.01775 50.2956 11.269 50.2956 14.525 52.1757H14.5195Z" fill="#FDD778" stroke="black" stroke-width="0.25" stroke-miterlimit="10"/>
<path d="M13.2696 52.9047C15.824 54.3792 15.835 56.7692 13.297 58.2492C10.7591 59.7237 6.62609 59.7237 4.07172 58.2492C1.51735 56.7746 1.50089 54.3792 4.0443 52.9047C6.58223 51.4302 10.7153 51.4302 13.2696 52.9047Z" fill="#FFCB00" stroke="black" stroke-width="0.25" stroke-miterlimit="10"/>
<path d="M4.04429 53.8369C6.58222 52.3624 10.7153 52.3624 13.2696 53.8369C14.344 54.4564 14.9689 55.2457 15.1443 56.0569C15.3855 54.9387 14.7606 53.7657 13.2696 52.9106C10.7153 51.4361 6.58222 51.4361 4.04429 52.9106C2.57526 53.7657 1.96134 54.9223 2.20252 56.035C2.37245 55.2347 2.98637 54.4563 4.04429 53.8424V53.8369Z" fill="#ED9B20" stroke="black" stroke-width="0.25" stroke-miterlimit="10"/>
<path d="M16.9696 53.5405V55.2124C16.9642 56.4348 16.1584 57.6571 14.5523 58.589C11.3237 60.4691 6.06696 60.4691 2.81645 58.589C1.17748 57.6462 0.360742 56.4019 0.366223 55.1631V53.4912C0.366223 54.73 1.18297 55.9688 2.82193 56.9171C6.07245 58.7918 11.3292 58.7918 14.5578 56.9171C16.1639 55.9853 16.9696 54.7629 16.9696 53.5405Z" fill="#AE7518" stroke="black" stroke-width="0.25" stroke-miterlimit="10"/>
<path d="M14.5194 50.5146C17.7699 52.3948 17.7864 55.437 14.5578 57.3171C11.3292 59.1973 6.07246 59.1973 2.82194 57.3171C-0.428577 55.437 -0.450507 52.3948 2.78357 50.5146C6.01764 48.6345 11.2689 48.6345 14.5249 50.5146H14.5194Z" fill="#FDE7AE" stroke="black" stroke-width="0.25" stroke-miterlimit="10"/>
<path d="M14.5198 50.1201C17.7704 51.9947 17.7868 55.0424 14.5582 56.9226C11.3296 58.8027 6.07287 58.8027 2.82235 56.9226C-0.428165 55.0424 -0.450095 52.0002 2.78398 50.1201C6.01805 48.2399 11.2693 48.2399 14.5253 50.1201H14.5198Z" fill="#FDD778" stroke="black" stroke-width="0.25" stroke-miterlimit="10"/>
<path d="M13.2696 50.8491C15.824 52.3236 15.835 54.7135 13.297 56.1935C10.7591 57.668 6.62608 57.668 4.07171 56.1935C1.51734 54.719 1.50089 52.3236 4.04429 50.8491C6.58222 49.3745 10.7153 49.3745 13.2696 50.8491Z" fill="#EDAD4E" stroke="black" stroke-width="0.25" stroke-miterlimit="10"/>
<path d="M4.04429 51.7813C6.58222 50.3068 10.7153 50.3068 13.2696 51.7813C14.344 52.4007 14.9689 53.19 15.1443 54.0013C15.3855 52.8831 14.7606 51.71 13.2696 50.8549C10.7153 49.3804 6.58222 49.3804 4.04429 50.8549C2.57526 51.71 1.96134 52.8666 2.20252 53.9793C2.37245 53.1791 2.98637 52.4007 4.04429 51.7868V51.7813Z" fill="#AE7518" stroke="black" stroke-width="0.25" stroke-miterlimit="10"/>
<path d="M29.9498 76.995C33.5182 79.056 33.5347 82.3942 29.9882 84.4498C26.4471 86.5108 20.6806 86.5108 17.1176 84.4498C13.5492 82.3888 13.5327 79.0506 17.0738 76.995C20.6203 74.934 26.3813 74.934 29.9498 76.995Z" fill="black" stroke="black" stroke-width="0.25" stroke-miterlimit="10"/>
<path d="M31.2105 78.1743V79.8462C31.205 81.0685 30.3993 82.2909 28.7932 83.2228C25.5646 85.1029 20.3079 85.1029 17.0573 83.2228C15.4184 82.28 14.6016 81.0357 14.6071 79.7968V78.125C14.6071 79.3638 15.4238 80.6026 17.0628 81.5509C20.3133 83.4256 25.5701 83.4256 28.7987 81.5509C30.4047 80.6191 31.2105 79.3967 31.2105 78.1743Z" fill="#AE7518" stroke="black" stroke-width="0.25" stroke-miterlimit="10"/>
<path d="M28.7603 75.1425C32.0108 77.0172 32.0273 80.0649 28.7987 81.9451C25.5701 83.8252 20.3133 83.8252 17.0628 81.9451C13.8123 80.0649 13.7904 77.0227 17.0245 75.1425C20.2585 73.2624 25.5098 73.2624 28.7658 75.1425H28.7603Z" fill="#FDE7AE" stroke="black" stroke-width="0.25" stroke-miterlimit="10"/>
<path d="M28.7604 74.748C32.0109 76.6227 32.0274 79.6704 28.7988 81.5505C25.5702 83.4307 20.3134 83.4307 17.0629 81.5505C13.8124 79.6704 13.7905 76.6281 17.0246 74.748C20.2586 72.8679 25.5099 72.8679 28.7659 74.748H28.7604Z" fill="#FDD778" stroke="black" stroke-width="0.25" stroke-miterlimit="10"/>
<path d="M27.5105 75.477C30.0649 76.9515 30.0759 79.3414 27.5379 80.8214C25 82.2959 20.867 82.2959 18.3126 80.8214C15.7582 79.3469 15.7418 76.9515 18.2852 75.477C20.8231 74.0025 24.9561 74.0025 27.5105 75.477Z" fill="#FFCB00" stroke="black" stroke-width="0.25" stroke-miterlimit="10"/>
<path d="M18.2852 76.4092C20.8231 74.9347 24.9561 74.9347 27.5105 76.4092C28.5849 77.0286 29.2098 77.8179 29.3852 78.6292C29.6264 77.511 29.0015 76.338 27.5105 75.4828C24.9561 74.0083 20.8231 74.0083 18.2852 75.4828C16.8162 76.338 16.2022 77.4945 16.4434 78.6073C16.6133 77.807 17.2273 77.0286 18.2852 76.4147V76.4092Z" fill="#ED9B20" stroke="black" stroke-width="0.25" stroke-miterlimit="10"/>
<path d="M31.2105 76.1187V77.7905C31.205 79.0129 30.3993 80.2353 28.7932 81.1671C25.5646 83.0473 20.3079 83.0473 17.0573 81.1671C15.4184 80.2243 14.6016 78.98 14.6071 77.7412V76.0693C14.6071 77.3082 15.4238 78.547 17.0628 79.4953C20.3133 81.3699 25.5701 81.3699 28.7987 79.4953C30.4047 78.5634 31.2105 77.341 31.2105 76.1187Z" fill="#AE7518" stroke="black" stroke-width="0.25" stroke-miterlimit="10"/>
<path d="M28.7603 73.0869C32.0108 74.9615 32.0273 78.0092 28.7987 79.8894C25.5701 81.7695 20.3133 81.7695 17.0628 79.8894C13.8123 78.0092 13.7904 74.967 17.0245 73.0869C20.2585 71.2067 25.5098 71.2067 28.7658 73.0869H28.7603Z" fill="#FDE7AE" stroke="black" stroke-width="0.25" stroke-miterlimit="10"/>
<path d="M28.7604 72.6923C32.0109 74.567 32.0274 77.6147 28.7988 79.4949C25.5702 81.375 20.3134 81.375 17.0629 79.4949C13.8124 77.6147 13.7905 74.5725 17.0246 72.6923C20.2586 70.8122 25.5099 70.8122 28.7659 72.6923H28.7604Z" fill="#FDD778" stroke="black" stroke-width="0.25" stroke-miterlimit="10"/>
<path d="M27.5105 73.4213C30.0649 74.8958 30.0759 77.2858 27.5379 78.7658C25 80.2403 20.867 80.2403 18.3126 78.7658C15.7582 77.2912 15.7418 74.8958 18.2852 73.4213C20.8231 71.9468 24.9561 71.9468 27.5105 73.4213Z" fill="#FFCB00" stroke="black" stroke-width="0.25" stroke-miterlimit="10"/>
<path d="M18.2852 74.3535C20.8231 72.879 24.9561 72.879 27.5105 74.3535C28.5849 74.973 29.2098 75.7623 29.3852 76.5735C29.6264 75.4553 29.0015 74.2823 27.5105 73.4272C24.9561 71.9527 20.8231 71.9527 18.2852 73.4272C16.8162 74.2823 16.2022 75.4389 16.4434 76.5516C16.6133 75.7513 17.2273 74.9729 18.2852 74.359V74.3535Z" fill="#ED9B20" stroke="black" stroke-width="0.25" stroke-miterlimit="10"/>
<path d="M31.2105 74.0571V75.729C31.205 76.9514 30.3993 78.1737 28.7932 79.1056C25.5646 80.9857 20.3079 80.9857 17.0573 79.1056C15.4184 78.1628 14.6016 76.9185 14.6071 75.6797V74.0078C14.6071 75.2466 15.4238 76.4854 17.0628 77.4337C20.3133 79.3084 25.5701 79.3084 28.7987 77.4337C30.4047 76.5019 31.2105 75.2795 31.2105 74.0571Z" fill="#AE7518" stroke="black" stroke-width="0.25" stroke-miterlimit="10"/>
<path d="M28.7603 71.0312C32.0108 72.9059 32.0273 75.9536 28.7987 77.8337C25.5701 79.7139 20.3133 79.7139 17.0628 77.8337C13.8123 75.9536 13.7904 72.9114 17.0245 71.0312C20.2585 69.1511 25.5098 69.1511 28.7658 71.0312H28.7603Z" fill="#FDE7AE" stroke="black" stroke-width="0.25" stroke-miterlimit="10"/>
<path d="M28.7604 70.6367C32.0109 72.5113 32.0274 75.559 28.7988 77.4392C25.5702 79.3193 20.3134 79.3193 17.0629 77.4392C13.8124 75.559 13.7905 72.5168 17.0246 70.6367C20.2586 68.7565 25.5099 68.7565 28.7659 70.6367H28.7604Z" fill="#FDD778" stroke="black" stroke-width="0.25" stroke-miterlimit="10"/>
<path d="M27.5105 71.3657C30.0649 72.8402 30.0759 75.2301 27.5379 76.7101C25 78.1846 20.867 78.1846 18.3126 76.7101C15.7582 75.2356 15.7418 72.8402 18.2852 71.3657C20.8231 69.8911 24.9561 69.8911 27.5105 71.3657Z" fill="#FFCB00" stroke="black" stroke-width="0.25" stroke-miterlimit="10"/>
<path d="M18.2852 72.2979C20.8231 70.8234 24.9561 70.8234 27.5105 72.2979C28.5849 72.9173 29.2098 73.7066 29.3852 74.5179C29.6264 73.3997 29.0015 72.2266 27.5105 71.3715C24.9561 69.897 20.8231 69.897 18.2852 71.3715C16.8162 72.2266 16.2022 73.3832 16.4434 74.4959C16.6133 73.6957 17.2273 72.9173 18.2852 72.3034V72.2979Z" fill="#ED9B20" stroke="black" stroke-width="0.25" stroke-miterlimit="10"/>
<path d="M31.2105 72.0015V73.6733C31.205 74.8957 30.3993 76.1181 28.7932 77.0499C25.5646 78.9301 20.3079 78.9301 17.0573 77.0499C15.4184 76.1071 14.6016 74.8628 14.6071 73.624V71.9521C14.6071 73.191 15.4238 74.4298 17.0628 75.3781C20.3133 77.2582 25.5701 77.2527 28.7987 75.3781C30.4047 74.4462 31.2105 73.2239 31.2105 72.0015Z" fill="#AE7518" stroke="black" stroke-width="0.25" stroke-miterlimit="10"/>
<path d="M28.7603 68.9755C32.0108 70.8502 32.0273 73.8979 28.7987 75.7781C25.5701 77.6582 20.3133 77.6582 17.0628 75.7781C13.8123 73.8979 13.7904 70.8557 17.0245 68.9755C20.2585 67.0954 25.5098 67.0954 28.7658 68.9755H28.7603Z" fill="#FDE7AE" stroke="black" stroke-width="0.25" stroke-miterlimit="10"/>
<path d="M28.7604 68.581C32.0109 70.4557 32.0274 73.5034 28.7988 75.3835C25.5702 77.2637 20.3134 77.2637 17.0629 75.3835C13.8124 73.5034 13.7905 70.4612 17.0246 68.581C20.2586 66.7009 25.5099 66.7009 28.7659 68.581H28.7604Z" fill="#FDD778" stroke="black" stroke-width="0.25" stroke-miterlimit="10"/>
<path d="M27.5105 69.31C30.0649 70.7845 30.0759 73.1744 27.5379 74.6544C25 76.129 20.867 76.129 18.3126 74.6544C15.7582 73.1799 15.7418 70.7845 18.2852 69.31C20.8231 67.8355 24.9561 67.8355 27.5105 69.31Z" fill="#FFCB00" stroke="black" stroke-width="0.25" stroke-miterlimit="10"/>
<path d="M18.2852 70.2364C20.8231 68.7618 24.9561 68.7618 27.5105 70.2364C28.5849 70.8558 29.2098 71.6451 29.3852 72.4564C29.6264 71.3381 29.0015 70.1651 27.5105 69.31C24.9561 67.8355 20.8231 67.8355 18.2852 69.31C16.8162 70.1651 16.2022 71.3217 16.4434 72.4344C16.6133 71.6341 17.2273 70.8558 18.2852 70.2418V70.2364Z" fill="#ED9B20" stroke="black" stroke-width="0.25" stroke-miterlimit="10"/>
<path d="M31.2105 69.9468V71.6186C31.205 72.841 30.3993 74.0634 28.7932 74.9952C25.5646 76.8754 20.3079 76.8754 17.0573 74.9952C15.4184 74.0524 14.6016 72.8081 14.6071 71.5693V69.8975C14.6071 71.1363 15.4238 72.3751 17.0628 73.3234C20.3133 75.2035 25.5701 75.2035 28.7987 73.3234C30.4047 72.3915 31.2105 71.1692 31.2105 69.9468Z" fill="#AE7518" stroke="black" stroke-width="0.25" stroke-miterlimit="10"/>
<path d="M28.7603 66.915C32.0108 68.7897 32.0273 71.8374 28.7987 73.7175C25.5701 75.5977 20.3133 75.5977 17.0628 73.7175C13.8123 71.8374 13.7904 68.7951 17.0245 66.915C20.2585 65.0348 25.5098 65.0348 28.7658 66.915H28.7603Z" fill="#FDE7AE" stroke="black" stroke-width="0.25" stroke-miterlimit="10"/>
<path d="M28.7604 66.5205C32.0109 68.3951 32.0274 71.4428 28.7988 73.323C25.5702 75.2031 20.3134 75.2031 17.0629 73.323C13.8124 71.4428 13.7905 68.4006 17.0246 66.5205C20.2586 64.6403 25.5099 64.6403 28.7659 66.5205H28.7604Z" fill="#FDD778" stroke="black" stroke-width="0.25" stroke-miterlimit="10"/>
<path d="M27.5105 67.2494C30.0649 68.724 30.0759 71.1139 27.5379 72.5939C25 74.0684 20.867 74.0684 18.3126 72.5939C15.7582 71.1194 15.7418 68.724 18.2852 67.2494C20.8231 65.7749 24.9561 65.7749 27.5105 67.2494Z" fill="#FFCB00" stroke="black" stroke-width="0.25" stroke-miterlimit="10"/>
<path d="M18.2852 68.1817C20.8231 66.7072 24.9561 66.7072 27.5105 68.1817C28.5849 68.8011 29.2098 69.5904 29.3852 70.4017C29.6264 69.2834 29.0015 68.1104 27.5105 67.2553C24.9561 65.7808 20.8231 65.7808 18.2852 67.2553C16.8162 68.1104 16.2022 69.267 16.4434 70.3798C16.6133 69.5795 17.2273 68.8011 18.2852 68.1872V68.1817Z" fill="#ED9B20" stroke="black" stroke-width="0.25" stroke-miterlimit="10"/>
<path d="M31.2105 67.8911V69.563C31.205 70.7853 30.3993 72.0077 28.7932 72.9396C25.5646 74.8197 20.3079 74.8197 17.0573 72.9396C15.4184 71.9968 14.6016 70.7525 14.6071 69.5136V67.8418C14.6071 69.0806 15.4238 70.3194 17.0628 71.2677C20.3133 73.1479 25.5701 73.1424 28.7987 71.2677C30.4047 70.3359 31.2105 69.1135 31.2105 67.8911Z" fill="#AE7518" stroke="black" stroke-width="0.25" stroke-miterlimit="10"/>
<path d="M28.7603 64.8593C32.0108 66.734 32.0273 69.7817 28.7987 71.6619C25.5701 73.542 20.3133 73.542 17.0628 71.6619C13.8123 69.7817 13.7904 66.7395 17.0245 64.8593C20.2585 62.9792 25.5098 62.9792 28.7658 64.8593H28.7603Z" fill="#FDE7AE" stroke="black" stroke-width="0.25" stroke-miterlimit="10"/>
<path d="M28.7604 64.4648C32.0109 66.3395 32.0274 69.3872 28.7988 71.2673C25.5702 73.1475 20.3134 73.1475 17.0629 71.2673C13.8124 69.3872 13.7905 66.3449 17.0246 64.4648C20.2586 62.5847 25.5099 62.5847 28.7659 64.4648H28.7604Z" fill="#FDD778" stroke="black" stroke-width="0.25" stroke-miterlimit="10"/>
<path d="M27.5105 65.1938C30.0649 66.6683 30.0759 69.0582 27.5379 70.5382C25 72.0127 20.867 72.0127 18.3126 70.5382C15.7582 69.0637 15.7418 66.6683 18.2852 65.1938C20.8231 63.7193 24.9561 63.7193 27.5105 65.1938Z" fill="#FFCB00" stroke="black" stroke-width="0.25" stroke-miterlimit="10"/>
<path d="M18.2852 66.126C20.8231 64.6515 24.9561 64.6515 27.5105 66.126C28.5849 66.7454 29.2098 67.5347 29.3852 68.346C29.6264 67.2278 29.0015 66.0547 27.5105 65.1996C24.9561 63.7251 20.8231 63.7251 18.2852 65.1996C16.8162 66.0547 16.2022 67.2113 16.4434 68.3241C16.6133 67.5238 17.2273 66.7454 18.2852 66.1315V66.126Z" fill="#ED9B20" stroke="black" stroke-width="0.25" stroke-miterlimit="10"/>
<path d="M31.2105 65.8296V67.5015C31.205 68.7238 30.3993 69.9462 28.7932 70.8781C25.5646 72.7582 20.3079 72.7582 17.0573 70.8781C15.4184 69.9352 14.6016 68.691 14.6071 67.4521V65.7803C14.6071 67.0191 15.4238 68.2579 17.0628 69.2062C20.3133 71.0809 25.5701 71.0809 28.7987 69.2062C30.4047 68.2743 31.2105 67.052 31.2105 65.8296Z" fill="#AE7518" stroke="black" stroke-width="0.25" stroke-miterlimit="10"/>
<path d="M28.7603 62.8037C32.0108 64.6783 32.0273 67.726 28.7987 69.6062C25.5701 71.4863 20.3133 71.4863 17.0628 69.6062C13.8123 67.726 13.7904 64.6838 17.0245 62.8037C20.2585 60.9235 25.5098 60.9235 28.7658 62.8037H28.7603Z" fill="#FDE7AE" stroke="black" stroke-width="0.25" stroke-miterlimit="10"/>
<path d="M28.7604 62.4091C32.0109 64.2838 32.0274 67.3315 28.7988 69.2117C25.5702 71.0918 20.3134 71.0918 17.0629 69.2117C13.8124 67.3315 13.7905 64.2893 17.0246 62.4091C20.2586 60.529 25.5099 60.529 28.7659 62.4091H28.7604Z" fill="#FDD778" stroke="black" stroke-width="0.25" stroke-miterlimit="10"/>
<path d="M27.5105 63.1381C30.0649 64.6126 30.0759 67.0026 27.5379 68.4826C25 69.9571 20.867 69.9571 18.3126 68.4826C15.7582 67.008 15.7418 64.6126 18.2852 63.1381C20.8231 61.6636 24.9561 61.6636 27.5105 63.1381Z" fill="#FFCB00" stroke="black" stroke-width="0.25" stroke-miterlimit="10"/>
<path d="M18.2852 64.0703C20.8231 62.5958 24.9561 62.5958 27.5105 64.0703C28.5849 64.6898 29.2098 65.4791 29.3852 66.2903C29.6264 65.1721 29.0015 63.9991 27.5105 63.144C24.9561 61.6695 20.8231 61.6695 18.2852 63.144C16.8162 63.9991 16.2022 65.1557 16.4434 66.2684C16.6133 65.4681 17.2273 64.6898 18.2852 64.0758V64.0703Z" fill="#ED9B20" stroke="black" stroke-width="0.25" stroke-miterlimit="10"/>
<path d="M31.2105 63.7739V65.4458C31.205 66.6682 30.3993 67.8905 28.7932 68.8224C25.5646 70.7025 20.3079 70.7025 17.0573 68.8224C15.4184 67.8796 14.6016 66.6353 14.6071 65.3965V63.7246C14.6071 64.9634 15.4238 66.2022 17.0628 67.1505C20.3133 69.0252 25.5701 69.0252 28.7987 67.1505C30.4047 66.2187 31.2105 64.9963 31.2105 63.7739Z" fill="#AE7518" stroke="black" stroke-width="0.25" stroke-miterlimit="10"/>
<path d="M28.7603 60.748C32.0108 62.6227 32.0273 65.6704 28.7987 67.5505C25.5701 69.4307 20.3133 69.4307 17.0628 67.5505C13.8123 65.6704 13.7904 62.6281 17.0245 60.748C20.2585 58.8679 25.5098 58.8679 28.7658 60.748H28.7603Z" fill="#FDE7AE" stroke="black" stroke-width="0.25" stroke-miterlimit="10"/>
<path d="M28.7604 60.3535C32.0109 62.2281 32.0274 65.2758 28.7988 67.156C25.5702 69.0361 20.3134 69.0361 17.0629 67.156C13.8124 65.2758 13.7905 62.2336 17.0246 60.3535C20.2586 58.4733 25.5099 58.4733 28.7659 60.3535H28.7604Z" fill="#FDD778" stroke="black" stroke-width="0.25" stroke-miterlimit="10"/>
<path d="M27.5105 61.0766C30.0649 62.5511 30.0759 64.941 27.5379 66.421C25 67.8956 20.867 67.8956 18.3126 66.421C15.7582 64.9465 15.7418 62.5511 18.2852 61.0766C20.8231 59.6021 24.9561 59.6021 27.5105 61.0766Z" fill="#EDAD4E" stroke="black" stroke-width="0.25" stroke-miterlimit="10"/>
<path d="M18.2852 62.0088C20.8231 60.5343 24.9561 60.5343 27.5105 62.0088C28.5849 62.6282 29.2098 63.4176 29.3852 64.2288C29.6264 63.1106 29.0015 61.9376 27.5105 61.0825C24.9561 59.6079 20.8231 59.6079 18.2852 61.0825C16.8162 61.9376 16.2022 63.0942 16.4434 64.2069C16.6133 63.4066 17.2273 62.6282 18.2852 62.0143V62.0088Z" fill="#AE7518" stroke="black" stroke-width="0.25" stroke-miterlimit="10"/>
</svg>
