<svg width="16" height="17" viewBox="0 0 16 17" fill="none" xmlns="http://www.w3.org/2000/svg">
<g clip-path="url(#clip0_8503_65468)">
<path d="M16.0002 11.4241C16.0002 9.43859 14.8612 7.66663 13.1552 6.80469C13.1023 10.6116 10.0159 13.698 6.20898 13.7509C7.07092 15.4569 8.84289 16.5959 10.8284 16.5959C11.7593 16.5959 12.6645 16.348 13.4599 15.8769L15.9776 16.5733L15.2812 14.0557C15.7523 13.2603 16.0002 12.355 16.0002 11.4241Z" fill="#62E3C4"/>
<path d="M12.2188 6.70312C12.2188 3.33437 9.47812 0.59375 6.10938 0.59375C2.74062 0.59375 0 3.33437 0 6.70312C0 7.80103 0.29225 8.87 0.847188 9.80847L0.0224375 12.7899L3.004 11.9653C3.9425 12.5202 5.01147 12.8125 6.10938 12.8125C9.47812 12.8125 12.2188 10.0719 12.2188 6.70312ZM5.17188 5.28125H4.23438C4.23438 4.24731 5.07544 3.40625 6.10938 3.40625C7.14331 3.40625 7.98438 4.24731 7.98438 5.28125C7.98438 5.80603 7.76219 6.31044 7.37463 6.66491L6.57812 7.39391V8.125H5.64062V6.98109L6.74169 5.97328C6.93847 5.79322 7.04688 5.5475 7.04688 5.28125C7.04688 4.76428 6.62634 4.34375 6.10938 4.34375C5.59241 4.34375 5.17188 4.76428 5.17188 5.28125ZM5.64062 9.0625H6.57812V10H5.64062V9.0625Z" fill="#62E3C4"/>
</g>
<defs>
<clipPath id="clip0_8503_65468">
<rect width="16" height="16" fill="white" transform="translate(0 0.59375)"/>
</clipPath>
</defs>
</svg>
