<svg width="18" height="18" viewBox="0 0 18 18" fill="none" xmlns="http://www.w3.org/2000/svg">
<path d="M16.875 3.94228V11.293C16.875 12.3832 15.8878 13.2668 14.67 13.2668H8.24597C8.12259 13.2668 8.00262 13.3073 7.90453 13.3822L4.21875 16.1932C3.97463 16.3853 3.85313 16.3291 3.85144 16.1522V13.4094C3.8494 13.3697 3.83168 13.3323 3.80215 13.3056C3.77263 13.2789 3.73372 13.2649 3.69394 13.2668H3.33C2.11219 13.2668 1.125 12.3832 1.125 11.293V3.94228C1.125 2.85244 2.11219 1.96875 3.33 1.96875H14.67C15.8878 1.96875 16.875 2.85244 16.875 3.94228Z" fill="#A6A6AC"/>
</svg>
