<svg width="30" height="36" viewBox="0 0 30 36" fill="none" xmlns="http://www.w3.org/2000/svg">
<path d="M20.9542 3.91019C23.2495 4.54229 24.8926 6.75957 25.6786 9.87177C26.4645 12.984 26.385 16.9609 25.2523 21.0741C24.1196 25.1873 22.1491 28.6483 19.8831 30.9168C17.6171 33.1852 15.0685 34.2499 12.7732 33.6178L8.6416 32.48L16.8226 2.77242L20.9542 3.91019Z" fill="#EAB95B"/>
<path d="M20.9542 3.91019C23.2495 4.54229 24.8926 6.75957 25.6786 9.87177C26.4645 12.984 26.385 16.9609 25.2523 21.0741C24.1196 25.1873 22.1491 28.6483 19.8831 30.9168C17.6171 33.1852 15.0685 34.2499 12.7732 33.6178L8.6416 32.48L16.8226 2.77242L20.9542 3.91019Z" fill="#62E3C4" stroke="black" stroke-width="0.358087"/>
<path d="M17.3552 2.9195C19.6505 3.5516 21.2937 5.76888 22.0796 8.88108C22.8655 11.9933 22.7876 15.9706 21.6549 20.0838C20.5222 24.197 18.5517 27.6581 16.2856 29.9265C14.0196 32.195 11.4711 33.2596 9.17574 32.6275C6.88042 31.9954 5.2373 29.7781 4.45096 26.6674C3.66462 23.5568 3.74448 19.5783 4.87762 15.4636C6.01075 11.3489 7.98042 7.89086 10.2464 5.62241C12.5125 3.35396 15.0599 2.2874 17.3552 2.9195Z" fill="white" stroke="black" stroke-width="0.358087"/>
<path d="M15.9877 6.89552C17.5932 7.33766 18.7342 8.93118 19.2676 11.1859C19.801 13.4407 19.7193 16.3278 18.8943 19.3235C18.0694 22.3192 16.6595 24.8434 15.049 26.5049C13.4385 28.1665 11.6405 28.9535 10.035 28.5113C8.42949 28.0692 7.29372 26.4771 6.75819 24.2148C6.22266 21.9524 6.30649 19.0728 7.13145 16.0772C7.95641 13.0815 9.36633 10.5573 10.9768 8.89574C12.5873 7.23421 14.3835 6.45375 15.9877 6.89552Z" fill="#D9D9D9"/>
<path d="M19.1008 11.2464L19.2751 11.2056L19.1008 11.2464C19.1864 11.6121 19.2546 11.9897 19.306 12.3766C19.2988 12.3445 19.2915 12.3125 19.284 12.2806L19.284 12.2806C18.7543 10.0147 17.6061 8.58894 16.1324 8.18349C14.6589 7.77806 12.9425 8.4156 11.3278 10.0895C9.71093 11.7658 8.46971 14.1941 7.76314 16.7599C7.05656 19.3256 6.87944 22.0477 7.40987 24.3166L7.40987 24.3166C7.86859 26.2782 8.79075 27.6089 9.98835 28.1961C10.2118 28.3057 10.4431 28.3886 10.6807 28.4447C10.314 28.4158 9.96299 28.3262 9.63225 28.1789C8.41853 27.6383 7.42099 26.2946 6.92147 24.159C6.36255 21.7683 6.54551 18.8752 7.30153 16.1298C8.05755 13.3845 9.38145 10.8059 11.0853 9.03901C12.7913 7.26992 14.5231 6.67759 15.9398 7.06773C17.3566 7.45788 18.541 8.85328 19.1008 11.2464Z" fill="#D9D9D9" stroke="black" stroke-width="0.358087"/>
</svg>
