<svg width="21" height="20" viewBox="0 0 21 20" fill="none" xmlns="http://www.w3.org/2000/svg">
<path fill-rule="evenodd" clip-rule="evenodd" d="M10.5 1.75C8.31196 1.75 6.21354 2.61919 4.66637 4.16637C3.11919 5.71354 2.25 7.81196 2.25 10C2.25 11.95 2.486 13.2 3.477 14.519C3.55045 14.6168 3.59887 14.7311 3.61804 14.8518C3.63721 14.9726 3.62656 15.0963 3.587 15.212C3.355 15.887 3.011 16.895 2.725 17.734L2.664 17.913L3.31 17.74L5.805 17.072C5.90027 17.0464 5.99966 17.0398 6.09747 17.0527C6.19528 17.0656 6.28959 17.0976 6.375 17.147C7.47095 17.7789 8.69755 18.1504 9.95996 18.2326C11.2224 18.3148 12.4868 18.1055 13.6554 17.6211C14.8241 17.1366 15.8656 16.3898 16.6996 15.4386C17.5336 14.4873 18.1376 13.357 18.465 12.135C18.7924 10.913 18.8343 9.63205 18.5877 8.39125C18.341 7.15045 17.8122 5.983 17.0423 4.97917C16.2724 3.97534 15.2819 3.16201 14.1475 2.60208C13.0131 2.04215 11.7651 1.75061 10.5 1.75ZM1.5 19L0.79 18.758L1.305 17.248L2.043 15.091C0.976 13.516 0.75 11.966 0.75 10C0.75 4.615 5.115 0.25 10.5 0.25C15.885 0.25 20.25 4.615 20.25 10C20.25 15.385 15.885 19.75 10.5 19.75C8.89553 19.7525 7.31544 19.3574 5.901 18.6C5.409 18.731 4.526 18.967 3.697 19.19L1.694 19.724L1.5 19ZM1.5 19L1.694 19.724C1.56282 19.7588 1.42468 19.7573 1.29425 19.7199C1.16382 19.6824 1.04598 19.6103 0.953254 19.5112C0.860529 19.4121 0.796384 19.2898 0.767639 19.1571C0.738893 19.0245 0.746621 18.8866 0.79 18.758L1.5 19Z" fill="white"/>
</svg>
