<svg width="33" height="68" viewBox="0 0 33 68" fill="none" xmlns="http://www.w3.org/2000/svg">
<ellipse cx="15.7227" cy="61.9912" rx="9.84375" ry="5.58492" fill="black"/>
<path d="M15.9336 60.1702V41.1779C15.9336 40.9775 16.0533 40.7964 16.2377 40.7179L31.32 34.294C31.7646 34.1046 32.1925 34.5935 31.9459 35.0092L16.8636 60.4254C16.6041 60.8626 15.9336 60.6786 15.9336 60.1702Z" fill="white" stroke="black" stroke-width="0.5"/>
<path d="M31.0601 34.4659L16.1563 41.0661C16.0181 41.1274 15.8595 41.1227 15.725 41.0535L1.4423 33.7C1.02885 33.4872 1.10446 32.8746 1.55727 32.7686L17.0471 29.1448C17.1352 29.1242 17.2271 29.1278 17.3132 29.1553L31.0098 33.5324C31.4479 33.6724 31.4806 34.2797 31.0601 34.4659Z" fill="black"/>
<path d="M16.4701 38.6381V1L0.496094 30.432L16.4701 38.6381Z" fill="#495DB2" stroke="black" stroke-width="0.5"/>
<path d="M16.3633 1.08984V38.4792L32.6494 31.827L16.3633 1.08984Z" fill="white" stroke="black" stroke-width="0.5"/>
<path d="M15.5861 40.7858L1.42053 33.564C0.984323 33.3417 0.521526 33.8139 0.752643 34.2455L14.9183 60.7017C15.1638 61.1602 15.8591 60.9858 15.8591 60.4657V41.2312C15.8591 41.0433 15.7536 40.8712 15.5861 40.7858Z" fill="#495DB2" stroke="black" stroke-width="0.5"/>
<path d="M22.7495 14.168L16.8789 23.3979V31.6205L25.3149 19.0321L22.7495 14.168Z" fill="#495DB2"/>
<path d="M26.8118 21.8367L25.9293 20.1484L16.8789 34.4669V37.1141L26.8118 21.8367Z" fill="#495DB2"/>
</svg>
