<svg width="96" height="96" viewBox="0 0 96 96" fill="none" xmlns="http://www.w3.org/2000/svg">
    <g id="Group 1244832261">
        <circle id="Ellipse 4307" opacity="0.1" cx="48" cy="48.0001" r="48" fill="white" />
        <circle id="Ellipse 4308" opacity="0.1" cx="48" cy="48.0001" r="38" fill="white" />
        <circle id="Ellipse 4309" opacity="0.1" cx="48" cy="48.0001" r="28" fill="white" />
        <g id="Group 1244832262" opacity="0.9">
            <path id="Vector"
                d="M48.054 55.5664H47.7917C47.2669 55.304 42.8066 53.2051 42.8066 50.319V47.0394C42.8066 46.6459 43.069 46.3835 43.4626 46.3835C43.8561 46.3835 44.1185 46.6459 44.1185 47.0394V50.319C44.1185 51.8932 46.7422 53.5986 48.054 54.1234C49.3659 53.4674 51.9896 51.8932 51.9896 50.319V47.0394C51.9896 46.6459 52.2519 46.3835 52.6455 46.3835C53.039 46.3835 53.3014 46.6459 53.3014 47.0394V50.319C53.3014 53.2051 48.8411 55.304 48.3164 55.5664H48.054Z"
                fill="white" />
            <path id="Vector_2"
                d="M48.054 49.0072C42.9378 49.0072 38.8711 44.9405 38.8711 39.8243V36.5447C38.8711 36.1511 39.1335 35.8887 39.527 35.8887C39.9206 35.8887 40.1829 36.1511 40.1829 36.5447V39.8243C40.1829 44.1534 43.7249 47.6953 48.054 47.6953C52.3831 47.6953 55.9251 44.1534 55.9251 39.8243V36.5447C55.9251 36.1511 56.1875 35.8887 56.581 35.8887C56.9746 35.8887 57.2369 36.1511 57.2369 36.5447V39.8243C57.2369 44.9405 53.1702 49.0072 48.054 49.0072Z"
                fill="white" />
            <path id="Vector_3"
                d="M56.581 37.1995H55.9251C54.8756 37.1995 53.9573 36.2812 53.9573 35.2318V32.6081C51.2024 34.707 47.5293 35.4941 44.1185 34.8382L42.6754 34.5758C42.4131 34.5758 42.1507 34.8382 42.1507 35.2318C42.1507 36.2812 41.2324 37.1995 40.1829 37.1995H39.527C39.1334 37.1995 38.8711 36.9372 38.8711 36.6748L37.6904 30.9027C37.428 29.722 37.6904 28.5413 38.4775 27.4919C39.1334 26.4424 40.1829 25.7865 41.3636 25.6553L50.2841 24.0811C51.596 23.8187 52.9078 24.2123 53.8261 24.9994C54.7444 25.7865 55.2691 26.7048 55.4003 27.8854C56.3186 28.0166 57.1057 28.5413 57.6305 29.1973C58.2864 30.1156 58.6799 31.165 58.4176 32.3457L57.1057 36.6748C57.1057 37.0683 56.8434 37.1995 56.581 37.1995ZM53.9573 31.2962C54.2197 31.2962 54.3509 31.2962 54.482 31.4274C54.8756 31.6898 55.2691 32.0833 55.2691 32.6081V35.2318C55.2691 35.6253 55.5315 35.8877 55.9251 35.8877H56.0562L57.2369 32.0833C57.3681 31.4274 57.2369 30.6403 56.7122 30.1156C56.1874 29.5908 55.5315 29.1973 54.8756 29.1973C54.482 29.1973 54.2197 28.9349 54.2197 28.5413C54.2197 27.4919 53.8261 26.7048 53.1702 26.0488C52.5143 25.5241 51.596 25.2617 50.6777 25.3929L41.4948 26.9671C40.7077 27.0983 39.9205 27.6231 39.3958 28.279C39.0023 28.9349 38.7399 29.8532 38.8711 30.6403L39.9206 35.8877H40.1829C40.5765 35.8877 40.8388 35.6253 40.8388 35.2318C40.8388 34.1823 41.7571 33.264 42.8066 33.264L44.3808 33.5264C47.5293 34.1823 50.6777 33.3952 53.1702 31.5586C53.4326 31.4274 53.6949 31.2962 53.9573 31.2962ZM64.4521 66.0601H31.6559C31.2624 66.0601 31 65.7978 31 65.4042V59.6321C31 56.4837 32.9678 53.7288 35.985 52.8105L43.3313 50.318C43.7249 50.1868 43.9873 50.4492 44.1185 50.7115C44.2496 50.9739 44.1185 51.4986 43.7249 51.6298L57.6305 62.0001C55.138 62.656 50.6777 62.2558 50.6777 64.7483H32.3118H63.7961H46.5C46.5 62.2558 41.8883 62.2872 39.3958 61.5001L52.3831 51.6298C51.9895 51.4986 51.8583 51.1051 51.9895 50.8427C52.1207 50.4492 52.5143 50.318 52.7766 50.4492L60.123 52.9417C63.1402 53.86 65.108 56.6148 65.108 59.7633V65.5354C65.108 65.7978 64.8456 66.0601 64.4521 66.0601Z"
                fill="white" />
            <path id="Vector_4"
                d="M59.2054 41.1361H56.5817C56.1882 41.1361 55.9258 40.8737 55.9258 40.4802V36.5447C55.9258 36.1511 56.1882 35.8887 56.5817 35.8887H57.8935C58.943 35.8887 59.8613 36.807 59.8613 37.8565V40.4802C59.8613 40.8737 59.5989 41.1361 59.2054 41.1361ZM57.2376 39.8243H58.5495V37.8565C58.5495 37.4629 58.2871 37.2006 57.8935 37.2006H57.2376V39.8243Z"
                fill="white" />
            <path id="Vector_5"
                d="M55.2698 45.0717H51.3343C50.9407 45.0717 50.6783 44.8093 50.6783 44.4157C50.6783 44.0222 50.9407 43.7598 51.3343 43.7598H55.2698C57.1064 43.7598 58.5494 42.3168 58.5494 40.4802V37.8565C58.5494 37.4629 58.8118 37.2006 59.2053 37.2006C59.5989 37.2006 59.8613 37.4629 59.8613 37.8565V40.4802C59.8613 42.9727 57.7623 45.0717 55.2698 45.0717ZM39.5277 41.1361H38.2158C37.1663 41.1361 36.248 40.2178 36.248 39.1683V37.8565C36.248 36.807 37.1663 35.8887 38.2158 35.8887H39.5277C39.9212 35.8887 40.1836 36.1511 40.1836 36.5447V40.4802C40.1836 40.8737 39.9212 41.1361 39.5277 41.1361ZM38.2158 37.2006C37.8223 37.2006 37.5599 37.4629 37.5599 37.8565V39.1683C37.5599 39.5619 37.8223 39.8243 38.2158 39.8243H38.8717V37.2006H38.2158Z"
                fill="white" />
            <path id="Vector_6"
                d="M50.0218 46.3835H48.71C47.6605 46.3835 46.7422 45.4652 46.7422 44.4157C46.7422 43.3662 47.6605 42.4479 48.71 42.4479H50.0218C51.0713 42.4479 51.9896 43.3662 51.9896 44.4157C51.9896 45.4652 51.0713 46.3835 50.0218 46.3835Z"
                fill="white" />
        </g>
    </g>
</svg>
