<svg width="82" height="83" viewBox="0 0 82 83" fill="none" xmlns="http://www.w3.org/2000/svg">
<path opacity="0.6" d="M19.7863 59.9498C17.8514 58.9016 17.8112 57.1193 19.6969 55.9826L46.2573 39.9723C48.0961 38.8639 51.0896 38.7805 53.0059 39.7843L65.3816 46.267C67.4083 47.3286 67.4312 49.18 65.4317 50.3212L37.9073 66.0306C36.0327 67.1005 33.069 67.1452 31.1981 66.1316L19.7863 59.9498Z" fill="#1A1A1A"/>
<path d="M61.7354 24.8297L28.3024 45.4839L16.0596 42.4232L17.4174 39.255C17.5294 38.9936 17.723 38.7756 17.9693 38.6334L51.1775 19.4662C51.5857 19.2306 52.0887 19.2312 52.4963 19.4678L61.7354 24.8297Z" fill="#FFD979" stroke="black" stroke-width="0.452523" stroke-linejoin="round"/>
<mask id="mask0_806_828" style="mask-type:alpha" maskUnits="userSpaceOnUse" x="14" y="20" width="47" height="26">
<path d="M60.9662 25.4207L27.0517 45.4839L14.8088 42.4232L17.9318 39.2038C18.0168 39.1161 18.1137 39.0407 18.2196 38.9797L49.8381 20.7662C50.2126 20.5504 50.6692 20.5323 51.0597 20.7177L60.9662 25.4207Z" fill="#FFD979"/>
</mask>
<g mask="url(#mask0_806_828)">
<path opacity="0.9" d="M13.5583 31.756H49.7602V37.1863H13.5583V31.756Z" fill="white"/>
<rect opacity="0.9" x="22.6086" y="28.1357" width="36.2019" height="1.81009" fill="white"/>
</g>
<path d="M17.3119 39.4715L13.672 47.5727C13.3565 48.275 13.9374 49.5758 14.7653 50.021L29.5597 57.9754C31.1632 58.8375 32.2098 57.5365 31.5762 55.4687L28.5184 45.4878C28.3317 44.8784 27.8962 44.3105 27.4238 44.0604L18.3189 39.239C17.8745 39.0036 17.4813 39.0944 17.3119 39.4715Z" fill="#C28C02" stroke="black" stroke-width="0.452523" stroke-linejoin="round"/>
<path d="M30.0467 57.3044L28.2273 45.2912C28.1464 44.7572 28.4 44.2279 28.8669 43.9562L61.7887 24.8035L65.5035 34.7322C66.0641 36.2305 65.4803 37.9157 64.1131 38.7461L32.0317 58.2324C31.2284 58.7203 30.1874 58.2336 30.0467 57.3044Z" fill="#F7CC60" stroke="black" stroke-width="0.452523" stroke-linejoin="round"/>
</svg>
