<svg width="80" height="70" viewBox="0 0 80 70" fill="none" xmlns="http://www.w3.org/2000/svg">
<path opacity="0.6" d="M10.4945 57.5172C7.78673 56.0504 7.73048 53.5561 10.3693 51.9655L47.5383 29.5605C50.1116 28.0094 54.3008 27.8927 56.9824 29.2974L74.3012 38.3693C77.1374 39.855 77.1694 42.4458 74.3713 44.0428L35.8533 66.0268C33.2299 67.5241 29.0825 67.5866 26.4642 66.1682L10.4945 57.5172Z" fill="#1A1A1A"/>
<path d="M69.1985 8.36961L22.4119 37.2734L5.2791 32.9902L7.32537 28.2156C7.38725 28.0712 7.49423 27.9507 7.63028 27.8722L54.9825 0.541227C55.208 0.411064 55.4859 0.411395 55.7111 0.542094L69.1985 8.36961Z" fill="#FFD979" stroke="black" stroke-width="0.633268" stroke-linejoin="round"/>
<mask id="mask0_3192_179" style="mask-type:alpha" maskUnits="userSpaceOnUse" x="3" y="2" width="66" height="36">
<path d="M68.1223 9.19663L20.6617 37.2735L3.52895 32.9903L8.00781 28.373C8.05481 28.3245 8.10833 28.2829 8.16682 28.2492L53.0559 2.39127C53.2629 2.27207 53.5151 2.26205 53.7309 2.36447L68.1223 9.19663Z" fill="#FFD979"/>
</mask>
<g mask="url(#mask0_3192_179)">
<path opacity="0.9" d="M1.77882 18.0625H52.4402V25.6617H1.77882V18.0625Z" fill="white"/>
<rect opacity="0.9" x="14.4442" y="12.9963" width="50.6614" height="2.53307" fill="white"/>
</g>
<path d="M7.03175 28.8594L1.93807 40.1964C1.4965 41.1791 2.30942 42.9996 3.46803 43.6225L26.995 56.2721C27.8808 56.7484 28.459 56.0297 28.109 54.8873L22.7142 37.2788C22.453 36.426 21.8436 35.6313 21.1825 35.2812L8.44091 28.5341C7.81899 28.2047 7.26884 28.3318 7.03175 28.8594Z" fill="#C28C02" stroke="black" stroke-width="0.633268" stroke-linejoin="round"/>
<path d="M25.1039 55.4699L22.1937 36.2542C22.149 35.9591 22.2891 35.6667 22.5471 35.5166L69.2735 8.33276L75.2905 24.4145C75.6002 25.2422 75.2777 26.1732 74.5224 26.632L26.2006 55.9826C25.7568 56.2522 25.1817 55.9833 25.1039 55.4699Z" fill="#F7CC60" stroke="black" stroke-width="0.633268" stroke-linejoin="round"/>
</svg>
