<svg width="14" height="14" viewBox="0 0 14 14" fill="none" xmlns="http://www.w3.org/2000/svg">
<path d="M5.57756 0.922283C6.35785 0.136283 7.63164 0.136283 8.41859 0.916283L8.90544 1.40228C9.09217 1.58895 9.3456 1.69628 9.61236 1.69628H10.2993C11.4063 1.69628 12.3067 2.59562 12.3067 3.70228V4.38962C12.3067 4.65562 12.4134 4.90895 12.6001 5.09562L13.0803 5.57562C13.4604 5.94895 13.6672 6.45562 13.6672 6.98895C13.6738 7.52228 13.4671 8.02962 13.0936 8.40895L12.6001 8.90228C12.4134 9.08895 12.3067 9.34228 12.3067 9.60962V10.2956C12.3067 11.4023 11.4063 12.303 10.2993 12.303H9.61236C9.3456 12.303 9.09217 12.409 8.90544 12.5956L8.42526 13.0756C8.03179 13.4696 7.51827 13.6623 7.00475 13.6623C6.49123 13.6623 5.97771 13.4696 5.58423 13.083L5.09739 12.5956C4.91065 12.409 4.65723 12.303 4.39047 12.303H3.70355C2.59648 12.303 1.69616 11.4023 1.69616 10.2956V9.60962C1.69616 9.34228 1.58945 9.08895 1.40272 8.89562L0.922542 8.42228C0.142259 7.64295 0.13559 6.36895 0.915873 5.58295L1.40272 5.09562C1.58945 4.90895 1.69616 4.65562 1.69616 4.38228V3.70228C1.69616 2.59562 2.59648 1.69628 3.70355 1.69628H4.39047C4.65723 1.69628 4.91065 1.58895 5.09739 1.40228L5.57756 0.922283ZM8.7187 8.12895C8.39192 8.12895 8.13182 8.38962 8.13182 8.70895C8.13182 9.03562 8.39192 9.29562 8.7187 9.29562C9.03882 9.29562 9.29891 9.03562 9.29891 8.70895C9.29891 8.38962 9.03882 8.12895 8.7187 8.12895ZM9.12551 4.86895C8.89877 4.64295 8.53197 4.64295 8.30522 4.86895L4.87731 8.29562C4.65056 8.52228 4.65056 8.89562 4.87731 9.12228C4.98401 9.23562 5.13073 9.29562 5.28412 9.29562C5.44418 9.29562 5.5909 9.23562 5.69761 9.12228L9.12551 5.69628C9.35226 5.46962 9.35226 5.09562 9.12551 4.86895ZM5.29079 4.70228C4.97068 4.70228 4.70391 4.96228 4.70391 5.28228C4.70391 5.60962 4.97068 5.86895 5.29079 5.86895C5.61091 5.86895 5.871 5.60962 5.871 5.28228C5.871 4.96228 5.61091 4.70228 5.29079 4.70228Z" fill="#62E3C4"/>
</svg>
