<svg width="89" height="90" viewBox="0 0 89 90" fill="none" xmlns="http://www.w3.org/2000/svg">
<circle cx="44.498" cy="45" r="44.0137" fill="#EB5757" fill-opacity="0.3"/>
<path d="M41.3394 27.1645L23.5986 57.8902C23.2782 58.445 23.1094 59.0745 23.1094 59.7153C23.1093 60.356 23.2779 60.9855 23.5983 61.5404C23.9187 62.0953 24.3795 62.5561 24.9344 62.8765C25.4893 63.1969 26.1188 63.3655 26.7595 63.3654H62.2383C62.879 63.3655 63.5085 63.1969 64.0634 62.8765C64.6183 62.5561 65.0791 62.0953 65.3995 61.5404C65.7198 60.9855 65.8885 60.356 65.8884 59.7153C65.8883 59.0745 65.7196 58.445 65.3991 57.8902L47.6603 27.1645C47.34 26.6097 46.8793 26.149 46.3245 25.8287C45.7697 25.5085 45.1404 25.3398 44.4998 25.3398C43.8593 25.3398 43.23 25.5085 42.6752 25.8287C42.1204 26.149 41.6597 26.6097 41.3394 27.1645Z" fill="#EB5757"/>
<path d="M44.7327 36.6406H44.2699C43.1306 36.6406 42.207 37.5642 42.207 38.7035V48.5638C42.207 49.7031 43.1306 50.6267 44.2699 50.6267H44.7327C45.872 50.6267 46.7956 49.7031 46.7956 48.5638V38.7035C46.7956 37.5642 45.872 36.6406 44.7327 36.6406Z" fill="#FFF7ED"/>
<path d="M44.5013 58.4479C45.7684 58.4479 46.7956 57.4207 46.7956 56.1536C46.7956 54.8866 45.7684 53.8594 44.5013 53.8594C43.2342 53.8594 42.207 54.8866 42.207 56.1536C42.207 57.4207 43.2342 58.4479 44.5013 58.4479Z" fill="#FFF7ED"/>
</svg>
