<svg width="99" height="98" viewBox="0 0 99 98" fill="none" xmlns="http://www.w3.org/2000/svg">
<path fill-rule="evenodd" clip-rule="evenodd" d="M49.4994 5.10352C73.7258 5.10352 93.3952 24.7729 93.3952 48.9994C93.3952 73.2258 73.7258 92.8952 49.4994 92.8952C25.2729 92.8952 5.60352 73.2258 5.60352 48.9994C5.60352 24.7729 25.2729 5.10352 49.4994 5.10352ZM44.3952 31.1348L46.4369 55.6348C46.4369 56.447 46.7595 57.226 47.3338 57.8003C47.9082 58.3746 48.6871 58.6973 49.4994 58.6973C50.3116 58.6973 51.0905 58.3746 51.6649 57.8003C52.2392 57.226 52.5619 56.447 52.5619 55.6348L54.6035 31.1348C54.6035 29.4443 53.5827 26.0306 49.4994 26.0306C45.416 26.0306 44.3952 29.4443 44.3952 31.1348ZM49.4994 63.8014C48.4164 63.8014 47.3778 64.2316 46.612 64.9974C45.8462 65.7632 45.416 66.8018 45.416 67.8848C45.416 68.9677 45.8462 70.0063 46.612 70.7721C47.3778 71.5379 48.4164 71.9681 49.4994 71.9681C50.5823 71.9681 51.6209 71.5379 52.3867 70.7721C53.1525 70.0063 53.5827 68.9677 53.5827 67.8848C53.5827 66.8018 53.1525 65.7632 52.3867 64.9974C51.6209 64.2316 50.5823 63.8014 49.4994 63.8014Z" fill="#EFAF4E"/>
</svg>
