<svg width="8" height="9" viewBox="0 0 8 9" fill="none" xmlns="http://www.w3.org/2000/svg">
<path d="M5 2.66797C4.91159 2.66797 4.82681 2.63285 4.7643 2.57034C4.70179 2.50783 4.66667 2.42304 4.66667 2.33464V1.83464H3.33333V2.33464C3.33333 2.42304 3.29821 2.50783 3.2357 2.57034C3.17319 2.63285 3.08841 2.66797 3 2.66797C2.91159 2.66797 2.82681 2.63285 2.7643 2.57034C2.70179 2.50783 2.66667 2.42304 2.66667 2.33464V1.83464C2.66667 1.46697 2.96567 1.16797 3.33333 1.16797H4.66667C5.03433 1.16797 5.33333 1.46697 5.33333 1.83464V2.33464C5.33333 2.42304 5.29821 2.50783 5.2357 2.57034C5.17319 2.63285 5.08841 2.66797 5 2.66797ZM4.23667 5.62797C4.07643 5.68304 3.90203 5.68068 3.74333 5.6213L0 4.37464V6.91797C0 7.42464 0.41 7.83464 0.916667 7.83464H7.08333C7.59 7.83464 8 7.42464 8 6.91797V4.37464L4.23667 5.62797Z" fill="#62E3C4"/>
<path d="M8 3.08464V3.84797L4.08 5.15464C4.05333 5.16464 4.02667 5.16797 4 5.16797C3.97333 5.16797 3.94667 5.16464 3.92 5.15464L0 3.84797V3.08464C0 2.57797 0.41 2.16797 0.916667 2.16797H7.08333C7.59 2.16797 8 2.57797 8 3.08464Z" fill="#62E3C4"/>
</svg>
