<svg width="10" height="10" viewBox="0 0 10 10" fill="none" xmlns="http://www.w3.org/2000/svg">
<path d="M2.85863 0.47619C2.85863 0.213198 2.64543 0 2.38244 0C2.11945 0 1.90625 0.213198 1.90625 0.47619V0.952381C1.90625 1.21537 2.11945 1.42857 2.38244 1.42857C2.64543 1.42857 2.85863 1.21537 2.85863 0.952381V0.47619Z" fill="#62E3C4"/>
<path d="M8.09691 0.47619C8.09691 0.213198 7.88371 0 7.62072 0C7.35773 0 7.14453 0.213198 7.14453 0.47619V0.952381C7.14453 1.21537 7.35773 1.42857 7.62072 1.42857C7.88371 1.42857 8.09691 1.21537 8.09691 0.952381V0.47619Z" fill="#62E3C4"/>
<path d="M0.238281 3.57589V9.05208C0.238281 9.30467 0.338621 9.54691 0.517227 9.72552C0.695833 9.90413 0.938075 10.0045 1.19066 10.0045H8.80971C9.0623 10.0045 9.30454 9.90413 9.48315 9.72552C9.66175 9.54691 9.76209 9.30467 9.76209 9.05208V3.57589H0.238281ZM3.09542 8.3378C3.09542 8.46409 3.04525 8.58521 2.95595 8.67452C2.86665 8.76382 2.74553 8.81399 2.61923 8.81399H2.14304C2.01675 8.81399 1.89563 8.76382 1.80633 8.67452C1.71702 8.58521 1.66685 8.46409 1.66685 8.3378V7.86161C1.66685 7.73531 1.71702 7.61419 1.80633 7.52489C1.89563 7.43559 2.01675 7.38542 2.14304 7.38542H2.61923C2.74553 7.38542 2.86665 7.43559 2.95595 7.52489C3.04525 7.61419 3.09542 7.73531 3.09542 7.86161V8.3378ZM3.09542 5.71875C3.09542 5.84504 3.04525 5.96616 2.95595 6.05547C2.86665 6.14477 2.74553 6.19494 2.61923 6.19494H2.14304C2.01675 6.19494 1.89563 6.14477 1.80633 6.05547C1.71702 5.96616 1.66685 5.84504 1.66685 5.71875V5.24256C1.66685 5.11627 1.71702 4.99515 1.80633 4.90584C1.89563 4.81654 2.01675 4.76637 2.14304 4.76637H2.61923C2.74553 4.76637 2.86665 4.81654 2.95595 4.90584C3.04525 4.99515 3.09542 5.11627 3.09542 5.24256V5.71875ZM5.71447 8.3378C5.71447 8.46409 5.6643 8.58521 5.575 8.67452C5.4857 8.76382 5.36458 8.81399 5.23828 8.81399H4.76209C4.6358 8.81399 4.51468 8.76382 4.42537 8.67452C4.33607 8.58521 4.2859 8.46409 4.2859 8.3378V7.86161C4.2859 7.73531 4.33607 7.61419 4.42537 7.52489C4.51468 7.43559 4.6358 7.38542 4.76209 7.38542H5.23828C5.36458 7.38542 5.4857 7.43559 5.575 7.52489C5.6643 7.61419 5.71447 7.73531 5.71447 7.86161V8.3378ZM5.71447 5.71875C5.71447 5.84504 5.6643 5.96616 5.575 6.05547C5.4857 6.14477 5.36458 6.19494 5.23828 6.19494H4.76209C4.6358 6.19494 4.51468 6.14477 4.42537 6.05547C4.33607 5.96616 4.2859 5.84504 4.2859 5.71875V5.24256C4.2859 5.11627 4.33607 4.99515 4.42537 4.90584C4.51468 4.81654 4.6358 4.76637 4.76209 4.76637H5.23828C5.36458 4.76637 5.4857 4.81654 5.575 4.90584C5.6643 4.99515 5.71447 5.11627 5.71447 5.24256V5.71875ZM8.33352 8.3378C8.33352 8.46409 8.28335 8.58521 8.19405 8.67452C8.10474 8.76382 7.98362 8.81399 7.85733 8.81399H7.38114C7.25485 8.81399 7.13372 8.76382 7.04442 8.67452C6.95512 8.58521 6.90495 8.46409 6.90495 8.3378V7.86161C6.90495 7.73531 6.95512 7.61419 7.04442 7.52489C7.13372 7.43559 7.25485 7.38542 7.38114 7.38542H7.85733C7.98362 7.38542 8.10474 7.43559 8.19405 7.52489C8.28335 7.61419 8.33352 7.73531 8.33352 7.86161V8.3378ZM8.33352 5.71875C8.33352 5.84504 8.28335 5.96616 8.19405 6.05547C8.10474 6.14477 7.98362 6.19494 7.85733 6.19494H7.38114C7.25485 6.19494 7.13372 6.14477 7.04442 6.05547C6.95512 5.96616 6.90495 5.84504 6.90495 5.71875V5.24256C6.90495 5.11627 6.95512 4.99515 7.04442 4.90584C7.13372 4.81654 7.25485 4.76637 7.38114 4.76637H7.85733C7.98362 4.76637 8.10474 4.81654 8.19405 4.90584C8.28335 4.99515 8.33352 5.11627 8.33352 5.24256V5.71875ZM9.76209 3.0997V1.67113C9.76209 1.41854 9.66175 1.1763 9.48315 0.997696C9.30454 0.81909 9.0623 0.71875 8.80971 0.71875H8.57162V0.956845C8.57162 1.48208 8.14447 1.90923 7.61923 1.90923C7.094 1.90923 6.66685 1.48208 6.66685 0.956845V0.71875H3.33352V0.956845C3.33352 1.48208 2.90638 1.90923 2.38114 1.90923C1.8559 1.90923 1.42876 1.48208 1.42876 0.956845V0.71875H1.19066C0.938075 0.71875 0.695833 0.81909 0.517227 0.997696C0.338621 1.1763 0.238281 1.41854 0.238281 1.67113V3.0997H9.76209Z" fill="#62E3C4"/>
</svg>
