<svg width="12" height="12" viewBox="0 0 12 12" fill="none" xmlns="http://www.w3.org/2000/svg">
<g clip-path="url(#clip0_7170_9283)">
<path d="M6.98917 3.20307C5.53452 2.89812 4.39754 1.76115 4.09264 0.306476C4.07446 0.219827 4.02703 0.142071 3.95829 0.0862637C3.88956 0.0304566 3.80372 -2.7486e-06 3.71518 1.86031e-10C3.62665 2.74897e-06 3.54081 0.0304675 3.47208 0.0862788C3.40335 0.14209 3.35592 0.219849 3.33774 0.3065C3.03282 1.76115 1.89585 2.8981 0.441198 3.203C0.35456 3.22119 0.276817 3.26863 0.221019 3.33735C0.165221 3.40608 0.134766 3.49191 0.134766 3.58044C0.134766 3.66896 0.165221 3.75479 0.221019 3.82352C0.276817 3.89225 0.35456 3.93969 0.441198 3.95787C1.89582 4.26282 3.03275 5.39977 3.33767 6.85442C3.35584 6.94108 3.40327 7.01885 3.472 7.07466C3.54073 7.13048 3.62657 7.16094 3.71511 7.16094C3.80365 7.16094 3.88949 7.13048 3.95822 7.07466C4.02695 7.01885 4.07438 6.94108 4.09255 6.85442C4.39749 5.39977 5.53449 4.26282 6.98914 3.95795C7.0758 3.93978 7.15357 3.89236 7.20939 3.82363C7.26521 3.7549 7.29568 3.66906 7.29568 3.58052C7.29568 3.49198 7.26522 3.40613 7.2094 3.3374C7.15359 3.26867 7.07582 3.22124 6.98917 3.20307ZM6.35167 9.57383C5.66631 9.43018 5.13062 8.89449 4.98692 8.20909C4.96876 8.12243 4.92133 8.04466 4.85261 7.98884C4.78388 7.93302 4.69804 7.90255 4.6095 7.90255C4.52096 7.90255 4.43511 7.93301 4.36638 7.98883C4.29765 8.04464 4.25022 8.12241 4.23205 8.20906C4.08835 8.89445 3.55264 9.43013 2.86728 9.57381C2.78065 9.59199 2.7029 9.63943 2.6471 9.70816C2.59131 9.77689 2.56085 9.86272 2.56085 9.95124C2.56085 10.0398 2.59131 10.1256 2.6471 10.1943C2.7029 10.2631 2.78065 10.3105 2.86728 10.3287C3.55262 10.4724 4.08833 11.0081 4.232 11.6934C4.25017 11.7801 4.2976 11.8579 4.36633 11.9137C4.43506 11.9695 4.5209 12 4.60944 12C4.69798 12 4.78382 11.9695 4.85255 11.9137C4.92128 11.8579 4.96871 11.7801 4.98688 11.6934C5.13057 11.0081 5.66628 10.4724 6.35167 10.3287C6.4383 10.3105 6.51605 10.2631 6.57185 10.1944C6.62764 10.1256 6.6581 10.0398 6.6581 9.95127C6.6581 9.86274 6.62764 9.77691 6.57185 9.70818C6.51605 9.63945 6.4383 9.59202 6.35167 9.57383ZM11.5619 6.00315C10.6355 5.80895 9.91149 5.08487 9.71731 4.1585C9.69915 4.07184 9.65172 3.99407 9.583 3.93826C9.51427 3.88244 9.42843 3.85197 9.33989 3.85197C9.25135 3.85196 9.1655 3.88243 9.09677 3.93824C9.02804 3.99406 8.98061 4.07182 8.96244 4.15848C8.76824 5.08487 8.04418 5.80892 7.11779 6.0031C7.03115 6.02129 6.95341 6.06873 6.89761 6.13746C6.84181 6.20618 6.81136 6.29201 6.81136 6.38054C6.81136 6.46907 6.84181 6.5549 6.89761 6.62362C6.95341 6.69235 7.03115 6.73979 7.11779 6.75798C8.04416 6.95218 8.76821 7.67623 8.96239 8.60262C8.98056 8.68928 9.02799 8.76705 9.09672 8.82287C9.16545 8.87868 9.25129 8.90915 9.33983 8.90915C9.42837 8.90915 9.51421 8.87868 9.58294 8.82287C9.65167 8.76705 9.6991 8.68928 9.71727 8.60262C9.91149 7.67623 10.6355 6.95218 11.5619 6.75802C11.6486 6.73986 11.7263 6.69243 11.7822 6.62371C11.838 6.55498 11.8684 6.46914 11.8685 6.3806C11.8685 6.29206 11.838 6.20621 11.7822 6.13748C11.7264 6.06875 11.6486 6.02132 11.5619 6.00315Z" fill="#62E3C4"/>
</g>
<defs>
<clipPath id="clip0_7170_9283">
<rect width="12" height="12" fill="white"/>
</clipPath>
</defs>
</svg>
