<svg width="19" height="18" viewBox="0 0 19 18" fill="none" xmlns="http://www.w3.org/2000/svg">
<path d="M0.666016 14.5367C0.666016 14.7387 0.827999 14.8967 1.02603 14.8967H10.7028C10.6884 14.778 10.6848 14.6591 10.6848 14.5367C10.6848 12.5352 12.096 10.8575 13.9752 10.4507C13.1652 9.25913 12.0132 8.34116 10.6992 7.80116C9.92519 8.36277 8.97839 8.69395 7.9488 8.69395C6.9192 8.69395 5.96522 8.35916 5.1912 7.79395C2.538 8.88476 0.666016 11.4948 0.666016 14.5367Z" fill="#A6A6AC"/>
<path d="M11.9369 3.98514C11.9369 1.78919 10.1477 0 7.94807 0C5.74847 0 3.96289 1.78919 3.96289 3.98514C3.96289 6.18475 5.74847 7.97394 7.94807 7.97394C10.1477 7.97394 11.9369 6.18478 11.9369 3.98514ZM18.3339 14.5368C18.3339 12.6252 16.7791 11.07 14.8707 11.07C12.9591 11.07 11.4039 12.6252 11.4039 14.5368C11.4039 16.4448 12.9591 18 14.8707 18C16.7791 18 18.3339 16.4448 18.3339 14.5368ZM16.494 13.8456L14.6047 15.7345C14.5713 15.768 14.5316 15.7945 14.4879 15.8126C14.4443 15.8307 14.3974 15.84 14.3502 15.84C14.2547 15.84 14.1632 15.802 14.0957 15.7345L13.2464 14.8853C13.1057 14.7445 13.1057 14.5166 13.2464 14.3763C13.2798 14.3428 13.3195 14.3162 13.3632 14.2981C13.4068 14.28 13.4537 14.2707 13.5009 14.2707C13.5482 14.2707 13.5951 14.28 13.6387 14.2981C13.6824 14.3162 13.7221 14.3428 13.7555 14.3763L14.3502 14.971L15.9849 13.3366C16.0183 13.3031 16.058 13.2765 16.1017 13.2584C16.1454 13.2403 16.1922 13.231 16.2395 13.231C16.2867 13.231 16.3336 13.2403 16.3772 13.2584C16.4209 13.2765 16.4606 13.3031 16.494 13.3366C16.5274 13.37 16.554 13.4096 16.5721 13.4533C16.5902 13.497 16.5995 13.5438 16.5995 13.5911C16.5995 13.6384 16.5902 13.6852 16.5721 13.7288C16.554 13.7725 16.5274 13.8122 16.494 13.8456Z" fill="#A6A6AC"/>
</svg>
