<svg width="111" height="111" viewBox="0 0 111 111" fill="none" xmlns="http://www.w3.org/2000/svg">
    <path
        d="M9.3999 32.03V77.97C9.3999 79.78 10.3599 81.45 11.9299 82.35L51.7199 105.32C53.2899 106.22 55.2099 106.22 56.7799 105.32L96.5699 82.35C98.1399 81.45 99.0999 79.78 99.0999 77.97V32.03C99.0999 30.22 98.1399 28.55 96.5699 27.65L56.7699 4.68C55.1999 3.78 53.2799 3.78 51.7099 4.68L11.9299 27.65C10.3599 28.55 9.3999 30.22 9.3999 32.03Z"
        fill="#45BA9B" />
    <mask id="mask0_324_4863" style="mask-type:luminance" maskUnits="userSpaceOnUse" x="9" y="4"
        width="91" height="102">
        <path
            d="M9.3999 32.03V77.97C9.3999 79.78 10.3599 81.45 11.9299 82.35L51.7199 105.32C53.2899 106.22 55.2099 106.22 56.7799 105.32L96.5699 82.35C98.1399 81.45 99.0999 79.78 99.0999 77.97V32.03C99.0999 30.22 98.1399 28.55 96.5699 27.65L56.7699 4.68C55.1999 3.78 53.2799 3.78 51.7099 4.68L11.9299 27.65C10.3599 28.55 9.3999 30.22 9.3999 32.03Z"
            fill="white" />
    </mask>
    <g mask="url(#mask0_324_4863)">
        <path opacity="0.67" d="M108.32 36.54L-3.58008 74.61V57.31L108.32 19.24V36.54Z"
            fill="white" />
        <path opacity="0.67" d="M112.93 43.46L1.03003 81.53V76.92L112.93 38.85V43.46Z"
            fill="white" />
    </g>
    <path
        d="M17.28 36.46V73.54C17.28 75.27 18.2 76.88 19.71 77.74L51.82 96.28C53.32 97.15 55.17 97.15 56.67 96.28L88.78 77.74C90.28 76.87 91.21 75.27 91.21 73.54V36.46C91.21 34.73 90.29 33.12 88.78 32.26L56.67 13.72C55.17 12.85 53.32 12.85 51.82 13.72L19.7 32.26C18.2 33.13 17.27 34.73 17.27 36.46H17.28Z"
        fill="#015656" />
    <mask id="mask1_324_4863" style="mask-type:luminance" maskUnits="userSpaceOnUse" x="17" y="13"
        width="75" height="84">
        <path
            d="M17.28 36.46V73.54C17.28 75.27 18.2 76.88 19.71 77.74L51.82 96.28C53.32 97.15 55.17 97.15 56.67 96.28L88.78 77.74C90.28 76.87 91.21 75.27 91.21 73.54V36.46C91.21 34.73 90.29 33.12 88.78 32.26L56.67 13.72C55.17 12.85 53.32 12.85 51.82 13.72L19.7 32.26C18.2 33.13 17.27 34.73 17.27 36.46H17.28Z"
            fill="white" />
    </mask>
    <g mask="url(#mask1_324_4863)">
        <path
            d="M23.05 40.28V77.84C23.05 79.6 23.99 81.22 25.51 82.1L58.04 100.88C59.56 101.76 61.43 101.76 62.96 100.88L95.49 82.1C97.01 81.22 97.95 79.6 97.95 77.84V40.28C97.95 38.52 97.01 36.9 95.49 36.02L62.95 17.24C61.43 16.36 59.56 16.36 58.03 17.24L25.5 36.02C23.98 36.9 23.04 38.52 23.04 40.28H23.05Z"
            fill="#1B9B82" />
        <mask id="mask2_324_4863" style="mask-type:luminance" maskUnits="userSpaceOnUse" x="23"
            y="16" width="75" height="86">
            <path
                d="M23.05 40.28V77.84C23.05 79.6 23.99 81.22 25.51 82.1L58.04 100.88C59.56 101.76 61.43 101.76 62.96 100.88L95.49 82.1C97.01 81.22 97.95 79.6 97.95 77.84V40.28C97.95 38.52 97.01 36.9 95.49 36.02L62.95 17.24C61.43 16.36 59.56 16.36 58.03 17.24L25.5 36.02C23.98 36.9 23.04 38.52 23.04 40.28H23.05Z"
                fill="white" />
        </mask>
        <g mask="url(#mask2_324_4863)">
            <path d="M100.03 62.29H11.1401V111.83H100.03V62.29Z" fill="#035151" />
        </g>
        <path opacity="0.89"
            d="M91.01 50.69C91.01 70.44 70.39 91.06 50.64 91.06C44.61 91.06 39.47 90.23 34.49 87.6L41.07 105.86C41.07 105.86 66.79 107.21 67.94 107.21C69.09 107.21 95.63 88.75 95.63 88.75L109.47 69.14L91.01 50.68V50.69Z"
            fill="#070707" />
    </g>
    <path
        d="M14.2001 40H13.2601C13.2601 34.53 8.8201 30.09 3.3501 30.09V29.15C8.8201 29.15 13.2601 24.71 13.2601 19.24H14.2001C14.2001 24.71 18.6401 29.15 24.1101 29.15V30.09C18.6401 30.09 14.2001 34.53 14.2001 40Z"
        fill="white" />
    <path
        d="M94.6801 95.37H94.2601C94.2601 92.94 92.2901 90.97 89.8601 90.97V90.55C92.2901 90.55 94.2601 88.58 94.2601 86.15H94.6801C94.6801 88.58 96.6501 90.55 99.0801 90.55V90.97C96.6501 90.97 94.6801 92.94 94.6801 95.37Z"
        fill="white" />
    <path
        d="M62.32 44.54H44.77C43.26 44.54 41.85 45.33 41.06 46.62L26.41 70.56C25.97 71.28 26.48 72.21 27.33 72.22L78.68 72.5C79.54 72.5 80.06 71.56 79.61 70.84L66.0199 46.6C65.2299 45.33 63.83 44.55 62.33 44.55L62.32 44.54Z"
        fill="#FFD979" stroke="#232326" stroke-width="0.36" />
    <path d="M78.0199 71.4L63.7 44.81L65.0999 71.4H78.0299H78.0199Z" fill="#F4EDD9" />
    <path d="M51.52 71.9L63.09 44.82L64.45 71.9H51.51H51.52Z" fill="#232326" />
    <path
        d="M30.8101 49.17C31.2132 49.17 31.5401 48.8432 31.5401 48.44C31.5401 48.0368 31.2132 47.71 30.8101 47.71C30.4069 47.71 30.0801 48.0368 30.0801 48.44C30.0801 48.8432 30.4069 49.17 30.8101 49.17Z"
        fill="#FFEFCC" />
    <path
        d="M89.1001 37.52C89.5033 37.52 89.8301 37.1932 89.8301 36.79C89.8301 36.3868 89.5033 36.06 89.1001 36.06C88.6969 36.06 88.3701 36.3868 88.3701 36.79C88.3701 37.1932 88.6969 37.52 89.1001 37.52Z"
        fill="#FFEFCC" />
    <path
        d="M37.3699 37.52C38.1762 37.52 38.8299 36.8663 38.8299 36.06C38.8299 35.2537 38.1762 34.6 37.3699 34.6C36.5636 34.6 35.9099 35.2537 35.9099 36.06C35.9099 36.8663 36.5636 37.52 37.3699 37.52Z"
        fill="white" />
    <path
        d="M84 44.8C84.8064 44.8 85.46 44.1463 85.46 43.34C85.46 42.5337 84.8064 41.88 84 41.88C83.1937 41.88 82.54 42.5337 82.54 43.34C82.54 44.1463 83.1937 44.8 84 44.8Z"
        fill="white" />
    <path
        d="M72.0601 38.46C68.9601 38.46 66.4601 35.95 66.4601 32.86C66.4601 31.67 66.8401 30.57 67.4701 29.67C66.0201 30.68 65.0601 32.36 65.0601 34.27C65.0601 37.36 67.5701 39.87 70.6601 39.87C72.5701 39.87 74.2401 38.91 75.2601 37.46C74.3501 38.09 73.2501 38.47 72.0601 38.47V38.46Z"
        fill="white" />
</svg>
