<svg width="79" height="82" viewBox="0 0 79 82" fill="none" xmlns="http://www.w3.org/2000/svg">
<circle opacity="0.6" r="7.05757" transform="matrix(0.866025 0.5 -0.866025 0.5 43.6589 73.8353)" fill="#1A1A1A"/>
<path d="M35.6154 15.754L38.7776 26.6333L46.6308 24.6722L36.4119 15.2605C36.0497 14.9269 35.478 15.2811 35.6154 15.754Z" fill="#3EA59E"/>
<path d="M30.8962 29.1167L34.6966 15.6969C34.8299 15.2259 35.497 15.2248 35.632 15.6952L38.7869 26.6909L30.8962 29.1167Z" fill="#09454A"/>
<path d="M67.347 46.7565L56.3153 43.8821L54.0648 51.8492L67.3694 47.6913C67.836 47.5455 67.82 46.8797 67.347 46.7565Z" fill="#CEF8F5"/>
<path d="M58.0832 36.0001L67.7739 45.9693C68.1174 46.3227 67.7779 46.9041 67.3013 46.7786L56.3066 43.882L58.0832 36.0001Z" fill="#81D9CA"/>
<path d="M25.9125 58.1296L33.0658 50.3236L39.8677 55.2667L26.3986 58.9275C25.9283 59.0553 25.5833 58.4889 25.9125 58.1296Z" fill="#81D9CA"/>
<path d="M27.9513 44.0713L25.1519 57.6745C25.0524 58.1583 25.6539 58.4653 25.9872 58.1007L33.584 49.791L27.9513 44.0713Z" fill="#09454A"/>
<path d="M60.1258 21.2013L38.7634 26.6417L42.357 40.5891L60.5563 21.9475C60.8721 21.624 60.5638 21.0898 60.1258 21.2013Z" fill="#094549"/>
<path d="M42.3032 40.4656L60.447 22.0354C60.7913 21.6857 61.3781 22.0081 61.2674 22.4863L56.3072 43.922L42.3032 40.4656Z" fill="#3EA49E"/>
<path d="M17.8239 33.0441L38.7845 26.6408L42.3195 40.4525L17.8417 33.9794C17.3684 33.8542 17.3557 33.1871 17.8239 33.0441Z" fill="#CEF8F5"/>
<path d="M42.3728 40.4675L17.9224 33.9912C17.4438 33.8644 17.104 34.4504 17.4516 34.8028L32.9332 50.4982L42.3728 40.4675Z" fill="#3DA49D"/>
<path d="M48.6983 65.5988L32.921 50.497L42.325 40.452L49.5016 65.1116C49.6406 65.5892 49.0577 65.9428 48.6983 65.5988Z" fill="#09454A"/>
<path d="M42.3209 40.4473L49.517 65.1971C49.6539 65.668 50.3227 65.6632 50.4528 65.1904L56.3211 43.8755L42.3209 40.4473Z" fill="#81D9CA"/>
<path d="M46.1241 24.2681L36.3495 15.245C35.8184 14.7548 34.9572 14.9944 34.7556 15.6884L31.0309 28.5111C30.9395 28.826 30.6956 29.0736 30.3821 29.1697L17.7016 33.0603C17.0064 33.2736 16.7825 34.1464 17.2893 34.668L27.244 44.9141C27.4659 45.1425 27.5619 45.465 27.5012 45.7775L25.168 57.7763C25.0304 58.4843 25.6841 59.0906 26.3797 58.9001L37.7586 55.7839C38.0891 55.6934 38.4429 55.7835 38.6899 56.021L48.7986 65.7446C49.3325 66.2583 50.2218 66.0101 50.4127 65.2942L53.8591 52.3702C53.9453 52.0469 54.1917 51.7906 54.5113 51.6917L67.4367 47.6907C68.1322 47.4754 68.3533 46.6005 67.8436 46.0806L58.4543 36.5034C58.2209 36.2654 58.1257 35.9244 58.202 35.5998L61.3052 22.4034C61.4718 21.6949 60.8298 21.0611 60.1235 21.2368L47.0188 24.4973C46.701 24.5763 46.3648 24.4902 46.1241 24.2681Z" stroke="black" stroke-width="0.486339"/>
<path d="M17.178 33.618L41.7627 40.2988C42.1009 40.3906 42.4623 40.2935 42.7089 40.0446L60.9763 21.5986" stroke="black" stroke-width="0.486339"/>
<path d="M35.4138 15.1625L49.6991 65.8094" stroke="black" stroke-width="0.486339"/>
<path d="M25.6487 58.6487L42.1557 40.6409C42.4001 40.3743 42.7723 40.2653 43.1219 40.358L68.1666 46.9948" stroke="black" stroke-width="0.486339"/>
<path d="M27.3263 45.1161L39.0998 56.3829" stroke="black" stroke-width="0.486339"/>
<path d="M58.2969 35.2603L53.6948 53.0137" stroke="black" stroke-width="0.486339"/>
<path d="M30.4375 29.1563L46.9081 24.5274" stroke="black" stroke-width="0.486339"/>
</svg>
