<svg width="328" height="191" viewBox="0 0 328 191" fill="none" xmlns="http://www.w3.org/2000/svg">
    <g opacity="0.1">
        <mask id="path-1-inside-1_47_2349" fill="white">
            <path fill-rule="evenodd" clip-rule="evenodd"
                d="M0 10.3047C0 4.78184 4.47715 0.304688 10 0.304688H318C323.523 0.304688 328 4.78184 328 10.3047V37.3047C323.582 37.3047 320 40.8864 320 45.3047C320 49.723 323.582 53.3047 328 53.3047V180.305C328 185.828 323.523 190.305 318 190.305H9.99999C4.47714 190.305 0 185.828 0 180.305V53.3047C4.41828 53.3047 8 49.723 8 45.3047C8 40.8864 4.41828 37.3047 0 37.3047V10.3047Z" />
        </mask>
        <path fill-rule="evenodd" clip-rule="evenodd"
            d="M0 10.3047C0 4.78184 4.47715 0.304688 10 0.304688H318C323.523 0.304688 328 4.78184 328 10.3047V37.3047C323.582 37.3047 320 40.8864 320 45.3047C320 49.723 323.582 53.3047 328 53.3047V180.305C328 185.828 323.523 190.305 318 190.305H9.99999C4.47714 190.305 0 185.828 0 180.305V53.3047C4.41828 53.3047 8 49.723 8 45.3047C8 40.8864 4.41828 37.3047 0 37.3047V10.3047Z"
            fill="#A5E4FF" />
        <path
            d="M328 37.3047V38.3047H329V37.3047H328ZM328 53.3047H329V52.3047H328V53.3047ZM0 53.3047V52.3047H-1V53.3047H0ZM0 37.3047H-1V38.3047H0V37.3047ZM10 -0.695312C3.92487 -0.695312 -1 4.22955 -1 10.3047H1C1 5.33412 5.02944 1.30469 10 1.30469V-0.695312ZM318 -0.695312H10V1.30469H318V-0.695312ZM329 10.3047C329 4.22956 324.075 -0.695312 318 -0.695312V1.30469C322.971 1.30469 327 5.33412 327 10.3047H329ZM329 37.3047V10.3047H327V37.3047H329ZM321 45.3047C321 41.4387 324.134 38.3047 328 38.3047V36.3047C323.029 36.3047 319 40.3341 319 45.3047H321ZM328 52.3047C324.134 52.3047 321 49.1707 321 45.3047H319C319 50.2752 323.029 54.3047 328 54.3047V52.3047ZM329 180.305V53.3047H327V180.305H329ZM318 191.305C324.075 191.305 329 186.38 329 180.305H327C327 185.275 322.971 189.305 318 189.305V191.305ZM9.99999 191.305H318V189.305H9.99999V191.305ZM-1 180.305C-1 186.38 3.92486 191.305 9.99999 191.305V189.305C5.02943 189.305 1 185.275 1 180.305H-1ZM-1 53.3047V180.305H1V53.3047H-1ZM7 45.3047C7 49.1707 3.86599 52.3047 0 52.3047V54.3047C4.97056 54.3047 9 50.2752 9 45.3047H7ZM0 38.3047C3.86599 38.3047 7 41.4387 7 45.3047H9C9 40.3341 4.97056 36.3047 0 36.3047V38.3047ZM-1 10.3047V37.3047H1V10.3047H-1Z"
            fill="#FFE9B1" mask="url(#path-1-inside-1_47_2349)" />
    </g>
    <line opacity="0.3" x1="14" y1="44.8047" x2="314" y2="44.8047" stroke="#F8FBFF"
        stroke-dasharray="10 10" />
    <rect opacity="0.5" x="-0.288553" y="0.288553" width="32.1201" height="32.1201" rx="1.69525"
        transform="matrix(-1 0 0 1 314.737 64.2285)" stroke="white" stroke-width="0.577105" />
    <rect opacity="0.5" x="-0.288553" y="0.288553" width="32.1201" height="32.1201" rx="1.69525"
        transform="matrix(-1 0 0 1 247.419 64.2285)" stroke="white" stroke-width="0.577105" />
    <rect opacity="0.5" x="-0.288553" y="0.288553" width="32.1201" height="32.1201" rx="1.69525"
        transform="matrix(-1 0 0 1 213.761 64.2285)" stroke="white" stroke-width="0.577105" />
    <rect opacity="0.5" x="-0.288553" y="0.288553" width="32.1201" height="32.1201" rx="1.69525"
        transform="matrix(-1 0 0 1 146.442 64.2285)" stroke="white" stroke-width="0.577105" />
    <rect opacity="0.5" x="-0.5" y="0.5" width="31.6973" height="31.6973" rx="15.8486"
        transform="matrix(-1 0 0 1 112.361 64.2285)" fill="#495DB2" stroke="#93B5FE" />
    <rect opacity="0.5" x="47.5039" y="98.7207" width="31.6973" height="31.6973" rx="15.8486"
        fill="#495DB2" stroke="#93B5FE" />
    <rect opacity="0.5" x="114.822" y="98.7207" width="31.6973" height="31.6973" rx="15.8486"
        fill="#495DB2" stroke="#93B5FE" />
    <rect opacity="0.5" x="181.929" y="98.5093" width="32.1201" height="32.1201" rx="1.69525"
        stroke="white" stroke-width="0.577105" />
    <rect opacity="0.5" x="249.248" y="98.5093" width="32.1201" height="32.1201" rx="1.69525"
        stroke="white" stroke-width="0.577105" />
    <rect opacity="0.5" x="-0.288553" y="0.288553" width="32.1201" height="32.1201" rx="1.69525"
        transform="matrix(-1 0 0 1 213.761 132.447)" stroke="white" stroke-width="0.577105" />
    <rect opacity="0.5" x="-0.288553" y="0.288553" width="32.1201" height="32.1201" rx="1.69525"
        transform="matrix(-1 0 0 1 180.101 132.447)" stroke="white" stroke-width="0.577105" />
    <g opacity="0.4">
        <rect opacity="0.2" x="-0.480842" y="0.480842" width="31.7356" height="31.7356" rx="1.50296"
            transform="matrix(-1 0 0 1 280.695 64.2285)" stroke="white" stroke-width="0.961684" />
        <rect opacity="0.2" x="-0.480842" y="0.480842" width="31.7356" height="31.7356" rx="1.50296"
            transform="matrix(-1 0 0 1 179.716 64.2285)" stroke="white" stroke-width="0.961684" />
        <rect opacity="0.2" x="-0.480842" y="0.480842" width="31.7356" height="31.7356" rx="1.50296"
            transform="matrix(-1 0 0 1 78.7395 64.2285)" stroke="white" stroke-width="0.961684" />
        <rect opacity="0.2" x="-0.480842" y="0.480842" width="31.7356" height="31.7356" rx="1.50296"
            transform="matrix(-1 0 0 1 45.0813 64.2285)" stroke="white" stroke-width="0.961684" />
        <rect opacity="0.2" x="13.8265" y="98.7015" width="31.7356" height="31.7356" rx="1.50296"
            stroke="white" stroke-width="0.961684" />
        <rect opacity="0.2" x="81.1449" y="98.7015" width="31.7356" height="31.7356" rx="1.50296"
            stroke="white" stroke-width="0.961684" />
        <rect opacity="0.2" x="148.463" y="98.7015" width="31.7356" height="31.7356" rx="1.50296"
            stroke="white" stroke-width="0.961684" />
        <rect opacity="0.2" x="215.78" y="98.7015" width="31.7356" height="31.7356" rx="1.50296"
            stroke="white" stroke-width="0.961684" />
        <rect opacity="0.2" x="-0.480842" y="0.480842" width="31.7356" height="31.7356" rx="1.50296"
            transform="matrix(-1 0 0 1 314.353 132.49)" stroke="white" stroke-width="0.961684" />
        <rect opacity="0.2" x="-0.480842" y="0.480842" width="31.7356" height="31.7356" rx="1.50296"
            transform="matrix(-1 0 0 1 314.353 98.2207)" stroke="white" stroke-width="0.961684" />
        <rect opacity="0.2" x="-0.480842" y="0.480842" width="31.7356" height="31.7356" rx="1.50296"
            transform="matrix(-1 0 0 1 280.695 132.447)" stroke="white" stroke-width="0.961684" />
        <rect opacity="0.2" x="-0.480842" y="0.480842" width="31.7356" height="31.7356" rx="1.50296"
            transform="matrix(-1 0 0 1 247.034 132.447)" stroke="white" stroke-width="0.961684" />
        <rect opacity="0.2" x="-0.480842" y="0.480842" width="31.7356" height="31.7356" rx="1.50296"
            transform="matrix(-1 0 0 1 146.058 132.447)" stroke="white" stroke-width="0.961684" />
    </g>
    <rect opacity="0.5" x="-0.5" y="0.5" width="31.6973" height="31.6973" rx="15.8486"
        transform="matrix(-1 0 0 1 112.361 132.447)" fill="#495DB2" stroke="#93B5FE" />
    <rect opacity="0.5" x="-0.5" y="0.5" width="31.6973" height="31.6973" rx="15.8486"
        transform="matrix(-1 0 0 1 78.7012 132.447)" fill="#495DB2" stroke="#93B5FE" />
    <rect opacity="0.5" x="-0.5" y="0.5" width="31.6973" height="31.6973" rx="15.8486"
        transform="matrix(-1 0 0 1 45.043 132.447)" fill="#495DB2" stroke="#93B5FE" />
    <path opacity="0.5"
        d="M89.6699 85.5073V84.0353C89.6699 83.374 89.9526 82.8193 90.5179 82.3713L93.5419 79.9073C94.0539 79.502 94.3099 79.0326 94.3099 78.4993V77.9713C94.3099 77.2033 93.9099 76.8193 93.1099 76.8193H92.3259C91.9206 76.8193 91.6272 76.91 91.4459 77.0913C91.2646 77.2726 91.1739 77.566 91.1739 77.9713V78.5633C91.1739 78.7553 91.0832 78.8513 90.9019 78.8513H89.8779C89.6966 78.8513 89.6059 78.7553 89.6059 78.5633V77.9393C89.6059 77.1606 89.8246 76.558 90.2619 76.1313C90.6992 75.7046 91.3126 75.4913 92.1019 75.4913H93.3499C94.1286 75.4913 94.7366 75.7046 95.1739 76.1313C95.6112 76.558 95.8299 77.1606 95.8299 77.9393V78.5953C95.8299 79.4273 95.5046 80.11 94.8539 80.6433L91.7819 83.1553C91.5366 83.358 91.4139 83.598 91.4139 83.8753V84.3873H95.5739C95.7659 84.3873 95.8619 84.478 95.8619 84.6593V85.5073C95.8619 85.6886 95.7659 85.7793 95.5739 85.7793H89.9579C89.7659 85.7793 89.6699 85.6886 89.6699 85.5073ZM101.931 82.4513V76.7873L98.7788 82.4513H101.931ZM103.147 85.7793H102.203C102.021 85.7793 101.931 85.6886 101.931 85.5073V83.8273H97.7068C97.3974 83.8273 97.2428 83.6726 97.2428 83.3633V82.8673C97.2428 82.6326 97.2908 82.4246 97.3868 82.2433L100.955 75.8913C101.04 75.7313 101.12 75.6246 101.195 75.5713C101.269 75.518 101.381 75.4913 101.531 75.4913H102.939C103.248 75.4913 103.403 75.646 103.403 75.9553V82.4513H104.571C104.752 82.4513 104.843 82.542 104.843 82.7233V83.5233C104.843 83.726 104.752 83.8273 104.571 83.8273H103.403V85.5073C103.403 85.6886 103.317 85.7793 103.147 85.7793Z"
        fill="#93B5FE" />
    <path d="M85.8613 68.9824L108.373 91.4941" stroke="#6880BB" />
    <path d="M118.809 103.986L141.32 126.498" stroke="#6880BB" />
    <path opacity="0.5" d="M84.9375 137.643L107.449 160.154" stroke="#93B5FE" />
    <path d="M51.5098 103.025L74.0215 125.537" stroke="#6880BB" />
    <path opacity="0.5" d="M51.5098 137.643L74.0215 160.154" stroke="#93B5FE" />
    <path opacity="0.5" d="M18.082 137.643L40.5938 160.154" stroke="#93B5FE" />
    <path opacity="0.5"
        d="M60.9168 111.749V110.805C60.9168 110.635 60.9914 110.507 61.1408 110.421L62.8048 109.413C63.0074 109.296 63.1781 109.237 63.3168 109.237H64.2768C64.4581 109.237 64.5488 109.328 64.5488 109.509V119.253C64.5488 119.435 64.4634 119.525 64.2928 119.525H63.2528C63.0714 119.525 62.9808 119.435 62.9808 119.253V110.901L61.2368 111.909C61.0234 112.005 60.9168 111.952 60.9168 111.749Z"
        fill="#93B5FE" />
    <path opacity="0.5"
        d="M26.9199 152.91V151.438C26.9199 150.776 27.2026 150.222 27.7679 149.774L30.7919 147.31C31.3039 146.904 31.5599 146.435 31.5599 145.902V145.374C31.5599 144.606 31.1599 144.222 30.3599 144.222H29.5759C29.1706 144.222 28.8772 144.312 28.6959 144.494C28.5146 144.675 28.4239 144.968 28.4239 145.374V145.966C28.4239 146.158 28.3332 146.254 28.1519 146.254H27.1279C26.9466 146.254 26.8559 146.158 26.8559 145.966V145.342C26.8559 144.563 27.0746 143.96 27.5119 143.534C27.9492 143.107 28.5626 142.894 29.3519 142.894H30.5999C31.3786 142.894 31.9866 143.107 32.4239 143.534C32.8612 143.96 33.0799 144.563 33.0799 145.342V145.998C33.0799 146.83 32.7546 147.512 32.1039 148.046L29.0319 150.558C28.7866 150.76 28.6639 151 28.6639 151.278V151.79H32.8239C33.0159 151.79 33.1119 151.88 33.1119 152.062V152.91C33.1119 153.091 33.0159 153.182 32.8239 153.182H27.2079C27.0159 153.182 26.9199 153.091 26.9199 152.91Z"
        fill="#93B5FE" />
    <path
        d="M126.032 79.9713H126.912C127.701 79.9713 128.096 79.582 128.096 78.8033V77.9713C128.096 77.2033 127.701 76.8193 126.912 76.8193H125.968C125.573 76.8193 125.28 76.91 125.088 77.0913C124.907 77.2726 124.816 77.566 124.816 77.9713V78.4353C124.816 78.6166 124.725 78.7073 124.544 78.7073H123.52C123.339 78.7073 123.248 78.6166 123.248 78.4353V77.9393C123.248 77.1606 123.467 76.558 123.904 76.1313C124.341 75.7046 124.955 75.4913 125.744 75.4913H127.136C127.925 75.4913 128.539 75.7046 128.976 76.1313C129.413 76.558 129.632 77.1606 129.632 77.9393V78.8193C129.632 79.758 129.205 80.3553 128.352 80.6113C129.205 80.814 129.632 81.4113 129.632 82.4033V83.3313C129.632 84.11 129.413 84.7126 128.976 85.1393C128.539 85.566 127.925 85.7793 127.136 85.7793H125.744C124.955 85.7793 124.341 85.566 123.904 85.1393C123.467 84.7126 123.248 84.11 123.248 83.3313V82.7713C123.248 82.5793 123.339 82.4833 123.52 82.4833H124.544C124.725 82.4833 124.816 82.5793 124.816 82.7713V83.2993C124.816 83.694 124.907 83.9873 125.088 84.1793C125.28 84.3606 125.573 84.4513 125.968 84.4513H126.912C127.701 84.4513 128.096 84.0673 128.096 83.2993V82.4193C128.096 81.6406 127.701 81.2513 126.912 81.2513H126.032C125.851 81.2513 125.76 81.1606 125.76 80.9793V80.2593C125.76 80.0673 125.851 79.9713 126.032 79.9713ZM131.391 85.5073V84.0353C131.391 83.374 131.673 82.8193 132.239 82.3713L135.263 79.9073C135.775 79.502 136.031 79.0326 136.031 78.4993V77.9713C136.031 77.2033 135.631 76.8193 134.831 76.8193H134.047C133.641 76.8193 133.348 76.91 133.167 77.0913C132.985 77.2726 132.895 77.566 132.895 77.9713V78.5633C132.895 78.7553 132.804 78.8513 132.623 78.8513H131.599C131.417 78.8513 131.327 78.7553 131.327 78.5633V77.9393C131.327 77.1606 131.545 76.558 131.983 76.1313C132.42 75.7046 133.033 75.4913 133.823 75.4913H135.071C135.849 75.4913 136.457 75.7046 136.895 76.1313C137.332 76.558 137.551 77.1606 137.551 77.9393V78.5953C137.551 79.4273 137.225 80.11 136.575 80.6433L133.503 83.1553C133.257 83.358 133.135 83.598 133.135 83.8753V84.3873H137.295C137.487 84.3873 137.583 84.478 137.583 84.6593V85.5073C137.583 85.6886 137.487 85.7793 137.295 85.7793H131.679C131.487 85.7793 131.391 85.6886 131.391 85.5073Z"
        fill="white" />
    <path
        d="M260.717 118.958H261.805C262.573 118.958 262.957 118.564 262.957 117.774V116.494C262.957 115.705 262.573 115.31 261.805 115.31H259.565V117.774C259.565 118.564 259.949 118.958 260.717 118.958ZM262.029 120.318H260.493C259.703 120.318 259.09 120.1 258.653 119.662C258.215 119.225 257.997 118.617 257.997 117.838V112.51C257.997 111.721 258.215 111.113 258.653 110.686C259.09 110.249 259.703 110.03 260.493 110.03H263.677C263.858 110.03 263.949 110.121 263.949 110.302V111.134C263.949 111.305 263.858 111.39 263.677 111.39H260.717C259.949 111.39 259.565 111.785 259.565 112.574V113.95H262.029C262.818 113.95 263.431 114.169 263.869 114.606C264.306 115.033 264.525 115.641 264.525 116.43V117.838C264.525 118.617 264.306 119.225 263.869 119.662C263.431 120.1 262.818 120.318 262.029 120.318ZM268.903 114.51H269.783C270.573 114.51 270.967 114.121 270.967 113.342V112.51C270.967 111.742 270.573 111.358 269.783 111.358H268.839C268.445 111.358 268.151 111.449 267.959 111.63C267.778 111.812 267.687 112.105 267.687 112.51V112.974C267.687 113.156 267.597 113.246 267.415 113.246H266.391C266.21 113.246 266.119 113.156 266.119 112.974V112.478C266.119 111.7 266.338 111.097 266.775 110.67C267.213 110.244 267.826 110.03 268.615 110.03H270.007C270.797 110.03 271.41 110.244 271.847 110.67C272.285 111.097 272.503 111.7 272.503 112.478V113.358C272.503 114.297 272.077 114.894 271.223 115.15C272.077 115.353 272.503 115.95 272.503 116.942V117.87C272.503 118.649 272.285 119.252 271.847 119.678C271.41 120.105 270.797 120.318 270.007 120.318H268.615C267.826 120.318 267.213 120.105 266.775 119.678C266.338 119.252 266.119 118.649 266.119 117.87V117.31C266.119 117.118 266.21 117.022 266.391 117.022H267.415C267.597 117.022 267.687 117.118 267.687 117.31V117.838C267.687 118.233 267.778 118.526 267.959 118.718C268.151 118.9 268.445 118.99 268.839 118.99H269.783C270.573 118.99 270.967 118.606 270.967 117.838V116.958C270.967 116.18 270.573 115.79 269.783 115.79H268.903C268.722 115.79 268.631 115.7 268.631 115.518V114.798C268.631 114.606 268.722 114.51 268.903 114.51Z"
        fill="white" />
    <path opacity="0.5"
        d="M124.868 111.749V110.805C124.868 110.635 124.943 110.507 125.092 110.421L126.756 109.413C126.959 109.296 127.129 109.237 127.268 109.237H128.228C128.409 109.237 128.5 109.328 128.5 109.509V119.253C128.5 119.435 128.415 119.525 128.244 119.525H127.204C127.023 119.525 126.932 119.435 126.932 119.253V110.901L125.188 111.909C124.975 112.005 124.868 111.952 124.868 111.749ZM132.07 119.525H130.966C130.764 119.525 130.716 119.424 130.822 119.221L134.246 110.677H130.214C130.033 110.677 129.942 110.581 129.942 110.389V109.509C129.942 109.328 130.033 109.237 130.214 109.237H135.638C135.83 109.237 135.926 109.328 135.926 109.509V110.501C135.926 110.672 135.868 110.896 135.75 111.173L132.518 119.269C132.454 119.44 132.305 119.525 132.07 119.525Z"
        fill="#93B5FE" />
    <path opacity="0.5"
        d="M89.6699 152.91V151.438C89.6699 150.776 89.9526 150.222 90.5179 149.774L93.5419 147.31C94.0539 146.904 94.3099 146.435 94.3099 145.902V145.374C94.3099 144.606 93.9099 144.222 93.1099 144.222H92.3259C91.9206 144.222 91.6272 144.312 91.4459 144.494C91.2646 144.675 91.1739 144.968 91.1739 145.374V145.966C91.1739 146.158 91.0832 146.254 90.9019 146.254H89.8779C89.6966 146.254 89.6059 146.158 89.6059 145.966V145.342C89.6059 144.563 89.8246 143.96 90.2619 143.534C90.6992 143.107 91.3126 142.894 92.1019 142.894H93.3499C94.1286 142.894 94.7366 143.107 95.1739 143.534C95.6112 143.96 95.8299 144.563 95.8299 145.342V145.998C95.8299 146.83 95.5046 147.512 94.8539 148.046L91.7819 150.558C91.5366 150.76 91.4139 151 91.4139 151.278V151.79H95.5739C95.7659 151.79 95.8619 151.88 95.8619 152.062V152.91C95.8619 153.091 95.7659 153.182 95.5739 153.182H89.9579C89.7659 153.182 89.6699 153.091 89.6699 152.91ZM100.267 151.822H101.531C101.925 151.822 102.213 151.731 102.395 151.55C102.587 151.368 102.683 151.08 102.683 150.686V149.822C102.683 149.022 102.299 148.622 101.531 148.622H100.267C99.4988 148.622 99.1148 149.022 99.1148 149.822V150.686C99.1148 151.08 99.2054 151.368 99.3868 151.55C99.5788 151.731 99.8721 151.822 100.267 151.822ZM100.267 147.374H101.531C102.299 147.374 102.683 146.974 102.683 146.174V145.39C102.683 144.995 102.587 144.707 102.395 144.526C102.213 144.344 101.925 144.254 101.531 144.254H100.267C99.8721 144.254 99.5788 144.344 99.3868 144.526C99.2054 144.707 99.1148 144.995 99.1148 145.39V146.174C99.1148 146.974 99.4988 147.374 100.267 147.374ZM101.755 153.182H100.059C99.2694 153.182 98.6561 152.979 98.2188 152.574C97.7814 152.168 97.5628 151.576 97.5628 150.798V149.934C97.5628 148.952 97.9308 148.312 98.6668 148.014C97.9308 147.715 97.5628 147.07 97.5628 146.078V145.262C97.5628 144.494 97.7814 143.907 98.2188 143.502C98.6561 143.096 99.2694 142.894 100.059 142.894H101.755C102.544 142.894 103.152 143.096 103.579 143.502C104.016 143.907 104.235 144.494 104.235 145.262V146.078C104.235 146.568 104.133 146.984 103.931 147.326C103.739 147.667 103.477 147.896 103.147 148.014C103.872 148.302 104.235 148.947 104.235 149.95V150.798C104.235 151.576 104.016 152.168 103.579 152.574C103.152 152.979 102.544 153.182 101.755 153.182Z"
        fill="#93B5FE" />
    <path
        d="M161.933 149.854V144.19L158.781 149.854H161.933ZM163.149 153.182H162.205C162.023 153.182 161.933 153.091 161.933 152.91V151.23H157.709C157.399 151.23 157.245 151.075 157.245 150.766V150.27C157.245 150.035 157.293 149.827 157.389 149.646L160.957 143.294C161.042 143.134 161.122 143.027 161.197 142.974C161.271 142.92 161.383 142.894 161.533 142.894H162.941C163.25 142.894 163.405 143.048 163.405 143.358V149.854H164.573C164.754 149.854 164.845 149.944 164.845 150.126V150.926C164.845 151.128 164.754 151.23 164.573 151.23H163.405V152.91C163.405 153.091 163.319 153.182 163.149 153.182ZM167.584 153.182H166.48C166.277 153.182 166.229 153.08 166.336 152.878L169.76 144.334H165.728C165.547 144.334 165.456 144.238 165.456 144.046V143.166C165.456 142.984 165.547 142.894 165.728 142.894H171.152C171.344 142.894 171.44 142.984 171.44 143.166V144.158C171.44 144.328 171.381 144.552 171.264 144.83L168.032 152.926C167.968 153.096 167.819 153.182 167.584 153.182Z"
        fill="white" />
    <path
        d="M194.63 116.99V111.326L191.478 116.99H194.63ZM195.846 120.318H194.902C194.721 120.318 194.63 120.228 194.63 120.046V118.366H190.406C190.097 118.366 189.942 118.212 189.942 117.902V117.406C189.942 117.172 189.99 116.964 190.086 116.782L193.654 110.43C193.739 110.27 193.819 110.164 193.894 110.11C193.969 110.057 194.081 110.03 194.23 110.03H195.638C195.947 110.03 196.102 110.185 196.102 110.494V116.99H197.27C197.451 116.99 197.542 117.081 197.542 117.262V118.062C197.542 118.265 197.451 118.366 197.27 118.366H196.102V120.046C196.102 120.228 196.017 120.318 195.846 120.318ZM201.449 118.958H202.537C203.305 118.958 203.689 118.564 203.689 117.774V116.494C203.689 115.705 203.305 115.31 202.537 115.31H200.297V117.774C200.297 118.564 200.681 118.958 201.449 118.958ZM202.761 120.318H201.225C200.436 120.318 199.823 120.1 199.385 119.662C198.948 119.225 198.729 118.617 198.729 117.838V112.51C198.729 111.721 198.948 111.113 199.385 110.686C199.823 110.249 200.436 110.03 201.225 110.03H204.409C204.591 110.03 204.681 110.121 204.681 110.302V111.134C204.681 111.305 204.591 111.39 204.409 111.39H201.449C200.681 111.39 200.297 111.785 200.297 112.574V113.95H202.761C203.551 113.95 204.164 114.169 204.601 114.606C205.039 115.033 205.257 115.641 205.257 116.43V117.838C205.257 118.617 205.039 119.225 204.601 119.662C204.164 120.1 203.551 120.318 202.761 120.318Z"
        fill="white" />
    <path opacity="0.5"
        d="M57.0691 145.406V144.462C57.0691 144.291 57.1438 144.163 57.2931 144.078L58.9571 143.07C59.1598 142.952 59.3304 142.894 59.4691 142.894H60.4291C60.6104 142.894 60.7011 142.984 60.7011 143.166V152.91C60.7011 153.091 60.6158 153.182 60.4451 153.182H59.4051C59.2238 153.182 59.1331 153.091 59.1331 152.91V144.558L57.3891 145.566C57.1758 145.662 57.0691 145.608 57.0691 145.406ZM65.3595 147.966H67.5995V145.438C67.5995 144.648 67.2101 144.254 66.4315 144.254H65.3595C64.5915 144.254 64.2075 144.648 64.2075 145.438V146.798C64.2075 147.576 64.5915 147.966 65.3595 147.966ZM66.6555 153.182H63.4075C63.2048 153.182 63.1035 153.091 63.1035 152.91V152.078C63.1035 151.907 63.2048 151.822 63.4075 151.822H66.4315C67.1995 151.822 67.5835 151.427 67.5835 150.638V149.342H65.1195C64.3301 149.342 63.7168 149.128 63.2795 148.702C62.8421 148.264 62.6235 147.656 62.6235 146.878V145.374C62.6235 144.584 62.8421 143.976 63.2795 143.55C63.7168 143.112 64.3301 142.894 65.1195 142.894H66.6555C67.4448 142.894 68.0581 143.112 68.4955 143.55C68.9328 143.976 69.1515 144.584 69.1515 145.374V150.702C69.1515 151.48 68.9328 152.088 68.4955 152.526C68.0581 152.963 67.4448 153.182 66.6555 153.182Z"
        fill="#93B5FE" />
    <path
        d="M195.193 147.742H194.201C193.999 147.742 193.828 147.779 193.689 147.854C193.561 147.928 193.476 148.008 193.433 148.094C193.316 148.339 193.172 148.462 193.001 148.462H191.993C191.812 148.462 191.721 148.371 191.721 148.19V143.166C191.721 142.984 191.812 142.894 191.993 142.894H197.417C197.609 142.894 197.705 142.984 197.705 143.166V144.078C197.705 144.259 197.609 144.35 197.417 144.35H193.289V147.262C193.471 146.739 193.919 146.478 194.633 146.478H195.577C196.345 146.478 196.932 146.68 197.337 147.086C197.743 147.48 197.945 148.067 197.945 148.846V150.702C197.945 151.48 197.727 152.088 197.289 152.526C196.852 152.963 196.244 153.182 195.465 153.182H194.105C193.316 153.182 192.703 152.963 192.265 152.526C191.839 152.088 191.625 151.48 191.625 150.702V150.286C191.625 150.094 191.716 149.998 191.897 149.998H192.905C193.087 149.998 193.177 150.094 193.177 150.286V150.686C193.177 151.464 193.561 151.854 194.329 151.854H195.241C196.031 151.854 196.425 151.464 196.425 150.686V149.07C196.425 148.59 196.329 148.248 196.137 148.046C195.956 147.843 195.641 147.742 195.193 147.742ZM201.146 153.182H200.042C199.84 153.182 199.792 153.08 199.898 152.878L203.322 144.334H199.29C199.109 144.334 199.018 144.238 199.018 144.046V143.166C199.018 142.984 199.109 142.894 199.29 142.894H204.714C204.906 142.894 205.002 142.984 205.002 143.166V144.158C205.002 144.328 204.944 144.552 204.826 144.83L201.594 152.926C201.53 153.096 201.381 153.182 201.146 153.182Z"
        fill="white" />
    <path
        d="M194.711 80.8862H193.719C193.516 80.8862 193.346 80.9235 193.207 80.9982C193.079 81.0728 192.994 81.1528 192.951 81.2382C192.834 81.4835 192.69 81.6062 192.519 81.6062H191.511C191.33 81.6062 191.239 81.5155 191.239 81.3342V76.3102C191.239 76.1288 191.33 76.0382 191.511 76.0382H196.935C197.127 76.0382 197.223 76.1288 197.223 76.3102V77.2222C197.223 77.4035 197.127 77.4942 196.935 77.4942H192.807V80.4062C192.988 79.8835 193.436 79.6222 194.151 79.6222H195.095C195.863 79.6222 196.45 79.8248 196.855 80.2302C197.26 80.6248 197.463 81.2115 197.463 81.9902V83.8462C197.463 84.6248 197.244 85.2328 196.807 85.6702C196.37 86.1075 195.762 86.3262 194.983 86.3262H193.623C192.834 86.3262 192.22 86.1075 191.783 85.6702C191.356 85.2328 191.143 84.6248 191.143 83.8462V83.4302C191.143 83.2382 191.234 83.1422 191.415 83.1422H192.423C192.604 83.1422 192.695 83.2382 192.695 83.4302V83.8302C192.695 84.6088 193.079 84.9982 193.847 84.9982H194.759C195.548 84.9982 195.943 84.6088 195.943 83.8302V82.2142C195.943 81.7342 195.847 81.3928 195.655 81.1902C195.474 80.9875 195.159 80.8862 194.711 80.8862ZM199.08 86.0542V84.5822C199.08 83.9208 199.363 83.3662 199.928 82.9182L202.952 80.4542C203.464 80.0488 203.72 79.5795 203.72 79.0462V78.5182C203.72 77.7502 203.32 77.3662 202.52 77.3662H201.736C201.331 77.3662 201.037 77.4568 200.856 77.6382C200.675 77.8195 200.584 78.1128 200.584 78.5182V79.1102C200.584 79.3022 200.493 79.3982 200.312 79.3982H199.288C199.107 79.3982 199.016 79.3022 199.016 79.1102V78.4862C199.016 77.7075 199.235 77.1048 199.672 76.6782C200.109 76.2515 200.723 76.0382 201.512 76.0382H202.76C203.539 76.0382 204.147 76.2515 204.584 76.6782C205.021 77.1048 205.24 77.7075 205.24 78.4862V79.1422C205.24 79.9742 204.915 80.6568 204.264 81.1902L201.192 83.7022C200.947 83.9048 200.824 84.1448 200.824 84.4222V84.9342H204.984C205.176 84.9342 205.272 85.0248 205.272 85.2062V86.0542C205.272 86.2355 205.176 86.3262 204.984 86.3262H199.368C199.176 86.3262 199.08 86.2355 199.08 86.0542Z"
        fill="white" />
    <path
        d="M226.371 86.3262H225.267C225.064 86.3262 225.016 86.2248 225.123 86.0222L228.547 77.4782H224.515C224.334 77.4782 224.243 77.3822 224.243 77.1902V76.3102C224.243 76.1288 224.334 76.0382 224.515 76.0382H229.939C230.131 76.0382 230.227 76.1288 230.227 76.3102V77.3022C230.227 77.4728 230.168 77.6968 230.051 77.9742L226.819 86.0702C226.755 86.2408 226.606 86.3262 226.371 86.3262ZM234.053 81.1102H236.293V78.5822C236.293 77.7928 235.903 77.3982 235.125 77.3982H234.053C233.285 77.3982 232.901 77.7928 232.901 78.5822V79.9422C232.901 80.7208 233.285 81.1102 234.053 81.1102ZM235.349 86.3262H232.101C231.898 86.3262 231.797 86.2355 231.797 86.0542V85.2222C231.797 85.0515 231.898 84.9662 232.101 84.9662H235.125C235.893 84.9662 236.277 84.5715 236.277 83.7822V82.4862H233.813C233.023 82.4862 232.41 82.2728 231.973 81.8462C231.535 81.4088 231.317 80.8008 231.317 80.0222V78.5182C231.317 77.7288 231.535 77.1208 231.973 76.6942C232.41 76.2568 233.023 76.0382 233.813 76.0382H235.349C236.138 76.0382 236.751 76.2568 237.189 76.6942C237.626 77.1208 237.845 77.7288 237.845 78.5182V83.8462C237.845 84.6248 237.626 85.2328 237.189 85.6702C236.751 86.1075 236.138 86.3262 235.349 86.3262Z"
        fill="white" />
    <path
        d="M295.386 84.9662H296.65C297.045 84.9662 297.333 84.8755 297.514 84.6942C297.706 84.5128 297.802 84.2248 297.802 83.8302V82.9662C297.802 82.1662 297.418 81.7662 296.65 81.7662H295.386C294.618 81.7662 294.234 82.1662 294.234 82.9662V83.8302C294.234 84.2248 294.325 84.5128 294.506 84.6942C294.698 84.8755 294.991 84.9662 295.386 84.9662ZM295.386 80.5182H296.65C297.418 80.5182 297.802 80.1182 297.802 79.3182V78.5342C297.802 78.1395 297.706 77.8515 297.514 77.6702C297.333 77.4888 297.045 77.3982 296.65 77.3982H295.386C294.991 77.3982 294.698 77.4888 294.506 77.6702C294.325 77.8515 294.234 78.1395 294.234 78.5342V79.3182C294.234 80.1182 294.618 80.5182 295.386 80.5182ZM296.874 86.3262H295.178C294.389 86.3262 293.775 86.1235 293.338 85.7182C292.901 85.3128 292.682 84.7208 292.682 83.9422V83.0782C292.682 82.0968 293.05 81.4568 293.786 81.1582C293.05 80.8595 292.682 80.2142 292.682 79.2222V78.4062C292.682 77.6382 292.901 77.0515 293.338 76.6462C293.775 76.2408 294.389 76.0382 295.178 76.0382H296.874C297.663 76.0382 298.271 76.2408 298.698 76.6462C299.135 77.0515 299.354 77.6382 299.354 78.4062V79.2222C299.354 79.7128 299.253 80.1288 299.05 80.4702C298.858 80.8115 298.597 81.0408 298.266 81.1582C298.991 81.4462 299.354 82.0915 299.354 83.0942V83.9422C299.354 84.7208 299.135 85.3128 298.698 85.7182C298.271 86.1235 297.663 86.3262 296.874 86.3262ZM300.733 78.5502V77.6062C300.733 77.4355 300.808 77.3075 300.957 77.2222L302.621 76.2142C302.824 76.0968 302.994 76.0382 303.133 76.0382H304.093C304.274 76.0382 304.365 76.1288 304.365 76.3102V86.0542C304.365 86.2355 304.28 86.3262 304.109 86.3262H303.069C302.888 86.3262 302.797 86.2355 302.797 86.0542V77.7022L301.053 78.7102C300.84 78.8062 300.733 78.7528 300.733 78.5502Z"
        fill="white" />
    <path opacity="0.3"
        d="M217.94 25.3139C217.252 25.3139 216.64 25.1539 216.104 24.8339C215.568 24.5059 215.148 24.0379 214.844 23.4299C214.54 22.8219 214.388 22.0899 214.388 21.2339C214.388 20.3859 214.544 19.6579 214.856 19.0499C215.168 18.4419 215.596 17.9739 216.14 17.6459C216.684 17.3179 217.304 17.1539 218 17.1539C218.544 17.1539 219 17.2579 219.368 17.4659C219.744 17.6659 220.044 17.8859 220.268 18.1259L219.716 18.7739C219.516 18.5659 219.284 18.3899 219.02 18.2459C218.756 18.1019 218.424 18.0299 218.024 18.0299C217.496 18.0299 217.036 18.1619 216.644 18.4259C216.252 18.6819 215.948 19.0459 215.732 19.5179C215.524 19.9899 215.42 20.5539 215.42 21.2099C215.42 22.2019 215.644 22.9899 216.092 23.5739C216.548 24.1499 217.196 24.4379 218.036 24.4379C218.316 24.4379 218.584 24.3979 218.84 24.3179C219.096 24.2299 219.3 24.1139 219.452 23.9699V21.9179H217.784V21.0899H220.364V24.4019C220.116 24.6659 219.78 24.8859 219.356 25.0619C218.94 25.2299 218.468 25.3139 217.94 25.3139ZM224.518 25.3139C223.998 25.3139 223.526 25.1939 223.102 24.9539C222.678 24.7059 222.342 24.3539 222.094 23.8979C221.846 23.4419 221.722 22.8979 221.722 22.2659C221.722 21.6259 221.846 21.0779 222.094 20.6219C222.35 20.1659 222.678 19.8139 223.078 19.5659C223.478 19.3179 223.898 19.1939 224.338 19.1939C225.082 19.1939 225.654 19.4419 226.054 19.9379C226.462 20.4339 226.666 21.0979 226.666 21.9299C226.666 22.0339 226.662 22.1379 226.654 22.2419C226.654 22.3379 226.646 22.4219 226.63 22.4939H222.694C222.734 23.1099 222.926 23.6019 223.27 23.9699C223.622 24.3379 224.078 24.5219 224.638 24.5219C224.918 24.5219 225.174 24.4819 225.406 24.4019C225.646 24.3139 225.874 24.2019 226.09 24.0659L226.438 24.7139C226.19 24.8739 225.906 25.0139 225.586 25.1339C225.274 25.2539 224.918 25.3139 224.518 25.3139ZM222.682 21.7859H225.802C225.802 21.1939 225.674 20.7459 225.418 20.4419C225.17 20.1299 224.818 19.9739 224.362 19.9739C223.954 19.9739 223.586 20.1339 223.258 20.4539C222.938 20.7659 222.746 21.2099 222.682 21.7859ZM228.107 25.1699V19.3379H228.923L229.007 20.1779H229.043C229.323 19.8979 229.619 19.6659 229.931 19.4819C230.243 19.2899 230.599 19.1939 230.999 19.1939C231.615 19.1939 232.063 19.3899 232.343 19.7819C232.631 20.1659 232.775 20.7299 232.775 21.4739V25.1699H231.791V21.6059C231.791 21.0619 231.703 20.6659 231.527 20.4179C231.351 20.1699 231.071 20.0459 230.687 20.0459C230.391 20.0459 230.123 20.1219 229.883 20.2739C229.651 20.4259 229.387 20.6499 229.091 20.9459V25.1699H228.107ZM237.034 25.3139C236.514 25.3139 236.042 25.1939 235.618 24.9539C235.194 24.7059 234.858 24.3539 234.61 23.8979C234.362 23.4419 234.238 22.8979 234.238 22.2659C234.238 21.6259 234.362 21.0779 234.61 20.6219C234.866 20.1659 235.194 19.8139 235.594 19.5659C235.994 19.3179 236.414 19.1939 236.854 19.1939C237.598 19.1939 238.17 19.4419 238.57 19.9379C238.978 20.4339 239.182 21.0979 239.182 21.9299C239.182 22.0339 239.178 22.1379 239.17 22.2419C239.17 22.3379 239.162 22.4219 239.146 22.4939H235.21C235.25 23.1099 235.442 23.6019 235.786 23.9699C236.138 24.3379 236.594 24.5219 237.154 24.5219C237.434 24.5219 237.69 24.4819 237.922 24.4019C238.162 24.3139 238.39 24.2019 238.606 24.0659L238.954 24.7139C238.706 24.8739 238.422 25.0139 238.102 25.1339C237.79 25.2539 237.434 25.3139 237.034 25.3139ZM235.198 21.7859H238.318C238.318 21.1939 238.19 20.7459 237.934 20.4419C237.686 20.1299 237.334 19.9739 236.878 19.9739C236.47 19.9739 236.102 20.1339 235.774 20.4539C235.454 20.7659 235.262 21.2099 235.198 21.7859ZM240.623 25.1699V19.3379H241.439L241.523 20.3939H241.559C241.759 20.0259 242.003 19.7339 242.291 19.5179C242.579 19.3019 242.887 19.1939 243.215 19.1939C243.447 19.1939 243.655 19.2339 243.839 19.3139L243.647 20.1779C243.551 20.1459 243.463 20.1219 243.383 20.1059C243.303 20.0899 243.203 20.0819 243.083 20.0819C242.835 20.0819 242.575 20.1819 242.303 20.3819C242.039 20.5819 241.807 20.9299 241.607 21.4259V25.1699H240.623ZM245.834 25.3139C245.346 25.3139 244.938 25.1699 244.61 24.8819C244.29 24.5859 244.13 24.1779 244.13 23.6579C244.13 23.0179 244.414 22.5299 244.982 22.1939C245.558 21.8499 246.466 21.6099 247.706 21.4739C247.706 21.2259 247.67 20.9899 247.598 20.7659C247.534 20.5419 247.414 20.3619 247.238 20.2259C247.07 20.0819 246.826 20.0099 246.506 20.0099C246.17 20.0099 245.854 20.0739 245.558 20.2019C245.262 20.3299 244.998 20.4739 244.766 20.6339L244.382 19.9499C244.654 19.7739 244.986 19.6059 245.378 19.4459C245.778 19.2779 246.21 19.1939 246.674 19.1939C247.386 19.1939 247.902 19.4139 248.222 19.8539C248.542 20.2859 248.702 20.8659 248.702 21.5939V25.1699H247.886L247.802 24.4739H247.766C247.494 24.6979 247.194 24.8939 246.866 25.0619C246.546 25.2299 246.202 25.3139 245.834 25.3139ZM246.122 24.5219C246.402 24.5219 246.666 24.4539 246.914 24.3179C247.162 24.1819 247.426 23.9899 247.706 23.7419V22.1219C246.738 22.2419 246.058 22.4219 245.666 22.6619C245.282 22.9019 245.09 23.2099 245.09 23.5859C245.09 23.9139 245.19 24.1539 245.39 24.3059C245.59 24.4499 245.834 24.5219 246.122 24.5219ZM252.209 25.3139C251.585 25.3139 251.149 25.1339 250.901 24.7739C250.661 24.4139 250.541 23.9459 250.541 23.3699V20.1419H249.677V19.3979L250.589 19.3379L250.709 17.7059H251.537V19.3379H253.109V20.1419H251.537V23.3819C251.537 23.7419 251.601 24.0219 251.729 24.2219C251.865 24.4139 252.101 24.5099 252.437 24.5099C252.541 24.5099 252.653 24.4939 252.773 24.4619C252.893 24.4219 253.001 24.3859 253.097 24.3539L253.289 25.0979C253.129 25.1539 252.953 25.2019 252.761 25.2419C252.577 25.2899 252.393 25.3139 252.209 25.3139ZM256.627 25.3139C256.107 25.3139 255.635 25.1939 255.211 24.9539C254.787 24.7059 254.451 24.3539 254.203 23.8979C253.955 23.4419 253.831 22.8979 253.831 22.2659C253.831 21.6259 253.955 21.0779 254.203 20.6219C254.459 20.1659 254.787 19.8139 255.187 19.5659C255.587 19.3179 256.007 19.1939 256.447 19.1939C257.191 19.1939 257.763 19.4419 258.163 19.9379C258.571 20.4339 258.775 21.0979 258.775 21.9299C258.775 22.0339 258.771 22.1379 258.763 22.2419C258.763 22.3379 258.755 22.4219 258.739 22.4939H254.803C254.843 23.1099 255.035 23.6019 255.379 23.9699C255.731 24.3379 256.187 24.5219 256.747 24.5219C257.027 24.5219 257.283 24.4819 257.515 24.4019C257.755 24.3139 257.983 24.2019 258.199 24.0659L258.547 24.7139C258.299 24.8739 258.015 25.0139 257.695 25.1339C257.383 25.2539 257.027 25.3139 256.627 25.3139ZM254.791 21.7859H257.911C257.911 21.1939 257.783 20.7459 257.527 20.4419C257.279 20.1299 256.927 19.9739 256.471 19.9739C256.063 19.9739 255.695 20.1339 255.367 20.4539C255.047 20.7659 254.855 21.2099 254.791 21.7859ZM262.208 25.3139C261.48 25.3139 260.896 25.0499 260.456 24.5219C260.016 23.9859 259.796 23.2339 259.796 22.2659C259.796 21.6339 259.912 21.0899 260.144 20.6339C260.384 20.1699 260.696 19.8139 261.08 19.5659C261.472 19.3179 261.888 19.1939 262.328 19.1939C262.664 19.1939 262.956 19.2539 263.204 19.3739C263.452 19.4939 263.704 19.6579 263.96 19.8659L263.912 18.8699V16.6259H264.908V25.1699H264.092L264.008 24.4859H263.972C263.748 24.7099 263.484 24.9059 263.18 25.0739C262.876 25.2339 262.552 25.3139 262.208 25.3139ZM262.424 24.4859C262.936 24.4859 263.432 24.2179 263.912 23.6819V20.6339C263.664 20.4099 263.424 20.2539 263.192 20.1659C262.968 20.0699 262.736 20.0219 262.496 20.0219C262.184 20.0219 261.9 20.1179 261.644 20.3099C261.396 20.4939 261.196 20.7539 261.044 21.0899C260.892 21.4179 260.816 21.8059 260.816 22.2539C260.816 22.9499 260.956 23.4979 261.236 23.8979C261.516 24.2899 261.912 24.4859 262.424 24.4859ZM271.543 25.3139C271.071 25.3139 270.627 25.1939 270.211 24.9539C269.803 24.7139 269.471 24.3659 269.215 23.9099C268.967 23.4539 268.843 22.9059 268.843 22.2659C268.843 21.6099 268.967 21.0539 269.215 20.5979C269.471 20.1419 269.803 19.7939 270.211 19.5539C270.627 19.3139 271.071 19.1939 271.543 19.1939C272.023 19.1939 272.467 19.3139 272.875 19.5539C273.283 19.7939 273.611 20.1419 273.859 20.5979C274.115 21.0539 274.243 21.6099 274.243 22.2659C274.243 22.9059 274.115 23.4539 273.859 23.9099C273.611 24.3659 273.283 24.7139 272.875 24.9539C272.467 25.1939 272.023 25.3139 271.543 25.3139ZM271.543 24.4979C272.047 24.4979 272.451 24.2939 272.755 23.8859C273.067 23.4699 273.223 22.9299 273.223 22.2659C273.223 21.5939 273.067 21.0499 272.755 20.6339C272.451 20.2179 272.047 20.0099 271.543 20.0099C271.047 20.0099 270.643 20.2179 270.331 20.6339C270.019 21.0499 269.863 21.5939 269.863 22.2659C269.863 22.9299 270.019 23.4699 270.331 23.8859C270.643 24.2939 271.047 24.4979 271.543 24.4979ZM275.779 25.1699V19.3379H276.595L276.679 20.1779H276.715C276.995 19.8979 277.291 19.6659 277.603 19.4819C277.915 19.2899 278.271 19.1939 278.671 19.1939C279.287 19.1939 279.735 19.3899 280.015 19.7819C280.303 20.1659 280.447 20.7299 280.447 21.4739V25.1699H279.463V21.6059C279.463 21.0619 279.375 20.6659 279.199 20.4179C279.023 20.1699 278.743 20.0459 278.359 20.0459C278.063 20.0459 277.795 20.1219 277.555 20.2739C277.323 20.4259 277.059 20.6499 276.763 20.9459V25.1699H275.779ZM289.15 25.3139C288.382 25.3139 287.778 24.9699 287.338 24.2819C286.906 23.5859 286.69 22.5979 286.69 21.3179C286.69 20.0299 286.906 19.0499 287.338 18.3779C287.778 17.7059 288.382 17.3699 289.15 17.3699C289.91 17.3699 290.506 17.7059 290.938 18.3779C291.378 19.0499 291.598 20.0299 291.598 21.3179C291.598 22.5979 291.378 23.5859 290.938 24.2819C290.506 24.9699 289.91 25.3139 289.15 25.3139ZM289.15 24.5219C289.598 24.5219 289.958 24.2699 290.23 23.7659C290.502 23.2539 290.638 22.4379 290.638 21.3179C290.638 20.1979 290.502 19.3939 290.23 18.9059C289.958 18.4099 289.598 18.1619 289.15 18.1619C288.702 18.1619 288.338 18.4099 288.058 18.9059C287.786 19.3939 287.65 20.1979 287.65 21.3179C287.65 22.4379 287.786 23.2539 288.058 23.7659C288.338 24.2699 288.702 24.5219 289.15 24.5219ZM293.531 19.8299C293.531 20.3259 293.647 20.7219 293.879 21.0179C294.119 21.3059 294.475 21.4499 294.947 21.4499C295.203 21.4499 295.471 21.3699 295.751 21.2099C296.039 21.0499 296.307 20.7899 296.555 20.4299C296.491 19.6859 296.315 19.1219 296.027 18.7379C295.739 18.3459 295.351 18.1499 294.863 18.1499C294.495 18.1499 294.179 18.3059 293.915 18.6179C293.659 18.9219 293.531 19.3259 293.531 19.8299ZM294.587 25.3139C294.179 25.3139 293.819 25.2379 293.507 25.0859C293.203 24.9259 292.947 24.7339 292.739 24.5099L293.291 23.8859C293.451 24.0699 293.639 24.2179 293.855 24.3299C294.079 24.4419 294.311 24.4979 294.551 24.4979C294.911 24.4979 295.243 24.3939 295.547 24.1859C295.851 23.9779 296.095 23.6339 296.279 23.1539C296.471 22.6739 296.571 22.0259 296.579 21.2099C296.339 21.5139 296.059 21.7539 295.739 21.9299C295.419 22.1059 295.099 22.1939 294.779 22.1939C294.123 22.1939 293.595 21.9979 293.195 21.6059C292.803 21.2059 292.607 20.6139 292.607 19.8299C292.607 19.3419 292.711 18.9139 292.919 18.5459C293.127 18.1779 293.399 17.8899 293.735 17.6819C294.079 17.4739 294.455 17.3699 294.863 17.3699C295.367 17.3699 295.819 17.5059 296.219 17.7779C296.619 18.0499 296.931 18.4579 297.155 19.0019C297.387 19.5459 297.503 20.2299 297.503 21.0539C297.503 22.0779 297.363 22.9019 297.083 23.5259C296.811 24.1499 296.455 24.6059 296.015 24.8939C295.575 25.1739 295.099 25.3139 294.587 25.3139ZM298.212 27.0899L301.416 16.6499H302.136L298.932 27.0899H298.212ZM303.235 25.1699V24.3539H304.987V18.7139H303.595V18.0779C303.947 18.0139 304.251 17.9379 304.507 17.8499C304.771 17.7539 305.007 17.6419 305.215 17.5139H305.971V24.3539H307.555V25.1699H303.235ZM309.2 25.1699V24.3539H310.952V18.7139H309.56V18.0779C309.912 18.0139 310.216 17.9379 310.472 17.8499C310.736 17.7539 310.972 17.6419 311.18 17.5139H311.936V24.3539H313.52V25.1699H309.2Z"
        fill="white" />
    <path opacity="0.3"
        d="M14.1386 23.1699L14.4386 20.7219H13.4786V20.0379H14.5226L14.7386 18.2619H13.7186V17.5659H14.8226L15.0986 15.3699H15.7346L15.4586 17.5659H17.0546L17.3426 15.3699H17.9786L17.6906 17.5659H18.6626V18.2619H17.6186L17.4026 20.0379H18.4226V20.7219H17.3186L17.0186 23.1699H16.3826L16.6706 20.7219H15.0866L14.7866 23.1699H14.1386ZM15.1706 20.0379H16.7546L16.9706 18.2619H15.3866L15.1706 20.0379ZM19.5034 23.1699V22.5819C20.2714 21.8139 20.9234 21.1419 21.4594 20.5659C21.9954 19.9819 22.4034 19.4579 22.6834 18.9939C22.9634 18.5219 23.1034 18.0819 23.1034 17.6739C23.1034 17.2339 22.9834 16.8739 22.7434 16.5939C22.5034 16.3139 22.1394 16.1739 21.6514 16.1739C21.3314 16.1739 21.0354 16.2659 20.7634 16.4499C20.4914 16.6259 20.2434 16.8419 20.0194 17.0979L19.4554 16.5339C19.7754 16.1819 20.1154 15.9019 20.4754 15.6939C20.8434 15.4779 21.2754 15.3699 21.7714 15.3699C22.4834 15.3699 23.0434 15.5779 23.4514 15.9939C23.8594 16.4019 24.0634 16.9459 24.0634 17.6259C24.0634 18.1059 23.9274 18.5939 23.6554 19.0899C23.3914 19.5779 23.0234 20.0939 22.5514 20.6379C22.0874 21.1739 21.5514 21.7579 20.9434 22.3899C21.1514 22.3739 21.3674 22.3579 21.5914 22.3419C21.8154 22.3259 22.0274 22.3179 22.2274 22.3179H24.4474V23.1699H19.5034ZM25.4683 23.1699V22.5819C26.2363 21.8139 26.8883 21.1419 27.4243 20.5659C27.9603 19.9819 28.3683 19.4579 28.6483 18.9939C28.9283 18.5219 29.0683 18.0819 29.0683 17.6739C29.0683 17.2339 28.9483 16.8739 28.7083 16.5939C28.4683 16.3139 28.1043 16.1739 27.6163 16.1739C27.2963 16.1739 27.0003 16.2659 26.7283 16.4499C26.4563 16.6259 26.2083 16.8419 25.9843 17.0979L25.4203 16.5339C25.7403 16.1819 26.0803 15.9019 26.4403 15.6939C26.8083 15.4779 27.2403 15.3699 27.7363 15.3699C28.4483 15.3699 29.0083 15.5779 29.4163 15.9939C29.8243 16.4019 30.0283 16.9459 30.0283 17.6259C30.0283 18.1059 29.8923 18.5939 29.6203 19.0899C29.3563 19.5779 28.9883 20.0939 28.5163 20.6379C28.0523 21.1739 27.5163 21.7579 26.9083 22.3899C27.1163 22.3739 27.3323 22.3579 27.5563 22.3419C27.7803 22.3259 27.9923 22.3179 28.1923 22.3179H30.4123V23.1699H25.4683ZM31.9011 23.1699V22.3539H33.6531V16.7139H32.2611V16.0779C32.6131 16.0139 32.9171 15.9379 33.1731 15.8499C33.4371 15.7539 33.6731 15.6419 33.8811 15.5139H34.6371V22.3539H36.2211V23.1699H31.9011ZM38.166 20.2659H40.566V18.0459C40.566 17.8379 40.574 17.5899 40.59 17.3019C40.606 17.0139 40.618 16.7699 40.626 16.5699H40.578C40.482 16.7539 40.382 16.9339 40.278 17.1099C40.174 17.2859 40.066 17.4659 39.954 17.6499L38.166 20.2659ZM40.566 23.1699V21.0579H37.122V20.4099L40.398 15.5139H41.502V20.2659H42.546V21.0579H41.502V23.1699H40.566ZM45.8708 23.3139C45.1028 23.3139 44.4988 22.9699 44.0588 22.2819C43.6268 21.5859 43.4108 20.5979 43.4108 19.3179C43.4108 18.0299 43.6268 17.0499 44.0588 16.3779C44.4988 15.7059 45.1028 15.3699 45.8708 15.3699C46.6308 15.3699 47.2268 15.7059 47.6588 16.3779C48.0988 17.0499 48.3188 18.0299 48.3188 19.3179C48.3188 20.5979 48.0988 21.5859 47.6588 22.2819C47.2268 22.9699 46.6308 23.3139 45.8708 23.3139ZM45.8708 22.5219C46.3188 22.5219 46.6788 22.2699 46.9508 21.7659C47.2228 21.2539 47.3588 20.4379 47.3588 19.3179C47.3588 18.1979 47.2228 17.3939 46.9508 16.9059C46.6788 16.4099 46.3188 16.1619 45.8708 16.1619C45.4228 16.1619 45.0588 16.4099 44.7788 16.9059C44.5068 17.3939 44.3708 18.1979 44.3708 19.3179C44.3708 20.4379 44.5068 21.2539 44.7788 21.7659C45.0588 22.2699 45.4228 22.5219 45.8708 22.5219ZM51.9797 19.2339C51.7317 19.2339 51.4637 19.3139 51.1757 19.4739C50.8877 19.6339 50.6237 19.8899 50.3837 20.2419C50.4477 20.9859 50.6197 21.5539 50.8997 21.9459C51.1877 22.3379 51.5757 22.5339 52.0637 22.5339C52.4397 22.5339 52.7557 22.3819 53.0117 22.0779C53.2677 21.7659 53.3957 21.3579 53.3957 20.8539C53.3957 20.3579 53.2757 19.9659 53.0357 19.6779C52.8037 19.3819 52.4517 19.2339 51.9797 19.2339ZM52.0637 23.3139C51.5677 23.3139 51.1197 23.1779 50.7197 22.9059C50.3197 22.6339 50.0037 22.2259 49.7717 21.6819C49.5397 21.1299 49.4237 20.4459 49.4237 19.6299C49.4237 18.6059 49.5597 17.7819 49.8317 17.1579C50.1117 16.5339 50.4717 16.0819 50.9117 15.8019C51.3597 15.5139 51.8357 15.3699 52.3397 15.3699C52.7557 15.3699 53.1117 15.4499 53.4077 15.6099C53.7117 15.7619 53.9717 15.9539 54.1877 16.1859L53.6357 16.7979C53.4837 16.6139 53.2957 16.4699 53.0717 16.3659C52.8477 16.2539 52.6157 16.1979 52.3757 16.1979C52.0157 16.1979 51.6877 16.3019 51.3917 16.5099C51.0957 16.7099 50.8517 17.0499 50.6597 17.5299C50.4757 18.0019 50.3757 18.6419 50.3597 19.4499C50.5997 19.1539 50.8797 18.9219 51.1997 18.7539C51.5197 18.5779 51.8357 18.4899 52.1477 18.4899C52.8117 18.4899 53.3397 18.6899 53.7317 19.0899C54.1317 19.4819 54.3317 20.0699 54.3317 20.8539C54.3317 21.3419 54.2277 21.7699 54.0197 22.1379C53.8117 22.5059 53.5357 22.7939 53.1917 23.0019C52.8557 23.2099 52.4797 23.3139 52.0637 23.3139ZM55.7605 23.1699V22.3539H57.5125V16.7139H56.1205V16.0779C56.4725 16.0139 56.7765 15.9379 57.0325 15.8499C57.2965 15.7539 57.5325 15.6419 57.7405 15.5139H58.4965V22.3539H60.0805V23.1699H55.7605ZM63.7653 23.3139C62.9973 23.3139 62.3933 22.9699 61.9533 22.2819C61.5213 21.5859 61.3053 20.5979 61.3053 19.3179C61.3053 18.0299 61.5213 17.0499 61.9533 16.3779C62.3933 15.7059 62.9973 15.3699 63.7653 15.3699C64.5253 15.3699 65.1213 15.7059 65.5533 16.3779C65.9933 17.0499 66.2133 18.0299 66.2133 19.3179C66.2133 20.5979 65.9933 21.5859 65.5533 22.2819C65.1213 22.9699 64.5253 23.3139 63.7653 23.3139ZM63.7653 22.5219C64.2133 22.5219 64.5733 22.2699 64.8453 21.7659C65.1173 21.2539 65.2533 20.4379 65.2533 19.3179C65.2533 18.1979 65.1173 17.3939 64.8453 16.9059C64.5733 16.4099 64.2133 16.1619 63.7653 16.1619C63.3173 16.1619 62.9533 16.4099 62.6733 16.9059C62.4013 17.3939 62.2653 18.1979 62.2653 19.3179C62.2653 20.4379 62.4013 21.2539 62.6733 21.7659C62.9533 22.2699 63.3173 22.5219 63.7653 22.5219ZM67.6902 23.1699V22.3539H69.4422V16.7139H68.0502V16.0779C68.4022 16.0139 68.7062 15.9379 68.9622 15.8499C69.2262 15.7539 69.4622 15.6419 69.6702 15.5139H70.4262V22.3539H72.0102V23.1699H67.6902Z"
        fill="white" />
    <g filter="url(#filter0_b_47_2349)">
        <rect y="0.304688" width="328" height="190" rx="10" fill="white" fill-opacity="0.01" />
    </g>
    <rect x="149.831" y="58.5549" width="28.3377" height="21.1954" rx="2.06551" fill="white" />
    <path fill-rule="evenodd" clip-rule="evenodd"
        d="M165.181 73.0242C165.887 72.653 166.362 71.9595 166.362 71.1651C166.362 69.9797 165.305 69.0188 164.001 69.0188C162.696 69.0188 161.639 69.9797 161.639 71.1651C161.639 71.9595 162.114 72.6532 162.82 73.0243V76.5285H165.181V73.0242Z"
        fill="black" />
    <rect x="157.08" y="49.3047" width="13.8396" height="17.3075" rx="4" stroke="white"
        stroke-width="2" />
    <path
        d="M50.0315 101.176H51.5435C51.8075 101.176 51.9395 101.296 51.9395 101.536V109.816C51.9395 110.752 51.6755 111.478 51.1475 111.994C50.6315 112.498 49.9055 112.75 48.9695 112.75H46.9895C46.0415 112.75 45.3095 112.498 44.7935 111.994C44.2775 111.49 44.0195 110.764 44.0195 109.816V101.554C44.0195 101.302 44.1455 101.176 44.3975 101.176H45.9275C46.1795 101.176 46.3055 101.302 46.3055 101.554V109.708C46.3055 110.092 46.3835 110.368 46.5395 110.536C46.7075 110.692 46.9775 110.77 47.3495 110.77H48.5915C48.9755 110.77 49.2455 110.692 49.4015 110.536C49.5695 110.368 49.6535 110.092 49.6535 109.708V101.554C49.6535 101.302 49.7795 101.176 50.0315 101.176ZM55.9097 112.75H54.3797C54.1277 112.75 54.0017 112.624 54.0017 112.372V103.948C54.0017 103.696 54.1277 103.57 54.3797 103.57H55.9097C56.1617 103.57 56.2877 103.696 56.2877 103.948V104.542H56.3597C56.6237 103.894 57.2117 103.57 58.1237 103.57H58.6997C60.5837 103.57 61.5257 104.548 61.5257 106.504V112.372C61.5257 112.624 61.3937 112.75 61.1297 112.75H59.6177C59.3657 112.75 59.2397 112.624 59.2397 112.372V106.612C59.2397 106.228 59.1557 105.958 58.9877 105.802C58.8317 105.634 58.5617 105.55 58.1777 105.55H57.5297C56.7017 105.55 56.2877 106.006 56.2877 106.918V112.372C56.2877 112.624 56.1617 112.75 55.9097 112.75ZM65.4216 112.75H63.8916C63.6396 112.75 63.5136 112.624 63.5136 112.372V100.474C63.5136 100.222 63.6396 100.096 63.8916 100.096H65.4216C65.6736 100.096 65.7996 100.222 65.7996 100.474V112.372C65.7996 112.624 65.6736 112.75 65.4216 112.75ZM72.2629 112.75H70.6609C69.7129 112.75 68.9809 112.498 68.4649 111.994C67.9489 111.49 67.6909 110.764 67.6909 109.816V106.504C67.6909 105.556 67.9489 104.83 68.4649 104.326C68.9809 103.822 69.7129 103.57 70.6609 103.57H72.2629C73.1989 103.57 73.9249 103.828 74.4409 104.344C74.9689 104.848 75.2329 105.568 75.2329 106.504V109.816C75.2329 110.752 74.9689 111.478 74.4409 111.994C73.9249 112.498 73.1989 112.75 72.2629 112.75ZM71.0029 110.788H71.9209C72.3049 110.788 72.5749 110.71 72.7309 110.554C72.8989 110.398 72.9829 110.128 72.9829 109.744V106.576C72.9829 106.192 72.8989 105.922 72.7309 105.766C72.5749 105.61 72.3049 105.532 71.9209 105.532H71.0029C70.6189 105.532 70.3489 105.61 70.1929 105.766C70.0369 105.922 69.9589 106.192 69.9589 106.576V109.744C69.9589 110.128 70.0369 110.398 70.1929 110.554C70.3489 110.71 70.6189 110.788 71.0029 110.788ZM82.8791 111.148V112.39C82.8791 112.522 82.8491 112.618 82.7891 112.678C82.7411 112.726 82.6451 112.75 82.5011 112.75H79.8191C78.8711 112.75 78.1391 112.498 77.6231 111.994C77.1071 111.49 76.8491 110.764 76.8491 109.816V106.504C76.8491 105.556 77.1071 104.83 77.6231 104.326C78.1391 103.822 78.8711 103.57 79.8191 103.57H82.5011C82.7531 103.57 82.8791 103.696 82.8791 103.948V105.19C82.8791 105.322 82.8491 105.418 82.7891 105.478C82.7411 105.526 82.6451 105.55 82.5011 105.55H80.1791C79.8071 105.55 79.5371 105.634 79.3691 105.802C79.2131 105.958 79.1351 106.228 79.1351 106.612V109.708C79.1351 110.092 79.2131 110.368 79.3691 110.536C79.5371 110.692 79.8071 110.77 80.1791 110.77H82.5011C82.7531 110.77 82.8791 110.896 82.8791 111.148ZM89.6855 103.57H91.4315C91.5755 103.57 91.6715 103.612 91.7195 103.696C91.7675 103.78 91.7495 103.888 91.6655 104.02L89.2715 107.962V108.034L91.7735 112.3C91.8455 112.42 91.8515 112.528 91.7915 112.624C91.7315 112.708 91.6235 112.75 91.4675 112.75H89.9195C89.7155 112.75 89.5655 112.726 89.4695 112.678C89.3855 112.63 89.2955 112.528 89.1995 112.372L86.9135 108.358C86.8055 108.166 86.8055 107.968 86.9135 107.764L89.0735 103.93C89.2055 103.69 89.4095 103.57 89.6855 103.57ZM86.3375 112.75H84.8075C84.5555 112.75 84.4295 112.624 84.4295 112.372V100.474C84.4295 100.222 84.5555 100.096 84.8075 100.096H86.3375C86.5895 100.096 86.7155 100.222 86.7155 100.474V112.372C86.7155 112.624 86.5895 112.75 86.3375 112.75ZM98.3688 115.792H97.2168C96.9768 115.792 96.8568 115.66 96.8568 115.396V114.19C96.8568 113.926 96.9768 113.794 97.2168 113.794H97.5948C98.3508 113.794 98.8608 113.686 99.1248 113.47C99.4008 113.266 99.6108 112.864 99.7548 112.264H98.8008C98.5728 112.264 98.4228 112.138 98.3508 111.886L96.2448 103.948C96.1728 103.696 96.2628 103.57 96.5148 103.57H98.1168C98.3568 103.57 98.5068 103.696 98.5668 103.948L100.115 110.59H100.187L101.717 103.948C101.765 103.696 101.915 103.57 102.167 103.57H103.679C103.979 103.57 104.099 103.702 104.039 103.966L101.843 112.75C101.579 113.746 101.171 114.502 100.619 115.018C100.067 115.534 99.3168 115.792 98.3688 115.792ZM109.739 112.75H108.137C107.189 112.75 106.457 112.498 105.941 111.994C105.425 111.49 105.167 110.764 105.167 109.816V106.504C105.167 105.556 105.425 104.83 105.941 104.326C106.457 103.822 107.189 103.57 108.137 103.57H109.739C110.675 103.57 111.401 103.828 111.917 104.344C112.445 104.848 112.709 105.568 112.709 106.504V109.816C112.709 110.752 112.445 111.478 111.917 111.994C111.401 112.498 110.675 112.75 109.739 112.75ZM108.479 110.788H109.397C109.781 110.788 110.051 110.71 110.207 110.554C110.375 110.398 110.459 110.128 110.459 109.744V106.576C110.459 106.192 110.375 105.922 110.207 105.766C110.051 105.61 109.781 105.532 109.397 105.532H108.479C108.095 105.532 107.825 105.61 107.669 105.766C107.513 105.922 107.435 106.192 107.435 106.576V109.744C107.435 110.128 107.513 110.398 107.669 110.554C107.825 110.71 108.095 110.788 108.479 110.788ZM117.818 112.75H117.224C116.3 112.75 115.598 112.498 115.118 111.994C114.65 111.49 114.416 110.764 114.416 109.816V103.948C114.416 103.696 114.542 103.57 114.794 103.57H116.324C116.576 103.57 116.702 103.696 116.702 103.948V109.708C116.702 110.092 116.78 110.368 116.936 110.536C117.104 110.692 117.374 110.77 117.746 110.77H118.412C119.24 110.77 119.654 110.314 119.654 109.402V103.948C119.654 103.696 119.78 103.57 120.032 103.57H121.544C121.808 103.57 121.94 103.696 121.94 103.948V112.372C121.94 112.624 121.808 112.75 121.544 112.75H120.032C119.78 112.75 119.654 112.624 119.654 112.372V111.778H119.582C119.45 112.102 119.216 112.348 118.88 112.516C118.544 112.672 118.19 112.75 117.818 112.75ZM125.836 112.75H124.306C124.054 112.75 123.928 112.624 123.928 112.372V103.948C123.928 103.696 124.054 103.57 124.306 103.57H125.836C126.088 103.57 126.214 103.696 126.214 103.948V104.56H126.286C126.418 104.236 126.652 103.99 126.988 103.822C127.324 103.654 127.678 103.57 128.05 103.57H128.698C128.938 103.57 129.058 103.696 129.058 103.948V105.19C129.058 105.334 129.028 105.436 128.968 105.496C128.92 105.544 128.83 105.562 128.698 105.55H127.456C126.628 105.55 126.214 106.018 126.214 106.954V112.372C126.214 112.624 126.088 112.75 125.836 112.75ZM137.488 103.57H138.928C139.072 103.57 139.168 103.6 139.216 103.66C139.276 103.708 139.306 103.798 139.306 103.93V105.172C139.306 105.424 139.18 105.55 138.928 105.55H137.488C137.356 105.55 137.29 105.616 137.29 105.748V112.372C137.29 112.624 137.158 112.75 136.894 112.75H135.382C135.13 112.75 135.004 112.624 135.004 112.372V105.748C135.004 105.616 134.932 105.55 134.788 105.55H133.96C133.708 105.55 133.582 105.424 133.582 105.172V103.93C133.582 103.786 133.606 103.69 133.654 103.642C133.714 103.594 133.816 103.57 133.96 103.57H134.788C134.932 103.57 135.004 103.504 135.004 103.372V103.03C135.004 102.082 135.25 101.356 135.742 100.852C136.246 100.348 136.972 100.096 137.92 100.096H138.946C139.09 100.096 139.186 100.126 139.234 100.186C139.282 100.234 139.306 100.324 139.306 100.456V101.698C139.306 101.95 139.186 102.076 138.946 102.076H138.28C137.896 102.076 137.632 102.16 137.488 102.328C137.356 102.484 137.29 102.754 137.29 103.138V103.372C137.29 103.504 137.356 103.57 137.488 103.57ZM140.611 102.022V100.456C140.611 100.216 140.731 100.096 140.971 100.096H142.537C142.777 100.096 142.897 100.21 142.897 100.438V102.022C142.897 102.262 142.777 102.382 142.537 102.382H140.971C140.731 102.382 140.611 102.262 140.611 102.022ZM140.611 112.372V103.948C140.611 103.696 140.731 103.57 140.971 103.57H142.519C142.771 103.57 142.897 103.696 142.897 103.948V112.372C142.897 112.528 142.867 112.63 142.807 112.678C142.759 112.726 142.669 112.75 142.537 112.75H140.989C140.737 112.75 140.611 112.624 140.611 112.372ZM146.877 112.75H145.347C145.095 112.75 144.969 112.624 144.969 112.372V103.948C144.969 103.696 145.095 103.57 145.347 103.57H146.877C147.129 103.57 147.255 103.696 147.255 103.948V104.56H147.327C147.459 104.236 147.693 103.99 148.029 103.822C148.365 103.654 148.719 103.57 149.091 103.57H149.739C149.979 103.57 150.099 103.696 150.099 103.948V105.19C150.099 105.334 150.069 105.436 150.009 105.496C149.961 105.544 149.871 105.562 149.739 105.55H148.497C147.669 105.55 147.255 106.018 147.255 106.954V112.372C147.255 112.624 147.129 112.75 146.877 112.75ZM154.718 112.75H151.298C151.058 112.75 150.938 112.624 150.938 112.372V111.22C150.938 111.088 150.962 110.998 151.01 110.95C151.058 110.89 151.154 110.86 151.298 110.86H154.304C154.892 110.86 155.186 110.68 155.186 110.32V110.23C155.186 109.942 154.94 109.666 154.448 109.402L152.666 108.412C152.054 108.1 151.604 107.764 151.316 107.404C151.028 107.044 150.884 106.582 150.884 106.018C150.884 105.178 151.106 104.56 151.55 104.164C151.994 103.768 152.69 103.57 153.638 103.57H156.644C156.884 103.57 157.004 103.696 157.004 103.948V105.118C157.004 105.25 156.98 105.346 156.932 105.406C156.884 105.454 156.788 105.478 156.644 105.478H154.142C153.554 105.478 153.26 105.628 153.26 105.928V106.018C153.26 106.282 153.518 106.552 154.034 106.828L155.852 107.908C156.476 108.244 156.914 108.592 157.166 108.952C157.418 109.3 157.544 109.762 157.544 110.338C157.544 111.946 156.602 112.75 154.718 112.75ZM159.334 105.55H158.614C158.47 105.55 158.368 105.526 158.308 105.478C158.26 105.43 158.236 105.334 158.236 105.19V103.948C158.236 103.696 158.362 103.57 158.614 103.57H159.334C159.466 103.57 159.532 103.504 159.532 103.372V101.662C159.532 101.41 159.664 101.284 159.928 101.284H161.44C161.692 101.284 161.818 101.41 161.818 101.662V103.372C161.818 103.504 161.89 103.57 162.034 103.57H163.438C163.69 103.57 163.816 103.696 163.816 103.948V105.19C163.816 105.322 163.786 105.418 163.726 105.478C163.678 105.526 163.582 105.55 163.438 105.55H162.034C161.89 105.55 161.818 105.616 161.818 105.748V109.726C161.818 110.098 161.902 110.368 162.07 110.536C162.238 110.692 162.514 110.77 162.898 110.77H163.618C163.87 110.77 163.996 110.896 163.996 111.148V112.39C163.996 112.522 163.966 112.618 163.906 112.678C163.858 112.726 163.762 112.75 163.618 112.75H162.52C161.572 112.75 160.834 112.498 160.306 111.994C159.79 111.49 159.532 110.77 159.532 109.834V105.748C159.532 105.616 159.466 105.55 159.334 105.55ZM169.635 105.55H168.915C168.771 105.55 168.669 105.526 168.609 105.478C168.561 105.43 168.537 105.334 168.537 105.19V103.948C168.537 103.696 168.663 103.57 168.915 103.57H169.635C169.767 103.57 169.833 103.504 169.833 103.372V101.662C169.833 101.41 169.965 101.284 170.229 101.284H171.741C171.993 101.284 172.119 101.41 172.119 101.662V103.372C172.119 103.504 172.191 103.57 172.335 103.57H173.739C173.991 103.57 174.117 103.696 174.117 103.948V105.19C174.117 105.322 174.087 105.418 174.027 105.478C173.979 105.526 173.883 105.55 173.739 105.55H172.335C172.191 105.55 172.119 105.616 172.119 105.748V109.726C172.119 110.098 172.203 110.368 172.371 110.536C172.539 110.692 172.815 110.77 173.199 110.77H173.919C174.171 110.77 174.297 110.896 174.297 111.148V112.39C174.297 112.522 174.267 112.618 174.207 112.678C174.159 112.726 174.063 112.75 173.919 112.75H172.821C171.873 112.75 171.135 112.498 170.607 111.994C170.091 111.49 169.833 110.77 169.833 109.834V105.748C169.833 105.616 169.767 105.55 169.635 105.55ZM175.873 102.022V100.456C175.873 100.216 175.993 100.096 176.233 100.096H177.799C178.039 100.096 178.159 100.21 178.159 100.438V102.022C178.159 102.262 178.039 102.382 177.799 102.382H176.233C175.993 102.382 175.873 102.262 175.873 102.022ZM175.873 112.372V103.948C175.873 103.696 175.993 103.57 176.233 103.57H177.781C178.033 103.57 178.159 103.696 178.159 103.948V112.372C178.159 112.528 178.129 112.63 178.069 112.678C178.021 112.726 177.931 112.75 177.799 112.75H176.251C175.999 112.75 175.873 112.624 175.873 112.372ZM186.08 111.148V112.39C186.08 112.522 186.05 112.618 185.99 112.678C185.942 112.726 185.846 112.75 185.702 112.75H183.02C182.072 112.75 181.34 112.498 180.824 111.994C180.308 111.49 180.05 110.764 180.05 109.816V106.504C180.05 105.556 180.308 104.83 180.824 104.326C181.34 103.822 182.072 103.57 183.02 103.57H185.702C185.954 103.57 186.08 103.696 186.08 103.948V105.19C186.08 105.322 186.05 105.418 185.99 105.478C185.942 105.526 185.846 105.55 185.702 105.55H183.38C183.008 105.55 182.738 105.634 182.57 105.802C182.414 105.958 182.336 106.228 182.336 106.612V109.708C182.336 110.092 182.414 110.368 182.57 110.536C182.738 110.692 183.008 110.77 183.38 110.77H185.702C185.954 110.77 186.08 110.896 186.08 111.148ZM192.887 103.57H194.633C194.777 103.57 194.873 103.612 194.921 103.696C194.969 103.78 194.951 103.888 194.867 104.02L192.473 107.962V108.034L194.975 112.3C195.047 112.42 195.053 112.528 194.993 112.624C194.933 112.708 194.825 112.75 194.669 112.75H193.121C192.917 112.75 192.767 112.726 192.671 112.678C192.587 112.63 192.497 112.528 192.401 112.372L190.115 108.358C190.007 108.166 190.007 107.968 190.115 107.764L192.275 103.93C192.407 103.69 192.611 103.57 192.887 103.57ZM189.539 112.75H188.009C187.757 112.75 187.631 112.624 187.631 112.372V100.474C187.631 100.222 187.757 100.096 188.009 100.096H189.539C189.791 100.096 189.917 100.222 189.917 100.474V112.372C189.917 112.624 189.791 112.75 189.539 112.75ZM202.889 112.75H198.911C197.963 112.75 197.231 112.498 196.715 111.994C196.199 111.49 195.941 110.764 195.941 109.816V106.504C195.941 105.556 196.199 104.83 196.715 104.326C197.231 103.822 197.963 103.57 198.911 103.57H200.333C201.281 103.57 202.013 103.822 202.529 104.326C203.045 104.83 203.303 105.556 203.303 106.504V108.79C203.303 109.042 203.177 109.168 202.925 109.168H198.407C198.263 109.168 198.191 109.234 198.191 109.366V109.762C198.191 110.134 198.269 110.404 198.425 110.572C198.593 110.728 198.869 110.806 199.253 110.806H202.889C203.141 110.806 203.267 110.938 203.267 111.202V112.39C203.267 112.522 203.237 112.618 203.177 112.678C203.129 112.726 203.033 112.75 202.889 112.75ZM198.407 107.638H200.855C200.987 107.638 201.053 107.572 201.053 107.44V106.576C201.053 106.192 200.975 105.922 200.819 105.766C200.663 105.61 200.393 105.532 200.009 105.532H199.253C198.869 105.532 198.599 105.61 198.443 105.766C198.287 105.922 198.209 106.192 198.209 106.576V107.44C198.209 107.572 198.275 107.638 198.407 107.638ZM205.213 105.55H204.493C204.349 105.55 204.247 105.526 204.187 105.478C204.139 105.43 204.115 105.334 204.115 105.19V103.948C204.115 103.696 204.241 103.57 204.493 103.57H205.213C205.345 103.57 205.411 103.504 205.411 103.372V101.662C205.411 101.41 205.543 101.284 205.807 101.284H207.319C207.571 101.284 207.697 101.41 207.697 101.662V103.372C207.697 103.504 207.769 103.57 207.913 103.57H209.317C209.569 103.57 209.695 103.696 209.695 103.948V105.19C209.695 105.322 209.665 105.418 209.605 105.478C209.557 105.526 209.461 105.55 209.317 105.55H207.913C207.769 105.55 207.697 105.616 207.697 105.748V109.726C207.697 110.098 207.781 110.368 207.949 110.536C208.117 110.692 208.393 110.77 208.777 110.77H209.497C209.749 110.77 209.875 110.896 209.875 111.148V112.39C209.875 112.522 209.845 112.618 209.785 112.678C209.737 112.726 209.641 112.75 209.497 112.75H208.399C207.451 112.75 206.713 112.498 206.185 111.994C205.669 111.49 205.411 110.77 205.411 109.834V105.748C205.411 105.616 205.345 105.55 205.213 105.55ZM217.8 110.77H219.636C220.02 110.77 220.29 110.692 220.446 110.536C220.614 110.368 220.698 110.092 220.698 109.708V106.576C220.698 106.192 220.614 105.922 220.446 105.766C220.29 105.598 220.02 105.514 219.636 105.514H218.844C218.016 105.514 217.602 105.97 217.602 106.882V110.572C217.602 110.704 217.668 110.77 217.8 110.77ZM215.316 112.372V100.474C215.316 100.222 215.442 100.096 215.694 100.096H217.224C217.476 100.096 217.602 100.222 217.602 100.474V104.524H217.674C217.806 104.2 218.04 103.954 218.376 103.786C218.712 103.618 219.066 103.534 219.438 103.534H220.014C220.962 103.534 221.694 103.786 222.21 104.29C222.726 104.794 222.984 105.52 222.984 106.468V109.816C222.984 110.764 222.726 111.49 222.21 111.994C221.694 112.498 220.962 112.75 220.014 112.75H215.694C215.442 112.75 215.316 112.624 215.316 112.372ZM226.285 115.792H225.133C224.893 115.792 224.773 115.66 224.773 115.396V114.19C224.773 113.926 224.893 113.794 225.133 113.794H225.511C226.267 113.794 226.777 113.686 227.041 113.47C227.317 113.266 227.527 112.864 227.671 112.264H226.717C226.489 112.264 226.339 112.138 226.267 111.886L224.161 103.948C224.089 103.696 224.179 103.57 224.431 103.57H226.033C226.273 103.57 226.423 103.696 226.483 103.948L228.031 110.59H228.103L229.633 103.948C229.681 103.696 229.831 103.57 230.083 103.57H231.595C231.895 103.57 232.015 103.702 231.955 103.966L229.759 112.75C229.495 113.746 229.087 114.502 228.535 115.018C227.983 115.534 227.233 115.792 226.285 115.792ZM240.693 112.75H237.273C237.033 112.75 236.913 112.624 236.913 112.372V111.22C236.913 111.088 236.937 110.998 236.985 110.95C237.033 110.89 237.129 110.86 237.273 110.86H240.279C240.867 110.86 241.161 110.68 241.161 110.32V110.23C241.161 109.942 240.915 109.666 240.423 109.402L238.641 108.412C238.029 108.1 237.579 107.764 237.291 107.404C237.003 107.044 236.859 106.582 236.859 106.018C236.859 105.178 237.081 104.56 237.525 104.164C237.969 103.768 238.665 103.57 239.613 103.57H242.619C242.859 103.57 242.979 103.696 242.979 103.948V105.118C242.979 105.25 242.955 105.346 242.907 105.406C242.859 105.454 242.763 105.478 242.619 105.478H240.117C239.529 105.478 239.235 105.628 239.235 105.928V106.018C239.235 106.282 239.493 106.552 240.009 106.828L241.827 107.908C242.451 108.244 242.889 108.592 243.141 108.952C243.393 109.3 243.519 109.762 243.519 110.338C243.519 111.946 242.577 112.75 240.693 112.75ZM248.333 112.75H247.901C246.953 112.75 246.221 112.498 245.705 111.994C245.189 111.49 244.931 110.764 244.931 109.816V106.504C244.931 105.556 245.189 104.83 245.705 104.326C246.221 103.822 246.953 103.57 247.901 103.57H252.059C252.323 103.57 252.455 103.696 252.455 103.948V112.372C252.455 112.624 252.323 112.75 252.059 112.75H250.547C250.295 112.75 250.169 112.624 250.169 112.372V111.778H250.097C249.965 112.102 249.731 112.348 249.395 112.516C249.059 112.672 248.705 112.75 248.333 112.75ZM250.169 109.402V105.748C250.169 105.616 250.097 105.55 249.953 105.55H248.261C247.877 105.55 247.607 105.634 247.451 105.802C247.295 105.958 247.217 106.228 247.217 106.612V109.708C247.217 110.092 247.295 110.368 247.451 110.536C247.607 110.692 247.877 110.77 248.261 110.77H248.927C249.755 110.77 250.169 110.314 250.169 109.402ZM254.031 103.57H255.616C255.856 103.57 256 103.696 256.048 103.948L257.596 110.716H257.722L259.234 103.948C259.282 103.696 259.432 103.57 259.684 103.57H261.268C261.52 103.57 261.61 103.696 261.538 103.948L259.27 112.354C259.222 112.618 259.06 112.75 258.784 112.75H256.498C256.246 112.75 256.084 112.618 256.012 112.354L253.762 103.948C253.69 103.696 253.78 103.57 254.031 103.57ZM262.937 102.022V100.456C262.937 100.216 263.057 100.096 263.297 100.096H264.863C265.103 100.096 265.223 100.21 265.223 100.438V102.022C265.223 102.262 265.103 102.382 264.863 102.382H263.297C263.057 102.382 262.937 102.262 262.937 102.022ZM262.937 112.372V103.948C262.937 103.696 263.057 103.57 263.297 103.57H264.845C265.097 103.57 265.223 103.696 265.223 103.948V112.372C265.223 112.528 265.193 112.63 265.133 112.678C265.085 112.726 264.995 112.75 264.863 112.75H263.315C263.063 112.75 262.937 112.624 262.937 112.372ZM269.203 112.75H267.673C267.421 112.75 267.295 112.624 267.295 112.372V103.948C267.295 103.696 267.421 103.57 267.673 103.57H269.203C269.455 103.57 269.581 103.696 269.581 103.948V104.542H269.653C269.917 103.894 270.505 103.57 271.417 103.57H271.993C273.877 103.57 274.819 104.548 274.819 106.504V112.372C274.819 112.624 274.687 112.75 274.423 112.75H272.911C272.659 112.75 272.533 112.624 272.533 112.372V106.612C272.533 106.228 272.449 105.958 272.281 105.802C272.125 105.634 271.855 105.55 271.471 105.55H270.823C269.995 105.55 269.581 106.006 269.581 106.918V112.372C269.581 112.624 269.455 112.75 269.203 112.75ZM279.957 112.336H279.363C278.439 112.336 277.737 112.084 277.257 111.58C276.789 111.076 276.555 110.35 276.555 109.402V106.504C276.555 105.556 276.813 104.83 277.329 104.326C277.845 103.822 278.577 103.57 279.525 103.57H283.683C283.947 103.57 284.079 103.696 284.079 103.948V112.822C284.079 113.758 283.815 114.478 283.287 114.982C282.771 115.486 282.045 115.738 281.109 115.738H277.653C277.509 115.738 277.407 115.708 277.347 115.648C277.299 115.6 277.275 115.51 277.275 115.378V114.136C277.275 113.884 277.401 113.758 277.653 113.758H280.731C281.115 113.758 281.385 113.674 281.541 113.506C281.709 113.35 281.793 113.086 281.793 112.714V111.346H281.721C281.589 111.67 281.355 111.916 281.019 112.084C280.683 112.252 280.329 112.336 279.957 112.336ZM281.793 108.988V105.748C281.793 105.616 281.721 105.55 281.577 105.55H279.885C279.501 105.55 279.231 105.634 279.075 105.802C278.919 105.958 278.841 106.228 278.841 106.612V109.294C278.841 109.678 278.919 109.948 279.075 110.104C279.231 110.26 279.501 110.338 279.885 110.338H280.551C281.379 110.338 281.793 109.888 281.793 108.988ZM120.444 126.408V126.48C120.696 126.612 120.822 126.852 120.822 127.2V127.308H122.442C122.73 127.308 122.874 127.446 122.874 127.722V128.748C122.874 129.036 122.73 129.18 122.442 129.18H120.822V129.252C120.822 130.152 120.54 130.866 119.976 131.394C119.412 131.91 118.656 132.168 117.708 132.168H117.582L120.156 134.976C120.264 135.108 120.318 135.234 120.318 135.354C120.318 135.618 120.192 135.75 119.94 135.75H118.464C118.368 135.75 118.242 135.672 118.086 135.516L115.782 132.762L115.17 132.15V130.854C115.17 130.698 115.218 130.572 115.314 130.476C115.422 130.38 115.554 130.332 115.71 130.332H117.366C118.242 130.332 118.68 129.978 118.68 129.27V129.18H115.602C115.314 129.18 115.17 129.036 115.17 128.748V127.704C115.17 127.44 115.314 127.308 115.602 127.308H118.68V127.11C118.68 126.642 118.386 126.408 117.798 126.408H115.602C115.314 126.408 115.17 126.264 115.17 125.976V124.932C115.17 124.668 115.314 124.536 115.602 124.536H122.442C122.73 124.536 122.874 124.674 122.874 124.95V125.976C122.874 126.264 122.73 126.408 122.442 126.408H120.444ZM128.643 129.864H127.797C127.485 129.864 127.245 129.99 127.077 130.242C126.921 130.494 126.753 130.62 126.573 130.62H125.079C124.827 130.62 124.701 130.5 124.701 130.26V124.554C124.701 124.302 124.827 124.176 125.079 124.176H131.343C131.595 124.176 131.721 124.302 131.721 124.554V125.922C131.721 126.174 131.595 126.3 131.343 126.3H126.987V128.946C127.191 128.346 127.695 128.046 128.499 128.046H129.255C131.115 128.046 132.045 128.976 132.045 130.836V132.816C132.045 133.752 131.787 134.478 131.271 134.994C130.755 135.498 130.029 135.75 129.093 135.75H127.509C126.561 135.75 125.829 135.498 125.313 134.994C124.797 134.49 124.539 133.764 124.539 132.816V132.456C124.539 132.192 124.665 132.06 124.917 132.06H126.447C126.699 132.06 126.825 132.192 126.825 132.456V132.798C126.825 133.17 126.903 133.44 127.059 133.608C127.227 133.764 127.497 133.842 127.869 133.842H128.715C129.099 133.842 129.381 133.764 129.561 133.608C129.741 133.44 129.831 133.17 129.831 132.798V131.178C129.831 130.674 129.747 130.332 129.579 130.152C129.411 129.96 129.099 129.864 128.643 129.864ZM137.136 133.77H138.198C138.582 133.77 138.852 133.692 139.008 133.536C139.164 133.368 139.242 133.092 139.242 132.708V127.218C139.242 126.834 139.164 126.564 139.008 126.408C138.852 126.24 138.582 126.156 138.198 126.156H137.136C136.752 126.156 136.482 126.24 136.326 126.408C136.17 126.564 136.092 126.834 136.092 127.218V132.708C136.092 133.092 136.17 133.368 136.326 133.536C136.482 133.692 136.752 133.77 137.136 133.77ZM138.558 135.75H136.758C135.81 135.75 135.078 135.498 134.562 134.994C134.046 134.49 133.788 133.764 133.788 132.816V127.11C133.788 126.162 134.046 125.436 134.562 124.932C135.078 124.428 135.81 124.176 136.758 124.176H138.558C139.494 124.176 140.22 124.434 140.736 124.95C141.252 125.454 141.51 126.174 141.51 127.11V132.816C141.51 133.752 141.252 134.478 140.736 134.994C140.22 135.498 139.494 135.75 138.558 135.75ZM146.786 133.77H147.848C148.232 133.77 148.502 133.692 148.658 133.536C148.814 133.368 148.892 133.092 148.892 132.708V127.218C148.892 126.834 148.814 126.564 148.658 126.408C148.502 126.24 148.232 126.156 147.848 126.156H146.786C146.402 126.156 146.132 126.24 145.976 126.408C145.82 126.564 145.742 126.834 145.742 127.218V132.708C145.742 133.092 145.82 133.368 145.976 133.536C146.132 133.692 146.402 133.77 146.786 133.77ZM148.208 135.75H146.408C145.46 135.75 144.728 135.498 144.212 134.994C143.696 134.49 143.438 133.764 143.438 132.816V127.11C143.438 126.162 143.696 125.436 144.212 124.932C144.728 124.428 145.46 124.176 146.408 124.176H148.208C149.144 124.176 149.87 124.434 150.386 124.95C150.902 125.454 151.16 126.174 151.16 127.11V132.816C151.16 133.752 150.902 134.478 150.386 134.994C149.87 135.498 149.144 135.75 148.208 135.75ZM161.472 135.75H159.87C158.922 135.75 158.19 135.498 157.674 134.994C157.158 134.49 156.9 133.764 156.9 132.816V129.504C156.9 128.556 157.158 127.83 157.674 127.326C158.19 126.822 158.922 126.57 159.87 126.57H161.472C162.408 126.57 163.134 126.828 163.65 127.344C164.178 127.848 164.442 128.568 164.442 129.504V132.816C164.442 133.752 164.178 134.478 163.65 134.994C163.134 135.498 162.408 135.75 161.472 135.75ZM160.212 133.788H161.13C161.514 133.788 161.784 133.71 161.94 133.554C162.108 133.398 162.192 133.128 162.192 132.744V129.576C162.192 129.192 162.108 128.922 161.94 128.766C161.784 128.61 161.514 128.532 161.13 128.532H160.212C159.828 128.532 159.558 128.61 159.402 128.766C159.246 128.922 159.168 129.192 159.168 129.576V132.744C159.168 133.128 159.246 133.398 159.402 133.554C159.558 133.71 159.828 133.788 160.212 133.788ZM168.146 135.75H166.616C166.364 135.75 166.238 135.624 166.238 135.372V126.948C166.238 126.696 166.364 126.57 166.616 126.57H168.146C168.398 126.57 168.524 126.696 168.524 126.948V127.542H168.596C168.86 126.894 169.448 126.57 170.36 126.57H170.936C172.82 126.57 173.762 127.548 173.762 129.504V135.372C173.762 135.624 173.63 135.75 173.366 135.75H171.854C171.602 135.75 171.476 135.624 171.476 135.372V129.612C171.476 129.228 171.392 128.958 171.224 128.802C171.068 128.634 170.798 128.55 170.414 128.55H169.766C168.938 128.55 168.524 129.006 168.524 129.918V135.372C168.524 135.624 168.398 135.75 168.146 135.75ZM181.703 135.75H180.173C179.921 135.75 179.795 135.624 179.795 135.372V124.554C179.795 124.302 179.921 124.176 180.173 124.176H185.915C186.155 124.176 186.275 124.302 186.275 124.554V125.778C186.275 126.03 186.155 126.156 185.915 126.156H182.297C182.153 126.156 182.081 126.222 182.081 126.354V129.144C182.081 129.288 182.153 129.36 182.297 129.36H185.375C185.627 129.36 185.753 129.486 185.753 129.738V130.944C185.753 131.208 185.627 131.34 185.375 131.34H182.297C182.153 131.34 182.081 131.406 182.081 131.538V135.372C182.081 135.624 181.955 135.75 181.703 135.75ZM194.487 135.75H190.509C189.561 135.75 188.829 135.498 188.313 134.994C187.797 134.49 187.539 133.764 187.539 132.816V129.504C187.539 128.556 187.797 127.83 188.313 127.326C188.829 126.822 189.561 126.57 190.509 126.57H191.931C192.879 126.57 193.611 126.822 194.127 127.326C194.643 127.83 194.901 128.556 194.901 129.504V131.79C194.901 132.042 194.775 132.168 194.523 132.168H190.005C189.861 132.168 189.789 132.234 189.789 132.366V132.762C189.789 133.134 189.867 133.404 190.023 133.572C190.191 133.728 190.467 133.806 190.851 133.806H194.487C194.739 133.806 194.865 133.938 194.865 134.202V135.39C194.865 135.522 194.835 135.618 194.775 135.678C194.727 135.726 194.631 135.75 194.487 135.75ZM190.005 130.638H192.453C192.585 130.638 192.651 130.572 192.651 130.44V129.576C192.651 129.192 192.573 128.922 192.417 128.766C192.261 128.61 191.991 128.532 191.607 128.532H190.851C190.467 128.532 190.197 128.61 190.041 128.766C189.885 128.922 189.807 129.192 189.807 129.576V130.44C189.807 130.572 189.873 130.638 190.005 130.638ZM198.611 135.75H197.081C196.829 135.75 196.703 135.624 196.703 135.372V123.474C196.703 123.222 196.829 123.096 197.081 123.096H198.611C198.863 123.096 198.989 123.222 198.989 123.474V135.372C198.989 135.624 198.863 135.75 198.611 135.75ZM203.058 135.75H201.528C201.276 135.75 201.15 135.624 201.15 135.372V123.474C201.15 123.222 201.276 123.096 201.528 123.096H203.058C203.31 123.096 203.436 123.222 203.436 123.474V135.372C203.436 135.624 203.31 135.75 203.058 135.75ZM209.9 135.75H208.298C207.35 135.75 206.618 135.498 206.102 134.994C205.586 134.49 205.328 133.764 205.328 132.816V129.504C205.328 128.556 205.586 127.83 206.102 127.326C206.618 126.822 207.35 126.57 208.298 126.57H209.9C210.836 126.57 211.562 126.828 212.078 127.344C212.606 127.848 212.87 128.568 212.87 129.504V132.816C212.87 133.752 212.606 134.478 212.078 134.994C211.562 135.498 210.836 135.75 209.9 135.75ZM208.64 133.788H209.558C209.942 133.788 210.212 133.71 210.368 133.554C210.536 133.398 210.62 133.128 210.62 132.744V129.576C210.62 129.192 210.536 128.922 210.368 128.766C210.212 128.61 209.942 128.532 209.558 128.532H208.64C208.256 128.532 207.986 128.61 207.83 128.766C207.674 128.922 207.596 129.192 207.596 129.576V132.744C207.596 133.128 207.674 133.398 207.83 133.554C207.986 133.71 208.256 133.788 208.64 133.788Z"
        fill="white" />
    <defs>
        <filter id="filter0_b_47_2349" x="-3" y="-2.69531" width="334" height="196"
            filterUnits="userSpaceOnUse" color-interpolation-filters="sRGB">
            <feFlood flood-opacity="0" result="BackgroundImageFix" />
            <feGaussianBlur in="BackgroundImageFix" stdDeviation="1.5" />
            <feComposite in2="SourceAlpha" operator="in" result="effect1_backgroundBlur_47_2349" />
            <feBlend mode="normal" in="SourceGraphic" in2="effect1_backgroundBlur_47_2349"
                result="shape" />
        </filter>
    </defs>
</svg>
