<svg width="141" height="132" viewBox="0 0 141 132" fill="none" xmlns="http://www.w3.org/2000/svg">
<path d="M19.1041 104.264L17.249 86.3477L52.6292 109.375H78.0553L110.001 89.1302V101.444L91.7463 118.347L82.6189 131.408H52.6292L29.8109 118.347V112.545L19.1041 104.264Z" fill="#1B262C"/>
<path d="M52.9757 111.391L17.249 86.3478L22.7454 75.5268L57.098 57.5947L75.6484 58.9741L110.001 81.0443L113.495 91.1402L75.6484 111.391H52.9757Z" fill="#1ADAB7"/>
<path d="M75.6826 131.332V111.39L113.495 90.8223L110.001 101.188L91.9142 118.347L82.639 131.332H75.6826Z" fill="#2A6C60"/>
<circle opacity="0.4" cx="4.77313" cy="77.4391" r="3.5329" fill="#1ADAB7"/>
<circle opacity="0.3" cx="127.247" cy="65.6638" r="3.5329" fill="#1ADAB7"/>
<circle opacity="0.4" cx="2.81034" cy="31.5115" r="2.35527" fill="#1ADAB7"/>
<circle opacity="0.4" cx="44.4197" cy="3.24882" r="2.35527" fill="#BEF9D8"/>
<circle opacity="0.4" cx="36.5691" cy="46.4285" r="2.35527" fill="#BEF9D8"/>
<circle opacity="0.4" cx="138.631" cy="14.24" r="2.35527" fill="#BEF9D8"/>
<circle opacity="0.4" cx="99.3768" cy="18.9501" r="1.57018" fill="white"/>
<rect opacity="0.91" width="53.6658" height="11.5426" rx="5.77131" transform="matrix(-0.866025 -0.5 -0.866025 0.5 94.1719 95.0361)" fill="#1B262C"/>
<path d="M43.6994 73.5215H43.6995V73.5187V27.1348H49.0268V73.2941V73.3065L49.0289 73.3187C49.0979 73.7112 48.8737 74.1572 48.2639 74.5093C47.734 74.8152 47.0364 74.975 46.3351 74.9799C45.6335 74.9848 44.9436 74.8347 44.4283 74.5373C43.9132 74.2399 43.6925 73.8673 43.6994 73.5215Z" fill="#BEF9D8" stroke="black" stroke-width="0.283331"/>
<rect x="-0.205212" y="-0.355437" width="44.2454" height="28.2502" rx="1.37028" transform="matrix(0.866025 0.5 -2.20305e-08 1 47.2801 30.1143)" fill="#F4F1EC" stroke="black" stroke-width="0.473916"/>
<rect width="8.10794" height="6.94407" transform="matrix(0.866025 0.5 -2.20305e-08 1 51.5205 32.4448)" fill="#3D3D3D"/>
<rect width="8.10794" height="6.94407" transform="matrix(0.866025 0.5 -2.20305e-08 1 51.5205 46.3315)" fill="#3D3D3D"/>
<rect width="8.54392" height="6.94407" transform="matrix(0.866025 0.5 -2.20305e-08 1 64.1602 39.7427)" fill="#3D3D3D"/>
<rect width="8.64355" height="6.94407" transform="matrix(0.866025 0.5 -2.20305e-08 1 64.1602 53.6313)" fill="#3D3D3D"/>
<rect width="8.00894" height="6.94407" transform="matrix(0.866025 0.5 -2.20305e-08 1 78.2891 47.8999)" fill="#3D3D3D"/>
<rect width="7.71005" height="6.94407" transform="matrix(0.866025 0.5 -2.20305e-08 1 78.5479 61.9375)" fill="#3D3D3D"/>
<rect width="6.48635" height="6.94407" transform="matrix(0.866025 0.5 -2.20305e-08 1 58.542 43.4434)" fill="#3D3D3D"/>
<rect width="6.48635" height="6.94407" transform="matrix(0.866025 0.5 -2.20305e-08 1 58.542 57.3306)" fill="#3D3D3D"/>
<rect width="4.85324" height="6.94407" transform="matrix(0.866025 0.5 -2.20305e-08 1 47.3174 36.9614)" fill="#3D3D3D"/>
<path d="M47.3076 50.8452L51.5206 53.2776L51.5206 60.2217L48.2891 58.3559C47.747 58.043 47.3076 57.2819 47.3076 56.656L47.3076 50.8452Z" fill="#3D3D3D"/>
<rect width="7.97049" height="6.94407" transform="matrix(0.866025 0.5 -2.20305e-08 1 71.4727 50.9082)" fill="#3D3D3D"/>
<rect width="8.10794" height="6.94407" transform="matrix(0.866025 0.5 -2.20305e-08 1 71.5508 64.7495)" fill="#3D3D3D"/>
<path d="M84.843 96.2022H84.843V96.1993V49.8155H90.1704V95.9748V95.9872L90.1725 95.9993C90.2414 96.3918 90.0173 96.8379 89.4074 97.19C88.8776 97.4959 88.18 97.6556 87.4786 97.6605C86.777 97.6655 86.0871 97.5154 85.5719 97.2179C85.0568 96.9205 84.8361 96.548 84.843 96.2022Z" fill="#BEF9D8" stroke="black" stroke-width="0.283331"/>
<path d="M48.2873 28.1404C47.7628 28.4432 47.0665 28.5986 46.3626 28.5986C45.6586 28.5986 44.9623 28.4432 44.4378 28.1404C43.9126 27.8371 43.6819 27.4593 43.6819 27.1105C43.6819 26.7616 43.9126 26.3838 44.4378 26.0805C44.9623 25.7777 45.6586 25.6223 46.3626 25.6223C47.0665 25.6223 47.7628 25.7777 48.2873 26.0805C48.8126 26.3838 49.0433 26.7616 49.0433 27.1105C49.0433 27.4593 48.8126 27.8371 48.2873 28.1404ZM89.4307 50.8216C88.9062 51.1244 88.2099 51.2799 87.506 51.2799C86.802 51.2799 86.1058 51.1244 85.5813 50.8216C85.056 50.5183 84.8253 50.1405 84.8253 49.7917C84.8253 49.4428 85.056 49.065 85.5813 48.7618C86.1058 48.4589 86.802 48.3035 87.506 48.3035C88.2099 48.3035 88.9062 48.4589 89.4307 48.7618C89.956 49.065 90.1867 49.4428 90.1867 49.7917C90.1867 50.1405 89.956 50.5183 89.4307 50.8216Z" fill="#EFEFEF" stroke="black" stroke-width="0.281686"/>
</svg>
