<svg width="29" height="28" viewBox="0 0 29 28" fill="none" xmlns="http://www.w3.org/2000/svg">
<path d="M10.2543 0.873173L11.8798 6.46562L15.9167 5.45752L10.6637 0.619505C10.4775 0.448018 10.1836 0.630099 10.2543 0.873173Z" fill="#3EA59E"/>
<path d="M7.82812 7.74221L9.78167 0.843838C9.85023 0.601765 10.1931 0.601172 10.2625 0.843008L11.8843 6.49525L7.82812 7.74221Z" fill="#09454A"/>
<path d="M26.5673 16.8098L20.8965 15.3323L19.7396 19.4277L26.5788 17.2904C26.8187 17.2154 26.8104 16.8732 26.5673 16.8098Z" fill="#CEF8F5"/>
<path d="M21.8048 11.2806L26.7863 16.4052C26.9629 16.5869 26.7883 16.8858 26.5433 16.8213L20.8916 15.3323L21.8048 11.2806Z" fill="#81D9CA"/>
<path d="M5.26504 22.6562L8.94217 18.6435L12.4387 21.1845L5.51492 23.0663C5.27318 23.132 5.09579 22.8409 5.26504 22.6562Z" fill="#81D9CA"/>
<path d="M6.31387 15.4295L4.87485 22.4222C4.82367 22.6709 5.1329 22.8287 5.30423 22.6413L9.20931 18.3697L6.31387 15.4295Z" fill="#09454A"/>
<path d="M22.8542 3.67337L11.873 6.46995L13.7203 13.6395L23.0756 4.05693C23.2379 3.89067 23.0794 3.61603 22.8542 3.67337Z" fill="#094549"/>
<path d="M13.6914 13.576L23.0181 4.1021C23.1951 3.92233 23.4967 4.08807 23.4399 4.33385L20.8901 15.3528L13.6914 13.576Z" fill="#3EA49E"/>
<path d="M1.10949 9.76118L11.8842 6.46962L13.7013 13.5694L1.11862 10.242C0.87534 10.1776 0.86883 9.8347 1.10949 9.76118Z" fill="#CEF8F5"/>
<path d="M13.7276 13.577L1.15902 10.2479C0.913015 10.1827 0.738312 10.4839 0.917026 10.6651L8.87526 18.7332L13.7276 13.577Z" fill="#3DA49D"/>
<path d="M16.9802 26.4956L8.86992 18.7325L13.704 13.569L17.3931 26.2451C17.4646 26.4906 17.1649 26.6724 16.9802 26.4956Z" fill="#09454A"/>
<path d="M13.7008 13.5667L17.3998 26.2892C17.4702 26.5312 17.814 26.5288 17.8809 26.2857L20.8975 15.329L13.7008 13.5667Z" fill="#81D9CA"/>
<path d="M15.656 5.24982L10.6313 0.611546C10.3584 0.359566 9.91566 0.482723 9.81203 0.839469L7.89737 7.43093C7.85036 7.59277 7.72498 7.72003 7.56387 7.76946L1.0455 9.7694C0.688142 9.87904 0.573067 10.3277 0.833543 10.5958L5.95073 15.8628C6.06479 15.9802 6.11416 16.146 6.08292 16.3066L4.88357 22.4745C4.81281 22.8385 5.14886 23.1502 5.50645 23.0522L11.3557 21.4503C11.5256 21.4038 11.7075 21.4501 11.8344 21.5722L17.0307 26.5706C17.3052 26.8346 17.7623 26.7071 17.8605 26.3391L19.6321 19.6956C19.6764 19.5294 19.803 19.3976 19.9673 19.3468L26.6116 17.2901C26.9691 17.1794 27.0828 16.7297 26.8208 16.4624L21.9942 11.5393C21.8742 11.4169 21.8253 11.2417 21.8645 11.0748L23.4597 4.29127C23.5453 3.92707 23.2153 3.60127 22.8523 3.6916L16.1158 5.36763C15.9525 5.40827 15.7797 5.36399 15.656 5.24982Z" stroke="black" stroke-width="0.25"/>
<path d="M0.777344 10.0561L13.415 13.4903C13.5888 13.5375 13.7746 13.4876 13.9014 13.3596L23.2917 3.87756" stroke="black" stroke-width="0.25"/>
<path d="M10.1504 0.569092L17.4937 26.6039" stroke="black" stroke-width="0.25"/>
<path d="M5.13086 22.923L13.6162 13.6662C13.7418 13.5291 13.9332 13.4731 14.1129 13.5207L26.987 16.9323" stroke="black" stroke-width="0.25"/>
<path d="M5.99223 15.9666L12.0443 21.7583" stroke="black" stroke-width="0.25"/>
<path d="M21.9141 10.9003L19.5484 20.0263" stroke="black" stroke-width="0.25"/>
<path d="M7.59202 7.76252L16.0587 5.3831" stroke="black" stroke-width="0.25"/>
</svg>
