<svg width="273" height="220" viewBox="0 0 273 220" fill="none" xmlns="http://www.w3.org/2000/svg">
<path d="M309.823 20.6211V87.6924L89.5225 207.284C87.0977 208.6 84.1454 208.476 81.8401 206.96L71.8906 200.418" stroke="url(#paint0_linear_806_1225)" stroke-width="1.13624"/>
<path d="M310.026 80.2863L98.8014 193.607L91.5938 184.998L310.026 67.4727V80.2863Z" fill="url(#paint1_linear_806_1225)"/>
<path d="M90.7836 185.59L310.434 67.8722V0L22.5275 149.959L22.7201 150.067C19.3417 152.099 14.3158 156.175 14.3164 163.574C14.3169 169.981 20.7232 173.385 20.7232 173.385L81.324 207.059L82.6634 207.495C83.4423 207.958 84.4278 208.301 85.6789 208.477L82.6634 207.495C80.7312 206.348 80.0714 204.471 79.786 202.616C78.9487 196.057 83.9775 189.68 88.7295 186.691L90.6498 185.662C90.6992 185.64 90.7485 185.619 90.7977 185.598L90.7836 185.59Z" fill="url(#paint2_radial_806_1225)"/>
<g opacity="0.5" filter="url(#filter0_f_806_1225)">
<circle cx="97.627" cy="122.564" r="35.2988" fill="#62E3C4"/>
</g>
<circle opacity="0.6" cx="7.6623" cy="7.6623" r="7.6623" transform="matrix(0.866025 0.5 -0.866025 0.5 98.4888 139.54)" fill="#1A1A1A"/>
<path d="M89.7563 84.1441L93.1894 95.9556L101.716 93.8265L90.621 83.6084C90.2278 83.2462 89.6071 83.6307 89.7563 84.1441Z" fill="#3EA59E"/>
<path d="M84.6328 98.6517L88.7588 84.082C88.9036 83.5708 89.6278 83.5695 89.7744 84.0803L93.1996 96.0181L84.6328 98.6517Z" fill="#09454A"/>
<path d="M124.206 117.802L112.229 114.682L109.786 123.331L124.231 118.817C124.737 118.659 124.72 117.936 124.206 117.802Z" fill="#CEF8F5"/>
<path d="M114.149 106.125L124.67 116.948C125.043 117.332 124.674 117.963 124.157 117.827L112.22 114.682L114.149 106.125Z" fill="#81D9CA"/>
<path d="M79.2219 130.151L86.9882 121.676L94.3729 127.042L79.7497 131.017C79.2391 131.156 78.8644 130.541 79.2219 130.151Z" fill="#81D9CA"/>
<path d="M81.4357 114.887L78.3964 129.656C78.2883 130.181 78.9414 130.515 79.3033 130.119L87.551 121.097L81.4357 114.887Z" fill="#09454A"/>
<path d="M116.367 90.0581L93.1738 95.9646L97.0753 111.107L116.834 90.8682C117.177 90.517 116.842 89.937 116.367 90.0581Z" fill="#094549"/>
<path d="M97.0166 110.973L116.715 90.9638C117.089 90.5841 117.726 90.9341 117.606 91.4532L112.22 114.726L97.0166 110.973Z" fill="#3EA49E"/>
<path d="M70.4399 102.916L93.1964 95.9637L97.0343 110.959L70.4591 103.931C69.9453 103.795 69.9316 103.071 70.4399 102.916Z" fill="#CEF8F5"/>
<path d="M97.0926 110.975L70.5472 103.944C70.0276 103.806 69.6586 104.442 70.0361 104.825L86.8442 121.865L97.0926 110.975Z" fill="#3DA49D"/>
<path d="M103.96 138.259L86.831 121.863L97.0409 110.958L104.832 137.73C104.983 138.249 104.35 138.633 103.96 138.259Z" fill="#09454A"/>
<path d="M97.0359 110.953L104.849 137.824C104.997 138.335 105.723 138.33 105.865 137.816L112.236 114.675L97.0359 110.953Z" fill="#81D9CA"/>
<path d="M101.165 93.3874L90.5532 83.5912C89.9767 83.059 89.0417 83.3191 88.8228 84.0725L84.7789 97.994C84.6797 98.3358 84.4149 98.6046 84.0746 98.709L70.3075 102.933C69.5527 103.165 69.3097 104.112 69.8598 104.678L80.6676 115.802C80.9085 116.05 81.0127 116.401 80.9468 116.74L78.4137 129.767C78.2642 130.535 78.974 131.194 79.7292 130.987L92.0831 127.604C92.442 127.505 92.826 127.603 93.0941 127.861L104.069 138.418C104.649 138.975 105.614 138.706 105.821 137.929L109.563 123.897C109.657 123.546 109.924 123.268 110.271 123.161L124.304 118.817C125.059 118.583 125.299 117.633 124.746 117.069L114.552 106.671C114.299 106.413 114.195 106.042 114.278 105.69L117.647 91.3629C117.828 90.5937 117.131 89.9056 116.364 90.0964L102.137 93.6362C101.792 93.722 101.427 93.6285 101.165 93.3874Z" stroke="black" stroke-width="0.528011"/>
<path d="M69.7393 103.539L96.4306 110.792C96.7977 110.892 97.1901 110.786 97.4578 110.516L117.29 90.4895" stroke="black" stroke-width="0.528011"/>
<path d="M89.5376 83.5017L105.047 138.488" stroke="black" stroke-width="0.528011"/>
<path d="M78.9355 130.714L96.857 111.163C97.1223 110.873 97.5264 110.755 97.906 110.856L125.097 118.061" stroke="black" stroke-width="0.528011"/>
<path d="M80.7569 116.022L93.5393 128.254" stroke="black" stroke-width="0.528011"/>
<path d="M114.381 105.321L109.385 124.596" stroke="black" stroke-width="0.528011"/>
<path d="M84.1343 98.6945L102.016 93.669" stroke="black" stroke-width="0.528011"/>
<circle cx="7.50262" cy="7.50262" r="7.50262" transform="matrix(-0.866025 0.5 2.20305e-08 1 98.2969 182.406)" fill="#323232"/>
<circle cx="7.50262" cy="7.50262" r="7.50262" transform="matrix(-0.866025 0.5 2.20305e-08 1 100.285 183.242)" fill="#D9D9D9"/>
<circle cx="4.35636" cy="4.35636" r="4.35636" transform="matrix(-0.866025 0.5 2.20305e-08 1 97.625 188.351)" fill="#323232"/>
<defs>
<filter id="filter0_f_806_1225" x="0.328125" y="25.2656" width="194.598" height="194.598" filterUnits="userSpaceOnUse" color-interpolation-filters="sRGB">
<feFlood flood-opacity="0" result="BackgroundImageFix"/>
<feBlend mode="normal" in="SourceGraphic" in2="BackgroundImageFix" result="shape"/>
<feGaussianBlur stdDeviation="31" result="effect1_foregroundBlur_806_1225"/>
</filter>
<linearGradient id="paint0_linear_806_1225" x1="82.4491" y1="190.926" x2="240.581" y2="151.642" gradientUnits="userSpaceOnUse">
<stop stop-color="#5D7886"/>
<stop offset="1" stop-color="#232326"/>
</linearGradient>
<linearGradient id="paint1_linear_806_1225" x1="98.8599" y1="186.947" x2="205.371" y2="130.541" gradientUnits="userSpaceOnUse">
<stop/>
<stop offset="1" stop-opacity="0"/>
</linearGradient>
<radialGradient id="paint2_radial_806_1225" cx="0" cy="0" r="1" gradientUnits="userSpaceOnUse" gradientTransform="translate(89.1403 208.478) rotate(-74.1166) scale(181.514 257.819)">
<stop stop-color="#627F8E"/>
<stop offset="1" stop-color="#627F8E" stop-opacity="0"/>
</radialGradient>
</defs>
</svg>
