<svg width="38" height="39" viewBox="0 0 38 39" fill="none" xmlns="http://www.w3.org/2000/svg">
<circle cx="18.9899" cy="19.4723" r="18.7067" fill="#CEF8F5"/>
<mask id="mask0_3180_15357" style="mask-type:alpha" maskUnits="userSpaceOnUse" x="0" y="0" width="38" height="39">
<circle cx="18.9899" cy="19.4723" r="18.7067" fill="#CEF8F5"/>
</mask>
<g mask="url(#mask0_3180_15357)">
<ellipse cx="19.1055" cy="26.917" rx="10.6895" ry="3.82712" fill="#332A63"/>
<path d="M29.4816 27.8407C29.6864 27.5449 29.7951 27.2355 29.7951 26.917C29.7951 24.8033 25.0092 23.0898 19.1055 23.0898C13.2019 23.0898 8.41602 24.8033 8.41602 26.917C8.41602 27.2355 8.5247 27.5449 8.7295 27.8407C9.8838 26.1734 14.0915 24.9374 19.1055 24.9374C24.1196 24.9374 28.3273 26.1734 29.4816 27.8407Z" fill="#01656B"/>
</g>
<path d="M9.73633 18.7331C9.73633 13.5583 13.9313 9.36328 19.1062 9.36328C24.281 9.36328 28.476 13.5583 28.476 18.7331V27.5751H9.73633V18.7331Z" fill="#332A63"/>
<path d="M11.3203 19.1303C11.3202 17.6156 11.8479 15.4351 13.0357 14.2474M15.4111 12.0039C15.03 12.2291 14.6785 12.4838 14.3554 12.761" stroke="white" stroke-width="0.878593" stroke-linecap="round"/>
<rect x="18.447" y="17.5469" width="1.58363" height="3.69515" rx="0.791817" fill="white"/>
<rect x="23.7266" y="17.5469" width="1.58363" height="3.69515" rx="0.791817" fill="white"/>
</svg>
