<svg width="333" height="178" viewBox="0 0 333 178" fill="none" xmlns="http://www.w3.org/2000/svg">
<path d="M0 5C0 2.23857 2.23858 0 5 0H327.983C330.744 0 332.983 2.23858 332.983 5V178H0V5Z" fill="#6052A9"/>
<mask id="mask0_207_1417" style="mask-type:alpha" maskUnits="userSpaceOnUse" x="0" y="0" width="333" height="178">
<path d="M0 10C0 4.47715 4.47715 0 10 0H322.983C328.506 0 332.983 4.47715 332.983 10V178H0V10Z" fill="#6052A9"/>
</mask>
<g mask="url(#mask0_207_1417)">
<path d="M263.931 167.259H0V153.448H218.762L263.931 167.259Z" fill="#A0C8B3"/>
<path d="M169.42 118.896L150.316 124.066" stroke="#A0EEBF" stroke-width="0.460967"/>
<path d="M190.997 122.492L208.977 119.795" stroke="#A0EEBF" stroke-width="0.460967"/>
<path d="M176.244 80.994C178.144 78.8154 181.451 78.5895 183.629 80.4895L189.293 85.4289C191.471 87.329 191.697 90.6353 189.797 92.814L170.67 114.746C167.406 118.489 161.726 118.877 157.983 115.613C154.241 112.349 153.853 106.669 157.117 102.926L176.244 80.994Z" fill="#F4F1EC"/>
<path d="M193.694 64.0109C193.694 66.89 191.36 69.224 188.48 69.224L184.972 69.224C182.093 69.224 179.759 66.89 179.759 64.0109L179.759 33.0383C179.759 29.1903 182.878 26.0708 186.726 26.0708C190.574 26.0709 193.694 29.1903 193.694 33.0383L193.694 64.0109Z" fill="#E49E8A"/>
<path d="M193.694 39.5233C193.694 40.783 192.672 41.8041 191.413 41.8041L175.746 41.8041C174.487 41.8041 173.466 40.783 173.466 39.5233L173.466 33.0386C173.466 27.4528 177.994 22.9246 183.58 22.9246C189.165 22.9246 193.694 27.4528 193.694 33.0386L193.694 39.5233Z" fill="#E49E8A"/>
<path d="M188.57 93.4731C187.663 88.8481 190.786 84.3973 195.444 83.6765L196.803 83.4662C201.203 82.7852 205.357 85.6994 206.214 90.0692L217.092 145.536C218.074 150.544 214.692 155.363 209.649 156.143C204.884 156.881 200.386 153.725 199.459 148.994L188.57 93.4731Z" fill="#F4F1EC"/>
<rect x="159.531" y="45.8501" width="11.6873" height="43.1531" rx="5.84366" fill="#F4F1EC"/>
<path d="M199.537 54.166C198.458 49.1315 198.938 46.6742 200.436 45.6253H168.746C163.352 46.5243 163.501 53.3419 164.251 56.6383L171.668 84.7328H208.528L199.537 54.166Z" fill="#43B19D"/>
<path d="M216.595 85.1293L197.534 96.1344C194.633 97.8094 190.923 96.8154 189.248 93.9142C187.573 91.0129 188.567 87.3031 191.468 85.6281L210.53 74.623L216.595 85.1293Z" fill="#E49E8A"/>
<rect x="196.438" y="46.3776" width="11.785" height="43.3272" rx="5.89251" transform="rotate(-17.3079 196.438 46.3776)" fill="#F4F1EC"/>
<path d="M192.12 81.1367L201.11 75.7426L203.133 79.1139L193.918 84.508L192.12 81.1367Z" fill="#606060"/>
<path d="M198.172 71.3249L234.748 50.2076C238.095 48.2752 242.375 49.422 244.308 52.7691C246.24 56.1163 245.093 60.3963 241.746 62.3288L205.17 83.446L198.172 71.3249Z" fill="#E9AC66"/>
<path d="M165.374 76.8665H187.625C190.977 76.8665 193.694 79.5834 193.694 82.9349C193.694 86.2864 190.977 89.0033 187.625 89.0033H165.374V76.8665Z" fill="#E49E8A"/>
<path d="M149.979 120.675C148.551 115.707 151.421 110.523 156.388 109.095C161.356 107.667 166.54 110.537 167.968 115.504L176.076 143.716C176.939 146.718 175.205 149.85 172.203 150.713L165.084 152.759C162.082 153.622 158.95 151.888 158.087 148.886L149.979 120.675Z" fill="#43B19D"/>
<path d="M190.216 119.578C189.346 114.483 192.772 109.648 197.867 108.778C202.962 107.909 207.797 111.334 208.666 116.429L213.604 145.365C214.129 148.443 212.059 151.365 208.981 151.89L201.678 153.136C198.6 153.661 195.678 151.592 195.153 148.513L190.216 119.578Z" fill="#43B19D"/>
<path d="M150.99 153.734C150.99 151.748 152.6 150.138 154.586 150.138H173.915V157.33H154.586C152.6 157.33 150.99 155.72 150.99 153.734Z" fill="#EFECD1"/>
<path d="M190.547 153.734C190.547 151.748 192.157 150.138 194.143 150.138H213.926L215.341 157.33H194.143C192.157 157.33 190.547 155.72 190.547 153.734Z" fill="#EFECD1"/>
<path d="M186.501 56.6383L179.309 45.4005H193.918L186.501 56.6383Z" fill="#E49E8A"/>
<path d="M193.694 30.567C193.694 28.9141 193.403 27.2774 192.838 25.7504C192.273 24.2234 191.446 22.8359 190.402 21.6671C189.359 20.4984 188.12 19.5713 186.756 18.9387C185.393 18.3062 183.932 17.9807 182.456 17.9807C180.98 17.9807 179.519 18.3062 178.155 18.9387C176.792 19.5713 175.553 20.4984 174.509 21.6671C173.466 22.8359 172.638 24.2234 172.073 25.7504C171.509 27.2775 171.218 28.9141 171.218 30.567L182.456 30.567H193.694Z" fill="#2D463A"/>
<path d="M167.622 30.5679C167.622 28.8301 169.031 27.4213 170.768 27.4213H183.355V30.5679H167.622Z" fill="#2D463A"/>
<circle cx="184.928" cy="31.6916" r="5.16939" fill="#2D463A"/>
<path d="M169.645 120.246L151.439 125.864" stroke="#A0EEBF" stroke-width="0.921933"/>
<path d="M209.651 120.47L190.997 123.392" stroke="#A0EEBF" stroke-width="0.921933"/>
<path d="M240.805 106.455C240.805 104.697 242.23 103.272 243.988 103.272C245.746 103.272 247.171 104.697 247.171 106.455V160.567H240.805V106.455Z" fill="white"/>
</g>
</svg>
