<svg width="111" height="111" viewBox="0 0 111 111" fill="none" xmlns="http://www.w3.org/2000/svg">
    <path
        d="M10.2 33.06V79.05C10.2 80.86 11.17 82.53 12.73 83.44L52.56 106.44C54.13 107.34 56.06 107.34 57.63 106.44L97.46 83.44C99.03 82.54 99.99 80.86 99.99 79.05V33.06C99.99 31.25 99.02 29.58 97.46 28.67L57.63 5.68C56.06 4.78 54.13 4.78 52.56 5.68L12.74 28.68C11.17 29.58 10.21 31.26 10.21 33.07L10.2 33.06Z"
        fill="#B3CEFF" />
    <mask id="mask0_324_4897" style="mask-type:luminance" maskUnits="userSpaceOnUse" x="10" y="5"
        width="90" height="103">
        <path
            d="M10.2 33.06V79.05C10.2 80.86 11.17 82.53 12.73 83.44L52.56 106.44C54.13 107.34 56.06 107.34 57.63 106.44L97.46 83.44C99.03 82.54 99.99 80.86 99.99 79.05V33.06C99.99 31.25 99.02 29.58 97.46 28.67L57.63 5.68C56.06 4.78 54.13 4.78 52.56 5.68L12.74 28.68C11.17 29.58 10.21 31.26 10.21 33.07L10.2 33.06Z"
            fill="white" />
    </mask>
    <g mask="url(#mask0_324_4897)">
        <path d="M109.24 37.58L-2.79004 75.7V58.37L109.24 20.26V37.58Z" fill="white" />
        <path opacity="0.33" d="M109.24 90.71L-2.79004 128.82V111.5L109.24 73.39V90.71Z"
            fill="#495DB2" />
        <path d="M113.86 44.51L1.83008 82.62V78.01L113.86 39.89V44.51Z" fill="white" />
    </g>
    <path
        d="M18.0901 37.5V74.62C18.0901 76.36 19.0201 77.96 20.5201 78.83L52.6701 97.39C54.1701 98.26 56.0301 98.26 57.5301 97.39L89.6801 78.83C91.1801 77.96 92.1101 76.36 92.1101 74.62V37.5C92.1101 35.76 91.1801 34.16 89.6801 33.29L57.5301 14.73C56.0301 13.86 54.1701 13.86 52.6701 14.73L20.5201 33.29C19.0201 34.16 18.0901 35.76 18.0901 37.5Z"
        fill="#1F2C65" />
    <mask id="mask1_324_4897" style="mask-type:luminance" maskUnits="userSpaceOnUse" x="18" y="14"
        width="75" height="85">
        <path
            d="M18.0901 37.5V74.62C18.0901 76.36 19.0201 77.96 20.5201 78.83L52.6701 97.39C54.1701 98.26 56.0301 98.26 57.5301 97.39L89.6801 78.83C91.1801 77.96 92.1101 76.36 92.1101 74.62V37.5C92.1101 35.76 91.1801 34.16 89.6801 33.29L57.5301 14.73C56.0301 13.86 54.1701 13.86 52.6701 14.73L20.5201 33.29C19.0201 34.16 18.0901 35.76 18.0901 37.5Z"
            fill="white" />
    </mask>
    <g mask="url(#mask1_324_4897)">
        <path
            d="M23.8701 41.32V78.93C23.8701 80.69 24.8101 82.31 26.3301 83.19L58.9001 101.99C60.4201 102.87 62.3001 102.87 63.8201 101.99L96.3901 83.19C97.9101 82.31 98.8501 80.69 98.8501 78.93V41.32C98.8501 39.56 97.9101 37.94 96.3901 37.06L63.8201 18.26C62.3001 17.38 60.4201 17.38 58.9001 18.26L26.3301 37.06C24.8101 37.94 23.8701 39.56 23.8701 41.32Z"
            fill="#5973C6" />
        <mask id="mask2_324_4897" style="mask-type:luminance" maskUnits="userSpaceOnUse" x="23"
            y="17" width="76" height="86">
            <path
                d="M23.8701 41.32V78.93C23.8701 80.69 24.8101 82.31 26.3301 83.19L58.9001 101.99C60.4201 102.87 62.3001 102.87 63.8201 101.99L96.3901 83.19C97.9101 82.31 98.8501 80.69 98.8501 78.93V41.32C98.8501 39.56 97.9101 37.94 96.3901 37.06L63.8201 18.26C62.3001 17.38 60.4201 17.38 58.9001 18.26L26.3301 37.06C24.8101 37.94 23.8701 39.56 23.8701 41.32Z"
                fill="white" />
        </mask>
        <g mask="url(#mask2_324_4897)">
            <path opacity="0.45"
                d="M117.29 28.21C115.8 25.12 114.09 22.15 112.16 19.34L55.5401 57.56L94.2401 1.51001C91.4001 -0.41999 88.4201 -2.14999 85.2901 -3.64999L55.5201 57.55L60.7001 -10.17C58.9901 -10.3 57.2601 -10.38 55.5201 -10.38C53.7801 -10.38 52.0501 -10.29 50.3401 -10.17L55.5101 57.55L25.7501 -3.64999C22.6301 -2.14999 19.6401 -0.41999 16.8001 1.51001L55.5001 57.56L-1.11986 19.34C-3.04986 22.15 -4.75986 25.12 -6.24986 28.21L55.5001 57.56L-12.6699 45.7C-12.7799 47.27 -12.8599 55.62 -12.8599 57.21C-12.8599 59.05 -12.7599 66.49 -12.6199 68.29L55.4901 57.58L-5.95986 86.79C-4.44986 89.85 -2.70986 92.78 -0.759864 95.56L55.5001 57.59L17.1401 113.15C19.9601 115.05 22.9301 116.74 26.0401 118.21L55.5201 57.6L50.4001 124.59C52.0901 124.71 53.8001 124.8 55.5301 124.8C57.2601 124.8 58.9601 124.72 60.6601 124.59L55.5401 57.6L85.0201 118.21C88.1201 116.74 91.0901 115.05 93.9201 113.15L55.5401 57.59L111.81 95.57C113.75 92.79 115.5 89.86 117.01 86.8L55.5501 57.59L123.66 62.68C123.81 60.88 123.9 59.06 123.9 57.22C123.9 55.63 123.82 54.05 123.71 52.49L55.5501 57.58L117.3 28.23L117.29 28.21Z"
                fill="url(#paint0_radial_324_4897)" />
        </g>
        <path opacity="0.61"
            d="M93.37 51.75C93.37 71.52 72.72 92.17 52.95 92.17C46.92 92.17 41.77 91.34 36.78 88.71L43.37 106.99C43.37 106.99 69.12 108.34 70.27 108.34C71.42 108.34 97.99 89.86 97.99 89.86L111.85 70.23L93.37 51.75Z"
            fill="#222625" />
    </g>
    <path
        d="M15.0099 41.05H14.0699C14.0699 35.57 9.6299 31.13 4.1499 31.13V30.19C9.6299 30.19 14.0699 25.75 14.0699 20.27H15.0099C15.0099 25.75 19.4499 30.19 24.9299 30.19V31.13C19.4499 31.13 15.0099 35.57 15.0099 41.05Z"
        fill="white" />
    <path
        d="M95.59 96.48H95.17C95.17 94.04 93.2 92.07 90.76 92.07V91.65C93.2 91.65 95.17 89.68 95.17 87.24H95.59C95.59 89.68 97.56 91.65 100 91.65V92.07C97.56 92.07 95.59 94.04 95.59 96.48Z"
        fill="white" />
    <path d="M57.15 48.16C56.5 45.05 56.37 38.92 61.03 39.34C62.26 39.58 64.71 39.17 64.71 35.64"
        stroke="white" stroke-width="2.35" stroke-linecap="round" />
    <path
        d="M70.4501 45.46H45.9901C38.8656 45.46 33.0901 51.2355 33.0901 58.36V58.37C33.0901 65.4945 38.8656 71.27 45.9901 71.27H70.4501C77.5746 71.27 83.3501 65.4945 83.3501 58.37V58.36C83.3501 51.2355 77.5746 45.46 70.4501 45.46Z"
        fill="#1F2C65" />
    <path
        d="M65.9101 45.69H41.4501C34.3256 45.69 28.55 51.4655 28.55 58.59V58.6C28.55 65.7245 34.3256 71.5 41.4501 71.5H65.9101C73.0345 71.5 78.81 65.7245 78.81 58.6V58.59C78.81 51.4655 73.0345 45.69 65.9101 45.69Z"
        fill="#FCF8ED" stroke="#232326" stroke-width="1.57" />
    <path
        d="M46.83 58.14L49.29 60.59C49.45 60.75 49.52 60.89 49.51 61.02C49.51 61.14 49.43 61.28 49.27 61.43L48.26 62.44C47.98 62.72 47.7 62.72 47.43 62.44L44.97 59.99L42.47 62.47C42.18 62.76 41.89 62.76 41.6 62.47L40.53 61.41C40.24 61.12 40.24 60.83 40.53 60.55L43.03 58.07L40.57 55.62C40.29 55.34 40.29 55.07 40.57 54.79L41.58 53.78C41.74 53.62 41.88 53.55 42 53.55C42.13 53.54 42.28 53.61 42.44 53.77L44.9 56.22L47.38 53.75C47.67 53.46 47.96 53.46 48.25 53.75L49.32 54.81C49.61 55.1 49.61 55.39 49.32 55.67L46.84 58.14H46.83Z"
        fill="#3AA385" />
    <path
        d="M68.2901 58C68.2901 60.37 66.3501 62.31 63.9501 62.31C61.5501 62.31 59.6101 60.38 59.6101 58C59.6101 55.62 61.5501 53.69 63.9501 53.69C66.3501 53.69 68.2901 55.63 68.2901 58Z"
        stroke="#E35833" stroke-width="2.35" />
    <defs>
        <radialGradient id="paint0_radial_324_4897" cx="0" cy="0" r="1"
            gradientUnits="userSpaceOnUse"
            gradientTransform="translate(55.5201 57.21) scale(67.98 67.98)">
            <stop stop-color="#445EB8" />
            <stop offset="1" stop-color="#FEF5DC" />
        </radialGradient>
    </defs>
</svg>
