<svg width="22" height="23" viewBox="0 0 22 23" fill="none" xmlns="http://www.w3.org/2000/svg">
<path d="M2.43154 18.3494C1.10921 17.6273 1.10436 16.4127 2.4209 15.687L8.89566 12.118C10.0635 11.4743 11.8814 11.4381 13.1233 12.0338L19.2992 14.9961C20.7395 15.6869 20.8395 16.9432 19.5151 17.7075L12.8238 21.5689C11.6062 22.2715 9.64148 22.2871 8.39086 21.6041L2.43154 18.3494Z" fill="#1A1A1A"/>
<rect width="9.34557" height="9.61335" rx="0.151197" transform="matrix(0.865988 -0.500066 0.865987 0.500066 1.52979 6.85352)" fill="white" stroke="black" stroke-opacity="0.5" stroke-width="0.113398" stroke-linejoin="bevel"/>
<rect width="9.61335" height="9.61462" rx="0.151207" transform="matrix(0.865987 0.500066 -2.20266e-08 1 1.58789 6.79492)" fill="#F4EDD9" stroke="black" stroke-opacity="0.5" stroke-width="0.305501"/>
<path d="M9.65283 11.7768C9.65283 11.6934 9.71122 11.5921 9.78339 11.5502L17.8465 6.86663C17.919 6.82454 17.9779 6.85832 17.9779 6.942L17.9779 16.2538C17.9779 16.3373 17.9192 16.4388 17.8469 16.4806L9.78378 21.1367C9.71146 21.1784 9.65283 21.1446 9.65283 21.0611L9.65283 11.7768Z" fill="#C4C4C4" stroke="black" stroke-opacity="0.5" stroke-width="0.305501" stroke-linejoin="round"/>
<path d="M13.4285 13.2473L15.2707 12.1667L15.2707 17.8583L13.4285 18.9221L13.4285 13.2473Z" fill="#B17518"/>
<path d="M5.9624 13.2492L4.12016 12.1686L4.12016 17.8603L5.9624 18.9241L5.9624 13.2492Z" fill="#EFAF4E"/>
<rect width="10.1636" height="10.4548" rx="0.163381" transform="matrix(0.865988 -0.500066 0.865987 0.500066 0.759766 6.83105)" fill="#F4EDD9" stroke="black" stroke-opacity="0.5" stroke-width="0.30548" stroke-linejoin="bevel"/>
<path d="M4.38993 4.85481L6.47368 3.62162L15.2583 8.6943L13.1486 9.91253L4.38993 4.85481Z" fill="#EFAF4E"/>
<path d="M14.7753 4.84565L12.6909 3.61283L4.12029 8.56192L6.22995 9.78015L14.7753 4.84565Z" fill="#EFAF4E"/>
<rect width="10.1732" height="3.47405" rx="0.163391" transform="matrix(0.865987 0.500066 -2.20266e-08 1 0.820312 6.76758)" fill="#F4EDD9" stroke="black" stroke-opacity="0.5" stroke-width="0.305501"/>
<path d="M9.63037 12.1401C9.63037 12.0499 9.69364 11.9403 9.77173 11.8951L18.503 6.84342C18.5812 6.79817 18.6447 6.83472 18.6447 6.92502L18.6447 10.0133C18.6447 10.1035 18.5813 10.2133 18.5032 10.2584L9.77187 15.3003C9.69372 15.3454 9.63037 15.3089 9.63037 15.2186L9.63037 12.1401Z" fill="#C4C4C4" stroke="black" stroke-opacity="0.5" stroke-width="0.305501" stroke-linejoin="round"/>
<path fill-rule="evenodd" clip-rule="evenodd" d="M10.1227 6.89438C11.9244 7.03362 13.4437 6.13815 14.1974 5.06753C14.6072 4.48543 14.7538 3.90699 14.6711 3.4517C14.5945 3.02971 14.3017 2.60542 13.5773 2.32786C12.8129 2.03503 12.2738 2.08598 11.8793 2.27619C11.4685 2.47427 11.1206 2.86861 10.8407 3.43483C10.3492 4.42915 10.15 5.78754 10.1227 6.89438ZM11.3926 1.26652C12.1247 0.913496 12.9936 0.903957 13.9781 1.28115C15.0026 1.67362 15.6154 2.37942 15.7737 3.25138C15.9261 4.09006 15.6371 4.96944 15.1137 5.71286C14.0651 7.20228 11.927 8.36862 9.46547 7.94022C9.20157 7.89429 9.00708 7.66798 9.00131 7.40013C8.97444 6.15092 9.15512 4.31564 9.83609 2.93805C10.1795 2.24331 10.6768 1.61167 11.3926 1.26652Z" fill="#C34B29" stroke="black" stroke-opacity="0.5" stroke-width="0.234097" stroke-linejoin="round"/>
<path fill-rule="evenodd" clip-rule="evenodd" d="M8.90324 6.87877C7.37236 6.84325 5.99768 5.97464 5.28062 4.95201C4.88371 4.38595 4.73244 3.83657 4.79573 3.40811C4.85339 3.01772 5.10364 2.62441 5.76416 2.35189C6.45937 2.06507 6.93581 2.11876 7.28106 2.29805C7.64984 2.48955 7.97242 2.87776 8.23488 3.44957C8.68734 4.4353 8.874 5.77637 8.90324 6.87877ZM7.79746 1.30326C7.09659 0.939305 6.26561 0.932508 5.33681 1.31571C4.37333 1.71322 3.81157 2.40144 3.68708 3.2443C3.5682 4.0491 3.86462 4.8847 4.36309 5.5956C5.35842 7.01509 7.33526 8.19196 9.52082 7.97508C9.8032 7.94705 10.0201 7.71233 10.0257 7.42857C10.0506 6.18302 9.88325 4.35418 9.25336 2.98191C8.93704 2.29276 8.47479 1.65499 7.79746 1.30326Z" fill="#C34B29" stroke="black" stroke-opacity="0.5" stroke-width="0.234097" stroke-linejoin="round"/>
<ellipse cx="9.53596" cy="7.29831" rx="0.816725" ry="0.816868" fill="#F4EDD9" stroke="black" stroke-opacity="0.5" stroke-width="0.234097" stroke-linejoin="round"/>
<path d="M13.3193 9.96943L15.429 8.74173L15.429 11.951L13.3193 13.1692L13.3193 9.96943Z" fill="#B17518"/>
<path d="M6.0957 9.92178L3.98604 8.69388L3.98604 11.973L6.0957 13.1912L6.0957 9.92178Z" fill="#EFAF4E"/>
</svg>
