<svg width="25" height="24" viewBox="0 0 25 24" fill="none" xmlns="http://www.w3.org/2000/svg">
    <g opacity="0.8">
        <path
            d="M8.94986 20.4455C6.0728 18.8744 6.06224 16.2324 8.92672 14.6537L9.68106 14.238C12.2176 12.84 16.1661 12.7614 18.8635 14.055C21.9919 15.5553 22.2092 18.2835 19.3326 19.9432L18.5949 20.3688C15.9458 21.8973 11.6709 21.9313 8.94986 20.4455Z"
            fill="#1A1A1A" />
        <rect width="8.94147" height="9.19768" rx="0.353212"
            transform="matrix(0.866025 -0.5 0.866025 0.5 5.12305 7.8252)" fill="white"
            stroke="black" stroke-opacity="0.5" stroke-width="0.264909" stroke-linejoin="bevel" />
        <rect width="9.19768" height="9.19768" rx="0.353212"
            transform="matrix(0.866025 0.5 -2.20305e-08 1 5.17847 7.76953)" fill="#F4EDD9"
            stroke="black" stroke-opacity="0.5" stroke-width="0.713632" />
        <path
            d="M12.8953 12.7445C12.8953 12.5499 13.0317 12.3131 13.2003 12.2152L20.5539 7.94457C20.7232 7.84625 20.8607 7.92517 20.8607 8.12065L20.8607 16.6109C20.8607 16.8059 20.7237 17.0431 20.5548 17.1407L13.2012 21.3863C13.0322 21.4838 12.8953 21.4048 12.8953 21.2097L12.8953 12.7445Z"
            fill="#C4C4C4" stroke="black" stroke-opacity="0.5" stroke-width="0.713632"
            stroke-linejoin="round" />
        <path d="M16.5078 13.9438L18.2705 12.9101L18.2705 18.3549L16.5078 19.3726L16.5078 13.9438Z"
            fill="#B17518" />
        <path d="M9.36401 13.9438L7.60135 12.9101L7.60135 18.3549L9.36401 19.3726L9.36401 13.9438Z"
            fill="#EFAF4E" />
        <rect width="9.72409" height="10.0027" rx="0.381673"
            transform="matrix(0.866025 -0.5 0.866025 0.5 4.38599 7.80371)" fill="#F4EDD9"
            stroke="black" stroke-opacity="0.5" stroke-width="0.713632" stroke-linejoin="bevel" />
        <path d="M7.85975 5.9108L9.85349 4.73109L18.2586 9.58379L16.2401 10.7492L7.85975 5.9108Z"
            fill="#EFAF4E" />
        <path d="M17.7964 5.90361L15.802 4.72425L7.60167 9.45873L9.6202 10.6241L17.7964 5.90361Z"
            fill="#EFAF4E" />
        <rect width="9.73333" height="3.32339" rx="0.381673"
            transform="matrix(0.866025 0.5 -2.20305e-08 1 4.44434 7.74219)" fill="#F4EDD9"
            stroke="black" stroke-opacity="0.5" stroke-width="0.713632" />
        <path
            d="M12.8738 13.1087C12.8738 12.8981 13.0216 12.6419 13.204 12.5364L21.1678 7.92957C21.3505 7.8239 21.4987 7.90928 21.4987 8.12022L21.4987 10.6236C21.4987 10.8344 21.3507 11.0907 21.1682 11.1961L13.2043 15.7941C13.0218 15.8995 12.8738 15.814 12.8738 15.6032L12.8738 13.1087Z"
            fill="#C4C4C4" stroke="black" stroke-opacity="0.5" stroke-width="0.713632"
            stroke-linejoin="round" />
        <path fill-rule="evenodd" clip-rule="evenodd"
            d="M13.3454 7.86435C15.0693 7.99755 16.5229 7.14092 17.2441 6.11673C17.6362 5.55987 17.7764 5.00651 17.6973 4.57097C17.624 4.16727 17.3439 3.76139 16.6507 3.49587C15.9194 3.21573 15.4035 3.26447 15.0261 3.44643C14.633 3.63593 14.3002 4.01316 14.0324 4.55482C13.5621 5.50603 13.3715 6.80552 13.3454 7.86435ZM14.5604 2.48055C15.2609 2.14283 16.0923 2.13371 17.0343 2.49454C18.0145 2.86999 18.6008 3.54519 18.7523 4.37934C18.8981 5.18164 18.6216 6.02289 18.1208 6.73407C17.1175 8.15891 15.0718 9.27466 12.7165 8.86484C12.464 8.8209 12.278 8.60441 12.2724 8.34818C12.2467 7.15314 12.4196 5.39744 13.0712 4.0796C13.3998 3.41498 13.8756 2.81073 14.5604 2.48055Z"
            fill="#C34B29" stroke="black" stroke-opacity="0.5" stroke-width="0.54685"
            stroke-linejoin="round" />
        <path fill-rule="evenodd" clip-rule="evenodd"
            d="M12.1789 7.84874C10.7141 7.81476 9.39883 6.98382 8.71275 6.00553C8.33299 5.46402 8.18825 4.93846 8.2488 4.52859C8.30398 4.15512 8.54341 3.77887 9.17541 3.51817C9.84058 3.24379 10.2964 3.29515 10.6268 3.46666C10.9796 3.64986 11.2883 4.02123 11.5394 4.56824C11.9723 5.51123 12.1509 6.79414 12.1789 7.84874ZM11.1209 2.51501C10.4503 2.16684 9.65519 2.16034 8.76651 2.52692C7.84465 2.9072 7.30716 3.56557 7.18804 4.37188C7.07431 5.14178 7.35792 5.94114 7.83486 6.62121C8.78719 7.97914 10.6786 9.10498 12.7698 8.8975C13.04 8.8707 13.2475 8.64615 13.2529 8.3747C13.2767 7.18316 13.1166 5.43363 12.5139 4.12087C12.2112 3.4616 11.7689 2.85149 11.1209 2.51501Z"
            fill="#C34B29" stroke="black" stroke-opacity="0.5" stroke-width="0.54685"
            stroke-linejoin="round" />
        <circle cx="12.7832" cy="8.25191" r="0.781202" fill="#F4EDD9" stroke="black"
            stroke-opacity="0.5" stroke-width="0.54685" stroke-linejoin="round" />
        <path d="M16.4036 10.8069L18.4221 9.63245L18.4221 12.7025L16.4036 13.8679L16.4036 10.8069Z"
            fill="#B17518" />
        <path d="M9.49194 10.7593L7.47341 9.5846L7.47341 12.7215L9.49194 13.8869L9.49194 10.7593Z"
            fill="#EFAF4E" />
        <ellipse cx="21.5977" cy="5.95889" rx="0.464887" ry="0.4667" fill="#FFEFC7" />
        <ellipse cx="5.68559" cy="0.833888" rx="0.464887" ry="0.4667" fill="#FFD979" />
        <ellipse cx="24.4869" cy="3.82217" rx="0.464887" ry="0.4667" fill="#FFD979" />
        <ellipse cx="1.35527" cy="10.3427" rx="0.464887" ry="0.4667" fill="#FFD979" />
        <ellipse cx="5.5836" cy="5.49284" rx="0.202989" ry="0.203781" fill="#FFEFC7" />
        <ellipse cx="22.9161" cy="11.5466" rx="0.202989" ry="0.203781" fill="#FFEFC7" />
        <ellipse cx="17.8854" cy="0.570968" rx="0.202989" ry="0.203781" fill="#FFD979" />
    </g>
</svg>
