<svg width="273" height="220" viewBox="0 0 273 220" fill="none" xmlns="http://www.w3.org/2000/svg">
<path d="M310.127 20.6211V87.6924L89.8272 207.284C87.4024 208.6 84.4501 208.476 82.1448 206.96L72.1953 200.418" stroke="url(#paint0_linear_806_1045)" stroke-width="1.13624"/>
<path d="M310.331 80.2863L99.1061 193.607L91.8984 184.998L310.331 67.4727V80.2863Z" fill="url(#paint1_linear_806_1045)"/>
<path d="M91.0882 185.59L310.738 67.8722V0L22.8322 149.959L23.0248 150.067C19.6464 152.099 14.6205 156.175 14.6211 163.574C14.6216 169.981 21.0279 173.385 21.0279 173.385L81.6287 207.059L82.9681 207.495C83.747 207.958 84.7325 208.301 85.9836 208.477L82.9681 207.495C81.0359 206.348 80.3761 204.471 80.0907 202.616C79.2534 196.057 84.2822 189.68 89.0342 186.691L90.9545 185.662C91.0039 185.64 91.0532 185.619 91.1024 185.598L91.0882 185.59Z" fill="url(#paint2_radial_806_1045)"/>
<g opacity="0.5" filter="url(#filter0_f_806_1045)">
<circle cx="97.9316" cy="122.564" r="35.2988" fill="#EFAF4E"/>
</g>
<circle cx="7.50262" cy="7.50262" r="7.50262" transform="matrix(-0.866025 0.5 2.20305e-08 1 98.6016 182.406)" fill="#323232"/>
<circle cx="7.50262" cy="7.50262" r="7.50262" transform="matrix(-0.866025 0.5 2.20305e-08 1 100.59 183.242)" fill="#D9D9D9"/>
<circle cx="4.35636" cy="4.35636" r="4.35636" transform="matrix(-0.866025 0.5 2.20305e-08 1 97.9297 188.351)" fill="#323232"/>
<path d="M96.1562 121.294L77.252 133.891C76.4614 134.418 76.4833 135.587 77.2931 136.084L106.62 154.076C106.753 154.158 106.901 154.215 107.055 154.245L118.104 156.37C118.424 156.431 118.756 156.37 119.034 156.199L132.705 147.759C133.504 147.266 133.534 146.114 132.761 145.581L97.6177 121.307C97.179 121.004 96.5999 120.999 96.1562 121.294Z" fill="#1D1F1F"/>
<path d="M87.9431 122.398L121.132 142.901L133.285 139.863L131.937 136.718C131.826 136.458 131.634 136.242 131.389 136.101L98.4239 117.073C98.0187 116.84 97.5193 116.84 97.1147 117.075L87.9431 122.398Z" fill="#EFAF4E" stroke="black" stroke-width="0.723202" stroke-linejoin="round"/>
<mask id="mask0_806_1045" style="mask-type:alpha" maskUnits="userSpaceOnUse" x="89" y="117" width="43" height="25">
<path d="M89.0416 122.475L121.973 141.792L131.172 136.273C131.171 136.273 131.171 136.273 131.17 136.272L99.2075 117.946C98.8244 117.726 98.3562 117.715 97.9629 117.916L89.0416 122.475Z" fill="white"/>
</mask>
<g mask="url(#mask0_806_1045)">
<rect opacity="0.5" width="35.9373" height="5.3906" transform="matrix(-1 8.74228e-08 8.74228e-08 1 135.773 129.27)" fill="white"/>
<rect opacity="0.5" width="35.9373" height="1.79687" transform="matrix(-1 8.74228e-08 8.74228e-08 1 126.793 125.68)" fill="white"/>
</g>
<path d="M132.043 136.933L135.656 144.975C135.969 145.672 135.392 146.963 134.571 147.405L119.884 155.302C118.293 156.157 117.254 154.866 117.883 152.813L120.918 142.905C121.103 142.3 121.536 141.737 122.005 141.488L131.043 136.702C131.484 136.468 131.874 136.559 132.043 136.933Z" fill="#FFD979" stroke="black" stroke-width="0.723202" stroke-linejoin="round"/>
<path d="M119.397 154.634L121.203 142.709C121.283 142.179 121.031 141.654 120.568 141.384L87.8868 122.371L84.1991 132.227C83.6426 133.715 84.2221 135.387 85.5793 136.212L117.426 155.556C118.224 156.04 119.257 155.557 119.397 154.634Z" fill="#B17518" stroke="black" stroke-width="0.723202" stroke-linejoin="round"/>
<path d="M77.7695 131.333L58.8653 143.93C58.0747 144.457 58.0966 145.626 58.9064 146.123L88.2331 164.115C88.3667 164.197 88.514 164.254 88.6679 164.284L99.7174 166.409C100.038 166.47 100.369 166.41 100.647 166.238L114.318 157.798C115.117 157.305 115.147 156.153 114.374 155.62L79.231 131.346C78.7923 131.043 78.2132 131.038 77.7695 131.333Z" fill="#1D1F1F"/>
<path d="M69.5603 132.437L102.749 152.94L114.902 149.902L113.554 146.757C113.443 146.497 113.251 146.281 113.007 146.14L80.0411 127.112C79.6358 126.879 79.1365 126.879 78.7318 127.114L69.5603 132.437Z" fill="#EFAF4E" stroke="black" stroke-width="0.723202" stroke-linejoin="round"/>
<mask id="mask1_806_1045" style="mask-type:alpha" maskUnits="userSpaceOnUse" x="70" y="127" width="43" height="25">
<path d="M70.6588 132.514L103.59 151.831L112.789 146.312C112.789 146.312 112.788 146.312 112.788 146.311L80.8247 127.985C80.4415 127.765 79.9733 127.754 79.58 127.955L70.6588 132.514Z" fill="white"/>
</mask>
<g mask="url(#mask1_806_1045)">
<rect opacity="0.5" width="35.9373" height="5.3906" transform="matrix(-1 8.74228e-08 8.74228e-08 1 117.391 139.309)" fill="white"/>
<rect opacity="0.5" width="35.9373" height="1.79687" transform="matrix(-1 8.74228e-08 8.74228e-08 1 108.41 135.719)" fill="white"/>
</g>
<path d="M113.66 146.972L117.273 155.014C117.586 155.711 117.01 157.002 116.188 157.444L101.501 165.341C99.9097 166.196 98.8708 164.905 99.4997 162.852L102.535 152.944C102.721 152.339 103.153 151.776 103.622 151.527L112.66 146.741C113.101 146.508 113.492 146.598 113.66 146.972Z" fill="#FFD979" stroke="black" stroke-width="0.723202" stroke-linejoin="round"/>
<path d="M101.014 164.674L102.82 152.748C102.9 152.218 102.649 151.693 102.185 151.423L69.504 132.41L65.8163 142.266C65.2598 143.754 65.8393 145.427 67.1965 146.251L99.0435 165.595C99.8409 166.079 100.874 165.596 101.014 164.674Z" fill="#EFAF4E" stroke="black" stroke-width="0.723202" stroke-linejoin="round"/>
<g style="mix-blend-mode:multiply" opacity="0.8">
<path d="M88.7295 122.255L73.5941 130.103C72.6945 130.569 72.6494 131.839 73.5136 132.368L96.7508 146.596C96.8842 146.677 97.0311 146.734 97.1847 146.764L108.235 148.889C108.555 148.95 108.887 148.889 109.164 148.718L122.525 140.47C123.396 139.932 123.334 138.645 122.415 138.194L89.9019 122.242C89.5311 122.06 89.0961 122.065 88.7295 122.255Z" fill="#1D1F1F"/>
</g>
<path d="M78.072 114.917L111.261 135.421L123.414 132.382L122.066 129.237C121.955 128.978 121.763 128.761 121.518 128.62L88.5528 109.593C88.1476 109.359 87.6482 109.36 87.2436 109.594L78.072 114.917Z" fill="#EFAF4E" stroke="black" stroke-width="0.723202" stroke-linejoin="round"/>
<mask id="mask2_806_1045" style="mask-type:alpha" maskUnits="userSpaceOnUse" x="79" y="110" width="43" height="25">
<path d="M79.1705 114.994L112.102 134.311L121.301 128.792C121.3 128.792 121.3 128.792 121.299 128.792L89.3364 110.465C88.9533 110.246 88.4851 110.234 88.0918 110.435L79.1705 114.994Z" fill="white"/>
</mask>
<g mask="url(#mask2_806_1045)">
<rect opacity="0.5" width="35.9373" height="5.3906" transform="matrix(-1 8.74228e-08 8.74228e-08 1 125.902 121.789)" fill="white"/>
</g>
<path d="M122.172 129.452L125.785 137.494C126.098 138.192 125.521 139.483 124.699 139.925L110.013 147.821C108.421 148.677 107.383 147.385 108.011 145.333L111.047 135.425C111.232 134.82 111.665 134.256 112.134 134.008L121.172 129.222C121.613 128.988 122.003 129.078 122.172 129.452Z" fill="#FFD979" stroke="black" stroke-width="0.723202" stroke-linejoin="round"/>
<path d="M109.526 147.154L111.332 135.229C111.412 134.699 111.16 134.173 110.697 133.903L78.0157 114.891L74.328 124.747C73.7715 126.234 74.351 127.907 75.7082 128.731L107.555 148.075C108.353 148.56 109.386 148.076 109.526 147.154Z" fill="#EFAF4E" stroke="black" stroke-width="0.723202" stroke-linejoin="round"/>
<defs>
<filter id="filter0_f_806_1045" x="0.632812" y="25.2656" width="194.598" height="194.598" filterUnits="userSpaceOnUse" color-interpolation-filters="sRGB">
<feFlood flood-opacity="0" result="BackgroundImageFix"/>
<feBlend mode="normal" in="SourceGraphic" in2="BackgroundImageFix" result="shape"/>
<feGaussianBlur stdDeviation="31" result="effect1_foregroundBlur_806_1045"/>
</filter>
<linearGradient id="paint0_linear_806_1045" x1="82.7538" y1="190.926" x2="240.885" y2="151.642" gradientUnits="userSpaceOnUse">
<stop stop-color="#5D7886"/>
<stop offset="1" stop-color="#232326"/>
</linearGradient>
<linearGradient id="paint1_linear_806_1045" x1="99.1646" y1="186.947" x2="205.676" y2="130.541" gradientUnits="userSpaceOnUse">
<stop/>
<stop offset="1" stop-opacity="0"/>
</linearGradient>
<radialGradient id="paint2_radial_806_1045" cx="0" cy="0" r="1" gradientUnits="userSpaceOnUse" gradientTransform="translate(89.445 208.478) rotate(-74.1166) scale(181.514 257.819)">
<stop stop-color="#627F8E"/>
<stop offset="1" stop-color="#627F8E" stop-opacity="0"/>
</radialGradient>
</defs>
</svg>
