<svg width="89" height="56" viewBox="0 0 89 56" fill="none" xmlns="http://www.w3.org/2000/svg">
    <g filter="url(#filter0_d_5_120)">
        <path
            d="M13.1039 10.8367L14.4451 10.3884C14.4894 10.3718 14.5282 10.3386 14.5393 10.2943L14.9882 8.95468C15.0325 8.81629 15.2265 8.81629 15.2764 8.95468L15.7253 10.2943C15.7419 10.3386 15.7751 10.3773 15.8195 10.3884L17.1606 10.8367C17.2992 10.881 17.2992 11.0748 17.1606 11.1246L15.8195 11.5729C15.7751 11.5896 15.7363 11.6228 15.7253 11.667L15.2764 13.0066C15.232 13.145 15.0381 13.145 14.9882 13.0066L14.5393 11.667C14.5227 11.6228 14.4894 11.584 14.4451 11.5729L13.1039 11.1246C12.9654 11.0803 12.9654 10.8865 13.1039 10.8367Z"
            fill="#E49E8A" />
        <path
            d="M69.9452 29.7166C71.0195 29.7166 71.8905 28.8467 71.8905 27.7737C71.8905 26.7006 71.0195 25.8307 69.9452 25.8307C68.8709 25.8307 68 26.7006 68 27.7737C68 28.8467 68.8709 29.7166 69.9452 29.7166Z"
            fill="#495DB2" stroke="#F79780" stroke-width="0.312904" />
        <path
            d="M9.58151 18.0031C9.90267 18.0031 10.163 17.743 10.163 17.4222C10.163 17.1015 9.90267 16.8414 9.58151 16.8414C9.26035 16.8414 9 17.1015 9 17.4222C9 17.743 9.26035 18.0031 9.58151 18.0031Z"
            fill="#FFE8AD" />
        <path
            d="M4.58151 34.983C4.90267 34.983 5.16303 34.7229 5.16303 34.4021C5.16303 34.0813 4.90267 33.8213 4.58151 33.8213C4.26035 33.8213 4 34.0813 4 34.4021C4 34.7229 4.26035 34.983 4.58151 34.983Z"
            fill="#FFE8AD" />
        <path
            d="M83.9698 20.7764C84.5055 20.7764 84.9397 20.3427 84.9397 19.8077C84.9397 19.2728 84.5055 18.8391 83.9698 18.8391C83.4342 18.8391 83 19.2728 83 19.8077C83 20.3427 83.4342 20.7764 83.9698 20.7764Z"
            fill="#EFAF4E" />
        <path
            d="M23.1694 29.1655C23.8152 29.1655 24.3387 28.6426 24.3387 27.9976C24.3387 27.3525 23.8152 26.8296 23.1694 26.8296C22.5235 26.8296 22 27.3525 22 27.9976C22 28.6426 22.5235 29.1655 23.1694 29.1655Z"
            fill="#1ADAB7" />
        <path d="M72.1708 8.65329C70.2865 8.65329 69.0617 9.86556 69.0617 11.3712" stroke="#1EA197"
            stroke-width="0.625809" stroke-linecap="round" stroke-linejoin="round" />
        <path
            d="M49.0715 47.8823C54.186 47.8823 58.3322 45.3297 58.3322 42.1809C58.3322 39.032 54.186 36.4794 49.0715 36.4794C43.957 36.4794 39.8109 39.032 39.8109 42.1809C39.8109 45.3297 43.957 47.8823 49.0715 47.8823Z"
            fill="black" />
        <path
            d="M47.5987 44.363C55.8775 43.6817 61.8083 33.6671 60.8455 21.9949C59.8826 10.3226 52.3908 1.41264 44.112 2.09393C35.8332 2.77522 29.9024 12.7898 30.8653 24.462C31.8281 36.1343 39.3199 45.0443 47.5987 44.363Z"
            fill="#C18E48" />
        <path
            d="M44.8163 44.7786C52.4972 44.1465 57.9433 34.1718 56.9805 22.4996C56.0176 10.8273 49.0105 1.87744 41.3296 2.50953C33.6487 3.14161 28.2026 13.1163 29.1654 24.7885C30.1282 36.4608 37.1354 45.4107 44.8163 44.7786Z"
            fill="white" />
        <path
            d="M44.1266 40.0407C50.017 39.5559 54.1934 31.9063 53.4551 22.9549C52.7167 14.0034 47.343 7.13971 41.4527 7.62445C35.5623 8.10918 31.3859 15.7588 32.1243 24.7102C32.8627 33.6617 38.2363 40.5254 44.1266 40.0407Z"
            fill="#C18C3B" />
        <path
            d="M45.0432 38.3556C50.3539 37.9186 54.1194 31.0215 53.4537 22.9505C52.7879 14.8796 47.943 8.69107 42.6322 9.1281C37.3215 9.56514 33.556 16.4622 34.2217 24.5332C34.8875 32.6042 39.7324 38.7927 45.0432 38.3556Z"
            fill="#FFD979" />
    </g>
    <path
        d="M44.825 19.6467V19.7377C45.2345 19.9501 45.4393 20.352 45.4393 20.9435V21.262H47.555C47.8583 21.262 48.01 21.3985 48.01 21.6715V22.6497C48.01 22.9379 47.8583 23.082 47.555 23.082H45.4393V23.3322C45.4393 24.4242 45.1132 25.2812 44.461 25.903C43.8088 26.5097 42.9368 26.813 41.8448 26.813H41.3898L45.0298 31.2265C45.1359 31.363 45.189 31.4843 45.189 31.5905C45.189 31.8635 45.0601 32 44.8023 32H43.4145C43.278 32 43.1339 31.909 42.9823 31.727L39.638 27.4727L38.9783 26.7902V25.4935C38.9783 25.1598 39.1603 24.993 39.5243 24.993H41.549C42.7472 24.993 43.3463 24.447 43.3463 23.355V23.082H39.4333C39.1299 23.082 38.9783 22.9379 38.9783 22.6497V21.6487C38.9783 21.3909 39.1299 21.262 39.4333 21.262H43.3463V20.8752C43.3463 20.0562 42.9064 19.6467 42.0268 19.6467H39.4333C39.1299 19.6467 38.9783 19.5027 38.9783 19.2145V18.2362C38.9783 17.9632 39.1299 17.8267 39.4333 17.8267H47.555C47.8583 17.8267 48.01 17.9632 48.01 18.2362V19.2145C48.01 19.5027 47.8583 19.6467 47.555 19.6467H44.825Z"
        fill="black" />
    <defs>
        <filter id="filter0_d_5_120" x="0" y="2.05731" width="88.9397" height="53.825"
            filterUnits="userSpaceOnUse" color-interpolation-filters="sRGB">
            <feFlood flood-opacity="0" result="BackgroundImageFix" />
            <feColorMatrix in="SourceAlpha" type="matrix"
                values="0 0 0 0 0 0 0 0 0 0 0 0 0 0 0 0 0 0 127 0" result="hardAlpha" />
            <feOffset dy="4" />
            <feGaussianBlur stdDeviation="2" />
            <feComposite in2="hardAlpha" operator="out" />
            <feColorMatrix type="matrix" values="0 0 0 0 0 0 0 0 0 0 0 0 0 0 0 0 0 0 0.25 0" />
            <feBlend mode="normal" in2="BackgroundImageFix" result="effect1_dropShadow_5_120" />
            <feBlend mode="normal" in="SourceGraphic" in2="effect1_dropShadow_5_120"
                result="shape" />
        </filter>
    </defs>
</svg>
