<svg width="57" height="40" viewBox="0 0 57 40" fill="none" xmlns="http://www.w3.org/2000/svg">
<circle cx="3.95224" cy="3.95224" r="3.95224" transform="matrix(0.866025 0.5 -0.866025 0.5 15.3877 29.5244)" fill="black"/>
<path d="M10.7482 0.480614L12.6559 7.04392L17.0537 5.9457L10.9704 0.342953C10.8693 0.24989 10.7098 0.348702 10.7482 0.480614Z" fill="#3EA59E"/>
<path d="M8.24219 8.43436L10.501 0.457937C10.5382 0.326568 10.7243 0.326246 10.762 0.457486L12.661 7.07591L8.24219 8.43436Z" fill="#09454A"/>
<path d="M29.1177 18.4333L22.4781 16.7033L21.2178 21.1648L29.124 18.6941C29.2541 18.6534 29.2497 18.4677 29.1177 18.4333Z" fill="#CEF8F5"/>
<path d="M23.4671 12.2887L29.2368 18.2242C29.3327 18.3228 29.2379 18.485 29.105 18.45L22.4722 16.7026L23.4671 12.2887Z" fill="#81D9CA"/>
<path d="M5.13008 25.0305L9.4549 20.3111L13.264 23.0792L5.26569 25.2531C5.13449 25.2887 5.03823 25.1307 5.13008 25.0305Z" fill="#81D9CA"/>
<path d="M6.59181 16.81L4.92414 24.9137C4.89636 25.0487 5.06418 25.1343 5.15716 25.0326L9.7461 20.013L6.59181 16.81Z" fill="#09454A"/>
<path d="M25.0439 3.89182L12.6475 7.04881L14.6598 14.8594L25.164 4.09997C25.2521 4.00974 25.1661 3.8607 25.0439 3.89182Z" fill="#094549"/>
<path d="M14.6289 14.7902L25.1292 4.12429C25.2252 4.02673 25.3889 4.11667 25.358 4.25005L22.4711 16.7259L14.6289 14.7902Z" fill="#3EA49E"/>
<path d="M0.461908 10.7743L12.6587 7.04828L14.6383 14.7828L0.466861 11.0352C0.334838 11.0003 0.331305 10.8142 0.461908 10.7743Z" fill="#CEF8F5"/>
<path d="M14.6679 14.7902L0.492049 11.0353C0.358546 11 0.263737 11.1634 0.360721 11.2618L9.38178 20.4074L14.6679 14.7902Z" fill="#3DA49D"/>
<path d="M18.5788 29.217L9.37532 20.4076L14.6416 14.7825L18.8029 29.0811C18.8417 29.2144 18.6791 29.313 18.5788 29.217Z" fill="#09454A"/>
<path d="M14.6392 14.7802L18.8038 29.1038C18.842 29.2352 19.0285 29.2339 19.0648 29.102L22.4792 16.7L14.6392 14.7802Z" fill="#81D9CA"/>
<path d="M16.8767 5.81849L10.9698 0.365854C10.8217 0.229108 10.5815 0.295944 10.5252 0.489545L8.27495 8.23637C8.24944 8.32419 8.18141 8.39326 8.09397 8.42008L0.424284 10.7733C0.230353 10.8328 0.167902 11.0762 0.309258 11.2217L6.29501 17.3827C6.35691 17.4464 6.3837 17.5364 6.36675 17.6236L4.9489 24.9152C4.91049 25.1127 5.09286 25.2818 5.28692 25.2287L12.2334 23.3263C12.3256 23.3011 12.4243 23.3262 12.4932 23.3925L18.6002 29.2668C18.7491 29.4101 18.9972 29.3408 19.0505 29.1411L21.1389 21.3097C21.1629 21.2195 21.2316 21.148 21.3208 21.1204L29.1315 18.7026C29.3255 18.6426 29.3872 18.3985 29.245 18.2535L23.5679 12.4628C23.5028 12.3964 23.4762 12.3013 23.4975 12.2107L25.3722 4.23826C25.4187 4.04062 25.2396 3.86382 25.0426 3.91284L17.1262 5.88243C17.0376 5.90448 16.9438 5.88045 16.8767 5.81849Z" stroke="black" stroke-width="0.135671"/>
<path d="M0.558594 10.955L14.4798 14.738C14.5742 14.7636 14.675 14.7365 14.7438 14.6671L25.0857 4.22412" stroke="black" stroke-width="0.135671"/>
<path d="M10.7715 0.619629L18.7712 28.9819" stroke="black" stroke-width="0.135671"/>
<path d="M5.30273 24.9717L14.6584 14.7655C14.7266 14.6911 14.8304 14.6607 14.9279 14.6866L29.1128 18.4455" stroke="black" stroke-width="0.135671"/>
<path d="M6.24126 17.3936L12.8344 23.703" stroke="black" stroke-width="0.135671"/>
<path d="M23.585 11.8745L21.0078 21.8164" stroke="black" stroke-width="0.135671"/>
<path d="M7.98356 8.45547L17.2071 5.86332" stroke="black" stroke-width="0.135671"/>
<path d="M21.5116 33.3152C20.8695 32.9674 20.8562 32.3759 21.482 31.9987L42.286 19.4583C42.8962 19.0904 43.8896 19.0628 44.5256 19.3959L55.6738 25.2356C56.3464 25.5879 56.354 26.2022 55.6904 26.581L34.1079 38.8991C33.4858 39.2542 32.5023 39.269 31.8814 38.9326L21.5116 33.3152Z" fill="black"/>
<path d="M51.8062 9.69648L28.6697 23.9898L20.1973 21.8717L21.1991 19.5342C21.2362 19.4474 21.3005 19.3751 21.3822 19.3279L44.7376 5.84759C44.873 5.7694 45.0399 5.7696 45.1752 5.84811L51.8062 9.69648Z" fill="#FFD979" stroke="black" stroke-width="0.150173" stroke-linejoin="round"/>
<mask id="mask0_961_4594" style="mask-type:alpha" maskUnits="userSpaceOnUse" x="19" y="6" width="33" height="18">
<path d="M51.2753 10.105L27.8054 23.9893L19.333 21.8712L21.5403 19.5957C21.5686 19.5666 21.6007 19.5416 21.6359 19.5213L43.7897 6.75985C43.914 6.68824 44.0655 6.68223 44.1951 6.74375L51.2753 10.105Z" fill="#FFD979"/>
</mask>
<g mask="url(#mask0_961_4594)">
<path opacity="0.9" d="M18.4678 14.4893H43.5205V18.2472H18.4678V14.4893Z" fill="white"/>
<rect opacity="0.9" x="24.7305" y="11.9839" width="25.0527" height="1.25264" fill="white"/>
</g>
<path d="M21.165 19.6063L18.3035 25.975C18.1988 26.2081 18.3916 26.6398 18.6663 26.7875L30.7414 33.2799C31.2735 33.566 31.6209 33.1342 31.4106 32.448L28.7084 23.628C28.6465 23.4258 28.5019 23.2373 28.3452 23.1543L21.4992 19.5291C21.3517 19.451 21.2212 19.4811 21.165 19.6063Z" fill="#C28C02" stroke="black" stroke-width="0.150173" stroke-linejoin="round"/>
<path d="M29.9848 32.8736L28.5708 23.5376C28.544 23.3604 28.6282 23.1847 28.7831 23.0946L51.8446 9.67822L54.7634 17.4793C54.9494 17.9765 54.7557 18.5358 54.3019 18.8114L30.6435 33.1815C30.3769 33.3434 30.0315 33.1819 29.9848 32.8736Z" fill="#F7CC60" stroke="black" stroke-width="0.150173" stroke-linejoin="round"/>
</svg>
