<svg width="30" height="24" viewBox="0 0 30 24" fill="none" xmlns="http://www.w3.org/2000/svg">
<path d="M27.189 3.33211L8.71872 14.7427L1.95508 13.0518L2.70521 11.3015C2.76709 11.1571 2.87406 11.0366 3.01012 10.9581L21.3562 0.368986C21.5818 0.238823 21.8597 0.239153 22.0849 0.369852L27.189 3.33211Z" fill="#FFD979" stroke="black" stroke-width="0.25" stroke-linejoin="round"/>
<mask id="mask0_676_28386" style="mask-type:alpha" maskUnits="userSpaceOnUse" x="1" y="0" width="26" height="15">
<path d="M26.7637 3.6586L8.02732 14.7427L1.26367 13.0518L2.98895 11.2732C3.03595 11.2248 3.08946 11.1831 3.14796 11.1494L20.6158 1.08719C20.8228 0.967994 21.075 0.957977 21.2908 1.06039L26.7637 3.6586Z" fill="#FFD979"/>
</mask>
<g mask="url(#mask0_676_28386)">
<path opacity="0.9" d="M0.572266 7.15857H20.5723V10.1586H0.572266V7.15857Z" fill="white"/>
<rect opacity="0.9" x="5.57227" y="5.15857" width="20" height="1" fill="white"/>
</g>
<path d="M2.6465 11.4211L0.635623 15.8966C0.461302 16.2846 0.782223 17.0033 1.23962 17.2492L9.41289 21.6437C10.2987 22.12 10.8769 21.4012 10.5269 20.2588L8.83759 14.7448C8.73445 14.4082 8.49387 14.0944 8.23288 13.9562L3.2028 11.2926C2.95728 11.1626 2.74009 11.2127 2.6465 11.4211Z" fill="#C28C02" stroke="black" stroke-width="0.25" stroke-linejoin="round"/>
<path d="M9.68269 21.273L8.67756 14.6363C8.63287 14.3412 8.77297 14.0488 9.03092 13.8987L27.2188 3.31763L29.2711 8.80285C29.5808 9.63057 29.2583 10.5616 28.503 11.0204L10.7793 21.7857C10.3356 22.0552 9.76043 21.7863 9.68269 21.273Z" fill="#F7CC60" stroke="black" stroke-width="0.25" stroke-linejoin="round"/>
</svg>
