<svg width="169" height="130" viewBox="0 0 169 130" fill="none" xmlns="http://www.w3.org/2000/svg">
<path d="M164.485 27.7235C164.485 30.0155 166.345 31.8759 168.642 31.8759V36.0331C166.345 36.0331 164.485 37.8936 164.485 40.1855C164.485 42.4775 166.345 44.3379 168.642 44.3379V48.4951C166.345 48.4951 164.485 50.3556 164.485 52.6475C164.485 54.9395 166.345 56.8047 168.642 56.8047V60.9571C166.345 60.9571 164.485 62.8176 164.485 65.1095C164.485 67.4015 166.345 69.2667 168.642 69.2667V73.4191C166.345 73.4191 164.485 75.2796 164.485 77.5763C164.485 79.8731 166.345 81.7287 168.642 81.7287V85.8859C166.345 85.8859 164.485 87.7416 164.485 90.0383C164.485 92.3351 166.345 94.1907 168.642 94.1907V98.3479C166.345 98.3479 164.485 100.208 164.485 102.5C164.485 104.792 166.345 106.653 168.642 106.653V114.545C160.342 114.545 153.61 121.277 153.61 129.582H15.0369C15.0369 126.015 13.795 122.74 11.7236 120.165C9.00486 116.784 4.85246 114.603 0.187009 114.545H0V106.643C2.1673 106.504 3.88389 104.701 3.88389 102.5C3.88389 101.019 3.10231 99.7145 1.93235 98.9856C1.36655 98.626 0.704853 98.4007 0 98.3575V94.1811C2.1673 94.0421 3.88389 92.2392 3.88389 90.0383C3.88389 87.8375 2.1673 86.0346 0 85.8955V81.7191C0.143848 81.7095 0.287692 81.6952 0.43154 81.6664C2.16251 81.3739 3.52906 80.0073 3.82155 78.2764H3.82635C3.86471 78.0462 3.88389 77.8113 3.88389 77.5763C3.88389 75.3707 2.1673 73.5678 0 73.4287V69.2571C2.1673 69.1181 3.88389 67.3152 3.88389 65.1095C3.88389 62.9039 2.1673 61.1058 0 60.9667V56.7951C2.1673 56.6561 3.88389 54.8532 3.88389 52.6475C3.88389 50.4419 2.1673 48.6438 0 48.5047V44.3284C2.1673 44.1893 3.88389 42.3912 3.88389 40.1855C3.88389 37.9799 2.1673 36.1818 0 36.0427V31.8664C2.1673 31.7273 3.88389 29.9244 3.88389 27.7235C3.88389 25.5227 2.1673 23.7198 0 23.5807V15.6787C8.3048 15.6787 15.0369 8.94665 15.0369 0.641846H153.61C153.61 8.94665 160.342 15.6787 168.642 15.6787V23.5711C166.345 23.5711 164.485 25.4316 164.485 27.7235V27.7235Z" fill="#FEF5DC"/>
<path opacity="0.2" d="M154.253 23.9117V106.308C147.338 106.308 141.728 111.918 141.728 118.842H26.238C26.238 115.869 25.2023 113.14 23.4761 110.992C21.2082 108.173 17.751 106.356 13.8623 106.308H13.7041V23.9117C20.628 23.9117 26.238 18.3017 26.238 11.3778H141.728C141.728 18.3017 147.338 23.9117 154.253 23.9117Z" stroke="#B67A10" stroke-width="1.3299" stroke-miterlimit="10"/>
<g clip-path="url(#clip0_1142_1870)">
<path d="M154.167 87.3324L145.932 129.642H95.2803L105.368 77.8343C105.946 74.8912 108.826 72.9488 111.774 73.5219L149.367 80.8366L149.854 80.9321C152.802 81.5053 154.741 84.3847 154.167 87.3324Z" fill="#D6C4A1"/>
<path d="M152.475 86.8548L144.144 129.642H93.4971L103.68 77.3567C104.253 74.409 107.134 72.4666 110.082 73.0398L148.162 80.4499C148.585 80.5318 148.99 80.6637 149.368 80.8366C151.615 81.8601 152.971 84.3302 152.475 86.8548V86.8548Z" fill="#ECDFBE"/>
<path d="M145.896 91.5037L138.47 129.642H99.1758L108.035 84.1345C108.608 81.1868 111.488 79.2444 114.437 79.8176L141.578 85.1034C144.526 85.6766 146.469 88.556 145.896 91.5037V91.5037Z" fill="#F1E6C9"/>
<path d="M118.186 91.3491L116.607 91.0398L116.83 89.8844C116.962 89.2157 116.935 88.6516 116.753 88.1967C116.571 87.7373 116.225 87.4189 115.706 87.2369L115.024 90.735L114.055 90.5485L114.209 89.3112L114.646 87.0686C114.196 87.0959 113.836 87.2915 113.582 87.6554C113.322 88.0148 113.131 88.5151 113.008 89.1474L112.785 90.3029L111.225 89.9981L112.508 83.4113L113.545 83.6114L113.09 85.9359C113.327 85.6766 113.623 85.4765 113.964 85.3309C114.296 85.1853 114.651 85.1125 115.028 85.1171L115.256 83.9435L116.307 84.1482L116.084 85.2854C116.839 85.5129 117.413 85.8813 117.809 86.3771C118.204 86.8775 118.441 87.4643 118.523 88.1376L123.223 85.8995L122.791 88.1239L118.427 90.0754L118.177 91.3491H118.186Z" fill="#D3C1AF"/>
<path fill-rule="evenodd" clip-rule="evenodd" d="M102.753 68.932C98.0478 61.5036 96.8647 53.634 99.7176 50.3178L101.501 48.5347C101.297 48.7712 101.115 49.0305 100.951 49.308C98.8349 52.9699 100.168 60.2481 104.536 67.1443C109.628 75.1822 116.94 79.7129 121.053 77.4521C121.13 77.4112 121.208 77.3657 121.285 77.3157C121.476 77.1928 121.658 77.0564 121.826 76.9108L120.043 78.694C119.875 78.8395 119.697 78.976 119.501 79.0988C115.438 81.669 107.94 77.1155 102.757 68.9275L102.753 68.932Z" fill="#D6C4A1"/>
<path d="M121.077 77.429C125.046 74.922 124.08 66.2733 118.921 58.1116C113.762 49.9499 106.363 45.3659 102.395 47.8729C98.4269 50.3799 99.3921 59.0286 104.551 67.1903C109.71 75.352 117.109 79.936 121.077 77.429Z" fill="#ECDFBE"/>
<path d="M115.415 64.0829L111.415 57.7008C111.061 57.1367 111.092 56.4726 111.488 56.2269C111.884 55.9767 112.498 56.236 112.849 56.8046L116.853 63.1868C117.208 63.7554 117.171 64.415 116.775 64.6606C116.38 64.9108 115.77 64.6515 115.415 64.0829V64.0829Z" fill="#D3BDA3"/>
<path d="M114.069 69.3733L108.062 59.7978C107.708 59.2337 107.739 58.5696 108.14 58.3239C108.536 58.0738 109.145 58.333 109.5 58.8971L115.502 68.4726C115.857 69.0366 115.825 69.7008 115.429 69.9464C115.033 70.1966 114.423 69.9373 114.069 69.3687V69.3733Z" fill="#D3BDA3"/>
<path fill-rule="evenodd" clip-rule="evenodd" d="M114.2 119.889C108.349 126.448 101.105 129.746 97.1329 127.913L94.9307 126.69C95.2128 126.822 95.5131 126.926 95.827 127.003C99.9267 128.036 106.565 124.756 112.003 118.665C118.336 111.569 120.689 103.295 117.385 99.9602C117.322 99.8965 117.258 99.8328 117.19 99.7737C117.017 99.6235 116.839 99.4871 116.653 99.3643L118.855 100.588C119.042 100.706 119.224 100.847 119.392 100.997C122.982 104.2 120.657 112.656 114.205 119.889H114.2Z" fill="#D6C4A1"/>
<path d="M112.03 118.642C118.466 111.444 120.846 103.073 117.346 99.9456C113.846 96.8182 105.791 100.119 99.3558 107.317C92.9202 114.516 90.5404 122.886 94.0403 126.014C97.5403 129.141 105.595 125.841 112.03 118.642Z" fill="#ECDFBE"/>
<path d="M106.06 109.044L101.019 114.644C100.573 115.14 99.9265 115.29 99.5807 114.976C99.2303 114.662 99.3122 114.003 99.7627 113.511L104.804 107.912C105.25 107.416 105.896 107.266 106.247 107.58C106.592 107.894 106.515 108.549 106.065 109.044H106.06Z" fill="#D3BDA3"/>
<path d="M111.521 108.89L103.958 117.287C103.512 117.783 102.866 117.933 102.52 117.619C102.17 117.305 102.252 116.65 102.698 116.154L110.26 107.757C110.706 107.261 111.352 107.111 111.698 107.425C112.048 107.739 111.966 108.394 111.516 108.89H111.521Z" fill="#D3BDA3"/>
</g>
<defs>
<clipPath id="clip0_1142_1870">
<rect width="61.8402" height="82.4536" fill="white" transform="translate(92.4277 47.1882)"/>
</clipPath>
</defs>
</svg>
