<svg width="165" height="127" viewBox="0 0 165 127" fill="none" xmlns="http://www.w3.org/2000/svg">
<path d="M160.933 27.1387C160.933 29.3811 162.753 31.2014 165 31.2014V35.2688C162.753 35.2688 160.933 37.0891 160.933 39.3315C160.933 41.574 162.753 43.3943 165 43.3943V47.4617C162.753 47.4617 160.933 49.2819 160.933 51.5244C160.933 53.7669 162.753 55.5918 165 55.5918V59.6545C162.753 59.6545 160.933 61.4748 160.933 63.7172C160.933 65.9597 162.753 67.7847 165 67.7847V71.8474C162.753 71.8474 160.933 73.6676 160.933 75.9148C160.933 78.162 162.753 79.9775 165 79.9775V84.0449C162.753 84.0449 160.933 85.8605 160.933 88.1077C160.933 90.3548 162.753 92.1704 165 92.1704V96.2378C162.753 96.2378 160.933 98.058 160.933 100.301C160.933 102.543 162.753 104.363 165 104.363V112.085C156.879 112.085 150.293 118.672 150.293 126.797H14.7121C14.7121 123.307 13.4971 120.103 11.4704 117.584C8.81039 114.276 4.74767 112.142 0.18297 112.085H0V104.354C2.1205 104.218 3.80001 102.454 3.80001 100.301C3.80001 98.8509 3.03531 97.5748 1.89062 96.8617C1.33704 96.5099 0.689631 96.2894 0 96.2472V92.161C2.1205 92.0249 3.80001 90.261 3.80001 88.1077C3.80001 85.9543 2.1205 84.1904 0 84.0543V79.9681C0.140741 79.9588 0.281479 79.9447 0.42222 79.9165C2.1158 79.6304 3.45285 78.2933 3.73902 76.5997H3.74371C3.78125 76.3746 3.80001 76.1447 3.80001 75.9148C3.80001 73.7568 2.1205 71.9928 0 71.8568V67.7753C2.1205 67.6392 3.80001 65.8753 3.80001 63.7172C3.80001 61.5592 2.1205 59.8 0 59.6639V55.5824C2.1205 55.4464 3.80001 53.6824 3.80001 51.5244C3.80001 49.3664 2.1205 47.6071 0 47.4711V43.3849C2.1205 43.2488 3.80001 41.4896 3.80001 39.3315C3.80001 37.1735 2.1205 35.4142 0 35.2782V31.192C2.1205 31.056 3.80001 29.292 3.80001 27.1387C3.80001 24.9853 2.1205 23.2214 0 23.0853V15.354C8.12544 15.354 14.7121 8.76729 14.7121 0.641846H150.293C150.293 8.76729 156.879 15.354 165 15.354V23.076C162.753 23.076 160.933 24.8962 160.933 27.1387V27.1387Z" fill="#FEF5DC"/>
<path opacity="0.2" d="M150.921 23.4091V104.026C144.157 104.026 138.668 109.514 138.668 116.289H25.6714C25.6714 113.38 24.6581 110.711 22.9692 108.609C20.7502 105.85 17.3677 104.072 13.563 104.026H13.4082V23.4091C20.1825 23.4091 25.6714 17.9202 25.6714 11.1459H138.668C138.668 17.9202 144.157 23.4091 150.921 23.4091Z" stroke="#B67A10" stroke-width="1.30118" stroke-miterlimit="10"/>
<g clip-path="url(#clip0_1142_1898)">
<path d="M146.647 84.5641L138.461 126.628H88.1162L98.1427 75.121C98.7171 72.1949 101.58 70.2638 104.51 70.8336L141.876 78.1059L142.36 78.2008C145.29 78.7707 147.217 81.6334 146.647 84.5641Z" fill="#D6C4A1"/>
<path d="M144.965 84.0892L136.684 126.628H86.3438L96.4652 74.6461C97.035 71.7155 99.8978 69.7844 102.828 70.3542L140.678 77.7215C141.098 77.8029 141.501 77.934 141.876 78.1059C144.11 79.1234 145.458 81.5792 144.965 84.0892V84.0892Z" fill="#ECDFBE"/>
<path d="M138.426 88.7113L131.045 126.628H91.9883L100.794 81.3848C101.364 78.4542 104.226 76.523 107.157 77.0929L134.134 82.3481C137.064 82.9179 138.996 85.7807 138.426 88.7113V88.7113Z" fill="#F1E6C9"/>
<path d="M110.887 88.562L109.318 88.2545L109.54 87.1057C109.671 86.4409 109.644 85.8801 109.463 85.4279C109.282 84.9711 108.938 84.6545 108.422 84.4736L107.744 87.9515L106.781 87.766L106.935 86.5359L107.369 84.3063C106.921 84.3334 106.564 84.5279 106.31 84.8897C106.053 85.247 105.863 85.7445 105.741 86.3731L105.519 87.5218L103.968 87.2188L105.243 80.6702L106.274 80.8692L105.822 83.1802C106.057 82.9224 106.351 82.7234 106.69 82.5787C107.02 82.434 107.373 82.3616 107.749 82.3661L107.975 81.1993L109.019 81.4028L108.798 82.5335C109.549 82.7596 110.118 83.1259 110.512 83.6189C110.905 84.1163 111.141 84.6997 111.222 85.3691L115.894 83.144L115.464 85.3555L111.127 87.2957L110.878 88.562H110.887Z" fill="#D3C1AF"/>
</g>
<defs>
<clipPath id="clip0_1142_1898">
<rect width="60.4031" height="56.3735" fill="white" transform="translate(86.3438 70.2548)"/>
</clipPath>
</defs>
</svg>
