<svg width="165" height="126" viewBox="0 0 165 126" fill="none" xmlns="http://www.w3.org/2000/svg">
<path d="M160.66 26.4519C160.66 28.6906 162.477 30.5077 164.72 30.5077V34.5682C162.477 34.5682 160.66 36.3854 160.66 38.6241C160.66 40.8627 162.477 42.6799 164.72 42.6799V46.7404C162.477 46.7404 160.66 48.5576 160.66 50.7962C160.66 53.0349 162.477 54.8568 164.72 54.8568V58.9126C162.477 58.9126 160.66 60.7298 160.66 62.9684C160.66 65.2071 162.477 67.0289 164.72 67.0289V71.0848C162.477 71.0848 160.66 72.9019 160.66 75.1453C160.66 77.3886 162.477 79.2011 164.72 79.2011V83.2616C162.477 83.2616 160.66 85.0741 160.66 87.3175C160.66 89.5608 162.477 91.3733 164.72 91.3733V95.4338C162.477 95.4338 160.66 97.251 160.66 99.4896C160.66 101.728 162.477 103.545 164.72 103.545V111.254C156.613 111.254 150.038 117.83 150.038 125.942H14.6872C14.6872 122.457 13.4742 119.258 11.4509 116.743C8.79545 113.442 4.73962 111.311 0.18266 111.254H0V103.536C2.1169 103.4 3.79356 101.639 3.79356 99.4896C3.79356 98.0425 3.03016 96.7686 1.88741 96.0567C1.33477 95.7054 0.688461 95.4853 0 95.4432V91.3639C2.1169 91.2281 3.79356 89.4671 3.79356 87.3175C3.79356 85.1678 2.1169 83.4068 0 83.271V79.1917C0.140502 79.1824 0.281002 79.1683 0.421504 79.1402C2.11221 78.8545 3.44699 77.5198 3.73268 75.8291H3.73736C3.77483 75.6043 3.79356 75.3748 3.79356 75.1453C3.79356 72.9909 2.1169 71.23 0 71.0941V67.0196C2.1169 66.8838 3.79356 65.1228 3.79356 62.9684C3.79356 60.8141 2.1169 59.0578 0 58.922V54.8474C2.1169 54.7116 3.79356 52.9506 3.79356 50.7962C3.79356 48.6419 2.1169 46.8856 0 46.7498V42.6705C2.1169 42.5347 3.79356 40.7784 3.79356 38.6241C3.79356 36.4697 2.1169 34.7134 0 34.5776V30.4984C2.1169 30.3625 3.79356 28.6016 3.79356 26.4519C3.79356 24.3022 2.1169 22.5412 0 22.4054V14.6872C8.11166 14.6872 14.6872 8.11166 14.6872 0H150.038C150.038 8.11166 156.613 14.6872 164.72 14.6872V22.3961C162.477 22.3961 160.66 24.2132 160.66 26.4519V26.4519Z" fill="#FEF5DC"/>
<path opacity="0.2" d="M150.665 22.7286V103.208C143.911 103.208 138.432 108.688 138.432 115.451H25.6272C25.6272 112.547 24.6156 109.882 22.9296 107.784C20.7143 105.03 17.3376 103.255 13.5393 103.208H13.3848V22.7286C20.1476 22.7286 25.6272 17.249 25.6272 10.4862H138.432C138.432 17.249 143.911 22.7286 150.665 22.7286Z" stroke="#B67A10" stroke-width="1.29897" stroke-miterlimit="10"/>
<g clip-path="url(#clip0_1142_1944)">
<path fill-rule="evenodd" clip-rule="evenodd" d="M141.955 107.54C140.366 114.685 137.779 121.04 134.68 126H129.885C132.984 121.04 135.571 114.685 137.161 107.54C141.125 89.7088 137.39 73.617 128.817 71.106C128.653 71.057 128.49 71.0124 128.322 70.9767C127.898 70.883 127.475 70.8206 127.051 70.7938H131.845C132.269 70.8206 132.693 70.883 133.117 70.9767C142.039 73.0015 145.995 89.3698 141.955 107.54V107.54Z" fill="#D6C4A1"/>
<path fill-rule="evenodd" clip-rule="evenodd" d="M137.16 107.54C135.571 114.685 132.984 121.04 129.885 126H104.799C102.822 119.221 102.68 109.975 104.852 100.208C108.526 83.6788 117.554 71.3602 125.872 70.7938H127.05C127.474 70.8206 127.898 70.883 128.322 70.9767C128.49 71.0124 128.653 71.057 128.816 71.106C137.39 73.617 141.125 89.7088 137.16 107.54V107.54Z" fill="#ECDFBE"/>
<path d="M118.402 96.9251L115.197 111.032C114.914 112.285 113.978 113.137 113.113 112.937C112.243 112.736 111.771 111.554 112.058 110.305L115.258 96.1937C115.545 94.9449 116.477 94.093 117.347 94.2937C118.212 94.4944 118.684 95.6718 118.402 96.9251V96.9251Z" fill="#D3BDA3"/>
<path d="M127.333 91.5685L122.53 112.731C122.247 113.985 121.311 114.836 120.446 114.631C119.576 114.431 119.104 113.253 119.387 112.004L124.194 90.8416C124.477 89.5883 125.413 88.7364 126.278 88.9371C127.148 89.1378 127.62 90.3153 127.333 91.5685V91.5685Z" fill="#D3BDA3"/>
</g>
<defs>
<clipPath id="clip0_1142_1944">
<rect width="40.268" height="55.2062" fill="white" transform="translate(103.268 70.7938)"/>
</clipPath>
</defs>
</svg>
