<svg width="111" height="111" viewBox="0 0 111 111" fill="none" xmlns="http://www.w3.org/2000/svg">
    <path
        d="M10.03 32.12V77.87C10.03 79.67 10.99 81.33 12.55 82.23L52.17 105.11C53.73 106.01 55.65 106.01 57.21 105.11L96.83 82.23C98.39 81.33 99.35 79.67 99.35 77.87V32.12C99.35 30.32 98.39 28.66 96.83 27.76L57.21 4.88C55.65 3.98 53.73 3.98 52.17 4.88L12.55 27.76C10.99 28.66 10.03 30.32 10.03 32.12Z"
        fill="#93B5FE" />
    <mask id="mask0_324_4709" style="mask-type:luminance" maskUnits="userSpaceOnUse" x="10" y="4"
        width="90" height="102">
        <path
            d="M10.03 32.12V77.87C10.03 79.67 10.99 81.33 12.55 82.23L52.17 105.11C53.73 106.01 55.65 106.01 57.21 105.11L96.83 82.23C98.39 81.33 99.35 79.67 99.35 77.87V32.12C99.35 30.32 98.39 28.66 96.83 27.76L57.21 4.88C55.65 3.98 53.73 3.98 52.17 4.88L12.55 27.76C10.99 28.66 10.03 30.32 10.03 32.12Z"
            fill="white" />
    </mask>
    <g mask="url(#mask0_324_4709)">
        <path opacity="0.67" d="M108.54 36.62L-2.88989 74.53V57.3L108.54 19.39V36.62Z"
            fill="white" />
        <path opacity="0.33" d="M108.54 89.47L-2.88989 127.38V110.14L108.54 72.23V89.47Z"
            fill="#495DB2" />
        <path opacity="0.67" d="M113.14 43.51L1.7002 81.42V76.83L113.14 38.92V43.51Z"
            fill="white" />
    </g>
    <path
        d="M17.8799 36.54V73.47C17.8799 75.2 18.7999 76.79 20.2999 77.66L52.2799 96.12C53.7799 96.98 55.6199 96.98 57.1099 96.12L89.0899 77.66C90.5899 76.8 91.5099 75.2 91.5099 73.47V36.54C91.5099 34.81 90.5899 33.22 89.0899 32.35L57.1099 13.89C55.6099 13.03 53.7699 13.03 52.2799 13.89L20.2999 32.35C18.7999 33.21 17.8799 34.81 17.8799 36.54Z"
        fill="#1F2C65" />
    <mask id="mask1_324_4709" style="mask-type:luminance" maskUnits="userSpaceOnUse" x="17" y="13"
        width="75" height="84">
        <path
            d="M17.8799 36.54V73.47C17.8799 75.2 18.7999 76.79 20.2999 77.66L52.2799 96.12C53.7799 96.98 55.6199 96.98 57.1099 96.12L89.0899 77.66C90.5899 76.8 91.5099 75.2 91.5099 73.47V36.54C91.5099 34.81 90.5899 33.22 89.0899 32.35L57.1099 13.89C55.6099 13.03 53.7699 13.03 52.2799 13.89L20.2999 32.35C18.7999 33.21 17.8799 34.81 17.8799 36.54Z"
            fill="white" />
    </mask>
    <g mask="url(#mask1_324_4709)">
        <path
            d="M23.6199 40.34V77.75C23.6199 79.5 24.5499 81.12 26.0699 81.99L58.4599 100.69C59.9699 101.56 61.8399 101.56 63.3599 100.69L95.7499 81.99C97.2599 81.12 98.1999 79.5 98.1999 77.75V40.34C98.1999 38.59 97.2699 36.97 95.7499 36.1L63.3599 17.4C61.8499 16.53 59.9799 16.53 58.4599 17.4L26.0699 36.1C24.5599 36.97 23.6199 38.59 23.6199 40.34Z"
            fill="#546CBA" />
        <mask id="mask2_324_4709" style="mask-type:luminance" maskUnits="userSpaceOnUse" x="23"
            y="16" width="76" height="86">
            <path
                d="M23.6199 40.34V77.75C23.6199 79.5 24.5499 81.12 26.0699 81.99L58.4599 100.69C59.9699 101.56 61.8399 101.56 63.3599 100.69L95.7499 81.99C97.2599 81.12 98.1999 79.5 98.1999 77.75V40.34C98.1999 38.59 97.2699 36.97 95.7499 36.1L63.3599 17.4C61.8499 16.53 59.9799 16.53 58.4599 17.4L26.0699 36.1C24.5599 36.97 23.6199 38.59 23.6199 40.34Z"
                fill="white" />
        </mask>
        <g mask="url(#mask2_324_4709)">
            <path opacity="0.12" d="M108.54 36.62L-2.89014 74.53V57.3L108.54 19.39V36.62Z"
                fill="white" />
            <path opacity="0.12" d="M113.14 43.51L1.69995 81.42V76.83L113.14 38.92V43.51Z"
                fill="white" />
            <path d="M99.3598 65.16H17.7898V99.99H99.3598V65.16Z" fill="#FBAC33" />
        </g>
        <path opacity="0.61"
            d="M91.3098 49.26C91.3098 68.93 70.7698 89.47 51.0998 89.47C45.0998 89.47 39.9798 88.65 35.0198 86.02L41.5798 104.21C41.5798 104.21 67.1898 105.55 68.3398 105.55C69.4898 105.55 95.9098 87.17 95.9098 87.17L109.7 67.64L91.3198 49.26H91.3098Z"
            fill="#222625" />
    </g>
    <path
        d="M14.81 40.07H13.87C13.87 34.62 9.45 30.2 4 30.2V29.26C9.45 29.26 13.87 24.84 13.87 19.39H14.81C14.81 24.84 19.23 29.26 24.68 29.26V30.2C19.23 30.2 14.81 34.62 14.81 40.07Z"
        fill="white" />
    <path
        d="M94.9699 95.21H94.5499C94.5499 92.79 92.5899 90.82 90.1599 90.82V90.4C92.5799 90.4 94.5499 88.44 94.5499 86.01H94.9699C94.9699 88.43 96.9299 90.4 99.3599 90.4V90.82C96.9399 90.82 94.9699 92.78 94.9699 95.21Z"
        fill="white" />
    <path
        d="M55.72 82.57C64.2583 82.57 71.18 80.0852 71.18 77.02C71.18 73.9548 64.2583 71.47 55.72 71.47C47.1817 71.47 40.26 73.9548 40.26 77.02C40.26 80.0852 47.1817 82.57 55.72 82.57Z"
        fill="#232326" />
    <path
        d="M33.4499 54.57L30.2799 47.51C28.0699 42.84 50.7299 32.83 53.1099 37.27L56.2799 44.33C56.6799 45.23 56.5899 46.3 56.0199 47.32L51.2499 55.83C50.9399 56.38 51.2499 57.07 51.8699 57.21L61.3999 59.3C62.5399 59.55 63.4099 60.2 63.8099 61.09L66.4599 67.01C66.4999 67.1 66.5599 67.19 66.6199 67.27C66.7099 67.38 66.7899 67.51 66.8499 67.64C67.4399 68.85 66.7099 70.53 65.0299 72.3C63.3499 74.06 60.7299 75.89 57.5699 77.36C54.4099 78.83 51.3099 79.66 48.8499 79.82C46.3899 79.98 44.5899 79.46 44.0099 78.26C43.9499 78.13 43.8999 78 43.8699 77.87C43.8499 77.8 43.8299 77.73 43.7999 77.66L40.9699 71.35C40.5699 70.45 40.6599 69.38 41.2299 68.36L45.9999 59.85C46.3099 59.3 45.9999 58.61 45.3799 58.47L35.8499 56.38C34.7099 56.13 33.8399 55.48 33.4399 54.59L33.4499 54.57Z"
        fill="#CEF8F5" />
    <path fill-rule="evenodd" clip-rule="evenodd"
        d="M51.41 35.89C52.3 36.04 53.05 36.4 53.42 37.09C53.42 37.09 53.42 37.1 53.43 37.11L56.6 44.17C57.06 45.19 56.94 46.38 56.32 47.48L51.55 55.99C51.36 56.33 51.55 56.77 51.94 56.85L61.47 58.94C62.7 59.21 63.67 59.91 64.13 60.93L66.78 66.85C66.8 66.91 66.84 66.96 66.9 67.03C67.01 67.16 67.1 67.31 67.17 67.46C67.52 68.18 67.46 69.02 67.12 69.87C66.78 70.72 66.15 71.62 65.29 72.52C63.57 74.32 60.92 76.17 57.72 77.66C54.53 79.14 51.38 79.99 48.87 80.15C47.61 80.23 46.5 80.15 45.62 79.87C44.73 79.59 44.04 79.11 43.69 78.39C43.62 78.24 43.56 78.09 43.52 77.93C43.5 77.87 43.49 77.82 43.47 77.78L40.64 71.47C40.18 70.45 40.3 69.26 40.92 68.16L45.69 59.65C45.88 59.31 45.69 58.87 45.3 58.79L35.77 56.7C34.54 56.43 33.57 55.73 33.11 54.71L29.94 47.65C29.6 46.92 29.76 46.13 30.2 45.36C30.64 44.6 31.39 43.81 32.33 43.03C34.21 41.48 36.94 39.91 39.81 38.64C42.67 37.37 45.69 36.37 48.15 35.98C49.38 35.78 50.5 35.73 51.39 35.88L51.41 35.89ZM30.83 45.72C30.45 46.38 30.39 46.92 30.59 47.36L33.76 54.43C34.11 55.21 34.87 55.79 35.93 56.02L45.46 58.11C46.31 58.3 46.73 59.25 46.31 60L41.54 68.51C41.01 69.45 40.94 70.41 41.29 71.19L44.12 77.5C44.16 77.6 44.19 77.69 44.21 77.77C44.24 77.88 44.28 77.99 44.33 78.09C44.57 78.58 45.06 78.96 45.84 79.2C46.61 79.44 47.63 79.53 48.84 79.45C51.25 79.29 54.3 78.48 57.44 77.02C60.57 75.56 63.15 73.76 64.79 72.04C65.61 71.18 66.18 70.35 66.48 69.61C66.78 68.87 66.79 68.26 66.55 67.77C66.5 67.66 66.43 67.56 66.36 67.47C66.29 67.38 66.21 67.27 66.15 67.14L63.5 61.22C63.15 60.44 62.39 59.86 61.33 59.63L51.8 57.54C50.95 57.35 50.53 56.4 50.95 55.65L55.72 47.14C56.25 46.2 56.32 45.24 55.97 44.46L52.81 37.41C52.58 37 52.1 36.71 51.31 36.58C50.52 36.45 49.49 36.49 48.3 36.68C45.91 37.06 42.96 38.03 40.13 39.29C37.3 40.55 34.63 42.08 32.82 43.58C31.91 44.33 31.23 45.06 30.85 45.72H30.83Z"
        fill="#1A1A1A" />
    <path
        d="M45.1 77.3L42.81 71.93C42.2 70.5 43.19 68.89 44.75 68.8L63.04 67.71C64.37 67.63 65.13 69.18 64.2 70.14C59.96 74.54 55.92 76.93 46.67 78.19C46.01 78.28 45.37 77.91 45.11 77.3H45.1Z"
        fill="#01656B" />
    <path
        d="M50.7501 68.15C50.7501 69.23 49.8701 70.1 48.8001 70.1C47.7301 70.1 46.8501 69.22 46.8501 68.15C46.8501 67.08 47.7301 66.2 48.8001 66.2C49.8701 66.2 50.7501 67.08 50.7501 68.15Z"
        fill="#01656B" />
    <path
        d="M53.12 63.6C53.12 64.32 52.54 64.9 51.82 64.9C51.1 64.9 50.52 64.32 50.52 63.6C50.52 62.88 51.1 62.3 51.82 62.3C52.54 62.3 53.12 62.88 53.12 63.6Z"
        fill="#01656B" />
    <path
        d="M56.33 68.81C56.33 69.53 55.75 70.11 55.03 70.11C54.31 70.11 53.73 69.53 53.73 68.81C53.73 68.09 54.31 67.51 55.03 67.51C55.75 67.51 56.33 68.09 56.33 68.81Z"
        fill="#01656B" />
    <path fill-rule="evenodd" clip-rule="evenodd"
        d="M51.83 38.19C51.95 38.29 51.95 38.47 51.85 38.59C48.31 42.5 43.83 44.83 39.92 46.12C37.96 46.77 36.14 47.15 34.64 47.35C33.15 47.54 31.95 47.54 31.26 47.41C31.11 47.38 31.01 47.23 31.04 47.08C31.07 46.93 31.22 46.83 31.37 46.86C31.98 46.98 33.1 46.99 34.57 46.8C36.03 46.61 37.82 46.23 39.74 45.6C43.59 44.33 47.97 42.04 51.43 38.23C51.53 38.11 51.71 38.11 51.83 38.21V38.19Z"
        fill="black" />
    <path
        d="M50.1101 49.14L38.7701 52.82C37.6501 53.19 37.7701 54.81 38.9401 55L48.0301 56.47C48.5401 56.55 49.0401 56.28 49.2401 55.81L51.4901 50.65C51.8801 49.76 51.0301 48.83 50.1101 49.13V49.14Z"
        fill="#01656B" />
    <path
        d="M50.8901 59.65C50.8901 60.27 50.3901 60.78 49.7601 60.78C49.1301 60.78 48.6301 60.28 48.6301 59.65C48.6301 59.02 49.1301 58.52 49.7601 58.52C50.3901 58.52 50.8901 59.02 50.8901 59.65Z"
        fill="#01656B" />
</svg>
