<svg width="185" height="64" viewBox="0 0 185 64" fill="none" xmlns="http://www.w3.org/2000/svg">
<path d="M16.7408 15.4463L31.0665 23.7172V40.2591L16.7408 48.53L2.41516 40.2591V23.7172L16.7408 15.4463Z" fill="#6680D0"/>
<path d="M35.9645 10.3066L54.7414 21.1475V42.8293L35.9645 53.6702L17.1875 42.8293V21.1475L35.9645 10.3066Z" fill="#84A3EF"/>
<path d="M65.4308 5.20312L88.6269 18.5954V45.3799L65.4308 58.7722L42.2347 45.3799V18.5954L65.4308 5.20312Z" fill="#93B5FE"/>
<path d="M168.355 15.4463L154.029 23.7172V40.2591L168.355 48.53L182.68 40.2591V23.7172L168.355 15.4463Z" fill="#6680D0"/>
<path d="M149.131 10.3066L130.354 21.1475V42.8293L149.131 53.6702L167.908 42.8293V21.1475L149.131 10.3066Z" fill="#84A3EF"/>
<path d="M119.665 5.20312L96.4686 18.5954V45.3799L119.665 58.7722L142.861 45.3799V18.5954L119.665 5.20312Z" fill="#93B5FE"/>
<path d="M96.8261 5.2627L122.074 19.8397V48.9937L96.8261 63.5707L71.578 48.9937V19.8397L96.8261 5.2627Z" fill="#1A1A1A"/>
<path d="M92.2163 0.405273L118.968 15.8506V46.7413L92.2163 62.1866L65.4642 46.7413V15.8506L92.2163 0.405273Z" fill="#EFAF4E"/>
<path d="M68.5379 17.6227L92.2152 3.95266L115.892 17.6227V44.9629L92.2152 58.6329L68.5379 44.9629V17.6227Z" fill="#FFD979" stroke="black" stroke-width="0.738359"/>
</svg>
