<svg width="42" height="35" viewBox="0 0 42 35" fill="none" xmlns="http://www.w3.org/2000/svg">
    <g style="mix-blend-mode:multiply" opacity="0.7">
        <ellipse cx="21.688" cy="26.6547" rx="19.5318" ry="7.32646"
            transform="rotate(1.334 21.688 26.6547)" fill="black" />
    </g>
    <ellipse cx="16.0017" cy="26.8328" rx="8.8245" ry="2.73011"
        transform="rotate(1.334 16.0017 26.8328)" fill="#232326" />
    <path
        d="M29.2122 15.5296C29.2122 15.5296 30.5176 15.0787 31.3499 14.7498C31.5985 14.5762 31.9295 14.4654 32.2622 14.384C32.8551 14.1684 33.4418 14.0023 33.6304 13.9321C33.6968 14.1692 32.9756 14.2093 32.2622 14.384C32.0751 14.452 31.8873 14.525 31.7112 14.6014C31.6084 14.646 31.4854 14.6963 31.3499 14.7498C31.1589 14.8833 31.0165 15.0539 30.9594 15.2768C30.5959 16.6961 32.5249 19.0568 31.9377 21.4548C31.9377 21.4548 26.0013 28.4075 21.8563 28.9424C17.7113 29.4772 11.8973 22.0025 11.9804 21.5871C12.0843 21.0679 19.3335 14.6071 19.3335 14.6071L25.1319 9.70898L29.2122 15.5296Z"
        fill="#232326" />
    <path
        d="M3.70179 24.9735L3.68083 24.9113L3.64189 24.8584C2.03491 22.6763 -2.05728 15.0165 2.52766 6.84522C4.8053 2.78601 8.87383 0.776425 13.0472 0.463739C17.2312 0.150252 21.4555 1.54796 24.0044 4.22142C24.1699 4.39495 24.3401 4.58294 24.5147 4.77584C24.9127 5.21548 25.3338 5.68063 25.7744 6.05816C26.4284 6.61846 27.2009 7.05989 28.1757 7.05989C28.9011 7.05989 29.6889 6.9036 30.3539 6.77168C30.5876 6.72532 30.8061 6.68196 31.0014 6.64947C31.406 6.58215 31.6956 6.56177 31.8861 6.59741C31.9741 6.61388 32.0144 6.63795 32.0318 6.65249C32.0442 6.66278 32.0632 6.68234 32.0772 6.73958C32.0888 6.78696 32.092 6.92307 31.8198 7.18358C31.5568 7.43522 31.1173 7.72013 30.4942 8.03231C29.2547 8.65335 27.4026 9.32731 25.1076 10.0462L25.0522 10.0636L25.0036 10.0953C24.1344 10.6623 23.1044 11.194 21.9905 11.769C21.4036 12.072 20.7934 12.387 20.1712 12.7255C18.3951 13.6917 16.5677 14.8283 15.1192 16.3573C14.9674 16.5175 14.8048 16.6898 14.6325 16.8723C13.0279 18.5721 10.5878 21.157 8.35129 23.0625C7.10575 24.1237 5.96304 24.9389 5.08544 25.2888C4.64362 25.4649 4.33119 25.4973 4.12804 25.4456C3.96249 25.4035 3.80858 25.2906 3.70179 24.9735Z"
        fill="#495DB2" stroke="black" stroke-width="0.840755" />
    <path
        d="M18.505 9.84561C20.0294 11.311 22.0229 11.1685 22.8291 10.9141L17.992 13.6617C6.14827 20.9887 5.08258 23.8403 5.54675 25.5957C5.54675 25.5957 4.36959 26.4222 3.93128 25.7335C3.49298 25.0447 -3.68383 15.5834 3.48051 6.48742C7.96314 0.796197 16.5994 8.01387 18.505 9.84561Z"
        fill="#BBC4EB" />
    <path
        d="M15.5321 13.7065C20.4083 10.1819 32.2533 5.64636 32.4941 6.6812C32.6814 7.55695 29.7543 8.93336 26.7417 9.89314C24.2302 10.6933 25.1236 10.9296 25.1236 10.9296C20.795 15.3681 4.91774 28.2472 4.29414 25.6697C3.56006 22.6356 12.1791 16.1301 15.5321 13.7065Z"
        fill="#232326" />
    <path
        d="M4.12556 22.6589C2.51585 20.6158 5.01991 17.2608 6.36134 16.673C9.32826 14.4596 13.2366 15.6382 13.2366 15.6382C13.2366 15.6382 14.5692 18.6694 17.6597 20.6558C17.5651 26.8902 17.6699 29.2582 18.3236 30.3368C4.4134 29.0518 6.13771 25.2129 4.12556 22.6589Z"
        fill="white" />
    <path
        d="M17.5293 29.481C17.5293 29.481 17.2271 25.8981 17.2386 22.6215L17.1885 21.1919C17.1885 21.1919 16.4203 20.6478 15.4278 19.6045C14.4353 18.5613 12.9785 17.2812 12.9785 17.2812C10.7832 15.3423 9.09256 17.0521 6.75979 23.132C4.42701 29.212 17.5293 29.481 17.5293 29.481Z"
        fill="#232326" />
    <path
        d="M9.58962 13.278C11.8682 12.9155 13.1436 15.1473 13.6571 16.5666L12.8956 17.1897C12.359 16.5551 10.8497 15.4381 9.105 16.7397C7.3603 18.0413 6.51606 18.0641 7.24302 18.6988L6.47818 20.4962C6.19801 20.2103 6.02426 20.0053 5.92208 19.862C4.3747 20.5433 4.65205 21.9863 4.98557 22.6246L5.96767 25.5822L8.83534 28.2694L4.20294 25.9231C3.53368 25.7558 1.7281 21.825 1.43734 20.011C1.13492 18.1244 8.06644 13.5203 9.58962 13.278Z"
        fill="white" />
    <circle cx="0.907703" cy="0.907703" r="0.907703" transform="matrix(-1 0 0 1 11.1094 13.8906)"
        fill="#444444" />
    <circle cx="0.931809" cy="0.931809" r="0.931809" transform="matrix(-1 0 0 1 4.32812 19.0913)"
        fill="#444444" />
    <path fill-rule="evenodd" clip-rule="evenodd"
        d="M30.6889 14.7159L17.8342 20.2085C17.477 20.3612 17.2523 20.7196 17.2706 21.1076L17.6729 29.6532C17.6037 31.6471 25.8137 30.9455 29.9792 30.3455C33.3855 29.7224 34.4448 28.632 34.4968 28.1646L36.017 24.3431C36.2591 23.7346 36.3837 23.0857 36.4098 22.4314C36.4292 21.9441 36.4568 21.3762 36.4839 20.8173L36.4839 20.8169L36.4839 20.8165C36.5368 19.7279 36.5881 18.6736 36.5738 18.3161C36.5488 17.692 36.1188 15.0848 35.8441 13.5246C35.7919 13.2282 35.5841 13.0135 35.2888 13.0715C34.2558 13.2746 31.93 14.1921 30.6889 14.7159ZM18.1062 28.7391L17.9278 24.7538C20.0682 24.543 26.3383 22.7847 31.8658 20.5668V24.9504C29.8266 25.749 27.1867 26.6534 24.2026 27.3901C24.0779 27.4208 23.9149 27.4616 23.7226 27.5097C22.2525 27.8772 19.0645 28.6742 18.1062 28.7391ZM18.1375 29.2788C18.2238 29.7695 18.7315 30.4331 20.4598 30.4331C20.5822 30.4331 20.7337 30.434 20.9109 30.4352C22.5944 30.4457 26.5904 30.4707 29.8141 29.8336L31.7093 25.7813C26.9676 27.4753 21.9629 28.4971 18.9796 29.1061C18.6774 29.1678 18.3959 29.2253 18.1375 29.2788ZM32.2165 25.5971L30.4517 29.6962C32.0348 29.3247 33.3636 28.7693 34.0297 27.9407L35.7119 24.1318C34.5941 24.6671 33.4164 25.1541 32.2165 25.5971ZM35.8972 23.1602L36.124 18.8364L36.101 18.683C34.9284 19.2703 33.631 19.8475 32.2812 20.3987V24.7859C34.0702 24.0696 35.341 23.4578 35.8972 23.1602ZM22.6927 23.1284C21.666 23.5423 18.9114 24.1273 17.902 24.1771L17.769 21.2075C17.7634 21.0814 17.8326 20.9638 17.9459 20.9082C20.9171 19.4477 24.0944 18.1016 27.1236 16.8632C28.2639 16.3253 29.5306 15.7576 30.7222 15.2505L31.8283 20.0732C29.3187 21.0919 26.0098 22.292 22.6927 23.1284ZM32.2428 19.9037C34.1878 19.1018 35.5867 18.4371 36.0276 18.1934L35.3697 13.8079C35.3541 13.7039 35.2894 13.6188 35.1846 13.6283C34.6466 13.6767 32.9941 14.2941 31.0889 15.0954L32.2428 19.9037Z"
        fill="white" />
    <path d="M24.8815 10.9176L25.6873 10.6245L29.2969 15.6492L28.1182 16.0834L24.8815 10.9176Z"
        fill="white" />
</svg>
