<svg width="105" height="99" viewBox="0 0 105 99" fill="none" xmlns="http://www.w3.org/2000/svg">
<path d="M0.865723 83.9099L45.8717 55.5291L67.2786 68.3769L40.1193 98.8187L22.191 97.8214L0.865723 83.9099Z" fill="black"/>
<path d="M82.7038 63.7419L104.12 50.8941L82.7038 38.0464L61.2969 50.8941L82.7038 63.7419Z" fill="white" stroke="black" stroke-width="0.750318" stroke-miterlimit="10"/>
<path d="M82.7041 72.3102L104.12 59.4625V50.8943L82.7041 63.7421V72.3102Z" fill="#FFCCBF" stroke="black" stroke-width="0.750318" stroke-miterlimit="10"/>
<path d="M39.8813 46.614V72.3095L61.2973 85.1573V59.4618L39.8813 46.614Z" fill="#F3F1EB" stroke="black" stroke-width="0.750318" stroke-miterlimit="10"/>
<path d="M61.2969 59.4618L82.7038 46.614V72.3095L61.2969 85.1573V59.4618Z" fill="#FFCCBF" stroke="black" stroke-width="0.750318" stroke-miterlimit="10"/>
<path d="M39.8813 46.6139L61.2973 33.7661L82.7042 46.6139L61.2973 59.4616L39.8813 46.6139Z" fill="white" stroke="black" stroke-width="0.750318" stroke-miterlimit="10"/>
<ellipse cx="63.1998" cy="46.419" rx="8.3956" ry="4.09542" fill="black"/>
<path d="M39.8808 55.1724L61.2967 68.0202L39.8808 80.8679L18.4648 68.0202L39.8808 55.1724Z" fill="white" stroke="black" stroke-width="0.750318" stroke-miterlimit="10"/>
<path d="M61.2973 85.1567L39.8813 98.0045V80.8681L61.2973 68.0204V85.1567Z" fill="#FFCCBF" stroke="black" stroke-width="0.750318" stroke-miterlimit="10"/>
<path d="M18.4648 68.0204V85.1567L39.8808 98.0045V80.8681L18.4648 68.0204Z" fill="#F3F1EB" stroke="black" stroke-width="0.750318" stroke-miterlimit="10"/>
<path d="M55.1952 34.4248L54.0456 39.1771L52.6946 44.7709C52.4694 45.7071 54.3894 47.6863 52.9317 46.7974L48.7245 44.2376L48.523 44.1191C48.049 43.7754 47.8356 43.0169 48.0963 41.9147L50.597 31.5568C50.6325 31.3909 50.668 31.2249 50.6799 31.059L54.3893 32.0308C55.1597 32.2323 55.4796 33.1922 55.1952 34.4129V34.4248Z" fill="#B17518" stroke="black" stroke-width="0.492443" stroke-miterlimit="10"/>
<path d="M65.4338 3.81146C64.8175 3.50333 63.9168 3.85887 63.1465 4.61735C62.9687 4.79511 62.7791 5.00844 62.6251 5.24546C62.2695 5.74321 61.9969 6.32392 61.831 6.97574L59.3304 17.3219C59.1171 18.1988 58.6193 19.0758 57.9912 19.7039C57.7542 19.941 57.4935 20.1424 57.2327 20.2965L49.1265 24.9777C48.8421 25.1437 48.5813 25.3451 48.3443 25.5822C47.5503 26.3762 47.0525 27.4783 46.9459 28.4383C46.8748 29.0664 49.9324 31.6263 47.2659 29.979L43.2365 27.4783C41.7432 27.0873 42.2054 24.2785 43.7579 22.726C43.9949 22.489 44.2557 22.2875 44.5401 22.1216L52.6463 17.4404C52.907 17.2863 53.1678 17.0848 53.4048 16.8478C54.0211 16.2315 54.5307 15.3546 54.744 14.4657L57.2446 4.11959C57.4698 3.1715 57.9794 2.34191 58.5601 1.7612C59.3186 1.00272 60.2074 0.659038 60.8237 0.943468L61.0251 1.07383L65.4338 3.81146Z" fill="white" stroke="black" stroke-width="0.492443" stroke-miterlimit="10"/>
<path d="M80.2476 7.68724C79.8684 7.49762 79.3588 7.52132 78.7425 7.87686L74.3576 10.4012L70.6363 12.5462C69.6882 13.0914 68.8349 12.8781 68.5386 12.0011L67.4839 8.86051L74.1443 5.00886C74.7487 4.65333 75.2583 4.61777 75.6375 4.80739H75.6494L75.7916 4.9022L80.2476 7.66354V7.68724Z" fill="#B17518" stroke="black" stroke-width="0.492443" stroke-miterlimit="10"/>
<path d="M73.4809 21.0325C72.7106 22.1228 72.3906 23.462 72.675 24.339L75.1756 31.7934C75.5904 33.0141 74.8438 34.7325 73.8246 35.7636C73.1965 36.3917 72.4498 36.7709 71.7862 36.5932L65.2206 34.8748C64.6162 34.7207 63.8459 35.0525 63.1703 35.728C62.9807 35.9177 62.8029 36.131 62.637 36.368L56.0833 45.6594C55.9055 45.9201 55.7159 46.1453 55.5263 46.3349C54.8271 47.0341 54.1042 47.2948 53.5472 47.1763L52.9427 46.8089C52.6109 46.4178 52.4806 45.7186 52.7057 44.7824L54.0568 39.1886L55.2063 34.4363C55.5026 33.2156 55.1826 32.2556 54.4004 32.0542L50.691 31.0824L47.8467 30.3357C47.6097 30.2765 47.4201 30.158 47.2779 29.9802C46.9816 29.6247 46.8749 29.0677 46.9579 28.4395C47.0645 27.4796 47.5741 26.3774 48.3563 25.5834C48.5933 25.3464 48.8541 25.1449 49.1385 24.979L57.2447 20.2978C57.5055 20.1437 57.7662 19.9422 58.0032 19.7052C58.6195 19.0771 59.1291 18.2119 59.3424 17.3231L61.843 6.97698C61.9971 6.32517 62.2815 5.7326 62.637 5.24671C62.7911 5.02153 62.9807 4.80821 63.1585 4.61859C63.917 3.86011 64.8177 3.50458 65.4458 3.81271L65.5998 3.90752C65.7894 4.04973 65.9435 4.26305 66.0384 4.55933L67.4842 8.87318L68.5389 12.0138C68.8352 12.8907 69.6766 13.1159 70.6366 12.5589L74.3579 10.4138L78.7429 7.88953C79.3591 7.53399 79.8806 7.49844 80.248 7.69991L80.3427 7.75916C81.1723 8.30432 81.2198 10.082 80.0346 11.753L73.4691 21.0444L73.4809 21.0325Z" fill="#FFD979" stroke="black" stroke-width="0.492443" stroke-miterlimit="10"/>
</svg>
