<svg width="18" height="18" viewBox="0 0 18 18" fill="none" xmlns="http://www.w3.org/2000/svg">
<g clip-path="url(#clip0_866_14771)">
<path d="M17.5147 7.82912L17.5134 7.82789L10.1709 0.485613C9.85789 0.172441 9.44178 0 8.9992 0C8.55658 0 8.14048 0.172336 7.82737 0.485473L0.488612 7.82402C0.486151 7.82648 0.48369 7.82909 0.481229 7.83158C-0.161498 8.47796 -0.160373 9.52675 0.484393 10.1715C0.778932 10.4662 1.16801 10.6369 1.58398 10.6548C1.60085 10.6564 1.6179 10.6572 1.63506 10.6572H1.9277V16.0607C1.9277 17.13 2.79767 18 3.8672 18H6.73982C7.03098 18 7.26716 17.7639 7.26716 17.4727V13.2363C7.26716 12.7484 7.66407 12.3515 8.15201 12.3515H9.84636C10.3343 12.3515 10.7312 12.7484 10.7312 13.2363V17.4727C10.7312 17.7639 10.9672 18 11.2585 18H14.1312C15.2007 18 16.0707 17.13 16.0707 16.0608V10.6573H16.342C16.7845 10.6573 17.2006 10.4849 17.5139 10.1718C18.1593 9.52597 18.1596 8.4754 17.5147 7.82912Z" fill="#A6A6AC"/>
</g>
<defs>
<clipPath id="clip0_866_14771">
<rect width="18" height="18" fill="white"/>
</clipPath>
</defs>
</svg>
