<svg width="394" height="82" viewBox="0 0 394 82" fill="none" xmlns="http://www.w3.org/2000/svg">
<g clip-path="url(#clip0_102_210)">
<path d="M301.242 0.189941H389.242C393.142 0.189941 393.142 0.189954 393.142 4.13995C393.142 21.92 393.052 39.7 393.142 57.49C393.142 63.64 393.452 69.7899 393.412 75.9399C393.424 77.0974 393.32 78.2532 393.102 79.39C393.003 80.0436 392.687 80.6449 392.204 81.0967C391.721 81.5485 391.1 81.8244 390.442 81.8799C389.599 81.985 388.75 82.0251 387.902 81.9999H213.352C209.182 81.9999 209.152 81.95 209.152 77.71C209.152 53.1633 209.152 28.61 209.152 4.04996C209.152 0.199957 209.152 0.199951 213.002 0.199951L301.242 0.189941ZM341.742 49.1899C344.282 49.1899 346.822 49.1899 349.362 49.1899C351.072 49.1899 351.362 48.84 351.362 47.11C351.37 44.6355 350.769 42.1971 349.612 40.0099C348.573 37.9164 346.79 36.2865 344.612 35.4399C342.08 34.4575 339.287 34.3754 336.702 35.2075C334.116 36.0395 331.895 37.7351 330.412 40.0099C329.068 42.1361 328.224 44.5393 327.944 47.0388C327.663 49.5382 327.953 52.0688 328.792 54.4399C329.28 56.0712 330.148 57.5635 331.325 58.7942C332.502 60.0249 333.954 60.9591 335.562 61.52C339.599 62.9299 343.995 62.9299 348.032 61.52C349.392 61.1 349.692 60.44 349.352 59.3C349.012 58.16 348.092 58.16 347.132 58.45C344.893 59.0401 342.565 59.2197 340.262 58.9799C338.281 58.8639 336.406 58.0498 334.969 56.6823C333.532 55.3147 332.626 53.4822 332.412 51.5099C332.212 49.6299 332.412 49.31 334.322 49.27C336.812 49.14 339.282 49.14 341.742 49.14V49.1899ZM368.582 49.1899C371.112 49.1899 373.652 49.1899 376.192 49.1899C377.772 49.1899 378.112 48.8899 378.192 47.5699C378.463 44.3165 377.527 41.0769 375.562 38.4699C371.012 32.6399 361.812 34.02 358.012 39.02C355.612 42.1813 354.484 46.1278 354.852 50.08C355.162 54.19 356.482 57.97 360.182 60.33C364.992 63.39 370.182 62.9099 375.302 61.3799C376.302 61.0899 376.562 60.14 376.232 59.11C375.902 58.08 375.232 58.0599 374.392 58.3199C372.09 58.9592 369.69 59.1694 367.312 58.9399C365.368 58.8654 363.512 58.114 362.064 56.8157C360.616 55.5174 359.667 53.7538 359.382 51.83C359.052 49.83 359.462 49.2799 361.452 49.2299C363.812 49.1399 366.202 49.14 368.582 49.14V49.1899ZM279.852 57.95C280.025 58.1167 280.162 58.3172 280.255 58.539C280.348 58.7609 280.395 58.9995 280.392 59.24C280.416 59.7006 280.476 60.1587 280.572 60.61C280.872 61.77 281.442 62.06 282.832 62.02C284.032 61.97 284.462 61.34 284.432 60.24C284.432 59.93 284.432 59.6299 284.432 59.3199C284.432 52.3199 284.432 45.3199 284.432 38.3199C284.432 37.6999 284.432 37.0899 284.352 36.4799C284.328 36.2527 284.239 36.0373 284.095 35.8598C283.951 35.6823 283.759 35.5503 283.542 35.4799C281.442 34.6399 279.922 35.6099 279.912 37.8799C279.912 42.1866 279.912 46.4933 279.912 50.8C279.959 52.0315 279.755 53.2598 279.312 54.4099C278.714 55.7947 277.707 56.9629 276.425 57.7569C275.142 58.5508 273.648 58.9323 272.142 58.8499C269.292 58.5599 267.512 56.6899 266.842 53.3199C266.575 51.9631 266.448 50.5826 266.462 49.2C266.462 45.35 266.462 41.51 266.462 37.67C266.462 36.92 266.592 36.0899 265.782 35.5999C265.413 35.3424 264.98 35.1923 264.53 35.1665C264.081 35.1407 263.633 35.2401 263.237 35.4537C262.841 35.6673 262.512 35.9866 262.287 36.3762C262.062 36.7657 261.949 37.2101 261.962 37.6599C261.962 42.1899 261.962 46.7299 261.962 51.2599C262.005 52.6418 262.189 54.0156 262.512 55.36C263.882 61.36 269.462 64.14 275.162 61.71C277.003 60.8448 278.611 59.5523 279.852 57.9399V57.95ZM228.642 47.95C228.812 50.34 228.382 53.35 228.942 56.33C229.862 61.16 233.492 63.48 238.252 62.21C239.672 61.83 239.812 61.54 239.702 60.11C239.612 58.94 238.982 58.8299 238.002 58.8199C234.672 58.7699 233.312 57.5799 233.212 54.2599C233.062 49.6499 233.122 45.03 233.212 40.42C233.212 38.87 233.562 38.6299 235.212 38.5399C236.362 38.4799 237.512 38.5399 238.672 38.4799C238.865 38.497 239.059 38.4713 239.241 38.4048C239.423 38.3383 239.588 38.2326 239.724 38.0952C239.861 37.9578 239.965 37.792 240.031 37.6096C240.096 37.4273 240.12 37.2328 240.102 37.0399C240.102 36.0399 239.752 35.4 238.672 35.36C237.592 35.32 236.672 35.36 235.672 35.31C233.432 35.25 233.242 35.0499 233.192 32.7299C233.192 31.4299 233.192 30.12 233.192 28.81C233.192 28.03 232.762 27.81 231.972 27.87C229.292 28.2 228.772 28.7599 228.742 31.5699C228.742 31.8799 228.742 32.19 228.742 32.49C228.742 34.99 228.742 34.99 226.272 35.33C224.872 35.53 224.362 36.2399 224.682 37.4999C224.932 38.4999 225.742 38.4299 226.502 38.4999C228.602 38.7399 228.692 38.82 228.732 40.87C228.772 42.92 228.642 45.2 228.642 47.96V47.95ZM297.342 62.4999C298.962 62.5218 300.572 62.2298 302.082 61.64C303.382 61.2537 304.542 60.4981 305.421 59.4648C306.3 58.4316 306.859 57.1653 307.032 55.8199C307.482 52.6699 306.592 50.05 303.732 48.3C302.547 47.5842 301.306 46.9655 300.022 46.45C299.093 46.0871 298.188 45.6662 297.312 45.1899C296.527 44.8492 295.884 44.2484 295.491 43.4889C295.097 42.7293 294.977 41.8574 295.152 41.02C295.333 40.1797 295.793 39.4255 296.458 38.8807C297.122 38.3358 297.952 38.0324 298.812 38.02C300.51 37.8109 302.234 38.0487 303.812 38.71C304.812 39.16 305.372 38.8599 305.712 37.8199C306.152 36.4899 306.102 36.0399 304.962 35.5999C301.612 34.3099 298.202 34.06 294.902 35.71C289.692 38.33 289.382 44.84 294.252 48.08C295.217 48.7108 296.25 49.2307 297.332 49.6299C298.643 50.0776 299.893 50.6891 301.052 51.45C301.709 51.8689 302.229 52.4706 302.549 53.1812C302.869 53.8918 302.974 54.6804 302.852 55.45C302.765 56.2241 302.448 56.9544 301.942 57.5463C301.435 58.1383 300.763 58.5645 300.012 58.77C298.709 59.259 297.292 59.3631 295.932 59.0699C294.732 58.8126 293.554 58.4581 292.412 58.0099C292.216 57.8854 291.989 57.8192 291.757 57.8192C291.525 57.8192 291.297 57.8854 291.102 58.0099C290.84 58.2242 290.637 58.5013 290.511 58.8154C290.386 59.1295 290.342 59.4703 290.384 59.806C290.426 60.1416 290.552 60.4612 290.751 60.7347C290.95 61.0082 291.215 61.2268 291.522 61.37C293.378 62.0942 295.349 62.4802 297.342 62.5099V62.4999ZM314.022 48.14H314.142C314.142 50.76 313.972 53.38 314.142 55.9799C314.552 61.0599 318.992 63.8299 323.752 62.1599C324.892 61.7699 325.182 61.16 325.032 59.83C324.912 58.71 324.212 58.83 323.372 58.83C320.042 58.9 318.912 58.02 318.492 54.7C317.902 49.95 318.302 45.18 318.262 40.42C318.229 40.1683 318.254 39.9124 318.336 39.6721C318.418 39.4319 318.554 39.2138 318.734 39.0348C318.914 38.8558 319.133 38.7207 319.374 38.6401C319.614 38.5595 319.87 38.5355 320.122 38.5699C321.432 38.5699 322.732 38.5699 324.042 38.5099C324.235 38.5277 324.429 38.5021 324.611 38.435C324.793 38.3678 324.958 38.2608 325.093 38.1217C325.228 37.9827 325.331 37.8152 325.393 37.6315C325.455 37.4477 325.475 37.2525 325.452 37.06C325.452 36.06 325.102 35.41 324.022 35.39C322.942 35.37 321.562 35.39 320.332 35.33C318.682 35.24 318.332 34.9099 318.252 33.2299C318.192 32.3099 318.252 31.3899 318.252 30.4699C318.252 27.7999 317.502 27.3399 315.112 28.4699C314.821 28.5713 314.568 28.7603 314.389 29.011C314.21 29.2618 314.113 29.5619 314.112 29.87C314.112 30.71 314.112 31.56 314.062 32.4C314.062 35 314.062 35 311.502 35.4C311.216 35.4035 310.935 35.4818 310.689 35.6272C310.442 35.7726 310.238 35.9799 310.097 36.2287C309.955 36.4774 309.881 36.7588 309.882 37.045C309.883 37.3312 309.959 37.6121 310.102 37.86C310.512 38.61 311.252 38.5 311.922 38.58C313.862 38.81 314.012 38.92 314.042 40.81C314.062 43.22 314.022 45.68 314.022 48.14ZM249.142 39.83C248.852 38.9026 248.747 37.9277 248.832 36.96C248.852 36.7499 248.827 36.5379 248.758 36.3383C248.69 36.1387 248.579 35.9561 248.434 35.8027C248.29 35.6492 248.114 35.5286 247.918 35.4488C247.723 35.369 247.513 35.3319 247.302 35.34C245.382 35.18 244.752 35.62 244.872 37.64C245.182 42.71 245.202 47.77 245.182 52.84C245.182 55.22 245.182 57.5999 245.182 59.9799C245.232 61.6899 245.592 61.9799 247.252 61.9799C248.912 61.9799 249.322 61.6899 249.352 59.9799C249.352 56.4499 249.352 52.9199 249.352 49.3799C249.343 48.075 249.46 46.7724 249.702 45.49C250.482 41.32 252.292 39.5399 256.482 38.8799C257.892 38.6599 258.242 38.0299 258.012 36.1599C257.842 34.8499 257.382 34.51 256.012 34.68C254.905 34.8339 253.845 35.2256 252.904 35.828C251.964 36.4304 251.164 37.2294 250.562 38.17C250.142 38.76 250.052 39.54 249.142 39.83Z" fill="white"/>
<path d="M46.9217 64.5698C50.0595 62.0445 52.3402 58.6112 53.4517 54.7399C56.5217 44.8699 54.5817 36.0498 47.4517 28.4998C45.9117 26.8898 44.3117 25.3099 42.6517 23.8299C39.1817 20.7299 40.1117 16.3599 41.9117 13.5199C42.9117 12.0099 43.9117 11.8799 45.4417 12.8399C45.5095 12.8762 45.5732 12.9198 45.6317 12.9698C50.2117 17.3898 55.2417 21.4399 58.1317 27.3399C60.0262 31.0584 61.1166 35.134 61.3319 39.3018C61.5473 43.4695 60.8828 47.6359 59.3817 51.5299C57.0047 58.4674 52.1175 64.2643 45.6817 67.7799C34.6817 73.7299 20.3917 72.6999 10.7517 63.5499C7.35856 60.4389 4.70877 56.6045 2.99852 52.3306C1.28827 48.0567 0.561382 43.4528 0.871689 38.8599C1.13283 32.6467 3.45489 26.6972 7.47166 21.9498C9.61595 19.4308 11.896 17.0306 14.3017 14.7598C15.1238 13.9505 16.0288 13.2299 17.0017 12.6099C17.2288 12.4277 17.493 12.2973 17.7758 12.2279C18.0586 12.1584 18.3531 12.1516 18.6388 12.2078C18.9245 12.2639 19.1944 12.3819 19.4299 12.5532C19.6653 12.7246 19.8604 12.9452 20.0017 13.1998C22.1117 16.1398 22.6917 20.6398 19.7317 23.5998C18.8717 24.4798 17.9717 25.3199 17.0317 26.1099C5.85169 35.3899 3.95168 51.1098 12.7417 62.5098C13.0093 62.8901 13.3808 63.1852 13.8117 63.3599C13.0417 62.0399 12.3017 60.7399 11.6717 59.3599C7.76168 50.9599 8.90167 43.0699 14.1317 35.6099C16.2617 32.6099 19.2517 30.5299 22.3617 28.6699C24.7417 27.2599 25.8317 27.8098 26.4617 30.4998C26.6867 31.6319 26.7773 32.7865 26.7317 33.9398V63.0398C26.7317 66.5598 28.1917 67.8799 31.6717 67.5499C34.5117 67.2799 35.4117 66.3199 35.4117 63.3999C35.4117 53.4665 35.4117 43.5399 35.4117 33.6199C35.3174 32.3889 35.4152 31.1507 35.7017 29.9499C36.2817 28.1599 37.3917 27.5899 39.0717 28.4199C53.0717 35.4199 56.1717 51.3299 48.9017 62.0199C48.3017 62.9299 47.5817 63.7298 46.9217 64.5698Z" fill="white"/>
<path d="M110.232 64.9899C107.31 65.0189 104.388 64.882 101.482 64.5799C99.8002 64.3733 98.0968 64.4273 96.4317 64.7399C93.9517 65.1399 93.5317 64.7399 93.7017 62.2299C94.4417 51.3999 93.8717 40.5599 94.0817 29.7299C94.1417 26.7299 93.7717 23.7299 93.6917 20.7299C93.6317 18.3099 93.8917 17.9399 96.3317 18.2299C102.492 18.9699 108.592 17.9099 114.722 17.8999C121.242 17.8999 127.192 19.4899 131.802 24.5599C134.732 27.7799 135.912 31.6899 136.612 35.8399C137.268 40.1064 137.046 44.4618 135.962 48.6399C133.862 57.4599 127.962 62.3299 119.412 64.3999C116.312 65.1399 113.142 64.8799 110.232 64.9899ZM104.302 41.3199C104.302 46.6299 104.302 51.9399 104.302 57.2499C104.302 59.6599 104.692 60.0499 107.102 60.1599C108.64 60.2599 110.183 60.2599 111.722 60.1599C114.117 60.0538 116.45 59.3675 118.522 58.1599C121.812 56.1599 123.522 53.0199 124.612 49.4899C126.072 44.6699 125.922 39.6999 125.282 34.8299C124.412 28.3099 120.282 24.4299 113.882 23.1799C111.593 22.8571 109.277 22.7733 106.972 22.9299C104.592 22.9299 104.312 23.2499 104.302 25.6299C104.282 30.8499 104.302 36.0799 104.302 41.3199V41.3199Z" fill="white"/>
<path d="M164.822 39.2699C165.438 39.8574 166.191 40.2833 167.012 40.5099C171.252 42.5099 173.812 45.6499 174.142 50.4599C174.512 55.8099 172.532 59.9099 167.872 62.6499C166.364 63.6114 164.651 64.2041 162.872 64.3799C158.732 64.6399 154.602 65.1899 150.432 64.6299C148.436 64.4392 146.427 64.4392 144.432 64.6299C142.772 64.7199 142.562 64.5499 142.552 62.8399C142.552 59.2999 142.622 55.7599 142.622 52.2199C142.622 41.9133 142.595 31.6066 142.542 21.2999C142.542 17.8899 142.822 17.6199 146.292 18.0299C147.901 18.195 149.523 18.195 151.132 18.0299C155.198 17.6512 159.294 17.7687 163.332 18.3799C165.087 18.7097 166.776 19.3245 168.332 20.1999C174.752 23.5099 174.332 31.4799 170.812 35.1999C170.021 36.1491 169.091 36.972 168.052 37.6399C167.052 38.1399 166.012 38.6499 164.822 39.2699ZM163.882 51.1399C164.019 49.8449 163.83 48.5362 163.332 47.3329C162.834 46.1295 162.044 45.0697 161.032 44.2499C159.315 43.0495 157.227 42.4999 155.142 42.6999C153.142 42.6999 152.862 42.9599 152.842 44.9499C152.842 49.0199 152.842 53.0899 152.842 57.1599C152.842 57.6199 152.842 58.0799 152.912 58.5399C152.938 58.8471 153.07 59.1357 153.285 59.3565C153.5 59.5772 153.785 59.7162 154.092 59.7499C155.968 60.3005 157.986 60.0924 159.71 59.1704C161.434 58.2483 162.728 56.6861 163.312 54.8199C163.733 53.6405 163.927 52.3917 163.882 51.1399V51.1399ZM152.882 30.3099C152.882 32.1499 152.882 33.9899 152.882 35.8299C152.882 37.6699 153.282 38.0899 155.212 37.9999C156.44 37.9345 157.638 37.594 158.717 37.0034C159.796 36.4129 160.728 35.5874 161.446 34.5881C162.163 33.5887 162.646 32.4409 162.86 31.2297C163.074 30.0184 163.013 28.7745 162.682 27.5899C162.48 26.5658 162 25.6171 161.294 24.848C160.589 24.0788 159.685 23.519 158.682 23.2299C157.662 22.9019 156.609 22.6873 155.542 22.5899C153.542 22.3999 152.902 23.0099 152.862 25.0299C152.802 26.7899 152.832 28.5499 152.832 30.3099H152.882Z" fill="white"/>
<path d="M194.442 40.14C194.442 46.37 194.442 52.61 194.442 58.84C194.442 59.99 194.622 61.14 194.702 62.29C194.812 63.99 194.502 64.42 192.862 64.47C190.468 64.53 188.082 64.53 185.702 64.47C184.122 64.47 183.852 64.13 183.762 62.54C183.712 61.7708 183.712 60.9992 183.762 60.23C184.472 48.62 184.012 36.99 184.082 25.37C184.082 23.61 183.772 21.85 183.752 20.08C183.752 18.48 184.052 18.18 185.642 18.14C188.102 18.08 190.572 18.08 193.032 18.14C194.422 18.14 194.682 18.49 194.602 19.83C194.212 26.62 194.542 33.39 194.442 40.14Z" fill="white"/>
<path d="M85.8616 56.35C85.8616 58.42 85.8616 60.5 85.8616 62.57C85.8116 64.18 85.5516 64.44 83.9316 64.48C81.7116 64.54 79.4816 64.53 77.2516 64.48C75.5116 64.48 75.2517 64.18 75.2017 62.48C75.2017 59.56 75.2016 56.64 75.3216 53.72C75.7116 45.43 75.7316 37.15 75.3216 28.86C75.1816 25.94 75.1817 23.02 75.2117 20.1C75.2117 18.5 75.5016 18.23 77.1316 18.19C79.4316 18.13 81.7417 18.13 84.0417 18.19C85.5317 18.19 85.8616 18.52 85.8616 19.97C85.8616 24.5 85.8617 29.03 85.6517 33.56C85.4317 38.86 85.4017 44.15 85.6517 49.45C85.7517 51.75 85.6517 54.05 85.6517 56.36L85.8616 56.35Z" fill="white"/>
<path d="M31.1417 12.62C32.1046 12.6397 33.0404 12.9427 33.8321 13.4912C34.6237 14.0397 35.2362 14.8093 35.593 15.7039C35.9497 16.5985 36.0349 17.5784 35.8379 18.5212C35.6409 19.4639 35.1705 20.3277 34.4854 21.0046C33.8003 21.6815 32.9308 22.1415 31.9857 22.3271C31.0407 22.5127 30.0619 22.4157 29.1717 22.0481C28.2814 21.6806 27.5193 21.0589 26.9804 20.2606C26.4415 19.4624 26.1498 18.5231 26.1417 17.56C26.1219 16.9008 26.2381 16.2445 26.4832 15.6322C26.7282 15.0199 27.0968 14.4647 27.5659 14.0012C28.0351 13.5377 28.5948 13.1758 29.21 12.9381C29.8252 12.7005 30.4828 12.5922 31.1417 12.62V12.62Z" fill="white"/>
<path d="M339.552 45.9898C337.712 45.9898 335.862 46.0498 334.022 45.9898C332.772 45.9298 332.422 45.5198 332.652 44.4298C333.652 39.8298 337.532 36.7498 342.102 38.0598C343.394 38.4583 344.537 39.2357 345.382 40.2912C346.227 41.3468 346.735 42.6318 346.842 43.9798C346.942 45.4898 346.602 45.9798 345.072 45.9798C343.232 46.0498 341.392 45.9798 339.552 45.9798V45.9898Z" fill="white"/>
<path d="M366.682 46C364.762 46 362.832 46.05 360.912 46C359.602 46 359.262 45.58 359.472 44.5C360.412 39.7 364.852 36.3701 369.792 38.3401C371.003 38.9438 372.024 39.8721 372.739 41.0215C373.454 42.1709 373.836 43.4963 373.842 44.8501C373.772 45.7701 373.222 46.0101 372.442 46.0201L366.682 46Z" fill="white"/>
</g>
<defs>
<clipPath id="clip0_102_210">
<rect width="392.66" height="81.81" fill="white" transform="translate(0.781738 0.189941)"/>
</clipPath>
</defs>
</svg>
