<svg width="228" height="69" viewBox="0 0 228 69" fill="none" xmlns="http://www.w3.org/2000/svg">
    <circle opacity="0.3" cx="82.5331" cy="66.2245" r="2.46667" fill="#C4C4C4" />
    <path opacity="0.8"
        d="M208.551 3.01513C208.777 2.18821 209.95 2.18821 210.175 3.01513L211.633 8.35163C211.696 8.58232 211.854 8.77535 212.068 8.88252L216.632 11.1707C217.252 11.4813 217.252 12.3656 216.632 12.6762L212.068 14.9644C211.854 15.0716 211.696 15.2646 211.633 15.4953L210.175 20.8318C209.95 21.6587 208.777 21.6587 208.551 20.8318L207.093 15.4953C207.03 15.2646 206.872 15.0716 206.658 14.9644L202.094 12.6762C201.475 12.3656 201.475 11.4813 202.094 11.1707L206.658 8.88252C206.872 8.77535 207.03 8.58232 207.093 8.35163L208.551 3.01513Z"
        fill="#FFE9B1" />
    <path opacity="0.6"
        d="M8.80281 35.0444C9.02866 34.2175 10.2015 34.2175 10.4274 35.0444L11.8849 40.3809C11.9479 40.6116 12.106 40.8046 12.3198 40.9118L16.884 43.2C17.5035 43.5106 17.5035 44.3949 16.884 44.7055L12.3198 46.9937C12.106 47.1009 11.9479 47.2939 11.8849 47.5246L10.4274 52.8611C10.2015 53.688 9.02866 53.688 8.80281 52.8611L7.3453 47.5246C7.2823 47.2939 7.12417 47.1009 6.91039 46.9937L2.3462 44.7055C1.72665 44.3949 1.72665 43.5106 2.3462 43.2L6.91039 40.9118C7.12417 40.8046 7.2823 40.6116 7.3453 40.3809L8.80281 35.0444Z"
        fill="#FFD979" />
    <path opacity="0.2"
        d="M221.412 18.531C221.567 17.9625 222.373 17.9625 222.529 18.531L223.531 22.1999C223.574 22.3585 223.683 22.4912 223.83 22.5649L226.967 24.138C227.393 24.3515 227.393 24.9595 226.967 25.173L223.83 26.7461C223.683 26.8198 223.574 26.9525 223.531 27.1111L222.529 30.78C222.373 31.3485 221.567 31.3485 221.412 30.78L220.41 27.1111C220.366 26.9525 220.258 26.8198 220.111 26.7461L216.973 25.173C216.547 24.9595 216.547 24.3515 216.973 24.138L220.111 22.5649C220.258 22.4912 220.366 22.3585 220.41 22.1999L221.412 18.531Z"
        fill="#F4EDD9" />
    <path opacity="0.2"
        d="M20.5679 50.5584C20.7231 49.9899 21.5295 49.9899 21.6848 50.5584L22.6868 54.2272C22.7301 54.3858 22.8388 54.5185 22.9858 54.5922L26.1237 56.1653C26.5496 56.3789 26.5496 56.9868 26.1237 57.2004L22.9858 58.7735C22.8388 58.8472 22.7301 58.9799 22.6868 59.1385L21.6848 62.8073C21.5295 63.3758 20.7231 63.3758 20.5679 62.8073L19.5658 59.1385C19.5225 58.9799 19.4138 58.8472 19.2668 58.7735L16.1289 57.2004C15.703 56.9868 15.703 56.3789 16.1289 56.1653L19.2668 54.5922C19.4138 54.5185 19.5225 54.3858 19.5658 54.2272L20.5679 50.5584Z"
        fill="#F4EDD9" />
    <circle opacity="0.3" cx="46.9333" cy="29.8122" r="4.93333" fill="#FFD979" />
    <circle opacity="0.3" cx="186.933" cy="49.8122" r="4.93333" fill="#FFD979" />
    <circle opacity="0.3" cx="117.494" cy="6.99014" r="2.99404" fill="#C4C4C4" />
</svg>
