<svg width="87" height="103" viewBox="0 0 87 103" fill="none" xmlns="http://www.w3.org/2000/svg">
    <circle opacity="0.2" cx="43.5" cy="59.5" r="43.5" fill="black" />
    <path
        d="M40.5083 76.5849L13.0034 62.5917C11.6121 61.8871 11.6834 59.8715 13.1193 59.2651L38.9921 48.2595L71.6163 69.1112L40.5083 76.5849Z"
        fill="black" />
    <path
        d="M17.3988 10.5429L19.4144 8.46484C18.692 9.20509 18.4512 10.3556 18.8704 11.4972L16.8548 13.5752C16.4356 12.4336 16.6853 11.2831 17.3988 10.5429Z"
        fill="#8F0D0D" />
    <mask id="mask0_728_22635" style="mask-type:luminance" maskUnits="userSpaceOnUse" x="16" y="8"
        width="4" height="6">
        <path
            d="M17.3972 10.5431L19.4128 8.46509C18.6904 9.20533 18.4496 10.3558 18.8688 11.4974L16.8532 13.5754C16.434 12.4339 16.6837 11.2834 17.3972 10.5431Z"
            fill="white" />
    </mask>
    <g mask="url(#mask0_728_22635)">
        <path
            d="M18.8688 11.5059L16.8532 13.584C16.434 12.4424 16.6837 11.2919 17.3972 10.5517L19.4128 8.47363C18.6904 9.21387 18.4496 10.3644 18.8688 11.5059Z"
            fill="white" />
    </g>
    <path
        d="M41.1401 71.7954L39.1245 73.8646L18.4155 17.8024L18.1747 17.1513L16.8548 13.5839L18.8704 11.5059L20.1903 15.0733L20.4579 15.8046L41.1401 71.7954Z"
        fill="#C9E4F0" />
    <mask id="mask1_728_22635" style="mask-type:luminance" maskUnits="userSpaceOnUse" x="16" y="11"
        width="26" height="63">
        <path
            d="M41.1405 71.795L39.1249 73.8641L18.4159 17.8019L18.1751 17.1508L16.8552 13.5834L18.8708 11.5054L20.1907 15.0728L20.4583 15.8041L41.1405 71.795Z"
            fill="white" />
    </mask>
    <g mask="url(#mask1_728_22635)">
        <path d="M40.0621 68.8698L38.0197 70.8675L37.7789 70.2165L39.7856 68.1384L40.0621 68.8698Z"
            fill="white" />
    </g>
    <path
        d="M41.1401 71.7954L39.1245 73.8646L18.4155 17.8024L18.1747 17.1513L16.8548 13.5839L18.8704 11.5059L20.1903 15.0733L20.4579 15.8046L41.1401 71.7954Z"
        stroke="black" stroke-width="0.472685" stroke-miterlimit="10" />
    <path
        d="M72.2487 66.7478L70.2331 68.8258C69.9031 69.1647 69.484 69.4145 68.9845 69.5393L43.1474 76.1301L45.163 74.0521L71.0001 67.4613C71.4996 67.3364 71.9276 67.0778 72.2487 66.7478Z"
        fill="#627F8E" />
    <path
        d="M42.4615 73.499L40.5173 75.6216C39.9019 75.2114 39.4024 74.6049 39.1349 73.8646L41.1505 71.7866C41.4091 72.4912 41.8818 73.0798 42.4704 73.4901L42.4615 73.499Z"
        fill="white" />
    <path
        d="M45.1538 74.061L43.1382 76.139C42.2464 76.362 41.2743 76.148 40.5073 75.6307L42.4515 73.5081C43.0312 73.9272 43.7269 74.1591 44.4225 74.1591C44.6633 74.1591 44.913 74.1324 45.1538 74.0699V74.061Z"
        fill="#C9E4F0" />
    <path
        d="M70.9917 67.4699L45.1546 74.0607C43.5493 74.471 41.7477 73.4543 41.1323 71.7954L18.8716 11.5058C18.2562 9.84697 19.0588 8.16136 20.6642 7.75111L35.2193 4.04098L46.5013 1.16028C48.1067 0.750024 49.9082 1.76674 50.5236 3.4256L68.7442 52.7632L72.7933 63.7152C73.4087 65.374 72.606 67.0597 71.0006 67.4699H70.9917Z"
        fill="#A9C6D6" stroke="black" stroke-width="0.231883" stroke-miterlimit="10" />
    <path
        d="M71.972 65.7754C71.7312 66.2303 71.312 66.5602 70.7947 66.6851L44.9576 73.2759C44.7881 73.3205 44.6098 73.3473 44.4225 73.3473C43.3433 73.3473 42.282 72.5803 41.8896 71.5101L19.6288 11.2205C19.397 10.5962 19.4237 9.96295 19.7002 9.44567C19.941 8.99082 20.3602 8.66083 20.8774 8.52706L35.718 4.73666L46.7146 1.92731C46.884 1.88271 47.0624 1.85596 47.2497 1.85596C48.3199 1.85596 49.3901 2.62295 49.7826 3.69318L66.9062 50.0609L67.9586 52.897L68.0121 53.0308L72.0612 63.9828C72.293 64.6071 72.2663 65.2403 71.9898 65.7665L71.972 65.7754Z"
        fill="#A9CCD8" />
    <path
        d="M66.8889 50.0694L35.7007 4.7452L46.6973 1.93585C46.8667 1.89126 47.0451 1.8645 47.2324 1.8645C48.3026 1.8645 49.3729 2.6315 49.7653 3.70173L66.8889 50.0694Z"
        fill="#8FAEBC" />
    <path
        d="M23.1267 27.1937L23.2337 27.2115C23.5191 27.2561 23.742 26.9707 23.6439 26.7032L21.2181 20.4513C21.1646 20.3264 21.0576 20.2372 20.9238 20.2105L20.8168 20.1926C20.5314 20.148 20.3084 20.4334 20.4065 20.701L22.8323 26.9529C22.8859 27.0778 22.9929 27.1669 23.1267 27.1937Z"
        fill="#1B262C" />
    <path
        d="M22.9832 27.256L23.0902 27.2738C23.3756 27.3184 23.5985 27.033 23.5004 26.7654L21.0746 20.5135C21.0211 20.3887 20.9141 20.2995 20.7803 20.2727L20.6733 20.2549C20.3879 20.2103 20.1649 20.4957 20.263 20.7632L22.6889 27.0152C22.7424 27.14 22.8494 27.2292 22.9832 27.256Z"
        fill="#627F8E" />
    <path d="M20.4594 15.8048L18.4171 17.8026L18.1763 17.1515L20.1919 15.0735L20.4594 15.8048Z"
        fill="#627F8E" />
    <path
        d="M23.8652 9.71317L24.4717 9.08887C23.892 9.67749 23.6868 10.5872 24.0168 11.4969L23.4104 12.1212C23.0804 11.2115 23.2855 10.3018 23.8652 9.71317Z"
        fill="#8F0D0D" />
    <path
        d="M40.4187 19.7108C40.1511 20.2192 39.6874 20.6116 39.0631 20.7632L30.635 22.868C29.3596 23.1891 27.9327 22.3686 27.46 21.0486L24.0263 11.5058C23.6963 10.5961 23.9015 9.68637 24.4812 9.09774C24.7398 8.83018 25.0787 8.63398 25.4801 8.52695L33.9081 6.42217C35.1924 6.1011 36.6104 6.9216 37.0831 8.24155L40.5168 17.7844C40.7665 18.4712 40.7041 19.1579 40.4187 19.7019V19.7108Z"
        fill="#A9C6D6" stroke="black" stroke-width="0.472685" stroke-miterlimit="10" />
    <path
        d="M39.062 20.7636L30.634 22.8684C29.9472 23.0379 29.2159 22.8773 28.6184 22.4938C28.1189 22.1728 27.7087 21.6823 27.4857 21.0936L24.0342 11.5062C23.7042 10.5965 23.9094 9.68677 24.4891 9.09814L23.8826 9.72244C23.3029 10.3111 23.0978 11.2208 23.4278 12.1305L26.8703 21.6733C26.8703 21.6733 26.8793 21.7001 26.8882 21.709L26.906 21.7714C27.1468 22.3601 27.566 22.8417 28.0743 23.1538C28.6541 23.5106 29.3497 23.6533 30.0097 23.4927L38.4734 21.3879C38.8747 21.2898 39.2136 21.0936 39.4723 20.8261L40.0787 20.2018C39.8201 20.4693 39.4812 20.6655 39.0799 20.7636H39.062Z"
        fill="#627F8E" stroke="black" stroke-width="0.231883" stroke-miterlimit="10" />
    <path
        d="M40.4183 19.7108L24.4808 9.09774C24.7395 8.83018 25.0784 8.63398 25.4797 8.52695L33.9078 6.42217C35.192 6.1011 36.6101 6.9216 37.0828 8.24155L40.5164 17.7844C40.7662 18.4712 40.7037 19.1579 40.4183 19.7019V19.7108Z"
        fill="#C9E4F0" />
    <path
        d="M35.3882 11.5327C34.3983 11.7824 33.8988 12.8081 34.2645 13.8337C34.6302 14.8593 35.7361 15.4926 36.726 15.2428C37.716 14.9931 38.2243 13.9675 37.8498 12.9419C37.4841 11.9162 36.3782 11.283 35.3882 11.5327Z"
        fill="#627F8E" />
    <path
        d="M35.4589 11.7289C34.576 11.9519 34.1212 12.8705 34.4511 13.7891C34.7811 14.7077 35.7711 15.2785 36.654 15.0556C37.5459 14.8326 37.9918 13.9051 37.6618 12.9865C37.3318 12.0678 36.3419 11.506 35.4589 11.72V11.7289Z"
        fill="#5D5D5E" />
    <path
        d="M35.4417 11.827C36.3336 11.6041 37.3146 12.1749 37.6446 13.0935C37.7606 13.4145 37.7784 13.7267 37.716 14.0121C37.7962 13.6999 37.7873 13.3432 37.6625 12.9865C37.3325 12.0678 36.3425 11.506 35.4596 11.72C34.8799 11.8627 34.4875 12.3176 34.3804 12.8616C34.5142 12.3532 34.8977 11.9519 35.4417 11.8181V11.827Z"
        fill="#262127" />
    <path
        d="M35.5574 11.9877C34.8082 12.175 34.4336 12.9509 34.7101 13.7268C34.9866 14.5028 35.816 14.9754 36.5652 14.7882C37.3143 14.6009 37.6889 13.825 37.4124 13.049C37.136 12.2731 36.3065 11.8004 35.5574 11.9877Z"
        fill="#F0F2F8" />
    <path
        d="M35.6999 12.389C35.1648 12.5228 34.8972 13.0758 35.0934 13.6287C35.2896 14.1817 35.8872 14.5206 36.4223 14.3868C36.9574 14.253 37.225 13.7001 37.0288 13.1471C36.8326 12.5942 36.235 12.2553 35.6999 12.389Z"
        fill="white" />
    <path
        d="M32.3305 10.8011C31.733 9.15118 29.9671 8.13446 28.3707 8.5358C26.7743 8.93713 25.9627 10.596 26.5602 12.2459C27.1578 13.8959 28.9237 14.9126 30.5201 14.5112C32.1165 14.1099 32.9192 12.4511 32.3305 10.8011Z"
        fill="#C9E4F0" stroke="black" stroke-width="0.231883" stroke-miterlimit="10" />
    <path
        d="M31.6168 10.9796C31.1709 9.73991 29.8331 8.97291 28.6291 9.26723C27.4251 9.57046 26.8186 10.8191 27.2645 12.0587C27.7105 13.3073 29.0482 14.0654 30.2523 13.7711C31.4563 13.4679 32.0627 12.2193 31.6168 10.9796Z"
        fill="#474747" />
    <path
        d="M30.7334 11.2027C30.4658 10.4624 29.6721 10.0076 28.9675 10.1859C28.254 10.3643 27.8884 11.1045 28.1559 11.8448C28.4235 12.585 29.2172 13.0399 29.9307 12.8615C30.6442 12.6831 31.001 11.9429 30.7423 11.2027H30.7334Z"
        fill="#363636" />
    <path
        d="M30.1539 11.3453C30.0112 10.944 29.5742 10.6942 29.1818 10.7923C28.7893 10.8904 28.5931 11.3007 28.7358 11.702C28.8785 12.1034 29.3155 12.3531 29.7079 12.255C30.1004 12.1569 30.2966 11.7466 30.1539 11.3453Z"
        fill="#262127" />
    <path
        d="M29.9671 11.3898C29.8601 11.0955 29.539 10.9082 29.2536 10.9795C28.9682 11.0509 28.8166 11.3541 28.9236 11.6484C29.0307 11.9517 29.3517 12.13 29.6371 12.0587C29.9225 11.9873 30.0741 11.6841 29.9671 11.3898Z"
        fill="#888B8E" />
    <path
        d="M31.6159 10.9796C31.17 9.73991 29.8322 8.97291 28.6282 9.26723C28.2179 9.36533 27.879 9.58829 27.6204 9.87369C27.8522 9.66856 28.1376 9.51695 28.4676 9.42776C29.6716 9.12453 31.0005 9.89152 31.4553 11.1401C31.7497 11.9606 31.5802 12.7811 31.0897 13.3341C31.7051 12.7901 31.937 11.8893 31.6159 10.9796Z"
        fill="#1B262C" />
    <path
        d="M30.5194 14.5114C28.923 14.9127 27.1482 13.896 26.5596 12.246C26.1493 11.1134 26.408 9.9718 27.1214 9.24048L26.7736 9.59722C26.0601 10.3285 25.8015 11.4612 26.2118 12.6028C26.8093 14.2527 28.5752 15.2694 30.1716 14.8681C30.671 14.7432 31.0902 14.4935 31.4202 14.1635L31.768 13.8068C31.438 14.1368 31.0189 14.3865 30.5194 14.5114Z"
        fill="#627F8E" stroke="black" stroke-width="0.231883" stroke-miterlimit="10" />
    <path
        d="M34.7465 17.526C34.149 15.876 32.3831 14.8593 30.7867 15.2607C29.1902 15.662 28.3786 17.3208 28.9762 18.9708C29.5737 20.6207 31.3396 21.6374 32.936 21.2361C34.5325 20.8348 35.3351 19.1759 34.7465 17.526Z"
        fill="#C9E4F0" stroke="black" stroke-width="0.231883" stroke-miterlimit="10" />
    <path
        d="M34.0429 17.7042C33.597 16.4645 32.2592 15.6975 31.0552 15.9918C29.8512 16.2951 29.2448 17.5437 29.6907 18.7834C30.1366 20.032 31.4744 20.79 32.6784 20.4957C33.8824 20.1925 34.4889 18.9439 34.0429 17.7042Z"
        fill="#474747" />
    <path
        d="M33.1595 17.9273C32.892 17.187 32.0982 16.7322 31.3937 16.9105C30.6802 17.0889 30.3145 17.8292 30.5821 18.5694C30.8496 19.3096 31.6434 19.7645 32.3569 19.5861C33.0704 19.4077 33.4271 18.6675 33.1685 17.9273H33.1595Z"
        fill="#363636" />
    <path
        d="M32.5718 18.0699C32.4291 17.6686 31.9921 17.4188 31.5997 17.5169C31.2073 17.615 31.0111 18.0253 31.1538 18.4266C31.2965 18.828 31.7335 19.0777 32.1259 18.9796C32.5183 18.8815 32.7145 18.4712 32.5718 18.0699Z"
        fill="#262127" />
    <path
        d="M32.384 18.1234C32.277 17.8291 31.9559 17.6418 31.6706 17.7132C31.3852 17.7845 31.2335 18.0878 31.3406 18.3821C31.4476 18.6853 31.7687 18.8637 32.0541 18.7923C32.3394 18.721 32.4911 18.4178 32.384 18.1234Z"
        fill="#888B8E" />
    <path
        d="M34.042 17.7042C33.5961 16.4645 32.2583 15.6975 31.0543 15.9918C30.6441 16.0899 30.3051 16.3129 30.0465 16.5983C30.2784 16.3932 30.5638 16.2416 30.8938 16.1524C32.0978 15.8491 33.4267 16.6161 33.8815 17.8647C34.1758 18.6852 34.0064 19.5058 33.5158 20.0587C34.1312 19.5147 34.3631 18.6139 34.042 17.7042Z"
        fill="#1B262C" />
    <path
        d="M32.9456 21.2362C31.3491 21.6376 29.5743 20.6208 28.9857 18.9709C28.5755 17.8382 28.8341 16.6967 29.5476 15.9653L29.1998 16.3221C28.4863 17.0534 28.2276 18.1861 28.6379 19.3276C29.2354 20.9776 31.0013 21.9943 32.5977 21.593C33.0972 21.4681 33.5164 21.2184 33.8463 20.8884L34.1942 20.5316C33.8642 20.8616 33.445 21.1114 32.9456 21.2362Z"
        fill="#627F8E" stroke="black" stroke-width="0.231883" stroke-miterlimit="10" />
    <path
        d="M34.9602 9.08031C34.5856 9.17842 34.3894 9.57083 34.5321 9.96325C34.6748 10.3557 35.094 10.5965 35.4775 10.5073C35.861 10.4092 36.0483 10.0168 35.9145 9.62435C35.7718 9.23193 35.3526 8.99113 34.9691 9.08031H34.9602Z"
        fill="#A9C6D6" />
    <path
        d="M35.022 9.24956C34.7366 9.32091 34.585 9.62414 34.692 9.91845C34.799 10.2128 35.1201 10.4001 35.4055 10.3287C35.6909 10.2574 35.8425 9.95413 35.7355 9.65981C35.6285 9.35658 35.3074 9.17821 35.0131 9.24956H35.022Z"
        fill="#627F8E" />
    <path
        d="M35.0757 9.39263C34.8617 9.44614 34.7547 9.66911 34.8349 9.89207C34.9152 10.115 35.156 10.2488 35.3701 10.1953C35.5841 10.1418 35.6911 9.91883 35.6109 9.69586C35.5306 9.4729 35.2898 9.33912 35.0757 9.39263Z"
        fill="#A9C6D6" />
    <path
        d="M40.5172 17.7844L37.0835 8.24155C36.6109 6.9216 35.1839 6.1011 33.9085 6.42217L25.4805 8.52695C25.0791 8.62506 24.7402 8.83018 24.4816 9.09774C24.4459 9.13341 24.4102 9.17801 24.3835 9.2226C24.6154 9.03531 24.8918 8.89261 25.204 8.81235L33.632 6.70756C34.9163 6.38649 36.3344 7.207 36.8071 8.52695L40.2407 18.0698C40.4904 18.7566 40.428 19.4433 40.1426 19.9873C40.0802 20.1122 39.9999 20.2281 39.9107 20.3351C40.1248 20.1568 40.2942 19.9427 40.4191 19.7019C40.7134 19.1579 40.7669 18.4712 40.5172 17.7844Z"
        fill="#F0F2F8" />
    <path
        d="M50.2297 32.26C50.1227 32.4116 50.0156 32.5633 49.9175 32.7149C49.6857 33.0895 49.5251 33.4908 49.4716 33.9367C49.427 34.3202 49.4627 34.7037 49.5786 35.0961C49.7213 35.5688 49.9532 36.0147 50.2921 36.4072C50.5418 36.6926 50.8362 36.9334 51.1572 37.1385C51.6299 37.4239 52.1294 37.6023 52.6466 37.7271C52.6466 37.7271 52.6555 37.7271 52.6734 37.7271C52.6734 37.8252 52.6734 37.9144 52.6734 38.0125C52.6734 38.7973 52.5753 39.5733 52.3523 40.3135C52.2453 40.6613 52.1204 40.9913 51.9688 41.3124C51.8083 41.6424 51.6121 41.9634 51.3356 42.2221C51.1572 42.3915 50.9521 42.5164 50.7113 42.5699C50.5062 42.6145 50.301 42.6323 50.087 42.6145C49.7213 42.5877 49.3557 42.5521 48.9811 42.5164C48.6689 42.4807 48.3657 42.5164 48.0714 42.5788C47.6255 42.6769 47.242 42.8999 46.8852 43.1585C46.6979 43.3012 46.5106 43.4528 46.3234 43.5955C46.1717 43.7115 46.0023 43.7917 45.8239 43.872C45.3334 44.0771 44.825 44.0325 44.3078 43.8453C43.8618 43.6847 43.4516 43.4261 43.0681 43.1407C42.5508 42.7572 42.0781 42.3202 41.6322 41.8564C41.0614 41.2589 40.553 40.6257 40.1339 39.93C39.8841 39.5197 39.6612 39.0917 39.4917 38.6546C39.3847 38.3693 39.2777 38.0839 39.1885 37.7985C38.9923 37.1117 38.8942 36.425 38.9834 35.7383C39.0458 35.2745 39.1796 34.8375 39.4025 34.4362C39.7682 33.7673 40.3212 33.2857 41.0346 32.9735C41.3646 32.8308 41.7035 32.7327 42.0603 32.6703C42.4438 32.5989 42.8362 32.6079 43.2286 32.6703C43.4605 32.706 43.6924 32.7416 43.9332 32.7684C44.281 32.8219 44.5932 32.7416 44.8696 32.5722C45.1015 32.4295 45.3156 32.2779 45.5385 32.1262C45.815 31.939 46.1182 31.7963 46.4393 31.6982C46.6533 31.6357 46.8585 31.5733 47.0814 31.5376C47.9376 31.386 48.7849 31.4841 49.6143 31.9033C49.8194 32.0103 50.0246 32.1262 50.2119 32.26H50.2297Z"
        fill="white" stroke="black" stroke-width="0.338906" stroke-miterlimit="10" />
    <path
        d="M45.9396 27.8003C45.9753 27.8806 46.011 27.9697 46.0466 28.05C46.1804 28.3889 46.2518 28.7278 46.2607 29.0756C46.2607 29.5127 46.1626 29.914 45.9753 30.2975C45.8237 30.6007 45.6364 30.8772 45.3867 31.1091C45.1102 31.3677 44.7802 31.5461 44.4056 31.662C44.3432 31.6799 44.2808 31.6977 44.2094 31.7156C44.1827 31.6531 44.1559 31.5996 44.1291 31.5461C43.9329 31.118 43.8705 30.681 43.924 30.244C44.0221 29.5127 44.3432 28.8973 44.8694 28.4068C45.1369 28.1481 45.4669 27.9697 45.8326 27.8449C45.8504 27.8449 45.8683 27.836 45.8861 27.8271C45.9039 27.8271 45.9218 27.8181 45.9396 27.8092V27.8003Z"
        fill="white" stroke="black" stroke-width="0.338906" stroke-miterlimit="10" />
    <path
        d="M72.6874 64.5981L68.5491 53.3875L68.4956 53.2448L67.4254 50.3373L49.9004 2.87266C49.4991 1.78459 48.4021 0.999756 47.3051 0.999756C47.1178 0.999756 46.9305 1.01759 46.761 1.0711L35.5058 3.94289L20.3175 7.82247C19.7913 7.95625 19.3632 8.28624 19.1135 8.75892C18.837 9.29403 18.8102 9.93617 19.0421 10.5783L41.838 72.3038C42.2393 73.3919 43.3274 74.1767 44.4333 74.1767C44.6206 74.1767 44.799 74.1589 44.9773 74.1053L71.4298 67.354C71.956 67.2202 72.3841 66.8902 72.6338 66.4175C72.9103 65.8824 72.9371 65.2403 72.7052 64.5981H72.6874Z"
        stroke="black" stroke-width="0.481603" stroke-miterlimit="10" />
    <path
        d="M71.6164 67.1937L45.1639 73.9451C44.9142 74.0075 44.6645 74.0343 44.4147 74.0343C43.7013 74.0343 42.9967 73.7935 42.3991 73.3654C41.8016 72.9462 41.32 72.3397 41.0524 71.6173L38.9922 73.74C39.2687 74.4891 39.7771 75.1134 40.4103 75.5415C41.2041 76.0766 42.194 76.2907 43.1037 76.0677L69.5562 69.3163C70.0735 69.1826 70.5016 68.9239 70.8405 68.585L72.9007 66.4624C72.5707 66.8102 72.1337 67.0599 71.6164 67.1937Z"
        stroke="black" stroke-width="0.481603" stroke-miterlimit="10" />
    <path
        d="M62.9658 20.7636H62.5912C62.5912 18.0613 60.3973 15.8673 57.6949 15.8673V15.4927C60.3973 15.4927 62.5912 13.2988 62.5912 10.5964H62.9658C62.9658 13.2988 65.1598 15.4927 67.8621 15.4927V15.8673C65.1598 15.8673 62.9658 18.0613 62.9658 20.7636Z"
        fill="#FFDA72" />
    <path
        d="M69.6191 26.8016H69.4229C69.4229 25.3746 68.2635 24.2241 66.8454 24.2241V24.0279C68.2724 24.0279 69.4229 22.8685 69.4229 21.4504H69.6191C69.6191 22.8774 70.7785 24.0279 72.1965 24.0279V24.2241C70.7696 24.2241 69.6191 25.3835 69.6191 26.8016Z"
        fill="#F79780" />
    <path
        d="M18.7292 54.4492H18.4081C18.4081 52.1037 16.5085 50.2129 14.1718 50.2129V49.8918C16.5174 49.8918 18.4081 47.9922 18.4081 45.6555H18.7292C18.7292 48.0011 20.6289 49.8918 22.9655 49.8918V50.2129C20.6199 50.2129 18.7292 52.1126 18.7292 54.4492Z"
        fill="#93B5FE" />
</svg>
