<svg width="77" height="49" viewBox="0 0 77 49" fill="none" xmlns="http://www.w3.org/2000/svg">
    <path
        d="M70.4413 29.9057C67.8448 30.4813 64.1851 29.2353 62.3082 27.1532C60.4642 25.1042 61.0593 23.0268 63.5994 22.4867C63.71 22.463 63.8205 22.444 63.9334 22.4275L58.9096 16.9888C52.6274 20.9707 45.348 23.6166 37.9322 25.1421C28.9547 26.9873 18.7048 34.2997 9.08984 33.4588C9.9883 34.7261 10.8656 30.5168 13.8503 33.0466C16.6444 32.4545 20.1606 33.7383 21.7388 35.9484C23.3452 38.1963 22.3574 40.558 19.4903 41.1952L26.1488 47.6714C34.3666 47.1479 41.5684 46.352 49.5957 44.5162C58.9566 42.3772 67.5461 40.0914 75.8697 35.3538C75.8697 35.3538 72.4617 31.6657 70.7589 29.8204C70.6554 29.8512 70.5472 29.8796 70.4366 29.9057H70.4413Z"
        fill="#020202" stroke="#231F20" stroke-width="0.744812" stroke-miterlimit="10" />
    <path
        d="M66.3513 12.522C63.9707 14.1146 59.8493 14.4533 57.1981 13.2866C54.5893 12.1409 54.4082 9.97438 56.7441 8.43826C56.8453 8.37239 56.9511 8.30888 57.057 8.24771L50.0068 5.25781C45.2174 11.5081 38.9317 16.9281 32.091 21.3647C23.8105 26.7352 14.5656 31.5341 4.64551 34.6769C6.01696 35.4862 7.05437 37.3822 10.9829 38.509C13.554 36.82 17.5461 36.5777 19.9502 37.9797C22.3944 39.4076 22.2909 41.9999 19.6632 43.7572L26.1441 47.6763C36.2571 45.6203 43.7071 40.2098 51.0443 35.2368C59.5976 29.4381 67.2711 23.1408 73.8155 15.3567C73.8155 15.3567 69.0331 13.3289 66.643 12.315C66.5513 12.3856 66.4548 12.4562 66.3513 12.5244V12.522Z"
        fill="white" />
    <mask id="mask0_4312_14048" style="mask-type:luminance" maskUnits="userSpaceOnUse" x="4" y="5"
        width="70" height="43">
        <path
            d="M66.3513 12.5225C63.9707 14.1151 59.8493 14.4538 57.1981 13.287C54.5893 12.1414 54.4082 9.97486 56.7441 8.43875C56.8453 8.37288 56.9511 8.30937 57.057 8.2482L50.0068 5.2583C45.2174 11.5086 38.9317 16.9286 32.091 21.3652C23.8105 26.7357 14.5656 31.5346 4.64551 34.6774C6.01696 35.4866 7.05437 37.3827 10.9829 38.5095C13.554 36.8205 17.5461 36.5782 19.9502 37.9802C22.3944 39.4081 22.2909 42.0004 19.6632 43.7577L26.1441 47.6768C36.2571 45.6208 43.7071 40.2103 51.0443 35.2373C59.5976 29.4386 67.2711 23.1412 73.8155 15.3572C73.8155 15.3572 69.0331 13.3294 66.643 12.3155C66.5513 12.3861 66.4548 12.4566 66.3513 12.5249V12.5225Z"
            fill="white" />
    </mask>
    <g mask="url(#mask0_4312_14048)">
        <path
            d="M48.2577 12.5835C48.2577 12.5835 36.1146 25.6205 16.0039 33.7386L30.9181 42.953C30.9181 42.953 50.6477 33.207 65.1455 19.8265L48.2577 12.5835Z"
            fill="#445EB8" />
        <path
            d="M31.4882 28.8041L39.3993 34.2946C39.5945 34.4287 39.5734 34.5769 39.3405 34.7345L37.9055 35.7013C37.6679 35.8613 37.4515 35.873 37.2562 35.7342L29.3757 30.1144C29.2016 29.9897 29.2322 29.8556 29.4674 29.7097L30.8812 28.8347C31.1118 28.6912 31.3141 28.6817 31.4882 28.8017V28.8041Z"
            fill="#FFE094" />
        <path
            d="M43.9742 31.763L42.6287 32.6687C42.4052 32.8193 42.1958 32.831 42.0006 32.7016L34.0283 27.4793C33.8519 27.364 33.8754 27.237 34.0942 27.1006L37.8604 24.7717C38.6461 24.2871 39.4294 24.0213 40.2175 23.9766C41.0055 23.9295 41.7348 24.1083 42.4099 24.5153L43.6708 25.2728C44.3624 25.6891 44.687 26.1502 44.64 26.6583C44.5929 27.1711 44.1765 27.6863 43.3861 28.2039L41.4431 29.4741C41.3184 29.5565 41.3066 29.6271 41.4054 29.6906L44.0095 31.3537C44.2048 31.4784 44.1954 31.6148 43.9742 31.763ZM39.9399 28.5355L41.5748 27.484C41.8994 27.2747 42.0688 27.0912 42.0806 26.9312C42.0923 26.7736 41.9629 26.6089 41.6877 26.4419L40.5868 25.7644C40.3092 25.5927 40.0481 25.5127 39.8011 25.5245C39.5541 25.5362 39.2694 25.6421 38.9448 25.8444L37.3169 26.8653C37.204 26.9359 37.1946 27.0018 37.2887 27.0629L39.6247 28.5544C39.7211 28.6155 39.827 28.6108 39.9422 28.5379L39.9399 28.5355Z"
            fill="#FFE094" />
        <path
            d="M55.3794 23.8733L50.7782 26.9714C50.5782 27.1078 50.3782 27.1172 50.1806 27.0043L42.1096 22.363C41.9308 22.2595 41.9402 22.1466 42.1401 22.0243L43.3422 21.2809C43.5398 21.1586 43.7257 21.1492 43.9044 21.2503L50.5735 24.9954C50.6746 25.0518 50.7829 25.0448 50.8958 24.9695L53.8198 23.0311C54.0009 22.9111 54.1938 22.9064 54.3985 23.0146L55.3536 23.5298C55.5512 23.6357 55.5606 23.7509 55.3794 23.8733Z"
            fill="#FFE094" />
        <path
            d="M30.5084 38.4106L28.2571 37.312L26.5469 38.0012L26.3776 36.157L24.4062 34.6632L26.5164 34.562L27.0174 32.833L28.5347 34.7267L30.9248 35.2066L29.6121 36.4534L30.5084 38.4106Z"
            fill="#FFDA72" />
        <path
            d="M50.0361 17.3358L52.5226 17.6393L53.9152 16.4302L54.6774 18.1168L57.0298 18.8837L55.0656 19.6718L55.1573 21.469L53.106 20.1728L50.6901 20.4998L51.5228 18.8931L50.0361 17.3358Z"
            fill="#FFDA72" />
    </g>
    <path
        d="M66.3513 12.522C63.9707 14.1146 59.8493 14.4533 57.1981 13.2866C54.5893 12.1409 54.4082 9.97438 56.7441 8.43826C56.8453 8.37239 56.9511 8.30888 57.057 8.24771L50.0068 5.25781C45.2174 11.5081 38.9317 16.9281 32.091 21.3647C23.8105 26.7352 14.5656 31.5341 4.64551 34.6769C6.01696 35.4862 7.05437 37.3822 10.9829 38.509C13.554 36.82 17.5461 36.5777 19.9502 37.9797C22.3944 39.4076 22.2909 41.9999 19.6632 43.7572L26.1441 47.6763C36.2571 45.6203 43.7071 40.2098 51.0442 35.2368C59.5976 29.4381 67.2711 23.1408 73.8155 15.3567C73.8155 15.3567 69.033 13.3289 66.643 12.315C66.5513 12.3856 66.4548 12.4562 66.3513 12.5244V12.522Z"
        stroke="#231F20" stroke-width="0.775846" stroke-miterlimit="10" />
    <path
        d="M60.7497 6.41523C58.5596 8.26186 54.5017 9.05227 51.7353 8.18658C49.0159 7.33501 48.5949 5.20139 50.7497 3.41827C50.8438 3.34064 50.9402 3.26772 51.039 3.19244L43.7019 1C39.6322 7.73963 33.9841 13.8229 27.6773 18.9888C20.0414 25.2415 11.3822 31.0331 1.86914 35.2509C3.32292 35.9026 4.56264 37.6739 8.58995 38.3585C10.9588 36.3966 14.8991 35.7144 17.4444 36.8412C20.032 37.9891 20.2132 40.5768 17.7972 42.614L24.671 45.7921C34.4946 42.6328 41.3024 36.4319 48.0444 30.6755C55.9038 23.9665 62.8339 16.8599 68.4797 8.40065L61.0155 6.17058C60.9309 6.25056 60.8438 6.33289 60.7497 6.41052V6.41523Z"
        fill="white" />
    <mask id="mask1_4312_14048" style="mask-type:luminance" maskUnits="userSpaceOnUse" x="1" y="1"
        width="68" height="45">
        <path
            d="M60.7497 6.41523C58.5596 8.26186 54.5017 9.05227 51.7353 8.18658C49.0159 7.33501 48.5949 5.20139 50.7497 3.41827C50.8438 3.34064 50.9402 3.26772 51.039 3.19244L43.7019 1C39.6322 7.73963 33.9841 13.8229 27.6773 18.9888C20.0414 25.2415 11.3822 31.0331 1.86914 35.2509C3.32292 35.9026 4.56264 37.6739 8.58995 38.3585C10.9588 36.3966 14.8991 35.7144 17.4444 36.8412C20.032 37.9891 20.2132 40.5768 17.7972 42.614L24.671 45.7921C34.4946 42.6328 41.3024 36.4319 48.0444 30.6755C55.9038 23.9665 62.8339 16.8599 68.4797 8.40065L61.0155 6.17058C60.9309 6.25056 60.8438 6.33289 60.7497 6.41052V6.41523Z"
            fill="white" />
    </mask>
    <g mask="url(#mask1_4312_14048)">
        <path
            d="M42.7726 8.47559C42.7726 8.47559 32.1444 22.7735 13.0547 33.0652L28.8981 40.5764C28.8981 40.5764 47.428 28.7109 60.3591 13.8085L42.7726 8.47559Z"
            fill="#445EB8" />
        <path
            d="M27.8993 26.4498L36.3703 31.0323C36.5797 31.1452 36.575 31.2934 36.3586 31.4745L35.0389 32.5943C34.8201 32.7801 34.606 32.8154 34.3967 32.7001L25.9445 27.9859C25.7587 27.8824 25.7728 27.746 25.9916 27.5743L27.2995 26.5486C27.5136 26.3816 27.7135 26.3487 27.8993 26.4498Z"
            fill="#FFE094" />
        <path
            d="M40.6375 28.0123L39.4001 29.0615C39.1955 29.2356 38.9885 29.2709 38.7791 29.165L30.2775 24.8554C30.0893 24.7613 30.0987 24.6319 30.301 24.472L33.7873 21.7408C34.5142 21.1715 35.2646 20.821 36.0432 20.6893C36.8219 20.5576 37.5676 20.654 38.2827 20.981L39.6189 21.595C40.3528 21.9314 40.7245 22.3548 40.7363 22.8653C40.7457 23.3805 40.3881 23.938 39.6589 24.5402L37.8687 26.0175C37.7534 26.1116 37.7487 26.1845 37.8546 26.2386L40.6257 27.603C40.8351 27.7065 40.8374 27.843 40.6375 28.0147V28.0123ZM36.2714 25.2506L37.7793 24.025C38.0804 23.7804 38.2263 23.5781 38.2216 23.4204C38.2169 23.2628 38.0687 23.1146 37.777 22.9758L36.6078 22.423C36.3138 22.2842 36.0432 22.2325 35.7986 22.2701C35.5539 22.3078 35.2811 22.4465 34.9823 22.6841L33.4768 23.8792C33.3709 23.9615 33.3686 24.0297 33.4697 24.0791L35.9562 25.3024C36.0597 25.3541 36.1632 25.3353 36.2691 25.2506H36.2714Z"
            fill="#FFE094" />
        <path
            d="M51.0995 18.9091L46.8675 22.4988C46.6817 22.6564 46.4864 22.6894 46.277 22.5976L37.7425 18.8761C37.5543 18.7938 37.552 18.6809 37.7355 18.535L38.8482 17.6623C39.0293 17.5188 39.2151 17.4882 39.4033 17.5682L46.4441 20.5534C46.5523 20.5981 46.6581 20.5793 46.7616 20.4922L49.4528 18.2433C49.6198 18.1045 49.8104 18.0763 50.0268 18.1633L51.0336 18.568C51.243 18.6526 51.2641 18.7656 51.0971 18.9067L51.0995 18.9091Z"
            fill="#FFE094" />
        <path
            d="M27.9883 36.1066L25.6312 35.2644L24.0057 36.1371L23.634 34.3234L21.5098 33.0579L23.5963 32.7215L23.9045 30.9478L25.6194 32.6626L28.0471 32.8767L26.8826 34.2623L27.9883 36.1066Z"
            fill="#FFDA72" />
        <path
            d="M45.0684 13.0043L47.5713 13.0302L48.8228 11.6729L49.7661 13.2654L52.1891 13.7688L50.3236 14.7686L50.613 16.5447L48.4323 15.4837L46.0658 16.0742L46.715 14.3852L45.0684 13.0043Z"
            fill="#FFDA72" />
    </g>
    <path
        d="M60.7497 6.41523C58.5596 8.26186 54.5017 9.05227 51.7353 8.18658C49.0159 7.33501 48.5949 5.20139 50.7497 3.41827C50.8438 3.34064 50.9402 3.26772 51.039 3.19244L43.7019 1C39.6322 7.73963 33.9841 13.8229 27.6773 18.9888C20.0414 25.2415 11.3822 31.0331 1.86914 35.2509C3.32292 35.9026 4.56264 37.6739 8.58995 38.3585C10.9588 36.3966 14.8991 35.7144 17.4444 36.8412C20.032 37.9891 20.2132 40.5768 17.7972 42.614L24.671 45.7921C34.4946 42.6328 41.3024 36.4319 48.0444 30.6755C55.9038 23.9665 62.8339 16.8599 68.4797 8.40065L61.0155 6.17058C60.9309 6.25056 60.8438 6.33289 60.7497 6.41052V6.41523Z"
        stroke="#231F20" stroke-width="0.775846" stroke-miterlimit="10" />
</svg>
