<svg width="65" height="57" viewBox="0 0 65 57" fill="none" xmlns="http://www.w3.org/2000/svg">
    <ellipse cx="35.7205" cy="44.5429" rx="28.5701" ry="10.87"
        transform="rotate(1.334 35.7205 44.5429)" fill="black" />
    <circle cx="26.221" cy="27.077" r="25.4349" fill="white" stroke="black" stroke-width="1.5" />
    <mask id="mask0_4410_15284" style="mask-type:alpha" maskUnits="userSpaceOnUse" x="1" y="1"
        width="49" height="51">
        <ellipse cx="25.5906" cy="26.5427" rx="24.0545" ry="24.5803" fill="#495DB2" />
    </mask>
    <g mask="url(#mask0_4410_15284)">
        <path
            d="M21.7159 37.5857C41.0211 45.9487 46.8437 32.0708 46.883 24.8458C46.9224 17.6209 43.9328 10.9724 39.5962 6.72021C45.6815 11.1643 49.6458 18.4281 49.6458 26.6346C49.6458 40.1607 38.8763 51.1257 25.5914 51.1257C15.4888 51.1257 6.84077 44.7847 3.27734 35.7984C7.41078 42.4513 7.64729 34.5375 21.7159 37.5857Z"
            fill="#0B9489" />
        <path
            d="M26.6179 55.9683C16.8181 53.4449 12.0872 39.1632 16.0512 24.0691C20.0151 8.97496 31.1728 -1.21565 40.9726 1.3077"
            stroke="#023C40" stroke-width="0.5" stroke-dasharray="1.71 1.71" />
        <path
            d="M21.3969 54.4085C9.68172 51.392 3.4258 36.6049 7.4239 21.3808C11.422 6.15658 24.1601 -3.73967 35.8753 -0.723128"
            stroke="#023C40" stroke-width="0.5" stroke-dasharray="1.71 1.71" />
        <path
            d="M21.9244 54.405C10.8964 50.7498 7.75142 37.8058 11.6365 23.012C15.5216 8.21823 27.0882 -2.96814 37.9111 -0.101815"
            stroke="#023C40" stroke-width="1.5" />
    </g>
</svg>
