<svg width="123" height="85" viewBox="0 0 123 85" fill="none" xmlns="http://www.w3.org/2000/svg">
    <g id="Layer 1">
        <g id="Group">
            <path id="Vector"
                d="M12.7794 47.061L23.4368 40.9102C23.6206 40.8038 23.9301 40.8038 24.1138 40.9102L35.0904 47.2448C35.2742 47.3511 35.2742 47.5252 35.0904 47.6413L24.433 53.792C24.2492 53.8984 23.9397 53.8984 23.756 53.792L12.7794 47.4575C12.5956 47.3511 12.5956 47.1771 12.7794 47.061Z"
                fill="white" stroke="black" stroke-width="0.3" stroke-linejoin="bevel" />
            <path id="Vector_2"
                d="M12.8567 47.3801L23.8333 53.7146C24.0171 53.821 24.1718 54.0918 24.1718 54.3046V66.9833C24.1718 67.196 24.0171 67.2928 23.8333 67.1767L12.8567 60.8422C12.673 60.7358 12.5182 60.465 12.5182 60.2522V47.5735C12.5182 47.3608 12.673 47.2641 12.8567 47.3801Z"
                fill="white" stroke="black" stroke-width="0.3" />
            <path id="Vector_3"
                d="M23.814 54.3336C23.814 54.1208 23.9688 53.85 24.1525 53.7436L35.1291 47.3704C35.3129 47.2641 35.4676 47.3511 35.4676 47.5639V60.2426C35.4676 60.4553 35.3129 60.7261 35.1291 60.8325L24.1525 67.167C23.9688 67.2734 23.814 67.1864 23.814 66.9736V54.3336Z"
                fill="#C4C4C4" stroke="black" stroke-width="0.3" stroke-linejoin="round" />
            <path id="Vector_4"
                d="M11.7253 47.0126L23.3208 40.3203C23.5239 40.2042 23.8527 40.2042 24.0558 40.3203L35.9995 47.2157C36.2026 47.3318 36.2026 47.5252 35.9995 47.6412L24.404 54.3336C24.2009 54.4496 23.8721 54.4496 23.669 54.3336L11.7253 47.4382C11.5222 47.3221 11.5222 47.1287 11.7253 47.0126Z"
                fill="white" stroke="black" stroke-width="0.33" stroke-linejoin="bevel" />
            <path id="Vector_5"
                d="M11.8123 47.3511L23.756 54.2466C23.9591 54.3626 24.1235 54.6527 24.1235 54.8848V58.8983C24.1235 59.1304 23.9591 59.2271 23.756 59.1111L11.8123 52.2156C11.6092 52.0996 11.4448 51.8095 11.4448 51.5774V47.5639C11.4448 47.3318 11.6092 47.2351 11.8123 47.3511Z"
                fill="white" stroke="black" stroke-width="0.33" />
            <path id="Vector_6"
                d="M16.5704 50.3492L18.9978 51.7515V56.1518L16.5704 54.7495V50.3492Z"
                fill="#FFD89D" />
            <path id="Vector_7" d="M16.5704 55.1943L18.9978 56.5966V64.169L16.5704 62.7667V55.1943Z"
                fill="#FFD89D" />
            <path id="Vector_8"
                d="M23.785 54.8559C23.785 54.6238 23.9494 54.3336 24.1525 54.2176L36.0479 47.3415C36.2509 47.2254 36.4154 47.3221 36.4154 47.5542V51.4903C36.4154 51.7224 36.2509 52.0126 36.0479 52.1286L24.1525 58.9951C23.9494 59.1111 23.785 59.0144 23.785 58.7823V54.8655V54.8559Z"
                fill="#C4C4C4" stroke="black" stroke-width="0.33" stroke-linejoin="round" />
            <path id="Vector_9"
                d="M16.7639 49.972L28.7656 43.0378L31.2897 44.4982L19.288 51.4323L16.7639 49.972Z"
                fill="#FFD89D" />
            <path id="Vector_10"
                d="M16.2319 44.4112L18.8044 42.9218L31.0479 49.9913L28.4754 51.4807L16.2319 44.4112Z"
                fill="#FFD89D" />
            <path id="Vector_11"
                d="M24.4426 46.7032C24.3749 43.3183 25.4484 37.0031 30.3516 38.889C35.2548 40.7652 30.6998 47.796 24.4426 46.7032Z"
                stroke="#E89F32" stroke-width="1.23" stroke-linejoin="round" />
            <path id="Vector_12"
                d="M23.8914 46.7032C23.9591 43.3183 22.9533 37.0031 18.4079 38.889C13.8625 40.7652 18.4079 47.2544 23.8914 46.7032Z"
                stroke="#E89F32" stroke-width="1.23" stroke-linejoin="round" />
            <path id="Vector_13"
                d="M28.6786 51.8481L31.5122 50.2041V54.5173L28.6786 56.1518V51.8481Z"
                fill="#FFD89D" />
            <path id="Vector_14"
                d="M28.2433 56.8771L31.0769 55.2234V62.9505L28.2433 64.5849V56.8771Z"
                fill="#FFD89D" />
        </g>
        <g id="Group_2">
            <path id="Vector_15"
                d="M90.1959 74.7684L117.342 55.8616L82.5365 53.0377L90.1959 74.7684Z"
                fill="#232326" />
            <g id="Group_3">
                <g id="Group_4">
                    <path id="Vector_16"
                        d="M98.9482 65.6294C106.378 65.6294 112.401 63.2176 112.401 60.2426C112.401 57.2676 106.378 54.8558 98.9482 54.8558C91.5186 54.8558 85.4958 57.2676 85.4958 60.2426C85.4958 63.2176 91.5186 65.6294 98.9482 65.6294Z"
                        fill="#232326" />
                    <g id="Group_5">
                        <g id="Group_6">
                            <g id="Group_7">
                                <path id="Vector_17"
                                    d="M85.283 55.9293C85.283 57.3993 86.2501 58.8693 88.1843 59.9911C92.0431 62.2155 98.2712 62.2155 102.101 59.9911C104.006 58.8887 104.954 57.438 104.964 55.9873C104.964 56.7223 104.964 57.4573 104.964 58.202C104.964 59.6527 104.006 61.1033 102.101 62.2058C98.2712 64.4301 92.0334 64.4301 88.1843 62.2058C86.2405 61.084 85.2734 59.614 85.283 58.144C85.283 57.409 85.283 56.674 85.283 55.9293Z"
                                    fill="#D29830" stroke="black" stroke-width="0.25"
                                    stroke-miterlimit="10" />
                                <path id="Vector_18"
                                    d="M88.136 51.9255C91.9657 49.7012 98.2035 49.7012 102.053 51.9255C105.911 54.1498 105.931 57.7571 102.101 59.9911C98.2712 62.2155 92.0334 62.2155 88.1844 59.9911C84.3256 57.7668 84.3063 54.1595 88.136 51.9255Z"
                                    fill="white" stroke="black" stroke-width="0.25"
                                    stroke-miterlimit="10" />
                            </g>
                            <path id="Vector_19" opacity="0.5"
                                d="M89.4899 52.6992C92.5846 50.9004 97.6136 50.9004 100.728 52.6992C103.842 54.498 103.861 57.409 100.766 59.2078C97.6716 61.0066 92.6427 61.0066 89.5286 59.2078C86.4145 57.409 86.3952 54.498 89.4899 52.6992Z"
                                fill="#FFB710" />
                            <path id="Vector_20"
                                d="M100.728 53.057C97.6136 51.2582 92.5847 51.2582 89.4899 53.057C88.0296 53.9081 87.2656 55.0009 87.1882 56.1131C87.1109 54.8849 87.8749 53.6373 89.4899 52.6992C92.5847 50.9004 97.6136 50.9004 100.728 52.6992C102.372 53.647 103.155 54.9042 103.068 56.1518C102.991 55.0299 102.217 53.9178 100.728 53.057Z"
                                fill="#FFB710" />
                        </g>
                        <g id="Group_8">
                            <g id="Group_9">
                                <path id="Vector_21"
                                    d="M87.1689 52.9507C87.1689 54.4206 88.136 55.8906 90.0702 57.0125C93.9289 59.2368 100.157 59.2368 103.987 57.0125C105.892 55.91 106.84 54.4593 106.849 53.0087C106.849 53.7437 106.849 54.4787 106.849 55.2233C106.849 56.674 105.892 58.1247 103.987 59.2271C100.157 61.4515 93.9289 61.4515 90.0702 59.2271C88.1263 58.1053 87.1592 56.6353 87.1689 55.1653C87.1689 54.4303 87.1689 53.6953 87.1689 52.9507Z"
                                    fill="#D29830" stroke="black" stroke-width="0.25"
                                    stroke-miterlimit="10" />
                                <path id="Vector_22"
                                    d="M90.0314 48.9468C93.8611 46.7225 100.099 46.7225 103.948 48.9468C107.807 51.1712 107.826 54.7785 103.996 57.0125C100.167 59.2368 93.9384 59.2368 90.0797 57.0125C86.221 54.7881 86.2016 51.1809 90.0314 48.9468Z"
                                    fill="white" stroke="black" stroke-width="0.25"
                                    stroke-miterlimit="10" />
                            </g>
                            <path id="Vector_23" opacity="0.5"
                                d="M91.3758 49.7205C94.4705 47.9217 99.4994 47.9217 102.614 49.7205C105.728 51.5193 105.747 54.4303 102.652 56.2291C99.5575 58.0279 94.5285 58.0279 91.4145 56.2291C88.3004 54.4303 88.2811 51.5193 91.3758 49.7205Z"
                                fill="#FFB710" stroke="#1A1A1A" stroke-width="0.31"
                                stroke-miterlimit="10" />
                            <path id="Vector_24"
                                d="M102.614 50.0784C99.4995 48.2796 94.4705 48.2796 91.3758 50.0784C89.9155 50.9294 89.1515 52.0222 89.0741 53.1344C88.9967 51.9062 89.7607 50.6586 91.3758 49.7205C94.4705 47.9217 99.4995 47.9217 102.614 49.7205C104.258 50.6683 105.041 51.9255 104.954 53.1731C104.877 52.0513 104.103 50.9391 102.614 50.0784Z"
                                fill="#FFB710" />
                        </g>
                        <g id="Group_10">
                            <g id="Group_11">
                                <path id="Vector_25"
                                    d="M85.9406 50.2234C85.9406 51.6934 86.9077 53.1634 88.8419 54.2852C92.7007 56.5096 98.9288 56.5096 102.759 54.2852C104.664 53.1828 105.611 51.7321 105.621 50.2814C105.621 51.0164 105.621 51.7514 105.621 52.4961C105.621 53.9468 104.664 55.3974 102.759 56.4999C98.9288 58.7242 92.7007 58.7242 88.8419 56.4999C86.8981 55.3781 85.931 53.9081 85.9406 52.4381C85.9406 51.7031 85.9406 50.9681 85.9406 50.2234Z"
                                    fill="#D29830" stroke="black" stroke-width="0.25"
                                    stroke-miterlimit="10" />
                                <path id="Vector_26"
                                    d="M88.8033 46.2196C92.633 43.9953 98.8709 43.9953 102.72 46.2196C106.579 48.4439 106.598 52.0512 102.768 54.2852C98.9386 56.5096 92.7104 56.5096 88.8517 54.2852C84.9929 52.0609 84.9736 48.4536 88.8033 46.2196Z"
                                    fill="white" stroke="black" stroke-width="0.25"
                                    stroke-miterlimit="10" />
                            </g>
                            <path id="Vector_27"
                                d="M90.1475 46.9933C93.2423 45.1945 98.2712 45.1945 101.385 46.9933C104.499 48.7921 104.519 51.7031 101.424 53.5019C98.3292 55.3007 93.3003 55.3007 90.1862 53.5019C87.0722 51.7031 87.0528 48.7921 90.1475 46.9933Z"
                                fill="#FFDA72" stroke="#1A1A1A" stroke-width="0.31"
                                stroke-miterlimit="10" />
                            <path id="Vector_28"
                                d="M101.385 47.3511C98.2712 45.5523 93.2422 45.5523 90.1475 47.3511C88.6872 48.2022 87.9232 49.295 87.8458 50.4072C87.7685 49.179 88.5325 47.9314 90.1475 46.9933C93.2422 45.1945 98.2712 45.1945 101.385 46.9933C103.029 47.9411 103.813 49.1983 103.726 50.4459C103.648 49.324 102.875 48.2119 101.385 47.3511Z"
                                fill="#FFB710" />
                        </g>
                    </g>
                </g>
                <path id="Vector_29"
                    d="M89.0257 50.5136C89.0257 48.1345 92.1688 46.1809 96.1629 45.9875C95.9501 45.9778 95.7374 45.9682 95.5149 45.9682C91.2113 45.9682 87.7298 47.9991 87.7298 50.5136C87.7298 53.028 91.221 55.0589 95.5149 55.0589C95.7374 55.0589 95.9501 55.0589 96.1629 55.0396C92.1688 54.8462 89.0257 52.8926 89.0257 50.5136Z"
                    fill="#232326" />
            </g>
            <path id="Vector_30"
                d="M35.545 32.6415L25.6805 72.4958L90.1959 74.7684L98.1648 34.537L71.5502 9.53741L35.545 32.6415Z"
                fill="#F4EDD9" stroke="black" stroke-width="0.45" stroke-miterlimit="10" />
            <path id="Vector_31" d="M98.1648 34.537L25.6805 72.4957L90.1959 74.7684L98.1648 34.537Z"
                fill="#45BA9B" stroke="black" stroke-width="0.45" stroke-miterlimit="10" />
            <path id="Vector_32" d="M35.545 32.3707L90.1959 74.4977L25.6805 72.225L35.545 32.3707Z"
                fill="#00E6C3" stroke="black" stroke-width="0.45" stroke-miterlimit="10" />
            <path id="Vector_33"
                d="M53.0785 12.961L46.8214 41.3357L62.0049 53.0377L90.8342 38.183L97.5169 15.7752L53.0785 12.961Z"
                fill="#FFD979" stroke="black" stroke-width="0.45" stroke-miterlimit="10" />
            <path id="Vector_34"
                d="M51.1443 10.0597L44.7227 39.2178L62.0049 53.0377L89.0644 39.3338L96.4337 12.4968L51.1443 10.0597Z"
                fill="#FFCCBF" stroke="black" stroke-width="0.45" stroke-miterlimit="10" />
            <path id="Vector_35"
                d="M49.2101 8.12546L42.6048 38.0863L62.0049 53.0377L87.372 40.1946L93.6485 10.9397L49.2101 8.12546Z"
                fill="#FF927A" stroke="black" stroke-width="0.45" stroke-miterlimit="10" />
            <g id="Group_12">
                <path id="Vector_36"
                    d="M69.8481 44.2467C77.1067 44.2467 82.991 38.3624 82.991 31.1038C82.991 23.8452 77.1067 17.9609 69.8481 17.9609C62.5895 17.9609 56.7052 23.8452 56.7052 31.1038C56.7052 38.3624 62.5895 44.2467 69.8481 44.2467Z"
                    fill="#873B0C" />
            </g>
            <g id="Group_13">
                <path id="Vector_37"
                    d="M66.8597 42.9024C74.1184 42.9024 80.0026 37.0182 80.0026 29.7595C80.0026 22.5009 74.1184 16.6166 66.8597 16.6166C59.6011 16.6166 53.7168 22.5009 53.7168 29.7595C53.7168 37.0182 59.6011 42.9024 66.8597 42.9024Z"
                    fill="#F4EDD9" />
                <g id="Clip path group">
                    <mask id="mask0_1059_8778" style="mask-type:luminance"
                        maskUnits="userSpaceOnUse" x="53" y="16" width="28" height="27">
                        <g id="clippath">
                            <path id="Vector_38"
                                d="M66.8597 42.9024C74.1184 42.9024 80.0026 37.0182 80.0026 29.7595C80.0026 22.5009 74.1184 16.6166 66.8597 16.6166C59.6011 16.6166 53.7168 22.5009 53.7168 29.7595C53.7168 37.0182 59.6011 42.9024 66.8597 42.9024Z"
                                fill="white" />
                        </g>
                    </mask>
                    <g mask="url(#mask0_1059_8778)">
                        <g id="Group_14">
                            <g id="Group_15">
                                <path id="Vector_39"
                                    d="M66.9371 31.5487C69.4635 31.5487 71.5115 29.5006 71.5115 26.9743C71.5115 24.4479 69.4635 22.3999 66.9371 22.3999C64.4107 22.3999 62.3627 24.4479 62.3627 26.9743C62.3627 29.5006 64.4107 31.5487 66.9371 31.5487Z"
                                    fill="#232326" />
                                <path id="Vector_40"
                                    d="M65.3704 50.3395C70.6902 50.3395 75.0027 46.0269 75.0027 40.7071C75.0027 35.3873 70.6902 31.0748 65.3704 31.0748C60.0506 31.0748 55.7381 35.3873 55.7381 40.7071C55.7381 46.0269 60.0506 50.3395 65.3704 50.3395Z"
                                    fill="#232326" />
                            </g>
                        </g>
                    </g>
                </g>
                <path id="Vector_41"
                    d="M66.8597 42.9024C74.1184 42.9024 80.0026 37.0182 80.0026 29.7595C80.0026 22.5009 74.1184 16.6166 66.8597 16.6166C59.6011 16.6166 53.7168 22.5009 53.7168 29.7595C53.7168 37.0182 59.6011 42.9024 66.8597 42.9024Z"
                    stroke="black" stroke-width="0.45" stroke-miterlimit="10" />
            </g>
            <path id="Vector_42"
                d="M67.3916 51.0551L89.7414 74.2075C89.8091 74.2849 89.7027 74.3913 89.6253 74.3236L62.5561 53.4535L67.3916 51.0551Z"
                fill="#01656B" />
            <path id="Vector_43" opacity="0.82"
                d="M93.2809 29.9143L95.7857 32.4481L94.6349 36.3745L91.0663 38.1733L93.2809 29.9143Z"
                fill="#232326" fill-opacity="0.77" />
            <path id="Vector_44"
                d="M46.9373 11.4716C46.9373 8.53107 44.5588 6.15256 41.6183 6.15256C44.5588 6.15256 46.9373 3.77405 46.9373 0.833496C46.9373 3.77405 49.3159 6.15256 52.2564 6.15256C49.3159 6.15256 46.9373 8.53107 46.9373 11.4716Z"
                fill="#F4EDD9" />
            <path id="Vector_45"
                d="M101.579 31.7808C101.579 30.1773 100.281 28.8795 98.6773 28.8795C100.281 28.8795 101.579 27.5817 101.579 25.9781C101.579 27.5817 102.876 28.8795 104.48 28.8795C102.876 28.8795 101.579 30.1773 101.579 31.7808Z"
                fill="#F4EDD9" />
            <path id="Vector_46"
                d="M36.3016 16.3071H36.2969C35.497 16.3071 34.8486 16.9556 34.8486 17.7554V17.7601C34.8486 18.56 35.497 19.2084 36.2969 19.2084H36.3016C37.1014 19.2084 37.7499 18.56 37.7499 17.7601V17.7554C37.7499 16.9556 37.1014 16.3071 36.3016 16.3071Z"
                fill="#81D9CA" />
            <path id="Vector_47"
                d="M105.933 37.5834H105.928C105.128 37.5834 104.48 38.2318 104.48 39.0317V39.0364C104.48 39.8362 105.128 40.4847 105.928 40.4847H105.933C106.733 40.4847 107.381 39.8362 107.381 39.0364V39.0317C107.381 38.2318 106.733 37.5834 105.933 37.5834Z"
                fill="#FF927A" />
            <path id="Vector_48"
                d="M116.569 35.6492H116.568C116.301 35.6492 116.085 35.8653 116.085 36.1319V36.1335C116.085 36.4001 116.301 36.6163 116.568 36.6163H116.569C116.836 36.6163 117.052 36.4001 117.052 36.1335V36.1319C117.052 35.8653 116.836 35.6492 116.569 35.6492Z"
                fill="#FFD979" />
            <path id="Vector_49"
                d="M119.955 43.386H119.952C119.419 43.386 118.986 43.8183 118.986 44.3515V44.3546C118.986 44.8879 119.419 45.3202 119.952 45.3202H119.955C120.488 45.3202 120.921 44.8879 120.921 44.3546V44.3515C120.921 43.8183 120.488 43.386 119.955 43.386Z"
                fill="#76B5FF" />
            <path id="Vector_50"
                d="M23.7277 22.1097H23.7261C23.4595 22.1097 23.2433 22.3259 23.2433 22.5925V22.5941C23.2433 22.8607 23.4595 23.0768 23.7261 23.0768H23.7277C23.9943 23.0768 24.2104 22.8607 24.2104 22.5941V22.5925C24.2104 22.3259 23.9943 22.1097 23.7277 22.1097Z"
                fill="#F7CC60" />
        </g>
        <g id="Group_16">
            <g id="Group_17">
                <g id="Group_18">
                    <path id="Vector_51"
                        d="M14.6652 76.1611C22.0948 76.1611 28.1176 73.7494 28.1176 70.7743C28.1176 67.7993 22.0948 65.3876 14.6652 65.3876C7.23567 65.3876 1.21283 67.7993 1.21283 70.7743C1.21283 73.7494 7.23567 76.1611 14.6652 76.1611Z"
                        fill="#232326" />
                    <g id="Group_19">
                        <g id="Group_20">
                            <g id="Group_21">
                                <path id="Vector_52"
                                    d="M1.00007 66.4707C1.00007 67.9407 1.96717 69.4107 3.90138 70.5326C7.76012 72.7569 13.9883 72.7569 17.818 70.5326C19.7232 69.4301 20.6709 67.9794 20.6806 66.5288C20.6806 67.2638 20.6806 67.9988 20.6806 68.7434C20.6806 70.1941 19.7232 71.6447 17.818 72.7472C13.9883 74.9716 7.75044 74.9716 3.90138 72.7472C1.9575 71.6254 0.990401 70.1554 1.00007 68.6854C1.00007 67.9504 1.00007 67.2154 1.00007 66.4707Z"
                                    fill="#D29830" stroke="black" stroke-width="0.25"
                                    stroke-miterlimit="10" />
                                <path id="Vector_53"
                                    d="M3.86277 62.4669C7.6925 60.2426 13.9303 60.2426 17.7794 62.4669C21.6381 64.6913 21.6575 68.2985 17.8277 70.5326C13.998 72.7569 7.7602 72.7569 3.91113 70.5326C0.0523924 68.3082 0.0330501 64.7009 3.86277 62.4669Z"
                                    fill="white" stroke="black" stroke-width="0.25"
                                    stroke-miterlimit="10" />
                            </g>
                            <path id="Vector_54" opacity="0.5"
                                d="M5.20696 63.2406C8.30168 61.4418 13.3306 61.4418 16.4447 63.2406C19.5588 65.0395 19.5781 67.9504 16.4834 69.7492C13.3886 71.5481 8.35971 71.5481 5.24564 69.7492C2.13157 67.9504 2.11223 65.0395 5.20696 63.2406Z"
                                fill="#FFB710" />
                            <path id="Vector_55"
                                d="M16.4447 63.5985C13.3306 61.7997 8.3017 61.7997 5.20697 63.5985C3.74665 64.4495 2.98264 65.5423 2.90527 66.6545C2.8279 65.4263 3.59191 64.1787 5.20697 63.2406C8.3017 61.4418 13.3306 61.4418 16.4447 63.2406C18.0888 64.1884 18.8721 65.4456 18.7851 66.6932C18.7077 65.5714 17.934 64.4592 16.4447 63.5985Z"
                                fill="#FFB710" />
                        </g>
                        <g id="Group_22">
                            <g id="Group_23">
                                <path id="Vector_56"
                                    d="M2.88594 63.4921C2.88594 64.9621 3.85304 66.4321 5.78724 67.5539C9.64598 69.7783 15.8741 69.7783 19.7038 67.5539C21.609 66.4514 22.5568 65.0008 22.5665 63.5501C22.5665 64.2851 22.5665 65.0201 22.5665 65.7648C22.5665 67.2154 21.609 68.6661 19.7038 69.7686C15.8741 71.9929 9.64598 71.9929 5.78724 69.7686C3.84337 68.6467 2.87627 67.1768 2.88594 65.7068C2.88594 64.9718 2.88594 64.2368 2.88594 63.4921Z"
                                    fill="#D29830" stroke="black" stroke-width="0.25"
                                    stroke-miterlimit="10" />
                                <path id="Vector_57"
                                    d="M5.74839 59.4883C9.57812 57.264 15.8159 57.264 19.665 59.4883C23.5237 61.7126 23.5431 65.3199 19.7133 67.5539C15.8836 69.7783 9.65549 69.7783 5.79675 67.5539C1.93801 65.3296 1.91867 61.7223 5.74839 59.4883Z"
                                    fill="white" stroke="black" stroke-width="0.25"
                                    stroke-miterlimit="10" />
                            </g>
                            <path id="Vector_58" opacity="0.5"
                                d="M7.09282 60.262C10.1875 58.4632 15.2165 58.4632 18.3305 60.262C21.4446 62.0608 21.464 64.9718 18.3692 66.7706C15.2745 68.5694 10.2456 68.5694 7.1315 66.7706C4.01744 64.9718 3.99809 62.0608 7.09282 60.262Z"
                                fill="#FFB710" stroke="#1A1A1A" stroke-width="0.31"
                                stroke-miterlimit="10" />
                            <path id="Vector_59"
                                d="M18.3306 60.6198C15.2165 58.821 10.1876 58.821 7.09283 60.6198C5.63251 61.4709 4.8685 62.5637 4.79113 63.6759C4.71376 62.4476 5.47777 61.2001 7.09283 60.262C10.1876 58.4632 15.2165 58.4632 18.3306 60.262C19.9746 61.2097 20.758 62.467 20.6709 63.7145C20.5936 62.5927 19.8199 61.4805 18.3306 60.6198Z"
                                fill="#FFB710" />
                        </g>
                        <g id="Group_24">
                            <g id="Group_25">
                                <path id="Vector_60"
                                    d="M1.6577 60.7648C1.6577 62.2348 2.6248 63.7048 4.559 64.8267C8.41774 67.051 14.6459 67.051 18.4756 64.8267C20.3808 63.7242 21.3286 62.2735 21.3382 60.8229C21.3382 61.5579 21.3382 62.2929 21.3382 63.0375C21.3382 64.4882 20.3808 65.9388 18.4756 67.0413C14.6459 69.2657 8.41774 69.2657 4.559 67.0413C2.61513 65.9195 1.64802 64.4495 1.6577 62.9795C1.6577 62.2445 1.6577 61.5095 1.6577 60.7648Z"
                                    fill="#D29830" stroke="black" stroke-width="0.25"
                                    stroke-miterlimit="10" />
                                <path id="Vector_61"
                                    d="M4.5204 56.761C8.35012 54.5367 14.5879 54.5367 18.437 56.761C22.2957 58.9854 22.3151 62.5926 18.4854 64.8267C14.6556 67.051 8.42749 67.051 4.56875 64.8267C0.710016 62.6023 0.690674 58.995 4.5204 56.761Z"
                                    fill="white" stroke="black" stroke-width="0.25"
                                    stroke-miterlimit="10" />
                            </g>
                            <path id="Vector_62"
                                d="M5.86461 57.5347C8.95934 55.7359 13.9883 55.7359 17.1023 57.5347C20.2164 59.3336 20.2357 62.2445 17.141 64.0433C14.0463 65.8422 9.01736 65.8422 5.90329 64.0433C2.78923 62.2445 2.76988 59.3336 5.86461 57.5347Z"
                                fill="#FFDA72" stroke="#1A1A1A" stroke-width="0.31"
                                stroke-miterlimit="10" />
                            <path id="Vector_63"
                                d="M17.1023 57.8926C13.9883 56.0938 8.95932 56.0938 5.86459 57.8926C4.40427 58.7436 3.64026 59.8364 3.56289 60.9486C3.48552 59.7204 4.24953 58.4728 5.86459 57.5347C8.95932 55.7359 13.9883 55.7359 17.1023 57.5347C18.7464 58.4825 19.5297 59.7397 19.4427 60.9873C19.3653 59.8655 18.5917 58.7533 17.1023 57.8926Z"
                                fill="#FFB710" />
                        </g>
                    </g>
                </g>
                <path id="Vector_64"
                    d="M4.75243 61.055C4.75243 58.6759 7.89551 56.7223 11.8896 56.5289C11.6769 56.5193 11.4641 56.5096 11.2417 56.5096C6.93808 56.5096 3.45651 58.5405 3.45651 61.055C3.45651 63.5694 6.94775 65.6003 11.2417 65.6003C11.4641 65.6003 11.6769 65.6003 11.8896 65.581C7.89551 65.3876 4.75243 63.434 4.75243 61.055Z"
                    fill="#232326" />
            </g>
            <g id="Group_26">
                <path id="Vector_65"
                    d="M26.6573 78.7956C26.6573 81.738 31.5798 84.13 37.6532 84.13C43.7266 84.13 48.6492 81.738 48.6492 78.7956C48.6492 75.8531 43.7266 73.4612 37.6532 73.4612C31.5798 73.4612 26.6573 75.8531 26.6573 78.7956Z"
                    fill="#232326" />
                <g id="Group_27">
                    <g id="Group_28">
                        <path id="Vector_66"
                            d="M42.7499 74.3218L42.6822 72.4503L42.2567 71.3494L41.9955 72.2601L42.7499 74.3218Z"
                            fill="#D8801F" />
                        <path id="Vector_67"
                            d="M23.7753 74.6721L23.7076 72.8406C23.7076 72.8406 25.2066 74.3919 25.2066 74.4319C25.2066 74.4719 23.7753 74.6821 23.7753 74.6821V74.6721Z"
                            fill="#FFD35A" />
                        <g id="Group_29">
                            <path id="Vector_68"
                                d="M33.398 80.1167C38.6397 79.9865 42.7982 77.2342 42.6821 72.4403C42.5661 67.6463 38.2335 63.8731 32.9918 64.0032C27.7501 64.1333 23.5915 68.1167 23.7076 72.9107C23.814 77.6946 28.1563 80.2468 33.398 80.1167Z"
                                fill="#D29830" stroke="black" stroke-width="0.18"
                                stroke-miterlimit="10" />
                            <path id="Vector_69"
                                d="M33.4578 83.2139C38.696 83.0842 42.8527 79.0998 42.7421 74.3144C42.6315 69.529 38.2955 65.7548 33.0573 65.8844C27.8191 66.014 23.6624 69.9985 23.773 74.7839C23.8836 79.5693 28.2196 83.3435 33.4578 83.2139Z"
                                fill="#FFD35A" />
                            <path id="Vector_70"
                                d="M39.8872 68.3068C41.6087 69.8281 42.7015 71.9499 42.7499 74.3118C42.8562 79.0958 38.7074 83.0891 33.4657 83.2192C30.8739 83.2793 28.5045 82.3885 26.754 80.8973L39.8872 68.3068Z"
                                fill="#D8801F" />
                            <path id="Vector_71"
                                d="M33.449 82.8337C38.4522 82.7098 42.4224 78.9004 42.3167 74.3249C42.211 69.7495 38.0693 66.1408 33.0661 66.2646C28.0629 66.3884 24.0926 70.1979 24.1984 74.7734C24.3041 79.3488 28.4458 82.9575 33.449 82.8337Z"
                                fill="white" />
                            <path id="Vector_72"
                                d="M33.4111 81.1928C37.4318 81.0933 40.6225 78.0381 40.5377 74.369C40.4529 70.6998 37.1247 67.806 33.104 67.9055C29.0832 68.005 25.8925 71.0601 25.9773 74.7293C26.0621 78.3985 29.3903 81.2923 33.4111 81.1928Z"
                                fill="#FFD979" />
                        </g>
                        <path id="Vector_73"
                            d="M42.6822 72.4503C42.7015 73.1609 42.7596 73.6813 42.6048 74.3418C42.3921 73.6413 41.9472 71.5395 41.9472 71.5395L41.2219 69.8681L40.6223 69.3577L39.6068 68.5871L39.5198 66.175C41.4153 67.7063 42.6338 69.9382 42.6919 72.4403L42.6822 72.4503Z"
                            fill="#232326" />
                    </g>
                    <path id="Vector_74"
                        d="M24.3169 72.2001L24.2782 71.7097C24.2782 71.6396 24.2202 71.5796 24.1622 71.5796H24.1235C24.0558 71.5796 24.0074 71.6396 24.0074 71.7097L24.0461 72.2001C24.0461 72.2701 24.1042 72.3302 24.1622 72.3302H24.2009C24.2686 72.3302 24.3169 72.2701 24.3169 72.2001Z"
                        fill="#D8801F" />
                </g>
                <g id="Group_30">
                    <path id="Vector_75"
                        d="M33.2626 81.5078C37.2791 81.5078 40.5352 78.3891 40.5352 74.542C40.5352 70.6949 37.2791 67.5762 33.2626 67.5762C29.246 67.5762 25.99 70.6949 25.99 74.542C25.99 78.3891 29.246 81.5078 33.2626 81.5078Z"
                        stroke="#1A1A1A" stroke-width="0.37" stroke-miterlimit="10" />
                    <path id="Vector_76"
                        d="M33.2626 83.3193C38.2833 83.3193 42.3534 79.3896 42.3534 74.542C42.3534 69.6944 38.2833 65.7647 33.2626 65.7647C28.2419 65.7647 24.1718 69.6944 24.1718 74.542C24.1718 79.3896 28.2419 83.3193 33.2626 83.3193Z"
                        stroke="#1A1A1A" stroke-width="0.37" stroke-miterlimit="10" />
                </g>
                <path id="Vector_77"
                    d="M26.6766 75.4228C26.6766 71.5395 29.8971 68.3969 33.8622 68.3969C35.632 68.3969 37.247 69.0274 38.5043 70.0583C37.189 68.537 35.2161 67.5662 33.0208 67.5662C29.0557 67.5662 25.8352 70.7088 25.8352 74.5921C25.8352 76.7439 26.8217 78.6655 28.3787 79.9565C27.3149 78.7355 26.6766 77.1542 26.6766 75.4228Z"
                    fill="#232326" />
            </g>
            <g id="Group_31">
                <path id="Vector_78"
                    d="M112.565 73.3759C118.328 73.3759 123 70.5095 123 66.9737C123 63.4378 118.328 60.5714 112.565 60.5714C106.802 60.5714 102.13 63.4378 102.13 66.9737C102.13 70.5095 106.802 73.3759 112.565 73.3759Z"
                    fill="#232326" />
                <g id="Group_32">
                    <g id="Group_33">
                        <path id="Vector_79"
                            d="M108.474 72.08C112.897 72.08 116.482 68.4948 116.482 64.0724C116.482 59.6499 112.897 56.0648 108.474 56.0648C104.052 56.0648 100.466 59.6499 100.466 64.0724C100.466 68.4948 104.052 72.08 108.474 72.08Z"
                            fill="#93B5FE" />
                        <g id="Clip path group_2">
                            <mask id="mask1_1059_8778" style="mask-type:luminance"
                                maskUnits="userSpaceOnUse" x="100" y="56" width="17" height="17">
                                <g id="clippath-1">
                                    <path id="Vector_80"
                                        d="M108.474 72.08C112.897 72.08 116.482 68.4948 116.482 64.0724C116.482 59.6499 112.897 56.0648 108.474 56.0648C104.052 56.0648 100.466 59.6499 100.466 64.0724C100.466 68.4948 104.052 72.08 108.474 72.08Z"
                                        fill="white" />
                                </g>
                            </mask>
                            <g mask="url(#mask1_1059_8778)">
                                <g id="Group_34">
                                    <path id="Vector_81"
                                        d="M113.88 58.3374C114.78 59.6333 115.321 61.2097 115.321 62.9118C115.321 67.3412 111.733 70.9194 107.314 70.9194C105.612 70.9194 104.035 70.3875 102.739 69.4785C104.19 71.5577 106.588 72.9213 109.316 72.9213C113.745 72.9213 117.323 69.3334 117.323 64.9137C117.323 62.1865 115.96 59.7881 113.88 58.3374Z"
                                        fill="#232326" />
                                </g>
                            </g>
                        </g>
                        <path id="Vector_82"
                            d="M108.474 72.08C112.897 72.08 116.482 68.4948 116.482 64.0724C116.482 59.6499 112.897 56.0648 108.474 56.0648C104.052 56.0648 100.466 59.6499 100.466 64.0724C100.466 68.4948 104.052 72.08 108.474 72.08Z"
                            stroke="black" stroke-width="0.5" stroke-miterlimit="10" />
                    </g>
                    <path id="Vector_83"
                        d="M104.973 63.0763C106.079 63.0763 106.975 62.18 106.975 61.0743C106.975 59.9687 106.079 59.0724 104.973 59.0724C103.868 59.0724 102.971 59.9687 102.971 61.0743C102.971 62.18 103.868 63.0763 104.973 63.0763Z"
                        fill="white" />
                </g>
            </g>
            <g id="Group_35">
                <g id="Group_36">
                    <path id="Vector_84"
                        d="M97.1107 81.8574C102.991 81.8574 107.758 78.8438 107.758 75.1263C107.758 71.4089 102.991 68.3953 97.1107 68.3953C91.2301 68.3953 86.4629 71.4089 86.4629 75.1263C86.4629 78.8438 91.2301 81.8574 97.1107 81.8574Z"
                        fill="#232326" />
                    <g id="Group_37">
                        <g id="Group_38">
                            <path id="Vector_85"
                                d="M85.0316 73.7144C85.0316 75.1167 85.9503 76.5093 87.7975 77.5828C91.4725 79.7007 97.4008 79.7007 101.056 77.5828C102.865 76.5286 103.774 75.1553 103.784 73.7724C103.784 74.4784 103.784 75.1747 103.784 75.8807C103.784 77.2636 102.875 78.6369 101.056 79.691C97.4105 81.809 91.4725 81.809 87.7975 79.691C85.9503 78.6272 85.0219 77.2249 85.0316 75.8226C85.0316 75.1167 85.0316 74.4203 85.0316 73.7144Z"
                                fill="#D29830" stroke="black" stroke-width="0.24"
                                stroke-miterlimit="10" />
                            <path id="Vector_86"
                                d="M87.7588 69.8943C91.4048 67.7764 97.3428 67.7764 101.018 69.8943C104.693 72.0123 104.712 75.4551 101.056 77.5731C97.4105 79.6911 91.4725 79.6911 87.7975 77.5731C84.1225 75.4551 84.1032 72.0123 87.7588 69.8943Z"
                                fill="white" stroke="black" stroke-width="0.24"
                                stroke-miterlimit="10" />
                        </g>
                        <path id="Vector_87" opacity="0.5"
                            d="M89.0353 70.639C91.985 68.9272 96.7722 68.9272 99.7412 70.639C102.71 72.3507 102.72 75.1263 99.7798 76.8381C96.8302 78.5499 92.043 78.5499 89.074 76.8381C86.105 75.1263 86.0954 72.3507 89.0353 70.639Z"
                            fill="#FFB710" />
                        <path id="Vector_88"
                            d="M99.7412 70.9774C96.7722 69.2657 91.985 69.2657 89.0354 70.9774C87.6427 71.7898 86.9174 72.8343 86.84 73.8884C86.7627 72.7182 87.488 71.5287 89.0354 70.639C91.985 68.9272 96.7722 68.9272 99.7412 70.639C101.308 71.5384 102.053 72.7376 101.966 73.9271C101.898 72.8536 101.153 71.7995 99.7412 70.9774Z"
                            fill="#FFB710" />
                    </g>
                </g>
                <path id="Vector_89"
                    d="M87.9812 73.5016C87.9812 71.2386 90.9696 69.3721 94.7799 69.198C94.5768 69.1883 94.3738 69.1786 94.161 69.1786C90.0605 69.1786 86.7433 71.1129 86.7433 73.5016C86.7433 75.8903 90.0605 77.8245 94.161 77.8245C94.3738 77.8245 94.5768 77.8245 94.7799 77.8052C90.9696 77.6215 87.9812 75.7646 87.9812 73.5016Z"
                    fill="#232326" />
            </g>
        </g>
    </g>
</svg>
