<svg width="446" height="100" viewBox="0 0 446 100" fill="none" xmlns="http://www.w3.org/2000/svg">
<g clip-path="url(#clip0_102_199)">
<path fill-rule="evenodd" clip-rule="evenodd" d="M50.2227 0C54.3136 1.81818 58.4046 3.63638 62.4955 5.45457C67.2515 7.55608 72.0114 9.64775 76.775 11.7296C82.5326 14.2659 88.2962 16.8038 94.0659 19.3432C94.6359 19.5433 95.135 19.9058 95.5016 20.3859C95.8683 20.866 96.0865 21.4429 96.1295 22.0454C96.2046 22.6986 96.0595 23.3582 95.7175 23.9197C95.3754 24.4812 94.8558 24.9126 94.2409 25.1455C89.8659 27.1455 85.4614 29.0841 81.0591 31.0432C73.9818 34.1977 66.903 37.35 59.8227 40.5C56.9023 41.8 53.975 43.0773 51.0682 44.4068C50.6005 44.6302 50.0888 44.7462 49.5705 44.7462C49.0522 44.7462 48.5404 44.6302 48.0727 44.4068C41.4546 41.4962 34.8379 38.5818 28.2227 35.6636C20.5439 32.2788 12.8636 28.8962 5.18183 25.5159C4.54294 25.3114 3.98617 24.908 3.59283 24.3646C3.19949 23.8212 2.99018 23.1663 2.99546 22.4955C2.99403 21.8573 3.18977 21.2342 3.55589 20.7114C3.92201 20.1887 4.44066 19.7918 5.04092 19.575C12.0106 16.4993 18.9803 13.4076 25.95 10.3C31.2591 7.93181 36.5523 5.52728 41.8591 3.15C43.8341 2.26591 45.8273 1.42502 47.8 0.536381C48.1023 0.400017 48.4818 0.354559 48.675 0.00683178L50.2227 0ZM9.92728 22.5182C16.4341 25.3864 22.7841 28.2 29.1364 30.9887C35.4886 33.7773 41.8636 36.5409 48.1795 39.3977C48.6341 39.6332 49.1395 39.7536 49.6514 39.7485C50.1633 39.7433 50.6662 39.6127 51.1159 39.3682C58.1114 36.1864 65.1455 33.075 72.1705 29.95C76.2114 28.1523 80.2636 26.3704 84.3023 24.5682C85.8932 23.8591 87.4614 23.1068 89.1682 22.3137C88.8682 22.1614 88.7295 22.0864 88.5864 22.0205C84.5152 20.2159 80.4432 18.4121 76.3705 16.6091C70.5508 14.0439 64.7288 11.4841 58.9046 8.92955C56.0386 7.66818 53.1864 6.37954 50.3182 5.12727C50.1115 5.00518 49.879 4.93319 49.6395 4.91701C49.3999 4.90083 49.1599 4.9409 48.9386 5.03408C42.0826 8.12954 35.2167 11.2023 28.3409 14.2523C24.3591 16.0273 20.3682 17.775 16.3886 19.5546C14.2682 20.5046 12.1682 21.4864 9.92728 22.5182V22.5182Z" fill="white"/>
<path fill-rule="evenodd" clip-rule="evenodd" d="M47.6817 74.334C47.6817 81.7582 47.6817 89.1787 47.6817 96.5953C47.7407 97.2981 47.5607 98.0003 47.1709 98.5881C46.7811 99.1758 46.2044 99.6149 45.534 99.834C44.8872 100.075 44.1725 100.057 43.5385 99.784L25.4499 92.0749C19.2529 89.4249 13.0484 86.7787 6.83626 84.1362C5.23171 83.4544 3.64081 82.7339 2.03853 82.0453C1.45088 81.802 0.950351 81.3871 0.602429 80.8546C0.254507 80.3222 0.0753902 79.6971 0.0885288 79.0612C0.0544379 78.509 0.0476248 77.9567 0.0476248 77.4021C0.0370188 64.6446 0.0271692 51.887 0.0180782 39.1294C0.0180782 37.4044 -0.0273762 35.6795 0.00216922 33.9545C-0.0325548 33.4077 0.0782254 32.8616 0.323228 32.3716C0.568231 31.8816 0.938703 31.4653 1.39693 31.165C1.85515 30.8648 2.38476 30.6913 2.93182 30.6623C3.47888 30.6333 4.02386 30.7498 4.51126 30.9999C12.3552 34.3332 20.1946 37.6817 28.0294 41.0454C33.8143 43.5181 39.5991 45.9893 45.384 48.459C46.0866 48.7258 46.6837 49.2135 47.0853 49.8488C47.487 50.484 47.6715 51.2325 47.6113 51.9817C47.6113 59.4332 47.6113 66.8855 47.6113 74.3385L47.6817 74.334Z" fill="white"/>
<path fill-rule="evenodd" clip-rule="evenodd" d="M99.6636 56.3978C99.6636 63.6887 99.6409 70.9773 99.6795 78.2682C99.7603 79.0757 99.5677 79.8868 99.1325 80.5717C98.6974 81.2567 98.0448 81.7756 97.2795 82.0455C92.1954 84.2 87.1477 86.4342 82.0818 88.6364C76.8682 90.8955 71.6523 93.1485 66.4341 95.3955C63.0863 96.841 59.7477 98.3114 56.3864 99.7296C55.9117 99.9288 55.3941 100.004 54.8823 99.9483C54.3706 99.8926 53.8813 99.7076 53.4607 99.4108C53.0401 99.114 52.7018 98.7151 52.4777 98.2517C52.2536 97.7882 52.151 97.2754 52.1795 96.7614C52.1636 92.0091 52.2432 87.2568 52.1613 82.5068C51.9886 72.4546 52.125 62.4023 51.9886 52.3501C51.9 51.4767 52.1093 50.5989 52.5826 49.8595C53.0558 49.1202 53.7652 48.5625 54.5955 48.2773C65.2546 43.7152 75.8992 39.1205 86.5296 34.4932C89.2864 33.3001 92.0318 32.0841 94.7818 30.8728C95.2888 30.5669 95.8714 30.4092 96.4634 30.4176C97.0555 30.426 97.6334 30.6002 98.1315 30.9203C98.6296 31.2405 99.0281 31.6938 99.2816 32.2289C99.5351 32.764 99.6336 33.3595 99.5659 33.9477C99.5818 41.4318 99.5659 48.9182 99.5659 56.4046L99.6636 56.3978ZM94.975 56.9455H94.95C94.95 50.2728 94.95 43.6023 94.95 36.9296C94.95 36.1637 94.9795 35.8136 94.0068 36.2477C90.0045 38.0659 85.9591 39.7659 81.9295 41.5114C73.7841 45.0387 65.6348 48.5591 57.4818 52.0728C57.1974 52.1552 56.9538 52.3404 56.7984 52.5925C56.643 52.8445 56.5869 53.1453 56.6409 53.4364C56.7045 57.0114 56.7227 60.5887 56.7591 64.1637C56.8568 73.9364 56.8204 83.691 56.8159 93.4546C56.8159 94.2614 56.9454 94.5114 57.7704 94.1182C59.1977 93.4364 60.6659 92.8387 62.1182 92.2114C67.2697 89.9857 72.4288 87.7599 77.5955 85.5341C83.0773 83.1614 88.55 80.7614 94.0409 78.4092C94.3449 78.3206 94.6071 78.1262 94.7801 77.861C94.9531 77.5959 95.0255 77.2775 94.9841 76.9637C94.9591 70.2887 94.975 63.616 94.975 56.9341V56.9455Z" fill="white"/>
<path d="M145.227 79.5455V73.1364L150.909 72.0455V33.7682L145.227 32.6705V26.225H167.309V32.6705L161.591 33.7682V71.3432H176.643L177.157 64.6409H185.323V79.5455H145.227ZM208.409 80.3137C205.866 80.4279 203.329 79.9968 200.967 79.0493C198.604 78.1019 196.472 76.66 194.713 74.8205C191.242 71.021 189.401 66.0111 189.586 60.8682V59.4023C189.377 54.1246 191.103 48.9522 194.438 44.8568C196.03 42.9777 198.031 41.4884 200.287 40.5034C202.544 39.5184 204.997 39.064 207.457 39.175C209.758 39.0388 212.061 39.4001 214.21 40.2343C216.359 41.0685 218.302 42.356 219.909 44.0091C223.008 47.6371 224.595 52.3172 224.341 57.0818V62.9046H200.682L200.609 63.1318C200.711 65.5182 201.636 67.7957 203.227 69.5773C204.036 70.4295 205.019 71.097 206.109 71.5343C207.2 71.9717 208.372 72.1685 209.545 72.1114C211.535 72.1599 213.52 71.9195 215.441 71.3978C217.223 70.8261 218.941 70.0713 220.568 69.1455L223.461 75.7364C221.541 77.1777 219.389 78.2799 217.098 78.9955C214.293 79.9056 211.358 80.3509 208.409 80.3137V80.3137ZM207.457 47.4273C206.549 47.3954 205.648 47.5858 204.831 47.982C204.015 48.3781 203.307 48.9679 202.77 49.7C201.532 51.459 200.797 53.5225 200.645 55.6682L200.754 55.8523H213.863V54.9C213.965 52.9593 213.404 51.0417 212.273 49.4614C211.687 48.7651 210.945 48.2178 210.107 47.8645C209.269 47.5113 208.359 47.3622 207.452 47.4296L207.457 47.4273ZM228.802 73.1364L233.929 72.0455V47.4659L228.248 46.3682V39.9228H243.884L244.359 45.6046C245.586 43.6663 247.255 42.047 249.229 40.8796C251.199 39.7458 253.438 39.164 255.711 39.1955C257.455 39.0993 259.198 39.3873 260.818 40.0392C262.438 40.6912 263.895 41.6911 265.086 42.9682C267.332 45.4834 268.454 49.4228 268.454 54.7864V72.0455L273.582 73.1432V79.5455H253.154V73.1364L257.727 72.0455V54.8341C257.927 52.8117 257.351 50.7889 256.116 49.175C255.462 48.5786 254.693 48.1224 253.856 47.8343C253.019 47.5463 252.132 47.4325 251.25 47.5C249.929 47.4783 248.623 47.7736 247.441 48.3614C246.318 48.9346 245.351 49.7704 244.62 50.7978V72.0455L248.938 73.1432V79.5455H228.802V73.1364ZM302.411 74.7114C301.287 76.429 299.775 77.859 297.998 78.8864C296.22 79.8586 294.219 80.3505 292.193 80.3137C290.007 80.4153 287.828 79.9812 285.848 79.0492C283.867 78.1172 282.145 76.7155 280.829 74.9659C277.958 70.8291 276.535 65.8591 276.782 60.8296V60.0614C276.528 54.7192 277.949 49.4312 280.848 44.9364C282.107 43.087 283.817 41.5888 285.816 40.5829C287.815 39.5769 290.037 39.0963 292.272 39.1864C294.137 39.1583 295.977 39.6057 297.62 40.4864C299.26 41.399 300.684 42.6539 301.795 44.1659V29.9568L296.075 28.8637V22.4182H312.482V72.0455L317.609 73.1432V79.5455H303.216L302.411 74.7114ZM287.468 60.8318C287.325 63.664 287.924 66.4844 289.207 69.0137C289.782 69.9939 290.621 70.7931 291.627 71.3206C292.634 71.8481 293.769 72.0827 294.902 71.9978C296.317 72.0335 297.716 71.7056 298.968 71.0455C300.133 70.3941 301.106 69.4472 301.788 68.3V51.4818C301.12 50.2756 300.155 49.259 298.986 48.5273C297.772 47.8167 296.383 47.4608 294.977 47.5C293.787 47.4469 292.608 47.7495 291.59 48.3692C290.572 48.9889 289.762 49.8977 289.263 50.9796C287.955 53.8256 287.34 56.9409 287.468 60.0705V60.8318ZM359.318 60.8318C359.573 65.8587 358.185 70.8318 355.363 75C354.042 76.7562 352.309 78.1597 350.316 79.0865C348.323 80.0133 346.133 80.4348 343.938 80.3137C341.832 80.3649 339.749 79.8651 337.895 78.8637C336.131 77.8448 334.647 76.404 333.577 74.6705L332.807 79.5455H323.577V29.9614L317.895 28.8637V22.4182H334.229V44.1341C335.303 42.613 336.713 41.3601 338.35 40.4728C340.052 39.5938 341.946 39.1532 343.861 39.1909C346.105 39.0765 348.341 39.5401 350.355 40.5373C352.368 41.5346 354.092 43.032 355.361 44.8864C358.203 49.4211 359.584 54.7188 359.318 60.0637V60.8318ZM348.661 60.0637C348.802 56.9162 348.219 53.7784 346.959 50.8909C346.443 49.8095 345.613 48.9083 344.578 48.3044C343.543 47.7005 342.35 47.4218 341.154 47.5046C339.681 47.4568 338.223 47.8179 336.943 48.5478C335.775 49.2657 334.836 50.3006 334.234 51.5318V68.2682C334.849 69.4446 335.798 70.4132 336.961 71.0523C338.28 71.7242 339.748 72.0518 341.227 72.0046C342.368 72.1143 343.518 71.8989 344.542 71.3834C345.566 70.8678 346.424 70.0731 347.016 69.0909C348.251 66.5203 348.817 63.6796 348.663 60.8318L348.661 60.0637ZM364.261 59.3682C364.045 54.0786 365.815 48.8994 369.223 44.8478C370.945 42.9459 373.069 41.4513 375.441 40.4725C377.813 39.4937 380.374 39.0551 382.936 39.1887C385.503 39.0517 388.068 39.4865 390.446 40.4617C392.825 41.4368 394.957 42.9279 396.688 44.8273C400.103 48.8846 401.873 54.0744 401.65 59.3728V60.1409C401.878 65.4434 400.107 70.6383 396.688 74.6978C394.965 76.586 392.845 78.0689 390.481 79.04C388.116 80.011 385.566 80.446 383.013 80.3137C380.443 80.4532 377.873 80.0216 375.489 79.0498C373.105 78.078 370.965 76.5902 369.225 74.6932C365.806 70.6338 364.035 65.4388 364.263 60.1364L364.261 59.3682ZM374.954 60.1364C374.817 63.1524 375.473 66.1517 376.859 68.8341C377.474 69.9021 378.377 70.7757 379.465 71.3552C380.553 71.9346 381.782 72.1967 383.011 72.1114C384.229 72.1853 385.443 71.9155 386.514 71.3328C387.586 70.7501 388.472 69.878 389.073 68.8159C390.466 66.1425 391.13 63.1484 390.995 60.1364V59.3682C391.119 56.3782 390.45 53.4087 389.054 50.7614C388.45 49.6884 387.556 48.8069 386.475 48.2178C385.393 47.6286 384.168 47.3555 382.938 47.4296C381.714 47.3527 380.492 47.625 379.416 48.2148C378.34 48.8046 377.453 49.6876 376.859 50.7614C375.488 53.4164 374.831 56.3826 374.954 59.3682V60.1364ZM404.397 73.1364L408.095 72.55L418.863 59.5137L408.463 46.9887L404.772 46.3637V39.9182H422.607V46.1068L418.97 46.5455L424.977 54.1637L430.872 46.5455L427.175 46.1068V39.9182H445.082V46.3637L441.493 46.9864L431.313 59.5114L442.045 72.55L445.782 73.1364V79.5455H427.654V73.3932L431.291 72.9546L425.138 64.9705L418.863 72.9909L422.045 73.3932V79.5455H404.393L404.397 73.1364Z" fill="white"/>
</g>
<defs>
<clipPath id="clip0_102_199">
<rect width="445.782" height="100" fill="white"/>
</clipPath>
</defs>
</svg>
