<?xml version="1.0" standalone="no"?>
<!DOCTYPE svg PUBLIC "-//W3C//DTD SVG 20010904//EN"
 "http://www.w3.org/TR/2001/REC-SVG-20010904/DTD/svg10.dtd">
<svg version="1.0" xmlns="http://www.w3.org/2000/svg"
 width="200.000000pt" height="200.000000pt" viewBox="0 0 200.000000 200.000000"
 preserveAspectRatio="xMidYMid meet">
<metadata>
Created by potrace 1.16, written by Peter Selinger 2001-2019
</metadata>
<g transform="translate(0.000000,200.000000) scale(0.100000,-0.100000)"
fill="#000000" stroke="none">
<path d="M111 1187 c-52 -24 -97 -49 -99 -57 -3 -7 4 -20 14 -28 18 -13 18
-14 -4 -7 l-23 7 3 -128 3 -128 94 -39 c52 -21 109 -39 126 -39 17 0 74 18
126 40 l94 40 3 127 c3 139 7 130 -53 111 -11 -4 -5 1 13 11 18 9 31 23 30 31
-3 15 -189 102 -217 101 -9 0 -58 -19 -110 -42z m195 -29 l75 -31 -78 -34 -78
-34 -81 33 -82 33 72 32 c39 17 77 32 84 32 7 1 46 -13 88 -31z m104 -196 l0
-88 -75 -31 -75 -32 0 90 c0 58 4 88 10 84 6 -3 10 -1 10 5 0 6 5 8 11 4 6 -3
14 -2 18 4 5 9 86 51 99 52 1 0 2 -40 2 -88z"/>
<path d="M1320 1115 c0 -14 5 -25 10 -25 6 0 10 -7 10 -15 0 -10 -10 -15 -33
-15 -25 0 -36 -6 -49 -27 -26 -46 -31 -87 -14 -127 19 -45 44 -54 124 -48 52
4 62 7 62 23 0 11 -4 19 -10 19 -6 0 -10 47 -10 120 l0 120 -45 0 c-41 0 -45
-2 -45 -25z"/>
<path d="M1420 1116 c0 -14 5 -26 10 -26 6 0 10 -45 10 -115 l0 -116 38 1 c20
1 47 -2 59 -5 37 -12 83 42 83 97 0 25 -8 56 -20 76 -16 26 -26 32 -54 32 -33
0 -35 2 -38 38 -3 36 -4 37 -45 40 -40 3 -43 1 -43 -22z"/>
<path d="M640 1095 c0 -16 6 -25 15 -25 12 0 15 -16 15 -85 0 -69 -3 -85 -15
-85 -8 0 -15 -9 -15 -20 0 -19 7 -20 100 -20 l100 0 1 33 c0 30 1 30 11 10 6
-12 26 -29 46 -39 29 -13 41 -14 73 -5 32 10 38 16 35 34 -3 19 -9 22 -39 19
-20 -2 -42 0 -49 5 -8 5 8 10 42 13 l55 5 -1 42 c-1 53 -32 82 -86 83 -30 0
-42 -6 -62 -33 -15 -19 -26 -46 -26 -60 0 -22 -5 -27 -25 -27 -14 0 -28 -7
-31 -15 -4 -8 -17 -15 -30 -15 -23 0 -24 2 -24 80 0 64 3 80 15 80 9 0 15 9
15 25 0 24 -3 25 -60 25 -57 0 -60 -1 -60 -25z"/>
<path d="M1020 1035 c0 -14 5 -25 10 -25 6 0 10 -25 10 -55 0 -30 -4 -55 -10
-55 -5 0 -10 -9 -10 -20 0 -19 7 -20 110 -20 103 0 110 1 110 20 0 11 -7 20
-15 20 -12 0 -15 13 -15 58 0 89 -13 101 -110 101 -78 0 -80 0 -80 -24z"/>
<path d="M1653 1027 c-60 -88 9 -203 100 -168 30 12 57 58 57 99 0 16 -10 44
-23 63 -19 29 -29 34 -67 37 -41 2 -47 0 -67 -31z"/>
<path d="M1810 1041 c0 -11 11 -32 25 -47 14 -15 25 -32 25 -38 -1 -16 -36
-56 -49 -56 -6 0 -11 -9 -11 -20 0 -17 7 -20 51 -20 47 0 50 2 47 23 -1 12 2
22 7 22 5 0 8 -10 7 -22 -3 -21 1 -23 42 -23 54 0 60 16 21 58 -14 15 -25 31
-25 35 0 19 22 47 32 41 7 -4 8 -3 4 4 -4 7 -2 12 3 12 6 0 11 11 11 25 0 23
-4 25 -45 25 -45 0 -45 0 -45 -36 0 -19 -4 -33 -8 -30 -5 3 -7 19 -4 36 4 30
4 30 -42 30 -39 0 -46 -3 -46 -19z"/>
</g>
</svg>
