<svg width="60" height="13" viewBox="0 0 60 13" fill="none" xmlns="http://www.w3.org/2000/svg">
<path d="M5.98265 8.14997C5.98265 8.61138 5.98039 9.07279 5.98265 9.53421C5.98793 10.5054 5.99547 11.4759 6 12.4471C6 12.5291 5.99397 12.6126 5.97813 12.6923C5.92834 12.9398 5.7126 13.0639 5.49007 12.9671C4.69122 12.6181 3.89389 12.2652 3.0958 11.9139C2.39276 11.6039 1.68896 11.2955 0.985919 10.9848C0.749057 10.8802 0.514458 10.7685 0.277596 10.6631C0.101081 10.5851 0.0226301 10.4484 0.0218757 10.2525C0.020367 8.96583 0.0188583 7.67841 0.0143323 6.39177C0.0120693 5.7703 0.00301735 5.14884 0 4.52738C0 4.45555 0.00754332 4.38217 0.0226301 4.31112C0.073925 4.06831 0.257983 3.94574 0.485039 4.02303C0.697762 4.09564 0.903696 4.19245 1.11038 4.28379C2.24415 4.78424 3.37792 5.28703 4.51169 5.78748C4.89565 5.9569 5.28036 6.12319 5.66583 6.28793C5.89288 6.38552 5.97888 6.50575 5.98039 6.76574C5.98341 7.22715 5.98039 7.68856 5.98039 8.14997H5.98265Z" fill="#8E8E8E"/>
<path d="M0.000121831 3.01693C-0.00405735 2.82939 0.0995865 2.71278 0.264246 2.64021C0.709747 2.44451 1.15608 2.25126 1.60158 2.05637C2.52184 1.65518 3.44126 1.25318 4.36235 0.854443C4.93657 0.60574 5.52333 0.381499 6.08417 0.106703C6.39009 -0.0433339 6.63165 -0.0278409 6.93756 0.107519C8.38523 0.748438 9.84376 1.36408 11.2998 1.98788C11.7704 2.1901 12.2418 2.39069 12.7132 2.59047C12.8979 2.66875 13.0041 2.79514 12.9999 2.99981C12.9957 3.19714 12.8695 3.29662 12.7023 3.36838C10.9362 4.13487 9.17092 4.90137 7.40563 5.66786C7.19249 5.76082 6.97601 5.84725 6.76287 5.94103C6.59236 6.01605 6.43021 6.02175 6.25385 5.9451C5.36117 5.55941 4.46516 5.18024 3.57081 4.79781C2.4767 4.32894 1.38427 3.85682 0.290157 3.38877C0.118811 3.31538 0.00430101 3.20856 0.000121831 3.0153V3.01693ZM0.952975 2.98921V3.03569C1.14605 3.12049 1.33662 3.20856 1.5297 3.29092C3.09857 3.96364 4.6691 4.63228 6.23546 5.30989C6.42854 5.39388 6.59654 5.3898 6.7846 5.30582C7.44993 5.00819 8.1186 4.71708 8.7881 4.42679C9.83206 3.97424 10.8777 3.52494 11.9217 3.0732C11.9693 3.05281 12.0119 3.02101 12.0846 2.97861C12.0077 2.93784 11.9651 2.91175 11.9191 2.89217C11.4252 2.67854 10.9312 2.46571 10.4372 2.25289C9.18262 1.71308 7.92803 1.17572 6.67427 0.633464C6.5489 0.579646 6.43857 0.579647 6.31653 0.63591C6.05408 0.757408 5.78912 0.874013 5.52333 0.989802C4.04808 1.63154 2.57283 2.27164 1.09841 2.91338C1.04826 2.93539 1.00145 2.96393 0.952975 2.98921Z" fill="#8E8E8E"/>
<path d="M7.00075 9.6943C7.00075 8.77247 7.00151 7.85141 7.00075 6.92957C7.00075 6.53572 7.07764 6.42029 7.42285 6.26744C8.26253 5.89542 9.0992 5.51717 9.93737 5.14126C10.7235 4.78875 11.5127 4.4417 12.2959 4.08138C12.8054 3.84663 12.9878 4.15547 12.9788 4.55244C12.9592 5.39629 12.9697 6.24092 12.9735 7.08477C12.978 8.07836 12.9855 9.07272 12.9999 10.0663C13.0044 10.3822 12.9011 10.5881 12.6004 10.7175C11.5971 11.1488 10.6022 11.6027 9.60421 12.048C8.95071 12.3397 8.29721 12.6314 7.6422 12.9215C7.56984 12.9535 7.49371 12.9862 7.41682 12.9964C7.23291 13.0206 7.09874 12.9223 7.05276 12.7336C7.03392 12.6548 7.02713 12.5706 7.02713 12.4895C7.02563 11.5583 7.02638 10.6263 7.02638 9.69508H7L7.00075 9.6943ZM12.4315 7.41544C12.4315 6.56614 12.4315 5.71761 12.4315 4.8683C12.4315 4.66943 12.3969 4.64447 12.2175 4.72402C11.7094 4.95019 11.2037 5.18026 10.6964 5.40799C9.72104 5.84551 8.74493 6.28303 7.76883 6.71822C7.55702 6.81258 7.54421 6.82506 7.54496 7.06137C7.55325 8.40981 7.5623 9.75826 7.56984 11.1075C7.5721 11.4522 7.56833 11.7961 7.56984 12.1408C7.57059 12.3179 7.60451 12.3358 7.7628 12.2656C8.28816 12.0317 8.81428 11.8016 9.33889 11.5676C10.3112 11.1348 11.2828 10.7004 12.2559 10.2691C12.3848 10.2122 12.4361 10.1271 12.4345 9.97819C12.4285 9.1242 12.4315 8.26943 12.4315 7.41544Z" fill="#8E8E8E"/>
<path d="M23.7183 7.85769V10.4563H18.4893V9.25929H19.2012V4.36401H18.4893V3.16695H21.4542V4.36401H20.6884V9.25929H22.3809V7.85769H23.7183Z" fill="#8E8E8E"/>
<path d="M28.3432 8.97863L28.7959 10.0679C28.2354 10.3913 27.5021 10.5744 26.9091 10.5744C25.173 10.5744 24.4183 9.4963 24.4183 7.99799C24.4183 6.6178 25.2158 5.43183 26.7474 5.43183C28.279 5.43183 28.8712 6.52108 28.8712 7.58813C28.8712 7.87907 28.8284 8.26752 28.7745 8.47206H25.9063C25.9277 9.02223 26.2836 9.34567 26.9194 9.34567C27.4157 9.34567 27.9009 9.21645 28.3424 8.97942L28.3432 8.97863ZM27.5132 7.43671C27.5243 7.37171 27.5243 7.3289 27.5243 7.30749C27.5243 6.78982 27.1255 6.58529 26.7482 6.58529C26.1766 6.58529 25.9507 6.97374 25.9182 7.43671H27.5132Z" fill="#8E8E8E"/>
<path d="M29.7336 9.25926H30.3377V6.74702H29.7558V5.53965H31.5562V6.14373C31.7829 5.85279 32.1277 5.43183 33.1948 5.43183C34.2618 5.43183 34.8548 6.11122 34.8548 7.405V9.25926H35.4478V10.4563H32.8174V9.25926H33.4643V7.56673C33.4643 7.02765 33.2376 6.74702 32.6018 6.74702C32.2673 6.74702 31.8899 6.90874 31.7179 7.03796V9.25926H32.3537V10.4563H29.7336V9.25926Z" fill="#8E8E8E"/>
<path d="M39.4807 4.14836H38.5968V2.95129H40.8609V9.25847H41.5617V10.4555H40.6453C40.0412 10.4555 39.7613 10.0457 39.7074 9.68973C39.4704 10.0457 38.9741 10.5737 38.1116 10.5737C36.8606 10.5737 36.117 9.64613 36.117 7.98609C36.117 6.32606 36.8503 5.43104 38.1655 5.43104C38.8774 5.43104 39.2762 5.70058 39.4807 5.91621V4.14836ZM38.5754 9.25847C38.9313 9.25847 39.2976 9.11815 39.4704 8.94612V6.97295C39.3301 6.87623 39.028 6.74622 38.5754 6.74622C37.8096 6.74622 37.5622 7.26389 37.5622 7.98609C37.5622 8.7083 37.7993 9.25847 38.5754 9.25847Z" fill="#8E8E8E"/>
<path d="M43.9225 5.917C44.127 5.70137 44.4727 5.43183 45.1195 5.43183C46.4886 5.43183 47.1791 6.36966 47.1791 7.98689C47.1791 9.60411 46.4355 10.5744 45.1195 10.5744C44.3648 10.5744 43.955 10.3588 43.6965 10.1218L42.9418 10.4563H42.532V4.14836H41.8423V2.95129H43.9233V5.91621L43.9225 5.917ZM44.7525 6.74701C44.3101 6.74701 44.0517 6.87623 43.9225 6.97374V8.94692C44.0953 9.11974 44.3966 9.25926 44.7525 9.25926C45.5286 9.25926 45.7228 8.70909 45.7228 7.98689C45.7228 7.26469 45.5183 6.74701 44.7525 6.74701Z" fill="#8E8E8E"/>
<path d="M52.817 7.98689C52.817 9.5288 52.1701 10.5744 50.3912 10.5744C48.6122 10.5744 48.0082 9.5074 48.0082 8.01939C48.0082 6.53139 48.6551 5.43183 50.434 5.43183C52.2129 5.43183 52.817 6.47748 52.817 7.98689ZM51.3615 8.01939C51.3615 7.07046 51.1134 6.71451 50.4023 6.71451C49.6912 6.71451 49.4645 7.07046 49.4645 7.98689C49.4645 8.90331 49.7229 9.29177 50.4237 9.29177C51.1245 9.29177 51.3615 8.91441 51.3615 8.01939Z" fill="#8E8E8E"/>
<path d="M55.3072 9.25928H56.0405V10.4563H53.5179V9.25928H54.057L55.2105 7.91159L54.1434 6.74703H53.5718V5.53966H55.9977V6.74703L56.6771 7.44782L57.2272 6.74703H56.5265V5.53966H59.0173V6.74703H58.4132L57.3351 8.0194L58.5638 9.25928H59.0601V10.4563H56.6454V9.25928L55.9232 8.48316L55.3088 9.25928H55.3072Z" fill="#8E8E8E"/>
</svg>
