<svg width="164" height="126" viewBox="0 0 164 126" fill="none" xmlns="http://www.w3.org/2000/svg">
<path d="M159.733 26.8566C159.733 29.0719 161.531 30.87 163.751 30.87V34.8882C161.531 34.8882 159.733 36.6863 159.733 38.9016C159.733 41.1169 161.531 42.9151 163.751 42.9151V46.9332C161.531 46.9332 159.733 48.7314 159.733 50.9467C159.733 53.162 161.531 54.9648 163.751 54.9648V58.9783C161.531 58.9783 159.733 60.7765 159.733 62.9918C159.733 65.2071 161.531 67.0099 163.751 67.0099V71.0234C161.531 71.0234 159.733 72.8215 159.733 75.0415C159.733 77.2614 161.531 79.0549 163.751 79.0549V83.0731C161.531 83.0731 159.733 84.8666 159.733 87.0865C159.733 89.3065 161.531 91.1 163.751 91.1V95.1181C161.531 95.1181 159.733 96.9163 159.733 99.1316C159.733 101.347 161.531 103.145 163.751 103.145V110.773C155.729 110.773 149.222 117.28 149.222 125.307H15.2848C15.2848 121.859 14.0844 118.694 12.0823 116.205C9.45457 112.938 5.4411 110.829 0.931729 110.773H0.750977V103.136C2.84577 103.001 4.50492 101.259 4.50492 99.1316C4.50492 97.6995 3.7495 96.439 2.61868 95.7345C2.07181 95.3869 1.43225 95.1691 0.750977 95.1274V91.0907C2.84577 90.9563 4.50492 89.2138 4.50492 87.0865C4.50492 84.9593 2.84577 83.2167 0.750977 83.0823V79.0457C0.890012 79.0364 1.02904 79.0225 1.16808 78.9947C2.84113 78.712 4.16197 77.3912 4.44467 75.7181H4.44931C4.48639 75.4957 4.50492 75.2686 4.50492 75.0415C4.50492 72.9096 2.84577 71.167 0.750977 71.0326V67.0006C2.84577 66.8662 4.50492 65.1236 4.50492 62.9918C4.50492 60.8599 2.84577 59.122 0.750977 58.9876V54.9555C2.84577 54.8211 4.50492 53.0786 4.50492 50.9467C4.50492 48.8148 2.84577 47.0769 0.750977 46.9425V42.9058C2.84577 42.7714 4.50492 41.0335 4.50492 38.9016C4.50492 36.7698 2.84577 35.0318 0.750977 34.8974V30.8608C2.84577 30.7264 4.50492 28.9838 4.50492 26.8566C4.50492 24.7293 2.84577 22.9868 0.750977 22.8524V15.2147C8.77793 15.2147 15.2848 8.70786 15.2848 0.680908H149.222C149.222 8.70786 155.729 15.2147 163.751 15.2147V22.8431C161.531 22.8431 159.733 24.6413 159.733 26.8566V26.8566Z" fill="#01656B"/>
<path opacity="0.5" fill-rule="evenodd" clip-rule="evenodd" d="M127.602 0.680908L94.3123 33.9705L83.347 44.9404L75.2274 53.06L74.5508 53.7367L53.2274 75.06L48.5558 79.7316L12.0823 116.205C9.45457 112.938 5.4411 110.829 0.931729 110.773H0.750977V103.136C2.84577 103.001 4.50492 101.259 4.50492 99.1316C4.50492 97.6995 3.7495 96.439 2.61868 95.7345C2.07181 95.3869 1.43225 95.1691 0.750977 95.1274V91.0907C2.84577 90.9563 4.50492 89.2138 4.50492 87.0865C4.50492 84.9593 2.84577 83.2167 0.750977 83.0823V79.0457C0.890012 79.0364 1.02904 79.0225 1.16808 78.9947C2.84113 78.712 4.16197 77.3912 4.44467 75.7181H4.44931C4.48639 75.4957 4.50492 75.2686 4.50492 75.0415C4.50492 72.9096 2.84577 71.167 0.750977 71.0326V67.0006C2.84577 66.8662 4.50492 65.1236 4.50492 62.9918C4.50492 60.8599 2.84577 59.122 0.750977 58.9876V54.9555C2.84577 54.8211 4.50492 53.0786 4.50492 50.9467C4.50492 48.8148 2.84577 47.0769 0.750977 46.9425V42.9058C2.84577 42.7714 4.50492 41.0335 4.50492 38.9016C4.50492 36.7698 2.84577 35.0318 0.750977 34.8974V30.8608C2.84577 30.7264 4.50492 28.9838 4.50492 26.8566C4.50492 24.7293 2.84577 22.9868 0.750977 22.8524V15.2147C8.77793 15.2147 15.2848 8.70786 15.2848 0.680908H127.602Z" fill="#62E3C4"/>
<path d="M97.663 0.680908L2.61868 95.7345C2.07181 95.3869 1.43225 95.1691 0.750977 95.1274V91.0907C2.84577 90.9563 4.50492 89.2138 4.50492 87.0865C4.50492 84.9593 2.84577 83.2167 0.750977 83.0823V79.4118L1.16808 78.9947C2.84113 78.712 4.16197 77.3912 4.44467 75.7181H4.44931L79.4726 0.680908H97.663Z" fill="white"/>
<path d="M111.029 0.680908L0.931729 110.773H0.750977V105.277L105.342 0.680908H111.029Z" fill="white"/>
<path d="M27.0702 26.5878L31.5193 25.1047C31.6676 25.0537 31.7881 24.9379 31.8344 24.7896L33.3175 20.3404C33.4704 19.8816 34.1146 19.8816 34.2676 20.3404L35.7506 24.7896C35.8016 24.9379 35.9174 25.0584 36.0657 25.1047L40.5149 26.5878C40.9737 26.7407 40.9737 27.3849 40.5149 27.5378L36.0657 29.0209C35.9174 29.0719 35.7969 29.1877 35.7506 29.336L34.2676 33.7851C34.1146 34.244 33.4704 34.244 33.3175 33.7851L31.8344 29.336C31.7835 29.1877 31.6676 29.0672 31.5193 29.0209L27.0702 27.5378C26.6114 27.3849 26.6114 26.7407 27.0702 26.5878V26.5878Z" fill="#FFF6E7"/>
<path d="M121.257 96.8514L127.008 94.9327C127.203 94.8678 127.356 94.7149 127.416 94.5249L129.335 88.7735C129.529 88.1849 130.368 88.1849 130.563 88.7735L132.482 94.5249C132.547 94.7195 132.699 94.8725 132.889 94.9327L138.641 96.8514C139.229 97.046 139.229 97.8849 138.641 98.0795L132.889 99.9982C132.695 100.063 132.542 100.216 132.482 100.406L130.563 106.157C130.368 106.746 129.529 106.746 129.335 106.157L127.416 100.406C127.351 100.211 127.198 100.058 127.008 99.9982L121.257 98.0795C120.668 97.8849 120.668 97.046 121.257 96.8514Z" fill="#64C0B6"/>
<path d="M114.004 105.435L117.151 104.387C117.257 104.35 117.341 104.267 117.373 104.165L118.421 101.018C118.527 100.694 118.986 100.694 119.093 101.018L120.14 104.165C120.177 104.271 120.261 104.355 120.363 104.387L123.509 105.435C123.834 105.541 123.834 106 123.509 106.107L120.363 107.154C120.256 107.191 120.173 107.275 120.14 107.377L119.093 110.523C118.986 110.848 118.527 110.848 118.421 110.523L117.373 107.377C117.336 107.27 117.253 107.186 117.151 107.154L114.004 106.107C113.68 106 113.68 105.541 114.004 105.435Z" fill="#62E3C4"/>
<path d="M81.0181 93.7318C98.3719 93.7318 112.44 79.6637 112.44 62.3098C112.44 44.956 98.3719 30.8879 81.0181 30.8879C63.6643 30.8879 49.5962 44.956 49.5962 62.3098C49.5962 79.6637 63.6643 93.7318 81.0181 93.7318Z" fill="#439189"/>
<path d="M82.2486 94.4137C99.6024 94.4137 113.67 80.3456 113.67 62.9917C113.67 45.6379 99.6024 31.5698 82.2486 31.5698C64.8947 31.5698 50.8267 45.6379 50.8267 62.9917C50.8267 80.3456 64.8947 94.4137 82.2486 94.4137Z" fill="white"/>
<path d="M74.5508 53.5188V82.4195H79.3985V50.2236L74.5508 53.5188Z" fill="#01656B"/>
<path d="M88.0974 41.71V82.4148H83.2451V45.0097L88.0974 41.71Z" fill="#01656B"/>
<path d="M149.843 23.1722V102.811C143.16 102.811 137.738 108.234 137.738 114.926H26.1112C26.1112 112.053 25.1101 109.416 23.4417 107.339C21.2496 104.614 17.9081 102.858 14.1495 102.811H13.9966V23.1722C20.6888 23.1722 26.1112 17.7498 26.1112 11.0576H137.738C137.738 17.7498 143.16 23.1722 149.843 23.1722Z" stroke="#023C40" stroke-width="1.2854" stroke-miterlimit="10"/>
</svg>
