<svg width="19" height="21" viewBox="0 0 19 21" fill="none" xmlns="http://www.w3.org/2000/svg">
<path d="M16.75 0.25H2.25C1.85218 0.25 1.47064 0.408035 1.18934 0.68934C0.908035 0.970644 0.75 1.35218 0.75 1.75V19C0.750391 19.3284 0.844764 19.6497 1.02197 19.9262C1.19917 20.2026 1.4518 20.4225 1.75 20.56C1.99054 20.6862 2.25837 20.7514 2.53 20.75C2.89125 20.7382 3.24022 20.616 3.53 20.4L8.88 16.4C9.0531 16.2702 9.26363 16.2 9.48 16.2C9.69637 16.2 9.9069 16.2702 10.08 16.4L15.43 20.4C15.69 20.595 15.9992 20.7137 16.3228 20.7429C16.6465 20.7721 16.9719 20.7106 17.2626 20.5652C17.5533 20.4199 17.7978 20.1965 17.9686 19.92C18.1395 19.6436 18.23 19.325 18.23 19V1.75C18.23 1.35562 18.0747 0.977085 17.7978 0.696349C17.5208 0.415612 17.1443 0.255258 16.75 0.25Z" fill="white"/>
</svg>
