<svg width="18" height="18" viewBox="0 0 18 18" fill="none" xmlns="http://www.w3.org/2000/svg">
<path d="M11.9219 8.5056C11.8966 8.49039 7.59718 6.2792 7.56929 6.26398C7.40189 6.16598 7.21141 6.11433 7.01744 6.11433C6.82347 6.11433 6.63299 6.16598 6.46559 6.26398C6.12009 6.46367 5.91406 6.82122 5.91406 7.2206V11.7026C5.91406 12.102 6.12009 12.4595 6.46559 12.6592C6.64183 12.7606 6.83518 12.8101 7.02473 12.8101C7.20731 12.8101 7.38608 12.7644 7.54266 12.6731L11.9219 10.4176C12.2674 10.2172 12.4735 9.8597 12.4735 9.46159C12.4735 9.06347 12.2674 8.70593 11.9219 8.5056ZM15.1557 3.18556C15.0367 3.06669 14.8754 2.99994 14.7073 3C14.5391 3.00006 14.3778 3.06692 14.259 3.18587C14.1401 3.30483 14.0733 3.46613 14.0734 3.6343C14.0735 3.80246 14.1403 3.96372 14.2593 4.08259C15.6939 5.51656 16.4838 7.42663 16.4838 9.46159C16.4838 11.4965 15.6939 13.4066 14.2593 14.8406C14.1987 14.8991 14.1504 14.969 14.1172 15.0464C14.084 15.1237 14.0665 15.2069 14.0658 15.2911C14.065 15.3752 14.0811 15.4587 14.113 15.5366C14.1448 15.6145 14.1919 15.6853 14.2514 15.7448C14.3109 15.8044 14.3817 15.8514 14.4596 15.8833C14.5375 15.9152 14.621 15.9312 14.7052 15.9305C14.7894 15.9298 14.8726 15.9123 14.9499 15.879C15.0272 15.8458 15.0972 15.7975 15.1557 15.737C16.8293 14.064 17.7517 11.8351 17.7517 9.46159C17.7517 7.08811 16.8299 4.85916 15.1557 3.18556Z" fill="#A6A6AC"/>
<path d="M13.3337 5.00751C13.2752 4.94696 13.2053 4.89866 13.1279 4.86544C13.0506 4.83222 12.9674 4.81473 12.8832 4.814C12.7991 4.81326 12.7156 4.8293 12.6377 4.86118C12.5598 4.89305 12.489 4.94013 12.4295 4.99965C12.3699 5.05917 12.3229 5.12995 12.291 5.20786C12.2591 5.28577 12.2431 5.36925 12.2438 5.45342C12.2445 5.5376 12.262 5.62078 12.2952 5.69813C12.3285 5.77547 12.3768 5.84542 12.4373 5.9039C14.3994 7.86532 14.3994 11.0579 12.4373 13.0193C12.3768 13.0778 12.3285 13.1477 12.2952 13.225C12.262 13.3024 12.2445 13.3856 12.2438 13.4698C12.2431 13.5539 12.2591 13.6374 12.291 13.7153C12.3229 13.7932 12.3699 13.864 12.4295 13.9235C12.489 13.983 12.5598 14.0301 12.6377 14.062C12.7156 14.0939 12.7991 14.1099 12.8832 14.1092C12.9674 14.1084 13.0506 14.091 13.1279 14.0577C13.2053 14.0245 13.2752 13.9762 13.3337 13.9157C14.5217 12.7277 15.1759 11.146 15.1759 9.46159C15.1759 7.7772 14.5217 6.19551 13.3337 5.00751ZM3.49175 4.08259C3.55065 4.02373 3.59738 3.95384 3.62928 3.87693C3.66117 3.80001 3.6776 3.71756 3.67763 3.6343C3.67766 3.55103 3.66129 3.46857 3.62945 3.39163C3.59761 3.31469 3.55093 3.24477 3.49207 3.18587C3.43321 3.12697 3.36333 3.08024 3.28641 3.04835C3.2095 3.01646 3.12705 3.00003 3.04378 3C2.96051 2.99997 2.87806 3.01634 2.80112 3.04818C2.72418 3.08002 2.65426 3.1267 2.59536 3.18556C0.921752 4.85916 0 7.08874 0 9.46159C0 11.8344 0.921752 14.064 2.59536 15.7376C2.6541 15.7967 2.72393 15.8436 2.80085 15.8756C2.87777 15.9075 2.96025 15.924 3.04356 15.924C3.12686 15.924 3.20935 15.9075 3.28626 15.8756C3.36318 15.8436 3.43302 15.7967 3.49175 15.7376C3.5507 15.6787 3.59746 15.6088 3.62936 15.5319C3.66126 15.4549 3.67768 15.3724 3.67768 15.2891C3.67768 15.2058 3.66126 15.1233 3.62936 15.0463C3.59746 14.9694 3.5507 14.8995 3.49175 14.8406C0.526172 11.875 0.526172 7.04817 3.49175 4.08259Z" fill="#A6A6AC"/>
<path d="M5.31285 5.0069C5.19397 4.88805 5.03275 4.82129 4.86465 4.82129C4.69655 4.82129 4.53534 4.88805 4.41646 5.0069C3.22845 6.19491 2.57422 7.77659 2.57422 9.46098C2.57422 11.1454 3.22845 12.727 4.41646 13.9151C4.47519 13.9741 4.54503 14.021 4.62195 14.053C4.69886 14.085 4.78135 14.1015 4.86465 14.1015C4.94796 14.1015 5.03044 14.085 5.10736 14.053C5.18428 14.021 5.25411 13.9741 5.31285 13.9151C5.4317 13.7962 5.49846 13.635 5.49846 13.4669C5.49846 13.2988 5.4317 13.1375 5.31285 13.0187C4.36447 12.0703 3.8421 10.8068 3.8421 9.46098C3.8421 8.11512 4.36447 6.85167 5.31285 5.90329C5.4317 5.78441 5.49846 5.62319 5.49846 5.4551C5.49846 5.287 5.4317 5.12578 5.31285 5.0069Z" fill="#A6A6AC"/>
</svg>
