<svg width="41" height="55" viewBox="0 0 41 55" fill="none" xmlns="http://www.w3.org/2000/svg">
<path d="M3.8335 55H37.1668C38.5475 55 39.6668 53.8807 39.6668 52.5V24.1667C39.6668 22.786 38.5475 21.6667 37.1668 21.6667H34.6668V14.1667C34.6668 6.35517 28.3117 0 20.5002 0C12.6887 0 6.3335 6.35517 6.3335 14.1667V21.6667H3.8335C2.45283 21.6667 1.3335 22.786 1.3335 24.1667V52.5C1.3335 53.8807 2.45283 55 3.8335 55ZM23.0002 39.1643V42.5C23.0002 43.8807 21.8808 45 20.5002 45C19.1195 45 18.0002 43.8807 18.0002 42.5V39.1643C16.9888 38.4035 16.3335 37.1937 16.3335 35.8333C16.3335 33.5358 18.2027 31.6667 20.5002 31.6667C22.7977 31.6667 24.6668 33.5358 24.6668 35.8333C24.6668 37.1937 24.0115 38.4035 23.0002 39.1643ZM11.3335 14.1667C11.3335 9.11217 15.4457 5 20.5002 5C25.5547 5 29.6668 9.11217 29.6668 14.1667V21.6667H11.3335V14.1667Z" fill="white" stroke="#93B5FE" stroke-width="2"/>
</svg>
