<?xml version="1.0" encoding="UTF-8"?>
<svg id="Layer_1" data-name="Layer 1" xmlns="http://www.w3.org/2000/svg" xmlns:xlink="http://www.w3.org/1999/xlink" viewBox="0 0 261.01 388.93">
  <defs>
    <style>
      .cls-1 {
        fill: #f3f9fa;
      }

      .cls-2 {
        fill: #f2f3f9;
      }

      .cls-3 {
        fill: #ee4645;
      }

      .cls-4, .cls-5 {
        fill: #a8c5d4;
      }

      .cls-6 {
        fill: #1a131c;
      }

      .cls-7 {
        fill: #62808e;
      }

      .cls-5, .cls-8 {
        stroke-miterlimit: 10;
      }

      .cls-5, .cls-8, .cls-9 {
        stroke: #231f20;
        stroke-width: 2px;
      }

      .cls-10 {
        clip-path: url(#clippath-1);
      }

      .cls-8 {
        fill: none;
      }

      .cls-11 {
        isolation: isolate;
      }

      .cls-9 {
        fill: #d2eced;
      }
    </style>
    <clipPath id="clippath-1">
      <path class="cls-7" d="M85.58,111.66c1.23-.72,2.94-.62,4.83,.48l-50.53,29.36c-1.89-1.09-3.6-1.19-4.83-.48"/>
    </clipPath>
  </defs>
  <g>
    <path class="cls-1" d="M187.53,226.74c3.75,2.17,6.78,7.41,6.77,11.72l-.28,98.46c-.09,33.05-23.71,46.51-52.47,29.9l-56.62-32.69c-28.76-16.6-52.22-57.25-52.13-90.29l.28-98.46c.01-4.31,3.06-6.05,6.81-3.88l147.64,85.24Z"/>
    <path class="cls-8" d="M187.53,226.74c3.75,2.17,6.78,7.41,6.77,11.72l-.28,98.46c-.09,33.05-23.71,46.51-52.47,29.9l-56.62-32.69c-28.76-16.6-52.22-57.25-52.13-90.29l.28-98.46c.01-4.31,3.06-6.05,6.81-3.88l147.64,85.24Z"/>
  </g>
  <g class="cls-11">
    <g class="cls-11">
      <path class="cls-7" d="M85.58,111.66c1.23-.72,2.94-.62,4.83,.48l-50.53,29.36c-1.89-1.09-3.6-1.19-4.83-.48"/>
      <g class="cls-10">
        <g class="cls-11">
          <path class="cls-3" d="M39.8,141.45l50.53-29.36s.06,.03,.09,.05l-50.53,29.36s-.06-.03-.09-.05Z"/>
        </g>
      </g>
    </g>
    <polygon class="cls-5" points="36.28 140.56 86.8 111.2 240.36 199.17 189.84 228.53 36.28 140.56"/>
  </g>
  <path class="cls-9" d="M59.68,69.87l.24,62.74c0,2.18,1.44,4.35,4.3,6.01,5.72,3.31,14.97,3.28,20.67-.08,2.86-1.68,4.27-3.88,4.26-6.07l-.24-62.71c-.04-10.94,3.03-19.02,8.43-22.17,5.4-3.14,13.94-1.83,23.44,3.61l16.14,9.24c25.29,14.48,46.75,51.33,46.86,80.47l.24,62.74c0,2.18,1.45,4.36,4.31,6.01,3.67,2.12,8.79,2.87,13.5,2.25,2.62-.35,5.13-1.12,7.17-2.32,.77-.45,1.44-.94,1.99-1.45,1.53-1.41,2.28-3.01,2.26-4.61l-.23-62.72c-.07-19.07-6.47-40.49-18.01-60.31-11.54-19.81-27.01-35.95-43.56-45.42l-16.14-9.24c-9.12-5.22-18.21-8.24-26.99-8.97-9.32-.77-18.21,1.12-25.68,5.48-7.48,4.36-13.5,11.15-17.43,19.63-3.71,8.01-5.56,17.39-5.52,27.91Z"/>
  <path class="cls-4" d="M88.61,50.37c1.65-.96,3.59-1.5,5.75-1.64-3.95,3.9-6.15,11.1-6.12,20.36l.24,62.71c.02,2.19-1.4,4.39-4.26,6.07-1.14,.67-2.43,1.2-3.79,1.61l-.25-66.94c-.04-10.94,3.03-19.02,8.43-22.17Z"/>
  <path class="cls-2" d="M80.67,24.7c5.1-1.44,10.57-1.95,16.21-1.48,8.79,.72,17.87,3.75,27,8.96l16.14,9.24c16.55,9.47,32.02,25.61,43.56,45.43,11.54,19.81,17.93,41.23,18,60.31l.24,63.4c2.62-.35,5.13-1.12,7.17-2.32,.77-.45,1.44-.94,1.99-1.45l-.24-63.45c-.07-19.07-6.47-40.49-18-60.31-11.55-19.82-27.02-35.95-43.57-45.42l-16.15-9.24c-9.12-5.23-18.21-8.24-26.99-8.97-9.2-.76-17.96,1.08-25.37,5.31Z"/>
  <path class="cls-6" d="M94.08,247.24c-.03-8.39,5.85-11.82,13.14-7.65,7.29,4.17,13.22,14.36,13.25,22.75,.02,5.53-2.54,8.89-6.36,9.35l.09,23.9-13.57-7.77-.09-23.9c-3.84-4.85-6.44-11.16-6.46-16.69Z"/>
  <g>
    <path class="cls-7" d="M240.36,199.17l-50.53,29.36c2.61,2.59,4.47,6.54,4.46,9.93l-.28,98.46c-.05,16.42-5.9,28-15.3,33.46l50.53-29.36c9.4-5.46,15.26-17.05,15.3-33.46l.28-98.46c0-3.38-1.85-7.33-4.46-9.93Z"/>
    <path class="cls-8" d="M240.36,199.17l-50.53,29.36c2.61,2.59,4.47,6.54,4.46,9.93l-.28,98.46c-.05,16.42-5.9,28-15.3,33.46l50.53-29.36c9.4-5.46,15.26-17.05,15.3-33.46l.28-98.46c0-3.38-1.85-7.33-4.46-9.93Z"/>
  </g>
</svg>