<svg width="166" height="165" viewBox="0 0 166 165" fill="none" xmlns="http://www.w3.org/2000/svg">
<g opacity="0.3" filter="url(#filter0_f_1317_2040)">
<circle cx="83" cy="82.4746" r="41.1387" fill="#62E3C4"/>
</g>
<ellipse cx="93.6777" cy="120.784" rx="32.1523" ry="10.0417" fill="black"/>
<path d="M61.0215 117.373C61.0215 109.571 67.346 103.247 75.1477 103.247H96.1689C103.971 103.247 110.295 109.571 110.295 117.373V119.388C110.295 132.736 61.0213 133.047 61.0215 119.388V117.373Z" fill="#93B5FE"/>
<ellipse cx="85.6576" cy="109.456" rx="17.6322" ry="6.20897" fill="#232326"/>
<g filter="url(#filter1_b_1317_2040)">
<circle cx="85.6344" cy="85.942" r="25.8981" fill="#60BF8B" fill-opacity="0.7"/>
<circle cx="85.6344" cy="85.942" r="25.3981" stroke="url(#paint0_linear_1317_2040)"/>
</g>
<path opacity="0.7" d="M98.8308 72.4444C107.397 78.5026 105.642 87.4352 104.047 92.8583" stroke="#A5FCE7" stroke-width="3.72026" stroke-linecap="round"/>
<path d="M61.0217 64.6665L61.2267 66.6266C61.5968 70.1643 64.3449 72.9864 67.8715 73.4505V73.4505V73.4505C64.3472 73.9142 61.6041 76.7398 61.245 80.2762L61.0217 82.476L60.7983 80.2762C60.4393 76.7398 57.6961 73.9142 54.1719 73.4505V73.4505V73.4505C57.6985 72.9864 60.4466 70.1643 60.8166 66.6266L61.0217 64.6665Z" fill="#A5E4FF"/>
<path d="M66.3203 51.0762L66.5024 52.9902C66.739 55.4751 68.6446 57.4759 71.1151 57.8331V57.8331V57.8331C68.6461 58.19 66.7437 60.193 66.5142 62.6771L66.3203 64.7758L66.1263 62.6771C65.8968 60.193 63.9944 58.19 61.5254 57.8331V57.8331V57.8331C63.9959 57.4759 65.9015 55.4751 66.1381 52.9902L66.3203 51.0762Z" fill="#A5E4FF"/>
<path opacity="0.7" d="M94.4581 68.1272C94.1447 67.5918 92.8424 66.3986 90.1406 65.9097" stroke="#A5FCE7" stroke-width="3.72026" stroke-linecap="round"/>
<defs>
<filter id="filter0_f_1317_2040" x="0.861328" y="0.335938" width="164.277" height="164.277" filterUnits="userSpaceOnUse" color-interpolation-filters="sRGB">
<feFlood flood-opacity="0" result="BackgroundImageFix"/>
<feBlend mode="normal" in="SourceGraphic" in2="BackgroundImageFix" result="shape"/>
<feGaussianBlur stdDeviation="20.5" result="effect1_foregroundBlur_1317_2040"/>
</filter>
<filter id="filter1_b_1317_2040" x="55.8403" y="56.148" width="59.5889" height="59.5884" filterUnits="userSpaceOnUse" color-interpolation-filters="sRGB">
<feFlood flood-opacity="0" result="BackgroundImageFix"/>
<feGaussianBlur in="BackgroundImage" stdDeviation="1.948"/>
<feComposite in2="SourceAlpha" operator="in" result="effect1_backgroundBlur_1317_2040"/>
<feBlend mode="normal" in="SourceGraphic" in2="effect1_backgroundBlur_1317_2040" result="shape"/>
</filter>
<linearGradient id="paint0_linear_1317_2040" x1="44.9253" y1="51.8399" x2="103.57" y2="115.095" gradientUnits="userSpaceOnUse">
<stop stop-color="#6ED1B5"/>
<stop offset="0.788263" stop-color="white" stop-opacity="0"/>
</linearGradient>
</defs>
</svg>
