<svg width="146" height="145" viewBox="0 0 146 145" fill="none" xmlns="http://www.w3.org/2000/svg">
    <g id="magnifying glass 1">
        <path id="Vector"
            d="M7.37817 109.445L7.6489 112.159L8.84896 114.438L11.3016 116.181L13.2452 117.301L15.0432 117.482L25.3105 112.267L25.8277 111.14L46.6369 100.59L48.5805 100.441L54.8515 96.6922L55.6031 95.0614L55.8576 93.6239L67.337 87.2698L68.7513 87.9946L70.1008 88.1315L71.1352 87.5436L73.495 86.1343L88.2473 89.2106L105.65 88.4335L121.441 83.6216L131.147 75.4636L120.213 81.7533L105.961 85.1558H90.5545L76.3396 81.7533L59.6316 67.2452L62.0883 77.6622L61.5266 78.8823V80.3037L50.5361 85.9289L50.1846 85.5585L48.241 84.439L46.443 84.2578L45.0611 85.039L40.6931 87.6443L39.9497 89.259L7.38221 109.433L7.37817 109.445Z"
            fill="black" />
        <g id="Group">
            <g id="Group_2">
                <g id="Group_3">
                    <path id="Vector_2"
                        d="M136.848 57.855L136.86 66.8063L136.913 53.7599L136.9 48.9602L136.848 57.855Z"
                        fill="#3D3D3D" />
                    <path id="Vector_3"
                        d="M59.3892 57.851L59.4013 66.8063L65.2521 75.0247L65.24 66.0694L59.3892 57.851Z"
                        fill="#3D3D3D" />
                    <path id="Vector_4"
                        d="M130.908 66.0694L130.92 75.0247L136.86 66.8063L136.848 57.855L130.908 66.0694Z"
                        fill="#3D3D3D" />
                    <path id="Vector_5"
                        d="M65.24 66.0694L65.2521 75.0247L76.1093 81.3144L76.0972 72.3591L65.24 66.0694Z"
                        fill="#3D3D3D" />
                    <path id="Vector_6"
                        d="M119.974 72.3591L119.986 81.3144L130.92 75.0247L130.908 66.0694L119.974 72.3591Z"
                        fill="#3D3D3D" />
                    <path id="Vector_7"
                        d="M76.0972 72.3591L76.1093 81.3144L90.3283 84.7169L90.3161 75.7616L76.0972 72.3591Z"
                        fill="#3D3D3D" />
                    <path id="Vector_8"
                        d="M90.3162 75.7616L90.3283 84.7169H105.735L105.723 75.7616H90.3162Z"
                        fill="#3D3D3D" />
                    <path id="Vector_9"
                        d="M59.4417 48.9602L65.3814 40.7458L76.3154 34.4561L90.5666 31.0536H105.974L120.193 34.4561L131.05 40.7458L136.901 48.9642L136.848 57.8591L130.908 66.0735L119.974 72.3631L105.723 75.7656H90.3161L76.0972 72.3631L65.24 66.0735L59.3892 57.855L59.4417 48.9602ZM78.566 70.2411L91.1889 73.261H104.875L117.534 70.2411L127.243 64.6561L132.52 57.3598L132.565 49.4595L127.369 42.1632L117.724 36.5782L105.101 33.5542H91.4152L78.7559 36.5742L69.0463 42.1591L63.7692 49.4554L63.7248 57.3557L68.917 64.652L78.5619 70.237L78.566 70.2411Z"
                        fill="#A2C7D8" stroke="#231F20" stroke-width="1.22"
                        stroke-miterlimit="10" />
                    <path id="Vector_10"
                        d="M105.723 75.7616L105.735 84.7169L119.987 81.3144L119.974 72.3591L105.723 75.7616Z"
                        fill="#3D3D3D" />
                </g>
                <g id="Group_4">
                    <g id="Group_5">
                        <path id="Vector_11"
                            d="M69.0504 46.073L63.7693 53.3694L63.7249 57.3558L68.9211 64.6521L78.5661 70.237L91.189 73.2611H104.875L117.53 70.237L127.239 64.6521L132.517 57.3558L132.561 53.3694L127.369 46.073L117.724 40.4881L105.097 37.4641H91.4112L78.756 40.4881L69.0504 46.073Z"
                            fill="white" fill-opacity="0.52" />
                    </g>
                </g>
                <path id="Vector_12"
                    d="M132.561 49.4554L127.365 42.1591L117.724 36.5741L109.307 34.5608L105.101 33.5501H91.4151L78.7558 36.5741L69.0462 42.1591L63.7691 49.4554L63.7449 54.3196L69.0623 46.9589L73.9151 44.1684L78.772 41.3739L82.9904 40.3673L91.4272 38.3539H105.113L117.736 41.378L127.381 46.9629L129.959 50.5789L132.537 54.1988L132.561 49.4554Z"
                    fill="#232326" />
                <path id="Vector_13"
                    d="M136.848 57.855L130.908 66.0694L119.974 72.3591L105.723 75.7616H90.3161L76.0972 72.3591L65.24 66.0694L59.3892 57.851L59.4013 66.8063L65.2521 75.0247L76.1093 81.3144L90.3283 84.7169H105.735L119.986 81.3144L130.92 75.0247L136.86 66.8063L136.848 57.855Z"
                    fill="#5A8090" stroke="#231F20" stroke-width="1.22" stroke-miterlimit="10" />
            </g>
            <g id="Group_6">
                <g id="Group_7">
                    <g id="Group_8">
                        <path id="Vector_14"
                            d="M64.4441 71.4168L67.717 69.4639L66.6826 70.0478L63.4097 72.0007L64.4441 71.4168Z"
                            fill="#F5921E" />
                        <path id="Vector_15"
                            d="M69.6079 80.3318L72.8849 78.3789L73.4465 77.1548L70.1736 79.1077L69.6079 80.3318Z"
                            fill="#F5921E" />
                        <path id="Vector_16"
                            d="M65.7937 71.5497L69.0666 69.5968L67.717 69.4639L64.4441 71.4168L65.7937 71.5497Z"
                            fill="#F5921E" />
                        <path id="Vector_17"
                            d="M70.1736 79.1077L73.4465 77.1548L73.4505 75.4878L70.1776 77.4407L70.1736 79.1077Z"
                            fill="#F5921E" />
                        <path id="Vector_18"
                            d="M70.1778 77.4407L73.4507 75.4878L72.8972 73.6234L69.6243 75.5764L70.1778 77.4407Z"
                            fill="#F5921E" />
                        <path id="Vector_19"
                            d="M68.598 73.8046L71.8709 71.8517L70.5253 70.4384L67.2524 72.3873L68.598 73.8046Z"
                            fill="#F5921E" />
                        <path id="Vector_20"
                            d="M65.7937 71.5497L64.4441 71.4168L63.4097 72.0007L62.848 73.2248L62.844 74.8918L63.3976 76.7562L64.4239 78.5279L65.7694 79.9413L67.2281 80.7828L68.5776 80.9197L69.608 80.3318L70.1737 79.1077L70.1777 77.4407L69.6242 75.5764L68.5978 73.8046L67.2523 72.3873L65.7937 71.5497Z"
                            fill="#F5921E" />
                        <path id="Vector_21"
                            d="M69.6242 75.5764L72.8971 73.6234L71.8708 71.8517L68.5979 73.8046L69.6242 75.5764Z"
                            fill="#F5921E" />
                    </g>
                    <g id="Group_9">
                        <path id="Vector_22"
                            d="M65.7937 71.5497L64.4441 71.4168L63.4097 72.0007L62.848 73.2248L62.844 74.8918L63.3976 76.7562L64.4239 78.5279L65.7694 79.9413L67.2281 80.7828L68.5776 80.9197L69.608 80.3318L70.1737 79.1077L70.1777 77.4407L69.6242 75.5764L68.5978 73.8046L67.2523 72.3873L65.7937 71.5497Z"
                            fill="#FFCCBF" stroke="#231F20" stroke-width="1.22"
                            stroke-miterlimit="10" />
                        <path id="Vector_23"
                            d="M72.8971 73.6234L71.8708 71.8517L70.5252 70.4383L69.0666 69.5968L67.717 69.4639L64.4441 71.4168L65.7937 71.5497L67.2523 72.3873L68.5979 73.8046L69.6242 75.5764L70.1777 77.4407L70.1737 79.1078L69.608 80.3319L72.885 78.3789L73.4466 77.1548L73.4506 75.4878L72.8971 73.6234Z"
                            fill="#F64A1F" stroke="#231F20" stroke-width="1.22"
                            stroke-miterlimit="10" />
                    </g>
                </g>
                <path id="Vector_24"
                    d="M68.0119 76.1079L67.3694 75.0006L66.529 74.1187L65.6198 73.5953L64.7794 73.5107L64.1329 73.8771L39.4487 88.5825L39.0972 89.3475V90.3905L39.4406 91.5501L40.0831 92.6575L40.9235 93.5393L41.8327 94.0628L42.6731 94.1473L43.3196 93.7809L67.9998 79.0715L68.3513 78.3105L68.3554 77.2676L68.0119 76.1079Z"
                    fill="#FFE9B1" stroke="#231F20" stroke-width="1.22" stroke-miterlimit="10" />
                <g id="Group_10">
                    <g id="Group_11">
                        <path id="Vector_25"
                            d="M38.5032 85.043L42.8712 82.4378L41.4893 83.219L37.1213 85.8242L38.5032 85.043Z"
                            fill="#F5921E" />
                        <path id="Vector_26"
                            d="M45.3926 96.9338L49.7605 94.3285L50.5121 92.7018L46.1441 95.303L45.3926 96.9338Z"
                            fill="#F5921E" />
                        <path id="Vector_27"
                            d="M40.3013 85.2202L44.6692 82.619L42.8711 82.4378L38.5032 85.043L40.3013 85.2202Z"
                            fill="#F5921E" />
                        <path id="Vector_28"
                            d="M46.144 95.303L50.512 92.7017L50.516 90.475L46.1521 93.0762L46.144 95.303Z"
                            fill="#F5921E" />
                        <path id="Vector_29"
                            d="M46.152 93.0762L50.5159 90.475L49.7805 87.9865L45.4126 90.5918L46.152 93.0762Z"
                            fill="#F5921E" />
                        <path id="Vector_30"
                            d="M44.0428 88.2281L48.4107 85.6229L46.6127 83.7344L42.2488 86.3396L44.0428 88.2281Z"
                            fill="#F5921E" />
                        <path id="Vector_31"
                            d="M40.3013 85.2202L38.5032 85.043L37.1213 85.8242L36.3738 87.451L36.3657 89.6777L37.1052 92.1662L38.4749 94.5299L40.269 96.4184L42.2166 97.5337L44.0146 97.719L45.3925 96.9338L46.144 95.303L46.1521 93.0762L45.4127 90.5918L44.0429 88.2281L42.2489 86.3396L40.3013 85.2202Z"
                            fill="#F5921E" />
                        <path id="Vector_32"
                            d="M45.4127 90.5918L49.7807 87.9865L48.4109 85.6229L44.043 88.2281L45.4127 90.5918Z"
                            fill="#F5921E" />
                    </g>
                    <g id="Group_12">
                        <path id="Vector_33"
                            d="M40.3013 85.2202L38.5032 85.043L37.1213 85.8242L36.3738 87.451L36.3657 89.6777L37.1052 92.1662L38.4749 94.5299L40.269 96.4184L42.2166 97.5337L44.0146 97.719L45.3925 96.9338L46.144 95.303L46.1521 93.0762L45.4127 90.5918L44.0429 88.2281L42.2489 86.3396L40.3013 85.2202Z"
                            fill="#FFCCBF" stroke="#231F20" stroke-width="1.22"
                            stroke-miterlimit="10" />
                        <path id="Vector_34"
                            d="M49.7806 87.9865L48.4108 85.6229L46.6127 83.7344L44.6692 82.619L42.8711 82.4378L38.5032 85.043L40.3013 85.2202L42.2488 86.3396L44.0429 88.2281L45.4126 90.5918L46.1521 93.0762L46.144 95.303L45.3924 96.9338L49.7604 94.3285L50.5119 92.7017L50.516 90.475L49.7806 87.9865Z"
                            fill="#F64A1F" stroke="#231F20" stroke-width="1.22"
                            stroke-miterlimit="10" />
                    </g>
                </g>
                <path id="Vector_35"
                    d="M44.3015 91.0267L43.1298 89.0053L41.5943 87.3866L39.9296 86.4322L38.3901 86.2752L37.2062 86.9476L11.5967 102.189L10.9542 103.582L10.9502 105.49L11.5805 107.616L12.7523 109.642L14.2918 111.257L15.9565 112.215L17.496 112.372L18.6759 111.7L44.2854 96.4586L44.9319 95.0614L44.9359 93.1568L44.3015 91.0267Z"
                    fill="#FF927A" stroke="#231F20" stroke-width="1.22" stroke-miterlimit="10" />
                <g id="Group_13">
                    <g id="Group_14">
                        <path id="Vector_36"
                            d="M7.54387 103.151L11.9118 100.55L10.5339 101.331L6.16602 103.936L7.54387 103.151Z"
                            fill="#F5921E" />
                        <path id="Vector_37"
                            d="M14.4331 115.046L18.801 112.44L19.5526 110.814L15.1847 113.415L14.4331 115.046Z"
                            fill="#F5921E" />
                        <path id="Vector_38"
                            d="M9.34606 103.332L13.714 100.727L11.9119 100.55L7.54395 103.151L9.34606 103.332Z"
                            fill="#F5921E" />
                        <path id="Vector_39"
                            d="M15.1846 113.415L19.5525 110.814L19.5606 108.587L15.1927 111.188L15.1846 113.415Z"
                            fill="#F5921E" />
                        <path id="Vector_40"
                            d="M11.2895 104.452L15.6574 101.846L13.7139 100.727L9.34595 103.332L11.2895 104.452Z"
                            fill="#FFCCBF" stroke="#231F20" stroke-width="1.22"
                            stroke-miterlimit="10" />
                        <path id="Vector_41"
                            d="M15.1928 111.188L19.5607 108.587L18.8213 106.098L14.4534 108.704L15.1928 111.188Z"
                            fill="#F5921E" />
                        <path id="Vector_42"
                            d="M13.0836 106.34L17.4515 103.735L15.6575 101.846L11.2896 104.452L13.0836 106.34Z"
                            fill="#F5921E" />
                        <path id="Vector_43"
                            d="M9.34597 103.332L7.54385 103.151L6.166 103.936L5.41444 105.563L5.4104 107.79L6.14579 110.278L7.51961 112.642L9.31365 114.526L11.2572 115.646L13.0553 115.831L14.4331 115.046L15.1847 113.415L15.1928 111.188L14.4533 108.704L13.0836 106.34L11.2895 104.452L9.34597 103.332Z"
                            fill="#F5921E" />
                        <path id="Vector_44"
                            d="M14.4533 108.704L18.8212 106.098L17.4514 103.735L13.0835 106.34L14.4533 108.704Z"
                            fill="#F5921E" />
                    </g>
                    <g id="Group_15">
                        <path id="Vector_45"
                            d="M9.34597 103.332L7.54385 103.151L6.166 103.936L5.41444 105.563L5.4104 107.79L6.14579 110.278L7.51961 112.642L9.31365 114.526L11.2572 115.646L13.0553 115.831L14.4331 115.046L15.1847 113.415L15.1928 111.188L14.4533 108.704L13.0836 106.34L11.2895 104.452L9.34597 103.332Z"
                            fill="#FFCCBF" stroke="#231F20" stroke-width="1.22"
                            stroke-miterlimit="10" />
                        <g id="Group_16">
                            <path id="Vector_46"
                                d="M11.9119 100.55L7.54395 103.151L9.34606 103.332L13.714 100.727L11.9119 100.55Z"
                                fill="#F64A1F" stroke="#231F20" stroke-width="1.22"
                                stroke-miterlimit="10" />
                            <path id="Vector_47"
                                d="M18.8213 106.098L17.4515 103.735L15.6575 101.846L11.2896 104.452L13.0836 106.34L14.4534 108.704L15.1928 111.188L15.1847 113.415L14.4332 115.046L18.8011 112.44L19.5526 110.81L19.5607 108.587L18.8213 106.098Z"
                                fill="#F64A1F" stroke="#231F20" stroke-width="1.22"
                                stroke-miterlimit="10" />
                        </g>
                    </g>
                </g>
            </g>
        </g>
        <path id="Vector_48"
            d="M130.076 55.3626C130.076 55.3626 127.199 63.9273 113.295 69.5968C100.745 74.7147 79.7417 68.2559 79.7417 68.2559C79.7417 68.2559 97.0921 73.0879 111.416 68.5861C127.171 63.6373 130.072 55.3585 130.072 55.3585L130.076 55.3626Z"
            fill="white" />
    </g>
</svg>
