<svg width="96" height="83" viewBox="0 0 96 83" fill="none" xmlns="http://www.w3.org/2000/svg">
<path d="M95.2431 63.4612L78.5376 45.2918L64.2316 48.7247C65.4429 48.053 66.0113 46.6179 65.5807 45.309L62.739 36.6003L33.6048 51.928C33.3005 52.0888 33.0881 52.3758 33.0249 52.7031C32.8527 52.3873 32.6174 52.1175 32.359 51.9625L29.9135 50.5331L50.3735 39.2697C51.5848 38.598 52.1531 37.1629 51.7225 35.854L48.8809 27.1453L48.8005 27.1912L48.835 27.174L41.0563 22.2025C40.7118 21.9786 40.2812 21.9614 39.9196 22.1566L10.5385 37.4843C10.3203 37.5992 10.1481 37.7714 10.039 37.9953L9.9644 38.1503C9.9644 38.1503 9.94717 38.1675 9.94143 38.179L6.50273 45.0392C6.20422 45.6362 6.65773 46.7729 7.3581 47.1977L19.8385 54.609C19.9935 54.7008 20.1427 54.764 20.2863 54.8099C20.2174 55.4299 20.6307 56.3025 21.222 56.6584L33.7024 64.0697C34.0526 64.2821 34.3798 64.3567 34.6611 64.3338C34.994 64.5519 35.4361 64.6036 35.8322 64.3912L36.1766 64.2018C36.3259 64.6668 36.6359 65.126 37.0262 65.3614L49.5066 72.7727C49.6616 72.8645 49.8109 72.9277 49.9544 72.9736C49.8855 73.5936 50.2989 74.4662 50.8901 74.8221L63.3705 82.2334C63.7207 82.4458 64.0479 82.5205 64.3292 82.4975C64.6622 82.7156 65.1042 82.7673 65.5003 82.5549L93.917 66.9114C95.1283 66.2397 95.6966 64.8045 95.2661 63.4956L95.2431 63.4612Z" fill="black"/>
<path d="M43.1011 22.6104L13.4731 39.2126L3.01347 36.1183L4.30513 33.4259C4.41421 33.202 4.58643 33.0298 4.80457 32.915L34.1857 17.5872C34.5474 17.392 34.9837 17.415 35.3224 17.6331L43.1011 22.6046V22.6104Z" fill="#FFD979" stroke="black" stroke-width="0.75" stroke-linejoin="round"/>
<path d="M4.20181 33.6151L0.76311 40.4753C0.464592 41.0723 0.918104 42.209 1.61847 42.6338L14.0988 50.0451C15.4537 50.8488 16.4009 49.7638 15.9301 47.9497L13.6568 39.218C13.519 38.6899 13.1631 38.179 12.7613 37.9493L5.07439 33.4543C4.70125 33.2305 4.3568 33.2993 4.19606 33.6151H4.20181Z" fill="#C28C02" stroke="black" stroke-width="0.75" stroke-linejoin="round"/>
<path d="M14.5409 49.4823L13.41 39.0456C13.3583 38.5749 13.5994 38.1328 14.0127 37.9147L43.147 22.5869L45.9887 31.2956C46.4192 32.6103 45.8509 34.0454 44.6396 34.7114L16.2229 50.3549C15.5111 50.7395 14.6327 50.286 14.5409 49.4765V49.4823Z" fill="#F7CC60" stroke="black" stroke-width="2" stroke-linejoin="round"/>
<path d="M56.9592 32.0713L27.3313 48.6735L16.8716 45.5793L18.1633 42.8869C18.2724 42.663 18.4446 42.4907 18.6627 42.3759L48.0438 27.0481C48.4055 26.853 48.8418 26.8759 49.1805 27.0941L56.9592 32.0656V32.0713Z" fill="#FFD979" stroke="black" stroke-width="2" stroke-linejoin="round"/>
<path opacity="0.9" d="M15.0965 36.2663L14.8966 40.958L46.1553 42.29L46.3552 37.5983L15.0965 36.2663Z" fill="white"/>
<path opacity="0.9" d="M23.0506 33.4684L22.9838 35.0342L54.2425 36.3662L54.3092 34.8004L23.0506 33.4684Z" fill="white"/>
<path d="M18.0657 43.0702L14.627 49.9304C14.3285 50.5274 14.782 51.6641 15.4824 52.0889L27.9627 59.5002C29.3175 60.3039 30.2648 59.2189 29.794 57.4048L27.5207 48.6731C27.3829 48.145 27.027 47.6341 26.6251 47.4044L18.9383 42.9094C18.5651 42.6855 18.2207 42.7544 18.0599 43.0702H18.0657Z" fill="#C28C02" stroke="black" stroke-width="0.75" stroke-linejoin="round"/>
<path d="M28.4048 58.9383L27.2738 48.5017C27.2222 48.0309 27.4633 47.5889 27.8766 47.3708L57.0109 32.043L59.8525 40.7517C60.2831 42.0663 59.7148 43.5015 58.5035 44.1674L30.0868 59.8109C29.3749 60.1956 28.4966 59.742 28.4048 58.9326V58.9383Z" fill="#F7CC60" stroke="black" stroke-width="0.75" stroke-linejoin="round"/>
<path d="M49.4848 19.2979L19.3516 34.9701L8.99532 31.5486L10.3674 28.9021C10.4822 28.684 10.6601 28.5175 10.884 28.4084L40.7244 13.9992C41.0918 13.8155 41.5224 13.8499 41.8611 14.0853L49.4848 19.2921V19.2979Z" fill="#FFD979" stroke="black" stroke-width="0.75" stroke-linejoin="round"/>
<path d="M10.264 29.0918L6.61291 35.8429C6.29717 36.4285 6.71626 37.5824 7.3994 38.0244L19.6444 45.8203C20.9705 46.6642 21.9579 45.6079 21.5446 43.7824L19.5468 34.9876C19.4263 34.4537 19.0875 33.937 18.6914 33.6902L11.1481 28.954C10.7807 28.7187 10.4363 28.7818 10.264 29.0918Z" fill="#C28C02" stroke="black" stroke-width="0.75" stroke-linejoin="round"/>
<path d="M20.1036 45.2686L19.2999 34.8032C19.2655 34.3325 19.5181 33.8962 19.9372 33.6953L49.5307 19.2803L52.1026 28.0751C52.4929 29.4012 51.8787 30.8192 50.6501 31.4506L21.757 46.2044C21.0337 46.566 20.1668 46.0895 20.1036 45.2743V45.2686Z" fill="#F7CC60" stroke="black" stroke-width="0.75" stroke-linejoin="round"/>
<path d="M72.7635 40.7627L43.1355 57.3649L32.6759 54.2707L33.9675 51.5783C34.0766 51.3544 34.2488 51.1822 34.467 51.0673L63.8481 35.7396C64.2098 35.5444 64.6461 35.5673 64.9848 35.7855L72.7635 40.757V40.7627Z" fill="#FFD979" stroke="black" stroke-width="2" stroke-linejoin="round"/>
<path opacity="0.9" d="M30.8996 44.9626L30.6996 49.6543L61.9583 50.9863L62.1582 46.2946L30.8996 44.9626Z" fill="white"/>
<path opacity="0.9" d="M38.8421 42.1647L38.7754 43.7305L70.0341 45.0625L70.1008 43.4966L38.8421 42.1647Z" fill="white"/>
<path d="M33.8642 51.7674L30.4255 58.6276C30.127 59.2246 30.5805 60.3613 31.2809 60.7861L43.7613 68.1974C45.1161 69.0011 46.0633 67.9161 45.5926 66.102L43.3192 57.3704C43.1814 56.8422 42.8255 56.3313 42.4237 56.1017L34.7368 51.6067C34.3637 51.3828 34.0192 51.4517 33.8585 51.7674H33.8642Z" fill="#C28C02" stroke="black" stroke-width="0.75" stroke-linejoin="round"/>
<path d="M44.2033 67.6346L43.0724 57.198C43.0207 56.7272 43.2618 56.2852 43.6751 56.067L72.8094 40.7393L75.6511 49.448C76.0816 50.7626 75.5133 52.1978 74.302 52.8637L45.8853 68.5072C45.1735 68.8918 44.2951 68.4383 44.2033 67.6289V67.6346Z" fill="#F7CC60" stroke="black" stroke-width="0.75" stroke-linejoin="round"/>
<path d="M86.6216 50.2236L56.9936 66.8259L46.534 63.7316L47.8257 61.0392C47.9348 60.8153 48.107 60.6431 48.3251 60.5283L77.7062 45.2005C78.0679 45.0053 78.5042 45.0283 78.8429 45.2464L86.6216 50.2179V50.2236Z" fill="#FFD979" stroke="black" stroke-width="0.75" stroke-linejoin="round"/>
<path opacity="0.9" d="M44.7596 54.4206L44.5596 59.1123L75.8183 60.4443L76.0182 55.7526L44.7596 54.4206Z" fill="white"/>
<path opacity="0.9" d="M52.7078 51.6227L52.6411 53.1885L83.8998 54.5205L83.9665 52.9547L52.7078 51.6227Z" fill="white"/>
<path d="M47.7281 61.2284L44.2894 68.0886C43.9909 68.6856 44.4444 69.8222 45.1448 70.2471L57.6251 77.6584C58.9799 78.4621 59.9272 77.3771 59.4564 75.563L57.1831 66.8313C57.0453 66.3032 56.6894 65.7923 56.2875 65.5626L48.6007 61.0676C48.2275 60.8437 47.8831 60.9126 47.7224 61.2284H47.7281Z" fill="#C28C02" stroke="black" stroke-width="0.75" stroke-linejoin="round"/>
<path d="M58.0672 77.0956L56.9362 66.6589C56.8846 66.1881 57.1257 65.7461 57.539 65.528L86.6733 50.2002L89.5149 58.9089C89.9455 60.2235 89.3772 61.6587 88.1659 62.3246L59.7492 77.9682C59.0374 78.3528 58.159 77.8993 58.0672 77.0898V77.0956Z" fill="#F7CC60" stroke="black" stroke-width="0.75" stroke-linejoin="round"/>
<path d="M64.3131 28.4034L34.1799 44.0756L23.8236 40.6541L25.1957 38.0076C25.3105 37.7895 25.4885 37.623 25.7124 37.5139L55.5527 23.1046C55.9201 22.9209 56.3507 22.9554 56.6894 23.1908L64.3131 28.3976V28.4034Z" fill="#FFD979" stroke="black" stroke-width="2" stroke-linejoin="round"/>
<path opacity="0.9" d="M22.3411 31.2963L21.9955 35.9795L53.1977 38.2818L53.5433 33.5986L22.3411 31.2963Z" fill="white"/>
<path opacity="0.9" d="M30.3686 28.7437L30.2533 30.3066L61.4555 32.6089L61.5708 31.046L30.3686 28.7437Z" fill="white"/>
<path d="M25.0923 38.1973L21.4412 44.9484C21.1255 45.534 21.5446 46.6878 22.2277 47.1299L34.4727 54.9258C35.7988 55.7697 36.7862 54.7134 36.3729 52.8878L34.3751 44.093C34.2546 43.5591 33.9159 43.0425 33.5198 42.7956L25.9764 38.0595C25.609 37.8241 25.2646 37.8873 25.0923 38.1973Z" fill="#C28C02" stroke="black" stroke-width="0.75" stroke-linejoin="round"/>
<path d="M34.9377 54.3741L34.134 43.9087C34.0996 43.438 34.3522 43.0017 34.7713 42.8007L64.3648 28.3857L66.9366 37.1806C67.327 38.5067 66.7127 39.9246 65.4842 40.5561L36.5911 55.3098C35.8677 55.6715 35.0009 55.195 34.9377 54.3798V54.3741Z" fill="#F7CC60" stroke="black" stroke-width="0.75" stroke-linejoin="round"/>
<path d="M79.1472 37.4561L49.014 53.1283L38.6577 49.7068L40.0298 47.0603C40.1446 46.8422 40.3225 46.6757 40.5464 46.5666L70.3868 32.1574C70.7542 31.9737 71.1848 32.0081 71.5235 32.2435L79.1472 37.4503V37.4561Z" fill="#FFD979" stroke="black" stroke-width="0.75" stroke-linejoin="round"/>
<path opacity="0.9" d="M37.1683 40.349L36.8227 45.0322L68.0249 47.3345L68.3705 42.6513L37.1683 40.349Z" fill="white"/>
<path opacity="0.9" d="M45.2015 37.7964L45.0862 39.3594L76.2884 41.6617L76.4037 40.0987L45.2015 37.7964Z" fill="white"/>
<path d="M39.9264 47.2442L36.2753 53.9953C35.9596 54.5808 36.3786 55.7347 37.0618 56.1768L49.3068 63.9727C50.6329 64.8166 51.6203 63.7603 51.207 61.9347L49.2092 53.1399C49.0886 52.606 48.7499 52.0894 48.3538 51.8425L40.8105 47.1064C40.4431 46.871 40.0986 46.9342 39.9264 47.2442Z" fill="#C28C02" stroke="black" stroke-width="0.75" stroke-linejoin="round"/>
<path d="M49.7661 63.4268L48.9624 52.9614C48.9279 52.4907 49.1805 52.0544 49.5996 51.8535L79.1931 37.4385L81.7649 46.2333C82.1553 47.5594 81.5411 48.9774 80.3125 49.6089L51.4194 64.3625C50.6961 64.7242 49.8292 64.2477 49.7661 63.4325V63.4268Z" fill="#F7CC60" stroke="black" stroke-width="0.75" stroke-linejoin="round"/>
<path d="M58.6355 13.0069L28.5023 28.6791L18.1461 25.2576L19.5181 22.6111C19.6329 22.393 19.8109 22.2265 20.0348 22.1174L49.8751 7.70816C50.2425 7.52446 50.6731 7.5589 51.0118 7.79427L58.6355 13.0011V13.0069Z" fill="#FFD979" stroke="black" stroke-width="0.75" stroke-linejoin="round"/>
<path d="M19.4148 22.795L15.7636 29.5461C15.4479 30.1316 15.867 31.2855 16.5501 31.7275L28.7951 39.5235C30.1212 40.3674 31.1087 39.3111 30.6953 37.4855L28.6975 28.6907C28.577 28.1568 28.2383 27.6401 27.8422 27.3933L20.2988 22.6572C19.9314 22.4218 19.587 22.485 19.4148 22.795Z" fill="#C28C02" stroke="black" stroke-width="0.75" stroke-linejoin="round"/>
<path d="M29.2544 38.9727L28.4507 28.5073C28.4162 28.0366 28.6689 27.6003 29.0879 27.3994L58.6814 12.9844L61.2533 21.7792C61.6437 23.1053 61.0294 24.5233 59.8009 25.1548L30.9077 39.9085C30.1844 40.2701 29.3175 39.7936 29.2544 38.9784V38.9727Z" fill="#F7CC60" stroke="black" stroke-width="0.75" stroke-linejoin="round"/>
<path d="M73.4638 22.0537L43.3307 37.726L32.9744 34.3045L34.3464 31.658C34.4612 31.4398 34.6392 31.2734 34.8631 31.1643L64.7035 16.755C65.0709 16.5713 65.5014 16.6058 65.8401 16.8411L73.4638 22.048V22.0537Z" fill="#FFD979" stroke="black" stroke-width="0.75" stroke-linejoin="round"/>
<path opacity="0.9" d="M39.5206 22.3989L39.4053 23.9619L70.6075 26.2642L70.7228 24.7012L39.5206 22.3989Z" fill="white"/>
<path d="M34.2431 31.8418L30.592 38.5929C30.2762 39.1785 30.6953 40.3324 31.3785 40.7744L43.6235 48.5703C44.9496 49.4142 45.937 48.3579 45.5237 46.5324L43.5259 37.7376C43.4053 37.2037 43.0666 36.687 42.6705 36.4402L35.1272 31.7041C34.7598 31.4687 34.4153 31.5318 34.2431 31.8418Z" fill="#C28C02" stroke="black" stroke-width="0.75" stroke-linejoin="round"/>
<path d="M44.0827 48.0245L43.279 37.5591C43.2446 37.0884 43.4972 36.652 43.9162 36.4511L73.5098 22.0361L76.0816 30.831C76.472 32.1571 75.8577 33.575 74.6292 34.2065L45.7361 48.9602C45.0127 49.3219 44.1459 48.8454 44.0827 48.0302V48.0245Z" fill="#F7CC60" stroke="black" stroke-width="0.75" stroke-linejoin="round"/>
<path d="M69.0836 6.41605L38.9505 22.0883L28.5942 18.6668L29.9662 16.0203C30.0811 15.8022 30.259 15.6357 30.4829 15.5266L60.3233 1.11734C60.6907 0.93364 61.1212 0.968081 61.4599 1.20345L69.0836 6.41031V6.41605Z" fill="#FFD979" stroke="black" stroke-width="0.75" stroke-linejoin="round"/>
<path d="M29.8629 16.21L26.2118 22.9611C25.8961 23.5467 26.3151 24.7006 26.9983 25.1426L39.2433 32.9385C40.5694 33.7824 41.5568 32.7261 41.1435 30.9006L39.1457 22.1057C39.0251 21.5718 38.6864 21.0552 38.2903 20.8083L30.747 16.0722C30.3796 15.8368 30.0351 15.9 29.8629 16.21Z" fill="#C28C02" stroke="black" stroke-width="0.75" stroke-linejoin="round"/>
<path d="M39.7025 32.3868L38.8988 21.9214C38.8644 21.4507 39.117 21.0144 39.5361 20.8134L69.1296 6.39844L71.7014 15.1933C72.0918 16.5194 71.4775 17.9373 70.249 18.5688L41.3559 33.3225C40.6326 33.6842 39.7657 33.2077 39.7025 32.3925V32.3868Z" fill="#F7CC60" stroke="black" stroke-width="0.75" stroke-linejoin="round"/>
<path d="M30.5851 19.7913C30.5851 17.317 28.5759 15.3077 26.1016 15.3077C28.5759 15.3077 30.5851 13.2985 30.5851 10.8242C30.5851 13.2985 32.5944 15.3077 35.0687 15.3077C32.5944 15.3077 30.5851 17.317 30.5851 19.7913Z" fill="white"/>
<path d="M70.8163 26.4797C70.8163 24.0055 68.807 21.9962 66.3328 21.9962C68.807 21.9962 70.8163 19.987 70.8163 17.5127C70.8163 19.987 72.8255 21.9962 75.2998 21.9962C72.8255 21.9962 70.8163 24.0055 70.8163 26.4797Z" fill="white"/>
<path d="M47.8361 55.1194C47.8361 52.6451 45.8268 50.6359 43.3525 50.6359C45.8268 50.6359 47.8361 48.6266 47.8361 46.1523C47.8361 48.6266 49.8453 50.6359 52.3196 50.6359C49.8453 50.6359 47.8361 52.6451 47.8361 55.1194Z" fill="white"/>
<path d="M84.1692 53.9836C84.1692 51.5094 82.16 49.5001 79.6857 49.5001C82.16 49.5001 84.1692 47.4909 84.1692 45.0166C84.1692 47.4909 86.1785 49.5001 88.6528 49.5001C86.1785 49.5001 84.1692 51.5094 84.1692 53.9836Z" fill="white"/>
<path d="M11.1356 31.2711C11.1356 30.0885 10.1769 29.1356 9 29.1356C10.1826 29.1356 11.1356 28.1769 11.1356 27C11.1356 28.1826 12.0943 29.1356 13.2711 29.1356C12.0885 29.1356 11.1356 30.0943 11.1356 31.2711Z" fill="white"/>
</svg>
