<svg width="40" height="32" viewBox="0 0 40 32" fill="none" xmlns="http://www.w3.org/2000/svg">
<path d="M7.82319 28.8161L7.00154 17.7914H25.1537H34.3962L33.4021 28.8161H25.1537H7.82319Z" fill="#A7A7A8"/>
<path d="M25.1537 17.063H33.3962C33.9485 17.063 34.3993 16.6128 34.3071 16.0682C34.0671 14.6505 33.3306 12.9014 31.9538 11.4097C30.9989 10.3752 29.5681 10.0004 28.1602 10.0003L12.4445 10C9.3208 10 7.30146 14.2336 7.03106 16.5656C6.99926 16.8399 7.22386 17.063 7.5 17.063H25.1537Z" fill="#A7A7A8"/>
<path d="M7.00154 17.7914V17.3271H6.50136L6.53854 17.8259L7.00154 17.7914ZM7.82319 28.8161L7.36019 28.8506L7.39222 29.2803H7.82319V28.8161ZM33.4021 28.8161V29.2803H33.8264L33.8645 28.8578L33.4021 28.8161ZM34.3962 17.7914L34.8587 17.8331L34.9043 17.3271H34.3962V17.7914ZM7.03106 16.5656L7.49225 16.619L7.49225 16.619L7.03106 16.5656ZM12.4445 10L12.4445 9.53572H12.4445V10ZM28.1602 10.0003L28.1602 9.53607L28.1602 10.0003ZM31.9538 11.4097L32.295 11.0948L32.295 11.0948L31.9538 11.4097ZM34.3071 16.0682L34.7649 15.9907L34.7649 15.9907L34.3071 16.0682ZM6.53854 17.8259L7.36019 28.8506L8.28619 28.7816L7.46453 17.7569L6.53854 17.8259ZM7.82319 29.2803H25.1537V28.3518H7.82319V29.2803ZM25.6179 28.8161V17.7914H24.6894V28.8161H25.6179ZM25.1537 17.3271H7.00154V18.2557H25.1537V17.3271ZM25.1537 29.2803H33.4021V28.3518H25.1537V29.2803ZM33.8645 28.8578L34.8587 17.8331L33.9338 17.7497L32.9397 28.7744L33.8645 28.8578ZM34.3962 17.3271H25.1537V18.2557H34.3962V17.3271ZM33.3962 16.5987H25.1537V17.5273H33.3962V16.5987ZM25.1537 16.5987H7.5V17.5273H25.1537V16.5987ZM7.49225 16.619C7.61837 15.5314 8.16234 13.9616 9.05024 12.6715C9.94388 11.3731 11.1077 10.4643 12.4445 10.4643V9.53572C10.6576 9.53572 9.24989 10.7437 8.28534 12.1451C7.31505 13.5548 6.71415 15.2677 6.56987 16.5121L7.49225 16.619ZM12.4445 10.4643L28.1601 10.4646L28.1602 9.53607L12.4445 9.53572L12.4445 10.4643ZM31.6126 11.7247C32.9253 13.1467 33.6236 14.8121 33.8493 16.1457L34.7649 15.9907C34.5107 14.4889 33.736 12.656 32.295 11.0948L31.6126 11.7247ZM28.1601 10.4646C29.5003 10.4647 30.7802 10.8228 31.6126 11.7247L32.295 11.0948C31.2175 9.92755 29.6358 9.5361 28.1602 9.53607L28.1601 10.4646ZM7.5 16.5987C7.48753 16.5987 7.48331 16.5939 7.48456 16.5952C7.48545 16.5961 7.48806 16.5992 7.49013 16.6051C7.49114 16.608 7.49181 16.611 7.49213 16.6138C7.49245 16.6167 7.49231 16.6185 7.49225 16.619L6.56987 16.5121C6.50202 17.0972 6.98279 17.5273 7.5 17.5273V16.5987ZM33.3962 17.5273C34.1828 17.5273 34.9135 16.8686 34.7649 15.9907L33.8493 16.1457C33.8851 16.3569 33.7142 16.5987 33.3962 16.5987V17.5273Z" fill="#232326"/>
<path fill-rule="evenodd" clip-rule="evenodd" d="M28.4883 11.2972C28.5702 11.5609 28.4228 11.8411 28.159 11.923C27.4036 12.1576 26.8867 12.7269 26.544 13.4001C26.1995 14.0768 26.0574 14.8111 26.0335 15.2648C26.019 15.5405 25.7836 15.7523 25.5079 15.7377C25.2321 15.7232 25.0203 15.4878 25.0349 15.2121C25.065 14.641 25.2355 13.7663 25.6529 12.9464C26.072 12.123 26.7664 11.3083 27.8625 10.9679C28.1262 10.886 28.4064 11.0334 28.4883 11.2972Z" fill="#232326"/>
</svg>
