<svg width="14" height="16" viewBox="0 0 14 16" fill="none" xmlns="http://www.w3.org/2000/svg">
<path d="M7 0.125C6.49656 0.125 6.13487 0.4445 5.82662 0.715062C5.51837 0.985625 5.24837 1.214 4.98906 1.25338C4.73228 1.29219 4.23053 1.03062 3.74791 0.774969C3.50688 0.647 3.26978 0.5255 3.00934 0.486969C2.74863 0.448438 2.42659 0.554469 2.26122 0.819969C2.02103 1.20444 2.12622 1.66119 2.34559 2.03891C2.56497 2.41634 2.90388 2.77072 3.25853 3.08909C3.96784 3.72613 4.75394 4.21353 4.75394 4.21353C4.79839 4.24132 4.84973 4.25612 4.90216 4.25628H9.09728C9.14999 4.25628 9.20164 4.24147 9.24634 4.21353C9.24634 4.21353 10.0313 3.72613 10.7409 3.08909C11.0953 2.77072 11.4345 2.41634 11.6538 2.03891C11.8732 1.66119 11.9784 1.20444 11.7382 0.819969C11.5728 0.554188 11.2508 0.448438 10.9901 0.486969C10.7297 0.5255 10.4926 0.647 10.2515 0.774969C9.76891 1.03062 9.26716 1.29219 9.01038 1.25309C8.75106 1.214 8.48106 0.985625 8.17281 0.715062C7.86456 0.4445 7.50344 0.125 7 0.125ZM4.90553 4.81906C4.87032 4.81894 4.83541 4.82543 4.80259 4.83819C3.59322 5.31153 2.60997 6.44413 1.915 7.76825C1.22003 9.09237 0.8125 10.6167 0.8125 11.9375C0.8125 13.6447 1.55669 14.7002 2.70334 15.2433C3.85 15.7864 5.3575 15.875 7 15.875C8.6425 15.875 10.15 15.7864 11.2967 15.2433C12.4433 14.7002 13.1875 13.6444 13.1875 11.9375C13.1875 10.6167 12.7797 9.09237 12.0844 7.76825C11.3895 6.44413 10.4065 5.31153 9.19684 4.83819C9.16423 4.8254 9.1295 4.81882 9.09447 4.81878L4.90553 4.81906ZM5.96247 8.378H8.03753C8.11628 8.378 8.18406 8.40613 8.24031 8.46238C8.29656 8.51497 8.32441 8.58275 8.32441 8.66516C8.32441 8.74391 8.29656 8.80944 8.24031 8.86203C8.18406 8.91434 8.11656 8.9405 8.03781 8.9405H7.54703C7.62859 9.00209 7.69919 9.07438 7.75628 9.16016C7.78047 9.19616 7.801 9.23413 7.81844 9.27266H8.03781C8.11656 9.27266 8.18406 9.30078 8.24031 9.35703C8.29656 9.40934 8.32441 9.47516 8.32441 9.55391C8.32441 9.63266 8.29656 9.70016 8.24031 9.75641C8.18406 9.80872 8.11656 9.83516 8.03781 9.83516H7.86175C7.84685 9.8913 7.8267 9.94591 7.80156 9.99828C7.74506 10.1187 7.66903 10.2289 7.57656 10.3245C7.495 10.41 7.40219 10.4781 7.30319 10.5346C7.35747 10.5689 7.41006 10.6077 7.45872 10.6564C7.54113 10.7352 7.60834 10.8252 7.66094 10.9264C7.71353 11.0277 7.74334 11.1379 7.75094 11.258L7.77906 11.5508C7.78638 11.6259 7.79987 11.6877 7.81844 11.7364C7.84094 11.7851 7.87469 11.8228 7.91969 11.8489C7.96469 11.8753 7.99844 11.9088 8.02094 11.9502C8.04344 11.9876 8.05469 12.0289 8.05469 12.0739C8.05558 12.107 8.04896 12.1399 8.03533 12.1701C8.02169 12.2003 8.00138 12.2271 7.97594 12.2483C7.92728 12.2933 7.86147 12.3155 7.77906 12.3155C7.71113 12.314 7.64419 12.2989 7.58219 12.2711C7.50738 12.2312 7.44213 12.1755 7.39094 12.1079C7.33469 12.0292 7.288 11.9279 7.25031 11.8042C7.21291 11.6765 7.19406 11.5184 7.19406 11.3311C7.19406 11.2372 7.17887 11.1568 7.14906 11.0893C7.12192 11.0255 7.07941 10.9694 7.02531 10.9261C6.97156 10.8805 6.90806 10.8478 6.83969 10.8305C6.76498 10.8076 6.6872 10.7963 6.60906 10.797H5.97344C5.89469 10.797 5.82719 10.7745 5.77094 10.7295C5.71862 10.6809 5.69219 10.6148 5.69219 10.5324C5.69219 10.4536 5.71862 10.394 5.77094 10.3527C5.82719 10.3077 5.89469 10.2852 5.97344 10.2852H6.76094C6.84728 10.2815 6.92969 10.2494 7.00844 10.1895C7.09458 10.121 7.16226 10.0321 7.20531 9.93078C7.21979 9.8998 7.2321 9.86785 7.24216 9.83516H5.96247C5.87978 9.83516 5.81059 9.80872 5.75434 9.75641C5.70156 9.70005 5.67307 9.62519 5.67503 9.548C5.67503 9.46559 5.70175 9.40006 5.75406 9.35113C5.81031 9.29881 5.87978 9.27266 5.96219 9.27266H7.225C7.1996 9.21458 7.1644 9.1613 7.12094 9.11516C7.01575 8.999 6.89031 8.9405 6.74406 8.9405H5.96219C5.87978 8.9405 5.81031 8.91434 5.75406 8.86175C5.70155 8.80538 5.67327 8.73064 5.67531 8.65363C5.67531 8.57488 5.70175 8.50963 5.75406 8.45703C5.81031 8.40444 5.87978 8.378 5.96219 8.378H5.96247Z" fill="#A6A6AC"/>
</svg>
