<svg width="72" height="73" viewBox="0 0 72 73" fill="none" xmlns="http://www.w3.org/2000/svg">
<rect y="0.5" width="72" height="72" rx="36" fill="#01656B" fill-opacity="0.4"/>
<path fill-rule="evenodd" clip-rule="evenodd" d="M47.1342 46.891V31.9436C47.1342 29.895 45.4735 28.2344 43.4249 28.2344H28.4557C26.4071 28.2344 24.7461 29.895 24.7461 31.9436V40.9426C24.7461 42.9915 26.4071 44.6522 28.4557 44.6522H40.9658L46.0176 47.539C46.1311 47.6036 46.2596 47.6374 46.3903 47.6369C46.521 47.6363 46.6492 47.6016 46.7622 47.536C46.8752 47.4704 46.969 47.3763 47.0343 47.2631C47.0995 47.1499 47.134 47.0216 47.1342 46.891ZM45.6419 31.9436V45.605L41.5343 43.258C41.4216 43.1935 41.2941 43.1595 41.1642 43.1595H28.4557C27.8678 43.1595 27.304 42.926 26.8882 42.5103C26.4725 42.0946 26.2388 41.5308 26.2388 40.9429V31.9436C26.2388 31.3557 26.4724 30.7918 26.8882 30.3761C27.3039 29.9604 27.8678 29.7268 28.4557 29.7267H43.4249C44.0128 29.7268 44.5767 29.9604 44.9924 30.3761C45.4082 30.7918 45.6418 31.3557 45.6419 31.9436Z" fill="#62E3C4"/>
</svg>
