<svg width="46" height="45" viewBox="0 0 46 45" fill="none" xmlns="http://www.w3.org/2000/svg">
<path d="M30.3846 17.3496V27.65C30.3846 29.3278 29.0093 30.688 27.3128 30.688H12.0582C10.3617 30.688 8.98633 29.3278 8.98633 27.65V17.3496C8.98633 15.6717 10.3617 14.3115 12.0582 14.3115H27.3128C29.0093 14.3115 30.3846 15.6718 30.3846 17.3496Z" fill="#3A3D51"/>
<path d="M36.8149 17.2199V28.0953C36.8149 28.6929 36.1637 29.0686 35.6378 28.7747L31.0299 26.1998L30.3828 25.8379V19.4766L31.0299 19.1146L35.6378 16.5404C36.1637 16.2468 36.8149 16.6226 36.8149 17.2199Z" fill="#65687F"/>
<path d="M31.0311 22.0888V19.1152L30.384 19.4772L29.4551 22.6508L30.3837 25.8383V25.8385L30.7072 26.0196L31.0311 26.2004L35.6386 28.7754C36.1646 29.0692 36.8158 28.6933 36.8158 28.096V24.3866L32.5051 23.7717C31.6591 23.6512 31.0311 22.9341 31.0311 22.0888Z" fill="#3A3D51"/>
<path d="M30.3845 17.3496V27.65C30.3845 29.3278 29.0092 30.688 27.3127 30.688H14.7202C13.0237 30.688 11.6484 29.3278 11.6484 27.65V17.3496C11.6484 15.6717 13.0238 14.3115 14.7203 14.3115H27.3127C29.0092 14.3115 30.3845 15.6718 30.3845 17.3496Z" fill="#65687F"/>
<path d="M18.149 22.4995C18.149 23.8045 17.0795 24.8622 15.7601 24.8622C14.4407 24.8622 13.3711 23.8045 13.3711 22.4995C13.3711 21.1945 14.4406 20.1367 15.7601 20.1367C17.0796 20.1367 18.149 21.1945 18.149 22.4995Z" fill="white"/>
<path d="M15.7613 25.5525C14.0599 25.5525 12.6758 24.1834 12.6758 22.5007C12.6758 20.818 14.0599 19.4492 15.7613 19.4492C17.4625 19.4492 18.8469 20.818 18.8469 22.5007C18.8469 24.1834 17.4625 25.5525 15.7613 25.5525ZM15.7613 20.8266C14.8281 20.8266 14.0686 21.5778 14.0686 22.5007C14.0686 23.4239 14.8281 24.1747 15.7613 24.1747C16.6947 24.1747 17.4539 23.4239 17.4539 22.5007C17.4539 21.5778 16.6947 20.8266 15.7613 20.8266Z" fill="#3A3D51"/>
<path d="M26.3565 22.4995C26.3565 23.8045 25.2866 24.8622 23.9671 24.8622C22.648 24.8622 21.5781 23.8045 21.5781 22.4995C21.5781 21.1945 22.6481 20.1367 23.9671 20.1367C25.2866 20.1367 26.3565 21.1945 26.3565 22.4995Z" fill="white"/>
<path d="M23.9682 25.5525C22.2669 25.5525 20.8828 24.1834 20.8828 22.5007C20.8828 20.818 22.2669 19.4492 23.9683 19.4492C25.6696 19.4492 27.0539 20.818 27.0539 22.5007C27.0539 24.1834 25.6696 25.5525 23.9682 25.5525ZM23.9682 20.8266C23.0351 20.8266 22.2755 21.5778 22.2755 22.5007C22.2755 23.4239 23.0351 24.1747 23.9682 24.1747C24.9017 24.1747 25.6608 23.4239 25.6608 22.5007C25.6608 21.5778 24.9017 20.8266 23.9682 20.8266Z" fill="#3A3D51"/>
<path d="M22.75 0C10.1853 0 0 10.0734 0 22.5C0 34.9266 10.1853 45 22.75 45C35.3147 45 45.5 34.9266 45.5 22.5C45.5 10.0734 35.3147 0 22.75 0ZM4.09207 22.5C4.09207 16.2461 7.2385 10.7199 12.0501 7.38246L29.8608 39.5638C27.669 40.4582 25.2681 40.9525 22.75 40.9525C12.4456 40.9529 4.09207 32.6912 4.09207 22.5ZM33.4492 37.6179L15.6388 5.43621C17.8303 4.54184 20.2319 4.0471 22.75 4.0471C33.0544 4.0471 41.4069 12.3088 41.4069 22.5C41.4069 28.7539 38.2608 34.2804 33.4492 37.6179Z" fill="#FF5A73"/>
</svg>
