<svg width="82" height="83" viewBox="0 0 82 83" fill="none" xmlns="http://www.w3.org/2000/svg">
<rect y="0.5" width="82" height="82" rx="41" fill="#01656B" fill-opacity="0.4"/>
<path d="M40.4544 28.1382L39.2935 28.9338H42.7068L41.5468 28.1397C41.3864 28.0286 41.196 27.969 41.0008 27.9688C40.8057 27.9685 40.6152 28.0276 40.4544 28.1382ZM27.8849 36.7512L27.8829 36.7527L29.8835 38.3061V35.3805L27.8849 36.7512ZM38.466 46.1936L27.4668 37.6536V54.0768C27.4675 54.2144 27.4983 54.3502 27.5572 54.4746L38.466 46.1936ZM40.1374 46.1405L28.4209 55.0338C28.4251 55.034 28.4293 55.034 28.4335 55.0338H53.5668C53.571 55.034 53.5752 55.034 53.5794 55.0338L41.8624 46.1405C41.614 45.9528 41.3112 45.8512 40.9999 45.8512C40.6886 45.8512 40.3858 45.9528 40.1374 46.1405ZM54.4431 54.4746C54.5019 54.3502 54.5328 54.2144 54.5335 54.0768V37.6536L43.5342 46.1936L54.4431 54.4746ZM52.1168 38.3061L54.1173 36.7527L52.1168 35.3805V38.3061ZM41.0001 41.9838C41.9561 41.9838 42.8906 41.7003 43.6854 41.1692C44.4802 40.6381 45.0997 39.8833 45.4656 39.0001C45.8314 38.1169 45.9271 37.1451 45.7406 36.2075C45.5541 35.27 45.0938 34.4087 44.4178 33.7328C43.7419 33.0568 42.8806 32.5965 41.9431 32.41C41.0055 32.2235 40.0337 32.3192 39.1505 32.6851C38.2673 33.0509 37.5125 33.6704 36.9814 34.4652C36.4503 35.2601 36.1668 36.1945 36.1668 37.1505C36.1682 38.4319 36.6779 39.6605 37.584 40.5666C38.4901 41.4727 39.7187 41.9824 41.0001 41.9838ZM38.7251 35.5589C38.637 35.4677 38.5883 35.3456 38.5894 35.2189C38.5905 35.0922 38.6414 34.9709 38.731 34.8813C38.8206 34.7917 38.9418 34.7409 39.0685 34.7398C39.1953 34.7387 39.3174 34.7874 39.4085 34.8754L41.0001 36.467L42.5917 34.8754C42.6829 34.7874 42.805 34.7387 42.9317 34.7398C43.0585 34.7409 43.1797 34.7917 43.2693 34.8813C43.3589 34.9709 43.4097 35.0922 43.4108 35.2189C43.4119 35.3456 43.3632 35.4677 43.2752 35.5589L41.6836 37.1505L43.2752 38.7421C43.3213 38.7867 43.3582 38.84 43.3835 38.899C43.4088 38.9579 43.4222 39.0214 43.4227 39.0855C43.4233 39.1497 43.411 39.2134 43.3867 39.2728C43.3624 39.3322 43.3266 39.3861 43.2812 39.4315C43.2358 39.4769 43.1818 39.5128 43.1224 39.5371C43.063 39.5614 42.9994 39.5736 42.9352 39.5731C42.871 39.5725 42.8076 39.5592 42.7486 39.5338C42.6897 39.5085 42.6363 39.4717 42.5917 39.4255L41.0001 37.8339L39.4085 39.4255C39.3174 39.5136 39.1953 39.5623 39.0685 39.5612C38.9418 39.5601 38.8206 39.5092 38.731 39.4196C38.6414 39.33 38.5905 39.2088 38.5894 39.0821C38.5883 38.9553 38.637 38.8332 38.7251 38.7421L40.3167 37.1505L38.7251 35.5589Z" fill="#62E3C4"/>
<path d="M30.8496 30.3857V39.0586L39.2625 45.5904L39.5525 45.3709C39.9694 45.0562 40.4775 44.886 40.9999 44.886C41.5222 44.886 42.0303 45.0562 42.4472 45.3709L42.7372 45.5909L51.1496 39.0586V30.3857C51.1496 30.2575 51.0987 30.1346 51.008 30.0439C50.9174 29.9533 50.7945 29.9023 50.6663 29.9023H31.3329C31.2048 29.9023 31.0818 29.9533 30.9912 30.0439C30.9005 30.1346 30.8496 30.2575 30.8496 30.3857ZM40.9996 31.3523C42.1467 31.3523 43.2681 31.6925 44.2219 32.3298C45.1757 32.9671 45.9191 33.873 46.3581 34.9328C46.7971 35.9926 46.912 37.1588 46.6882 38.2839C46.4644 39.409 45.912 40.4424 45.1008 41.2536C44.2897 42.0647 43.2562 42.6171 42.1311 42.8409C41.006 43.0647 39.8399 42.9498 38.78 42.5108C37.7202 42.0719 36.8144 41.3285 36.1771 40.3747C35.5398 39.4208 35.1996 38.2995 35.1996 37.1523C35.2013 35.6146 35.8129 34.1403 36.9002 33.053C37.9876 31.9656 39.4619 31.354 40.9996 31.3523Z" fill="#62E3C4"/>
</svg>
