<svg width="35" height="35" viewBox="0 0 35 35" fill="none" xmlns="http://www.w3.org/2000/svg">
    <path fill-rule="evenodd" clip-rule="evenodd"
        d="M21.3797 26.6601H12.5097C11.9434 26.6601 11.4843 26.201 11.4843 25.6347C11.4843 25.0684 11.9434 24.6093 12.5097 24.6093H20.1065C19.8146 23.9539 19.6041 23.2652 19.4797 22.5586H12.5097C11.9434 22.5586 11.4843 22.0995 11.4843 21.5333C11.4843 20.967 11.9434 20.5079 12.5097 20.5079H19.3608C19.4004 19.8123 19.5225 19.1239 19.7245 18.4571H12.5097C11.9434 18.4571 11.4843 17.998 11.4843 17.4317C11.4843 16.8654 11.9434 16.4063 12.5097 16.4063H20.646C22.2038 13.8662 25.0062 12.1679 28.1981 12.1679C29.2922 12.1679 30.3403 12.3679 31.3085 12.7325V3.6916C31.3085 1.65607 29.6524 0 27.6169 0H6.99683C7.25109 0.509522 7.38323 1.07125 7.38278 1.64069V33.9746C7.38275 34.1403 7.42288 34.3035 7.49973 34.4503C7.57658 34.5971 7.68787 34.7231 7.82406 34.8175C7.96025 34.9119 8.11728 34.9718 8.28172 34.9923C8.44615 35.0127 8.61308 34.9929 8.76822 34.9347L11.1425 34.0444L13.5168 34.9347C13.7489 35.0217 14.0047 35.0217 14.2368 34.9347L16.6112 34.0444L18.9855 34.9347C19.2176 35.0217 19.4734 35.0217 19.7055 34.9347L22.0799 34.0444L24.4542 34.9347C24.6864 35.0217 24.9421 35.0217 25.1743 34.9347L27.5486 34.0444L29.9229 34.9347C30.078 34.9929 30.245 35.0127 30.4094 34.9922C30.5738 34.9718 30.7308 34.9118 30.867 34.8174C31.0032 34.723 31.1145 34.5971 31.1913 34.4503C31.2682 34.3035 31.3083 34.1403 31.3083 33.9746V29.3084C30.3402 29.6729 29.2921 29.8729 28.198 29.8729C25.458 29.8729 23.0048 28.6214 21.3797 26.6601ZM24.8827 4.10155H26.1815C26.7478 4.10155 27.2069 4.56065 27.2069 5.12693C27.2069 5.69322 26.7478 6.15232 26.1815 6.15232H24.8827C24.3164 6.15232 23.8573 5.69322 23.8573 5.12693C23.8573 4.56065 24.3164 4.10155 24.8827 4.10155ZM24.8827 8.20323H26.1815C26.7478 8.20323 27.2069 8.66233 27.2069 9.22862C27.2069 9.7949 26.7478 10.254 26.1815 10.254H24.8827C24.3164 10.254 23.8573 9.7949 23.8573 9.22862C23.8573 8.66233 24.3164 8.20323 24.8827 8.20323ZM12.5097 4.10155H20.7812C21.3475 4.10155 21.8066 4.56065 21.8066 5.12693C21.8066 5.69322 21.3475 6.15232 20.7812 6.15232H12.5097C11.9434 6.15232 11.4843 5.69322 11.4843 5.12693C11.4843 4.56065 11.9434 4.10155 12.5097 4.10155ZM12.5097 8.20323H20.7812C21.3475 8.20323 21.8066 8.66233 21.8066 9.22862C21.8066 9.7949 21.3475 10.254 20.7812 10.254H12.5097C11.9434 10.254 11.4843 9.7949 11.4843 9.22862C11.4843 8.66233 11.9434 8.20323 12.5097 8.20323ZM12.5097 12.3048H20.7812C21.3475 12.3048 21.8066 12.7639 21.8066 13.3302C21.8066 13.8964 21.3475 14.3555 20.7812 14.3555H12.5097C11.9434 14.3555 11.4843 13.8964 11.4843 13.3302C11.4843 12.7639 11.9434 12.3048 12.5097 12.3048ZM2.66601 6.83591e-05C1.19362 6.83591e-05 0 1.19369 0 2.66607V9.63863C0 10.2049 0.4591 10.664 1.02539 10.664H4.30662C4.87291 10.664 5.33201 10.2049 5.33201 9.63863V2.66607C5.33201 1.19369 4.13839 6.83591e-05 2.66601 6.83591e-05Z"
        fill="white" />
    <path fill-rule="evenodd" clip-rule="evenodd"
        d="M28.1982 14.2188C24.4478 14.2188 21.3965 17.27 21.3965 21.0205C21.3965 24.771 24.4478 27.8223 28.1982 27.8223C31.9487 27.8223 35 24.771 35 21.0205C35 17.27 31.9487 14.2188 28.1982 14.2188ZM29.2236 25.048V25.0906C29.2236 25.6569 28.7645 26.116 28.1982 26.116C27.6807 26.116 27.2539 25.7322 27.184 25.2338H27.0353C26.469 25.2338 26.0099 24.7747 26.0099 24.2084C26.0099 23.6422 26.469 23.1831 27.0353 23.1831H28.2784C28.7488 23.1831 28.8995 22.5189 28.4847 22.3102C28.1358 22.1352 27.7888 21.9555 27.4366 21.787C27.1995 21.6735 26.9509 21.5767 26.7392 21.4175C26.0269 20.9557 25.6091 20.1922 25.6091 19.3215C25.6091 18.2701 26.2566 17.3679 27.1729 16.993V16.9504C27.1729 16.3841 27.632 15.925 28.1983 15.925C28.7159 15.925 29.1427 16.3088 29.2126 16.8071H29.3612C29.9275 16.8071 30.3866 17.2662 30.3866 17.8325C30.3866 18.3988 29.9275 18.8579 29.3612 18.8579H28.1182C27.8655 18.8579 27.6598 19.0658 27.6598 19.3215C27.6598 19.6223 27.8949 19.7223 28.1293 19.8395L29.1377 20.3436C29.5792 20.5643 29.9926 20.8133 30.2951 21.2151C30.6203 21.647 30.7876 22.1802 30.7876 22.7194C30.7875 23.7708 30.1399 24.6731 29.2236 25.048Z"
        fill="white" />
</svg>