<svg width="195" height="110" viewBox="0 0 195 110" fill="none" xmlns="http://www.w3.org/2000/svg">
<ellipse opacity="0.8" cx="174.71" cy="49.1291" rx="6.1737" ry="2.88106" fill="#0E0E0F"/>
<circle cx="173.887" cy="21.1412" r="19.7558" fill="#627F8E" stroke="white" stroke-width="2.46948"/>
<path d="M173.339 46.8483C173.839 47.7139 175.088 47.7139 175.588 46.8483L178.592 41.6448C179.092 40.7792 178.467 39.6973 177.468 39.6973H171.459C170.46 39.6973 169.835 40.7792 170.335 41.6448L173.339 46.8483Z" fill="white"/>
<path d="M174.71 25.5752V28.1569C174.71 28.4507 174.577 28.5977 174.311 28.5977H172.443C172.163 28.5977 172.023 28.4437 172.023 28.1359V25.5962C172.023 25.3163 172.163 25.1764 172.443 25.1764H174.311C174.577 25.1764 174.71 25.3093 174.71 25.5752ZM174.689 22.8256V23.3713C174.689 23.6651 174.542 23.8121 174.248 23.8121H172.59C172.296 23.8121 172.149 23.6651 172.149 23.3713V22.8046C172.149 22.3428 172.226 21.972 172.38 21.6921C172.534 21.3983 172.793 21.1044 173.157 20.8106L174.332 19.8451C174.78 19.4952 175.004 19.1104 175.004 18.6906V18.5647C175.004 18.1309 174.899 17.8231 174.689 17.6412C174.493 17.4453 174.164 17.3473 173.702 17.3473H173.325C172.891 17.3473 172.576 17.4383 172.38 17.6202C172.198 17.8021 172.107 18.1169 172.107 18.5647V19.0055C172.107 19.3133 171.96 19.4672 171.667 19.4672H169.882C169.589 19.4672 169.442 19.3133 169.442 19.0055V18.5227C169.442 17.4313 169.742 16.5917 170.344 16.004C170.946 15.4163 171.799 15.1224 172.905 15.1224H174.143C175.249 15.1224 176.102 15.4163 176.704 16.004C177.306 16.5917 177.607 17.4313 177.607 18.5227V18.8166C177.607 19.5022 177.292 20.1179 176.662 20.6636L175.235 21.8181C174.871 22.1539 174.689 22.4897 174.689 22.8256Z" fill="white"/>
<ellipse opacity="0.6" cx="23.505" cy="66.9295" rx="6.54752" ry="3.05551" fill="black"/>
<circle cx="22.6318" cy="37.2471" r="20.9521" fill="#A9C6D6" stroke="white" stroke-width="2.61901"/>
<path d="M22.0506 64.5107C22.5806 65.4287 23.9056 65.4287 24.4356 64.5107L27.6218 58.9921C28.1518 58.0741 27.4893 56.9266 26.4293 56.9266H20.057C18.9969 56.9266 18.3344 58.0741 18.8644 58.9921L22.0506 64.5107Z" fill="white"/>
<path d="M23.5045 41.6168V44.3548C23.5045 44.6664 23.3636 44.8223 23.0816 44.8223H21.1004C20.8036 44.8223 20.6552 44.659 20.6552 44.3325V41.639C20.6552 41.3422 20.8036 41.1938 21.1004 41.1938H23.0816C23.3636 41.1938 23.5045 41.3348 23.5045 41.6168ZM23.4823 38.7007V39.2794C23.4823 39.5911 23.3265 39.7469 23.0148 39.7469H21.2562C20.9446 39.7469 20.7888 39.5911 20.7888 39.2794V38.6784C20.7888 38.1887 20.8704 37.7954 21.0336 37.4986C21.1969 37.187 21.4714 36.8753 21.8573 36.5637L23.1039 35.5397C23.5787 35.1687 23.8162 34.7606 23.8162 34.3154V34.1818C23.8162 33.7218 23.7049 33.3953 23.4823 33.2023C23.2745 32.9946 22.9258 32.8907 22.436 32.8907H22.0354C21.5753 32.8907 21.2414 32.9872 21.0336 33.1801C20.8407 33.373 20.7443 33.7069 20.7443 34.1818V34.6493C20.7443 34.9758 20.5884 35.139 20.2768 35.139H18.3847C18.073 35.139 17.9172 34.9758 17.9172 34.6493V34.1373C17.9172 32.9797 18.2362 32.0893 18.8744 31.466C19.5125 30.8427 20.4178 30.5311 21.5901 30.5311H22.9035C24.0759 30.5311 24.9811 30.8427 25.6193 31.466C26.2574 32.0893 26.5765 32.9797 26.5765 34.1373V34.4489C26.5765 35.1761 26.2426 35.8291 25.5748 36.4078L24.0611 37.6322C23.6752 37.9883 23.4823 38.3445 23.4823 38.7007Z" fill="#151D22"/>
<ellipse opacity="0.6" cx="100.763" cy="106.461" rx="7.5" ry="3.5" fill="black"/>
<circle cx="99.7627" cy="72.4609" r="24" fill="#495DB2" stroke="white" stroke-width="3"/>
<mask id="mask0_1751_10382" style="mask-type:alpha" maskUnits="userSpaceOnUse" x="77" y="49" width="46" height="46">
<circle cx="99.7627" cy="72.4609" r="22.5" fill="#495DB2"/>
</mask>
<g mask="url(#mask0_1751_10382)">
<path d="M112.76 81.4137C112.76 83.956 107.003 86.0169 99.9026 86.0169C92.8017 86.0169 87.0454 83.956 87.0454 81.4137C87.0454 78.8715 92.8017 76.8105 99.9026 76.8105C107.003 76.8105 112.76 78.8715 112.76 81.4137Z" fill="#EFAF4E"/>
<path d="M112.383 82.5248C112.629 82.169 112.76 81.7968 112.76 81.4137C112.76 78.8715 107.003 76.8105 99.9026 76.8105C92.8017 76.8105 87.0454 78.8715 87.0454 81.4137C87.0454 81.7968 87.1761 82.169 87.4225 82.5248C88.8108 80.5193 93.8718 79.0328 99.9026 79.0328C105.933 79.0328 110.994 80.5193 112.383 82.5248Z" fill="#1F2C65"/>
</g>
<path d="M88.6323 71.5726C88.6323 65.3484 93.678 60.3027 99.9022 60.3027C106.126 60.3027 111.172 65.3484 111.172 71.5726V82.2075H88.6323V71.5726Z" fill="#EFAF4E"/>
<path fill-rule="evenodd" clip-rule="evenodd" d="M95.9129 63.2089C96.0613 63.4601 95.978 63.7841 95.7268 63.9326C95.2962 64.187 94.8985 64.4751 94.5321 64.7893C94.3106 64.9793 93.977 64.9537 93.7871 64.7322C93.5971 64.5107 93.6227 64.1771 93.8442 63.9872C94.2552 63.6347 94.703 63.3101 95.1892 63.0228C95.4404 62.8743 95.7644 62.9576 95.9129 63.2089ZM92.9745 65.8025C93.1808 66.0088 93.1808 66.3434 92.9745 66.5497C92.341 67.1832 91.8595 68.1096 91.5371 69.1251C91.216 70.136 91.066 71.1932 91.066 72.0491C91.0661 72.3409 90.8295 72.5775 90.5377 72.5775C90.2459 72.5775 90.0093 72.341 90.0093 72.0492C90.0092 71.0832 90.1764 69.9182 90.5299 68.8052C90.8819 67.6968 91.4321 66.5976 92.2272 65.8025C92.4336 65.5961 92.7681 65.5961 92.9745 65.8025Z" fill="white"/>
<path d="M99.1084 71.0959C99.1084 70.5699 99.5348 70.1436 100.061 70.1436C100.587 70.1436 101.013 70.57 101.013 71.0959V73.6356C101.013 74.1616 100.587 74.588 100.061 74.588C99.5348 74.588 99.1084 74.1616 99.1084 73.6356V71.0959Z" fill="#1F2C65"/>
<path d="M105.458 71.0959C105.458 70.5699 105.884 70.1436 106.41 70.1436C106.936 70.1436 107.363 70.57 107.363 71.0959V73.6356C107.363 74.1616 106.936 74.588 106.41 74.588C105.884 74.588 105.458 74.1616 105.458 73.6356V71.0959Z" fill="#1F2C65"/>
<path d="M99.0971 103.691C99.7042 104.742 101.222 104.742 101.829 103.691L105.479 97.3693C106.086 96.3178 105.327 95.0033 104.113 95.0033H96.8135C95.5993 95.0033 94.8404 96.3178 95.4475 97.3693L99.0971 103.691Z" fill="white"/>
</svg>
