<svg width="35" height="35" viewBox="0 0 35 35" fill="none" xmlns="http://www.w3.org/2000/svg">
<path d="M1.12622 29.2786C-0.0277565 30.2771 -0.302289 31.8964 0.336669 33.1874C0.489863 33.4969 0.774717 33.7085 1.03339 33.9672C2.37112 35.3049 4.36975 35.1962 5.60768 33.7656L9.67542 29.0467L8.32901 26.5941L5.8468 25.218L1.12622 29.2786ZM12.3006 25.9708L15.2642 22.5459L12.0376 19.8369L9.17154 22.3169L12.3006 25.9708Z" fill="#65687F"/>
<path d="M8.98692 27.7539L4.3736 32.6873C2.78232 34.2786 0.719572 33.8216 0.335938 33.1864C0.493374 33.5046 0.701798 33.7948 0.952952 34.0456C2.29068 35.3833 4.4827 35.3043 5.72063 33.8737L9.7829 29.1547L8.98692 27.7539Z" fill="#3A3D51"/>
<path d="M9.85722 24.9574L7.48056 23.8125L5.84766 25.2172L8.69682 28.0664L9.7851 28.7563L11.1903 27.5222L9.85722 24.9574Z" fill="#EAF6FF"/>
<path d="M9.7836 29.1547L11.1888 27.5223L10.4798 26.1582L8.69531 28.0665L9.7836 29.1547Z" fill="#D8ECFE"/>
<path d="M12.4415 26.11L15.405 22.6851L15.0848 22.4141L13.7795 22.6319L11.5234 25.0445L12.4415 26.11Z" fill="#3A3D51"/>
<path d="M11.3498 27.5426L10.1634 26.497L7.31626 23.6499C7.27048 23.6041 7.23417 23.5498 7.2094 23.49C7.18463 23.4302 7.17188 23.3661 7.17188 23.3013C7.17188 23.2366 7.18463 23.1725 7.2094 23.1127C7.23417 23.0529 7.27048 22.9985 7.31626 22.9528L8.61099 21.658C8.65676 21.6123 8.71111 21.576 8.77091 21.5512C8.83072 21.5264 8.89482 21.5137 8.95956 21.5137C9.02429 21.5137 9.08839 21.5264 9.1482 21.5512C9.208 21.576 9.26235 21.6123 9.30812 21.658L12.0884 24.4384L13.2008 25.6915C13.2466 25.7373 13.2829 25.7916 13.3077 25.8515C13.3324 25.9113 13.3452 25.9754 13.3452 26.0401C13.3452 26.1048 13.3324 26.1689 13.3077 26.2287C13.2829 26.2885 13.2466 26.3429 13.2008 26.3887L12.0469 27.5425C11.9545 27.635 11.8291 27.6869 11.6984 27.6869C11.5676 27.6869 11.4422 27.635 11.3498 27.5426ZM22.1392 25.4393C19.0914 25.4393 15.9145 24.484 13.7777 22.6318C11.0498 20.2672 9.27866 16.9153 9.27866 12.8604C9.27866 5.75786 15.0365 0 22.1392 0C24.1098 0 25.9767 0.443517 27.6461 1.23574C31.9935 3.29883 34.7179 7.72847 34.7179 12.8605C34.7179 19.9632 29.2418 25.4393 22.1392 25.4393Z" fill="#FF5A73"/>
<path d="M27.6476 1.23535C30.5796 3.59253 32.4567 7.20869 32.4567 11.2636C32.4567 18.3662 26.6989 24.1241 19.5962 24.1241C17.6256 24.1241 15.4486 23.4237 13.7793 22.6314C15.7109 24.3138 18.8198 25.7206 22.1407 25.7206C29.2434 25.7206 35.0012 19.9627 35.0012 12.8601C35.0011 7.72808 31.9949 3.29845 27.6476 1.23535Z" fill="#FF5A73"/>
<path d="M22.1385 22.7203C27.5835 22.7203 31.9976 18.3062 31.9976 12.8611C31.9976 7.41605 27.5835 3.00195 22.1385 3.00195C16.6934 3.00195 12.2793 7.41605 12.2793 12.8611C12.2793 18.3062 16.6934 22.7203 22.1385 22.7203Z" fill="#D8ECFE"/>
<path d="M22.1408 21.6634C27.0025 21.6634 30.9436 17.7222 30.9436 12.8605C30.9436 7.9988 27.0025 4.05762 22.1408 4.05762C17.2791 4.05762 13.3379 7.9988 13.3379 12.8605C13.3379 17.7222 17.2791 21.6634 22.1408 21.6634Z" fill="#EAF6FF"/>
<path d="M11.3504 27.6835C11.3962 27.7293 11.4506 27.7656 11.5104 27.7904C11.5702 27.8151 11.6343 27.8279 11.699 27.8279C11.7637 27.8279 11.8278 27.8151 11.8877 27.7904C11.9475 27.7656 12.0018 27.7293 12.0476 27.6835L13.3423 26.3888C13.3881 26.343 13.4244 26.2887 13.4492 26.2289C13.4739 26.169 13.4867 26.1049 13.4867 26.0402C13.4867 25.9755 13.4739 25.9114 13.4492 25.8516C13.4244 25.7918 13.3881 25.7374 13.3423 25.6916L12.0891 24.4385L10.1641 26.4971L11.3504 27.6835Z" fill="#FF5A73"/>
<path d="M24.2316 12.7613L27.1798 9.81298C27.7199 9.27294 27.7599 8.39308 27.2394 7.83424C26.6929 7.24751 25.774 7.2352 25.2119 7.79733L22.2398 10.7695C22.2267 10.7825 22.2112 10.7929 22.1941 10.8C22.177 10.8071 22.1587 10.8107 22.1402 10.8107C22.1217 10.8107 22.1034 10.8071 22.0863 10.8C22.0692 10.7929 22.0536 10.7825 22.0406 10.7695L19.0923 7.82118C18.5522 7.28114 17.6724 7.24115 17.1135 7.76164C16.5268 8.30811 16.5145 9.22707 17.0766 9.78912L20.0487 12.7613C20.0618 12.7743 20.0722 12.7899 20.0792 12.807C20.0863 12.824 20.09 12.8424 20.09 12.8609C20.09 12.8794 20.0863 12.8977 20.0792 12.9148C20.0722 12.9319 20.0618 12.9474 20.0487 12.9605L17.1021 15.907C16.5527 16.4565 16.5215 17.3559 17.0643 17.9121C17.1953 18.0468 17.3521 18.1538 17.5253 18.2268C17.6984 18.2998 17.8845 18.3373 18.0724 18.337C18.2574 18.3372 18.4406 18.3009 18.6116 18.2301C18.7825 18.1593 18.9377 18.0554 19.0684 17.9245L22.0405 14.9523C22.0536 14.9392 22.0691 14.9289 22.0862 14.9218C22.1033 14.9147 22.1216 14.9111 22.1401 14.9111C22.1586 14.9111 22.1769 14.9147 22.194 14.9218C22.2111 14.9289 22.2266 14.9392 22.2397 14.9523L25.2118 17.9245C25.3425 18.0554 25.4977 18.1593 25.6686 18.2301C25.8396 18.3009 26.0228 18.3372 26.2078 18.337C26.3957 18.3373 26.5818 18.2998 26.7549 18.2268C26.9281 18.1538 27.0849 18.0468 27.2159 17.9121C27.7588 17.356 27.7276 16.4566 27.1781 15.907L24.2315 12.9605C24.2051 12.934 24.1903 12.8982 24.1903 12.8608C24.1904 12.8235 24.2052 12.7877 24.2316 12.7613Z" fill="#FF5A73"/>
</svg>
