<svg width="72" height="73" viewBox="0 0 72 73" fill="none" xmlns="http://www.w3.org/2000/svg">
<rect y="0.5" width="72" height="72" rx="36" fill="#01656B" fill-opacity="0.4"/>
<path d="M41.0219 26.7227H30.9802C29.7128 26.7227 28.6816 27.7656 28.6816 29.0476V46.7942C28.6816 47.906 29.2893 48.3005 29.8096 48.3005C30.1847 48.3005 30.5623 48.1109 30.9319 47.737L36.001 42.6098L41.0701 47.737C41.4397 48.1108 41.8173 48.3005 42.1924 48.3005H42.1925C42.5645 48.3005 42.8928 48.1076 43.0932 47.7711C43.244 47.518 43.3205 47.1892 43.3205 46.7941V29.0476C43.3205 27.7656 42.2893 26.7227 41.0219 26.7227ZM42.0705 46.7942C42.0705 46.853 42.0677 46.9023 42.0634 46.9433C42.0252 46.9118 41.9887 46.8783 41.954 46.843L36.4429 41.2688C36.3257 41.1502 36.1667 41.0836 36.001 41.0836C35.8352 41.0836 35.6763 41.1502 35.5591 41.2688L30.048 46.843C30.0134 46.8783 29.977 46.9118 29.9389 46.9433C29.9339 46.8938 29.9315 46.844 29.9316 46.7942V29.0476C29.9316 28.4628 30.402 27.987 30.9802 27.987H41.0219C41.6001 27.987 42.0705 28.4628 42.0705 29.0476V46.7942Z" fill="#62E3C4"/>
</svg>
