<svg width="146" height="157" viewBox="0 0 146 157" fill="none" xmlns="http://www.w3.org/2000/svg">
<path d="M91.6427 64.8946C92.8669 64.1921 94.8393 64.1836 96.0816 64.8755L135.289 86.7121C136.575 87.4279 136.584 88.6149 135.309 89.3373L46.7422 139.543C45.5321 140.229 43.6015 140.244 42.3594 139.577L2.99689 118.448C1.6778 117.74 1.64316 116.54 2.92064 115.807L91.6427 64.8946Z" fill="black"/>
<path d="M41.2478 51.4317C39.5984 52.3188 38.2361 54.6443 38.2563 56.5382L38.7947 106.955C38.8024 107.678 39.3104 107.971 39.9398 107.618L128.827 57.6552C130.44 56.7489 131.758 54.4851 131.758 52.623L131.758 3.57835C131.758 1.74613 130.48 0.993851 128.893 1.89225L44.2939 49.7935L41.2478 51.4317Z" fill="#627F8E" stroke="black" stroke-width="1.5" stroke-linejoin="round"/>
<path d="M53.167 68.7332C53.1288 67.6127 53.9264 66.2052 54.9166 65.6459L56.9628 64.4901L117.37 29.8272C118.324 29.2795 119.097 29.7281 119.097 30.8303L119.097 39.1235C119.097 40.2314 118.317 41.5784 117.357 42.1277L55.1663 77.733C54.2386 78.2641 53.4787 77.8551 53.4428 76.8054L53.167 68.7332Z" fill="black"/>
<mask id="path-4-inside-1_1989_5005" fill="white">
<path fill-rule="evenodd" clip-rule="evenodd" d="M109.634 39.126L55.8384 70.1851C56.3816 70.4579 57.1943 70.766 58.2149 71.1528C67.3767 74.6256 93.2888 84.4476 91.3346 132.131C91.2394 134.454 92.776 135.526 94.7421 134.39L111.951 124.455C113.49 117.933 117.413 111.663 122.01 109.009C126.607 106.355 130.53 108.094 132.069 112.84L141.92 107.152C143.611 106.176 145.047 103.891 145.169 101.874C147.518 62.9883 122.24 43.6279 109.634 39.126Z"/>
</mask>
<path fill-rule="evenodd" clip-rule="evenodd" d="M109.634 39.126L55.8384 70.1851C56.3816 70.4579 57.1943 70.766 58.2149 71.1528C67.3767 74.6256 93.2888 84.4476 91.3346 132.131C91.2394 134.454 92.776 135.526 94.7421 134.39L111.951 124.455C113.49 117.933 117.413 111.663 122.01 109.009C126.607 106.355 130.53 108.094 132.069 112.84L141.92 107.152C143.611 106.176 145.047 103.891 145.169 101.874C147.518 62.9883 122.24 43.6279 109.634 39.126Z" fill="#323232"/>
<path d="M55.8384 70.1851L55.8384 69.6851L54.7412 70.3185L55.5426 70.721L55.8384 70.1851ZM109.634 39.126L109.907 38.58L109.788 38.5375L109.634 38.626L109.634 39.126ZM58.2149 71.1528L57.9387 71.6974L58.2149 71.1528ZM91.3346 132.131L90.9021 132.357L91.3346 132.131ZM94.7421 134.39L94.7421 134.89L94.7421 134.39ZM111.951 124.455L111.951 124.955L112.269 124.771L112.364 124.367L111.951 124.455ZM132.069 112.84L131.656 113.229L131.751 113.523L132.069 113.34L132.069 112.84ZM145.169 101.874L145.601 101.661L145.169 101.874ZM55.5426 70.721C55.7165 70.8083 55.9153 70.8983 56.1364 70.9921L56.7038 69.909C56.4876 69.8173 56.2974 69.7311 56.1341 69.6491L55.5426 70.721ZM57.3369 71.4687C57.5285 71.5419 57.7294 71.618 57.9387 71.6974L58.4911 70.6083C58.2817 70.5289 58.0814 70.453 57.8903 70.38L57.3369 71.4687ZM57.9387 71.6974C58.3329 71.8468 58.7573 72.0077 59.2091 72.1827L59.7644 71.0948C59.311 70.9191 58.8852 70.7577 58.4911 70.6083L57.9387 71.6974ZM61.7416 73.2151C62.5237 73.5528 63.3512 73.9299 64.2131 74.3545L64.8017 73.2811C63.9328 72.8532 63.099 72.4731 62.3115 72.1331L61.7416 73.2151ZM66.6116 75.6193C67.3714 76.0478 68.1481 76.514 68.9353 77.0221L69.565 75.972C68.7705 75.4592 67.9869 74.9889 67.2205 74.5566L66.6116 75.6193ZM71.1713 78.5654C71.8834 79.0906 72.599 79.6522 73.3138 80.2534L73.9855 79.2343C73.2636 78.6271 72.5409 78.06 71.822 77.5299L71.1713 78.5654ZM75.3588 82.0904C76.012 82.7168 76.6608 83.3794 77.3017 84.0806L78.0142 83.1008C77.3665 82.3922 76.711 81.7227 76.0511 81.0899L75.3588 82.0904ZM79.1284 86.2162C79.7104 86.9433 80.2825 87.7063 80.842 88.5071L81.5928 87.5753C81.0271 86.7656 80.4487 85.9943 79.8605 85.2592L79.1284 86.2162ZM82.4354 90.9518C82.9377 91.7789 83.4263 92.6414 83.8989 93.541L84.684 92.6657C84.2061 91.7559 83.712 90.8836 83.204 90.0473L82.4354 90.9518ZM85.2306 96.2747C85.647 97.1984 86.0469 98.157 86.4282 99.152L87.2424 98.3413C86.8568 97.3348 86.4523 96.3651 86.031 95.4308L85.2306 96.2747ZM87.4884 102.168C87.8144 103.182 88.1219 104.231 88.4089 105.315L89.246 104.575C88.9557 103.479 88.6447 102.418 88.3149 101.392L87.4884 102.168ZM89.1886 108.587C89.4219 109.683 89.6353 110.813 89.8273 111.976L90.6805 111.312C90.4864 110.136 90.2706 108.994 90.0346 107.885L89.1886 108.587ZM90.3259 115.474C90.467 116.642 90.5876 117.841 90.6862 119.073L91.5489 118.487C91.4492 117.242 91.3273 116.03 91.1846 114.849L90.3259 115.474ZM90.9109 122.763C90.9629 123.991 90.9941 125.249 91.0034 126.537L91.8694 126.029C91.86 124.727 91.8285 123.457 91.776 122.216L90.9109 122.763ZM90.9675 130.388C90.9511 131.037 90.9293 131.693 90.9021 132.357L91.7671 131.906C91.7945 131.236 91.8165 130.573 91.8332 129.918L90.9675 130.388ZM90.9021 132.357C90.876 132.994 90.9595 133.548 91.1331 134.003L91.9476 133.193C91.812 132.838 91.7466 132.405 91.7671 131.906L90.9021 132.357ZM93.2087 135.4C93.6772 135.371 94.1955 135.206 94.7421 134.89L94.7421 133.89C94.3197 134.134 93.9213 134.261 93.5612 134.283L93.2087 135.4ZM94.7421 134.89L96.8932 133.648L96.8932 132.648L94.7421 133.89L94.7421 134.89ZM101.196 131.164L105.498 128.681L105.498 127.681L101.196 130.164L101.196 131.164ZM109.8 126.197L111.951 124.955L111.951 123.955L109.8 125.197L109.8 126.197ZM112.364 124.367C112.537 123.635 112.74 122.908 112.972 122.189L112.184 122.228C111.938 122.993 111.722 123.766 111.538 124.543L112.364 124.367ZM114.761 117.857C115.5 116.41 116.347 115.057 117.273 113.852L116.813 113.27C115.805 114.583 114.89 116.045 114.096 117.599L114.761 117.857ZM120.355 110.649C120.894 110.217 121.446 109.834 122.01 109.509L122.01 108.509C121.39 108.867 120.782 109.288 120.189 109.764L120.355 110.649ZM122.01 109.509C122.574 109.184 123.126 108.928 123.665 108.738L123.831 107.661C123.238 107.869 122.63 108.151 122.01 108.509L122.01 109.509ZM126.747 108.382C127.673 108.518 128.52 108.892 129.259 109.486L129.924 108.461C129.13 107.824 128.215 107.418 127.207 107.269L126.747 108.382ZM131.048 111.752C131.28 112.204 131.483 112.697 131.656 113.229L132.482 112.451C132.299 111.886 132.083 111.363 131.836 110.882L131.048 111.752ZM132.069 113.34L134.532 111.918L134.532 110.918L132.069 112.34L132.069 113.34ZM139.457 109.074L141.92 107.652L141.92 106.652L139.457 108.074L139.457 109.074ZM141.92 107.652C142.387 107.383 142.838 107.024 143.254 106.602L142.948 105.843C142.628 106.167 142.281 106.444 141.92 106.652L141.92 107.652ZM145.243 103.389C145.441 102.812 145.566 102.226 145.601 101.661L144.737 102.087C144.711 102.517 144.616 102.959 144.467 103.394L145.243 103.389ZM145.601 101.661C145.643 100.963 145.676 100.272 145.701 99.5864L144.836 100.043C144.811 100.719 144.778 101.4 144.737 102.087L145.601 101.661ZM145.748 95.5302C145.73 94.1926 145.678 92.8805 145.595 91.5935L144.731 92.1638C144.813 93.4331 144.864 94.727 144.882 96.0456L145.748 95.5302ZM145.251 87.7839C145.105 86.5324 144.929 85.3065 144.724 84.106L143.872 84.7745C144.074 85.96 144.248 87.1702 144.392 88.4053L145.251 87.7839ZM144.024 80.5653C143.762 79.4059 143.474 78.272 143.161 77.1634L142.327 77.9147C142.637 79.0108 142.922 80.1315 143.18 81.2771L144.024 80.5653ZM142.146 73.9003C141.782 72.8332 141.396 71.7915 140.988 70.7751L140.178 71.595C140.581 72.6011 140.964 73.6319 141.323 74.6876L142.146 73.9003ZM139.698 67.7844C139.244 66.8062 138.772 65.8535 138.282 64.9262L137.498 65.8025C137.983 66.7214 138.451 67.6651 138.9 68.6339L139.698 67.7844ZM136.752 62.1987C136.22 61.3064 135.673 60.44 135.113 59.5993L134.356 60.5221C134.912 61.3558 135.454 62.2148 135.981 63.0993L136.752 62.1987ZM133.374 57.1257C132.773 56.3136 132.159 55.5284 131.537 54.7697L130.808 55.731C131.426 56.4839 132.035 57.263 132.632 58.0686L133.374 57.1257ZM129.61 52.535C128.946 51.8021 128.275 51.0977 127.6 50.4212L126.901 51.4151C127.571 52.0866 128.237 52.7859 128.896 53.5133L129.61 52.535ZM125.504 48.4222C124.78 47.7638 124.053 47.1368 123.328 46.5407L122.66 47.5627C123.38 48.1545 124.101 48.777 124.821 49.4306L125.504 48.4222ZM121.08 44.7838C120.293 44.2007 119.513 43.6542 118.743 43.1437L118.109 44.1911C118.873 44.6975 119.648 45.2399 120.428 45.8187L121.08 44.7838ZM116.333 41.6406C115.48 41.1418 114.647 40.6897 113.84 40.2837L113.248 41.3555C114.047 41.7576 114.873 42.2055 115.719 42.7002L116.333 41.6406ZM111.244 39.0943C110.785 38.9056 110.338 38.7342 109.907 38.58L109.362 39.6719C109.787 39.8238 110.227 39.9928 110.68 40.1791L111.244 39.0943ZM109.634 38.626L107.953 39.5966L107.953 40.5966L109.634 39.626L109.634 38.626ZM104.591 41.5378L101.229 43.479L101.229 44.479L104.591 42.5378L104.591 41.5378ZM97.8664 45.4202L94.5042 47.3613L94.5042 48.3613L97.8664 46.4202L97.8664 45.4202ZM91.1419 49.3025L87.7797 51.2437L87.7797 52.2437L91.1419 50.3025L91.1419 49.3025ZM84.4174 53.1849L81.0552 55.1261L81.0552 56.1261L84.4174 54.1849L84.4174 53.1849ZM77.693 57.0673L74.3307 59.0085L74.3307 60.0085L77.693 58.0673L77.693 57.0673ZM70.9685 60.9497L67.6062 62.8909L67.6062 63.8909L70.9685 61.9497L70.9685 60.9497ZM64.244 64.8321L60.8817 66.7733L60.8817 67.7733L64.244 65.8321L64.244 64.8321ZM57.5195 68.7145L55.8384 69.6851L55.8384 70.6851L57.5195 69.7145L57.5195 68.7145ZM55.8384 70.1851L55.8384 69.1851L53.6441 70.4519L55.2469 71.257L55.8384 70.1851ZM109.634 39.126L110.179 38.0341L109.941 37.949L109.634 38.126L109.634 39.126ZM58.2149 71.1528L57.6625 72.2419L57.6625 72.2419L58.2149 71.1528ZM91.3346 132.131L90.4696 132.582L91.3346 132.131ZM94.7421 134.39L94.7421 135.39L94.7421 134.39ZM111.951 124.455L111.951 125.455L112.586 125.088L112.777 124.278L111.951 124.455ZM132.069 112.84L131.243 113.617L131.434 114.206L132.069 113.84L132.069 112.84ZM145.169 101.874L146.033 101.447L145.169 101.874ZM55.2469 71.257C55.426 71.3469 55.6291 71.4388 55.8527 71.5336L56.9876 69.3675C56.7738 69.2768 56.5879 69.1925 56.4298 69.1131L55.2469 71.257ZM57.0602 72.013C57.2521 72.0863 57.4532 72.1626 57.6625 72.2419L58.7673 70.0638C58.5579 69.9844 58.3578 69.9085 58.1671 69.8356L57.0602 72.013ZM57.6625 72.2419C58.0568 72.3914 58.4805 72.552 58.9314 72.7267L60.0421 70.5508C59.5878 70.3748 59.1613 70.2131 58.7673 70.0638L57.6625 72.2419ZM61.4567 73.7561C62.236 74.0926 63.0604 74.4683 63.9188 74.8912L65.096 72.7444C64.2236 72.3148 63.3867 71.9333 62.5964 71.5921L61.4567 73.7561ZM66.3072 76.1506C67.0637 76.5773 67.8369 77.0413 68.6204 77.5471L69.8798 75.447C69.0818 74.9318 68.2946 74.4594 67.5249 74.0252L66.3072 76.1506ZM70.8459 79.0832C71.5546 79.6058 72.2668 80.1647 72.978 80.7629L74.3213 78.7248C73.5958 78.1146 72.8696 77.5447 72.1473 77.0121L70.8459 79.0832ZM75.0127 82.5907C75.6625 83.2139 76.3079 83.873 76.9454 84.5705L78.3705 82.6109C77.7194 81.8986 77.0605 81.2257 76.3973 80.5897L75.0127 82.5907ZM78.7624 86.6947C79.3412 87.4179 79.9102 88.1767 80.4666 88.9731L81.9682 87.1093C81.3994 86.2952 80.8179 85.5197 80.2265 84.7808L78.7624 86.6947ZM82.0511 91.4041C82.5506 92.2265 83.0365 93.0841 83.5063 93.9786L85.0766 92.2281C84.596 91.3131 84.0991 90.436 83.5883 89.595L82.0511 91.4041ZM84.8304 96.6967C85.2444 97.6151 85.642 98.5682 86.0211 99.5574L87.6495 97.9359C87.2617 96.9237 86.8549 95.9485 86.4312 95.0089L84.8304 96.6967ZM87.0751 102.555C87.3993 103.564 87.705 104.607 87.9904 105.685L89.6646 104.205C89.3726 103.103 89.0598 102.036 88.7281 101.004L87.0751 102.555ZM88.7656 108.938C88.9976 110.028 89.2098 111.151 89.4007 112.308L91.1071 110.98C90.9119 109.797 90.6949 108.649 90.4576 107.534L88.7656 108.938ZM89.8965 115.787C90.0369 116.948 90.1568 118.141 90.2549 119.366L91.9802 118.194C91.88 116.942 91.7575 115.723 91.614 114.537L89.8965 115.787ZM90.4784 123.037C90.5301 124.258 90.5611 125.509 90.5704 126.792L92.3024 125.775C92.2929 124.467 92.2612 123.19 92.2085 121.943L90.4784 123.037ZM90.5347 130.623C90.5183 131.269 90.4966 131.922 90.4696 132.582L92.1996 131.68C92.2272 131.007 92.2493 130.341 92.266 129.683L90.5347 130.623ZM90.4696 132.582C90.4406 133.289 90.5332 133.904 90.7259 134.408L92.3548 132.788C92.2383 132.483 92.182 132.11 92.1996 131.68L90.4696 132.582ZM93.0325 135.959C93.5552 135.926 94.1334 135.742 94.7421 135.39L94.7421 133.39C94.3818 133.598 94.0433 133.706 93.7375 133.725L93.0325 135.959ZM94.7421 135.39L96.8932 134.148L96.8932 132.148L94.7421 133.39L94.7421 135.39ZM101.196 131.664L105.498 129.181L105.498 127.181L101.196 129.664L101.196 131.664ZM109.8 126.697L111.951 125.455L111.951 123.455L109.8 124.697L109.8 126.697ZM112.777 124.278C112.945 123.57 113.141 122.865 113.365 122.169L111.79 122.248C111.536 123.036 111.314 123.832 111.125 124.631L112.777 124.278ZM115.093 117.986C115.805 116.592 116.618 115.295 117.503 114.143L116.583 112.98C115.534 114.345 114.585 115.863 113.764 117.47L115.093 117.986ZM120.438 111.092C120.95 110.681 121.475 110.318 122.01 110.009L122.01 108.009C121.362 108.383 120.726 108.823 120.106 109.321L120.438 111.092ZM122.01 110.009C122.545 109.7 123.07 109.457 123.582 109.277L123.914 107.122C123.294 107.34 122.658 107.635 122.01 108.009L122.01 110.009ZM126.517 108.939C127.402 109.069 128.215 109.427 128.927 109.999L130.256 107.948C129.435 107.289 128.486 106.867 127.437 106.713L126.517 108.939ZM130.655 112.187C130.879 112.624 131.076 113.102 131.243 113.617L132.895 112.062C132.706 111.481 132.484 110.942 132.23 110.447L130.655 112.187ZM132.069 113.84L134.532 112.418L134.532 110.418L132.069 111.84L132.069 113.84ZM139.457 109.574L141.92 108.152L141.92 106.152L139.457 107.574L139.457 109.574ZM141.92 108.152C142.44 107.852 142.942 107.452 143.407 106.982L142.795 105.464C142.523 105.739 142.228 105.974 141.92 106.152L141.92 108.152ZM145.631 103.387C145.854 102.738 145.994 102.081 146.033 101.447L144.305 102.301C144.283 102.662 144.204 103.032 144.079 103.396L145.631 103.387ZM146.033 101.447C146.075 100.745 146.109 100.048 146.133 99.3579L144.403 100.272C144.379 100.942 144.346 101.618 144.305 102.301L146.033 101.447ZM146.181 95.2725C146.162 93.9254 146.111 92.6041 146.027 91.3084L144.299 92.4489C144.381 93.7094 144.431 94.9942 144.449 96.3033L146.181 95.2725ZM145.681 87.4732C145.534 86.2135 145.356 84.9798 145.15 83.7717L143.445 85.1088C143.646 86.2868 143.819 87.4891 143.962 88.7159L145.681 87.4732ZM144.446 80.2094C144.183 79.0431 143.893 77.9026 143.578 76.7877L141.91 78.2904C142.218 79.3802 142.501 80.4943 142.758 81.6331L144.446 80.2094ZM142.557 73.5067C142.192 72.4338 141.803 71.3867 141.394 70.3651L139.772 72.0049C140.174 73.0059 140.554 74.0312 140.912 75.0812L142.557 73.5067ZM140.097 67.3597C139.641 66.3768 139.167 65.4196 138.675 64.4881L137.105 66.2406C137.588 67.1553 138.054 68.0945 138.501 69.0586L140.097 67.3597ZM137.137 61.7483C136.603 60.8522 136.054 59.9821 135.492 59.1379L133.978 60.9834C134.531 61.8136 135.071 62.669 135.595 63.5496L137.137 61.7483ZM133.746 56.6543C133.142 55.8389 132.526 55.0506 131.901 54.289L130.444 56.2117C131.06 56.9616 131.666 57.7377 132.26 58.5401L133.746 56.6543ZM129.967 52.0459C129.301 51.3103 128.627 50.6032 127.949 49.9243L126.551 51.9121C127.219 52.5811 127.883 53.2778 128.539 54.0024L129.967 52.0459ZM125.846 47.918C125.119 47.2572 124.39 46.6279 123.662 46.0297L122.326 48.0738C123.043 48.6634 123.762 49.2836 124.479 49.9348L125.846 47.918ZM121.406 44.2663C120.616 43.681 119.833 43.1325 119.06 42.62L117.792 44.7148C118.553 45.2192 119.325 45.7595 120.102 46.3362L121.406 44.2663ZM116.64 41.1109C115.784 40.6099 114.946 40.1558 114.136 39.7478L112.952 41.8914C113.747 42.2915 114.569 42.7374 115.412 43.2299L116.64 41.1109ZM111.525 38.5519C111.063 38.362 110.614 38.1894 110.179 38.0341L109.089 40.2179C109.511 40.3685 109.948 40.5364 110.399 40.7215L111.525 38.5519ZM109.634 38.126L107.953 39.0966L107.953 41.0966L109.634 40.126L109.634 38.126ZM104.591 41.0378L101.229 42.979L101.229 44.979L104.591 43.0378L104.591 41.0378ZM97.8664 44.9202L94.5042 46.8613L94.5042 48.8613L97.8664 46.9202L97.8664 44.9202ZM91.1419 48.8025L87.7797 50.7437L87.7797 52.7437L91.1419 50.8025L91.1419 48.8025ZM84.4174 52.6849L81.0552 54.6261L81.0552 56.6261L84.4174 54.6849L84.4174 52.6849ZM77.693 56.5673L74.3307 58.5085L74.3307 60.5085L77.693 58.5673L77.693 56.5673ZM70.9685 60.4497L67.6062 62.3909L67.6062 64.3909L70.9685 62.4497L70.9685 60.4497ZM64.244 64.3321L60.8817 66.2733L60.8817 68.2733L64.244 66.3321L64.244 64.3321ZM57.5195 68.2145L55.8384 69.1851L55.8384 71.1851L57.5195 70.2145L57.5195 68.2145Z" fill="#A9C6D6" mask="url(#path-4-inside-1_1989_5005)"/>
</svg>
