<svg width="291" height="179" viewBox="0 0 291 179" fill="none" xmlns="http://www.w3.org/2000/svg">
<g clip-path="url(#clip0_1765_4675)">
<path d="M84.2012 146.937C81.6293 145.595 81.5189 143.286 83.9588 141.865L145.214 106.191C147.401 104.917 150.902 104.801 153.326 105.923L211.82 132.986C212.811 133.444 212.919 134.292 212.055 134.829L147.216 175.135C144.955 176.541 141.159 176.637 138.693 175.351L84.2012 146.937Z" fill="black"/>
<path d="M142.833 75.9013L205.171 34.6917C206.154 34.0422 207.131 33.7883 207.939 33.9725L213.018 35.1304C214.458 35.4586 215.316 36.8621 215.316 38.8889L215.316 100.565C215.316 105.492 211.857 111.484 207.589 113.948L151.075 146.577C146.523 149.205 142.833 147.074 142.833 141.818L142.833 75.9013Z" fill="black" stroke="black" stroke-width="1.43459" stroke-linejoin="round"/>
<path d="M143.985 95.7303L143.985 80.9804C143.985 77.9019 150.364 76.3172 154.236 78.4338L209.242 108.504C210.146 108.998 210.154 109.828 209.258 110.328L154.281 141.007C150.425 143.158 143.985 141.581 143.985 138.485L143.985 95.7303Z" fill="#323232" stroke="black" stroke-width="1.18962" stroke-linejoin="bevel"/>
<path fill-rule="evenodd" clip-rule="evenodd" d="M206.677 32.5833L140.648 75.9148L142.524 141.86C142.663 146.773 146.124 148.794 150.448 146.487L213.301 112.958C215.633 111.714 217.571 108.44 217.571 105.745V43.5943C217.571 38.8971 215.928 35.3473 213.016 33.7504L209.968 32.0799C209.093 31.6002 207.897 31.7832 206.677 32.5833ZM151.671 77.9283C150.048 78.9623 148.767 81.2336 148.74 83.1255L147.974 137.099C147.924 140.667 150.394 142.141 153.46 140.371L200.327 113.312C204.335 110.998 207.678 105.53 208.025 100.719L211.912 46.9048C212.187 43.1019 209.683 41.422 206.516 43.2834L200.565 46.7799L151.671 77.9283Z" fill="#627F8E"/>
<path d="M140.648 75.9149L140.353 75.4652C140.197 75.5676 140.105 75.7436 140.111 75.9302L140.648 75.9149ZM206.677 32.5834L206.973 33.0332L206.973 33.0332L206.677 32.5834ZM142.524 141.86L143.061 141.845L142.524 141.86ZM150.448 146.488L150.195 146.013L150.195 146.013L150.448 146.488ZM213.301 112.958L213.554 113.433L213.554 113.433L213.301 112.958ZM213.015 33.7505L213.274 33.2787L213.274 33.2787L213.015 33.7505ZM209.968 32.08L209.71 32.5517L209.968 32.08ZM148.74 83.1257L148.202 83.118L148.202 83.118L148.74 83.1257ZM151.671 77.9285L151.382 77.4747L151.382 77.4747L151.671 77.9285ZM147.974 137.099L147.436 137.091L147.436 137.091L147.974 137.099ZM153.46 140.371L153.729 140.837L153.729 140.837L153.46 140.371ZM200.327 113.312L200.596 113.778L200.596 113.778L200.327 113.312ZM208.025 100.719L207.489 100.681L207.489 100.681L208.025 100.719ZM211.912 46.9049L211.375 46.8661L211.375 46.8661L211.912 46.9049ZM206.515 43.2836L206.788 43.7474L206.788 43.7474L206.515 43.2836ZM200.565 46.78L200.293 46.3162C200.287 46.3195 200.281 46.3229 200.276 46.3263L200.565 46.78ZM140.944 76.3647L206.973 33.0332L206.382 32.1336L140.353 75.4652L140.944 76.3647ZM143.061 141.845L141.186 75.8997L140.111 75.9302L141.986 141.875L143.061 141.845ZM150.195 146.013C148.134 147.112 146.397 147.122 145.188 146.417C143.979 145.711 143.128 144.188 143.061 141.845L141.986 141.875C142.059 144.446 143.008 146.39 144.646 147.346C146.283 148.302 148.438 148.17 150.701 146.962L150.195 146.013ZM213.047 112.484L150.195 146.013L150.701 146.962L213.554 113.433L213.047 112.484ZM217.033 105.745C217.033 106.973 216.588 108.372 215.847 109.622C215.107 110.873 214.104 111.92 213.047 112.484L213.554 113.433C214.829 112.753 215.962 111.541 216.773 110.17C217.586 108.798 218.109 107.212 218.109 105.745H217.033ZM217.033 43.5945V105.745H218.109V43.5945H217.033ZM212.757 34.2222C215.43 35.6877 217.033 39.0022 217.033 43.5945H218.109C218.109 38.7922 216.427 35.0072 213.274 33.2787L212.757 34.2222ZM209.71 32.5517L212.757 34.2222L213.274 33.2787L210.227 31.6083L209.71 32.5517ZM206.973 33.0332C208.111 32.2861 209.084 32.2085 209.71 32.5517L210.227 31.6083C209.103 30.9921 207.682 31.2806 206.382 32.1336L206.973 33.0332ZM149.278 83.1333C149.29 82.2975 149.582 81.3444 150.075 80.4696C150.568 79.5952 151.238 78.8418 151.96 78.3822L151.382 77.4747C150.48 78.0491 149.698 78.9484 149.138 79.9411C148.579 80.9334 148.217 82.0619 148.202 83.118L149.278 83.1333ZM148.512 137.107L149.278 83.1333L148.202 83.118L147.436 137.091L148.512 137.107ZM153.191 139.905C151.757 140.733 150.592 140.733 149.824 140.275C149.054 139.816 148.489 138.78 148.512 137.107L147.436 137.091C147.41 138.987 148.054 140.472 149.273 141.199C150.494 141.927 152.097 141.779 153.729 140.837L153.191 139.905ZM200.058 112.846L153.191 139.905L153.729 140.837L200.596 113.778L200.058 112.846ZM207.489 100.681C207.322 102.984 206.434 105.472 205.09 107.672C203.745 109.872 201.967 111.745 200.058 112.846L200.596 113.778C202.696 112.566 204.593 110.547 206.008 108.233C207.423 105.917 208.381 103.266 208.562 100.758L207.489 100.681ZM211.375 46.8661L207.489 100.681L208.562 100.758L212.449 46.9436L211.375 46.8661ZM206.788 43.7474C208.269 42.877 209.451 42.9112 210.205 43.4168C210.97 43.93 211.505 45.0684 211.375 46.8661L212.449 46.9436C212.593 44.9386 212.015 43.3355 210.804 42.5234C209.583 41.7037 207.93 41.8287 206.243 42.8198L206.788 43.7474ZM200.838 47.2439L206.788 43.7474L206.243 42.8198L200.293 46.3162L200.838 47.2439ZM151.96 78.3822L200.854 47.2338L200.276 46.3263L151.382 77.4747L151.96 78.3822Z" fill="black"/>
<path d="M169.666 86.6721L169.666 136.537C169.666 138.053 170.266 139.148 171.298 139.513L176.283 141.277C177.412 141.677 178.968 140.966 180.244 139.469L206.581 108.57C208.479 106.343 209.758 103.465 209.997 100.878L214.995 46.9998C215.121 45.6338 214.712 44.5765 213.888 44.1434L210.207 42.2071C209.596 41.886 208.698 42.2106 207.926 43.0314L172.012 81.2389C170.587 82.7547 169.666 84.8879 169.666 86.6721Z" fill="#627F8E" stroke="black" stroke-width="1.58366" stroke-linejoin="round"/>
<path d="M214.82 101.988L214.82 45.424C214.82 44.2602 213.763 44.0892 212.847 45.1049L178.242 83.4879C176.88 84.9986 176.013 87.0637 176.013 88.7947L176.013 138.896C176.013 142.397 179.075 143.083 181.921 140.219L210.651 111.311C213.163 108.784 214.82 105.079 214.82 101.988Z" fill="#BDBDBE" stroke="black" stroke-width="1.58366" stroke-linejoin="round"/>
<path d="M208.732 89.4376C208.732 94.3477 207.403 99.5831 205.246 104.066C203.082 108.562 200.13 112.21 196.957 114.042C195.38 114.953 193.931 115.31 192.661 115.237C191.398 115.165 190.258 114.665 189.283 113.765C187.309 111.943 185.972 108.423 185.972 103.49C185.972 98.5798 187.301 93.3443 189.459 88.8613C191.622 84.3651 194.574 80.7176 197.747 78.8857C199.325 77.9748 200.774 77.6176 202.044 77.6904C203.306 77.7628 204.447 78.2623 205.422 79.1626C207.396 80.9848 208.732 84.504 208.732 89.4376Z" fill="#627F8E" stroke="black" stroke-width="1.57922"/>
<path d="M209.091 91.488C209.091 95.549 208.041 99.8507 206.339 103.51C204.628 107.185 202.306 110.115 199.837 111.54C198.613 112.247 197.504 112.498 196.544 112.414C195.592 112.331 194.721 111.912 193.965 111.162C192.43 109.635 191.372 106.715 191.372 102.63C191.372 98.5687 192.422 94.2671 194.125 90.6078C195.835 86.9325 198.157 84.0032 200.626 82.5775C201.851 81.8707 202.959 81.6197 203.919 81.7036C204.871 81.7869 205.743 82.2053 206.498 82.9562C208.033 84.4825 209.091 87.4028 209.091 91.488Z" fill="white" stroke="black" stroke-width="1.57922"/>
<path d="M200.863 101.558L197.572 108.124" stroke="black" stroke-width="1.82217" stroke-linecap="round"/>
<path d="M81.5681 45.3792L80.4779 102.166C80.3889 106.801 83.666 112.541 87.7256 114.86L143.323 146.623L143.323 77.3454C143.323 76.9397 143.058 76.4464 142.708 76.2027L91.0678 40.2013C89.736 39.2728 88.4159 39.0774 87.4978 39.6728L82.7357 42.7613C82.0074 43.2337 81.5914 44.1664 81.5681 45.3792Z" fill="#627F8E" stroke="black" stroke-width="1.58366"/>
<path d="M84.2012 46.6905C81.6293 45.3493 81.5189 43.0396 83.9588 41.6187L145.214 5.94474C147.401 4.67072 150.902 4.55524 153.326 5.67708L211.82 32.7399C212.811 33.1984 212.919 34.0461 212.055 34.5832L147.216 74.8893C144.955 76.2945 141.159 76.3908 138.693 75.1053L84.2012 46.6905Z" fill="#BDBDBE" stroke="black" stroke-width="1.58366" stroke-linejoin="bevel"/>
<path opacity="0.2" fill-rule="evenodd" clip-rule="evenodd" d="M240.046 90.1079C240.046 88.3559 244.383 86.9356 249.734 86.9356H253.529C258.88 86.9356 263.217 88.3559 263.217 90.1079C263.217 91.86 258.88 93.2803 253.529 93.2803H249.734C244.383 93.2803 240.046 91.86 240.046 90.1079Z" fill="black"/>
<path fill-rule="evenodd" clip-rule="evenodd" d="M250.367 90.1078L251.873 83.7831L249.966 80.4701L247.958 78.6631H249.966L250.367 79.8678H251.873L252.877 78.6631H255.287L252.375 80.4701L253.982 83.0803H255.287L256.893 78.6631H259.102L257.997 79.8678L260.407 78.6631H263.218L257.997 81.3737V83.7831L259.102 90.1078H250.367ZM256.591 87.2959C257.035 87.2959 257.395 86.6217 257.395 85.7901C257.395 84.9584 257.035 84.2842 256.591 84.2842C256.148 84.2842 255.788 84.9584 255.788 85.7901C255.788 86.6217 256.148 87.2959 256.591 87.2959Z" fill="#323232"/>
<path d="M269.774 80.5395H241.162C239.636 74.8715 245.613 73.9996 248.792 74.2721C249.228 71.8741 251.88 69.8214 253.152 69.0948C259.909 66.9148 263.779 71.638 264.869 74.2721C269.883 73.1822 270.228 77.9962 269.774 80.5395Z" fill="#627F8E"/>
<path opacity="0.2" fill-rule="evenodd" clip-rule="evenodd" d="M22 150.751C22 148.998 26.3375 147.578 31.6882 147.578H35.4833C40.8339 147.578 45.1715 148.998 45.1715 150.751C45.1715 152.503 40.8339 153.923 35.4833 153.923H31.6882C26.3375 153.923 22 152.503 22 150.751Z" fill="black"/>
<path fill-rule="evenodd" clip-rule="evenodd" d="M32.3215 150.75L33.8274 144.426L31.9199 141.113L29.9121 139.306H31.9199L32.3215 140.51H33.8274L34.8313 139.306H37.2407L34.3294 141.113L35.9356 143.723H37.2407L38.847 139.306H41.0556L39.9513 140.51L42.3607 139.306H45.1717L39.9513 142.016V144.426L41.0556 150.75H32.3215ZM38.5456 147.939C38.9891 147.939 39.3487 147.264 39.3487 146.433C39.3487 145.601 38.9891 144.927 38.5456 144.927C38.102 144.927 37.7424 145.601 37.7424 146.433C37.7424 147.264 38.102 147.939 38.5456 147.939Z" fill="#323232"/>
<path d="M51.7277 141.182H23.116C21.5901 135.514 27.5667 134.642 30.7458 134.915C31.1818 132.517 33.8341 130.464 35.1057 129.737C41.8635 127.557 45.7329 132.281 46.8229 134.915C51.8367 133.825 52.1819 138.639 51.7277 141.182Z" fill="#627F8E"/>
</g>
<defs>
<clipPath id="clip0_1765_4675">
<rect width="291" height="179" fill="white"/>
</clipPath>
</defs>
</svg>
