<svg width="147" height="150" viewBox="0 0 147 150" fill="none" xmlns="http://www.w3.org/2000/svg">
<path d="M33.1992 40.4961C33.1992 18.6809 50.884 0.996094 72.6992 0.996094H98.7971C120.612 0.996094 138.297 18.6808 138.297 40.4961V86.963H33.1992V40.4961Z" fill="#323232" stroke="black"/>
<path d="M17.4374 53.6771H35.3249V58.0808C31.9973 58.2264 23.7611 58.4303 17.4374 58.0808C11.1137 57.7313 9.22414 52.6931 9.06982 50.2177V35.584H12.6717C12.7081 38.0597 12.7591 44.9136 12.6717 49.5441C12.5844 54.1746 15.2487 53.6771 17.4374 53.6771Z" fill="#627F8E" stroke="black"/>
<path d="M32.8799 46.0703C32.8799 24.2551 50.5646 6.57031 72.3799 6.57031H98.4778C120.293 6.57031 137.978 24.2551 137.978 46.0703V91.5184H32.8799V46.0703Z" fill="#BDBDBE" stroke="black"/>
<path d="M23.3608 105.155L33.4041 91.4141H138.216L145.272 105.155H23.3608Z" fill="#627F8E" stroke="black"/>
<path d="M31.1724 134.641C31.9093 133.501 33.1742 132.812 34.5317 132.812H135.149C136.718 132.812 138.142 133.73 138.791 135.159L142.728 143.827C143.93 146.475 141.994 149.481 139.086 149.481H28.9285C25.7593 149.481 23.8488 145.971 25.5692 143.31L31.1724 134.641Z" fill="#232326"/>
<path d="M22.9971 105.27H145.662V121.771C145.662 123.704 144.095 125.271 142.162 125.271H26.4971C24.5641 125.271 22.9971 123.704 22.9971 121.771V105.27Z" fill="#BDBDBE" stroke="black" stroke-linejoin="bevel"/>
<path d="M74.5488 98.3108V92.8516H98.5358V97.8071C97.5055 99.0668 94.2601 102.436 86.9344 102.436C80.0775 102.436 75.8255 100.074 74.5488 98.3108Z" fill="#627F8E" stroke="black" stroke-linecap="round"/>
<path d="M98.4849 92.774C98.4849 94.3405 97.2922 95.8736 95.1076 97.0445C92.9439 98.2041 89.9205 98.9366 86.5535 98.9366C83.1865 98.9366 80.163 98.2041 77.9993 97.0445C75.8148 95.8736 74.6221 94.3405 74.6221 92.774C74.6221 91.2074 75.8148 89.6743 77.9993 88.5035C80.163 87.3438 83.1865 86.6113 86.5535 86.6113C89.9205 86.6113 92.9439 87.3438 95.1076 88.5035C97.2922 89.6743 98.4849 91.2074 98.4849 92.774Z" fill="#A9C6D6" stroke="black"/>
<rect x="45.0308" y="50.4277" width="23.5049" height="26.7755" rx="3.5" fill="#232326" stroke="black"/>
<rect x="73.6812" y="50.4277" width="23.5049" height="26.7755" rx="3.5" fill="#232326" stroke="black"/>
<rect x="102.332" y="50.4277" width="23.5049" height="26.7755" rx="3.5" fill="#232326" stroke="black"/>
<path d="M54.7632 69.8154H53.2232C52.9032 69.8154 52.7965 69.6754 52.9032 69.3954C53.3299 68.3021 54.0899 66.3021 55.1832 63.3954C56.2765 60.4888 57.0365 58.4821 57.4632 57.3754C57.5832 57.0954 57.7632 56.9554 58.0032 56.9554H59.5432C59.8632 56.9554 59.9699 57.0954 59.8632 57.3754L55.3032 69.3954C55.1965 69.6754 55.0165 69.8154 54.7632 69.8154Z" fill="white"/>
<path d="M83.4136 69.8154H81.8736C81.5536 69.8154 81.4469 69.6754 81.5536 69.3954C81.9803 68.3021 82.7403 66.3021 83.8336 63.3954C84.9269 60.4888 85.6869 58.4821 86.1136 57.3754C86.2336 57.0954 86.4136 56.9554 86.6536 56.9554H88.1936C88.5136 56.9554 88.6203 57.0954 88.5136 57.3754L83.9536 69.3954C83.8469 69.6754 83.6669 69.8154 83.4136 69.8154Z" fill="white"/>
<path d="M112.064 69.8154H110.524C110.204 69.8154 110.098 69.6754 110.204 69.3954C110.631 68.3021 111.391 66.3021 112.484 63.3954C113.578 60.4888 114.338 58.4821 114.764 57.3754C114.884 57.0954 115.064 56.9554 115.304 56.9554H116.844C117.164 56.9554 117.271 57.0954 117.164 57.3754L112.604 69.3954C112.498 69.6754 112.318 69.8154 112.064 69.8154Z" fill="white"/>
<line x1="33.4199" y1="41.2266" x2="137.84" y2="41.2266" stroke="black"/>
<circle cx="11.2146" cy="30.1722" r="10.4827" fill="#C9E4F0" stroke="black"/>
<ellipse cx="11.4229" cy="25.3105" rx="5" ry="3.5" fill="white"/>
</svg>
