<svg width="229" height="12" viewBox="0 0 229 12" fill="none" xmlns="http://www.w3.org/2000/svg">
<path fill-rule="evenodd" clip-rule="evenodd" d="M98.5661 3.02556C97.1052 3.23912 95.9387 4.22422 95.5723 5.55403C95.4262 6.08391 95.4238 6.69935 95.5654 7.23074C95.9283 8.59213 97.1176 9.59357 98.6072 9.79221C98.8209 9.82067 99.3275 9.8248 99.5437 9.79978C100.169 9.72742 100.778 9.49719 101.292 9.13846C101.493 8.99865 101.861 8.65359 102.009 8.46648C102.987 7.23253 102.989 5.57653 102.012 4.35008C101.886 4.19207 101.581 3.89394 101.409 3.76204C101.007 3.45274 100.523 3.2226 100.014 3.0991C99.8044 3.04824 99.4891 3 99.3661 3H99.291L99.3031 3.07898C99.3351 3.2881 99.4248 3.50104 99.5139 3.57956C99.5382 3.60092 99.6166 3.62638 99.7278 3.64899C100.129 3.73048 100.569 3.9183 100.892 4.14593C101.113 4.30148 101.407 4.58362 101.559 4.78479C101.797 5.10129 101.989 5.53603 102.063 5.92504C102.106 6.1532 102.114 6.59055 102.08 6.79931C101.924 7.73783 101.325 8.5135 100.438 8.92628C100.177 9.04799 99.9598 9.11955 99.7031 9.16861C99.3568 9.23482 98.8879 9.23826 98.5399 9.17718C98.1567 9.1099 97.6862 8.922 97.3629 8.70705C97.1475 8.5638 96.8032 8.24099 96.6494 8.03803C96.5045 7.84679 96.3191 7.50382 96.2464 7.29254C95.8554 6.1548 96.2553 4.91547 97.2477 4.18961C97.6028 3.92994 98.0424 3.73402 98.4466 3.65527C98.5528 3.63461 98.6091 3.61418 98.6448 3.5834C98.7411 3.50053 98.8696 3.19816 98.8696 3.0547C98.8696 3.00118 98.868 3.00003 98.7943 3.00161C98.7529 3.00249 98.6502 3.01327 98.5661 3.02556ZM98.6386 3.98047C98.3825 4.0253 98.1832 4.08802 97.9523 4.19644C97.674 4.32712 97.4627 4.46948 97.2478 4.67106C96.5193 5.35441 96.279 6.33309 96.6191 7.23162C96.7527 7.58456 96.944 7.86355 97.2466 8.14671C97.5595 8.43953 97.8883 8.6349 98.2705 8.755C98.4442 8.80959 98.7441 8.86939 98.844 8.86939C98.9024 8.86939 98.9052 8.86685 98.8944 8.82367C98.8669 8.71389 98.8155 8.59925 98.7561 8.5153C98.694 8.42764 98.6881 8.424 98.5637 8.39575C98.1842 8.30965 97.8479 8.12975 97.5557 7.85665C97.2488 7.56976 97.0565 7.23446 96.9618 6.82086C96.9173 6.62669 96.9169 6.20338 96.961 6.00952C97.127 5.2803 97.6412 4.72588 98.3773 4.48233C98.6209 4.40174 98.8087 4.37344 99.1 4.37344C99.2725 4.37344 99.4083 4.38293 99.5126 4.40231C100.389 4.56498 101.047 5.17261 101.238 5.99559C101.253 6.06269 101.27 6.21487 101.275 6.33375C101.298 6.90185 101.092 7.42067 100.68 7.82698C100.385 8.11779 100.026 8.30665 99.5626 8.41502C99.4684 8.43704 99.3491 8.62233 99.3047 8.81535C99.2925 8.86835 99.2935 8.86939 99.3551 8.86939C99.3896 8.86939 99.4968 8.85504 99.5933 8.8375C100.126 8.74066 100.602 8.49408 100.997 8.1106C101.756 7.37489 101.947 6.3043 101.486 5.36975C101.397 5.18955 101.187 4.89804 101.032 4.74143C100.638 4.34218 100.122 4.07656 99.5558 3.98085C99.3009 3.9378 98.8833 3.93764 98.6386 3.98047Z" fill="white"/>
<path fill-rule="evenodd" clip-rule="evenodd" d="M68.859 3.29708C68.7854 3.46051 68.6985 3.65046 68.666 3.71926C68.6335 3.78806 68.4074 4.29466 68.1636 4.84505C67.9198 5.39543 67.6522 5.98647 67.5691 6.15847C67.4859 6.33047 67.2746 6.78078 67.0996 7.15917C66.9245 7.53756 66.6054 8.22486 66.3906 8.68656C66.1758 9.14819 66 9.56337 66 9.60909C66 9.66706 66.1001 9.69221 66.3307 9.69221H66.6614L66.794 9.30131C66.9145 8.94643 67.0718 8.53802 67.4597 7.5734C67.5341 7.38846 67.6136 7.21959 67.6363 7.19814C67.659 7.17668 68.1779 7.1506 68.7891 7.1401C69.6289 7.12571 69.9268 7.14097 70.0078 7.20264C70.1113 7.28151 70.5624 8.32249 70.8832 9.22312L71.0392 9.66093L71.5534 9.6792C72.0794 9.6979 72.131 9.67244 72.0032 9.45679C71.9205 9.31713 71.6675 8.77018 71.6675 8.7309C71.6675 8.71445 71.5049 8.34 71.3062 7.89882C71.1074 7.45757 70.8056 6.75889 70.6353 6.3461C70.4652 5.93331 70.2858 5.51114 70.2368 5.40794C70.1877 5.30475 69.9789 4.81221 69.7729 4.31342C69.2722 3.10163 69.2199 3 69.0978 3C69.036 3 68.938 3.1219 68.859 3.29708ZM82.9358 3.03684C81.2892 3.3191 80.1997 4.19059 79.829 5.52152C79.6846 6.04014 79.6882 7.04759 79.8361 7.5365C80.174 8.65291 81.0417 9.42865 82.2733 9.71541C83.078 9.90273 84.5465 9.82255 85.6695 9.52984L86.0362 9.43428V8.20291V6.97154L85.6195 6.9529L85.2028 6.93433V7.99288C85.2028 8.86725 85.185 9.06526 85.1006 9.13093C84.9897 9.2173 83.9512 9.43922 83.6498 9.44097C83.5473 9.44153 83.2349 9.39775 82.9553 9.34359C81.8236 9.12424 81.0758 8.35695 80.8267 7.15917C80.7097 6.59678 80.7118 6.27461 80.8363 5.66425C81.1055 4.34482 81.9929 3.535 83.2562 3.45594C84.2104 3.39628 84.9203 3.6145 85.4672 4.13561C85.642 4.30217 85.8115 4.43839 85.8439 4.4382C85.8764 4.43801 85.9499 4.25294 86.0074 4.02691L86.1119 3.616L85.8059 3.47052C85.1797 3.17287 84.6716 3.05798 83.8693 3.03252C83.4475 3.01914 83.0275 3.02108 82.9358 3.03684ZM87.9074 3.07299C87.8754 3.16437 87.6461 4.69607 87.5017 5.78321C87.3453 6.95991 87.2046 7.8394 86.9463 9.2544C86.9118 9.44359 86.8972 9.61947 86.9139 9.6453C86.9306 9.67113 87.1075 9.69221 87.307 9.69221C87.6382 9.69221 87.67 9.67995 87.6719 9.55148C87.682 8.8523 88.1099 5.00722 88.1697 5.07771C88.186 5.09697 88.5951 5.81723 89.1389 6.78391C89.7219 7.82039 90.4035 9.11411 90.4035 9.18428C90.4035 9.31995 90.6316 9.69221 90.7147 9.69221C90.7622 9.69221 90.8213 9.61478 90.846 9.52021C90.9295 9.20079 92.2832 6.59071 92.6415 6.05827C92.7308 5.92556 92.8039 5.80372 92.8039 5.78758C92.8039 5.77145 92.9076 5.59664 93.0345 5.39912C93.1802 5.17234 93.2773 5.07327 93.2983 5.13019C93.3487 5.26678 93.5873 7.49603 93.723 9.09803L93.7707 9.66093L94.198 9.67982C94.4531 9.69108 94.6432 9.6715 94.6698 9.63129C94.6942 9.5942 94.6905 9.41683 94.6616 9.23714C94.6326 9.05744 94.5761 8.61488 94.5359 8.25369C94.4957 7.8925 94.4215 7.24517 94.3711 6.81518C94.3207 6.38519 94.233 5.62528 94.1763 5.1265C93.919 2.86328 93.9333 2.93596 93.771 3.06229C93.7228 3.09988 93.4818 3.50229 93.2356 3.95655C92.9893 4.41081 92.7051 4.92323 92.6041 5.09522C92.503 5.26722 92.2793 5.66125 92.1069 5.97084C91.3688 7.29658 90.8992 8.06368 90.8369 8.04536C90.7502 8.01978 90.6422 7.82814 89.4571 5.59557C88.0858 3.01226 88.1021 3.04134 88.0146 3.01401C87.9717 3.00056 87.9235 3.02714 87.9074 3.07299ZM103.585 3.04691C103.562 3.0835 103.464 7.43168 103.443 9.31694L103.439 9.66093H103.772H104.106L104.08 7.23735C104.062 5.6159 104.076 4.81378 104.121 4.81378C104.159 4.81378 104.301 4.93336 104.438 5.07959C104.686 5.34552 104.795 5.45629 106.181 6.85046C106.898 7.57184 108.171 8.92873 108.693 9.52672C109.153 10.0543 109.14 10.1212 109.14 7.26281C109.14 5.85782 109.159 4.36615 109.183 3.94798L109.227 3.18763H108.885H108.544L108.586 5.5643C108.614 7.1618 108.605 7.94097 108.56 7.94097C108.522 7.94097 108.33 7.77748 108.132 7.57765C107.935 7.37776 107.413 6.85014 106.973 6.40508C106.533 5.96008 106.113 5.53635 106.039 5.46354C105.818 5.24351 105.058 4.43826 104.57 3.90689C103.744 3.00619 103.656 2.9297 103.585 3.04691ZM73.1796 3.17525L72.7914 3.19414L72.8166 5.64573C72.8397 7.8798 72.8531 8.12229 72.9683 8.37878C73.2601 9.02855 73.5934 9.35453 74.2679 9.65005C74.5285 9.76426 74.6948 9.78177 75.5347 9.78352C76.7426 9.78615 77.0952 9.67907 77.6736 9.13381C78.3295 8.51575 78.4297 7.99013 78.4947 4.82622L78.5286 3.18131L78.1853 3.20008L77.8419 3.2189L77.859 5.03268C77.8838 7.66728 77.7745 8.32468 77.2262 8.83898C76.8354 9.20555 76.5727 9.2858 75.7681 9.28436C74.9438 9.28286 74.6748 9.19529 74.3001 8.80645C73.7449 8.23024 73.6972 7.94572 73.7188 5.33683C73.7328 3.65653 73.7186 3.19695 73.6522 3.17906C73.6058 3.16655 73.3931 3.16487 73.1796 3.17525ZM110.166 3.2189C110.134 3.30159 110.171 3.58297 110.223 3.66228C110.25 3.70318 110.481 3.70706 110.885 3.67335C111.227 3.64483 111.672 3.62944 111.873 3.63914L112.24 3.65671L112.228 6.67708L112.216 9.69752L112.685 9.6792L113.154 9.66093L113.164 6.65882L113.174 3.65671L113.707 3.65834C114 3.65928 114.45 3.67129 114.707 3.68498L115.174 3.71V3.43462V3.1593L112.682 3.1578C111.079 3.15686 110.181 3.17869 110.166 3.2189ZM69.0264 4.79839C69.0956 4.96163 69.1921 5.17966 69.2407 5.28285C69.3469 5.50801 69.8006 6.62742 69.8006 6.6642C69.8006 6.67846 69.3655 6.69009 68.8337 6.69009C68.302 6.69009 67.8669 6.67446 67.8669 6.65532C67.8669 6.63618 67.9972 6.33366 68.1564 5.98297C68.3155 5.63229 68.529 5.15545 68.6306 4.92323C68.7323 4.691 68.8345 4.50118 68.858 4.50131C68.8813 4.50143 68.9571 4.63509 69.0264 4.79839Z" fill="white"/>
<path d="M156.231 3.65421C155.945 2.90888 155.17 2.37383 154.262 2.37383H154.242C153.65 2.37383 153.117 2.60047 152.737 2.96262C152.357 2.60047 151.824 2.37383 151.233 2.37383H151.215C150.695 2.37383 150.218 2.54907 149.853 2.83645V2.69159C149.84 2.54439 149.71 2.42991 149.547 2.42991H148.15C147.979 2.42991 147.841 2.55607 147.841 2.71262V9.66121C147.841 9.81776 147.979 9.94392 148.15 9.94392H149.547C149.703 9.94392 149.833 9.83645 149.851 9.70093V4.71262C149.851 4.69393 149.851 4.67991 149.853 4.66355C149.876 4.44159 150.055 4.25701 150.335 4.23598H150.593C150.71 4.24533 150.809 4.28271 150.886 4.34112C151.008 4.42991 151.075 4.56542 151.075 4.71495L151.08 9.67757C151.08 9.83411 151.217 9.96262 151.388 9.96262H152.786C152.951 9.96262 153.084 9.84346 153.092 9.69392V4.71028C153.092 4.54673 153.173 4.3972 153.319 4.31075C153.39 4.26869 153.477 4.24065 153.576 4.23131H153.834C154.137 4.25467 154.318 4.46495 154.318 4.71028L154.323 9.66822C154.323 9.82477 154.461 9.95093 154.632 9.95093H156.029C156.193 9.95093 156.328 9.83411 156.338 9.68692V4.25C156.33 3.94393 156.287 3.8014 156.231 3.65421ZM146.775 2.4486H145.977V1.26168C145.977 1.25935 145.977 1.25935 145.977 1.25701C145.977 1.11682 145.852 1 145.694 1C145.676 1 145.658 1.00234 145.64 1.00467C144.756 1.22664 144.931 2.35047 143.315 2.44626H143.159C143.136 2.44626 143.113 2.4486 143.09 2.45327H143.088H143.09C142.955 2.48364 142.851 2.59579 142.851 2.73131V4.01168C142.851 4.16822 142.988 4.29439 143.159 4.29439H144.001L143.998 9.71963C143.998 9.87383 144.136 10 144.304 10H145.686C145.855 10 145.992 9.87383 145.992 9.71963V4.29439H146.775C146.943 4.29439 147.084 4.16589 147.084 4.01168V2.73131C147.084 2.57477 146.946 2.4486 146.775 2.4486Z" fill="white"/>
<path d="M141.752 2.4496H140.354C140.186 2.4496 140.046 2.57577 140.046 2.73231V5.37951C140.043 5.54306 139.898 5.6739 139.719 5.6739H139.135C138.954 5.6739 138.806 5.54072 138.806 5.37483L138.801 2.73231C138.801 2.57577 138.663 2.4496 138.493 2.4496H137.095C136.924 2.4496 136.787 2.57577 136.787 2.73231V5.63184C136.787 6.73231 137.643 7.51969 138.847 7.51969C138.847 7.51969 139.75 7.51969 139.778 7.52437C139.941 7.54072 140.066 7.66689 140.066 7.8211C140.066 7.97297 139.944 8.09913 139.78 8.11782C139.773 8.11782 139.765 8.12016 139.757 8.1225L137.715 8.12951C137.544 8.12951 137.406 8.25568 137.406 8.41222V9.69025C137.406 9.8468 137.544 9.97297 137.715 9.97297H139.997C141.201 9.97297 142.058 9.18792 142.058 8.08745V2.73231C142.06 2.57577 141.922 2.4496 141.752 2.4496ZM133.805 2.45661H131.867C131.697 2.45661 131.556 2.57577 131.556 2.72063V3.21829C131.556 3.22063 131.556 3.2253 131.556 3.22764C131.556 3.23231 131.556 3.23465 131.556 3.23932V3.92156C131.556 4.07577 131.704 4.20427 131.885 4.20427H133.732C133.877 4.2253 133.992 4.32343 134.009 4.4753V4.64119C133.994 4.78605 133.879 4.89119 133.739 4.90287H132.826C131.61 4.90287 130.745 5.64353 130.745 6.68091V8.16923C130.745 9.20194 131.49 9.93558 132.696 9.93558H135.228C135.682 9.93558 136.052 9.62016 136.052 9.23231V4.37717C136.052 3.1996 135.389 2.45661 133.805 2.45661ZM134.027 7.79773V7.99867C134.027 8.01502 134.025 8.03138 134.022 8.0454C134.02 8.05941 134.015 8.07343 134.009 8.08745C133.966 8.1996 133.844 8.28138 133.698 8.28138H133.117C132.936 8.28138 132.788 8.15521 132.788 7.99867V7.75801C132.788 7.75568 132.788 7.751 132.788 7.74867V7.10614V6.90521V6.90287C132.788 6.74867 132.936 6.6225 133.117 6.6225H133.698C133.879 6.6225 134.027 6.74867 134.027 6.90521V7.79773ZM128.356 2.44727H125.303C125.135 2.44727 125 2.57343 125 2.7253V3.97998C125 3.98231 125 3.98465 125 3.98698C125 3.99399 125 3.99867 125 4.00334V9.67857C125 9.83278 125.125 9.95895 125.283 9.96128H126.706C126.877 9.96128 127.015 9.83511 127.015 9.67857L127.02 7.73465H128.356C129.473 7.73465 130.253 7.02437 130.253 5.99399V4.19026C130.253 3.16222 129.473 2.44727 128.356 2.44727ZM128.234 4.79306V5.58278C128.234 5.74867 128.088 5.88418 127.907 5.88418H127.022V4.30241H127.907C128.088 4.30241 128.234 4.43558 128.234 4.60147V4.79306Z" fill="white"/>
<mask id="mask0_2107_5014" style="mask-type:alpha" maskUnits="userSpaceOnUse" x="0" y="0" width="56" height="12">
<path d="M56 0H0V12H56V0Z" fill="white"/>
</mask>
<g mask="url(#mask0_2107_5014)">
<path fill-rule="evenodd" clip-rule="evenodd" d="M9.77849 0.302734C10.2924 0.520916 10.8063 0.7391 11.3202 0.957283C11.9177 1.20946 12.5156 1.46046 13.114 1.71029C13.8373 2.01464 14.5614 2.31919 15.2862 2.62392C15.3578 2.64793 15.4205 2.69143 15.4665 2.74904C15.5126 2.80665 15.54 2.87588 15.5454 2.94818C15.5548 3.02657 15.5366 3.10572 15.4936 3.1731C15.4507 3.24048 15.3854 3.29225 15.3081 3.32019C14.7585 3.56019 14.2052 3.79283 13.6522 4.02792C12.7632 4.40646 11.8739 4.78473 10.9845 5.16273C10.6176 5.31873 10.2499 5.47201 9.88471 5.63155C9.82595 5.65836 9.76167 5.67228 9.69656 5.67228C9.63145 5.67228 9.56716 5.65836 9.50841 5.63155C8.67703 5.28228 7.84582 4.93255 7.01481 4.58237C6.05018 4.17619 5.08537 3.77028 4.12037 3.36464C4.04011 3.3401 3.97017 3.29169 3.92076 3.22649C3.87135 3.16128 3.84505 3.08269 3.84572 3.00219C3.84554 2.92561 3.87012 2.85084 3.91612 2.7881C3.96211 2.72538 4.02726 2.67775 4.10267 2.65173C4.97821 2.28265 5.85376 1.91165 6.72931 1.53873C7.39625 1.25455 8.06119 0.966008 8.72784 0.680734C8.97594 0.574644 9.22633 0.473737 9.47415 0.3671C9.51212 0.350736 9.5598 0.345281 9.58407 0.303554L9.77849 0.302734ZM4.7165 3.00492C5.5339 3.3491 6.3316 3.68673 7.12959 4.02138C7.92757 4.35601 8.72841 4.68764 9.52182 5.03046C9.57893 5.05872 9.64242 5.07317 9.70673 5.07255C9.77103 5.07193 9.83421 5.05626 9.8907 5.02692C10.7695 4.6451 11.6531 4.27173 12.5356 3.89673C13.0432 3.68101 13.5523 3.46718 14.0596 3.25092C14.2595 3.16583 14.4565 3.07555 14.6709 2.98038C14.6332 2.9621 14.6158 2.9531 14.5978 2.94519C14.0864 2.72864 13.5749 2.51219 13.0632 2.29583C12.3321 1.988 11.6008 1.68083 10.8691 1.37428C10.5091 1.22292 10.1508 1.06828 9.79049 0.918007C9.76452 0.903356 9.73532 0.894717 9.70523 0.892776C9.67513 0.890834 9.64498 0.895642 9.61718 0.906824C8.75592 1.27828 7.89341 1.64701 7.02966 2.01301C6.52946 2.22601 6.02811 2.43573 5.52819 2.64929C5.26182 2.76329 4.99801 2.8811 4.7165 3.00492Z" fill="white"/>
<path fill-rule="evenodd" clip-rule="evenodd" d="M9.45862 9.22257C9.45862 10.1135 9.45862 11.0039 9.45862 11.8939C9.46604 11.9783 9.44342 12.0625 9.39446 12.1331C9.34549 12.2036 9.27304 12.2563 9.18883 12.2826C9.10757 12.3115 9.01779 12.3093 8.93815 12.2766L6.66582 11.3515C5.88734 11.0335 5.10792 10.7159 4.32754 10.3988C4.12597 10.317 3.92612 10.2306 3.72484 10.1479C3.65102 10.1187 3.58814 10.0689 3.54443 10.005C3.50073 9.94116 3.47823 9.86614 3.47988 9.78984C3.47559 9.72357 3.47474 9.6573 3.47474 9.59074C3.47341 8.05984 3.47217 6.52893 3.47103 4.99802C3.47103 4.79102 3.46532 4.58403 3.46903 4.37703C3.46467 4.31141 3.47858 4.24588 3.50936 4.18708C3.54014 4.12828 3.58668 4.07833 3.64424 4.04229C3.7018 4.00627 3.76833 3.98545 3.83706 3.98197C3.90578 3.97849 3.97424 3.99247 4.03547 4.02248C5.02084 4.42248 6.00564 4.82429 6.98986 5.22794C7.71657 5.52466 8.44327 5.82121 9.16998 6.11757C9.25824 6.14959 9.33325 6.20811 9.3837 6.28435C9.43417 6.36057 9.45734 6.45039 9.44978 6.5403C9.44978 7.43448 9.44978 8.32875 9.44978 9.22311L9.45862 9.22257Z" fill="white"/>
<path fill-rule="evenodd" clip-rule="evenodd" d="M15.9886 7.07079C15.9886 7.94569 15.9857 8.82033 15.9906 9.69524C16.0007 9.79214 15.9765 9.88947 15.9219 9.97165C15.8672 10.0539 15.7852 10.1161 15.6891 10.1485C15.0504 10.4071 14.4163 10.6752 13.7799 10.9394C13.125 11.2105 12.4698 11.4809 11.8142 11.7505C11.3937 11.924 10.9743 12.1004 10.552 12.2706C10.4924 12.2945 10.4274 12.3035 10.3631 12.2968C10.2988 12.2902 10.2373 12.268 10.1845 12.2323C10.1317 12.1967 10.0892 12.1489 10.061 12.0933C10.0329 12.0376 10.02 11.9761 10.0235 11.9144C10.0216 11.3441 10.0316 10.7739 10.0213 10.2039C9.99957 8.9976 10.0167 7.79133 9.99957 6.58506C9.98844 6.48026 10.0147 6.37492 10.0742 6.28619C10.1336 6.19748 10.2227 6.13055 10.3271 6.09633C11.6661 5.54888 13.0033 4.99751 14.3387 4.44223C14.685 4.29906 15.0299 4.15314 15.3753 4.00779C15.439 3.97108 15.5122 3.95216 15.5866 3.95316C15.661 3.95417 15.7336 3.97508 15.7961 4.01349C15.8587 4.05191 15.9088 4.10631 15.9406 4.17052C15.9725 4.23473 15.9848 4.30619 15.9763 4.37678C15.9783 5.27487 15.9763 6.17323 15.9763 7.0716L15.9886 7.07079ZM15.3996 7.13651H15.3965C15.3965 6.33579 15.3965 5.53533 15.3965 4.7346C15.3965 4.6427 15.4002 4.60068 15.278 4.65278C14.7752 4.87096 14.267 5.07496 13.7608 5.28442C12.7376 5.70769 11.7138 6.13014 10.6896 6.55179C10.6539 6.56167 10.6233 6.5839 10.6038 6.61415C10.5843 6.64439 10.5772 6.68049 10.584 6.71542C10.592 7.14442 10.5943 7.57369 10.5988 8.00269C10.6111 9.17542 10.6065 10.346 10.606 11.5176C10.606 11.6144 10.6223 11.6444 10.7259 11.5972C10.9052 11.5154 11.0896 11.4437 11.2721 11.3684C11.9192 11.1013 12.5673 10.8342 13.2164 10.5671C13.905 10.2824 14.5925 9.99442 15.2823 9.71215C15.3204 9.70152 15.3534 9.67819 15.3751 9.64637C15.3969 9.61456 15.4059 9.57635 15.4007 9.53869C15.3976 8.73769 15.3996 7.93697 15.3996 7.13514V7.13651Z" fill="white"/>
<path d="M18.7119 9.84844V9.07935L19.4257 8.94844V4.35516L18.7119 4.22344V3.44998H21.4859V4.22344L20.7676 4.35516V8.86416H22.6585L22.723 8.05989H23.7489V9.84844H18.7119ZM26.649 9.94062C26.3295 9.95433 26.0108 9.9026 25.7141 9.7889C25.4172 9.67521 25.1494 9.50218 24.9284 9.28144C24.4924 8.8255 24.2611 8.22431 24.2844 7.60716V7.43126C24.2581 6.79793 24.4749 6.17724 24.8939 5.6858C25.0939 5.4603 25.3453 5.28159 25.6287 5.16339C25.9122 5.04519 26.2203 4.99066 26.5294 5.00398C26.8184 4.98764 27.1077 5.03099 27.3777 5.1311C27.6477 5.2312 27.8917 5.3857 28.0936 5.58407C28.4829 6.01943 28.6823 6.58104 28.6504 7.1528V7.85153H25.6783L25.6691 7.8788C25.6819 8.16516 25.7981 8.43846 25.998 8.65226C26.0996 8.75452 26.2231 8.83462 26.36 8.8871C26.4971 8.93958 26.6443 8.9632 26.7917 8.95635C27.0417 8.96217 27.291 8.93332 27.5323 8.87072C27.7562 8.80211 27.972 8.71154 28.1764 8.60044L28.5398 9.39135C28.2986 9.5643 28.0283 9.69657 27.7405 9.78244C27.3881 9.89165 27.0194 9.94509 26.649 9.94062ZM26.5294 5.99426C26.4153 5.99043 26.3021 6.01328 26.1995 6.06082C26.097 6.10835 26.008 6.17913 25.9406 6.26698C25.7851 6.47806 25.6927 6.72568 25.6736 6.98316L25.6873 7.00526H27.3341V6.89098C27.3469 6.6581 27.2764 6.42798 27.1344 6.23835C27.0607 6.15479 26.9675 6.08912 26.8623 6.04672C26.757 6.00434 26.6427 5.98644 26.5287 5.99453L26.5294 5.99426ZM29.2108 9.07935L29.8548 8.94844V5.99889L29.1412 5.86716V5.09372H31.1054L31.1651 5.77553C31.3192 5.54294 31.5289 5.34862 31.7769 5.20853C32.0243 5.07248 32.3056 5.00266 32.5911 5.00644C32.8102 4.9949 33.0292 5.02946 33.2327 5.10768C33.4362 5.18592 33.6192 5.30591 33.7688 5.45916C34.051 5.76099 34.1919 6.23372 34.1919 6.87735V8.94844L34.8361 9.08017V9.84844H32.2699V9.07935L32.8444 8.94844V6.88307C32.8695 6.64038 32.7972 6.39765 32.642 6.20398C32.5599 6.13241 32.4632 6.07767 32.3581 6.0431C32.253 6.00854 32.1415 5.99488 32.0307 6.00298C31.8648 6.00038 31.7007 6.03581 31.5522 6.10635C31.4112 6.17513 31.2897 6.27543 31.1979 6.39872V8.94844L31.7403 9.08017V9.84844H29.2108V9.07935ZM38.4577 9.26835C38.3165 9.47446 38.1265 9.64606 37.9033 9.76935C37.68 9.88601 37.4286 9.94504 37.1741 9.94062C36.8995 9.95282 36.6257 9.90072 36.377 9.78888C36.1281 9.67704 35.9118 9.50884 35.7465 9.29889C35.3858 8.80247 35.2071 8.20607 35.2381 7.60253V7.51035C35.2062 6.86928 35.3847 6.23472 35.7489 5.69535C35.907 5.47342 36.1219 5.29364 36.373 5.17293C36.6241 5.05221 36.9032 4.99454 37.184 5.00535C37.4183 5.00198 37.6494 5.05566 37.8558 5.16135C38.0618 5.27086 38.2407 5.42145 38.3803 5.60289V3.8978L37.6617 3.76662V2.99316H39.7228V8.94844L40.3669 9.08017V9.84844H38.5588L38.4577 9.26835ZM36.5805 7.6028C36.5625 7.94266 36.6378 8.28111 36.799 8.58462C36.8712 8.70225 36.9766 8.79815 37.103 8.86145C37.2295 8.92475 37.3721 8.9529 37.5144 8.94272C37.6921 8.947 37.8679 8.90765 38.0252 8.82844C38.1715 8.75027 38.2937 8.63664 38.3794 8.49898V6.4808C38.2955 6.33605 38.1743 6.21406 38.0274 6.12626C37.8749 6.04098 37.7004 5.99828 37.5238 6.00298C37.3743 5.99661 37.2262 6.03292 37.0983 6.10728C36.9704 6.18165 36.8687 6.2907 36.806 6.42053C36.6417 6.76205 36.5644 7.13589 36.5805 7.51144V7.6028ZM45.6064 7.6028C45.6385 8.20602 45.4641 8.8028 45.1096 9.30298C44.9437 9.51372 44.726 9.68214 44.4756 9.79336C44.2252 9.90458 43.9501 9.95516 43.6744 9.94062C43.4098 9.94677 43.1481 9.88679 42.9152 9.76662C42.6936 9.64436 42.5072 9.47146 42.3728 9.26344L42.2761 9.84844H41.1166V3.89835L40.4028 3.76662V2.99316H42.4547V5.59907C42.5896 5.41654 42.7668 5.26619 42.9724 5.15972C43.1862 5.05424 43.4241 5.00136 43.6647 5.00589C43.9466 4.99216 44.2275 5.04779 44.4805 5.16746C44.7334 5.28713 44.9499 5.46682 45.1094 5.68935C45.4664 6.23351 45.6399 6.86924 45.6064 7.51062V7.6028ZM44.2677 7.51062C44.2854 7.13292 44.2122 6.75639 44.0539 6.40989C43.9891 6.28012 43.8848 6.17198 43.7548 6.09951C43.6248 6.02704 43.4749 5.9936 43.3246 6.00353C43.1396 5.9978 42.9565 6.04113 42.7957 6.12872C42.6489 6.21486 42.531 6.33905 42.4553 6.4868V8.49517C42.5326 8.63633 42.6518 8.75256 42.7979 8.82926C42.9636 8.90988 43.148 8.9492 43.3338 8.94353C43.4772 8.9567 43.6216 8.93085 43.7503 8.86899C43.8789 8.80712 43.9867 8.71175 44.061 8.59389C44.2162 8.28542 44.2873 7.94453 44.2679 7.6028L44.2677 7.51062ZM46.2274 7.42716C46.2003 6.79241 46.4226 6.17091 46.8507 5.68472C47.0671 5.45649 47.3339 5.27714 47.6319 5.15968C47.9298 5.04222 48.2515 4.98959 48.5734 5.00562C48.8959 4.98918 49.2181 5.04136 49.5168 5.15838C49.8157 5.2754 50.0835 5.45433 50.3009 5.68226C50.7299 6.16913 50.9523 6.79191 50.9243 7.42772V7.51989C50.9529 8.15619 50.7304 8.77958 50.3009 9.26672C50.0845 9.4933 49.8182 9.67125 49.5212 9.78778C49.2241 9.9043 48.9038 9.9565 48.5831 9.94062C48.2602 9.95736 47.9374 9.90557 47.6379 9.78896C47.3384 9.67234 47.0696 9.4938 46.851 9.26616C46.4215 8.77904 46.199 8.15564 46.2276 7.51935L46.2274 7.42716ZM47.5707 7.51935C47.5535 7.88127 47.6359 8.24118 47.81 8.56307C47.8872 8.69123 48.0007 8.79606 48.1374 8.8656C48.274 8.93513 48.4284 8.96658 48.5828 8.95635C48.7358 8.96522 48.8883 8.93284 49.0229 8.86292C49.1575 8.79299 49.2688 8.68834 49.3443 8.56089C49.5193 8.24008 49.6027 7.88079 49.5858 7.51935V7.42716C49.6014 7.06836 49.5173 6.71202 49.3419 6.39435C49.2661 6.26559 49.1538 6.15981 49.018 6.08912C48.882 6.01841 48.7282 5.98564 48.5736 5.99453C48.4199 5.9853 48.2664 6.01798 48.1312 6.08876C47.996 6.15953 47.8846 6.26549 47.81 6.39435C47.6378 6.71295 47.5552 7.06889 47.5707 7.42716V7.51935ZM51.2694 9.07935L51.7339 9.00898L53.0866 7.44462L51.7801 5.94162L51.3165 5.86662V5.09316H53.5569V5.8358L53.1 5.88844L53.8547 6.80262L54.5952 5.88844L54.1308 5.8358V5.09316H56.3803V5.86662L55.9294 5.94135L54.6506 7.44435L55.9988 9.00898L56.4682 9.07935V9.84844H54.191V9.11017L54.6478 9.05753L53.8749 8.09944L53.0866 9.06189L53.4863 9.11017V9.84844H51.2689L51.2694 9.07935Z" fill="white"/>
</g>
<g clip-path="url(#clip0_2107_5014)">
<path d="M171.737 4.08398L170.071 9.71082H166L166.825 6.94264L171.737 4.08398Z" fill="white"/>
<path d="M180.401 2.29785C181.355 2.30237 182.027 2.48783 182.406 2.86325C182.785 3.23867 182.878 3.77241 182.667 4.4735C182.529 4.95296 182.247 5.39171 181.852 5.73999C181.442 6.10185 180.94 6.36419 180.381 6.49989C180.806 6.58583 181.068 6.85269 181.15 7.30954L181.165 7.40905L181.473 9.71134H179.576L179.258 7.23264C179.253 7.15122 179.227 7.06981 179.181 6.99744C179.135 6.92507 179.068 6.86626 178.991 6.82103C178.833 6.74866 178.658 6.71248 178.479 6.70795H178.371H177.202L176.31 9.70682H174.536L176.741 2.29785H180.401V2.29785ZM229 4.2383L226.744 7.10599L224.083 10.5074L224.062 10.5255L223.468 11.2854L223.447 11.3126L223.422 11.3487L222.909 12.0001H221.145L223.206 9.43543L222.273 4.41922H224.104L224.565 7.68948L226.8 4.88963L226.831 4.84893L226.867 4.80369L226.903 4.76299L227.18 4.24282H229V4.2383ZM213.373 4.63634C213.711 4.88963 213.932 5.23792 214.009 5.62691C214.101 6.11089 214.06 6.61297 213.901 7.08338C213.752 7.60354 213.501 8.09205 213.152 8.52627C212.834 8.92431 212.424 9.2545 211.948 9.48971C211.496 9.70682 210.999 9.8199 210.486 9.8199C210.122 9.83347 209.763 9.75205 209.451 9.58922C209.21 9.46257 209.025 9.26807 208.923 9.03739L208.892 8.94693L207.984 12.0001H206.226L208.025 5.93901L208.036 5.91187L208.041 5.88473L208.482 4.4147H210.199L209.907 5.26506L209.902 5.30124C210.153 4.98462 210.491 4.7268 210.881 4.55944C211.271 4.37851 211.701 4.28805 212.137 4.28805C212.573 4.26544 213.014 4.39208 213.373 4.63634ZM211.25 5.47765C211.045 5.47312 210.84 5.50931 210.645 5.57716C210.456 5.64501 210.281 5.74904 210.133 5.87569C209.784 6.19231 209.543 6.59487 209.435 7.02458C209.281 7.52665 209.292 7.9066 209.446 8.16894C209.599 8.43128 209.892 8.56698 210.327 8.56698C210.743 8.57603 211.143 8.43581 211.445 8.17799C211.783 7.86589 212.019 7.47689 212.127 7.05171C212.276 6.55869 212.265 6.16517 212.112 5.88926C211.958 5.61334 211.671 5.47765 211.25 5.47765ZM219.146 4.51873C219.382 4.64991 219.566 4.8444 219.669 5.07508L219.705 5.16103L219.93 4.41018H221.653L220.074 9.7023H218.346L218.577 8.91979C218.315 9.1957 217.987 9.41282 217.618 9.56208C217.259 9.70682 216.875 9.78372 216.485 9.78372C216.034 9.80181 215.583 9.68873 215.213 9.449C214.875 9.2138 214.649 8.87003 214.578 8.49461C214.485 8.01515 214.516 7.52665 214.675 7.06076C214.829 6.5406 215.085 6.04757 215.439 5.60882C215.762 5.20626 216.177 4.86702 216.659 4.62277C217.1 4.39661 217.603 4.27448 218.11 4.27448C218.479 4.26544 218.838 4.34685 219.146 4.51873ZM218.254 5.49122C218.043 5.49122 217.833 5.5274 217.644 5.59977C217.449 5.67214 217.274 5.77618 217.126 5.90735C216.782 6.2285 216.536 6.62654 216.428 7.06076C216.285 7.54926 216.285 7.92017 216.449 8.18703C216.608 8.4539 216.905 8.58055 217.346 8.58055C217.551 8.58507 217.756 8.54889 217.951 8.48104C218.146 8.41319 218.315 8.30916 218.464 8.18251C218.766 7.89755 218.987 7.55831 219.11 7.17836L219.151 7.03815C219.305 6.53607 219.3 6.1516 219.135 5.89378C218.977 5.62691 218.684 5.49122 218.254 5.49122ZM207.595 4.3559L207.708 4.39661L207.267 5.8395C207.015 5.7219 206.739 5.6631 206.462 5.6631C206.041 5.64953 205.631 5.77165 205.298 6.00234C205.011 6.21945 204.801 6.50893 204.693 6.82556L204.657 6.94768L203.837 9.71134H202.083L203.673 4.41922H205.4L205.175 5.19721C205.39 4.93487 205.667 4.72228 205.98 4.56397C206.328 4.38756 206.718 4.2971 207.118 4.2971C207.277 4.28805 207.441 4.30614 207.595 4.3559ZM201.119 4.6092C201.509 4.82631 201.791 5.17007 201.899 5.56811C202.027 6.04757 202.006 6.55416 201.842 7.02458C201.688 7.55831 201.417 8.05586 201.032 8.48104C200.668 8.89265 200.207 9.21832 199.679 9.43995C199.14 9.66159 198.556 9.77467 197.961 9.77015C197.336 9.77015 196.823 9.66159 196.423 9.43995C196.028 9.22284 195.746 8.87908 195.634 8.48104C195.51 8.00158 195.531 7.49499 195.69 7.02458C195.844 6.49536 196.115 5.99781 196.5 5.56811C196.864 5.16103 197.331 4.83083 197.864 4.6092C198.407 4.38756 199.002 4.26996 199.602 4.279C200.13 4.25639 200.658 4.37399 201.119 4.6092ZM199.243 5.47312C198.828 5.4686 198.428 5.60882 198.125 5.86212C197.813 6.12446 197.577 6.50893 197.428 7.02458C197.12 8.06038 197.418 8.57603 198.32 8.57603C198.73 8.58507 199.125 8.44485 199.422 8.19156C199.73 7.93374 199.956 7.54474 200.109 7.02458C200.263 6.51346 200.268 6.12899 200.115 5.86212C199.966 5.59525 199.674 5.47312 199.243 5.47312ZM195.68 4.4147L195.372 5.46408L191.501 8.48104H194.608L194.239 9.71587H189.097L189.42 8.62578L193.229 5.65405H190.332L190.701 4.41922H195.68V4.4147ZM187 4.51873C187.236 4.64991 187.42 4.8444 187.523 5.07508L187.559 5.16103L187.784 4.41018H189.512L187.938 9.7023H186.21L186.441 8.91979C186.179 9.19118 185.856 9.40829 185.492 9.55756C185.128 9.70682 184.734 9.78372 184.329 9.78372C183.877 9.80181 183.437 9.68421 183.073 9.449C182.734 9.2138 182.509 8.87003 182.437 8.49461C182.344 8.01515 182.375 7.52665 182.534 7.06076C182.683 6.5406 182.944 6.04757 183.298 5.60882C183.621 5.20626 184.036 4.86702 184.513 4.62277C184.954 4.39661 185.457 4.279 185.964 4.279C186.333 4.26996 186.692 4.35138 187 4.51873ZM186.113 5.49122C185.903 5.49122 185.698 5.5274 185.503 5.59977C185.308 5.67214 185.134 5.77618 184.985 5.90735C184.636 6.2285 184.395 6.62654 184.288 7.06076C184.144 7.54926 184.149 7.92017 184.308 8.18703C184.467 8.4539 184.764 8.58055 185.205 8.58055C185.41 8.58507 185.615 8.54889 185.81 8.48104C186 8.41319 186.179 8.30916 186.323 8.18251C186.625 7.90207 186.851 7.55831 186.969 7.17836L187.01 7.03815C187.159 6.53607 187.143 6.16065 186.995 5.89378C186.836 5.62691 186.538 5.49122 186.113 5.49122ZM179.766 3.53268H178.12L177.541 5.4686H179.186C179.704 5.4686 180.114 5.39171 180.391 5.2334C180.683 5.06604 180.894 4.80369 180.97 4.49612C181.073 4.17045 181.027 3.92167 180.832 3.76336C180.637 3.6141 180.283 3.53268 179.766 3.53268Z" fill="white"/>
<path d="M175.434 0L172.542 9.71127H170.558L172.512 3.13456L169.518 4.87599L170.051 3.14361L175.434 0Z" fill="white"/>
</g>
<defs>
<clipPath id="clip0_2107_5014">
<rect width="63" height="12" fill="white" transform="translate(166)"/>
</clipPath>
</defs>
</svg>
