<svg width="222" height="21" viewBox="0 0 222 21" fill="none" xmlns="http://www.w3.org/2000/svg">
<g filter="url(#filter0_d_2120_5094)">
<g clip-path="url(#clip0_2120_5094)">
<path fill-rule="evenodd" clip-rule="evenodd" d="M135.011 2.44457C135.108 2.44457 135.229 2.50067 135.375 2.66897L138.219 5.95467C138.681 6.48853 138.414 6.908 137.807 6.85337H135.011L136.688 8.8473H140.261C141.355 8.9034 142.228 7.72383 141.136 6.5164L136.154 0.786867C135.738 0.3091 135.375 0 135.011 0C134.646 0 134.281 0.3091 133.868 0.786867L128.886 6.51603C127.793 7.72347 128.667 8.90303 129.761 8.84657H133.334L135.011 6.853H132.216C131.608 6.9091 131.341 6.48633 131.803 5.9543L134.647 2.66897C134.793 2.50067 134.914 2.44457 135.011 2.44457" fill="white"/>
<path fill-rule="evenodd" clip-rule="evenodd" d="M134.994 4.36035C135.198 4.36021 135.398 4.43008 135.568 4.56115C135.738 4.69221 135.87 4.87857 135.949 5.09667C136.027 5.31476 136.047 5.5548 136.008 5.78641C135.968 6.01803 135.87 6.23082 135.725 6.39789C135.581 6.56496 135.397 6.67879 135.196 6.725C134.996 6.77121 134.788 6.74772 134.599 6.65749C134.411 6.56726 134.249 6.41435 134.135 6.2181C134.022 6.02186 133.961 5.79108 133.961 5.55495V5.55495C133.961 5.23851 134.07 4.93505 134.263 4.71126C134.457 4.48746 134.72 4.36165 134.994 4.36145" fill="white"/>
<path fill-rule="evenodd" clip-rule="evenodd" d="M135 10.9999H140.225C141.076 10.9717 141.295 10.719 142 9.11816C141.028 10.1852 140.809 10.2413 140.225 10.2413H129.775C129.191 10.2413 128.972 10.1852 128 9.11816C128.705 10.719 128.924 10.9717 129.775 10.9999H135Z" fill="white"/>
<path d="M139.526 9.81382H139.685V9.93995H139.526V9.81382ZM139.526 9.45008H139.685V9.57658H139.526V9.45008ZM138.53 9.71335C138.53 9.50912 138.802 9.52268 138.802 9.52268L138.834 9.61252C138.807 9.60482 138.668 9.60189 138.662 9.71262C138.663 9.74086 138.673 9.76754 138.691 9.7869C138.709 9.80625 138.733 9.81671 138.757 9.81602H138.763C138.787 9.81758 138.81 9.81277 138.832 9.80196C138.855 9.79115 138.874 9.77463 138.89 9.75368V9.45008H138.449V9.36025H139.424V9.45008H139.023V9.58502C139.062 9.55061 139.111 9.53324 139.161 9.53588C139.275 9.53588 139.37 9.61765 139.37 9.71555C139.37 9.84315 139.215 9.95938 139.215 9.95938L139.114 9.89778C139.118 9.89778 139.237 9.81308 139.237 9.71775C139.237 9.70513 139.235 9.69271 139.23 9.68118C139.226 9.66965 139.219 9.65925 139.212 9.65056C139.204 9.64188 139.194 9.63509 139.184 9.63057C139.174 9.62606 139.163 9.62391 139.152 9.62425H139.147C139.123 9.62723 139.1 9.63589 139.079 9.6497C139.057 9.66351 139.039 9.68218 139.024 9.70455V10.0313H138.889V9.87395C138.74 9.95535 138.53 9.88165 138.53 9.71445V9.71335ZM138.43 9.07755V9.14465C138.406 9.13578 138.381 9.13229 138.356 9.13438C138.219 9.13438 138.233 9.33275 138.341 9.35915H138.254C138.227 9.34558 138.154 9.27188 138.157 9.20478C138.16 9.08635 138.316 9.01925 138.43 9.07865V9.07755ZM138.096 9.36062H138.427V9.45082H138.349V10.0291H138.211V9.44972H138.097V9.35988L138.096 9.36062ZM137.839 9.57255C137.858 9.57463 137.876 9.57163 137.894 9.56379C137.911 9.55595 137.926 9.54349 137.938 9.52745C137.948 9.44092 137.751 9.40645 137.751 9.50912C137.753 9.54725 137.795 9.57255 137.839 9.57255V9.57255ZM137.514 9.36172H138.094V9.45155H138.024C138.147 9.59492 138.033 9.80832 137.829 9.82188C137.835 9.82188 137.879 9.85855 137.912 9.88128C137.97 9.91795 138.022 9.95205 138.025 9.95462L137.948 10.0371C137.813 9.97772 137.698 9.86442 137.594 9.77238L137.681 9.69905L137.731 9.73572C137.75 9.74554 137.77 9.74824 137.79 9.74342C137.91 9.72105 137.929 9.65945 137.932 9.63012C137.793 9.71335 137.573 9.59345 137.655 9.45045H137.517L137.514 9.36172ZM136.758 9.36172H137.517V9.45155H137.373V9.63488H137.054C137.036 9.63241 137.017 9.63851 137.003 9.65185C136.988 9.66519 136.979 9.68467 136.976 9.70602V9.70968C136.976 9.83105 137.173 9.87432 137.212 9.85085C137.211 9.8361 137.213 9.8214 137.218 9.80763C137.223 9.79386 137.229 9.78129 137.238 9.77069C137.247 9.76008 137.258 9.75165 137.27 9.74589C137.281 9.74014 137.294 9.73718 137.307 9.73718H137.318C137.42 9.73718 137.438 9.87652 137.348 9.90438C137.359 9.92838 137.372 9.95089 137.387 9.97148C137.408 10.0045 137.446 10.0522 137.446 10.0522H137.305C137.305 10.0522 137.282 10.0155 137.27 9.99238C137.258 9.96928 137.255 9.95828 137.246 9.94142C137.24 9.94398 136.84 9.95828 136.843 9.69905C136.843 9.61582 136.93 9.54762 137.03 9.54762H137.235V9.45008H136.759V9.36025L136.758 9.36172ZM136.525 9.75808V9.83582L136.193 10.028L136.115 9.94105L136.525 9.75808ZM136.389 9.83948C136.211 9.83692 136.154 9.69612 136.154 9.65615V9.45082H136.055V9.36098H136.743V9.45082H136.665V10.0291H136.53V9.80905C136.488 9.83428 136.44 9.84569 136.392 9.84205L136.389 9.83948ZM136.529 9.44972H136.291V9.66055C136.291 9.70895 136.321 9.75515 136.397 9.75808C136.422 9.75826 136.447 9.75234 136.47 9.74072C136.493 9.7291 136.514 9.71203 136.531 9.69062L136.529 9.44972ZM135.721 9.35988H136.052V9.44972H135.974V10.028H135.836V9.44972H135.723V9.35988H135.721ZM135.441 9.53332V9.61105C135.409 9.61398 135.256 9.59822 135.256 9.47942C135.256 9.39948 135.346 9.34485 135.447 9.34778C135.577 9.34778 135.687 9.44165 135.687 9.55238C135.687 9.66312 135.56 9.76322 135.438 9.75772C135.438 9.75772 135.477 9.82738 135.589 9.82445C135.639 9.82205 135.687 9.80826 135.732 9.7839C135.777 9.75953 135.817 9.72507 135.85 9.68255V9.82922C135.639 9.98578 135.297 9.90842 135.239 9.65945C135.28 9.67086 135.323 9.67653 135.366 9.67632C135.453 9.67632 135.553 9.63965 135.553 9.54175C135.554 9.51366 135.545 9.48638 135.528 9.4658C135.512 9.44522 135.489 9.43299 135.464 9.43175C135.459 9.43121 135.453 9.43121 135.448 9.43175C135.362 9.43542 135.359 9.53515 135.444 9.53515L135.441 9.53332ZM134.878 9.83912C134.7 9.83692 134.645 9.69575 134.645 9.65578V9.45228H134.546V9.36245H135.234V9.45228H135.156V10.0305H135.021V9.81052C134.978 9.83615 134.929 9.84757 134.881 9.84352L134.878 9.83912ZM135.018 9.44935H134.778V9.66018C134.778 9.70858 134.808 9.75478 134.885 9.75772C134.91 9.75784 134.934 9.7519 134.957 9.74028C134.98 9.72866 135.001 9.71162 135.018 9.69025V9.44935ZM133.703 9.81602H133.861V9.94215H133.703V9.81602ZM133.703 9.45228H133.861V9.57878H133.703V9.45228ZM132.706 9.71665C132.706 9.51205 132.978 9.52562 132.978 9.52562L133.01 9.61545C132.983 9.60775 132.843 9.60518 132.837 9.71555C132.838 9.72968 132.841 9.74351 132.847 9.75622C132.852 9.76894 132.859 9.78031 132.869 9.78967C132.878 9.79903 132.889 9.80621 132.9 9.8108C132.912 9.81538 132.924 9.81728 132.936 9.81638H132.941C132.965 9.81822 132.988 9.81357 133.01 9.80281C133.033 9.79205 133.052 9.77548 133.068 9.75442V9.45228H132.625V9.36245H133.6V9.45228H133.199V9.58722C133.239 9.55284 133.287 9.53547 133.337 9.53808C133.451 9.53808 133.547 9.61985 133.547 9.71775C133.547 9.84535 133.388 9.96158 133.388 9.96158L133.288 9.89632C133.291 9.89632 133.411 9.81162 133.411 9.71665C133.41 9.69114 133.401 9.66693 133.385 9.64934C133.369 9.63174 133.348 9.62219 133.326 9.62278H133.321C133.297 9.62581 133.274 9.6345 133.253 9.6483C133.231 9.66211 133.213 9.68075 133.198 9.70308V10.0298H133.063V9.87248C132.919 9.95535 132.706 9.88165 132.706 9.71445V9.71665ZM131.868 9.36392H132.624V9.45375H132.546V10.032H132.408V9.68915H132.168V9.77898C132.168 9.78416 132.168 9.7894 132.166 9.79437C132.165 9.79934 132.163 9.80392 132.16 9.80781C132.157 9.81169 132.153 9.81479 132.149 9.8169C132.145 9.81902 132.14 9.82009 132.136 9.82005C132.133 9.82042 132.13 9.82042 132.128 9.82005C132.081 9.81748 131.946 9.67338 131.946 9.64222C131.946 9.59748 131.996 9.59748 132.002 9.59748H132.405V9.45082H131.869L131.868 9.36392ZM131.534 9.36392H131.865V9.45375H131.787V10.032H131.65V9.44972H131.536L131.534 9.36392ZM131.32 9.45375H131.093V9.65138H131.321L131.32 9.45375ZM130.78 9.36392H131.536V9.45375H131.459V10.032H131.32V9.73865H131.093V9.81638C131.093 9.82226 131.092 9.82809 131.09 9.83353C131.088 9.83898 131.086 9.84394 131.082 9.84812C131.078 9.85231 131.074 9.85565 131.07 9.85794C131.065 9.86023 131.06 9.86144 131.055 9.86148H131.05C131.011 9.86148 130.855 9.71482 130.855 9.68622C130.855 9.65762 130.905 9.65322 130.908 9.65322H130.96V9.45265H130.78V9.36392Z" fill="white"/>
</g>
<mask id="mask0_2120_5094" style="mask-type:alpha" maskUnits="userSpaceOnUse" x="1" y="0" width="56" height="12">
<path d="M57 0H1V12H57V0Z" fill="white"/>
</mask>
<g mask="url(#mask0_2120_5094)">
<path fill-rule="evenodd" clip-rule="evenodd" d="M10.7785 0.302734C11.2924 0.520916 11.8063 0.7391 12.3202 0.957283C12.9177 1.20946 13.5156 1.46046 14.114 1.71029C14.8373 2.01464 15.5614 2.31919 16.2862 2.62392C16.3578 2.64793 16.4205 2.69143 16.4665 2.74904C16.5126 2.80665 16.54 2.87588 16.5454 2.94818C16.5548 3.02657 16.5366 3.10572 16.4936 3.1731C16.4507 3.24048 16.3854 3.29225 16.3081 3.32019C15.7585 3.56019 15.2052 3.79283 14.6522 4.02792C13.7632 4.40646 12.8739 4.78473 11.9845 5.16273C11.6176 5.31873 11.2499 5.47201 10.8847 5.63155C10.826 5.65836 10.7617 5.67228 10.6966 5.67228C10.6315 5.67228 10.5672 5.65836 10.5084 5.63155C9.67703 5.28228 8.84582 4.93255 8.01481 4.58237C7.05018 4.17619 6.08537 3.77028 5.12037 3.36464C5.04011 3.3401 4.97017 3.29169 4.92076 3.22649C4.87135 3.16128 4.84505 3.08269 4.84572 3.00219C4.84554 2.92561 4.87012 2.85084 4.91612 2.7881C4.96211 2.72538 5.02726 2.67775 5.10267 2.65173C5.97821 2.28265 6.85376 1.91165 7.72931 1.53873C8.39625 1.25455 9.06119 0.966008 9.72784 0.680734C9.97594 0.574644 10.2263 0.473737 10.4741 0.3671C10.5121 0.350736 10.5598 0.345281 10.5841 0.303554L10.7785 0.302734ZM5.7165 3.00492C6.5339 3.3491 7.3316 3.68673 8.12959 4.02138C8.92757 4.35601 9.72841 4.68764 10.5218 5.03046C10.5789 5.05872 10.6424 5.07317 10.7067 5.07255C10.771 5.07193 10.8342 5.05626 10.8907 5.02692C11.7695 4.6451 12.6531 4.27173 13.5356 3.89673C14.0432 3.68101 14.5523 3.46718 15.0596 3.25092C15.2595 3.16583 15.4565 3.07555 15.6709 2.98038C15.6332 2.9621 15.6158 2.9531 15.5978 2.94519C15.0864 2.72864 14.5749 2.51219 14.0632 2.29583C13.3321 1.988 12.6008 1.68083 11.8691 1.37428C11.5091 1.22292 11.1508 1.06828 10.7905 0.918007C10.7645 0.903356 10.7353 0.894717 10.7052 0.892776C10.6751 0.890834 10.645 0.895642 10.6172 0.906824C9.75592 1.27828 8.89341 1.64701 8.02966 2.01301C7.52946 2.22601 7.02811 2.43573 6.52819 2.64929C6.26182 2.76329 5.99801 2.8811 5.7165 3.00492Z" fill="white"/>
<path fill-rule="evenodd" clip-rule="evenodd" d="M10.4586 9.22257C10.4586 10.1135 10.4586 11.0039 10.4586 11.8939C10.466 11.9783 10.4434 12.0625 10.3945 12.1331C10.3455 12.2036 10.273 12.2563 10.1888 12.2826C10.1076 12.3115 10.0178 12.3093 9.93815 12.2766L7.66582 11.3515C6.88734 11.0335 6.10792 10.7159 5.32754 10.3988C5.12597 10.317 4.92612 10.2306 4.72484 10.1479C4.65102 10.1187 4.58814 10.0689 4.54443 10.005C4.50073 9.94116 4.47823 9.86614 4.47988 9.78984C4.47559 9.72357 4.47474 9.6573 4.47474 9.59074C4.47341 8.05984 4.47217 6.52893 4.47103 4.99802C4.47103 4.79102 4.46532 4.58403 4.46903 4.37703C4.46467 4.31141 4.47858 4.24588 4.50936 4.18708C4.54014 4.12828 4.58668 4.07833 4.64424 4.04229C4.7018 4.00627 4.76833 3.98545 4.83706 3.98197C4.90578 3.97849 4.97424 3.99247 5.03547 4.02248C6.02084 4.42248 7.00564 4.82429 7.98986 5.22794C8.71657 5.52466 9.44327 5.82121 10.17 6.11757C10.2582 6.14959 10.3333 6.20811 10.3837 6.28435C10.4342 6.36057 10.4573 6.45039 10.4498 6.5403C10.4498 7.43448 10.4498 8.32875 10.4498 9.22311L10.4586 9.22257Z" fill="white"/>
<path fill-rule="evenodd" clip-rule="evenodd" d="M16.9886 7.07079C16.9886 7.94569 16.9857 8.82033 16.9906 9.69524C17.0007 9.79214 16.9765 9.88947 16.9219 9.97165C16.8672 10.0539 16.7852 10.1161 16.6891 10.1485C16.0504 10.4071 15.4163 10.6752 14.7799 10.9394C14.125 11.2105 13.4698 11.4809 12.8142 11.7505C12.3937 11.924 11.9743 12.1004 11.552 12.2706C11.4924 12.2945 11.4274 12.3035 11.3631 12.2968C11.2988 12.2902 11.2373 12.268 11.1845 12.2323C11.1317 12.1967 11.0892 12.1489 11.061 12.0933C11.0329 12.0376 11.02 11.9761 11.0235 11.9144C11.0216 11.3441 11.0316 10.7739 11.0213 10.2039C10.9996 8.9976 11.0167 7.79133 10.9996 6.58506C10.9884 6.48026 11.0147 6.37492 11.0742 6.28619C11.1336 6.19748 11.2227 6.13055 11.3271 6.09633C12.6661 5.54888 14.0033 4.99751 15.3387 4.44223C15.685 4.29906 16.0299 4.15314 16.3753 4.00779C16.439 3.97108 16.5122 3.95216 16.5866 3.95316C16.661 3.95417 16.7336 3.97508 16.7961 4.01349C16.8587 4.05191 16.9088 4.10631 16.9406 4.17052C16.9725 4.23473 16.9848 4.30619 16.9763 4.37678C16.9783 5.27487 16.9763 6.17323 16.9763 7.0716L16.9886 7.07079ZM16.3996 7.13651H16.3965C16.3965 6.33579 16.3965 5.53533 16.3965 4.7346C16.3965 4.6427 16.4002 4.60068 16.278 4.65278C15.7752 4.87096 15.267 5.07496 14.7608 5.28442C13.7376 5.70769 12.7138 6.13014 11.6896 6.55179C11.6539 6.56167 11.6233 6.5839 11.6038 6.61415C11.5843 6.64439 11.5772 6.68049 11.584 6.71542C11.592 7.14442 11.5943 7.57369 11.5988 8.00269C11.6111 9.17542 11.6065 10.346 11.606 11.5176C11.606 11.6144 11.6223 11.6444 11.7259 11.5972C11.9052 11.5154 12.0896 11.4437 12.2721 11.3684C12.9192 11.1013 13.5673 10.8342 14.2164 10.5671C14.905 10.2824 15.5925 9.99442 16.2823 9.71215C16.3204 9.70152 16.3534 9.67819 16.3751 9.64637C16.3969 9.61456 16.4059 9.57635 16.4007 9.53869C16.3976 8.73769 16.3996 7.93697 16.3996 7.13514V7.13651Z" fill="white"/>
<path d="M19.7119 9.84844V9.07935L20.4257 8.94844V4.35516L19.7119 4.22344V3.44998H22.4859V4.22344L21.7676 4.35516V8.86416H23.6585L23.723 8.05989H24.7489V9.84844H19.7119ZM27.649 9.94062C27.3295 9.95433 27.0108 9.9026 26.7141 9.7889C26.4172 9.67521 26.1494 9.50218 25.9284 9.28144C25.4924 8.8255 25.2611 8.22431 25.2844 7.60716V7.43126C25.2581 6.79793 25.4749 6.17724 25.8939 5.6858C26.0939 5.4603 26.3453 5.28159 26.6287 5.16339C26.9122 5.04519 27.2203 4.99066 27.5294 5.00398C27.8184 4.98764 28.1077 5.03099 28.3777 5.1311C28.6477 5.2312 28.8917 5.3857 29.0936 5.58407C29.4829 6.01943 29.6823 6.58104 29.6504 7.1528V7.85153H26.6783L26.6691 7.8788C26.6819 8.16516 26.7981 8.43846 26.998 8.65226C27.0996 8.75452 27.2231 8.83462 27.36 8.8871C27.4971 8.93958 27.6443 8.9632 27.7917 8.95635C28.0417 8.96217 28.291 8.93332 28.5323 8.87072C28.7562 8.80211 28.972 8.71154 29.1764 8.60044L29.5398 9.39135C29.2986 9.5643 29.0283 9.69657 28.7405 9.78244C28.3881 9.89165 28.0194 9.94509 27.649 9.94062ZM27.5294 5.99426C27.4153 5.99043 27.3021 6.01328 27.1995 6.06082C27.097 6.10835 27.008 6.17913 26.9406 6.26698C26.7851 6.47806 26.6927 6.72568 26.6736 6.98316L26.6873 7.00526H28.3341V6.89098C28.3469 6.6581 28.2764 6.42798 28.1344 6.23835C28.0607 6.15479 27.9675 6.08912 27.8623 6.04672C27.757 6.00434 27.6427 5.98644 27.5287 5.99453L27.5294 5.99426ZM30.2108 9.07935L30.8548 8.94844V5.99889L30.1412 5.86716V5.09372H32.1054L32.1651 5.77553C32.3192 5.54294 32.5289 5.34862 32.7769 5.20853C33.0243 5.07248 33.3056 5.00266 33.5911 5.00644C33.8102 4.9949 34.0292 5.02946 34.2327 5.10768C34.4362 5.18592 34.6192 5.30591 34.7688 5.45916C35.051 5.76099 35.1919 6.23372 35.1919 6.87735V8.94844L35.8361 9.08017V9.84844H33.2699V9.07935L33.8444 8.94844V6.88307C33.8695 6.64038 33.7972 6.39765 33.642 6.20398C33.5599 6.13241 33.4632 6.07767 33.3581 6.0431C33.253 6.00854 33.1415 5.99488 33.0307 6.00298C32.8648 6.00038 32.7007 6.03581 32.5522 6.10635C32.4112 6.17513 32.2897 6.27543 32.1979 6.39872V8.94844L32.7403 9.08017V9.84844H30.2108V9.07935ZM39.4577 9.26835C39.3165 9.47446 39.1265 9.64606 38.9033 9.76935C38.68 9.88601 38.4286 9.94504 38.1741 9.94062C37.8995 9.95282 37.6257 9.90072 37.377 9.78888C37.1281 9.67704 36.9118 9.50884 36.7465 9.29889C36.3858 8.80247 36.2071 8.20607 36.2381 7.60253V7.51035C36.2062 6.86928 36.3847 6.23472 36.7489 5.69535C36.907 5.47342 37.1219 5.29364 37.373 5.17293C37.6241 5.05221 37.9032 4.99454 38.184 5.00535C38.4183 5.00198 38.6494 5.05566 38.8558 5.16135C39.0618 5.27086 39.2407 5.42145 39.3803 5.60289V3.8978L38.6617 3.76662V2.99316H40.7228V8.94844L41.3669 9.08017V9.84844H39.5588L39.4577 9.26835ZM37.5805 7.6028C37.5625 7.94266 37.6378 8.28111 37.799 8.58462C37.8712 8.70225 37.9766 8.79815 38.103 8.86145C38.2295 8.92475 38.3721 8.9529 38.5144 8.94272C38.6921 8.947 38.8679 8.90765 39.0252 8.82844C39.1715 8.75027 39.2937 8.63664 39.3794 8.49898V6.4808C39.2955 6.33605 39.1743 6.21406 39.0274 6.12626C38.8749 6.04098 38.7004 5.99828 38.5238 6.00298C38.3743 5.99661 38.2262 6.03292 38.0983 6.10728C37.9704 6.18165 37.8687 6.2907 37.806 6.42053C37.6417 6.76205 37.5644 7.13589 37.5805 7.51144V7.6028ZM46.6064 7.6028C46.6385 8.20602 46.4641 8.8028 46.1096 9.30298C45.9437 9.51372 45.726 9.68214 45.4756 9.79336C45.2252 9.90458 44.9501 9.95516 44.6744 9.94062C44.4098 9.94677 44.1481 9.88679 43.9152 9.76662C43.6936 9.64436 43.5072 9.47146 43.3728 9.26344L43.2761 9.84844H42.1166V3.89835L41.4028 3.76662V2.99316H43.4547V5.59907C43.5896 5.41654 43.7668 5.26619 43.9724 5.15972C44.1862 5.05424 44.4241 5.00136 44.6647 5.00589C44.9466 4.99216 45.2275 5.04779 45.4805 5.16746C45.7334 5.28713 45.9499 5.46682 46.1094 5.68935C46.4664 6.23351 46.6399 6.86924 46.6064 7.51062V7.6028ZM45.2677 7.51062C45.2854 7.13292 45.2122 6.75639 45.0539 6.40989C44.9891 6.28012 44.8848 6.17198 44.7548 6.09951C44.6248 6.02704 44.4749 5.9936 44.3246 6.00353C44.1396 5.9978 43.9565 6.04113 43.7957 6.12872C43.6489 6.21486 43.531 6.33905 43.4553 6.4868V8.49517C43.5326 8.63633 43.6518 8.75256 43.7979 8.82926C43.9636 8.90988 44.148 8.9492 44.3338 8.94353C44.4772 8.9567 44.6216 8.93085 44.7503 8.86899C44.8789 8.80712 44.9867 8.71175 45.061 8.59389C45.2162 8.28542 45.2873 7.94453 45.2679 7.6028L45.2677 7.51062ZM47.2274 7.42716C47.2003 6.79241 47.4226 6.17091 47.8507 5.68472C48.0671 5.45649 48.3339 5.27714 48.6319 5.15968C48.9298 5.04222 49.2515 4.98959 49.5734 5.00562C49.8959 4.98918 50.2181 5.04136 50.5168 5.15838C50.8157 5.2754 51.0835 5.45433 51.3009 5.68226C51.7299 6.16913 51.9523 6.79191 51.9243 7.42772V7.51989C51.9529 8.15619 51.7304 8.77958 51.3009 9.26672C51.0845 9.4933 50.8182 9.67125 50.5212 9.78778C50.2241 9.9043 49.9038 9.9565 49.5831 9.94062C49.2602 9.95736 48.9374 9.90557 48.6379 9.78896C48.3384 9.67234 48.0696 9.4938 47.851 9.26616C47.4215 8.77904 47.199 8.15564 47.2276 7.51935L47.2274 7.42716ZM48.5707 7.51935C48.5535 7.88127 48.6359 8.24118 48.81 8.56307C48.8872 8.69123 49.0007 8.79606 49.1374 8.8656C49.274 8.93513 49.4284 8.96658 49.5828 8.95635C49.7358 8.96522 49.8883 8.93284 50.0229 8.86292C50.1575 8.79299 50.2688 8.68834 50.3443 8.56089C50.5193 8.24008 50.6027 7.88079 50.5858 7.51935V7.42716C50.6014 7.06836 50.5173 6.71202 50.3419 6.39435C50.2661 6.26559 50.1538 6.15981 50.018 6.08912C49.882 6.01841 49.7282 5.98564 49.5736 5.99453C49.4199 5.9853 49.2664 6.01798 49.1312 6.08876C48.996 6.15953 48.8846 6.26549 48.81 6.39435C48.6378 6.71295 48.5552 7.06889 48.5707 7.42716V7.51935ZM52.2694 9.07935L52.7339 9.00898L54.0866 7.44462L52.7801 5.94162L52.3165 5.86662V5.09316H54.5569V5.8358L54.1 5.88844L54.8547 6.80262L55.5952 5.88844L55.1308 5.8358V5.09316H57.3803V5.86662L56.9294 5.94135L55.6506 7.44435L56.9988 9.00898L57.4682 9.07935V9.84844H55.191V9.11017L55.6478 9.05753L54.8749 8.09944L54.0866 9.06189L54.4863 9.11017V9.84844H52.2689L52.2694 9.07935Z" fill="white"/>
</g>
<path fill-rule="evenodd" clip-rule="evenodd" d="M99.5661 3.02556C98.1052 3.23912 96.9387 4.22422 96.5723 5.55403C96.4262 6.08391 96.4238 6.69935 96.5654 7.23074C96.9283 8.59213 98.1176 9.59357 99.6072 9.79221C99.8209 9.82067 100.327 9.8248 100.544 9.79978C101.169 9.72742 101.778 9.49719 102.292 9.13846C102.493 8.99865 102.861 8.65359 103.009 8.46648C103.987 7.23253 103.989 5.57653 103.012 4.35008C102.886 4.19207 102.581 3.89394 102.409 3.76204C102.007 3.45274 101.523 3.2226 101.014 3.0991C100.804 3.04824 100.489 3 100.366 3H100.291L100.303 3.07898C100.335 3.2881 100.425 3.50104 100.514 3.57956C100.538 3.60092 100.617 3.62638 100.728 3.64899C101.129 3.73048 101.569 3.9183 101.892 4.14593C102.113 4.30148 102.407 4.58362 102.559 4.78479C102.797 5.10129 102.989 5.53603 103.063 5.92504C103.106 6.1532 103.114 6.59055 103.08 6.79931C102.924 7.73783 102.325 8.5135 101.438 8.92628C101.177 9.04799 100.96 9.11955 100.703 9.16861C100.357 9.23482 99.8879 9.23826 99.5399 9.17718C99.1567 9.1099 98.6862 8.922 98.3629 8.70705C98.1475 8.5638 97.8032 8.24099 97.6494 8.03803C97.5045 7.84679 97.3191 7.50382 97.2464 7.29254C96.8554 6.1548 97.2553 4.91547 98.2477 4.18961C98.6028 3.92994 99.0424 3.73402 99.4466 3.65527C99.5528 3.63461 99.6091 3.61418 99.6448 3.5834C99.7411 3.50053 99.8696 3.19816 99.8696 3.0547C99.8696 3.00118 99.868 3.00003 99.7943 3.00161C99.7529 3.00249 99.6502 3.01327 99.5661 3.02556ZM99.6386 3.98047C99.3825 4.0253 99.1832 4.08802 98.9523 4.19644C98.674 4.32712 98.4627 4.46948 98.2478 4.67106C97.5193 5.35441 97.279 6.33309 97.6191 7.23162C97.7527 7.58456 97.944 7.86355 98.2466 8.14671C98.5595 8.43953 98.8883 8.6349 99.2705 8.755C99.4442 8.80959 99.7441 8.86939 99.844 8.86939C99.9024 8.86939 99.9052 8.86685 99.8944 8.82367C99.8669 8.71389 99.8155 8.59925 99.7561 8.5153C99.694 8.42764 99.6881 8.424 99.5637 8.39575C99.1842 8.30965 98.8479 8.12975 98.5557 7.85665C98.2488 7.56976 98.0565 7.23446 97.9618 6.82086C97.9173 6.62669 97.9169 6.20338 97.961 6.00952C98.127 5.2803 98.6412 4.72588 99.3773 4.48233C99.6209 4.40174 99.8087 4.37344 100.1 4.37344C100.273 4.37344 100.408 4.38293 100.513 4.40231C101.389 4.56498 102.047 5.17261 102.238 5.99559C102.253 6.06269 102.27 6.21487 102.275 6.33375C102.298 6.90185 102.092 7.42067 101.68 7.82698C101.385 8.11779 101.026 8.30665 100.563 8.41502C100.468 8.43704 100.349 8.62233 100.305 8.81535C100.292 8.86835 100.293 8.86939 100.355 8.86939C100.39 8.86939 100.497 8.85504 100.593 8.8375C101.126 8.74066 101.602 8.49408 101.997 8.1106C102.756 7.37489 102.947 6.3043 102.486 5.36975C102.397 5.18955 102.187 4.89804 102.032 4.74143C101.638 4.34218 101.122 4.07656 100.556 3.98085C100.301 3.9378 99.8833 3.93764 99.6386 3.98047Z" fill="white"/>
<path fill-rule="evenodd" clip-rule="evenodd" d="M69.859 3.29708C69.7854 3.46051 69.6985 3.65046 69.666 3.71926C69.6335 3.78806 69.4074 4.29466 69.1636 4.84505C68.9198 5.39543 68.6522 5.98647 68.5691 6.15847C68.4859 6.33047 68.2746 6.78078 68.0996 7.15917C67.9245 7.53756 67.6054 8.22486 67.3906 8.68656C67.1758 9.14819 67 9.56337 67 9.60909C67 9.66706 67.1001 9.69221 67.3307 9.69221H67.6614L67.794 9.30131C67.9145 8.94643 68.0718 8.53802 68.4597 7.5734C68.5341 7.38846 68.6136 7.21959 68.6363 7.19814C68.659 7.17668 69.1779 7.1506 69.7891 7.1401C70.6289 7.12571 70.9268 7.14097 71.0078 7.20264C71.1113 7.28151 71.5624 8.32249 71.8832 9.22312L72.0392 9.66093L72.5534 9.6792C73.0794 9.6979 73.131 9.67244 73.0032 9.45679C72.9205 9.31713 72.6675 8.77018 72.6675 8.7309C72.6675 8.71445 72.5049 8.34 72.3062 7.89882C72.1074 7.45757 71.8056 6.75889 71.6353 6.3461C71.4652 5.93331 71.2858 5.51114 71.2368 5.40794C71.1877 5.30475 70.9789 4.81221 70.7729 4.31342C70.2722 3.10163 70.2199 3 70.0978 3C70.036 3 69.938 3.1219 69.859 3.29708ZM83.9358 3.03684C82.2892 3.3191 81.1997 4.19059 80.829 5.52152C80.6846 6.04014 80.6882 7.04759 80.8361 7.5365C81.174 8.65291 82.0417 9.42865 83.2733 9.71541C84.078 9.90273 85.5465 9.82255 86.6695 9.52984L87.0362 9.43428V8.20291V6.97154L86.6195 6.9529L86.2028 6.93433V7.99288C86.2028 8.86725 86.185 9.06526 86.1006 9.13093C85.9897 9.2173 84.9512 9.43922 84.6498 9.44097C84.5473 9.44153 84.2349 9.39775 83.9553 9.34359C82.8236 9.12424 82.0758 8.35695 81.8267 7.15917C81.7097 6.59678 81.7118 6.27461 81.8363 5.66425C82.1055 4.34482 82.9929 3.535 84.2562 3.45594C85.2104 3.39628 85.9203 3.6145 86.4672 4.13561C86.642 4.30217 86.8115 4.43839 86.8439 4.4382C86.8764 4.43801 86.9499 4.25294 87.0074 4.02691L87.1119 3.616L86.8059 3.47052C86.1797 3.17287 85.6716 3.05798 84.8693 3.03252C84.4475 3.01914 84.0275 3.02108 83.9358 3.03684ZM88.9074 3.07299C88.8754 3.16437 88.6461 4.69607 88.5017 5.78321C88.3453 6.95991 88.2046 7.8394 87.9463 9.2544C87.9118 9.44359 87.8972 9.61947 87.9139 9.6453C87.9306 9.67113 88.1075 9.69221 88.307 9.69221C88.6382 9.69221 88.67 9.67995 88.6719 9.55148C88.682 8.8523 89.1099 5.00722 89.1697 5.07771C89.186 5.09697 89.5951 5.81723 90.1389 6.78391C90.7219 7.82039 91.4035 9.11411 91.4035 9.18428C91.4035 9.31995 91.6316 9.69221 91.7147 9.69221C91.7622 9.69221 91.8213 9.61478 91.846 9.52021C91.9295 9.20079 93.2832 6.59071 93.6415 6.05827C93.7308 5.92556 93.8039 5.80372 93.8039 5.78758C93.8039 5.77145 93.9076 5.59664 94.0345 5.39912C94.1802 5.17234 94.2773 5.07327 94.2983 5.13019C94.3487 5.26678 94.5873 7.49603 94.723 9.09803L94.7707 9.66093L95.198 9.67982C95.4531 9.69108 95.6432 9.6715 95.6698 9.63129C95.6942 9.5942 95.6905 9.41683 95.6616 9.23714C95.6326 9.05744 95.5761 8.61488 95.5359 8.25369C95.4957 7.8925 95.4215 7.24517 95.3711 6.81518C95.3207 6.38519 95.233 5.62528 95.1763 5.1265C94.919 2.86328 94.9333 2.93596 94.771 3.06229C94.7228 3.09988 94.4818 3.50229 94.2356 3.95655C93.9893 4.41081 93.7051 4.92323 93.6041 5.09522C93.503 5.26722 93.2793 5.66125 93.1069 5.97084C92.3688 7.29658 91.8992 8.06368 91.8369 8.04536C91.7502 8.01978 91.6422 7.82814 90.4571 5.59557C89.0858 3.01226 89.1021 3.04134 89.0146 3.01401C88.9717 3.00056 88.9235 3.02714 88.9074 3.07299ZM104.585 3.04691C104.562 3.0835 104.464 7.43168 104.443 9.31694L104.439 9.66093H104.772H105.106L105.08 7.23735C105.062 5.6159 105.076 4.81378 105.121 4.81378C105.159 4.81378 105.301 4.93336 105.438 5.07959C105.686 5.34552 105.795 5.45629 107.181 6.85046C107.898 7.57184 109.171 8.92873 109.693 9.52672C110.153 10.0543 110.14 10.1212 110.14 7.26281C110.14 5.85782 110.159 4.36615 110.183 3.94798L110.227 3.18763H109.885H109.544L109.586 5.5643C109.614 7.1618 109.605 7.94097 109.56 7.94097C109.522 7.94097 109.33 7.77748 109.132 7.57765C108.935 7.37776 108.413 6.85014 107.973 6.40508C107.533 5.96008 107.113 5.53635 107.039 5.46354C106.818 5.24351 106.058 4.43826 105.57 3.90689C104.744 3.00619 104.656 2.9297 104.585 3.04691ZM74.1796 3.17525L73.7914 3.19414L73.8166 5.64573C73.8397 7.8798 73.8531 8.12229 73.9683 8.37878C74.2601 9.02855 74.5934 9.35453 75.2679 9.65005C75.5285 9.76426 75.6948 9.78177 76.5347 9.78352C77.7426 9.78615 78.0952 9.67907 78.6736 9.13381C79.3295 8.51575 79.4297 7.99013 79.4947 4.82622L79.5286 3.18131L79.1853 3.20008L78.8419 3.2189L78.859 5.03268C78.8838 7.66728 78.7745 8.32468 78.2262 8.83898C77.8354 9.20555 77.5727 9.2858 76.7681 9.28436C75.9438 9.28286 75.6748 9.19529 75.3001 8.80645C74.7449 8.23024 74.6972 7.94572 74.7188 5.33683C74.7328 3.65653 74.7186 3.19695 74.6522 3.17906C74.6058 3.16655 74.3931 3.16487 74.1796 3.17525ZM111.166 3.2189C111.134 3.30159 111.171 3.58297 111.223 3.66228C111.25 3.70318 111.481 3.70706 111.885 3.67335C112.227 3.64483 112.672 3.62944 112.873 3.63914L113.24 3.65671L113.228 6.67708L113.216 9.69752L113.685 9.6792L114.154 9.66093L114.164 6.65882L114.174 3.65671L114.707 3.65834C115 3.65928 115.45 3.67129 115.707 3.68498L116.174 3.71V3.43462V3.1593L113.682 3.1578C112.079 3.15686 111.181 3.17869 111.166 3.2189ZM70.0264 4.79839C70.0956 4.96163 70.1921 5.17966 70.2407 5.28285C70.3469 5.50801 70.8006 6.62742 70.8006 6.6642C70.8006 6.67846 70.3655 6.69009 69.8337 6.69009C69.302 6.69009 68.8669 6.67446 68.8669 6.65532C68.8669 6.63618 68.9972 6.33366 69.1564 5.98297C69.3155 5.63229 69.529 5.15545 69.6306 4.92323C69.7323 4.691 69.8345 4.50118 69.858 4.50131C69.8813 4.50143 69.9571 4.63509 70.0264 4.79839Z" fill="white"/>
<g clip-path="url(#clip1_2120_5094)">
<path d="M160.737 4.08398L159.071 9.71082H155L155.825 6.94264L160.737 4.08398Z" fill="white"/>
<path d="M169.401 2.29785C170.355 2.30237 171.027 2.48783 171.406 2.86325C171.785 3.23867 171.878 3.77241 171.667 4.4735C171.529 4.95296 171.247 5.39171 170.852 5.73999C170.442 6.10185 169.94 6.36419 169.381 6.49989C169.806 6.58583 170.068 6.85269 170.15 7.30954L170.165 7.40905L170.473 9.71134H168.576L168.258 7.23264C168.253 7.15122 168.227 7.06981 168.181 6.99744C168.135 6.92507 168.068 6.86626 167.991 6.82103C167.833 6.74866 167.658 6.71248 167.479 6.70795H167.371H166.202L165.31 9.70682H163.536L165.741 2.29785H169.401V2.29785ZM218 4.2383L215.744 7.10599L213.083 10.5074L213.062 10.5255L212.468 11.2854L212.447 11.3126L212.422 11.3487L211.909 12.0001H210.145L212.206 9.43543L211.273 4.41922H213.104L213.565 7.68948L215.8 4.88963L215.831 4.84893L215.867 4.80369L215.903 4.76299L216.18 4.24282H218V4.2383ZM202.373 4.63634C202.711 4.88963 202.932 5.23792 203.009 5.62691C203.101 6.11089 203.06 6.61297 202.901 7.08338C202.752 7.60354 202.501 8.09205 202.152 8.52627C201.834 8.92431 201.424 9.2545 200.948 9.48971C200.496 9.70682 199.999 9.8199 199.486 9.8199C199.122 9.83347 198.763 9.75205 198.451 9.58922C198.21 9.46257 198.025 9.26807 197.923 9.03739L197.892 8.94693L196.984 12.0001H195.226L197.025 5.93901L197.036 5.91187L197.041 5.88473L197.482 4.4147H199.199L198.907 5.26506L198.902 5.30124C199.153 4.98462 199.491 4.7268 199.881 4.55944C200.271 4.37851 200.701 4.28805 201.137 4.28805C201.573 4.26544 202.014 4.39208 202.373 4.63634ZM200.25 5.47765C200.045 5.47312 199.84 5.50931 199.645 5.57716C199.456 5.64501 199.281 5.74904 199.133 5.87569C198.784 6.19231 198.543 6.59487 198.435 7.02458C198.281 7.52665 198.292 7.9066 198.446 8.16894C198.599 8.43128 198.892 8.56698 199.327 8.56698C199.743 8.57603 200.143 8.43581 200.445 8.17799C200.783 7.86589 201.019 7.47689 201.127 7.05171C201.276 6.55869 201.265 6.16517 201.112 5.88926C200.958 5.61334 200.671 5.47765 200.25 5.47765ZM208.146 4.51873C208.382 4.64991 208.566 4.8444 208.669 5.07508L208.705 5.16103L208.93 4.41018H210.653L209.074 9.7023H207.346L207.577 8.91979C207.315 9.1957 206.987 9.41282 206.618 9.56208C206.259 9.70682 205.875 9.78372 205.485 9.78372C205.034 9.80181 204.583 9.68873 204.213 9.449C203.875 9.2138 203.649 8.87003 203.578 8.49461C203.485 8.01515 203.516 7.52665 203.675 7.06076C203.829 6.5406 204.085 6.04757 204.439 5.60882C204.762 5.20626 205.177 4.86702 205.659 4.62277C206.1 4.39661 206.603 4.27448 207.11 4.27448C207.479 4.26544 207.838 4.34685 208.146 4.51873ZM207.254 5.49122C207.043 5.49122 206.833 5.5274 206.644 5.59977C206.449 5.67214 206.274 5.77618 206.126 5.90735C205.782 6.2285 205.536 6.62654 205.428 7.06076C205.285 7.54926 205.285 7.92017 205.449 8.18703C205.608 8.4539 205.905 8.58055 206.346 8.58055C206.551 8.58507 206.756 8.54889 206.951 8.48104C207.146 8.41319 207.315 8.30916 207.464 8.18251C207.766 7.89755 207.987 7.55831 208.11 7.17836L208.151 7.03815C208.305 6.53607 208.3 6.1516 208.135 5.89378C207.977 5.62691 207.684 5.49122 207.254 5.49122ZM196.595 4.3559L196.708 4.39661L196.267 5.8395C196.015 5.7219 195.739 5.6631 195.462 5.6631C195.041 5.64953 194.631 5.77165 194.298 6.00234C194.011 6.21945 193.801 6.50893 193.693 6.82556L193.657 6.94768L192.837 9.71134H191.083L192.673 4.41922H194.4L194.175 5.19721C194.39 4.93487 194.667 4.72228 194.98 4.56397C195.328 4.38756 195.718 4.2971 196.118 4.2971C196.277 4.28805 196.441 4.30614 196.595 4.3559ZM190.119 4.6092C190.509 4.82631 190.791 5.17007 190.899 5.56811C191.027 6.04757 191.006 6.55416 190.842 7.02458C190.688 7.55831 190.417 8.05586 190.032 8.48104C189.668 8.89265 189.207 9.21832 188.679 9.43995C188.14 9.66159 187.556 9.77467 186.961 9.77015C186.336 9.77015 185.823 9.66159 185.423 9.43995C185.028 9.22284 184.746 8.87908 184.634 8.48104C184.51 8.00158 184.531 7.49499 184.69 7.02458C184.844 6.49536 185.115 5.99781 185.5 5.56811C185.864 5.16103 186.331 4.83083 186.864 4.6092C187.407 4.38756 188.002 4.26996 188.602 4.279C189.13 4.25639 189.658 4.37399 190.119 4.6092ZM188.243 5.47312C187.828 5.4686 187.428 5.60882 187.125 5.86212C186.813 6.12446 186.577 6.50893 186.428 7.02458C186.12 8.06038 186.418 8.57603 187.32 8.57603C187.73 8.58507 188.125 8.44485 188.422 8.19156C188.73 7.93374 188.956 7.54474 189.109 7.02458C189.263 6.51346 189.268 6.12899 189.115 5.86212C188.966 5.59525 188.674 5.47312 188.243 5.47312ZM184.68 4.4147L184.372 5.46408L180.501 8.48104H183.608L183.239 9.71587H178.097L178.42 8.62578L182.229 5.65405H179.332L179.701 4.41922H184.68V4.4147ZM176 4.51873C176.236 4.64991 176.42 4.8444 176.523 5.07508L176.559 5.16103L176.784 4.41018H178.512L176.938 9.7023H175.21L175.441 8.91979C175.179 9.19118 174.856 9.40829 174.492 9.55756C174.128 9.70682 173.734 9.78372 173.329 9.78372C172.877 9.80181 172.437 9.68421 172.073 9.449C171.734 9.2138 171.509 8.87003 171.437 8.49461C171.344 8.01515 171.375 7.52665 171.534 7.06076C171.683 6.5406 171.944 6.04757 172.298 5.60882C172.621 5.20626 173.036 4.86702 173.513 4.62277C173.954 4.39661 174.457 4.279 174.964 4.279C175.333 4.26996 175.692 4.35138 176 4.51873ZM175.113 5.49122C174.903 5.49122 174.698 5.5274 174.503 5.59977C174.308 5.67214 174.134 5.77618 173.985 5.90735C173.636 6.2285 173.395 6.62654 173.288 7.06076C173.144 7.54926 173.149 7.92017 173.308 8.18703C173.467 8.4539 173.764 8.58055 174.205 8.58055C174.41 8.58507 174.615 8.54889 174.81 8.48104C175 8.41319 175.179 8.30916 175.323 8.18251C175.625 7.90207 175.851 7.55831 175.969 7.17836L176.01 7.03815C176.159 6.53607 176.143 6.16065 175.995 5.89378C175.836 5.62691 175.538 5.49122 175.113 5.49122ZM168.766 3.53268H167.12L166.541 5.4686H168.186C168.704 5.4686 169.114 5.39171 169.391 5.2334C169.683 5.06604 169.894 4.80369 169.97 4.49612C170.073 4.17045 170.027 3.92167 169.832 3.76336C169.637 3.6141 169.283 3.53268 168.766 3.53268Z" fill="white"/>
<path d="M164.434 0L161.542 9.71127H159.558L161.512 3.13456L158.518 4.87599L159.051 3.14361L164.434 0Z" fill="white"/>
</g>
</g>
<defs>
<filter id="filter0_d_2120_5094" x="0.467773" y="0" width="221.532" height="21" filterUnits="userSpaceOnUse" color-interpolation-filters="sRGB">
<feFlood flood-opacity="0" result="BackgroundImageFix"/>
<feColorMatrix in="SourceAlpha" type="matrix" values="0 0 0 0 0 0 0 0 0 0 0 0 0 0 0 0 0 0 127 0" result="hardAlpha"/>
<feOffset dy="4"/>
<feGaussianBlur stdDeviation="2"/>
<feComposite in2="hardAlpha" operator="out"/>
<feColorMatrix type="matrix" values="0 0 0 0 0 0 0 0 0 0 0 0 0 0 0 0 0 0 0.25 0"/>
<feBlend mode="normal" in2="BackgroundImageFix" result="effect1_dropShadow_2120_5094"/>
<feBlend mode="normal" in="SourceGraphic" in2="effect1_dropShadow_2120_5094" result="shape"/>
</filter>
<clipPath id="clip0_2120_5094">
<rect width="14" height="11" fill="white" transform="translate(128)"/>
</clipPath>
<clipPath id="clip1_2120_5094">
<rect width="63" height="12" fill="white" transform="translate(155 1)"/>
</clipPath>
</defs>
</svg>
