<svg width="252" height="34" viewBox="0 0 252 34" fill="none" xmlns="http://www.w3.org/2000/svg">
<path fill-rule="evenodd" clip-rule="evenodd" d="M108.188 14.0261C106.789 14.2441 105.671 15.2499 105.32 16.6076C105.181 17.1486 105.178 17.7769 105.314 18.3194C105.661 19.7094 106.8 20.7318 108.227 20.9346C108.432 20.9637 108.917 20.9679 109.124 20.9424C109.723 20.8685 110.306 20.6334 110.798 20.2672C110.99 20.1244 111.343 19.7721 111.485 19.5811C112.422 18.3213 112.423 16.6306 111.488 15.3784C111.367 15.2171 111.075 14.9127 110.91 14.778C110.525 14.4622 110.061 14.2273 109.574 14.1012C109.374 14.0492 109.072 14 108.954 14H108.882L108.894 14.0806C108.924 14.2941 109.01 14.5115 109.095 14.5917C109.119 14.6135 109.194 14.6395 109.3 14.6626C109.684 14.7458 110.106 14.9376 110.415 15.17C110.626 15.3288 110.908 15.6168 111.054 15.8222C111.282 16.1453 111.466 16.5892 111.536 16.9864C111.578 17.2193 111.586 17.6658 111.553 17.879C111.403 18.8372 110.83 19.6291 109.981 20.0505C109.73 20.1748 109.522 20.2479 109.277 20.298C108.945 20.3656 108.496 20.3691 108.163 20.3067C107.796 20.238 107.345 20.0462 107.035 19.8267C106.829 19.6805 106.499 19.3509 106.352 19.1437C106.213 18.9484 106.036 18.5983 105.966 18.3825C105.592 17.221 105.975 15.9556 106.925 15.2145C107.265 14.9494 107.686 14.7494 108.073 14.669C108.175 14.6479 108.229 14.6271 108.263 14.5956C108.355 14.511 108.478 14.2023 108.478 14.0559C108.478 14.0012 108.477 14 108.406 14.0016C108.367 14.0025 108.268 14.0135 108.188 14.0261ZM108.257 15.001C108.012 15.0468 107.821 15.1108 107.6 15.2215C107.333 15.3549 107.131 15.5003 106.925 15.7061C106.227 16.4038 105.997 17.403 106.323 18.3203C106.451 18.6807 106.634 18.9655 106.924 19.2546C107.224 19.5536 107.539 19.7531 107.905 19.8757C108.071 19.9314 108.358 19.9925 108.454 19.9925C108.51 19.9925 108.512 19.9899 108.502 19.9458C108.476 19.8337 108.426 19.7167 108.37 19.6309C108.31 19.5414 108.305 19.5377 108.185 19.5089C107.822 19.421 107.5 19.2373 107.22 18.9585C106.926 18.6656 106.742 18.3232 106.651 17.901C106.609 17.7027 106.608 17.2705 106.65 17.0726C106.809 16.3281 107.302 15.7621 108.007 15.5134C108.24 15.4311 108.42 15.4022 108.699 15.4022C108.864 15.4022 108.994 15.4119 109.094 15.4317C109.934 15.5978 110.564 16.2182 110.746 17.0584C110.761 17.1269 110.777 17.2823 110.782 17.4036C110.804 17.9837 110.606 18.5134 110.212 18.9282C109.93 19.2251 109.586 19.4179 109.142 19.5286C109.052 19.551 108.938 19.7402 108.895 19.9373C108.883 19.9914 108.884 19.9925 108.943 19.9925C108.976 19.9925 109.079 19.9778 109.171 19.9599C109.681 19.861 110.138 19.6093 110.516 19.2178C111.242 18.4666 111.425 17.3736 110.984 16.4194C110.899 16.2355 110.697 15.9378 110.549 15.7779C110.172 15.3703 109.678 15.0991 109.135 15.0014C108.891 14.9575 108.491 14.9573 108.257 15.001Z" fill="white"/>
<path fill-rule="evenodd" clip-rule="evenodd" d="M79.7381 14.3033C79.6676 14.4702 79.5844 14.6641 79.5532 14.7343C79.522 14.8046 79.3056 15.3218 79.072 15.8837C78.8386 16.4457 78.5823 17.0491 78.5027 17.2247C78.423 17.4003 78.2207 17.8601 78.053 18.2464C77.8854 18.6327 77.5798 19.3344 77.3741 19.8058C77.1683 20.2771 77 20.701 77 20.7477C77 20.8069 77.0958 20.8325 77.3167 20.8325H77.6334L77.7605 20.4334C77.8758 20.0711 78.0265 19.6541 78.3979 18.6693C78.4692 18.4805 78.5453 18.3081 78.5671 18.2862C78.5888 18.2643 79.0857 18.2376 79.6711 18.2269C80.4754 18.2122 80.7606 18.2278 80.8382 18.2908C80.9374 18.3713 81.3694 19.4341 81.6766 20.3536L81.826 20.8006L82.3184 20.8192C82.8222 20.8383 82.8716 20.8123 82.7492 20.5922C82.67 20.4496 82.4277 19.8912 82.4277 19.8511C82.4277 19.8343 82.272 19.452 82.0817 19.0015C81.8913 18.551 81.6022 17.8377 81.4392 17.4163C81.2763 16.9948 81.1045 16.5638 81.0575 16.4584C81.0105 16.3531 80.8106 15.8502 80.6133 15.341C80.1338 14.1038 80.0837 14 79.9667 14C79.9075 14 79.8137 14.1245 79.7381 14.3033ZM93.2192 14.0376C91.6423 14.3258 90.5989 15.2156 90.2439 16.5744C90.1056 17.1039 90.109 18.1325 90.2507 18.6316C90.5743 19.7714 91.4053 20.5634 92.5848 20.8562C93.3554 21.0475 94.7618 20.9656 95.8373 20.6668L96.1885 20.5692V19.312V18.0548L95.7894 18.0358L95.3903 18.0168V19.0976C95.3903 19.9903 95.3733 20.1924 95.2925 20.2595C95.1862 20.3477 94.1917 20.5742 93.903 20.576C93.8049 20.5766 93.5057 20.5319 93.2379 20.4766C92.1541 20.2526 91.4379 19.4693 91.1994 18.2464C91.0874 17.6722 91.0893 17.3433 91.2086 16.7201C91.4663 15.373 92.3163 14.5462 93.5261 14.4655C94.4399 14.4046 95.1198 14.6274 95.6435 15.1594C95.8109 15.3295 95.9733 15.4685 96.0043 15.4684C96.0354 15.4682 96.1058 15.2792 96.1609 15.0484L96.261 14.6289L95.9679 14.4804C95.3682 14.1765 94.8816 14.0592 94.1132 14.0332C93.7093 14.0195 93.307 14.0215 93.2192 14.0376ZM97.9805 14.0745C97.9498 14.1678 97.7302 15.7316 97.5919 16.8416C97.4422 18.0429 97.3074 18.9409 97.0601 20.3855C97.027 20.5787 97.013 20.7583 97.029 20.7846C97.045 20.811 97.2144 20.8325 97.4055 20.8325C97.7227 20.8325 97.7531 20.82 97.7549 20.6889C97.7646 19.975 98.1744 16.0493 98.2317 16.1213C98.2473 16.1409 98.6391 16.8763 99.1599 17.8632C99.7182 18.9215 100.371 20.2423 100.371 20.314C100.371 20.4525 100.589 20.8325 100.669 20.8325C100.715 20.8325 100.771 20.7535 100.795 20.6569C100.875 20.3308 102.171 17.666 102.514 17.1224C102.6 16.9869 102.67 16.8625 102.67 16.846C102.67 16.8296 102.769 16.6511 102.891 16.4494C103.03 16.2179 103.123 16.1167 103.143 16.1749C103.192 16.3143 103.42 18.5903 103.55 20.2259L103.596 20.8006L104.005 20.8199C104.249 20.8314 104.431 20.8114 104.457 20.7703C104.48 20.7325 104.477 20.5514 104.449 20.3679C104.421 20.1845 104.367 19.7326 104.329 19.3638C104.29 18.9951 104.219 18.3342 104.171 17.8952C104.122 17.4562 104.038 16.6803 103.984 16.1711C103.738 13.8604 103.751 13.9346 103.596 14.0636C103.55 14.102 103.319 14.5128 103.083 14.9766C102.847 15.4404 102.575 15.9636 102.478 16.1392C102.382 16.3148 102.167 16.717 102.002 17.0331C101.295 18.3867 100.846 19.1699 100.786 19.1511C100.703 19.125 100.6 18.9294 99.4647 16.65C98.1513 14.0125 98.1669 14.0422 98.0832 14.0143C98.042 14.0006 97.9959 14.0277 97.9805 14.0745ZM112.994 14.0479C112.973 14.0852 112.879 18.5246 112.858 20.4494L112.855 20.8006H113.174H113.493L113.468 18.3262C113.452 16.6708 113.465 15.8518 113.509 15.8518C113.544 15.8518 113.681 15.9739 113.812 16.1232C114.049 16.3947 114.154 16.5078 115.481 17.9312C116.168 18.6677 117.387 20.053 117.887 20.6636C118.327 21.2022 118.314 21.2705 118.314 18.3522C118.314 16.9177 118.333 15.3948 118.356 14.9679L118.398 14.1916H118.071H117.744L117.784 16.6181C117.811 18.2491 117.803 19.0446 117.759 19.0446C117.723 19.0446 117.539 18.8777 117.35 18.6736C117.16 18.4696 116.661 17.9309 116.239 17.4765C115.818 17.0221 115.415 16.5895 115.345 16.5152C115.133 16.2906 114.405 15.4684 113.938 14.9259C113.147 14.0063 113.063 13.9282 112.994 14.0479ZM83.8758 14.1789L83.5041 14.1982L83.5282 16.7012C83.5503 18.9821 83.5632 19.2297 83.6734 19.4916C83.9529 20.155 84.2721 20.4878 84.918 20.7895C85.1677 20.9061 85.3269 20.924 86.1313 20.9258C87.2881 20.9284 87.6258 20.8191 88.1797 20.2624C88.8078 19.6314 88.9038 19.0948 88.9661 15.8645L88.9985 14.1851L88.6697 14.2043L88.3409 14.2235L88.3572 16.0753C88.381 18.7651 88.2763 19.4363 87.7512 19.9614C87.377 20.3357 87.1253 20.4176 86.3548 20.4161C85.5653 20.4146 85.3078 20.3252 84.9489 19.9282C84.4172 19.3399 84.3715 19.0494 84.3923 16.3858C84.4057 14.6703 84.3921 14.2011 84.3284 14.1828C84.284 14.17 84.0803 14.1683 83.8758 14.1789ZM119.297 14.2235C119.267 14.3079 119.302 14.5952 119.352 14.6762C119.378 14.7179 119.599 14.7219 119.986 14.6875C120.314 14.6584 120.739 14.6426 120.932 14.6525L121.284 14.6705L121.272 17.7542L121.261 20.838L121.71 20.8192L122.159 20.8006L122.168 17.7355L122.178 14.6705L122.688 14.6721C122.969 14.6731 123.4 14.6854 123.646 14.6993L124.093 14.7249V14.4437V14.1626L121.707 14.1611C120.172 14.1601 119.312 14.1824 119.297 14.2235ZM79.8983 15.8361C79.9646 16.0028 80.057 16.2254 80.1036 16.3307C80.2053 16.5606 80.6398 17.7035 80.6398 17.741C80.6398 17.7556 80.2231 17.7675 79.7138 17.7675C79.2046 17.7675 78.7879 17.7515 78.7879 17.732C78.7879 17.7124 78.9127 17.4036 79.0651 17.0455C79.2176 16.6875 79.422 16.2006 79.5193 15.9636C79.6167 15.7265 79.7146 15.5327 79.737 15.5328C79.7594 15.5329 79.832 15.6694 79.8983 15.8361Z" fill="white"/>
<path d="M209.542 14.0859L207.351 22.4701H202L203.085 18.3454L209.542 14.0859Z" fill="white"/>
<path d="M214.401 8L210.599 22.47H207.991L210.559 12.6706L206.623 15.2654L207.324 12.6841L214.401 8Z" fill="white"/>
<path d="M178.86 12.8062C178.486 11.7374 177.472 10.9701 176.285 10.9701H176.258C175.484 10.9701 174.787 11.2951 174.289 11.8145C173.792 11.2951 173.095 10.9701 172.321 10.9701H172.298C171.617 10.9701 170.993 11.2214 170.516 11.6335V11.4258C170.499 11.2147 170.329 11.0505 170.116 11.0505H168.287C168.064 11.0505 167.884 11.2315 167.884 11.456V21.4205C167.884 21.645 168.064 21.8259 168.287 21.8259H170.116C170.319 21.8259 170.489 21.6718 170.513 21.4775V14.324C170.513 14.2972 170.513 14.2771 170.516 14.2537C170.546 13.9354 170.78 13.6707 171.147 13.6405H171.484C171.637 13.6539 171.767 13.7075 171.867 13.7913C172.027 13.9186 172.114 14.113 172.114 14.3274L172.121 21.444C172.121 21.6685 172.301 21.8527 172.524 21.8527H174.353C174.57 21.8527 174.743 21.6819 174.753 21.4674V14.3207C174.753 14.0861 174.86 13.8717 175.05 13.7477C175.143 13.6874 175.257 13.6472 175.387 13.6338H175.724C176.121 13.6673 176.358 13.9689 176.358 14.3207L176.365 21.4306C176.365 21.6551 176.545 21.836 176.768 21.836H178.597C178.81 21.836 178.987 21.6685 179 21.4574V13.6606C178.99 13.2217 178.934 13.0173 178.86 12.8062ZM166.489 11.0773H165.445V9.37526C165.445 9.37191 165.445 9.37191 165.445 9.36856C165.445 9.16753 165.281 9 165.074 9C165.051 9 165.028 9.00335 165.004 9.0067C163.847 9.325 164.077 10.9366 161.962 11.074H161.758C161.728 11.074 161.698 11.0773 161.668 11.084H161.665H161.668C161.491 11.1276 161.354 11.2884 161.354 11.4828V13.3189C161.354 13.5434 161.535 13.7243 161.758 13.7243H162.859L162.856 21.5043C162.856 21.7254 163.036 21.9064 163.256 21.9064H165.064C165.285 21.9064 165.465 21.7254 165.465 21.5043V13.7243H166.489C166.709 13.7243 166.893 13.54 166.893 13.3189V11.4828C166.893 11.2583 166.713 11.0773 166.489 11.0773Z" fill="white"/>
<path d="M159.916 11.0766H158.088C157.868 11.0766 157.684 11.2575 157.684 11.482V15.2782C157.681 15.5127 157.491 15.7004 157.257 15.7004H156.493C156.256 15.7004 156.063 15.5094 156.063 15.2715L156.056 11.482C156.056 11.2575 155.876 11.0766 155.652 11.0766H153.824C153.601 11.0766 153.42 11.2575 153.42 11.482V15.6401C153.42 17.2182 154.541 18.3473 156.116 18.3473C156.116 18.3473 157.297 18.3473 157.334 18.354C157.547 18.3775 157.711 18.5584 157.711 18.7795C157.711 18.9973 157.551 19.1782 157.337 19.2051C157.327 19.2051 157.317 19.2084 157.307 19.2118L154.635 19.2218C154.411 19.2218 154.231 19.4027 154.231 19.6272V21.46C154.231 21.6845 154.411 21.8654 154.635 21.8654H157.621C159.196 21.8654 160.317 20.7396 160.317 19.1615V11.482C160.32 11.2575 160.14 11.0766 159.916 11.0766ZM149.52 11.0866H146.985C146.761 11.0866 146.578 11.2575 146.578 11.4653V12.1789C146.578 12.1823 146.578 12.189 146.578 12.1923C146.578 12.199 146.578 12.2024 146.578 12.2091V13.1874C146.578 13.4086 146.771 13.5929 147.008 13.5929H149.424C149.614 13.623 149.764 13.7637 149.787 13.9815V14.2194C149.767 14.4272 149.617 14.5779 149.434 14.5947H148.239C146.648 14.5947 145.517 15.6568 145.517 17.1445V19.2788C145.517 20.7597 146.491 21.8118 148.069 21.8118H151.382C151.976 21.8118 152.46 21.3595 152.46 20.8033V13.8408C152.46 12.1521 151.592 11.0866 149.52 11.0866ZM149.811 18.746V19.0342C149.811 19.0576 149.807 19.0811 149.804 19.1012C149.801 19.1213 149.794 19.1414 149.787 19.1615C149.73 19.3223 149.57 19.4396 149.38 19.4396H148.619C148.383 19.4396 148.189 19.2587 148.189 19.0342V18.6891C148.189 18.6857 148.189 18.679 148.189 18.6757V17.7543V17.4661V17.4628C148.189 17.2416 148.383 17.0607 148.619 17.0607H149.38C149.617 17.0607 149.811 17.2416 149.811 17.4661V18.746ZM142.391 11.0732H138.397C138.177 11.0732 138 11.2542 138 11.472V13.2712C138 13.2746 138 13.2779 138 13.2813C138 13.2913 138 13.298 138 13.3047V21.4432C138 21.6644 138.163 21.8453 138.37 21.8486H140.232C140.456 21.8486 140.636 21.6677 140.636 21.4432L140.642 18.6556H142.391C143.852 18.6556 144.873 17.637 144.873 16.1594V13.5728C144.873 12.0985 143.852 11.0732 142.391 11.0732ZM142.23 14.4372V15.5697C142.23 15.8076 142.04 16.0019 141.803 16.0019H140.646V13.7336H141.803C142.04 13.7336 142.23 13.9246 142.23 14.1625V14.4372Z" fill="white"/>
<path d="M46.1462 7.02551C38.7191 10.3249 38.8455 10.2547 38.7472 10.6057C38.6489 11.0269 38.8174 11.1813 40.0389 11.7148C40.5864 11.9535 41.5271 12.3747 42.1448 12.6415C42.7626 12.9082 44.4333 13.6383 45.8514 14.2701C47.2694 14.9019 48.533 15.4073 48.6593 15.3933C48.7857 15.3933 51.0321 14.4245 53.6575 13.2592C58.0239 11.3077 58.4311 11.0971 58.4732 10.7601C58.5294 10.2968 58.4451 10.2406 56.6761 9.46845C55.8618 9.10341 53.7558 8.19082 51.9868 7.40459C50.2178 6.63239 48.7015 6.0006 48.6172 6.0006C48.533 6.0006 47.4238 6.46392 46.1462 7.02551ZM52.8713 8.73837C55.0756 9.70712 56.9288 10.5495 57.0131 10.6338C57.0973 10.718 56.9288 10.8584 56.5217 11.0269C56.1847 11.1813 54.3315 12.0097 52.408 12.8661C50.4845 13.7225 48.7717 14.4245 48.6172 14.4245C48.2381 14.4245 40.2073 10.8865 40.2214 10.718C40.2354 10.5355 48.1118 7.02551 48.533 6.99743C48.7295 6.99743 50.6811 7.76962 52.8713 8.73837Z" fill="white"/>
<path d="M57.9401 12.7532C57.5891 12.9076 55.6095 13.7781 53.5175 14.6626C51.4396 15.5611 49.6144 16.3895 49.4881 16.5018C49.2494 16.6984 49.2354 17.1336 49.2354 21.7948C49.2354 27.0598 49.2494 27.2002 49.825 27.2002C50.162 27.2002 58.7825 23.4516 59.0913 23.1708C59.33 22.9602 59.3441 22.567 59.3441 17.976C59.3441 13.2024 59.33 13.0059 59.0633 12.7391C58.7263 12.4022 58.7263 12.4022 57.9401 12.7532ZM58.4315 18.0602C58.4315 20.4751 58.3893 22.5249 58.3472 22.5951C58.1787 22.8759 50.2041 26.2034 50.1339 26.0349C50.1058 25.9366 50.0918 23.8868 50.1058 21.4719L50.1479 17.0634L53.9949 15.4067C56.1008 14.4801 57.8699 13.6938 57.912 13.6517C57.9541 13.6096 58.0945 13.5956 58.2068 13.6096C58.4034 13.6517 58.4315 14.2274 58.4315 18.0602Z" fill="white"/>
<path d="M38.1441 12.8655C37.9616 13.2025 37.9476 22.539 38.1301 23.0163C38.2284 23.2831 39.1129 23.7043 42.7913 25.2767C45.2904 26.3297 47.4385 27.2002 47.5649 27.2002C48.0984 27.2002 48.1124 27.0036 48.1124 21.7668V16.6703L47.8035 16.4737C47.256 16.1227 38.8742 12.5987 38.5793 12.5987C38.4249 12.5987 38.2284 12.7251 38.1441 12.8655Z" fill="white"/>
</svg>
