<svg width="28" height="18" viewBox="0 0 28 18" fill="none" xmlns="http://www.w3.org/2000/svg">
    <g id="Group 1244832261">
        <g id="Group 1244829456">
            <ellipse id="Ellipse 350" cx="6.20443" cy="12.5927" rx="5.02059" ry="2.7385"
                fill="#303232" />
            <g id="Group 1244828524">
                <g id="Union">
                    <mask id="path-2-inside-1_624_4729" fill="white">
                        <path fill-rule="evenodd" clip-rule="evenodd"
                            d="M1.08871 11.8996C0.849492 11.6307 0.706055 11.2673 0.706055 10.787C0.706055 7.76668 3.15448 5.31825 6.17476 5.31825C9.11688 5.31825 11.5163 7.64158 11.6386 10.5536C11.7514 11.4359 11.2235 12.3404 10.055 13.015C7.92377 14.2455 4.4683 14.2455 2.33704 13.015C1.77014 12.6877 1.35402 12.3063 1.08871 11.8996Z" />
                    </mask>
                    <path fill-rule="evenodd" clip-rule="evenodd"
                        d="M1.08871 11.8996C0.849492 11.6307 0.706055 11.2673 0.706055 10.787C0.706055 7.76668 3.15448 5.31825 6.17476 5.31825C9.11688 5.31825 11.5163 7.64158 11.6386 10.5536C11.7514 11.4359 11.2235 12.3404 10.055 13.015C7.92377 14.2455 4.4683 14.2455 2.33704 13.015C1.77014 12.6877 1.35402 12.3063 1.08871 11.8996Z"
                        fill="#92E1FF" />
                    <path
                        d="M1.08871 11.8996L1.31509 11.7519L1.30407 11.735L1.29065 11.7199L1.08871 11.8996ZM11.6386 10.5536L11.3685 10.565L11.369 10.5765L11.3705 10.5879L11.6386 10.5536ZM10.055 13.015L10.1902 13.2491L10.055 13.015ZM2.33704 13.015L2.20189 13.2491H2.20189L2.33704 13.015ZM1.29065 11.7199C1.10074 11.5065 0.976352 11.2094 0.976352 10.787H0.435757C0.435757 11.3251 0.598247 11.755 0.886761 12.0792L1.29065 11.7199ZM0.976352 10.787C0.976352 7.91596 3.30376 5.58855 6.17476 5.58855V5.04796C3.0052 5.04796 0.435757 7.6174 0.435757 10.787H0.976352ZM6.17476 5.58855C8.97139 5.58855 11.2523 7.79704 11.3685 10.565L11.9086 10.5423C11.7804 7.48611 9.26236 5.04796 6.17476 5.04796V5.58855ZM11.3705 10.5879C11.4644 11.3224 11.0344 12.1375 9.91988 12.7809L10.1902 13.2491C11.4127 12.5433 12.0384 11.5494 11.9067 10.5194L11.3705 10.5879ZM9.91988 12.7809C8.90501 13.3668 7.55784 13.6676 6.19604 13.6676C4.83423 13.6676 3.48706 13.3668 2.47219 12.7809L2.20189 13.2491C3.31828 13.8936 4.76448 14.2082 6.19604 14.2082C7.62759 14.2082 9.07379 13.8936 10.1902 13.2491L9.91988 12.7809ZM2.47219 12.7809C1.93335 12.4698 1.55227 12.1155 1.31509 11.7519L0.862321 12.0473C1.15578 12.4971 1.60692 12.9056 2.20189 13.2491L2.47219 12.7809Z"
                        fill="black" mask="url(#path-2-inside-1_624_4729)" />
                </g>
                <ellipse id="Ellipse 349" cx="6.18659" cy="6.90934" rx="1.48664" ry="0.810892"
                    fill="#3F4748" />
                <path id="Ellipse 348"
                    d="M9.16003 4.0716C9.16003 5.71942 7.88376 7.04487 6.3219 7.04487C4.76005 7.04487 3.48378 5.71942 3.48378 4.0716C3.48378 2.42378 4.76005 1.09833 6.3219 1.09833C7.88376 1.09833 9.16003 2.42378 9.16003 4.0716Z"
                    fill="#92E1FF" stroke="black" stroke-width="0.270297" />
            </g>
        </g>
        <g id="Group 1244832255">
            <ellipse id="Ellipse 350_2" cx="21.7589" cy="12.5927" rx="5.02059" ry="2.7385"
                fill="#303232" />
            <g id="Group 1244828524_2">
                <g id="Union_2">
                    <mask id="path-7-inside-2_624_4729" fill="white">
                        <path fill-rule="evenodd" clip-rule="evenodd"
                            d="M16.641 11.8996C16.4017 11.6307 16.2583 11.2673 16.2583 10.787C16.2583 7.76668 18.7067 5.31825 21.727 5.31825C24.6691 5.31825 27.0686 7.64158 27.1908 10.5536C27.3036 11.4359 26.7758 12.3404 25.6073 13.015C23.476 14.2455 20.0206 14.2455 17.8893 13.015C17.3224 12.6877 16.9063 12.3063 16.641 11.8996Z" />
                    </mask>
                    <path fill-rule="evenodd" clip-rule="evenodd"
                        d="M16.641 11.8996C16.4017 11.6307 16.2583 11.2673 16.2583 10.787C16.2583 7.76668 18.7067 5.31825 21.727 5.31825C24.6691 5.31825 27.0686 7.64158 27.1908 10.5536C27.3036 11.4359 26.7758 12.3404 25.6073 13.015C23.476 14.2455 20.0206 14.2455 17.8893 13.015C17.3224 12.6877 16.9063 12.3063 16.641 11.8996Z"
                        fill="#FFC0AA" />
                    <path
                        d="M16.641 11.8996L16.8673 11.7519L16.8563 11.735L16.8429 11.7199L16.641 11.8996ZM27.1908 10.5536L26.9208 10.565L26.9213 10.5765L26.9227 10.5879L27.1908 10.5536ZM25.6073 13.015L25.7424 13.2491L25.6073 13.015ZM17.8893 13.015L17.7541 13.2491H17.7541L17.8893 13.015ZM16.8429 11.7199C16.653 11.5065 16.5286 11.2094 16.5286 10.787H15.988C15.988 11.3251 16.1505 11.755 16.439 12.0792L16.8429 11.7199ZM16.5286 10.787C16.5286 7.91596 18.856 5.58855 21.727 5.58855V5.04796C18.5574 5.04796 15.988 7.6174 15.988 10.787H16.5286ZM21.727 5.58855C24.5236 5.58855 26.8046 7.79704 26.9208 10.565L27.4609 10.5423C27.3326 7.48611 24.8146 5.04796 21.727 5.04796V5.58855ZM26.9227 10.5879C27.0166 11.3224 26.5866 12.1375 25.4721 12.7809L25.7424 13.2491C26.9649 12.5433 27.5906 11.5494 27.4589 10.5194L26.9227 10.5879ZM25.4721 12.7809C24.4573 13.3668 23.1101 13.6676 21.7483 13.6676C20.3865 13.6676 19.0393 13.3668 18.0244 12.7809L17.7541 13.2491C18.8705 13.8936 20.3167 14.2082 21.7483 14.2082C23.1798 14.2082 24.626 13.8936 25.7424 13.2491L25.4721 12.7809ZM18.0244 12.7809C17.4856 12.4698 17.1045 12.1155 16.8673 11.7519L16.4146 12.0473C16.708 12.4971 17.1592 12.9056 17.7541 13.2491L18.0244 12.7809Z"
                        fill="black" mask="url(#path-7-inside-2_624_4729)" />
                </g>
                <ellipse id="Ellipse 349_2" cx="21.7401" cy="6.90934" rx="1.48664" ry="0.810892"
                    fill="#3F4748" />
                <path id="Ellipse 348_2"
                    d="M24.7135 4.0716C24.7135 5.71942 23.4372 7.04487 21.8754 7.04487C20.3135 7.04487 19.0372 5.71942 19.0372 4.0716C19.0372 2.42378 20.3135 1.09833 21.8754 1.09833C23.4372 1.09833 24.7135 2.42378 24.7135 4.0716Z"
                    fill="#FFC0AA" stroke="black" stroke-width="0.270297" />
            </g>
        </g>
        <g id="Group 1244832254">
            <ellipse id="Ellipse 350_3" cx="13.8908" cy="14.7529" rx="5.95331" ry="3.24726"
                fill="#303232" />
            <g id="Group 1244828524_3">
                <g id="Union_3">
                    <mask id="path-12-inside-3_624_4729" fill="white">
                        <path fill-rule="evenodd" clip-rule="evenodd"
                            d="M7.82401 13.9327C7.53953 13.6137 7.3689 13.1823 7.3689 12.6118C7.3689 9.03042 10.2722 6.12714 13.8536 6.12714C17.3415 6.12714 20.1863 8.88094 20.3324 12.333C20.4671 13.3797 19.8412 14.453 18.4548 15.2534C15.9276 16.7125 11.8302 16.7125 9.30302 15.2534C8.63168 14.8658 8.13867 14.4142 7.82401 13.9327Z" />
                    </mask>
                    <path fill-rule="evenodd" clip-rule="evenodd"
                        d="M7.82401 13.9327C7.53953 13.6137 7.3689 13.1823 7.3689 12.6118C7.3689 9.03042 10.2722 6.12714 13.8536 6.12714C17.3415 6.12714 20.1863 8.88094 20.3324 12.333C20.4671 13.3797 19.8412 14.453 18.4548 15.2534C15.9276 16.7125 11.8302 16.7125 9.30302 15.2534C8.63168 14.8658 8.13867 14.4142 7.82401 13.9327Z"
                        fill="white" />
                    <path
                        d="M7.82401 13.9327L8.09232 13.7574L8.07919 13.7373L8.06322 13.7193L7.82401 13.9327ZM20.3324 12.333L20.0121 12.3465L20.0127 12.3603L20.0145 12.3739L20.3324 12.333ZM18.4548 15.2534L18.6151 15.531L18.4548 15.2534ZM9.30302 15.2534L9.14277 15.531H9.14277L9.30302 15.2534ZM8.06322 13.7193C7.83736 13.4661 7.68941 13.1135 7.68941 12.6118H7.04838C7.04838 13.251 7.2417 13.7613 7.58481 14.146L8.06322 13.7193ZM7.68941 12.6118C7.68941 9.20744 10.4492 6.44765 13.8536 6.44765V5.80662C10.0952 5.80662 7.04838 8.85341 7.04838 12.6118H7.68941ZM13.8536 6.44765C17.1691 6.44765 19.8733 9.06535 20.0121 12.3465L20.6526 12.3194C20.4993 8.69654 17.514 5.80662 13.8536 5.80662V6.44765ZM20.0145 12.3739C20.1266 13.2452 19.6169 14.2124 18.2946 14.9758L18.6151 15.531C20.0656 14.6936 20.8075 13.5142 20.6502 12.2921L20.0145 12.3739ZM18.2946 14.9758C17.0912 15.6706 15.4937 16.0272 13.8789 16.0272C12.2641 16.0272 10.6667 15.6706 9.46328 14.9758L9.14277 15.531C10.4666 16.2953 12.1814 16.6682 13.8789 16.6682C15.5764 16.6682 17.2913 16.2953 18.6151 15.531L18.2946 14.9758ZM9.46328 14.9758C8.82517 14.6074 8.37364 14.1879 8.09232 13.7574L7.5557 14.108C7.9037 14.6406 8.43818 15.1242 9.14277 15.531L9.46328 14.9758Z"
                        fill="black" mask="url(#path-12-inside-3_624_4729)" />
                </g>
                <path id="Vector 289"
                    d="M19.8448 13.4373C19.8448 9.90301 17.1421 7.6161 15.8947 7.6161C15.8947 7.76175 15.6756 7.79782 15.4789 8.0319C15.2264 8.33243 14.9721 8.82455 14.8552 8.86351C16.8511 10.5267 17.2807 13.9224 17.1421 15.5163C19.138 14.851 19.8448 13.6452 19.8448 13.4373Z"
                    fill="#A7EFEA" />
                <ellipse id="Ellipse 349_3" cx="13.869" cy="8.01413" rx="1.76282" ry="0.961538"
                    fill="#3F4748" />
                <path id="Ellipse 348_3"
                    d="M17.3944 4.64908C17.3944 6.60302 15.8811 8.17471 14.0291 8.17471C12.177 8.17471 10.6637 6.60302 10.6637 4.64908C10.6637 2.69513 12.177 1.12344 14.0291 1.12344C15.8811 1.12344 17.3944 2.69513 17.3944 4.64908Z"
                    fill="white" stroke="black" stroke-width="0.320513" />
            </g>
        </g>
    </g>
</svg>
