<svg width="78" height="79" viewBox="0 0 78 79" fill="none" xmlns="http://www.w3.org/2000/svg">
<path d="M67.4868 41.2888C69.4743 44.6012 75.4367 43.2762 73.9079 35.9889C72.7343 30.3949 67.4868 32.8594 68.9137 36.746C69.5941 38.5991 76.0992 41.9513 76.7617 30.689" stroke="#F4F1EC" stroke-width="0.756885" stroke-linecap="round"/>
<path d="M67.4868 47.0524C67.4868 64.3588 53.2497 78.3884 35.6874 78.3884C18.125 78.3884 3.88794 64.3588 3.88794 47.0524C3.88794 37.4884 8.23591 28.9251 15.0903 23.1774C16.7674 21.771 11.1753 16.777 15.8127 13.4646C21.7751 10.8146 23.5127 18.048 25.0876 17.4995C28.403 16.3447 31.9707 15.7164 35.6874 15.7164C53.2497 15.7164 67.4868 29.746 67.4868 47.0524Z" fill="#F4F1EC" stroke="black" stroke-width="1.00918"/>
<path d="M48.9363 31.636L49.7105 30.6897C52.0103 27.8788 56.256 27.7272 58.7505 30.3667V30.3667C60.7423 32.4743 60.9497 35.7019 59.2441 38.0471L56.8861 41.2894" stroke="black" stroke-width="1.00918" stroke-linecap="round"/>
<rect width="24.3401" height="15.3865" rx="7.06426" transform="matrix(0.866025 0.5 -2.20305e-08 1 1.23828 47.7671)" fill="#F4F1EC" stroke="black" stroke-width="1.00918"/>
<ellipse cx="23.7627" cy="51.226" rx="1.32498" ry="3.31244" fill="black"/>
<ellipse cx="11.8382" cy="45.2647" rx="1.32498" ry="2.64995" fill="black"/>
<circle cx="3.01131" cy="3.01131" r="3.01131" transform="matrix(0.866025 0.5 -2.20305e-08 1 4.24951 54.3232)" fill="#636363"/>
<circle cx="3.01131" cy="3.01131" r="3.01131" transform="matrix(0.866025 0.5 -2.20305e-08 1 13.283 60.3477)" fill="#636363"/>
<path d="M31.7125 21.4131L29.0625 23.4006C30.3875 23.4006 35.0249 24.7255 39.6623 27.3755L42.3123 25.388C38.3373 22.0756 34.3624 21.4131 31.7125 21.4131Z" fill="black"/>
<circle cx="53.5744" cy="35.3266" r="3.31244" fill="#DBD4C9"/>
<ellipse cx="18.3921" cy="20.2881" rx="2.64995" ry="3.31244" transform="rotate(-28.3 18.3921 20.2881)" fill="#DBD4C9"/>
<path d="M37.1465 0.944749C38.9111 0.716646 40.6846 1.76953 42.1261 3.687C43.5676 5.60447 44.6628 8.36804 45.0715 11.5301C45.4803 14.6922 45.1231 17.6471 44.2175 19.8656C43.3118 22.0841 41.8634 23.5547 40.0988 23.7828L36.9226 24.1934L33.9703 1.35533L37.1465 0.944749Z" fill="#EAB95B"/>
<path d="M37.1465 0.944749C38.9111 0.716646 40.6846 1.76953 42.1261 3.687C43.5676 5.60447 44.6628 8.36804 45.0715 11.5301C45.4803 14.6922 45.1231 17.6471 44.2175 19.8656C43.3118 22.0841 41.8634 23.5547 40.0988 23.7828L36.9226 24.1934L33.9703 1.35533L37.1465 0.944749Z" fill="#FFD979"/>
<path d="M34.3802 1.30358C36.1447 1.07548 37.9182 2.12837 39.3597 4.04583C40.8012 5.9633 41.8976 8.72672 42.3063 11.8888C42.7151 15.0509 42.3579 18.0058 41.4523 20.2243C40.5466 22.4428 39.0982 23.9134 37.3336 24.1415C35.5691 24.3696 33.7956 23.3167 32.3542 21.4004C30.9129 19.4841 29.8175 16.7193 29.4086 13.5561C28.9997 10.3928 29.3572 7.44027 30.2628 5.22178C31.1685 3.00329 32.6156 1.53169 34.3802 1.30358Z" fill="white"/>
<path d="M34.5869 4.43872C35.8211 4.27917 37.0682 5.0474 38.0878 6.44697C39.1073 7.84654 39.8859 9.85983 40.1836 12.1628C40.4813 14.4657 40.2395 16.613 39.6101 18.2236C38.9807 19.8343 37.9693 20.8966 36.735 21.0561C35.5007 21.2157 34.2577 20.4469 33.2345 19.0427C32.2112 17.6385 31.4364 15.6299 31.1387 13.3269C30.841 11.024 31.0827 8.87674 31.7121 7.26605C32.3415 5.65536 33.3536 4.59815 34.5869 4.43872Z" fill="#FFD979"/>
<path fill-rule="evenodd" clip-rule="evenodd" d="M38.0993 6.45903C35.9138 3.44313 33.0509 3.81322 31.7042 7.28572C30.3575 10.7582 31.0376 16.0194 33.2232 19.0363C35.174 21.7285 37.6642 21.727 39.1348 19.2209C37.7731 21.315 35.5618 21.2479 33.822 18.8467C31.8115 16.0714 31.1856 11.2296 32.4246 8.03633C33.6635 4.84302 36.2974 4.5005 38.3079 7.2758C39.3151 8.66676 39.9746 10.572 40.2264 12.5279C39.9895 10.2772 39.2553 8.05419 38.0993 6.45903Z" fill="#E9AC66"/>
<path d="M44.8248 10.3713L42.1827 10.7129C42.2077 10.9062 42.4309 12.1351 42.4955 12.6348C42.5601 13.1345 42.5888 15.395 42.4392 16.7163C41.8968 21.504 39.6761 23.1197 38.5083 23.8892L40.7192 23.6034C43.5464 22.5169 44.2544 19.4119 44.8571 17.7157C45.4407 15.1358 45.0948 11.7577 44.8248 10.3713Z" fill="#C18E48"/>
</svg>
