<svg width="36" height="46" viewBox="0 0 36 46" fill="none" xmlns="http://www.w3.org/2000/svg">
<rect opacity="0.2" width="21.4106" height="19.5605" rx="2.05431" transform="matrix(0.866025 -0.5 0.866025 0.5 0 35.3291)" fill="white"/>
<rect width="17.3818" height="17.8799" rx="0.508389" transform="matrix(0.866025 -0.5 0.866025 0.5 2.84796 10.5714)" fill="white"/>
<rect width="17.8799" height="17.8799" rx="0.508389" transform="matrix(0.866025 0.5 -2.20305e-08 1 2.95288 10.4629)" fill="#FD9095"/>
<path d="M17.9525 19.9549C17.9525 19.6747 18.1488 19.334 18.3915 19.1931L32.9954 10.7118C33.239 10.5703 33.4369 10.6839 33.4369 10.9652L33.4369 27.8268C33.4369 28.1076 33.2398 28.449 32.9967 28.5894L18.3928 37.0209C18.1496 37.1613 17.9525 37.0475 17.9525 36.7667L17.9525 19.9549Z" fill="white"/>
<path d="M16.9412 10.2411L10.1207 14.4214V31.3626" stroke="#E63749" stroke-width="2.6402" stroke-linecap="round"/>
<path d="M16.7212 10.021L26.1819 15.0814V31.1426" stroke="#E63749" stroke-width="2.6402" stroke-linecap="round"/>
<path d="M16.2811 9.36062C15.0489 5.2275 11.5988 -1.96788 7.65577 2.31553C3.71276 6.59894 11.7631 8.79701 16.2811 9.36062Z" stroke="#E63749" stroke-width="2" stroke-linecap="round"/>
<path d="M17.1612 10.2411C18.3934 6.10799 21.8435 -1.08739 25.7865 3.19602C29.7296 7.47944 21.6792 9.6775 17.1612 10.2411Z" stroke="#E63749" stroke-width="2" stroke-linecap="round"/>
</svg>
