<svg width="66" height="68" viewBox="0 0 66 68" fill="none" xmlns="http://www.w3.org/2000/svg">
    <ellipse cx="36.2413" cy="58.9" rx="29.1378" ry="9.10022" fill="black" />
    <path
        d="M6.64746 57.6341C6.64746 49.5554 13.1965 43.0063 21.2753 43.0063H36.6735C44.7522 43.0063 51.3013 49.5554 51.3013 57.6341C51.3013 69.731 6.64729 70.0123 6.64746 57.6341Z"
        fill="#F7CC60" />
    <ellipse cx="28.9751" cy="48.6332" rx="15.979" ry="5.62682" fill="#232326" />
    <g filter="url(#filter0_b_4196_14184)">
        <circle cx="28.9524" cy="27.3244" r="23.4699" fill="#1EA197" />
        <circle cx="28.9524" cy="27.3244" r="22.9396" stroke="url(#paint0_linear_4196_14184)"
            stroke-width="1.06061" />
    </g>
    <path opacity="0.7" d="M40.9106 15.0924C48.6733 20.5825 47.0832 28.6776 45.6374 33.5922"
        stroke="#A5FCE7" stroke-width="3.94573" stroke-linecap="round" />
    <path
        d="M6.42163 11.9624L6.4405 12.1012C6.85765 15.1687 9.32275 17.5507 12.4028 17.8625C9.32542 18.1739 6.86577 20.56 6.461 23.6265L6.42163 23.9248L6.38226 23.6265C5.97748 20.56 3.51783 18.1739 0.44043 17.8625C3.5205 17.5507 5.98561 15.1687 6.40276 12.1012L6.42163 11.9624Z"
        fill="#D7F3FF" />
    <path
        d="M11.5487 1.94394e-06L11.5621 0.0991151C11.8601 2.29024 13.6209 3.99166 15.8209 4.21433C13.6228 4.43681 11.8659 6.14113 11.5768 8.33151L11.5487 8.54457L11.5205 8.33151C11.2314 6.14113 9.47451 4.43681 7.27637 4.21433C9.47642 3.99166 11.2372 2.29024 11.5352 0.0991152L11.5487 1.94394e-06Z"
        fill="#D7F3FF" />
    <path opacity="0.7" d="M36.9488 11.1801C36.6648 10.6948 35.4846 9.61354 33.0361 9.17041"
        stroke="#A5FCE7" stroke-width="3.94573" stroke-linecap="round" />
    <defs>
        <filter id="filter0_b_4196_14184" x="1.35031" y="-0.277618" width="55.2037" height="55.2042"
            filterUnits="userSpaceOnUse" color-interpolation-filters="sRGB">
            <feFlood flood-opacity="0" result="BackgroundImageFix" />
            <feGaussianBlur in="BackgroundImageFix" stdDeviation="2.06606" />
            <feComposite in2="SourceAlpha" operator="in"
                result="effect1_backgroundBlur_4196_14184" />
            <feBlend mode="normal" in="SourceGraphic" in2="effect1_backgroundBlur_4196_14184"
                result="shape" />
        </filter>
        <linearGradient id="paint0_linear_4196_14184" x1="-7.93997" y1="-3.58039" x2="45.2068"
            y2="53.7438" gradientUnits="userSpaceOnUse">
            <stop stop-color="#6ED1B5" />
            <stop offset="0.788263" stop-color="white" stop-opacity="0" />
        </linearGradient>
    </defs>
</svg>
