<svg width="176" height="155" viewBox="0 0 176 155" fill="none" xmlns="http://www.w3.org/2000/svg">
<ellipse opacity="0.2" cx="88" cy="103.257" rx="76" ry="42.75" fill="#919193"/>
<ellipse cx="89.3966" cy="102.353" rx="52.6661" ry="26.4813" fill="#232326"/>
<path d="M51.8887 55.0317C52.5416 44.5848 56.8401 40.776 58.9077 40.1775V35.1704C58.9077 30.7139 59.5182 26.0913 62.3739 22.6699C70.5722 12.8475 87.1913 9 97.4306 9C119.908 9 130.51 18.0037 134.906 25.1528C136.726 28.1125 137.096 31.6598 137.096 35.1342V40.1775C142.842 44.748 143.517 51.1141 143.136 53.7258V97.7987C140.47 106.069 127.27 122.218 95.7983 120.651C64.327 119.084 53.4122 104.763 51.8887 97.7987V55.0317Z" fill="white" stroke="black" stroke-width="1.56731"/>
<ellipse cx="96.4631" cy="90.3653" rx="41.6857" ry="23.6294" fill="#FFE9B1"/>
<ellipse opacity="0.3" cx="100.611" cy="88.8171" rx="28.261" ry="17.2541" fill="#232326"/>
<path d="M66.4766 90.9069H66.5093C66.7594 93.7149 68.4732 96.4343 71.573 98.5242C74.9341 100.79 79.3192 101.912 83.6856 101.912C88.052 101.912 92.4371 100.79 95.7982 98.5242C98.898 96.4343 100.612 93.7149 100.862 90.9069H100.909V90.5319V85.0587V84.6837H100.534H98.8915C98.0939 83.6596 97.0613 82.7042 95.7982 81.8527C92.4371 79.5866 88.052 78.4646 83.6856 78.4646C79.3192 78.4646 74.9341 79.5866 71.573 81.8527C70.3099 82.7042 69.2773 83.6596 68.4797 84.6837H66.8516H66.4766V85.0587V90.5319V90.9069Z" fill="#EFAF4E" stroke="black" stroke-width="0.75"/>
<path d="M71.5742 94.2009C74.9353 96.4669 79.3204 97.589 83.6868 97.589C88.0532 97.589 92.4383 96.4669 95.7994 94.2009C99.1637 91.9327 100.895 88.9226 100.895 85.8652C100.895 82.8077 99.1637 79.7976 95.7994 77.5294C92.4383 75.2634 88.0532 74.1414 83.6868 74.1414C79.3204 74.1414 74.9353 75.2634 71.5742 77.5294C68.2099 79.7976 66.4785 82.8077 66.4785 85.8652C66.4785 88.9226 68.2099 91.9327 71.5742 94.2009Z" fill="white" stroke="black" stroke-width="0.75"/>
<path d="M75.3706 91.6412C77.6832 93.2004 80.6941 93.969 83.6863 93.969C86.6784 93.969 89.6893 93.2004 92.0019 91.6412C94.3177 90.0799 95.5249 87.9963 95.5249 85.8653C95.5249 83.7344 94.3177 81.6508 92.0019 80.0894C89.6893 78.5303 86.6784 77.7617 83.6863 77.7617C80.6941 77.7617 77.6832 78.5303 75.3706 80.0894C73.0548 81.6508 71.8477 83.7344 71.8477 85.8653C71.8477 87.9963 73.0548 90.0799 75.3706 91.6412Z" fill="#EFAF4E" stroke="black" stroke-width="0.75"/>
<path d="M89.085 79.0451C84.9302 77.8867 79.9699 78.4459 76.5927 80.7228C72.1159 83.7411 72.1159 88.6346 76.5927 91.6528C77.4131 92.2059 78.3269 92.6576 79.2999 93.008C77.9472 92.6309 76.6798 92.0716 75.5803 91.3303C71.1035 88.3121 71.1035 83.4186 75.5803 80.4004C79.2367 77.9353 84.7486 77.4835 89.085 79.0451Z" fill="#EFAF4E"/>
<path d="M96.6035 83.1261H96.6362C96.8864 85.9341 98.6002 88.6536 101.7 90.7434C105.061 93.0094 109.446 94.1315 113.813 94.1315C118.179 94.1315 122.564 93.0094 125.925 90.7434C129.025 88.6536 130.739 85.9341 130.989 83.1261H131.036V82.7511V77.278V76.903H130.661H129.018C128.221 75.8788 127.188 74.9235 125.925 74.0719C122.564 71.8059 118.179 70.6838 113.813 70.6838C109.446 70.6838 105.061 71.8059 101.7 74.0719C100.437 74.9235 99.4043 75.8788 98.6066 76.903H96.9785H96.6035V77.278V82.7511V83.1261Z" fill="#B17518" stroke="black" stroke-width="0.75"/>
<path d="M101.701 86.4204C105.062 88.6864 109.447 89.8085 113.814 89.8085C118.18 89.8085 122.565 88.6864 125.926 86.4204C129.291 84.1522 131.022 81.1421 131.022 78.0847C131.022 75.0272 129.291 72.0171 125.926 69.7489C122.565 67.4829 118.18 66.3608 113.814 66.3608C109.447 66.3608 105.062 67.4829 101.701 69.7489C98.3369 72.0171 96.6055 75.0272 96.6055 78.0847C96.6055 81.1421 98.3369 84.1522 101.701 86.4204Z" fill="white" stroke="black" stroke-width="0.75"/>
<path d="M105.498 83.8605C107.81 85.4196 110.821 86.1882 113.813 86.1882C116.805 86.1882 119.816 85.4196 122.129 83.8605C124.445 82.2992 125.652 80.2156 125.652 78.0846C125.652 75.9536 124.445 73.87 122.129 72.3087C119.816 70.7496 116.805 69.981 113.813 69.981C110.821 69.981 107.81 70.7496 105.498 72.3087C103.182 73.87 101.975 75.9536 101.975 78.0846C101.975 80.2156 103.182 82.2992 105.498 83.8605Z" fill="#EFAF4E" stroke="black" stroke-width="0.75"/>
<path d="M119.212 71.2644C115.057 70.1059 110.097 70.6652 106.72 72.9421C102.243 75.9603 102.243 80.8538 106.72 83.872C107.54 84.4251 108.454 84.8769 109.427 85.2273C108.074 84.8501 106.807 84.2909 105.707 83.5496C101.23 80.5313 101.23 75.6378 105.707 72.6196C109.364 70.1545 114.876 69.7028 119.212 71.2644Z" fill="#EFAF4E"/>
<path d="M95.375 76.8976H95.4077C95.6579 79.7056 97.3717 82.425 100.471 84.5149C103.833 86.7809 108.218 87.903 112.584 87.903C116.95 87.903 121.336 86.7809 124.697 84.5149C127.796 82.425 129.51 79.7056 129.76 76.8976H129.807V76.5226V71.0495V70.6745H129.432H127.79C126.992 69.6503 125.96 68.6949 124.697 67.8434C121.336 65.5774 116.95 64.4553 112.584 64.4553C108.218 64.4553 103.833 65.5774 100.471 67.8434C99.2084 68.6949 98.1758 69.6503 97.3781 70.6745H95.75H95.375V71.0495V76.5226V76.8976Z" fill="#B17518" stroke="black" stroke-width="0.75"/>
<path d="M100.473 80.1919C103.834 82.4579 108.219 83.58 112.585 83.58C116.952 83.58 121.337 82.4579 124.698 80.1919C128.062 77.9237 129.794 74.9136 129.794 71.8561C129.794 68.7987 128.062 65.7886 124.698 63.5204C121.337 61.2544 116.952 60.1323 112.585 60.1323C108.219 60.1323 103.834 61.2544 100.473 63.5204C97.1084 65.7886 95.377 68.7987 95.377 71.8561C95.377 74.9136 97.1084 77.9237 100.473 80.1919Z" fill="white" stroke="black" stroke-width="0.75"/>
<path d="M104.269 77.632C106.582 79.1911 109.592 79.9597 112.585 79.9597C115.577 79.9597 118.588 79.1911 120.9 77.632C123.216 76.0707 124.423 73.9871 124.423 71.8561C124.423 69.7251 123.216 67.6415 120.9 66.0802C118.588 64.521 115.577 63.7524 112.585 63.7524C109.592 63.7524 106.582 64.521 104.269 66.0802C101.953 67.6415 100.746 69.7251 100.746 71.8561C100.746 73.9871 101.953 76.0707 104.269 77.632Z" fill="#EFAF4E" stroke="black" stroke-width="0.75"/>
<path d="M117.983 65.0359C113.829 63.8774 108.868 64.4367 105.491 66.7136C101.014 69.7318 101.014 74.6253 105.491 77.6435C106.312 78.1966 107.225 78.6484 108.198 78.9987C106.846 78.6216 105.578 78.0623 104.479 77.321C100.002 74.3028 100.002 69.4093 104.479 66.3911C108.135 63.926 113.647 63.4742 117.983 65.0359Z" fill="#EFAF4E"/>
<path d="M97.1797 69.6159H97.2124C97.4625 72.4239 99.1764 75.1433 102.276 77.2332C105.637 79.4992 110.022 80.6212 114.389 80.6212C118.755 80.6212 123.14 79.4992 126.501 77.2332C129.601 75.1433 131.315 72.4239 131.565 69.6159H131.612V69.2409V63.7677V63.3927H131.237H129.595C128.797 62.3685 127.764 61.4132 126.501 60.5616C123.14 58.2956 118.755 57.1736 114.389 57.1736C110.022 57.1736 105.637 58.2956 102.276 60.5616C101.013 61.4132 99.9805 62.3685 99.1828 63.3927H97.5547H97.1797V63.7677V69.2409V69.6159Z" fill="#B17518" stroke="black" stroke-width="0.75"/>
<path d="M102.277 72.9102C105.638 75.1762 110.024 76.2982 114.39 76.2982C118.756 76.2982 123.141 75.1762 126.502 72.9102C129.867 70.642 131.598 67.6319 131.598 64.5744C131.598 61.5169 129.867 58.5068 126.502 56.2386C123.141 53.9726 118.756 52.8506 114.39 52.8506C110.024 52.8506 105.638 53.9726 102.277 56.2386C98.913 58.5068 97.1816 61.5169 97.1816 64.5744C97.1816 67.6319 98.913 70.642 102.277 72.9102Z" fill="white" stroke="black" stroke-width="0.75"/>
<path d="M106.074 70.3502C108.386 71.9094 111.397 72.678 114.389 72.678C117.382 72.678 120.392 71.9094 122.705 70.3502C125.021 68.7889 126.228 66.7053 126.228 64.5743C126.228 62.4434 125.021 60.3597 122.705 58.7984C120.392 57.2393 117.382 56.4707 114.389 56.4707C111.397 56.4707 108.386 57.2393 106.074 58.7984C103.758 60.3597 102.551 62.4434 102.551 64.5743C102.551 66.7053 103.758 68.7889 106.074 70.3502Z" fill="#EFAF4E" stroke="black" stroke-width="0.75"/>
<path d="M119.788 57.7541C115.633 56.5957 110.673 57.1549 107.296 59.4318C102.819 62.45 102.819 67.3435 107.296 70.3618C108.116 70.9149 109.03 71.3666 110.003 71.717C108.65 71.3398 107.383 70.7806 106.283 70.0393C101.807 67.0211 101.807 62.1276 106.283 59.1094C109.94 56.6443 115.452 56.1925 119.788 57.7541Z" fill="#EFAF4E"/>
<path d="M93.5645 61.226H93.5972C93.8473 64.034 95.5611 66.7534 98.6609 68.8433C102.022 71.1093 106.407 72.2313 110.773 72.2313C115.14 72.2313 119.525 71.1093 122.886 68.8433C125.986 66.7534 127.7 64.034 127.95 61.226H127.997V60.851V55.3778V55.0028H127.622H125.979C125.182 53.9787 124.149 53.0233 122.886 52.1717C119.525 49.9057 115.14 48.7837 110.773 48.7837C106.407 48.7837 102.022 49.9057 98.6609 52.1717C97.3978 53.0233 96.3652 53.9787 95.5676 55.0028H93.9395H93.5645V55.3778V60.851V61.226Z" fill="#EFAF4E" stroke="black" stroke-width="0.75"/>
<path d="M98.6621 64.5203C102.023 66.7863 106.408 67.9083 110.775 67.9083C115.141 67.9083 119.526 66.7863 122.887 64.5203C126.252 62.2521 127.983 59.242 127.983 56.1845C127.983 53.127 126.252 50.1169 122.887 47.8487C119.526 45.5827 115.141 44.4607 110.775 44.4607C106.408 44.4607 102.023 45.5827 98.6621 47.8487C95.2978 50.1169 93.5664 53.127 93.5664 56.1845C93.5664 59.242 95.2978 62.2521 98.6621 64.5203Z" fill="white" stroke="black" stroke-width="0.75"/>
<path d="M102.459 61.9603C104.771 63.5195 107.782 64.2881 110.774 64.2881C113.766 64.2881 116.777 63.5195 119.09 61.9603C121.406 60.399 122.613 58.3154 122.613 56.1844C122.613 54.0535 121.406 51.9698 119.09 50.4085C116.777 48.8494 113.766 48.0808 110.774 48.0808C107.782 48.0808 104.771 48.8494 102.459 50.4085C100.143 51.9698 98.9355 54.0535 98.9355 56.1844C98.9355 58.3154 100.143 60.399 102.459 61.9603Z" fill="#FFD979" stroke="black" stroke-width="0.75"/>
<path d="M116.173 49.3642C112.018 48.2058 107.058 48.765 103.681 51.0419C99.2038 54.0602 99.2038 58.9536 103.681 61.9719C104.501 62.525 105.415 62.9767 106.388 63.3271C105.035 62.95 103.768 62.3907 102.668 61.6494C98.1913 58.6312 98.1913 53.7377 102.668 50.7195C106.325 48.2544 111.836 47.8026 116.173 49.3642Z" fill="#EFAF4E"/>
<path d="M68.998 85.028H69.03C69.274 87.8323 70.9442 90.5515 73.9704 92.6428C77.2516 94.9104 81.5327 96.0333 85.7957 96.0333C90.0586 96.0333 94.3397 94.9104 97.6209 92.6428C100.647 90.5515 102.317 87.8323 102.561 85.028H102.607V84.653V79.1798V78.8048H102.232H100.637C99.8594 77.7819 98.8525 76.8273 97.6209 75.9762C94.3397 73.7086 90.0586 72.5857 85.7957 72.5857C81.5327 72.5857 77.2516 73.7086 73.9704 75.9762C72.7388 76.8273 71.732 77.7819 70.9541 78.8048H69.373H68.998V79.1798V84.653V85.028Z" fill="#EFAF4E" stroke="black" stroke-width="0.75"/>
<path d="M73.9697 88.3201C77.2509 90.5876 81.532 91.7106 85.7949 91.7106C90.0579 91.7106 94.339 90.5876 97.6202 88.3201C100.905 86.05 102.592 83.04 102.592 79.9868C102.592 76.9335 100.905 73.9235 97.6202 71.6534C94.339 69.3859 90.0579 68.2629 85.7949 68.2629C81.532 68.2629 77.2509 69.3859 73.9697 71.6534C70.6849 73.9235 68.998 76.9335 68.998 79.9868C68.998 83.04 70.6849 86.05 73.9697 88.3201Z" fill="white" stroke="black" stroke-width="0.75"/>
<path d="M77.6737 85.7602C79.932 87.3208 82.8725 88.0903 85.7948 88.0903C88.7171 88.0903 91.6575 87.3208 93.9158 85.7601C96.1778 84.197 97.3532 82.1134 97.3532 79.9867C97.3532 77.8599 96.1778 75.7764 93.9158 74.2132C91.6575 72.6525 88.7171 71.8831 85.7948 71.8831C82.8725 71.8831 79.932 72.6525 77.6737 74.2132C75.4118 75.7764 74.2363 77.8599 74.2363 79.9867C74.2363 82.1134 75.4118 84.197 77.6737 85.7602Z" fill="#EFAF4E" stroke="black" stroke-width="0.75"/>
<path d="M91.0616 73.1665C87.0083 72.008 82.1693 72.5673 78.8746 74.8442C74.5071 77.8624 74.5071 82.7559 78.8746 85.7741C79.6749 86.3272 80.5664 86.779 81.5156 87.1294C80.196 86.7522 78.9596 86.193 77.8869 85.4517C73.5195 82.4334 73.5195 77.5399 77.8869 74.5217C81.4539 72.0566 86.8311 71.6049 91.0616 73.1665Z" fill="#EFAF4E"/>
<path d="M68.998 76.0707H69.03C69.274 78.875 70.9442 81.5942 73.9704 83.6856C77.2516 85.9531 81.5327 87.076 85.7957 87.076C90.0586 87.076 94.3397 85.9531 97.6209 83.6856C100.647 81.5942 102.317 78.875 102.561 76.0707H102.607V75.6957V70.2226V69.8476H102.232H100.637C99.8594 68.8246 98.8525 67.87 97.6209 67.0189C94.3397 64.7513 90.0586 63.6284 85.7957 63.6284C81.5327 63.6284 77.2516 64.7513 73.9704 67.0189C72.7388 67.87 71.732 68.8246 70.9541 69.8476H69.373H68.998V70.2226V75.6957V76.0707Z" fill="#EFAF4E" stroke="black" stroke-width="0.75"/>
<path d="M73.9697 79.3628C77.2509 81.6304 81.532 82.7533 85.7949 82.7533C90.0579 82.7533 94.339 81.6304 97.6202 79.3628C100.905 77.0928 102.592 74.0827 102.592 71.0295C102.592 67.9762 100.905 64.9662 97.6202 62.6962C94.339 60.4286 90.0579 59.3057 85.7949 59.3057C81.532 59.3057 77.2509 60.4286 73.9697 62.6962C70.6849 64.9662 68.998 67.9763 68.998 71.0295C68.998 74.0827 70.6849 77.0928 73.9697 79.3628Z" fill="white" stroke="black" stroke-width="0.75"/>
<path d="M77.6737 76.8029C79.932 78.3636 82.8725 79.133 85.7948 79.133C88.7171 79.133 91.6575 78.3636 93.9158 76.8029C96.1778 75.2397 97.3532 73.1562 97.3532 71.0294C97.3532 68.9027 96.1778 66.8191 93.9158 65.2559C91.6575 63.6953 88.7171 62.9258 85.7948 62.9258C82.8725 62.9258 79.932 63.6953 77.6737 65.2559C75.4118 66.8191 74.2363 68.9027 74.2363 71.0294C74.2363 73.1562 75.4118 75.2397 77.6737 76.8029Z" fill="#EFAF4E" stroke="black" stroke-width="0.75"/>
<path d="M91.0616 64.2092C87.0083 63.0508 82.1693 63.61 78.8746 65.8869C74.5071 68.9051 74.5071 73.7986 78.8746 76.8168C79.6749 77.3699 80.5664 77.8217 81.5156 78.1721C80.196 77.7949 78.9596 77.2357 77.8869 76.4944C73.5195 73.4762 73.5195 68.5827 77.8869 65.5644C81.4539 63.0993 86.8311 62.6476 91.0616 64.2092Z" fill="#EFAF4E"/>
<path d="M64.873 70.3903H64.905C65.149 73.1946 66.8192 75.9138 69.8454 78.0051C73.1266 80.2727 77.4077 81.3956 81.6707 81.3956C85.9336 81.3956 90.2147 80.2727 93.4959 78.0051C96.5221 75.9138 98.1924 73.1946 98.4363 70.3903H98.4822V70.0153V64.5421V64.1671H98.1072H96.5122C95.7344 63.1442 94.7275 62.1896 93.4959 61.3385C90.2147 59.0709 85.9336 57.948 81.6707 57.948C77.4077 57.948 73.1266 59.0709 69.8454 61.3385C68.6138 62.1896 67.607 63.1442 66.8291 64.1671H65.248H64.873V64.5421V70.0153V70.3903Z" fill="#EFAF4E" stroke="black" stroke-width="0.75"/>
<path d="M69.8447 73.6824C73.1259 75.9499 77.407 77.0729 81.6699 77.0729C85.9329 77.0729 90.214 75.9499 93.4952 73.6824C96.78 71.4123 98.4668 68.4023 98.4668 65.3491C98.4668 62.2958 96.78 59.2858 93.4952 57.0157C90.214 54.7482 85.9329 53.6252 81.6699 53.6252C77.407 53.6252 73.1259 54.7482 69.8447 57.0157C66.5599 59.2858 64.873 62.2958 64.873 65.3491C64.873 68.4023 66.5599 71.4123 69.8447 73.6824Z" fill="white" stroke="black" stroke-width="0.75"/>
<path d="M73.5487 71.1225C75.807 72.6831 78.7475 73.4526 81.6698 73.4526C84.5921 73.4526 87.5325 72.6831 89.7908 71.1225C92.0528 69.5593 93.2282 67.4757 93.2282 65.349C93.2282 63.2222 92.0528 61.1387 89.7908 59.5755C87.5325 58.0148 84.5921 57.2454 81.6698 57.2454C78.7475 57.2454 75.807 58.0148 73.5487 59.5755C71.2868 61.1387 70.1113 63.2222 70.1113 65.349C70.1113 67.4757 71.2868 69.5593 73.5487 71.1225Z" fill="#EFAF4E" stroke="black" stroke-width="0.75"/>
<path d="M86.9366 58.5288C82.8833 57.3703 78.0443 57.9296 74.7496 60.2065C70.3821 63.2247 70.3821 68.1182 74.7496 71.1364C75.5499 71.6895 76.4414 72.1413 77.3906 72.4917C76.071 72.1145 74.8346 71.5553 73.7619 70.814C69.3945 67.7957 69.3945 62.9022 73.7619 59.884C77.3289 57.4189 82.7061 56.9672 86.9366 58.5288Z" fill="#EFAF4E"/>
<path d="M66.0332 63.3876H66.0652C66.3092 66.1919 67.9794 68.9111 71.0056 71.0025C74.2868 73.27 78.5679 74.3929 82.8308 74.3929C87.0938 74.3929 91.3749 73.27 94.6561 71.0025C97.6823 68.9111 99.3525 66.1919 99.5965 63.3876H99.6423V63.0126V57.5395V57.1645H99.2673H97.6724C96.8945 56.1415 95.8877 55.1869 94.6561 54.3358C91.3749 52.0682 87.0938 50.9453 82.8308 50.9453C78.5679 50.9453 74.2868 52.0682 71.0056 54.3358C69.774 55.1869 68.7672 56.1415 67.9893 57.1645H66.4082H66.0332V57.5395V63.0126V63.3876Z" fill="#EFAF4E" stroke="black" stroke-width="0.75"/>
<path d="M71.0049 66.6797C74.2861 68.9473 78.5672 70.0702 82.8301 70.0702C87.093 70.0702 91.3741 68.9473 94.6553 66.6797C97.9401 64.4096 99.627 61.3996 99.627 58.3464C99.627 55.2931 97.9401 52.2831 94.6553 50.013C91.3741 47.7455 87.093 46.6226 82.8301 46.6226C78.5672 46.6226 74.2861 47.7455 71.0049 50.0131C67.7201 52.2831 66.0332 55.2931 66.0332 58.3464C66.0332 61.3996 67.7201 64.4096 71.0049 66.6797Z" fill="white" stroke="black" stroke-width="0.75"/>
<path d="M74.7088 64.1198C76.9672 65.6804 79.9076 66.4499 82.8299 66.4499C85.7522 66.4499 88.6927 65.6804 90.951 64.1198C93.2129 62.5566 94.3884 60.473 94.3884 58.3463C94.3884 56.2196 93.2129 54.136 90.951 52.5728C88.6927 51.0122 85.7522 50.2427 82.8299 50.2427C79.9076 50.2427 76.9672 51.0122 74.7088 52.5728C72.4469 54.136 71.2715 56.2196 71.2715 58.3463C71.2715 60.473 72.4469 62.5566 74.7088 64.1198Z" fill="#FFD979" stroke="black" stroke-width="0.75"/>
<path d="M88.0967 51.5261C84.0434 50.3677 79.2044 50.9269 75.9097 53.2038C71.5423 56.222 71.5423 61.1155 75.9097 64.1337C76.7101 64.6868 77.6016 65.1386 78.5508 65.489C77.2311 65.1118 75.9947 64.5526 74.922 63.8113C70.5546 60.7931 70.5546 55.8996 74.922 52.8813C78.4891 50.4162 83.8663 49.9645 88.0967 51.5261Z" fill="#EFAF4E"/>
<path d="M95.5249 79.0952L95.5448 79.1203C93.4997 81.0544 92.4078 84.0531 92.6505 87.7236C92.9138 91.7034 94.6952 95.755 97.3449 99.0943C99.9947 102.434 103.535 105.089 107.351 106.25C110.87 107.321 114.039 106.939 116.387 105.387L116.416 105.423L116.709 105.19L120.997 101.788L121.291 101.555L121.057 101.261L120.066 100.012C120.384 98.7664 120.506 97.3844 120.407 95.8906C120.144 91.9108 118.362 87.8592 115.713 84.5198C113.063 81.1804 109.522 78.5248 105.706 77.3639C104.274 76.9282 102.901 76.7328 101.616 76.7593L100.633 75.5208L100.4 75.227L100.106 75.4601L95.8187 78.8621L95.5249 79.0952Z" fill="#EFAF4E" stroke="black" stroke-width="0.75"/>
<path d="M96.0368 85.0367C96.3 89.0165 98.0814 93.0681 100.731 96.4075C103.381 99.7469 106.922 102.402 110.737 103.563C114.557 104.725 117.964 104.176 120.356 102.278C122.747 100.38 124.057 97.1879 123.793 93.2037C123.53 89.2239 121.749 85.1723 119.099 81.8329C116.449 78.4936 112.908 75.8379 109.093 74.6771C105.273 73.5149 101.866 74.0645 99.4745 75.9623C97.0827 77.8602 95.7733 81.0525 96.0368 85.0367Z" fill="white" stroke="black" stroke-width="0.75"/>
<path d="M100.344 86.3469C100.525 89.0861 101.75 91.8678 103.567 94.157C105.383 96.4462 107.814 98.2713 110.44 99.0703C113.07 99.8705 115.433 99.4962 117.099 98.1743C118.765 96.8523 119.667 94.6364 119.485 91.8929C119.304 89.1538 118.079 86.3721 116.263 84.0829C114.446 81.7937 112.016 79.9686 109.389 79.1696C106.759 78.3694 104.396 78.7437 102.73 80.0656C101.064 81.3876 100.163 83.6034 100.344 86.3469Z" fill="#FFD979" stroke="black" stroke-width="0.75"/>
<path d="M118.531 89.0064C116.919 85.1112 113.473 81.6681 109.642 80.5025C104.563 78.9573 100.729 81.999 101.08 87.2963C101.144 88.2671 101.344 89.2462 101.66 90.2076C101.135 88.9394 100.804 87.6233 100.718 86.3222C100.368 81.0249 104.201 77.9832 109.28 79.5284C113.429 80.7904 117.125 84.7218 118.531 89.0064Z" fill="#EFAF4E"/>
<path fill-rule="evenodd" clip-rule="evenodd" d="M133.002 37.4999C133.582 36.006 133.889 34.4512 133.889 32.8546C133.889 21.3102 117.868 11.9517 98.1065 11.9517C78.3445 11.9517 62.3242 21.3102 62.3242 32.8546C62.3242 34.4511 62.6306 36.0058 63.2109 37.4997C66.8268 28.191 81.0774 21.242 98.1064 21.242C115.135 21.242 129.386 28.1912 133.002 37.4999Z" fill="#1B262C"/>
<path fill-rule="evenodd" clip-rule="evenodd" d="M60.0116 35.0295C59.3861 36.6396 59.0559 38.3151 59.0559 40.0357C59.0559 52.4769 76.3206 62.5625 97.6178 62.5625C118.915 62.5625 136.18 52.4769 136.18 40.0357C136.18 38.3152 135.85 36.6398 135.224 35.0298C131.327 45.0616 115.97 52.5504 97.6179 52.5504C79.266 52.5504 63.9082 45.0614 60.0116 35.0295Z" fill="white"/>
<mask id="path-48-inside-1_1650_4564" fill="white">
<path fill-rule="evenodd" clip-rule="evenodd" d="M58.0184 37.1834C57.9892 37.5676 57.9745 37.9541 57.9745 38.3427C57.9745 51.8117 75.696 62.7305 97.5566 62.7305C119.417 62.7305 137.139 51.8117 137.139 38.3427C137.139 37.9541 137.124 37.5676 137.095 37.1834C136.113 50.4665 118.786 61.045 97.5566 61.045C76.3268 61.045 59.0006 50.4665 58.0184 37.1834Z"/>
</mask>
<path fill-rule="evenodd" clip-rule="evenodd" d="M58.0184 37.1834C57.9892 37.5676 57.9745 37.9541 57.9745 38.3427C57.9745 51.8117 75.696 62.7305 97.5566 62.7305C119.417 62.7305 137.139 51.8117 137.139 38.3427C137.139 37.9541 137.124 37.5676 137.095 37.1834C136.113 50.4665 118.786 61.045 97.5566 61.045C76.3268 61.045 59.0006 50.4665 58.0184 37.1834Z" fill="white"/>
<path d="M58.0184 37.1834L59.0157 37.1096L57.0213 37.1076L58.0184 37.1834ZM137.095 37.1834L138.092 37.1076L136.097 37.1096L137.095 37.1834ZM97.5566 61.045L97.5566 60.045L97.5566 61.045ZM58.9745 38.3427C58.9745 37.9794 58.9883 37.6182 59.0155 37.2591L57.0213 37.1076C56.9902 37.517 56.9745 37.9287 56.9745 38.3427L58.9745 38.3427ZM97.5566 61.7305C86.7811 61.7305 77.0736 59.0374 70.0924 54.7361C63.0952 50.4249 58.9745 44.601 58.9745 38.3427L56.9745 38.3427C56.9745 45.5534 61.7145 51.9234 69.0432 56.4388C76.3879 60.9641 86.4715 63.7305 97.5566 63.7305L97.5566 61.7305ZM136.139 38.3427C136.139 44.601 132.018 50.4249 125.021 54.7361C118.04 59.0374 108.332 61.7305 97.5566 61.7305L97.5566 63.7305C108.642 63.7305 118.725 60.9641 126.07 56.4388C133.399 51.9234 138.139 45.5534 138.139 38.3427L136.139 38.3427ZM136.098 37.2591C136.125 37.6182 136.139 37.9794 136.139 38.3427L138.139 38.3427C138.139 37.9288 138.123 37.517 138.092 37.1076L136.098 37.2591ZM136.097 37.1096C135.639 43.3156 131.345 49.0339 124.4 53.24C117.47 57.4376 108.015 60.045 97.5566 60.045L97.5566 62.045C108.328 62.045 118.151 59.3633 125.437 54.9507C132.708 50.5469 137.569 44.3343 138.092 37.2571L136.097 37.1096ZM97.5566 60.045C87.0978 60.045 77.6432 57.4376 70.7127 53.24C63.7679 49.0339 59.4746 43.3156 59.0157 37.1096L57.0211 37.2571C57.5444 44.3343 62.4053 50.5468 69.6766 54.9507C76.9621 59.3633 86.7856 62.045 97.5566 62.045L97.5566 60.045Z" fill="black" mask="url(#path-48-inside-1_1650_4564)"/>
<path d="M133.866 32.75C133.866 38.3546 129.96 43.5256 123.435 47.3245C116.923 51.1158 107.892 53.4776 97.8887 53.4776C87.8852 53.4776 78.8543 51.1158 72.3421 47.3245C65.817 43.5256 61.9111 38.3546 61.9111 32.75C61.9111 27.1454 65.817 21.9744 72.3421 18.1755C78.8543 14.3842 87.8852 12.0224 97.8887 12.0224C107.892 12.0224 116.923 14.3842 123.435 18.1755C129.96 21.9744 133.866 27.1454 133.866 32.75Z" stroke="black" stroke-width="1.04487"/>
</svg>
