<svg width="176" height="155" viewBox="0 0 176 155" fill="none" xmlns="http://www.w3.org/2000/svg">
<ellipse opacity="0.2" cx="88" cy="103.257" rx="76" ry="42.75" fill="#919193"/>
<ellipse cx="89.3966" cy="102.353" rx="52.6661" ry="26.4813" fill="#232326"/>
<path d="M51.8887 55.0317C52.5416 44.5848 56.8401 40.776 58.9077 40.1775V35.1704C58.9077 30.7139 59.5182 26.0913 62.3739 22.6699C70.5722 12.8475 87.1913 9 97.4306 9C119.908 9 130.51 18.0037 134.906 25.1528C136.726 28.1125 137.096 31.6598 137.096 35.1342V40.1775C142.842 44.748 143.517 51.1141 143.136 53.7258V97.7987C140.47 106.069 127.27 122.218 95.7983 120.651C64.327 119.084 53.4122 104.763 51.8887 97.7987V55.0317Z" fill="white" stroke="black" stroke-width="1.56731"/>
<ellipse cx="96.4631" cy="90.3653" rx="41.6857" ry="23.6294" fill="#FFE9B1"/>
<ellipse opacity="0.3" cx="100.611" cy="88.8171" rx="28.261" ry="17.2541" fill="#232326"/>
<path d="M66.4766 90.9069H66.5093C66.7594 93.7149 68.4732 96.4343 71.573 98.5242C74.9341 100.79 79.3192 101.912 83.6856 101.912C88.052 101.912 92.4371 100.79 95.7982 98.5242C98.898 96.4343 100.612 93.7149 100.862 90.9069H100.909V90.5319V85.0587V84.6837H100.534H98.8915C98.0939 83.6596 97.0613 82.7042 95.7982 81.8527C92.4371 79.5866 88.052 78.4646 83.6856 78.4646C79.3192 78.4646 74.9341 79.5866 71.573 81.8527C70.3099 82.7042 69.2773 83.6596 68.4797 84.6837H66.8516H66.4766V85.0587V90.5319V90.9069Z" fill="#EFAF4E" stroke="black" stroke-width="0.75"/>
<path d="M71.5742 94.2009C74.9353 96.4669 79.3204 97.589 83.6868 97.589C88.0532 97.589 92.4383 96.4669 95.7994 94.2009C99.1637 91.9327 100.895 88.9226 100.895 85.8652C100.895 82.8077 99.1637 79.7976 95.7994 77.5294C92.4383 75.2634 88.0532 74.1414 83.6868 74.1414C79.3204 74.1414 74.9353 75.2634 71.5742 77.5294C68.2099 79.7976 66.4785 82.8077 66.4785 85.8652C66.4785 88.9226 68.2099 91.9327 71.5742 94.2009Z" fill="white" stroke="black" stroke-width="0.75"/>
<path d="M75.3706 91.6412C77.6832 93.2004 80.6941 93.969 83.6863 93.969C86.6784 93.969 89.6893 93.2004 92.0019 91.6412C94.3177 90.0799 95.5249 87.9963 95.5249 85.8653C95.5249 83.7344 94.3177 81.6508 92.0019 80.0894C89.6893 78.5303 86.6784 77.7617 83.6863 77.7617C80.6941 77.7617 77.6832 78.5303 75.3706 80.0894C73.0548 81.6508 71.8477 83.7344 71.8477 85.8653C71.8477 87.9963 73.0548 90.0799 75.3706 91.6412Z" fill="#EFAF4E" stroke="black" stroke-width="0.75"/>
<path d="M89.085 79.0451C84.9302 77.8867 79.9699 78.4459 76.5927 80.7228C72.1159 83.7411 72.1159 88.6346 76.5927 91.6528C77.4131 92.2059 78.3269 92.6576 79.2999 93.008C77.9472 92.6309 76.6798 92.0716 75.5803 91.3303C71.1035 88.3121 71.1035 83.4186 75.5803 80.4004C79.2367 77.9353 84.7486 77.4835 89.085 79.0451Z" fill="#EFAF4E"/>
<path d="M96.6035 83.1261H96.6362C96.8864 85.9341 98.6002 88.6536 101.7 90.7434C105.061 93.0094 109.446 94.1315 113.813 94.1315C118.179 94.1315 122.564 93.0094 125.925 90.7434C129.025 88.6536 130.739 85.9341 130.989 83.1261H131.036V82.7511V77.278V76.903H130.661H129.018C128.221 75.8788 127.188 74.9235 125.925 74.0719C122.564 71.8059 118.179 70.6838 113.813 70.6838C109.446 70.6838 105.061 71.8059 101.7 74.0719C100.437 74.9235 99.4043 75.8788 98.6066 76.903H96.9785H96.6035V77.278V82.7511V83.1261Z" fill="#EFAF4E" stroke="black" stroke-width="0.75"/>
<path d="M101.701 86.4204C105.062 88.6864 109.447 89.8085 113.814 89.8085C118.18 89.8085 122.565 88.6864 125.926 86.4204C129.291 84.1522 131.022 81.1421 131.022 78.0847C131.022 75.0272 129.291 72.0171 125.926 69.7489C122.565 67.4829 118.18 66.3608 113.814 66.3608C109.447 66.3608 105.062 67.4829 101.701 69.7489C98.3369 72.0171 96.6055 75.0272 96.6055 78.0847C96.6055 81.1421 98.3369 84.1522 101.701 86.4204Z" fill="white" stroke="black" stroke-width="0.75"/>
<path d="M105.498 83.8605C107.81 85.4196 110.821 86.1882 113.813 86.1882C116.805 86.1882 119.816 85.4196 122.129 83.8605C124.445 82.2992 125.652 80.2156 125.652 78.0846C125.652 75.9536 124.445 73.87 122.129 72.3087C119.816 70.7496 116.805 69.981 113.813 69.981C110.821 69.981 107.81 70.7496 105.498 72.3087C103.182 73.87 101.975 75.9536 101.975 78.0846C101.975 80.2156 103.182 82.2992 105.498 83.8605Z" fill="#FFD979" stroke="black" stroke-width="0.75"/>
<path d="M119.212 71.2644C115.057 70.1059 110.097 70.6652 106.72 72.9421C102.243 75.9603 102.243 80.8538 106.72 83.872C107.54 84.4251 108.454 84.8769 109.427 85.2273C108.074 84.8501 106.807 84.2909 105.707 83.5496C101.23 80.5313 101.23 75.6378 105.707 72.6196C109.364 70.1545 114.876 69.7028 119.212 71.2644Z" fill="#EFAF4E"/>
<path d="M68.998 85.028H69.03C69.274 87.8323 70.9442 90.5515 73.9704 92.6428C77.2516 94.9104 81.5327 96.0333 85.7957 96.0333C90.0586 96.0333 94.3397 94.9104 97.6209 92.6428C100.647 90.5515 102.317 87.8323 102.561 85.028H102.607V84.653V79.1798V78.8048H102.232H100.637C99.8594 77.7819 98.8525 76.8273 97.6209 75.9762C94.3397 73.7086 90.0586 72.5857 85.7957 72.5857C81.5327 72.5857 77.2516 73.7086 73.9704 75.9762C72.7388 76.8273 71.732 77.7819 70.9541 78.8048H69.373H68.998V79.1798V84.653V85.028Z" fill="#EFAF4E" stroke="black" stroke-width="0.75"/>
<path d="M73.9697 88.3201C77.2509 90.5876 81.532 91.7106 85.7949 91.7106C90.0579 91.7106 94.339 90.5876 97.6202 88.3201C100.905 86.05 102.592 83.04 102.592 79.9868C102.592 76.9335 100.905 73.9235 97.6202 71.6534C94.339 69.3859 90.0579 68.2629 85.7949 68.2629C81.532 68.2629 77.2509 69.3859 73.9697 71.6534C70.6849 73.9235 68.998 76.9335 68.998 79.9868C68.998 83.04 70.6849 86.05 73.9697 88.3201Z" fill="white" stroke="black" stroke-width="0.75"/>
<path d="M77.6737 85.7602C79.932 87.3208 82.8725 88.0903 85.7948 88.0903C88.7171 88.0903 91.6575 87.3208 93.9158 85.7601C96.1778 84.197 97.3532 82.1134 97.3532 79.9867C97.3532 77.8599 96.1778 75.7764 93.9158 74.2132C91.6575 72.6525 88.7171 71.8831 85.7948 71.8831C82.8725 71.8831 79.932 72.6525 77.6737 74.2132C75.4118 75.7764 74.2363 77.8599 74.2363 79.9867C74.2363 82.1134 75.4118 84.197 77.6737 85.7602Z" fill="#EFAF4E" stroke="black" stroke-width="0.75"/>
<path d="M91.0616 73.1665C87.0083 72.008 82.1693 72.5673 78.8746 74.8442C74.5071 77.8624 74.5071 82.7559 78.8746 85.7741C79.6749 86.3272 80.5664 86.779 81.5156 87.1294C80.196 86.7522 78.9596 86.193 77.8869 85.4517C73.5195 82.4334 73.5195 77.5399 77.8869 74.5217C81.4539 72.0566 86.8311 71.6049 91.0616 73.1665Z" fill="#EFAF4E"/>
<path d="M68.998 76.0707H69.03C69.274 78.875 70.9442 81.5942 73.9704 83.6856C77.2516 85.9531 81.5327 87.076 85.7957 87.076C90.0586 87.076 94.3397 85.9531 97.6209 83.6856C100.647 81.5942 102.317 78.875 102.561 76.0707H102.607V75.6957V70.2226V69.8476H102.232H100.637C99.8594 68.8246 98.8525 67.87 97.6209 67.0189C94.3397 64.7513 90.0586 63.6284 85.7957 63.6284C81.5327 63.6284 77.2516 64.7513 73.9704 67.0189C72.7388 67.87 71.732 68.8246 70.9541 69.8476H69.373H68.998V70.2226V75.6957V76.0707Z" fill="#EFAF4E" stroke="black" stroke-width="0.75"/>
<path d="M73.9697 79.3628C77.2509 81.6304 81.532 82.7533 85.7949 82.7533C90.0579 82.7533 94.339 81.6304 97.6202 79.3628C100.905 77.0928 102.592 74.0827 102.592 71.0295C102.592 67.9762 100.905 64.9662 97.6202 62.6962C94.339 60.4286 90.0579 59.3057 85.7949 59.3057C81.532 59.3057 77.2509 60.4286 73.9697 62.6962C70.6849 64.9662 68.998 67.9763 68.998 71.0295C68.998 74.0827 70.6849 77.0928 73.9697 79.3628Z" fill="white" stroke="black" stroke-width="0.75"/>
<path d="M77.6737 76.8029C79.932 78.3636 82.8725 79.133 85.7948 79.133C88.7171 79.133 91.6575 78.3636 93.9158 76.8029C96.1778 75.2397 97.3532 73.1562 97.3532 71.0294C97.3532 68.9027 96.1778 66.8191 93.9158 65.2559C91.6575 63.6953 88.7171 62.9258 85.7948 62.9258C82.8725 62.9258 79.932 63.6953 77.6737 65.2559C75.4118 66.8191 74.2363 68.9027 74.2363 71.0294C74.2363 73.1562 75.4118 75.2397 77.6737 76.8029Z" fill="#FFD979" stroke="black" stroke-width="0.75"/>
<path d="M91.0616 64.2092C87.0083 63.0508 82.1693 63.61 78.8746 65.8869C74.5071 68.9051 74.5071 73.7986 78.8746 76.8168C79.6749 77.3699 80.5664 77.8217 81.5156 78.1721C80.196 77.7949 78.9596 77.2357 77.8869 76.4944C73.5195 73.4762 73.5195 68.5827 77.8869 65.5644C81.4539 63.0993 86.8311 62.6476 91.0616 64.2092Z" fill="#EFAF4E"/>
<path fill-rule="evenodd" clip-rule="evenodd" d="M133.002 37.4999C133.582 36.006 133.889 34.4512 133.889 32.8546C133.889 21.3102 117.868 11.9517 98.1065 11.9517C78.3445 11.9517 62.3242 21.3102 62.3242 32.8546C62.3242 34.4511 62.6306 36.0058 63.2109 37.4997C66.8268 28.191 81.0774 21.242 98.1064 21.242C115.135 21.242 129.386 28.1912 133.002 37.4999Z" fill="#1B262C"/>
<path fill-rule="evenodd" clip-rule="evenodd" d="M60.0116 35.0295C59.3861 36.6396 59.0559 38.3151 59.0559 40.0357C59.0559 52.4769 76.3206 62.5625 97.6178 62.5625C118.915 62.5625 136.18 52.4769 136.18 40.0357C136.18 38.3152 135.85 36.6398 135.224 35.0298C131.327 45.0616 115.97 52.5504 97.6179 52.5504C79.266 52.5504 63.9082 45.0614 60.0116 35.0295Z" fill="white"/>
<mask id="path-24-inside-1_1650_4271" fill="white">
<path fill-rule="evenodd" clip-rule="evenodd" d="M58.0165 37.1834C57.9873 37.5676 57.9725 37.9541 57.9725 38.3427C57.9725 51.8117 75.694 62.7305 97.5546 62.7305C119.415 62.7305 137.137 51.8117 137.137 38.3427C137.137 37.9541 137.122 37.5676 137.093 37.1834C136.111 50.4665 118.784 61.045 97.5546 61.045C76.3248 61.045 58.9987 50.4665 58.0165 37.1834Z"/>
</mask>
<path fill-rule="evenodd" clip-rule="evenodd" d="M58.0165 37.1834C57.9873 37.5676 57.9725 37.9541 57.9725 38.3427C57.9725 51.8117 75.694 62.7305 97.5546 62.7305C119.415 62.7305 137.137 51.8117 137.137 38.3427C137.137 37.9541 137.122 37.5676 137.093 37.1834C136.111 50.4665 118.784 61.045 97.5546 61.045C76.3248 61.045 58.9987 50.4665 58.0165 37.1834Z" fill="white"/>
<path d="M58.0165 37.1834L59.0137 37.1096L57.0193 37.1076L58.0165 37.1834ZM137.093 37.1834L138.09 37.1076L136.096 37.1096L137.093 37.1834ZM97.5546 61.045L97.5546 60.045L97.5546 61.045ZM58.9725 38.3427C58.9725 37.9794 58.9863 37.6182 59.0136 37.2591L57.0193 37.1076C56.9882 37.517 56.9725 37.9287 56.9725 38.3427L58.9725 38.3427ZM97.5546 61.7305C86.7791 61.7305 77.0716 59.0374 70.0904 54.7361C63.0932 50.4249 58.9725 44.601 58.9725 38.3427L56.9725 38.3427C56.9725 45.5534 61.7126 51.9234 69.0413 56.4388C76.386 60.9641 86.4695 63.7305 97.5546 63.7305L97.5546 61.7305ZM136.137 38.3427C136.137 44.601 132.016 50.4249 125.019 54.7361C118.038 59.0374 108.33 61.7305 97.5546 61.7305L97.5546 63.7305C108.64 63.7305 118.723 60.9641 126.068 56.4388C133.397 51.9234 138.137 45.5534 138.137 38.3427L136.137 38.3427ZM136.096 37.2591C136.123 37.6182 136.137 37.9794 136.137 38.3427L138.137 38.3427C138.137 37.9288 138.121 37.517 138.09 37.1076L136.096 37.2591ZM136.096 37.1096C135.637 43.3156 131.343 49.0339 124.399 53.24C117.468 57.4376 108.013 60.045 97.5546 60.045L97.5546 62.045C108.326 62.045 118.149 59.3633 125.435 54.9507C132.706 50.5469 137.567 44.3343 138.09 37.2571L136.096 37.1096ZM97.5546 60.045C87.0958 60.045 77.6413 57.4376 70.7107 53.24C63.7659 49.0339 59.4726 43.3156 59.0137 37.1096L57.0192 37.2571C57.5425 44.3343 62.4034 50.5468 69.6746 54.9507C76.9602 59.3633 86.7836 62.045 97.5546 62.045L97.5546 60.045Z" fill="black" mask="url(#path-24-inside-1_1650_4271)"/>
<path d="M133.866 32.75C133.866 38.3546 129.96 43.5256 123.435 47.3245C116.923 51.1158 107.892 53.4776 97.8887 53.4776C87.8852 53.4776 78.8543 51.1158 72.3421 47.3245C65.817 43.5256 61.9111 38.3546 61.9111 32.75C61.9111 27.1454 65.817 21.9744 72.3421 18.1755C78.8543 14.3842 87.8852 12.0224 97.8887 12.0224C107.892 12.0224 116.923 14.3842 123.435 18.1755C129.96 21.9744 133.866 27.1454 133.866 32.75Z" stroke="black" stroke-width="1.04487"/>
</svg>
