<svg width="176" height="155" viewBox="0 0 176 155" fill="none" xmlns="http://www.w3.org/2000/svg">
<ellipse opacity="0.2" cx="88" cy="103.257" rx="76" ry="42.75" fill="#919193"/>
<ellipse cx="89.3966" cy="102.353" rx="52.6661" ry="26.4813" fill="#232326"/>
<path d="M51.8887 55.0317C52.5416 44.5848 56.8401 40.776 58.9077 40.1775V35.1704C58.9077 30.7139 59.5182 26.0913 62.3739 22.6699C70.5722 12.8475 87.1913 9 97.4306 9C119.908 9 130.51 18.0037 134.906 25.1528C136.726 28.1125 137.096 31.6598 137.096 35.1342V40.1775C142.842 44.748 143.517 51.1141 143.136 53.7258V97.7987C140.47 106.069 127.27 122.218 95.7983 120.651C64.327 119.084 53.4122 104.763 51.8887 97.7987V55.0317Z" fill="white" stroke="black" stroke-width="1.56731"/>
<ellipse cx="96.4631" cy="90.3653" rx="41.6857" ry="23.6294" fill="#FFE9B1"/>
<ellipse opacity="0.3" cx="100.611" cy="88.8171" rx="28.261" ry="17.2541" fill="#232326"/>
<path d="M66.4766 90.9064H66.5093C66.7594 93.7144 68.4732 96.4338 71.573 98.5237C74.9341 100.79 79.3192 101.912 83.6856 101.912C88.052 101.912 92.4371 100.79 95.7982 98.5237C98.898 96.4338 100.612 93.7144 100.862 90.9064H100.909V90.5314V85.0582V84.6832H100.534H98.8915C98.0939 83.6591 97.0613 82.7037 95.7982 81.8522C92.4371 79.5862 88.052 78.4641 83.6856 78.4641C79.3192 78.4641 74.9341 79.5862 71.573 81.8522C70.3099 82.7037 69.2773 83.6591 68.4797 84.6832H66.8516H66.4766V85.0582V90.5314V90.9064Z" fill="#EFAF4E" stroke="black" stroke-width="0.75"/>
<path d="M71.5742 94.2004C74.9353 96.4665 79.3204 97.5885 83.6868 97.5885C88.0532 97.5885 92.4383 96.4665 95.7994 94.2004C99.1637 91.9323 100.895 88.9222 100.895 85.8647C100.895 82.8072 99.1637 79.7971 95.7994 77.5289C92.4383 75.2629 88.0532 74.1409 83.6868 74.1409C79.3204 74.1409 74.9353 75.2629 71.5742 77.5289C68.2099 79.7971 66.4785 82.8072 66.4785 85.8647C66.4785 88.9222 68.2099 91.9323 71.5742 94.2004Z" fill="white" stroke="black" stroke-width="0.75"/>
<path d="M75.3706 91.6408C77.6832 93.1999 80.6941 93.9685 83.6863 93.9685C86.6784 93.9685 89.6893 93.1999 92.0019 91.6408C94.3177 90.0795 95.5249 87.9958 95.5249 85.8649C95.5249 83.7339 94.3177 81.6503 92.0019 80.089C89.6893 78.5298 86.6784 77.7612 83.6863 77.7612C80.6941 77.7612 77.6832 78.5298 75.3706 80.089C73.0548 81.6503 71.8477 83.7339 71.8477 85.8649C71.8477 87.9958 73.0548 90.0795 75.3706 91.6408Z" fill="#EFAF4E" stroke="black" stroke-width="0.75"/>
<path d="M89.085 79.0446C84.9302 77.8862 79.9699 78.4454 76.5927 80.7224C72.1159 83.7406 72.1159 88.6341 76.5927 91.6523C77.4131 92.2054 78.3269 92.6571 79.2999 93.0075C77.9472 92.6304 76.6798 92.0711 75.5803 91.3298C71.1035 88.3116 71.1035 83.4181 75.5803 80.3999C79.2367 77.9348 84.7486 77.483 89.085 79.0446Z" fill="#EFAF4E"/>
<path d="M96.6035 83.1261H96.6362C96.8864 85.9341 98.6002 88.6536 101.7 90.7434C105.061 93.0094 109.446 94.1315 113.813 94.1315C118.179 94.1315 122.564 93.0094 125.925 90.7434C129.025 88.6536 130.739 85.9341 130.989 83.1261H131.036V82.7511V77.278V76.903H130.661H129.018C128.221 75.8788 127.188 74.9235 125.925 74.0719C122.564 71.8059 118.179 70.6838 113.813 70.6838C109.446 70.6838 105.061 71.8059 101.7 74.0719C100.437 74.9235 99.4043 75.8788 98.6066 76.903H96.9785H96.6035V77.278V82.7511V83.1261Z" fill="#B17518" stroke="black" stroke-width="0.75"/>
<path d="M101.701 86.4204C105.062 88.6864 109.447 89.8085 113.814 89.8085C118.18 89.8085 122.565 88.6864 125.926 86.4204C129.291 84.1522 131.022 81.1421 131.022 78.0847C131.022 75.0272 129.291 72.0171 125.926 69.7489C122.565 67.4829 118.18 66.3608 113.814 66.3608C109.447 66.3608 105.062 67.4829 101.701 69.7489C98.3369 72.0171 96.6055 75.0272 96.6055 78.0847C96.6055 81.1421 98.3369 84.1522 101.701 86.4204Z" fill="white" stroke="black" stroke-width="0.75"/>
<path d="M105.498 83.8605C107.81 85.4196 110.821 86.1882 113.813 86.1882C116.805 86.1882 119.816 85.4196 122.129 83.8605C124.445 82.2992 125.652 80.2156 125.652 78.0846C125.652 75.9536 124.445 73.87 122.129 72.3087C119.816 70.7496 116.805 69.981 113.813 69.981C110.821 69.981 107.81 70.7496 105.498 72.3087C103.182 73.87 101.975 75.9536 101.975 78.0846C101.975 80.2156 103.182 82.2992 105.498 83.8605Z" fill="#EFAF4E" stroke="black" stroke-width="0.75"/>
<path d="M119.212 71.2644C115.057 70.1059 110.097 70.6652 106.72 72.9421C102.243 75.9603 102.243 80.8538 106.72 83.872C107.54 84.4251 108.454 84.8769 109.427 85.2273C108.074 84.8501 106.807 84.2909 105.707 83.5496C101.23 80.5313 101.23 75.6378 105.707 72.6196C109.364 70.1545 114.876 69.7028 119.212 71.2644Z" fill="#EFAF4E"/>
<path d="M95.375 76.8976H95.4077C95.6579 79.7056 97.3717 82.425 100.471 84.5149C103.833 86.7809 108.218 87.903 112.584 87.903C116.95 87.903 121.336 86.7809 124.697 84.5149C127.796 82.425 129.51 79.7056 129.76 76.8976H129.807V76.5226V71.0495V70.6745H129.432H127.79C126.992 69.6503 125.96 68.6949 124.697 67.8434C121.336 65.5774 116.95 64.4553 112.584 64.4553C108.218 64.4553 103.833 65.5774 100.471 67.8434C99.2084 68.6949 98.1758 69.6503 97.3781 70.6745H95.75H95.375V71.0495V76.5226V76.8976Z" fill="#B17518" stroke="black" stroke-width="0.75"/>
<path d="M100.473 80.1919C103.834 82.4579 108.219 83.58 112.585 83.58C116.952 83.58 121.337 82.4579 124.698 80.1919C128.062 77.9237 129.794 74.9136 129.794 71.8561C129.794 68.7987 128.062 65.7886 124.698 63.5204C121.337 61.2544 116.952 60.1323 112.585 60.1323C108.219 60.1323 103.834 61.2544 100.473 63.5204C97.1084 65.7886 95.377 68.7987 95.377 71.8561C95.377 74.9136 97.1084 77.9237 100.473 80.1919Z" fill="white" stroke="black" stroke-width="0.75"/>
<path d="M104.269 77.632C106.582 79.1911 109.592 79.9597 112.585 79.9597C115.577 79.9597 118.588 79.1911 120.9 77.632C123.216 76.0707 124.423 73.9871 124.423 71.8561C124.423 69.7251 123.216 67.6415 120.9 66.0802C118.588 64.521 115.577 63.7524 112.585 63.7524C109.592 63.7524 106.582 64.521 104.269 66.0802C101.953 67.6415 100.746 69.7251 100.746 71.8561C100.746 73.9871 101.953 76.0707 104.269 77.632Z" fill="#EFAF4E" stroke="black" stroke-width="0.75"/>
<path d="M117.983 65.0359C113.829 63.8774 108.868 64.4367 105.491 66.7136C101.014 69.7318 101.014 74.6253 105.491 77.6435C106.312 78.1966 107.225 78.6484 108.198 78.9987C106.846 78.6216 105.578 78.0623 104.479 77.321C100.002 74.3028 100.002 69.4093 104.479 66.3911C108.135 63.926 113.647 63.4742 117.983 65.0359Z" fill="#EFAF4E"/>
<path d="M93.3848 67.736H93.4175C93.6676 70.544 95.3814 73.2634 98.4812 75.3533C101.842 77.6193 106.227 78.7413 110.594 78.7413C114.96 78.7413 119.345 77.6193 122.706 75.3533C125.806 73.2634 127.52 70.544 127.77 67.736H127.817V67.361V61.8878V61.5128H127.442H125.8C125.002 60.4887 123.969 59.5333 122.706 58.6818C119.345 56.4157 114.96 55.2937 110.594 55.2937C106.227 55.2937 101.842 56.4157 98.4812 58.6818C97.2181 59.5333 96.1855 60.4887 95.3879 61.5128H93.7598H93.3848V61.8878V67.361V67.736Z" fill="#B17518" stroke="black" stroke-width="0.75"/>
<path d="M98.4824 71.0303C101.844 73.2963 106.229 74.4183 110.595 74.4183C114.961 74.4183 119.346 73.2963 122.708 71.0303C126.072 68.7621 127.803 65.752 127.803 62.6945C127.803 59.6371 126.072 56.627 122.708 54.3588C119.346 52.0927 114.961 50.9707 110.595 50.9707C106.229 50.9707 101.844 52.0927 98.4824 54.3588C95.1181 56.627 93.3867 59.6371 93.3867 62.6945C93.3867 65.752 95.1181 68.7621 98.4824 71.0303Z" fill="white" stroke="black" stroke-width="0.75"/>
<path d="M102.279 68.4704C104.591 70.0295 107.602 70.7981 110.594 70.7981C113.587 70.7981 116.597 70.0295 118.91 68.4703C121.226 66.909 122.433 64.8254 122.433 62.6944C122.433 60.5635 121.226 58.4799 118.91 56.9185C116.597 55.3594 113.587 54.5908 110.594 54.5908C107.602 54.5908 104.591 55.3594 102.279 56.9185C99.963 58.4799 98.7559 60.5635 98.7559 62.6944C98.7559 64.8254 99.963 66.909 102.279 68.4704Z" fill="#EFAF4E" stroke="black" stroke-width="0.75"/>
<path d="M115.993 55.8742C111.838 54.7158 106.878 55.275 103.501 57.5519C99.0241 60.5702 99.0241 65.4637 103.501 68.4819C104.321 69.035 105.235 69.4867 106.208 69.8371C104.855 69.46 103.588 68.9007 102.488 68.1594C98.0117 65.1412 98.0117 60.2477 102.488 57.2295C106.145 54.7644 111.657 54.3126 115.993 55.8742Z" fill="#EFAF4E"/>
<path d="M68.998 85.028H69.03C69.274 87.8323 70.9442 90.5515 73.9704 92.6428C77.2516 94.9104 81.5327 96.0333 85.7957 96.0333C90.0586 96.0333 94.3397 94.9104 97.6209 92.6428C100.647 90.5515 102.317 87.8323 102.561 85.028H102.607V84.653V79.1798V78.8048H102.232H100.637C99.8594 77.7819 98.8525 76.8273 97.6209 75.9762C94.3397 73.7086 90.0586 72.5857 85.7957 72.5857C81.5327 72.5857 77.2516 73.7086 73.9704 75.9762C72.7388 76.8273 71.732 77.7819 70.9541 78.8048H69.373H68.998V79.1798V84.653V85.028Z" fill="#EFAF4E" stroke="black" stroke-width="0.75"/>
<path d="M73.9697 88.3201C77.2509 90.5876 81.532 91.7106 85.7949 91.7106C90.0579 91.7106 94.339 90.5876 97.6202 88.3201C100.905 86.05 102.592 83.04 102.592 79.9868C102.592 76.9335 100.905 73.9235 97.6202 71.6534C94.339 69.3859 90.0579 68.2629 85.7949 68.2629C81.532 68.2629 77.2509 69.3859 73.9697 71.6534C70.6849 73.9235 68.998 76.9335 68.998 79.9868C68.998 83.04 70.6849 86.05 73.9697 88.3201Z" fill="white" stroke="black" stroke-width="0.75"/>
<path d="M77.6737 85.7602C79.932 87.3208 82.8725 88.0903 85.7948 88.0903C88.7171 88.0903 91.6575 87.3208 93.9158 85.7601C96.1778 84.197 97.3532 82.1134 97.3532 79.9867C97.3532 77.8599 96.1778 75.7764 93.9158 74.2132C91.6575 72.6525 88.7171 71.8831 85.7948 71.8831C82.8725 71.8831 79.932 72.6525 77.6737 74.2132C75.4118 75.7764 74.2363 77.8599 74.2363 79.9867C74.2363 82.1134 75.4118 84.197 77.6737 85.7602Z" fill="#EFAF4E" stroke="black" stroke-width="0.75"/>
<path d="M91.0616 73.1665C87.0083 72.008 82.1693 72.5673 78.8746 74.8442C74.5071 77.8624 74.5071 82.7559 78.8746 85.7741C79.6749 86.3272 80.5664 86.779 81.5156 87.1294C80.196 86.7522 78.9596 86.193 77.8869 85.4517C73.5195 82.4334 73.5195 77.5399 77.8869 74.5217C81.4539 72.0566 86.8311 71.6049 91.0616 73.1665Z" fill="#EFAF4E"/>
<path d="M68.998 76.0707H69.03C69.274 78.875 70.9442 81.5942 73.9704 83.6856C77.2516 85.9531 81.5327 87.076 85.7957 87.076C90.0586 87.076 94.3397 85.9531 97.6209 83.6856C100.647 81.5942 102.317 78.875 102.561 76.0707H102.607V75.6957V70.2226V69.8476H102.232H100.637C99.8594 68.8246 98.8525 67.87 97.6209 67.0189C94.3397 64.7513 90.0586 63.6284 85.7957 63.6284C81.5327 63.6284 77.2516 64.7513 73.9704 67.0189C72.7388 67.87 71.732 68.8246 70.9541 69.8476H69.373H68.998V70.2226V75.6957V76.0707Z" fill="#EFAF4E" stroke="black" stroke-width="0.75"/>
<path d="M73.9697 79.3628C77.2509 81.6304 81.532 82.7533 85.7949 82.7533C90.0579 82.7533 94.339 81.6304 97.6202 79.3628C100.905 77.0928 102.592 74.0827 102.592 71.0295C102.592 67.9762 100.905 64.9662 97.6202 62.6962C94.339 60.4286 90.0579 59.3057 85.7949 59.3057C81.532 59.3057 77.2509 60.4286 73.9697 62.6962C70.6849 64.9662 68.998 67.9763 68.998 71.0295C68.998 74.0827 70.6849 77.0928 73.9697 79.3628Z" fill="white" stroke="black" stroke-width="0.75"/>
<path d="M77.6737 76.8029C79.932 78.3636 82.8725 79.133 85.7948 79.133C88.7171 79.133 91.6575 78.3636 93.9158 76.8029C96.1778 75.2397 97.3532 73.1562 97.3532 71.0294C97.3532 68.9027 96.1778 66.8191 93.9158 65.2559C91.6575 63.6953 88.7171 62.9258 85.7948 62.9258C82.8725 62.9258 79.932 63.6953 77.6737 65.2559C75.4118 66.8191 74.2363 68.9027 74.2363 71.0294C74.2363 73.1562 75.4118 75.2397 77.6737 76.8029Z" fill="#EFAF4E" stroke="black" stroke-width="0.75"/>
<path d="M91.0616 64.2092C87.0083 63.0508 82.1693 63.61 78.8746 65.8869C74.5071 68.9051 74.5071 73.7986 78.8746 76.8168C79.6749 77.3699 80.5664 77.8217 81.5156 78.1721C80.196 77.7949 78.9596 77.2357 77.8869 76.4944C73.5195 73.4762 73.5195 68.5827 77.8869 65.5644C81.4539 63.0993 86.8311 62.6476 91.0616 64.2092Z" fill="#EFAF4E"/>
<path d="M64.873 70.3903H64.905C65.149 73.1946 66.8192 75.9138 69.8454 78.0051C73.1266 80.2727 77.4077 81.3956 81.6707 81.3956C85.9336 81.3956 90.2147 80.2727 93.4959 78.0051C96.5221 75.9138 98.1924 73.1946 98.4363 70.3903H98.4822V70.0153V64.5421V64.1671H98.1072H96.5122C95.7344 63.1442 94.7275 62.1896 93.4959 61.3385C90.2147 59.0709 85.9336 57.948 81.6707 57.948C77.4077 57.948 73.1266 59.0709 69.8454 61.3385C68.6138 62.1896 67.607 63.1442 66.8291 64.1671H65.248H64.873V64.5421V70.0153V70.3903Z" fill="#EFAF4E" stroke="black" stroke-width="0.75"/>
<path d="M69.8447 73.6824C73.1259 75.9499 77.407 77.0729 81.6699 77.0729C85.9329 77.0729 90.214 75.9499 93.4952 73.6824C96.78 71.4123 98.4668 68.4023 98.4668 65.3491C98.4668 62.2958 96.78 59.2858 93.4952 57.0157C90.214 54.7482 85.9329 53.6252 81.6699 53.6252C77.407 53.6252 73.1259 54.7482 69.8447 57.0157C66.5599 59.2858 64.873 62.2958 64.873 65.3491C64.873 68.4023 66.5599 71.4123 69.8447 73.6824Z" fill="white" stroke="black" stroke-width="0.75"/>
<path d="M73.5487 71.1225C75.807 72.6831 78.7475 73.4526 81.6698 73.4526C84.5921 73.4526 87.5325 72.6831 89.7908 71.1225C92.0528 69.5593 93.2282 67.4757 93.2282 65.349C93.2282 63.2222 92.0528 61.1387 89.7908 59.5755C87.5325 58.0148 84.5921 57.2454 81.6698 57.2454C78.7475 57.2454 75.807 58.0148 73.5487 59.5755C71.2868 61.1387 70.1113 63.2222 70.1113 65.349C70.1113 67.4757 71.2868 69.5593 73.5487 71.1225Z" fill="#EFAF4E" stroke="black" stroke-width="0.75"/>
<path d="M86.9366 58.5288C82.8833 57.3703 78.0443 57.9296 74.7496 60.2065C70.3821 63.2247 70.3821 68.1182 74.7496 71.1364C75.5499 71.6895 76.4414 72.1413 77.3906 72.4917C76.071 72.1145 74.8346 71.5553 73.7619 70.814C69.3945 67.7957 69.3945 62.9022 73.7619 59.884C77.3289 57.4189 82.7061 56.9672 86.9366 58.5288Z" fill="#EFAF4E"/>
<path d="M66.0332 63.3876H66.0652C66.3092 66.1919 67.9794 68.9111 71.0056 71.0025C74.2868 73.27 78.5679 74.3929 82.8308 74.3929C87.0938 74.3929 91.3749 73.27 94.6561 71.0025C97.6823 68.9111 99.3525 66.1919 99.5965 63.3876H99.6423V63.0126V57.5395V57.1645H99.2673H97.6724C96.8945 56.1415 95.8877 55.1869 94.6561 54.3358C91.3749 52.0682 87.0938 50.9453 82.8308 50.9453C78.5679 50.9453 74.2868 52.0682 71.0056 54.3358C69.774 55.1869 68.7672 56.1415 67.9893 57.1645H66.4082H66.0332V57.5395V63.0126V63.3876Z" fill="#EFAF4E" stroke="black" stroke-width="0.75"/>
<path d="M71.0049 66.6797C74.2861 68.9473 78.5672 70.0702 82.8301 70.0702C87.093 70.0702 91.3741 68.9473 94.6553 66.6797C97.9401 64.4096 99.627 61.3996 99.627 58.3464C99.627 55.2931 97.9401 52.2831 94.6553 50.013C91.3741 47.7455 87.093 46.6226 82.8301 46.6226C78.5672 46.6226 74.2861 47.7455 71.0049 50.0131C67.7201 52.2831 66.0332 55.2931 66.0332 58.3464C66.0332 61.3996 67.7201 64.4096 71.0049 66.6797Z" fill="white" stroke="black" stroke-width="0.75"/>
<path d="M74.7088 64.1198C76.9672 65.6804 79.9076 66.4499 82.8299 66.4499C85.7522 66.4499 88.6927 65.6804 90.951 64.1198C93.2129 62.5566 94.3884 60.473 94.3884 58.3463C94.3884 56.2196 93.2129 54.136 90.951 52.5728C88.6927 51.0122 85.7522 50.2427 82.8299 50.2427C79.9076 50.2427 76.9672 51.0122 74.7088 52.5728C72.4469 54.136 71.2715 56.2196 71.2715 58.3463C71.2715 60.473 72.4469 62.5566 74.7088 64.1198Z" fill="#FFD979" stroke="black" stroke-width="0.75"/>
<path d="M88.0967 51.5261C84.0434 50.3677 79.2044 50.9269 75.9097 53.2038C71.5423 56.222 71.5423 61.1155 75.9097 64.1337C76.7101 64.6868 77.6016 65.1386 78.5508 65.489C77.2311 65.1118 75.9947 64.5526 74.922 63.8113C70.5546 60.7931 70.5546 55.8996 74.922 52.8813C78.4891 50.4162 83.8663 49.9645 88.0967 51.5261Z" fill="#EFAF4E"/>
<path fill-rule="evenodd" clip-rule="evenodd" d="M133.002 37.4999C133.582 36.006 133.889 34.4512 133.889 32.8546C133.889 21.3102 117.868 11.9517 98.1065 11.9517C78.3445 11.9517 62.3242 21.3102 62.3242 32.8546C62.3242 34.4511 62.6306 36.0058 63.2109 37.4997C66.8268 28.191 81.0774 21.242 98.1064 21.242C115.135 21.242 129.386 28.1912 133.002 37.4999Z" fill="#1B262C"/>
<path fill-rule="evenodd" clip-rule="evenodd" d="M60.0116 35.0295C59.3861 36.6396 59.0559 38.3151 59.0559 40.0357C59.0559 52.4769 76.3206 62.5625 97.6178 62.5625C118.915 62.5625 136.18 52.4769 136.18 40.0357C136.18 38.3152 135.85 36.6398 135.224 35.0298C131.327 45.0616 115.97 52.5504 97.6179 52.5504C79.266 52.5504 63.9082 45.0614 60.0116 35.0295Z" fill="white"/>
<mask id="path-40-inside-1_1650_4461" fill="white">
<path fill-rule="evenodd" clip-rule="evenodd" d="M58.0184 37.1834C57.9892 37.5676 57.9745 37.9541 57.9745 38.3427C57.9745 51.8117 75.696 62.7305 97.5566 62.7305C119.417 62.7305 137.139 51.8117 137.139 38.3427C137.139 37.9541 137.124 37.5676 137.095 37.1834C136.113 50.4665 118.786 61.045 97.5566 61.045C76.3268 61.045 59.0006 50.4665 58.0184 37.1834Z"/>
</mask>
<path fill-rule="evenodd" clip-rule="evenodd" d="M58.0184 37.1834C57.9892 37.5676 57.9745 37.9541 57.9745 38.3427C57.9745 51.8117 75.696 62.7305 97.5566 62.7305C119.417 62.7305 137.139 51.8117 137.139 38.3427C137.139 37.9541 137.124 37.5676 137.095 37.1834C136.113 50.4665 118.786 61.045 97.5566 61.045C76.3268 61.045 59.0006 50.4665 58.0184 37.1834Z" fill="white"/>
<path d="M58.0184 37.1834L59.0157 37.1096L57.0213 37.1076L58.0184 37.1834ZM137.095 37.1834L138.092 37.1076L136.097 37.1096L137.095 37.1834ZM97.5566 61.045L97.5566 60.045L97.5566 61.045ZM58.9745 38.3427C58.9745 37.9794 58.9883 37.6182 59.0155 37.2591L57.0213 37.1076C56.9902 37.517 56.9745 37.9287 56.9745 38.3427L58.9745 38.3427ZM97.5566 61.7305C86.7811 61.7305 77.0736 59.0374 70.0924 54.7361C63.0952 50.4249 58.9745 44.601 58.9745 38.3427L56.9745 38.3427C56.9745 45.5534 61.7145 51.9234 69.0432 56.4388C76.3879 60.9641 86.4715 63.7305 97.5566 63.7305L97.5566 61.7305ZM136.139 38.3427C136.139 44.601 132.018 50.4249 125.021 54.7361C118.04 59.0374 108.332 61.7305 97.5566 61.7305L97.5566 63.7305C108.642 63.7305 118.725 60.9641 126.07 56.4388C133.399 51.9234 138.139 45.5534 138.139 38.3427L136.139 38.3427ZM136.098 37.2591C136.125 37.6182 136.139 37.9794 136.139 38.3427L138.139 38.3427C138.139 37.9288 138.123 37.517 138.092 37.1076L136.098 37.2591ZM136.097 37.1096C135.639 43.3156 131.345 49.0339 124.4 53.24C117.47 57.4376 108.015 60.045 97.5566 60.045L97.5566 62.045C108.328 62.045 118.151 59.3633 125.437 54.9507C132.708 50.5469 137.569 44.3343 138.092 37.2571L136.097 37.1096ZM97.5566 60.045C87.0978 60.045 77.6432 57.4376 70.7127 53.24C63.7679 49.0339 59.4746 43.3156 59.0157 37.1096L57.0211 37.2571C57.5444 44.3343 62.4053 50.5468 69.6766 54.9507C76.9621 59.3633 86.7856 62.045 97.5566 62.045L97.5566 60.045Z" fill="black" mask="url(#path-40-inside-1_1650_4461)"/>
<path d="M133.866 32.75C133.866 38.3546 129.96 43.5256 123.435 47.3245C116.923 51.1158 107.892 53.4776 97.8887 53.4776C87.8852 53.4776 78.8543 51.1158 72.3421 47.3245C65.817 43.5256 61.9111 38.3546 61.9111 32.75C61.9111 27.1454 65.817 21.9744 72.3421 18.1755C78.8543 14.3842 87.8852 12.0224 97.8887 12.0224C107.892 12.0224 116.923 14.3842 123.435 18.1755C129.96 21.9744 133.866 27.1454 133.866 32.75Z" stroke="black" stroke-width="1.04487"/>
</svg>
