<svg width="176" height="155" viewBox="0 0 176 155" fill="none" xmlns="http://www.w3.org/2000/svg">
<ellipse opacity="0.2" cx="88" cy="103.257" rx="76" ry="42.75" fill="#919193"/>
<ellipse cx="89.3966" cy="102.353" rx="52.6661" ry="26.4813" fill="#232326"/>
<path d="M51.8887 55.0317C52.5416 44.5848 56.8401 40.776 58.9077 40.1775V35.1704C58.9077 30.7139 59.5182 26.0913 62.3739 22.6699C70.5722 12.8475 87.1913 9 97.4306 9C119.908 9 130.51 18.0037 134.906 25.1528C136.726 28.1125 137.096 31.6598 137.096 35.1342V40.1775C142.842 44.748 143.517 51.1141 143.136 53.7258V97.7987C140.47 106.069 127.27 122.218 95.7983 120.651C64.327 119.084 53.4122 104.763 51.8887 97.7987V55.0317Z" fill="white" stroke="black" stroke-width="1.56731"/>
<ellipse cx="96.4631" cy="90.3653" rx="41.6857" ry="23.6294" fill="#FFE9B1"/>
<ellipse opacity="0.7" cx="100.611" cy="88.8171" rx="28.261" ry="17.2541" fill="#BDAE87"/>
<path d="M100.534 84.6845H98.8915C98.0939 83.6603 97.0613 82.705 95.7982 81.8534C92.4371 79.5874 88.052 78.4653 83.6856 78.4653C79.3192 78.4653 74.9341 79.5874 71.573 81.8534C70.3099 82.705 69.2773 83.6603 68.4797 84.6845H66.8516H66.4766V85.0595V90.5326V90.9076H66.5093C66.7594 93.7156 68.4732 96.435 71.573 98.5249C74.9341 100.791 79.3192 101.913 83.6856 101.913C88.052 101.913 92.4371 100.791 95.7982 98.5249C98.898 96.435 100.612 93.7156 100.862 90.9076H100.909V90.5326V85.0595V84.6845H100.534Z" fill="#EFAF4E" stroke="black" stroke-width="0.75"/>
<path d="M71.5742 94.2017C74.9353 96.4677 79.3204 97.5897 83.6868 97.5897C88.0532 97.5897 92.4383 96.4677 95.7994 94.2017C99.1637 91.9335 100.895 88.9234 100.895 85.8659C100.895 82.8084 99.1637 79.7983 95.7994 77.5301C92.4383 75.2641 88.0532 74.1421 83.6868 74.1421C79.3204 74.1421 74.9353 75.2641 71.5742 77.5301C68.2099 79.7983 66.4785 82.8084 66.4785 85.8659C66.4785 88.9234 68.2099 91.9335 71.5742 94.2017Z" fill="white" stroke="black" stroke-width="0.75"/>
<path d="M75.3706 91.642C77.6832 93.2011 80.6941 93.9697 83.6863 93.9697C86.6784 93.9697 89.6893 93.2011 92.0019 91.642C94.3177 90.0807 95.5249 87.9971 95.5249 85.8661C95.5249 83.7351 94.3177 81.6515 92.0019 80.0902C89.6893 78.5311 86.6784 77.7625 83.6863 77.7625C80.6941 77.7625 77.6832 78.5311 75.3706 80.0902C73.0548 81.6515 71.8477 83.7351 71.8477 85.8661C71.8477 87.9971 73.0548 90.0807 75.3706 91.642Z" fill="#EFAF4E" stroke="black" stroke-width="0.75"/>
<path d="M89.085 79.0459C84.9302 77.8874 79.9699 78.4467 76.5927 80.7236C72.1159 83.7418 72.1159 88.6353 76.5927 91.6535C77.4131 92.2066 78.3269 92.6584 79.2999 93.0088C77.9472 92.6316 76.6798 92.0724 75.5803 91.331C71.1035 88.3128 71.1035 83.4193 75.5803 80.4011C79.2367 77.936 84.7486 77.4843 89.085 79.0459Z" fill="#EFAF4E"/>
<path d="M130.661 76.903H129.018C128.221 75.8788 127.188 74.9235 125.925 74.0719C122.564 71.8059 118.179 70.6838 113.813 70.6838C109.446 70.6838 105.061 71.8059 101.7 74.0719C100.437 74.9235 99.4043 75.8788 98.6066 76.903H96.9785H96.6035V77.278V82.7511V83.1261H96.6362C96.8864 85.9341 98.6002 88.6536 101.7 90.7434C105.061 93.0094 109.446 94.1315 113.813 94.1315C118.179 94.1315 122.564 93.0094 125.925 90.7434C129.025 88.6536 130.739 85.9341 130.989 83.1261H131.036V82.7511V77.278V76.903H130.661Z" fill="#EFAF4E" stroke="black" stroke-width="0.75"/>
<path d="M101.701 86.4204C105.062 88.6864 109.447 89.8085 113.814 89.8085C118.18 89.8085 122.565 88.6864 125.926 86.4204C129.291 84.1522 131.022 81.1421 131.022 78.0847C131.022 75.0272 129.291 72.0171 125.926 69.7489C122.565 67.4829 118.18 66.3608 113.814 66.3608C109.447 66.3608 105.062 67.4829 101.701 69.7489C98.3369 72.0171 96.6055 75.0272 96.6055 78.0847C96.6055 81.1421 98.3369 84.1522 101.701 86.4204Z" fill="white" stroke="black" stroke-width="0.75"/>
<path d="M105.498 83.8605C107.81 85.4196 110.821 86.1882 113.813 86.1882C116.805 86.1882 119.816 85.4196 122.129 83.8605C124.445 82.2992 125.652 80.2156 125.652 78.0846C125.652 75.9536 124.445 73.87 122.129 72.3087C119.816 70.7496 116.805 69.981 113.813 69.981C110.821 69.981 107.81 70.7496 105.498 72.3087C103.182 73.87 101.975 75.9536 101.975 78.0846C101.975 80.2156 103.182 82.2992 105.498 83.8605Z" fill="#FFD979" stroke="black" stroke-width="0.75"/>
<path d="M119.212 71.2644C115.057 70.1059 110.097 70.6652 106.72 72.9421C102.243 75.9603 102.243 80.8538 106.72 83.872C107.54 84.4251 108.454 84.8769 109.427 85.2273C108.074 84.8501 106.807 84.2909 105.707 83.5496C101.23 80.5313 101.23 75.6378 105.707 72.6196C109.364 70.1545 114.876 69.7028 119.212 71.2644Z" fill="#EFAF4E"/>
<path d="M102.232 78.8048H100.637C99.8594 77.7819 98.8525 76.8273 97.6209 75.9762C94.3397 73.7086 90.0586 72.5857 85.7957 72.5857C81.5327 72.5857 77.2516 73.7086 73.9704 75.9762C72.7388 76.8273 71.732 77.7819 70.9541 78.8048H69.373H68.998V79.1798V84.653V85.028H69.03C69.274 87.8323 70.9442 90.5515 73.9704 92.6428C77.2516 94.9104 81.5327 96.0333 85.7957 96.0333C90.0586 96.0333 94.3397 94.9104 97.6209 92.6428C100.647 90.5515 102.317 87.8323 102.561 85.028H102.607V84.653V79.1798V78.8048H102.232Z" fill="#EFAF4E" stroke="black" stroke-width="0.75"/>
<path d="M73.9697 88.3201C77.2509 90.5876 81.532 91.7106 85.7949 91.7106C90.0579 91.7106 94.339 90.5876 97.6202 88.3201C100.905 86.05 102.592 83.04 102.592 79.9868C102.592 76.9335 100.905 73.9235 97.6202 71.6534C94.339 69.3859 90.0579 68.2629 85.7949 68.2629C81.532 68.2629 77.2509 69.3859 73.9697 71.6534C70.6849 73.9235 68.998 76.9335 68.998 79.9868C68.998 83.04 70.6849 86.05 73.9697 88.3201Z" fill="white" stroke="black" stroke-width="0.75"/>
<path d="M77.6737 85.7602C79.932 87.3208 82.8725 88.0903 85.7948 88.0903C88.7171 88.0903 91.6575 87.3208 93.9158 85.7601C96.1778 84.197 97.3532 82.1134 97.3532 79.9867C97.3532 77.8599 96.1778 75.7764 93.9158 74.2132C91.6575 72.6525 88.7171 71.8831 85.7948 71.8831C82.8725 71.8831 79.932 72.6525 77.6737 74.2132C75.4118 75.7764 74.2363 77.8599 74.2363 79.9867C74.2363 82.1134 75.4118 84.197 77.6737 85.7602Z" fill="#FFD979" stroke="black" stroke-width="0.75"/>
<path d="M91.0616 73.1665C87.0083 72.008 82.1693 72.5673 78.8746 74.8442C74.5071 77.8624 74.5071 82.7559 78.8746 85.7741C79.6749 86.3272 80.5664 86.779 81.5156 87.1294C80.196 86.7522 78.9596 86.193 77.8869 85.4517C73.5195 82.4334 73.5195 77.5399 77.8869 74.5217C81.4539 72.0566 86.8311 71.6049 91.0616 73.1665Z" fill="#EFAF4E"/>
<path fill-rule="evenodd" clip-rule="evenodd" d="M133.002 37.4999C133.582 36.006 133.889 34.4512 133.889 32.8546C133.889 21.3102 117.868 11.9517 98.1065 11.9517C78.3445 11.9517 62.3242 21.3102 62.3242 32.8546C62.3242 34.4511 62.6306 36.0058 63.2109 37.4997C66.8268 28.191 81.0774 21.242 98.1064 21.242C115.135 21.242 129.386 28.1912 133.002 37.4999Z" fill="#1B262C"/>
<path fill-rule="evenodd" clip-rule="evenodd" d="M60.0116 35.0295C59.3861 36.6396 59.0559 38.3151 59.0559 40.0357C59.0559 52.4769 76.3206 62.5625 97.6178 62.5625C118.915 62.5625 136.18 52.4769 136.18 40.0357C136.18 38.3152 135.85 36.6398 135.224 35.0298C131.327 45.0616 115.97 52.5504 97.6179 52.5504C79.266 52.5504 63.9082 45.0614 60.0116 35.0295Z" fill="white"/>
<mask id="path-20-inside-1_1650_4242" fill="white">
<path fill-rule="evenodd" clip-rule="evenodd" d="M58.0184 37.1834C57.9892 37.5676 57.9745 37.9541 57.9745 38.3427C57.9745 51.8117 75.696 62.7305 97.5566 62.7305C119.417 62.7305 137.139 51.8117 137.139 38.3427C137.139 37.9541 137.124 37.5676 137.095 37.1834C136.113 50.4665 118.786 61.045 97.5566 61.045C76.3268 61.045 59.0006 50.4665 58.0184 37.1834Z"/>
</mask>
<path fill-rule="evenodd" clip-rule="evenodd" d="M58.0184 37.1834C57.9892 37.5676 57.9745 37.9541 57.9745 38.3427C57.9745 51.8117 75.696 62.7305 97.5566 62.7305C119.417 62.7305 137.139 51.8117 137.139 38.3427C137.139 37.9541 137.124 37.5676 137.095 37.1834C136.113 50.4665 118.786 61.045 97.5566 61.045C76.3268 61.045 59.0006 50.4665 58.0184 37.1834Z" fill="white"/>
<path d="M58.0184 37.1834L59.0157 37.1096L57.0213 37.1076L58.0184 37.1834ZM137.095 37.1834L138.092 37.1076L136.097 37.1096L137.095 37.1834ZM97.5566 61.045L97.5566 60.045L97.5566 61.045ZM58.9745 38.3427C58.9745 37.9794 58.9883 37.6182 59.0155 37.2591L57.0213 37.1076C56.9902 37.517 56.9745 37.9287 56.9745 38.3427L58.9745 38.3427ZM97.5566 61.7305C86.7811 61.7305 77.0736 59.0374 70.0924 54.7361C63.0951 50.4249 58.9745 44.601 58.9745 38.3427L56.9745 38.3427C56.9745 45.5534 61.7145 51.9234 69.0432 56.4388C76.3879 60.9641 86.4715 63.7305 97.5566 63.7305L97.5566 61.7305ZM136.139 38.3427C136.139 44.601 132.018 50.4249 125.021 54.7361C118.04 59.0374 108.332 61.7305 97.5566 61.7305L97.5566 63.7305C108.642 63.7305 118.725 60.9641 126.07 56.4388C133.399 51.9234 138.139 45.5534 138.139 38.3427L136.139 38.3427ZM136.098 37.2591C136.125 37.6182 136.139 37.9794 136.139 38.3427L138.139 38.3427C138.139 37.9288 138.123 37.517 138.092 37.1076L136.098 37.2591ZM136.097 37.1096C135.639 43.3156 131.345 49.0339 124.4 53.24C117.47 57.4376 108.015 60.045 97.5566 60.045L97.5566 62.045C108.328 62.045 118.151 59.3633 125.437 54.9507C132.708 50.5469 137.569 44.3343 138.092 37.2571L136.097 37.1096ZM97.5566 60.045C87.0978 60.045 77.6432 57.4376 70.7127 53.24C63.7679 49.0339 59.4746 43.3156 59.0157 37.1096L57.0211 37.2571C57.5444 44.3343 62.4053 50.5468 69.6766 54.9507C76.9621 59.3633 86.7856 62.045 97.5566 62.045L97.5566 60.045Z" fill="black" mask="url(#path-20-inside-1_1650_4242)"/>
<path d="M133.866 32.75C133.866 38.3546 129.96 43.5256 123.435 47.3245C116.923 51.1158 107.892 53.4776 97.8887 53.4776C87.8852 53.4776 78.8543 51.1158 72.3421 47.3245C65.817 43.5256 61.9111 38.3546 61.9111 32.75C61.9111 27.1454 65.817 21.9744 72.3421 18.1755C78.8543 14.3842 87.8852 12.0224 97.8887 12.0224C107.892 12.0224 116.923 14.3842 123.435 18.1755C129.96 21.9744 133.866 27.1454 133.866 32.75Z" stroke="black" stroke-width="1.04487"/>
</svg>
