<svg width="99" height="84" viewBox="0 0 99 84" fill="none" xmlns="http://www.w3.org/2000/svg">
    <path d="M98.8688 47.2281L62.0967 27.2661L20.5967 84.0003L38.9828 83.475L98.8688 47.2281Z"
        fill="black" />
    <path d="M62.1781 50.4045L82.5226 38.202L62.1781 25.9995L41.8477 38.202L62.1781 50.4045Z"
        fill="white" stroke="black" stroke-width="1.04792" stroke-linejoin="round" />
    <path d="M62.1816 58.546L82.5261 46.3435V38.2085L62.1816 50.411V58.546Z" fill="#00E7C3"
        stroke="black" stroke-width="1.04792" stroke-linejoin="round" />
    <path d="M21.5059 34.1401V58.5451L41.8504 70.7476V46.3427L21.5059 34.1401Z" fill="#F1EFE9"
        stroke="black" stroke-width="1.04792" stroke-linejoin="round" />
    <path d="M41.8477 46.3427L62.1781 34.1401V58.5451L41.8477 70.7476V46.3427Z" fill="#00E7C3"
        stroke="black" stroke-width="1.04792" stroke-linejoin="round" />
    <path d="M21.5059 34.14L41.8504 21.9375L62.1809 34.14L41.8504 46.3425L21.5059 34.14Z"
        fill="white" stroke="black" stroke-width="1.04792" stroke-linejoin="round" />
    <path d="M21.5047 42.2671L41.8492 54.4696L21.5047 66.6721L1.16016 54.4696L21.5047 42.2671Z"
        fill="white" stroke="black" stroke-width="1.04792" stroke-linejoin="round" />
    <path d="M41.8504 70.7472L21.5059 82.9498V66.6727L41.8504 54.4702V70.7472Z" fill="#00E7C3"
        stroke="black" stroke-width="1.04792" stroke-linejoin="round" />
    <path d="M1.16895 54.4702V70.7472L21.5134 82.9498V66.6727L1.16895 54.4702Z" fill="#F1EFE9"
        stroke="black" stroke-width="1.04792" stroke-linejoin="round" />
    <path
        d="M36.4563 25.288L35.6288 28.7243L34.647 32.7707C34.4857 33.451 35.8813 34.8817 34.8223 34.2365L31.7787 32.385L31.6384 32.3009C31.2948 32.0554 31.1405 31.5014 31.3299 30.7089L33.1392 23.2121C33.1673 23.0929 33.1953 22.9737 33.2023 22.8545L35.8883 23.5558C36.4423 23.7031 36.6807 24.3973 36.4633 25.2809L36.4563 25.288Z"
        fill="#BF8C48" stroke="black" stroke-width="0.260499" stroke-miterlimit="10" />
    <path
        d="M43.8684 3.14262C43.4266 2.9182 42.7744 3.17769 42.2133 3.7247C42.0801 3.85093 41.9469 4.00523 41.8346 4.18056C41.5822 4.53822 41.3788 4.95897 41.2596 5.42884L39.4503 12.9116C39.296 13.5498 38.9313 14.181 38.4825 14.6368C38.3071 14.8051 38.1248 14.9524 37.9355 15.0646L32.0656 18.4518C31.8623 18.5711 31.6729 18.7183 31.4976 18.8866C30.9225 19.4617 30.5649 20.2612 30.4877 20.9555C30.4386 21.4113 32.6477 23.2627 30.7262 22.0705L27.8088 20.2612C26.7288 19.9807 27.0654 17.9469 28.1805 16.8248C28.3558 16.6565 28.5381 16.5093 28.7485 16.39L34.6183 13.0028C34.8077 12.8906 34.997 12.7433 35.1654 12.575C35.6142 12.1262 35.9789 11.495 36.1331 10.8499L37.9425 3.36703C38.1038 2.67977 38.4755 2.08367 38.8962 1.6629C39.4432 1.11589 40.0884 0.863448 40.5373 1.07384L40.6775 1.16496L43.8684 3.14964V3.14262Z"
        fill="white" stroke="black" stroke-width="0.260499" stroke-miterlimit="10" />
    <path
        d="M54.5855 5.94119C54.312 5.80094 53.9473 5.82194 53.4985 6.08142L50.3286 7.90481L47.6356 9.45464C46.9484 9.84736 46.3312 9.69308 46.1209 9.06191L45.3564 6.78973L50.1743 4.00562C50.6091 3.74614 50.9808 3.72509 51.2543 3.85833L51.3595 3.92844L54.5785 5.92716V5.94119H54.5855Z"
        fill="#E7AB66" stroke="black" stroke-width="0.260499" stroke-miterlimit="10" />
    <path
        d="M49.694 15.597C49.133 16.3824 48.9016 17.3573 49.1119 17.9884L50.9213 23.3814C51.2228 24.265 50.6758 25.5063 49.9465 26.2567C49.4906 26.7125 48.9506 26.986 48.4738 26.8598L43.719 25.6185C43.2842 25.5063 42.7232 25.7447 42.2393 26.2356C42.099 26.3759 41.9728 26.5302 41.8536 26.6985L37.1128 33.4239C36.9796 33.6132 36.8463 33.7745 36.7061 33.9148C36.2011 34.4197 35.6822 34.609 35.2754 34.5249L34.8336 34.2584C34.5952 33.9779 34.504 33.473 34.6653 32.7927L35.6401 28.7462L36.4747 25.3099C36.685 24.4263 36.4536 23.732 35.8926 23.5847L33.2066 22.8834L31.1518 22.3434C30.9835 22.3014 30.8503 22.2172 30.7451 22.084C30.5347 21.8245 30.4505 21.4248 30.5137 20.9689C30.5908 20.2746 30.9625 19.4752 31.5235 18.9001C31.6918 18.7318 31.8812 18.5845 32.0916 18.4653L37.9544 15.078C38.1437 14.9658 38.3331 14.8186 38.5014 14.6503C38.9502 14.1944 39.3149 13.5703 39.4692 12.9251L41.2785 5.44229C41.3907 4.97243 41.5941 4.54466 41.8536 4.187C41.9658 4.0257 42.099 3.8714 42.2253 3.73114C42.7793 3.18413 43.4315 2.92464 43.8873 3.14905L43.9995 3.21921C44.1328 3.3244 44.245 3.47868 44.3151 3.68906L45.36 6.80982L46.1244 9.08201C46.3348 9.72018 46.945 9.88148 47.6392 9.47473L50.3322 7.92486L53.502 6.10151C53.9509 5.84203 54.3296 5.82099 54.589 5.96124L54.6592 6.00332C55.2623 6.39604 55.2974 7.68642 54.4418 8.89264L49.687 15.6181H49.701L49.694 15.597Z"
        fill="#FDD778" stroke="black" stroke-width="1.04792" stroke-miterlimit="10" />
</svg>
