<svg width="176" height="155" viewBox="0 0 176 155" fill="none" xmlns="http://www.w3.org/2000/svg">
<ellipse opacity="0.2" cx="88" cy="103.257" rx="76" ry="42.75" fill="#919193"/>
<ellipse cx="89.3966" cy="102.353" rx="52.6661" ry="26.4813" fill="#232326"/>
<path d="M51.8887 55.0317C52.5416 44.5848 56.8401 40.776 58.9077 40.1775V35.1704C58.9077 30.7139 59.5182 26.0913 62.3739 22.6699C70.5722 12.8475 87.1913 9 97.4306 9C119.908 9 130.51 18.0037 134.906 25.1528C136.726 28.1125 137.096 31.6598 137.096 35.1342V40.1775C142.842 44.748 143.517 51.1141 143.136 53.7258V97.7987C140.47 106.069 127.27 122.218 95.7983 120.651C64.327 119.084 53.4122 104.763 51.8887 97.7987V55.0317Z" fill="white" stroke="black" stroke-width="1.56731"/>
<ellipse cx="96.4631" cy="90.3653" rx="41.6857" ry="23.6294" fill="#FFE9B1"/>
<path fill-rule="evenodd" clip-rule="evenodd" d="M133.002 37.4999C133.582 36.006 133.889 34.4512 133.889 32.8546C133.889 21.3102 117.868 11.9517 98.1065 11.9517C78.3445 11.9517 62.3242 21.3102 62.3242 32.8546C62.3242 34.4511 62.6306 36.0058 63.2109 37.4997C66.8268 28.191 81.0774 21.242 98.1064 21.242C115.135 21.242 129.386 28.1912 133.002 37.4999Z" fill="#1B262C"/>
<path fill-rule="evenodd" clip-rule="evenodd" d="M60.0116 35.0295C59.3861 36.6396 59.0559 38.3151 59.0559 40.0357C59.0559 52.4769 76.3206 62.5625 97.6178 62.5625C118.915 62.5625 136.18 52.4769 136.18 40.0357C136.18 38.3152 135.85 36.6398 135.224 35.0298C131.327 45.0616 115.97 52.5504 97.6179 52.5504C79.266 52.5504 63.9082 45.0614 60.0116 35.0295Z" fill="white"/>
<mask id="path-7-inside-1_1647_4217" fill="white">
<path fill-rule="evenodd" clip-rule="evenodd" d="M58.0184 37.1834C57.9892 37.5676 57.9745 37.9541 57.9745 38.3427C57.9745 51.8117 75.696 62.7305 97.5566 62.7305C119.417 62.7305 137.139 51.8117 137.139 38.3427C137.139 37.9541 137.124 37.5676 137.095 37.1834C136.113 50.4665 118.786 61.045 97.5566 61.045C76.3268 61.045 59.0006 50.4665 58.0184 37.1834Z"/>
</mask>
<path fill-rule="evenodd" clip-rule="evenodd" d="M58.0184 37.1834C57.9892 37.5676 57.9745 37.9541 57.9745 38.3427C57.9745 51.8117 75.696 62.7305 97.5566 62.7305C119.417 62.7305 137.139 51.8117 137.139 38.3427C137.139 37.9541 137.124 37.5676 137.095 37.1834C136.113 50.4665 118.786 61.045 97.5566 61.045C76.3268 61.045 59.0006 50.4665 58.0184 37.1834Z" fill="white"/>
<path d="M58.0184 37.1834L59.0157 37.1096L57.0213 37.1076L58.0184 37.1834ZM137.095 37.1834L138.092 37.1076L136.097 37.1096L137.095 37.1834ZM97.5566 61.045L97.5566 60.045L97.5566 61.045ZM58.9745 38.3427C58.9745 37.9794 58.9883 37.6182 59.0155 37.2591L57.0213 37.1076C56.9902 37.517 56.9745 37.9287 56.9745 38.3427L58.9745 38.3427ZM97.5566 61.7305C86.7811 61.7305 77.0736 59.0374 70.0924 54.7361C63.0952 50.4249 58.9745 44.601 58.9745 38.3427L56.9745 38.3427C56.9745 45.5534 61.7145 51.9234 69.0432 56.4388C76.3879 60.9641 86.4715 63.7305 97.5566 63.7305L97.5566 61.7305ZM136.139 38.3427C136.139 44.601 132.018 50.4249 125.021 54.7361C118.04 59.0374 108.332 61.7305 97.5566 61.7305L97.5566 63.7305C108.642 63.7305 118.725 60.9641 126.07 56.4388C133.399 51.9234 138.139 45.5534 138.139 38.3427L136.139 38.3427ZM136.098 37.2591C136.125 37.6182 136.139 37.9794 136.139 38.3427L138.139 38.3427C138.139 37.9288 138.123 37.517 138.092 37.1076L136.098 37.2591ZM136.097 37.1096C135.639 43.3156 131.345 49.0339 124.4 53.24C117.47 57.4376 108.015 60.045 97.5566 60.045L97.5566 62.045C108.328 62.045 118.151 59.3633 125.437 54.9507C132.708 50.5469 137.569 44.3343 138.092 37.2571L136.097 37.1096ZM97.5566 60.045C87.0978 60.045 77.6432 57.4376 70.7127 53.24C63.7679 49.0339 59.4746 43.3156 59.0157 37.1096L57.0211 37.2571C57.5444 44.3343 62.4053 50.5468 69.6766 54.9507C76.9621 59.3633 86.7856 62.045 97.5566 62.045L97.5566 60.045Z" fill="black" mask="url(#path-7-inside-1_1647_4217)"/>
<path d="M133.866 32.75C133.866 38.3546 129.96 43.5256 123.435 47.3245C116.923 51.1158 107.892 53.4776 97.8887 53.4776C87.8852 53.4776 78.8543 51.1158 72.3421 47.3245C65.817 43.5256 61.9111 38.3546 61.9111 32.75C61.9111 27.1454 65.817 21.9744 72.3421 18.1755C78.8543 14.3842 87.8852 12.0224 97.8887 12.0224C107.892 12.0224 116.923 14.3842 123.435 18.1755C129.96 21.9744 133.866 27.1454 133.866 32.75Z" stroke="black" stroke-width="1.04487"/>
</svg>
