<svg width="200" height="185" viewBox="0 0 200 185" fill="none" xmlns="http://www.w3.org/2000/svg">
<ellipse opacity="0.2" cx="100" cy="132.377" rx="76" ry="42.75" fill="#919193"/>
<ellipse cx="101.397" cy="131.473" rx="52.6661" ry="26.4813" fill="#232326"/>
<path d="M63.8887 84.1516C64.5416 73.7046 68.8401 69.8959 70.9077 69.2974V64.2903C70.9077 59.8338 71.5182 55.2111 74.3739 51.7897C82.5722 41.9673 99.1913 38.1199 109.431 38.1199C131.908 38.1199 142.51 47.1235 146.906 54.2727C148.726 57.2324 149.096 60.7796 149.096 64.2541V69.2974C154.842 73.8679 155.517 80.234 155.136 82.8457V126.919C152.47 135.189 139.27 151.338 107.798 149.771C76.327 148.204 65.4122 133.883 63.8887 126.919V84.1516Z" fill="white" stroke="black" stroke-width="1.56731"/>
<path d="M55.0745 138.555L55.0885 138.528C57.5537 139.553 60.5733 139.342 63.6601 137.716C67.007 135.952 69.8301 132.844 71.7011 129.26C73.5721 125.675 74.5067 121.582 74.0401 117.828C73.6096 114.365 72.0561 111.768 69.8051 110.332L69.8252 110.293L69.5099 110.128L64.9076 107.726L64.5922 107.562L64.4276 107.877L63.7276 109.218C62.526 109.423 61.2815 109.851 60.0252 110.513C56.6784 112.277 53.8552 115.384 51.9842 118.969C50.1132 122.554 49.1786 126.646 49.6453 130.401C49.8204 131.81 50.1812 133.075 50.7 134.179L50.0061 135.508L49.8415 135.823L50.1568 135.988L54.7592 138.39L55.0745 138.555Z" fill="#EFAF4E" stroke="black" stroke-width="0.711403"/>
<path d="M60.025 135.818C63.3719 134.054 66.1951 130.947 68.066 127.362C69.937 123.778 70.8717 119.685 70.405 115.93C69.9378 112.172 68.147 109.432 65.5796 108.092C63.0121 106.752 59.7407 106.85 56.3901 108.616C53.0433 110.38 50.2201 113.487 48.3491 117.071C46.4782 120.656 45.5435 124.749 46.0102 128.503C46.4774 132.262 48.2681 135.001 50.8356 136.341C53.403 137.681 56.6745 137.584 60.025 135.818Z" fill="white" stroke="black" stroke-width="0.711403"/>
<path d="M59.4986 131.58C61.8021 130.366 63.7397 128.231 65.0223 125.774C66.3049 123.316 66.9483 120.506 66.6271 117.922C66.3054 115.334 65.0693 113.431 63.2809 112.498C61.4926 111.564 59.2246 111.638 56.9174 112.854C54.6139 114.068 52.6763 116.203 51.3938 118.66C50.1112 121.118 49.4677 123.928 49.7889 126.512C50.1106 129.1 51.3468 131.003 53.1351 131.936C54.9235 132.87 57.1914 132.796 59.4986 131.58Z" fill="#FFE9B1" stroke="black" stroke-width="0.711403"/>
<path d="M54.7845 114.795C52.0315 117.695 50.3779 122.009 50.8465 125.779C51.4677 130.776 55.5826 132.924 60.0374 130.576C60.8538 130.146 61.6249 129.595 62.3362 128.95C61.4398 129.894 60.4269 130.689 59.3328 131.265C54.878 133.613 50.7631 131.465 50.1419 126.468C49.6345 122.387 51.6147 117.667 54.7845 114.795Z" fill="#EFAF4E"/>
<path fill-rule="evenodd" clip-rule="evenodd" d="M145.002 66.6198C145.582 65.1258 145.889 63.5711 145.889 61.9745C145.889 50.4301 129.868 41.0715 110.106 41.0715C90.3445 41.0715 74.3242 50.4301 74.3242 61.9745C74.3242 63.571 74.6306 65.1257 75.2109 66.6196C78.8268 57.3109 93.0774 50.3619 110.106 50.3619C127.135 50.3619 141.386 57.311 145.002 66.6198Z" fill="#1B262C"/>
<path d="M145.493 71.265C145.493 76.8386 141.623 81.9573 135.209 85.7044C128.804 89.4459 119.93 91.7728 110.106 91.7728C100.283 91.7728 91.4088 89.4459 85.004 85.7044C78.5896 81.9573 74.7195 76.8386 74.7195 71.265C74.7195 65.6915 78.5896 60.5728 85.004 56.8257C91.4088 53.0842 100.283 50.7573 110.106 50.7573C119.93 50.7573 128.804 53.0842 135.209 56.8257C141.623 60.5728 145.493 65.6915 145.493 71.265Z" fill="#D9D9D9" stroke="#093057" stroke-width="0.790538"/>
<path d="M107.289 60.3425H107.322C107.572 63.1504 109.286 65.8699 112.386 67.9597C115.747 70.2257 120.132 71.3478 124.498 71.3478C128.865 71.3478 133.25 70.2257 136.611 67.9597C139.71 65.8699 141.424 63.1504 141.674 60.3425H141.721V59.9675V54.4943V54.1193H141.346H139.704C138.906 53.0951 137.874 52.1398 136.611 51.2882C133.25 49.0222 128.865 47.9001 124.498 47.9001C120.132 47.9001 115.747 49.0222 112.386 51.2882C111.122 52.1398 110.09 53.0951 109.292 54.1193H107.664H107.289V54.4943V59.9675V60.3425Z" fill="#EFAF4E" stroke="black" stroke-width="0.75"/>
<path d="M112.387 63.6367C115.748 65.9027 120.133 67.0248 124.499 67.0248C128.866 67.0248 133.251 65.9027 136.612 63.6367C139.976 61.3685 141.708 58.3584 141.708 55.301C141.708 52.2435 139.976 49.2334 136.612 46.9652C133.251 44.6992 128.866 43.5771 124.499 43.5771C120.133 43.5771 115.748 44.6992 112.387 46.9652C109.022 49.2334 107.291 52.2435 107.291 55.301C107.291 58.3584 109.022 61.3685 112.387 63.6367Z" fill="white" stroke="black" stroke-width="0.75"/>
<path d="M116.183 61.0768C118.496 62.6359 121.507 63.4045 124.499 63.4045C127.491 63.4045 130.502 62.6359 132.814 61.0768C135.13 59.5155 136.337 57.4319 136.337 55.3009C136.337 53.1699 135.13 51.0863 132.814 49.525C130.502 47.9659 127.491 47.1973 124.499 47.1973C121.507 47.1973 118.496 47.9659 116.183 49.525C113.867 51.0863 112.66 53.1699 112.66 55.3009C112.66 57.4319 113.867 59.5155 116.183 61.0768Z" fill="#FFE9B1" stroke="black" stroke-width="0.75"/>
<path d="M129.898 48.4807C125.743 47.3222 120.782 47.8815 117.405 50.1584C112.928 53.1766 112.928 58.0701 117.405 61.0883C118.226 61.6414 119.139 62.0932 120.112 62.4436C118.76 62.0664 117.492 61.5072 116.393 60.7659C111.916 57.7476 111.916 52.8541 116.393 49.8359C120.049 47.3708 125.561 46.9191 129.898 48.4807Z" fill="#EFAF4E"/>
<path d="M75.5422 67.9075L75.5673 67.9278C74.3778 69.7438 74.0817 72.1808 74.8796 74.882C75.755 77.8454 77.7883 80.6004 80.3522 82.6688C82.916 84.7372 86.0387 86.1418 89.1203 86.3706C91.9291 86.5792 94.2483 85.7743 95.7717 84.2276L95.8051 84.2546L96.0406 83.9627L98.685 80.6849L98.9204 80.393L98.6286 80.1576L97.7066 79.4138C97.73 78.4276 97.5862 77.375 97.2622 76.2783C96.3868 73.3149 94.3535 70.5599 91.7897 68.4915C89.2258 66.4231 86.1031 65.0185 83.0216 64.7897C81.8811 64.705 80.8219 64.787 79.863 65.0185L78.9494 64.2814L78.6575 64.0459L78.4221 64.3378L75.7776 67.6157L75.5422 67.9075Z" fill="#EFAF4E" stroke="black" stroke-width="0.75"/>
<path d="M76.969 72.293C77.8444 75.2564 79.8777 78.0114 82.4416 80.0798C85.0054 82.1482 88.1282 83.5528 91.2097 83.7816C94.2956 84.0108 96.7905 83.0163 98.2872 81.161C99.7839 79.3057 100.228 76.657 99.3516 73.6893C98.4762 70.7259 96.4429 67.9709 93.8791 65.9025C91.3152 63.8341 88.1925 62.4295 85.111 62.2007C82.0251 61.9715 79.5302 62.966 78.0335 64.8213C76.5367 66.6766 76.0924 69.3254 76.969 72.293Z" fill="white" stroke="black" stroke-width="0.75"/>
<path d="M80.4247 72.5494C81.0291 74.5953 82.4303 76.4909 84.1912 77.9115C85.9522 79.3322 88.1012 80.3007 90.2286 80.4587C92.3604 80.617 94.1013 79.9302 95.1504 78.6298C96.1995 77.3294 96.5025 75.4826 95.8969 73.4326C95.2925 71.3867 93.8914 69.4911 92.1304 68.0705C90.3695 66.6498 88.2205 65.6813 86.093 65.5233C83.9613 65.365 82.2203 66.0518 81.1712 67.3522C80.1222 68.6526 79.8191 70.4994 80.4247 72.5494Z" fill="#FFD979" stroke="black" stroke-width="0.75"/>
<path d="M94.6104 71.4511C92.7426 68.7989 89.5743 66.7959 86.501 66.5676C82.4271 66.2651 80.0627 69.1958 81.2201 73.1135C81.4322 73.8315 81.7478 74.5328 82.147 75.2012C81.5389 74.3377 81.0686 73.4054 80.7844 72.4432C79.627 68.5254 81.9914 65.5947 86.0653 65.8973C89.3926 66.1444 92.8312 68.4719 94.6104 71.4511Z" fill="#EFAF4E"/>
<path d="M144.645 67.9075L144.62 67.9278C145.81 69.7438 146.106 72.1808 145.308 74.882C144.432 77.8454 142.399 80.6004 139.835 82.6688C137.271 84.7372 134.149 86.1418 131.067 86.3706C128.258 86.5792 125.939 85.7743 124.416 84.2276L124.382 84.2546L124.147 83.9627L121.503 80.6849L121.267 80.393L121.559 80.1576L122.481 79.4138C122.457 78.4276 122.601 77.375 122.925 76.2783C123.801 73.3149 125.834 70.5599 128.398 68.4915C130.962 66.4231 134.084 65.0185 137.166 64.7897C138.306 64.705 139.366 64.787 140.324 65.0185L141.238 64.2814L141.53 64.0459L141.765 64.3378L144.41 67.6157L144.645 67.9075Z" fill="#EFAF4E" stroke="black" stroke-width="0.75"/>
<path d="M143.218 72.293C142.343 75.2564 140.31 78.0114 137.746 80.0798C135.182 82.1482 132.059 83.5528 128.978 83.7816C125.892 84.0108 123.397 83.0163 121.9 81.161C120.404 79.3057 119.959 76.657 120.836 73.6893C121.711 70.7259 123.745 67.9709 126.308 65.9025C128.872 63.8341 131.995 62.4295 135.077 62.2007C138.162 61.9715 140.657 62.966 142.154 64.8213C143.651 66.6766 144.095 69.3254 143.218 72.293Z" fill="white" stroke="black" stroke-width="0.75"/>
<path d="M139.763 72.5494C139.158 74.5953 137.757 76.4909 135.996 77.9115C134.235 79.3322 132.086 80.3007 129.959 80.4587C127.827 80.617 126.086 79.9302 125.037 78.6298C123.988 77.3294 123.685 75.4826 124.291 73.4326C124.895 71.3867 126.296 69.4911 128.057 68.0705C129.818 66.6498 131.967 65.6813 134.094 65.5233C136.226 65.365 137.967 66.0518 139.016 67.3522C140.065 68.6526 140.368 70.4994 139.763 72.5494Z" fill="#FFD979" stroke="black" stroke-width="0.75"/>
<path d="M125.577 71.4511C127.445 68.7989 130.613 66.7959 133.687 66.5676C137.76 66.2651 140.125 69.1958 138.967 73.1135C138.755 73.8315 138.44 74.5328 138.04 75.2012C138.649 74.3377 139.119 73.4054 139.403 72.4432C140.56 68.5254 138.196 65.5947 134.122 65.8973C130.795 66.1444 127.356 68.4719 125.577 71.4511Z" fill="#EFAF4E"/>
<path d="M91.3727 69.2545L91.4022 69.2668C90.5486 71.9491 91.0442 75.1017 93.0329 78.1963C95.1892 81.5516 98.7088 84.2351 102.644 85.8751C106.578 87.5152 110.962 88.1256 114.863 87.2949C118.461 86.5288 121.049 84.6614 122.353 82.1668L122.395 82.1845L122.539 81.8383L124.645 76.7864L124.789 76.4402L124.443 76.296L122.971 75.6824C122.646 74.4389 122.084 73.1705 121.275 71.911C119.119 68.5557 115.599 65.8722 111.664 64.2321C107.729 62.5921 103.346 61.9816 99.4448 62.8123C97.9805 63.1242 96.684 63.6179 95.5724 64.2629L94.113 63.6546L93.7669 63.5103L93.6226 63.8565L91.517 68.9084L91.3727 69.2545Z" fill="#EFAF4E" stroke="black" stroke-width="0.75"/>
<path d="M94.6963 74.2062C96.8526 77.5616 100.372 80.2451 104.307 81.8851C108.242 83.5251 112.625 84.1356 116.526 83.3049C120.432 82.4733 123.147 80.3439 124.321 77.5256C125.496 74.7074 125.097 71.28 122.938 67.921C120.782 64.5656 117.262 61.8821 113.328 60.2421C109.393 58.6021 105.009 57.9916 101.108 58.8223C97.2029 59.6539 94.4878 61.7834 93.3132 64.6016C92.1386 67.4198 92.5376 70.8472 94.6963 74.2062Z" fill="white" stroke="black" stroke-width="0.75"/>
<path d="M99.101 73.2682C100.585 75.5776 103.003 77.4191 105.701 78.5434C108.398 79.6676 111.408 80.0886 114.093 79.5168C116.782 78.9442 118.669 77.4732 119.487 75.5101C120.305 73.5471 120.022 71.1717 118.535 68.8586C117.051 66.5492 114.633 64.7077 111.936 63.5835C109.238 62.4592 106.228 62.0383 103.543 62.61C100.854 63.1827 98.9675 64.6537 98.1493 66.6167C97.3311 68.5798 97.6145 70.9552 99.101 73.2682Z" fill="#FFE9B1" stroke="black" stroke-width="0.75"/>
<path d="M116.303 66.7944C113.008 64.1657 108.326 62.8203 104.409 63.6544C99.2165 64.7601 97.3339 69.277 100.204 73.7431C100.73 74.5616 101.379 75.3215 102.12 76.0101C101.047 75.1543 100.121 74.1624 99.4164 73.0655C96.5463 68.5994 98.4289 64.0825 103.621 62.9768C107.862 62.0737 112.999 63.7254 116.303 66.7944Z" fill="#EFAF4E"/>
<path d="M72.0123 64.1492C71.3869 65.7592 71.0566 67.4348 71.0566 69.1554C71.0566 81.5966 88.3214 91.6822 109.619 91.6822C130.916 91.6822 148.18 81.5966 148.18 69.1554C148.18 67.4349 147.85 65.7594 147.225 64.1495C143.328 74.1812 127.97 81.6701 109.619 81.6701C91.2667 81.6701 75.909 74.1811 72.0123 64.1492Z" fill="white"/>
<path d="M147.123 74.058C145.293 77.9456 141.879 81.4502 137.283 84.2816C130.211 88.639 120.41 91.3503 109.557 91.3503C98.7038 91.3503 88.9023 88.639 81.8302 84.2816C77.2348 81.4502 73.8209 77.9456 71.9907 74.0581C74.1466 77.7448 77.5898 81.0108 81.9357 83.6429C89.1325 88.0017 98.8638 90.6649 109.557 90.6649C120.25 90.6649 129.981 88.0017 137.178 83.6429C141.524 81.0108 144.967 77.7448 147.123 74.058Z" fill="white" stroke="black"/>
<path d="M145.866 61.8699C145.866 67.4744 141.96 72.6455 135.435 76.4444C128.923 80.2357 119.892 82.5974 109.889 82.5974C99.8852 82.5974 90.8543 80.2357 84.3421 76.4444C77.817 72.6455 73.9111 67.4744 73.9111 61.8699C73.9111 56.2653 77.817 51.0942 84.3421 47.2953C90.8543 43.504 99.8852 41.1423 109.889 41.1423C119.892 41.1423 128.923 43.504 135.435 47.2953C141.96 51.0942 145.866 56.2653 145.866 61.8699Z" stroke="black" stroke-width="1.04487"/>
<path opacity="0.7" d="M148.039 96.6349C149.16 91.6069 143.745 83.7776 140.71 82.4973C137.84 84.6491 136.449 85.5516 133.797 86.9201C142.201 91.9481 140.685 100.01 140.335 102.92L140.025 142.496C143.25 140.644 145.233 139.035 147.974 136.5C147.507 122.883 146.918 101.663 148.039 96.6349Z" fill="#FFD979"/>
<path d="M75.0084 49.2403L75.0363 49.2519C74.2266 51.7962 74.6967 54.7865 76.5831 57.7218C78.6284 60.9045 81.9669 63.4499 85.6992 65.0055C89.4316 66.5611 93.5896 67.1402 97.2899 66.3522C100.703 65.6255 103.157 63.8542 104.394 61.488L104.434 61.5048L104.571 61.1764L106.568 56.3845L106.705 56.0562L106.377 55.9193L104.98 55.3373C104.673 54.1578 104.14 52.9547 103.372 51.76C101.326 48.5773 97.988 46.0319 94.2556 44.4763C90.5233 42.9207 86.3653 42.3416 82.665 43.1296C81.2761 43.4254 80.0463 43.8937 78.9919 44.5055L77.6076 43.9285L77.2793 43.7917L77.1424 44.12L75.1452 48.9119L75.0084 49.2403Z" fill="#EFAF4E" stroke="black" stroke-width="0.711403"/>
<path d="M78.1606 53.9371C80.2059 57.1198 83.5444 59.6652 87.2767 61.2208C91.0091 62.7764 95.1671 63.3555 98.8673 62.5676C102.572 61.7787 105.147 59.7589 106.261 57.0857C107.375 54.4125 106.997 51.1615 104.949 47.9753C102.904 44.7926 99.5655 42.2472 95.8331 40.6916C92.1008 39.136 87.9428 38.5569 84.2425 39.3449C80.5382 40.1337 77.9628 42.1536 76.8487 44.8268C75.7345 47.5 76.113 50.7509 78.1606 53.9371Z" fill="white" stroke="black" stroke-width="0.711403"/>
<path d="M82.338 53.0472C83.7458 55.2377 86.0394 56.9845 88.598 58.0508C91.1566 59.1172 94.0118 59.5165 96.5586 58.9742C99.1094 58.431 100.899 57.0357 101.675 55.1737C102.451 53.3117 102.182 51.0585 100.772 48.8645C99.3645 46.674 97.0709 44.9272 94.5123 43.8608C91.9537 42.7945 89.0985 42.3951 86.5517 42.9375C84.0009 43.4807 82.2114 44.876 81.4354 46.738C80.6593 48.6 80.9281 50.8532 82.338 53.0472Z" fill="#FFE9B1" stroke="black" stroke-width="0.711403"/>
<path d="M98.6552 46.9065C95.5292 44.4131 91.0884 43.1369 87.3729 43.9281C82.4477 44.9769 80.6619 49.2613 83.3844 53.4976C83.8833 54.274 84.4989 54.9948 85.2021 55.648C84.1844 54.8362 83.3059 53.8954 82.6373 52.8549C79.9149 48.6186 81.7006 44.3342 86.6258 43.2854C90.6484 42.4288 95.5212 43.9955 98.6552 46.9065Z" fill="#EFAF4E"/>
<circle cx="147.023" cy="42.4829" r="1.4114" fill="#FFD979"/>
<circle cx="80.263" cy="27.1084" r="1.4114" fill="#FFD979"/>
<circle cx="122.188" cy="24.7208" r="0.506666" fill="white"/>
<circle cx="151.218" cy="11.5069" r="0.506666" fill="#FFD979"/>
<circle cx="110.614" cy="11.5067" r="0.506666" fill="white"/>
</svg>
