<svg width="16" height="15" viewBox="0 0 16 15" fill="none" xmlns="http://www.w3.org/2000/svg">
<path d="M11.5127 2.93022L10.0974 0.505554C10.0639 0.448542 10.0196 0.398703 9.9668 0.358904C9.91403 0.319105 9.85392 0.290131 9.78992 0.27365C9.72591 0.257169 9.65928 0.253506 9.59386 0.262871C9.52843 0.272237 9.46551 0.294446 9.4087 0.328221L5.08203 2.92422L11.5127 2.93022Z" fill="#62E3C4"/>
<path d="M2 3.58854C1.63333 3.58854 1.33333 3.28854 1.33333 2.92188C1.33333 2.55521 1.63333 2.25521 2 2.25521H4.24667L6.47333 0.921875H2C1.01333 0.921875 0.193333 1.64188 0.0333333 2.58854C0.02 2.64188 0 2.69521 0 2.75521V12.9219C0 14.0219 0.9 14.9219 2 14.9219H13.3333C14.0667 14.9219 14.6667 14.3219 14.6667 13.5885V12.2552H13C11.3467 12.2552 10 10.9085 10 9.25521C10 7.60188 11.3467 6.25521 13 6.25521H14.6667V4.92188C14.6667 4.18854 14.0667 3.58854 13.3333 3.58854H2ZM12.6667 2.25521C12.6667 1.58188 12.1667 1.02187 11.5133 0.935208L12.6667 2.92188V2.25521Z" fill="#62E3C4"/>
<path d="M15.5 7.25781H13C11.8973 7.25781 11 8.15515 11 9.25781C11 10.3605 11.8973 11.2578 13 11.2578H15.5C15.6326 11.2578 15.7598 11.2051 15.8536 11.1114C15.9473 11.0176 16 10.8904 16 10.7578V7.75781C16 7.6252 15.9473 7.49803 15.8536 7.40426C15.7598 7.31049 15.6326 7.25781 15.5 7.25781ZM13 9.92448C12.8232 9.92448 12.6536 9.85424 12.5286 9.72922C12.4036 9.60419 12.3333 9.43462 12.3333 9.25781C12.3333 9.081 12.4036 8.91143 12.5286 8.78641C12.6536 8.66138 12.8232 8.59115 13 8.59115C13.1768 8.59115 13.3464 8.66138 13.4714 8.78641C13.5964 8.91143 13.6667 9.081 13.6667 9.25781C13.6667 9.43462 13.5964 9.60419 13.4714 9.72922C13.3464 9.85424 13.1768 9.92448 13 9.92448Z" fill="#62E3C4"/>
</svg>
