<svg width="10" height="12" viewBox="0 0 10 12" fill="none" xmlns="http://www.w3.org/2000/svg">
<path d="M7.71847 5.2498C6.58133 5.2498 5.65605 6.17508 5.65605 7.31223C5.65605 8.44937 6.58133 9.37465 7.71847 9.37465C8.85562 9.37465 9.78089 8.44937 9.78089 7.31223C9.78089 6.17508 8.85562 5.2498 7.71847 5.2498ZM8.59289 6.9813C7.99336 7.88073 8.16337 7.62574 7.84292 8.10626C7.72782 8.27889 7.49479 8.32469 7.32286 8.21008L6.76038 7.8351C6.58812 7.72026 6.54172 7.48753 6.65656 7.31504C6.7714 7.14278 7.00412 7.09638 7.17662 7.21122L7.42692 7.37808C8.02498 6.48114 7.99282 6.50596 8.09346 6.44859C8.435 6.25102 8.81238 6.65164 8.59289 6.9813ZM6.03103 9.56074V11.6246C6.03103 11.9119 6.34223 12.0929 6.59211 11.9501L7.71847 11.3065L8.84484 11.9501C9.09371 12.0927 9.40591 11.9127 9.40591 11.6246V9.56074C8.40685 10.3124 7.03152 10.3135 6.03103 9.56074ZM8.46844 4.60155V0.814423C8.46844 0.365377 8.10307 0 7.65402 0H1.03317C0.584127 0 0.21875 0.365377 0.21875 0.814423V9.49769C0.21875 9.94674 0.584127 10.3121 1.03317 10.3121H5.28106C5.28106 8.69843 5.27855 8.79832 5.28692 8.72405C4.03161 6.57193 6.03049 3.92451 8.46844 4.60155ZM2.46867 1.87493H5.65605C5.86323 1.87493 6.03103 2.04274 6.03103 2.24992C6.03103 2.4571 5.86323 2.6249 5.65605 2.6249H2.46867C2.26149 2.6249 2.09368 2.4571 2.09368 2.24992C2.09368 2.04274 2.26149 1.87493 2.46867 1.87493ZM4.3436 5.62479H2.46867C2.26149 5.62479 2.09368 5.45698 2.09368 5.2498C2.09368 5.04262 2.26149 4.87482 2.46867 4.87482H4.3436C4.55078 4.87482 4.71858 5.04262 4.71858 5.2498C4.71858 5.45698 4.55078 5.62479 4.3436 5.62479ZM2.46867 4.12485C2.26149 4.12485 2.09368 3.95704 2.09368 3.74986C2.09368 3.54268 2.26149 3.37487 2.46867 3.37487H5.65605C5.86323 3.37487 6.03103 3.54268 6.03103 3.74986C6.03103 3.95704 5.86323 4.12485 5.65605 4.12485H2.46867Z" fill="#62E3C4"/>
</svg>
