<svg width="34" height="26" viewBox="0 0 34 26" fill="none" xmlns="http://www.w3.org/2000/svg">
    <circle cx="32.7607" cy="5.84906" r="0.359563" fill="#72F7FF" />
    <ellipse cx="0.231613" cy="7.48148" rx="0.231613" ry="0.247101" fill="#96E4E9" />
    <ellipse cx="13.9601" cy="0.247101" rx="0.231613" ry="0.247101" fill="#96E4E9" />
    <ellipse cx="1.63719" cy="2.56912" rx="0.231613" ry="0.247101" fill="#72F7FF" />
    <ellipse cx="7.75731" cy="5.84573" rx="0.231613" ry="0.247101" fill="#FFD979" />
    <ellipse cx="28.6183" cy="0.659088" rx="0.231613" ry="0.247101" fill="#FFD979" />
    <ellipse cx="31.2406" cy="10.7969" rx="0.231613" ry="0.247101" fill="#F79780" />
    <g clip-path="url(#clip0_728_19771)">
        <path
            d="M21.3896 21.3578C21.3896 19.7929 20.4285 18.1574 19.0489 17.3609C18.3657 16.9664 17.7832 16.9057 17.3734 17.1417L14.6541 18.7066C15.064 18.4706 15.6472 18.532 16.3303 18.9265C17.7099 19.723 18.671 21.3592 18.671 22.9234C18.671 23.7198 18.4311 24.257 18.0178 24.495L20.7358 22.9301C21.149 22.6921 21.3896 22.1549 21.3896 21.3578Z"
            fill="#45BA9B" stroke="#231F20" stroke-width="0.199944" stroke-miterlimit="10" />
        <path
            d="M14.4349 9.75372L16.4663 8.58405C16.3337 8.47808 16.1924 8.3761 16.0338 8.2848C14.9747 7.67497 14.4349 8.13151 14.4349 9.75372Z"
            fill="#45BA9B" stroke="#231F20" stroke-width="0.199944" stroke-miterlimit="10" />
        <path
            d="M23.5936 6.65653C23.1344 5.86141 22.5413 5.10896 21.8301 4.41915C21.0857 3.69402 20.2079 3.03487 19.2222 2.46702C17.394 1.41265 15.9411 1.20204 14.936 1.78188C14.936 1.77855 12.2175 3.34411 12.2175 3.34411C13.2245 2.76761 14.6768 2.97821 16.5036 4.03259C17.4893 4.6011 18.3678 5.25958 19.1116 5.98471C19.822 6.67452 20.4159 7.42698 20.8751 8.22209C21.6062 9.48507 21.9981 10.8567 21.9981 12.271C21.9981 16.4818 18.2771 15.0142 18.2765 18.1987L20.995 16.6331C20.995 13.4486 24.716 14.9156 24.7167 10.7054C24.7167 9.29046 24.3248 7.91951 23.5936 6.65653Z"
            fill="#45BA9B" stroke="#231F20" stroke-width="0.199944" stroke-miterlimit="10" />
        <path
            d="M16.3303 18.9258C14.9753 18.1433 14.0143 18.6698 14.0143 20.2347C14.0143 21.8276 14.9753 23.4918 16.3303 24.2743C17.7099 25.0707 18.671 24.5162 18.671 22.9226C18.671 21.3577 17.7099 19.7222 16.3303 18.9258Z"
            fill="#FFE9B1" stroke="#231F20" stroke-width="0.199944" stroke-miterlimit="10" />
        <path
            d="M16.0344 8.28404C16.9228 8.79723 17.4153 9.53702 17.4153 10.5627C17.4153 10.6967 17.4053 10.8193 17.3887 10.934C17.2314 12.053 16.343 12.2336 15.6018 12.9234C15.4779 13.0347 15.3606 13.164 15.2533 13.3186C14.8507 13.8532 14.5561 14.6623 14.5561 16.0499L18.2771 18.1979C18.2771 15.0135 21.9981 16.4804 21.9981 12.2703C21.9981 10.8553 21.6062 9.48437 20.875 8.22139C20.4158 7.42627 19.8227 6.67382 19.1115 5.98401C18.3671 5.25888 17.4893 4.59973 16.5036 4.03188C13.8117 2.47898 11.9309 2.75157 11.0998 4.69103C10.7878 5.41417 10.6206 6.36657 10.6139 7.54557L12.5114 8.6406L14.4355 9.75296C14.4355 8.13074 14.9753 7.6742 16.0344 8.28404Z"
            fill="#FFE9B1" stroke="#231F20" stroke-width="0.199944" stroke-miterlimit="10" />
    </g>
    <defs>
        <clipPath id="clip0_728_19771">
            <rect width="24.082" height="24" fill="white" transform="translate(5.62396 1.05005)" />
        </clipPath>
    </defs>
</svg>
