<svg width="111" height="111" viewBox="0 0 111 111" fill="none" xmlns="http://www.w3.org/2000/svg">
    <path
        d="M11.8701 33.19V77.75C11.8701 79.5 12.8101 81.12 14.3201 82L52.9101 104.28C54.4301 105.16 56.3001 105.16 57.8201 104.28L96.4101 82C97.9301 81.12 98.8601 79.5 98.8601 77.75V33.19C98.8601 31.44 97.9201 29.82 96.4101 28.94L57.8201 6.66C56.3001 5.78 54.4301 5.78 52.9101 6.66L14.3301 28.94C12.8101 29.82 11.8801 31.44 11.8801 33.19H11.8701Z"
        fill="#C9E4F0" />
    <mask id="mask0_324_4748" style="mask-type:luminance" maskUnits="userSpaceOnUse" x="11" y="6"
        width="88" height="99">
        <path
            d="M11.8701 33.19V77.75C11.8701 79.5 12.8101 81.12 14.3201 82L52.9101 104.28C54.4301 105.16 56.3001 105.16 57.8201 104.28L96.4101 82C97.9301 81.12 98.8601 79.5 98.8601 77.75V33.19C98.8601 31.44 97.9201 29.82 96.4101 28.94L57.8201 6.66C56.3001 5.78 54.4301 5.78 52.9101 6.66L14.3301 28.94C12.8101 29.82 11.8801 31.44 11.8801 33.19H11.8701Z"
            fill="white" />
    </mask>
    <g mask="url(#mask0_324_4748)">
        <path opacity="0.67" d="M107.82 37.56L-0.709961 74.49V57.7L107.82 20.78V37.56Z"
            fill="white" />
        <path d="M107.82 89.03L-0.709961 125.95V109.17L107.82 72.25V89.03Z" fill="#A9C6D6" />
        <path opacity="0.67" d="M112.29 44.28L3.76001 81.2V76.72L112.29 39.8V44.28Z" fill="white" />
    </g>
    <path
        d="M19.52 37.48V73.44C19.52 75.12 20.42 76.68 21.87 77.52L53.01 95.5C54.47 96.34 56.26 96.34 57.72 95.5L88.86 77.52C90.32 76.68 91.21 75.13 91.21 73.44V37.48C91.21 35.8 90.31 34.24 88.86 33.4L57.72 15.43C56.26 14.59 54.47 14.59 53.01 15.43L21.87 33.41C20.41 34.25 19.52 35.8 19.52 37.49V37.48Z"
        fill="#2B4C56" />
    <mask id="mask1_324_4748" style="mask-type:luminance" maskUnits="userSpaceOnUse" x="19" y="14"
        width="73" height="83">
        <path
            d="M19.52 37.48V73.44C19.52 75.12 20.42 76.68 21.87 77.52L53.01 95.5C54.47 96.34 56.26 96.34 57.72 95.5L88.86 77.52C90.32 76.68 91.21 75.13 91.21 73.44V37.48C91.21 35.8 90.31 34.24 88.86 33.4L57.72 15.43C56.26 14.59 54.47 14.59 53.01 15.43L21.87 33.41C20.41 34.25 19.52 35.8 19.52 37.49V37.48Z"
            fill="white" />
    </mask>
    <g mask="url(#mask1_324_4748)">
        <path
            d="M25.1101 41.19V77.62C25.1101 79.32 26.0201 80.9 27.4901 81.75L59.0401 99.97C60.5201 100.82 62.3301 100.82 63.8101 99.97L95.3601 81.75C96.8401 80.9 97.7401 79.32 97.7401 77.62V41.19C97.7401 39.49 96.8301 37.91 95.3601 37.06L63.8101 18.84C62.3301 17.99 60.5201 17.99 59.0401 18.84L27.4901 37.06C26.0101 37.91 25.1101 39.49 25.1101 41.19Z"
            fill="#48BCEE" />
        <mask id="mask2_324_4748" style="mask-type:luminance" maskUnits="userSpaceOnUse" x="25"
            y="18" width="73" height="83">
            <path
                d="M25.1101 41.19V77.62C25.1101 79.32 26.0201 80.9 27.4901 81.75L59.0401 99.97C60.5201 100.82 62.3301 100.82 63.8101 99.97L95.3601 81.75C96.8401 80.9 97.7401 79.32 97.7401 77.62V41.19C97.7401 39.49 96.8301 37.91 95.3601 37.06L63.8101 18.84C62.3301 17.99 60.5201 17.99 59.0401 18.84L27.4901 37.06C26.0101 37.91 25.1101 39.49 25.1101 41.19Z"
                fill="white" />
        </mask>
        <g mask="url(#mask2_324_4748)">
            <path opacity="0.67" d="M35.8901 66.76V111.45L55.7701 114.11V71.6L35.8901 66.76Z"
                fill="white" />
            <path d="M75.0902 67.01V111.69L55.2102 114.35V71.84L75.0902 67.01Z" fill="#222625" />
            <path d="M75.1701 66.76L55.5301 77.95L35.8901 66.76L55.5301 55.58L75.1701 66.76Z"
                fill="white" />
        </g>
        <path opacity="0.61"
            d="M91.0302 49.87C91.0302 69.03 71.0302 89.03 51.8702 89.03C46.0202 89.03 41.0402 88.23 36.2102 85.67L42.5902 103.38C42.5902 103.38 67.5302 104.69 68.6502 104.69C69.7702 104.69 95.5002 86.79 95.5002 86.79L108.93 67.77L91.0302 49.87Z"
            fill="#222625" />
    </g>
    <path
        d="M16.53 40.92H15.62C15.62 35.61 11.32 31.31 6.01001 31.31V30.4C11.32 30.4 15.62 26.1 15.62 20.79H16.53C16.53 26.1 20.83 30.4 26.14 30.4V31.31C20.83 31.31 16.53 35.61 16.53 40.92Z"
        fill="white" />
    <path
        d="M94.5899 94.63H94.1799C94.1799 92.27 92.2699 90.36 89.9099 90.36V89.95C92.2699 89.95 94.1799 88.04 94.1799 85.68H94.5899C94.5899 88.04 96.4999 89.95 98.8599 89.95V90.36C96.4999 90.36 94.5899 92.27 94.5899 94.63Z"
        fill="white" />
    <path
        d="M55.9899 71.01C60.4689 71.01 64.0999 69.9221 64.0999 68.58C64.0999 67.2379 60.4689 66.15 55.9899 66.15C51.5109 66.15 47.8799 67.2379 47.8799 68.58C47.8799 69.9221 51.5109 71.01 55.9899 71.01Z"
        fill="#232326" />
    <path
        d="M36.8699 51.84C36.8699 52.72 37.0299 53.56 37.3199 54.33C38.3299 56.97 40.8799 58.85 43.8699 58.85C46.8599 58.85 49.5399 56.89 50.4899 54.15C56.1499 54.56 59.3799 52.03 60.7299 47.21C64.1299 46.29 66.6299 43.18 66.6299 39.49C66.6299 37.1 65.5799 34.96 63.9299 33.49C62.5199 32.24 60.6599 31.48 58.6299 31.48C56.2999 31.48 54.1999 32.47 52.7399 34.06C51.7599 33.42 50.5799 33.05 49.3199 33.05C48.4399 33.05 47.5999 33.23 46.8399 33.56C44.6399 34.51 43.0899 36.68 43.0599 39.22C43.0599 39.25 43.0599 39.28 43.0599 39.31C43.0599 39.35 43.0599 39.38 43.0599 39.42C42.7399 39.35 42.4099 39.31 42.0699 39.31C40.5499 39.31 39.1899 40.04 38.3399 41.17C37.7499 41.95 37.3999 42.93 37.3999 43.99C37.3999 45.13 37.8099 46.18 38.4899 46.99C38.5399 47.05 38.5999 47.12 38.6599 47.18C37.5499 48.42 36.8799 50.05 36.8799 51.84H36.8699Z"
        fill="#FFB3B3" />
    <path
        d="M43.7 52.3C43.12 52.3 42.54 52.24 41.97 52.12C41.75 52.07 41.6 51.85 41.65 51.63C41.7 51.41 41.92 51.26 42.14 51.31C42.65 51.42 43.17 51.47 43.69 51.47C47.72 51.47 51.01 48.19 51.01 44.15C51.01 42.31 50.32 40.55 49.08 39.2C48.92 39.03 48.94 38.77 49.1 38.61C49.27 38.45 49.53 38.47 49.69 38.63C51.08 40.14 51.84 42.1 51.84 44.15C51.84 48.64 48.18 52.3 43.69 52.3H43.7Z"
        fill="#01656B" />
    <path
        d="M53.5999 41.83C53.3699 41.83 53.1799 41.64 53.1799 41.41C53.1799 41.18 53.3699 40.99 53.5999 40.99C56.1999 40.99 58.3699 38.96 58.5499 36.38C58.5699 36.15 58.7699 35.98 58.9899 35.99C59.2199 36.01 59.3899 36.2 59.3799 36.43C59.1699 39.45 56.6299 41.82 53.5999 41.82V41.83Z"
        fill="#01656B" />
    <path
        d="M45.05 40.8C44.96 40.8 44.86 40.77 44.78 40.7C44.26 40.27 43.63 39.96 42.97 39.82C42.75 39.77 42.6 39.55 42.65 39.33C42.7 39.11 42.92 38.96 43.14 39.01C43.93 39.18 44.68 39.54 45.31 40.06C45.49 40.21 45.51 40.47 45.36 40.65C45.28 40.75 45.16 40.8 45.04 40.8H45.05Z"
        fill="#01656B" />
    <path
        d="M54.8799 36.83C54.7299 36.83 54.5799 36.75 54.5099 36.61C54.0499 35.72 53.3599 34.96 52.5099 34.41C52.3199 34.28 52.2599 34.03 52.3899 33.83C52.5199 33.64 52.7699 33.58 52.9699 33.71C53.9299 34.34 54.7199 35.21 55.2499 36.22C55.3599 36.42 55.2799 36.68 55.0699 36.78C55.0099 36.81 54.9399 36.83 54.8799 36.83Z"
        fill="#01656B" />
    <path
        d="M43.8699 59.26C39.7799 59.26 36.45 55.93 36.45 51.84C36.45 50.14 37.0299 48.49 38.0999 47.18C37.3699 46.28 36.9799 45.16 36.9799 43.99C36.9799 41.18 39.27 38.89 42.07 38.89C42.2699 38.89 42.46 38.9 42.66 38.92C42.86 35.42 45.77 32.63 49.33 32.63C50.51 32.63 51.67 32.94 52.68 33.53C54.25 31.96 56.4 31.06 58.63 31.06C63.27 31.06 67.05 34.84 67.05 39.48C67.05 43.19 64.6 46.47 61.07 47.54C59.6 52.5 56.1399 54.87 50.7799 54.58C49.6599 57.4 46.93 59.26 43.88 59.26H43.8699ZM42.06 39.72C39.71 39.72 37.7999 41.63 37.7999 43.98C37.7999 45.06 38.21 46.09 38.95 46.89C39.1 47.05 39.1 47.29 38.95 47.45C37.87 48.66 37.2799 50.21 37.2799 51.84C37.2799 55.47 40.2399 58.43 43.8699 58.43C46.6699 58.43 49.17 56.65 50.09 54.01C50.15 53.83 50.3299 53.72 50.5099 53.73C55.7599 54.11 58.9699 51.94 60.32 47.09C60.36 46.95 60.47 46.84 60.61 46.8C63.9 45.91 66.1999 42.89 66.1999 39.48C66.1999 35.3 62.8 31.89 58.61 31.89C56.49 31.89 54.4599 32.78 53.0299 34.34C52.8899 34.49 52.67 34.52 52.5 34.41C51.55 33.79 50.45 33.46 49.31 33.46C46.09 33.46 43.47 36.08 43.47 39.3C43.47 39.33 43.47 39.36 43.47 39.39C43.47 39.39 43.47 39.39 43.47 39.4C43.47 39.53 43.41 39.65 43.31 39.72C43.21 39.8 43.0799 39.83 42.9599 39.8C42.6699 39.74 42.36 39.7 42.06 39.7V39.72Z"
        fill="#01656B" />
    <path
        d="M38.65 47.59C38.55 47.59 38.44 47.55 38.36 47.47C38.19 47.31 38.19 47.05 38.35 46.88C38.37 46.86 38.92 46.29 39.68 45.69C39.86 45.55 40.12 45.58 40.26 45.76C40.4 45.94 40.37 46.2 40.19 46.34C39.48 46.9 38.95 47.45 38.95 47.45C38.87 47.53 38.76 47.58 38.65 47.58V47.59Z"
        fill="#01656B" />
    <path
        d="M59.54 60.3C59.48 60.3 59.42 60.29 59.36 60.26C59.15 60.16 59.06 59.91 59.16 59.7C59.45 59.1 59.63 58.46 59.7 57.8C59.73 57.57 59.93 57.41 60.16 57.43C60.39 57.46 60.55 57.66 60.53 57.89C60.45 58.64 60.24 59.37 59.91 60.06C59.84 60.21 59.69 60.3 59.53 60.3H59.54Z"
        fill="#A61162" />
    <path
        d="M45.7999 55.01C45.5599 55.68 45.43 56.4 45.43 57.15C45.43 60.91 48.73 63.95 52.79 63.95C55.81 63.95 58.4 62.28 59.54 59.88C60.48 60.52 61.6 60.89 62.81 60.89C65.52 60.89 67.7999 59.03 68.5199 56.48C69.0199 56.6 69.54 56.67 70.08 56.67C73.62 56.67 76.48 53.8 76.48 50.27C76.48 47.55 74.79 45.23 72.4 44.3C72.49 43.91 72.54 43.51 72.54 43.09C72.54 39.88 69.5599 37.28 65.8799 37.28C63.7699 37.28 61.8799 38.14 60.6699 39.48C59.6899 38.96 58.56 38.65 57.36 38.65C53.63 38.65 50.61 41.54 50.61 45.1C50.61 45.18 50.61 45.27 50.61 45.35C47.54 45.91 45.2 48.74 45.2 52.14C45.2 53.16 45.41 54.13 45.79 55L45.7999 55.01Z"
        fill="#FFB3B3" />
    <g opacity="0.3">
        <path
            d="M65.5802 37.29C63.6302 38.18 62.2802 39.28 62.7902 41.01L61.1602 39.38L62.5102 38.31L63.4602 37.79"
            fill="#A61162" />
    </g>
    <g opacity="0.3">
        <path
            d="M45.66 55.01C45.1 52.32 45.4 50.1 46.36 48.23C45.88 50.63 46.16 52.1 47.82 51.88L46.75 53.06"
            fill="#A61162" />
    </g>
    <path
        d="M45.8001 55.42C45.8001 55.42 45.7101 55.42 45.6601 55.4C45.4401 55.32 45.3301 55.08 45.4101 54.87C45.8901 53.54 46.7601 52.38 47.9401 51.51C48.1201 51.37 48.3901 51.41 48.5201 51.6C48.6601 51.78 48.6201 52.05 48.4301 52.18C47.3801 52.95 46.6001 53.98 46.1801 55.15C46.1201 55.32 45.9601 55.43 45.7901 55.43L45.8001 55.42Z"
        fill="#01656B" />
    <path
        d="M68.5101 56.89C68.5101 56.89 68.4301 56.89 68.4001 56.87C68.1801 56.81 68.0501 56.58 68.1101 56.36C68.2501 55.85 68.3301 55.31 68.3301 54.77C68.3301 52.58 67.1401 50.62 65.2401 49.66C65.0301 49.56 64.9501 49.31 65.0601 49.1C65.1601 48.89 65.4101 48.81 65.6201 48.92C67.8101 50.03 69.1701 52.27 69.1701 54.78C69.1701 55.4 69.0901 56.01 68.9201 56.59C68.8701 56.77 68.7001 56.89 68.5201 56.89H68.5101Z"
        fill="#01656B" />
    <path
        d="M72.4001 44.71C72.3501 44.71 72.3001 44.71 72.2501 44.68C71.7501 44.49 71.2301 44.36 70.6901 44.3C70.4601 44.28 70.2901 44.07 70.3201 43.84C70.3401 43.61 70.5501 43.44 70.7801 43.47C71.3901 43.53 71.9901 43.68 72.5601 43.9C72.7701 43.98 72.8801 44.23 72.8001 44.44C72.7401 44.6 72.5801 44.7 72.4101 44.7L72.4001 44.71Z"
        fill="#01656B" />
    <path
        d="M60.67 39.89C60.56 39.89 60.46 39.85 60.38 39.77C60.22 39.61 60.22 39.34 60.38 39.18C60.54 39.02 60.81 39.02 60.97 39.18C61.13 39.34 61.13 39.61 60.97 39.77C60.89 39.85 60.78 39.89 60.67 39.89Z"
        fill="#A61162" />
    <path
        d="M62.8001 41.7C62.6801 41.7 62.5501 41.64 62.4701 41.54C61.9401 40.85 61.2501 40.27 60.4701 39.85C60.2701 39.74 60.1901 39.49 60.3001 39.29C60.4101 39.09 60.6601 39.01 60.8601 39.12C61.7401 39.59 62.5201 40.26 63.1201 41.03C63.2601 41.21 63.2301 41.47 63.0401 41.61C62.9601 41.67 62.8701 41.7 62.7901 41.7H62.8001Z"
        fill="#01656B" />
    <path
        d="M52.79 64.37C48.5 64.37 45.01 61.13 45.01 57.15C45.01 56.42 45.13 55.71 45.35 55.02C44.98 54.11 44.79 53.14 44.79 52.14C44.79 48.71 47.04 45.77 50.2 45.02C50.25 41.27 53.44 38.24 57.36 38.24C58.48 38.24 59.58 38.49 60.58 38.97C61.92 37.63 63.84 36.87 65.88 36.87C69.78 36.87 72.95 39.66 72.95 43.09C72.95 43.41 72.92 43.73 72.87 44.04C74 44.55 74.96 45.34 75.67 46.37C76.47 47.52 76.89 48.86 76.89 50.26C76.89 54.02 73.83 57.08 70.07 57.08C69.64 57.08 69.21 57.04 68.79 56.96C67.9 59.53 65.49 61.3 62.8 61.3C61.7 61.3 60.64 61.01 59.69 60.47C58.36 62.85 55.7 64.36 52.78 64.36L52.79 64.37ZM57.36 39.07C53.87 39.07 51.03 41.78 51.03 45.11C51.03 45.2 51.03 45.27 51.03 45.34C51.04 45.55 50.9 45.74 50.69 45.77C47.75 46.31 45.62 48.99 45.62 52.15C45.62 53.09 45.81 54 46.18 54.85C46.22 54.95 46.23 55.06 46.19 55.16C45.96 55.8 45.84 56.48 45.84 57.16C45.84 60.68 48.96 63.54 52.79 63.54C55.55 63.54 58.05 62.04 59.16 59.71C59.21 59.6 59.31 59.52 59.43 59.49C59.55 59.46 59.67 59.48 59.77 59.55C60.67 60.16 61.72 60.49 62.8 60.49C65.24 60.49 67.43 58.8 68.11 56.38C68.17 56.16 68.39 56.03 68.61 56.09C69.08 56.21 69.58 56.27 70.07 56.27C73.37 56.27 76.06 53.58 76.06 50.28C76.06 47.79 74.56 45.6 72.24 44.7C72.05 44.62 71.94 44.42 71.99 44.21C72.08 43.85 72.12 43.47 72.12 43.1C72.12 40.13 69.32 37.71 65.88 37.71C63.96 37.71 62.17 38.46 60.97 39.77C60.84 39.91 60.63 39.95 60.47 39.86C59.52 39.35 58.45 39.08 57.36 39.08V39.07Z"
        fill="#01656B" />
    <path
        d="M56.3801 47.69C56.2701 47.69 56.1601 47.65 56.0801 47.56C54.9201 46.34 53.3901 45.67 51.7601 45.67C51.4001 45.67 51.0501 45.7 50.7101 45.77C50.4801 45.81 50.2701 45.66 50.2301 45.44C50.1901 45.21 50.3401 45 50.5601 44.96C50.9501 44.89 51.3601 44.85 51.7701 44.85C53.6301 44.85 55.3801 45.61 56.7001 47C56.8601 47.17 56.8501 47.43 56.6801 47.59C56.6001 47.67 56.5001 47.7 56.3901 47.7L56.3801 47.69Z"
        fill="#01656B" />
    <path
        d="M55.02 55.79C53.34 55.79 51.77 55.04 50.71 53.72C50.57 53.54 50.6 53.28 50.78 53.13C50.96 52.99 51.22 53.02 51.37 53.2C52.26 54.32 53.6 54.96 55.02 54.96C57.6 54.96 59.7 52.86 59.7 50.28C59.7 49.2 59.33 48.15 58.65 47.32C58.5 47.14 58.53 46.88 58.71 46.73C58.89 46.58 59.15 46.61 59.3 46.79C60.1 47.77 60.54 49.01 60.54 50.28C60.54 53.32 58.07 55.79 55.03 55.79H55.02Z"
        fill="#01656B" />
    <path
        d="M52.7701 58.31C52.5401 58.31 52.3501 58.12 52.3501 57.89C52.3501 56.86 52.6101 55.83 53.1001 54.93C53.2101 54.73 53.4601 54.65 53.6601 54.76C53.8601 54.87 53.9401 55.12 53.8301 55.32C53.4101 56.1 53.1801 56.99 53.1801 57.88C53.1801 58.11 52.9901 58.3 52.7601 58.3L52.7701 58.31Z"
        fill="#01656B" />
    <path
        d="M63.42 55.06C63.29 55.06 63.15 55 63.07 54.88C62.27 53.69 61.06 52.89 59.66 52.61C59.43 52.56 59.29 52.35 59.33 52.12C59.38 51.89 59.59 51.75 59.82 51.79C61.43 52.11 62.83 53.05 63.75 54.42C63.88 54.61 63.83 54.87 63.64 55C63.57 55.05 63.49 55.07 63.41 55.07L63.42 55.06Z"
        fill="#01656B" />
    <path
        d="M67.3499 51.27C67.2199 51.27 67.0899 51.21 67.0099 51.09C66.8799 50.9 66.9299 50.64 67.1199 50.51C68.1099 49.83 69.2699 49.47 70.4699 49.47C71.2199 49.47 71.9499 49.61 72.6499 49.89C72.8599 49.97 72.9699 50.22 72.8799 50.43C72.7999 50.64 72.5499 50.75 72.3399 50.66C71.7399 50.42 71.1099 50.3 70.4699 50.3C69.4399 50.3 68.4399 50.61 67.5899 51.19C67.5199 51.24 67.4399 51.26 67.3499 51.26V51.27Z"
        fill="#01656B" />
    <path
        d="M63.1201 46.15C62.7101 46.15 62.3001 46.09 61.9101 45.98C61.6901 45.92 61.5601 45.68 61.6301 45.46C61.6901 45.24 61.9301 45.11 62.1501 45.18C62.4701 45.27 62.7901 45.32 63.1301 45.32C64.0301 45.32 64.8901 44.97 65.5401 44.34C65.7001 44.18 65.9701 44.18 66.1301 44.34C66.2901 44.5 66.2901 44.77 66.1301 44.93C65.3301 45.71 64.2601 46.14 63.1401 46.14L63.1201 46.15Z"
        fill="#01656B" />
    <g opacity="0.6">
        <path
            d="M55.1602 41.9C55.1602 42.85 56.5702 42 58.0902 42C59.6102 42 60.6702 42.85 60.6702 41.9C60.6702 40.95 59.4402 40.19 57.9202 40.19C56.4002 40.19 55.1702 40.96 55.1702 41.9H55.1602Z"
            fill="white" />
    </g>
    <g opacity="0.6">
        <path
            d="M49.4299 47.85C49.4299 48.66 50.2799 47.85 51.4399 47.85C52.5999 47.85 53.6399 48.66 53.6399 47.85C53.6399 47.04 52.6999 46.38 51.5399 46.38C50.3799 46.38 49.4399 47.04 49.4399 47.85H49.4299Z"
            fill="white" />
    </g>
    <g opacity="0.6">
        <path
            d="M54.3499 59.91C54.5799 59.13 53.2999 59.6 51.8699 59.18C50.4399 58.76 49.3899 57.6 49.1599 58.38C48.9299 59.16 49.9099 60.13 51.3399 60.55C52.7699 60.97 54.1199 60.68 54.3499 59.91Z"
            fill="white" />
    </g>
    <g opacity="0.6">
        <path
            d="M71.1699 46.61C70.6299 47.21 71.7999 47.18 72.6599 47.96C73.5199 48.74 73.7399 50.04 74.2799 49.44C74.8199 48.84 74.5699 47.72 73.7099 46.94C72.8499 46.16 71.7099 46.01 71.1699 46.61Z"
            fill="white" />
    </g>
    <g opacity="0.6">
        <path
            d="M68.1699 39.74C67.7199 40.15 68.4099 40.55 69.0399 41.25C69.6699 41.95 70.0099 42.68 70.4599 42.27C70.9099 41.86 70.7599 40.96 70.1299 40.26C69.4999 39.56 68.6199 39.33 68.1599 39.74H68.1699Z"
            fill="white" />
    </g>
    <g opacity="0.6">
        <path
            d="M67.547 39.1732C67.6187 38.8611 67.3059 38.5228 66.8484 38.4176C66.3909 38.3125 65.9619 38.4804 65.8901 38.7926C65.8184 39.1048 66.1311 39.4431 66.5887 39.5482C67.0462 39.6533 67.4752 39.4854 67.547 39.1732Z"
            fill="white" />
    </g>
    <g opacity="0.6">
        <path
            d="M48.6245 49.3518C48.8896 49.0335 48.9119 48.6151 48.6742 48.4171C48.4366 48.2192 48.029 48.3168 47.7639 48.6351C47.4988 48.9533 47.4766 49.3718 47.7142 49.5697C47.9519 49.7677 48.3594 49.6701 48.6245 49.3518Z"
            fill="white" />
    </g>
    <g opacity="0.6">
        <path
            d="M64.5001 51.97C64.1601 52.16 64.6101 52.4 64.8901 53.02C65.1701 53.63 65.1501 54.28 65.5301 54.2C66.2301 54.05 66.3501 53.21 66.0601 52.59C65.7801 51.98 65.1201 51.62 64.5001 51.97Z"
            fill="white" />
    </g>
    <path
        d="M45.3099 45.75C45.2199 45.75 45.1399 45.72 45.0599 45.67C44.5999 45.32 44.0399 45.14 43.4599 45.14C43.2999 45.14 43.1399 45.15 42.9799 45.18C42.7499 45.22 42.5399 45.07 42.4999 44.84C42.4599 44.61 42.6099 44.4 42.8399 44.36C43.0499 44.32 43.2599 44.3 43.4699 44.3C44.2299 44.3 44.9599 44.54 45.5599 44.99C45.7399 45.13 45.7799 45.39 45.6499 45.57C45.5699 45.68 45.4399 45.74 45.3199 45.74L45.3099 45.75Z"
        fill="#01656B" />
    <g opacity="0.3">
        <path
            d="M37.3899 43.99C37.3899 45.13 37.7999 46.18 38.4799 46.99L40.1399 45.94C40.3499 45.81 40.3399 45.49 40.1199 45.37C37.5199 44.04 38.3299 41.16 38.3299 41.16C37.7399 41.94 37.3899 42.92 37.3899 43.98V43.99Z"
            fill="#A61162" />
    </g>
    <g opacity="0.3">
        <path
            d="M43.0601 39.22C43.9001 39.45 44.7601 39.97 45.3401 40.36C45.5501 40.5 45.8101 40.29 45.7301 40.06C44.7201 37.14 45.5901 35.24 47.0601 33.68L46.8401 33.56C44.6401 34.51 43.0901 36.68 43.0601 39.22Z"
            fill="#A61162" />
    </g>
    <g opacity="0.6">
        <path
            d="M47.5601 35.28C47.5601 35.96 48.4001 35.52 49.4301 35.52C50.4601 35.52 51.3001 35.95 51.3001 35.28C51.3001 34.61 50.4601 34.06 49.4301 34.06C48.4001 34.06 47.5601 34.61 47.5601 35.28Z"
            fill="white" />
    </g>
    <g opacity="0.6">
        <path
            d="M40.2 42.1C40.2 42.78 41.04 42.34 42.07 42.34C43.1 42.34 43.9399 42.77 43.9399 42.1C43.9399 41.43 43.1 40.88 42.07 40.88C41.04 40.88 40.2 41.43 40.2 42.1Z"
            fill="white" />
    </g>
    <g opacity="0.6">
        <path
            d="M41.9399 55.01C42.3499 54.47 41.4199 54.31 40.5899 53.7C39.7699 53.08 39.36 52.23 38.95 52.77C38.54 53.31 38.8799 54.25 39.7099 54.87C40.5299 55.49 41.5299 55.55 41.9399 55.01Z"
            fill="white" />
    </g>
    <g opacity="0.6">
        <path
            d="M58.2901 33.51C58.1001 34.16 59.1701 34.03 60.3501 34.38C61.5301 34.73 62.3501 35.43 62.5501 34.78C62.7401 34.13 61.9501 33.32 60.7701 32.97C59.5901 32.62 58.4901 32.86 58.2901 33.51Z"
            fill="white" />
    </g>
    <path
        d="M57.2848 33.8202C57.5386 33.5663 57.5671 33.1833 57.3484 32.9646C57.1297 32.7459 56.7467 32.7744 56.4928 33.0282C56.239 33.2821 56.2105 33.6651 56.4292 33.8838C56.6479 34.1025 57.0309 34.074 57.2848 33.8202Z"
        fill="white" />
    <g opacity="0.6">
        <path
            d="M42.1255 49.4149C42.7529 49.1545 43.1088 48.5753 42.9204 48.1214C42.732 47.6674 42.0706 47.5104 41.4432 47.7708C40.8158 48.0312 40.4599 48.6104 40.6483 49.0644C40.8367 49.5183 41.4981 49.6753 42.1255 49.4149Z"
            fill="white" />
    </g>
</svg>
