<svg width="18" height="11" viewBox="0 0 18 11" fill="none" xmlns="http://www.w3.org/2000/svg">
<path d="M17.418 1.11322C17.4179 0.837082 17.1941 0.613249 16.9179 0.61328L12.4179 0.613789C12.1418 0.613821 11.9179 0.837703 11.918 1.11385C11.918 1.38999 12.1419 1.61382 12.418 1.61379L16.418 1.61334L16.4185 5.61334C16.4185 5.88948 16.6424 6.11331 16.9185 6.11328C17.1947 6.11325 17.4185 5.88937 17.4185 5.61322L17.418 1.11322ZM11.185 6.84751L10.8856 7.24795C11.0847 7.3968 11.3629 7.37681 11.5386 7.20102L11.185 6.84751ZM7.67092 4.21997L7.97033 3.81953C7.77815 3.67584 7.51099 3.68893 7.33378 3.85073L7.67092 4.21997ZM16.5644 0.759768L10.8314 6.494L11.5386 7.20102L17.2716 1.46679L16.5644 0.759768ZM11.4845 6.44707L7.97033 3.81953L7.37151 4.62041L10.8856 7.24795L11.4845 6.44707ZM7.33378 3.85073L0.528391 10.0643L1.20266 10.8028L8.00805 4.58922L7.33378 3.85073Z" fill="#62E3C4"/>
</svg>




