<svg width="19" height="25" viewBox="0 0 19 25" fill="none" xmlns="http://www.w3.org/2000/svg">
<path fill-rule="evenodd" clip-rule="evenodd" d="M15.5639 16.9836C17.4359 15.2946 18.614 12.8401 18.614 10.1082C18.614 5.01399 14.5175 0.884277 9.46421 0.884277C4.41094 0.884277 0.314453 5.01399 0.314453 10.1082C0.314453 12.84 1.49243 15.2944 3.36425 16.9834V23.0855C3.36425 24.0732 4.491 24.638 5.28237 24.0469L9.46409 20.9233L13.6458 24.0469C14.4372 24.638 15.5639 24.0732 15.5639 23.0855V16.9836Z" fill="#CEC5FF"/>
<path d="M9.4641 16.2566C12.8329 16.2566 15.5639 13.5035 15.5639 10.1073C15.5639 6.71115 12.8329 3.95801 9.4641 3.95801C6.09525 3.95801 3.36426 6.71115 3.36426 10.1073C3.36426 13.5035 6.09525 16.2566 9.4641 16.2566Z" fill="#8975EE"/>
<path d="M9.4641 16.2566C12.8329 16.2566 15.5639 13.5035 15.5639 10.1073C15.5639 6.71115 12.8329 3.95801 9.4641 3.95801C6.09525 3.95801 3.36426 6.71115 3.36426 10.1073C3.36426 13.5035 6.09525 16.2566 9.4641 16.2566Z" fill="#8975EE"/>
</svg>
