<svg width="11" height="10" viewBox="0 0 11 10" fill="none" xmlns="http://www.w3.org/2000/svg">
<path d="M5.7179 0.351562C5.61438 0.136719 5.39563 0 5.1554 0C4.91516 0 4.69837 0.136719 4.5929 0.351562L3.33704 2.93555L0.532352 3.34961C0.297977 3.38477 0.102665 3.54883 0.0303993 3.77344C-0.0418663 3.99805 0.0167274 4.24609 0.184696 4.41211L2.21985 6.42578L1.73938 9.27148C1.70032 9.50586 1.79798 9.74414 1.99134 9.88281C2.1847 10.0215 2.44056 10.0391 2.65149 9.92773L5.15735 8.58984L7.66321 9.92773C7.87415 10.0391 8.13001 10.0234 8.32337 9.88281C8.51673 9.74219 8.61438 9.50586 8.57532 9.27148L8.0929 6.42578L10.1281 4.41211C10.296 4.24609 10.3566 3.99805 10.2824 3.77344C10.2081 3.54883 10.0148 3.38477 9.7804 3.34961L6.97376 2.93555L5.7179 0.351562Z" fill="#62E3C4"/>
</svg>
