<svg width="199" height="87" viewBox="0 0 199 87" fill="none" xmlns="http://www.w3.org/2000/svg">
<g clip-path="url(#clip0_1657_4918)">
<path d="M176.307 88.6669C176.307 78.5861 174.322 68.604 170.464 59.2906C166.606 49.9771 160.952 41.5147 153.824 34.3865C146.696 27.2583 138.233 21.6039 128.92 17.7461C119.606 13.8884 109.624 11.9028 99.5434 11.9028C89.4626 11.9028 79.4805 13.8884 70.167 17.7462C60.8536 21.6039 52.3912 27.2583 45.263 34.3865C38.1348 41.5147 32.4804 49.9771 28.6226 59.2906C24.7649 68.604 22.7793 78.5861 22.7793 88.6669L99.5434 88.6669H176.307Z" fill="#F79780"/>
<path d="M13.8105 43.2966C13.0393 44.9207 11.7429 46.5132 8.22768 47.5871C7.89195 47.6895 7.94015 48.155 8.28918 48.2246C11.4354 48.857 12.795 50.4799 13.867 52.4556C13.9784 52.6606 14.364 52.6707 14.4969 52.4721C15.785 50.5419 17.605 48.9936 20.3407 48.2613C20.6615 48.1752 20.6798 47.7755 20.3656 47.6794C17.226 46.7118 15.4559 45.1041 14.5169 43.2928C14.3972 43.0613 13.9235 43.0613 13.8122 43.2966H13.8105Z" fill="white"/>
<path d="M172.843 9.21776C171.894 11.2167 170.298 13.1767 165.972 14.4984C165.558 14.6245 165.618 15.1974 166.047 15.283C169.92 16.0614 171.593 18.0587 172.912 20.4904C173.049 20.7426 173.524 20.7551 173.688 20.5107C175.273 18.135 177.513 16.2295 180.88 15.3281C181.275 15.2223 181.297 14.7303 180.911 14.612C177.046 13.4211 174.868 11.4424 173.712 9.21309C173.565 8.9282 172.982 8.9282 172.845 9.21776H172.843Z" fill="#F79780"/>
<path d="M186.627 20.6124C186.11 21.7027 185.239 22.7718 182.879 23.4928C182.654 23.5615 182.686 23.874 182.921 23.9207C185.033 24.3453 185.946 25.4348 186.665 26.7612C186.74 26.8987 186.999 26.9055 187.088 26.7722C187.953 25.4764 189.175 24.437 191.011 23.9454C191.227 23.8876 191.239 23.6193 191.028 23.5547C188.92 22.9051 187.732 21.8259 187.102 20.6099C187.021 20.4545 186.703 20.4545 186.628 20.6124H186.627Z" fill="white"/>
</g>
<defs>
<clipPath id="clip0_1657_4918">
<rect width="199" height="87" fill="white"/>
</clipPath>
</defs>
</svg>
