<svg width="111" height="111" viewBox="0 0 111 111" fill="none" xmlns="http://www.w3.org/2000/svg">
    <path
        d="M11.55 33.33V78.12C11.55 79.88 12.49 81.51 14.02 82.39L52.8101 104.79C54.34 105.67 56.2201 105.67 57.7401 104.79L96.53 82.39C98.06 81.51 99 79.88 99 78.12V33.33C99 31.57 98.06 29.94 96.53 29.06L57.7401 6.66C56.2101 5.78 54.3301 5.78 52.8101 6.66L14.02 29.06C12.49 29.94 11.55 31.57 11.55 33.33Z"
        fill="white" />
    <mask id="mask0_324_4837" style="mask-type:luminance" maskUnits="userSpaceOnUse" x="11" y="6"
        width="88" height="100">
        <path
            d="M11.55 33.33V78.12C11.55 79.88 12.49 81.51 14.02 82.39L52.8101 104.79C54.34 105.67 56.2201 105.67 57.7401 104.79L96.53 82.39C98.06 81.51 99 79.88 99 78.12V33.33C99 31.57 98.06 29.94 96.53 29.06L57.7401 6.66C56.2101 5.78 54.3301 5.78 52.8101 6.66L14.02 29.06C12.49 29.94 11.55 31.57 11.55 33.33Z"
            fill="white" />
    </mask>
    <g mask="url(#mask0_324_4837)">
        <path opacity="0.93" d="M108 37.73L-1.09985 74.85V57.98L108 20.86V37.73Z" fill="#FFDA72" />
        <path opacity="0.93" d="M112.5 44.48L3.40015 81.6V77.1L112.5 39.98V44.48Z" fill="#FFDA72" />
    </g>
    <path
        d="M19.23 37.65V73.8C19.23 75.49 20.13 77.05 21.6 77.9L52.91 95.98C54.37 96.83 56.18 96.83 57.64 95.98L88.95 77.9C90.41 77.05 91.32 75.49 91.32 73.8V37.65C91.32 35.96 90.42 34.4 88.95 33.55L57.64 15.48C56.18 14.63 54.37 14.63 52.91 15.48L21.6 33.56C20.14 34.41 19.23 35.97 19.23 37.66V37.65Z"
        fill="#DD9C45" />
    <mask id="mask1_324_4837" style="mask-type:luminance" maskUnits="userSpaceOnUse" x="19" y="14"
        width="73" height="83">
        <path
            d="M19.23 37.65V73.8C19.23 75.49 20.13 77.05 21.6 77.9L52.91 95.98C54.37 96.83 56.18 96.83 57.64 95.98L88.95 77.9C90.41 77.05 91.32 75.49 91.32 73.8V37.65C91.32 35.96 90.42 34.4 88.95 33.55L57.64 15.48C56.18 14.63 54.37 14.63 52.91 15.48L21.6 33.56C20.14 34.41 19.23 35.97 19.23 37.66V37.65Z"
            fill="white" />
    </mask>
    <g mask="url(#mask1_324_4837)">
        <path
            d="M24.8599 41.37V77.99C24.8599 79.7 25.7699 81.28 27.2599 82.14L58.9799 100.45C60.4599 101.31 62.2899 101.31 63.7699 100.45L95.4899 82.14C96.9699 81.28 97.8899 79.7 97.8899 77.99V41.37C97.8899 39.66 96.9799 38.08 95.4899 37.22L63.7699 18.91C62.2899 18.05 60.4599 18.05 58.9799 18.91L27.2599 37.22C25.7799 38.08 24.8599 39.66 24.8599 41.37Z"
            fill="#FFE59C" />
        <path opacity="0.58"
            d="M92.5499 51.52C92.5499 70.78 72.4399 90.89 53.1799 90.89C47.2999 90.89 42.2899 90.08 37.4299 87.52L43.8499 105.32C43.8499 105.32 68.9199 106.64 70.0499 106.64C71.1799 106.64 97.0399 88.64 97.0399 88.64L110.54 69.52L92.5399 51.52H92.5499Z"
            fill="#B17518" />
        <path opacity="0.48"
            d="M57.42 82.72C70.3655 82.72 80.86 72.2256 80.86 59.28C80.86 46.3344 70.3655 35.84 57.42 35.84C44.4744 35.84 33.98 46.3344 33.98 59.28C33.98 72.2256 44.4744 82.72 57.42 82.72Z"
            fill="#B17518" />
        <path
            d="M87.7198 34.13C87.7198 41.27 81.9198 47.06 74.7898 47.06C74.7898 39.92 80.5898 34.13 87.7198 34.13Z"
            fill="#B17518" stroke="#1B262C" stroke-width="0.36" stroke-miterlimit="10" />
        <path
            d="M85.6448 50.8643C81.6583 52.6786 76.9434 50.9129 75.1291 46.9264C79.1157 45.1121 83.8306 46.8777 85.6448 50.8643Z"
            fill="#B17518" stroke="#1B262C" stroke-width="0.36" stroke-miterlimit="10" />
        <path
            d="M54.5799 79.88C67.5255 79.88 78.0199 69.3856 78.0199 56.44C78.0199 43.4944 67.5255 33 54.5799 33C41.6343 33 31.1399 43.4944 31.1399 56.44C31.1399 69.3856 41.6343 79.88 54.5799 79.88Z"
            fill="#B17518" stroke="#1B262C" stroke-width="0.36" stroke-miterlimit="10" />
        <path
            d="M62.7599 63.71H46.3899C39.3599 63.71 33.6599 56.19 33.6599 49.16C40.9399 50.37 48.2099 51.59 55.4899 52.8C62.1599 51.59 68.8299 50.37 75.4999 49.16C75.4999 56.19 69.7999 63.71 62.7699 63.71H62.7599Z"
            fill="#F4EDD9" />
        <path
            d="M37.2998 53.96C41.9498 54.15 45.9198 54.67 49.9898 56.88C50.5998 57.21 51.2098 57.58 51.8598 58.12C50.6398 59.07 49.2698 59.57 47.7998 59.81C43.6298 60.39 38.4498 58.45 37.3098 53.97L37.2998 53.96Z"
            fill="#1B262C" />
        <path
            d="M71.8598 53.96C70.7198 58.45 65.5398 60.38 61.3698 59.8C59.8998 59.56 58.5298 59.07 57.3098 58.11C57.9498 57.57 58.5698 57.2 59.1798 56.87C63.2398 54.67 67.2098 54.14 71.8598 53.95V53.96Z"
            fill="#1B262C" />
    </g>
    <path
        d="M16.2299 41.1H15.3099C15.3099 35.76 10.9799 31.44 5.6499 31.44V30.52C10.9899 30.52 15.3099 26.19 15.3099 20.86H16.2299C16.2299 26.2 20.5599 30.52 25.8899 30.52V31.44C20.5499 31.44 16.2299 35.77 16.2299 41.1Z"
        fill="white" />
    <path
        d="M94.71 95.09H94.3C94.3 92.72 92.38 90.8 90.01 90.8V90.39C92.38 90.39 94.3 88.47 94.3 86.1H94.71C94.71 88.47 96.63 90.39 99 90.39V90.8C96.63 90.8 94.71 92.72 94.71 95.09Z"
        fill="white" />
</svg>
