<svg width="169" height="108" viewBox="0 0 169 108" fill="none" xmlns="http://www.w3.org/2000/svg">
<path d="M44.289 54.1565H40.5976C39.9896 54.1565 39.6856 53.8525 39.6856 53.2445V27.1443C39.6856 26.5363 39.9896 26.2323 40.5976 26.2323H50.9335C53.1917 26.2323 54.9578 26.8548 56.2317 28.0997C57.5056 29.3447 58.1425 31.0962 58.1425 33.3545V36.7419C58.1425 40.0135 56.8541 42.1849 54.2774 43.2561V43.4298L58.9242 53.1142C59.1848 53.8091 58.9387 54.1565 58.1859 54.1565H54.6683C54.1471 54.1565 53.7707 54.0986 53.5391 53.9828C53.3075 53.867 53.1193 53.6209 52.9746 53.2445L48.6318 43.8641H45.7221C45.3747 43.8641 45.201 44.0233 45.201 44.3418V53.2445C45.201 53.8525 44.897 54.1565 44.289 54.1565ZM45.6787 39.4344H49.9346C50.8611 39.4344 51.5414 39.2462 51.9757 38.8699C52.41 38.4645 52.6271 37.8276 52.6271 36.959V33.5716C52.6271 32.6741 52.41 32.0227 51.9757 31.6174C51.5414 31.2121 50.8611 31.0094 49.9346 31.0094H45.6787C45.3602 31.0094 45.201 31.1686 45.201 31.4871V38.9567C45.201 39.2752 45.3602 39.4344 45.6787 39.4344ZM78.5482 54.1565H64.3473C63.7393 54.1565 63.4353 53.8525 63.4353 53.2445V27.1443C63.4353 26.5363 63.7393 26.2323 64.3473 26.2323H78.5482C79.1272 26.2323 79.4168 26.5363 79.4168 27.1443V30.0974C79.4168 30.7054 79.1272 31.0094 78.5482 31.0094H69.4718C69.1243 31.0094 68.9506 31.1686 68.9506 31.4871V37.1327C68.9506 37.4512 69.1243 37.6104 69.4718 37.6104H76.8979C77.5059 37.6104 77.8099 37.9144 77.8099 38.5224V41.4755C77.8099 42.0835 77.5059 42.3875 76.8979 42.3875H69.4718C69.1243 42.3875 68.9506 42.5468 68.9506 42.8652V48.9017C68.9506 49.2202 69.1243 49.3794 69.4718 49.3794H78.5482C79.1272 49.3794 79.4168 49.6834 79.4168 50.2914V53.2445C79.4168 53.8525 79.1272 54.1565 78.5482 54.1565ZM88.8196 54.1565H85.1282C84.5202 54.1565 84.2162 53.8525 84.2162 53.2445V27.1443C84.2162 26.5363 84.5202 26.2323 85.1282 26.2323H98.9817C99.5608 26.2323 99.8503 26.5363 99.8503 27.1443V30.0974C99.8503 30.7054 99.5608 31.0094 98.9817 31.0094H90.2527C89.9053 31.0094 89.7316 31.1686 89.7316 31.4871V38.2184C89.7316 38.5659 89.9053 38.7396 90.2527 38.7396H97.6789C98.2869 38.7396 98.5909 39.0436 98.5909 39.6516V42.5612C98.5909 43.1982 98.2869 43.5166 97.6789 43.5166H90.2527C89.9053 43.5166 89.7316 43.6759 89.7316 43.9944V53.2445C89.7316 53.8525 89.4276 54.1565 88.8196 54.1565ZM118.88 54.1565H104.679C104.071 54.1565 103.767 53.8525 103.767 53.2445V27.1443C103.767 26.5363 104.071 26.2323 104.679 26.2323H118.88C119.459 26.2323 119.749 26.5363 119.749 27.1443V30.0974C119.749 30.7054 119.459 31.0094 118.88 31.0094H109.804C109.456 31.0094 109.283 31.1686 109.283 31.4871V37.1327C109.283 37.4512 109.456 37.6104 109.804 37.6104H117.23C117.838 37.6104 118.142 37.9144 118.142 38.5224V41.4755C118.142 42.0835 117.838 42.3875 117.23 42.3875H109.804C109.456 42.3875 109.283 42.5468 109.283 42.8652V48.9017C109.283 49.2202 109.456 49.3794 109.804 49.3794H118.88C119.459 49.3794 119.749 49.6834 119.749 50.2914V53.2445C119.749 53.8525 119.459 54.1565 118.88 54.1565ZM129.152 54.1565H125.46C124.852 54.1565 124.548 53.8525 124.548 53.2445V27.1443C124.548 26.5363 124.852 26.2323 125.46 26.2323H135.796C138.054 26.2323 139.82 26.8548 141.094 28.0997C142.368 29.3447 143.005 31.0962 143.005 33.3545V36.7419C143.005 40.0135 141.717 42.1849 139.14 43.2561V43.4298L143.787 53.1142C144.047 53.8091 143.801 54.1565 143.049 54.1565H139.531C139.01 54.1565 138.633 54.0986 138.402 53.9828C138.17 53.867 137.982 53.6209 137.837 53.2445L133.494 43.8641H130.585C130.237 43.8641 130.064 44.0233 130.064 44.3418V53.2445C130.064 53.8525 129.76 54.1565 129.152 54.1565ZM130.541 39.4344H134.797C135.724 39.4344 136.404 39.2462 136.838 38.8699C137.273 38.4645 137.49 37.8276 137.49 36.959V33.5716C137.49 32.6741 137.273 32.0227 136.838 31.6174C136.404 31.2121 135.724 31.0094 134.797 31.0094H130.541C130.223 31.0094 130.064 31.1686 130.064 31.4871V38.9567C130.064 39.2752 130.223 39.4344 130.541 39.4344Z" fill="black"/>
<path d="M75.9647 92.5867H61.7638C61.1558 92.5867 60.8518 92.2827 60.8518 91.6747V65.5745C60.8518 64.9665 61.1558 64.6625 61.7638 64.6625H75.9647C76.5438 64.6625 76.8333 64.9665 76.8333 65.5745V68.5276C76.8333 69.1356 76.5438 69.4396 75.9647 69.4396H66.8883C66.5409 69.4396 66.3672 69.5988 66.3672 69.9173V75.5629C66.3672 75.8814 66.5409 76.0406 66.8883 76.0406H74.3145C74.9225 76.0406 75.2265 76.3446 75.2265 76.9526V79.9057C75.2265 80.5137 74.9225 80.8177 74.3145 80.8177H66.8883C66.5409 80.8177 66.3672 80.9769 66.3672 81.2954V87.3319C66.3672 87.6504 66.5409 87.8096 66.8883 87.8096H75.9647C76.5438 87.8096 76.8333 88.1136 76.8333 88.7216V91.6747C76.8333 92.2827 76.5438 92.5867 75.9647 92.5867ZM84.5424 92.5867H80.3734C79.8522 92.5867 79.6785 92.2827 79.8522 91.6747L86.7138 65.5745C86.9165 64.9665 87.3508 64.6625 88.0167 64.6625H93.7926C94.5164 64.6625 94.9507 64.9665 95.0954 65.5745L101.957 91.6747C102.131 92.2827 101.957 92.5867 101.436 92.5867H97.2668C96.9484 92.5867 96.7312 92.5288 96.6154 92.413C96.4996 92.2682 96.4127 92.0221 96.3548 91.6747L95.1389 86.8976H86.6704L85.4544 91.6747C85.3965 92.0221 85.2952 92.2682 85.1504 92.413C85.0346 92.5288 84.832 92.5867 84.5424 92.5867ZM90.8395 69.9173L87.7127 82.468H94.14L91.0132 69.9173H90.8395ZM110.41 92.5867H106.719C106.111 92.5867 105.807 92.2827 105.807 91.6747V65.5745C105.807 64.9665 106.111 64.6625 106.719 64.6625H117.054C119.313 64.6625 121.079 65.285 122.353 66.5299C123.626 67.7748 124.263 69.5264 124.263 71.7847V75.1721C124.263 78.4436 122.975 80.615 120.398 81.6863V81.86L125.045 91.5444C125.306 92.2392 125.06 92.5867 124.307 92.5867H120.789C120.268 92.5867 119.892 92.5288 119.66 92.413C119.428 92.2972 119.24 92.0511 119.095 91.6747L114.753 82.2942H111.843C111.496 82.2942 111.322 82.4535 111.322 82.772V91.6747C111.322 92.2827 111.018 92.5867 110.41 92.5867ZM111.8 77.8646H116.056C116.982 77.8646 117.662 77.6764 118.097 77.3C118.531 76.8947 118.748 76.2578 118.748 75.3892V72.0018C118.748 71.1043 118.531 70.4529 118.097 70.0476C117.662 69.6422 116.982 69.4396 116.056 69.4396H111.8C111.481 69.4396 111.322 69.5988 111.322 69.9173V77.3869C111.322 77.7054 111.481 77.8646 111.8 77.8646ZM134.073 92.5867H130.468C129.86 92.5867 129.556 92.2827 129.556 91.6747V65.5745C129.556 64.9665 129.86 64.6625 130.468 64.6625H133.725C134.333 64.6625 134.739 64.8652 134.941 65.2705L143.714 81.7297H143.887V65.5745C143.887 64.9665 144.191 64.6625 144.799 64.6625H148.404C149.012 64.6625 149.316 64.9665 149.316 65.5745V91.6747C149.316 92.2827 149.012 92.5867 148.404 92.5867H145.234C144.597 92.5867 144.134 92.2972 143.844 91.7181L135.158 75.5629H134.985V91.6747C134.985 92.2827 134.681 92.5867 134.073 92.5867Z" fill="black"/>
<path d="M38.0883 87.7662H39.9123C41.1283 87.7662 41.8231 87.1871 41.9968 86.029L37.2632 80.4703C36.5683 80.4992 36.0762 80.7308 35.7866 81.1651C35.5261 81.5994 35.3958 82.3377 35.3958 83.3799V85.2473C35.3958 86.1449 35.5985 86.7963 36.0038 87.2016C36.4381 87.578 37.1329 87.7662 38.0883 87.7662ZM39.9123 92.5867H37.2632C34.976 92.5867 33.2099 91.9787 31.965 90.7627C30.72 89.5467 30.0976 87.8096 30.0976 85.5513V83.0325C30.0976 81.5849 30.474 80.311 31.2267 79.2109C32.0084 78.0817 33.0941 77.4303 34.4838 77.2566C33.3547 75.7801 32.7901 74.0864 32.7901 72.1755V71.6978C32.7901 69.4685 33.456 67.7459 34.7878 66.5299C36.1485 65.285 37.987 64.6625 40.3031 64.6625H41.7363C44.0235 64.6625 45.7895 65.2705 47.0345 66.4865C48.2794 67.7025 48.9019 69.4396 48.9019 71.6978V73.1744C48.9019 73.8113 48.5979 74.1298 47.9899 74.1298H44.2985C43.6905 74.1298 43.3865 73.8113 43.3865 73.1744V71.7847C43.3865 70.8872 43.2128 70.2502 42.8654 69.8738C42.518 69.4685 41.9679 69.2659 41.2151 69.2659H40.8677C40.0281 69.2659 39.4201 69.4685 39.0437 69.8738C38.6674 70.2502 38.4792 70.8872 38.4792 71.7847V72.3492C38.4792 73.4784 39.1161 74.7667 40.39 76.2143L42.4311 78.5594H52.0721C52.6801 78.5594 52.9841 78.8779 52.9841 79.5149V82.468C52.9841 83.0759 52.6801 83.3799 52.0721 83.3799H46.4265L53.5052 91.805C53.65 91.9787 53.6934 92.1524 53.6355 92.3261C53.5776 92.4998 53.4473 92.5867 53.2447 92.5867H48.5979C47.903 92.5867 47.3964 92.384 47.0779 91.9787L45.1671 89.7204C44.8486 90.7337 44.2696 91.472 43.43 91.9353C42.6193 92.3695 41.4468 92.5867 39.9123 92.5867Z" fill="black"/>
<path d="M44.289 50.4041H40.5976C39.9896 50.4041 39.6856 50.1001 39.6856 49.4921V23.3919C39.6856 22.7839 39.9896 22.4799 40.5976 22.4799H50.9335C53.1917 22.4799 54.9578 23.1023 56.2317 24.3473C57.5056 25.5922 58.1425 27.3438 58.1425 29.6021V32.9894C58.1425 36.261 56.8541 38.4324 54.2774 39.5036V39.6773L58.9242 49.3618C59.1848 50.0566 58.9387 50.4041 58.1859 50.4041H54.6683C54.1471 50.4041 53.7707 50.3461 53.5391 50.2303C53.3075 50.1145 53.1193 49.8684 52.9746 49.4921L48.6318 40.1116H45.7221C45.3747 40.1116 45.201 40.2709 45.201 40.5893V49.4921C45.201 50.1001 44.897 50.4041 44.289 50.4041ZM45.6787 35.682H49.9346C50.8611 35.682 51.5414 35.4938 51.9757 35.1174C52.41 34.7121 52.6271 34.0751 52.6271 33.2066V29.8192C52.6271 28.9217 52.41 28.2703 51.9757 27.8649C51.5414 27.4596 50.8611 27.257 49.9346 27.257H45.6787C45.3602 27.257 45.201 27.4162 45.201 27.7347V35.2043C45.201 35.5227 45.3602 35.682 45.6787 35.682ZM78.5482 50.4041H64.3473C63.7393 50.4041 63.4353 50.1001 63.4353 49.4921V23.3919C63.4353 22.7839 63.7393 22.4799 64.3473 22.4799H78.5482C79.1272 22.4799 79.4168 22.7839 79.4168 23.3919V26.345C79.4168 26.953 79.1272 27.257 78.5482 27.257H69.4718C69.1243 27.257 68.9506 27.4162 68.9506 27.7347V33.3803C68.9506 33.6988 69.1243 33.858 69.4718 33.858H76.8979C77.5059 33.858 77.8099 34.162 77.8099 34.77V37.7231C77.8099 38.3311 77.5059 38.6351 76.8979 38.6351H69.4718C69.1243 38.6351 68.9506 38.7943 68.9506 39.1128V45.1493C68.9506 45.4677 69.1243 45.627 69.4718 45.627H78.5482C79.1272 45.627 79.4168 45.931 79.4168 46.539V49.4921C79.4168 50.1001 79.1272 50.4041 78.5482 50.4041ZM88.8196 50.4041H85.1282C84.5202 50.4041 84.2162 50.1001 84.2162 49.4921V23.3919C84.2162 22.7839 84.5202 22.4799 85.1282 22.4799H98.9817C99.5608 22.4799 99.8503 22.7839 99.8503 23.3919V26.345C99.8503 26.953 99.5608 27.257 98.9817 27.257H90.2527C89.9053 27.257 89.7316 27.4162 89.7316 27.7347V34.466C89.7316 34.8134 89.9053 34.9871 90.2527 34.9871H97.6789C98.2869 34.9871 98.5909 35.2911 98.5909 35.8991V38.8088C98.5909 39.4457 98.2869 39.7642 97.6789 39.7642H90.2527C89.9053 39.7642 89.7316 39.9234 89.7316 40.2419V49.4921C89.7316 50.1001 89.4276 50.4041 88.8196 50.4041ZM118.88 50.4041H104.679C104.071 50.4041 103.767 50.1001 103.767 49.4921V23.3919C103.767 22.7839 104.071 22.4799 104.679 22.4799H118.88C119.459 22.4799 119.749 22.7839 119.749 23.3919V26.345C119.749 26.953 119.459 27.257 118.88 27.257H109.804C109.456 27.257 109.283 27.4162 109.283 27.7347V33.3803C109.283 33.6988 109.456 33.858 109.804 33.858H117.23C117.838 33.858 118.142 34.162 118.142 34.77V37.7231C118.142 38.3311 117.838 38.6351 117.23 38.6351H109.804C109.456 38.6351 109.283 38.7943 109.283 39.1128V45.1493C109.283 45.4677 109.456 45.627 109.804 45.627H118.88C119.459 45.627 119.749 45.931 119.749 46.539V49.4921C119.749 50.1001 119.459 50.4041 118.88 50.4041ZM129.152 50.4041H125.46C124.852 50.4041 124.548 50.1001 124.548 49.4921V23.3919C124.548 22.7839 124.852 22.4799 125.46 22.4799H135.796C138.054 22.4799 139.82 23.1023 141.094 24.3473C142.368 25.5922 143.005 27.3438 143.005 29.6021V32.9894C143.005 36.261 141.717 38.4324 139.14 39.5036V39.6773L143.787 49.3618C144.047 50.0566 143.801 50.4041 143.049 50.4041H139.531C139.01 50.4041 138.633 50.3461 138.402 50.2303C138.17 50.1145 137.982 49.8684 137.837 49.4921L133.494 40.1116H130.585C130.237 40.1116 130.064 40.2709 130.064 40.5893V49.4921C130.064 50.1001 129.76 50.4041 129.152 50.4041ZM130.541 35.682H134.797C135.724 35.682 136.404 35.4938 136.838 35.1174C137.273 34.7121 137.49 34.0751 137.49 33.2066V29.8192C137.49 28.9217 137.273 28.2703 136.838 27.8649C136.404 27.4596 135.724 27.257 134.797 27.257H130.541C130.223 27.257 130.064 27.4162 130.064 27.7347V35.2043C130.064 35.5227 130.223 35.682 130.541 35.682Z" fill="#62E3C4"/>
<path d="M75.9647 88.8342H61.7638C61.1558 88.8342 60.8518 88.5302 60.8518 87.9222V61.822C60.8518 61.214 61.1558 60.9101 61.7638 60.9101H75.9647C76.5438 60.9101 76.8333 61.214 76.8333 61.822V64.7751C76.8333 65.3831 76.5438 65.6871 75.9647 65.6871H66.8883C66.5409 65.6871 66.3672 65.8464 66.3672 66.1648V71.8105C66.3672 72.1289 66.5409 72.2882 66.8883 72.2882H74.3145C74.9225 72.2882 75.2265 72.5922 75.2265 73.2002V76.1533C75.2265 76.7613 74.9225 77.0653 74.3145 77.0653H66.8883C66.5409 77.0653 66.3672 77.2245 66.3672 77.543V83.5794C66.3672 83.8979 66.5409 84.0572 66.8883 84.0572H75.9647C76.5438 84.0572 76.8333 84.3611 76.8333 84.9691V87.9222C76.8333 88.5302 76.5438 88.8342 75.9647 88.8342ZM84.5424 88.8342H80.3734C79.8522 88.8342 79.6785 88.5302 79.8522 87.9222L86.7138 61.822C86.9165 61.214 87.3508 60.9101 88.0167 60.9101H93.7926C94.5164 60.9101 94.9507 61.214 95.0954 61.822L101.957 87.9222C102.131 88.5302 101.957 88.8342 101.436 88.8342H97.2668C96.9484 88.8342 96.7312 88.7763 96.6154 88.6605C96.4996 88.5158 96.4127 88.2697 96.3548 87.9222L95.1389 83.1452H86.6704L85.4544 87.9222C85.3965 88.2697 85.2952 88.5158 85.1504 88.6605C85.0346 88.7763 84.832 88.8342 84.5424 88.8342ZM90.8395 66.1648L87.7127 78.7155H94.14L91.0132 66.1648H90.8395ZM110.41 88.8342H106.719C106.111 88.8342 105.807 88.5302 105.807 87.9222V61.822C105.807 61.214 106.111 60.9101 106.719 60.9101H117.054C119.313 60.9101 121.079 61.5325 122.353 62.7775C123.626 64.0224 124.263 65.774 124.263 68.0322V71.4196C124.263 74.6912 122.975 76.8626 120.398 77.9338V78.1075L125.045 87.792C125.306 88.4868 125.06 88.8342 124.307 88.8342H120.789C120.268 88.8342 119.892 88.7763 119.66 88.6605C119.428 88.5447 119.24 88.2986 119.095 87.9222L114.753 78.5418H111.843C111.496 78.5418 111.322 78.701 111.322 79.0195V87.9222C111.322 88.5302 111.018 88.8342 110.41 88.8342ZM111.8 74.1122H116.056C116.982 74.1122 117.662 73.924 118.097 73.5476C118.531 73.1423 118.748 72.5053 118.748 71.6368V68.2494C118.748 67.3519 118.531 66.7004 118.097 66.2951C117.662 65.8898 116.982 65.6871 116.056 65.6871H111.8C111.481 65.6871 111.322 65.8464 111.322 66.1648V73.6344C111.322 73.9529 111.481 74.1122 111.8 74.1122ZM134.073 88.8342H130.468C129.86 88.8342 129.556 88.5302 129.556 87.9222V61.822C129.556 61.214 129.86 60.9101 130.468 60.9101H133.725C134.333 60.9101 134.739 61.1127 134.941 61.518L143.714 77.9772H143.887V61.822C143.887 61.214 144.191 60.9101 144.799 60.9101H148.404C149.012 60.9101 149.316 61.214 149.316 61.822V87.9222C149.316 88.5302 149.012 88.8342 148.404 88.8342H145.234C144.597 88.8342 144.134 88.5447 143.844 87.9657L135.158 71.8105H134.985V87.9222C134.985 88.5302 134.681 88.8342 134.073 88.8342Z" fill="#FFD979"/>
<path d="M38.0883 84.0137H39.9123C41.1283 84.0137 41.8231 83.4347 41.9968 82.2766L37.2632 76.7178C36.5683 76.7468 36.0762 76.9784 35.7866 77.4127C35.5261 77.847 35.3958 78.5852 35.3958 79.6275V81.4949C35.3958 82.3924 35.5985 83.0438 36.0038 83.4492C36.4381 83.8255 37.1329 84.0137 38.0883 84.0137ZM39.9123 88.8342H37.2632C34.976 88.8342 33.2099 88.2262 31.965 87.0103C30.72 85.7943 30.0976 84.0572 30.0976 81.7989V79.2801C30.0976 77.8325 30.474 76.5586 31.2267 75.4584C32.0084 74.3293 33.0941 73.6779 34.4838 73.5042C33.3547 72.0276 32.7901 70.3339 32.7901 68.4231V67.9454C32.7901 65.7161 33.456 63.9934 34.7878 62.7775C36.1485 61.5325 37.987 60.9101 40.3031 60.9101H41.7363C44.0235 60.9101 45.7895 61.518 47.0345 62.734C48.2794 63.95 48.9019 65.6871 48.9019 67.9454V69.4219C48.9019 70.0589 48.5979 70.3773 47.9899 70.3773H44.2985C43.6905 70.3773 43.3865 70.0589 43.3865 69.4219V68.0322C43.3865 67.1347 43.2128 66.4978 42.8654 66.1214C42.518 65.7161 41.9679 65.5134 41.2151 65.5134H40.8677C40.0281 65.5134 39.4201 65.7161 39.0437 66.1214C38.6674 66.4978 38.4792 67.1347 38.4792 68.0322V68.5968C38.4792 69.7259 39.1161 71.0143 40.39 72.4619L42.4311 74.807H52.0721C52.6801 74.807 52.9841 75.1255 52.9841 75.7624V78.7155C52.9841 79.3235 52.6801 79.6275 52.0721 79.6275H46.4265L53.5052 88.0525C53.65 88.2262 53.6934 88.3999 53.6355 88.5737C53.5776 88.7474 53.4473 88.8342 53.2447 88.8342H48.5979C47.903 88.8342 47.3964 88.6316 47.0779 88.2262L45.1671 85.968C44.8486 86.9813 44.2696 87.7196 43.43 88.1828C42.6193 88.6171 41.4468 88.8342 39.9123 88.8342Z" fill="white"/>
<path d="M149.366 1.30546C148.35 4.14083 146.644 6.92099 142.016 8.79577C141.574 8.97464 141.637 9.78726 142.097 9.90871C146.239 11.0128 148.029 13.846 149.44 17.2952C149.587 17.653 150.094 17.6706 150.269 17.3239C151.965 13.9542 154.361 11.2513 157.963 9.97275C158.385 9.82259 158.409 9.12479 157.996 8.95697C153.862 7.26767 151.532 4.46102 150.296 1.29884C150.138 0.894733 149.514 0.894732 149.368 1.30546H149.366Z" fill="white"/>
<path d="M6.33884 38.1387C5.56764 40.2923 4.27124 42.404 0.756001 43.828C0.420267 43.9639 0.468467 44.5811 0.817498 44.6733C3.96376 45.512 5.32332 47.6639 6.39534 50.2838C6.5067 50.5556 6.8923 50.569 7.02526 50.3056C8.31335 47.7461 10.1333 45.6931 12.869 44.722C13.1898 44.6079 13.2081 44.0779 12.894 43.9504C9.75435 42.6673 7.98427 40.5355 7.04521 38.1336C6.92554 37.8267 6.45185 37.8267 6.3405 38.1387H6.33884Z" fill="white"/>
<path d="M164.11 17.4685C163.556 19.0151 162.625 20.5315 160.101 21.5542C159.86 21.6517 159.895 22.095 160.145 22.1612C162.405 22.7635 163.381 24.3088 164.151 26.1902C164.231 26.3853 164.508 26.395 164.603 26.2059C165.528 24.3678 166.835 22.8935 168.8 22.1961C169.03 22.1142 169.043 21.7336 168.818 21.6421C166.563 20.7206 165.292 19.1897 164.617 17.4649C164.531 17.2445 164.191 17.2445 164.111 17.4685H164.11Z" fill="white"/>
</svg>
