<svg width="146" height="101" viewBox="0 0 146 101" fill="none" xmlns="http://www.w3.org/2000/svg">
<g clip-path="url(#clip0_1487_2445)" filter="url(#filter0_d_1487_2445)">
<path d="M69.9998 93L63.9377 82.5L76.062 82.5L74.9999 93L69.9998 93Z" fill="#F79780"/>
<rect x="19.7144" y="12.8715" width="97.4286" height="66.0619" rx="6.28571" fill="#F79780"/>
<rect x="25" y="15.8709" width="100" height="67.9005" rx="6.28571" fill="#01656B"/>
<path d="M47.1558 46.5272H45.2321C44.9152 46.5272 44.7568 46.3688 44.7568 46.0519V32.4496C44.7568 32.1328 44.9152 31.9743 45.2321 31.9743H50.6187C51.7956 31.9743 52.716 32.2987 53.3799 32.9475C54.0437 33.5963 54.3757 34.5092 54.3757 35.6861V37.4515C54.3757 39.1565 53.7043 40.2881 52.3614 40.8464V40.9369L54.7831 45.984C54.9189 46.3461 54.7906 46.5272 54.3983 46.5272H52.5651C52.2935 46.5272 52.0973 46.497 51.9766 46.4367C51.8559 46.3763 51.7578 46.2481 51.6824 46.0519L49.4191 41.1632H47.9027C47.7217 41.1632 47.6311 41.2462 47.6311 41.4122V46.0519C47.6311 46.3688 47.4727 46.5272 47.1558 46.5272ZM47.8801 38.8547H50.0981C50.5809 38.8547 50.9355 38.7566 51.1618 38.5605C51.3882 38.3492 51.5013 38.0173 51.5013 37.5646V35.7993C51.5013 35.3315 51.3882 34.992 51.1618 34.7808C50.9355 34.5696 50.5809 34.4639 50.0981 34.4639H47.8801C47.7141 34.4639 47.6311 34.5469 47.6311 34.7129V38.6057C47.6311 38.7717 47.7141 38.8547 47.8801 38.8547ZM65.0103 46.5272H57.6093C57.2925 46.5272 57.1341 46.3688 57.1341 46.0519V32.4496C57.1341 32.1328 57.2925 31.9743 57.6093 31.9743H65.0103C65.312 31.9743 65.4629 32.1328 65.4629 32.4496V33.9886C65.4629 34.3055 65.312 34.4639 65.0103 34.4639H60.28C60.099 34.4639 60.0084 34.5469 60.0084 34.7129V37.6552C60.0084 37.8211 60.099 37.9041 60.28 37.9041H64.1502C64.4671 37.9041 64.6255 38.0625 64.6255 38.3794V39.9184C64.6255 40.2353 64.4671 40.3937 64.1502 40.3937H60.28C60.099 40.3937 60.0084 40.4767 60.0084 40.6427V43.7886C60.0084 43.9546 60.099 44.0376 60.28 44.0376H65.0103C65.312 44.0376 65.4629 44.196 65.4629 44.5129V46.0519C65.4629 46.3688 65.312 46.5272 65.0103 46.5272ZM70.3633 46.5272H68.4395C68.1226 46.5272 67.9642 46.3688 67.9642 46.0519V32.4496C67.9642 32.1328 68.1226 31.9743 68.4395 31.9743H75.6593C75.9611 31.9743 76.112 32.1328 76.112 32.4496V33.9886C76.112 34.3055 75.9611 34.4639 75.6593 34.4639H71.1101C70.9291 34.4639 70.8385 34.5469 70.8385 34.7129V38.221C70.8385 38.402 70.9291 38.4926 71.1101 38.4926H74.9803C75.2972 38.4926 75.4556 38.651 75.4556 38.9679V40.4842C75.4556 40.8162 75.2972 40.9822 74.9803 40.9822H71.1101C70.9291 40.9822 70.8385 41.0652 70.8385 41.2311V46.0519C70.8385 46.3688 70.6801 46.5272 70.3633 46.5272ZM86.0295 46.5272H78.6286C78.3118 46.5272 78.1533 46.3688 78.1533 46.0519V32.4496C78.1533 32.1328 78.3118 31.9743 78.6286 31.9743H86.0295C86.3313 31.9743 86.4822 32.1328 86.4822 32.4496V33.9886C86.4822 34.3055 86.3313 34.4639 86.0295 34.4639H81.2993C81.1182 34.4639 81.0277 34.5469 81.0277 34.7129V37.6552C81.0277 37.8211 81.1182 37.9041 81.2993 37.9041H85.1695C85.4864 37.9041 85.6448 38.0625 85.6448 38.3794V39.9184C85.6448 40.2353 85.4864 40.3937 85.1695 40.3937H81.2993C81.1182 40.3937 81.0277 40.4767 81.0277 40.6427V43.7886C81.0277 43.9546 81.1182 44.0376 81.2993 44.0376H86.0295C86.3313 44.0376 86.4822 44.196 86.4822 44.5129V46.0519C86.4822 46.3688 86.3313 46.5272 86.0295 46.5272ZM91.3825 46.5272H89.4588C89.1419 46.5272 88.9835 46.3688 88.9835 46.0519V32.4496C88.9835 32.1328 89.1419 31.9743 89.4588 31.9743H94.8454C96.0223 31.9743 96.9427 32.2987 97.6066 32.9475C98.2704 33.5963 98.6024 34.5092 98.6024 35.6861V37.4515C98.6024 39.1565 97.931 40.2881 96.5881 40.8464V40.9369L99.0098 45.984C99.1456 46.3461 99.0173 46.5272 98.625 46.5272H96.7918C96.5202 46.5272 96.324 46.497 96.2033 46.4367C96.0826 46.3763 95.9845 46.2481 95.9091 46.0519L93.6458 41.1632H92.1294C91.9484 41.1632 91.8578 41.2462 91.8578 41.4122V46.0519C91.8578 46.3688 91.6994 46.5272 91.3825 46.5272ZM92.1068 38.8547H94.3248C94.8076 38.8547 95.1622 38.7566 95.3885 38.5605C95.6149 38.3492 95.728 38.0173 95.728 37.5646V35.7993C95.728 35.3315 95.6149 34.992 95.3885 34.7808C95.1622 34.5696 94.8076 34.4639 94.3248 34.4639H92.1068C91.9408 34.4639 91.8578 34.5469 91.8578 34.7129V38.6057C91.8578 38.7717 91.9408 38.8547 92.1068 38.8547Z" fill="black"/>
<path d="M73.5548 66.5552H66.1539C65.8371 66.5552 65.6786 66.3968 65.6786 66.0799V52.4777C65.6786 52.1608 65.8371 52.0024 66.1539 52.0024H73.5548C73.8566 52.0024 74.0075 52.1608 74.0075 52.4777V54.0167C74.0075 54.3335 73.8566 54.492 73.5548 54.492H68.8246C68.6435 54.492 68.553 54.575 68.553 54.7409V57.6832C68.553 57.8492 68.6435 57.9322 68.8246 57.9322H72.6948C73.0117 57.9322 73.1701 58.0906 73.1701 58.4074V59.9465C73.1701 60.2633 73.0117 60.4218 72.6948 60.4218H68.8246C68.6435 60.4218 68.553 60.5047 68.553 60.6707V63.8167C68.553 63.9826 68.6435 64.0656 68.8246 64.0656H73.5548C73.8566 64.0656 74.0075 64.2241 74.0075 64.5409V66.0799C74.0075 66.3968 73.8566 66.5552 73.5548 66.5552ZM78.0252 66.5552H75.8524C75.5808 66.5552 75.4903 66.3968 75.5808 66.0799L79.1568 52.4777C79.2624 52.1608 79.4888 52.0024 79.8358 52.0024H82.8459C83.2232 52.0024 83.4495 52.1608 83.5249 52.4777L87.1009 66.0799C87.1914 66.3968 87.1009 66.5552 86.8293 66.5552H84.6566C84.4906 66.5552 84.3774 66.5251 84.3171 66.4647C84.2567 66.3893 84.2115 66.261 84.1813 66.0799L83.5476 63.5903H79.1342L78.5005 66.0799C78.4703 66.261 78.4175 66.3893 78.342 66.4647C78.2817 66.5251 78.1761 66.5552 78.0252 66.5552ZM81.3069 54.7409L79.6774 61.2818H83.027L81.3975 54.7409H81.3069ZM91.5062 66.5552H89.5824C89.2655 66.5552 89.1071 66.3968 89.1071 66.0799V52.4777C89.1071 52.1608 89.2655 52.0024 89.5824 52.0024H94.969C96.1459 52.0024 97.0663 52.3268 97.7302 52.9756C98.3941 53.6244 98.726 54.5372 98.726 55.7141V57.4795C98.726 59.1845 98.0546 60.3161 96.7117 60.8744V60.9649L99.1334 66.0121C99.2692 66.3742 99.1409 66.5552 98.7486 66.5552H96.9154C96.6438 66.5552 96.4476 66.5251 96.3269 66.4647C96.2062 66.4044 96.1082 66.2761 96.0327 66.0799L93.7694 61.1913H92.253C92.072 61.1913 91.9814 61.2743 91.9814 61.4402V66.0799C91.9814 66.3968 91.823 66.5552 91.5062 66.5552ZM92.2304 58.8827H94.4484C94.9312 58.8827 95.2858 58.7847 95.5122 58.5885C95.7385 58.3773 95.8516 58.0453 95.8516 57.5927V55.8273C95.8516 55.3596 95.7385 55.0201 95.5122 54.8088C95.2858 54.5976 94.9312 54.492 94.4484 54.492H92.2304C92.0644 54.492 91.9814 54.575 91.9814 54.7409V58.6338C91.9814 58.7997 92.0644 58.8827 92.2304 58.8827ZM103.838 66.5552H101.96C101.643 66.5552 101.484 66.3968 101.484 66.0799V52.4777C101.484 52.1608 101.643 52.0024 101.96 52.0024H103.657C103.974 52.0024 104.185 52.108 104.291 52.3192L108.863 60.897H108.953V52.4777C108.953 52.1608 109.112 52.0024 109.428 52.0024H111.307C111.624 52.0024 111.782 52.1608 111.782 52.4777V66.0799C111.782 66.3968 111.624 66.5552 111.307 66.5552H109.655C109.323 66.5552 109.081 66.4044 108.931 66.1026L104.404 57.6832H104.313V66.0799C104.313 66.3968 104.155 66.5552 103.838 66.5552Z" fill="black"/>
<path d="M49.442 64.043H50.3925C51.0262 64.043 51.3884 63.7412 51.4789 63.1377L49.0119 60.2407C48.6498 60.2558 48.3933 60.3765 48.2424 60.6028C48.1066 60.8291 48.0387 61.2139 48.0387 61.7571V62.7303C48.0387 63.198 48.1443 63.5375 48.3556 63.7488C48.5819 63.9449 48.944 64.043 49.442 64.043ZM50.3925 66.5552H49.0119C47.8199 66.5552 46.8995 66.2384 46.2507 65.6047C45.6019 64.9709 45.2775 64.0656 45.2775 62.8887V61.576C45.2775 60.8216 45.4737 60.1577 45.866 59.5843C46.2734 58.9959 46.8392 58.6564 47.5634 58.5659C46.975 57.7964 46.6808 56.9137 46.6808 55.9178V55.6689C46.6808 54.5071 47.0278 53.6093 47.7219 52.9756C48.431 52.3268 49.3891 52.0024 50.5962 52.0024H51.3431C52.5351 52.0024 53.4555 52.3192 54.1043 52.953C54.7531 53.5867 55.0775 54.492 55.0775 55.6689V56.4384C55.0775 56.7703 54.9191 56.9363 54.6022 56.9363H52.6784C52.3616 56.9363 52.2031 56.7703 52.2031 56.4384V55.7141C52.2031 55.2464 52.1126 54.9145 51.9316 54.7183C51.7505 54.5071 51.4638 54.4014 51.0715 54.4014H50.8904C50.4529 54.4014 50.136 54.5071 49.9399 54.7183C49.7437 54.9145 49.6456 55.2464 49.6456 55.7141V56.0084C49.6456 56.5968 49.9776 57.2683 50.6415 58.0227L51.7052 59.2449H56.7297C57.0466 59.2449 57.205 59.4108 57.205 59.7428V61.2818C57.205 61.5987 57.0466 61.7571 56.7297 61.7571H53.7874L57.4766 66.1478C57.552 66.2384 57.5747 66.3289 57.5445 66.4194C57.5143 66.51 57.4464 66.5552 57.3408 66.5552H54.9191C54.557 66.5552 54.2929 66.4496 54.1269 66.2384L53.1311 65.0615C52.9651 65.5896 52.6633 65.9743 52.2258 66.2157C51.8033 66.4421 51.1922 66.5552 50.3925 66.5552Z" fill="black"/>
<path d="M47.1558 44.5714H45.2321C44.9152 44.5714 44.7568 44.413 44.7568 44.0962V30.4939C44.7568 30.177 44.9152 30.0186 45.2321 30.0186H50.6187C51.7956 30.0186 52.716 30.343 53.3799 30.9918C54.0437 31.6406 54.3757 32.5534 54.3757 33.7304V35.4957C54.3757 37.2007 53.7043 38.3323 52.3614 38.8906V38.9812L54.7831 44.0283C54.9189 44.3904 54.7906 44.5714 54.3983 44.5714H52.5651C52.2935 44.5714 52.0973 44.5413 51.9766 44.4809C51.8559 44.4206 51.7578 44.2923 51.6824 44.0962L49.4191 39.2075H47.9027C47.7217 39.2075 47.6311 39.2905 47.6311 39.4564V44.0962C47.6311 44.413 47.4727 44.5714 47.1558 44.5714ZM47.8801 36.8989H50.0981C50.5809 36.8989 50.9355 36.8009 51.1618 36.6047C51.3882 36.3935 51.5013 36.0615 51.5013 35.6089V33.8435C51.5013 33.3758 51.3882 33.0363 51.1618 32.825C50.9355 32.6138 50.5809 32.5082 50.0981 32.5082H47.8801C47.7141 32.5082 47.6311 32.5912 47.6311 32.7571V36.65C47.6311 36.816 47.7141 36.8989 47.8801 36.8989ZM65.0103 44.5714H57.6093C57.2925 44.5714 57.1341 44.413 57.1341 44.0962V30.4939C57.1341 30.177 57.2925 30.0186 57.6093 30.0186H65.0103C65.312 30.0186 65.4629 30.177 65.4629 30.4939V32.0329C65.4629 32.3498 65.312 32.5082 65.0103 32.5082H60.28C60.099 32.5082 60.0084 32.5912 60.0084 32.7571V35.6994C60.0084 35.8654 60.099 35.9484 60.28 35.9484H64.1502C64.4671 35.9484 64.6255 36.1068 64.6255 36.4236V37.9627C64.6255 38.2795 64.4671 38.438 64.1502 38.438H60.28C60.099 38.438 60.0084 38.521 60.0084 38.6869V41.8329C60.0084 41.9989 60.099 42.0818 60.28 42.0818H65.0103C65.312 42.0818 65.4629 42.2403 65.4629 42.5571V44.0962C65.4629 44.413 65.312 44.5714 65.0103 44.5714ZM70.3633 44.5714H68.4395C68.1226 44.5714 67.9642 44.413 67.9642 44.0962V30.4939C67.9642 30.177 68.1226 30.0186 68.4395 30.0186H75.6593C75.9611 30.0186 76.112 30.177 76.112 30.4939V32.0329C76.112 32.3498 75.9611 32.5082 75.6593 32.5082H71.1101C70.9291 32.5082 70.8385 32.5912 70.8385 32.7571V36.2652C70.8385 36.4463 70.9291 36.5368 71.1101 36.5368H74.9803C75.2972 36.5368 75.4556 36.6952 75.4556 37.0121V38.5285C75.4556 38.8604 75.2972 39.0264 74.9803 39.0264H71.1101C70.9291 39.0264 70.8385 39.1094 70.8385 39.2754V44.0962C70.8385 44.413 70.6801 44.5714 70.3633 44.5714ZM86.0295 44.5714H78.6286C78.3118 44.5714 78.1533 44.413 78.1533 44.0962V30.4939C78.1533 30.177 78.3118 30.0186 78.6286 30.0186H86.0295C86.3313 30.0186 86.4822 30.177 86.4822 30.4939V32.0329C86.4822 32.3498 86.3313 32.5082 86.0295 32.5082H81.2993C81.1182 32.5082 81.0277 32.5912 81.0277 32.7571V35.6994C81.0277 35.8654 81.1182 35.9484 81.2993 35.9484H85.1695C85.4864 35.9484 85.6448 36.1068 85.6448 36.4236V37.9627C85.6448 38.2795 85.4864 38.438 85.1695 38.438H81.2993C81.1182 38.438 81.0277 38.521 81.0277 38.6869V41.8329C81.0277 41.9989 81.1182 42.0818 81.2993 42.0818H86.0295C86.3313 42.0818 86.4822 42.2403 86.4822 42.5571V44.0962C86.4822 44.413 86.3313 44.5714 86.0295 44.5714ZM91.3825 44.5714H89.4588C89.1419 44.5714 88.9835 44.413 88.9835 44.0962V30.4939C88.9835 30.177 89.1419 30.0186 89.4588 30.0186H94.8454C96.0223 30.0186 96.9427 30.343 97.6066 30.9918C98.2704 31.6406 98.6024 32.5534 98.6024 33.7304V35.4957C98.6024 37.2007 97.931 38.3323 96.5881 38.8906V38.9812L99.0098 44.0283C99.1456 44.3904 99.0173 44.5714 98.625 44.5714H96.7918C96.5202 44.5714 96.324 44.5413 96.2033 44.4809C96.0826 44.4206 95.9845 44.2923 95.9091 44.0962L93.6458 39.2075H92.1294C91.9484 39.2075 91.8578 39.2905 91.8578 39.4564V44.0962C91.8578 44.413 91.6994 44.5714 91.3825 44.5714ZM92.1068 36.8989H94.3248C94.8076 36.8989 95.1622 36.8009 95.3885 36.6047C95.6149 36.3935 95.728 36.0615 95.728 35.6089V33.8435C95.728 33.3758 95.6149 33.0363 95.3885 32.825C95.1622 32.6138 94.8076 32.5082 94.3248 32.5082H92.1068C91.9408 32.5082 91.8578 32.5912 91.8578 32.7571V36.65C91.8578 36.816 91.9408 36.8989 92.1068 36.8989Z" fill="white"/>
<path d="M73.5548 64.5995H66.1539C65.8371 64.5995 65.6786 64.4411 65.6786 64.1243V50.522C65.6786 50.2051 65.8371 50.0467 66.1539 50.0467H73.5548C73.8566 50.0467 74.0075 50.2051 74.0075 50.522V52.061C74.0075 52.3779 73.8566 52.5363 73.5548 52.5363H68.8246C68.6435 52.5363 68.553 52.6193 68.553 52.7852V55.7275C68.553 55.8935 68.6435 55.9765 68.8246 55.9765H72.6948C73.0117 55.9765 73.1701 56.1349 73.1701 56.4518V57.9908C73.1701 58.3076 73.0117 58.4661 72.6948 58.4661H68.8246C68.6435 58.4661 68.553 58.5491 68.553 58.715V61.861C68.553 62.027 68.6435 62.1099 68.8246 62.1099H73.5548C73.8566 62.1099 74.0075 62.2684 74.0075 62.5852V64.1243C74.0075 64.4411 73.8566 64.5995 73.5548 64.5995ZM78.0252 64.5995H75.8524C75.5808 64.5995 75.4903 64.4411 75.5808 64.1243L79.1568 50.522C79.2624 50.2051 79.4888 50.0467 79.8358 50.0467H82.8459C83.2232 50.0467 83.4495 50.2051 83.5249 50.522L87.1009 64.1243C87.1914 64.4411 87.1009 64.5995 86.8293 64.5995H84.6566C84.4906 64.5995 84.3774 64.5694 84.3171 64.509C84.2567 64.4336 84.2115 64.3053 84.1813 64.1243L83.5476 61.6347H79.1342L78.5005 64.1243C78.4703 64.3053 78.4175 64.4336 78.342 64.509C78.2817 64.5694 78.1761 64.5995 78.0252 64.5995ZM81.3069 52.7852L79.6774 59.3261H83.027L81.3975 52.7852H81.3069ZM91.5062 64.5995H89.5824C89.2655 64.5995 89.1071 64.4411 89.1071 64.1243V50.522C89.1071 50.2051 89.2655 50.0467 89.5824 50.0467H94.969C96.1459 50.0467 97.0663 50.3711 97.7302 51.0199C98.3941 51.6687 98.726 52.5816 98.726 53.7585V55.5238C98.726 57.2288 98.0546 58.3605 96.7117 58.9187V59.0093L99.1334 64.0564C99.2692 64.4185 99.1409 64.5995 98.7486 64.5995H96.9154C96.6438 64.5995 96.4476 64.5694 96.3269 64.509C96.2062 64.4487 96.1082 64.3204 96.0327 64.1243L93.7694 59.2356H92.253C92.072 59.2356 91.9814 59.3186 91.9814 59.4845V64.1243C91.9814 64.4411 91.823 64.5995 91.5062 64.5995ZM92.2304 56.927H94.4484C94.9312 56.927 95.2858 56.829 95.5122 56.6328C95.7385 56.4216 95.8516 56.0896 95.8516 55.637V53.8716C95.8516 53.4039 95.7385 53.0644 95.5122 52.8531C95.2858 52.6419 94.9312 52.5363 94.4484 52.5363H92.2304C92.0644 52.5363 91.9814 52.6193 91.9814 52.7852V56.6781C91.9814 56.8441 92.0644 56.927 92.2304 56.927ZM103.838 64.5995H101.96C101.643 64.5995 101.484 64.4411 101.484 64.1243V50.522C101.484 50.2051 101.643 50.0467 101.96 50.0467H103.657C103.974 50.0467 104.185 50.1523 104.291 50.3635L108.863 58.9414H108.953V50.522C108.953 50.2051 109.112 50.0467 109.428 50.0467H111.307C111.624 50.0467 111.782 50.2051 111.782 50.522V64.1243C111.782 64.4411 111.624 64.5995 111.307 64.5995H109.655C109.323 64.5995 109.081 64.4487 108.931 64.1469L104.404 55.7275H104.313V64.1243C104.313 64.4411 104.155 64.5995 103.838 64.5995Z" fill="white"/>
<path d="M49.442 62.0873H50.3925C51.0262 62.0873 51.3884 61.7855 51.4789 61.182L49.0119 58.285C48.6498 58.3001 48.3933 58.4208 48.2424 58.6471C48.1066 58.8735 48.0387 59.2582 48.0387 59.8014V60.7746C48.0387 61.2424 48.1443 61.5818 48.3556 61.7931C48.5819 61.9892 48.944 62.0873 49.442 62.0873ZM50.3925 64.5995H49.0119C47.8199 64.5995 46.8995 64.2827 46.2507 63.649C45.6019 63.0153 45.2775 62.1099 45.2775 60.933V59.6203C45.2775 58.8659 45.4737 58.202 45.866 57.6287C46.2734 57.0402 46.8392 56.7007 47.5634 56.6102C46.975 55.8407 46.6808 54.958 46.6808 53.9622V53.7132C46.6808 52.5514 47.0278 51.6536 47.7219 51.0199C48.431 50.3711 49.3891 50.0467 50.5962 50.0467H51.3431C52.5351 50.0467 53.4555 50.3635 54.1043 50.9973C54.7531 51.631 55.0775 52.5363 55.0775 53.7132V54.4827C55.0775 54.8147 54.9191 54.9806 54.6022 54.9806H52.6784C52.3616 54.9806 52.2031 54.8147 52.2031 54.4827V53.7585C52.2031 53.2907 52.1126 52.9588 51.9316 52.7626C51.7505 52.5514 51.4638 52.4458 51.0715 52.4458H50.8904C50.4529 52.4458 50.136 52.5514 49.9399 52.7626C49.7437 52.9588 49.6456 53.2907 49.6456 53.7585V54.0527C49.6456 54.6411 49.9776 55.3126 50.6415 56.067L51.7052 57.2892H56.7297C57.0466 57.2892 57.205 57.4551 57.205 57.7871V59.3261C57.205 59.643 57.0466 59.8014 56.7297 59.8014H53.7874L57.4766 64.1922C57.552 64.2827 57.5747 64.3732 57.5445 64.4638C57.5143 64.5543 57.4464 64.5995 57.3408 64.5995H54.9191C54.557 64.5995 54.2929 64.4939 54.1269 64.2827L53.1311 63.1058C52.9651 63.6339 52.6633 64.0186 52.2258 64.2601C51.8033 64.4864 51.1922 64.5995 50.3925 64.5995Z" fill="#62E3C4"/>
<path d="M121.977 0.322077C120.918 3.27858 119.138 6.17752 114.313 8.13241C113.852 8.31891 113.918 9.16626 114.397 9.2929C118.716 10.4442 120.583 13.3984 122.054 16.995C122.207 17.368 122.736 17.3864 122.919 17.0249C124.687 13.5112 127.186 10.6929 130.941 9.35967C131.382 9.2031 131.407 8.47548 130.976 8.30049C126.666 6.53902 124.236 3.61245 122.946 0.31517C122.782 -0.106201 122.132 -0.106201 121.979 0.322077H121.977Z" fill="white"/>
<path d="M8.35092 30.0329C7.77345 31.6455 6.80271 33.2267 4.17049 34.293C3.91909 34.3948 3.95518 34.857 4.21654 34.926C6.57246 35.554 7.5905 37.1654 8.39324 39.1272C8.47662 39.3306 8.76536 39.3407 8.86492 39.1435C9.82945 37.2269 11.1922 35.6896 13.2407 34.9625C13.4809 34.877 13.4946 34.4802 13.2594 34.3847C10.9085 33.4239 9.58303 31.8276 8.87986 30.0291C8.79025 29.7993 8.43555 29.7992 8.35217 30.0329H8.35092Z" fill="white"/>
<path d="M137.351 17.1757C136.773 18.7883 135.803 20.3696 133.17 21.4359C132.919 21.5376 132.955 21.9998 133.217 22.0689C135.572 22.6968 136.591 24.3082 137.393 26.27C137.477 26.4735 137.765 26.4835 137.865 26.2863C138.829 24.3698 140.192 22.8325 142.241 22.1053C142.481 22.0199 142.495 21.623 142.259 21.5275C139.908 20.5667 138.583 18.9704 137.88 17.1719C137.79 16.9421 137.436 16.9421 137.352 17.1757H137.351Z" fill="white"/>
<path d="M75 93L68.9378 83.25L81.0622 83.25L75 93Z" fill="#01656B"/>
</g>
<defs>
<filter id="filter0_d_1487_2445" x="0" y="0" width="146" height="101" filterUnits="userSpaceOnUse" color-interpolation-filters="sRGB">
<feFlood flood-opacity="0" result="BackgroundImageFix"/>
<feColorMatrix in="SourceAlpha" type="matrix" values="0 0 0 0 0 0 0 0 0 0 0 0 0 0 0 0 0 0 127 0" result="hardAlpha"/>
<feOffset dy="4"/>
<feGaussianBlur stdDeviation="2"/>
<feComposite in2="hardAlpha" operator="out"/>
<feColorMatrix type="matrix" values="0 0 0 0 0 0 0 0 0 0 0 0 0 0 0 0 0 0 0.25 0"/>
<feBlend mode="normal" in2="BackgroundImageFix" result="effect1_dropShadow_1487_2445"/>
<feBlend mode="normal" in="SourceGraphic" in2="effect1_dropShadow_1487_2445" result="shape"/>
</filter>
<clipPath id="clip0_1487_2445">
<rect width="138" height="93" fill="white" transform="translate(4)"/>
</clipPath>
</defs>
</svg>
