<svg width="16" height="16" viewBox="0 0 16 16" fill="none" xmlns="http://www.w3.org/2000/svg">
<path d="M6.35076 0.582703C5.20343 0.758991 4.1128 1.19966 3.16504 1.86988C2.21729 2.54011 1.43836 3.42155 0.889799 4.44455C0.34124 5.46755 0.0380747 6.6041 0.00425447 7.76441C-0.0295658 8.92471 0.206885 10.077 0.694928 11.1302C0.861262 11.504 0.879138 11.9271 0.744928 12.3135L0.0449277 14.3969C-0.00557318 14.5444 -0.013682 14.7031 0.0215227 14.855C0.0567275 15.0069 0.133834 15.1458 0.244078 15.2561C0.354322 15.3663 0.493282 15.4434 0.645164 15.4786C0.797046 15.5138 0.955758 15.5057 1.10326 15.4552L3.18659 14.7552C3.57308 14.621 3.99615 14.6389 4.36993 14.8052C5.35029 15.2617 6.4185 15.4986 7.49993 15.4994C7.91246 15.4997 8.32435 15.4669 8.7316 15.401C8.76611 15.3943 8.79882 15.3804 8.82759 15.3602C8.85635 15.34 8.88053 15.3139 8.89854 15.2837C8.91655 15.2535 8.92798 15.2198 8.9321 15.1849C8.93622 15.15 8.93292 15.1146 8.92243 15.081C8.77819 14.5767 8.72182 14.0512 8.75576 13.5277C8.84079 12.4244 9.31762 11.3879 10.1001 10.6054C10.8826 9.8229 11.9191 9.34607 13.0224 9.26104C13.5459 9.22709 14.0714 9.28347 14.5758 9.4277C14.6093 9.4382 14.6447 9.44149 14.6796 9.43738C14.7146 9.43326 14.7482 9.42182 14.7784 9.40381C14.8086 9.38581 14.8347 9.36163 14.8549 9.33286C14.8751 9.30409 14.889 9.27139 14.8958 9.23687C14.9638 8.82786 14.9987 8.41401 14.9999 7.99937C15.0007 6.91685 14.7671 5.84699 14.3152 4.86329C13.8633 3.8796 13.2038 3.00539 12.382 2.30072C11.5603 1.59606 10.5957 1.07763 9.55459 0.78107C8.51348 0.484508 7.4205 0.416836 6.35076 0.582703ZM8.33326 10.291H4.16659C4.00083 10.291 3.84186 10.2252 3.72465 10.108C3.60744 9.99077 3.54159 9.8318 3.54159 9.66604C3.54159 9.50028 3.60744 9.34131 3.72465 9.2241C3.84186 9.10689 4.00083 9.04104 4.16659 9.04104H8.33326C8.49902 9.04104 8.65799 9.10689 8.7752 9.2241C8.89241 9.34131 8.95826 9.50028 8.95826 9.66604C8.95826 9.8318 8.89241 9.99077 8.7752 10.108C8.65799 10.2252 8.49902 10.291 8.33326 10.291ZM10.8333 6.9577H4.16659C4.00083 6.9577 3.84186 6.89186 3.72465 6.77465C3.60744 6.65744 3.54159 6.49846 3.54159 6.3327C3.54159 6.16694 3.60744 6.00797 3.72465 5.89076C3.84186 5.77355 4.00083 5.7077 4.16659 5.7077H10.8333C10.999 5.7077 11.158 5.77355 11.2752 5.89076C11.3924 6.00797 11.4583 6.16694 11.4583 6.3327C11.4583 6.49846 11.3924 6.65744 11.2752 6.77465C11.158 6.89186 10.999 6.9577 10.8333 6.9577ZM14.9999 13.6244H10.8333C10.6675 13.6244 10.5085 13.5585 10.3913 13.4413C10.2741 13.3241 10.2083 13.1651 10.2083 12.9994C10.2083 12.8336 10.2741 12.6746 10.3913 12.5574C10.5085 12.4402 10.6675 12.3744 10.8333 12.3744H14.9999C15.1657 12.3744 15.3247 12.4402 15.4419 12.5574C15.5591 12.6746 15.6249 12.8336 15.6249 12.9994C15.6249 13.1651 15.5591 13.3241 15.4419 13.4413C15.3247 13.5585 15.1657 13.6244 14.9999 13.6244Z" fill="white"/>
</svg>
