<svg width="16" height="18" viewBox="0 0 16 18" fill="none" xmlns="http://www.w3.org/2000/svg">
<path fill-rule="evenodd" clip-rule="evenodd" d="M12.8 12.553C14.273 11.2361 15.2 9.32229 15.2 7.1922C15.2 3.22006 11.9764 0 7.99999 0C4.02354 0 0.799988 3.22006 0.799988 7.1922C0.799988 9.32229 1.72699 11.2361 3.19999 12.553V16.7972C3.19999 17.7826 4.32187 18.348 5.11389 17.7618L7.99999 15.6257L10.8861 17.7618C11.6781 18.348 12.8 17.7826 12.8 16.7972V12.553Z" fill="#CEC5FF"/>
<path d="M7.99998 11.9873C10.6509 11.9873 12.8 9.8406 12.8 7.1925C12.8 4.54441 10.6509 2.39771 7.99998 2.39771C5.34901 2.39771 3.19998 4.54441 3.19998 7.1925C3.19998 9.8406 5.34901 11.9873 7.99998 11.9873Z" fill="#8975EE"/>
<path d="M7.99998 11.9873C10.6509 11.9873 12.8 9.8406 12.8 7.1925C12.8 4.54441 10.6509 2.39771 7.99998 2.39771C5.34901 2.39771 3.19998 4.54441 3.19998 7.1925C3.19998 9.8406 5.34901 11.9873 7.99998 11.9873Z" fill="#8975EE"/>
</svg>
