<svg width="14" height="15" viewBox="0 0 14 15" fill="none" xmlns="http://www.w3.org/2000/svg">
<path d="M12.4547 2.38388C11.5609 2.28872 10.6812 2.08983 9.83333 1.79122C9.05533 1.51627 8.30906 1.15867 7.60733 0.724551C7.42424 0.613441 7.21417 0.554688 7 0.554688C6.78583 0.554688 6.57576 0.613441 6.39267 0.724551L6.392 0.725218C5.69041 1.15898 4.94438 1.51636 4.16667 1.79122C3.31927 2.08971 2.44003 2.2886 1.54667 2.38388C1.25969 2.41311 0.993775 2.54779 0.800412 2.76185C0.60705 2.9759 0.500002 3.25409 0.5 3.54255V7.00588C0.500486 8.28389 0.84252 9.53854 1.4907 10.64C2.13888 11.7414 3.06965 12.6496 4.18667 13.2706L6.43333 14.5192C6.60635 14.6165 6.8015 14.6676 7 14.6676C7.1985 14.6676 7.39365 14.6165 7.56667 14.5192L9.81333 13.2706C10.9304 12.6496 11.8611 11.7414 12.5093 10.64C13.1575 9.53854 13.4995 8.28389 13.5 7.00588V3.54322C13.5004 3.25474 13.3936 2.97639 13.2005 2.76208C13.0074 2.54778 12.7416 2.41344 12.4547 2.38388ZM9.65267 6.38522L7.15267 9.05188C7.0339 9.17857 6.87035 9.25387 6.69687 9.26171C6.5234 9.26956 6.35372 9.20934 6.224 9.09388L4.724 7.76055C4.65525 7.7034 4.5987 7.633 4.55771 7.55354C4.51672 7.47409 4.49213 7.3872 4.4854 7.29805C4.47868 7.2089 4.48995 7.11931 4.51855 7.0346C4.54716 6.94989 4.59251 6.87181 4.65191 6.80499C4.7113 6.73816 4.78353 6.68397 4.8643 6.64563C4.94507 6.6073 5.03272 6.58559 5.12205 6.58182C5.21137 6.57805 5.30055 6.59228 5.38426 6.62367C5.46797 6.65507 5.54451 6.70298 5.60933 6.76455L6.62467 7.66655L8.68067 5.47322C8.74306 5.40685 8.81835 5.35393 8.90192 5.31771C8.98549 5.28148 9.07558 5.26271 9.16667 5.26255C9.29672 5.26248 9.42396 5.30046 9.53271 5.3718C9.64145 5.44314 9.72695 5.54474 9.77868 5.66406C9.83041 5.78339 9.8461 5.91525 9.82383 6.04338C9.80156 6.17152 9.74163 6.29034 9.65267 6.38522Z" fill="#62E3C4"/>
</svg>
