<svg width="112" height="107" viewBox="0 0 112 107" fill="none" xmlns="http://www.w3.org/2000/svg">
<ellipse cx="66.3128" cy="88.2394" rx="45.6868" ry="18.7606" fill="#EFAF4E"/>
<ellipse cx="54.0514" cy="87.7818" rx="30.3561" ry="11.1426" fill="#232326"/>
<path d="M10.3138 42.7401L4.09179 28.5714C-0.248139 19.1998 44.2592 -0.882873 48.9384 8.01409L55.1604 22.1828C55.9509 23.9843 55.7642 26.145 54.6412 28.1896L45.265 45.2672C44.6592 46.3706 45.2686 47.7584 46.4781 48.0297L65.1946 52.2277C67.436 52.7301 69.1399 54.0241 69.9314 55.8252L75.1443 67.6958C75.2261 67.8821 75.3399 68.0513 75.4645 68.2109C75.644 68.4408 75.7969 68.687 75.922 68.9495C77.0749 71.3706 75.6481 74.7589 72.3538 78.2956C69.0595 81.8322 63.9139 85.4976 57.7017 88.4463C51.4895 91.395 45.4009 93.0621 40.5686 93.3809C35.7364 93.6996 32.2066 92.666 31.0537 90.2449C30.934 89.9934 30.842 89.7314 30.7772 89.4599C30.7426 89.3147 30.7007 89.1711 30.6409 89.0348L25.0848 76.3825C24.2943 74.581 24.481 72.4203 25.604 70.3757L34.9802 53.2982C35.586 52.1948 34.9766 50.807 33.7671 50.5357L15.0506 46.3376C12.8092 45.8352 11.1053 44.5412 10.3138 42.7401Z" fill="#CEF8F5"/>
<path fill-rule="evenodd" clip-rule="evenodd" d="M45.6006 5.26172C47.3523 5.56209 48.8129 6.2897 49.5439 7.6796C49.5517 7.6944 49.5589 7.70949 49.5657 7.72482L55.7877 21.8935C56.6853 23.939 56.448 26.337 55.2406 28.5354L45.8645 45.6129C45.4858 46.3025 45.8667 47.1699 46.6227 47.3394L65.339 51.5375C65.3391 51.5375 65.339 51.5375 65.339 51.5375C67.749 52.0777 69.6599 53.4908 70.5586 55.5357L75.7715 67.4065C75.8203 67.5175 75.8954 67.6344 76.0014 67.7702C76.2118 68.0397 76.3923 68.3299 76.5401 68.6404C77.2299 70.089 77.1129 71.7613 76.4438 73.4671C75.7755 75.1708 74.5335 76.9765 72.851 78.7827C69.4828 82.3987 64.2592 86.111 57.9894 89.0871C51.719 92.0634 45.5463 93.7604 40.6094 94.086C38.1432 94.2487 35.9605 94.0707 34.2211 93.5147C32.482 92.9588 31.1163 91.9994 30.428 90.554C30.2863 90.2565 30.1778 89.9469 30.1015 89.6274C30.0717 89.5027 30.0417 89.4052 30.006 89.324L24.4499 76.6718C23.5524 74.6264 23.7896 72.2284 24.997 70.03C24.997 70.03 24.997 70.03 24.997 70.03L34.3732 52.9524C34.7518 52.2628 34.3709 51.3954 33.615 51.2259L14.8986 47.0279C12.4886 46.4877 10.5778 45.0745 9.67906 43.0296L3.45967 28.8669C2.78565 27.4044 3.10906 25.8104 3.9787 24.278C4.8486 22.7452 6.32016 21.1641 8.16643 19.6093C11.8667 16.4929 17.2301 13.3515 22.8478 10.7964C28.4666 8.24092 34.3928 6.24791 39.2338 5.45708C41.6502 5.06234 43.8394 4.95969 45.6006 5.26172ZM5.1754 24.987C4.4248 26.3096 4.30637 27.3907 4.71321 28.2692L4.71906 28.2822L10.941 42.4507C10.941 42.4508 10.941 42.4506 10.941 42.4507C11.6254 44.0078 13.1223 45.1828 15.1951 45.6474L33.9116 49.8455C35.5747 50.2185 36.4126 52.1267 35.5796 53.6439L26.2034 70.7214C25.165 72.6122 25.0287 74.5357 25.712 76.0933C25.7121 76.0933 25.712 76.0932 25.712 76.0933L31.2681 88.7455C31.3522 88.9369 31.4058 89.1267 31.4454 89.2924C31.4987 89.5158 31.574 89.7302 31.6719 89.9357C32.1365 90.9114 33.1121 91.6794 34.6341 92.1659C36.1559 92.6523 38.1542 92.8317 40.5203 92.6757C45.2479 92.3638 51.2525 90.7265 57.4065 87.8054C63.5611 84.884 68.6286 81.2656 71.849 77.8084C73.4608 76.078 74.5793 74.4212 75.1598 72.9413C75.7394 71.4636 75.7593 70.2311 75.2962 69.2587C75.1941 69.0442 75.0686 68.8419 74.92 68.6516C74.7768 68.4681 74.6243 68.2467 74.5094 67.985L69.2967 56.1146C69.2966 56.1146 69.2967 56.1147 69.2967 56.1146C68.6123 54.5576 67.1153 53.3825 65.0426 52.9179L46.326 48.7199C44.663 48.3468 43.825 46.4386 44.658 44.9214L54.0342 27.8439C55.0727 25.9531 55.209 24.0296 54.5256 22.4721C54.5256 22.472 54.5256 22.4721 54.5256 22.4721L48.3143 8.32784C47.8707 7.50444 46.9197 6.92099 45.3717 6.65553C43.8203 6.3895 41.7985 6.46937 39.4522 6.85267C34.7677 7.61793 28.9609 9.56312 23.4104 12.0876C17.8589 14.6125 12.6167 17.6929 9.0463 20.6998C7.25719 22.2066 5.92708 23.6625 5.1754 24.987Z" fill="#1A1A1A"/>
<path d="M33.2076 88.3481L28.7037 77.574C27.5027 74.701 29.4524 71.4801 32.5047 71.2945L68.4173 69.1118C71.0215 68.9535 72.5137 72.0694 70.7044 73.9897C62.382 82.8229 54.4428 87.6157 36.2692 90.1376C34.9715 90.3177 33.7219 89.5787 33.2076 88.3481Z" fill="#01656B"/>
<path d="M44.2981 69.9921C44.2981 72.1583 42.5793 73.9144 40.4591 73.9144C38.3389 73.9144 36.6201 72.1583 36.6201 69.9921C36.6201 67.8259 38.3389 66.0698 40.4591 66.0698C42.5793 66.0698 44.2981 67.8259 44.2981 69.9921Z" fill="#01656B"/>
<path d="M48.9562 60.8455C48.9562 62.2876 47.812 63.4567 46.4005 63.4567C44.989 63.4567 43.8447 62.2876 43.8447 60.8455C43.8447 59.4034 44.989 58.2344 46.4005 58.2344C47.812 58.2344 48.9562 59.4034 48.9562 60.8455Z" fill="#01656B"/>
<path d="M55.2531 71.3101C55.2531 72.7522 54.1088 73.9213 52.6973 73.9213C51.2858 73.9213 50.1416 72.7522 50.1416 71.3101C50.1416 69.868 51.2858 68.699 52.6973 68.699C54.1088 68.699 55.2531 69.868 55.2531 71.3101Z" fill="#01656B"/>
<path fill-rule="evenodd" clip-rule="evenodd" d="M46.4247 9.87249C46.651 10.0821 46.6682 10.4394 46.463 10.6706C39.5085 18.5085 30.7153 23.1877 23.029 25.7784C19.1842 27.0743 15.608 27.8506 12.6643 28.2378C9.73581 28.623 7.3897 28.629 6.02228 28.3533C5.72261 28.2929 5.52761 27.9957 5.58674 27.6896C5.64586 27.3834 5.93673 27.1842 6.23639 27.2446C7.4282 27.4848 9.63385 27.4969 12.523 27.1169C15.397 26.7389 18.9044 25.9786 22.6824 24.7052C30.2418 22.1573 38.8513 17.5666 45.6435 9.91162C45.8487 9.68041 46.1984 9.6629 46.4247 9.87249Z" fill="black"/>
<path d="M43.0357 31.8408L20.7653 39.2338C18.5576 39.9666 18.8041 43.2357 21.0955 43.6145L38.954 46.5672C39.9516 46.7322 40.9318 46.1854 41.3355 45.2388L45.7474 34.8932C46.5091 33.1068 44.8495 31.2387 43.0357 31.8408Z" fill="#01656B"/>
<path d="M44.5647 52.9333C44.5647 54.1804 43.5752 55.1913 42.3546 55.1913C41.134 55.1913 40.1445 54.1804 40.1445 52.9333C40.1445 51.6862 41.134 50.6753 42.3546 50.6753C43.5752 50.6753 44.5647 51.6862 44.5647 52.9333Z" fill="#01656B"/>
</svg>
