<svg width="19" height="21" viewBox="0 0 19 21" fill="none" xmlns="http://www.w3.org/2000/svg">
<path d="M2.49875 20.7501C2.22857 20.7491 1.96206 20.6876 1.71875 20.5701C1.42051 20.43 1.16819 20.208 0.991157 19.9301C0.814126 19.6521 0.71966 19.3296 0.71875 19.0001V2.00011C0.720053 1.76814 0.767203 1.53871 0.857488 1.32502C0.947773 1.11133 1.07941 0.917596 1.24484 0.754961C1.41026 0.592326 1.6062 0.463999 1.82139 0.377358C2.03659 0.290718 2.26679 0.247474 2.49875 0.250114H16.4987C16.9621 0.252739 17.4057 0.437956 17.7333 0.765578C18.0609 1.0932 18.2461 1.5368 18.2488 2.00011V19.0001C18.2423 19.3168 18.1499 19.6258 17.9816 19.8941C17.8133 20.1624 17.5753 20.3801 17.2931 20.5238C17.0108 20.6675 16.6948 20.7319 16.3788 20.7101C16.0628 20.6883 15.7586 20.5812 15.4987 20.4001L9.69875 16.0501C9.65618 16.016 9.60328 15.9975 9.54875 15.9975C9.49422 15.9975 9.44132 16.016 9.39875 16.0501L3.54875 20.4001C3.24516 20.626 2.87717 20.7487 2.49875 20.7501ZM2.49875 1.75011C2.43245 1.75011 2.36886 1.77645 2.32197 1.82334C2.27509 1.87022 2.24875 1.93381 2.24875 2.00011V19.0001C2.2484 19.0464 2.26143 19.0918 2.28626 19.1308C2.3111 19.1698 2.34669 19.2008 2.38875 19.2201C2.42703 19.2463 2.47235 19.2604 2.51875 19.2604C2.56515 19.2604 2.61047 19.2463 2.64875 19.2201L8.49875 14.8501C8.80294 14.626 9.17089 14.505 9.54875 14.505C9.92661 14.505 10.2946 14.626 10.5988 14.8501L16.3987 19.2001C16.437 19.2263 16.4823 19.2404 16.5288 19.2404C16.5752 19.2404 16.6205 19.2263 16.6587 19.2001C16.7008 19.1808 16.7364 19.1498 16.7612 19.1108C16.7861 19.0718 16.7991 19.0264 16.7987 18.9801V2.00011C16.7995 1.96262 16.7918 1.92543 16.7763 1.89131C16.7607 1.85719 16.7377 1.82701 16.7088 1.803C16.68 1.77899 16.6462 1.76177 16.6098 1.75261C16.5735 1.74346 16.5355 1.74261 16.4987 1.75011H2.49875Z" fill="white"/>
</svg>
