<svg width="136" height="166" viewBox="0 0 136 166" fill="none" xmlns="http://www.w3.org/2000/svg">
<g clip-path="url(#clip0_2012_4858)">
<rect width="42.5664" height="93.1124" transform="matrix(0.866025 0.5 -2.20305e-08 1 45.4824 67.7129)" fill="#495DB2"/>
<rect width="42.7836" height="46.0295" transform="matrix(0.866025 0.5 -0.866025 0.5 85.3457 44.6992)" fill="#93B5FE"/>
<rect width="42.9987" height="54.5933" transform="matrix(0.866025 0.5 -2.20305e-08 1 7.23438 130.745)" fill="#495DB2"/>
<rect width="45.6067" height="55.3148" transform="matrix(-0.866025 0.5 2.20305e-08 1 83.8926 128.873)" fill="#495DB2"/>
<rect width="46.0296" height="108.911" transform="matrix(-0.866025 0.5 2.20305e-08 1 122.209 66.1963)" fill="#1F2C65"/>
<rect width="42.7899" height="44.5965" transform="matrix(0.866025 0.5 -0.866025 0.5 45.4805 108.229)" fill="#93B5FE"/>
<ellipse rx="19.3349" ry="8.40647" transform="matrix(-1 0 0 1 83.9425 66.0139)" fill="#21333F"/>
<circle r="22.3568" transform="matrix(-1 0 0 1 76.8375 48.0892)" fill="white" stroke="black"/>
<g style="mix-blend-mode:darken">
<path d="M54.75 50.7206C58.3642 53.6381 62.9626 55.3849 67.9691 55.3849C79.6008 55.3849 89.0302 45.9555 89.0302 34.3238C89.0302 32.9964 88.9074 31.6977 88.6726 30.4385C93.5738 34.3108 96.7192 40.3075 96.7192 47.0388C96.7192 58.7165 87.2526 68.1831 75.5749 68.1831C65.1531 68.1831 56.4923 60.6432 54.75 50.7206Z" fill="#F79780"/>
</g>
</g>
<defs>
<clipPath id="clip0_2012_4858">
<rect width="135" height="165" fill="white" transform="translate(0.616211 0.410156)"/>
</clipPath>
</defs>
</svg>
