<svg width="137" height="145" viewBox="0 0 137 145" fill="none" xmlns="http://www.w3.org/2000/svg">
<path d="M28.3556 49.4468L78.7417 78.0423L96.6103 72.8622L94.4374 68.2716C94.2573 67.8911 93.96 67.5797 93.5899 67.3841L43.6039 40.9602C42.9961 40.6389 42.2654 40.667 41.6841 41.0339L28.3556 49.4468Z" fill="#FFD979"/>
<mask id="mask0_952_1651" style="mask-type:alpha" maskUnits="userSpaceOnUse" x="29" y="41" width="70" height="37">
<path d="M29.5206 50.2746L80.5837 77.9732L98.4522 72.793L95.8879 68.3467C95.6986 68.0185 95.4186 67.7532 95.0821 67.5833L44.8292 42.2035C44.2433 41.9076 43.549 41.9315 42.9848 42.267L29.5206 50.2746Z" fill="#FFD979"/>
</mask>
<g mask="url(#mask0_952_1651)">
<rect opacity="0.9" width="53.6313" height="7.96891" transform="matrix(-0.994441 0.0369989 0.0373507 1.0039 99.7109 57.0093)" fill="white"/>
<rect opacity="0.9" width="53.6313" height="2.6563" transform="matrix(-0.994441 0.0369989 0.0373507 1.0039 86.1777 52.1719)" fill="white"/>
</g>
<path d="M94.6033 68.5829L100.403 80.304C100.909 81.3263 100.127 83.2835 98.9328 83.9839L77.5759 96.5119C75.2628 97.8688 73.6521 95.9863 74.4764 92.8892L78.4229 78.06C78.6648 77.1512 79.2723 76.2926 79.9511 75.9002L93.1118 68.2915C93.7507 67.9221 94.3327 68.0358 94.6033 68.5829Z" fill="#B17518"/>
<path d="M76.8191 95.5567L78.84 77.7678C78.9307 76.9692 78.5265 76.1959 77.8221 75.8204L28.2755 49.4109L23.3609 64.1996C22.6103 66.4581 23.5667 68.9365 25.6334 70.0889L73.9675 97.0397C75.1707 97.7106 76.6626 96.9347 76.8191 95.5567Z" fill="#EFAF4E"/>
<ellipse rx="12.4382" ry="3.62825" transform="matrix(-0.995729 2.14564e-10 -1.34876e-09 1.00398 68.1735 109.087)" fill="#1F1404"/>
</svg>
