<svg width="116" height="139" viewBox="0 0 116 139" fill="none" xmlns="http://www.w3.org/2000/svg">
<rect width="42.5664" height="93.1124" transform="matrix(0.866025 0.5 -2.20305e-08 1 38.9824 67.3765)" fill="#495DB2"/>
<rect width="42.7836" height="46.0295" transform="matrix(0.866025 0.5 -0.866025 0.5 78.8452 44.3628)" fill="#93B5FE"/>
<rect width="42.9987" height="54.5933" transform="matrix(0.866025 0.5 -2.20305e-08 1 0.734375 130.409)" fill="#495DB2"/>
<rect width="45.6067" height="55.3148" transform="matrix(-0.866025 0.5 2.20305e-08 1 77.3926 128.537)" fill="#495DB2"/>
<rect width="46.0296" height="108.911" transform="matrix(-0.866025 0.5 2.20305e-08 1 115.708 65.8599)" fill="#1F2C65"/>
<rect width="42.7899" height="44.5965" transform="matrix(0.866025 0.5 -0.866025 0.5 38.9795 107.893)" fill="#93B5FE"/>
<path d="M55.2887 66.9944L79.2656 52.8342L102.292 65.9421L73.8749 77.5212L55.2887 66.9944Z" fill="#32303A"/>
<path d="M74.2313 -6.50488L55.4707 67.2534L74.2313 76.8233L92.0538 67.2534L74.2313 -6.50488Z" fill="#FFD979"/>
<path d="M73.6677 77.5864L74.0616 -5.91504L55.3525 66.9518L73.6677 77.5864Z" fill="white"/>
</svg>
