<svg width="116" height="107" viewBox="0 0 116 107" fill="none" xmlns="http://www.w3.org/2000/svg">
<rect width="85.7087" height="47.0709" rx="2.94969" transform="matrix(0.866025 -0.5 0.866025 0.5 0.266602 82.9238)" fill="#232326"/>
<path d="M25.0762 41.9925L25.4222 90.8418C25.4282 91.6926 26.0404 92.7194 26.7736 93.1085L31.0791 95.3937C31.9493 95.8556 32.7743 95.9144 33.3899 95.5585L36.9009 93.5283C37.2271 93.3397 37.3916 92.9102 37.3502 92.3556L33.93 46.589C33.845 45.4525 32.947 44.1844 32.0261 43.9005L25.274 41.8189C25.1581 41.7832 25.0762 41.8551 25.0762 41.9925Z" fill="#E35833"/>
<path d="M32.1006 46.3402L88.5373 10.2412C88.807 10.0687 89.0758 9.978 89.3174 9.978L94.6148 9.978C95.26 9.978 95.6739 10.4932 95.69 11.3167L96.6279 59.0511L33.3996 95.556C32.6822 95.9702 32.1006 95.6344 32.1006 94.806L32.1006 46.3402Z" fill="#A5381B"/>
<path d="M31.9941 45.8871L88.6379 10.1745C88.8433 10.0451 89.0485 9.96274 89.2418 9.93236L94.8808 9.04567C95.5171 8.9456 95.9874 9.30419 96.1224 9.99246L104.901 54.744C105.365 57.1077 103.668 60.5685 101.344 61.9995L45.8705 96.1529C43.1803 97.8092 40.8312 96.9764 40.3502 94.196L31.9941 45.8871Z" fill="#F79780"/>
<rect width="74.014" height="8.59918" rx="0.492437" transform="matrix(0.866025 -0.5 0.866025 0.5 24.7969 41.877)" fill="#E35833"/>
<path opacity="0.5" d="M46.2851 52.5049C46.1611 51.8738 46.627 50.9478 47.248 50.5911L55.9114 45.6147C56.3764 45.3475 56.7766 45.4949 56.8694 45.9675L58.9659 56.6406C59.0898 57.2717 58.6239 58.1976 58.0029 58.5543L49.3396 63.5308C48.8746 63.7979 48.4744 63.6505 48.3816 63.178L46.2851 52.5049Z" fill="#A5381B"/>
<path opacity="0.8" d="M49.5927 70.8462C49.4687 70.2151 49.9347 69.2891 50.5557 68.9324L59.219 63.956C59.684 63.6889 60.0842 63.8362 60.177 64.3088L62.2735 74.9819C62.3975 75.613 61.9315 76.5389 61.3105 76.8956L52.6472 81.8721C52.1822 82.1392 51.782 81.9918 51.6892 81.5193L49.5927 70.8462Z" fill="#A5381B"/>
<path d="M62.9032 42.0664C62.7793 41.4353 63.2452 40.5094 63.8662 40.1526L72.5295 35.1762C72.9945 34.9091 73.3947 35.0564 73.4875 35.529L75.5841 46.2021C75.708 46.8332 75.2421 47.7591 74.6211 48.1158L65.9577 53.0923C65.4928 53.3594 65.0926 53.212 64.9998 52.7395L62.9032 42.0664Z" fill="#FFE9B1"/>
<path d="M49.7892 39.6083C49.5638 38.4609 50.411 36.7773 51.5401 36.1287C52.3856 35.643 53.1132 35.911 53.282 36.7702L53.4073 37.4081C53.6326 38.5555 52.7855 40.2391 51.6564 40.8877C50.8109 41.3733 50.0833 41.1054 49.9145 40.2462L49.7892 39.6083Z" fill="black"/>
<path d="M75.8527 24.5477C75.6273 23.4003 76.4745 21.7167 77.6036 21.0681C78.449 20.5825 79.1767 20.8504 79.3454 21.7096L79.4707 22.3475C79.6961 23.4949 78.849 25.1785 77.7199 25.8271C76.8744 26.3128 76.1468 26.0448 75.978 25.1856L75.8527 24.5477Z" fill="black"/>
<path opacity="0.5" d="M66.2109 60.4082C66.0869 59.7771 66.5528 58.8512 67.1738 58.4944L75.8372 53.518C76.3022 53.2509 76.7023 53.3982 76.7952 53.8708L78.8917 64.5439C79.0156 65.175 78.5497 66.1009 77.9287 66.4576L69.2654 71.4341C68.8004 71.7012 68.4002 71.5538 68.3074 71.0813L66.2109 60.4082Z" fill="#A5381B"/>
<path opacity="0.5" d="M77.7841 32.7041C77.6601 32.073 78.1261 31.1471 78.7471 30.7903L87.4104 25.8139C87.8754 25.5468 88.2756 25.6941 88.3684 26.1667L90.4649 36.8398C90.5889 37.4709 90.1229 38.3968 89.502 38.7535L80.8386 43.73C80.3736 43.9971 79.9734 43.8497 79.8806 43.3772L77.7841 32.7041Z" fill="#A5381B"/>
<path d="M81.0937 51.0454C80.9697 50.4143 81.4356 49.4884 82.0566 49.1317L90.72 44.1552C91.185 43.8881 91.5852 44.0355 91.678 44.508L93.7745 55.1811C93.8984 55.8122 93.4325 56.7381 92.8115 57.0948L84.1482 62.0713C83.6832 62.3384 83.283 62.1911 83.1902 61.7185L81.0937 51.0454Z" fill="#FFE9B1"/>
<path d="M66.7635 17.7007C66.2167 17.9628 65.5547 17.7334 65.3538 17.1612C64.8035 15.5936 64.649 13.908 64.9124 12.2561C65.2337 10.2413 66.1614 8.37234 67.5718 6.89818C68.9822 5.42403 70.8084 4.41471 72.8069 4.00473C74.8055 3.59476 76.8816 3.80359 78.7585 4.60341C80.6354 5.40323 82.2239 6.75605 83.3125 8.48158C84.401 10.2071 84.9378 12.2234 84.8514 14.2618C84.765 16.3001 84.0594 18.2638 82.8287 19.891C81.8196 21.2252 80.4968 22.2812 78.9849 22.97C78.4331 23.2214 77.8091 22.9028 77.6194 22.3269C77.4298 21.7509 77.7477 21.137 78.2915 20.8688C79.3823 20.3309 80.3377 19.5443 81.0773 18.5663C82.0387 17.2951 82.5899 15.7611 82.6574 14.1688C82.725 12.5764 82.3056 11.0012 81.4552 9.65323C80.6048 8.30523 79.3638 7.2484 77.8976 6.62358C76.4314 5.99875 74.8095 5.83561 73.2482 6.15589C71.6869 6.47616 70.2603 7.26465 69.1585 8.41627C68.0567 9.56789 67.332 11.0279 67.081 12.6019C66.8879 13.8127 66.9822 15.0467 67.3497 16.206C67.5329 16.784 67.3103 17.4385 66.7635 17.7007Z" fill="white"/>
<path d="M39.407 33.6387C38.7982 33.9306 38.0611 33.6752 37.8375 33.0381C37.2207 31.2814 37.0506 29.3917 37.3517 27.5412C37.7186 25.2871 38.7673 23.1995 40.3567 21.5595C41.9461 19.9195 43.9998 18.8058 46.2413 18.3684C48.4828 17.931 50.8045 18.1909 52.8939 19.1131C54.9832 20.0353 56.7398 21.5755 57.9272 23.5263C59.1146 25.4772 59.6758 27.745 59.5352 30.0245C59.3946 32.3039 58.559 34.4856 57.1408 36.2757C55.9766 37.7452 54.4658 38.893 52.7522 39.6212C52.1308 39.8852 51.4454 39.5128 51.2508 38.8663C51.0561 38.2198 51.4275 37.5455 52.0405 37.2626C53.2784 36.6911 54.3706 35.835 55.2243 34.7574C56.3322 33.359 56.985 31.6547 57.0948 29.8739C57.2047 28.0932 56.7663 26.3216 55.8387 24.7975C54.9111 23.2735 53.5388 22.0703 51.9066 21.3499C50.2744 20.6295 48.4606 20.4264 46.7096 20.7681C44.9585 21.1098 43.3541 21.9798 42.1125 23.261C40.8709 24.5422 40.0516 26.1731 39.765 27.934C39.5441 29.2909 39.6477 30.6748 40.0597 31.9745C40.2637 32.6181 40.0159 33.3469 39.407 33.6387Z" fill="white"/>
<g style="mix-blend-mode:multiply">
<path d="M32.3046 87.3631L31.9707 45.7124L37.1993 76.3471L32.3046 87.3631Z" fill="#A5381B"/>
</g>
</svg>
