<svg width="107" height="106" viewBox="0 0 107 106" fill="none" xmlns="http://www.w3.org/2000/svg">
<g clip-path="url(#clip0_952_1619)">
<path d="M46.9989 88.6346C48.0098 88.8076 49.0223 88.8437 50.0527 88.7403C60.8033 87.685 68.0461 71.7042 66.2217 53.058C64.3989 34.4015 54.2031 20.1236 43.4525 21.1789C42.4383 21.2798 41.4551 21.5124 40.5148 21.8683C31.4126 25.2658 25.6289 39.9582 27.2792 56.8552C28.9312 73.7419 37.4232 87.0299 47.0049 88.6303L46.9989 88.6346Z" fill="#A7A7A8" stroke="black" stroke-width="1.07417" stroke-miterlimit="10"/>
<path d="M44.0651 89.33L50.0566 88.7462C49.0262 88.8497 48.0094 88.8076 47.0028 88.6406C37.4271 87.0359 28.9291 73.7522 27.2771 56.8655C25.6329 39.9642 31.4122 25.2658 40.5187 21.8743C41.465 21.5141 42.4483 21.2815 43.4564 21.1849L37.4649 21.7686C26.7366 22.8171 19.5014 38.7199 21.2813 57.3165C21.289 57.3653 21.2882 57.4021 21.2959 57.4509C23.1229 76.1134 33.3145 90.3853 44.0694 89.336L44.0651 89.33Z" fill="white" stroke="black" stroke-width="1.07417" stroke-miterlimit="10"/>
<path d="M46.818 63.4272C47.0688 63.4741 47.3264 63.4799 47.5831 63.4592C50.2875 63.1902 52.1084 59.1809 51.6531 54.4826C51.2004 49.8005 48.6303 46.2077 45.9259 46.4767C45.6735 46.5034 45.4202 46.5669 45.184 46.6544C42.8952 47.5042 41.4378 51.1991 41.8516 55.4473C42.2715 59.6913 44.4041 63.0267 46.812 63.4315L46.818 63.4272Z" fill="#3D3D3D"/>
<path d="M46.818 63.4272C47.0688 63.4741 47.3264 63.4799 47.5831 63.4592C50.2875 63.1902 52.1084 59.1809 51.6531 54.4826C51.2004 49.8005 48.6303 46.2077 45.9259 46.4767C45.6735 46.5034 45.4202 46.5669 45.184 46.6544C42.8952 47.5042 41.4378 51.1991 41.8516 55.4473C42.2715 59.6913 44.4041 63.0267 46.812 63.4315L46.818 63.4272Z" fill="#3D3D3D"/>
<path d="M42.0686 55.4728C42.4884 59.7168 44.6211 63.0522 47.0289 63.457C47.2797 63.5039 47.5373 63.5097 47.7941 63.489C50.4984 63.22 52.3194 59.2107 51.8641 54.5124C51.4114 49.8303 48.8412 46.2375 46.1369 46.5065C45.8844 46.5332 45.6311 46.5967 45.395 46.6842C43.1062 47.534 41.6487 51.2289 42.0626 55.4771L42.0686 55.4728Z" fill="#FFFAEE"/>
<path d="M32.5746 56.3353C31.3787 44.0468 35.5861 33.3515 42.2078 30.8776C42.9 30.6178 43.6094 30.4452 44.3446 30.3719C52.1666 29.6012 59.5884 39.9886 60.9171 53.5761C62.2431 67.1475 56.9674 78.779 49.1514 79.5455C48.4017 79.6111 47.6613 79.5885 46.9321 79.4675C39.9654 78.2957 33.7808 68.6255 32.5789 56.3413L32.5746 56.3353ZM46.8708 71.5996C47.3681 71.6874 47.8671 71.7016 48.3823 71.6498C53.6934 71.1274 57.278 63.2312 56.3753 54.0099C55.4769 44.7946 50.4368 37.7365 45.1214 38.253C44.6164 38.3064 44.1338 38.4163 43.6701 38.6033C39.1694 40.284 36.3075 47.5455 37.124 55.887C37.9345 64.2328 42.1373 70.8036 46.8708 71.5996Z" fill="#FFFAEE"/>
<path d="M42.3924 89.0151C45.3203 88.9574 46.0981 88.754 46.0981 88.754C37.2583 86.9759 28.6115 73.7624 26.9638 56.8817L21.6569 57.2835C21.6646 57.3323 21.6847 57.9425 21.6942 57.981C23.5212 76.6435 33.8578 89.0555 42.3924 89.0151Z" fill="#C4C4C4"/>
<path d="M93.0987 54.1322L93.2579 54.127C93.8321 54.0692 94.2072 53.2396 94.1218 52.2597C94.0158 51.2764 93.4846 50.5339 92.9224 50.5831C92.8573 50.5934 92.8128 50.6071 92.7624 50.6251C92.2858 50.7941 91.9885 51.568 92.067 52.4623C92.1575 53.3481 92.5971 54.0384 93.103 54.1382L93.0987 54.1322Z" fill="white" stroke="black" stroke-width="0.537083" stroke-miterlimit="10"/>
<path d="M47.8475 57.7532C47.8475 57.7532 47.9048 57.7575 47.9314 57.7566L93.0413 54.1278C92.8427 54.116 92.2015 53.941 92.0627 52.4562C91.8979 50.6821 92.758 50.619 92.758 50.619L80.4788 51.6001L47.5856 54.211C47.5856 54.211 47.5368 54.2187 47.5086 54.2299C47.0406 54.4108 46.7407 55.1685 46.8132 56.0671C46.9037 56.9528 47.3579 57.6509 47.8509 57.7327L47.8475 57.7532Z" fill="#3D3D3D" stroke="black" stroke-width="1.07417" stroke-miterlimit="10"/>
<path d="M95.3124 46.193L92.9277 51.692L89.338 46.674L88.9432 47.5901L92.5286 52.602L90.1439 58.1009L90.7436 58.9393L93.1283 53.4403L96.1183 57.6199L96.513 56.7039L93.5231 52.5243L95.9078 47.0254L95.3124 46.193Z" fill="#F3F1EB" stroke="black" stroke-width="0.537083" stroke-miterlimit="10"/>
<path d="M91.9333 51.7703L79.9844 52.7323L81.9684 48.1537L88.9433 47.5907L91.9333 51.7703Z" fill="#BDBDBE" stroke="black" stroke-width="0.537083" stroke-miterlimit="10"/>
<path d="M90.1437 58.1017L83.1731 58.6707L80.1831 54.4911L92.1705 53.5196L90.1437 58.1017Z" fill="white" stroke="black" stroke-width="0.537083" stroke-miterlimit="10"/>
<path d="M95.3124 46.193L89.338 46.674L92.9277 51.692L95.3124 46.193Z" fill="white" stroke="black" stroke-width="0.537083" stroke-miterlimit="10"/>
<path d="M96.1189 57.62L91.156 57.9839L93.1289 53.4404L96.1189 57.62Z" fill="#BDBDBE" stroke="black" stroke-width="0.537083" stroke-miterlimit="10"/>
<path d="M89.3379 46.6742L82.369 47.233L81.9682 48.1533L88.9431 47.5903L89.3379 46.6742Z" fill="white" stroke="black" stroke-width="0.537083" stroke-miterlimit="10"/>
<path d="M90.7438 58.9396L83.7689 59.5027L83.1735 58.6703L90.1441 58.1013L90.7438 58.9396Z" fill="#C4C4C4" stroke="black" stroke-width="0.537083" stroke-miterlimit="10"/>
<path d="M93.2001 54.5026L93.3755 54.4947C94.0251 54.4284 94.4438 53.4952 94.348 52.3869C94.2316 51.2752 93.6319 50.4369 92.9943 50.4947C92.9233 50.5093 92.8745 50.5171 92.8121 50.5436C92.2688 50.7332 91.9399 51.6021 92.0305 52.6145C92.1287 53.6124 92.6223 54.3909 93.1958 54.4966L93.2001 54.5026Z" fill="#F3F1EB" stroke="black" stroke-width="0.537083" stroke-miterlimit="10"/>
<path d="M47.1548 55.5329L73.2796 53.7357C73.2796 53.7357 72.9425 52.6823 73.5944 52.3156C74.2979 52.274 47.6281 54.3344 47.6281 54.3344C47.6281 54.3344 47.2097 54.5341 47.1548 55.5329Z" fill="#DEFCEB"/>
</g>
<defs>
<clipPath id="clip0_952_1619">
<rect width="76.1417" height="74.6575" fill="white" transform="matrix(-0.813315 0.581823 0.581823 0.813315 62.6436 0.526855)"/>
</clipPath>
</defs>
</svg>
