<svg width="116" height="36" viewBox="0 0 116 36" fill="none" xmlns="http://www.w3.org/2000/svg">
<rect x="0.8125" y="0.542969" width="114.215" height="35" rx="17.5" fill="#37373A"/>
<path d="M19.6859 22.226C19.1339 22.226 18.6219 22.122 18.1499 21.914C17.6779 21.698 17.2699 21.414 16.9259 21.062L17.5259 20.366C17.8059 20.662 18.1339 20.902 18.5099 21.086C18.8939 21.262 19.2899 21.35 19.6979 21.35C20.2179 21.35 20.6219 21.234 20.9099 21.002C21.1979 20.762 21.3419 20.45 21.3419 20.066C21.3419 19.794 21.2819 19.578 21.1619 19.418C21.0499 19.258 20.8939 19.122 20.6939 19.01C20.5019 18.898 20.2819 18.786 20.0339 18.674L18.9059 18.182C18.6579 18.078 18.4099 17.942 18.1619 17.774C17.9219 17.606 17.7179 17.39 17.5499 17.126C17.3899 16.862 17.3099 16.538 17.3099 16.154C17.3099 15.754 17.4139 15.398 17.6219 15.086C17.8379 14.766 18.1339 14.518 18.5099 14.342C18.8859 14.158 19.3099 14.066 19.7819 14.066C20.2539 14.066 20.6899 14.158 21.0899 14.342C21.4899 14.518 21.8299 14.75 22.1099 15.038L21.5699 15.686C21.3299 15.454 21.0619 15.274 20.7659 15.146C20.4779 15.01 20.1499 14.942 19.7819 14.942C19.3419 14.942 18.9859 15.046 18.7139 15.254C18.4499 15.462 18.3179 15.742 18.3179 16.094C18.3179 16.342 18.3819 16.55 18.5099 16.718C18.6459 16.878 18.8139 17.01 19.0139 17.114C19.2139 17.218 19.4179 17.314 19.6259 17.402L20.7419 17.882C21.0459 18.01 21.3179 18.166 21.5579 18.35C21.8059 18.526 22.0019 18.746 22.1459 19.01C22.2899 19.266 22.3619 19.59 22.3619 19.982C22.3619 20.398 22.2539 20.778 22.0379 21.122C21.8219 21.458 21.5139 21.726 21.1139 21.926C20.7139 22.126 20.2379 22.226 19.6859 22.226ZM25.16 22.226C24.672 22.226 24.264 22.082 23.936 21.794C23.616 21.498 23.456 21.09 23.456 20.57C23.456 19.93 23.74 19.442 24.308 19.106C24.884 18.762 25.792 18.522 27.032 18.386C27.032 18.138 26.996 17.902 26.924 17.678C26.86 17.454 26.74 17.274 26.564 17.138C26.396 16.994 26.152 16.922 25.832 16.922C25.496 16.922 25.18 16.986 24.884 17.114C24.588 17.242 24.324 17.386 24.092 17.546L23.708 16.862C23.98 16.686 24.312 16.518 24.704 16.358C25.104 16.19 25.536 16.106 26 16.106C26.712 16.106 27.228 16.326 27.548 16.766C27.868 17.198 28.028 17.778 28.028 18.506V22.082H27.212L27.128 21.386H27.092C26.82 21.61 26.52 21.806 26.192 21.974C25.872 22.142 25.528 22.226 25.16 22.226ZM25.448 21.434C25.728 21.434 25.992 21.366 26.24 21.23C26.488 21.094 26.752 20.902 27.032 20.654V19.034C26.064 19.154 25.384 19.334 24.992 19.574C24.608 19.814 24.416 20.122 24.416 20.498C24.416 20.826 24.516 21.066 24.716 21.218C24.916 21.362 25.16 21.434 25.448 21.434ZM31.1229 22.082L29.0229 16.25H30.0429L31.1469 19.562C31.2349 19.85 31.3229 20.138 31.4109 20.426C31.5069 20.714 31.5989 20.998 31.6869 21.278H31.7349C31.8229 20.998 31.9109 20.714 31.9989 20.426C32.0949 20.138 32.1829 19.85 32.2629 19.562L33.3669 16.25H34.3389L32.2749 22.082H31.1229ZM37.7816 22.226C37.2616 22.226 36.7896 22.106 36.3656 21.866C35.9416 21.618 35.6056 21.266 35.3576 20.81C35.1096 20.354 34.9856 19.81 34.9856 19.178C34.9856 18.538 35.1096 17.99 35.3576 17.534C35.6136 17.078 35.9416 16.726 36.3416 16.478C36.7416 16.23 37.1616 16.106 37.6016 16.106C38.3456 16.106 38.9176 16.354 39.3176 16.85C39.7256 17.346 39.9296 18.01 39.9296 18.842C39.9296 18.946 39.9256 19.05 39.9176 19.154C39.9176 19.25 39.9096 19.334 39.8936 19.406H35.9576C35.9976 20.022 36.1896 20.514 36.5336 20.882C36.8856 21.25 37.3416 21.434 37.9016 21.434C38.1816 21.434 38.4376 21.394 38.6696 21.314C38.9096 21.226 39.1376 21.114 39.3536 20.978L39.7016 21.626C39.4536 21.786 39.1696 21.926 38.8496 22.046C38.5376 22.166 38.1816 22.226 37.7816 22.226ZM35.9456 18.698H39.0656C39.0656 18.106 38.9376 17.658 38.6816 17.354C38.4336 17.042 38.0816 16.886 37.6256 16.886C37.2176 16.886 36.8496 17.046 36.5216 17.366C36.2016 17.678 36.0096 18.122 35.9456 18.698ZM41.8867 22.226C41.6867 22.226 41.5147 22.158 41.3707 22.022C41.2347 21.878 41.1667 21.698 41.1667 21.482C41.1667 21.25 41.2347 21.066 41.3707 20.93C41.5147 20.786 41.6867 20.714 41.8867 20.714C42.0787 20.714 42.2427 20.786 42.3787 20.93C42.5227 21.066 42.5947 21.25 42.5947 21.482C42.5947 21.698 42.5227 21.878 42.3787 22.022C42.2427 22.158 42.0787 22.226 41.8867 22.226ZM68.7812 22.226C68.5812 22.226 68.4092 22.158 68.2652 22.022C68.1292 21.878 68.0612 21.698 68.0612 21.482C68.0612 21.25 68.1292 21.066 68.2652 20.93C68.4092 20.786 68.5812 20.714 68.7812 20.714C68.9732 20.714 69.1372 20.786 69.2732 20.93C69.4172 21.066 69.4892 21.25 69.4892 21.482C69.4892 21.698 69.4172 21.878 69.2732 22.022C69.1372 22.158 68.9732 22.226 68.7812 22.226ZM74.6159 22.082L72.9479 14.21H73.9799L74.8079 18.494C74.8799 18.918 74.9559 19.342 75.0359 19.766C75.1159 20.19 75.1919 20.614 75.2639 21.038H75.3119C75.3999 20.614 75.4919 20.19 75.5879 19.766C75.6839 19.334 75.7759 18.91 75.8639 18.494L76.9559 14.21H77.8679L78.9599 18.494C79.0559 18.91 79.1519 19.334 79.2479 19.766C79.3439 20.19 79.4399 20.614 79.5359 21.038H79.5839C79.6559 20.614 79.7279 20.19 79.7999 19.766C79.8719 19.334 79.9479 18.91 80.0279 18.494L80.8559 14.21H81.8159L80.1839 22.082H78.9839L77.7959 17.342C77.7239 17.038 77.6559 16.742 77.5919 16.454C77.5359 16.158 77.4759 15.858 77.4119 15.554H77.3639C77.3079 15.858 77.2439 16.158 77.1719 16.454C77.0999 16.742 77.0319 17.038 76.9679 17.342L75.8039 22.082H74.6159ZM83.0895 22.082V16.25H84.0735V22.082H83.0895ZM83.5935 15.05C83.4015 15.05 83.2415 14.994 83.1135 14.882C82.9935 14.762 82.9335 14.602 82.9335 14.402C82.9335 14.21 82.9935 14.054 83.1135 13.934C83.2415 13.814 83.4015 13.754 83.5935 13.754C83.7855 13.754 83.9415 13.814 84.0615 13.934C84.1895 14.054 84.2535 14.21 84.2535 14.402C84.2535 14.602 84.1895 14.762 84.0615 14.882C83.9415 14.994 83.7855 15.05 83.5935 15.05ZM86.0426 22.082V16.25H86.8586L86.9426 17.09H86.9786C87.2586 16.81 87.5546 16.578 87.8666 16.394C88.1786 16.202 88.5346 16.106 88.9346 16.106C89.5506 16.106 89.9986 16.302 90.2786 16.694C90.5666 17.078 90.7106 17.642 90.7106 18.386V22.082H89.7266V18.518C89.7266 17.974 89.6386 17.578 89.4626 17.33C89.2866 17.082 89.0066 16.958 88.6226 16.958C88.3266 16.958 88.0586 17.034 87.8186 17.186C87.5866 17.338 87.3226 17.562 87.0266 17.858V22.082H86.0426ZM93.1211 22.226C92.9211 22.226 92.7491 22.158 92.6051 22.022C92.4691 21.878 92.4011 21.698 92.4011 21.482C92.4011 21.25 92.4691 21.066 92.6051 20.93C92.7491 20.786 92.9211 20.714 93.1211 20.714C93.3131 20.714 93.4771 20.786 93.6131 20.93C93.7571 21.066 93.8291 21.25 93.8291 21.482C93.8291 21.698 93.7571 21.878 93.6131 22.022C93.4771 22.158 93.3131 22.226 93.1211 22.226Z" fill="#DEE2EA"/>
<path d="M46.8573 22.082V14.21H49.1013C49.6933 14.21 50.2093 14.282 50.6493 14.426C51.0893 14.57 51.4333 14.814 51.6813 15.158C51.9293 15.494 52.0533 15.95 52.0533 16.526C52.0533 17.35 51.7853 17.962 51.2493 18.362C50.7133 18.762 50.0133 18.962 49.1493 18.962H47.8533V22.082H46.8573ZM47.8533 18.146H49.0293C49.7173 18.146 50.2253 18.018 50.5533 17.762C50.8893 17.498 51.0573 17.086 51.0573 16.526C51.0573 15.958 50.8813 15.566 50.5293 15.35C50.1853 15.126 49.6693 15.014 48.9813 15.014H47.8533V18.146ZM54.6022 22.226C54.2342 22.226 53.9662 22.114 53.7982 21.89C53.6382 21.658 53.5582 21.33 53.5582 20.906V13.538H54.5422V20.978C54.5422 21.13 54.5702 21.242 54.6262 21.314C54.6822 21.378 54.7462 21.41 54.8182 21.41C54.8502 21.41 54.8782 21.41 54.9022 21.41C54.9342 21.402 54.9782 21.394 55.0342 21.386L55.1662 22.13C55.1022 22.162 55.0262 22.186 54.9382 22.202C54.8502 22.218 54.7382 22.226 54.6022 22.226ZM57.9608 22.226C57.4728 22.226 57.0648 22.082 56.7368 21.794C56.4168 21.498 56.2568 21.09 56.2568 20.57C56.2568 19.93 56.5408 19.442 57.1088 19.106C57.6848 18.762 58.5928 18.522 59.8328 18.386C59.8328 18.138 59.7968 17.902 59.7248 17.678C59.6608 17.454 59.5408 17.274 59.3648 17.138C59.1968 16.994 58.9528 16.922 58.6328 16.922C58.2968 16.922 57.9808 16.986 57.6848 17.114C57.3888 17.242 57.1248 17.386 56.8928 17.546L56.5088 16.862C56.7808 16.686 57.1128 16.518 57.5048 16.358C57.9048 16.19 58.3368 16.106 58.8008 16.106C59.5128 16.106 60.0288 16.326 60.3488 16.766C60.6688 17.198 60.8288 17.778 60.8288 18.506V22.082H60.0128L59.9288 21.386H59.8928C59.6208 21.61 59.3208 21.806 58.9928 21.974C58.6728 22.142 58.3288 22.226 57.9608 22.226ZM58.2488 21.434C58.5288 21.434 58.7928 21.366 59.0408 21.23C59.2888 21.094 59.5528 20.902 59.8328 20.654V19.034C58.8648 19.154 58.1848 19.334 57.7928 19.574C57.4088 19.814 57.2168 20.122 57.2168 20.498C57.2168 20.826 57.3168 21.066 57.5168 21.218C57.7168 21.362 57.9608 21.434 58.2488 21.434ZM62.7597 24.59C62.6317 24.59 62.5077 24.578 62.3877 24.554C62.2757 24.53 62.1717 24.502 62.0757 24.47L62.2677 23.69C62.3317 23.706 62.4037 23.722 62.4837 23.738C62.5637 23.762 62.6397 23.774 62.7117 23.774C63.0397 23.774 63.3117 23.654 63.5277 23.414C63.7437 23.182 63.9117 22.886 64.0317 22.526L64.1637 22.094L61.8237 16.25H62.8437L64.0317 19.478C64.1197 19.726 64.2117 19.994 64.3077 20.282C64.4117 20.57 64.5077 20.85 64.5957 21.122H64.6437C64.7317 20.858 64.8157 20.582 64.8957 20.294C64.9757 20.006 65.0557 19.734 65.1357 19.478L66.1797 16.25H67.1397L64.9437 22.562C64.8077 22.946 64.6437 23.29 64.4517 23.594C64.2677 23.898 64.0357 24.138 63.7557 24.314C63.4837 24.498 63.1517 24.59 62.7597 24.59Z" fill="#FFD979"/>
</svg>
