<svg width="111" height="111" viewBox="0 0 111 111" fill="none" xmlns="http://www.w3.org/2000/svg">
    <path
        d="M11.73 33.66V77.35C11.73 79.07 12.65 80.66 14.14 81.52L51.97 103.36C53.46 104.22 55.29 104.22 56.78 103.36L94.61 81.52C96.1 80.66 97.02 79.07 97.02 77.35V33.66C97.02 31.94 96.1 30.35 94.61 29.49L56.78 7.64C55.29 6.78 53.46 6.78 51.97 7.64L14.14 29.49C12.65 30.35 11.73 31.94 11.73 33.66Z"
        fill="#F79780" />
    <mask id="mask0_324_4684" style="mask-type:luminance" maskUnits="userSpaceOnUse" x="11" y="6"
        width="87" height="99">
        <path
            d="M11.73 33.66V77.35C11.73 79.07 12.65 80.66 14.14 81.52L51.97 103.36C53.46 104.22 55.29 104.22 56.78 103.36L94.61 81.52C96.1 80.66 97.02 79.07 97.02 77.35V33.66C97.02 31.94 96.1 30.35 94.61 29.49L56.78 7.64C55.29 6.78 53.46 6.78 51.97 7.64L14.14 29.49C12.65 30.35 11.73 31.94 11.73 33.66Z"
            fill="white" />
    </mask>
    <g mask="url(#mask0_324_4684)">
        <path opacity="0.93" d="M105.8 37.95L-0.610107 74.15V57.69L105.8 21.49V37.95Z"
            fill="white" />
        <path d="M105.8 88.41L-0.610107 124.61V108.16L105.8 71.96V88.41Z" fill="#F7AB9F" />
        <path opacity="0.93" d="M110.19 44.53L3.77979 80.73V76.34L110.19 40.14V44.53Z"
            fill="white" />
    </g>
    <path
        d="M19.23 37.87V73.13C19.23 74.78 20.11 76.3 21.54 77.13L52.08 94.76C53.51 95.58 55.27 95.58 56.69 94.76L87.23 77.13C88.66 76.31 89.54 74.78 89.54 73.13V37.87C89.54 36.22 88.66 34.7 87.23 33.87L56.69 16.24C55.26 15.42 53.5 15.42 52.08 16.24L21.54 33.87C20.11 34.69 19.23 36.22 19.23 37.87Z"
        fill="#5B2924" />
    <mask id="mask1_324_4684" style="mask-type:luminance" maskUnits="userSpaceOnUse" x="19" y="15"
        width="71" height="81">
        <path
            d="M19.23 37.87V73.13C19.23 74.78 20.11 76.3 21.54 77.13L52.08 94.76C53.51 95.58 55.27 95.58 56.69 94.76L87.23 77.13C88.66 76.31 89.54 74.78 89.54 73.13V37.87C89.54 36.22 88.66 34.7 87.23 33.87L56.69 16.24C55.26 15.42 53.5 15.42 52.08 16.24L21.54 33.87C20.11 34.69 19.23 36.22 19.23 37.87Z"
            fill="white" />
    </mask>
    <g mask="url(#mask1_324_4684)">
        <path
            d="M24.71 41.5V77.22C24.71 78.89 25.6 80.43 27.05 81.27L57.98 99.13C59.43 99.97 61.21 99.97 62.65 99.13L93.58 81.27C95.03 80.43 95.92 78.89 95.92 77.22V41.5C95.92 39.83 95.03 38.29 93.58 37.45L62.65 19.59C61.2 18.75 59.42 18.75 57.98 19.59L27.05 37.45C25.6 38.29 24.71 39.83 24.71 41.5Z"
            fill="#E35833" />
        <path opacity="0.61"
            d="M89.3498 50.01C89.3498 68.79 69.7398 88.41 50.9498 88.41C45.2198 88.41 40.3298 87.62 35.5898 85.12L41.8498 102.49C41.8498 102.49 66.3098 103.77 67.3998 103.77C68.4898 103.77 93.7298 86.22 93.7298 86.22L106.89 67.57L89.3398 50.02L89.3498 50.01Z"
            fill="#222625" />
    </g>
    <path
        d="M16.3 41.24H15.4C15.4 36.03 11.18 31.82 5.97998 31.82V30.92C11.19 30.92 15.4 26.7 15.4 21.5H16.3C16.3 26.71 20.52 30.92 25.72 30.92V31.82C20.51 31.82 16.3 36.04 16.3 41.24Z"
        fill="white" />
    <path
        d="M92.84 93.9H92.44C92.44 91.59 90.56 89.71 88.25 89.71V89.31C90.56 89.31 92.44 87.43 92.44 85.12H92.84C92.84 87.43 94.72 89.31 97.03 89.31V89.71C94.72 89.71 92.84 91.59 92.84 93.9Z"
        fill="white" />
    <path opacity="0.52"
        d="M57.48 76.37C67.5702 76.37 75.75 68.1902 75.75 58.1C75.75 48.0098 67.5702 39.83 57.48 39.83C47.3897 39.83 39.21 48.0098 39.21 58.1C39.21 68.1902 47.3897 76.37 57.48 76.37Z"
        fill="#222625" />
    <path
        d="M53.8301 79.4C66.9358 79.4 77.5601 68.7757 77.5601 55.67C77.5601 42.5643 66.9358 31.94 53.8301 31.94C40.7244 31.94 30.1001 42.5643 30.1001 55.67C30.1001 68.7757 40.7244 79.4 53.8301 79.4Z"
        fill="#A5381B" />
    <path
        d="M53.8301 73.94C63.9203 73.94 72.1001 65.7602 72.1001 55.67C72.1001 45.5797 63.9203 37.4 53.8301 37.4C43.7398 37.4 35.5601 45.5797 35.5601 55.67C35.5601 65.7602 43.7398 73.94 53.8301 73.94Z"
        fill="#F4EDD9" />
    <path
        d="M53.8299 68.31C60.8108 68.31 66.4699 62.6509 66.4699 55.67C66.4699 48.6891 60.8108 43.03 53.8299 43.03C46.8491 43.03 41.1899 48.6891 41.1899 55.67C41.1899 62.6509 46.8491 68.31 53.8299 68.31Z"
        fill="#232326" />
    <path
        d="M54.8099 46.47L57.0099 50.92C57.1599 51.22 57.4499 51.44 57.7899 51.48L62.6999 52.19C63.5499 52.31 63.8799 53.35 63.2699 53.95L59.7199 57.41C59.4799 57.65 59.3699 57.99 59.4199 58.32L60.2599 63.21C60.3999 64.05 59.5199 64.69 58.7599 64.3L54.3699 61.99C54.0699 61.83 53.7099 61.83 53.4099 61.99L49.0199 64.3C48.2599 64.7 47.3799 64.06 47.5199 63.21L48.3599 58.32C48.4199 57.99 48.3099 57.64 48.0599 57.41L44.5099 53.95C43.8999 53.35 44.2399 52.31 45.0799 52.19L49.9899 51.48C50.3299 51.43 50.6199 51.22 50.7699 50.92L52.9699 46.47C53.3499 45.7 54.4399 45.7 54.8199 46.47H54.8099Z"
        fill="#FBAC33" stroke="black" stroke-width="0.61" stroke-miterlimit="10" />
</svg>
