<svg width="23" height="18" viewBox="0 0 23 18" fill="none" xmlns="http://www.w3.org/2000/svg">
<path d="M21.9899 3.62054C21.9899 3.92695 22.2386 4.17567 22.5457 4.17567V4.73144C22.2386 4.73144 21.9899 4.98016 21.9899 5.28657C21.9899 5.59299 22.2386 5.84171 22.5457 5.84171V6.39748C22.2386 6.39748 21.9899 6.6462 21.9899 6.95261C21.9899 7.25902 22.2386 7.50838 22.5457 7.50838V8.06352C22.2386 8.06352 21.9899 8.31224 21.9899 8.61865C21.9899 8.92506 22.2386 9.17442 22.5457 9.17442V9.72955C22.2386 9.72955 21.9899 9.97827 21.9899 10.2853C21.9899 10.5924 22.2386 10.8405 22.5457 10.8405V11.3962C22.2386 11.3962 21.9899 11.6443 21.9899 11.9514C21.9899 12.2584 22.2386 12.5065 22.5457 12.5065V13.0623C22.2386 13.0623 21.9899 13.311 21.9899 13.6174C21.9899 13.9238 22.2386 14.1725 22.5457 14.1725V15.2277C21.436 15.2277 20.536 16.1277 20.536 17.2379H2.01027C2.01027 16.761 1.84424 16.3232 1.56732 15.979C1.20386 15.527 0.648723 15.2354 0.0250011 15.2277H0V14.1713C0.289746 14.1527 0.519235 13.9116 0.519235 13.6174C0.519235 13.4193 0.414746 13.245 0.258335 13.1475C0.182693 13.0994 0.0942314 13.0693 0 13.0635V12.5052C0.289746 12.4866 0.519235 12.2456 0.519235 11.9514C0.519235 11.6571 0.289746 11.4161 0 11.3975V10.8392C0.0192309 10.8379 0.0384614 10.836 0.0576923 10.8321C0.289104 10.793 0.471798 10.6103 0.510901 10.3789C0.516029 10.3481 0.519235 10.3167 0.519235 10.2853C0.519235 9.99045 0.289746 9.74943 0 9.73084V9.17314C0.289746 9.15455 0.519235 8.91352 0.519235 8.61865C0.519235 8.32377 0.289746 8.08339 0 8.0648V7.5071C0.289746 7.48851 0.519235 7.24748 0.519235 6.95261C0.519235 6.65774 0.289746 6.41735 0 6.39876V5.84042C0.289746 5.82183 0.519235 5.58145 0.519235 5.28657C0.519235 4.9917 0.289746 4.75131 0 4.73272V4.17439C0.289746 4.1558 0.519235 3.91477 0.519235 3.62054C0.519235 3.3263 0.289746 3.08528 0 3.06669V2.01027C1.11026 2.01027 2.01027 1.11026 2.01027 0H20.536C20.536 1.11026 21.436 2.01027 22.5457 2.01027V3.06541C22.2386 3.06541 21.9899 3.31413 21.9899 3.62054Z" fill="#FFD97B"/>
<rect y="2.02344" width="1.20744" height="13.1907" fill="#FFD97B"/>
<rect x="21.3387" y="2.02344" width="1.20744" height="13.1907" fill="#FFD97B"/>
<path d="M11.2724 12.9648C13.6727 12.9648 15.6186 11.019 15.6186 8.61864C15.6186 6.21831 13.6727 4.27246 11.2724 4.27246C8.87206 4.27246 6.92621 6.21831 6.92621 8.61864C6.92621 11.019 8.87206 12.9648 11.2724 12.9648Z" fill="white"/>
<path d="M20.0873 3.42409V13.813C19.2155 13.813 18.5082 14.5203 18.5082 15.3933L3.94661 15.3933C3.94661 15.0185 3.81602 14.6745 3.59838 14.4036C3.31242 14.0481 2.87653 13.819 2.38622 13.813H2.36627L2.36627 3.42409C3.23927 3.42409 3.94661 2.71674 3.94661 1.84375L18.5082 1.84375C18.5082 2.71674 19.2155 3.42409 20.0873 3.42409Z" stroke="#B67A10" stroke-width="0.497473" stroke-miterlimit="10"/>
</svg>
