<svg width="25" height="24" viewBox="0 0 25 24" fill="none" xmlns="http://www.w3.org/2000/svg">
<path d="M24.2299 0.567188C23.9663 0.201422 23.5436 0 23.0398 0C22.8033 0 22.5497 0.0445781 22.2862 0.132469L1.87553 6.936C1.17053 7.17098 0.684628 7.65122 0.542363 8.25366C0.400097 8.85614 0.619894 9.50311 1.14541 10.0288C1.19679 10.0802 1.25584 10.1233 1.32044 10.1566L9.91361 14.5862L14.3433 23.1794C14.3766 23.244 14.4198 23.303 14.4711 23.3544C14.8934 23.7767 15.3805 24 15.8797 24H15.8798C16.6358 24 17.2812 23.4728 17.5639 22.6243L24.3676 2.21367C24.5815 1.57177 24.5326 0.987047 24.2299 0.567188ZM1.91097 8.57686C1.93788 8.46281 2.09472 8.3453 2.32019 8.27011L21.6929 1.81252L10.3015 13.2039L2.07307 8.96245C1.94913 8.81761 1.88786 8.67474 1.91097 8.57686ZM16.2298 22.1797C16.163 22.3799 16.0361 22.5938 15.8798 22.5938C15.7851 22.5938 15.6612 22.5325 15.5375 22.4267L11.2959 14.1983L22.6876 2.80659L16.2298 22.1797Z" fill="white"/>
</svg>
