<svg width="84" height="95" viewBox="0 0 84 95" fill="none" xmlns="http://www.w3.org/2000/svg">
<g clip-path="url(#clip0_9212_6667)">
<g style="mix-blend-mode:plus-lighter" filter="url(#filter0_f_9212_6667)">
<circle cx="42.5" cy="49.5" r="12.5" fill="#5C5C5C"/>
</g>
<g opacity="0.3">
<path d="M83.6855 23.3046C83.5523 29.8968 83.3008 36.3878 82.1366 42.8855C77.9674 66.1445 64.1503 85.5094 42.0352 94.5886C41.4429 94.6831 39.2984 93.6083 38.5982 93.2793C29.438 88.9835 20.9594 82.2344 14.8009 74.2198C3.76777 59.8595 -0.436919 41.2336 0.0355183 23.2979C15.9988 20.2051 30.4723 11.4701 41.7787 0C53.1594 11.4498 67.6429 20.2929 83.6855 23.3046ZM76.7728 28.5284C63.7133 25.2146 51.8686 18.0488 41.7787 9.28339C31.7107 18.0741 19.8408 25.2315 6.77449 28.52C7.09508 51.6492 16.8931 73.3577 37.3614 85.0657C38.1679 85.5263 40.7663 87.0583 41.4817 87.1984C41.7787 87.2574 41.9221 87.2271 42.2022 87.1528C43.1184 86.9132 45.3523 85.5398 46.2989 85.0015C66.6576 73.4336 76.5602 51.4855 76.7711 28.5284H76.7728Z" fill="url(#paint0_linear_9212_6667)"/>
<path d="M38.5982 93.2793C38.6775 93.3166 38.7752 93.3634 38.8872 93.417C39.7641 93.8367 41.51 94.6724 42.0352 94.5886C64.1503 85.5094 77.9674 66.1445 82.1366 42.8855L38.5982 93.2793ZM38.5982 93.2793C29.438 88.9835 20.9594 82.2344 14.8009 74.2198L38.5982 93.2793ZM42.3296 87.6363C42.1926 87.6726 42.0482 87.7099 41.8921 87.7237C41.7257 87.7383 41.5668 87.7251 41.3842 87.6888C41.1341 87.6395 40.7836 87.4891 40.4339 87.322C40.0655 87.1459 39.6395 86.922 39.2163 86.6912C38.5578 86.332 37.8903 85.9472 37.4398 85.6875C37.3118 85.6137 37.2013 85.55 37.1134 85.4998L37.1132 85.4997C16.4558 73.6835 6.59695 51.7878 6.27454 28.5269L6.26906 28.1316L6.65246 28.0351C19.6231 24.7707 31.4245 17.6603 41.4498 8.90675L41.7779 8.62034L42.1066 8.90593C52.1549 17.6352 63.9316 24.7542 76.8958 28.0438L76.8352 28.529L77.2711 28.533C77.0589 51.623 67.0953 73.7599 46.5461 85.4362C46.3822 85.5293 46.1683 85.6544 45.9244 85.7969C45.4988 86.0458 44.9821 86.3478 44.4824 86.626C43.7061 87.0583 42.8611 87.4971 42.3296 87.6363ZM42.3296 87.6363C42.3293 87.6364 42.329 87.6365 42.3287 87.6366L42.2022 87.1528L42.3303 87.6361C42.3301 87.6362 42.3298 87.6363 42.3296 87.6363ZM81.6445 42.7973C77.5062 65.8833 63.8149 85.0736 41.9252 94.0932C41.9053 94.0917 41.8757 94.0883 41.8347 94.0809C41.746 94.0649 41.6326 94.0358 41.4964 93.9931C41.2243 93.9077 40.8963 93.7794 40.5536 93.633C40.0251 93.4072 39.4926 93.1524 39.1101 92.9693C38.9955 92.9145 38.8944 92.866 38.8108 92.8268L38.8105 92.8266C29.721 88.564 21.3061 81.865 15.1973 73.9152C4.33514 59.7772 0.127875 41.4444 0.525592 23.711C16.282 20.5625 30.5622 11.9674 41.7801 0.708852C53.063 11.9432 67.3476 20.641 83.1769 23.7165C83.0413 30.16 82.7765 36.4791 81.6445 42.7973Z" stroke="#A5FCE7" stroke-opacity="0.3"/>
</g>
<g opacity="0.3">
<path d="M35.1155 28.9348C35.2505 28.3021 35.976 28.0507 36.5412 27.9984C39.0418 27.7723 44.7279 27.7284 47.1829 28.0018C47.5558 28.044 48.445 28.3359 48.445 28.7661V41.1676H60.8464C61.1856 41.1676 61.5821 42.0888 61.6158 42.4229C61.9583 45.8734 61.3374 49.8908 61.6091 53.4037C61.6901 53.7715 61.1603 54.4971 60.8464 54.4971H48.445V66.8985C48.445 67.4182 47.6081 67.6257 47.1879 67.6662C43.7088 67.9885 39.742 67.4081 36.2105 67.6612C35.8427 67.7422 35.1172 67.2124 35.1172 66.8985V54.4971H22.7157C22.4019 54.4971 21.8721 53.7715 21.9531 53.4037C22.1977 49.9195 21.6375 46.0269 21.948 42.5933C21.9919 42.1108 22.3276 41.1676 22.8844 41.1676H35.1172V28.9348H35.1155Z" fill="url(#paint1_linear_9212_6667)"/>
<path d="M35.3102 28.9495V41.1676V41.3606H35.1172H22.8844C22.7219 41.3606 22.5479 41.5041 22.3939 41.7908C22.2476 42.0632 22.1599 42.3944 22.1402 42.6107L35.3102 28.9495ZM35.3102 28.9495C35.3684 28.7171 35.5319 28.5441 35.7603 28.4179C35.999 28.2861 36.2937 28.2152 36.5588 28.1906M35.3102 28.9495L36.5588 28.1906M36.5588 28.1906C39.05 27.9654 44.7223 27.9221 47.1613 28.1936C47.3253 28.2122 47.6193 28.2892 47.8687 28.4117C47.9931 28.4728 48.0956 28.5399 48.1642 28.6081C48.2333 28.6766 48.2519 28.7292 48.2519 28.7661V41.1676V41.3606H48.445H60.8462C60.847 41.3607 60.8566 41.3616 60.8767 41.3736C60.8997 41.3873 60.9291 41.4112 60.9638 41.4484C61.0335 41.5231 61.1068 41.6328 61.1755 41.7611C61.3153 42.022 61.4103 42.3101 61.4238 42.442C61.5935 44.1515 61.5247 46.0049 61.4462 47.8818C61.4432 47.954 61.4401 48.0261 61.4371 48.0983C61.3614 49.8991 61.285 51.7165 61.4166 53.4186L61.4177 53.432L61.4206 53.4452C61.4295 53.4859 61.4244 53.5596 61.3866 53.6642C61.3505 53.7646 61.2911 53.8743 61.2185 53.9765C61.1457 54.0789 61.0645 54.1669 60.9891 54.227C60.9071 54.2924 60.8583 54.3041 60.8464 54.3041H48.445H48.2519V54.4971V66.8985C48.2519 67.0381 48.1401 67.1718 47.8925 67.2871C47.6571 67.3968 47.3663 67.4551 47.17 67.4741C45.4452 67.6338 43.5963 67.57 41.7264 67.4968C41.6514 67.4939 41.5763 67.4909 41.5011 67.4879C39.7099 67.4174 37.9037 67.3463 36.1967 67.4687L36.1827 67.4697L36.169 67.4727C36.1284 67.4816 36.0546 67.4765 35.95 67.4388C35.8496 67.4026 35.7399 67.3432 35.6377 67.2706C35.5353 67.1978 35.4474 67.1167 35.3872 67.0412C35.3219 66.9592 35.3102 66.9105 35.3102 66.8985V54.4971V54.3041H35.1172H22.7157C22.7038 54.3041 22.655 54.2924 22.5731 54.227C22.4976 54.1669 22.4164 54.0789 22.3437 53.9765C22.271 53.8743 22.2117 53.7646 22.1755 53.6642C22.1378 53.5596 22.1326 53.4859 22.1416 53.4452L22.1446 53.4314L22.1456 53.4172C22.2639 51.7321 22.1952 49.9539 22.1271 48.1905C22.1243 48.1177 22.1215 48.0449 22.1187 47.9721C22.048 46.1325 21.9863 44.3132 22.1402 42.6108L36.5588 28.1906Z" stroke="#A5FCE7" stroke-opacity="0.3" stroke-width="0.386019"/>
</g>
</g>
<defs>
<filter id="filter0_f_9212_6667" x="-20" y="-13" width="125" height="125" filterUnits="userSpaceOnUse" color-interpolation-filters="sRGB">
<feFlood flood-opacity="0" result="BackgroundImageFix"/>
<feBlend mode="normal" in="SourceGraphic" in2="BackgroundImageFix" result="shape"/>
<feGaussianBlur stdDeviation="25" result="effect1_foregroundBlur_9212_6667"/>
</filter>
<linearGradient id="paint0_linear_9212_6667" x1="41.8428" y1="0" x2="41.8428" y2="94.5945" gradientUnits="userSpaceOnUse">
<stop stop-color="#A5E4FF"/>
<stop offset="1" stop-color="#363636"/>
</linearGradient>
<linearGradient id="paint1_linear_9212_6667" x1="41.7867" y1="27.8125" x2="41.7867" y2="67.7665" gradientUnits="userSpaceOnUse">
<stop stop-color="#A5E4FF"/>
<stop offset="1" stop-color="#363636"/>
</linearGradient>
<clipPath id="clip0_9212_6667">
<rect width="83.6855" height="94.5945" fill="white"/>
</clipPath>
</defs>
</svg>
