<svg width="19" height="18" viewBox="0 0 19 18" fill="none" xmlns="http://www.w3.org/2000/svg">
<path d="M3.89165 1.49154L7.0683 4.66818H1.56603C1.67831 3.99373 1.94719 3.355 2.35109 2.80331C2.75498 2.25161 3.28263 1.80233 3.89165 1.49154ZM8.16142 1H5.90182C5.76243 1 5.62304 1.00734 5.48365 1.01467L9.13715 4.66818H11.8296L8.16142 1ZM13.2382 1H10.2449L13.9131 4.66818H17.574C17.4021 3.64261 16.8721 2.71122 16.0783 2.03958C15.2844 1.36794 14.2781 0.999588 13.2382 1ZM8.45634 13.1974L12.1245 11.1799C12.2395 11.1166 12.3355 11.0236 12.4023 10.9105C12.4691 10.7975 12.5043 10.6686 12.5043 10.5373C12.5043 10.406 12.4691 10.2771 12.4023 10.164C12.3355 10.051 12.2395 9.95794 12.1245 9.89461L8.45634 7.87711C8.34464 7.81566 8.21886 7.78438 8.09139 7.78635C7.96392 7.78832 7.83916 7.82347 7.72942 7.88834C7.61967 7.95321 7.52872 8.04556 7.46554 8.15628C7.40235 8.26701 7.36911 8.39229 7.36909 8.51977V12.5548C7.36911 12.6823 7.40235 12.8075 7.46554 12.9183C7.52872 13.029 7.61967 13.1213 7.72942 13.1862C7.83916 13.2511 7.96392 13.2862 8.09139 13.2882C8.21886 13.2902 8.34464 13.2589 8.45634 13.1974ZM17.64 6.13545V12.7382C17.639 13.9053 17.175 15.0244 16.3497 15.8497C15.5244 16.675 14.4053 17.139 13.2382 17.14H5.90182C4.73468 17.139 3.61563 16.675 2.79034 15.8497C1.96504 15.0244 1.50097 13.9053 1.5 12.7382V6.13545H17.64Z" fill="#A6A6AC"/>
</svg>
