<svg width="138" height="146" viewBox="0 0 138 146" fill="none" xmlns="http://www.w3.org/2000/svg">
<circle cx="84.9051" cy="1.78123" r="1.78123" fill="#C2D7FF"/>
<circle cx="21.3745" cy="34.4359" r="9.92876" stroke="#2A645F" stroke-width="1.51724"/>
<circle cx="130.03" cy="57.5922" r="6.96004" stroke="#2A645F" stroke-width="1.51724"/>
<rect width="75.4155" height="75.4155" rx="15.1724" transform="matrix(0.866025 0.5 -0.866025 0.5 65.3118 69.6343)" fill="#1B262C"/>
<rect width="75.4155" height="75.4155" rx="15.1724" transform="matrix(0.866025 0.5 -0.866025 0.5 65.3118 59.5791)" fill="#1ADAB7"/>
<path d="M38.6641 36.0361C37.4927 35.3331 36.0023 36.1768 36.0023 37.5429V80.0458C36.0023 80.6632 36.3262 81.2353 36.8557 81.5529L83.2599 109.388C84.4313 110.091 85.9213 109.247 85.9213 107.881V65.3961C85.9213 64.7789 85.5975 64.207 85.0683 63.8893L38.6641 36.0361Z" fill="white" stroke="black" stroke-width="0.60883" stroke-miterlimit="10"/>
<path d="M36.5359 80.717L52.3941 71.2059C55.6344 69.2617 59.8276 70.2529 61.8671 73.4169L82.297 106.646C82.5722 107.094 83.2077 108.997 82.7665 108.711L36.5359 81.3078C36.3072 81.1744 36.3072 80.8313 36.5359 80.6979V80.717Z" fill="white" stroke="black" stroke-width="0.60883" stroke-miterlimit="10"/>
<path d="M86.6837 64.5527C86.2262 64.7815 67.4327 74.2544 66.9181 74.5213C66.4035 74.7881 64.6309 75.2075 63.5635 75.0359L62.4389 73.2824C61.6765 72.1006 60.6091 71.2429 59.3893 70.7473L86.7027 64.5527H86.6837Z" fill="#C4C4C4"/>
<path d="M62.2675 75.1304C58.8366 74.5967 56.0538 71.2992 56.0538 71.2992L58.0933 70.8418C59.2941 71.3374 60.3805 72.1951 61.1429 73.3768L62.2675 75.1304Z" fill="#C4C4C4"/>
<path d="M36.4979 35.335L55.5391 69.6246C57.064 72.3693 60.3614 73.6082 63.3157 72.5408L85.3876 64.5927C85.5973 64.5164 85.6354 64.2115 85.4448 64.0971L36.8981 34.9729C36.6504 34.8204 36.3835 35.0873 36.5169 35.335H36.4979Z" fill="#8975EE" stroke="black" stroke-width="0.60883" stroke-miterlimit="10"/>
</svg>
