<svg width="119" height="126" viewBox="0 0 119 126" fill="none" xmlns="http://www.w3.org/2000/svg">
<circle cx="73.2621" cy="1.53507" r="1.53507" fill="#C2D7FF"/>
<circle cx="18.5111" cy="29.6772" r="8.45179" stroke="#2A645F" stroke-width="1.51724"/>
<circle cx="112.15" cy="49.6339" r="5.89335" stroke="#2A645F" stroke-width="1.51724"/>
<rect width="64.9933" height="64.9933" rx="15.1724" transform="matrix(0.866025 0.5 -0.866025 0.5 56.3764 60.0083)" fill="#0C8A7F"/>
<rect width="64.9933" height="64.9933" rx="15.1724" transform="matrix(0.866025 0.5 -0.866025 0.5 56.3764 51.3433)" fill="#1ADAB7"/>
<path d="M44.2637 88.469C44.031 88.723 43.7617 88.8277 43.5703 88.7386L37.4055 85.8706C37.1651 85.7588 37.1069 85.3717 37.267 84.9493L41.7243 73.1873C40.105 70.4883 39.1935 66.9847 39.061 62.9404C38.8875 57.9339 39.8999 52.2879 41.9848 46.6347C44.0695 40.9818 47.1443 35.5449 50.8647 30.9329C53.9699 27.0634 57.4404 23.8949 60.9935 21.6852L62.2994 20.869C62.3116 20.8615 62.3237 20.8543 62.3358 20.8475C67.9832 17.6923 73.1427 17.6128 77.4618 19.3704C78.1102 19.6343 78.7849 19.8759 79.4628 20.1187C80.7118 20.5661 81.9719 21.0174 83.0992 21.6189C84.8669 22.5622 86.4093 23.915 87.3095 26.3303C87.3715 26.4967 87.3626 26.7255 87.2849 26.9643L84.8183 34.5431C84.9458 38.6735 84.2589 43.2515 82.8111 47.9161C81.0689 53.5796 78.2819 59.1693 74.7621 64.0592C71.242 68.9494 67.1281 72.9466 62.881 75.6031M44.2637 88.469L62.8528 74.8253M44.2637 88.469L52.8192 79.1308M44.2637 88.469L52.8244 78.2602M62.881 75.6031C62.8808 75.6033 62.8805 75.6034 62.8803 75.6036L62.8528 74.8253M62.881 75.6031C62.8813 75.603 62.8815 75.6028 62.8818 75.6027L62.8528 74.8253M62.881 75.6031C59.426 77.7732 55.9837 78.9793 52.8192 79.1308M62.8528 74.8253C59.4037 76.9918 55.9676 78.1687 52.8244 78.2602M52.8192 79.1308L53.0852 78.8405L52.8244 78.2602M52.8192 79.1308C52.7296 79.1351 52.6401 79.1386 52.551 79.1412L52.8244 78.2602" fill="#A7A7A8" stroke="black" stroke-width="1.55783" stroke-linecap="round" stroke-linejoin="round"/>
<path d="M43.5168 88.5887C43.4151 88.4066 43.4219 88.1164 43.5349 87.8181L47.9922 76.055C46.373 73.356 45.4614 69.8524 45.3289 65.808C45.1555 60.8016 46.1679 55.1556 48.2527 49.5024C50.3375 43.8495 53.4122 38.4126 57.1326 33.8006C60.2379 29.9311 63.7083 26.7625 67.2614 24.5529L68.5673 23.7367C68.5795 23.7291 68.5916 23.7219 68.6038 23.7152C74.2263 20.5738 79.6226 20.0528 83.7592 22.2519C87.8959 24.4509 90.4823 29.2155 91.0232 35.6334C91.0244 35.6472 91.0252 35.6613 91.0257 35.6756L91.0795 37.2136C91.0796 37.2141 91.0796 37.2146 91.0796 37.2151C91.2352 41.3964 90.5497 46.0454 89.079 50.7838C87.3368 56.4473 84.5498 62.037 81.03 66.9269C77.51 71.8171 73.396 75.8143 69.149 78.4708M43.5168 88.5887L69.1207 77.693M43.5168 88.5887C43.6185 88.7708 43.8149 88.82 44.0382 88.7192L58.9179 82.0056M43.5168 88.5887L59.0923 81.1279M69.149 78.4708C69.1487 78.471 69.1485 78.4711 69.1482 78.4713L69.1207 77.693M69.149 78.4708C69.1492 78.4707 69.1494 78.4705 69.1497 78.4704L69.1207 77.693M69.149 78.4708C65.6323 80.6796 62.1287 81.8898 58.9179 82.0056M69.1207 77.693C65.6716 79.8595 62.2355 81.0364 59.0923 81.1279M58.9179 82.0056L59.0244 81.9576L59.0923 81.1279M58.9179 82.0056C58.8849 82.0068 58.8519 82.0079 58.8189 82.0088L59.0923 81.1279" fill="white" stroke="black" stroke-width="1.55783" stroke-linecap="round" stroke-linejoin="round"/>
<path d="M61.5762 59.4313L60.0941 60.3576C59.85 60.5101 59.7229 60.4426 59.7128 60.1549L59.2805 47.805C59.2704 47.5173 59.3875 47.2971 59.6316 47.1446L61.1137 46.2183C61.3578 46.0657 61.4849 46.1333 61.4949 46.421L61.664 51.25C61.6692 51.4007 61.7416 51.4324 61.8811 51.3453L64.8279 49.5036C64.9557 49.4237 65.017 49.3084 65.0117 49.1577L64.8427 44.3287C64.8326 44.041 64.9496 43.8209 65.1938 43.6683L66.6758 42.742C66.92 42.5894 67.047 42.657 67.0571 42.9447L67.4894 55.2946C67.4995 55.5823 67.3825 55.8025 67.1384 55.955L65.6563 56.8813C65.4122 57.0339 65.2851 56.9663 65.275 56.6786L65.1067 51.8702C65.1014 51.7195 65.0348 51.6841 64.907 51.764L61.9602 53.6057C61.8207 53.6928 61.7536 53.8118 61.7589 53.9625L61.9272 58.7709C61.9373 59.0586 61.8203 59.2787 61.5762 59.4313ZM69.2583 42.1149L69.1958 40.3272C69.1862 40.0532 69.2976 39.8435 69.5301 39.6982L71.0471 38.7501C71.2795 38.6048 71.4003 38.6623 71.4095 38.9226L71.4728 40.7309C71.4823 41.0049 71.3709 41.2146 71.1384 41.3599L69.6215 42.3079C69.389 42.4532 69.2679 42.3889 69.2583 42.1149ZM69.672 53.9306L69.3353 44.3137C69.3252 44.026 69.4364 43.8095 69.6689 43.6642L71.1685 42.727C71.4126 42.5744 71.5397 42.642 71.5497 42.9297L71.8864 52.5466C71.8926 52.7247 71.8676 52.8593 71.8114 52.9504C71.7668 53.0343 71.6806 53.1162 71.5527 53.1961L70.0532 54.1333C69.8091 54.2858 69.682 54.2183 69.672 53.9306ZM73.4848 42.1823L73.3733 38.9972C73.3632 38.7095 73.4802 38.4894 73.7243 38.3368L75.3808 37.3015C75.6249 37.149 75.752 37.2165 75.762 37.5042L75.8735 40.6893C75.8927 41.2373 75.8852 41.8719 75.8511 42.5932C75.8281 43.2936 75.8107 43.8154 75.799 44.1587C75.7872 44.502 75.7734 44.7837 75.7573 45.0037C75.7412 45.2237 75.7335 45.3406 75.7339 45.3543C75.6975 45.671 75.5689 45.8984 75.348 46.0364L74.3541 46.6576C74.1333 46.7956 73.9946 46.7353 73.938 46.4767C73.9375 46.463 73.9221 46.3607 73.8916 46.1697C73.8612 45.9788 73.8228 45.7298 73.7764 45.4228C73.7416 45.1085 73.7059 44.7669 73.6692 44.3978C73.5602 43.3181 73.4987 42.5796 73.4848 42.1823ZM76.0536 47.3593L76.142 49.8869C76.1521 50.1746 76.0409 50.3911 75.8084 50.5364L74.274 51.4953C74.0415 51.6406 73.92 51.5626 73.9095 51.2612L73.8224 48.7748C73.8129 48.5008 73.9243 48.2911 74.1568 48.1458L75.6912 47.1869C75.9237 47.0416 76.0445 47.0991 76.0536 47.3593Z" fill="#232326"/>
</svg>
