<svg width="42" height="37" viewBox="0 0 42 37" fill="none" xmlns="http://www.w3.org/2000/svg">
<path opacity="0.6" d="M5.43511 30.3262C4.01335 29.556 3.98382 28.2464 5.36938 27.4112L24.8857 15.647C26.2368 14.8326 28.4364 14.7713 29.8444 15.5089L38.938 20.2723C40.4272 21.0523 40.444 22.4127 38.9748 23.2512L18.7502 34.7944C17.3728 35.5805 15.1951 35.6133 13.8203 34.8686L5.43511 30.3262Z" fill="#1A1A1A"/>
<path d="M36.2583 4.52072L11.6922 19.6972L2.69629 17.4482L3.69399 15.1202C3.77629 14.9282 3.91857 14.768 4.09953 14.6635L28.5005 0.579666C28.8005 0.406544 29.1701 0.406984 29.4696 0.580819L36.2583 4.52072Z" fill="white" stroke="black" stroke-width="0.332509" stroke-linejoin="round"/>
<mask id="mask0_1997_4641" style="mask-type:alpha" maskUnits="userSpaceOnUse" x="1" y="1" width="35" height="19">
<path d="M35.6942 4.95545L10.7742 19.6977L1.77832 17.4487L4.073 15.0831C4.13551 15.0187 4.20669 14.9633 4.28449 14.9185L27.5174 1.53539C27.7926 1.37685 28.1281 1.36353 28.415 1.49974L35.6942 4.95545Z" fill="#FFD979"/>
</mask>
<g mask="url(#mask0_1997_4641)">
<path opacity="0.9" d="M0.858398 9.61035H27.4591V13.6005H0.858398V9.61035Z" fill="#62E3C4"/>
<rect opacity="0.9" x="7.50879" y="6.9502" width="26.6007" height="1.33003" fill="#62E3C4"/>
</g>
<path d="M3.61748 15.2791L0.94295 21.2318C0.711097 21.7478 1.13794 22.7037 1.74628 23.0308L12.617 28.8756C13.7952 29.509 14.5643 28.5531 14.0987 27.0337L11.8519 19.6999C11.7147 19.2521 11.3947 18.8348 11.0476 18.651L4.35739 15.1083C4.03084 14.9354 3.74197 15.0021 3.61748 15.2791Z" fill="#D9D9D9" stroke="black" stroke-width="0.332509" stroke-linejoin="round"/>
<path d="M12.9744 28.3832L11.6375 19.5561C11.5781 19.1637 11.7644 18.7748 12.1075 18.5752L36.298 4.50195L39.0277 11.7975C39.4396 12.8984 39.0107 14.1366 38.006 14.7468L14.433 29.0651C13.8427 29.4236 13.0778 29.066 12.9744 28.3832Z" fill="#D9D9D9" stroke="black" stroke-width="0.332509" stroke-linejoin="round"/>
</svg>
