<svg width="53" height="38" viewBox="0 0 53 38" fill="none" xmlns="http://www.w3.org/2000/svg">
<path d="M52.3007 17.846L41.6287 4.18883C41.2842 3.96494 40.8537 3.9477 40.492 4.14289L11.1109 19.4707C10.8927 19.5855 10.7205 19.7577 10.6114 19.9816L10.5368 20.1366C10.5368 20.1366 10.5196 20.1538 10.5138 20.1653L7.07514 27.0255C6.77662 27.6225 7.23014 28.7592 7.93051 29.184L20.4109 36.5953C20.7611 36.8077 21.0883 36.8823 21.3696 36.8594C21.7025 37.0775 22.1446 37.1292 22.5407 36.9168L50.9574 21.2733C52.1687 20.6016 52.737 19.1664 52.3064 17.8575L52.3007 17.846Z" fill="black"/>
<path d="M43.4313 5.79102L13.8033 22.3933L3.34366 19.299L4.63533 16.6066C4.7444 16.3827 4.91662 16.2105 5.13477 16.0957L34.5159 0.767873C34.8775 0.572688 35.3138 0.595661 35.6525 0.813809L43.4313 5.78529V5.79102Z" fill="#FFD979" stroke="black" stroke-width="0.75" stroke-linejoin="round"/>
<path d="M4.53198 16.7957L1.09328 23.6559C0.79476 24.253 1.24828 25.3896 1.94865 25.8144L14.429 33.2257C15.7838 34.0294 16.7311 32.9444 16.2603 31.1304L13.987 22.3987C13.8492 21.8706 13.4933 21.3596 13.0914 21.13L5.40458 16.635C5.03143 16.4111 4.68698 16.48 4.52624 16.7957H4.53198Z" fill="#C28C02" stroke="black" stroke-width="0.75" stroke-linejoin="round"/>
<path d="M14.871 32.6639L13.7401 22.2272C13.6885 21.7565 13.9296 21.3145 14.3429 21.0963L43.4772 5.76855L46.3188 14.4772C46.7494 15.7919 46.181 17.2271 44.9698 17.893L16.5531 33.5365C15.8412 33.9211 14.9629 33.4676 14.871 32.6582V32.6639Z" fill="#F7CC60" stroke="black" stroke-width="0.75" stroke-linejoin="round"/>
<path d="M7.48352 20.967C7.48352 18.4928 5.47426 16.4835 3 16.4835C5.47426 16.4835 7.48352 14.4743 7.48352 12C7.48352 14.4743 9.49279 16.4835 11.9671 16.4835C9.49279 16.4835 7.48352 18.4928 7.48352 20.967Z" fill="white"/>
</svg>
