<svg width="84" height="100" viewBox="0 0 84 100" fill="none" xmlns="http://www.w3.org/2000/svg">
<g id="Group 1244832360">
<g id="Group">
<path id="Vector" d="M81.0749 26.4378L42.8686 4.37961C42.1002 3.93258 41.4015 3.89772 40.8986 4.1841L1.97266 26.8079C2.47556 26.5355 3.15309 26.5915 3.90744 27.0245L42.1142 49.0826C42.8685 49.5157 43.553 50.2561 44.0489 51.1083L83.2123 28.8406C82.7094 27.8347 81.941 26.9407 81.0749 26.4448V26.4378Z" fill="#C0E3F0" stroke="black" stroke-width="0.34924" stroke-linejoin="bevel"/>
<path id="Vector_2" d="M83.8257 31.2155L83.7002 75.1153C83.7002 75.9884 83.3929 76.6031 82.897 76.8895L43.9639 99.5134C44.4388 99.22 44.7391 98.6124 44.7391 97.7602L44.8649 53.8604C44.8649 52.9734 44.5505 51.9815 44.0406 51.1154L83.2043 28.8477C83.5954 29.623 83.8257 30.4612 83.8257 31.2225V31.2155Z" fill="#627F8A" stroke="black" stroke-width="0.34924"/>
<path id="Vector_3" d="M44.0398 51.1085C43.5438 50.2563 42.8593 49.5159 42.105 49.0829L3.8986 27.0248C3.15123 26.5917 2.46672 26.5428 1.96381 26.8082C1.94984 26.8082 1.93567 26.8222 1.92868 26.8292C1.43277 27.1155 1.12551 27.7302 1.12551 28.6033L1 72.5031C1 74.2563 2.22911 76.3936 3.75877 77.2737L41.9655 99.3319C42.7338 99.7789 43.4322 99.8139 43.9351 99.5275C43.942 99.5275 43.956 99.5135 43.963 99.5065C44.438 99.2132 44.7382 98.6055 44.7382 97.7533L44.8641 53.8536C44.8641 52.9665 44.5496 51.9746 44.0398 51.1085ZM41.3789 68.8151L41.3509 78.0141C41.3998 78.0491 41.3229 88.68 41.3229 88.68V89.602C41.3229 90.2935 41.0784 90.7754 40.6872 91.0059L38.6337 92.2563C38.2286 92.5426 37.649 92.5286 36.9994 92.1515L6.73445 74.6754C5.52609 73.9769 4.54797 72.2866 4.54797 70.8966L4.56195 65.7837C4.45718 65.7976 4.61106 48.0282 4.61106 48.0282L4.64585 36.119C4.64585 35.4555 4.87641 34.9805 5.23962 34.743C5.2466 34.743 5.2606 34.7291 5.26759 34.7291L7.41178 33.4159C7.80991 33.1854 8.36169 33.2203 8.96937 33.5696L39.2343 51.0457C40.4427 51.7441 41.4205 53.4345 41.4205 54.8245V58.24L41.3789 68.8081V68.8151Z" fill="#A0C5D6" stroke="#231F20" stroke-width="0.391149" stroke-miterlimit="10"/>
<path id="Vector_4" d="M39.2824 58.1231V56.1394C39.2893 54.7494 38.3114 53.059 37.103 52.3606L6.83806 34.8845C6.22341 34.5282 5.66463 34.5003 5.2665 34.7448C5.25951 34.7448 5.24551 34.7517 5.23853 34.7587C4.86834 34.9962 4.64476 35.4712 4.64476 36.1348L4.60997 48.0439L4.54688 70.9053C4.54688 72.2953 5.525 73.9856 6.73336 74.6841L36.9983 92.1602C37.6479 92.5374 38.2345 92.5514 38.6327 92.265C38.9819 92.0205 39.1913 91.5525 39.1913 90.9099V88.6748L39.2264 77.9809L39.2544 68.9006L39.2824 58.1231ZM28.2742 72.9659L22.2952 73.5805C21.1427 74.1323 19.6063 73.9926 17.9229 73.0147C14.3607 70.9542 11.483 65.974 11.49 61.8739C11.49 60.2534 11.951 59.0171 12.7263 58.2418L16.6866 53.0241C18.1744 52.158 20.2349 52.2837 22.505 53.5969C27.0241 56.2022 30.6769 62.5305 30.6629 67.7202C30.656 70.2976 29.748 72.1137 28.2742 72.9659Z" fill="#C0E3F0" stroke="#231F20" stroke-width="0.391149" stroke-miterlimit="10"/>
<path id="Vector_5" d="M30.6635 67.711C30.6565 70.2884 29.7486 72.1044 28.2748 72.9566L22.2958 73.5712C23.581 72.9566 24.3842 71.4758 24.3912 69.3175C24.4052 65.2244 21.5275 60.2372 17.9583 58.1836C15.807 56.9403 13.9001 57.0521 12.7197 58.2326L16.68 53.0148C18.1678 52.1487 20.2283 52.2745 22.4984 53.5876C27.0175 56.193 30.6707 62.5212 30.6567 67.711H30.6635Z" fill="#5A808E" stroke="#231F20" stroke-width="0.391149" stroke-miterlimit="10"/>
<path id="Vector_6" d="M39.2343 51.0456L8.96936 33.5695C8.36168 33.2203 7.8099 33.1854 7.41177 33.4159L5.26758 34.729C5.66571 34.4846 6.22449 34.5195 6.83915 34.8687L37.1041 52.3448C38.3125 53.0433 39.2903 54.7337 39.2903 56.1236V56.9408C39.2903 56.9408 39.2625 56.9339 39.2555 56.9269L39.2275 88.687C39.2275 88.687 39.2065 88.673 39.1995 88.666V90.9011C39.1926 91.5437 38.983 92.0118 38.6337 92.2562L40.6872 91.0059C41.0784 90.7754 41.3229 90.2935 41.3229 89.602V89.3855C41.3229 89.3855 41.3507 89.3925 41.3577 89.3995L41.3789 58.2191C41.3789 58.2191 41.3997 58.233 41.4136 58.24V54.8245C41.4276 53.4345 40.4498 51.7441 39.2415 51.0456H39.2343Z" fill="#5A808E" stroke="#231F20" stroke-width="0.391149" stroke-miterlimit="10"/>
<ellipse id="Ellipse" cx="22.2962" cy="73.5716" rx="0.195573" ry="0.195576" fill="#231F20"/>
<path id="Vector_7" d="M17.9613 58.1843C15.81 56.941 13.9031 57.0528 12.7227 58.2332C11.9544 59.0085 11.4934 60.2448 11.4864 61.8653C11.4724 65.9584 14.3571 70.9456 17.9193 73.0061C19.6026 73.977 21.1394 74.1237 22.2919 73.5719C23.5771 72.9572 24.3804 71.4765 24.3874 69.3182C24.4013 65.225 21.5236 60.2378 17.9544 58.1843H17.9613ZM21.2582 68.3542C21.2442 69.6883 20.1335 70.757 18.7924 70.7221L17.5421 70.6941C17.0741 70.771 16.5153 70.6522 15.9146 70.303C14.2592 69.346 12.9251 67.0341 12.9321 65.1342C12.9321 64.303 13.1907 63.6883 13.6238 63.3391L14.1336 62.5149C14.7902 61.4672 16.1384 61.069 17.242 61.6278C17.3188 61.6697 17.3954 61.7116 17.4722 61.7535C19.5676 62.9619 21.2652 65.9025 21.2582 68.3123V68.3472V68.3542Z" fill="#A0C5D6" stroke="#231F20" stroke-width="0.391149" stroke-miterlimit="10"/>
<path id="Vector_8" d="M21.2565 68.3194V68.3544C21.2426 69.6885 20.1318 70.7572 18.7907 70.7222L17.5404 70.6943C18.3646 70.5546 18.9166 69.8072 18.9166 68.5918C18.9166 66.692 17.5825 64.373 15.9341 63.423C15.0051 62.8852 14.1739 62.8922 13.6221 63.3392L14.1319 62.5151C14.7885 61.4673 16.1367 61.0692 17.2403 61.628C17.3171 61.6699 17.3937 61.7117 17.4705 61.7536C19.5659 62.962 21.2635 65.9027 21.2565 68.3124V68.3194Z" fill="#5A808E" stroke="#231F20" stroke-width="0.391149" stroke-miterlimit="10"/>
<path id="Vector_9" d="M18.9159 68.5982C18.9159 69.8066 18.3639 70.5609 17.5397 70.7006C17.0717 70.7775 16.5129 70.6587 15.9122 70.3094C14.2568 69.3525 12.9227 67.0405 12.9297 65.1406C12.9297 64.3094 13.1883 63.6948 13.6214 63.3456C14.1732 62.8985 15.0044 62.8915 15.9334 63.4294C17.5887 64.3863 18.9228 66.6983 18.9159 68.5982Z" fill="#C0E3F0" stroke="#231F20" stroke-width="0.391149" stroke-miterlimit="10"/>
<path id="Vector_10" d="M25.3643 19.8578L30.3863 16.7566C30.6587 16.589 30.9938 16.589 31.2662 16.7566L59.4709 32.6541C60.0297 32.9894 60.0155 33.8136 59.4357 34.1279L53.82 37.1733C53.5546 37.32 53.2333 37.306 52.9749 37.1523L25.3643 21.3037C24.8265 20.9754 24.8265 20.1931 25.3643 19.8578Z" fill="#231F20"/>
</g>
<g id="Group_2">
<g id="Group_3">
<path id="Vector_11" d="M39.2119 27.5733C41.1956 28.5722 43.8429 28.2509 46.6717 26.379C52.2875 22.656 56.4923 14.2184 56.0592 7.52687C55.8427 4.20208 54.5295 1.93897 52.5668 0.954102C53.5656 1.45701 54.5573 1.95295 55.5562 2.45586C57.5189 3.44072 58.832 5.70384 59.0485 9.02863C59.4816 15.7201 55.2768 24.1578 49.6611 27.8807C46.8322 29.7527 44.1922 30.0739 42.2016 29.0751C41.2028 28.5722 40.2107 28.0763 39.2119 27.5733Z" fill="#D29830" stroke="black" stroke-width="0.363209" stroke-miterlimit="10"/>
<path id="Vector_12" d="M35.7201 20.9998C35.2871 14.3083 39.4918 5.8706 45.1076 2.14768C50.7233 -1.57525 55.6267 0.834577 56.0598 7.52606C56.4928 14.2175 52.2881 22.6552 46.6723 26.3782C41.0566 30.1011 36.1532 27.6913 35.7201 20.9998Z" fill="white" stroke="black" stroke-width="0.363209" stroke-miterlimit="10"/>
</g>
<path id="Vector_13" opacity="0.5" d="M37.6839 19.7015C37.3346 14.3022 40.7293 7.48503 45.2624 4.48155C49.7955 1.47806 53.7556 3.41983 54.1049 8.8261C54.4541 14.2254 51.0598 21.0426 46.5267 24.0461C41.9936 27.0496 38.0331 25.1077 37.6839 19.7015Z" fill="#FFB310" stroke="#1A1A1A" stroke-width="0.454012" stroke-miterlimit="10"/>
<path id="Vector_14" d="M45.7443 4.71884C41.2112 7.72232 37.8166 14.5396 38.1658 19.9388C38.3334 22.4883 39.3043 24.2694 40.7571 25.1215C39.0319 24.4021 37.8655 22.5232 37.6839 19.6943C37.3346 14.295 40.7293 7.47787 45.2624 4.47438C47.6582 2.88882 49.8861 2.67922 51.5135 3.62916C49.942 2.97258 47.9096 3.27995 45.7443 4.71184V4.71884Z" fill="#FFB310"/>
</g>
</g>
</svg>
