<svg width="40" height="40" viewBox="0 0 40 40" fill="none" xmlns="http://www.w3.org/2000/svg">
<g style="mix-blend-mode:multiply" opacity="0.7">
<ellipse cx="22.0355" cy="31.13" rx="16.6761" ry="6.90738" fill="black"/>
</g>
<circle cx="19.7113" cy="19.7162" r="15.2015" fill="#FFD979"/>
<circle cx="19.7113" cy="19.7162" r="15.5222" fill="white" stroke="black" stroke-width="0.641224"/>
<circle cx="21.1818" cy="22.0891" r="11.4094" fill="white"/>
<mask id="mask0_1955_5045" style="mask-type:alpha" maskUnits="userSpaceOnUse" x="4" y="4" width="31" height="31">
<circle cx="19.7113" cy="19.7211" r="15.2015" transform="rotate(-68.9079 19.7113 19.7211)" fill="#FFD979"/>
</mask>
<g mask="url(#mask0_1955_5045)">
<path d="M7.96685 25.8529L5.14238 16.6813M7.54653 13.5674L13.3054 14.241" stroke="black" stroke-width="0.499457" stroke-linecap="round"/>
<path d="M18.0434 10.6525L18.3183 5.25577" stroke="black" stroke-width="0.499457" stroke-linecap="round"/>
<path d="M14.6641 20.524L10.4004 27.5635" stroke="black" stroke-width="0.499457" stroke-linecap="round"/>
<path d="M14.1828 20.9635L21.8991 21.2804C22.4062 25.0744 20.7477 26.3468 20.7619 28.0757C19.8016 28.5608 15.2083 31.179 12.9502 33.6476C20.8006 36.6755 33.8091 34.7977 35.1626 21.9914C36.528 9.07291 27.0542 5.70977 22.2281 4.56122C20.8711 5.40662 19.517 8.24927 19.0095 9.56491L12.2418 13.9697L14.1828 20.9635Z" fill="#A9C6D6"/>
<path d="M19.2614 20.6956L26.9776 21.0125C27.4848 24.8065 25.8263 26.0789 25.8404 27.8078C24.8802 28.2929 20.7059 31.1235 18.4478 33.5921C26.2982 36.6201 38.8877 34.5298 40.2412 21.7235C41.6066 8.80502 32.1328 5.44188 27.3067 4.29333C25.9497 5.13873 29.8245 12.3861 29.3171 13.7018L17.3204 13.7018L19.2614 20.6956Z" fill="#A9C6D6"/>
<path d="M25.0675 3.84879L29.0654 9.14349L24.5154 13.785L18.3614 9.95796L18.452 4.35216L25.0675 3.84879Z" fill="white"/>
<path d="M25.0675 3.84879L29.0654 9.14349C29.0654 9.14349 26.8079 8.94171 23.8461 8.46082C20.8843 7.97993 18.3614 9.95796 18.3614 9.95796L18.452 4.35216L25.0675 3.84879Z" fill="white"/>
<path d="M18.1975 5.65988L15.1043 5.23971C15.9141 4.95723 16.9614 4.66825 18.083 4.49746C19.3946 4.29774 20.7872 4.26285 22.0154 4.57317L18.1975 5.65988Z" fill="#A9C6D6" stroke="black" stroke-width="0.480918"/>
<path d="M8.11054 29.9889C7.72325 29.3861 7.49226 28.8498 7.45081 28.4804L7.65664 25.5221L11.1538 26.4013L16.5353 31.8529L13.1891 33.3341C12.7066 33.5107 12.1267 33.4298 11.4965 33.1425C10.8661 32.8551 10.2157 32.374 9.62127 31.806C9.02791 31.2391 8.49935 30.5941 8.11054 29.9889Z" fill="#A9C6D6" stroke="black" stroke-width="0.480918"/>
<path d="M7.99575 13.7393L4.52949 18.937C4.24773 15.3891 6.17066 11.1202 8.96181 8.78113L7.99575 13.7393Z" fill="#A9C6D6" stroke="black" stroke-width="0.480918"/>
<path d="M22.1649 21.3503L24.1832 13.9113L27.2501 6.44177C27.2501 6.44177 33.6576 11.3036 28.7741 21.0234C23.8906 30.7432 16.9143 31.8403 16.9143 31.8403L14.8296 29.7137L22.1649 21.3503Z" fill="white"/>
</g>
<path d="M22.0354 21.2622L24.1523 27.1807" stroke="black" stroke-width="0.499457" stroke-linecap="round"/>
<path d="M24.1523 13.8501L29.733 10.6915" stroke="black" stroke-width="0.499457" stroke-linecap="round"/>
<path d="M13.1059 11.7503L18.1697 9.30128L23.2336 11.7503L24.4846 17.2547L20.9797 21.6684H15.3598L11.8549 17.2547L13.1059 11.7503Z" fill="#A9C6D6" stroke="black" stroke-width="0.480918"/>
</svg>
