<svg width="43" height="35" viewBox="0 0 43 35" fill="none" xmlns="http://www.w3.org/2000/svg">
<g style="mix-blend-mode:multiply" opacity="0.7">
<ellipse cx="22.59" cy="27.0746" rx="19.359" ry="7.26164" transform="rotate(1.334 22.59 27.0746)" fill="black"/>
</g>
<ellipse cx="16.9555" cy="27.2526" rx="8.74643" ry="2.70596" transform="rotate(1.334 16.9555 27.2526)" fill="#232326"/>
<path d="M30.0471 16.0503C30.0471 16.0503 31.3409 15.6034 32.1658 15.2775C32.4122 15.1054 32.7403 14.9956 33.0701 14.9149C33.6577 14.7012 34.2392 14.5365 34.4261 14.467C34.4919 14.702 33.7771 14.7418 33.0701 14.9149C32.8846 14.9823 32.6985 15.0546 32.524 15.1304C32.4221 15.1746 32.3002 15.2244 32.1658 15.2775C31.9765 15.4098 31.8354 15.5788 31.7788 15.7999C31.4185 17.2066 33.3305 19.5464 32.7484 21.9231C32.7484 21.9231 26.8646 28.8144 22.7562 29.3445C18.6479 29.8746 12.8854 22.466 12.9677 22.0543C13.0706 21.5396 20.2558 15.1361 20.2558 15.1361L26.0028 10.2812L30.0471 16.0503Z" fill="#232326"/>
<path d="M3.23471 7.23702C-1.42969 15.5499 2.73717 23.3287 4.36694 25.5418C5.4992 28.9042 13.2927 20.415 16.3806 17.1554C19.1598 14.2219 23.438 12.7496 26.1028 11.0112C30.6593 9.58388 33.5531 8.30674 33.2909 7.23702C33.0287 6.16731 30.8719 7.23702 29.0192 7.23702C28.8333 7.23702 28.657 7.23019 28.4909 7.2178C27.1854 7.12043 26.3928 5.93918 25.5411 4.94503C20.4901 -0.950503 8.02153 -1.29405 3.23471 7.23702Z" fill="#A9C6D6" stroke="black" stroke-width="0.607372"/>
<path d="M19.4348 10.4156C20.9458 11.868 22.9216 11.7268 23.7207 11.4746L18.9263 14.1979C7.18744 21.46 6.13119 24.2864 6.59125 26.0263C6.59125 26.0263 5.4245 26.8455 4.99008 26.1629C4.55565 25.4802 -2.55767 16.1026 4.54329 7.08708C8.98626 1.4462 17.5462 8.60002 19.4348 10.4156Z" fill="white"/>
<path d="M16.3789 14.2618C21.1652 10.7743 32.792 6.28654 33.0283 7.31048C33.2122 8.17701 30.339 9.53892 27.3819 10.4886C24.9167 11.2803 25.7936 11.5141 25.7936 11.5141C21.5448 15.9059 5.96012 28.6494 5.34801 26.099C4.62747 23.0968 13.0876 16.6599 16.3789 14.2618Z" fill="#232326"/>
<path d="M5.18247 23.115C3.587 21.09 6.06891 17.7647 7.39847 17.1821C10.3391 14.9882 14.2129 16.1564 14.2129 16.1564C14.2129 16.1564 15.5337 19.1608 18.5969 21.1297C18.5031 27.3088 18.6069 29.656 19.2549 30.725C5.46776 29.4514 7.17681 25.6464 5.18247 23.115Z" fill="#A9C6D6" stroke="black" stroke-width="0.0394396"/>
<path d="M18.4678 29.8771C18.4678 29.8771 18.1683 26.3259 18.1797 23.0783L18.13 21.6614C18.13 21.6614 17.3686 21.122 16.3849 20.088C15.4011 19.0539 13.9572 17.7853 13.9572 17.7853C11.7814 15.8634 10.1057 17.5581 7.79354 23.5843C5.48141 29.6105 18.4678 29.8771 18.4678 29.8771Z" fill="#232326"/>
<path d="M10.5965 13.8172C12.855 13.4579 14.1191 15.67 14.628 17.0767L13.8732 17.6943C13.3414 17.0653 11.8454 15.9582 10.1162 17.2483C8.38692 18.5384 7.55015 18.561 8.27067 19.19L7.5126 20.9715C7.23491 20.6881 7.0627 20.485 6.96142 20.3429C5.42772 21.0182 5.70263 22.4485 6.0332 23.0811L7.0066 26.0125L9.84891 28.6759L5.25749 26.3504C4.59415 26.1846 2.80455 22.2885 2.51635 20.4907C2.21661 18.6207 9.08681 14.0574 10.5965 13.8172Z" fill="#A9C6D6"/>
<circle r="0.899672" transform="matrix(-1 0 0 1 11.2029 15.3245)" fill="#232326"/>
<circle r="0.923566" transform="matrix(-1 0 0 1 4.45827 20.5036)" fill="#232326"/>
<path fill-rule="evenodd" clip-rule="evenodd" d="M31.5096 15.2409L18.7687 20.6849C18.4147 20.8361 18.1919 21.1915 18.21 21.576L18.6088 30.0459C18.5402 32.0222 26.6775 31.3269 30.8062 30.7322C34.1824 30.1146 35.2323 29.0338 35.2838 28.5706L36.7906 24.7828C37.0305 24.1798 37.1541 23.5366 37.1799 22.8881C37.1991 22.4051 37.2265 21.8422 37.2534 21.2883L37.2534 21.2879L37.2534 21.2874C37.3058 20.2085 37.3566 19.1635 37.3424 18.8092C37.3177 18.1906 36.8915 15.6064 36.6192 14.06C36.5675 13.7663 36.3615 13.5535 36.0688 13.611C35.0449 13.8123 32.7398 14.7217 31.5096 15.2409ZM19.0383 29.1399L18.8614 25.1899C20.9829 24.981 27.1975 23.2382 32.6761 21.0399V25.3847C30.655 26.1763 28.0384 27.0727 25.0807 27.8028C24.9571 27.8334 24.7956 27.8737 24.6049 27.9214C23.1479 28.2857 19.9881 29.0756 19.0383 29.1399ZM19.0693 29.6749C19.1548 30.1612 19.658 30.819 21.3711 30.819C21.4923 30.819 21.6425 30.8199 21.8181 30.821C23.4868 30.8314 27.4473 30.8562 30.6426 30.2248L32.521 26.2083C27.8213 27.8873 22.8609 28.9 19.904 29.5037C19.6044 29.5649 19.3254 29.6219 19.0693 29.6749ZM33.0237 26.0258L31.2745 30.0886C32.8436 29.7203 34.1607 29.1699 34.8209 28.3486L36.4882 24.5734C35.3803 25.104 34.213 25.5867 33.0237 26.0258ZM36.6719 23.6104L36.8967 19.3249L36.8739 19.1729C35.7117 19.7549 34.4257 20.3271 33.0879 20.8733V25.2217C34.861 24.5118 36.1206 23.9054 36.6719 23.6104ZM23.5842 23.5788C22.5666 23.9892 19.8364 24.5689 18.8358 24.6183L18.704 21.675C18.6984 21.55 18.7671 21.4335 18.8794 21.3783C21.8243 19.9308 24.9735 18.5965 27.9759 17.3692C29.1061 16.8359 30.3616 16.2733 31.5427 15.7707L32.639 20.5508C30.1515 21.5605 26.8719 22.7499 23.5842 23.5788ZM33.0498 20.3827C34.9776 19.5879 36.3641 18.9291 36.8011 18.6876L36.1491 14.3409C36.1336 14.2377 36.0695 14.1534 35.9656 14.1628C35.4323 14.2108 33.7945 14.8228 31.9061 15.6169L33.0498 20.3827Z" fill="white"/>
<path d="M25.7535 11.478L26.5523 11.1875L30.1299 16.1677L28.9616 16.5981L25.7535 11.478Z" fill="white"/>
</svg>
