<svg width="38" height="35" viewBox="0 0 38 35" fill="none" xmlns="http://www.w3.org/2000/svg">
<g style="mix-blend-mode:multiply" opacity="0.7">
<ellipse cx="22.5048" cy="29.9394" rx="14.8115" ry="5.03505" fill="black"/>
</g>
<path d="M35.85 16.6432C35.85 25.313 28.6573 32.3591 19.7627 32.3591C10.868 32.3591 3.67539 25.313 3.67539 16.6432C3.67539 7.97337 10.868 0.927342 19.7627 0.927342C28.6573 0.927342 35.85 7.97337 35.85 16.6432Z" fill="#A9C6D6" stroke="black" stroke-width="0.921091"/>
<path d="M7.57069 9.12545C3.80972 13.2463 3.80475 19.2896 7.46516 22.6304C11.1256 25.9711 17.1433 25.4155 20.9043 21.2946C24.6652 17.1738 24.6702 11.1305 21.0098 7.78971C17.3494 4.44896 11.3317 5.00461 7.57069 9.12545Z" fill="white" stroke="black" stroke-width="0.614061"/>
<path d="M9.95169 17.9599L9.00685 16.9982C8.71043 16.6965 8.5633 16.4242 8.56544 16.1812C8.56758 15.9382 8.71479 15.6731 9.00706 15.386L9.65759 14.7468C9.95929 14.4504 10.2411 14.294 10.5029 14.2776C10.7647 14.2613 11.0439 14.4039 11.3403 14.7056L12.2851 15.6673C12.5815 15.969 12.7193 16.2506 12.6983 16.5121C12.6773 16.7736 12.5159 17.0526 12.2142 17.349L11.5637 17.9881C11.2714 18.2753 11.0038 18.4178 10.7608 18.4156C10.5178 18.4135 10.2481 18.2616 9.95169 17.9599ZM13.6852 14.2917L12.7403 13.33C12.4439 13.0283 12.3062 12.7467 12.3272 12.4852C12.3482 12.2237 12.5096 11.9447 12.8113 11.6483L13.4052 11.0648C13.6975 10.7776 13.9651 10.6351 14.2081 10.6372C14.4511 10.6394 14.7208 10.7913 15.0172 11.093L15.9621 12.0547C16.2585 12.3564 16.4056 12.6287 16.4035 12.8717C16.4013 13.1147 16.2541 13.3797 15.9618 13.6669L15.3679 14.2505C15.0662 14.5469 14.7844 14.7033 14.5226 14.7197C14.2607 14.736 13.9816 14.5934 13.6852 14.2917ZM7.20137 18.244L8.6742 19.7431C9.41525 20.4973 10.1688 20.8965 10.9348 20.9407C11.701 20.9661 12.447 20.6222 13.173 19.909L13.8235 19.2698C14.6909 18.4176 14.9556 17.5461 14.6177 16.6552C15.4836 17.0273 16.3644 16.7734 17.26 15.8934L17.8681 15.2959C18.5941 14.5827 18.9464 13.8474 18.925 13.0902C18.8944 12.3235 18.5086 11.5631 17.7675 10.8088L16.2947 9.30979C15.5629 8.56497 14.8187 8.17521 14.0619 8.14049C13.2959 8.09635 12.5499 8.4309 11.824 9.14416L11.2159 9.74163C10.7727 10.177 10.479 10.6324 10.3346 11.1078C10.1902 11.5831 10.2099 11.9992 10.3937 12.356C9.54645 11.984 8.67029 12.2427 7.7652 13.1319L7.12881 13.7572C6.40285 14.4704 6.05047 15.215 6.07166 15.991C6.09302 16.7482 6.46959 17.4992 7.20137 18.244Z" fill="#151D22"/>
</svg>
