<svg width="43" height="43" viewBox="0 0 43 43" fill="none" xmlns="http://www.w3.org/2000/svg">
<g filter="url(#filter0_d_1955_5038)">
<g style="mix-blend-mode:multiply" opacity="0.7">
<ellipse cx="23.5048" cy="29.9394" rx="14.8115" ry="5.03505" fill="black"/>
</g>
<path d="M36.85 16.6432C36.85 25.313 29.6573 32.3591 20.7627 32.3591C11.868 32.3591 4.67539 25.313 4.67539 16.6432C4.67539 7.97337 11.868 0.927342 20.7627 0.927342C29.6573 0.927342 36.85 7.97337 36.85 16.6432Z" fill="#A9C6D6" stroke="black" stroke-width="0.921091"/>
<path d="M8.57069 9.12545C4.80972 13.2463 4.80475 19.2896 8.46516 22.6304C12.1256 25.9711 18.1433 25.4155 21.9043 21.2946C25.6652 17.1738 25.6702 11.1305 22.0098 7.78971C18.3494 4.44896 12.3317 5.00461 8.57069 9.12545Z" fill="white" stroke="black" stroke-width="0.614061"/>
<path d="M10.9517 17.9599L10.0069 16.9982C9.71043 16.6965 9.5633 16.4242 9.56544 16.1812C9.56758 15.9382 9.71479 15.6731 10.0071 15.386L10.6576 14.7468C10.9593 14.4504 11.2411 14.294 11.5029 14.2776C11.7647 14.2613 12.0439 14.4039 12.3403 14.7056L13.2851 15.6673C13.5815 15.969 13.7193 16.2506 13.6983 16.5121C13.6773 16.7736 13.5159 17.0526 13.2142 17.349L12.5637 17.9881C12.2714 18.2753 12.0038 18.4178 11.7608 18.4156C11.5178 18.4135 11.2481 18.2616 10.9517 17.9599ZM14.6852 14.2917L13.7403 13.33C13.4439 13.0283 13.3062 12.7467 13.3272 12.4852C13.3482 12.2237 13.5096 11.9447 13.8113 11.6483L14.4052 11.0648C14.6975 10.7776 14.9651 10.6351 15.2081 10.6372C15.4511 10.6394 15.7208 10.7913 16.0172 11.093L16.9621 12.0547C17.2585 12.3564 17.4056 12.6287 17.4035 12.8717C17.4013 13.1147 17.2541 13.3797 16.9618 13.6669L16.3679 14.2505C16.0662 14.5469 15.7844 14.7033 15.5226 14.7197C15.2607 14.736 14.9816 14.5934 14.6852 14.2917ZM8.20137 18.244L9.6742 19.7431C10.4153 20.4973 11.1688 20.8965 11.9348 20.9407C12.701 20.9661 13.447 20.6222 14.173 19.909L14.8235 19.2698C15.6909 18.4176 15.9556 17.5461 15.6177 16.6552C16.4836 17.0273 17.3644 16.7734 18.26 15.8934L18.8681 15.2959C19.5941 14.5827 19.9464 13.8474 19.925 13.0902C19.8944 12.3235 19.5086 11.5631 18.7675 10.8088L17.2947 9.30979C16.5629 8.56497 15.8187 8.17521 15.0619 8.14049C14.2959 8.09635 13.5499 8.4309 12.824 9.14416L12.2159 9.74163C11.7727 10.177 11.479 10.6324 11.3346 11.1078C11.1902 11.5831 11.2099 11.9992 11.3937 12.356C10.5465 11.984 9.67029 12.2427 8.7652 13.1319L8.12881 13.7572C7.40285 14.4704 7.05047 15.215 7.07166 15.991C7.09302 16.7482 7.46959 17.4992 8.20137 18.244Z" fill="#151D22"/>
</g>
<defs>
<filter id="filter0_d_1955_5038" x="0.214844" y="0.466797" width="42.1016" height="42.5078" filterUnits="userSpaceOnUse" color-interpolation-filters="sRGB">
<feFlood flood-opacity="0" result="BackgroundImageFix"/>
<feColorMatrix in="SourceAlpha" type="matrix" values="0 0 0 0 0 0 0 0 0 0 0 0 0 0 0 0 0 0 127 0" result="hardAlpha"/>
<feOffset dy="4"/>
<feGaussianBlur stdDeviation="2"/>
<feComposite in2="hardAlpha" operator="out"/>
<feColorMatrix type="matrix" values="0 0 0 0 0 0 0 0 0 0 0 0 0 0 0 0 0 0 0.25 0"/>
<feBlend mode="normal" in2="BackgroundImageFix" result="effect1_dropShadow_1955_5038"/>
<feBlend mode="normal" in="SourceGraphic" in2="effect1_dropShadow_1955_5038" result="shape"/>
</filter>
</defs>
</svg>
