<svg width="39" height="38" viewBox="0 0 39 38" fill="none" xmlns="http://www.w3.org/2000/svg">
<path d="M31.4808 26.3881L21.6272 9.14432C21.4124 8.76521 21.1008 8.44988 20.7243 8.23049C20.3478 8.0111 19.9198 7.89551 19.4841 7.89551C19.0483 7.89551 18.6204 8.0111 18.2439 8.23049C17.8673 8.44988 17.5558 8.76521 17.3409 9.14432L7.48732 26.3881C7.27015 26.7642 7.15627 27.1911 7.15723 27.6254C7.15819 28.0597 7.27396 28.486 7.49279 28.8612C7.71163 29.2363 8.02575 29.5469 8.40333 29.7616C8.7809 29.9762 9.20851 30.0871 9.64279 30.0832H29.35C29.7822 30.0828 30.2067 29.9687 30.5808 29.7523C30.955 29.5359 31.2656 29.2249 31.4815 28.8504C31.6974 28.476 31.811 28.0514 31.8109 27.6192C31.8108 27.187 31.6969 26.7624 31.4808 26.3881Z" stroke="white" stroke-width="1.73887" stroke-linecap="round" stroke-linejoin="round"/>
<path d="M19.4971 15.3027V20.2295" stroke="white" stroke-width="1.73887" stroke-linecap="round" stroke-linejoin="round"/>
<path d="M19.4971 25.1562H19.5089" stroke="white" stroke-width="1.73887" stroke-linecap="round" stroke-linejoin="round"/>
</svg>
