<svg width="36" height="45" viewBox="0 0 36 45" fill="none" xmlns="http://www.w3.org/2000/svg">
<path d="M17.7009 18.2696L19.4724 8.96924L34.5302 12.9551L17.7009 18.2696L13.715 35.9847L8.84335 21.3698L0.428711 24.027L7.07185 16.0553L8.84335 21.3698L17.7009 18.2696Z" fill="white"/>
<path d="M21.2439 28.4558L24.7869 24.9128L30.9871 30.2273L21.2439 28.4558Z" fill="white"/>
<path d="M17.7009 18.2696L19.4724 8.96924L34.5302 12.9551L17.7009 18.2696ZM17.7009 18.2696L8.84335 21.3698M17.7009 18.2696L13.715 35.9847L8.84335 21.3698M8.84335 21.3698L0.428711 24.027L7.07185 16.0553L8.84335 21.3698ZM24.7869 24.9128L21.2439 28.4558L30.9871 30.2273L24.7869 24.9128Z" stroke="black" stroke-width="0.442876" stroke-linejoin="round"/>
<path d="M8.84335 21.3699L4.85746 6.75495L17.7009 18.2697L34.973 12.9552L24.7869 24.47L17.7009 18.2697L8.84335 21.3699L10.172 26.2415L0.871582 24.0271L8.84335 21.3699Z" fill="#D9D9D9"/>
<path d="M14.1579 8.08358L19.4724 8.96933L21.2439 0.554688L14.1579 8.08358Z" fill="#D9D9D9"/>
<path d="M8.84335 21.3699L4.85746 6.75495L17.7009 18.2697M8.84335 21.3699L17.7009 18.2697M8.84335 21.3699L10.172 26.2415L0.871582 24.0271L8.84335 21.3699ZM17.7009 18.2697L24.7869 24.47L34.973 12.9552L17.7009 18.2697ZM19.4724 8.96933L14.1579 8.08358L21.2439 0.554688L19.4724 8.96933Z" stroke="black" stroke-width="0.442876" stroke-linejoin="round"/>
<path d="M17.7008 18.2697L4.85742 6.75495L19.4723 8.96933L21.2438 0.554688L25.2297 10.298L19.4723 8.96933L17.7008 18.2697L24.7868 24.47L28.3298 20.4841L30.9871 30.2274L24.7868 24.47L13.7149 35.9848L17.7008 18.2697Z" fill="#1ADAB7"/>
<path d="M17.7008 18.2697L4.85742 6.75495L19.4723 8.96933M17.7008 18.2697L19.4723 8.96933M17.7008 18.2697L13.7149 35.9848L24.7868 24.47M17.7008 18.2697L24.7868 24.47M19.4723 8.96933L21.2438 0.554688L25.2297 10.298L19.4723 8.96933ZM24.7868 24.47L30.9871 30.2274L28.3298 20.4841L24.7868 24.47Z" stroke="black" stroke-width="0.442876" stroke-linejoin="round"/>
<ellipse cx="18.3363" cy="42.9159" rx="6.28505" ry="1.84855" fill="#1F1404"/>
</svg>
