<svg width="48" height="46" viewBox="0 0 48 46" fill="none" xmlns="http://www.w3.org/2000/svg">
<path d="M21.9443 2.25254C22.543 0.409914 25.1498 0.409918 25.7485 2.25254L29.8582 14.9009C30.126 15.725 30.8939 16.2829 31.7603 16.2829H45.0597C46.9971 16.2829 47.8026 18.7621 46.2352 19.9009L35.4758 27.7181C34.7749 28.2274 34.4816 29.1301 34.7493 29.9541L38.859 42.6025C39.4577 44.4452 37.3488 45.9774 35.7813 44.8386L25.022 37.0215C24.321 36.5122 23.3718 36.5122 22.6708 37.0215L11.9115 44.8386C10.344 45.9774 8.23507 44.4452 8.83378 42.6025L12.9435 29.9541C13.2112 29.1301 12.9179 28.2274 12.2169 27.7181L1.45758 19.9009C-0.109848 18.7621 0.695705 16.2829 2.63315 16.2829H15.9325C16.7989 16.2829 17.5668 15.725 17.8346 14.9009L21.9443 2.25254Z" fill="#EFAF4E"/>
</svg>
