<svg width="18" height="18" viewBox="0 0 18 18" fill="none" xmlns="http://www.w3.org/2000/svg">
<g id="Group 1244832657">
<path id="Subtract" fill-rule="evenodd" clip-rule="evenodd" d="M9 18C13.9706 18 18 13.9706 18 9C18 4.02944 13.9706 0 9 0C4.02944 0 0 4.02944 0 9C0 13.9706 4.02944 18 9 18ZM9.00038 12.1878C10.7606 12.1878 12.1876 10.7608 12.1876 9.00061C12.1876 7.24037 10.7606 5.81342 9.00038 5.81342C7.24014 5.81342 5.81319 7.24037 5.81319 9.00061C5.81319 10.7608 7.24014 12.1878 9.00038 12.1878Z" fill="#232326"/>
<path id="Subtract_2" fill-rule="evenodd" clip-rule="evenodd" d="M9.14508 16.2902C13.0912 16.2902 16.2902 13.0912 16.2902 9.14508C16.2902 5.19896 13.0912 2 9.14508 2C5.19896 2 2 5.19896 2 9.14508C2 13.0912 5.19896 16.2902 9.14508 16.2902ZM9.14505 11.6758C10.5425 11.6758 11.6754 10.543 11.6754 9.14554C11.6754 7.74809 10.5425 6.61523 9.14505 6.61523C7.7476 6.61523 6.61475 7.74809 6.61475 9.14554C6.61475 10.543 7.7476 11.6758 9.14505 11.6758Z" fill="#62E3C4"/>
</g>
</svg>
