<svg width="59" height="69" viewBox="0 0 59 69" fill="none" xmlns="http://www.w3.org/2000/svg">
<circle cx="27.9565" cy="39.4135" r="3.2651" fill="#91E9E9"/>
<rect width="44.3669" height="23.2397" rx="1.63255" transform="matrix(0.866025 -0.5 0.866025 0.5 0 57.0078)" fill="black"/>
<path d="M19.2862 21.3387C17.4727 22.3647 15.9928 24.9109 15.9928 27.0051L15.9928 62.997C15.9928 64.0476 16.3729 64.8309 17.0414 65.1577L19.243 66.2341C19.8955 66.5531 20.7656 66.4091 21.6521 65.8353L52.0275 46.1753C53.7007 45.0924 55.0245 42.7655 55.0888 40.7942L56.2326 5.75678C56.2703 4.6018 55.8636 3.74411 55.1256 3.422L53.6808 2.79141C53.0943 2.53545 52.3426 2.63748 51.5623 3.07897L19.2862 21.3387Z" fill="#EFD8D2" stroke="black"/>
<rect x="-0.433013" y="-0.25" width="43.9299" height="42.9122" rx="3.7651" transform="matrix(0.866025 -0.5 2.20305e-08 1 19.0357 24.7171)" fill="#F79780" stroke="black"/>
<path opacity="0.1" fill-rule="evenodd" clip-rule="evenodd" d="M47.8268 15.4911C47.8268 15.2206 47.6369 15.111 47.4027 15.2462C47.1684 15.3814 46.9785 15.7104 46.9785 15.9808L46.9785 44.376C46.9785 44.6465 47.1684 44.7561 47.4027 44.6209C47.6369 44.4857 47.8268 44.1567 47.8268 43.8862L47.8268 15.4911ZM28.9808 26.0157C29.215 25.8805 29.4049 25.9901 29.4049 26.2606L29.4049 54.6558C29.4049 54.9263 29.215 55.2552 28.9808 55.3904C28.7465 55.5257 28.5566 55.416 28.5566 55.1455L28.5566 26.7504C28.5566 26.4799 28.7465 26.151 28.9808 26.0157ZM38.1917 21.336C38.426 21.2008 38.6159 21.3104 38.6159 21.5809L38.6159 49.9761C38.6159 50.2466 38.426 50.5755 38.1917 50.7107C37.9575 50.846 37.7676 50.7363 37.7676 50.4659L37.7676 22.0707C37.7676 21.8002 37.9575 21.4713 38.1917 21.336Z" fill="black"/>
<path d="M29.0391 41.319C36.4674 59.8899 39.8845 37.4564 44.7872 22.7481C45.3241 21.1372 45.956 19.7104 46.6589 18.4727" stroke="black" stroke-width="0.979531" stroke-linecap="round" stroke-linejoin="round"/>
<circle cx="46.7174" cy="18.3854" r="2.97134" fill="#FFCCBF"/>
</svg>
