<svg width="18" height="18" viewBox="0 0 18 18" fill="none" xmlns="http://www.w3.org/2000/svg">
<g clip-path="url(#clip0_866_14764)">
<path d="M18 7.5V10.5C18 11.3274 17.3274 12 16.5 12H16.092C15.5178 15.3996 12.561 18 9 18C8.84087 18 8.68826 17.9368 8.57574 17.8243C8.46321 17.7117 8.4 17.5591 8.4 17.4C8.4 17.2409 8.46321 17.0883 8.57574 16.9757C8.68826 16.8632 8.84087 16.8 9 16.8C12.3084 16.8 15 14.1084 15 10.8V7.2C15 3.8916 12.3084 1.2 9 1.2C5.6916 1.2 3 3.8916 3 7.2V11.4C3 11.5591 2.93679 11.7117 2.82426 11.8243C2.71174 11.9368 2.55913 12 2.4 12H1.5C1.10227 11.9997 0.720927 11.8415 0.439691 11.5603C0.158455 11.2791 0.000317801 10.8977 0 10.5V7.5C0 6.6726 0.6726 6 1.5 6H1.908C2.4828 2.6004 5.4396 0 9 0C12.5604 0 15.5178 2.6004 16.092 6H16.5C17.3274 6 18 6.6726 18 7.5ZM9 2.4C6.3534 2.4 4.2 4.5534 4.2 7.2V10.2C4.2 12.8466 6.3534 15 9 15C11.6466 15 13.8 12.8466 13.8 10.2V7.2C13.8 4.5534 11.6466 2.4 9 2.4Z" fill="#A6A6AC"/>
</g>
<defs>
<clipPath id="clip0_866_14764">
<rect width="18" height="18" fill="white"/>
</clipPath>
</defs>
</svg>
