<svg width="125" height="32" viewBox="0 0 125 32" fill="none" xmlns="http://www.w3.org/2000/svg">
<path d="M12.2846 30.4756H9.42859C8.92993 30.4756 8.68059 30.2376 8.68059 29.7616V12.7276C8.68059 12.4783 8.55593 12.3536 8.30659 12.3536H4.43059C3.95459 12.3536 3.71659 12.1156 3.71659 11.6396V9.32758C3.71659 8.85159 3.95459 8.61359 4.43059 8.61359H17.2826C17.7586 8.61359 17.9966 8.85159 17.9966 9.32758V11.6396C17.9966 12.1156 17.7586 12.3536 17.2826 12.3536H13.4066C13.1346 12.3536 12.9986 12.4783 12.9986 12.7276V29.7616C12.9986 30.2376 12.7606 30.4756 12.2846 30.4756ZM26.3388 30.4756H25.5228C23.7321 30.4756 22.3495 29.9996 21.3748 29.0476C20.4001 28.0956 19.9128 26.7243 19.9128 24.9336V18.6776C19.9128 16.8869 20.4001 15.5156 21.3748 14.5636C22.3495 13.6116 23.7321 13.1356 25.5228 13.1356H33.3768C33.8755 13.1356 34.1248 13.3736 34.1248 13.8496V29.7616C34.1248 30.2376 33.8755 30.4756 33.3768 30.4756H30.5208C30.0448 30.4756 29.8068 30.2376 29.8068 29.7616V28.6396H29.6708C29.4215 29.2516 28.9795 29.7163 28.3448 30.0336C27.7101 30.3283 27.0415 30.4756 26.3388 30.4756ZM29.8068 24.1516V17.2496C29.8068 17.0003 29.6708 16.8756 29.3988 16.8756H26.2028C25.4775 16.8756 24.9675 17.0343 24.6728 17.3516C24.3781 17.6463 24.2308 18.1563 24.2308 18.8816V24.7296C24.2308 25.4549 24.3781 25.9763 24.6728 26.2936C24.9675 26.5883 25.4775 26.7356 26.2028 26.7356H27.4608C29.0248 26.7356 29.8068 25.8743 29.8068 24.1516ZM41.4545 30.4756H38.5645C38.0885 30.4756 37.8505 30.2376 37.8505 29.7616V13.8496C37.8505 13.3736 38.0885 13.1356 38.5645 13.1356H41.4545C41.9305 13.1356 42.1685 13.3736 42.1685 13.8496V14.9716H42.3045C42.5765 14.4276 43.0298 13.9856 43.6645 13.6456C44.3218 13.3056 45.0698 13.1356 45.9085 13.1356H46.8605C48.8325 13.1356 50.2491 13.8609 51.1105 15.3116C51.8811 13.8609 53.2071 13.1356 55.0885 13.1356H56.0745C57.8198 13.1356 59.1345 13.6116 60.0185 14.5636C60.9251 15.5156 61.3785 16.8869 61.3785 18.6776V29.7616C61.3785 30.2376 61.1405 30.4756 60.6645 30.4756H57.7745C57.2985 30.4756 57.0605 30.2376 57.0605 29.7616V18.8816C57.0605 18.1563 56.9131 17.6463 56.6185 17.3516C56.3238 17.0343 55.8138 16.8756 55.0885 16.8756H54.2385C52.6745 16.8756 51.8925 17.7483 51.8925 19.4936V29.7616C51.8925 30.2376 51.6431 30.4756 51.1445 30.4756H48.2885C47.8125 30.4756 47.5745 30.2376 47.5745 29.7616V18.8816C47.5745 18.1563 47.4158 17.6463 47.0985 17.3516C46.8038 17.0343 46.2938 16.8756 45.5685 16.8756H44.5145C42.9505 16.8756 42.1685 17.7369 42.1685 19.4596V29.7616C42.1685 30.2376 41.9305 30.4756 41.4545 30.4756ZM69.6694 26.7356H73.1374C73.8628 26.7356 74.3728 26.5883 74.6674 26.2936C74.9848 25.9763 75.1434 25.4549 75.1434 24.7296V18.8136C75.1434 18.0883 74.9848 17.5783 74.6674 17.2836C74.3728 16.9663 73.8628 16.8076 73.1374 16.8076H71.6414C70.0774 16.8076 69.2954 17.6689 69.2954 19.3916V26.3616C69.2954 26.6109 69.4201 26.7356 69.6694 26.7356ZM64.9774 29.7616V7.28758C64.9774 6.81159 65.2154 6.57359 65.6914 6.57359H68.5814C69.0574 6.57359 69.2954 6.81159 69.2954 7.28758V14.9376H69.4314C69.6808 14.3256 70.1228 13.8609 70.7574 13.5436C71.3921 13.2263 72.0608 13.0676 72.7634 13.0676H73.8514C75.6421 13.0676 77.0248 13.5436 77.9994 14.4956C78.9741 15.4476 79.4614 16.8189 79.4614 18.6096V24.9336C79.4614 26.7243 78.9741 28.0956 77.9994 29.0476C77.0248 29.9996 75.6421 30.4756 73.8514 30.4756H65.6914C65.2154 30.4756 64.9774 30.2376 64.9774 29.7616ZM91.1699 30.4756H88.1439C86.3532 30.4756 84.9706 29.9996 83.9959 29.0476C83.0212 28.0956 82.5339 26.7243 82.5339 24.9336V18.6776C82.5339 16.8869 83.0212 15.5156 83.9959 14.5636C84.9706 13.6116 86.3532 13.1356 88.1439 13.1356H91.1699C92.9379 13.1356 94.3092 13.6229 95.2839 14.5976C96.2812 15.5496 96.7799 16.9096 96.7799 18.6776V24.9336C96.7799 26.7016 96.2812 28.0729 95.2839 29.0476C94.3092 29.9996 92.9379 30.4756 91.1699 30.4756ZM88.7899 26.7696H90.5239C91.2492 26.7696 91.7592 26.6223 92.0539 26.3276C92.3712 26.0329 92.5299 25.5229 92.5299 24.7976V18.8136C92.5299 18.0883 92.3712 17.5783 92.0539 17.2836C91.7592 16.9889 91.2492 16.8416 90.5239 16.8416H88.7899C88.0646 16.8416 87.5546 16.9889 87.2599 17.2836C86.9652 17.5783 86.8179 18.0883 86.8179 18.8136V24.7976C86.8179 25.5229 86.9652 26.0329 87.2599 26.3276C87.5546 26.6223 88.0646 26.7696 88.7899 26.7696ZM103.947 30.4756H101.057C100.581 30.4756 100.343 30.2376 100.343 29.7616V7.28758C100.343 6.81159 100.581 6.57359 101.057 6.57359H103.947C104.423 6.57359 104.661 6.81159 104.661 7.28758V29.7616C104.661 30.2376 104.423 30.4756 103.947 30.4756ZM114.659 30.4756H113.843C112.052 30.4756 110.67 29.9996 109.695 29.0476C108.72 28.0956 108.233 26.7243 108.233 24.9336V18.6776C108.233 16.8869 108.72 15.5156 109.695 14.5636C110.67 13.6116 112.052 13.1356 113.843 13.1356H121.697C122.196 13.1356 122.445 13.3736 122.445 13.8496V29.7616C122.445 30.2376 122.196 30.4756 121.697 30.4756H118.841C118.365 30.4756 118.127 30.2376 118.127 29.7616V28.6396H117.991C117.742 29.2516 117.3 29.7163 116.665 30.0336C116.03 30.3283 115.362 30.4756 114.659 30.4756ZM118.127 24.1516V17.2496C118.127 17.0003 117.991 16.8756 117.719 16.8756H114.523C113.798 16.8756 113.288 17.0343 112.993 17.3516C112.698 17.6463 112.551 18.1563 112.551 18.8816V24.7296C112.551 25.4549 112.698 25.9763 112.993 26.2936C113.288 26.5883 113.798 26.7356 114.523 26.7356H115.781C117.345 26.7356 118.127 25.8743 118.127 24.1516Z" fill="#62E3C4"/>
<path d="M11.4584 29.1396H8.60242C8.10376 29.1396 7.85442 28.9016 7.85442 28.4256V11.3916C7.85442 11.1423 7.72976 11.0176 7.48042 11.0176H3.60442C3.12842 11.0176 2.89042 10.7796 2.89042 10.3036V7.99165C2.89042 7.51565 3.12842 7.27765 3.60442 7.27765H16.4564C16.9324 7.27765 17.1704 7.51565 17.1704 7.99165V10.3036C17.1704 10.7796 16.9324 11.0176 16.4564 11.0176H12.5804C12.3084 11.0176 12.1724 11.1423 12.1724 11.3916V28.4256C12.1724 28.9016 11.9344 29.1396 11.4584 29.1396ZM25.5126 29.1396H24.6966C22.906 29.1396 21.5233 28.6636 20.5486 27.7116C19.574 26.7596 19.0866 25.3883 19.0866 23.5976V17.3416C19.0866 15.551 19.574 14.1796 20.5486 13.2276C21.5233 12.2756 22.906 11.7996 24.6966 11.7996H32.5506C33.0493 11.7996 33.2986 12.0376 33.2986 12.5136V28.4256C33.2986 28.9016 33.0493 29.1396 32.5506 29.1396H29.6946C29.2186 29.1396 28.9806 28.9016 28.9806 28.4256V27.3036H28.8446C28.5953 27.9156 28.1533 28.3803 27.5186 28.6976C26.884 28.9923 26.2153 29.1396 25.5126 29.1396ZM28.9806 22.8156V15.9136C28.9806 15.6643 28.8446 15.5396 28.5726 15.5396H25.3766C24.6513 15.5396 24.1413 15.6983 23.8466 16.0156C23.552 16.3103 23.4046 16.8203 23.4046 17.5456V23.3936C23.4046 24.119 23.552 24.6403 23.8466 24.9576C24.1413 25.2523 24.6513 25.3996 25.3766 25.3996H26.6346C28.1986 25.3996 28.9806 24.5383 28.9806 22.8156ZM40.6283 29.1396H37.7383C37.2623 29.1396 37.0243 28.9016 37.0243 28.4256V12.5136C37.0243 12.0376 37.2623 11.7996 37.7383 11.7996H40.6283C41.1043 11.7996 41.3423 12.0376 41.3423 12.5136V13.6356H41.4783C41.7503 13.0916 42.2036 12.6496 42.8383 12.3096C43.4956 11.9696 44.2436 11.7996 45.0823 11.7996H46.0343C48.0063 11.7996 49.423 12.525 50.2843 13.9756C51.055 12.525 52.381 11.7996 54.2623 11.7996H55.2483C56.9936 11.7996 58.3083 12.2756 59.1923 13.2276C60.099 14.1796 60.5523 15.551 60.5523 17.3416V28.4256C60.5523 28.9016 60.3143 29.1396 59.8383 29.1396H56.9483C56.4723 29.1396 56.2343 28.9016 56.2343 28.4256V17.5456C56.2343 16.8203 56.087 16.3103 55.7923 16.0156C55.4976 15.6983 54.9876 15.5396 54.2623 15.5396H53.4123C51.8483 15.5396 51.0663 16.4123 51.0663 18.1576V28.4256C51.0663 28.9016 50.817 29.1396 50.3183 29.1396H47.4623C46.9863 29.1396 46.7483 28.9016 46.7483 28.4256V17.5456C46.7483 16.8203 46.5896 16.3103 46.2723 16.0156C45.9776 15.6983 45.4676 15.5396 44.7423 15.5396H43.6883C42.1243 15.5396 41.3423 16.401 41.3423 18.1236V28.4256C41.3423 28.9016 41.1043 29.1396 40.6283 29.1396ZM68.8433 25.3996H72.3113C73.0366 25.3996 73.5466 25.2523 73.8413 24.9576C74.1586 24.6403 74.3173 24.119 74.3173 23.3936V17.4776C74.3173 16.7523 74.1586 16.2423 73.8413 15.9476C73.5466 15.6303 73.0366 15.4716 72.3113 15.4716H70.8153C69.2513 15.4716 68.4693 16.333 68.4693 18.0556V25.0256C68.4693 25.275 68.5939 25.3996 68.8433 25.3996ZM64.1513 28.4256V5.95165C64.1513 5.47565 64.3893 5.23765 64.8653 5.23765H67.7553C68.2313 5.23765 68.4693 5.47565 68.4693 5.95165V13.6016H68.6053C68.8546 12.9896 69.2966 12.525 69.9313 12.2076C70.5659 11.8903 71.2346 11.7316 71.9373 11.7316H73.0253C74.8159 11.7316 76.1986 12.2076 77.1733 13.1596C78.1479 14.1116 78.6353 15.483 78.6353 17.2736V23.5976C78.6353 25.3883 78.1479 26.7596 77.1733 27.7116C76.1986 28.6636 74.8159 29.1396 73.0253 29.1396H64.8653C64.3893 29.1396 64.1513 28.9016 64.1513 28.4256ZM90.3437 29.1396H87.3177C85.5271 29.1396 84.1444 28.6636 83.1697 27.7116C82.1951 26.7596 81.7077 25.3883 81.7077 23.5976V17.3416C81.7077 15.551 82.1951 14.1796 83.1697 13.2276C84.1444 12.2756 85.5271 11.7996 87.3177 11.7996H90.3437C92.1117 11.7996 93.4831 12.287 94.4577 13.2616C95.4551 14.2136 95.9537 15.5736 95.9537 17.3416V23.5976C95.9537 25.3656 95.4551 26.737 94.4577 27.7116C93.4831 28.6636 92.1117 29.1396 90.3437 29.1396ZM87.9637 25.4336H89.6977C90.4231 25.4336 90.9331 25.2863 91.2277 24.9916C91.5451 24.697 91.7037 24.187 91.7037 23.4616V17.4776C91.7037 16.7523 91.5451 16.2423 91.2277 15.9476C90.9331 15.653 90.4231 15.5056 89.6977 15.5056H87.9637C87.2384 15.5056 86.7284 15.653 86.4337 15.9476C86.1391 16.2423 85.9917 16.7523 85.9917 17.4776V23.4616C85.9917 24.187 86.1391 24.697 86.4337 24.9916C86.7284 25.2863 87.2384 25.4336 87.9637 25.4336ZM103.121 29.1396H100.231C99.7546 29.1396 99.5166 28.9016 99.5166 28.4256V5.95165C99.5166 5.47565 99.7546 5.23765 100.231 5.23765H103.121C103.597 5.23765 103.835 5.47565 103.835 5.95165V28.4256C103.835 28.9016 103.597 29.1396 103.121 29.1396ZM113.833 29.1396H113.017C111.226 29.1396 109.844 28.6636 108.869 27.7116C107.894 26.7596 107.407 25.3883 107.407 23.5976V17.3416C107.407 15.551 107.894 14.1796 108.869 13.2276C109.844 12.2756 111.226 11.7996 113.017 11.7996H120.871C121.37 11.7996 121.619 12.0376 121.619 12.5136V28.4256C121.619 28.9016 121.37 29.1396 120.871 29.1396H118.015C117.539 29.1396 117.301 28.9016 117.301 28.4256V27.3036H117.165C116.916 27.9156 116.474 28.3803 115.839 28.6976C115.204 28.9923 114.536 29.1396 113.833 29.1396ZM117.301 22.8156V15.9136C117.301 15.6643 117.165 15.5396 116.893 15.5396H113.697C112.972 15.5396 112.462 15.6983 112.167 16.0156C111.872 16.3103 111.725 16.8203 111.725 17.5456V23.3936C111.725 24.119 111.872 24.6403 112.167 24.9576C112.462 25.2523 112.972 25.3996 113.697 25.3996H114.955C116.519 25.3996 117.301 24.5383 117.301 22.8156Z" fill="#232326"/>
<path d="M9.476 28.0098H6.62C6.12133 28.0098 5.872 27.7718 5.872 27.2958V10.2618C5.872 10.0124 5.74733 9.88776 5.498 9.88776H1.622C1.146 9.88776 0.908 9.64976 0.908 9.17376V6.86176C0.908 6.38577 1.146 6.14777 1.622 6.14777H14.474C14.95 6.14777 15.188 6.38577 15.188 6.86176V9.17376C15.188 9.64976 14.95 9.88776 14.474 9.88776H10.598C10.326 9.88776 10.19 10.0124 10.19 10.2618V27.2958C10.19 27.7718 9.952 28.0098 9.476 28.0098ZM23.5302 28.0098H22.7142C20.9236 28.0098 19.5409 27.5338 18.5662 26.5818C17.5916 25.6298 17.1042 24.2584 17.1042 22.4678V16.2118C17.1042 14.4211 17.5916 13.0498 18.5662 12.0978C19.5409 11.1458 20.9236 10.6698 22.7142 10.6698H30.5682C31.0669 10.6698 31.3162 10.9078 31.3162 11.3838V27.2958C31.3162 27.7718 31.0669 28.0098 30.5682 28.0098H27.7122C27.2362 28.0098 26.9982 27.7718 26.9982 27.2958V26.1738H26.8622C26.6129 26.7858 26.1709 27.2504 25.5362 27.5678C24.9016 27.8624 24.2329 28.0098 23.5302 28.0098ZM26.9982 21.6858V14.7838C26.9982 14.5344 26.8622 14.4098 26.5902 14.4098H23.3942C22.6689 14.4098 22.1589 14.5684 21.8642 14.8858C21.5696 15.1804 21.4222 15.6904 21.4222 16.4158V22.2638C21.4222 22.9891 21.5696 23.5104 21.8642 23.8278C22.1589 24.1224 22.6689 24.2698 23.3942 24.2698H24.6522C26.2162 24.2698 26.9982 23.4084 26.9982 21.6858ZM38.6459 28.0098H35.7559C35.2799 28.0098 35.0419 27.7718 35.0419 27.2958V11.3838C35.0419 10.9078 35.2799 10.6698 35.7559 10.6698H38.6459C39.1219 10.6698 39.3599 10.9078 39.3599 11.3838V12.5058H39.4959C39.7679 11.9618 40.2212 11.5198 40.8559 11.1798C41.5132 10.8398 42.2612 10.6698 43.0999 10.6698H44.0519C46.0239 10.6698 47.4405 11.3951 48.3019 12.8458C49.0725 11.3951 50.3985 10.6698 52.2799 10.6698H53.2659C55.0112 10.6698 56.3259 11.1458 57.2099 12.0978C58.1165 13.0498 58.5699 14.4211 58.5699 16.2118V27.2958C58.5699 27.7718 58.3319 28.0098 57.8559 28.0098H54.9659C54.4899 28.0098 54.2519 27.7718 54.2519 27.2958V16.4158C54.2519 15.6904 54.1045 15.1804 53.8099 14.8858C53.5152 14.5684 53.0052 14.4098 52.2799 14.4098H51.4299C49.8659 14.4098 49.0839 15.2824 49.0839 17.0278V27.2958C49.0839 27.7718 48.8345 28.0098 48.3359 28.0098H45.4799C45.0039 28.0098 44.7659 27.7718 44.7659 27.2958V16.4158C44.7659 15.6904 44.6072 15.1804 44.2899 14.8858C43.9952 14.5684 43.4852 14.4098 42.7599 14.4098H41.7059C40.1419 14.4098 39.3599 15.2711 39.3599 16.9938V27.2958C39.3599 27.7718 39.1219 28.0098 38.6459 28.0098ZM66.8608 24.2698H70.3288C71.0542 24.2698 71.5642 24.1224 71.8588 23.8278C72.1762 23.5104 72.3348 22.9891 72.3348 22.2638V16.3478C72.3348 15.6224 72.1762 15.1124 71.8588 14.8178C71.5642 14.5004 71.0542 14.3418 70.3288 14.3418H68.8328C67.2688 14.3418 66.4868 15.2031 66.4868 16.9258V23.8958C66.4868 24.1451 66.6115 24.2698 66.8608 24.2698ZM62.1688 27.2958V4.82176C62.1688 4.34576 62.4068 4.10777 62.8828 4.10777H65.7728C66.2488 4.10777 66.4868 4.34576 66.4868 4.82176V12.4718H66.6228C66.8722 11.8598 67.3142 11.3951 67.9488 11.0778C68.5835 10.7604 69.2522 10.6018 69.9548 10.6018H71.0428C72.8335 10.6018 74.2162 11.0778 75.1908 12.0298C76.1655 12.9818 76.6528 14.3531 76.6528 16.1438V22.4678C76.6528 24.2584 76.1655 25.6298 75.1908 26.5818C74.2162 27.5338 72.8335 28.0098 71.0428 28.0098H62.8828C62.4068 28.0098 62.1688 27.7718 62.1688 27.2958ZM88.3613 28.0098H85.3353C83.5446 28.0098 82.162 27.5338 81.1873 26.5818C80.2126 25.6298 79.7253 24.2584 79.7253 22.4678V16.2118C79.7253 14.4211 80.2126 13.0498 81.1873 12.0978C82.162 11.1458 83.5446 10.6698 85.3353 10.6698H88.3613C90.1293 10.6698 91.5006 11.1571 92.4753 12.1318C93.4726 13.0838 93.9713 14.4438 93.9713 16.2118V22.4678C93.9713 24.2358 93.4726 25.6071 92.4753 26.5818C91.5006 27.5338 90.1293 28.0098 88.3613 28.0098ZM85.9813 24.3038H87.7153C88.4406 24.3038 88.9506 24.1564 89.2453 23.8618C89.5626 23.5671 89.7213 23.0571 89.7213 22.3318V16.3478C89.7213 15.6224 89.5626 15.1124 89.2453 14.8178C88.9506 14.5231 88.4406 14.3758 87.7153 14.3758H85.9813C85.256 14.3758 84.746 14.5231 84.4513 14.8178C84.1566 15.1124 84.0093 15.6224 84.0093 16.3478V22.3318C84.0093 23.0571 84.1566 23.5671 84.4513 23.8618C84.746 24.1564 85.256 24.3038 85.9813 24.3038ZM101.138 28.0098H98.2481C97.7721 28.0098 97.5341 27.7718 97.5341 27.2958V4.82176C97.5341 4.34576 97.7721 4.10777 98.2481 4.10777H101.138C101.614 4.10777 101.852 4.34576 101.852 4.82176V27.2958C101.852 27.7718 101.614 28.0098 101.138 28.0098ZM111.851 28.0098H111.035C109.244 28.0098 107.861 27.5338 106.887 26.5818C105.912 25.6298 105.425 24.2584 105.425 22.4678V16.2118C105.425 14.4211 105.912 13.0498 106.887 12.0978C107.861 11.1458 109.244 10.6698 111.035 10.6698H118.889C119.387 10.6698 119.637 10.9078 119.637 11.3838V27.2958C119.637 27.7718 119.387 28.0098 118.889 28.0098H116.033C115.557 28.0098 115.319 27.7718 115.319 27.2958V26.1738H115.183C114.933 26.7858 114.491 27.2504 113.857 27.5678C113.222 27.8624 112.553 28.0098 111.851 28.0098ZM115.319 21.6858V14.7838C115.319 14.5344 115.183 14.4098 114.911 14.4098H111.715C110.989 14.4098 110.479 14.5684 110.185 14.8858C109.89 15.1804 109.743 15.6904 109.743 16.4158V22.2638C109.743 22.9891 109.89 23.5104 110.185 23.8278C110.479 24.1224 110.989 24.2698 111.715 24.2698H112.973C114.537 24.2698 115.319 23.4084 115.319 21.6858Z" fill="white"/>
</svg>
