<svg width="126" height="56" viewBox="0 0 126 56" fill="none" xmlns="http://www.w3.org/2000/svg">
<path d="M5.62502 50.168H3.12501C2.86311 50.168 2.7143 50.043 2.67858 49.793L0.767858 39.0608C0.732144 38.8108 0.857145 38.6858 1.14286 38.6858H3.00001C3.27382 38.6858 3.41668 38.8108 3.42859 39.0608L4.46431 47.8644H4.58931L6.3036 39.0072C6.33931 38.7929 6.46431 38.6858 6.6786 38.6858H8.67861C8.9048 38.6858 9.03576 38.787 9.07147 38.9894L10.8215 47.8644H10.9643L11.9822 39.0787C11.9941 38.8167 12.137 38.6858 12.4108 38.6858H14.2679C14.5536 38.6858 14.6786 38.8167 14.6429 39.0787L12.7143 49.793C12.6786 50.043 12.5417 50.168 12.3036 50.168H9.78576C9.53576 50.168 9.3929 50.043 9.35719 49.793L7.75004 41.4179H7.67861L6.0536 49.793C6.00598 50.043 5.86312 50.168 5.62502 50.168ZM15.9758 39.5251V37.9715C15.9758 37.7334 16.0948 37.6144 16.3329 37.6144H17.8865C18.1246 37.6144 18.2437 37.7275 18.2437 37.9536V39.5251C18.2437 39.7632 18.1246 39.8822 17.8865 39.8822H16.3329C16.0948 39.8822 15.9758 39.7632 15.9758 39.5251ZM15.9758 49.793V41.4358C15.9758 41.1858 16.0948 41.0608 16.3329 41.0608H17.8687C18.1187 41.0608 18.2437 41.1858 18.2437 41.4358V49.793C18.2437 49.9478 18.2139 50.0489 18.1544 50.0966C18.1068 50.1442 18.0175 50.168 17.8865 50.168H16.3508C16.1008 50.168 15.9758 50.043 15.9758 49.793ZM22.1914 50.168H20.6735C20.4235 50.168 20.2985 50.043 20.2985 49.793V41.4358C20.2985 41.1858 20.4235 41.0608 20.6735 41.0608H22.1914C22.4414 41.0608 22.5664 41.1858 22.5664 41.4358V42.0251H22.6378C22.8997 41.3822 23.483 41.0608 24.3878 41.0608H24.9592C26.8283 41.0608 27.7628 42.031 27.7628 43.9715V49.793C27.7628 50.043 27.6319 50.168 27.37 50.168H25.87C25.62 50.168 25.495 50.043 25.495 49.793V44.0787C25.495 43.6977 25.4116 43.4299 25.245 43.2751C25.0902 43.1084 24.8223 43.0251 24.4414 43.0251H23.7985C22.9771 43.0251 22.5664 43.4775 22.5664 44.3822V49.793C22.5664 50.043 22.4414 50.168 22.1914 50.168ZM36.8551 50.168H36.2658C35.3491 50.168 34.6527 49.918 34.1765 49.418C33.7122 48.918 33.4801 48.1977 33.4801 47.2573V41.4358C33.4801 41.1858 33.6051 41.0608 33.8551 41.0608H35.3729C35.6229 41.0608 35.7479 41.1858 35.7479 41.4358V47.1501C35.7479 47.5311 35.8253 47.8049 35.9801 47.9716C36.1467 48.1263 36.4146 48.2037 36.7837 48.2037H37.4444C38.2658 48.2037 38.6765 47.7513 38.6765 46.8465V41.4358C38.6765 41.1858 38.8015 41.0608 39.0515 41.0608H40.5515C40.8134 41.0608 40.9444 41.1858 40.9444 41.4358V49.793C40.9444 50.043 40.8134 50.168 40.5515 50.168H39.0515C38.8015 50.168 38.6765 50.043 38.6765 49.793V49.2037H38.6051C38.4741 49.5251 38.242 49.7692 37.9087 49.9358C37.5753 50.0906 37.2241 50.168 36.8551 50.168ZM44.8094 52.5966H43.2915C43.0415 52.5966 42.9165 52.4775 42.9165 52.2394V41.4358C42.9165 41.1858 43.0415 41.0608 43.2915 41.0608H44.8094C45.0594 41.0608 45.1844 41.1858 45.1844 41.4358V42.0251H45.2558C45.3868 41.7037 45.6189 41.4656 45.9522 41.3108C46.2856 41.1441 46.6368 41.0608 47.0058 41.0608H47.738C48.6546 41.0608 49.3451 41.3108 49.8094 41.8108C50.2856 42.3108 50.5237 43.0311 50.5237 43.9715V47.2573C50.5237 48.1977 50.2856 48.918 49.8094 49.418C49.3451 49.918 48.6546 50.168 47.738 50.168H47.0058C46.6368 50.168 46.2856 50.0906 45.9522 49.9358C45.6189 49.7692 45.3868 49.5251 45.2558 49.2037H45.1844V52.2394C45.1844 52.4775 45.0594 52.5966 44.8094 52.5966ZM46.4165 48.2037H47.2022C47.5832 48.2037 47.851 48.1263 48.0058 47.9716C48.1725 47.8049 48.2558 47.5311 48.2558 47.1501V44.0787C48.2558 43.6977 48.1725 43.4299 48.0058 43.2751C47.851 43.1084 47.5832 43.0251 47.2022 43.0251H46.4165C45.5951 43.0251 45.1844 43.4775 45.1844 44.3822V46.8465C45.1844 47.7513 45.5951 48.2037 46.4165 48.2037ZM52.5124 43.0251H51.7981C51.6552 43.0251 51.5541 43.0013 51.4945 42.9537C51.4469 42.9061 51.4231 42.8108 51.4231 42.668V41.4358C51.4231 41.1858 51.5481 41.0608 51.7981 41.0608H52.5124C52.6433 41.0608 52.7088 40.9953 52.7088 40.8644V39.1679C52.7088 38.9179 52.8398 38.7929 53.1017 38.7929H54.6017C54.8517 38.7929 54.9767 38.9179 54.9767 39.1679V40.8644C54.9767 40.9953 55.0481 41.0608 55.191 41.0608H56.5838C56.8338 41.0608 56.9588 41.1858 56.9588 41.4358V42.668C56.9588 42.7989 56.9291 42.8941 56.8696 42.9537C56.8219 43.0013 56.7267 43.0251 56.5838 43.0251H55.191C55.0481 43.0251 54.9767 43.0906 54.9767 43.2215V47.168C54.9767 47.537 55.06 47.8049 55.2267 47.9716C55.3934 48.1263 55.6672 48.2037 56.0481 48.2037H56.7624C57.0124 48.2037 57.1374 48.3287 57.1374 48.5787V49.8108C57.1374 49.9418 57.1077 50.037 57.0481 50.0966C57.0005 50.1442 56.9053 50.168 56.7624 50.168H55.6731C54.7326 50.168 54.0005 49.918 53.4767 49.418C52.9648 48.918 52.7088 48.2037 52.7088 47.2751V43.2215C52.7088 43.0906 52.6433 43.0251 52.5124 43.0251ZM62.9685 50.168H61.3792C60.4387 50.168 59.7125 49.918 59.2006 49.418C58.6887 48.918 58.4328 48.1977 58.4328 47.2573V43.9715C58.4328 43.0311 58.6887 42.3108 59.2006 41.8108C59.7125 41.3108 60.4387 41.0608 61.3792 41.0608H62.9685C63.8971 41.0608 64.6173 41.3168 65.1292 41.8287C65.653 42.3287 65.9149 43.043 65.9149 43.9715V47.2573C65.9149 48.1858 65.653 48.9061 65.1292 49.418C64.6173 49.918 63.8971 50.168 62.9685 50.168ZM61.7185 48.2216H62.6292C63.0102 48.2216 63.278 48.1442 63.4328 47.9894C63.5994 47.8346 63.6828 47.5668 63.6828 47.1858V44.043C63.6828 43.662 63.5994 43.3941 63.4328 43.2394C63.278 43.0846 63.0102 43.0072 62.6292 43.0072H61.7185C61.3375 43.0072 61.0697 43.0846 60.9149 43.2394C60.7601 43.3941 60.6828 43.662 60.6828 44.043V47.1858C60.6828 47.5668 60.7601 47.8346 60.9149 47.9894C61.0697 48.1442 61.3375 48.2216 61.7185 48.2216Z" fill="#FFD979"/>
<path d="M71.0492 41.8822V40.4179C71.0492 40.2156 71.1385 40.0608 71.317 39.9537L72.942 38.9358C73.2158 38.7691 73.448 38.6858 73.6385 38.6858H75.067C75.317 38.6858 75.442 38.8108 75.442 39.0608V49.793C75.442 49.9358 75.4123 50.037 75.3528 50.0966C75.3051 50.1442 75.2159 50.168 75.0849 50.168H73.5492C73.2992 50.168 73.1742 50.043 73.1742 49.793V41.0965L71.4242 42.0965C71.1742 42.2037 71.0492 42.1322 71.0492 41.8822ZM86.4012 50.168H84.4548C83.5143 50.168 82.7881 49.918 82.2762 49.418C81.7643 48.918 81.5083 48.1977 81.5083 47.2573V41.5965C81.5083 40.656 81.7643 39.9358 82.2762 39.4358C82.7881 38.9358 83.5143 38.6858 84.4548 38.6858H86.4012C87.3298 38.6858 88.05 38.9417 88.562 39.4537C89.0858 39.9537 89.3477 40.6679 89.3477 41.5965V42.4358C89.3477 42.6977 89.2167 42.8287 88.9548 42.8287H87.4548C87.2048 42.8287 87.0798 42.6977 87.0798 42.4358V41.7037C87.0798 41.3227 86.9965 41.0549 86.8298 40.9001C86.675 40.7334 86.4072 40.6501 86.0262 40.6501H84.8119C84.4429 40.6501 84.175 40.7334 84.0084 40.9001C83.8536 41.0549 83.7762 41.3227 83.7762 41.7037V47.1501C83.7762 47.5311 83.8536 47.8049 84.0084 47.9716C84.175 48.1263 84.4429 48.2037 84.8119 48.2037H86.0262C86.4072 48.2037 86.675 48.1263 86.8298 47.9716C86.9965 47.8049 87.0798 47.5311 87.0798 47.1501V46.418C87.0798 46.1561 87.2048 46.0251 87.4548 46.0251H88.9548C89.2167 46.0251 89.3477 46.1561 89.3477 46.418V47.2573C89.3477 48.1858 89.0858 48.9061 88.562 49.418C88.05 49.918 87.3298 50.168 86.4012 50.168ZM93.0099 50.168H91.4921C91.2421 50.168 91.1171 50.043 91.1171 49.793V41.4358C91.1171 41.1858 91.2421 41.0608 91.4921 41.0608H93.0099C93.2599 41.0608 93.3849 41.1858 93.3849 41.4358V42.043H93.4564C93.5873 41.7215 93.8195 41.4775 94.1528 41.3108C94.4861 41.1441 94.8373 41.0608 95.2064 41.0608H95.8492C96.0873 41.0608 96.2064 41.1858 96.2064 41.4358V42.668C96.2064 42.8108 96.1766 42.912 96.1171 42.9715C96.0695 43.0191 95.9802 43.037 95.8492 43.0251H94.6171C93.7957 43.0251 93.3849 43.4894 93.3849 44.418V49.793C93.3849 50.043 93.2599 50.168 93.0099 50.168ZM101.7 50.168H100.111C99.1701 50.168 98.4439 49.918 97.932 49.418C97.4201 48.918 97.1641 48.1977 97.1641 47.2573V43.9715C97.1641 43.0311 97.4201 42.3108 97.932 41.8108C98.4439 41.3108 99.1701 41.0608 100.111 41.0608H101.7C102.628 41.0608 103.349 41.3168 103.861 41.8287C104.384 42.3287 104.646 43.043 104.646 43.9715V47.2573C104.646 48.1858 104.384 48.9061 103.861 49.418C103.349 49.918 102.628 50.168 101.7 50.168ZM100.45 48.2216H101.361C101.742 48.2216 102.009 48.1442 102.164 47.9894C102.331 47.8346 102.414 47.5668 102.414 47.1858V44.043C102.414 43.662 102.331 43.3941 102.164 43.2394C102.009 43.0846 101.742 43.0072 101.361 43.0072H100.45C100.069 43.0072 99.801 43.0846 99.6463 43.2394C99.4915 43.3941 99.4141 43.662 99.4141 44.043V47.1858C99.4141 47.5668 99.4915 47.8346 99.6463 47.9894C99.801 48.1442 100.069 48.2216 100.45 48.2216ZM108.321 50.168H106.803C106.553 50.168 106.428 50.043 106.428 49.793V41.4358C106.428 41.1858 106.553 41.0608 106.803 41.0608H108.321C108.571 41.0608 108.696 41.1858 108.696 41.4358V42.043H108.768C108.898 41.7215 109.131 41.4775 109.464 41.3108C109.797 41.1441 110.149 41.0608 110.518 41.0608H111.16C111.399 41.0608 111.518 41.1858 111.518 41.4358V42.668C111.518 42.8108 111.488 42.912 111.428 42.9715C111.381 43.0191 111.291 43.037 111.16 43.0251H109.928C109.107 43.0251 108.696 43.4894 108.696 44.418V49.793C108.696 50.043 108.571 50.168 108.321 50.168ZM119.368 50.168H115.422C114.481 50.168 113.755 49.918 113.243 49.418C112.731 48.918 112.475 48.1977 112.475 47.2573V43.9715C112.475 43.0311 112.731 42.3108 113.243 41.8108C113.755 41.3108 114.481 41.0608 115.422 41.0608H116.832C117.773 41.0608 118.499 41.3108 119.011 41.8108C119.523 42.3108 119.779 43.0311 119.779 43.9715V46.2394C119.779 46.4894 119.654 46.6144 119.404 46.6144H114.922C114.779 46.6144 114.707 46.6799 114.707 46.8108V47.2037C114.707 47.5727 114.785 47.8406 114.94 48.0073C115.106 48.162 115.38 48.2394 115.761 48.2394H119.368C119.618 48.2394 119.743 48.3704 119.743 48.6323V49.8108C119.743 49.9418 119.713 50.037 119.654 50.0966C119.606 50.1442 119.511 50.168 119.368 50.168ZM114.922 45.0965H117.35C117.481 45.0965 117.547 45.0311 117.547 44.9001V44.043C117.547 43.662 117.469 43.3941 117.315 43.2394C117.16 43.0846 116.892 43.0072 116.511 43.0072H115.761C115.38 43.0072 115.112 43.0846 114.957 43.2394C114.803 43.3941 114.725 43.662 114.725 44.043V44.9001C114.725 45.0311 114.791 45.0965 114.922 45.0965ZM121.389 41.8287V39.0608C121.389 38.8108 121.514 38.6858 121.764 38.6858H123.46C123.71 38.6858 123.835 38.8108 123.835 39.0608V41.8287C123.835 42.3049 123.805 42.8406 123.746 43.4358C123.698 44.0192 123.662 44.4537 123.639 44.7394C123.615 45.0251 123.591 45.2573 123.567 45.4358C123.543 45.6144 123.531 45.7096 123.531 45.7215C123.484 45.9715 123.347 46.0965 123.121 46.0965H122.103C121.877 46.0965 121.74 45.9715 121.692 45.7215C121.692 45.7096 121.68 45.6144 121.656 45.4358C121.633 45.2573 121.603 45.0251 121.567 44.7394C121.543 44.4537 121.52 44.1442 121.496 43.8108C121.424 42.8346 121.389 42.1739 121.389 41.8287ZM123.781 47.5966V49.793C123.781 50.043 123.662 50.168 123.424 50.168H121.853C121.615 50.168 121.496 50.037 121.496 49.7751V47.6144C121.496 47.3763 121.615 47.2573 121.853 47.2573H123.424C123.662 47.2573 123.781 47.3704 123.781 47.5966Z" fill="white"/>
<path d="M12.0181 30.7422H9.2469C8.76304 30.7422 8.52111 30.5113 8.52111 30.0494V13.5211C8.52111 13.2792 8.40014 13.1582 8.15821 13.1582H4.39728C3.93541 13.1582 3.70448 12.9273 3.70448 12.4654V10.2221C3.70448 9.7602 3.93541 9.52927 4.39728 9.52927H16.8677C17.3296 9.52927 17.5605 9.7602 17.5605 10.2221V12.4654C17.5605 12.9273 17.3296 13.1582 16.8677 13.1582H13.1068C12.8429 13.1582 12.7109 13.2792 12.7109 13.5211V30.0494C12.7109 30.5113 12.48 30.7422 12.0181 30.7422ZM25.6551 30.7422H24.8633C23.1258 30.7422 21.7842 30.2803 20.8384 29.3566C19.8927 28.4329 19.4199 27.1022 19.4199 25.3647V19.2945C19.4199 17.557 19.8927 16.2264 20.8384 15.3026C21.7842 14.3789 23.1258 13.917 24.8633 13.917H32.4841C32.968 13.917 33.2099 14.1479 33.2099 14.6098V30.0494C33.2099 30.5113 32.968 30.7422 32.4841 30.7422H29.7129C29.251 30.7422 29.0201 30.5113 29.0201 30.0494V28.9607H28.8882C28.6462 29.5545 28.2173 30.0054 27.6015 30.3133C26.9857 30.5993 26.3369 30.7422 25.6551 30.7422ZM29.0201 24.606V17.9089C29.0201 17.6669 28.8882 17.546 28.6242 17.546H25.5231C24.8193 17.546 24.3245 17.6999 24.0385 18.0078C23.7526 18.2938 23.6097 18.7886 23.6097 19.4924V25.1668C23.6097 25.8706 23.7526 26.3765 24.0385 26.6844C24.3245 26.9703 24.8193 27.1132 25.5231 27.1132H26.7438C28.2613 27.1132 29.0201 26.2775 29.0201 24.606ZM40.322 30.7422H37.5178C37.0559 30.7422 36.825 30.5113 36.825 30.0494V14.6098C36.825 14.1479 37.0559 13.917 37.5178 13.917H40.322C40.7838 13.917 41.0148 14.1479 41.0148 14.6098V15.6985H41.1467C41.4107 15.1707 41.8505 14.7418 42.4664 14.4119C43.1042 14.082 43.83 13.917 44.6437 13.917H45.5675C47.4809 13.917 48.8555 14.6208 49.6913 16.0284C50.4391 14.6208 51.7257 13.917 53.5512 13.917H54.5079C56.2014 13.917 57.4771 14.3789 58.3348 15.3026C59.2146 16.2264 59.6544 17.557 59.6544 19.2945V30.0494C59.6544 30.5113 59.4235 30.7422 58.9616 30.7422H56.1574C55.6956 30.7422 55.4646 30.5113 55.4646 30.0494V19.4924C55.4646 18.7886 55.3217 18.2938 55.0358 18.0078C54.7498 17.6999 54.255 17.546 53.5512 17.546H52.7264C51.2089 17.546 50.4501 18.3927 50.4501 20.0863V30.0494C50.4501 30.5113 50.2081 30.7422 49.7243 30.7422H46.9531C46.4912 30.7422 46.2603 30.5113 46.2603 30.0494V19.4924C46.2603 18.7886 46.1063 18.2938 45.7984 18.0078C45.5125 17.6999 45.0176 17.546 44.3138 17.546H43.2911C41.7735 17.546 41.0148 18.3817 41.0148 20.0533V30.0494C41.0148 30.5113 40.7838 30.7422 40.322 30.7422ZM67.6992 27.1132H71.0643C71.7681 27.1132 72.2629 26.9703 72.5489 26.6844C72.8568 26.3765 73.0107 25.8706 73.0107 25.1668V19.4264C73.0107 18.7226 72.8568 18.2278 72.5489 17.9419C72.2629 17.634 71.7681 17.48 71.0643 17.48H69.6127C68.0951 17.48 67.3364 18.3158 67.3364 19.9873V26.7503C67.3364 26.9923 67.4573 27.1132 67.6992 27.1132ZM63.1465 30.0494V8.24263C63.1465 7.78077 63.3775 7.54983 63.8393 7.54983H66.6435C67.1054 7.54983 67.3364 7.78077 67.3364 8.24263V15.6655H67.4683C67.7102 15.0717 68.1391 14.6208 68.7549 14.3129C69.3708 14.005 70.0196 13.851 70.7014 13.851H71.7571C73.4946 13.851 74.8362 14.3129 75.7819 15.2366C76.7277 16.1604 77.2005 17.491 77.2005 19.2285V25.3647C77.2005 27.1022 76.7277 28.4329 75.7819 29.3566C74.8362 30.2803 73.4946 30.7422 71.7571 30.7422H63.8393C63.3775 30.7422 63.1465 30.5113 63.1465 30.0494ZM88.5614 30.7422H85.6252C83.8877 30.7422 82.5461 30.2803 81.6004 29.3566C80.6547 28.4329 80.1818 27.1022 80.1818 25.3647V19.2945C80.1818 17.557 80.6547 16.2264 81.6004 15.3026C82.5461 14.3789 83.8877 13.917 85.6252 13.917H88.5614C90.2769 13.917 91.6075 14.3899 92.5533 15.3356C93.521 16.2593 94.0049 17.579 94.0049 19.2945V25.3647C94.0049 27.0803 93.521 28.4109 92.5533 29.3566C91.6075 30.2803 90.2769 30.7422 88.5614 30.7422ZM86.2521 27.1462H87.9346C88.6384 27.1462 89.1332 27.0033 89.4192 26.7174C89.7271 26.4314 89.881 25.9366 89.881 25.2328V19.4264C89.881 18.7226 89.7271 18.2278 89.4192 17.9419C89.1332 17.6559 88.6384 17.513 87.9346 17.513H86.2521C85.5483 17.513 85.0534 17.6559 84.7675 17.9419C84.4816 18.2278 84.3386 18.7226 84.3386 19.4264V25.2328C84.3386 25.9366 84.4816 26.4314 84.7675 26.7174C85.0534 27.0033 85.5483 27.1462 86.2521 27.1462ZM100.959 30.7422H98.1547C97.6928 30.7422 97.4619 30.5113 97.4619 30.0494V8.24263C97.4619 7.78077 97.6928 7.54983 98.1547 7.54983H100.959C101.421 7.54983 101.652 7.78077 101.652 8.24263V30.0494C101.652 30.5113 101.421 30.7422 100.959 30.7422ZM111.353 30.7422H110.561C108.824 30.7422 107.482 30.2803 106.537 29.3566C105.591 28.4329 105.118 27.1022 105.118 25.3647V19.2945C105.118 17.557 105.591 16.2264 106.537 15.3026C107.482 14.3789 108.824 13.917 110.561 13.917H118.182C118.666 13.917 118.908 14.1479 118.908 14.6098V30.0494C118.908 30.5113 118.666 30.7422 118.182 30.7422H115.411C114.949 30.7422 114.718 30.5113 114.718 30.0494V28.9607H114.586C114.344 29.5545 113.916 30.0054 113.3 30.3133C112.684 30.5993 112.035 30.7422 111.353 30.7422ZM114.718 24.606V17.9089C114.718 17.6669 114.586 17.546 114.322 17.546H111.221C110.518 17.546 110.023 17.6999 109.737 18.0078C109.451 18.2938 109.308 18.7886 109.308 19.4924V25.1668C109.308 25.8706 109.451 26.3765 109.737 26.6844C110.023 26.9703 110.518 27.1132 111.221 27.1132H112.442C113.96 27.1132 114.718 26.2775 114.718 24.606Z" fill="#62E3C4"/>
<path d="M11.1919 29.0977H8.42073C7.93686 29.0977 7.69493 28.8667 7.69493 28.4049V11.8766C7.69493 11.6347 7.57397 11.5137 7.33204 11.5137H3.57111C3.10924 11.5137 2.87831 11.2828 2.87831 10.8209V8.57754C2.87831 8.11567 3.10924 7.88474 3.57111 7.88474H16.0416C16.5034 7.88474 16.7344 8.11567 16.7344 8.57754V10.8209C16.7344 11.2828 16.5034 11.5137 16.0416 11.5137H12.2806C12.0167 11.5137 11.8847 11.6347 11.8847 11.8766V28.4049C11.8847 28.8667 11.6538 29.0977 11.1919 29.0977ZM24.8289 29.0977H24.0371C22.2996 29.0977 20.958 28.6358 20.0123 27.7121C19.0665 26.7883 18.5937 25.4577 18.5937 23.7202V17.6499C18.5937 15.9124 19.0665 14.5818 20.0123 13.6581C20.958 12.7343 22.2996 12.2725 24.0371 12.2725H31.658C32.1418 12.2725 32.3837 12.5034 32.3837 12.9653V28.4049C32.3837 28.8667 32.1418 29.0977 31.658 29.0977H28.8867C28.4249 29.0977 28.1939 28.8667 28.1939 28.4049V27.3162H28.062C27.82 27.91 27.3912 28.3609 26.7753 28.6688C26.1595 28.9547 25.5107 29.0977 24.8289 29.0977ZM28.1939 22.9614V16.2643C28.1939 16.0224 28.062 15.9014 27.7981 15.9014H24.6969C23.9931 15.9014 23.4983 16.0554 23.2124 16.3633C22.9264 16.6492 22.7835 17.1441 22.7835 17.8479V23.5223C22.7835 24.2261 22.9264 24.7319 23.2124 25.0398C23.4983 25.3258 23.9931 25.4687 24.6969 25.4687H25.9176C27.4352 25.4687 28.1939 24.633 28.1939 22.9614ZM39.4958 29.0977H36.6916C36.2297 29.0977 35.9988 28.8667 35.9988 28.4049V12.9653C35.9988 12.5034 36.2297 12.2725 36.6916 12.2725H39.4958C39.9577 12.2725 40.1886 12.5034 40.1886 12.9653V14.054H40.3206C40.5845 13.5261 41.0244 13.0972 41.6402 12.7673C42.278 12.4374 43.0038 12.2725 43.8176 12.2725H44.7413C46.6547 12.2725 48.0294 12.9763 48.8651 14.3839C49.6129 12.9763 50.8995 12.2725 52.725 12.2725H53.6817C55.3753 12.2725 56.6509 12.7343 57.5086 13.6581C58.3884 14.5818 58.8283 15.9124 58.8283 17.6499V28.4049C58.8283 28.8667 58.5973 29.0977 58.1355 29.0977H55.3313C54.8694 29.0977 54.6385 28.8667 54.6385 28.4049V17.8479C54.6385 17.1441 54.4955 16.6492 54.2096 16.3633C53.9237 16.0554 53.4288 15.9014 52.725 15.9014H51.9002C50.3827 15.9014 49.6239 16.7482 49.6239 18.4417V28.4049C49.6239 28.8667 49.382 29.0977 48.8981 29.0977H46.1269C45.665 29.0977 45.4341 28.8667 45.4341 28.4049V17.8479C45.4341 17.1441 45.2801 16.6492 44.9722 16.3633C44.6863 16.0554 44.1915 15.9014 43.4877 15.9014H42.4649C40.9474 15.9014 40.1886 16.7372 40.1886 18.4087V28.4049C40.1886 28.8667 39.9577 29.0977 39.4958 29.0977ZM66.8731 25.4687H70.2381C70.9419 25.4687 71.4368 25.3258 71.7227 25.0398C72.0306 24.7319 72.1846 24.2261 72.1846 23.5223V17.7819C72.1846 17.0781 72.0306 16.5833 71.7227 16.2973C71.4368 15.9894 70.9419 15.8355 70.2381 15.8355H68.7865C67.269 15.8355 66.5102 16.6712 66.5102 18.3427V25.1058C66.5102 25.3477 66.6311 25.4687 66.8731 25.4687ZM62.3204 28.4049V6.5981C62.3204 6.13623 62.5513 5.9053 63.0132 5.9053H65.8174C66.2792 5.9053 66.5102 6.13623 66.5102 6.5981V14.021H66.6421C66.8841 13.4272 67.313 12.9763 67.9288 12.6684C68.5446 12.3605 69.1934 12.2065 69.8752 12.2065H70.9309C72.6684 12.2065 74.01 12.6684 74.9558 13.5921C75.9015 14.5158 76.3744 15.8465 76.3744 17.584V23.7202C76.3744 25.4577 75.9015 26.7883 74.9558 27.7121C74.01 28.6358 72.6684 29.0977 70.9309 29.0977H63.0132C62.5513 29.0977 62.3204 28.8667 62.3204 28.4049ZM87.7352 29.0977H84.7991C83.0616 29.0977 81.72 28.6358 80.7742 27.7121C79.8285 26.7883 79.3556 25.4577 79.3556 23.7202V17.6499C79.3556 15.9124 79.8285 14.5818 80.7742 13.6581C81.72 12.7343 83.0616 12.2725 84.7991 12.2725H87.7352C89.4508 12.2725 90.7814 12.7453 91.7271 13.6911C92.6948 14.6148 93.1787 15.9344 93.1787 17.6499V23.7202C93.1787 25.4357 92.6948 26.7663 91.7271 27.7121C90.7814 28.6358 89.4508 29.0977 87.7352 29.0977ZM85.4259 25.5017H87.1084C87.8122 25.5017 88.3071 25.3587 88.593 25.0728C88.9009 24.7869 89.0549 24.2921 89.0549 23.5883V17.7819C89.0549 17.0781 88.9009 16.5833 88.593 16.2973C88.3071 16.0114 87.8122 15.8685 87.1084 15.8685H85.4259C84.7221 15.8685 84.2272 16.0114 83.9413 16.2973C83.6554 16.5833 83.5124 17.0781 83.5124 17.7819V23.5883C83.5124 24.2921 83.6554 24.7869 83.9413 25.0728C84.2272 25.3587 84.7221 25.5017 85.4259 25.5017ZM100.133 29.0977H97.3285C96.8667 29.0977 96.6357 28.8667 96.6357 28.4049V6.5981C96.6357 6.13623 96.8667 5.9053 97.3285 5.9053H100.133C100.595 5.9053 100.826 6.13623 100.826 6.5981V28.4049C100.826 28.8667 100.595 29.0977 100.133 29.0977ZM110.527 29.0977H109.735C107.998 29.0977 106.656 28.6358 105.71 27.7121C104.765 26.7883 104.292 25.4577 104.292 23.7202V17.6499C104.292 15.9124 104.765 14.5818 105.71 13.6581C106.656 12.7343 107.998 12.2725 109.735 12.2725H117.356C117.84 12.2725 118.082 12.5034 118.082 12.9653V28.4049C118.082 28.8667 117.84 29.0977 117.356 29.0977H114.585C114.123 29.0977 113.892 28.8667 113.892 28.4049V27.3162H113.76C113.518 27.91 113.089 28.3609 112.474 28.6688C111.858 28.9547 111.209 29.0977 110.527 29.0977ZM113.892 22.9614V16.2643C113.892 16.0224 113.76 15.9014 113.496 15.9014H110.395C109.691 15.9014 109.196 16.0554 108.911 16.3633C108.625 16.6492 108.482 17.1441 108.482 17.8479V23.5223C108.482 24.2261 108.625 24.7319 108.911 25.0398C109.196 25.3258 109.691 25.4687 110.395 25.4687H111.616C113.133 25.4687 113.892 24.633 113.892 22.9614Z" fill="#323232"/>
<path d="M9.20951 27.7071H6.4383C5.95444 27.7071 5.71251 27.4761 5.71251 27.0143V10.486C5.71251 10.244 5.59155 10.1231 5.34962 10.1231H1.58869C1.12682 10.1231 0.895887 9.89214 0.895887 9.43027V7.18691C0.895887 6.72504 1.12682 6.49411 1.58869 6.49411H14.0591C14.521 6.49411 14.7519 6.72504 14.7519 7.18691V9.43027C14.7519 9.89214 14.521 10.1231 14.0591 10.1231H10.2982C10.0343 10.1231 9.90232 10.244 9.90232 10.486V27.0143C9.90232 27.4761 9.67138 27.7071 9.20951 27.7071ZM22.8465 27.7071H22.0547C20.3172 27.7071 18.9756 27.2452 18.0299 26.3214C17.0841 25.3977 16.6113 24.0671 16.6113 22.3296V16.2593C16.6113 14.5218 17.0841 13.1912 18.0299 12.2675C18.9756 11.3437 20.3172 10.8819 22.0547 10.8819H29.6755C30.1594 10.8819 30.4013 11.1128 30.4013 11.5747V27.0143C30.4013 27.4761 30.1594 27.7071 29.6755 27.7071H26.9043C26.4425 27.7071 26.2115 27.4761 26.2115 27.0143V25.9256H26.0796C25.8376 26.5194 25.4087 26.9703 24.7929 27.2782C24.1771 27.5641 23.5283 27.7071 22.8465 27.7071ZM26.2115 21.5708V14.8737C26.2115 14.6318 26.0796 14.5108 25.8156 14.5108H22.7145C22.0107 14.5108 21.5159 14.6648 21.2299 14.9727C20.944 15.2586 20.8011 15.7535 20.8011 16.4573V22.1316C20.8011 22.8354 20.944 23.3413 21.2299 23.6492C21.5159 23.9351 22.0107 24.0781 22.7145 24.0781H23.9352C25.4527 24.0781 26.2115 23.2423 26.2115 21.5708ZM37.5134 27.7071H34.7092C34.2473 27.7071 34.0164 27.4761 34.0164 27.0143V11.5747C34.0164 11.1128 34.2473 10.8819 34.7092 10.8819H37.5134C37.9752 10.8819 38.2062 11.1128 38.2062 11.5747V12.6633H38.3381C38.6021 12.1355 39.0419 11.7066 39.6578 11.3767C40.2956 11.0468 41.0214 10.8819 41.8351 10.8819H42.7589C44.6723 10.8819 46.0469 11.5857 46.8827 12.9933C47.6305 11.5857 48.9171 10.8819 50.7426 10.8819H51.6993C53.3928 10.8819 54.6685 11.3437 55.5262 12.2675C56.406 13.1912 56.8459 14.5218 56.8459 16.2593V27.0143C56.8459 27.4761 56.6149 27.7071 56.153 27.7071H53.3488C52.887 27.7071 52.656 27.4761 52.656 27.0143V16.4573C52.656 15.7535 52.5131 15.2586 52.2272 14.9727C51.9413 14.6648 51.4464 14.5108 50.7426 14.5108H49.9178C48.4003 14.5108 47.6415 15.3576 47.6415 17.0511V27.0143C47.6415 27.4761 47.3995 27.7071 46.9157 27.7071H44.1445C43.6826 27.7071 43.4517 27.4761 43.4517 27.0143V16.4573C43.4517 15.7535 43.2977 15.2586 42.9898 14.9727C42.7039 14.6648 42.209 14.5108 41.5052 14.5108H40.4825C38.965 14.5108 38.2062 15.3466 38.2062 17.0181V27.0143C38.2062 27.4761 37.9752 27.7071 37.5134 27.7071ZM64.8907 24.0781H68.2557C68.9595 24.0781 69.4544 23.9351 69.7403 23.6492C70.0482 23.3413 70.2021 22.8354 70.2021 22.1316V16.3913C70.2021 15.6875 70.0482 15.1926 69.7403 14.9067C69.4544 14.5988 68.9595 14.4448 68.2557 14.4448H66.8041C65.2865 14.4448 64.5278 15.2806 64.5278 16.9521V23.7152C64.5278 23.9571 64.6487 24.0781 64.8907 24.0781ZM60.338 27.0143V5.20748C60.338 4.74561 60.5689 4.51468 61.0308 4.51468H63.835C64.2968 4.51468 64.5278 4.74561 64.5278 5.20748V12.6304H64.6597C64.9017 12.0365 65.3305 11.5857 65.9464 11.2777C66.5622 10.9698 67.211 10.8159 67.8928 10.8159H68.9485C70.686 10.8159 72.0276 11.2777 72.9733 12.2015C73.9191 13.1252 74.3919 14.4558 74.3919 16.1933V22.3296C74.3919 24.0671 73.9191 25.3977 72.9733 26.3214C72.0276 27.2452 70.686 27.7071 68.9485 27.7071H61.0308C60.5689 27.7071 60.338 27.4761 60.338 27.0143ZM85.7528 27.7071H82.8167C81.0792 27.7071 79.7375 27.2452 78.7918 26.3214C77.8461 25.3977 77.3732 24.0671 77.3732 22.3296V16.2593C77.3732 14.5218 77.8461 13.1912 78.7918 12.2675C79.7375 11.3437 81.0792 10.8819 82.8167 10.8819H85.7528C87.4683 10.8819 88.7989 11.3547 89.7447 12.3005C90.7124 13.2242 91.1963 14.5438 91.1963 16.2593V22.3296C91.1963 24.0451 90.7124 25.3757 89.7447 26.3214C88.7989 27.2452 87.4683 27.7071 85.7528 27.7071ZM83.4435 24.1111H85.126C85.8298 24.1111 86.3247 23.9681 86.6106 23.6822C86.9185 23.3963 87.0724 22.9014 87.0724 22.1976V16.3913C87.0724 15.6875 86.9185 15.1926 86.6106 14.9067C86.3247 14.6208 85.8298 14.4778 85.126 14.4778H83.4435C82.7397 14.4778 82.2448 14.6208 81.9589 14.9067C81.673 15.1926 81.53 15.6875 81.53 16.3913V22.1976C81.53 22.9014 81.673 23.3963 81.9589 23.6822C82.2448 23.9681 82.7397 24.1111 83.4435 24.1111ZM98.1503 27.7071H95.3461C94.8843 27.7071 94.6533 27.4761 94.6533 27.0143V5.20748C94.6533 4.74561 94.8843 4.51468 95.3461 4.51468H98.1503C98.6122 4.51468 98.8431 4.74561 98.8431 5.20748V27.0143C98.8431 27.4761 98.6122 27.7071 98.1503 27.7071ZM108.545 27.7071H107.753C106.015 27.7071 104.674 27.2452 103.728 26.3214C102.782 25.3977 102.309 24.0671 102.309 22.3296V16.2593C102.309 14.5218 102.782 13.1912 103.728 12.2675C104.674 11.3437 106.015 10.8819 107.753 10.8819H115.374C115.858 10.8819 116.1 11.1128 116.1 11.5747V27.0143C116.1 27.4761 115.858 27.7071 115.374 27.7071H112.603C112.141 27.7071 111.91 27.4761 111.91 27.0143V25.9256H111.778C111.536 26.5194 111.107 26.9703 110.491 27.2782C109.875 27.5641 109.226 27.7071 108.545 27.7071ZM111.91 21.5708V14.8737C111.91 14.6318 111.778 14.5108 111.514 14.5108H108.413C107.709 14.5108 107.214 14.6648 106.928 14.9727C106.642 15.2586 106.499 15.7535 106.499 16.4573V22.1316C106.499 22.8354 106.642 23.3413 106.928 23.6492C107.214 23.9351 107.709 24.0781 108.413 24.0781H109.633C111.151 24.0781 111.91 23.2423 111.91 21.5708Z" fill="white"/>
</svg>
