<svg width="43" height="44" viewBox="0 0 43 44" fill="none" xmlns="http://www.w3.org/2000/svg">
<rect width="38.2403" height="38.2403" rx="2.3201" transform="matrix(-1 0 0 1 41.2402 3)" fill="#FFCCBF"/>
<path d="M18.5973 21.9866H17.7515C17.4396 21.9866 17.1997 22.1126 17.0317 22.3645C16.8758 22.6164 16.7078 22.7424 16.5278 22.7424H15.0342C14.7823 22.7424 14.6563 22.6224 14.6563 22.3825V16.6779C14.6563 16.426 14.7823 16.3 15.0342 16.3H21.2966C21.5486 16.3 21.6745 16.426 21.6745 16.6779V18.0456C21.6745 18.2975 21.5486 18.4235 21.2966 18.4235H16.9417V21.0688C17.1457 20.469 17.6496 20.1691 18.4534 20.1691H19.2092C21.0687 20.1691 21.9985 21.0988 21.9985 22.9583V24.9378C21.9985 25.8736 21.7405 26.5994 21.2247 27.1153C20.7088 27.6192 19.983 27.8711 19.0472 27.8711H17.4636C16.5158 27.8711 15.784 27.6192 15.2682 27.1153C14.7523 26.6114 14.4944 25.8856 14.4944 24.9378V24.5779C14.4944 24.314 14.6203 24.182 14.8723 24.182H16.4019C16.6538 24.182 16.7798 24.314 16.7798 24.5779V24.9198C16.7798 25.2918 16.8578 25.5617 17.0137 25.7296C17.1817 25.8856 17.4516 25.9636 17.8235 25.9636H18.6693C19.0532 25.9636 19.3351 25.8856 19.5151 25.7296C19.695 25.5617 19.785 25.2918 19.785 24.9198V23.3003C19.785 22.7964 19.701 22.4545 19.5331 22.2745C19.3651 22.0826 19.0532 21.9866 18.5973 21.9866ZM25.8289 27.8711H24.1374C24.0294 27.8711 23.9514 27.8411 23.9034 27.7811C23.8674 27.7091 23.8794 27.6132 23.9394 27.4932L27.7365 18.3875H23.5075C23.2556 18.3875 23.1296 18.2615 23.1296 18.0096V16.6779C23.1296 16.426 23.2556 16.3 23.5075 16.3H29.8059C30.0579 16.3 30.1838 16.426 30.1838 16.6779V18.1896C30.1838 18.4295 30.0999 18.7534 29.9319 19.1613L26.4408 27.5292C26.3448 27.7571 26.1409 27.8711 25.8289 27.8711Z" fill="#151D22"/>
<path d="M37.0493 8.51953L9.02148 36.5495" stroke="#151D22" stroke-width="1.12471" stroke-linecap="round"/>
</svg>
