<svg width="223" height="122" viewBox="0 0 223 122" fill="none" xmlns="http://www.w3.org/2000/svg">
<rect width="61.6771" height="105.373" rx="8.76868" transform="matrix(-0.866025 -0.5 -0.866025 0.5 178.549 58.9385)" fill="#151D22"/>
<path d="M174.765 36.1494V40.8224C174.765 42.2613 173.806 43.5083 172.915 44.3717C172.614 44.6594 172.312 44.9061 172.052 45.098L89.7745 94.459C89.4045 94.6372 89.0482 94.8016 88.6782 94.9387C86.7871 95.6787 84.9371 95.9253 83.2515 95.8842C80.9057 95.827 77.633 94.8427 76.3996 94.2672C75.8789 94.0205 75.5911 93.8561 75.5911 93.8561C75.5911 93.8561 48.7865 77.7678 41.1261 73.177C40.7424 72.9441 40.3998 72.7248 40.0983 72.4918C38.3442 71.19 37.7275 69.9155 37.7275 68.7507V64.0914C37.7275 64.8177 37.9605 65.5851 38.5635 66.3663C39.0979 67.0651 39.9201 67.7914 41.1124 68.5177C48.7728 73.1222 75.5774 89.1968 75.5774 89.1968C75.5774 89.1968 75.6048 89.2105 75.6596 89.2516C76.2078 89.5531 79.25 91.1701 83.2378 91.2386C85.5812 91.2798 88.2397 90.8001 90.8982 89.1968C91.3779 88.909 92.1042 88.4705 93.0634 87.8949C93.2964 87.7442 93.5568 87.6071 93.8171 87.4427C94.8723 86.8123 96.1605 86.0449 97.5994 85.1679L98.7231 84.4964C109.96 77.7541 130.269 65.5714 146.549 55.8006L147.906 54.9921C148.454 54.6632 149.002 54.3343 149.537 54.0054L151.14 53.0462C162.733 46.0846 171.339 40.932 171.339 40.932C171.339 40.932 171.339 40.932 171.381 40.9046C171.627 40.7539 172.984 39.8631 173.902 38.5475C173.929 38.5064 173.957 38.4653 173.984 38.4105C174.245 38.0268 174.45 37.602 174.587 37.1635C174.683 36.8483 174.738 36.5057 174.738 36.1631L174.765 36.1494Z" fill="#FFD979" stroke="black" stroke-width="0.755971" stroke-miterlimit="10"/>
<path d="M174.613 35.7249V40.8364C174.613 42.5219 172.914 44.3582 172.023 44.8927L89.5811 94.1852C87.4433 95.1856 84.9081 95.6104 83.2773 95.5282V91.2115C83.757 90.9237 92.1437 88.4433 93.103 87.8678C93.3359 87.717 93.5963 87.58 93.8567 87.4155C94.9119 86.7852 96.2 86.0178 97.6389 85.1407L98.7626 84.4692C110 77.727 130.309 65.5443 146.589 55.7735L147.946 54.965C148.494 54.6361 149.042 54.3072 149.576 53.9783L151.18 53.019C162.773 46.0575 171.379 40.9049 171.379 40.9049C171.379 40.9049 171.379 40.9049 171.42 40.8775C171.667 40.7267 173.023 39.836 173.942 38.5204C173.969 38.4793 173.996 38.4382 174.024 38.3834C174.449 37.6708 174.627 36.5334 174.627 35.7112L174.613 35.7249Z" fill="#FFD979"/>
<path d="M174.765 36.1477C174.765 37.0248 174.409 37.847 173.929 38.5322C173.011 39.8477 171.655 40.7385 171.408 40.8892C171.381 40.9029 171.367 40.9166 171.367 40.9166C171.367 40.9166 162.761 46.0693 151.167 53.0308L149.564 53.99C149.03 54.3189 148.482 54.6341 147.933 54.9767L146.577 55.7852C130.297 65.556 109.988 77.7387 98.7505 84.481L97.6268 85.1525C96.1742 86.0295 94.8997 86.7832 93.8446 87.4273C93.5842 87.5917 93.3238 87.7425 93.0908 87.8795C92.1316 88.4551 91.4053 88.8936 90.9256 89.1814C83.7449 93.4981 76.5641 89.7158 75.687 89.2362C75.6322 89.2088 75.6048 89.1814 75.6048 89.1814C75.6048 89.1814 48.8002 73.0931 41.1398 68.5023C39.9476 67.776 39.1253 67.0635 38.5909 66.3509C37.9742 65.556 37.7275 64.7886 37.7275 64.0623C37.7275 61.3353 41.1261 59.2934 41.1261 59.2934C41.1261 59.2934 113.893 15.6331 121.554 11.0287C129.214 6.4242 136.874 11.0287 136.874 11.0287C136.874 11.0287 163.693 27.1169 171.353 31.7077C173.902 33.2425 174.752 34.7773 174.752 36.134L174.765 36.1477Z" fill="white" stroke="black" stroke-width="0.755971" stroke-miterlimit="10"/>
<path d="M83.2549 84.5655L101.821 73.1403L84.6863 62.4868L65.6971 74.0644L83.2549 84.5655Z" fill="#FFD979"/>
<path d="M104.483 50.606L126.315 37.1927L109.728 27.4352L88.2529 40.6738L104.483 50.606Z" fill="#FFD979"/>
<path d="M65.8408 73.7493L146.268 25.4846" stroke="#3D3D3D" stroke-width="0.755971" stroke-miterlimit="10"/>
<path d="M67.6592 52.357L102.124 73.036" stroke="#3D3D3D" stroke-width="0.755971" stroke-miterlimit="10"/>
<path d="M87.624 40.2039L122.089 60.8967" stroke="#3D3D3D" stroke-width="0.755971" stroke-miterlimit="10"/>
<path d="M109.715 27.6042L144.18 48.2969" stroke="#3D3D3D" stroke-width="0.755971" stroke-miterlimit="10"/>
<path d="M48.7979 63.9224L129.225 15.6577L163.704 36.3367L83.2629 84.6014L48.7979 63.9224Z" stroke="#3D3D3D" stroke-width="0.755971" stroke-miterlimit="10"/>
<path d="M48.7979 63.9255L68.3061 52.3736L84.6188 62.3648L65.7721 73.6636L48.7979 63.9255Z" fill="#3D3D3D"/>
<path d="M84.7207 62.2604L104.529 50.4268L122.898 61.1652L102.563 72.9656L84.7207 62.2604Z" fill="#3D3D3D"/>
<path d="M109.867 27.5001L129.224 15.6574L145.787 25.5873L126.41 37.43L109.867 27.5001Z" fill="#3D3D3D"/>
<rect width="13.0048" height="74.597" rx="6.50238" transform="matrix(-0.866025 -0.5 -0.866025 0.5 185.19 84.4299)" fill="#151D22"/>
<path d="M113.28 100.733L121.409 114.308L173.017 83.8892C173.536 83.606 184.125 78.8157 178.993 70.7323C173.86 62.6489 165.665 69.4153 165.208 69.963L113.28 100.733Z" fill="white"/>
<path d="M116.028 101.768C117.218 102.78 118.439 104.326 119.448 106.01C120.457 107.695 121.242 109.501 121.573 111.028C121.738 111.792 121.77 112.4 121.7 112.848C121.629 113.297 121.461 113.556 121.252 113.681C121.044 113.806 120.736 113.832 120.306 113.682C119.878 113.533 119.358 113.217 118.762 112.711C117.572 111.699 116.351 110.154 115.342 108.469C114.333 106.784 113.548 104.978 113.218 103.451C113.052 102.687 113.02 102.079 113.091 101.631C113.161 101.182 113.329 100.923 113.538 100.798C113.747 100.673 114.055 100.647 114.484 100.797C114.912 100.946 115.432 101.262 116.028 101.768Z" fill="#62E3C4" stroke="black" stroke-width="0.452958"/>
<path d="M106.522 111.891L112.402 101.587C112.887 100.737 113.88 100.261 114.766 100.676C118.83 102.58 121.201 108.347 122.253 112.071C122.636 113.428 121.567 114.673 120.157 114.649L107.977 114.446C106.679 114.424 105.879 113.019 106.522 111.891Z" fill="#FFCCBF"/>
<path d="M113.437 114.528C113.745 111.071 110.484 108.401 108.992 107.577L106.512 111.895C105.863 113.025 106.668 114.436 107.971 114.454L113.437 114.528Z" fill="#151D22"/>
<mask id="mask0_4208_11218" style="mask-type:alpha" maskUnits="userSpaceOnUse" x="113" y="66" width="68" height="49">
<path d="M113.685 100.44C118.214 100.866 123.691 110.579 121.813 114.014L173.016 83.8923C173.535 83.609 184.001 78.6942 178.992 70.7353C173.983 62.7764 165.664 69.4184 165.207 69.966L113.685 100.44Z" fill="white"/>
</mask>
<g mask="url(#mask0_4208_11218)">
<path d="M161.407 71.9525L174.896 63.3799L184.616 78.6735L171.127 87.2461C174.556 78.9565 168.051 69.2928 161.407 71.9525Z" fill="#FFCCBF"/>
<path d="M158.866 71.5147C167.793 66.8251 176.719 82.7871 169.326 88.1046" stroke="#3D3D3D" stroke-width="2.27757"/>
</g>
<circle cx="203.707" cy="30.8608" r="1.84183" fill="#72F7FF"/>
<ellipse cx="1.22255" cy="39.2183" rx="1.18642" ry="1.26575" fill="#96E4E9"/>
<ellipse cx="71.5458" cy="2.16077" rx="1.18642" ry="1.26575" fill="#96E4E9"/>
<ellipse opacity="0.2" cx="220.903" cy="8.58704" rx="1.18642" ry="1.26575" fill="#4AC0C7"/>
<ellipse cx="8.42274" cy="14.0526" rx="1.18642" ry="1.26575" fill="#72F7FF"/>
<ellipse cx="39.7724" cy="30.8367" rx="1.18642" ry="1.26575" fill="#FFD979"/>
<ellipse cx="182.488" cy="4.26774" rx="1.18642" ry="1.26575" fill="#FFD979"/>
<ellipse cx="195.921" cy="56.1963" rx="1.18642" ry="1.26575" fill="#F79780"/>
</svg>
