<svg width="31" height="23" viewBox="0 0 31 23" fill="none" xmlns="http://www.w3.org/2000/svg">
    <g opacity="0.8">
        <rect width="12.9383" height="22.1045" rx="1.83945"
            transform="matrix(-0.866025 -0.5 -0.866025 0.5 30.6409 11.3555)" fill="#151D22" />
        <path
            d="M29.8474 6.57422V7.55449C29.8474 7.85634 29.6462 8.11794 29.4593 8.29904C29.3961 8.35941 29.3328 8.41116 29.2782 8.4514L12.0185 18.8061C11.9409 18.8435 11.8661 18.878 11.7885 18.9067C11.3918 19.062 11.0037 19.1137 10.6501 19.1051C10.158 19.0931 9.47149 18.8866 9.21277 18.7659C9.10353 18.7141 9.04316 18.6796 9.04316 18.6796C9.04316 18.6796 3.42023 15.3047 1.81327 14.3417C1.73278 14.2928 1.66091 14.2468 1.59767 14.1979C1.2297 13.9248 1.10034 13.6575 1.10034 13.4131V12.4357C1.10034 12.5881 1.14921 12.7491 1.2757 12.913C1.38781 13.0596 1.56029 13.2119 1.81039 13.3643C3.41736 14.3302 9.04028 17.7022 9.04028 17.7022C9.04028 17.7022 9.04603 17.7051 9.05753 17.7137C9.17252 17.777 9.8107 18.1162 10.6472 18.1305C11.1388 18.1392 11.6965 18.0386 12.2542 17.7022C12.3548 17.6418 12.5072 17.5499 12.7084 17.4291C12.7573 17.3975 12.8119 17.3687 12.8665 17.3343C13.0879 17.202 13.3581 17.041 13.6599 16.8571L13.8957 16.7162C16.2529 15.3018 20.5132 12.7462 23.9284 10.6965L24.213 10.5269C24.328 10.4579 24.443 10.389 24.5551 10.32L24.8914 10.1187C27.3234 8.65838 29.1287 7.57749 29.1287 7.57749C29.1287 7.57749 29.1287 7.57749 29.1374 7.57174C29.1891 7.54012 29.4737 7.35326 29.6663 7.07729C29.6721 7.06867 29.6778 7.06004 29.6836 7.04855C29.7382 6.96805 29.7813 6.87894 29.81 6.78695C29.8302 6.72083 29.8417 6.64896 29.8417 6.57709L29.8474 6.57422Z"
            fill="#FFD979" stroke="black" stroke-width="0.158584" stroke-miterlimit="10" />
        <path
            d="M29.8152 6.4853V7.55756C29.8152 7.91115 29.4587 8.29636 29.2719 8.40848L11.9776 18.7488C11.5292 18.9586 10.9974 19.0478 10.6553 19.0305V18.125C10.7559 18.0646 12.5152 17.5443 12.7164 17.4236C12.7653 17.3919 12.8199 17.3632 12.8745 17.3287C13.0959 17.1965 13.3661 17.0355 13.668 16.8515L13.9037 16.7106C16.261 15.2963 20.5213 12.7407 23.9364 10.691L24.221 10.5214C24.336 10.4524 24.451 10.3834 24.5631 10.3144L24.8994 10.1132C27.3314 8.65283 29.1368 7.57194 29.1368 7.57194C29.1368 7.57194 29.1368 7.57194 29.1454 7.56619C29.1971 7.53456 29.4817 7.34771 29.6743 7.07174C29.6801 7.06311 29.6858 7.05449 29.6916 7.04299C29.7807 6.89351 29.8181 6.6549 29.8181 6.48242L29.8152 6.4853Z"
            fill="#FFD979" />
        <path
            d="M29.8469 6.5746C29.8469 6.75858 29.7722 6.93107 29.6716 7.0748C29.479 7.35077 29.1944 7.53763 29.1426 7.56925C29.1369 7.57213 29.134 7.575 29.134 7.575C29.134 7.575 27.3287 8.65589 24.8967 10.1162L24.5603 10.3175C24.4482 10.3865 24.3332 10.4526 24.2182 10.5245L23.9337 10.6941C20.5185 12.7437 16.2582 15.2993 13.9009 16.7137L13.6652 16.8546C13.3605 17.0385 13.0931 17.1966 12.8718 17.3318C12.8172 17.3663 12.7625 17.3979 12.7137 17.4266C12.5124 17.5474 12.3601 17.6393 12.2595 17.6997C10.7531 18.6053 9.24677 17.8118 9.06279 17.7112C9.05129 17.7055 9.04554 17.6997 9.04554 17.6997C9.04554 17.6997 3.42262 14.3248 1.81566 13.3618C1.56556 13.2094 1.39307 13.0599 1.28096 12.9105C1.1516 12.7437 1.09985 12.5827 1.09985 12.4304C1.09985 11.8583 1.81278 11.43 1.81278 11.43C1.81278 11.43 17.0775 2.27117 18.6844 1.30527C20.2914 0.339365 21.8984 1.30527 21.8984 1.30527C21.8984 1.30527 27.5242 4.68017 29.1311 5.6432C29.6658 5.96517 29.8441 6.28713 29.8441 6.57173L29.8469 6.5746Z"
            fill="white" stroke="black" stroke-width="0.158584" stroke-miterlimit="10" />
        <path d="M10.6502 16.7312L14.5448 14.3344L10.9505 12.0996L6.96701 14.5283L10.6502 16.7312Z"
            fill="#FFD979" />
        <path d="M15.1034 9.60773L19.6833 6.79396L16.2036 4.74707L11.6987 7.52421L15.1034 9.60773Z"
            fill="#FFD979" />
        <path d="M6.9978 14.4636L23.8695 4.33887" stroke="#3D3D3D" stroke-width="0.158584"
            stroke-miterlimit="10" />
        <path d="M7.37915 9.97559L14.609 14.3135" stroke="#3D3D3D" stroke-width="0.158584"
            stroke-miterlimit="10" />
        <path d="M11.5674 7.42676L18.7973 11.7676" stroke="#3D3D3D" stroke-width="0.158584"
            stroke-miterlimit="10" />
        <path d="M16.2017 4.78418L23.4316 9.12499" stroke="#3D3D3D" stroke-width="0.158584"
            stroke-miterlimit="10" />
        <path d="M3.42261 12.4021L20.2943 2.27734L27.527 6.61528L10.6525 16.74L3.42261 12.4021Z"
            stroke="#3D3D3D" stroke-width="0.158584" stroke-miterlimit="10" />
        <path d="M3.42212 12.4028L7.51445 9.97949L10.9364 12.0754L6.98289 14.4456L3.42212 12.4028Z"
            fill="#3D3D3D" />
        <path d="M10.958 12.0527L15.1133 9.57031L18.9667 11.823L14.7009 14.2984L10.958 12.0527Z"
            fill="#3D3D3D" />
        <path d="M16.2329 4.76164L20.2936 2.27734L23.7681 4.36038L19.7033 6.84468L16.2329 4.76164Z"
            fill="#3D3D3D" />
    </g>
</svg>
