<svg width="81" height="89" viewBox="0 0 81 89" fill="none" xmlns="http://www.w3.org/2000/svg">
<circle cx="40.356" cy="48.1441" r="40.356" fill="#232326"/>
<circle cx="26.7002" cy="10.9964" r="1.83828" transform="rotate(-19.1119 26.7002 10.9964)" fill="#A5E4FF"/>
<circle cx="49.3556" cy="8.48132" r="0.689356" transform="rotate(-19.1119 49.3556 8.48132)" fill="#C9E4F0"/>
<circle cx="6.75792" cy="28.5419" r="0.689356" transform="rotate(-19.1119 6.75792 28.5419)" fill="#C9E4F0"/>
<path d="M49.771 29.1518C51.4221 33.9167 52.2446 39.1186 51.7335 43.57C51.4215 46.288 50.612 48.7242 49.1914 50.6072C48.072 52.099 46.57 53.2453 44.6318 53.9169C36.2099 56.8352 26.5827 51.1204 23.1285 41.1522C19.6744 31.184 17.2688 28.506 25.6907 25.5876C31.4994 23.5749 42.0482 17.9899 48.4806 20.4612C51.3775 21.5718 48.6987 26.0573 49.771 29.1518V29.1518Z" fill="#FFD979"/>
<path d="M53.586 30.5985C57.0401 40.5667 53.0227 51.0095 44.6124 53.9238C36.202 56.8381 26.5826 51.1206 23.1285 41.1524C19.6744 31.1842 17.2707 28.5055 25.681 25.5912C31.4818 23.5811 42.0132 18.0022 48.4411 20.473C51.3341 21.5849 52.5138 27.504 53.586 30.5985V30.5985Z" fill="#FFD979" stroke="#E2961B" stroke-width="0.310699" stroke-miterlimit="10"/>
<path d="M49.0111 26.9602C22.2947 38.7407 33.9824 53.0356 41.5544 54.5189C30.3819 54.8613 24.961 46.4416 22.198 38.4679C19.4349 30.4941 17.2464 28.4427 25.6684 25.5243C31.477 23.5116 42.1455 18.2719 48.2881 19.9006C51.052 20.6335 48.1559 24.4859 49.0131 26.9595L49.0111 26.9602Z" fill="url(#paint0_linear_1818_4609)"/>
<path d="M59.6272 61.1916C59.7677 61.597 59.8414 62.017 59.853 62.4454C59.8756 63.2568 59.6745 64.1001 59.276 64.9379C59.1347 65.2389 58.9656 65.5409 58.7736 65.8399C58.2272 66.6899 57.4851 67.5207 56.5845 68.2957C55.052 69.6112 53.0539 70.762 50.751 71.56C44.6048 73.6898 38.6103 72.5009 37.3646 68.9059C36.2493 65.6872 39.3175 61.6296 44.3814 59.286L45.5135 62.5531C45.7548 63.2496 46.515 63.6186 47.2115 63.3772L48.0516 63.0861C48.1486 63.0525 48.2396 63.0079 48.3234 62.955C48.5716 62.7995 48.7572 62.57 48.8573 62.3071C48.9676 62.0234 48.9813 61.6992 48.8737 61.3888L47.7288 58.0848C53.3283 56.616 58.4823 57.8876 59.6272 61.1916V61.1916Z" fill="#FFD979"/>
<path d="M55.01 42.4445C54.2825 42.6966 53.4544 42.4077 53.0541 41.7163C52.5974 40.9314 52.8641 39.9263 53.647 39.4703C55.7049 38.2727 59.0322 35.4204 59.7706 32.4591C60.0923 31.1676 59.8997 29.9784 59.1815 28.8213C58.2237 27.28 57.2949 27.2585 56.9902 27.2511C55.7549 27.2228 54.1492 28.2833 53.0844 29.8323C52.5699 30.5799 51.5468 30.7693 50.7998 30.2567C50.0522 29.7421 49.8635 28.721 50.3754 27.9721C51.6745 26.0834 54.2039 23.9009 57.0631 23.9684C58.4369 24.0009 60.402 24.5673 61.9688 27.0883C63.1629 29.0106 63.4952 31.0859 62.9553 33.2526C61.8983 37.5021 57.6436 40.9452 55.2961 42.3106C55.202 42.3649 55.1044 42.4096 55.0074 42.4432L55.01 42.4445Z" fill="#FFD979"/>
<path d="M46.3994 64.4275C48.1395 63.8246 49.3219 62.6774 49.0405 61.8652C48.7591 61.053 47.1203 60.8834 45.3802 61.4864C43.6401 62.0893 42.4576 63.2365 42.7391 64.0487C43.0205 64.8609 44.6593 65.0305 46.3994 64.4275Z" fill="#F2B826"/>
<path d="M59.3891 62.604C59.4117 63.4154 59.2106 64.2587 58.8121 65.0965C57.6276 64.4313 55.6423 63.4743 53.188 62.8883C51.1577 62.4162 49.4115 62.4063 48.3934 62.4658C48.5037 62.182 48.5174 61.8578 48.4098 61.5474L47.8828 60.0264C49.0245 59.9349 51.1851 59.8925 53.7538 60.4888C56.0974 61.0501 58.0386 61.8985 59.3891 62.604Z" fill="url(#paint1_linear_1818_4609)"/>
<path d="M44.3678 48.3682L48.8794 61.3882C48.987 61.6986 48.9733 62.0228 48.863 62.3065C48.7629 62.5694 48.5773 62.7989 48.3291 62.9544C48.2453 63.0073 48.1543 63.0519 48.0573 63.0855L47.2172 63.3766C46.5207 63.618 45.7605 63.249 45.5192 62.5525L41.0076 49.5326C40.7662 48.8361 41.1359 48.0778 41.8324 47.8365L42.6724 47.5454C43.367 47.3047 44.1265 47.6717 44.3678 48.3682V48.3682Z" fill="#FFD979"/>
<path d="M27.5477 46.1428C27.4488 46.1771 27.3445 46.2023 27.2388 46.2172C24.5498 46.597 19.077 46.5247 15.6173 43.8403C13.8505 42.4728 12.8282 40.6388 12.5763 38.3879C12.2473 35.4379 13.4407 33.7771 14.4998 32.9016C16.7061 31.0788 20.0436 31.2283 22.2309 31.909C23.0977 32.1779 23.5819 33.0988 23.311 33.9663C23.042 34.8331 22.1211 35.3174 21.2536 35.0465C19.4588 34.4885 17.5412 34.6488 16.5901 35.4347C16.3554 35.629 15.639 36.2206 15.8402 38.024C15.9912 39.3755 16.5764 40.4309 17.6282 41.2464C20.0386 43.1166 24.42 43.2999 26.777 42.9656C27.6762 42.8387 28.5057 43.464 28.6325 44.3631C28.7438 45.1546 28.274 45.8933 27.5464 46.1454L27.5477 46.1428Z" fill="#F2B826"/>
<path d="M61.9779 27.0907C60.4111 24.5696 58.4459 24.0032 57.0722 23.9707C55.2054 23.9266 53.4799 24.8418 52.1437 26.0088C51.712 24.7503 51.2104 23.516 50.5947 22.5168C50.5864 22.424 50.5789 22.3332 50.5648 22.2424C50.5596 22.1899 50.5525 22.138 50.5435 22.0869C50.528 21.9857 50.5086 21.886 50.4867 21.7849C50.4729 21.7202 50.4579 21.658 50.4422 21.5939C50.4258 21.5279 50.4069 21.4606 50.3886 21.3952C50.3635 21.3104 50.3359 21.2244 50.307 21.141C49.4794 18.7527 47.0719 17.1227 43.7705 16.4565C40.4744 15.7929 36.3339 16.1042 32.1298 17.561C27.9256 19.0178 24.4803 21.3351 22.3034 23.8952C22.2259 23.9851 22.151 24.0762 22.0767 24.1693C22.0204 24.2388 21.9641 24.3083 21.9104 24.3791C21.8471 24.4597 21.7837 24.5403 21.7249 24.6215C21.6642 24.7034 21.6054 24.7846 21.5467 24.8658C21.4988 24.9346 21.4522 25.0007 21.4062 25.0688C21.3603 25.1369 21.3143 25.2049 21.2703 25.2723C21.2091 25.3653 21.1504 25.4595 21.0918 25.5537C21.0485 25.623 21.0078 25.6936 20.967 25.7642C20.9377 25.8113 20.911 25.8597 20.8836 25.9061C20.8487 25.9682 20.8156 26.0297 20.7826 26.0911C20.7508 26.1499 20.721 26.208 20.6924 26.2636C20.6518 26.3407 20.6118 26.4197 20.5757 26.4974C20.5364 26.5784 20.5003 26.6561 20.4629 26.7364C20.4275 26.8161 20.394 26.895 20.3612 26.9759C20.3277 27.0549 20.2949 27.1358 20.2653 27.2134L20.1841 27.4306C20.1811 27.4469 20.1741 27.4645 20.1685 27.4795C20.1433 27.5512 20.1195 27.6203 20.0982 27.6907C20.0469 27.8498 20.0039 28.0081 19.9649 28.165C19.9656 28.167 19.9623 28.1702 19.9623 28.1702C19.6859 29.2852 19.6865 30.378 19.9947 31.4055C19.997 31.4308 20.0012 31.4555 20.0027 31.4788C18.1353 31.3197 16.0435 31.6295 14.5047 32.9016C13.4455 33.7771 12.2522 35.4379 12.5812 38.3879C12.8324 40.6369 13.8554 42.4728 15.6203 43.8409C18.5176 46.0878 22.8251 46.5032 25.7279 46.3578C29.7924 52.3747 36.4265 55.6476 42.7077 54.4402L44.3883 59.2905C39.3245 61.6341 36.2556 65.6898 37.3709 68.9084C38.6166 72.5034 44.6111 73.6923 50.7573 71.5625C56.9035 69.4328 60.8779 64.7917 59.6315 61.1948C58.4866 57.8908 53.3333 56.6212 47.7358 58.0893L46.0847 53.3244C50.2635 51.3114 53.1526 47.3136 54.2902 42.5256C54.5301 42.5532 54.7785 42.5302 55.0172 42.4475C55.1161 42.4132 55.2136 42.3685 55.3058 42.3149C57.6533 40.9495 61.9061 37.507 62.965 33.2569C63.5043 31.0882 63.1727 29.0149 61.9785 27.0926L61.9779 27.0907ZM17.6331 41.2464C16.5813 40.4309 15.9968 39.3774 15.845 38.024C15.6439 36.2206 16.3602 35.629 16.595 35.4346C17.4837 34.7008 19.2113 34.5128 20.8969 34.9436C21.4761 36.64 22.2715 38.6721 23.1327 41.1574C23.3619 41.8189 23.6188 42.46 23.8996 43.082C21.7244 42.9883 19.2381 42.4917 17.6305 41.2451L17.6331 41.2464ZM59.7758 32.4628C59.1645 34.9128 56.7809 37.2903 54.8081 38.7149C54.916 36.0851 54.5321 33.328 53.5883 30.6041C53.4807 30.2937 53.3722 29.9553 53.2608 29.5963C54.3213 28.1792 55.823 27.2264 56.9928 27.2535C57.2974 27.2609 58.2263 27.2824 59.1841 28.8237C59.9016 29.9788 60.0949 31.17 59.7731 32.4615L59.7758 32.4628Z" stroke="black" stroke-width="0.310699" stroke-miterlimit="10"/>
<path d="M44.3887 59.2888L45.5195 62.5521C45.7609 63.2485 46.5211 63.6175 47.2175 63.3761L48.0576 63.085C48.1546 63.0514 48.2456 63.0068 48.3294 62.9539C48.5776 62.7984 48.7632 62.5689 48.8633 62.3061C48.9736 62.0223 48.9873 61.6981 48.8797 61.3877L47.7362 58.0876" stroke="black" stroke-width="0.310699" stroke-miterlimit="10"/>
<path d="M53.6593 30.5786C57.1134 40.5468 53.0959 50.9897 44.6856 53.904C36.2753 56.8183 26.6578 51.1001 23.2037 41.1319C19.7496 31.1637 17.3459 28.485 25.7562 25.5707C31.557 23.5606 42.0884 17.9817 48.5163 20.4525C51.4093 21.5644 52.5889 27.4835 53.6612 30.578L53.6593 30.5786Z" stroke="black" stroke-width="0.310699" stroke-miterlimit="10"/>
<path d="M46.8708 30.1258C47.3042 29.7148 47.7038 29.2938 48.0682 28.8655C49.8423 26.7796 50.7563 24.5572 50.5919 22.515C50.5836 22.4222 50.5761 22.3314 50.562 22.2406C50.5568 22.1881 50.5497 22.1362 50.5407 22.0851C50.5252 21.9839 50.5058 21.8842 50.4839 21.7831C50.4701 21.7184 50.4551 21.6562 50.4394 21.5921C50.423 21.5261 50.4041 21.4587 50.3858 21.3934C50.3607 21.3086 50.3331 21.2226 50.3042 21.1392C49.4766 18.7509 47.0691 17.1209 43.7677 16.4547C40.4716 15.7911 36.3311 16.1023 32.127 17.5592C27.9228 19.016 24.4774 21.3333 22.3006 23.8934C22.2231 23.9833 22.1482 24.0744 22.0739 24.1675C22.0176 24.237 21.9613 24.3065 21.9076 24.3773C21.8443 24.4579 21.7809 24.5385 21.7221 24.6197C21.6614 24.7016 21.6026 24.7828 21.5439 24.864C21.496 24.9328 21.4494 24.9989 21.4034 25.067C21.3575 25.1351 21.3115 25.2031 21.2675 25.2705C21.2063 25.3635 21.1476 25.4577 21.089 25.5519C21.0457 25.6212 21.0049 25.6918 20.9642 25.7624C20.9349 25.8095 20.9082 25.8579 20.8808 25.9043C20.8459 25.9664 20.8128 26.0278 20.7798 26.0893C20.748 26.1481 20.7182 26.2062 20.6896 26.2618C20.649 26.3389 20.609 26.4179 20.5729 26.4956C20.5336 26.5766 20.4975 26.6543 20.4601 26.7346C20.4247 26.8142 20.3912 26.8932 20.3584 26.9741C20.3249 27.0531 20.2921 27.134 20.2625 27.2116L20.1813 27.4288C20.1783 27.4451 20.1713 27.4627 20.1657 27.4777C20.1405 27.5494 20.1167 27.6185 20.0954 27.6889C20.0441 27.848 20.0011 28.0063 19.9621 28.1632L19.9595 28.1684C19.6818 29.286 19.6838 30.3827 19.9953 31.4134C20.0188 31.4813 20.0385 31.5506 20.062 31.6185C20.8902 34.0087 23.2997 35.638 26.6011 36.3042C29.8946 36.9666 34.0377 36.6566 38.2399 35.2004C40.4943 34.4193 42.741 33.4278 44.4809 32.2468" fill="#151D22" stroke="black" stroke-width="0.310699"/>
<path d="M38.2505 35.2309C46.6016 32.3371 52.0008 26.0353 50.3098 21.1554C48.6188 16.2754 40.4781 14.6654 32.127 17.5592C23.7758 20.4529 18.3767 26.7548 20.0676 31.6347C21.7586 36.5146 29.8993 38.1247 38.2505 35.2309Z" fill="#151D22" stroke="url(#paint2_linear_1818_4609)" stroke-width="0.310699"/>
<path d="M51.8003 40.5445C52.4802 42.8514 52.6576 44.8934 52.5888 46.6014C51.4938 48.3455 50.0773 49.8576 48.3809 51.0387L48.3364 51.0172C48.3364 51.0172 48.4649 50.7858 48.6292 50.3507C48.7942 49.9176 48.9945 49.2789 49.1421 48.4693C49.4152 46.9687 49.5521 44.5418 48.6598 41.5089C47.3535 37.0678 45.6395 33.8524 44.7524 32.3583C45.7076 31.7036 46.5721 31.0063 47.3331 30.2863C48.2041 31.6838 50.2559 35.2972 51.7977 40.5432L51.8003 40.5445Z" fill="url(#paint3_linear_1818_4609)"/>
<defs>
<linearGradient id="paint0_linear_1818_4609" x1="23.7774" y1="43.2706" x2="53.5986" y2="32.9371" gradientUnits="userSpaceOnUse">
<stop stop-color="#F2B826"/>
<stop offset="0.04" stop-color="#F2B929"/>
<stop offset="0.42" stop-color="#F6C145"/>
<stop offset="0.75" stop-color="#F8C656"/>
<stop offset="1" stop-color="#F9C85D"/>
</linearGradient>
<linearGradient id="paint1_linear_1818_4609" x1="57.9201" y1="63.6324" x2="51.93" y2="61.7162" gradientUnits="userSpaceOnUse">
<stop stop-color="white"/>
<stop offset="0.17" stop-color="#FFFDFA"/>
<stop offset="0.34" stop-color="#FFFAEE"/>
<stop offset="0.52" stop-color="#FFF5D9"/>
<stop offset="0.69" stop-color="#FFEEBC"/>
<stop offset="0.87" stop-color="#FFE497"/>
<stop offset="1" stop-color="#FFDD78"/>
</linearGradient>
<linearGradient id="paint2_linear_1818_4609" x1="19.851" y1="31.7098" x2="50.5242" y2="21.0811" gradientUnits="userSpaceOnUse">
<stop stop-color="#FFD979"/>
<stop offset="1" stop-opacity="0"/>
</linearGradient>
<linearGradient id="paint3_linear_1818_4609" x1="50.2162" y1="46.1481" x2="46.2528" y2="34.5262" gradientUnits="userSpaceOnUse">
<stop offset="0.33" stop-color="#FFDD78"/>
<stop offset="1" stop-color="white"/>
</linearGradient>
</defs>
</svg>
