<svg width="202" height="134" viewBox="0 0 202 134" fill="none" xmlns="http://www.w3.org/2000/svg">
<g clip-path="url(#clip0_1753_4645)">
<path d="M145.971 43.6797V48.0115C145.971 49.3453 145.082 50.5013 144.256 51.3016C143.977 51.5683 143.697 51.797 143.456 51.9748L67.1864 97.7315C66.8435 97.8967 66.5132 98.0491 66.1702 98.1761C64.4172 98.8621 62.7022 99.0908 61.1397 99.0527C58.9652 98.9996 55.9315 98.0872 54.7882 97.5537C54.3055 97.325 54.0387 97.1726 54.0387 97.1726C54.0387 97.1726 29.1914 82.2591 22.0903 78.0036C21.7346 77.7876 21.4171 77.5844 21.1376 77.3684C19.5116 76.1616 18.9399 74.9802 18.9399 73.9004V69.5814C18.9399 70.2546 19.1559 70.966 19.7148 71.6901C20.2103 72.338 20.9724 73.0112 22.0776 73.6845C29.1787 77.9528 54.026 92.8535 54.026 92.8535C54.026 92.8535 54.0514 92.8662 54.1022 92.9043C54.6103 93.1838 57.4304 94.6828 61.127 94.7463C63.2993 94.7844 65.7637 94.3398 68.2281 92.8535C68.6727 92.5868 69.346 92.1803 70.2352 91.6467C70.4511 91.507 70.6925 91.38 70.9339 91.2275C71.912 90.6432 73.1061 89.9318 74.4399 89.1188L75.4816 88.4963C85.8981 82.2464 104.724 70.9533 119.816 61.896L121.073 61.1465C121.581 60.8416 122.089 60.5368 122.585 60.2319L124.071 59.3427C134.818 52.8895 142.795 48.1131 142.795 48.1131C142.795 48.1131 142.795 48.1131 142.834 48.0877C143.062 47.9479 144.32 47.1222 145.171 45.9027C145.196 45.8646 145.222 45.8265 145.247 45.7757C145.489 45.42 145.679 45.0262 145.806 44.6197C145.895 44.3275 145.946 44.01 145.946 43.6924L145.971 43.6797Z" fill="#FFD979" stroke="black" stroke-width="0.70077" stroke-miterlimit="10"/>
<path d="M145.83 43.2861V48.0244C145.83 49.5869 144.255 51.2891 143.429 51.7845L67.007 97.4777C65.0253 98.405 62.6752 98.7988 61.1636 98.7226V94.7211C61.6082 94.4544 69.3825 92.1551 70.2717 91.6216C70.4877 91.4818 70.729 91.3548 70.9704 91.2024C71.9485 90.618 73.1426 89.9066 74.4765 89.0936L75.5181 88.4712C85.9347 82.2212 104.761 70.9282 119.852 61.8708L121.11 61.1213C121.618 60.8165 122.126 60.5116 122.621 60.2067L124.108 59.3175C134.854 52.8643 142.832 48.0879 142.832 48.0879C142.832 48.0879 142.832 48.0879 142.87 48.0625C143.099 47.9228 144.356 47.0971 145.207 45.8776C145.233 45.8395 145.258 45.8014 145.284 45.7505C145.677 45.09 145.843 44.0356 145.843 43.2734L145.83 43.2861Z" fill="#FFD979"/>
<path d="M145.971 43.6779C145.971 44.4909 145.641 45.2531 145.196 45.8883C144.345 47.1078 143.088 47.9335 142.859 48.0732C142.834 48.0859 142.821 48.0986 142.821 48.0986C142.821 48.0986 134.843 52.875 124.096 59.3282L122.61 60.2174C122.115 60.5223 121.607 60.8145 121.099 61.132L119.841 61.8815C104.75 70.9388 85.9236 82.2319 75.507 88.4819L74.4653 89.1043C73.1188 89.9173 71.9374 90.616 70.9593 91.213C70.7179 91.3655 70.4765 91.5052 70.2606 91.6322C69.3714 92.1658 68.6981 92.5723 68.2535 92.839C61.5971 96.8405 54.9406 93.3345 54.1276 92.8899C54.0768 92.8644 54.0514 92.839 54.0514 92.839C54.0514 92.839 29.2041 77.9256 22.103 73.67C20.9978 72.9968 20.2357 72.3362 19.7402 71.6756C19.1686 70.9388 18.9399 70.2275 18.9399 69.5542C18.9399 67.0263 22.0903 65.1335 22.0903 65.1335C22.0903 65.1335 89.5439 24.6613 96.645 20.3931C103.746 16.1248 110.847 20.3931 110.847 20.3931C110.847 20.3931 135.707 35.3066 142.808 39.5621C145.171 40.9849 145.959 42.4076 145.959 43.6652L145.971 43.6779Z" fill="white" stroke="black" stroke-width="0.70077" stroke-miterlimit="10"/>
<path d="M61.1422 88.5603L78.3525 77.9693L62.4692 68.0938L44.8666 78.826L61.1422 88.5603Z" fill="#FFD979"/>
<path d="M80.8209 57.0805L101.059 44.6466L85.6826 35.6016L65.7759 47.8736L80.8209 57.0805Z" fill="#FFD979"/>
<path d="M45 78.5334L119.555 33.793" stroke="#3D3D3D" stroke-width="0.70077" stroke-miterlimit="10"/>
<path d="M46.6851 58.7031L78.6334 77.8722" stroke="#3D3D3D" stroke-width="0.70077" stroke-miterlimit="10"/>
<path d="M65.1924 47.4375L97.1408 66.6192" stroke="#3D3D3D" stroke-width="0.70077" stroke-miterlimit="10"/>
<path d="M85.6699 35.7578L117.618 54.9395" stroke="#3D3D3D" stroke-width="0.70077" stroke-miterlimit="10"/>
<path d="M29.2012 69.424L103.756 24.6836L135.717 43.8526L61.1495 88.5931L29.2012 69.424Z" stroke="#3D3D3D" stroke-width="0.70077" stroke-miterlimit="10"/>
<path d="M29.2012 69.4272L47.2849 58.7188L62.4064 67.9804L44.936 78.4541L29.2012 69.4272Z" fill="#3D3D3D"/>
<path d="M62.5005 67.8836L80.8625 56.9141L97.8905 66.8683L79.0399 77.8071L62.5005 67.8836Z" fill="#3D3D3D"/>
<path d="M85.811 35.6615L103.755 24.6836L119.108 33.8884L101.146 44.8663L85.811 35.6615Z" fill="#3D3D3D"/>
<rect width="12.0552" height="69.1499" rx="6.02758" transform="matrix(-0.866025 -0.5 -0.866025 0.5 155.635 88.4336)" fill="#151D22"/>
<path d="M88.9752 103.546L96.5099 116.13L144.35 87.9324C144.831 87.6698 154.647 83.2294 149.889 75.7362C145.131 68.2431 137.535 74.5154 137.111 75.0231L88.9752 103.546Z" fill="white"/>
<path d="M91.5223 104.506C92.6255 105.444 93.7578 106.876 94.6928 108.438C95.6279 110 96.356 111.674 96.6621 113.09C96.8153 113.798 96.8453 114.361 96.7798 114.777C96.7143 115.193 96.5585 115.433 96.3651 115.549C96.1717 115.665 95.8862 115.689 95.4884 115.55C95.0913 115.411 94.6092 115.119 94.057 114.65C92.9538 113.711 91.8216 112.279 90.8865 110.717C89.9514 109.156 89.2233 107.481 88.9172 106.066C88.764 105.357 88.734 104.794 88.7995 104.379C88.8651 103.963 89.0208 103.722 89.2142 103.606C89.4076 103.491 89.6931 103.467 90.0909 103.606C90.488 103.744 90.9701 104.036 91.5223 104.506Z" fill="#62E3C4" stroke="black" stroke-width="0.419882"/>
<path d="M82.7106 113.89L88.1616 104.338C88.611 103.55 89.531 103.109 90.3522 103.493C94.1199 105.258 96.3175 110.605 97.2929 114.057C97.6482 115.314 96.6565 116.468 95.3501 116.446L84.0594 116.258C82.8559 116.238 82.114 114.935 82.7106 113.89Z" fill="#FFCCBF"/>
<path d="M89.1202 116.333C89.4063 113.13 86.3834 110.654 85.0003 109.891L82.7017 113.893C82.1001 114.941 82.8457 116.249 84.0534 116.265L89.1202 116.333Z" fill="#151D22"/>
<mask id="mask0_1753_4645" style="mask-type:alpha" maskUnits="userSpaceOnUse" x="89" y="72" width="63" height="44">
<path d="M89.35 103.274C93.5489 103.67 98.6252 112.674 96.8847 115.858L144.349 87.9352C144.83 87.6726 154.532 83.1167 149.888 75.7389C145.245 68.3612 137.534 74.5181 137.11 75.0258L89.35 103.274Z" fill="white"/>
</mask>
<g mask="url(#mask0_1753_4645)">
<path d="M133.588 76.8672L146.092 68.9206L155.102 83.0975L142.598 91.0441C145.777 83.3598 139.747 74.4017 133.588 76.8672Z" fill="#FFCCBF"/>
<path d="M131.232 76.4614C139.507 72.1142 147.782 86.9106 140.928 91.8399" stroke="#3D3D3D" stroke-width="2.11126"/>
</g>
<circle cx="172.799" cy="38.7777" r="1.70734" fill="#72F7FF"/>
<ellipse cx="50.2878" cy="12.1733" rx="1.09978" ry="1.17333" fill="#96E4E9"/>
<ellipse opacity="0.2" cx="188.739" cy="18.1304" rx="1.09978" ry="1.17333" fill="#4AC0C7"/>
<ellipse cx="20.8346" cy="38.7554" rx="1.09978" ry="1.17333" fill="#FFD979"/>
<ellipse cx="153.129" cy="14.1265" rx="1.09978" ry="1.17333" fill="#FFD979"/>
<ellipse cx="165.581" cy="62.2632" rx="1.09978" ry="1.17333" fill="#F79780"/>
</g>
<defs>
<clipPath id="clip0_1753_4645">
<rect width="202" height="134" fill="white"/>
</clipPath>
</defs>
</svg>
