<svg width="80" height="48" viewBox="0 0 80 48" fill="none" xmlns="http://www.w3.org/2000/svg">
<circle cx="16.1077" cy="25.7" r="15.7801" fill="#93B5FE"/>
<path d="M13.7851 24.7093H14.5366C14.8608 24.7093 15.0917 24.6454 15.2292 24.5177C15.3766 24.3801 15.4503 24.1591 15.4503 23.8545V23.1619C15.4503 22.8574 15.3766 22.6412 15.2292 22.5135C15.0917 22.376 14.8608 22.3072 14.5366 22.3072H13.8293C13.5149 22.3072 13.2938 22.376 13.1661 22.5135C13.0384 22.6412 12.9745 22.8574 12.9745 23.1619V23.5303C12.9745 23.7367 12.8714 23.8398 12.6651 23.8398H11.4125C11.2062 23.8398 11.103 23.7367 11.103 23.5303V23.1325C11.103 22.3662 11.3142 21.7767 11.7367 21.3641C12.1591 20.9515 12.7584 20.7452 13.5345 20.7452H14.8461C15.6222 20.7452 16.2215 20.9515 16.6439 21.3641C17.0664 21.7767 17.2776 22.3662 17.2776 23.1325V23.8693C17.2776 24.6945 16.8895 25.23 16.1134 25.4756C16.8895 25.6426 17.2776 26.178 17.2776 27.0818V27.8334C17.2776 28.5997 17.0664 29.1892 16.6439 29.6018C16.2215 30.0144 15.6222 30.2207 14.8461 30.2207H13.5345C12.7584 30.2207 12.1591 30.0144 11.7367 29.6018C11.3142 29.1892 11.103 28.5997 11.103 27.8334V27.4208C11.103 27.2046 11.2062 27.0966 11.4125 27.0966H12.6651C12.8714 27.0966 12.9745 27.2046 12.9745 27.4208V27.8039C12.9745 28.1183 13.0384 28.3393 13.1661 28.4671C13.2938 28.5948 13.5149 28.6586 13.8293 28.6586H14.5366C14.8608 28.6586 15.0917 28.5948 15.2292 28.4671C15.3766 28.3295 15.4503 28.1085 15.4503 27.8039V27.0818C15.4503 26.7773 15.3766 26.5611 15.2292 26.4334C15.0917 26.2959 14.8608 26.2271 14.5366 26.2271H13.7851C13.5787 26.2271 13.4756 26.124 13.4756 25.9177V25.0335C13.4756 24.8173 13.5787 24.7093 13.7851 24.7093Z" fill="black"/>
<circle cx="62.6023" cy="25.3332" r="16.6868" fill="#93B5FE"/>
<path d="M62.5011 30.0121V28.6267C62.5011 28.0726 62.7393 27.6011 63.2157 27.2122L65.899 24.9372C66.3364 24.5775 66.5552 24.1886 66.5552 23.7706V23.3331C66.5552 23.0317 66.4823 22.8178 66.3364 22.6915C66.2003 22.5553 65.9719 22.4873 65.651 22.4873H65.1406C64.8295 22.4873 64.6108 22.5553 64.4844 22.6915C64.358 22.8178 64.2948 23.0317 64.2948 23.3331V23.7998C64.2948 24.0136 64.1927 24.1206 63.9886 24.1206H62.749C62.5449 24.1206 62.4428 24.0136 62.4428 23.7998V23.3039C62.4428 22.5456 62.6518 21.9623 63.0699 21.554C63.4879 21.1457 64.0809 20.9415 64.849 20.9415H65.9573C66.7253 20.9415 67.3184 21.1457 67.7364 21.554C68.1545 21.9623 68.3635 22.5456 68.3635 23.3039V23.8873C68.3635 24.6456 68.0718 25.2726 67.4885 25.7685L64.7469 28.1017C64.6302 28.2087 64.5719 28.3253 64.5719 28.4517V28.6851H68.0572C68.2614 28.6851 68.3635 28.7871 68.3635 28.9913V30.0121C68.3635 30.2163 68.2614 30.3184 68.0572 30.3184H62.8074C62.6032 30.3184 62.5011 30.2163 62.5011 30.0121Z" fill="black"/>
<circle cx="39.7189" cy="23.6891" r="23.3278" fill="#F79780"/>
<path d="M35.3337 21.1622V19.475C35.3337 19.2419 35.4366 19.0635 35.6424 18.9401L37.5147 17.7673C37.8302 17.5753 38.0977 17.4793 38.3171 17.4793H39.9631C40.2512 17.4793 40.3952 17.6233 40.3952 17.9113V30.2769C40.3952 30.4415 40.3609 30.5581 40.2923 30.6267C40.2375 30.6816 40.1346 30.709 39.9837 30.709H38.2142C37.9262 30.709 37.7822 30.565 37.7822 30.2769V20.2569L35.7658 21.4091C35.4778 21.5325 35.3337 21.4502 35.3337 21.1622Z" fill="black"/>
</svg>
