<svg width="36" height="32" viewBox="0 0 36 32" fill="none" xmlns="http://www.w3.org/2000/svg">
<rect x="0.78125" y="17.0071" width="30.578" height="16.3083" rx="0.713187" transform="rotate(-30.1977 0.78125 17.0071)" fill="#232326"/>
<rect x="0.997559" y="16.2793" width="30.578" height="16.3083" rx="0.713187" transform="rotate(-30.1977 0.997559 16.2793)" fill="white"/>
<rect x="2.3916" y="16.6477" width="28.5395" height="14.2697" transform="rotate(-30.1977 2.3916 16.6477)" fill="#A5FCE7" stroke="#3D3D3D" stroke-width="0.118865"/>
<rect x="2.3916" y="16.6477" width="4.75658" height="4.75658" transform="rotate(-30.1977 2.3916 16.6477)" fill="#3D3D3D" stroke="#3D3D3D" stroke-width="0.118865"/>
<rect x="4.78467" y="20.7585" width="4.75658" height="4.75658" transform="rotate(-30.1977 4.78467 20.7585)" stroke="#3D3D3D" stroke-width="0.118865"/>
<rect x="7.17822" y="24.8694" width="4.75658" height="4.75658" transform="rotate(-30.1977 7.17822 24.8694)" stroke="#3D3D3D" stroke-width="0.118865"/>
<rect x="6.50195" y="14.2551" width="4.75658" height="4.75658" transform="rotate(-30.1977 6.50195 14.2551)" stroke="#3D3D3D" stroke-width="0.118865"/>
<rect x="6.50195" y="14.2551" width="4.75658" height="4.75658" transform="rotate(-30.1977 6.50195 14.2551)" stroke="#3D3D3D" stroke-width="0.118865"/>
<rect x="10.6133" y="11.8625" width="4.75658" height="4.75658" transform="rotate(-30.1977 10.6133 11.8625)" stroke="#3D3D3D" stroke-width="0.118865"/>
<rect x="14.7236" y="9.46997" width="4.75658" height="4.75658" transform="rotate(-30.1977 14.7236 9.46997)" stroke="#3D3D3D" stroke-width="0.118865"/>
<rect x="18.8345" y="7.07837" width="4.75658" height="4.75658" transform="rotate(-30.1977 18.8345 7.07837)" fill="#3D3D3D" stroke="#3D3D3D" stroke-width="0.118865"/>
<rect x="22.9463" y="4.68506" width="4.75658" height="4.75658" transform="rotate(-30.1977 22.9463 4.68506)" stroke="#3D3D3D" stroke-width="0.118865"/>
<rect x="13.0059" y="15.9734" width="4.75658" height="4.75658" transform="rotate(-30.1977 13.0059 15.9734)" fill="#3D3D3D" stroke="#3D3D3D" stroke-width="0.118865"/>
<rect x="8.89551" y="18.366" width="4.75658" height="4.75658" transform="rotate(-30.1977 8.89551 18.366)" stroke="#3D3D3D" stroke-width="0.118865"/>
<rect x="17.1167" y="13.5818" width="4.75658" height="4.75658" transform="rotate(-30.1977 17.1167 13.5818)" stroke="#3D3D3D" stroke-width="0.118865"/>
<rect x="15.3999" y="20.0845" width="4.75658" height="4.75658" transform="rotate(-30.1977 15.3999 20.0845)" stroke="#3D3D3D" stroke-width="0.118865"/>
<rect x="21.228" y="11.1885" width="4.75658" height="4.75658" transform="rotate(-30.1977 21.228 11.1885)" fill="#3D3D3D" stroke="#3D3D3D" stroke-width="0.118865"/>
<rect x="19.5103" y="17.6926" width="4.75658" height="4.75658" transform="rotate(-30.1977 19.5103 17.6926)" stroke="#3D3D3D" stroke-width="0.118865"/>
<rect x="23.6211" y="15.3" width="4.75658" height="4.75658" transform="rotate(-30.1977 23.6211 15.3)" stroke="#3D3D3D" stroke-width="0.118865"/>
<rect x="25.3398" y="8.79663" width="4.75658" height="4.75658" transform="rotate(-30.1977 25.3398 8.79663)" stroke="#3D3D3D" stroke-width="0.118865"/>
<rect x="11.2886" y="22.4775" width="4.75658" height="4.75658" transform="rotate(-30.1977 11.2886 22.4775)" fill="#3D3D3D" stroke="#3D3D3D" stroke-width="0.118865"/>
<rect x="27.7329" y="12.9067" width="4.75658" height="4.75658" transform="rotate(-30.1977 27.7329 12.9067)" fill="#3D3D3D" stroke="#3D3D3D" stroke-width="0.118865"/>
</svg>
