<svg width="373" height="302" viewBox="0 0 373 302" fill="none" xmlns="http://www.w3.org/2000/svg">
<g filter="url(#filter0_d_2857_14474)">
<path d="M23 19.4754C23 14.2423 27.2423 10 32.4754 10H341.525C346.758 10 351 14.2423 351 19.4754V255.525C351 260.758 346.758 265 341.525 265H32.4755C27.2423 265 23 260.758 23 255.525V19.4754Z" fill="#01656B"/>
<path d="M23.4738 19.4754C23.4738 14.504 27.504 10.4738 32.4754 10.4738H341.525C346.496 10.4738 350.526 14.504 350.526 19.4754V255.525C350.526 260.496 346.496 264.526 341.525 264.526H32.4755C27.504 264.526 23.4738 260.496 23.4738 255.525V19.4754Z" stroke="url(#paint0_linear_2857_14474)" stroke-opacity="0.16" stroke-width="0.947545"/>
</g>
<path d="M143.43 244L141.252 232.264H143.97L144.78 237.754C144.852 238.366 144.93 238.984 145.014 239.608C145.098 240.22 145.176 240.838 145.248 241.462H145.32C145.44 240.838 145.554 240.22 145.662 239.608C145.782 238.984 145.902 238.366 146.022 237.754L147.282 232.264H149.532L150.792 237.754C150.912 238.342 151.026 238.948 151.134 239.572C151.254 240.196 151.374 240.826 151.494 241.462H151.566C151.65 240.826 151.728 240.202 151.8 239.59C151.884 238.966 151.968 238.354 152.052 237.754L152.862 232.264H155.4L153.312 244H149.982L148.83 238.672C148.734 238.216 148.644 237.76 148.56 237.304C148.488 236.836 148.422 236.386 148.362 235.954H148.29C148.218 236.386 148.14 236.836 148.056 237.304C147.984 237.76 147.9 238.216 147.804 238.672L146.706 244H143.43ZM156.813 244V235.072H159.459V244H156.813ZM158.127 233.758C157.683 233.758 157.323 233.632 157.047 233.38C156.771 233.128 156.633 232.792 156.633 232.372C156.633 231.952 156.771 231.616 157.047 231.364C157.323 231.112 157.683 230.986 158.127 230.986C158.571 230.986 158.931 231.112 159.207 231.364C159.483 231.616 159.621 231.952 159.621 232.372C159.621 232.792 159.483 233.128 159.207 233.38C158.931 233.632 158.571 233.758 158.127 233.758ZM161.787 244V235.072H163.947L164.127 236.206H164.199C164.583 235.846 165.003 235.534 165.459 235.27C165.927 234.994 166.461 234.856 167.061 234.856C168.033 234.856 168.735 235.18 169.167 235.828C169.611 236.464 169.833 237.34 169.833 238.456V244H167.187V238.798C167.187 238.15 167.097 237.706 166.917 237.466C166.749 237.226 166.473 237.106 166.089 237.106C165.753 237.106 165.465 237.184 165.225 237.34C164.985 237.484 164.721 237.694 164.433 237.97V244H161.787ZM175.781 244V241.858H178.265V235.252H176.123V233.614C176.747 233.494 177.275 233.35 177.707 233.182C178.139 233.014 178.559 232.81 178.967 232.57H180.911V241.858H183.053V244H175.781ZM193.917 244.216C192.933 244.216 192.027 243.988 191.199 243.532C190.371 243.076 189.705 242.404 189.201 241.516C188.709 240.616 188.463 239.512 188.463 238.204C188.463 236.908 188.715 235.804 189.219 234.892C189.735 233.968 190.413 233.266 191.253 232.786C192.105 232.294 193.023 232.048 194.007 232.048C194.763 232.048 195.441 232.204 196.041 232.516C196.641 232.816 197.139 233.17 197.535 233.578L196.131 235.27C195.831 234.994 195.513 234.772 195.177 234.604C194.853 234.424 194.481 234.334 194.061 234.334C193.533 234.334 193.047 234.484 192.603 234.784C192.171 235.084 191.823 235.516 191.559 236.08C191.307 236.644 191.181 237.322 191.181 238.114C191.181 239.314 191.439 240.25 191.955 240.922C192.471 241.594 193.161 241.93 194.025 241.93C194.505 241.93 194.931 241.822 195.303 241.606C195.687 241.39 196.023 241.132 196.311 240.832L197.715 242.488C196.731 243.64 195.465 244.216 193.917 244.216ZM199.281 244V235.072H201.441L201.621 236.638H201.693C202.017 236.038 202.407 235.594 202.863 235.306C203.319 235.006 203.775 234.856 204.231 234.856C204.483 234.856 204.693 234.874 204.861 234.91C205.029 234.934 205.173 234.976 205.293 235.036L204.861 237.322C204.705 237.274 204.549 237.238 204.393 237.214C204.249 237.19 204.081 237.178 203.889 237.178C203.553 237.178 203.199 237.304 202.827 237.556C202.467 237.796 202.167 238.216 201.927 238.816V244H199.281ZM210.111 244.216C209.355 244.216 208.641 244.036 207.969 243.676C207.309 243.304 206.775 242.77 206.367 242.074C205.959 241.366 205.755 240.52 205.755 239.536C205.755 238.54 205.959 237.694 206.367 236.998C206.775 236.302 207.309 235.774 207.969 235.414C208.641 235.042 209.355 234.856 210.111 234.856C210.867 234.856 211.575 235.042 212.235 235.414C212.895 235.774 213.429 236.302 213.837 236.998C214.245 237.694 214.449 238.54 214.449 239.536C214.449 240.52 214.245 241.366 213.837 242.074C213.429 242.77 212.895 243.304 212.235 243.676C211.575 244.036 210.867 244.216 210.111 244.216ZM210.111 242.074C210.651 242.074 211.059 241.846 211.335 241.39C211.611 240.922 211.749 240.304 211.749 239.536C211.749 238.756 211.611 238.138 211.335 237.682C211.059 237.226 210.651 236.998 210.111 236.998C209.559 236.998 209.145 237.226 208.869 237.682C208.605 238.138 208.473 238.756 208.473 239.536C208.473 240.304 208.605 240.922 208.869 241.39C209.145 241.846 209.559 242.074 210.111 242.074ZM216.262 244V235.072H218.422L218.602 236.638H218.674C218.998 236.038 219.388 235.594 219.844 235.306C220.3 235.006 220.756 234.856 221.212 234.856C221.464 234.856 221.674 234.874 221.842 234.91C222.01 234.934 222.154 234.976 222.274 235.036L221.842 237.322C221.686 237.274 221.53 237.238 221.374 237.214C221.23 237.19 221.062 237.178 220.87 237.178C220.534 237.178 220.18 237.304 219.808 237.556C219.448 237.796 219.148 238.216 218.908 238.816V244H216.262ZM227.254 244.216C226.402 244.216 225.634 244.03 224.95 243.658C224.266 243.286 223.726 242.752 223.33 242.056C222.934 241.36 222.736 240.52 222.736 239.536C222.736 238.564 222.934 237.73 223.33 237.034C223.738 236.338 224.266 235.804 224.914 235.432C225.562 235.048 226.24 234.856 226.948 234.856C227.8 234.856 228.502 235.048 229.054 235.432C229.618 235.804 230.038 236.314 230.314 236.962C230.602 237.598 230.746 238.324 230.746 239.14C230.746 239.368 230.734 239.596 230.71 239.824C230.686 240.04 230.662 240.202 230.638 240.31H225.292C225.412 240.958 225.682 241.438 226.102 241.75C226.522 242.05 227.026 242.2 227.614 242.2C228.25 242.2 228.892 242.002 229.54 241.606L230.422 243.208C229.966 243.52 229.456 243.766 228.892 243.946C228.328 244.126 227.782 244.216 227.254 244.216ZM225.274 238.564H228.496C228.496 238.072 228.376 237.67 228.136 237.358C227.908 237.034 227.53 236.872 227.002 236.872C226.594 236.872 226.228 237.016 225.904 237.304C225.58 237.58 225.37 238 225.274 238.564ZM233.6 239.842L233.222 234.334L233.132 231.94H235.796L235.706 234.334L235.328 239.842H233.6ZM234.464 244.216C234.008 244.216 233.624 244.06 233.312 243.748C233.012 243.424 232.862 243.028 232.862 242.56C232.862 242.08 233.012 241.684 233.312 241.372C233.624 241.048 234.008 240.886 234.464 240.886C234.92 240.886 235.298 241.048 235.598 241.372C235.91 241.684 236.066 242.08 236.066 242.56C236.066 243.028 235.91 243.424 235.598 243.748C235.298 244.06 234.92 244.216 234.464 244.216Z" fill="#FFD979"/>
<path d="M136.518 217.035H133.747C133.263 217.035 133.021 216.804 133.021 216.342V199.814C133.021 199.572 132.9 199.451 132.658 199.451H128.897C128.435 199.451 128.204 199.22 128.204 198.758V196.515C128.204 196.053 128.435 195.822 128.897 195.822H141.368C141.83 195.822 142.061 196.053 142.061 196.515V198.758C142.061 199.22 141.83 199.451 141.368 199.451H137.607C137.343 199.451 137.211 199.572 137.211 199.814V216.342C137.211 216.804 136.98 217.035 136.518 217.035ZM150.155 217.035H149.363C147.626 217.035 146.284 216.573 145.338 215.65C144.393 214.726 143.92 213.395 143.92 211.658V205.587C143.92 203.85 144.393 202.519 145.338 201.596C146.284 200.672 147.626 200.21 149.363 200.21H156.984C157.468 200.21 157.71 200.441 157.71 200.903V216.342C157.71 216.804 157.468 217.035 156.984 217.035H154.213C153.751 217.035 153.52 216.804 153.52 216.342V215.254H153.388C153.146 215.847 152.717 216.298 152.102 216.606C151.486 216.892 150.837 217.035 150.155 217.035ZM153.52 210.899V204.202C153.52 203.96 153.388 203.839 153.124 203.839H150.023C149.319 203.839 148.824 203.993 148.539 204.301C148.253 204.587 148.11 205.082 148.11 205.785V211.46C148.11 212.164 148.253 212.669 148.539 212.977C148.824 213.263 149.319 213.406 150.023 213.406H151.244C152.761 213.406 153.52 212.57 153.52 210.899ZM164.822 217.035H162.018C161.556 217.035 161.325 216.804 161.325 216.342V200.903C161.325 200.441 161.556 200.21 162.018 200.21H164.822C165.284 200.21 165.515 200.441 165.515 200.903V201.991H165.647C165.911 201.464 166.351 201.035 166.966 200.705C167.604 200.375 168.33 200.21 169.144 200.21H170.067C171.981 200.21 173.356 200.914 174.191 202.321C174.939 200.914 176.226 200.21 178.051 200.21H179.008C180.701 200.21 181.977 200.672 182.835 201.596C183.715 202.519 184.154 203.85 184.154 205.587V216.342C184.154 216.804 183.924 217.035 183.462 217.035H180.657C180.196 217.035 179.965 216.804 179.965 216.342V205.785C179.965 205.082 179.822 204.587 179.536 204.301C179.25 203.993 178.755 203.839 178.051 203.839H177.226C175.709 203.839 174.95 204.686 174.95 206.379V216.342C174.95 216.804 174.708 217.035 174.224 217.035H171.453C170.991 217.035 170.76 216.804 170.76 216.342V205.785C170.76 205.082 170.606 204.587 170.298 204.301C170.012 203.993 169.518 203.839 168.814 203.839H167.791C166.274 203.839 165.515 204.675 165.515 206.346V216.342C165.515 216.804 165.284 217.035 164.822 217.035ZM192.199 213.406H195.564C196.268 213.406 196.763 213.263 197.049 212.977C197.357 212.669 197.511 212.164 197.511 211.46V205.719C197.511 205.016 197.357 204.521 197.049 204.235C196.763 203.927 196.268 203.773 195.564 203.773H194.113C192.595 203.773 191.836 204.609 191.836 206.28V213.043C191.836 213.285 191.957 213.406 192.199 213.406ZM187.647 216.342V194.536C187.647 194.074 187.877 193.843 188.339 193.843H191.144C191.605 193.843 191.836 194.074 191.836 194.536V201.958H191.968C192.21 201.365 192.639 200.914 193.255 200.606C193.871 200.298 194.52 200.144 195.201 200.144H196.257C197.995 200.144 199.336 200.606 200.282 201.53C201.228 202.453 201.701 203.784 201.701 205.521V211.658C201.701 213.395 201.228 214.726 200.282 215.65C199.336 216.573 197.995 217.035 196.257 217.035H188.339C187.877 217.035 187.647 216.804 187.647 216.342ZM213.061 217.035H210.125C208.388 217.035 207.046 216.573 206.1 215.65C205.155 214.726 204.682 213.395 204.682 211.658V205.587C204.682 203.85 205.155 202.519 206.1 201.596C207.046 200.672 208.388 200.21 210.125 200.21H213.061C214.777 200.21 216.108 200.683 217.053 201.629C218.021 202.552 218.505 203.872 218.505 205.587V211.658C218.505 213.373 218.021 214.704 217.053 215.65C216.108 216.573 214.777 217.035 213.061 217.035ZM210.752 213.439H212.435C213.138 213.439 213.633 213.296 213.919 213.01C214.227 212.724 214.381 212.23 214.381 211.526V205.719C214.381 205.016 214.227 204.521 213.919 204.235C213.633 203.949 213.138 203.806 212.435 203.806H210.752C210.048 203.806 209.553 203.949 209.267 204.235C208.982 204.521 208.839 205.016 208.839 205.719V211.526C208.839 212.23 208.982 212.724 209.267 213.01C209.553 213.296 210.048 213.439 210.752 213.439ZM225.459 217.035H222.655C222.193 217.035 221.962 216.804 221.962 216.342V194.536C221.962 194.074 222.193 193.843 222.655 193.843H225.459C225.921 193.843 226.152 194.074 226.152 194.536V216.342C226.152 216.804 225.921 217.035 225.459 217.035ZM235.853 217.035H235.061C233.324 217.035 231.982 216.573 231.037 215.65C230.091 214.726 229.618 213.395 229.618 211.658V205.587C229.618 203.85 230.091 202.519 231.037 201.596C231.982 200.672 233.324 200.21 235.061 200.21H242.682C243.166 200.21 243.408 200.441 243.408 200.903V216.342C243.408 216.804 243.166 217.035 242.682 217.035H239.911C239.449 217.035 239.218 216.804 239.218 216.342V215.254H239.086C238.844 215.847 238.416 216.298 237.8 216.606C237.184 216.892 236.535 217.035 235.853 217.035ZM239.218 210.899V204.202C239.218 203.96 239.086 203.839 238.822 203.839H235.721C235.018 203.839 234.523 203.993 234.237 204.301C233.951 204.587 233.808 205.082 233.808 205.785V211.46C233.808 212.164 233.951 212.669 234.237 212.977C234.523 213.263 235.018 213.406 235.721 213.406H236.942C238.46 213.406 239.218 212.57 239.218 210.899Z" fill="#62E3C4"/>
<path d="M135.692 215.391H132.921C132.437 215.391 132.195 215.16 132.195 214.698V198.17C132.195 197.928 132.074 197.807 131.832 197.807H128.071C127.609 197.807 127.378 197.576 127.378 197.114V194.87C127.378 194.409 127.609 194.178 128.071 194.178H140.542C141.003 194.178 141.234 194.409 141.234 194.87V197.114C141.234 197.576 141.003 197.807 140.542 197.807H136.781C136.517 197.807 136.385 197.928 136.385 198.17V214.698C136.385 215.16 136.154 215.391 135.692 215.391ZM149.329 215.391H148.537C146.8 215.391 145.458 214.929 144.512 214.005C143.567 213.081 143.094 211.751 143.094 210.013V203.943C143.094 202.205 143.567 200.875 144.512 199.951C145.458 199.027 146.8 198.565 148.537 198.565H156.158C156.642 198.565 156.884 198.796 156.884 199.258V214.698C156.884 215.16 156.642 215.391 156.158 215.391H153.387C152.925 215.391 152.694 215.16 152.694 214.698V213.609H152.562C152.32 214.203 151.891 214.654 151.275 214.962C150.66 215.248 150.011 215.391 149.329 215.391ZM152.694 209.254V202.557C152.694 202.315 152.562 202.194 152.298 202.194H149.197C148.493 202.194 147.998 202.348 147.712 202.656C147.426 202.942 147.283 203.437 147.283 204.141V209.815C147.283 210.519 147.426 211.025 147.712 211.333C147.998 211.619 148.493 211.762 149.197 211.762H150.418C151.935 211.762 152.694 210.926 152.694 209.254ZM163.996 215.391H161.192C160.73 215.391 160.499 215.16 160.499 214.698V199.258C160.499 198.796 160.73 198.565 161.192 198.565H163.996C164.458 198.565 164.689 198.796 164.689 199.258V200.347H164.821C165.084 199.819 165.524 199.39 166.14 199.06C166.778 198.73 167.504 198.565 168.318 198.565H169.241C171.155 198.565 172.529 199.269 173.365 200.677C174.113 199.269 175.4 198.565 177.225 198.565H178.182C179.875 198.565 181.151 199.027 182.009 199.951C182.888 200.875 183.328 202.205 183.328 203.943V214.698C183.328 215.16 183.097 215.391 182.635 215.391H179.831C179.369 215.391 179.138 215.16 179.138 214.698V204.141C179.138 203.437 178.996 202.942 178.71 202.656C178.424 202.348 177.929 202.194 177.225 202.194H176.4C174.883 202.194 174.124 203.041 174.124 204.735V214.698C174.124 215.16 173.882 215.391 173.398 215.391H170.627C170.165 215.391 169.934 215.16 169.934 214.698V204.141C169.934 203.437 169.78 202.942 169.472 202.656C169.186 202.348 168.691 202.194 167.988 202.194H166.965C165.447 202.194 164.689 203.03 164.689 204.702V214.698C164.689 215.16 164.458 215.391 163.996 215.391ZM191.373 211.762H194.738C195.442 211.762 195.937 211.619 196.223 211.333C196.531 211.025 196.685 210.519 196.685 209.815V204.075C196.685 203.371 196.531 202.876 196.223 202.59C195.937 202.282 195.442 202.128 194.738 202.128H193.287C191.769 202.128 191.01 202.964 191.01 204.636V211.399C191.01 211.641 191.131 211.762 191.373 211.762ZM186.82 214.698V192.891C186.82 192.429 187.051 192.198 187.513 192.198H190.317C190.779 192.198 191.01 192.429 191.01 192.891V200.314H191.142C191.384 199.72 191.813 199.269 192.429 198.961C193.045 198.653 193.693 198.499 194.375 198.499H195.431C197.168 198.499 198.51 198.961 199.456 199.885C200.401 200.809 200.874 202.139 200.874 203.877V210.013C200.874 211.751 200.401 213.081 199.456 214.005C198.51 214.929 197.168 215.391 195.431 215.391H187.513C187.051 215.391 186.82 215.16 186.82 214.698ZM212.235 215.391H209.299C207.562 215.391 206.22 214.929 205.274 214.005C204.328 213.081 203.856 211.751 203.856 210.013V203.943C203.856 202.205 204.328 200.875 205.274 199.951C206.22 199.027 207.562 198.565 209.299 198.565H212.235C213.951 198.565 215.281 199.038 216.227 199.984C217.195 200.908 217.679 202.227 217.679 203.943V210.013C217.679 211.729 217.195 213.059 216.227 214.005C215.281 214.929 213.951 215.391 212.235 215.391ZM209.926 211.795H211.608C212.312 211.795 212.807 211.652 213.093 211.366C213.401 211.08 213.555 210.585 213.555 209.881V204.075C213.555 203.371 213.401 202.876 213.093 202.59C212.807 202.304 212.312 202.161 211.608 202.161H209.926C209.222 202.161 208.727 202.304 208.441 202.59C208.155 202.876 208.012 203.371 208.012 204.075V209.881C208.012 210.585 208.155 211.08 208.441 211.366C208.727 211.652 209.222 211.795 209.926 211.795ZM224.633 215.391H221.829C221.367 215.391 221.136 215.16 221.136 214.698V192.891C221.136 192.429 221.367 192.198 221.829 192.198H224.633C225.095 192.198 225.326 192.429 225.326 192.891V214.698C225.326 215.16 225.095 215.391 224.633 215.391ZM235.027 215.391H234.235C232.498 215.391 231.156 214.929 230.21 214.005C229.265 213.081 228.792 211.751 228.792 210.013V203.943C228.792 202.205 229.265 200.875 230.21 199.951C231.156 199.027 232.498 198.565 234.235 198.565H241.856C242.34 198.565 242.582 198.796 242.582 199.258V214.698C242.582 215.16 242.34 215.391 241.856 215.391H239.085C238.623 215.391 238.392 215.16 238.392 214.698V213.609H238.26C238.018 214.203 237.589 214.654 236.974 214.962C236.358 215.248 235.709 215.391 235.027 215.391ZM238.392 209.254V202.557C238.392 202.315 238.26 202.194 237.996 202.194H234.895C234.191 202.194 233.696 202.348 233.411 202.656C233.125 202.942 232.982 203.437 232.982 204.141V209.815C232.982 210.519 233.125 211.025 233.411 211.333C233.696 211.619 234.191 211.762 234.895 211.762H236.116C237.633 211.762 238.392 210.926 238.392 209.254Z" fill="#323232"/>
<path d="M133.71 214H130.938C130.454 214 130.213 213.769 130.213 213.307V196.779C130.213 196.537 130.092 196.416 129.85 196.416H126.089C125.627 196.416 125.396 196.185 125.396 195.723V193.48C125.396 193.018 125.627 192.787 126.089 192.787H138.559C139.021 192.787 139.252 193.018 139.252 193.48V195.723C139.252 196.185 139.021 196.416 138.559 196.416H134.798C134.534 196.416 134.402 196.537 134.402 196.779V213.307C134.402 213.769 134.171 214 133.71 214ZM147.346 214H146.555C144.817 214 143.476 213.538 142.53 212.614C141.584 211.691 141.111 210.36 141.111 208.623V202.552C141.111 200.815 141.584 199.484 142.53 198.56C143.476 197.637 144.817 197.175 146.555 197.175H154.176C154.659 197.175 154.901 197.406 154.901 197.868V213.307C154.901 213.769 154.659 214 154.176 214H151.404C150.942 214 150.712 213.769 150.712 213.307V212.219H150.58C150.338 212.812 149.909 213.263 149.293 213.571C148.677 213.857 148.028 214 147.346 214ZM150.712 207.864V201.167C150.712 200.925 150.58 200.804 150.316 200.804H147.215C146.511 200.804 146.016 200.958 145.73 201.266C145.444 201.552 145.301 202.046 145.301 202.75V208.425C145.301 209.128 145.444 209.634 145.73 209.942C146.016 210.228 146.511 210.371 147.215 210.371H148.435C149.953 210.371 150.712 209.535 150.712 207.864ZM162.013 214H159.209C158.747 214 158.516 213.769 158.516 213.307V197.868C158.516 197.406 158.747 197.175 159.209 197.175H162.013C162.475 197.175 162.706 197.406 162.706 197.868V198.956H162.838C163.102 198.428 163.542 198 164.158 197.67C164.796 197.34 165.521 197.175 166.335 197.175H167.259C169.172 197.175 170.547 197.879 171.383 199.286C172.13 197.879 173.417 197.175 175.243 197.175H176.199C177.893 197.175 179.168 197.637 180.026 198.56C180.906 199.484 181.346 200.815 181.346 202.552V213.307C181.346 213.769 181.115 214 180.653 214H177.849C177.387 214 177.156 213.769 177.156 213.307V202.75C177.156 202.046 177.013 201.552 176.727 201.266C176.441 200.958 175.946 200.804 175.243 200.804H174.418C172.9 200.804 172.141 201.651 172.141 203.344V213.307C172.141 213.769 171.9 214 171.416 214H168.644C168.183 214 167.952 213.769 167.952 213.307V202.75C167.952 202.046 167.798 201.552 167.49 201.266C167.204 200.958 166.709 200.804 166.005 200.804H164.983C163.465 200.804 162.706 201.64 162.706 203.311V213.307C162.706 213.769 162.475 214 162.013 214ZM189.391 210.371H192.756C193.459 210.371 193.954 210.228 194.24 209.942C194.548 209.634 194.702 209.128 194.702 208.425V202.684C194.702 201.98 194.548 201.486 194.24 201.2C193.954 200.892 193.459 200.738 192.756 200.738H191.304C189.787 200.738 189.028 201.574 189.028 203.245V210.008C189.028 210.25 189.149 210.371 189.391 210.371ZM184.838 213.307V191.5C184.838 191.039 185.069 190.808 185.531 190.808H188.335C188.797 190.808 189.028 191.039 189.028 191.5V198.923H189.16C189.402 198.329 189.831 197.879 190.446 197.571C191.062 197.263 191.711 197.109 192.393 197.109H193.448C195.186 197.109 196.528 197.571 197.473 198.494C198.419 199.418 198.892 200.749 198.892 202.486V208.623C198.892 210.36 198.419 211.691 197.473 212.614C196.528 213.538 195.186 214 193.448 214H185.531C185.069 214 184.838 213.769 184.838 213.307ZM210.253 214H207.317C205.579 214 204.238 213.538 203.292 212.614C202.346 211.691 201.873 210.36 201.873 208.623V202.552C201.873 200.815 202.346 199.484 203.292 198.56C204.238 197.637 205.579 197.175 207.317 197.175H210.253C211.968 197.175 213.299 197.648 214.245 198.593C215.212 199.517 215.696 200.837 215.696 202.552V208.623C215.696 210.338 215.212 211.669 214.245 212.614C213.299 213.538 211.968 214 210.253 214ZM207.943 210.404H209.626C210.33 210.404 210.825 210.261 211.111 209.975C211.418 209.689 211.572 209.194 211.572 208.491V202.684C211.572 201.98 211.418 201.486 211.111 201.2C210.825 200.914 210.33 200.771 209.626 200.771H207.943C207.24 200.771 206.745 200.914 206.459 201.2C206.173 201.486 206.03 201.98 206.03 202.684V208.491C206.03 209.194 206.173 209.689 206.459 209.975C206.745 210.261 207.24 210.404 207.943 210.404ZM222.65 214H219.846C219.384 214 219.153 213.769 219.153 213.307V191.5C219.153 191.039 219.384 190.808 219.846 190.808H222.65C223.112 190.808 223.343 191.039 223.343 191.5V213.307C223.343 213.769 223.112 214 222.65 214ZM233.045 214H232.253C230.515 214 229.174 213.538 228.228 212.614C227.282 211.691 226.809 210.36 226.809 208.623V202.552C226.809 200.815 227.282 199.484 228.228 198.56C229.174 197.637 230.515 197.175 232.253 197.175H239.874C240.358 197.175 240.6 197.406 240.6 197.868V213.307C240.6 213.769 240.358 214 239.874 214H237.103C236.641 214 236.41 213.769 236.41 213.307V212.219H236.278C236.036 212.812 235.607 213.263 234.991 213.571C234.375 213.857 233.726 214 233.045 214ZM236.41 207.864V201.167C236.41 200.925 236.278 200.804 236.014 200.804H232.913C232.209 200.804 231.714 200.958 231.428 201.266C231.142 201.552 230.999 202.046 230.999 202.75V208.425C230.999 209.128 231.142 209.634 231.428 209.942C231.714 210.228 232.209 210.371 232.913 210.371H234.133C235.651 210.371 236.41 209.535 236.41 207.864Z" fill="white"/>
<g style="mix-blend-mode:multiply" opacity="0.8">
<path d="M147 84.2685V66.5146L173.932 74.1796V151.343L154.628 146.82V86.8401L147 84.2685Z" fill="#01656B"/>
</g>
<path d="M165.195 72.2789V58L190.511 66.812V138.833L172.347 133.654V74.7277L165.195 72.2789Z" fill="white" stroke="black" stroke-width="0.602196"/>
<g style="mix-blend-mode:multiply" opacity="0.8">
<path d="M173.687 109.092C174.396 96.8836 180.66 94.7854 188.814 96.8836C198.978 100.444 203.272 112.25 202.997 119.393V153.983C202.997 156.78 202.997 169.497 188.814 166.064C177.469 163.317 174.002 150.761 173.687 144.826V109.092Z" fill="#01656B"/>
</g>
<path d="M162.702 79.1042L172.443 74.2676V133.463L162.702 137.879V79.1042Z" fill="#7ACECE" stroke="black" stroke-width="0.602196"/>
<path d="M155.428 76.8314V62.9221L165.169 58V72.0477L155.428 76.8314Z" fill="#7ACECE" stroke="black" stroke-width="0.602196"/>
<path d="M162.481 79.0268L155.291 76.8563L165.194 71.9727L172.519 74.1432L162.481 79.0268Z" fill="#196B6F" stroke="black" stroke-width="0.301098"/>
<path d="M179.523 141.981L162.752 138.328L172.024 133.832L189.451 138.328L179.523 141.981Z" fill="black" stroke="black" stroke-width="0.602196"/>
<g style="mix-blend-mode:multiply">
<path d="M162.489 122.607C169.619 119.879 172.281 111.568 172.391 108.193V134.104L162.489 138.025V122.607Z" fill="#348489"/>
</g>
<path fill-rule="evenodd" clip-rule="evenodd" d="M201.421 93.8389L201.421 105.123V148.986L216.082 153.255V98.8573L201.421 93.8389ZM216.526 109.053C217.044 107.505 220.41 106.24 223.906 106.665C229.473 107.342 233.156 114.022 233.156 114.022L230.25 121.303C229.128 119.24 226.625 114.727 223.129 114.727C219.634 114.727 217.303 116.079 216.526 122.913V109.053Z" fill="#023C40"/>
<path fill-rule="evenodd" clip-rule="evenodd" d="M214.839 92.0439L214.839 101.712V141.597L224.684 144.001V107.323C225.849 105.514 227.501 105.04 229.56 105.04C233.032 105.04 235.519 109.541 236.633 111.598L238.657 102.667C238.657 102.667 235.862 97.6757 230.332 97.0009C228.188 96.7393 226.094 97.12 224.684 97.8127V95.2537L214.839 92.0439Z" fill="white"/>
<path d="M214.839 101.712L214.538 101.712V101.712H214.839ZM214.839 92.0439L214.933 91.7577C214.841 91.7278 214.741 91.7436 214.663 91.8003C214.585 91.8569 214.538 91.9475 214.538 92.0439L214.839 92.0439ZM214.839 141.597H214.538C214.538 141.735 214.633 141.856 214.768 141.889L214.839 141.597ZM224.684 144.001L224.613 144.293C224.702 144.315 224.797 144.295 224.87 144.238C224.943 144.181 224.985 144.093 224.985 144.001H224.684ZM224.684 107.323L224.431 107.16C224.4 107.208 224.383 107.265 224.383 107.323H224.684ZM236.633 111.598L236.368 111.742C236.428 111.852 236.55 111.914 236.674 111.897C236.798 111.88 236.899 111.787 236.927 111.665L236.633 111.598ZM238.657 102.667L238.951 102.734C238.967 102.661 238.956 102.585 238.92 102.52L238.657 102.667ZM230.332 97.0009L230.295 97.2998L230.332 97.0009ZM224.684 97.8127H224.383C224.383 97.9167 224.437 98.0133 224.525 98.0683C224.613 98.1233 224.723 98.1288 224.817 98.083L224.684 97.8127ZM224.684 95.2537H224.985C224.985 95.1233 224.901 95.0078 224.777 94.9674L224.684 95.2537ZM215.14 101.712L215.141 92.0439L214.538 92.0439L214.538 101.712L215.14 101.712ZM215.14 141.597V101.712H214.538V141.597H215.14ZM224.755 143.708L214.911 141.304L214.768 141.889L224.613 144.293L224.755 143.708ZM224.383 107.323V144.001H224.985V107.323H224.383ZM224.937 107.486C225.488 106.63 226.146 106.101 226.904 105.781C227.668 105.458 228.551 105.341 229.56 105.341V104.739C228.51 104.739 227.537 104.859 226.669 105.226C225.795 105.595 225.044 106.207 224.431 107.16L224.937 107.486ZM229.56 105.341C231.162 105.341 232.575 106.382 233.753 107.745C234.924 109.099 235.811 110.712 236.368 111.742L236.898 111.455C236.341 110.427 235.427 108.761 234.209 107.351C232.996 105.948 231.43 104.739 229.56 104.739V105.341ZM236.927 111.665L238.951 102.734L238.364 102.601L236.339 111.532L236.927 111.665ZM238.657 102.667C238.92 102.52 238.92 102.52 238.92 102.52C238.92 102.52 238.92 102.52 238.92 102.519C238.919 102.519 238.919 102.519 238.919 102.518C238.919 102.517 238.918 102.516 238.917 102.515C238.915 102.512 238.913 102.508 238.91 102.502C238.904 102.492 238.895 102.477 238.883 102.457C238.86 102.418 238.826 102.362 238.781 102.29C238.69 102.148 238.556 101.944 238.377 101.699C238.021 101.21 237.487 100.551 236.777 99.8697C235.357 98.5093 233.218 97.0498 230.368 96.702L230.295 97.2998C232.975 97.6268 234.999 99.0004 236.36 100.304C237.04 100.956 237.55 101.587 237.891 102.054C238.061 102.287 238.188 102.48 238.272 102.612C238.314 102.679 238.345 102.73 238.366 102.765C238.376 102.782 238.383 102.795 238.388 102.803C238.391 102.807 238.392 102.81 238.393 102.812C238.394 102.813 238.394 102.814 238.395 102.814C238.395 102.814 238.395 102.814 238.395 102.814C238.395 102.814 238.395 102.814 238.395 102.814C238.395 102.814 238.395 102.814 238.657 102.667ZM230.368 96.702C228.173 96.4341 226.019 96.8214 224.551 97.5425L224.817 98.083C226.169 97.4187 228.204 97.0445 230.295 97.2998L230.368 96.702ZM224.383 95.2537V97.8127H224.985V95.2537H224.383ZM214.746 92.3302L224.591 95.5399L224.777 94.9674L214.933 91.7577L214.746 92.3302Z" fill="black"/>
<path d="M208.084 95.7L214.837 92.0439L215.028 141.662L208.084 144.644V95.7Z" fill="#FFE9B1"/>
<path d="M214.837 92.0439L215.138 92.0428C215.138 91.9369 215.082 91.839 214.99 91.785C214.899 91.731 214.787 91.7287 214.693 91.7792L214.837 92.0439ZM208.084 95.7L207.941 95.4352L207.783 95.5206V95.7H208.084ZM208.084 144.644H207.783V145.101L208.203 144.921L208.084 144.644ZM215.028 141.662L215.147 141.939L215.33 141.86L215.329 141.661L215.028 141.662ZM214.693 91.7792L207.941 95.4352L208.227 95.9648L214.98 92.3087L214.693 91.7792ZM207.783 95.7V144.644H208.385V95.7H207.783ZM208.203 144.921L215.147 141.939L214.909 141.386L207.965 144.367L208.203 144.921ZM215.329 141.661L215.138 92.0428L214.536 92.0451L214.727 141.664L215.329 141.661Z" fill="black"/>
<path d="M216.472 146.704L208.208 144.382L214.469 141.347L224.205 143.991L216.472 146.704Z" fill="black" stroke="black" stroke-width="0.602196"/>
<path d="M232.618 114.823C232.618 110.889 226.905 107.093 224.745 109.804C224.745 108.642 224.067 105.056 229.222 105.056C233.699 105.056 235.932 109.134 236.412 111.974L232.618 114.823Z" fill="#196B6F" stroke="black" stroke-width="0.301098"/>
<g style="mix-blend-mode:multiply">
<path d="M208.083 132.301C212.841 129.839 214.61 122.944 214.713 119.809V141.101L208.083 144.903V132.301Z" fill="#EFAF4E"/>
</g>
<path d="M193.043 98.1396L181.775 103.802C178.016 105.723 177.553 111.976 177.792 114.862V142.717C178.16 147.927 180.405 151.344 183.198 153.568C189.304 158.431 197.961 156.519 205.511 154.537L205.675 154.494L195.872 141.734V98.1396H193.043Z" fill="#FFE9B1" stroke="black" stroke-width="0.602196"/>
<path d="M204.094 132.603L204.095 144.941C204.095 146.768 202.405 148.127 200.621 147.735C197.996 147.159 196.127 144.834 196.127 142.147L196.127 135.689L204.094 132.603Z" fill="#196B6F" stroke="black" stroke-width="0.301098"/>
<path fill-rule="evenodd" clip-rule="evenodd" d="M186.433 108.4C187.048 98.5875 192.485 96.901 199.564 98.5875C208.386 101.449 212.114 110.938 211.874 116.679V119.751L204.326 123.267L203.667 123.035L203.483 112.192C203.443 109.836 201.93 107.759 199.701 106.998C197.888 106.378 196.003 107.726 196.003 109.642V139.699C196.003 142.484 197.792 144.954 200.438 145.823C202.217 146.407 204.04 145.063 204.009 143.191L203.834 132.911L204.326 132.784L211.874 133.893V144.482C211.874 146.73 211.874 156.952 199.564 154.192C189.716 151.984 186.706 141.892 186.433 137.122V108.4Z" fill="white"/>
<path d="M199.564 98.5875L199.657 98.3011L199.645 98.2974L199.634 98.2946L199.564 98.5875ZM186.433 108.4L186.132 108.381L186.132 108.391V108.4H186.433ZM211.874 116.679L211.573 116.667V116.679H211.874ZM211.874 119.751L212.001 120.024L212.175 119.943V119.751H211.874ZM204.326 123.267L204.226 123.551L204.342 123.592L204.453 123.54L204.326 123.267ZM203.667 123.035L203.366 123.04L203.369 123.249L203.567 123.319L203.667 123.035ZM203.483 112.192L203.182 112.197L203.483 112.192ZM199.701 106.998L199.604 107.283L199.701 106.998ZM200.438 145.823L200.344 146.109L200.438 145.823ZM204.009 143.191L203.708 143.196L204.009 143.191ZM203.834 132.911L203.759 132.62L203.529 132.679L203.533 132.916L203.834 132.911ZM204.326 132.784L204.37 132.486L204.309 132.477L204.25 132.492L204.326 132.784ZM211.874 133.893H212.175V133.633L211.918 133.595L211.874 133.893ZM199.564 154.192L199.498 154.486L199.564 154.192ZM186.433 137.122H186.132V137.131L186.132 137.14L186.433 137.122ZM199.634 98.2946C196.07 97.4455 192.841 97.424 190.416 98.9256C187.977 100.436 186.443 103.428 186.132 108.381L186.733 108.419C187.038 103.56 188.531 100.802 190.733 99.4376C192.951 98.0645 195.98 98.043 199.494 98.8804L199.634 98.2946ZM212.175 116.692C212.297 113.759 211.408 109.895 209.378 106.402C207.344 102.905 204.153 99.7597 199.657 98.3011L199.471 98.8739C203.797 100.277 206.881 103.307 208.857 106.705C210.835 110.108 211.69 113.859 211.573 116.667L212.175 116.692ZM212.175 119.751V116.679H211.573V119.751H212.175ZM211.747 119.478L204.199 122.994L204.453 123.54L212.001 120.024L211.747 119.478ZM204.426 122.983L203.767 122.751L203.567 123.319L204.226 123.551L204.426 122.983ZM203.968 123.03L203.784 112.187L203.182 112.197L203.366 123.04L203.968 123.03ZM203.784 112.187C203.742 109.704 202.148 107.515 199.799 106.713L199.604 107.283C201.713 108.003 203.144 109.968 203.182 112.197L203.784 112.187ZM199.799 106.713C197.79 106.027 195.702 107.519 195.702 109.642H196.305C196.305 107.932 197.986 106.73 199.604 107.283L199.799 106.713ZM195.702 109.642V139.699H196.305V109.642H195.702ZM195.702 139.699C195.702 142.614 197.575 145.199 200.344 146.109L200.532 145.537C198.01 144.708 196.305 142.354 196.305 139.699H195.702ZM200.344 146.109C202.32 146.758 204.345 145.265 204.31 143.186L203.708 143.196C203.736 144.861 202.114 146.056 200.532 145.537L200.344 146.109ZM204.31 143.186L204.135 132.906L203.533 132.916L203.708 143.196L204.31 143.186ZM203.91 133.203L204.401 133.075L204.25 132.492L203.759 132.62L203.91 133.203ZM204.282 133.082L211.83 134.191L211.918 133.595L204.37 132.486L204.282 133.082ZM212.175 144.482V133.893H211.573V144.482H212.175ZM199.498 154.486C202.613 155.184 204.981 155.069 206.78 154.44C208.585 153.809 209.791 152.67 210.592 151.373C212.181 148.8 212.175 145.6 212.175 144.482H211.573C211.573 145.612 211.568 148.647 210.079 151.057C209.341 152.252 208.239 153.291 206.581 153.871C204.918 154.453 202.67 154.58 199.63 153.898L199.498 154.486ZM186.132 137.14C186.271 139.566 187.103 143.329 189.149 146.772C191.198 150.221 194.475 153.36 199.498 154.486L199.63 153.898C194.805 152.817 191.652 149.806 189.667 146.464C187.677 143.116 186.868 139.449 186.733 137.105L186.132 137.14ZM186.132 108.4V137.122H186.734V108.4H186.132Z" fill="black"/>
<g style="mix-blend-mode:multiply">
<path d="M187.197 141.031L187.193 140.976L195.874 133.514C195.874 140.47 196.932 142.275 196.932 142.275C201.919 148.784 204.381 146.211 203.958 133.006C203.869 133.244 208.404 132.818 210.276 133.245V144.047C209.711 152.432 204.99 155.774 195.488 152.148C187.922 149.261 187.535 144.87 187.197 141.031Z" fill="#FFD979"/>
</g>
<path d="M196.001 121.154L196.002 109.683C196.002 107.741 197.912 106.375 199.75 107.003C201.959 107.758 203.479 109.791 203.578 112.124L203.734 115.817C203.897 119.68 200.15 122.517 196.476 121.31L196.001 121.154Z" fill="#196B6F" stroke="black" stroke-width="0.301098"/>
<g style="mix-blend-mode:multiply">
<path d="M180.076 149.686C186.347 150.853 187.611 145.493 187.459 142.667C191.689 154.044 200.647 155.429 204.597 154.7L197.943 156.25L193.202 157.161C185.399 157.161 181.2 152.178 180.076 149.686Z" fill="#EFA036"/>
</g>
<path d="M203.583 123.856L196.132 121.541L203.583 117.812L212.065 120.126L203.583 123.856Z" fill="#196B6F" stroke="black" stroke-width="0.301098"/>
<g style="mix-blend-mode:darken">
<path d="M214.583 123.296L223.094 115.838V143.767L214.583 141.546V123.296Z" fill="#FFD979"/>
</g>
<circle cx="101.803" cy="40.5859" r="1.5" fill="#72F7FF"/>
<circle cx="276.801" cy="113.184" r="1" fill="#96E4E9"/>
<circle cx="316.312" cy="65.375" r="1" fill="#96E4E9"/>
<circle cx="157.812" cy="141.289" r="1" fill="#96E4E9"/>
<circle cx="187.312" cy="32.5859" r="0.5" fill="#72F7FF"/>
<circle cx="213.812" cy="38.0859" r="1" fill="#FFD979"/>
<circle cx="48.8027" cy="95.4336" r="1" fill="#FFD979"/>
<circle cx="225.312" cy="56.5859" r="0.5" fill="#96E4E9"/>
<circle cx="132.771" cy="117.629" r="1" fill="#FFD979"/>
<circle cx="108.1" cy="80.5547" r="1.5" fill="#A5E4FF"/>
<circle cx="333.719" cy="123.996" r="1.5" fill="#A5E4FF"/>
<circle cx="45.9062" cy="23.7578" r="1.5" fill="#A5E4FF"/>
<circle cx="223.812" cy="140.086" r="1" fill="#C9E4F0"/>
<circle cx="239.357" cy="51.0664" r="1" fill="#C9E4F0"/>
<circle cx="298.267" cy="45.0875" r="8.9977" fill="#A5381B"/>
<ellipse cx="298.777" cy="44.4083" rx="8.71454" ry="8.31843" fill="#C34B29"/>
<circle cx="300.218" cy="43.8708" r="6.11559" stroke="white" stroke-width="0.158834"/>
<circle cx="300.218" cy="43.868" r="5.21954" fill="white"/>
<path d="M299.847 44.8681L299.131 42.4736L298.47 45.2798L299.847 44.8681ZM300.53 45.9316L300.274 46.0082C300.221 46.0239 300.187 46.0034 300.17 45.9465L299.964 45.258L298.27 45.7645C298.185 45.79 298.129 45.7601 298.104 45.6748L298.06 45.5285C298.039 45.4595 298.035 45.3943 298.048 45.333L298.768 42.3234C298.78 42.2313 298.829 42.1724 298.914 42.1469L299.31 42.0285C299.399 42.0018 299.457 42.0311 299.482 42.1164L300.267 44.7424L300.718 44.6076C300.775 44.5906 300.812 44.6085 300.827 44.6613L300.893 44.8807C300.911 44.9416 300.892 44.9806 300.835 44.9976L300.384 45.1324L300.59 45.8208C300.607 45.8777 300.587 45.9146 300.53 45.9316ZM302.141 45.4501L301.854 45.5357C301.79 45.5551 301.763 45.5255 301.775 45.4467L302.079 41.6455L300.458 42.1301C300.401 42.1471 300.364 42.1271 300.347 42.0703L300.276 41.8326C300.259 41.7758 300.279 41.7388 300.336 41.7218L302.347 41.1207C302.403 41.1037 302.44 41.1236 302.457 41.1805L302.534 41.4364C302.553 41.5014 302.556 41.5712 302.543 41.6459L302.257 45.329C302.253 45.3878 302.214 45.4282 302.141 45.4501Z" fill="black"/>
<g style="mix-blend-mode:multiply">
<circle cx="74.3878" cy="138.568" r="11.7902" fill="#93B5FE"/>
</g>
<circle cx="73.4917" cy="137.671" r="10.8941" fill="#93B5FE"/>
<circle cx="72.3917" cy="136.575" r="8.01359" transform="rotate(36.995 72.3917 136.575)" stroke="white" stroke-width="0.208129"/>
<circle cx="72.3939" cy="136.57" r="6.83944" transform="rotate(36.995 72.3939 136.57)" fill="white"/>
<path d="M70.3014 133.55L70.5034 133.285C70.5539 133.218 70.6174 133.19 70.694 133.2L71.8013 133.341C71.9023 133.355 71.9749 133.379 72.019 133.413L72.2974 133.625C72.3593 133.672 72.3666 133.727 72.3195 133.789L69.2134 137.865C69.1663 137.927 69.1118 137.934 69.0499 137.887L68.7517 137.66C68.6898 137.613 68.6824 137.558 68.7296 137.496L71.5124 133.844L70.3803 133.694C70.2671 133.677 70.2408 133.629 70.3014 133.55ZM70.1166 138.553L70.5711 137.957C70.7967 137.66 71.1056 137.512 71.4979 137.51L73.5447 137.478C73.8936 137.478 74.1623 137.355 74.3509 137.107L74.5327 136.868C74.8189 136.493 74.772 136.16 74.392 135.871L73.9877 135.563C73.6165 135.28 73.2878 135.326 73.0016 135.702L72.7946 135.974C72.7441 136.04 72.6879 136.049 72.626 136.002L72.3278 135.775C72.2703 135.731 72.2669 135.676 72.3174 135.61L72.5295 135.332C72.7618 135.027 73.0281 134.856 73.3284 134.819C73.632 134.778 73.9363 134.874 74.2412 135.106L74.7714 135.51C75.0763 135.743 75.2493 136.011 75.2903 136.314C75.3346 136.613 75.2407 136.916 75.0083 137.22L74.8013 137.492C74.5386 137.837 74.1879 138.013 73.7489 138.021L71.667 138.058C71.4337 138.062 71.2547 138.146 71.1301 138.309L70.8978 138.614L72.747 140.023C72.8088 140.07 72.8162 140.125 72.7691 140.187L72.5822 140.432C72.5351 140.494 72.4806 140.501 72.4187 140.454L70.1387 138.717C70.0768 138.669 70.0695 138.615 70.1166 138.553Z" fill="black"/>
<path d="M120.031 61.5263C119.631 62.2192 118.771 62.5657 117.692 62.5576C116.613 62.5494 115.327 62.1867 114.085 61.4698C112.843 60.7529 111.885 59.8189 111.339 58.8898C110.793 57.9606 110.663 57.0416 111.063 56.3488L111.783 55.1016L120.751 60.2791L120.031 61.5263Z" fill="#EAB95B"/>
<path d="M120.031 61.5263C119.631 62.2192 118.771 62.5657 117.692 62.5576C116.613 62.5494 115.327 62.1867 114.085 61.4698C112.843 60.7529 111.885 59.8189 111.339 58.8898C110.793 57.9606 110.663 57.0416 111.063 56.3488L111.783 55.1016L120.751 60.2791L120.031 61.5263Z" fill="#62E3C4"/>
<path d="M120.658 60.4359C120.258 61.1288 119.398 61.4753 118.319 61.4672C117.241 61.4591 115.954 61.0967 114.712 60.3799C113.471 59.663 112.512 58.7289 111.966 57.7998C111.421 56.8707 111.29 55.9517 111.69 55.2588C112.09 54.5659 112.951 54.2195 114.029 54.2273C115.107 54.2352 116.394 54.5982 117.636 55.3153C118.878 56.0325 119.836 56.966 120.382 57.8951C120.927 58.8242 121.058 59.743 120.658 60.4359Z" fill="white"/>
<path d="M119.481 59.6522C119.201 60.1368 118.586 60.3729 117.807 60.3553C117.029 60.3377 116.097 60.0665 115.193 59.5444C114.288 59.0223 113.587 58.3499 113.183 57.6854C112.779 57.0209 112.676 56.3695 112.955 55.8849C113.235 55.4002 113.849 55.1658 114.63 55.1833C115.411 55.2008 116.341 55.4721 117.245 55.9942C118.149 56.5163 118.851 57.1886 119.255 57.8531C119.658 58.5177 119.76 59.1679 119.481 59.6522Z" fill="#62E3C4"/>
<path fill-rule="evenodd" clip-rule="evenodd" d="M117.801 60.3566C119.475 60.3986 120.124 59.2745 119.25 57.8455C118.377 56.4165 116.311 55.2238 114.636 55.1815C113.142 55.144 112.463 56.0344 112.957 57.2439C112.58 56.1858 113.208 55.4138 114.541 55.4473C116.081 55.4862 117.982 56.5838 118.786 57.8981C119.589 59.2124 118.992 60.2472 117.452 60.2083C116.68 60.1887 115.819 59.9044 115.051 59.4606C115.92 59.9902 116.915 60.3345 117.801 60.3566Z" fill="#151D22"/>
<path opacity="0.5" d="M114.57 61.6927L115.169 60.6552C115.093 60.6114 114.593 60.3558 114.397 60.2425C114.201 60.1292 113.385 59.5225 112.954 59.1085C111.391 57.608 111.419 56.3734 111.463 55.7461L110.962 56.6142C110.578 57.9212 111.495 59.0216 111.937 59.6999C112.699 60.6125 114.001 61.4108 114.57 61.6927Z" fill="#01656B"/>
<path d="M266.675 96.8076C267.775 97.6665 268.164 99.2365 267.889 101.098C267.613 102.959 266.675 105.093 265.136 107.064C263.597 109.035 261.751 110.464 260.014 111.182C258.277 111.899 256.658 111.901 255.558 111.042L253.578 109.496L264.695 95.2615L266.675 96.8076Z" fill="#EAB95B"/>
<path d="M266.675 96.8076C267.775 97.6665 268.164 99.2365 267.889 101.098C267.613 102.959 266.675 105.093 265.136 107.064C263.597 109.035 261.751 110.464 260.014 111.182C258.277 111.899 256.658 111.901 255.558 111.042L253.578 109.496L264.695 95.2615L266.675 96.8076Z" fill="#62E3C4"/>
<path d="M264.948 95.4626C266.048 96.3215 266.438 97.8914 266.162 99.7526C265.887 101.614 264.949 103.749 263.41 105.72C261.871 107.69 260.025 109.12 258.288 109.837C256.551 110.554 254.932 110.557 253.832 109.698C252.732 108.839 252.342 107.269 252.617 105.408C252.892 103.548 253.831 101.413 255.371 99.4413C256.911 97.4697 258.755 96.0419 260.492 95.3245C262.23 94.6072 263.848 94.6036 264.948 95.4626Z" fill="white"/>
<path d="M263.308 97.3085C264.077 97.9093 264.335 99.0286 264.116 100.369C263.897 101.709 263.203 103.253 262.082 104.689C260.961 106.124 259.63 107.173 258.384 107.709C257.138 108.246 255.988 108.267 255.219 107.666C254.449 107.065 254.193 105.948 254.413 104.603C254.632 103.258 255.326 101.718 256.447 100.283C257.568 98.8476 258.9 97.7991 260.145 97.2626C261.391 96.7261 262.539 96.7082 263.308 97.3085Z" fill="#62E3C4"/>
<path fill-rule="evenodd" clip-rule="evenodd" d="M264.117 100.381C264.596 97.4991 262.811 96.1056 260.131 97.2679C257.451 98.4303 254.89 101.71 254.411 104.592C253.984 107.164 255.358 108.553 257.566 107.992C255.647 108.387 254.466 107.116 254.847 104.822C255.288 102.17 257.645 99.1522 260.109 98.0836C262.574 97.015 264.217 98.2959 263.776 100.947C263.555 102.276 262.856 103.694 261.903 104.913C263.028 103.54 263.864 101.905 264.117 100.381Z" fill="#151D22"/>
<path opacity="0.5" d="M265.642 106.285L263.995 104.999C263.901 105.12 263.338 105.922 263.095 106.233C262.852 106.544 261.606 107.806 260.786 108.451C257.816 110.787 255.69 110.439 254.617 110.211L255.995 111.287C258.16 112.266 260.283 110.95 261.561 110.351C263.323 109.255 265.017 107.2 265.642 106.285Z" fill="#01656B"/>
<defs>
<filter id="filter0_d_2857_14474" x="0.258923" y="0.52455" width="373.482" height="300.482" filterUnits="userSpaceOnUse" color-interpolation-filters="sRGB">
<feFlood flood-opacity="0" result="BackgroundImageFix"/>
<feColorMatrix in="SourceAlpha" type="matrix" values="0 0 0 0 0 0 0 0 0 0 0 0 0 0 0 0 0 0 127 0" result="hardAlpha"/>
<feOffset dy="13.2656"/>
<feGaussianBlur stdDeviation="11.3705"/>
<feComposite in2="hardAlpha" operator="out"/>
<feColorMatrix type="matrix" values="0 0 0 0 0.245978 0 0 0 0 0.245978 0 0 0 0 0.245978 0 0 0 0.25 0"/>
<feBlend mode="normal" in2="BackgroundImageFix" result="effect1_dropShadow_2857_14474"/>
<feBlend mode="normal" in="SourceGraphic" in2="effect1_dropShadow_2857_14474" result="shape"/>
</filter>
<linearGradient id="paint0_linear_2857_14474" x1="284.372" y1="-69.5868" x2="-8.88474" y2="103.189" gradientUnits="userSpaceOnUse">
<stop stop-color="#FFF9F9"/>
<stop offset="1" stop-color="#FFF9F9" stop-opacity="0"/>
</linearGradient>
</defs>
</svg>
