<svg width="62" height="61" viewBox="0 0 62 61" fill="none" xmlns="http://www.w3.org/2000/svg">
    <path
        d="M7.68481 18.0747V42.6835C7.68481 43.6507 8.20139 44.5465 9.0422 45.0301L30.3537 57.3345C31.1945 57.8181 32.2277 57.8181 33.063 57.3345L54.3745 45.0301C55.2154 44.5465 55.7319 43.6507 55.7319 42.6835V18.0747C55.7319 17.1075 55.2154 16.2117 54.3745 15.7281L33.0685 3.42369C32.2277 2.94009 31.1945 2.94009 30.3592 3.42369L9.0422 15.7281C8.20139 16.2117 7.68481 17.1075 7.68481 18.0747Z"
        fill="#FFDA72" />
    <mask id="mask0_324_4565" style="mask-type:luminance" maskUnits="userSpaceOnUse" x="7" y="3"
        width="49" height="55">
        <path
            d="M7.68481 18.0747V42.6835C7.68481 43.6507 8.20139 44.5465 9.0422 45.0301L30.3537 57.3345C31.1945 57.8181 32.2277 57.8181 33.063 57.3345L54.3745 45.0301C55.2154 44.5465 55.7319 43.6507 55.7319 42.6835V18.0747C55.7319 17.1075 55.2154 16.2117 54.3745 15.7281L33.0685 3.42369C32.2277 2.94009 31.1945 2.94009 30.3592 3.42369L9.0422 15.7281C8.20139 16.2117 7.68481 17.1075 7.68481 18.0747Z"
            fill="white" />
    </mask>
    <g mask="url(#mask0_324_4565)">
        <path opacity="0.67" d="M60.678 20.4927L0.733154 40.8865V31.6156L60.678 11.2218V20.4927Z"
            fill="white" />
        <path d="M60.678 48.9209L0.733154 69.3147V60.0438L60.678 39.65V48.9209Z" fill="#FBAC33" />
        <path opacity="0.67" d="M63.1509 24.2022L3.20605 44.5959V42.123L63.1509 21.7292V24.2022Z"
            fill="white" />
    </g>
    <path
        d="M11.9111 20.4487V40.3095C11.9111 41.2382 12.4057 42.0955 13.2136 42.5626L30.4145 52.493C31.2168 52.9601 32.2115 52.9601 33.0138 52.493L50.2147 42.5626C51.0171 42.0955 51.5172 41.2382 51.5172 40.3095V20.4487C51.5172 19.52 51.0226 18.6627 50.2147 18.1956L33.0138 8.26522C32.2115 7.79811 31.2168 7.79811 30.4145 8.26522L13.2136 18.1956C12.4112 18.6627 11.9111 19.52 11.9111 20.4487Z"
        fill="#935E18" />
    <mask id="mask1_324_4565" style="mask-type:luminance" maskUnits="userSpaceOnUse" x="11" y="7"
        width="41" height="46">
        <path
            d="M11.9111 20.4487V40.3095C11.9111 41.2382 12.4057 42.0955 13.2136 42.5626L30.4145 52.493C31.2168 52.9601 32.2115 52.9601 33.0138 52.493L50.2147 42.5626C51.0171 42.0955 51.5172 41.2382 51.5172 40.3095V20.4487C51.5172 19.52 51.0226 18.6627 50.2147 18.1956L33.0138 8.26522C32.2115 7.79811 31.2168 7.79811 30.4145 8.26522L13.2136 18.1956C12.4112 18.6627 11.9111 19.52 11.9111 20.4487Z"
            fill="white" />
    </mask>
    <g mask="url(#mask1_324_4565)">
        <path
            d="M14.9995 22.4931V42.6121C14.9995 43.5518 15.4996 44.4201 16.3184 44.8927L33.7446 54.955C34.558 55.4276 35.5637 55.4276 36.377 54.955L53.8032 44.8927C54.6165 44.4201 55.1221 43.5518 55.1221 42.6121V22.4931C55.1221 21.5533 54.622 20.685 53.8032 20.2124L36.377 10.1502C35.5637 9.67756 34.558 9.67756 33.7446 10.1502L16.3184 20.2124C15.5051 20.685 14.9995 21.5533 14.9995 22.4931Z"
            fill="#EFAF4E" />
        <path opacity="0.42"
            d="M51.4074 28.071C51.4074 38.6498 40.3559 49.7013 29.7771 49.7013C26.5458 49.7013 23.7925 49.2561 21.1272 47.8493L24.6553 57.6313C24.6553 57.6313 38.4325 58.3567 39.048 58.3567C39.6635 58.3567 53.8803 48.4703 53.8803 48.4703L61.2938 37.9629L51.4074 28.0765V28.071Z"
            fill="#222625" />
    </g>
    <path
        d="M10.2566 22.3502H9.75103C9.75103 19.4156 7.37148 17.0415 4.44238 17.0415V16.5359C7.37698 16.5359 9.75103 14.1564 9.75103 11.2273H10.2566C10.2566 14.1619 12.6362 16.5359 15.5653 16.5359V17.0415C12.6307 17.0415 10.2566 19.4211 10.2566 22.3502Z"
        fill="white" />
    <path
        d="M53.3744 52.0094H53.1491C53.1491 50.7069 52.0939 49.6518 50.7915 49.6518V49.4265C52.0939 49.4265 53.1491 48.3714 53.1491 47.0689H53.3744C53.3744 48.3714 54.4295 49.4265 55.732 49.4265V49.6518C54.4295 49.6518 53.3744 50.7069 53.3744 52.0094Z"
        fill="white" />
    <path opacity="0.61"
        d="M44.1254 23.6306L21.8521 23.4383C20.0826 23.4218 18.6318 24.8451 18.6208 26.6147L18.5329 36.6714C18.5164 38.441 19.9397 39.8918 21.7093 39.9028L42.9219 40.0841C45.2794 40.1061 47.2029 38.2102 47.2248 35.8581L47.3018 26.862C47.3183 25.0924 45.8949 23.6416 44.1254 23.6306Z"
        fill="#222625" />
    <path
        d="M16.7278 24.5352L16.64 34.5971C16.6246 36.3665 18.0464 37.8134 19.8158 37.8288L42.0937 38.0232C43.8631 38.0387 45.31 36.6168 45.3254 34.8475L45.4132 24.7856C45.4287 23.0162 44.0068 21.5693 42.2374 21.5539L19.9595 21.3595C18.1902 21.344 16.7433 22.7659 16.7278 24.5352Z"
        fill="white" />
    <path d="M23.0658 27.3312L23.0237 32.1615L30.7171 32.2287L30.7592 27.3983L23.0658 27.3312Z"
        fill="#FFD979" />
    <path d="M30.799 32.1823L30.7568 37.0127L38.4502 37.0798L38.4924 32.2495L30.799 32.1823Z"
        fill="#3D3D3D" />
    <path
        d="M17.7805 24.7407C17.7915 23.3229 18.9511 22.1853 20.3689 22.1963L23.2211 22.2183L23.1771 27.4225L17.7585 27.3731L17.7805 24.7352V24.7407Z"
        fill="#3D3D3D" />
    <path
        d="M44.2025 34.737C44.1915 36.1549 43.032 37.2924 41.6141 37.2814L38.4927 37.254L38.5366 32.2915L44.2245 32.341L44.2025 34.7425V34.737Z"
        fill="#FFD979" />
    <path
        d="M17.8206 24.6493L17.7346 34.4968C17.723 35.8261 18.7912 36.9131 20.1206 36.9247L41.7995 37.1139C43.1288 37.1255 44.2158 36.0573 44.2274 34.728L44.3133 24.8805C44.3249 23.5511 43.2567 22.4641 41.9274 22.4525L20.2485 22.2633C18.9192 22.2517 17.8322 23.3199 17.8206 24.6493Z"
        stroke="#1A1A1A" stroke-width="0.8845" />
    <path d="M23.1877 22.3172L23.0613 36.9682" stroke="#1A1A1A" stroke-width="0.8845" />
    <path d="M30.8979 22.3887L30.7715 37.0396" stroke="#1A1A1A" stroke-width="0.8845" />
    <path d="M38.6086 22.4546L38.4822 37.1056" stroke="#1A1A1A" stroke-width="0.8845" />
    <path d="M44.3893 27.5544L17.8516 27.3236" stroke="#1A1A1A" stroke-width="0.8845" />
    <path d="M44.3451 32.3575L17.8074 32.1267" stroke="#1A1A1A" stroke-width="0.8845" />
</svg>
