<svg width="12" height="12" viewBox="0 0 12 12" fill="none" xmlns="http://www.w3.org/2000/svg">
<g clip-path="url(#clip0_4198_10808)">
<path d="M6 0C2.69147 0 0 2.69147 0 6C0 9.30853 2.69147 12 6 12C9.30853 12 12 9.30853 12 6C12 2.69147 9.30853 0 6 0ZM9.04102 4.72852L5.79098 7.97845C5.69348 8.07595 5.56549 8.12503 5.4375 8.12503C5.30951 8.12503 5.18152 8.07595 5.08402 7.97845L3.45905 6.35348C3.26348 6.15802 3.26348 5.84198 3.45905 5.64652C3.65452 5.45095 3.97045 5.45095 4.16602 5.64652L5.4375 6.918L8.33405 4.02155C8.52952 3.82598 8.84545 3.82598 9.04102 4.02155C9.23648 4.21702 9.23648 4.53295 9.04102 4.72852Z" fill="#62E3C4"/>
</g>
<defs>
<clipPath id="clip0_4198_10808">
<rect width="12" height="12" fill="white"/>
</clipPath>
</defs>
</svg>
