<svg width="12" height="15" viewBox="0 0 12 15" fill="none" xmlns="http://www.w3.org/2000/svg">
<path d="M0.15625 0.972656H11.9473" stroke="#62E3C4" stroke-linejoin="round"/>
<path d="M0.15625 13.8945H11.9473" stroke="#62E3C4" stroke-linejoin="round"/>
<path d="M1.91211 3.01013C1.91211 3.65925 2.01918 4.30202 2.22722 4.90173C2.43526 5.50144 2.74018 6.04635 3.12458 6.50535C3.50899 6.96435 3.96534 7.32845 4.46758 7.57686C4.96983 7.82527 5.50813 7.95312 6.05176 7.95312C6.59538 7.95312 7.13369 7.82527 7.63593 7.57686C8.13818 7.32845 8.59453 6.96435 8.97893 6.50535C9.36333 6.04635 9.66826 5.50144 9.87629 4.90173C10.0843 4.30202 10.1914 3.65925 10.1914 3.01013L9.39141 3.01013C9.39141 3.53381 9.30503 4.05236 9.13719 4.53617C8.96936 5.01999 8.72336 5.4596 8.41325 5.82989C8.10313 6.20019 7.73497 6.49392 7.32979 6.69433C6.9246 6.89473 6.49033 6.99788 6.05176 6.99788C5.61319 6.99788 5.17891 6.89473 4.77373 6.69433C4.36854 6.49392 4.00038 6.20019 3.69027 5.82989C3.38015 5.45959 3.13416 5.01999 2.96632 4.53617C2.79849 4.05236 2.71211 3.53381 2.71211 3.01013L1.91211 3.01013Z" fill="#62E3C4"/>
<path d="M1.91211 12.4469C1.91211 11.7978 2.01918 11.155 2.22722 10.5553C2.43526 9.95559 2.74018 9.41068 3.12458 8.95168C3.50899 8.49268 3.96534 8.12858 4.46758 7.88017C4.96983 7.63176 5.50813 7.50391 6.05176 7.50391C6.59538 7.50391 7.13369 7.63176 7.63593 7.88017C8.13818 8.12858 8.59453 8.49268 8.97893 8.95168C9.36333 9.41068 9.66826 9.95559 9.87629 10.5553C10.0843 11.155 10.1914 11.7978 10.1914 12.4469L9.35715 12.4469C9.35715 11.9286 9.27165 11.4154 9.10554 10.9365C8.93943 10.4577 8.69596 10.0226 8.38902 9.65607C8.08209 9.28957 7.7177 8.99885 7.31668 8.8005C6.91565 8.60215 6.48583 8.50006 6.05176 8.50006C5.61769 8.50006 5.18787 8.60215 4.78684 8.8005C4.38581 8.99885 4.02143 9.28957 3.71449 9.65607C3.40756 10.0226 3.16409 10.4577 2.99798 10.9365C2.83186 11.4154 2.74637 11.9286 2.74637 12.4469L1.91211 12.4469Z" fill="#62E3C4"/>
</svg>
