<svg width="231" height="180" viewBox="0 0 231 180" fill="none" xmlns="http://www.w3.org/2000/svg">
    <g id="Layer 2">
        <g id="Group 1244832364">
            <path id="Ellipse 3864"
                d="M171.757 147.846C140.999 165.604 91.6066 165.879 60.3733 147.846C44.8415 138.879 34.4284 127.14 34.1898 115.476C34.1065 111.403 34.2554 102.188 34.1898 97.2518C37.5772 89.7632 49.3915 88.8853 59.5124 83.0419C90.2702 65.2839 140.524 65.5065 171.757 83.539C184.808 91.0737 193.571 87.5884 195.828 97.3354C196.669 100.964 195.274 114.704 194.614 118.332C192.805 128.277 184.878 140.271 171.757 147.846Z"
                fill="#93453B" />
            <circle id="Ellipse 3865" cx="66.0563" cy="66.0563" r="66.0563"
                transform="matrix(0.866025 0.5 -0.866025 0.5 115.091 33.809)" fill="#F79780" />
        </g>
        <g id="Group">
            <path id="Vector 2236" opacity="0.43"
                d="M177.959 102.869L146.906 113.993L135.05 76.7297L177.959 102.869Z" fill="black" />
            <g id="Group_2">
                <g id="Group_3">
                    <path id="Vector"
                        d="M115.181 26.3812L71.8143 36.2761L104.188 51.1443L148.886 39.7833L115.181 26.3812Z"
                        fill="#FEF5DC" stroke="black" stroke-miterlimit="10" />
                    <path id="Vector_2"
                        d="M104.188 51.143L71.8143 36.2747L72.4464 109.606L104.291 126.194L104.188 51.143Z"
                        fill="#4BB397" stroke="black" stroke-miterlimit="10" />
                    <path id="Vector_3"
                        d="M104.188 51.1424L104.292 126.193L148.233 113.516L148.886 39.7814L104.188 51.1424Z"
                        fill="#01656B" stroke="black" stroke-miterlimit="10" />
                </g>
                <g id="Group_4">
                    <path id="Vector_4"
                        d="M123.458 36.7497C123.354 36.5218 123.126 36.2731 122.769 36.0244C122.417 35.7758 121.945 35.5219 121.354 35.2836C120.769 35.0453 120.122 34.8329 119.458 34.6671C118.795 34.4962 118.111 34.3667 117.448 34.2786C116.785 34.1905 116.138 34.1439 115.552 34.1491C114.962 34.1491 114.433 34.2009 113.998 34.3045L97.5446 38.2055C97.0887 38.3142 96.7727 38.4645 96.5862 38.651C96.3997 38.8375 96.3427 39.0551 96.4152 39.2882C96.4878 39.5213 96.6898 39.7804 97.0162 40.0342C97.3425 40.2932 97.7933 40.5574 98.3683 40.8113C98.9433 41.0651 99.5857 41.2879 100.254 41.4692C100.922 41.6505 101.622 41.7904 102.306 41.8888C102.989 41.9821 103.658 42.0339 104.269 42.0339C104.88 42.0339 105.435 41.9769 105.89 41.8681L122.473 37.8273C122.914 37.7185 123.209 37.5682 123.37 37.3869C123.53 37.2056 123.556 36.9932 123.453 36.7601L123.458 36.7497Z"
                        fill="#4D4D4D" stroke="black" stroke-width="0.286742"
                        stroke-miterlimit="10" />
                    <path id="Vector_5"
                        d="M96.4345 39.3348C96.4656 39.2571 96.5122 39.1846 96.5796 39.1172C96.7661 38.9307 97.0821 38.7805 97.538 38.6717L113.991 34.7707C114.427 34.6671 114.96 34.6153 115.546 34.6153C116.136 34.6153 116.779 34.6568 117.442 34.7448C118.105 34.8329 118.789 34.9624 119.452 35.1334C120.115 35.3043 120.762 35.5116 121.348 35.7499C121.933 35.9934 122.41 36.242 122.762 36.4907C123.114 36.7394 123.348 36.988 123.451 37.216C123.451 37.2263 123.451 37.2315 123.456 37.2419C123.529 37.0916 123.529 36.9259 123.451 36.7497C123.348 36.5218 123.12 36.2731 122.762 36.0244C122.41 35.7758 121.938 35.5219 121.348 35.2836C120.762 35.0453 120.115 34.8329 119.452 34.6671C118.789 34.4962 118.105 34.3667 117.442 34.2786C116.779 34.1905 116.131 34.1439 115.546 34.1491C114.955 34.1491 114.427 34.2009 113.991 34.3045L97.538 38.2055C97.0821 38.3142 96.7661 38.4645 96.5796 38.651C96.3931 38.8375 96.3361 39.0551 96.4086 39.2882C96.4086 39.3037 96.4242 39.3193 96.4294 39.3348H96.4345Z"
                        fill="#9B9B9B" stroke="black" stroke-width="0.286742"
                        stroke-miterlimit="10" />
                </g>
            </g>
            <g id="Group_5">
                <path id="Vector_6"
                    d="M126.627 38.083C126.627 40.264 118.773 42.0254 109.08 42.0254C99.3872 42.0254 91.5334 40.2588 91.5334 38.083C91.5334 35.9071 99.3924 34.1406 109.08 34.1406C118.768 34.1406 126.627 35.9071 126.627 38.083Z"
                    fill="#495DB2" stroke="black" stroke-width="0.52187" stroke-miterlimit="10" />
                <path id="Vector_7"
                    d="M152.231 12.5293C151.055 11.6123 149.988 10.5606 148.739 9.74211C143.683 6.41101 137.337 4.69624 131.353 6.1986C129.654 6.62341 127.68 7.68024 125.934 6.84099C124.479 6.13644 123.955 4.24035 123.059 3.00219C122.013 1.55163 120.718 0.62431 118.894 0.44817C111.082 -0.318554 110.548 9.66958 103.901 10.9958C101.332 11.5087 99.9228 9.37947 98.5448 7.61808C96.4 4.87756 94.0325 3.99686 90.5045 4.80503C87.9505 5.39043 85.5104 6.45245 83.433 8.06361C82.6093 8.706 81.7649 9.32249 80.9982 10.027C81.7494 11.0839 82.4798 12.1563 83.1688 13.2494C85.4172 16.8084 87.2822 20.6109 89.0436 24.429C91.0122 28.6978 92.7943 33.0754 94.2345 37.5514C94.4728 38.2922 94.6852 39.0382 94.8976 39.7791C99.3736 41.9342 104.71 41.8565 109.579 41.758C113.713 41.6751 117.863 41.2503 121.806 40.007C126.675 33.7696 131.545 27.729 138.072 23.0303C143.16 19.3676 148.713 16.3629 154.661 14.4668C153.925 13.7208 152.982 13.1147 152.236 12.5344L152.231 12.5293Z"
                    fill="white" stroke="black" stroke-width="0.52187" stroke-miterlimit="10" />
                <g id="Group_6">
                    <path id="Vector_8"
                        d="M103.371 18.6289C102.459 15.7071 101.174 12.8837 99.7082 10.2053C98.869 8.67705 97.6723 5.92099 96.0041 5.15944C95.8902 5.10764 95.6622 5.37184 95.7658 5.45991C97.377 6.81204 98.4804 9.92038 99.4492 11.7698C100.724 14.1944 101.749 16.7587 102.615 19.3542C104.516 25.0476 105.474 31.0208 106.899 36.8386C106.935 36.994 107.272 36.6677 107.256 36.5381C106.402 30.5183 105.169 24.4363 103.366 18.6289H103.371Z"
                        fill="#221F20" />
                    <path id="Vector_9"
                        d="M129.874 6.24553C128.771 6.70142 127.88 8.10535 127.113 8.97051C125.414 10.8718 124.088 13.2082 122.824 15.4048C120.394 19.6269 118.374 24.2325 117.28 28.9882C117.239 29.1644 117.477 28.9571 117.503 28.8794C118.855 24.7298 120.783 20.9014 122.741 17.0108C123.699 15.0991 124.844 13.2911 125.999 11.4934C126.947 10.017 128.346 7.69091 129.828 6.63925C129.931 6.56673 130.17 6.1212 129.88 6.24035L129.874 6.24553Z"
                        fill="#221F20" />
                    <path id="Vector_10"
                        d="M111.874 4.07104C111.942 3.82756 111.626 4.0555 111.574 4.13839C110.248 6.48519 109.932 9.00813 109.833 11.702C109.693 15.6185 109.797 19.6335 110.139 23.5396C110.154 23.7158 110.424 23.4412 110.424 23.3324C110.356 17.0898 110.191 10.1168 111.874 4.07104Z"
                        fill="#221F20" />
                    <path id="Vector_11"
                        d="M150.948 11.0913C148.063 11.9565 145.778 13.5521 143.198 15.1166C139.582 17.308 136.272 19.717 133.319 22.7424C133.189 22.8771 133.076 23.3485 133.376 23.0999C136.681 20.3904 140.064 17.9711 143.722 15.7486C146.027 14.3499 148.881 13.1117 150.912 11.3555C150.948 11.3244 151.109 11.0395 150.948 11.0861V11.0913Z"
                        fill="#221F20" />
                    <path id="Vector_12"
                        d="M97.061 34.9632C97.0403 34.8647 96.8279 35.072 96.8383 35.1548C97.0507 37.0665 97.175 39.1542 97.7759 40.9882C97.8536 41.2317 98.2681 40.7136 98.2681 40.5737C98.2577 38.7191 97.4599 36.7712 97.061 34.9632Z"
                        fill="#221F20" />
                    <path id="Vector_13"
                        d="M120.085 36.609C119.805 37.2618 119.551 37.9249 119.323 38.5984C119.074 39.3444 118.618 40.1163 118.51 40.8985C118.442 41.3803 118.991 40.8519 119.074 40.6913C119.722 39.391 119.893 37.9093 120.375 36.5417C120.478 36.2567 120.147 36.464 120.085 36.609Z"
                        fill="#221F20" />
                </g>
            </g>
            <g id="Group_7">
                <path id="Vector_14"
                    d="M143.808 78.7463C143.694 88.3822 136.006 97.8471 126.81 99.9141C117.807 101.935 110.647 96.0961 110.647 86.8487C110.647 77.5444 117.895 68.0381 127.007 65.6291C136.317 63.1684 143.922 69.0431 143.808 78.7463Z"
                    fill="#FFDA72" stroke="#222020" stroke-width="0.573484" stroke-linecap="round"
                    stroke-linejoin="round" />
                <path id="Vector_15"
                    d="M118.082 81.0816C118.082 80.2527 118.729 79.4187 119.527 79.2166C120.325 79.0146 120.967 79.5274 120.967 80.3615C120.967 81.1956 120.314 82.0297 119.517 82.2265C118.719 82.4234 118.082 81.9105 118.082 81.0816Z"
                    fill="#222020" />
                <path id="Vector_16"
                    d="M132.99 77.3732C132.995 76.5288 133.669 75.674 134.493 75.4668C135.316 75.2595 135.979 75.7776 135.974 76.6272C135.969 77.4768 135.29 78.3264 134.467 78.5337C133.643 78.7409 132.985 78.2176 132.99 77.3732Z"
                    fill="#222020" />
                <path id="Vector_17"
                    d="M119.971 91.7483C121.303 88.2669 124.359 85.3088 127.934 84.4385C131.509 83.5681 134.648 85.0653 135.985 87.9613"
                    stroke="#222020" stroke-width="1.72045" stroke-linecap="round"
                    stroke-linejoin="round" />
            </g>
        </g>
    </g>
</svg>
