<svg width="23" height="23" viewBox="0 0 23 23" fill="none" xmlns="http://www.w3.org/2000/svg">
<g style="mix-blend-mode:multiply" opacity="0.5">
<ellipse cx="11.703" cy="13.1478" rx="8.68589" ry="8.68589" fill="#1B262C"/>
</g>
<circle cx="11.2458" cy="11.7763" r="8.22874" fill="#EFAF4E"/>
<path d="M10.2671 10.2527C10.2671 9.78262 9.88608 9.40155 9.41602 9.40155C8.94595 9.40155 8.56488 9.78262 8.56488 10.2527H10.2671ZM8.56488 14.5194C8.56488 14.9895 8.94595 15.3706 9.41602 15.3706C9.88608 15.3706 10.2671 14.9895 10.2671 14.5194H8.56488ZM8.56488 10.2527V14.5194H10.2671V10.2527H8.56488Z" fill="#232326"/>
<path d="M13.4673 8.11914C13.4673 7.64907 13.0863 7.26801 12.6162 7.26801C12.1461 7.26801 11.7651 7.64907 11.7651 8.11914L13.4673 8.11914ZM11.7651 14.5193C11.7651 14.9893 12.1461 15.3704 12.6162 15.3704C13.0863 15.3704 13.4673 14.9893 13.4673 14.5193L11.7651 14.5193ZM11.7651 8.11914L11.7651 14.5193L13.4673 14.5193L13.4673 8.11914L11.7651 8.11914Z" fill="#232326"/>
</svg>
