<svg width="24" height="24" viewBox="0 0 24 24" fill="none" xmlns="http://www.w3.org/2000/svg">
<g style="mix-blend-mode:multiply" opacity="0.5">
<circle cx="12.5" cy="13.5" r="9.5" fill="#39393C"/>
</g>
<circle cx="12" cy="12" r="9" fill="#F2B826"/>
<path d="M10.75 10.3335C10.75 9.91928 10.4142 9.5835 10 9.5835C9.58579 9.5835 9.25 9.91928 9.25 10.3335H10.75ZM9.25 15.0002C9.25 15.4144 9.58579 15.7502 10 15.7502C10.4142 15.7502 10.75 15.4144 10.75 15.0002H9.25ZM9.25 10.3335V15.0002H10.75V10.3335H9.25Z" fill="#232326"/>
<path d="M14.25 8C14.25 7.58579 13.9142 7.25 13.5 7.25C13.0858 7.25 12.75 7.58579 12.75 8L14.25 8ZM12.75 15C12.75 15.4142 13.0858 15.75 13.5 15.75C13.9142 15.75 14.25 15.4142 14.25 15L12.75 15ZM12.75 8L12.75 15L14.25 15L14.25 8L12.75 8Z" fill="#232326"/>
</svg>
