<svg width="201" height="515" viewBox="0 0 201 515" fill="none" xmlns="http://www.w3.org/2000/svg">
<path d="M142.758 118.766C139.427 117.127 134.527 117.127 131.197 118.767L87.5763 140.245C85.5913 141.222 84.448 142.653 84.448 144.159L84.4479 149.723C84.4479 151.082 85.3806 152.387 87.042 153.351L132.848 179.928C136.387 181.981 142.162 181.944 145.62 179.845L189.298 153.335C190.874 152.379 191.753 151.11 191.753 149.79L191.753 145.251C191.753 143.744 190.608 142.313 188.622 141.336L142.758 118.766Z" fill="#023538"/>
<path d="M144.447 113.582C140.967 111.573 135.326 111.573 131.846 113.582L86.9344 139.512C83.4549 141.521 83.4548 144.778 86.9344 146.787L131.846 172.716C135.326 174.725 140.967 174.725 144.447 172.716L189.359 146.787C192.838 144.778 192.838 141.521 189.359 139.512L144.447 113.582Z" fill="#1ADAB7"/>
<path d="M72.8545 180.854L102.489 198.707L88.0201 207.33L58.3856 189.476L72.8545 180.854Z" fill="#1B262C"/>
<path d="M98.1802 159.562L116.522 170.692L73.8822 196.568L59.7478 186.946L98.1802 159.562Z" fill="#1B262C"/>
<path d="M102.244 153.938L120.213 164.313L71.7565 192.289L60.0673 185.541C56.599 183.538 56.599 180.292 60.0673 178.289L102.244 153.938Z" fill="#1ADAB7"/>
<path d="M102.244 153.938L120.213 164.313L88.711 182.501L70.7419 172.126L102.244 153.938Z" fill="#1ADAB7"/>
<path d="M88.4209 182.586L105.597 192.503L88.8278 202.184L71.6517 192.268L88.4209 182.586Z" fill="#1ADAB7"/>
<path d="M105.966 194.195L156.434 266.087L138.834 278.564L87.8398 206.108L105.966 194.195Z" fill="#1B262C"/>
<path d="M105.597 192.173L158.289 266.087L141.28 277.08L88.8466 202.137L105.597 192.173Z" fill="#1ADAB7"/>
<path d="M92.4341 202.904L136.955 265.605" stroke="black" stroke-width="0.659222" stroke-linecap="round" stroke-dasharray="1.32 4.61"/>
<path d="M104.677 194.742L149.198 257.443" stroke="black" stroke-width="0.659222" stroke-linecap="round" stroke-dasharray="1.32 4.61"/>
<path d="M159.767 268.118L178.777 279.654L130.61 308.884L116.041 298.864L159.767 268.118Z" fill="#1B262C"/>
<path d="M157.746 266.007L176.369 276.759L129.494 303.822L110.87 293.07L157.746 266.007Z" fill="#1ADAB7"/>
<path d="M172.558 499.164V493.481" stroke="black" stroke-width="4.24378" stroke-linecap="round" stroke-linejoin="round"/>
<path d="M160.692 485.979V480.297" stroke="black" stroke-width="4.24378" stroke-linecap="round" stroke-linejoin="round"/>
<circle cx="160.692" cy="478.023" r="7.19761" fill="#55AF74"/>
<path d="M176.238 478.726V474.303" stroke="black" stroke-width="4.24378" stroke-linecap="round" stroke-linejoin="round"/>
<circle cx="176.238" cy="472.534" r="5.60339" fill="#55AF74"/>
<circle cx="147.232" cy="486.317" r="2.9665" fill="#55AF95"/>
<circle cx="190.741" cy="482.362" r="2.30728" fill="#55AF95"/>
<circle cx="173.218" cy="489.23" r="7.19761" fill="#55AF96"/>
<path d="M40.2642 498.929V493.247" stroke="black" stroke-width="4.24378" stroke-linecap="round" stroke-linejoin="round"/>
<path d="M28.3984 485.745V480.062" stroke="black" stroke-width="4.24378" stroke-linecap="round" stroke-linejoin="round"/>
<circle cx="28.3983" cy="477.788" r="7.19761" fill="#0B8B80"/>
<path d="M43.9438 478.492V474.068" stroke="black" stroke-width="4.24378" stroke-linecap="round" stroke-linejoin="round"/>
<circle cx="43.9442" cy="472.3" r="5.60339" fill="#0D5D5C"/>
<circle cx="14.9382" cy="486.083" r="2.9665" fill="#0C5857"/>
<circle cx="58.4469" cy="482.128" r="2.30728" fill="#0B6E6A"/>
<circle cx="40.9237" cy="488.995" r="7.19761" fill="#23938B"/>
<path d="M96.6229 514.014L75.9316 499.697L79.1149 493.511L99.0103 483.26L109.754 484.048L129.649 496.665L131.673 502.437L109.754 514.014H96.6229Z" fill="#151D22"/>
<rect width="62.9055" height="62.9055" rx="10.8019" transform="matrix(0.866025 0.5 -0.866025 0.5 91.3545 286.918)" fill="#1B262C"/>
<rect width="62.9055" height="62.9055" rx="10.8019" transform="matrix(0.866025 0.5 -0.866025 0.5 91.3545 278.531)" fill="#1ADAB7"/>
<ellipse cx="90.6029" cy="311.964" rx="15.0292" ry="6.44948" fill="#151D22"/>
<path d="M119.672 275.864C121.568 279.024 127.256 277.76 125.798 270.808C124.678 265.471 119.672 267.823 121.033 271.53C121.682 273.298 127.888 276.496 128.52 265.752" stroke="#F4F1EC" stroke-width="0.722067" stroke-linecap="round"/>
<path d="M119.671 281.362C119.671 297.872 106.089 311.257 89.3347 311.257C72.5802 311.257 58.998 297.872 58.998 281.362C58.998 272.238 63.146 264.069 69.685 258.585C71.285 257.244 65.9502 252.48 70.3743 249.319C76.0624 246.791 77.72 253.692 79.2225 253.169C82.3853 252.067 85.789 251.468 89.3347 251.468C106.089 251.468 119.671 264.852 119.671 281.362Z" fill="#F4F1EC" stroke="black" stroke-width="0.962756"/>
<path d="M101.975 266.655L102.713 265.753C104.907 263.071 108.958 262.926 111.337 265.444V265.444C113.238 267.455 113.435 270.534 111.808 272.772L109.559 275.865" stroke="black" stroke-width="0.962756" stroke-linecap="round"/>
<rect width="23.2204" height="14.6787" rx="6.73929" transform="matrix(0.866025 0.5 -2.20305e-08 1 56.4702 282.044)" fill="#F4F1EC" stroke="black" stroke-width="0.962756"/>
<ellipse cx="77.9584" cy="285.344" rx="1.26403" ry="3.16006" fill="black"/>
<ellipse cx="66.5819" cy="279.657" rx="1.26403" ry="2.52805" fill="black"/>
<circle cx="2.87278" cy="2.87278" r="2.87278" transform="matrix(0.866025 0.5 -2.20305e-08 1 59.3433 288.299)" fill="#636363"/>
<circle cx="2.87278" cy="2.87278" r="2.87278" transform="matrix(0.866025 0.5 -2.20305e-08 1 67.9614 294.046)" fill="#636363"/>
<path d="M85.5427 256.902L83.0146 258.798C84.2787 258.798 88.7028 260.062 93.1269 262.59L95.6549 260.694C91.8628 257.534 88.0708 256.902 85.5427 256.902Z" fill="black"/>
<circle cx="106.399" cy="270.176" r="3.16006" fill="#DBD4C9"/>
<ellipse cx="72.8349" cy="255.829" rx="2.52805" ry="3.16006" transform="rotate(-28.3 72.8349 255.829)" fill="#DBD4C9"/>
<path d="M90.7273 237.376C92.4107 237.158 94.1026 238.162 95.4778 239.992C96.853 241.821 97.8978 244.457 98.2877 247.474C98.6777 250.491 98.3369 253.31 97.473 255.426C96.609 257.542 95.2271 258.945 93.5438 259.163L90.5137 259.555L87.6972 237.767L90.7273 237.376Z" fill="#EAB95B"/>
<path d="M90.7273 237.376C92.4107 237.158 94.1026 238.162 95.4778 239.992C96.853 241.821 97.8978 244.457 98.2877 247.474C98.6777 250.491 98.3369 253.31 97.473 255.426C96.609 257.542 95.2271 258.945 93.5438 259.163L90.5137 259.555L87.6972 237.767L90.7273 237.376Z" fill="#FFD979"/>
<path d="M88.088 237.718C89.7714 237.501 91.4633 238.505 92.8385 240.334C94.2137 242.164 95.2596 244.8 95.6496 247.816C96.0395 250.833 95.6988 253.652 94.8348 255.769C93.9708 257.885 92.589 259.288 90.9056 259.505C89.2222 259.723 87.5303 258.719 86.1553 256.891C84.7803 255.062 83.7353 252.425 83.3452 249.407C82.9551 246.389 83.2961 243.573 84.1601 241.456C85.0241 239.34 86.4047 237.936 88.088 237.718Z" fill="white"/>
<path d="M88.2858 240.71C89.4633 240.557 90.653 241.29 91.6256 242.625C92.5983 243.961 93.341 245.881 93.625 248.078C93.909 250.275 93.6784 252.324 93.078 253.86C92.4775 255.397 91.5126 256.41 90.3351 256.562C89.1576 256.715 87.9717 255.981 86.9956 254.642C86.0195 253.302 85.2802 251.386 84.9962 249.189C84.7122 246.992 84.9428 244.943 85.5433 243.407C86.1437 241.87 87.1093 240.862 88.2858 240.71Z" fill="#FFD979"/>
<path fill-rule="evenodd" clip-rule="evenodd" d="M91.6366 242.637C89.5517 239.76 86.8205 240.113 85.5357 243.426C84.2509 246.738 84.8998 251.758 86.9848 254.636C88.8459 257.204 91.2215 257.203 92.6245 254.812C91.3255 256.81 89.2158 256.746 87.5561 254.455C85.6381 251.807 85.041 247.188 86.223 244.142C87.4049 241.095 89.9176 240.769 91.8356 243.416C92.7965 244.743 93.4257 246.561 93.6659 248.427C93.4399 246.28 92.7395 244.159 91.6366 242.637Z" fill="#E9AC66"/>
<path d="M98.0518 246.369L95.5313 246.694C95.5551 246.879 95.768 248.051 95.8296 248.528C95.8913 249.005 95.9187 251.161 95.7759 252.422C95.2585 256.989 93.14 258.531 92.0259 259.265L94.135 258.992C96.8322 257.956 97.5077 254.993 98.0826 253.375C98.6394 250.914 98.3094 247.691 98.0518 246.369Z" fill="#C18E48"/>
<path d="M30.0571 348.026L60.7709 366.531L45.775 375.467L15.0613 356.963L30.0571 348.026Z" fill="#1B262C"/>
<path d="M60.2793 323.546L79.2893 335.082L31.122 364.312L16.5531 354.291L60.2793 323.546Z" fill="#1B262C"/>
<path d="M60.9927 362.112L97.9179 427.398L80.922 438.367L43.9967 373.081L60.9927 362.112Z" fill="#1B262C"/>
<path d="M58.2583 321.435L76.8818 332.187L30.0066 359.25L17.6631 352.124C14.1948 350.121 14.1948 346.875 17.6631 344.872L58.2583 321.435Z" fill="#1ADAB7"/>
<rect width="22.4063" height="18.9097" transform="matrix(0.866025 0.5 -0.866025 0.5 44.5884 348.826)" fill="#1ADAB7"/>
<path d="M64.7658 460.764L63.1104 444.775L94.684 465.325H117.375L145.883 447.259V458.247L129.593 473.332L121.447 484.988H94.684L74.3207 473.332V468.154L64.7658 460.764Z" fill="#1B262C"/>
<path d="M94.9932 467.123L63.1104 444.774L68.0154 435.117L98.672 419.114L115.227 420.345L145.883 440.041L149.001 449.051L115.227 467.123H94.9932Z" fill="#F79780"/>
<path d="M115.257 484.919V467.123L149.001 448.768L145.883 458.018L129.743 473.331L121.465 484.919H115.257Z" fill="#B33E21"/>
<rect width="18.9342" height="4.09938" transform="matrix(-0.866025 0.5 2.20305e-08 1 64.0381 359.856)" fill="#037F7D"/>
<rect width="18.9342" height="4.09938" transform="matrix(-0.866025 0.5 2.20305e-08 1 67.5312 365.907)" fill="#037F7D"/>
<rect width="18.9342" height="4.09938" transform="matrix(-0.866025 0.5 2.20305e-08 1 70.9473 372.056)" fill="#037F7D"/>
<rect width="18.9342" height="4.09938" transform="matrix(-0.866025 0.5 2.20305e-08 1 74.3633 378.205)" fill="#037F7D"/>
<rect width="18.9342" height="4.09938" transform="matrix(-0.866025 0.5 2.20305e-08 1 77.7793 384.354)" fill="#037F7D"/>
<rect width="18.9342" height="4.09938" transform="matrix(-0.866025 0.5 2.20305e-08 1 81.1953 390.504)" fill="#037F7D"/>
<rect width="18.9342" height="4.09938" transform="matrix(-0.866025 0.5 2.20305e-08 1 84.6113 396.652)" fill="#037F7D"/>
<rect width="18.9342" height="4.09938" transform="matrix(-0.866025 0.5 2.20305e-08 1 88.0278 402.802)" fill="#037F7D"/>
<rect width="18.9342" height="4.09938" transform="matrix(-0.866025 0.5 2.20305e-08 1 91.4438 408.951)" fill="#037F7D"/>
<rect width="18.9342" height="4.09938" transform="matrix(-0.866025 0.5 2.20305e-08 1 94.8599 415.1)" fill="#037F7D"/>
<rect width="19.0231" height="4.09938" transform="matrix(-0.866025 0.5 0.866025 0.5 64.0381 363.857)" fill="#1ADAB7"/>
<rect width="19.0231" height="4.09938" transform="matrix(-0.866025 0.5 0.866025 0.5 67.5312 369.908)" fill="#1ADAB7"/>
<rect width="19.0231" height="4.09938" transform="matrix(-0.866025 0.5 0.866025 0.5 70.9473 376.058)" fill="#1ADAB7"/>
<rect width="19.0231" height="4.09938" transform="matrix(-0.866025 0.5 0.866025 0.5 74.3633 382.207)" fill="#1ADAB7"/>
<rect width="19.0231" height="4.09938" transform="matrix(-0.866025 0.5 0.866025 0.5 77.7793 388.355)" fill="#1ADAB7"/>
<rect width="19.0231" height="4.09938" transform="matrix(-0.866025 0.5 0.866025 0.5 81.1953 394.505)" fill="#1ADAB7"/>
<rect width="19.0231" height="4.09938" transform="matrix(-0.866025 0.5 0.866025 0.5 84.6113 400.654)" fill="#1ADAB7"/>
<rect width="19.0231" height="4.09938" transform="matrix(-0.866025 0.5 0.866025 0.5 88.0278 406.803)" fill="#1ADAB7"/>
<rect width="19.0231" height="4.09938" transform="matrix(-0.866025 0.5 0.866025 0.5 91.4438 412.952)" fill="#1ADAB7"/>
<rect width="19.0231" height="4.09938" transform="matrix(-0.866025 0.5 0.866025 0.5 94.8599 419.102)" fill="#FFD4AC"/>
<circle cx="63.69" cy="259.038" r="0.942939" fill="#99E0B8"/>
<circle opacity="0.4" cx="49.1876" cy="258.822" r="0.942939" fill="#43B19D"/>
<circle opacity="0.4" cx="101.925" cy="193.116" r="0.942939" fill="#43B19D"/>
<circle cx="169.541" cy="76.5617" r="1.97767" fill="#A5FCE7"/>
<circle opacity="0.4" cx="182.726" cy="42.2824" r="1.97767" fill="#A5FCE7"/>
<circle cx="83.5128" cy="39.9743" r="2.30728" fill="#A5FCE7"/>
<circle cx="131.965" cy="40.9631" r="2.63689" fill="#A5E4FF"/>
<circle cx="124.384" cy="1.73981" r="0.988834" fill="#C9E4F0"/>
<circle cx="96.6973" cy="70.2994" r="0.988834" fill="#C9E4F0"/>
<path d="M93.959 54.3486C95.8971 53.7797 100.347 53.105 102.64 54.958C104.933 56.8111 108.12 55.6974 109.427 54.9089" stroke="#F4EDD9" stroke-width="1.97767"/>
<path d="M166.099 56.2353C168.729 56.9039 174.424 57.3631 176.166 53.851" stroke="#F79780" stroke-width="1.97767"/>
<circle cx="103.619" cy="27.7787" r="5.27378" stroke="#2A645F" stroke-width="1.31844"/>
<circle cx="171.848" cy="10.3094" r="3.62572" stroke="#2A645F" stroke-width="1.31844"/>
<path d="M160.418 39.2006C160.243 39.7183 160.521 40.2806 161.04 40.4559L160.723 41.395C160.204 41.2197 159.641 41.498 159.466 42.0157C159.292 42.5335 159.57 43.0958 160.089 43.2711L159.771 44.2102C159.252 44.0349 158.69 44.3131 158.515 44.8309C158.34 45.3486 158.618 45.912 159.137 46.0873L158.82 47.0254C158.301 46.85 157.739 47.1283 157.564 47.646C157.389 48.1638 157.667 48.7272 158.186 48.9025L157.869 49.8405C157.35 49.6652 156.787 49.9434 156.612 50.4623C156.437 50.9811 156.715 51.5423 157.234 51.7176L156.917 52.6567C156.398 52.4814 155.836 52.7586 155.661 53.2774C155.485 53.7963 155.764 54.3575 156.283 54.5328L155.966 55.4719C155.447 55.2966 154.884 55.5748 154.709 56.0926C154.535 56.6103 154.813 57.1726 155.332 57.348L154.729 59.1309C152.854 58.4972 150.819 59.5041 150.185 61.3802L118.882 50.8018C119.154 49.9959 119.124 49.1613 118.852 48.4215C118.496 47.4503 117.725 46.6405 116.675 46.2713L116.633 46.2571L117.236 44.472C117.736 44.606 118.262 44.3298 118.43 43.8326C118.543 43.4979 118.466 43.1436 118.257 42.8897C118.157 42.7653 118.025 42.6638 117.869 42.6003L118.188 41.6568C118.688 41.7909 119.213 41.5146 119.381 41.0175C119.549 40.5203 119.299 39.982 118.82 39.7851L119.139 38.8417C119.172 38.8505 119.206 38.8582 119.24 38.8627C119.654 38.9288 120.067 38.7244 120.265 38.3557L120.266 38.3561C120.292 38.307 120.315 38.2554 120.332 38.2023C120.501 37.704 120.251 37.1657 119.772 36.9689L120.09 36.0265C120.59 36.1606 121.116 35.8843 121.284 35.3861C121.453 34.8878 121.202 34.3506 120.723 34.1537L121.041 33.2114C121.542 33.3454 122.067 33.0692 122.235 32.5709C122.404 32.0727 122.153 31.5354 121.674 31.3386L121.993 30.3951C122.493 30.5292 123.018 30.254 123.187 29.7558C123.355 29.2575 123.105 28.7203 122.626 28.5234L122.945 27.58C123.445 27.714 123.97 27.4378 124.138 26.9406C124.306 26.4434 124.056 25.9051 123.577 25.7082L124.18 23.9232C126.056 24.5572 128.091 23.5503 128.725 21.6743L160.029 32.2526C159.395 34.1287 160.401 36.1634 162.276 36.797L161.674 38.5799C161.155 38.4046 160.593 38.6828 160.418 39.2006V39.2006Z" fill="#FFD97B"/>
<path fill-rule="evenodd" clip-rule="evenodd" d="M154.976 30.5441L144.566 35.6953L141.137 37.3931L138.598 38.6495L138.386 38.7542L131.718 42.0538L130.258 42.7767L118.852 48.4205C118.496 47.4493 117.725 46.6395 116.675 46.2704L116.633 46.2561L117.236 44.471C117.736 44.6051 118.262 44.3288 118.43 43.8316C118.543 43.4969 118.466 43.1427 118.257 42.8887C118.157 42.7643 118.025 42.6629 117.869 42.5993L118.188 41.6559C118.688 41.7899 119.213 41.5137 119.381 41.0165C119.549 40.5193 119.299 39.981 118.82 39.7841L119.139 38.8407C119.172 38.8495 119.206 38.8572 119.24 38.8617C119.654 38.9278 120.067 38.7234 120.265 38.3547L120.266 38.3551C120.292 38.306 120.315 38.2544 120.332 38.2013C120.501 37.7031 120.251 37.1648 119.772 36.9679L120.09 36.0255C120.59 36.1596 121.116 35.8833 121.284 35.3851C121.453 34.8868 121.202 34.3496 120.723 34.1527L121.041 33.2104C121.542 33.3444 122.067 33.0682 122.235 32.5699C122.404 32.0717 122.153 31.5344 121.674 31.3376L121.993 30.3941C122.493 30.5282 123.018 30.253 123.187 29.7548C123.355 29.2565 123.105 28.7193 122.626 28.5224L122.945 27.579C123.445 27.713 123.97 27.4368 124.138 26.9396C124.306 26.4424 124.056 25.9041 123.577 25.7073L124.18 23.9222C126.056 24.5562 128.091 23.5493 128.725 21.6733L154.976 30.5441Z" fill="#FFC95D"/>
<path d="M147.978 28.1795L118.257 42.8887C118.157 42.7643 118.025 42.6628 117.869 42.5993L118.188 41.6559C118.688 41.7899 119.213 41.5137 119.381 41.0165C119.549 40.5193 119.299 39.981 118.82 39.7841L119.11 38.9263L119.24 38.8617C119.654 38.9278 120.067 38.7234 120.265 38.3547L120.266 38.3551L143.727 26.7429L147.978 28.1795Z" fill="#FFF6E7"/>
<path d="M151.102 29.2352L116.675 46.2704L116.633 46.2561L117.067 44.9714L149.773 28.7861L151.102 29.2352Z" fill="#FFF6E7"/>
<path d="M129.433 28.6585L130.59 28.6633C130.629 28.6631 130.666 28.6455 130.689 28.6145L131.387 27.6918C131.459 27.5967 131.609 27.6476 131.609 27.7669L131.604 28.9238C131.604 28.9625 131.622 28.9998 131.653 29.0224L132.576 29.7204C132.671 29.7924 132.62 29.9429 132.501 29.9425L131.344 29.9377C131.305 29.9379 131.268 29.9554 131.245 29.9864L130.547 30.9091C130.475 31.0043 130.325 30.9534 130.325 30.8341L130.33 29.6771C130.33 29.6385 130.312 29.6011 130.281 29.5786L129.358 28.8806C129.263 28.8086 129.314 28.658 129.433 28.6585V28.6585Z" fill="#FFF6E7"/>
<path d="M145.897 52.5192L147.393 52.525C147.443 52.5252 147.491 52.5015 147.52 52.4619L148.423 51.2692C148.515 51.147 148.711 51.2133 148.71 51.3662L148.704 52.862C148.704 52.9126 148.728 52.9604 148.767 52.9895L149.96 53.8922C150.082 53.9841 150.016 54.1802 149.863 54.1792L148.367 54.1734C148.317 54.1732 148.269 54.1968 148.24 54.2365L147.337 55.4292C147.245 55.5514 147.049 55.4851 147.05 55.3322L147.056 53.8364C147.056 53.7858 147.032 53.738 146.993 53.7089L145.8 52.8062C145.678 52.7142 145.744 52.5182 145.897 52.5192Z" fill="#FFF6E7"/>
<path d="M143.524 53.9531L144.342 53.9568C144.37 53.9566 144.396 53.9437 144.412 53.9224L144.905 53.2696C144.956 53.2022 145.063 53.2385 145.062 53.3227L145.059 54.1409C145.059 54.1688 145.072 54.1948 145.093 54.2105L145.746 54.7038C145.813 54.7543 145.777 54.8616 145.693 54.8609L144.875 54.8571C144.847 54.8574 144.821 54.8703 144.805 54.8915L144.312 55.5443C144.261 55.6117 144.154 55.5755 144.155 55.4912L144.158 54.673C144.158 54.6452 144.145 54.6191 144.124 54.6035L143.471 54.1101C143.404 54.0596 143.44 53.9524 143.524 53.9531Z" fill="#F8BA55"/>
<path d="M136.314 48.8687C140.369 50.2393 144.769 48.0625 146.139 44.0065C147.51 39.9506 145.333 35.5515 141.277 34.1809C137.221 32.8103 132.822 34.9872 131.451 39.0431C130.081 43.099 132.258 47.4981 136.314 48.8687Z" fill="#BA8322"/>
<path d="M136.973 48.8687C141.029 50.2393 145.428 48.0625 146.798 44.0065C148.169 39.9506 145.992 35.5515 141.936 34.1809C137.88 32.8103 133.481 34.9872 132.111 39.0431C130.74 43.099 132.917 47.4981 136.973 48.8687Z" fill="white"/>
<path d="M138.404 38.7057L136.121 45.4603L137.254 45.8432L139.797 38.3184L138.404 38.7057Z" fill="#EFAF4E"/>
<path d="M142.502 37.0141L139.287 46.5276L138.153 46.1443L141.108 37.4021L142.502 37.0141Z" fill="#EFAF4E"/>
<path d="M158.398 37.5577L152.108 56.1709C150.546 55.643 148.85 56.4821 148.322 58.0462L122.232 49.2299C122.459 48.5583 122.434 47.8629 122.208 47.2459C121.911 46.4359 121.268 45.7614 120.393 45.4537L120.358 45.4417L126.648 26.8285C128.212 27.357 129.907 26.518 130.436 24.9539L156.525 33.7702C155.997 35.3343 156.836 37.0299 158.398 37.5577Z" stroke="#BA8322" stroke-width="0.317113" stroke-miterlimit="10"/>
<path d="M151.763 98.7672C151.763 105.129 150.594 111.671 148.146 116.766C146.651 119.877 144.68 122.447 142.209 124.105C140.258 125.421 137.994 126.167 135.406 126.167C124.161 126.167 115.045 115.378 115.045 102.067C115.045 88.7574 113.283 84.5712 124.528 84.5712C132.284 84.5712 147.167 82.2708 153.814 87.8741C156.809 90.3946 151.763 94.6353 151.763 98.7672V98.7672Z" fill="#FFD979"/>
<path d="M155.71 102.066C155.71 115.376 146.607 126.165 135.378 126.165C124.148 126.165 115.042 115.376 115.042 102.066C115.042 88.7557 113.283 84.5694 124.513 84.5694C132.259 84.5694 147.118 82.2691 153.76 87.8698C156.749 90.3903 155.71 97.9339 155.71 102.066V102.066Z" fill="#FFD979" stroke="#E2961B" stroke-width="0.659222" stroke-miterlimit="10"/>
<path d="M130.775 153.03C139.847 153.03 147.201 148.617 147.201 143.173C147.201 137.73 139.847 133.316 130.775 133.316C121.703 133.316 114.348 137.73 114.348 143.173C114.348 148.617 121.703 153.03 130.775 153.03Z" fill="#1B262C"/>
<path d="M151.763 95.8327C115.047 98.8403 123.075 120.709 131.489 125.606C118.029 121.399 115.045 109.122 115.045 98.4751C115.045 87.828 113.283 84.4785 124.528 84.4785C132.284 84.4785 147.167 82.6392 153.817 87.1182C156.809 89.1337 151.765 92.5298 151.765 95.8327H151.763Z" fill="url(#paint0_linear_5002_12566)"/>
<path d="M150.278 141.028C150.278 141.569 150.192 142.1 150.029 142.616C149.721 143.592 149.133 144.515 148.312 145.349C148.019 145.649 147.693 145.939 147.34 146.217C146.338 147.004 145.11 147.688 143.716 148.24C141.346 149.175 138.488 149.722 135.414 149.722C127.207 149.722 120.552 145.828 120.552 141.028C120.552 136.73 125.886 133.16 132.89 132.458V136.821C132.89 137.751 133.644 138.505 134.574 138.505H135.696C135.825 138.505 135.952 138.489 136.074 138.461C136.434 138.378 136.75 138.181 136.978 137.909C137.227 137.616 137.377 137.235 137.377 136.821V132.409C144.659 132.971 150.278 136.616 150.278 141.028V141.028Z" fill="#FFD979"/>
<path d="M152.516 116.775C151.545 116.775 150.677 116.088 150.485 115.099C150.265 113.974 150.998 112.886 152.12 112.666C155.068 112.088 160.213 110.063 162.316 106.837C163.233 105.431 163.495 103.933 163.117 102.257C162.612 100.024 161.513 99.615 161.153 99.4803C159.692 98.9363 157.34 99.5373 155.431 100.944C154.508 101.623 153.211 101.426 152.532 100.506C151.853 99.5839 152.05 98.2887 152.97 97.6073C155.299 95.8924 159.215 94.3355 162.596 95.5971C164.22 96.2033 166.329 97.6902 167.155 101.343C167.785 104.128 167.324 106.739 165.785 109.099C162.77 113.728 156.275 116.075 152.913 116.733C152.778 116.759 152.643 116.772 152.514 116.772L152.516 116.775Z" fill="#FFD979"/>
<path d="M133.17 139.416C135.494 139.416 137.377 138.537 137.377 137.453C137.377 136.368 135.494 135.489 133.17 135.489C130.847 135.489 128.963 136.368 128.963 137.453C128.963 138.537 130.847 139.416 133.17 139.416Z" fill="#F2B826"/>
<path d="M149.407 142.616C149.099 143.593 148.511 144.515 147.69 145.349C146.553 144.067 144.581 142.106 141.898 140.393C139.672 138.992 137.595 138.259 136.356 137.909C136.605 137.616 136.755 137.235 136.755 136.821V134.79C138.154 135.153 140.747 135.995 143.563 137.767C146.125 139.404 148.089 141.217 149.407 142.616Z" fill="url(#paint1_linear_5002_12566)"/>
<path d="M137.377 119.437V136.822C137.377 137.237 137.227 137.617 136.978 137.91C136.75 138.182 136.434 138.379 136.074 138.462C135.953 138.49 135.826 138.506 135.696 138.506H134.574C133.644 138.506 132.891 137.752 132.891 136.822V119.437C132.891 118.507 133.644 117.756 134.574 117.756H135.696C136.624 117.756 137.377 118.507 137.377 119.437V119.437Z" fill="#FFD979"/>
<path d="M118.249 109.836C118.117 109.836 117.982 109.823 117.85 109.798C114.488 109.14 107.993 106.793 104.978 102.163C103.436 99.8034 102.975 97.1947 103.605 94.4073C104.431 90.7547 106.54 89.2677 108.164 88.6616C111.547 87.4 115.464 88.9569 117.79 90.6718C118.713 91.3505 118.91 92.6484 118.228 93.5706C117.55 94.4928 116.252 94.6897 115.329 94.0084C113.42 92.6017 111.068 92.0007 109.61 92.5447C109.25 92.6794 108.151 93.0887 107.646 95.3218C107.268 96.9952 107.529 98.4952 108.446 99.9018C110.547 103.127 115.695 105.155 118.643 105.73C119.767 105.951 120.498 107.039 120.277 108.163C120.083 109.153 119.218 109.839 118.246 109.839L118.249 109.836Z" fill="#F2B826"/>
<path d="M167.16 101.345C166.334 97.6919 164.225 96.205 162.601 95.5988C160.394 94.775 157.959 95.1532 155.884 95.9926C155.889 94.3139 155.801 92.6353 155.48 91.1897C155.508 91.0758 155.537 90.9644 155.557 90.8504C155.573 90.7856 155.586 90.7209 155.596 90.6561C155.62 90.5292 155.638 90.4022 155.653 90.2727C155.664 90.1898 155.671 90.1095 155.679 90.0266C155.687 89.9411 155.692 89.853 155.697 89.7675C155.703 89.6562 155.705 89.5422 155.705 89.4308C155.705 86.2419 153.508 83.3042 149.848 81.1463C146.193 78.9936 141.128 77.6543 135.515 77.6543C129.901 77.6543 124.837 78.9936 121.184 81.1463C121.054 81.2214 120.927 81.2992 120.801 81.3795C120.705 81.439 120.609 81.4986 120.516 81.5608C120.407 81.6307 120.298 81.7007 120.194 81.7732C120.088 81.8458 119.985 81.9183 119.881 81.9908C119.795 82.053 119.713 82.1126 119.63 82.1747C119.547 82.2369 119.464 82.2991 119.384 82.3613C119.272 82.4468 119.163 82.5348 119.055 82.6229C118.974 82.6877 118.897 82.755 118.819 82.8224C118.764 82.8664 118.713 82.913 118.661 82.9571C118.593 83.0167 118.529 83.0762 118.464 83.1358C118.402 83.1928 118.342 83.2498 118.285 83.3042C118.205 83.3793 118.125 83.4571 118.049 83.5348C117.969 83.6151 117.894 83.6928 117.816 83.7731C117.741 83.8534 117.669 83.9337 117.596 84.0166C117.524 84.0969 117.451 84.1798 117.384 84.2601L117.197 84.4855C117.187 84.5036 117.171 84.5218 117.158 84.5373C117.099 84.6124 117.042 84.685 116.987 84.7601C116.86 84.9285 116.744 85.0994 116.632 85.2704C116.632 85.273 116.627 85.2756 116.627 85.2756C115.837 86.4905 115.386 87.7936 115.329 89.1458C115.322 89.1769 115.316 89.208 115.309 89.2365C113.148 88.2754 110.527 87.7806 108.167 88.6614C106.542 89.2676 104.434 90.7545 103.607 94.4072C102.978 97.192 103.439 99.8032 104.978 102.163C107.503 106.039 112.467 108.313 115.987 109.339C118.347 118.191 124.904 124.833 132.89 125.988V132.464C125.886 133.166 120.552 136.734 120.552 141.031C120.552 145.831 127.207 149.725 135.414 149.725C143.62 149.725 150.275 145.834 150.275 141.031C150.275 136.62 144.657 132.977 137.377 132.415V126.053C143.19 125.379 148.286 121.807 151.62 116.569C151.895 116.701 152.2 116.776 152.519 116.776C152.651 116.776 152.786 116.763 152.918 116.737C156.28 116.079 162.772 113.732 165.79 109.103C167.329 106.741 167.79 104.132 167.16 101.347V101.345ZM108.449 99.9016C107.532 98.495 107.27 96.9977 107.648 95.3216C108.154 93.0886 109.252 92.6793 109.612 92.5446C110.975 92.0368 113.112 92.5264 114.943 93.7362C114.933 95.9977 115.042 98.7489 115.042 102.067C115.042 102.951 115.083 103.821 115.161 104.679C112.607 103.668 109.848 102.049 108.446 99.8991L108.449 99.9016ZM162.316 106.839C160.575 109.507 156.752 111.357 153.811 112.24C155.026 109.15 155.708 105.704 155.708 102.067C155.708 101.653 155.718 101.205 155.734 100.731C157.583 99.4794 159.767 98.9639 161.15 99.4794C161.51 99.6141 162.609 100.023 163.114 102.256C163.492 103.93 163.231 105.43 162.314 106.836L162.316 106.839Z" stroke="black" stroke-width="0.659222" stroke-miterlimit="10"/>
<path d="M132.891 132.463V136.821C132.891 137.751 133.644 138.504 134.574 138.504H135.696C135.826 138.504 135.953 138.489 136.074 138.46C136.434 138.377 136.75 138.181 136.978 137.909C137.227 137.616 137.377 137.235 137.377 136.821V132.414" stroke="black" stroke-width="0.659222" stroke-miterlimit="10"/>
<path d="M155.809 102.066C155.809 115.376 146.706 126.165 135.476 126.165C124.246 126.165 115.143 115.376 115.143 102.066C115.143 88.7557 113.384 84.5694 124.614 84.5694C132.36 84.5694 147.219 82.2691 153.861 87.8698C156.85 90.3903 155.812 97.9339 155.812 102.066H155.809Z" stroke="black" stroke-width="0.659222" stroke-miterlimit="10"/>
<path d="M147.9 98.7255C148.586 98.4147 149.237 98.0779 149.848 97.7178C152.825 95.9641 154.832 93.6922 155.48 91.1897C155.508 91.0758 155.537 90.9644 155.558 90.8504C155.573 90.7856 155.586 90.7209 155.596 90.6561C155.62 90.5292 155.638 90.4022 155.653 90.2727C155.664 90.1898 155.672 90.1095 155.679 90.0266C155.687 89.9411 155.692 89.853 155.697 89.7675C155.703 89.6562 155.705 89.5422 155.705 89.4308C155.705 86.2419 153.508 83.3042 149.848 81.1463C146.193 78.9936 141.128 77.6543 135.515 77.6543C129.901 77.6543 124.837 78.9936 121.184 81.1463C121.054 81.2214 120.928 81.2992 120.801 81.3795C120.705 81.439 120.609 81.4986 120.516 81.5608C120.407 81.6307 120.298 81.7007 120.194 81.7732C120.088 81.8458 119.985 81.9183 119.881 81.9908C119.795 82.053 119.713 82.1126 119.63 82.1747C119.547 82.2369 119.464 82.2991 119.384 82.3613C119.272 82.4468 119.163 82.5348 119.055 82.6229C118.974 82.6877 118.897 82.755 118.819 82.8224C118.764 82.8664 118.713 82.913 118.661 82.9571C118.593 83.0167 118.529 83.0762 118.464 83.1358C118.402 83.1928 118.342 83.2498 118.285 83.3042C118.205 83.3793 118.125 83.4571 118.049 83.5348C117.969 83.6151 117.894 83.6928 117.816 83.7731C117.741 83.8534 117.669 83.9337 117.596 84.0166C117.524 84.0969 117.451 84.1798 117.384 84.2601L117.197 84.4855C117.187 84.5036 117.171 84.5218 117.158 84.5373C117.099 84.6124 117.042 84.685 116.987 84.7601C116.86 84.9285 116.744 85.0994 116.632 85.2704L116.627 85.2756C115.835 86.4931 115.384 87.8013 115.329 89.1588C115.329 89.2494 115.324 89.3401 115.324 89.4308C115.324 92.6223 117.524 95.5599 121.184 97.7178C124.837 99.868 129.904 101.21 135.515 101.21C138.525 101.21 141.613 100.956 144.175 100.267" fill="#141A1C" stroke="black" stroke-width="0.659222"/>
<path d="M134.752 101.249C144.74 101.249 152.837 97.0056 152.837 91.7707C152.837 86.5357 144.74 82.292 134.752 82.292C124.765 82.292 116.668 86.5357 116.668 91.7707C116.668 97.0056 124.765 101.249 134.752 101.249Z" fill="#141A1C" stroke="url(#paint2_linear_5002_12566)" stroke-width="0.659222"/>
<path d="M149.475 113.182C149.332 116.213 148.7 118.72 147.913 120.728C145.887 122.355 143.574 123.572 141.064 124.279L141.02 124.235C141.02 124.235 141.268 124.013 141.644 123.562C142.019 123.114 142.522 122.435 143.032 121.531C143.978 119.855 145.144 117.018 145.333 113.034C145.61 107.2 144.895 102.659 144.455 100.511C145.864 100.125 147.182 99.6514 148.387 99.1074C148.848 101.133 149.801 106.288 149.472 113.179L149.475 113.182Z" fill="url(#paint3_linear_5002_12566)"/>
<circle cx="87.757" cy="268.757" r="86.408" fill="url(#paint4_radial_5002_12566)" stroke="white" stroke-width="2.698"/>
<circle cx="86.541" cy="348.622" r="18.868" fill="black" stroke="white" stroke-width="2.61742"/>
<ellipse cx="80.4999" cy="349.629" rx="1.45596" ry="1.39" fill="white"/>
<ellipse cx="85.9032" cy="349.608" rx="2.29631" ry="2.19228" fill="white"/>
<path d="M87.9878 342.68L94.2276 349.63L87.9878 356.381" stroke="white" stroke-width="2.34486" stroke-linecap="round" stroke-linejoin="round"/>
<ellipse opacity="0.6" cx="146.441" cy="274.153" rx="5.23683" ry="2.44385" fill="#1B262C"/>
<circle cx="145.743" cy="250.414" r="16.8375" fill="#495DB2" stroke="white" stroke-width="2.25401"/>
<mask id="mask0_5002_12566" style="mask-type:alpha" maskUnits="userSpaceOnUse" x="130" y="234" width="32" height="33">
<circle cx="145.743" cy="250.414" r="15.7105" fill="#495DB2"/>
</mask>
<g mask="url(#mask0_5002_12566)">
<path d="M154.818 256.664C154.818 258.439 150.798 259.878 145.84 259.878C140.882 259.878 136.863 258.439 136.863 256.664C136.863 254.889 140.882 253.45 145.84 253.45C150.798 253.45 154.818 254.889 154.818 256.664Z" fill="#EFAF4E"/>
<path d="M154.554 257.44C154.726 257.192 154.818 256.932 154.818 256.664C154.818 254.889 150.798 253.45 145.84 253.45C140.882 253.45 136.863 254.889 136.863 256.664C136.863 256.932 136.954 257.192 137.126 257.44C138.095 256.04 141.629 255.002 145.84 255.002C150.051 255.002 153.585 256.04 154.554 257.44Z" fill="#1F2C65"/>
</g>
<path d="M137.971 249.793C137.971 245.447 141.494 241.924 145.84 241.924C150.186 241.924 153.709 245.447 153.709 249.793V257.219H137.971V249.793Z" fill="#EFAF4E"/>
<path fill-rule="evenodd" clip-rule="evenodd" d="M143.055 243.953C143.158 244.128 143.1 244.354 142.925 244.458C142.624 244.636 142.346 244.837 142.091 245.056C141.936 245.189 141.703 245.171 141.57 245.016C141.438 244.862 141.456 244.629 141.61 244.496C141.897 244.25 142.21 244.023 142.549 243.823C142.725 243.719 142.951 243.777 143.055 243.953ZM141.003 245.764C141.147 245.908 141.147 246.141 141.003 246.286C140.561 246.728 140.225 247.375 139.999 248.084C139.775 248.79 139.67 249.528 139.67 250.125C139.671 250.329 139.505 250.494 139.302 250.494C139.098 250.494 138.933 250.329 138.933 250.125C138.933 249.451 139.049 248.638 139.296 247.86C139.542 247.086 139.926 246.319 140.481 245.764C140.625 245.62 140.859 245.62 141.003 245.764Z" fill="white"/>
<path d="M145.286 249.461C145.286 249.094 145.584 248.796 145.951 248.796C146.318 248.796 146.616 249.094 146.616 249.461V251.234C146.616 251.601 146.318 251.899 145.951 251.899C145.584 251.899 145.286 251.601 145.286 251.234V249.461Z" fill="#1F2C65"/>
<path d="M149.72 249.461C149.72 249.094 150.017 248.796 150.385 248.796C150.752 248.796 151.05 249.094 151.05 249.461V251.234C151.05 251.601 150.752 251.899 150.385 251.899C150.017 251.899 149.72 251.601 149.72 251.234V249.461Z" fill="#1F2C65"/>
<path d="M145.204 272.092C145.661 272.883 146.801 272.883 147.257 272.092L149.66 267.93C150.116 267.14 149.546 266.152 148.634 266.152H143.827C142.915 266.152 142.345 267.14 142.801 267.93L145.204 272.092Z" fill="white"/>
<defs>
<linearGradient id="paint0_linear_5002_12566" x1="114.944" y1="104.853" x2="154.762" y2="104.853" gradientUnits="userSpaceOnUse">
<stop stop-color="#F2B826"/>
<stop offset="0.04" stop-color="#F2B929"/>
<stop offset="0.42" stop-color="#F6C145"/>
<stop offset="0.75" stop-color="#F8C656"/>
<stop offset="1" stop-color="#F9C85D"/>
</linearGradient>
<linearGradient id="paint1_linear_5002_12566" x1="147.231" y1="143.235" x2="140.882" y2="138.476" gradientUnits="userSpaceOnUse">
<stop stop-color="white"/>
<stop offset="0.17" stop-color="#FFFDFA"/>
<stop offset="0.34" stop-color="#FFFAEE"/>
<stop offset="0.52" stop-color="#FFF5D9"/>
<stop offset="0.69" stop-color="#FFEEBC"/>
<stop offset="0.87" stop-color="#FFE497"/>
<stop offset="1" stop-color="#FFDD78"/>
</linearGradient>
<linearGradient id="paint2_linear_5002_12566" x1="116.409" y1="91.7707" x2="153.093" y2="91.7707" gradientUnits="userSpaceOnUse">
<stop stop-color="#FFD979"/>
<stop offset="1" stop-opacity="0"/>
</linearGradient>
<linearGradient id="paint3_linear_5002_12566" x1="145.272" y1="119.207" x2="145.348" y2="103.716" gradientUnits="userSpaceOnUse">
<stop offset="0.33" stop-color="#FFDD78"/>
<stop offset="1" stop-color="white"/>
</linearGradient>
<radialGradient id="paint4_radial_5002_12566" cx="0" cy="0" r="1" gradientUnits="userSpaceOnUse" gradientTransform="translate(87.757 268.757) rotate(90) scale(87.757)">
<stop offset="0.485488" stop-color="#219584" stop-opacity="0"/>
<stop offset="1" stop-color="#165E57"/>
</radialGradient>
</defs>
</svg>
