<svg width="66" height="51" viewBox="0 0 66 51" fill="none" xmlns="http://www.w3.org/2000/svg">
<path d="M65.1101 31.5374L54.4381 23.6209C54.0937 23.397 53.6631 17.639 53.3014 17.8342L50.3622 19.367L48.4046 13.3679L48.3242 13.4138L48.3587 13.3966L40.58 8.42514C40.2355 8.20125 39.805 8.18404 39.4433 8.37923L10.0622 23.707C9.84403 23.8218 9.6718 23.994 9.56273 24.2179L9.4881 24.3729C9.4881 24.3729 9.47088 24.3902 9.46514 24.4016L6.02643 31.2618C5.72791 31.8588 6.18143 32.9955 6.8818 33.4203L19.3622 40.8316C19.5172 40.9235 19.6664 40.9866 19.81 41.0326C19.7411 41.6526 20.1544 42.5252 20.7457 42.8811L33.2261 50.2924C33.5762 50.5048 33.9035 50.5794 34.1848 50.5564C34.5177 50.7746 34.9598 50.8263 35.3559 50.6139L63.7725 34.9703C64.9838 34.2987 65.5522 32.8635 65.1216 31.5546L65.1101 31.5374Z" fill="black"/>
<path d="M43.192 9.94727L13.564 26.5495L3.10439 23.4552L4.39605 20.7628C4.50513 20.539 4.67735 20.3667 4.8955 20.2519L34.2766 4.92412C34.6383 4.72894 35.0746 4.75191 35.4133 4.97006L43.192 9.94154V9.94727Z" fill="#FFD979" stroke="black" stroke-width="0.75" stroke-linejoin="round"/>
<path d="M4.29271 20.952L0.854006 27.8122C0.555487 28.4092 1.00901 29.5459 1.70938 29.9707L14.1897 37.382C15.5446 38.1857 16.4918 37.1007 16.021 35.2866L13.7477 26.555C13.6099 26.0268 13.254 25.5159 12.8522 25.2862L5.1653 20.7913C4.79215 20.5674 4.44771 20.6363 4.28697 20.952H4.29271Z" fill="#C28C02" stroke="black" stroke-width="0.75" stroke-linejoin="round"/>
<path d="M14.6318 36.8202L13.5009 26.3835C13.4492 25.9128 13.6903 25.4707 14.1036 25.2526L43.2379 9.9248L46.0796 18.6335C46.5101 19.9481 45.9418 21.3833 44.7305 22.0492L16.3138 37.6928C15.602 38.0774 14.7236 37.6239 14.6318 36.8144V36.8202Z" fill="#F7CC60" stroke="black" stroke-width="0.75" stroke-linejoin="round"/>
<path d="M57.0501 19.4082L27.4222 36.0104L16.9625 32.9162L18.2542 30.2238C18.3633 29.9999 18.5355 29.8277 18.7537 29.7128L48.1348 14.3851C48.4964 14.1899 48.9327 14.2128 49.2714 14.431L57.0501 19.4025V19.4082Z" fill="#FFD979" stroke="black" stroke-width="0.75" stroke-linejoin="round"/>
<path opacity="0.9" d="M15.1896 23.6042L14.9897 28.2959L46.2484 29.6279L46.4483 24.9362L15.1896 23.6042Z" fill="white"/>
<path opacity="0.9" d="M23.1379 20.8063L23.0712 22.3721L54.3299 23.7041L54.3966 22.1383L23.1379 20.8063Z" fill="white"/>
<path d="M18.1566 30.4129L14.7179 37.2731C14.4194 37.8701 14.8729 39.0068 15.5733 39.4316L28.0536 46.8429C29.4085 47.6466 30.3557 46.5616 29.8849 44.7476L27.6116 36.0159C27.4738 35.4877 27.1179 34.9768 26.7161 34.7472L19.0292 30.2522C18.6561 30.0283 18.3116 30.0972 18.1509 30.4129H18.1566Z" fill="#C28C02" stroke="black" stroke-width="0.75" stroke-linejoin="round"/>
<path d="M28.4957 46.2801L27.3648 35.8435C27.3131 35.3727 27.5542 34.9307 27.9675 34.7126L57.1018 19.3848L59.9435 28.0935C60.374 29.4081 59.8057 30.8433 58.5944 31.5092L30.1777 47.1527C29.4659 47.5374 28.5875 47.0838 28.4957 46.2744V46.2801Z" fill="#F7CC60" stroke="black" stroke-width="0.75" stroke-linejoin="round"/>
<path d="M49.5699 6.64066L19.4368 22.3129L9.08049 18.8914L10.4525 16.2449C10.5673 16.0268 10.7453 15.8603 10.9692 15.7512L40.8096 1.34195C41.177 1.15825 41.6075 1.19269 41.9462 1.42806L49.5699 6.63492V6.64066Z" fill="#FFD979" stroke="black" stroke-width="0.75" stroke-linejoin="round"/>
<path d="M10.3549 16.4287L6.70383 23.1799C6.38809 23.7654 6.80716 24.9193 7.49031 25.3613L19.7353 33.1573C21.0614 34.0011 22.0488 32.9448 21.6355 31.1193L19.6377 22.3245C19.5172 21.7906 19.1785 21.2739 18.7823 21.0271L11.239 16.291C10.8716 16.0556 10.5272 16.1187 10.3549 16.4287Z" fill="#C28C02" stroke="black" stroke-width="0.75" stroke-linejoin="round"/>
<path d="M20.1946 32.6114L19.3909 22.146C19.3564 21.6753 19.609 21.239 20.0281 21.038L49.6216 6.62305L52.1935 15.4178C52.5838 16.744 51.9696 18.1619 50.741 18.7934L21.8479 33.5471C21.1246 33.9088 20.2577 33.4323 20.1946 32.6171V32.6114Z" fill="#F7CC60" stroke="black" stroke-width="0.75" stroke-linejoin="round"/>
<path d="M11.4835 20.967C11.4835 18.4928 9.47426 16.4835 7 16.4835C9.47426 16.4835 11.4835 14.4743 11.4835 12C11.4835 14.4743 13.4928 16.4835 15.9671 16.4835C13.4928 16.4835 11.4835 18.4928 11.4835 20.967Z" fill="white"/>
<path d="M54.4835 22.967C54.4835 20.4928 52.4743 18.4835 50 18.4835C52.4743 18.4835 54.4835 16.4743 54.4835 14C54.4835 16.4743 56.4928 18.4835 58.9671 18.4835C56.4928 18.4835 54.4835 20.4928 54.4835 22.967Z" fill="white"/>
</svg>
