<svg width="94" height="96" viewBox="0 0 94 96" fill="none" xmlns="http://www.w3.org/2000/svg">
    <g id="Group 1244832254">
        <circle id="Ellipse 4092" opacity="0.2" cx="43.5" cy="52.5" r="43.5" fill="black" />
        <g id="Layer 1">
            <path id="Vector"
                d="M72.3013 49.5349C63.2771 46.8501 23.0406 48.6255 23.0406 48.6255C22.5383 48.6515 15.7225 48.5476 15.558 49.4049C15.4454 50.0112 18.745 50.5395 18.6844 51.2063C18.5372 52.644 3.06958 52.5054 3.0003 53.3714C2.93101 54.2808 14.995 55.2421 14.995 55.2421C49.6022 58.2386 81.8104 55.424 81.7585 54.2808C81.7412 53.8737 77.6274 53.6399 77.6707 53.1722C77.7141 52.7132 81.8451 52.5574 81.8278 52.3495C81.8104 52.0637 73.7995 51.8818 73.5743 50.7646C73.557 50.6607 73.5743 50.4529 73.3925 50.1931C73.3925 50.1931 73.098 49.7687 72.3013 49.5349Z"
                fill="#48BCEE" />
            <path id="Vector_2"
                d="M44.6396 69.809C67.1198 69.809 85.3437 66.455 85.3437 62.3177C85.3437 58.1804 67.1198 54.8264 44.6396 54.8264C22.1593 54.8264 3.93542 58.1804 3.93542 62.3177C3.93542 66.455 22.1593 69.809 44.6396 69.809Z"
                fill="#FFD979" />
            <path id="Vector_3"
                d="M57.2757 59.46L83.5948 64.5003L80.2259 65.9553L55.1192 61.3306L57.2757 59.46Z"
                fill="#262127" />
            <g id="Group">
                <path id="Vector_4"
                    d="M57.3265 61.7636L55.1181 61.3306L64.0384 5.4187L66.2555 5.85172L57.3265 61.7636Z"
                    fill="#FFD979" stroke="#231F20" stroke-width="0.59" stroke-miterlimit="10" />
                <g id="Group_2">
                    <g id="Group_3">
                        <path id="Vector_5"
                            d="M66.2815 1.84187C66.2815 1.84187 45.7649 -2.50568 32.5491 11.0912C32.5491 11.0912 36.3164 10.2512 38.5421 13.4382C38.5421 13.4382 44.31 12.2691 52.0351 17.041C52.0351 17.041 64.6274 16.5993 73.9547 22.8262C73.9547 22.8262 76.9512 20.6697 86.98 24.3071C86.98 24.3071 89.4916 23.1639 93.6399 25.4329C93.6399 25.4329 87.6989 6.90823 66.2815 1.83321V1.84187Z"
                            fill="#FEF5DC" />
                        <g id="Clip path group">
                            <mask id="mask0_728_23851" style="mask-type:luminance"
                                maskUnits="userSpaceOnUse" x="32" y="1" width="62" height="25">
                                <g id="clippath">
                                    <path id="Vector_6"
                                        d="M66.2818 1.84187C66.2818 1.84187 45.7652 -2.50568 32.5493 11.0912C32.5493 11.0912 36.3166 10.2512 38.5424 13.4382C38.5424 13.4382 44.3102 12.2691 52.0353 17.041C52.0353 17.041 64.6276 16.5993 73.955 22.8262C73.955 22.8262 76.9515 20.6697 86.9803 24.3071C86.9803 24.3071 89.4918 23.1639 93.6402 25.4329C93.6402 25.4329 87.6991 6.90823 66.2818 1.83321V1.84187Z"
                                        fill="white" />
                                </g>
                            </mask>
                            <g mask="url(#mask0_728_23851)">
                                <g id="Group_4">
                                    <path id="Vector_7"
                                        d="M74.1446 24.3763C74.1446 24.3763 72.8108 8.36307 67.3461 2.10156C67.3461 2.10156 86.3385 5.75627 87.5163 27.009L74.1446 24.3763Z"
                                        fill="#F79780" stroke="#231F20" stroke-width="0.5"
                                        stroke-miterlimit="10" />
                                    <path id="Vector_8"
                                        d="M67.3376 2.10166C67.3376 2.10166 48.0248 -0.704334 38.5416 13.4295L51.567 18.2361C51.567 18.2361 52.6235 10.0953 67.3376 2.093V2.10166Z"
                                        fill="#F79780" stroke="#231F20" stroke-width="0.5"
                                        stroke-miterlimit="10" />
                                </g>
                            </g>
                        </g>
                        <path id="Vector_9"
                            d="M66.2815 1.84187C66.2815 1.84187 45.7649 -2.50568 32.5491 11.0912C32.5491 11.0912 36.3164 10.2512 38.5421 13.4382C38.5421 13.4382 44.31 12.2691 52.0351 17.041C52.0351 17.041 64.6274 16.5993 73.9547 22.8261C73.9547 22.8261 76.9512 20.6697 86.98 24.3071C86.98 24.3071 89.4916 23.1639 93.6399 25.4329C93.6399 25.4329 87.6989 6.90823 66.2815 1.83321V1.84187Z"
                            stroke="#231F20" stroke-width="0.42" stroke-miterlimit="10" />
                    </g>
                    <path id="Vector_10"
                        d="M67.1049 2.11023C67.1049 2.11023 67.3214 0.949732 67.9017 1.00169C68.4819 1.05366 67.6072 2.42201 67.6072 2.42201L67.1049 2.11023Z"
                        fill="#231F20" />
                </g>
            </g>
            <path id="Vector_11"
                d="M22.6768 32.8548C25.8575 32.8548 28.436 30.2764 28.436 27.0956C28.436 23.9149 25.8575 21.3364 22.6768 21.3364C19.4961 21.3364 16.9176 23.9149 16.9176 27.0956C16.9176 30.2764 19.4961 32.8548 22.6768 32.8548Z"
                fill="#FF9700" />
            <g id="Group_5">
                <path id="Vector_12"
                    d="M57.016 61.4605C57.016 65.4183 48.9704 68.6227 39.0542 68.6227C29.138 68.6227 22.2529 64.8814 22.2529 60.9235C22.2529 56.9657 29.138 54.2117 39.0542 54.2117C48.9704 54.2117 57.016 57.5113 57.016 61.4605Z"
                    fill="#262127" />
                <path id="Vector_13"
                    d="M50.2087 60.4559C50.3733 62.7336 45.8612 64.916 40.1366 65.3317C34.4121 65.7474 30.2897 63.8681 30.1251 61.5817C29.9606 59.2954 33.8145 57.4247 39.539 57.009C45.2636 56.5933 50.0442 58.1695 50.2087 60.4472V60.4559Z"
                    fill="#FFD979" />
                <g id="Group_6">
                    <g id="Group_7">
                        <g id="Group_8">
                            <path id="Vector_14"
                                d="M27.6493 61.0192C27.0084 60.6468 26.6187 60.1878 26.5667 59.6681C26.5321 59.3564 26.6187 59.0446 26.8092 58.7328C25.3369 56.2906 22.6349 56.6889 21.5869 56.9574C21.1106 57.8841 20.8681 58.8714 20.8941 59.8847C20.9634 62.1537 22.3924 64.1802 24.7134 65.7218C24.3843 62.8985 26.8612 61.4262 27.6493 61.0278V61.0192Z"
                                fill="#FFEDD1" stroke="#1D1D1B" stroke-width="0.5"
                                stroke-miterlimit="10" />
                            <path id="Vector_15"
                                d="M30.5076 56.3945C31.8933 55.9095 33.5474 55.5371 35.3575 55.3379C36.1716 55.2513 36.9597 55.1993 37.7131 55.1906C36.6219 52.6531 38.3107 50.8085 39.0728 50.1416C38.1461 50.0896 37.1848 50.081 36.1889 50.107C33.4262 50.1936 30.854 50.7045 28.6283 51.5273C29.2518 52.0296 30.9493 53.6751 30.499 56.4031L30.5076 56.3945Z"
                                fill="#FFEDD1" stroke="#1D1D1B" stroke-width="0.5"
                                stroke-miterlimit="10" />
                            <path id="Vector_16"
                                d="M52.0806 58.8973C51.7515 56.3165 50.4524 54.3246 48.4346 52.887C44.9357 53.3286 44.3728 56.074 44.2949 56.6456C44.6326 56.9401 44.8318 57.2778 44.8751 57.6416C44.9357 58.1872 44.6326 58.7414 44.0437 59.2611C44.7365 59.1658 46.4946 59.1311 48.2094 60.8546C49.7683 62.4135 49.3006 64.3101 49.0321 65.0376C51.1886 63.4094 52.3837 61.3136 52.0806 58.8973Z"
                                fill="#FFEDD1" stroke="#1D1D1B" stroke-width="0.5"
                                stroke-miterlimit="10" />
                            <path id="Vector_17"
                                d="M40.1719 61.1663C38.9594 61.53 37.5738 61.8158 36.0842 61.9803C34.9756 62.1016 33.9104 62.1449 32.9058 62.1276C32.057 62.907 30.1517 65.0894 31.0871 68.2245C32.8538 68.5796 34.7764 68.7442 36.777 68.6835C38.4485 68.6316 40.0766 68.441 41.6009 68.1293C42.337 63.7298 40.8561 61.8071 40.1632 61.1749L40.1719 61.1663Z"
                                fill="#FFEDD1" stroke="#1D1D1B" stroke-width="0.5"
                                stroke-miterlimit="10" />
                        </g>
                        <g id="Group_9">
                            <path id="Vector_18"
                                d="M26.8002 58.7327C27.3285 57.8667 28.6709 57.0353 30.5069 56.3944C30.9572 53.6663 29.2598 52.0209 28.6362 51.5186C25.2933 52.7483 22.7471 54.6883 21.5866 56.9487C22.6259 56.6802 25.3279 56.2818 26.8089 58.7241L26.8002 58.7327Z"
                                fill="#E34617" stroke="#1D1D1B" stroke-width="0.5"
                                stroke-miterlimit="10" />
                            <path id="Vector_19"
                                d="M37.7124 55.1819C40.7349 55.1386 43.2205 55.6928 44.303 56.6455C44.381 56.0739 44.9353 53.3199 48.4427 52.8868C46.1391 51.25 42.8914 50.3407 39.0808 50.1328C38.3187 50.7997 36.6212 52.6443 37.7211 55.1819H37.7124Z"
                                fill="#E34617" stroke="#1D1D1B" stroke-width="0.5"
                                stroke-miterlimit="10" />
                            <path id="Vector_20"
                                d="M48.2088 60.8543C46.4941 59.1396 44.736 59.1656 44.0432 59.2608C43.2291 59.9883 41.8694 60.6552 40.1719 61.1661C40.8648 61.7983 42.337 63.721 41.6096 68.1205C44.5628 67.5142 47.1609 66.4577 49.0402 65.0373C49.3001 64.3099 49.7677 62.4132 48.2175 60.8543H48.2088Z"
                                fill="#E34617" stroke="#1D1D1B" stroke-width="0.5"
                                stroke-miterlimit="10" />
                            <path id="Vector_21"
                                d="M32.9059 62.1189C30.6455 62.067 28.7576 61.6686 27.6404 61.019C26.8436 61.4174 24.3754 62.8897 24.7045 65.713C26.4106 66.8475 28.6017 67.7136 31.0872 68.2159C30.1519 65.0895 32.0572 62.907 32.9059 62.1189Z"
                                fill="#E34617" stroke="#1D1D1B" stroke-width="0.5"
                                stroke-miterlimit="10" />
                        </g>
                    </g>
                    <g id="Group_10">
                        <g id="Group_11">
                            <g id="Vector_22" style="mix-blend-mode:multiply" opacity="0.32">
                                <path
                                    d="M26.8864 60.3953C26.7045 60.1701 26.5919 59.9276 26.5659 59.6592C26.5313 59.3474 26.6179 59.0356 26.8084 58.7238C27.3367 57.8578 28.6791 57.0264 30.5151 56.3855C31.9008 55.9005 33.5549 55.5281 35.365 55.3289C36.179 55.2423 36.9671 55.1904 37.7206 55.1817C39.9896 55.1471 41.9469 55.4502 43.246 56.0131C43.246 56.0131 40.0416 53.0686 31.2772 55.2597C31.2772 55.2597 24.1237 57.4248 26.895 60.3953H26.8864Z"
                                    fill="#E34617" />
                            </g>
                            <g id="Vector_23" style="mix-blend-mode:multiply" opacity="0.52">
                                <path
                                    d="M31.087 68.2157C32.8538 68.5708 34.7764 68.7353 36.777 68.6747C38.4484 68.6228 40.0766 68.4322 41.6008 68.1205C44.554 67.5142 47.1522 66.4577 49.0315 65.0373C51.188 63.4092 52.3831 61.3133 52.08 58.8971C51.7509 56.3163 50.4518 54.3244 48.4339 52.8867C48.4339 52.8867 54.834 58.9577 47.7411 63.9288C40.5962 68.9259 31.087 68.2157 31.087 68.2157Z"
                                    fill="#CA7542" />
                            </g>
                        </g>
                        <g id="Group_12">
                            <g id="Vector_24" style="mix-blend-mode:screen">
                                <path
                                    d="M46.27 58.1782C46.27 58.1782 45.9928 62.4651 33.8509 63.2965C33.8509 63.2965 32.3959 63.5217 32.4566 64.6215C32.5172 65.7214 40.0085 65.9119 44.7371 63.2965C49.4657 60.6724 48.08 57.7971 48.08 57.7971C48.08 57.7971 46.9628 56.8098 46.2613 58.1782H46.27Z"
                                    fill="#E34617" />
                            </g>
                            <g id="Vector_25" style="mix-blend-mode:screen">
                                <path
                                    d="M25.4846 58.3255C25.4846 58.3255 25.7444 54.2551 37.2628 53.467C37.2628 53.467 38.6485 53.2505 38.5879 52.2026C38.5272 51.1547 31.417 50.9815 26.9309 53.467C22.4448 55.9612 23.7612 58.6893 23.7612 58.6893C23.7612 58.6893 24.8177 59.6246 25.4846 58.3255Z"
                                    fill="#E34617" />
                            </g>
                        </g>
                    </g>
                </g>
            </g>
            <path id="Vector_26"
                d="M34.4034 21.9426C36.2741 22.4016 38.2314 24.0125 38.1274 26.1256L37.1835 25.7532C38.725 24.2896 41.02 24.3935 42.8474 25.1383C41.2192 25.2769 39.2533 25.3115 38.0062 26.4374L36.9323 27.6152L37.0622 26.065C37.1401 24.3676 35.6332 23.0425 34.4034 21.9513V21.9426Z"
                fill="#F0F2F8" />
            <path id="Vector_27"
                d="M44.0941 30.6119C45.3758 30.3261 47.0473 30.7244 47.6275 32.0408L46.9433 32.1015C47.0819 31.6771 47.2898 31.4259 47.5323 31.1575C48.2511 30.4473 49.2297 30.0749 50.217 30.0229C49.2817 30.5859 48.0605 31.2268 47.6535 32.2747L47.3591 33.2879L46.9607 32.3353C46.493 31.2787 45.1853 30.9236 44.0941 30.6205V30.6119Z"
                fill="#F0F2F8" />
        </g>
    </g>
</svg>
