<svg width="163" height="125" viewBox="0 0 163 125" fill="none" xmlns="http://www.w3.org/2000/svg">
<path d="M158.982 26.1757C158.982 28.3909 160.78 30.1891 163 30.1891V34.2072C160.78 34.2072 158.982 36.0054 158.982 38.2207C158.982 40.436 160.78 42.2342 163 42.2342V46.2523C160.78 46.2523 158.982 48.0505 158.982 50.2658C158.982 52.4811 160.78 54.2839 163 54.2839V58.2974C160.78 58.2974 158.982 60.0956 158.982 62.3109C158.982 64.5261 160.78 66.329 163 66.329V70.3424C160.78 70.3424 158.982 72.1406 158.982 74.3606C158.982 76.5805 160.78 78.374 163 78.374V82.3922C160.78 82.3922 158.982 84.1857 158.982 86.4056C158.982 88.6255 160.78 90.4191 163 90.4191V94.4372C160.78 94.4372 158.982 96.2354 158.982 98.4507C158.982 100.666 160.78 102.464 163 102.464V110.093C154.978 110.093 148.471 116.599 148.471 124.626H14.5338C14.5338 121.178 13.3335 118.013 11.3314 115.524C8.7036 112.257 4.69012 110.148 0.180752 110.093H0V102.455C2.09479 102.321 3.75395 100.578 3.75395 98.4507C3.75395 97.0186 2.99852 95.758 1.8677 95.0536C1.32083 94.706 0.681272 94.4882 0 94.4465V90.4098C2.09479 90.2754 3.75395 88.5329 3.75395 86.4056C3.75395 84.2784 2.09479 82.5358 0 82.4014V78.3648C0.139035 78.3555 0.278067 78.3416 0.417102 78.3138C2.09016 78.0311 3.41099 76.7103 3.6937 75.0372H3.69834C3.73541 74.8147 3.75395 74.5876 3.75395 74.3606C3.75395 72.2287 2.09479 70.4861 0 70.3517V66.3197C2.09479 66.1853 3.75395 64.4427 3.75395 62.3109C3.75395 60.179 2.09479 58.441 0 58.3066V54.2746C2.09479 54.1402 3.75395 52.3977 3.75395 50.2658C3.75395 48.1339 2.09479 46.396 0 46.2616V42.2249C2.09479 42.0905 3.75395 40.3526 3.75395 38.2207C3.75395 36.0889 2.09479 34.3509 0 34.2165V30.1799C2.09479 30.0455 3.75395 28.3029 3.75395 26.1757C3.75395 24.0484 2.09479 22.3059 0 22.1714V14.5338C8.02695 14.5338 14.5338 8.02695 14.5338 0H148.471C148.471 8.02695 154.978 14.5338 163 14.5338V22.1622C160.78 22.1622 158.982 23.9604 158.982 26.1757Z" fill="#FFD97B"/>
<path fill-rule="evenodd" clip-rule="evenodd" d="M126.851 0L93.5613 33.2896L82.5961 44.2595L74.4764 52.3791L73.7998 53.0558L52.4765 74.3791L47.8049 79.0507L11.3314 115.524C8.7036 112.257 4.69012 110.148 0.180752 110.093H0V102.455C2.09479 102.321 3.75395 100.578 3.75395 98.4507C3.75395 97.0186 2.99852 95.758 1.8677 95.0536C1.32083 94.706 0.681272 94.4882 0 94.4465V90.4098C2.09479 90.2754 3.75395 88.5329 3.75395 86.4056C3.75395 84.2784 2.09479 82.5358 0 82.4014V78.3648C0.139035 78.3555 0.278067 78.3416 0.417102 78.3138C2.09016 78.0311 3.41099 76.7103 3.6937 75.0372H3.69834C3.73541 74.8147 3.75395 74.5876 3.75395 74.3606C3.75395 72.2287 2.09479 70.4861 0 70.3517V66.3197C2.09479 66.1853 3.75395 64.4427 3.75395 62.3109C3.75395 60.179 2.09479 58.441 0 58.3066V54.2746C2.09479 54.1402 3.75395 52.3977 3.75395 50.2658C3.75395 48.1339 2.09479 46.396 0 46.2616V42.2249C2.09479 42.0905 3.75395 40.3526 3.75395 38.2207C3.75395 36.0889 2.09479 34.3509 0 34.2165V30.1799C2.09479 30.0455 3.75395 28.3029 3.75395 26.1757C3.75395 24.0484 2.09479 22.3059 0 22.1714V14.5338C8.02695 14.5338 14.5338 8.02695 14.5338 0H126.851Z" fill="#FFC95D"/>
<path d="M96.912 0L1.8677 95.0536C1.32083 94.706 0.681272 94.4882 0 94.4465V90.4098C2.09479 90.2754 3.75395 88.5329 3.75395 86.4056C3.75395 84.2784 2.09479 82.5358 0 82.4014V78.7309L0.417102 78.3138C2.09016 78.0311 3.41099 76.7103 3.6937 75.0372H3.69834L78.7216 0H96.912Z" fill="#FFF6E7"/>
<path d="M110.278 0L0.180752 110.093H0V104.596L104.591 0H110.278Z" fill="#FFF6E7"/>
<path d="M26.3192 25.9068L30.7683 24.4238C30.9166 24.3728 31.0371 24.257 31.0835 24.1087L32.5665 19.6595C32.7194 19.2007 33.3636 19.2007 33.5166 19.6595L34.9996 24.1087C35.0506 24.257 35.1665 24.3775 35.3148 24.4238L39.7639 25.9068C40.2227 26.0598 40.2227 26.704 39.7639 26.8569L35.3148 28.34C35.1665 28.3909 35.046 28.5068 34.9996 28.6551L33.5166 33.1042C33.3636 33.563 32.7194 33.563 32.5665 33.1042L31.0835 28.6551C31.0325 28.5068 30.9166 28.3863 30.7683 28.34L26.3192 26.8569C25.8604 26.704 25.8604 26.0598 26.3192 25.9068Z" fill="#FFF6E7"/>
<path d="M120.506 96.1705L126.257 94.2518C126.452 94.1869 126.605 94.034 126.665 93.844L128.584 88.0926C128.778 87.504 129.617 87.504 129.812 88.0926L131.731 93.844C131.796 94.0386 131.948 94.1916 132.139 94.2518L137.89 96.1705C138.478 96.3651 138.478 97.204 137.89 97.3986L132.139 99.3173C131.944 99.3822 131.791 99.5351 131.731 99.7252L129.812 105.477C129.617 106.065 128.778 106.065 128.584 105.477L126.665 99.7252C126.6 99.5305 126.447 99.3776 126.257 99.3173L120.506 97.3986C119.917 97.204 119.917 96.3651 120.506 96.1705Z" fill="#FFF6E7"/>
<path d="M113.253 104.754L116.4 103.706C116.506 103.669 116.59 103.586 116.622 103.484L117.67 100.337C117.776 100.013 118.235 100.013 118.342 100.337L119.389 103.484C119.426 103.59 119.51 103.674 119.612 103.706L122.758 104.754C123.083 104.86 123.083 105.319 122.758 105.426L119.612 106.473C119.505 106.51 119.422 106.594 119.389 106.695L118.342 109.842C118.235 110.167 117.776 110.167 117.67 109.842L116.622 106.695C116.585 106.589 116.502 106.505 116.4 106.473L113.253 105.426C112.929 105.319 112.929 104.86 113.253 104.754Z" fill="#F8BA55"/>
<path d="M80.2671 93.0509C97.621 93.0509 111.689 78.9828 111.689 61.6289C111.689 44.2751 97.621 30.207 80.2671 30.207C62.9133 30.207 48.8452 44.2751 48.8452 61.6289C48.8452 78.9828 62.9133 93.0509 80.2671 93.0509Z" fill="#E8A124"/>
<path d="M81.4976 93.7327C98.8514 93.7327 112.919 79.6647 112.919 62.3108C112.919 44.957 98.8514 30.8889 81.4976 30.8889C64.1437 30.8889 50.0757 44.957 50.0757 62.3108C50.0757 79.6647 64.1437 93.7327 81.4976 93.7327Z" fill="white"/>
<path d="M73.7998 52.838V81.7387H78.6475V49.5428L73.7998 52.838Z" fill="#EFAF4E"/>
<path d="M87.3464 41.0293V81.7341H82.4941V44.3291L87.3464 41.0293Z" fill="#EFAF4E"/>
<path d="M149.092 22.4912V102.13C142.409 102.13 136.987 107.553 136.987 114.245H25.3602C25.3602 111.372 24.3591 108.735 22.6907 106.658C20.4986 103.933 17.1571 102.177 13.3986 102.13H13.2456V22.4912C19.9378 22.4912 25.3602 17.0688 25.3602 10.3766H136.987C136.987 17.0688 142.409 22.4912 149.092 22.4912Z" stroke="#B67A10" stroke-width="1.2854" stroke-miterlimit="10"/>
</svg>
