<svg width="122" height="122" viewBox="0 0 122 122" fill="none" xmlns="http://www.w3.org/2000/svg">
<mask id="mask0_605_1070" style="mask-type:alpha" maskUnits="userSpaceOnUse" x="0" y="0" width="122" height="122">
<circle cx="60.5346" cy="60.9999" r="60.495" fill="#CEC5FF"/>
</mask>
<g mask="url(#mask0_605_1070)">
<path d="M36.1111 65.5088L68.4252 83.5899V138.779L-5.22095 99.7922L36.1111 65.5088Z" fill="#5371EE"/>
<path d="M84.0038 65.1328L60.0254 81.3953L60.5341 135.773L121.648 97.6578L84.0038 65.1328Z" fill="#23316D"/>
<path d="M60.2449 51.4229L85.4835 65.9944C87.0016 66.8708 87.0016 68.2918 85.4835 69.1683L62.9936 82.1529C61.4755 83.0293 59.0142 83.0293 57.4962 82.1529L35.0062 69.1683C33.4882 68.2918 33.4882 66.8708 35.0062 65.9944L60.2449 51.4229Z" fill="white"/>
<path d="M60.2449 58.9385L73.6077 66.6535C75.1257 67.5299 75.1257 68.9509 73.6077 69.8274L62.9936 75.9555C61.4755 76.8319 59.0142 76.8319 57.4962 75.9555L46.8821 69.8274C45.364 68.9509 45.364 67.5299 46.8821 66.6535L60.2449 58.9385Z" fill="#232326"/>
<path d="M38.364 50.3268L59.0767 21.1864C59.9898 19.9018 61.9027 19.9178 62.7941 21.2176L82.7876 50.3689C83.5471 51.4763 83.183 52.9975 82.0045 53.641L62.025 64.5498C61.3584 64.9137 60.5538 64.9197 59.8819 64.5657L39.1551 53.646C37.9417 53.0067 37.5694 51.4447 38.364 50.3268Z" fill="#8975EE"/>
<path d="M59.0317 29.8135L51.141 41.4616M48.8866 44.8433L46.6321 47.8493" stroke="white" stroke-width="1.36025" stroke-linecap="round"/>
</g>
</svg>
