<svg width="391" height="237" viewBox="0 0 391 237" fill="none" xmlns="http://www.w3.org/2000/svg">
<mask id="mask0_859_1614" style="mask-type:alpha" maskUnits="userSpaceOnUse" x="0" y="0" width="391" height="237">
<rect width="391" height="236.899" fill="#495DB2"/>
</mask>
<g mask="url(#mask0_859_1614)">
<g opacity="0.3">
<line y1="-0.5" x2="956.334" y2="-0.5" transform="matrix(0.866025 0.5 -0.866026 0.5 -315.938 1.99609)" stroke="#414145"/>
<line y1="-0.5" x2="956.334" y2="-0.5" transform="matrix(0.866025 0.5 -0.866026 0.5 -233.017 -45.8789)" stroke="#414145"/>
<line y1="-0.5" x2="956.334" y2="-0.5" transform="matrix(0.866025 0.5 -0.866026 0.5 -145.038 -96.6733)" stroke="#414145"/>
<line y1="-0.5" x2="956.334" y2="-0.5" transform="matrix(0.866025 0.5 -0.866026 0.5 -59.082 -146.3)" stroke="#414145"/>
<line y1="-0.5" x2="439.05" y2="-0.5" transform="matrix(-0.866026 0.5 -0.866025 -0.5 119.348 -113.345)" stroke="#414145"/>
<line y1="-0.5" x2="439.05" y2="-0.5" transform="matrix(-0.866026 0.5 -0.866025 -0.5 199.814 -66.8872)" stroke="#414145"/>
<line y1="-0.5" x2="439.05" y2="-0.5" transform="matrix(-0.866026 0.5 -0.866025 -0.5 285.186 -17.5981)" stroke="#414145"/>
<line y1="-0.5" x2="439.05" y2="-0.5" transform="matrix(-0.866026 0.5 -0.866025 -0.5 368.595 30.5586)" stroke="#414145"/>
<line y1="-0.5" x2="439.05" y2="-0.5" transform="matrix(-0.866026 0.5 -0.866025 -0.5 445.136 74.7495)" stroke="#414145"/>
<line y1="-0.5" x2="439.05" y2="-0.5" transform="matrix(-0.866026 0.5 -0.866025 -0.5 532.472 125.173)" stroke="#414145"/>
<line y1="-0.5" x2="439.05" y2="-0.5" transform="matrix(-0.866026 0.5 -0.866025 -0.5 616.862 173.896)" stroke="#414145"/>
<line y1="-0.5" x2="439.05" y2="-0.5" transform="matrix(-0.866026 0.5 -0.866025 -0.5 704.408 224.44)" stroke="#414145"/>
<path opacity="0.2" d="M228.613 15.6304C230.259 16.5804 230.237 18.1591 228.509 19.1568C226.781 20.1544 224.046 20.1673 222.401 19.2173C220.755 18.2673 220.778 16.6886 222.506 15.6909C224.234 14.6933 226.968 14.6804 228.613 15.6304Z" fill="#D9D9D9" stroke="white"/>
</g>
</g>
</svg>
