<svg width="48" height="60" viewBox="0 0 48 60" fill="none" xmlns="http://www.w3.org/2000/svg">
<path opacity="0.4" d="M16.1289 54.3789L25.6435 49.6217L30.4007 47.7188L36.1095 49.6217L23.7405 57.2333L16.1289 54.3789Z" fill="#191919"/>
<path opacity="0.4" d="M1.13495 54.5723L14.1135 48.6742L18.1303 47.2685L22.6077 49.4307L7.07884 57.7469L1.13495 54.5723Z" fill="#191919"/>
<path d="M23.6725 6.06264L18.6586 4.62552C17.7651 4.36943 16.8221 4.82697 16.4702 5.68726L7.4035 27.8578C6.95592 28.9523 7.55045 30.1941 8.68369 30.5316L12.9945 31.8158L23.6725 6.06264Z" fill="#259695" stroke="black" stroke-width="1.54212"/>
<path d="M22.1141 8.50197C22.7316 7.00008 24.1755 6.16644 24.793 6.9553L33.5061 18.0861C34.1604 18.9219 33.4046 20.9294 32.1666 21.6442L14.7405 31.7052C13.5025 32.4199 12.7467 31.2851 13.401 29.6937L22.1141 8.50197Z" fill="#CEF8F5"/>
<path d="M14.7405 31.7052L14.7405 32.4762L14.7405 32.4762L14.7405 31.7052ZM13.401 29.6937L12.8341 29.6135L12.8341 29.6135L13.401 29.6937ZM33.5061 18.0861L34.073 17.3513L33.5061 18.0861ZM32.1666 21.6442L32.1666 20.8731L32.1666 20.8731L32.1666 21.6442ZM24.793 6.9553L24.2261 7.69009L24.793 6.9553ZM22.1141 8.50197L21.5472 8.42176L22.1141 8.50197ZM24.2261 7.69009L32.9392 18.8209L34.073 17.3513L25.3599 6.22051L24.2261 7.69009ZM32.1666 20.8731L14.7405 30.9341L14.7405 32.4762L32.1666 22.4152L32.1666 20.8731ZM13.9679 29.774L22.681 8.58218L21.5472 8.42176L12.8341 29.6135L13.9679 29.774ZM14.7405 30.9341C14.0264 31.3464 13.5905 30.6918 13.9679 29.774L12.8341 29.6135C11.903 31.8783 12.9785 33.4935 14.7405 32.4762L14.7405 30.9341ZM32.9392 18.8209C33.3166 19.303 32.8807 20.4608 32.1666 20.8731L32.1666 22.4152C33.9286 21.398 35.0042 18.5408 34.073 17.3513L32.9392 18.8209ZM25.3599 6.22051C24.481 5.09779 22.4261 6.28424 21.5472 8.42176L22.681 8.58218C23.0372 7.71591 23.87 7.23509 24.2261 7.69009L25.3599 6.22051Z" fill="black"/>
<path d="M29.7802 47.2207C29.6189 47.1463 29.483 47.0274 29.378 46.8688L22.0269 35.7639C21.0214 34.2449 22.3745 30.8978 24.4515 29.7666L40.1732 21.2034C40.564 20.9906 40.9376 20.9499 41.2255 21.0889L45.6863 23.8265L34.6198 49.0048L29.7802 47.2207Z" fill="#C34B29" stroke="black" stroke-width="1.14587"/>
<path d="M37.719 46.8468C36.9309 48.7319 35.1082 49.7328 34.3816 48.6793L26.0361 36.5778C25.3957 35.6493 26.2632 33.5491 27.5542 32.9023L45.0521 24.1353C46.283 23.5186 46.9773 24.6996 46.3151 26.2837L37.719 46.8468Z" fill="#EFD8D2" stroke="black" stroke-width="1.14587"/>
</svg>
