<svg width="52" height="53" viewBox="0 0 52 53" fill="none" xmlns="http://www.w3.org/2000/svg">
<rect x="1" y="1" width="50" height="51" rx="6" stroke="#414145"/>
<path d="M32.6673 35.6654H19.334C18.6709 35.6654 18.0351 35.402 17.5662 34.9331C17.0974 34.4643 16.834 33.8284 16.834 33.1654V19.832C16.834 19.169 17.0974 18.5331 17.5662 18.0643C18.0351 17.5954 18.6709 17.332 19.334 17.332H24.334C24.555 17.332 24.767 17.4198 24.9232 17.5761C25.0795 17.7324 25.1673 17.9444 25.1673 18.1654C25.1673 18.3864 25.0795 18.5983 24.9232 18.7546C24.767 18.9109 24.555 18.9987 24.334 18.9987H19.334C19.113 18.9987 18.901 19.0865 18.7447 19.2428C18.5884 19.3991 18.5007 19.611 18.5007 19.832V33.1654C18.5007 33.3864 18.5884 33.5983 18.7447 33.7546C18.901 33.9109 19.113 33.9987 19.334 33.9987H32.6673C32.8883 33.9987 33.1003 33.9109 33.2566 33.7546C33.4129 33.5983 33.5007 33.3864 33.5007 33.1654V28.1654C33.5007 27.9444 33.5884 27.7324 33.7447 27.5761C33.901 27.4198 34.113 27.332 34.334 27.332C34.555 27.332 34.767 27.4198 34.9232 27.5761C35.0795 27.7324 35.1673 27.9444 35.1673 28.1654V33.1654C35.1673 33.8284 34.9039 34.4643 34.4351 34.9331C33.9662 35.402 33.3304 35.6654 32.6673 35.6654ZM24.334 28.9987C24.2243 28.9993 24.1156 28.9783 24.0141 28.9368C23.9125 28.8954 23.8202 28.8343 23.7423 28.757C23.6642 28.6796 23.6022 28.5874 23.5599 28.4858C23.5176 28.3843 23.4958 28.2754 23.4958 28.1654C23.4958 28.0554 23.5176 27.9464 23.5599 27.8449C23.6022 27.7433 23.6642 27.6512 23.7423 27.5737L32.3257 18.9987H29.334C29.113 18.9987 28.901 18.9109 28.7447 18.7546C28.5884 18.5983 28.5007 18.3864 28.5007 18.1654C28.5007 17.9444 28.5884 17.7324 28.7447 17.5761C28.901 17.4198 29.113 17.332 29.334 17.332H34.334C34.555 17.332 34.767 17.4198 34.9232 17.5761C35.0795 17.7324 35.1673 17.9444 35.1673 18.1654V23.1654C35.1673 23.3864 35.0795 23.5983 34.9232 23.7546C34.767 23.9109 34.555 23.9987 34.334 23.9987C34.113 23.9987 33.901 23.9109 33.7447 23.7546C33.5884 23.5983 33.5007 23.3864 33.5007 23.1654V20.1737L24.9257 28.757C24.8478 28.8343 24.7554 28.8954 24.6539 28.9368C24.5524 28.9783 24.4437 28.9993 24.334 28.9987Z" fill="white"/>
</svg>
