<svg width="111" height="111" viewBox="0 0 111 111" fill="none" xmlns="http://www.w3.org/2000/svg">
    <path opacity="0.23"
        d="M6.84009 30.15V79.57C6.84009 81.51 7.88009 83.31 9.56009 84.28L52.3601 108.99C54.0401 109.96 56.1201 109.96 57.8001 108.99L100.6 84.28C102.28 83.31 103.32 81.51 103.32 79.57V30.15C103.32 28.21 102.28 26.41 100.6 25.44L57.8001 0.730002C56.1201 -0.239998 54.0401 -0.239998 52.3601 0.730002L9.56009 25.44C7.88009 26.41 6.84009 28.21 6.84009 30.15Z"
        fill="#66E2BC" />
    <path opacity="0.5"
        d="M11.76 32.67V77.05C11.76 78.8 12.69 80.41 14.2 81.28L52.63 103.47C54.14 104.34 56.01 104.34 57.52 103.47L95.95 81.28C97.46 80.41 98.39 78.79 98.39 77.05V32.67C98.39 30.92 97.46 29.31 95.95 28.44L57.52 6.25C56.01 5.38 54.14 5.38 52.63 6.25L14.2 28.44C12.69 29.31 11.76 30.93 11.76 32.67Z"
        fill="#66E2BC" />
    <path
        d="M16.5901 35.15V74.58C16.5901 76.13 17.4201 77.57 18.7601 78.34L52.9001 98.05C54.2401 98.83 55.9001 98.83 57.2401 98.05L91.3801 78.34C92.7201 77.56 93.5501 76.13 93.5501 74.58V35.15C93.5501 33.6 92.7201 32.16 91.3801 31.39L57.2501 11.68C55.9101 10.9 54.2501 10.9 52.9101 11.68L18.7601 31.39C17.4201 32.17 16.5901 33.6 16.5901 35.15Z"
        fill="#66E2BC" />
    <mask id="mask0_324_4634" style="mask-type:luminance" maskUnits="userSpaceOnUse" x="16" y="11"
        width="78" height="88">
        <path
            d="M16.5901 35.15V74.58C16.5901 76.13 17.4201 77.57 18.7601 78.34L52.9001 98.05C54.2401 98.83 55.9001 98.83 57.2401 98.05L91.3801 78.34C92.7201 77.56 93.5501 76.13 93.5501 74.58V35.15C93.5501 33.6 92.7201 32.16 91.3801 31.39L57.2501 11.68C55.9101 10.9 54.2501 10.9 52.9101 11.68L18.7601 31.39C17.4201 32.17 16.5901 33.6 16.5901 35.15Z"
            fill="white" />
    </mask>
    <g mask="url(#mask0_324_4634)">
        <path opacity="0.67" d="M101.48 39.02L5.46021 71.69V56.84L101.48 24.17V39.02Z"
            fill="white" />
        <path d="M101.48 84.56L5.46021 117.23V102.38L101.48 69.71V84.56Z" fill="#62E3C4" />
        <path opacity="0.67" d="M105.44 44.96L9.42017 77.63V73.67L105.44 41V44.96Z" fill="white" />
    </g>
    <path
        d="M23.3601 38.95V70.77C23.3601 72.26 24.1501 73.63 25.4401 74.38L53.0001 90.29C54.2901 91.03 55.8801 91.03 57.1601 90.29L84.7201 74.38C86.0101 73.64 86.8001 72.26 86.8001 70.77V38.95C86.8001 37.46 86.0101 36.09 84.7201 35.34L57.1601 19.43C55.8701 18.69 54.2801 18.69 53.0001 19.43L25.4401 35.34C24.1501 36.08 23.3601 37.46 23.3601 38.95Z"
        fill="#01656B" />
    <mask id="mask1_324_4634" style="mask-type:luminance" maskUnits="userSpaceOnUse" x="23" y="18"
        width="64" height="73">
        <path
            d="M23.3601 38.95V70.77C23.3601 72.26 24.1501 73.63 25.4401 74.38L53.0001 90.29C54.2901 91.03 55.8801 91.03 57.1601 90.29L84.7201 74.38C86.0101 73.64 86.8001 72.26 86.8001 70.77V38.95C86.8001 37.46 86.0101 36.09 84.7201 35.34L57.1601 19.43C55.8701 18.69 54.2801 18.69 53.0001 19.43L25.4401 35.34C24.1501 36.08 23.3601 37.46 23.3601 38.95Z"
            fill="white" />
    </mask>
    <g mask="url(#mask1_324_4634)">
        <path
            d="M28.3101 42.23V74.46C28.3101 75.97 29.1101 77.36 30.4201 78.11L58.3401 94.23C59.6501 94.98 61.2501 94.98 62.5601 94.23L90.4801 78.11C91.7901 77.36 92.5901 75.96 92.5901 74.46V42.23C92.5901 40.72 91.7901 39.33 90.4801 38.58L62.5601 22.46C61.2501 21.71 59.6501 21.71 58.3401 22.46L30.4201 38.58C29.1101 39.33 28.3101 40.73 28.3101 42.23Z"
            fill="#0CBC9A" />
        <mask id="mask2_324_4634" style="mask-type:luminance" maskUnits="userSpaceOnUse" x="28"
            y="21" width="65" height="74">
            <path
                d="M28.3101 42.23V74.46C28.3101 75.97 29.1101 77.36 30.4201 78.11L58.3401 94.23C59.6501 94.98 61.2501 94.98 62.5601 94.23L90.4801 78.11C91.7901 77.36 92.5901 75.96 92.5901 74.46V42.23C92.5901 40.72 91.7901 39.33 90.4801 38.58L62.5601 22.46C61.2501 21.71 59.6501 21.71 58.3401 22.46L30.4201 38.58C29.1101 39.33 28.3101 40.73 28.3101 42.23Z"
                fill="white" />
        </mask>
        <g mask="url(#mask2_324_4634)">
            <path d="M93.57 67.73H23.28V87.53H93.57V67.73Z" fill="#128282" />
            <path d="M38.1101 62.26V101.8L55.7001 104.15V66.54L38.1101 62.26Z" fill="#19D5B3" />
            <path d="M72.8002 62.47V102.01L55.2102 104.36V66.75L72.8002 62.47Z" fill="#222625" />
            <path d="M72.8701 62.26L55.4901 72.16L38.1101 62.26L55.4901 52.36L72.8701 62.26Z"
                fill="#FFE9B1" />
        </g>
        <path opacity="0.61"
            d="M86.6301 49.91C86.6301 66.86 68.9301 84.56 51.9801 84.56C46.8101 84.56 42.4001 83.85 38.1201 81.59L43.7701 97.26C43.7701 97.26 65.8401 98.42 66.8301 98.42C67.8201 98.42 90.5901 82.58 90.5901 82.58L102.47 65.75L86.6301 49.91Z"
            fill="#222625" />
    </g>
    <path
        d="M20.7099 41.99H19.8999C19.8999 37.29 16.0899 33.48 11.3899 33.48V32.67C16.0899 32.67 19.8999 28.86 19.8999 24.16H20.7099C20.7099 28.86 24.5199 32.67 29.2199 32.67V33.48C24.5199 33.48 20.7099 37.29 20.7099 41.99Z"
        fill="white" />
    <path
        d="M89.7799 89.51H89.4199C89.4199 87.42 87.7299 85.73 85.6399 85.73V85.37C87.7299 85.37 89.4199 83.68 89.4199 81.59H89.7799C89.7799 83.68 91.4699 85.37 93.5599 85.37V85.73C91.4699 85.73 89.7799 87.42 89.7799 89.51Z"
        fill="white" />
    <path
        d="M58.4299 66.12C62.9863 66.12 66.6799 64.7992 66.6799 63.17C66.6799 61.5408 62.9863 60.22 58.4299 60.22C53.8736 60.22 50.1799 61.5408 50.1799 63.17C50.1799 64.7992 53.8736 66.12 58.4299 66.12Z"
        fill="#222625" />
    <path
        d="M56.5401 64.31C63.521 64.31 69.1801 58.6509 69.1801 51.67C69.1801 44.6891 63.521 39.03 56.5401 39.03C49.5593 39.03 43.9001 44.6891 43.9001 51.67C43.9001 58.6509 49.5593 64.31 56.5401 64.31Z"
        fill="#FFD979" />
    <mask id="mask3_324_4634" style="mask-type:luminance" maskUnits="userSpaceOnUse" x="43" y="39"
        width="27" height="26">
        <path
            d="M56.5401 64.31C63.521 64.31 69.1801 58.6509 69.1801 51.67C69.1801 44.6891 63.521 39.03 56.5401 39.03C49.5593 39.03 43.9001 44.6891 43.9001 51.67C43.9001 58.6509 49.5593 64.31 56.5401 64.31Z"
            fill="white" />
    </mask>
    <g mask="url(#mask3_324_4634)">
        <path d="M77.7701 51.35H50.0701V67.63H77.7701V51.35Z" fill="#C18E48" />
    </g>
    <path
        d="M53.9701 64.31C60.951 64.31 66.6101 58.6509 66.6101 51.67C66.6101 44.6891 60.951 39.03 53.9701 39.03C46.9892 39.03 41.3301 44.6891 41.3301 51.67C41.3301 58.6509 46.9892 64.31 53.9701 64.31Z"
        fill="white" stroke="#231F20" stroke-width="0.39" stroke-miterlimit="10" />
    <path
        d="M53.9701 60.84C59.0345 60.84 63.14 56.7344 63.14 51.67C63.14 46.6055 59.0345 42.5 53.9701 42.5C48.9056 42.5 44.8 46.6055 44.8 51.67C44.8 56.7344 48.9056 60.84 53.9701 60.84Z"
        fill="#B17518" />
    <mask id="mask4_324_4634" style="mask-type:luminance" maskUnits="userSpaceOnUse" x="44" y="42"
        width="20" height="19">
        <path
            d="M53.9701 60.84C59.0345 60.84 63.14 56.7344 63.14 51.67C63.14 46.6055 59.0345 42.5 53.9701 42.5C48.9056 42.5 44.8 46.6055 44.8 51.67C44.8 56.7344 48.9056 60.84 53.9701 60.84Z"
            fill="white" />
    </mask>
    <g mask="url(#mask4_324_4634)">
        <path
            d="M55.7701 61.51C60.8346 61.51 64.9401 57.4045 64.9401 52.34C64.9401 47.2755 60.8346 43.17 55.7701 43.17C50.7056 43.17 46.6001 47.2755 46.6001 52.34C46.6001 57.4045 50.7056 61.51 55.7701 61.51Z"
            fill="#FFD979" stroke="#E9AC66" stroke-width="0.15" />
    </g>
    <path
        d="M53.9701 60.84C59.0345 60.84 63.14 56.7344 63.14 51.67C63.14 46.6055 59.0345 42.5 53.9701 42.5C48.9056 42.5 44.8 46.6055 44.8 51.67C44.8 56.7344 48.9056 60.84 53.9701 60.84Z"
        stroke="#231F20" stroke-width="0.36" stroke-miterlimit="10" />
</svg>
