<svg width="102" height="113" viewBox="0 0 102 113" fill="none" xmlns="http://www.w3.org/2000/svg">
<path d="M70.6855 58.5444L11.5808 93.5042C9.57324 94.6916 9.57512 96.5873 11.5851 97.7734L22.3704 104.138C24.4716 105.378 27.9376 105.36 29.9996 104.098L93.4605 65.2654L70.6855 58.5444Z" fill="black"/>
<path d="M92.2974 8V64.5759L31.6952 100.928V44.3752L92.2974 8Z" fill="#93B5FE" stroke="black" stroke-width="0.809872" stroke-miterlimit="10"/>
<path d="M91.6497 64.1837L72.3976 52.6372C68.4639 50.2769 63.3733 51.4802 60.8973 55.3213L32.6672 99.3325C32.4127 99.7259 32.8755 100.189 33.2688 99.9342L91.6497 64.9011C91.9273 64.7391 91.9273 64.3226 91.6497 64.1606V64.1837Z" fill="#93B5FE" stroke="black" stroke-width="0.809872" stroke-miterlimit="10"/>
<path d="M30.7706 44.5621C31.3259 44.8398 54.6028 55.937 55.2275 56.2609C55.8523 56.5849 57.3258 56.9604 58.8387 57.2888L60.2039 55.16C61.1295 53.7254 62.4253 52.6841 63.9062 52.0825L30.7474 44.5621H30.7706Z" fill="#232326"/>
<path d="M58.0251 56.9606C65.0194 60.4578 68.5166 51.3651 68.5166 51.3651L65.4775 52.1947C64.0197 52.7963 59.6501 52.7282 58.7245 54.1629L58.0251 56.9606Z" fill="#232326"/>
<path d="M91.6967 9.08715L68.5804 50.715C66.7292 54.0471 62.7261 55.5512 59.1395 54.2554L32.344 44.6062C32.0895 44.5137 32.0432 44.1434 32.2746 44.0046L91.2108 8.64752C91.5116 8.4624 91.8355 8.78634 91.6736 9.08715H91.6967Z" fill="white" stroke="black" stroke-width="1.07983" stroke-miterlimit="10"/>
</svg>
