<svg width="76" height="109" viewBox="0 0 76 109" fill="none" xmlns="http://www.w3.org/2000/svg">
<ellipse cx="41.1877" cy="95.264" rx="13.5007" ry="6.30037" fill="#0E100F"/>
<path d="M46.8023 77.3292L36.646 72.9749C35.825 72.6229 35.8423 71.4529 36.6735 71.1255L38.4352 70.4314L43.3146 68.8574C43.773 68.7095 44.2716 68.9094 44.5009 69.3329L48.0757 75.9339C48.5271 76.7675 47.6735 77.7027 46.8023 77.3292Z" fill="#A5FCE7" stroke="black"/>
<rect width="21.5166" height="36.5015" rx="2" transform="matrix(0.866025 0.5 -2.20305e-08 1 6.99805 34.4485)" fill="#62E3C4" stroke="black"/>
<path fill-rule="evenodd" clip-rule="evenodd" d="M25.3771 44.5543L70.7422 18.3628V54.7319L58.441 61.834L54.4892 64.1169L48.3801 76.4919C47.9545 77.354 47.1074 77.675 46.8844 77.0586L44.3269 69.9878L25.6177 80.7962C25.1324 81.0765 24.7417 80.8418 24.7516 80.2758L25.3771 44.5543Z" fill="white"/>
<path d="M70.7422 18.3628L70.4922 17.9298L71.2422 17.4968V18.3628H70.7422ZM25.3771 44.5543L24.8772 44.5456L24.8821 44.2628L25.1271 44.1213L25.3771 44.5543ZM70.7422 54.7319H71.2422V55.0206L70.9922 55.1649L70.7422 54.7319ZM58.441 61.834L58.1909 61.4011L58.191 61.401L58.441 61.834ZM54.4892 64.1169L54.0409 63.8956L54.108 63.7598L54.2391 63.684L54.4892 64.1169ZM48.3801 76.4919L48.8285 76.7132L48.8285 76.7132L48.3801 76.4919ZM46.8844 77.0586L46.4142 77.2286L46.4142 77.2286L46.8844 77.0586ZM44.3269 69.9878L44.0768 69.5549L44.5939 69.2561L44.7971 69.8177L44.3269 69.9878ZM25.6177 80.7962L25.8678 81.2291L25.8678 81.2291L25.6177 80.7962ZM24.7516 80.2758L24.2517 80.267L24.2517 80.267L24.7516 80.2758ZM70.9922 18.7958L25.6271 44.9874L25.1271 44.1213L70.4922 17.9298L70.9922 18.7958ZM70.2422 54.7319V18.3628H71.2422V54.7319H70.2422ZM58.191 61.401L70.4922 54.2989L70.9922 55.1649L58.691 62.267L58.191 61.401ZM54.2391 63.684L58.1909 61.4011L58.6911 62.2669L54.7394 64.5499L54.2391 63.684ZM47.9318 76.2705L54.0409 63.8956L54.9376 64.3383L48.8285 76.7132L47.9318 76.2705ZM47.3546 76.8885C47.3683 76.9264 47.3669 76.8975 47.3247 76.882C47.2971 76.8718 47.3085 76.8889 47.3791 76.8621C47.5256 76.8066 47.7601 76.6184 47.9318 76.2705L48.8285 76.7132C48.5746 77.2275 48.1727 77.6308 47.7334 77.7972C47.5112 77.8814 47.2424 77.917 46.98 77.8207C46.7029 77.7189 46.512 77.499 46.4142 77.2286L47.3546 76.8885ZM44.7971 69.8177L47.3546 76.8885L46.4142 77.2286L43.8567 70.1579L44.7971 69.8177ZM25.3676 80.3632L44.0768 69.5549L44.577 70.4207L25.8678 81.2291L25.3676 80.3632ZM25.2515 80.2846C25.25 80.3699 25.2643 80.4162 25.2721 80.4338C25.2787 80.4488 25.2773 80.4373 25.2564 80.4248C25.2353 80.4121 25.2227 80.4155 25.2354 80.4144C25.2514 80.4131 25.2959 80.4047 25.3676 80.3632L25.8678 81.2291C25.5328 81.4227 25.1096 81.5032 24.7414 81.282C24.3758 81.0623 24.2449 80.653 24.2517 80.267L25.2515 80.2846ZM25.877 44.5631L25.2515 80.2846L24.2517 80.267L24.8772 44.5456L25.877 44.5631Z" fill="black"/>
<path d="M52.7518 8.51409C52.264 8.23251 51.47 8.23888 50.996 8.52818L7.8405 34.8687C7.75205 34.9227 7.86808 35.0055 7.97804 34.9669V34.9669C8.02192 34.9515 8.07842 34.9556 8.11432 34.9768L23.6053 44.1276C24.082 44.4092 24.8651 44.4118 25.3472 44.1334L69.0307 18.9127C69.509 18.6366 69.509 18.1889 69.0307 17.9127L52.7518 8.51409Z" fill="#495DB2" stroke="black"/>
<circle r="3.37926" transform="matrix(-0.866025 0.5 2.20305e-08 1 56.3606 46.2764)" fill="#01656B"/>
<circle r="3.37926" transform="matrix(-0.866025 0.5 2.20305e-08 1 47.5813 51.2059)" fill="#01656B"/>
<circle r="3.37926" transform="matrix(-0.866025 0.5 2.20305e-08 1 37.7038 56.8855)" fill="#01656B"/>
</svg>
