<svg width="134" height="132" viewBox="0 0 134 132" fill="none" xmlns="http://www.w3.org/2000/svg">
<g clip-path="url(#clip0_1500_2525)">
<path d="M128.96 -0.000238172C128.873 2.95051 144.31 22.9 97.9121 19.0041C51.5145 15.1081 26.7452 0.274027 32.412 24.0041C36.9455 42.9881 38.2515 50.4669 41.7933 57.7866C36.1264 46.2167 18.8448 27.8801 4.57764e-05 28.0355" stroke="#121312" stroke-width="3.9693"/>
<ellipse rx="28.4323" ry="43.2542" transform="matrix(0.825521 -0.564372 -0.564372 -0.825521 57.8427 92.0196)" fill="#121312"/>
<path d="M36.2394 46.5071C42.8437 42.741 47.8606 45.984 49.5435 48.0762C43.5396 53.2386 31.218 63.2224 29.9626 61.8579C28.3934 60.1522 27.9841 51.2146 36.2394 46.5071Z" fill="black"/>
<path d="M40.2634 51.2833C46.8367 46.7894 55.5321 46.7923 64.2462 50.3703C72.9625 53.9492 81.7291 61.1146 88.4937 71.0094C95.2583 80.9041 98.753 91.6737 98.9241 101.095C99.0952 110.513 95.9417 118.617 89.3684 123.11C82.7951 127.604 74.0996 127.601 65.3856 124.023C56.6693 120.444 47.9027 113.279 41.1381 103.384C34.3735 93.4896 30.8787 82.72 30.7076 73.2991C30.5366 63.8806 33.6901 55.7771 40.2634 51.2833Z" fill="#FFD979" stroke="black" stroke-width="0.5"/>
<path d="M44.9643 58.1592C50.2894 54.5187 57.3287 54.5244 64.374 57.4173C71.4217 60.311 78.5071 66.1032 83.9735 74.0991C89.44 82.095 92.2653 90.7996 92.4037 98.417C92.542 106.032 89.9923 112.593 84.6672 116.234C79.3421 119.874 72.3028 119.868 65.2575 116.976C58.2098 114.082 51.1244 108.29 45.658 100.294C40.1915 92.2979 37.3661 83.5933 37.2278 75.9759C37.0895 68.3611 39.6392 61.7998 44.9643 58.1592Z" fill="white" stroke="#121312" stroke-width="0.5"/>
<path d="M57.904 64.854L60.7494 80.071L49.96 84.9325L62.508 89.4755L65.3535 104.692L67.832 103.318L70.2631 92.2833L82.8112 96.8263L85.3151 95.5338L73.2975 84.614L78.2071 72.2048L67.4177 77.0664L60.396 63.6928L57.904 64.854Z" fill="#121312"/>
<path d="M63.4463 78.6878L63.4824 78.8809L63.3033 78.9616L53.0757 83.57L65.0443 87.9032L65.1786 87.9519L65.2049 88.0923L67.891 102.457L72.4818 90.854L72.5711 90.6283L72.7994 90.7109L84.5324 94.9589L75.5514 83.4304L75.4636 83.3176L75.5162 83.1847L80.1991 71.3487L69.9715 75.957L69.7924 76.0378L69.6716 75.8827L60.7899 64.4817L63.4463 78.6878Z" fill="#F79780" stroke="black" stroke-width="0.5"/>
</g>
<defs>
<clipPath id="clip0_1500_2525">
<rect width="134" height="132" fill="white"/>
</clipPath>
</defs>
</svg>
