<svg width="76" height="109" viewBox="0 0 76 109" fill="none" xmlns="http://www.w3.org/2000/svg">
<g clip-path="url(#clip0_1500_2525)">
<ellipse cx="42.3765" cy="98.6191" rx="14.5" ry="6" fill="black"/>
<g clip-path="url(#clip1_1500_2525)">
<path fill-rule="evenodd" clip-rule="evenodd" d="M4.60741 75.3831C4.97647 79.5979 6.30308 83.1381 8.57719 84.7915L15.3278 88.2134C14.8032 87.7069 13.4748 86.4117 13.0594 85.7377C12.0279 84.0822 11.3531 81.912 11.129 79.2811C10.2745 69.3959 16.1851 56.7882 24.3079 51.1096C24.5954 50.9102 24.8928 50.7101 25.1816 50.5306L25.1796 50.5007L56.3514 28.7454C58.7842 27.041 61.1514 26.1628 63.2767 26.0222C63.5761 26.0024 63.8761 25.9926 64.1575 26.0041C65.2224 26.0438 66.2294 26.2678 67.1492 26.688L61.4063 23.1996L61.3751 23.1816C60.0391 22.378 58.4714 22.0107 56.7652 22.1236C54.6298 22.2649 52.2733 23.1524 49.8398 24.8467L18.6587 46.6127L18.6607 46.6426C18.3719 46.8221 18.0838 47.0115 17.797 47.2209C9.6642 52.9002 3.7636 65.5073 4.60807 75.3931L4.60741 75.3831Z" fill="#121312" stroke="black" stroke-width="0.5" stroke-miterlimit="10"/>
<path fill-rule="evenodd" clip-rule="evenodd" d="M11.1197 79.2918C11.3439 81.9227 12.0179 84.0829 13.0501 85.7484C13.4655 86.4225 13.9355 87.0127 14.4601 87.5192C17.5105 90.4542 22.2819 90.4693 27.3778 86.9051C27.6652 86.7057 27.952 86.4963 28.2382 86.2769L28.2401 86.3068L59.3827 64.5635L59.4306 64.5302C67.5634 58.8509 73.4633 46.2339 72.6195 36.3581C72.1916 31.4055 70.1472 28.0732 67.1904 26.7054L67.1592 26.6875C66.2494 26.2666 65.2424 26.0426 64.1675 26.0035C63.8761 25.9927 63.5861 26.0018 63.2868 26.0216C61.1514 26.1629 58.7949 27.0504 56.3614 28.7448L25.1803 50.5107L25.1823 50.5407C24.8935 50.7201 24.6054 50.9096 24.3186 51.119C16.1858 56.7983 10.2852 69.4053 11.1396 79.2905L11.1197 79.2918Z" fill="#F3F1EB" stroke="black" stroke-width="0.5" stroke-miterlimit="10"/>
<path fill-rule="evenodd" clip-rule="evenodd" d="M4.70782 74.4747C4.74907 78.4306 6.1896 82.9353 8.69652 84.6235L14.0998 87.3728C13.5752 86.8663 13.0521 86.0792 12.656 85.3938C11.6159 83.6086 11.1777 81.8336 10.9443 79.2133C10.392 72.8359 12.6621 65.3397 16.5106 59.2824L9.85823 56.285C6.45147 62.2028 4.62025 67.395 4.69784 74.4754L4.70782 74.4747Z" fill="#A5E4FF"/>
<path d="M61.1871 23.0636L61.3746 23.1715" stroke="black" stroke-width="0.5" stroke-miterlimit="10"/>
<path d="M23.4943 77.2198L25.4315 78.174C25.1003 78.0155 24.7958 77.8052 24.5192 77.5629C21.9015 75.2607 21.8278 69.6032 24.5133 64.144C27.1987 58.6848 31.745 55.2973 35.1578 55.9835C35.513 56.0502 35.8615 56.1674 36.1827 56.3266L34.2454 55.3724C30.7753 53.6678 25.5638 57.1494 22.5934 63.1486C22.5841 63.1592 22.5747 63.1699 22.5661 63.1905C19.5976 69.2196 20.0129 75.4959 23.4936 77.2098L23.4943 77.2198Z" fill="#C4C4C4" stroke="black" stroke-width="0.5" stroke-miterlimit="10"/>
<path d="M23.0458 76.8086C23.9535 77.3498 24.2295 77.4318 24.2295 77.4318C21.8686 75.2228 21.7344 69.5593 24.4198 64.1001L22.728 63.2199C22.728 63.2199 22.6115 63.4281 22.6022 63.4387C19.6338 69.4678 20.4344 75.2075 23.0458 76.8086Z" fill="black" stroke="black" stroke-width="0.5" stroke-miterlimit="10"/>
<path d="M26.5241 74.2434L26.5341 74.2427C26.7162 74.4211 26.9257 74.5576 27.1538 74.6728C29.516 75.8394 33.0766 73.4591 35.0902 69.3572C37.1038 65.2554 36.8319 60.994 34.4597 59.8281C34.2416 59.7122 34.0062 59.6376 33.7627 59.5936C33.631 59.5722 33.5093 59.5502 33.3783 59.5388C35.1356 61.1062 35.1889 64.9411 33.3691 68.6393C31.6371 72.1513 28.789 74.3942 26.5141 74.2441L26.5241 74.2434Z" fill="black" stroke="black" stroke-width="0.5" stroke-miterlimit="10"/>
<path d="M24.5129 64.1439C27.1984 58.6847 31.7447 55.2972 35.1574 55.9834C35.5126 56.0501 35.8611 56.1673 36.1823 56.3265C39.663 58.0404 40.0683 64.3174 37.0999 70.3465C34.1314 76.3756 28.9013 79.8785 25.4305 78.1639C25.0993 78.0054 24.7948 77.7951 24.5182 77.5528C21.9005 75.2506 21.8268 69.5931 24.5123 64.1339L24.5129 64.1439ZM26.524 74.2432L26.534 74.2425C26.7162 74.4209 26.9257 74.5574 27.1538 74.6726C29.5159 75.8392 33.0766 73.4589 35.0902 69.357C37.1038 65.2551 36.8318 60.9938 34.4597 59.8278C34.2416 59.712 34.0061 59.6374 33.7627 59.5934C33.631 59.572 33.5093 59.55 33.3782 59.5386C31.1127 59.3778 28.2552 61.6314 26.5233 65.1434C24.7035 68.8416 24.7468 72.6771 26.5147 74.2538L26.524 74.2432Z" fill="#93B5FE" stroke="black" stroke-width="0.5" stroke-miterlimit="10"/>
<path d="M50.7009 42.0104L65.0132 42.0106L51.9702 60.2865L50.7009 42.0104Z" fill="#93B5FE" stroke="black" stroke-width="0.5" stroke-miterlimit="10"/>
<path fill-rule="evenodd" clip-rule="evenodd" d="M50.7009 42.0098L48.9998 41.1403L50 59.4998L51.5 60.4998L50.7009 42.0098Z" fill="black" stroke="black" stroke-width="0.5" stroke-miterlimit="10"/>
<path d="M62.9831 40.7085L48.6963 40.7085L50.5 42.0007L65.4668 41.7915L62.9831 40.7085Z" fill="black"/>
<path d="M37.6024 38.9253C38.2211 38.8844 38.7741 38.4569 38.9527 37.8238C39.9149 34.3426 40.7639 31.4202 41.4495 29.0598C42.7809 24.492 43.5905 21.7325 43.775 19.8261C43.9261 18.3229 43.8367 16.2142 41.3181 15.2584C38.995 14.3798 36.3741 17.179 30.0038 24.8061C27.4685 27.8401 23.2906 32.8569 21.7976 33.4668C21.5749 33.2811 21.436 32.8493 21.8306 31.2397C22.4066 28.8866 23.9877 24.9135 26.3868 18.9121C27.4005 16.3596 28.562 13.4666 29.8721 10.0927C30.1719 9.32127 29.7938 8.45434 29.0223 8.15461C28.2509 7.85489 27.3839 8.23295 27.0842 9.00442C25.7734 12.3683 24.6212 15.2506 23.5975 17.8038C21.0706 24.1444 19.54 27.9738 18.9175 30.5305C18.5849 31.8654 17.8203 35.0027 20.7738 36.3206C23.2417 37.4201 26.2614 33.9832 32.3063 26.7384C34.8322 23.715 39.0009 18.7089 40.4473 18.1522C40.7678 18.3013 40.8821 18.5143 40.7792 19.5333C40.6167 21.1676 39.8004 23.9776 38.5584 28.2289C37.8727 30.5893 37.0151 33.5323 36.0442 37.0341C35.8263 37.8302 36.2921 38.6612 37.0883 38.8792C37.2519 38.9285 37.4228 38.9372 37.5825 38.9266L37.6024 38.9253Z" fill="#B17518" stroke="black" stroke-width="0.5" stroke-miterlimit="10"/>
</g>
</g>
<defs>
<clipPath id="clip0_1500_2525">
<rect width="76" height="109" fill="white"/>
</clipPath>
<clipPath id="clip1_1500_2525">
<rect width="70.95" height="81.37" fill="white" transform="matrix(-0.997819 0.066017 0.066017 0.997819 70.7954 5)"/>
</clipPath>
</defs>
</svg>
