<svg width="64" height="26" viewBox="0 0 64 26" fill="none" xmlns="http://www.w3.org/2000/svg">
<path d="M30.2698 12.4186V19.866H27.9053V1.47003H34.1731C35.6851 1.43786 37.1462 2.01157 38.2319 3.06246C39.3311 4.05169 39.9503 5.46718 39.9262 6.94433C39.9584 8.43221 39.3391 9.85842 38.2319 10.8503C37.1354 11.8959 35.7816 12.4186 34.1731 12.416L30.2698 12.4186ZM30.2698 3.73535V10.1587H34.2321C35.1114 10.1855 35.9586 9.83965 36.5698 9.20697C37.811 8.00059 37.8405 6.01408 36.6314 4.77284C36.61 4.7514 36.5912 4.72995 36.5698 4.71118C35.9666 4.0651 35.1141 3.71123 34.2321 3.73535H30.2698ZM45.3737 6.86927C47.1216 6.86927 48.4996 7.33574 49.5103 8.26868C50.521 9.20161 51.025 10.4831 51.025 12.1077V19.866H48.765V18.1181H48.6631C47.6846 19.5577 46.3817 20.2762 44.7571 20.2762C43.3711 20.2762 42.2103 19.866 41.2774 19.043C40.3712 18.279 39.8565 17.1477 39.878 15.96C39.878 14.6571 40.3712 13.6223 41.3551 12.8529C42.339 12.0835 43.6526 11.6975 45.2986 11.6975C46.7007 11.6975 47.8589 11.9548 48.765 12.4669V11.9254C48.7704 11.1157 48.4111 10.349 47.7892 9.83429C47.1645 9.27131 46.3495 8.96302 45.5078 8.97374C44.1888 8.97374 43.1432 9.53136 42.3738 10.6439L40.2935 9.33297C41.4355 7.68961 43.1298 6.86927 45.3737 6.86927ZM42.3149 16.0137C42.3122 16.6249 42.6044 17.1986 43.0977 17.5551C43.6204 17.9653 44.2692 18.1851 44.9341 18.1717C45.9313 18.1691 46.8884 17.7723 47.5935 17.0672C48.3763 16.33 48.7677 15.4668 48.7677 14.4722C48.0304 13.8851 47.0037 13.5902 45.6847 13.5902C44.7249 13.5902 43.9234 13.8207 43.2826 14.2845C42.6366 14.7563 42.3149 15.3274 42.3149 16.0137ZM64.0003 7.27944L56.1105 25.4154H53.671L56.5984 19.0698L51.4083 7.27944H53.9766L57.7271 16.322H57.778L61.4267 7.27944H64.0003Z" fill="#5F6368"/>
<path d="M20.7181 10.8102C20.7181 10.0891 20.6591 9.37058 20.5358 8.66016H10.5684V12.7297H16.2759C16.04 14.0433 15.2786 15.2041 14.1661 15.9414V18.5847H17.5734C19.568 16.7483 20.7181 14.0272 20.7181 10.8102Z" fill="#4285F4"/>
<path d="M10.5679 21.1393C13.4204 21.1393 15.8224 20.2037 17.573 18.5872L14.1656 15.9438C13.2166 16.5872 11.9968 16.9545 10.5679 16.9545C7.81202 16.9545 5.47164 15.0967 4.63521 12.5928H1.12598V15.3165C2.91947 18.8874 6.57347 21.1393 10.5679 21.1393Z" fill="#34A853"/>
<path d="M4.63519 12.5924C4.19285 11.2815 4.19285 9.85793 4.63519 8.54699V5.82324H1.12596C-0.375319 8.80971 -0.375319 12.3297 1.12596 15.3161L4.63519 12.5924Z" fill="#FBBC04"/>
<path d="M10.5679 4.18545C12.0746 4.16133 13.5303 4.72967 14.6214 5.76984L17.64 2.75388C15.7259 0.957707 13.1925 -0.0288468 10.5679 0.000642552C6.57347 0.000642552 2.91947 2.25524 1.12598 5.82345L4.63521 8.5472C5.47164 6.04328 7.81202 4.18545 10.5679 4.18545Z" fill="#EA4335"/>
</svg>
