<svg width="84" height="24" viewBox="0 0 84 24" fill="none" xmlns="http://www.w3.org/2000/svg">
<g clip-path="url(#clip0_2500_4380)">
<path d="M76.3072 7.07788C75.6094 5.09034 73.7153 3.66355 71.4972 3.66355H71.4473C70.0018 3.66355 68.6996 4.26791 67.7713 5.23364C66.8429 4.26791 65.5407 3.66355 64.0952 3.66355H64.0516C62.7806 3.66355 61.6154 4.13084 60.7245 4.8972V4.5109C60.6933 4.11838 60.3755 3.81308 59.9768 3.81308H56.5624C56.145 3.81308 55.8085 4.14953 55.8085 4.56698V23.0966C55.8085 23.514 56.145 23.8505 56.5624 23.8505H59.9768C60.3569 23.8505 60.6746 23.5639 60.7182 23.2025V9.90031C60.7182 9.85047 60.7182 9.81308 60.7245 9.76947C60.7805 9.17757 61.2167 8.68536 61.902 8.62928H62.5313C62.8179 8.65421 63.0609 8.75389 63.2479 8.90966C63.5469 9.14642 63.7089 9.50779 63.7089 9.90654L63.7214 23.1402C63.7214 23.5576 64.0578 23.9003 64.4753 23.9003H67.8896C68.2946 23.9003 68.6186 23.5826 68.6373 23.1838V9.89408C68.6373 9.45794 68.8367 9.05919 69.1918 8.82866C69.3663 8.71651 69.5781 8.64174 69.8211 8.61682H70.4504C71.1919 8.67913 71.6342 9.23988 71.6342 9.89408L71.6467 23.1153C71.6467 23.5327 71.9832 23.8692 72.4006 23.8692H75.815C76.2137 23.8692 76.544 23.5576 76.5689 23.1651V8.66667C76.5502 7.85047 76.4443 7.4704 76.3072 7.07788ZM53.2041 3.86293H51.254V0.697819C51.254 0.691589 51.254 0.691589 51.254 0.685358C51.254 0.311526 50.9487 0 50.5624 0C50.5187 0 50.4751 0.00623053 50.4315 0.0124611C48.2695 0.604361 48.6994 3.60125 44.7492 3.8567H44.3691C44.3131 3.8567 44.257 3.86293 44.2009 3.87539C43.8707 3.95639 43.6152 4.25545 43.6152 4.61682V8.03115C43.6152 8.4486 43.9517 8.78505 44.3691 8.78505H46.4252L46.419 23.2523C46.419 23.6636 46.7555 24 47.1667 24H50.5437C50.9549 24 51.2913 23.6636 51.2913 23.2523V8.78505H53.2041C53.6153 8.78505 53.958 8.44237 53.958 8.03115V4.61682C53.958 4.19938 53.6216 3.86293 53.2041 3.86293Z" fill="#00BAF2"/>
<path d="M40.9298 3.86365H37.5154C37.1042 3.86365 36.7615 4.2001 36.7615 4.61755V11.6767C36.7553 12.1129 36.4001 12.4618 35.964 12.4618H34.5372C34.0948 12.4618 33.7334 12.1066 33.7334 11.6643L33.721 4.61755C33.721 4.2001 33.3845 3.86365 32.9671 3.86365H29.5527C29.1353 3.86365 28.7988 4.2001 28.7988 4.61755V12.3496C28.7988 15.2842 30.8923 17.3839 33.8331 17.3839C33.8331 17.3839 36.0388 17.3839 36.1073 17.3964C36.5061 17.44 36.8114 17.7764 36.8114 18.1876C36.8114 18.5926 36.5123 18.9291 36.1135 18.9789C36.0948 18.9789 36.0761 18.9851 36.0575 18.9914L31.0667 19.0101C30.6493 19.0101 30.3128 19.3465 30.3128 19.764V23.1721C30.3128 23.5895 30.6493 23.926 31.0667 23.926H36.6431C39.584 23.926 41.6775 21.8325 41.6775 18.8979V4.61755C41.6837 4.2001 41.3472 3.86365 40.9298 3.86365ZM21.5152 3.88234H16.78C16.3625 3.88234 16.0198 4.2001 16.0198 4.58639V5.9135C16.0198 5.91973 16.0198 5.93219 16.0198 5.93842C16.0198 5.95088 16.0198 5.95711 16.0198 5.96957V7.78889C16.0198 8.2001 16.3812 8.54278 16.8236 8.54278H21.3346C21.6897 8.59886 21.9701 8.86054 22.0137 9.26552V9.70789C21.9763 10.0942 21.6959 10.3746 21.3532 10.4057H19.1227C16.1507 10.4057 14.0385 12.3808 14.0385 15.1471V19.116C14.0385 21.8699 15.8579 23.8263 18.8049 23.8263H24.9919C26.101 23.8263 27.0044 22.9851 27.0044 21.9509V9.00384C27.0044 5.86365 25.3844 3.88234 21.5152 3.88234ZM22.0573 18.1253V18.6612C22.0573 18.7048 22.0511 18.7484 22.0448 18.7858C22.0386 18.8232 22.0261 18.8605 22.0137 18.8979C21.9078 19.197 21.6087 19.4151 21.2536 19.4151H19.833C19.3906 19.4151 19.0292 19.0786 19.0292 18.6612V18.0194C19.0292 18.0132 19.0292 18.0007 19.0292 17.9945V16.2811V15.7453V15.739C19.0292 15.3278 19.3906 14.9914 19.833 14.9914H21.2536C21.6959 14.9914 22.0573 15.3278 22.0573 15.7453V18.1253ZM8.20045 3.85742H0.742418C0.331198 3.85742 0.000976562 4.19387 0.000976562 4.59885V7.94465C0.000976562 7.95088 0.000976562 7.95711 0.000976562 7.96334C0.000976562 7.98203 0.000976562 7.99449 0.000976562 8.00695V23.1409C0.000976562 23.5521 0.306276 23.8886 0.692573 23.8948H4.16925C4.5867 23.8948 4.92315 23.5584 4.92315 23.1409L4.93561 17.9571H8.20045C10.9294 17.9571 12.836 16.063 12.836 13.3154V8.5054C12.836 5.76396 10.9294 3.85742 8.20045 3.85742ZM7.90138 10.1129V12.2188C7.90138 12.6612 7.54623 13.0225 7.10386 13.0225H4.94184V8.80446H7.10386C7.54623 8.80446 7.90138 9.1596 7.90138 9.60197V10.1129Z" fill="#20336B"/>
</g>
<defs>
<clipPath id="clip0_2500_4380">
<rect width="76.5616" height="24" fill="white"/>
</clipPath>
</defs>
</svg>
