<svg width="92" height="26" viewBox="0 0 92 26" fill="none" xmlns="http://www.w3.org/2000/svg">
<path d="M48.7246 20.8061V13.9951C48.7246 12.3187 48.0955 11.4805 46.524 11.4805C45.8955 11.4805 45.1615 11.5853 44.7427 11.6902V21.6443C44.7427 21.9589 44.4288 22.2734 44.1142 22.2734H41.7039C41.3899 22.2734 41.0754 21.9595 41.0754 21.6443V10.0138C41.0754 9.59439 41.3893 9.27983 41.7039 9.17561C43.276 8.65134 44.8476 8.33678 46.524 8.33678C50.2962 8.33678 52.392 10.3277 52.392 13.9951V21.7492C52.392 22.0631 52.078 22.3783 51.7635 22.3783H50.2962C49.3531 22.3783 48.7246 21.6443 48.7246 20.8061ZM58.1551 16.72L58.0502 17.663C58.0502 18.92 58.8884 19.6534 60.2509 19.6534C61.2988 19.6534 62.2412 19.3394 63.2898 18.8152C63.394 18.8152 63.4988 18.7103 63.6037 18.7103C63.8134 18.7103 63.9176 18.8152 64.0231 18.92C64.1279 19.0249 64.337 19.3394 64.337 19.3394C64.5467 19.6534 64.7564 20.0728 64.7564 20.3873C64.7564 20.911 64.4425 21.4352 64.0231 21.6443C62.8703 22.2734 61.5079 22.5873 60.0412 22.5873C58.3648 22.5873 57.0023 22.1686 55.9544 21.3304C54.9065 20.3873 54.278 19.1297 54.278 17.5582V13.4708C54.278 10.2223 56.3739 8.23193 59.9363 8.23193C63.394 8.23193 65.3849 10.118 65.3849 13.4708V15.9854C65.3849 16.2999 65.071 16.6145 64.7564 16.6145H58.1551V16.72ZM58.0502 14.4145H62.0322V13.3666C62.0322 12.109 61.2982 11.2708 60.0412 11.2708C58.7836 11.2708 58.0502 12.0048 58.0502 13.3666V14.4145ZM84.7702 16.72L84.6653 17.663C84.6653 18.92 85.5035 19.6534 86.8654 19.6534C87.9139 19.6534 88.8563 19.3394 89.9042 18.8152C90.0091 18.8152 90.1139 18.7103 90.2181 18.7103C90.4285 18.7103 90.5333 18.8152 90.6376 18.92C90.7424 19.0249 90.9521 19.3394 90.9521 19.3394C91.1618 19.6534 91.3715 20.0728 91.3715 20.3873C91.3715 20.911 91.057 21.4352 90.6376 21.6443C89.4854 22.2734 88.123 22.5873 86.6563 22.5873C84.9799 22.5873 83.6174 22.1686 82.5695 21.3304C81.5216 20.3873 80.8931 19.1297 80.8931 17.5582V13.4708C80.8931 10.2223 82.9889 8.23193 86.5514 8.23193C90.0091 8.23193 92 10.118 92 13.4708V15.9854C92 16.2999 91.6861 16.6145 91.3715 16.6145H84.7702V16.72ZM84.6653 14.4145H88.6472V13.3666C88.6472 12.109 87.9133 11.2708 86.6563 11.2708C85.3993 11.2708 84.6653 12.0048 84.6653 13.3666V14.4145ZM23.0526 22.3783H24.5193C24.8338 22.3783 25.1484 22.0637 25.1484 21.7492V13.9951C25.1484 10.4326 23.2623 8.33678 20.1192 8.33678C19.1755 8.33678 18.1276 8.54649 17.4991 8.7562V4.87915C17.4991 4.04096 16.7658 3.30762 15.9276 3.30762H14.4603C14.1464 3.30762 13.8318 3.62155 13.8318 3.93611V21.7492C13.8318 22.0631 14.1457 22.3783 14.4603 22.3783H16.8707C17.1846 22.3783 17.4985 22.0637 17.4985 21.7492V11.8999C18.0228 11.6902 18.7568 11.5853 19.2804 11.5853C20.8519 11.5853 21.481 12.3187 21.481 14.0999V20.911C21.5859 21.6443 22.2144 22.3783 23.0526 22.3783ZM38.8747 13.5757V17.4533C38.8747 20.7013 36.6747 22.6922 33.0067 22.6922C29.4442 22.6922 27.1393 20.7019 27.1393 17.4533V13.5763C27.1393 10.3277 29.3394 8.33678 33.0067 8.33678C36.6747 8.33678 38.8747 10.3277 38.8747 13.5763V13.5757ZM35.208 13.5757C35.208 12.3187 34.4734 11.4805 33.1116 11.4805C31.7491 11.4805 31.0164 12.2138 31.0164 13.5763V17.4533C31.0164 18.7103 31.7497 19.4436 33.1116 19.4436C34.474 19.4436 35.2074 18.7103 35.2074 17.4533L35.208 13.5757ZM11.8409 11.7957C11.8409 15.1484 9.32626 17.454 5.97285 17.454C5.13466 17.454 4.40132 17.3491 3.66797 17.0345V21.7498C3.66797 22.0637 3.35341 22.3789 3.03885 22.3789H0.629117C0.315186 22.3789 0 22.0643 0 21.7498V5.08886C0 4.66945 0.314558 4.35552 0.629117 4.25067C2.20066 3.7264 3.7722 3.41247 5.44922 3.41247C9.22141 3.41247 11.8409 5.71735 11.8409 9.27983V11.7957ZM8.06865 9.07075C8.06865 7.39436 6.9159 6.55617 5.34374 6.55617C4.40131 6.55617 3.77219 6.87073 3.77219 6.87073V13.7866C4.40131 14.1005 4.71525 14.2054 5.44859 14.2054C7.02075 14.2054 8.17351 13.2624 8.17351 11.6908V9.07138L8.06865 9.07075ZM79.5307 11.7957C79.5307 15.1484 77.0161 17.454 73.6627 17.454C72.8245 17.454 72.0911 17.3491 71.3578 17.0345V21.7498C71.3578 22.0637 71.0438 22.3789 70.7293 22.3789H68.3189C68.005 22.3789 67.6904 22.0643 67.6904 21.7498V5.08886C67.6904 4.66945 68.0044 4.35552 68.3189 4.25067C69.8905 3.7264 71.4626 3.41247 73.139 3.41247C76.9112 3.41247 79.5307 5.71735 79.5307 9.27983V11.7957ZM75.7585 9.07075C75.7585 7.39436 74.6057 6.55617 73.0342 6.55617C72.0911 6.55617 71.4626 6.87073 71.4626 6.87073V13.7866C72.0911 14.1005 72.4057 14.2054 73.139 14.2054C74.7106 14.2054 75.864 13.2624 75.864 11.6908V9.07138L75.7585 9.07075Z" fill="#5F259F"/>
</svg>
