<?xml version="1.0" standalone="no"?>
<!DOCTYPE svg PUBLIC "-//W3C//DTD SVG 20010904//EN"
 "http://www.w3.org/TR/2001/REC-SVG-20010904/DTD/svg10.dtd">
<svg version="1.0" xmlns="http://www.w3.org/2000/svg"
 width="512.000000pt" height="512.000000pt" viewBox="0 0 512.000000 512.000000"
 preserveAspectRatio="xMidYMid meet">

<g transform="translate(0.000000,512.000000) scale(0.100000,-0.100000)"
fill="#000000" stroke="none">
<path d="M2345 5110 c-285 -30 -521 -98 -780 -225 -437 -214 -806 -583 -1020
-1020 -141 -289 -212 -559 -231 -875 l-7 -124 29 19 c65 43 122 70 198 96 l81
27 8 63 c17 131 59 323 93 422 220 636 739 1111 1389 1271 156 38 266 50 455
50 189 0 299 -12 455 -50 478 -118 897 -412 1168 -819 74 -112 174 -317 221
-452 34 -99 76 -291 93 -422 l8 -63 81 -27 c76 -26 133 -53 198 -96 l29 -19
-7 124 c-28 477 -201 927 -499 1295 -78 97 -246 264 -342 341 -300 240 -661
400 -1050 465 -136 23 -441 33 -570 19z"/>
<path d="M1271 3009 c-172 -34 -318 -182 -351 -358 -14 -72 -14 -1310 0 -1382
35 -186 184 -330 374 -361 231 -38 461 126 506 361 14 72 14 1310 0 1382 -47
244 -285 406 -529 358z"/>
<path d="M3671 3009 c-172 -34 -318 -182 -351 -358 -14 -72 -14 -1310 0 -1382
26 -137 122 -263 245 -320 86 -41 188 -57 263 -41 30 6 57 11 58 9 2 -1 -11
-31 -27 -65 -56 -116 -182 -215 -307 -241 -31 -6 -160 -11 -310 -11 l-257 0
-30 57 c-87 167 -278 265 -459 235 -247 -41 -418 -270 -378 -508 33 -197 180
-344 378 -376 180 -30 372 68 459 234 l29 56 306 5 c321 4 340 7 460 57 172
73 328 229 400 400 57 135 54 88 57 993 3 554 0 858 -7 895 -45 246 -284 409
-529 361z"/>
<path d="M551 2663 c-106 -52 -205 -182 -230 -301 -15 -71 -15 -733 0 -804 29
-136 157 -287 274 -322 20 -6 20 -1 20 724 0 402 -2 730 -6 730 -3 0 -29 -12
-58 -27z"/>
<path d="M4505 1960 c0 -725 0 -730 20 -724 117 35 245 186 274 322 15 71 15
733 0 804 -29 136 -157 287 -274 322 -20 6 -20 1 -20 -724z"/>
</g>
</svg>
