<?xml version="1.0" standalone="no"?>
<!DOCTYPE svg PUBLIC "-//W3C//DTD SVG 20010904//EN"
 "http://www.w3.org/TR/2001/REC-SVG-20010904/DTD/svg10.dtd">
<svg version="1.0" xmlns="http://www.w3.org/2000/svg"
 width="512.000000pt" height="512.000000pt" viewBox="0 0 512.000000 512.000000"
 preserveAspectRatio="xMidYMid meet">

<g transform="translate(0.000000,512.000000) scale(0.100000,-0.100000)"
fill="#000000" stroke="none">
<path d="M2365 5114 c-266 -29 -428 -61 -617 -125 -759 -253 -1364 -858 -1617
-1617 -199 -594 -168 -1275 84 -1844 361 -815 1112 -1381 1995 -1505 172 -24
528 -24 700 0 820 115 1514 600 1913 1337 323 598 386 1355 167 2011 -308 919
-1115 1592 -2070 1724 -111 15 -473 28 -555 19z m478 -870 c191 -34 403 -127
552 -240 91 -70 203 -184 269 -275 180 -248 223 -565 116 -847 -73 -191 -202
-325 -460 -478 -153 -92 -214 -143 -269 -225 -39 -58 -47 -78 -71 -177 -8 -31
-20 -48 -43 -62 -30 -19 -53 -20 -377 -20 -324 0 -347 1 -377 20 -45 27 -57
78 -49 206 10 182 62 294 204 445 109 116 188 174 354 260 223 116 289 193
291 339 1 56 -4 74 -26 113 -63 106 -227 187 -381 187 -197 0 -313 -71 -510
-310 -85 -104 -119 -126 -169 -112 -36 10 -475 338 -507 380 -32 40 -21 79 57
195 85 127 246 295 360 377 288 204 679 289 1036 224z m94 -2554 c47 -31 48
-42 48 -410 0 -374 -1 -384 -53 -411 -36 -20 -707 -20 -743 -1 -53 28 -54 33
-57 377 -2 176 -1 339 3 362 6 45 42 89 78 96 12 3 175 4 362 3 279 -1 344 -4
362 -16z"/>
</g>
</svg>
