<?xml version="1.0" standalone="no"?>
<!DOCTYPE svg PUBLIC "-//W3C//DTD SVG 20010904//EN"
 "http://www.w3.org/TR/2001/REC-SVG-20010904/DTD/svg10.dtd">
<svg version="1.0" xmlns="http://www.w3.org/2000/svg"
 width="512.000000pt" height="512.000000pt" viewBox="0 0 512.000000 512.000000"
 preserveAspectRatio="xMidYMid meet">

<g transform="translate(0.000000,512.000000) scale(0.100000,-0.100000)"
fill="#000000" stroke="none">
<path d="M3890 4945 c-360 -63 -660 -307 -795 -647 -228 -575 93 -1224 690
-1396 683 -198 1373 353 1332 1062 -25 425 -311 800 -713 936 -167 57 -352 73
-514 45z m700 -606 c70 -39 98 -124 64 -192 -21 -42 -596 -621 -653 -658 -95
-61 -140 -39 -352 177 -152 155 -179 191 -179 245 0 72 77 149 149 149 51 0
89 -26 199 -134 l103 -100 247 246 c136 135 263 256 282 267 45 27 92 27 140
0z"/>
<path d="M361 3749 c-172 -34 -318 -182 -351 -358 -14 -74 -14 -2788 0 -2862
34 -180 179 -325 359 -359 74 -14 4008 -14 4082 0 180 34 325 179 359 359 6
34 10 449 10 1158 l0 1104 -29 -20 c-46 -33 -220 -117 -291 -140 -492 -160
-1020 -35 -1377 325 -193 195 -334 470 -375 732 l-12 72 -1165 -1 c-641 -1
-1186 -5 -1210 -10z m1114 -904 c225 -47 413 -235 460 -460 37 -177 -6 -359
-117 -496 l-45 -55 78 -72 c88 -82 154 -175 193 -275 44 -112 56 -199 56 -413
0 -226 -9 -258 -80 -294 -38 -19 -58 -20 -670 -20 -612 0 -632 1 -670 20 -71
36 -80 68 -80 294 0 214 12 301 56 413 39 100 105 193 193 275 l78 72 -45 55
c-191 235 -171 574 47 792 149 149 342 207 546 164z m1465 -605 c45 -23 80
-80 80 -130 0 -76 -74 -150 -150 -150 -50 0 -107 35 -130 80 -25 50 -25 90 0
140 37 73 124 99 200 60z m600 0 c45 -23 80 -80 80 -130 0 -76 -74 -150 -150
-150 -50 0 -107 35 -130 80 -25 50 -25 90 0 140 37 73 124 99 200 60z m600 0
c45 -23 80 -80 80 -130 0 -76 -74 -150 -150 -150 -50 0 -107 35 -130 80 -25
50 -25 90 0 140 37 73 124 99 200 60z m0 -600 c45 -23 80 -80 80 -130 0 -50
-35 -107 -80 -130 -38 -19 -58 -20 -670 -20 -612 0 -632 1 -670 20 -45 23 -80
80 -80 130 0 48 35 107 78 129 36 19 60 20 670 21 615 0 634 -1 672 -20z m0
-600 c45 -23 80 -80 80 -130 0 -50 -35 -107 -80 -130 -38 -19 -58 -20 -670
-20 -612 0 -632 1 -670 20 -45 23 -80 80 -80 130 0 48 35 107 78 129 36 19 60
20 670 21 615 0 634 -1 672 -20z"/>
<path d="M1255 2543 c-211 -76 -272 -336 -115 -493 61 -61 119 -85 210 -85 91
0 149 24 210 85 61 61 85 119 85 210 0 91 -24 149 -85 210 -80 80 -203 109
-305 73z"/>
<path d="M1261 1649 c-128 -25 -257 -125 -311 -241 -37 -79 -50 -146 -50 -259
l0 -89 450 0 450 0 0 89 c0 48 -5 112 -10 142 -47 244 -285 406 -529 358z"/>
</g>
</svg>
