<?xml version="1.0" standalone="no"?>
<!DOCTYPE svg PUBLIC "-//W3C//DTD SVG 20010904//EN"
 "http://www.w3.org/TR/2001/REC-SVG-20010904/DTD/svg10.dtd">
<svg version="1.0" xmlns="http://www.w3.org/2000/svg"
 width="512.000000pt" height="512.000000pt" viewBox="0 0 512.000000 512.000000"
 preserveAspectRatio="xMidYMid meet">

<g transform="translate(0.000000,512.000000) scale(0.100000,-0.100000)"
fill="#000000" stroke="none">
<path d="M3402 5103 c-18 -9 -43 -30 -55 -47 -21 -29 -22 -43 -25 -223 -3
-164 -1 -198 14 -228 52 -111 210 -111 264 0 18 36 20 62 20 215 0 153 -2 179
-20 215 -36 74 -125 104 -198 68z"/>
<path d="M2374 5066 c-137 -44 -229 -187 -209 -324 15 -110 -9 -84 1092 -1183
1149 -1148 1067 -1074 1203 -1074 164 1 292 127 294 290 2 141 80 53 -1073
1208 -844 846 -1046 1042 -1088 1063 -63 32 -159 40 -219 20z"/>
<path d="M4304 4804 c-17 -8 -108 -93 -202 -187 -182 -185 -193 -201 -178
-282 9 -46 65 -102 112 -111 75 -14 107 6 281 179 206 203 227 241 182 333
-34 71 -125 103 -195 68z"/>
<path d="M2100 4285 c0 -6 -13 -67 -29 -136 -109 -469 -330 -923 -634 -1298
l-60 -73 543 -543 544 -544 30 26 c402 329 872 569 1311 668 66 15 130 30 143
34 19 5 -93 121 -913 941 -514 514 -935 930 -935 925z"/>
<path d="M4302 3903 c-52 -25 -77 -69 -77 -133 0 -41 6 -63 22 -86 41 -57 70
-64 273 -64 169 0 185 2 221 22 41 23 79 84 79 128 0 44 -38 105 -79 128 -36
20 -52 22 -222 22 -149 0 -190 -4 -217 -17z"/>
<path d="M774 2148 c-365 -367 -403 -409 -428 -466 -58 -133 -57 -259 4 -390
28 -60 60 -96 298 -333 238 -238 274 -270 337 -300 68 -33 74 -34 191 -34 118
0 121 0 195 37 69 34 103 66 469 433 l395 395 -530 530 -530 530 -401 -402z
m682 -314 c60 -29 96 -112 75 -176 -17 -50 -275 -303 -319 -313 -69 -14 -136
16 -167 75 -19 37 -19 103 -1 138 20 38 256 269 286 281 38 15 88 13 126 -5z"/>
<path d="M2811 1583 c-57 -43 -110 -83 -119 -90 -12 -10 1 -28 87 -120 163
-173 162 -202 -12 -380 -61 -62 -114 -112 -119 -111 -4 2 -75 67 -156 145
l-149 141 -211 -211 -212 -212 350 -340 c401 -389 416 -400 539 -400 63 0 86
5 133 28 139 68 201 227 146 374 -17 46 -41 78 -121 160 l-100 103 127 129
c100 102 133 143 157 194 61 132 61 262 0 393 -23 49 -56 91 -133 170 l-103
106 -104 -79z"/>
</g>
</svg>
