<?xml version="1.0" standalone="no"?>
<!DOCTYPE svg PUBLIC "-//W3C//DTD SVG 20010904//EN"
 "http://www.w3.org/TR/2001/REC-SVG-20010904/DTD/svg10.dtd">
<svg version="1.0" xmlns="http://www.w3.org/2000/svg"
 width="512.000000pt" height="512.000000pt" viewBox="0 0 512.000000 512.000000"
 preserveAspectRatio="xMidYMid meet">

<g transform="translate(0.000000,512.000000) scale(0.100000,-0.100000)"
fill="#000000" stroke="none">
<path d="M2380 4954 c-537 -51 -997 -242 -1386 -578 -441 -379 -716 -882 -811
-1478 -24 -157 -24 -517 1 -676 74 -472 259 -879 561 -1230 382 -445 916 -731
1515 -814 123 -17 478 -16 600 1 698 96 1291 459 1679 1026 426 623 534 1397
295 2114 -302 906 -1105 1542 -2059 1631 -102 9 -313 11 -395 4z m849 -1202
c94 -47 113 -171 38 -250 -41 -42 -79 -52 -209 -52 -60 0 -108 -2 -108 -5 0
-2 13 -25 28 -49 16 -25 37 -66 46 -91 l18 -45 81 0 c94 0 134 -17 167 -72 28
-47 27 -125 -3 -169 -29 -45 -98 -79 -158 -79 l-47 0 -17 -77 c-34 -154 -87
-253 -195 -367 -141 -148 -293 -219 -500 -234 l-95 -7 314 -330 c172 -181 320
-344 327 -362 19 -45 17 -80 -7 -129 -36 -75 -121 -109 -196 -79 -32 13 -135
116 -494 495 -250 263 -459 492 -466 507 -29 67 0 154 63 194 38 24 44 24 330
29 l290 5 76 38 c116 57 212 173 234 285 l6 31 -443 3 c-399 3 -447 5 -476 20
-76 42 -105 147 -61 222 45 77 41 76 500 76 225 0 408 4 408 8 0 11 -88 94
-125 119 -82 54 -101 57 -411 63 -289 5 -291 5 -327 30 -50 34 -81 98 -74 152
6 48 30 84 77 116 l33 22 671 0 c619 0 674 -1 705 -18z"/>
</g>
</svg>
