<?xml version="1.0" standalone="no"?>
<!DOCTYPE svg PUBLIC "-//W3C//DTD SVG 20010904//EN"
 "http://www.w3.org/TR/2001/REC-SVG-20010904/DTD/svg10.dtd">
<svg version="1.0" xmlns="http://www.w3.org/2000/svg"
 width="512.000000pt" height="512.000000pt" viewBox="0 0 512.000000 512.000000"
 preserveAspectRatio="xMidYMid meet">

<g transform="translate(0.000000,512.000000) scale(0.100000,-0.100000)"
fill="#000000" stroke="none">
<path d="M841 4544 c-169 -45 -301 -180 -346 -351 -23 -86 -23 -3180 0 -3266
45 -173 178 -307 350 -352 52 -13 260 -15 1715 -15 1805 0 1705 -3 1822 56 71
36 159 123 197 193 65 122 61 17 61 1751 0 1383 -2 1583 -15 1635 -45 172
-179 305 -352 350 -85 22 -3349 21 -3432 -1z m1132 -968 c69 -28 107 -104 92
-183 -5 -31 -29 -61 -123 -155 l-116 -118 916 -2 c908 -3 917 -3 944 -24 53
-39 69 -71 69 -134 0 -63 -16 -95 -69 -134 -27 -21 -34 -21 -1144 -24 -765 -2
-1129 0 -1154 8 -45 13 -95 68 -104 115 -16 85 -12 90 269 374 144 145 276
269 292 277 39 17 87 17 128 0z m1850 -1350 c69 -28 107 -104 92 -184 -6 -32
-45 -75 -288 -319 -274 -274 -283 -282 -329 -288 -107 -16 -199 76 -183 182 6
43 17 57 133 175 l125 128 -902 0 c-986 0 -942 -3 -994 59 -66 79 -36 206 58
247 45 20 2241 20 2288 0z"/>
</g>
</svg>
