<svg width="375" height="812" viewBox="0 0 375 812" fill="none" xmlns="http://www.w3.org/2000/svg">
<g clip-path="url(#clip0_1580_109)">
<rect width="375" height="812" fill="white"/>
<g opacity="0.4">
<ellipse cx="31.6517" cy="85.3351" rx="16.1702" ry="6.54509" fill="#A3D7F0"/>
<path d="M41.2764 141.85V136.683" stroke="black" stroke-width="7.04792" stroke-linecap="round" stroke-linejoin="round"/>
<circle cx="41.2765" cy="134.616" r="6.54509" fill="#55AF74"/>
<path d="M32.8066 111.05V105.882" stroke="black" stroke-width="7.04792" stroke-linecap="round" stroke-linejoin="round"/>
<circle cx="32.8068" cy="103.816" r="6.54509" fill="#55AF74"/>
<path d="M72.1543 65.4565V62.6602" stroke="black" stroke-width="7.04792" stroke-linecap="round" stroke-linejoin="round"/>
<path d="M58.2173 119.519V114.352" stroke="black" stroke-width="7.04792" stroke-linecap="round" stroke-linejoin="round"/>
<circle cx="58.2175" cy="112.286" r="6.54509" fill="#55AF74"/>
<path d="M44.3569 124.747V120.796" stroke="black" stroke-width="7.04792" stroke-linecap="round" stroke-linejoin="round"/>
<circle cx="44.3566" cy="119.216" r="5.00507" fill="#55AF74"/>
<circle cx="72.1543" cy="61.542" r="3.54202" fill="#55AF95"/>
<circle cx="48.9768" cy="99.1955" r="1.92503" fill="#55AF95"/>
<circle opacity="0.5" cx="55.907" cy="79.945" r="1.92503" fill="#55AF95"/>
<circle cx="63.6072" cy="69.9353" r="1.92503" fill="#87D5BE"/>
<circle cx="32.8069" cy="72.2453" r="1.92503" fill="#87D5BE"/>
</g>
<path d="M55.8145 304.454C41.1305 300.447 8.16558 323.935 -6.48137 336.179C-29.9532 353.433 44.134 375.14 75.282 374.027C100.2 373.136 140.544 366.977 157.602 364.009C155.747 359.927 130.753 320.459 111.619 318.233C87.7021 315.45 74.1695 309.464 55.8145 304.454Z" fill="url(#paint0_linear_1580_109)"/>
<path opacity="0.5" d="M107.966 629.608C97.8351 612.826 63.3676 631.566 47.4003 643.033C-8.59098 699.281 70.6952 699.281 78.4036 676.626C86.1119 653.971 120.63 650.585 107.966 629.608Z" fill="#5371EE"/>
<path opacity="0.5" d="M-93.3498 208.355C-87.2188 198.721 -44.813 181.715 -53.389 177.7C-26.5661 166.205 9.50262 196.238 16.8777 213.3C49.5236 288.824 152.534 252.849 146.415 257.075C238.927 257.075 48.9762 328.238 -30.398 199.597C-38.5688 186.355 -101.013 220.398 -93.3498 208.355Z" fill="#C2D7FF"/>
<ellipse cx="99.7821" cy="613.071" rx="10.9481" ry="4.37926" fill="#A3D7F0"/>
<g opacity="0.5">
<path d="M278.784 612.956V607.337" stroke="black" stroke-width="7.04792" stroke-linecap="round" stroke-linejoin="round"/>
<circle cx="278.784" cy="605.09" r="7.1163" fill="#5DB5AA"/>
</g>
<ellipse cx="95.4027" cy="686.424" rx="10.9481" ry="4.37926" fill="#78ABE2"/>
<g opacity="0.5">
<ellipse cx="23.6695" cy="407.012" rx="14.757" ry="5.97305" fill="#A3D7F0"/>
<path d="M32.4536 458.587V453.871" stroke="black" stroke-width="4.52374" stroke-linecap="round" stroke-linejoin="round"/>
<circle cx="32.4535" cy="451.985" r="5.97305" fill="#34C3A7"/>
<path d="M24.7236 430.478V425.763" stroke="black" stroke-width="4.52374" stroke-linecap="round" stroke-linejoin="round"/>
<circle cx="24.7235" cy="423.877" r="5.97305" fill="#34C3A7"/>
<path d="M60.6323 388.87V386.318" stroke="black" stroke-width="4.52374" stroke-linecap="round" stroke-linejoin="round"/>
<path d="M47.9131 438.208V433.492" stroke="black" stroke-width="4.52374" stroke-linecap="round" stroke-linejoin="round"/>
<circle cx="47.913" cy="431.606" r="5.97305" fill="#34C3A7"/>
<path d="M35.2646 442.979V439.373" stroke="black" stroke-width="4.52374" stroke-linecap="round" stroke-linejoin="round"/>
<circle cx="35.2644" cy="437.931" r="4.56763" fill="#34C3A7"/>
<circle cx="60.6324" cy="385.298" r="3.23245" fill="#55AF95"/>
<circle cx="39.4804" cy="419.661" r="1.75678" fill="#55AF95"/>
<circle opacity="0.5" cx="45.8051" cy="402.093" r="1.75678" fill="#55AF95"/>
<circle cx="52.832" cy="392.957" r="1.75678" fill="#87D5BE"/>
<circle cx="24.7236" cy="395.066" r="1.75678" fill="#87D5BE"/>
</g>
<g opacity="0.6">
<ellipse cx="-0.940529" cy="542.456" rx="22.9911" ry="9.30593" fill="#A3D7F0"/>
<path d="M0.701172 579.016V571.669" stroke="black" stroke-width="7.04792" stroke-linecap="round" stroke-linejoin="round"/>
<circle cx="0.701434" cy="568.731" r="9.30593" fill="#55AF95"/>
<path d="M56.6465 514.192V510.216" stroke="black" stroke-width="7.04792" stroke-linecap="round" stroke-linejoin="round"/>
<path d="M36.8301 591.059V583.712" stroke="black" stroke-width="7.04792" stroke-linecap="round" stroke-linejoin="round"/>
<circle cx="36.8303" cy="580.774" r="9.30593" fill="#5DB5AA"/>
<path d="M17.124 598.493V592.875" stroke="black" stroke-width="7.04792" stroke-linecap="round" stroke-linejoin="round"/>
<circle cx="17.1241" cy="590.628" r="7.1163" fill="#55AF74"/>
<circle cx="56.6465" cy="508.626" r="5.0361" fill="#55AF95"/>
<circle cx="23.6926" cy="562.162" r="2.73704" fill="#55AF95"/>
<circle opacity="0.5" cx="33.5461" cy="534.792" r="2.73704" fill="#55AF95"/>
<circle cx="44.4944" cy="520.559" r="2.73704" fill="#87D5BE"/>
<circle cx="0.701881" cy="523.844" r="2.73704" fill="#87D5BE"/>
</g>
<g opacity="0.5">
<path d="M373.048 388.287V384.312" stroke="black" stroke-width="7.04792" stroke-linecap="round" stroke-linejoin="round"/>
<circle cx="373.048" cy="382.722" r="5.0361" fill="#55AF74"/>
<circle opacity="0.5" cx="366.37" cy="412.172" r="2.73704" fill="#55AF95"/>
</g>
<g opacity="0.4">
<path d="M64.2007 225.161V219.542" stroke="black" stroke-width="7.04792" stroke-linecap="round" stroke-linejoin="round"/>
<circle cx="64.2008" cy="217.296" r="7.1163" fill="#55AF74"/>
<path d="M42.4136 205.454V201.478" stroke="black" stroke-width="7.04792" stroke-linecap="round" stroke-linejoin="round"/>
<circle cx="42.414" cy="199.888" r="5.0361" fill="#55AF74"/>
<circle opacity="0.5" cx="35.7356" cy="229.339" r="2.73704" fill="#55AF95"/>
<circle opacity="0.5" cx="70.7698" cy="198.684" r="2.73704" fill="#55AF95"/>
<circle cx="82.8127" cy="223.864" r="2.73704" fill="#55AF95"/>
</g>
<g opacity="0.4">
<path d="M320.387 191.221V185.603" stroke="black" stroke-width="7.04792" stroke-linecap="round" stroke-linejoin="round"/>
<circle cx="320.387" cy="183.357" r="7.1163" fill="#82C5BA"/>
<path d="M298.6 171.514V167.539" stroke="black" stroke-width="7.04792" stroke-linecap="round" stroke-linejoin="round"/>
<circle cx="298.601" cy="165.949" r="5.0361" fill="#3F8D8D"/>
<circle opacity="0.5" cx="291.922" cy="195.399" r="2.73704" fill="#55AF95"/>
<circle opacity="0.5" cx="326.956" cy="164.744" r="2.73704" fill="#55AF95"/>
<circle cx="338.999" cy="189.925" r="2.73704" fill="#55AF95"/>
</g>
<g opacity="0.7">
<path opacity="0.3" d="M318.5 578.287C316.748 590.549 320.235 590.264 310.929 591.723C290.675 604.314 319.14 605.409 341.036 610.335C362.932 615.262 359.648 638.253 393.587 642.085C427.526 645.917 456.659 563.806 437.5 554.5C418.341 545.194 399.586 538.49 380.307 546.713C352 558.787 320.69 562.959 318.5 578.287Z" fill="#62E3C4"/>
<path d="M367.922 592.154V582.717" stroke="black" stroke-width="7.04792" stroke-linecap="round" stroke-linejoin="round"/>
<path d="M348.216 570.257V560.82" stroke="black" stroke-width="7.04792" stroke-linecap="round" stroke-linejoin="round"/>
<circle cx="348.216" cy="557.046" r="11.9535" fill="#1ADAB7"/>
<path d="M374.033 558.214V550.868" stroke="black" stroke-width="7.04792" stroke-linecap="round" stroke-linejoin="round"/>
<circle cx="374.033" cy="547.929" r="9.30593" fill="#1ADAB7"/>
<circle cx="325.861" cy="570.821" r="4.92667" fill="#55AF95"/>
<circle cx="20.4081" cy="636.609" r="4.92667" fill="#55AF95"/>
<circle cx="369.017" cy="575.658" r="11.9535" fill="#01656B"/>
</g>
<path d="M344.329 677.074C328.12 672.629 291.73 698.685 275.561 712.269C249.651 731.41 331.435 755.491 365.82 754.257C393.327 753.269 437.862 746.435 456.692 743.142C454.645 738.614 445.271 728.941 424.15 726.471C397.748 723.384 364.592 682.631 344.329 677.074Z" fill="url(#paint1_linear_1580_109)"/>
<path d="M386.259 438.554C404.185 433.67 444.428 462.295 462.309 477.219C490.963 498.247 400.519 524.702 362.494 523.345C332.074 522.26 282.823 514.753 262 511.135C264.263 506.161 274.63 495.534 297.988 492.82C327.185 489.429 363.852 444.659 386.259 438.554Z" fill="url(#paint2_linear_1580_109)"/>
<path opacity="0.2" d="M347.839 692.448H345.206" stroke="black" stroke-width="9.51278" stroke-linecap="round" stroke-linejoin="round"/>
<path opacity="0.2" d="M339.443 698.703H337.853" stroke="black" stroke-width="5.74357" stroke-linecap="round" stroke-linejoin="round"/>
<path d="M348.141 692.513V686.466" stroke="black" stroke-width="5.35292" stroke-linecap="round" stroke-linejoin="round"/>
<path d="M339.625 697.905V694.254" stroke="black" stroke-width="5.74357" stroke-linecap="round" stroke-linejoin="round"/>
<circle cx="348.142" cy="682.66" r="7.66016" fill="#1ADAB7"/>
<circle cx="339.625" cy="692.793" r="4.625" fill="#1ADAB7"/>
<path opacity="0.2" d="M73.6158 655.553H70.6738" stroke="black" stroke-width="15.0202" stroke-linecap="round" stroke-linejoin="round"/>
<path opacity="0.2" d="M64.2367 662.54H62.4604" stroke="black" stroke-width="9.06878" stroke-linecap="round" stroke-linejoin="round"/>
<path d="M73.9536 656.72V649.965" stroke="black" stroke-width="2.18963" stroke-linecap="round" stroke-linejoin="round"/>
<path d="M64.4399 662.743V658.665" stroke="black" stroke-width="2.18963" stroke-linecap="round" stroke-linejoin="round"/>
<circle cx="73.9538" cy="644.619" r="8.55682" fill="#55AF74"/>
<circle cx="64.4403" cy="655.938" r="5.16638" fill="#55AF74"/>
<path d="M118.188 349.982C120.195 349.07 125.304 347.793 129.684 349.982C134.063 352.172 132.238 351.26 130.778 350.53C130.596 347.793 131.107 341.881 134.61 340.129" stroke="#232326" stroke-width="2" stroke-linecap="round"/>
<path d="M114.903 378.448C116.91 377.535 122.02 376.258 126.399 378.448C130.778 380.637 128.953 379.725 127.494 378.995C127.311 376.258 127.822 370.346 131.326 368.594" stroke="#232326" stroke-width="2" stroke-linecap="round"/>
<path d="M279.609 538.97C282.5 543 280.013 550.458 280.013 550.458C280.013 550.458 287.5 550.458 290.033 555.036" stroke="#232326" stroke-width="3.28444" stroke-linecap="round" stroke-linejoin="round"/>
</g>
<defs>
<linearGradient id="paint0_linear_1580_109" x1="83.4918" y1="292.606" x2="73.4917" y2="358.606" gradientUnits="userSpaceOnUse">
<stop stop-color="#5DB5AA"/>
<stop offset="1" stop-color="#98DFCE"/>
</linearGradient>
<linearGradient id="paint1_linear_1580_109" x1="363.632" y1="676.57" x2="363.632" y2="754.302" gradientUnits="userSpaceOnUse">
<stop stop-color="#309F89"/>
<stop offset="1" stop-color="#4CCAB1" stop-opacity="0"/>
</linearGradient>
<linearGradient id="paint2_linear_1580_109" x1="357.5" y1="504" x2="357.5" y2="438" gradientUnits="userSpaceOnUse">
<stop stop-color="#98E1D0"/>
<stop offset="1" stop-color="#5DB5AA"/>
</linearGradient>
<clipPath id="clip0_1580_109">
<rect width="375" height="812" fill="white"/>
</clipPath>
</defs>
</svg>
