<svg width="45" height="68" viewBox="0 0 45 68" fill="none" xmlns="http://www.w3.org/2000/svg">
<path d="M0.625977 58.2759L11.2189 64.845L11.2189 67.8784L0.625977 61.3991L0.625977 58.2759Z" fill="white"/>
<path d="M11.2192 64.664L22.0515 58.2758L22.0515 61.4902L11.2192 67.9038L11.2192 64.664Z" fill="white"/>
<path d="M11.2661 52.405L22.0514 58.2757L11.2464 64.8156L0.62627 58.2757L11.2661 52.405Z" fill="#61B99A"/>
<path d="M4.6123 56.0073L11.0897 59.9733L11.0897 62.2619L4.6123 58.2759L4.6123 56.0073Z" fill="white"/>
<rect width="7.47942" height="2.46118" transform="matrix(0.866025 -0.5 2.20305e-08 1 11.0894 60.0225)" fill="white"/>
<path d="M11.1294 52.5663L17.5669 56.283L11.1176 60.0065L4.61097 55.996L11.1294 52.5663Z" fill="#61B99A"/>
<path d="M8.61182 3.80615L11.8616 5.68239L11.8616 56.3953C11.8616 56.883 11.5192 57.0807 11.0968 56.8368L8.61182 55.4021L8.61182 3.80615Z" fill="white" stroke="black" stroke-width="0.680685" stroke-linejoin="round"/>
<rect width="5.0286" height="51.9561" transform="matrix(0.866025 -0.5 2.20305e-08 1 11.8613 5.12793)" fill="#BEF9D8" stroke="black" stroke-width="0.680685" stroke-linejoin="round"/>
<path d="M16.2166 7.07606L44.4252 23.6333L44.4252 45.2246L40.9389 46.4621L15.4338 27.9508L11.397 8.68262L16.2166 7.07606Z" fill="#BEF9D8" stroke="black" stroke-width="0.883052"/>
<rect width="32.3701" height="20.5412" transform="matrix(0.866025 0.5 -2.20305e-08 1 11.397 8.68262)" fill="#F4F1EC" stroke="black" stroke-width="0.883052"/>
<rect width="5.99602" height="5.13531" transform="matrix(0.866025 0.5 -2.20305e-08 1 14.5127 10.4819)" fill="#3D3D3D"/>
<rect width="5.99602" height="5.13531" transform="matrix(0.866025 0.5 -2.20305e-08 1 14.5127 20.7524)" fill="#3D3D3D"/>
<rect width="7.19522" height="5.13531" transform="matrix(0.866025 0.5 -2.20305e-08 1 23.8594 15.8779)" fill="#3D3D3D"/>
<rect width="7.19522" height="5.13531" transform="matrix(0.866025 0.5 -2.20305e-08 1 23.8594 26.1484)" fill="#3D3D3D"/>
<rect width="4.79681" height="5.13531" transform="matrix(0.866025 0.5 -2.20305e-08 1 35.2837 22.4736)" fill="#3D3D3D"/>
<rect width="4.79681" height="5.13531" transform="matrix(0.866025 0.5 -2.20305e-08 1 35.2837 32.7441)" fill="#3D3D3D"/>
<rect width="4.79681" height="5.13531" transform="matrix(0.866025 0.5 -2.20305e-08 1 19.7056 18.6147)" fill="#3D3D3D"/>
<rect width="4.79681" height="5.13531" transform="matrix(0.866025 0.5 -2.20305e-08 1 19.7056 28.8853)" fill="#3D3D3D"/>
<rect width="3.59761" height="5.13531" transform="matrix(0.866025 0.5 -2.20305e-08 1 11.397 13.8179)" fill="#3D3D3D"/>
<rect width="3.59761" height="5.13531" transform="matrix(0.866025 0.5 -2.20305e-08 1 11.397 24.0884)" fill="#3D3D3D"/>
<rect width="5.99602" height="5.13531" transform="matrix(0.866025 0.5 -2.20305e-08 1 30.0908 24.6108)" fill="#3D3D3D"/>
<rect width="5.99602" height="5.13531" transform="matrix(0.866025 0.5 -2.20305e-08 1 30.0908 34.8818)" fill="#3D3D3D"/>
<rect width="3.24194" height="5.67664" transform="matrix(0.866025 0.5 -0.866025 0.5 13.4878 0.942383)" fill="white" stroke="black" stroke-width="0.680685" stroke-linejoin="round"/>
</svg>
