<svg width="57" height="67" viewBox="0 0 57 67" fill="none" xmlns="http://www.w3.org/2000/svg">
<mask id="path-1-inside-1_1544_7001" fill="white">
<path fill-rule="evenodd" clip-rule="evenodd" d="M2.47831 56.5443C1.25594 55.1708 0.522949 53.3143 0.522949 50.8603C0.522949 35.4336 13.0288 22.9277 28.4555 22.9277C43.4824 22.9277 55.7379 34.7937 56.3631 49.6669C56.94 54.1737 54.244 58.7941 48.2749 62.2403C37.3891 68.5253 19.7396 68.5253 8.85367 62.2403C5.95863 60.5688 3.83351 58.6212 2.47831 56.5443Z"/>
</mask>
<path fill-rule="evenodd" clip-rule="evenodd" d="M2.47831 56.5443C1.25594 55.1708 0.522949 53.3143 0.522949 50.8603C0.522949 35.4336 13.0288 22.9277 28.4555 22.9277C43.4824 22.9277 55.7379 34.7937 56.3631 49.6669C56.94 54.1737 54.244 58.7941 48.2749 62.2403C37.3891 68.5253 19.7396 68.5253 8.85367 62.2403C5.95863 60.5688 3.83351 58.6212 2.47831 56.5443Z" fill="white"/>
<path d="M2.47831 56.5443L3.63454 55.7898L3.57818 55.7035L3.50962 55.6264L2.47831 56.5443ZM56.3631 49.6669L54.9837 49.7249L54.9862 49.7838L54.9937 49.8422L56.3631 49.6669ZM48.2749 62.2403L47.5846 61.0447L47.5846 61.0447L48.2749 62.2403ZM8.85367 62.2403L9.54397 61.0447L9.54397 61.0447L8.85367 62.2403ZM3.50962 55.6264C2.53916 54.536 1.90355 53.0187 1.90355 50.8603H-0.857652C-0.857652 53.6099 -0.0272889 55.8056 1.44699 57.4621L3.50962 55.6264ZM1.90355 50.8603C1.90355 36.1961 13.7913 24.3083 28.4555 24.3083V21.5471C12.2663 21.5471 -0.857652 34.6711 -0.857652 50.8603H1.90355ZM28.4555 24.3083C42.7394 24.3083 54.3895 35.5879 54.9837 49.7249L57.7425 49.6089C57.0863 33.9996 44.2255 21.5471 28.4555 21.5471V24.3083ZM54.9937 49.8422C55.474 53.594 53.2778 57.7577 47.5846 61.0447L48.9652 63.4359C55.2102 59.8304 58.4061 54.7535 57.7325 49.4916L54.9937 49.8422ZM47.5846 61.0447C42.401 64.0375 35.52 65.5734 28.5643 65.5734C21.6086 65.5734 14.7277 64.0375 9.54397 61.0447L8.16337 63.4359C13.8656 66.7281 21.2523 68.3346 28.5643 68.3346C35.8763 68.3346 43.263 66.7281 48.9652 63.4359L47.5846 61.0447ZM9.54397 61.0447C6.79225 59.4559 4.84603 57.6465 3.63454 55.7898L1.32208 57.2987C2.82098 59.5959 5.12501 61.6817 8.16337 63.4359L9.54397 61.0447Z" fill="black" mask="url(#path-1-inside-1_1544_7001)"/>
<path d="M54.2548 54.417C54.2548 39.1931 42.613 29.3423 37.2398 29.3423C37.2398 29.9697 36.2961 30.125 35.4488 31.1333C34.361 32.4278 33.2656 34.5476 32.7622 34.7154C41.3593 41.8796 43.21 56.5066 42.613 63.3723C51.21 60.5066 54.2548 55.3125 54.2548 54.417Z" fill="#1ADAB7"/>
<ellipse cx="28.523" cy="31.0583" rx="7.59331" ry="4.1418" fill="#3F4748"/>
<path d="M43.7098 16.5625C43.7098 24.979 37.191 31.7491 29.2135 31.7491C21.236 31.7491 14.7172 24.979 14.7172 16.5625C14.7172 8.14589 21.236 1.37585 29.2135 1.37585C37.191 1.37585 43.7098 8.14589 43.7098 16.5625Z" fill="white" stroke="black" stroke-width="1.3806"/>
</svg>
