<svg width="45" height="77" viewBox="0 0 45 77" fill="none" xmlns="http://www.w3.org/2000/svg">
<path fill-rule="evenodd" clip-rule="evenodd" d="M18.1007 15.2261C16.3732 18.998 10.5414 28.0155 1.03424 33.9105L1.03424 51.471C1.1335 55.6084 2.77559 61.714 7.79673 63.2214C8.12854 63.321 8.94217 63.6621 9.97262 64.0942C12.5673 65.1821 16.5367 66.8464 17.6501 66.6824C18.456 66.5637 18.1484 65.7016 17.7815 64.6733C17.3323 63.4145 16.7944 61.9067 18.1007 61.2084L18.1007 15.2261ZM35.1673 31.7645C35.0184 38.1439 31.3966 52.9638 18.1008 61.2085L18.1008 15.2263C19.0056 15.4435 19.8865 15.7341 20.7535 16.0201C21.553 16.2839 22.3407 16.5438 23.1243 16.7385C26.0835 17.4741 30.136 17.2767 36.262 14.0015L44.4731 16.1911L35.1673 31.7645Z" fill="#C4C4C4"/>
<path d="M1.03424 33.9105L0.560171 34.1842C0.560171 33.8897 0.76189 33.5316 1.01672 33.3736L1.03424 33.9105ZM18.1007 15.2261L17.7158 15.1288C17.8359 14.8665 18.0502 14.6614 18.2461 14.6212C18.442 14.5809 18.5748 14.7148 18.5748 14.9524L18.1007 15.2261ZM1.03424 51.471L0.560348 51.7596C0.56023 51.7547 0.560171 51.7497 0.560171 51.7447L1.03424 51.471ZM7.79673 63.2214L7.50988 63.8228L7.50988 63.8228L7.79673 63.2214ZM9.97262 64.0942L9.66286 64.6874L9.66286 64.6874L9.97262 64.0942ZM17.6501 66.6824L17.8156 66.0739L17.8156 66.0739L17.6501 66.6824ZM17.7815 64.6733L17.3328 65.1092L17.3328 65.1092L17.7815 64.6733ZM18.1007 61.2084L18.5748 60.9346C18.5748 61.0833 18.5224 61.2559 18.4297 61.4126C18.3369 61.5693 18.2119 61.6967 18.0832 61.7655L18.1007 61.2084ZM18.1008 61.2085L18.1184 61.7454C17.9897 61.8252 17.8646 61.8423 17.7719 61.7926C17.6791 61.743 17.6268 61.6309 17.6268 61.4822L18.1008 61.2085ZM35.1673 31.7645L34.6934 32.0232C34.6968 31.8763 34.7499 31.7083 34.8409 31.5559L35.1673 31.7645ZM18.1008 15.2263L17.6268 15.5C17.6268 15.2954 17.7256 15.0507 17.883 14.8658C18.0404 14.6809 18.2301 14.5866 18.3747 14.6214L18.1008 15.2263ZM20.7535 16.0201L21.0464 15.4206L21.0464 15.4206L20.7535 16.0201ZM23.1243 16.7385L23.4001 16.1341L23.4001 16.1341L23.1243 16.7385ZM36.262 14.0015L36.2796 13.4443C36.3741 13.3938 36.4654 13.3777 36.5418 13.398L36.262 14.0015ZM44.4731 16.1911L44.7529 15.5877C44.8664 15.6179 44.9372 15.7261 44.9462 15.8829C44.9552 16.0397 44.9015 16.229 44.7995 16.3997L44.4731 16.1911ZM1.01672 33.3736C10.3714 27.5731 16.0701 18.7221 17.7158 15.1288L18.4856 15.3234C16.6763 19.2739 10.7114 28.4579 1.05176 34.4474L1.01672 33.3736ZM0.560171 51.7447L0.560171 34.1842L1.50831 33.6368L1.50831 51.1973L0.560171 51.7447ZM7.50988 63.8228C2.33811 62.2702 0.662089 56.0003 0.560348 51.7596L1.50813 51.1825C1.60491 55.2165 3.21308 61.1578 8.08357 62.6199L7.50988 63.8228ZM9.66286 64.6874C8.62351 64.2516 7.82639 63.9178 7.50988 63.8228L8.08357 62.6199C8.43069 62.7241 9.26083 63.0726 10.2824 63.501L9.66286 64.6874ZM17.4846 67.2909C17.1358 67.3423 16.6285 67.2518 16.0666 67.1038C15.4871 66.9511 14.7977 66.7217 14.0671 66.4549C12.6052 65.9212 10.9591 65.2309 9.66286 64.6874L10.2824 63.501C11.5808 64.0454 13.2167 64.7312 14.6666 65.2606C15.3918 65.5254 16.0657 65.7493 16.6247 65.8965C17.2013 66.0484 17.6077 66.1045 17.8156 66.0739L17.4846 67.2909ZM18.2301 64.2373C18.3209 64.4919 18.4126 64.7484 18.4839 64.9873C18.5536 65.2208 18.6138 65.4688 18.6285 65.7085C18.6406 65.9056 18.6377 66.3169 18.3464 66.7371C18.0552 67.157 17.7029 67.2588 17.4846 67.2909L17.8156 66.0739C18.0002 66.0467 17.9117 65.9962 17.778 66.189C17.6442 66.382 17.6925 66.4913 17.6826 66.3294C17.6753 66.2102 17.6402 66.0424 17.5742 65.8213C17.5099 65.6056 17.4255 65.3688 17.3328 65.1092L18.2301 64.2373ZM18.0832 61.7655C17.8502 61.89 17.8116 61.9856 17.8099 61.9891C17.7882 62.0336 17.7447 62.1666 17.7563 62.4302C17.7796 62.9596 17.9972 63.5846 18.2301 64.2373L17.3328 65.1092C17.1166 64.5032 16.8407 63.7449 16.8093 63.0311C16.7936 62.6731 16.8324 62.2195 17.0632 61.7456C17.314 61.2306 17.698 60.8758 18.1183 60.6512L18.0832 61.7655ZM18.5748 14.9524L18.5748 60.9346L17.6266 61.4821L17.6266 15.4998L18.5748 14.9524ZM18.0833 60.6716C24.582 56.6417 28.6795 51.0378 31.1829 45.6817C33.701 40.2941 34.6211 35.1214 34.6934 32.0232L35.6412 31.5059C35.5646 34.7869 34.5994 40.2139 31.9454 45.8923C29.2767 51.6021 24.9154 57.5306 18.1184 61.7454L18.0833 60.6716ZM18.5749 14.9526L18.5749 60.9348L17.6268 61.4822L17.6268 15.5L18.5749 14.9526ZM20.4606 16.6197C19.592 16.3331 18.7204 16.0457 17.8269 15.8312L18.3747 14.6214C19.2908 14.8412 20.181 15.1351 21.0464 15.4206L20.4606 16.6197ZM22.8485 17.343C22.0547 17.1457 21.2585 16.8829 20.4606 16.6197L21.0464 15.4206C21.8476 15.6849 22.6267 15.9418 23.4001 16.1341L22.8485 17.343ZM36.2445 14.5586C30.0194 17.8869 25.878 18.096 22.8485 17.343L23.4001 16.1341C26.289 16.8521 30.2527 16.6666 36.2796 13.4443L36.2445 14.5586ZM44.1934 16.7946L35.9823 14.6049L36.5418 13.398L44.7529 15.5877L44.1934 16.7946ZM34.8409 31.5559L44.1468 15.9826L44.7995 16.3997L35.4937 31.9731L34.8409 31.5559Z" fill="black"/>
<path d="M26.4084 17.5174L18.1973 15.6438C13.8181 23.3075 8.344 29.8764 2.86993 33.1608L9.43882 36.6766C16.4456 32.7353 23.6714 22.9914 26.4084 17.5174Z" fill="white"/>
<mask id="path-4-outside-1_1536_6336" maskUnits="userSpaceOnUse" x="8.4185" y="5.65747" width="37.2391" height="71.5" fill="black">
<rect fill="white" x="8.4185" y="5.65747" width="37.2391" height="71.5"/>
<path fill-rule="evenodd" clip-rule="evenodd" d="M26.8591 18.5108C28.5866 20.2879 34.4184 22.5714 43.9255 17.4885L43.9255 35.049C43.7766 41.4284 40.1548 56.2483 26.8591 64.493C13.5633 71.6009 9.94151 60.9631 9.79259 54.7557L9.79259 37.1952C19.2998 31.3002 25.1316 22.2827 26.8591 18.5108Z"/>
</mask>
<path fill-rule="evenodd" clip-rule="evenodd" d="M26.8591 18.5108C28.5866 20.2879 34.4184 22.5714 43.9255 17.4885L43.9255 35.049C43.7766 41.4284 40.1548 56.2483 26.8591 64.493C13.5633 71.6009 9.94151 60.9631 9.79259 54.7557L9.79259 37.1952C19.2998 31.3002 25.1316 22.2827 26.8591 18.5108Z" fill="#F4F1EC"/>
<path d="M43.9255 17.4885L43.9606 16.3742C44.4702 16.1017 44.8737 16.3522 44.8737 16.9411L43.9255 17.4885ZM26.8591 18.5108L26.0892 18.3162C26.2674 17.9272 26.5539 17.5922 26.8591 17.416C27.1642 17.2398 27.4508 17.244 27.6289 17.4272L26.8591 18.5108ZM43.9255 35.049L44.8737 34.5016C44.8737 34.5116 44.8736 34.5216 44.8733 34.5317L43.9255 35.049ZM26.8591 64.493L26.8941 65.5668C26.8708 65.5813 26.8474 65.5949 26.824 65.6073L26.8591 64.493ZM9.79259 54.7557L8.84481 55.3328C8.84457 55.323 8.84446 55.3131 8.84446 55.3031L9.79259 54.7557ZM9.79259 37.1952L8.84446 37.7426C8.84446 37.1537 9.24789 36.4373 9.75755 36.1213L9.79259 37.1952ZM43.8905 18.6028C34.0783 23.8488 27.9803 21.5398 26.0892 19.5944L27.6289 17.4272C29.1928 19.0361 34.7584 21.2941 43.9606 16.3742L43.8905 18.6028ZM42.9774 35.5964L42.9774 18.0359L44.8737 16.9411L44.8737 34.5016L42.9774 35.5964ZM26.824 63.4192C33.1736 59.4818 37.1392 54.0401 39.5599 48.861C42.01 43.6188 42.9076 38.5732 42.9778 35.5663L44.8733 34.5317C44.7946 37.9042 43.8068 43.4582 41.0848 49.2821C38.3334 55.1688 33.8403 61.2595 26.8941 65.5668L26.824 63.4192ZM26.824 65.6073C19.8778 69.3208 15.3847 68.4183 12.6333 65.7086C9.91133 63.0278 8.92354 58.6144 8.84481 55.3328L10.7404 54.1786C10.8106 57.1044 11.7081 61.1136 14.1582 63.5266C16.5789 65.9107 20.5446 66.7732 26.8941 63.3787L26.824 65.6073ZM8.84446 55.3031L8.84446 37.7426L10.7407 36.6478L10.7407 54.2083L8.84446 55.3031ZM9.75755 36.1213C18.9598 30.4154 24.5253 21.7308 26.0892 18.3162L27.6289 18.7054C25.7378 22.8345 19.6398 32.1849 9.82764 38.269L9.75755 36.1213Z" fill="black" mask="url(#path-4-outside-1_1536_6336)"/>
<path d="M24.818 34.2937L24.9926 50.3933L27.2347 49.0988L27.4226 32.7899L24.818 34.2937ZM27.5032 53.8737C27.5032 53.4086 27.3823 53.0856 27.1407 52.9047C26.8901 52.729 26.5231 52.7807 26.0398 53.0598C25.5654 53.3336 25.2029 53.7031 24.9523 54.1682C24.6927 54.6385 24.5629 55.1061 24.5629 55.5712C24.5629 56.0156 24.6927 56.3231 24.9523 56.4936C25.2029 56.6693 25.5654 56.6202 26.0398 56.3463C26.5231 56.0673 26.8901 55.6952 27.1407 55.2301C27.3823 54.7702 27.5032 54.3181 27.5032 53.8737Z" fill="#232326"/>
</svg>
