<svg width="61" height="67" viewBox="0 0 61 67" fill="none" xmlns="http://www.w3.org/2000/svg">
<path d="M59.9998 34.3674V61.8689C59.9998 62.7541 59.5962 63.5027 58.9974 63.9909L58.3074 64.401L56.4067 65.5401C56.7322 65.2992 57.0121 64.9868 57.2008 64.6158C57.3961 64.2447 57.5133 63.8086 57.5133 63.34V35.8385C57.5133 34.8751 57.0055 33.9768 56.1789 33.4821L5.15956 2.86923C4.71693 2.60235 4.25477 2.47868 3.79262 2.47217C3.43461 2.47217 3.08962 2.53075 2.76416 2.66094L4.50863 1.61295C4.70391 1.45673 4.91221 1.32655 5.14003 1.22891H5.14654C5.90812 0.896937 6.82592 0.903446 7.63957 1.39815L58.6654 32.011C59.4921 32.5057 59.9998 33.404 59.9998 34.3674Z" fill="white" stroke="black" stroke-width="0.5" stroke-miterlimit="10"/>
<path d="M57.5196 35.8387V63.3402C57.5196 63.8153 57.4025 64.2449 57.2072 64.616C57.0119 64.987 56.7385 65.2994 56.4131 65.5403C56.2699 65.6509 56.1136 65.7421 55.9509 65.8137C55.1698 66.1912 54.2064 66.2042 53.3537 65.69L2.33439 35.0836C1.50772 34.5889 1 33.6906 1 32.7273V5.22577C1 4.36655 1.37103 3.64403 1.93733 3.15584C2.11308 2.99962 2.30185 2.87594 2.50363 2.77179C2.58174 2.73274 2.66636 2.69368 2.75098 2.66764H2.75749C3.08295 2.53095 3.42794 2.46586 3.78595 2.47237C4.2481 2.47888 4.71026 2.60906 5.15289 2.86943L56.1852 33.4823C57.0119 33.977 57.5196 34.8753 57.5196 35.8387V35.8387Z" fill="white" stroke="black" stroke-width="0.5" stroke-miterlimit="10"/>
<path d="M59.8438 34.4651L59.935 61.8364C59.935 62.7216 59.5314 63.4637 58.926 63.9584L56.9733 65.1236C57.4029 64.5833 57.5786 63.9063 57.5786 63.4377L57.6763 35.806L59.8438 34.4716V34.4651Z" fill="#C4C4C4"/>
<path d="M11.5966 10.967V36.4051" stroke="#3D3D3D" stroke-width="0.5" stroke-miterlimit="10"/>
<path d="M18.6598 15.2109V40.6425" stroke="#3D3D3D" stroke-width="0.5" stroke-miterlimit="10"/>
<path d="M25.7289 19.4482V44.8798" stroke="#3D3D3D" stroke-width="0.5" stroke-miterlimit="10"/>
<path d="M32.7905 23.6858V49.1173" stroke="#3D3D3D" stroke-width="0.5" stroke-miterlimit="10"/>
<path d="M39.8538 27.9233V53.3614" stroke="#3D3D3D" stroke-width="0.5" stroke-miterlimit="10"/>
<path d="M46.9221 32.1677V57.5993" stroke="#3D3D3D" stroke-width="0.5" stroke-miterlimit="10"/>
<path d="M4.52832 15.2109L53.9854 44.88" stroke="#3D3D3D" stroke-width="0.5" stroke-miterlimit="10"/>
<path d="M4.52832 23.6858L53.9854 53.3614" stroke="#3D3D3D" stroke-width="0.5" stroke-miterlimit="10"/>
<path d="M4.52832 6.729L53.9854 36.4046V61.8361L4.52832 32.1671V6.729Z" stroke="#3D3D3D" stroke-width="0.5" stroke-miterlimit="10"/>
<path d="M4.52832 15.2105V6.729L11.5973 10.9665V19.448L4.52832 15.2105Z" fill="#3D3D3D"/>
<path d="M18.6598 32.1673V23.6858L25.7288 27.9233V36.4048L18.6598 32.1673Z" fill="#3D3D3D"/>
<path d="M32.7905 32.1673V23.6858L39.853 27.9233V36.4048L32.7905 32.1673Z" fill="#3D3D3D"/>
<path d="M32.7905 40.6427V32.1677L39.853 36.4052V44.8802L32.7905 40.6427Z" fill="#3D3D3D"/>
<path d="M46.9221 40.6427V32.1677L53.9846 36.4052V44.8802L46.9221 40.6427Z" fill="#3D3D3D"/>
<path d="M46.9221 57.599V49.1174L53.9846 53.3615V61.8365L46.9221 57.599Z" fill="#3D3D3D"/>
<path d="M11.5966 36.4049V27.9233L18.6591 32.1674V40.6424L11.5966 36.4049Z" fill="#3D3D3D"/>
<path d="M1.93916 3.15601L1.92419 3.16349" stroke="black" stroke-width="0.5" stroke-miterlimit="10"/>
</svg>
