<svg width="55" height="133" viewBox="0 0 55 133" fill="none" xmlns="http://www.w3.org/2000/svg">
<g clip-path="url(#clip0_1536_6815)">
<path d="M27.18 91.6799C26.85 91.6799 26.58 91.4099 26.58 91.0799V57.0299C26.58 56.6999 26.85 56.4299 27.18 56.4299C27.51 56.4299 27.78 56.6999 27.78 57.0299V91.0899C27.78 91.4199 27.51 91.6899 27.18 91.6899V91.6799Z" fill="black"/>
<path d="M30.58 54.63C30.58 54.79 30.56 54.95 30.51 55.11C30.31 55.85 29.6201 56.46 28.7001 56.78C28.2501 56.94 27.7301 57.03 27.1901 57.03C25.3201 57.03 23.8 55.96 23.8 54.63C23.8 53.3 25.3201 52.22 27.1901 52.22C29.0601 52.22 30.58 53.3 30.58 54.63V54.63Z" fill="#F3F1EB" stroke="black" stroke-miterlimit="10"/>
<path d="M30.04 54.85C29.84 55.59 29.34 55.99 28.42 56.31C28.42 56.31 28.48 55.64 28.11 54.76C27.74 53.88 27.51 53.65 27.51 53.65C27.51 53.65 28.3 53.44 29.18 53.92C30.06 54.4 30.04 54.86 30.04 54.86V54.85Z" fill="white"/>
<path d="M53.87 27.18C53.87 39.3 45.79 49.53 34.73 52.79C32.34 53.49 29.8 53.87 27.18 53.87C26.41 53.87 25.65 53.84 24.9 53.77C11.24 52.62 0.5 41.16 0.5 27.18C0.5 19.56 3.7 12.68 8.84 7.82C13.1 3.77 18.7 1.13 24.91 0.6C25.66 0.53 26.43 0.5 27.19 0.5C41.92 0.5 53.87 12.44 53.87 27.18V27.18Z" fill="#F3F1EB" stroke="black" stroke-miterlimit="10"/>
<path d="M14.05 79.48V103.93L40.2401 119.64V95.2L14.05 79.48Z" fill="white" stroke="black" stroke-width="0.5" stroke-miterlimit="10"/>
<path d="M14.33 103.76L22.65 98.77C24.35 97.75 26.55 98.27 27.62 99.93L39.82 118.95C39.93 119.12 39.73 119.32 39.56 119.21L14.33 104.07C14.21 104 14.21 103.82 14.33 103.75V103.76Z" fill="white" stroke="black" stroke-width="0.5" stroke-miterlimit="10"/>
<path d="M40.6401 95.28C40.4001 95.4 30.5401 100.37 30.2701 100.51C30.0001 100.65 29.0701 100.87 28.5101 100.78L27.9201 99.86C27.5201 99.24 26.9601 98.79 26.3201 98.53L40.6501 95.28H40.6401Z" fill="#C4C4C4"/>
<path d="M27.8301 100.83C26.0301 100.55 24.5701 98.8201 24.5701 98.8201L25.6401 98.5801C26.2701 98.8401 26.8401 99.2901 27.2401 99.9101L27.8301 100.83V100.83Z" fill="#C4C4C4"/>
<path d="M14.3101 79.95L24.3001 97.94C25.1001 99.38 26.8301 100.03 28.3801 99.47L39.9601 95.3C40.0701 95.26 40.0901 95.1 39.9901 95.04L14.5201 79.76C14.3901 79.68 14.2501 79.82 14.3201 79.95H14.3101Z" fill="white" stroke="black" stroke-width="0.5" stroke-miterlimit="10"/>
<path d="M22.1301 109.83C22.1301 109.83 22.0401 109.83 22.0001 109.82C21.6701 109.75 21.4701 109.42 21.5401 109.1L26.4101 87.15C26.4801 86.82 26.8101 86.62 27.1301 86.69C27.4601 86.76 27.6601 87.09 27.5901 87.41L22.7201 109.36C22.6601 109.64 22.4101 109.83 22.1301 109.83Z" fill="black"/>
<path d="M50.0099 27.18C50.0099 36.14 45.5899 44.07 38.8199 48.91C41.9399 44.55 43.7799 39.1999 43.7799 33.4199C43.7799 31.0699 43.4799 28.78 42.8999 26.61C43.4199 26.73 43.9499 26.79 44.4999 26.79C46.6199 26.79 48.5299 25.89 49.8599 24.45C49.9499 25.35 49.9999 26.26 49.9999 27.18H50.0099Z" fill="#3D3D3D"/>
<path d="M45 24.4599C47.2312 24.4599 49.04 22.6511 49.04 20.4199C49.04 18.1887 47.2312 16.3799 45 16.3799C42.7687 16.3799 40.96 18.1887 40.96 20.4199C40.96 22.6511 42.7687 24.4599 45 24.4599Z" fill="#3D3D3D"/>
<path d="M27.15 87.0001C27.15 87.0001 28.57 82.7701 31.39 81.3601C34.21 79.9501 35.38 82.2901 35.62 82.7801C35.86 83.2701 37.03 85.6001 34.2 87.0101C31.37 88.4201 27.14 87.0101 27.14 87.0101L27.15 87.0001Z" stroke="black" stroke-miterlimit="10"/>
<path d="M27.15 86.5699C27.15 86.5699 25.73 82.3399 22.91 80.9299C20.09 79.5199 18.92 81.8599 18.68 82.3499C18.44 82.8399 17.27 85.1699 20.1 86.5799C22.93 87.9899 27.16 86.5799 27.16 86.5799L27.15 86.5699Z" stroke="black" stroke-miterlimit="10"/>
</g>
<defs>
<clipPath id="clip0_1536_6815">
<rect width="54.37" height="132.3" fill="white"/>
</clipPath>
</defs>
</svg>
