<svg width="87" height="79" viewBox="0 0 87 79" fill="none" xmlns="http://www.w3.org/2000/svg">
<path d="M69.2762 73.3902C68.4177 74.0982 67.4838 74.678 66.4578 75.1362C55.7665 79.939 40.3305 68.7973 31.9947 50.257C23.6518 31.708 25.5536 12.7671 36.2449 7.96429C37.2542 7.51247 38.3054 7.20139 39.3826 7.02945C49.7848 5.32068 63.1522 16.0362 70.7088 32.8355C78.2583 49.6261 77.4271 66.7163 69.2683 73.3894L69.2762 73.3902Z" fill="#F3F1EB" stroke="black" stroke-miterlimit="10"/>
<path d="M72.4131 72.4634L66.4571 75.1442C67.483 74.6861 68.4177 74.0982 69.2754 73.3982C77.4263 66.7243 78.2655 49.6349 70.716 32.8444C63.1515 16.0442 49.7848 5.32076 39.3818 7.03747C38.2966 7.20861 37.2454 7.51969 36.2441 7.97231L42.2002 5.29147C52.8669 0.494186 68.2537 11.5667 76.6047 30.0363C76.6237 30.0864 76.6443 30.1206 76.6633 30.1707C85.0055 48.7276 83.1045 67.6606 72.4123 72.4713L72.4131 72.4634Z" fill="white" stroke="black" stroke-miterlimit="10"/>
<path d="M55.8554 49.5578C55.6445 49.7372 55.4051 49.8816 55.1522 50.0005C52.4609 51.2054 48.5846 48.4122 46.48 43.7429C44.3818 39.0903 44.8646 34.3217 47.556 33.1169C47.8081 33.0059 48.0808 32.9291 48.3503 32.8842C50.9636 32.4502 54.3281 35.1434 56.2289 39.3665C58.1218 43.5888 57.9122 47.8793 55.8634 49.5587L55.8554 49.5578Z" fill="#3D3D3D"/>
<path d="M55.8554 49.5578C55.6445 49.7372 55.4051 49.8816 55.1522 50.0005C52.4609 51.2054 48.5846 48.4122 46.48 43.7429C44.3818 39.0903 44.8646 34.3217 47.556 33.1169C47.8081 33.0059 48.0808 32.9291 48.3503 32.8842C50.9636 32.4502 54.3281 35.1434 56.2289 39.3665C58.1218 43.5888 57.9122 47.8793 55.8634 49.5587L55.8554 49.5578Z" fill="#3D3D3D"/>
<path d="M56.0384 39.5078C57.9313 43.7301 57.7217 48.0205 55.6728 49.6999C55.4619 49.8793 55.2225 50.0237 54.9696 50.1426C52.2783 51.3475 48.402 48.5543 46.2974 43.885C44.1992 39.2324 44.682 34.4638 47.3733 33.259C47.6254 33.148 47.8982 33.0712 48.1677 33.0263C50.781 32.5923 54.1455 35.2855 56.0463 39.5086L56.0384 39.5078Z" fill="#3D3D3D"/>
<path d="M65.4427 35.2011C59.9431 22.9859 50.2149 15.1842 42.6462 16.4251C41.8544 16.5537 41.0934 16.7737 40.3617 17.1011C32.5812 20.5928 31.1937 34.3749 37.2688 47.8848C43.3376 61.378 54.5764 69.4853 62.349 65.9928C63.0902 65.6503 63.7751 65.2299 64.3966 64.7227C70.3244 59.8631 70.9336 47.4234 65.4419 35.2091L65.4427 35.2011ZM60.2121 57.2816C59.7912 57.6324 59.329 57.9148 58.816 58.1439C53.5336 60.5155 45.901 55.0135 41.779 45.8444C37.6563 36.6832 38.5964 27.3201 43.8796 24.9404C44.3838 24.7185 44.8975 24.5618 45.4349 24.4877C50.5788 23.6436 57.1886 28.9377 60.9174 37.232C64.6541 45.527 64.2398 53.9799 60.2121 57.2816V57.2816Z" fill="#3D3D3D"/>
<path d="M73.8189 71.2649C71.031 72.7892 70.1889 73.0171 70.1889 73.0171C77.5534 66.5767 78.5706 49.4732 71.0204 32.6906L76.2338 30.2075C76.2528 30.2576 76.5629 30.843 76.5747 30.8844C84.9169 49.4414 81.8765 66.7013 73.8189 71.2649Z" fill="#C4C4C4"/>
<path d="M7.5193 65.0258L7.36658 65.1067C6.79476 65.3619 5.99425 64.783 5.54635 63.8143C5.11596 62.8313 5.21575 61.8458 5.77168 61.589C5.83848 61.5636 5.88778 61.5526 5.94502 61.5423C6.48486 61.4444 7.18204 62.0128 7.5903 62.8972C7.98266 63.78 7.94102 64.667 7.51849 65.0337L7.5193 65.0258Z" fill="white" stroke="black" stroke-width="0.5" stroke-miterlimit="10"/>
<path d="M52.0793 44.0368C52.0793 44.0368 52.0275 44.0717 52.0021 44.0852L7.57173 64.9907C7.75231 64.8725 8.26166 64.362 7.59183 62.8891C6.7904 61.1298 5.94655 61.5342 5.94655 61.5342L18.0372 55.8373L50.4159 40.5604C50.4159 40.5604 50.466 40.5414 50.4986 40.5367C51.0369 40.4547 51.7277 41.0064 52.1439 41.8916C52.5363 42.7744 52.4851 43.6765 52.065 44.0193L52.0793 44.0368Z" fill="#3D3D3D" stroke="black" stroke-miterlimit="10"/>
<path d="M1.1539 58.7449L6.36419 62.6366L7.03856 55.9765L7.90415 56.6262L7.23059 63.2784L12.4409 67.1702L12.3282 68.2828L7.11793 64.3911L6.55622 69.9385L5.69063 69.2888L6.25233 63.7414L1.04205 59.8496L1.1539 58.7449Z" fill="#F3F1EB" stroke="black" stroke-width="0.5" stroke-miterlimit="10"/>
<path d="M7.34239 62.1736L19.1117 56.6369L14.775 53.3956L7.90409 56.6262L7.34239 62.1736Z" fill="#C4C4C4" stroke="black" stroke-width="0.5" stroke-miterlimit="10"/>
<path d="M12.4411 67.17L19.3111 63.9474L19.8728 58.3999L8.06218 63.9485L12.4411 67.17Z" fill="white" stroke="black" stroke-width="0.5" stroke-miterlimit="10"/>
<path d="M1.1539 58.7449L7.03856 55.9765L6.36419 62.6366L1.1539 58.7449Z" fill="white" stroke="black" stroke-width="0.5" stroke-miterlimit="10"/>
<path d="M6.55646 69.9383L11.4255 67.6051L7.11816 64.3909L6.55646 69.9383Z" fill="#C4C4C4" stroke="black" stroke-width="0.5" stroke-miterlimit="10"/>
<path d="M7.03874 55.9763L13.9016 52.7449L14.7752 53.3954L7.90433 56.6259L7.03874 55.9763Z" fill="white" stroke="black" stroke-width="0.5" stroke-miterlimit="10"/>
<path d="M12.3284 68.2829L19.1992 65.0523L19.3111 63.9476L12.441 67.1702L12.3284 68.2829Z" fill="#C4C4C4" stroke="black" stroke-width="0.5" stroke-miterlimit="10"/>
<path d="M7.6233 65.4296L7.45388 65.5168C6.8065 65.8045 5.90912 65.1516 5.40176 64.0565C4.91191 62.947 5.02458 61.8343 5.65606 61.545C5.73081 61.5205 5.78091 61.5014 5.85405 61.4928C6.46782 61.3783 7.246 62.0191 7.70657 63.0212C8.15205 64.0138 8.10709 65.0129 7.6241 65.4216L7.6233 65.4296Z" fill="#F3F1EB" stroke="black" stroke-width="0.5" stroke-miterlimit="10"/>
<path d="M51.5334 41.5732L25.9662 53.9668C25.9662 53.9668 25.7157 52.7932 24.9041 52.7994C24.2193 53.1395 50.4415 40.6999 50.4415 40.6999C50.4415 40.6999 50.9431 40.6623 51.5334 41.5732V41.5732Z" fill="#DEFCEB"/>
</svg>
