<svg width="198" height="127" viewBox="0 0 198 127" fill="none" xmlns="http://www.w3.org/2000/svg">
<path d="M82.9365 4.12061L142.106 108.735L114.871 126.312L55.7021 21.6972L82.9365 4.12061Z" fill="#232326"/>
<rect width="30.3403" height="6.56889" transform="matrix(-0.866025 0.5 2.20305e-08 1 87.8164 0.505371)" fill="#887D74"/>
<rect width="30.3403" height="6.56889" transform="matrix(-0.866025 0.5 2.20305e-08 1 93.4131 10.2017)" fill="#887D74"/>
<rect width="30.3403" height="6.56889" transform="matrix(-0.866025 0.5 2.20305e-08 1 98.8872 20.0547)" fill="#887D74"/>
<rect width="30.3403" height="6.56889" transform="matrix(-0.866025 0.5 2.20305e-08 1 104.361 29.9082)" fill="#887D74"/>
<rect width="30.3403" height="6.56889" transform="matrix(-0.866025 0.5 2.20305e-08 1 109.835 39.7617)" fill="#887D74"/>
<rect width="30.3403" height="6.56889" transform="matrix(-0.866025 0.5 2.20305e-08 1 115.31 49.6147)" fill="#887D74"/>
<rect width="30.3403" height="6.56889" transform="matrix(-0.866025 0.5 2.20305e-08 1 120.784 59.4683)" fill="#887D74"/>
<rect width="30.3403" height="6.56889" transform="matrix(-0.866025 0.5 2.20305e-08 1 126.258 69.3213)" fill="#887D74"/>
<rect width="30.3403" height="6.56889" transform="matrix(-0.866025 0.5 2.20305e-08 1 131.732 79.1748)" fill="#887D74"/>
<rect width="30.3403" height="6.56889" transform="matrix(-0.866025 0.5 2.20305e-08 1 137.206 89.0283)" fill="#887D74"/>
<rect width="30.4827" height="6.56889" transform="matrix(-0.866025 0.5 0.866025 0.5 87.8164 6.91699)" fill="#FAEFC5"/>
<rect width="30.4827" height="6.56889" transform="matrix(-0.866025 0.5 0.866025 0.5 93.4131 16.6133)" fill="#FAEFC5"/>
<rect width="30.4827" height="6.56889" transform="matrix(-0.866025 0.5 0.866025 0.5 98.8872 26.4668)" fill="#FAEFC5"/>
<rect width="30.4827" height="6.56889" transform="matrix(-0.866025 0.5 0.866025 0.5 104.361 36.3198)" fill="#FAEFC5"/>
<rect width="30.4827" height="6.56889" transform="matrix(-0.866025 0.5 0.866025 0.5 109.835 46.1733)" fill="#FAEFC5"/>
<rect width="30.4827" height="6.56889" transform="matrix(-0.866025 0.5 0.866025 0.5 115.31 56.0264)" fill="#FAEFC5"/>
<rect width="30.4827" height="6.56889" transform="matrix(-0.866025 0.5 0.866025 0.5 120.784 65.8799)" fill="#FAEFC5"/>
<rect width="30.4827" height="6.56889" transform="matrix(-0.866025 0.5 0.866025 0.5 126.258 75.7334)" fill="#FAEFC5"/>
<rect width="30.4827" height="6.56889" transform="matrix(-0.866025 0.5 0.866025 0.5 131.732 85.5864)" fill="#FAEFC5"/>
<rect width="30.4827" height="6.56889" transform="matrix(-0.866025 0.5 0.866025 0.5 137.206 95.4399)" fill="#1ADAB7"/>
</svg>
