<svg width="27" height="85" viewBox="0 0 27 85" fill="none" xmlns="http://www.w3.org/2000/svg">
<path d="M3.11475 9V85" stroke="white"/>
<path d="M22.1147 0V76" stroke="white"/>
<rect width="29" height="6" rx="3" transform="matrix(-0.866025 0.5 2.20305e-08 1 25.1147 61)" fill="#232326"/>
<rect width="29" height="6" rx="3" transform="matrix(-0.866025 0.5 2.20305e-08 1 26.1147 62)" fill="#887D74"/>
<rect width="29" height="6" rx="3" transform="matrix(-0.866025 0.5 2.20305e-08 1 25.1147 47)" fill="#232326"/>
<rect width="29" height="6" rx="3" transform="matrix(-0.866025 0.5 2.20305e-08 1 26.1147 48)" fill="#887D74"/>
<rect width="29" height="6" rx="3" transform="matrix(-0.866025 0.5 2.20305e-08 1 25.1147 33)" fill="#232326"/>
<rect width="29" height="6" rx="3" transform="matrix(-0.866025 0.5 2.20305e-08 1 26.1147 34)" fill="#887D74"/>
<rect width="29" height="6" rx="3" transform="matrix(-0.866025 0.5 2.20305e-08 1 25.1147 19)" fill="#232326"/>
<rect width="29" height="6" rx="3" transform="matrix(-0.866025 0.5 2.20305e-08 1 26.1147 20)" fill="#887D74"/>
<rect width="29" height="6" rx="3" transform="matrix(-0.866025 0.5 2.20305e-08 1 25.1147 5)" fill="#232326"/>
<rect width="29" height="6" rx="3" transform="matrix(-0.866025 0.5 2.20305e-08 1 26.1147 6)" fill="#887D74"/>
</svg>
