<svg width="182" height="55" viewBox="0 0 182 55" fill="none" xmlns="http://www.w3.org/2000/svg">
<path d="M47.1086 55L56 49.5093L54.6321 47.1368L49.395 42.8416L42 41L37.5 42.8416L35 48.6774L41.466 55H47.1086Z" fill="#232326"/>
<path d="M82.5614 48L89 43.8207L88.0094 42.0149L84.2171 38.7455L74.191 37L68 40.6832L71.6547 44.6205L78.4754 48H82.5614Z" fill="#232326"/>
<path d="M20.802 38L30 31.921L28.5849 29.2943L23.1673 24.5389L8.84424 22L0 27.3573L5.22099 33.0844L14.9648 38H20.802Z" fill="#232326"/>
<path d="M64.1086 28L73 21.921L71.6321 19.2943L66.395 14.5389L52.5494 12L44 17.3573L49.047 23.0844L58.466 28H64.1086Z" fill="#232326"/>
<path d="M135.109 50L144 43.921L142.632 41.2943L137.395 36.5389L123.549 34L115 39.3573L120.047 45.0844L129.466 50H135.109Z" fill="#232326"/>
<path d="M109.109 32L118 25.921L116.632 23.2943L111.395 18.5389L97.5494 16L89 21.3573L94.047 27.0844L103.466 32H109.109Z" fill="#232326"/>
<path d="M173.109 41L182 34.921L180.632 32.2943L175.395 27.5389L161.549 25L153 30.3573L158.047 36.0844L167.466 41H173.109Z" fill="#232326"/>
<path d="M136.109 19L145 12.921L143.632 10.2943L138.395 5.53891L124.549 3L116 8.35733L121.047 14.0844L130.466 19H136.109Z" fill="#232326"/>
<path d="M46.1086 52L55 47.0325L53.6321 44.886L48.395 41.0001L43 41L36.5 43.011L35 47.0325L40.466 52H46.1086Z" fill="#887D74"/>
<path d="M82.5614 45L89 40.8207L88.0094 39.0149L84.2171 35.7455L74.191 34L68 37.6832L71.6547 41.6205L78.4754 45H82.5614Z" fill="#887D74"/>
<path d="M20.802 34L30 27.921L28.5849 25.2943L23.1673 20.5389L8.84424 18L0 23.3573L5.22099 29.0844L14.9648 34H20.802Z" fill="#887D74"/>
<path d="M64.1086 25L73 18.921L71.6321 16.2943L66.395 11.5389L52.5494 9L44 14.3573L49.047 20.0844L58.466 25H64.1086Z" fill="#887D74"/>
<path d="M135.109 47L144 40.921L142.632 38.2943L137.395 33.5389L123.549 31L115 36.3573L120.047 42.0844L129.466 47H135.109Z" fill="#887D74"/>
<path d="M109.109 29L118 22.921L116.632 20.2943L111.395 15.5389L97.5494 13L89 18.3573L94.047 24.0844L103.466 29H109.109Z" fill="#887D74"/>
<path d="M173.109 38L182 31.921L180.632 29.2943L175.395 24.5389L161.549 22L153 27.3573L158.047 33.0844L167.466 38H173.109Z" fill="#887D74"/>
<path d="M136.109 16L145 9.92105L143.632 7.29434L138.395 2.53891L124.549 0L116 5.35733L121.047 11.0844L130.466 16H136.109Z" fill="#887D74"/>
</svg>
