<svg width="179" height="206" viewBox="0 0 179 206" fill="none" xmlns="http://www.w3.org/2000/svg">
<path d="M133.151 180.638C109.388 194.358 71.227 194.57 47.0963 180.638C35.0964 173.71 27.0514 164.64 26.867 155.629C26.8027 152.482 26.9177 145.362 26.867 141.549C29.4841 135.763 38.6117 135.085 46.4312 130.57C70.1945 116.85 109.02 117.022 133.151 130.954C143.234 136.775 150.004 134.083 151.748 141.613C152.398 144.417 151.32 155.032 150.81 157.835C149.413 165.519 143.288 174.785 133.151 180.638Z" fill="#023C40"/>
<circle r="51.0348" transform="matrix(0.866025 0.5 -0.866025 0.5 89.3693 143.568)" fill="#F79780"/>
<rect width="3.48936" height="83.9459" transform="matrix(-0.866025 -0.5 -2.20305e-08 1 99.7123 52.0996)" fill="#023C40"/>
<rect width="3.22062" height="89.0481" transform="matrix(0.866025 -0.5 2.20305e-08 1 99.7123 47.9814)" fill="#93B5FE"/>
<path d="M67.4691 39.0512C67.4691 34.7476 70.4905 29.5144 74.2175 27.3626L113.163 4.87739C116.89 2.72558 119.911 4.46996 119.911 8.77358L119.911 29.3018C119.911 33.6055 116.89 38.8386 113.163 40.9904L74.2175 63.4756C70.4905 65.6274 67.4691 63.883 67.4691 59.5794L67.4691 39.0512Z" fill="#023C40"/>
<path d="M70.4691 40.0512C70.4691 35.7476 73.4905 30.5144 77.2175 28.3626L116.163 5.87739C119.89 3.72558 122.911 5.46996 122.911 9.77358L122.911 30.3018C122.911 34.6055 119.89 39.8386 116.163 41.9904L77.2175 64.4756C73.4905 66.6274 70.4691 64.883 70.4691 60.5794L70.4691 40.0512Z" fill="#93B5FE"/>
<path d="M80.5176 41.1149L80.5176 39.0649C80.5176 38.7816 80.6259 38.5024 80.8424 38.2274L82.8126 35.6649C83.1446 35.2399 83.426 34.9608 83.657 34.8274L85.389 33.8274C85.6921 33.6524 85.8437 33.7399 85.8437 34.0899L85.8437 49.1149C85.8437 49.3149 85.8076 49.4774 85.7354 49.6024C85.6777 49.7024 85.5694 49.7983 85.4107 49.8899L83.5487 50.9649C83.2456 51.1399 83.094 51.0524 83.094 50.7024L83.094 38.5274L80.9723 41.1524C80.6692 41.4774 80.5176 41.4649 80.5176 41.1149ZM92.4251 43.0901L93.7025 42.3526C94.1644 42.086 94.4892 41.7901 94.6768 41.4651C94.8644 41.1235 94.9583 40.686 94.9583 40.1526L94.9583 32.5276C94.9583 31.9943 94.8644 31.6735 94.6768 31.5651C94.4892 31.4401 94.1644 31.511 93.7025 31.7776L92.4251 32.5151C91.9632 32.7818 91.6385 33.086 91.4509 33.4276C91.2632 33.7526 91.1694 34.1818 91.1694 34.7151L91.1694 42.3401C91.1694 42.8735 91.2632 43.2026 91.4509 43.3276C91.6385 43.436 91.9632 43.3568 92.4251 43.0901ZM94.1355 44.8526L91.9705 46.1026C90.8302 46.761 89.9497 46.9193 89.3291 46.5776C88.7084 46.236 88.3981 45.4068 88.3981 44.0901L88.3981 36.1651C88.3981 34.8485 88.7084 33.661 89.3291 32.6026C89.9497 31.5443 90.8302 30.686 91.9705 30.0276L94.1355 28.7776C95.2614 28.1276 96.1346 27.9818 96.7553 28.3401C97.3759 28.6818 97.6862 29.5026 97.6862 30.8026L97.6862 38.7276C97.6862 40.0276 97.3759 41.2151 96.7553 42.2901C96.1346 43.3485 95.2614 44.2026 94.1355 44.8526ZM104.033 36.3885L105.31 35.651C105.772 35.3843 106.097 35.0885 106.284 34.7635C106.472 34.4218 106.566 33.9843 106.566 33.451L106.566 25.826C106.566 25.2926 106.472 24.9718 106.284 24.8635C106.097 24.7385 105.772 24.8093 105.31 25.076L104.033 25.8135C103.571 26.0801 103.246 26.3843 103.058 26.726C102.871 27.051 102.777 27.4801 102.777 28.0135L102.777 35.6385C102.777 36.1718 102.871 36.501 103.058 36.626C103.246 36.7343 103.571 36.6551 104.033 36.3885ZM105.743 38.151L103.578 39.401C102.438 40.0593 101.557 40.2176 100.937 39.876C100.316 39.5343 100.006 38.7051 100.006 37.3885L100.006 29.4635C100.006 28.1468 100.316 26.9593 100.937 25.901C101.557 24.8426 102.438 23.9843 103.578 23.326L105.743 22.076C106.869 21.426 107.742 21.2801 108.363 21.6385C108.984 21.9801 109.294 22.801 109.294 24.101L109.294 32.026C109.294 33.326 108.984 34.5135 108.363 35.5885C107.742 36.6468 106.869 37.501 105.743 38.151Z" fill="#3D3D3D"/>
<path d="M82.7259 41.6604L82.7259 39.6104C82.7259 39.327 82.8341 39.0479 83.0506 38.7729L85.0208 36.2104C85.3528 35.7854 85.6343 35.5062 85.8652 35.3729L87.5973 34.3729C87.9004 34.1979 88.0519 34.2854 88.0519 34.6354L88.0519 49.6604C88.0519 49.8604 88.0158 50.0229 87.9437 50.1479C87.8859 50.2479 87.7777 50.3437 87.6189 50.4354L85.757 51.5104C85.4539 51.6854 85.3023 51.5979 85.3023 51.2479L85.3023 39.0729L83.1805 41.6979C82.8774 42.0229 82.7259 42.0104 82.7259 41.6604ZM94.6334 43.6355L95.9108 42.898C96.3726 42.6314 96.6974 42.3355 96.885 42.0105C97.0727 41.6689 97.1665 41.2314 97.1665 40.698L97.1665 33.073C97.1665 32.5397 97.0727 32.2189 96.885 32.1105C96.6974 31.9855 96.3726 32.0564 95.9108 32.323L94.6334 33.0605C94.1715 33.3272 93.8467 33.6314 93.6591 33.973C93.4715 34.298 93.3776 34.7272 93.3776 35.2605L93.3776 42.8855C93.3776 43.4189 93.4715 43.748 93.6591 43.873C93.8467 43.9814 94.1715 43.9022 94.6334 43.6355ZM96.3438 45.398L94.1787 46.648C93.0385 47.3064 92.158 47.4647 91.5373 47.123C90.9167 46.7814 90.6064 45.9522 90.6064 44.6355L90.6064 36.7105C90.6064 35.3939 90.9167 34.2064 91.5373 33.148C92.158 32.0897 93.0385 31.2314 94.1787 30.573L96.3438 29.323C97.4696 28.673 98.3429 28.5272 98.9635 28.8855C99.5842 29.2272 99.8945 30.048 99.8945 31.348L99.8945 39.273C99.8945 40.573 99.5842 41.7605 98.9635 42.8355C98.3429 43.8939 97.4696 44.748 96.3438 45.398ZM106.241 36.9339L107.518 36.1964C107.98 35.9297 108.305 35.6339 108.493 35.3089C108.68 34.9672 108.774 34.5297 108.774 33.9964L108.774 26.3714C108.774 25.8381 108.68 25.5172 108.493 25.4089C108.305 25.2839 107.98 25.3547 107.518 25.6214L106.241 26.3589C105.779 26.6256 105.454 26.9297 105.267 27.2714C105.079 27.5964 104.985 28.0256 104.985 28.5589L104.985 36.1839C104.985 36.7172 105.079 37.0464 105.267 37.1714C105.454 37.2797 105.779 37.2006 106.241 36.9339ZM107.951 38.6964L105.786 39.9464C104.646 40.6047 103.766 40.7631 103.145 40.4214C102.524 40.0797 102.214 39.2506 102.214 37.9339L102.214 30.0089C102.214 28.6922 102.524 27.5047 103.145 26.4464C103.766 25.3881 104.646 24.5297 105.786 23.8714L107.951 22.6214C109.077 21.9714 109.95 21.8256 110.571 22.1839C111.192 22.5256 111.502 23.3464 111.502 24.6464L111.502 32.5714C111.502 33.8714 111.192 35.0589 110.571 36.1339C109.95 37.1922 109.077 38.0464 107.951 38.6964Z" fill="white"/>
</svg>
