<svg width="117" height="29" viewBox="0 0 117 29" fill="none" xmlns="http://www.w3.org/2000/svg">
<path d="M114.255 1.5658L116.103 -16.2839L80.8543 6.65764H55.5226L23.6955 -13.5117V-1.24414L41.8824 15.5966L50.9758 28.6091H80.8543L103.588 15.5966V9.81647L114.255 1.5658Z" fill="#FFCDC1"/>
<path d="M80.509 8.66681L116.103 -16.2832L110.627 -27.0641L89.662 -46.5819L34.2355 -57.0024L0.504471 -36.8971L19.3769 -10.8984L57.9205 8.66681H80.509Z" fill="#F79780"/>
<path d="M57.8862 28.5352V8.66763L26.4516 -10.2245L1.28197 -36.8488C0.957958 -37.1915 0.38129 -36.9721 0.367069 -36.5007L0.0106354 -24.6844L10.7523 -2.37483L23.5596 6.30112L30.9962 16.6296L50.9557 28.5352H57.8862Z" fill="#023538"/>
</svg>
