<svg width="201" height="119" viewBox="0 0 201 119" fill="none" xmlns="http://www.w3.org/2000/svg">
<path d="M46.4084 58.4937L61.1416 63.4382" stroke="#D8E9F7" stroke-width="3.47884"/>
<path d="M107.401 14.7858C102.091 12.1729 94.2807 12.1735 88.9723 14.7873L19.4416 49.023C16.2777 50.5809 14.4552 52.8611 14.4552 55.2619L14.455 64.1305C14.455 66.2982 15.9417 68.3777 18.59 69.9143L91.605 112.279C97.2453 115.551 106.451 115.491 111.963 112.146L181.586 69.8895C184.097 68.3652 185.498 66.3419 185.498 64.238L185.498 57.0027C185.498 54.6011 183.674 52.3202 180.508 50.7623L107.401 14.7858Z" fill="#023538"/>
<path d="M110.092 6.52389C104.546 3.32171 95.5534 3.32171 90.007 6.5239L18.4178 47.8559C12.8715 51.0581 12.8715 56.2499 18.4178 59.4521L90.007 100.784C95.5534 103.986 104.546 103.986 110.092 100.784L181.681 59.4521C187.228 56.2499 187.228 51.0581 181.681 47.8559L110.092 6.52389Z" fill="#60BF8B"/>
<path d="M40.2624 44.6811L38.7058 56.7942C38.7058 56.7942 38.3812 58.5045 43.0578 58.5914C47.7344 58.6782 47.7344 56.7942 47.7344 56.7942L46.5929 44.6811V42.1904L51.9893 39.3884H49.0835L46.5929 40.6338L47.7344 39.3884H45.4513L43.7909 43.9547H42.4418L40.7813 41.2564L43.7909 39.3884H41.3002L40.2624 40.6338H38.7058L38.2906 39.3884H36.2151L38.2906 41.2564L40.2624 44.6811Z" fill="#372D1F"/>
<path d="M52.7908 31.8025C57.9738 30.6758 58.3306 35.6522 57.8611 38.2812C57.8611 38.2812 52.7908 40.6634 43.0728 40.6634C33.3547 40.6634 28.2844 38.2812 28.2844 38.2812C26.707 32.4221 32.8853 31.5208 36.1716 31.8025C36.6223 29.3235 39.364 27.2016 40.6785 26.4505C47.6642 24.1971 51.6641 29.0796 52.7908 31.8025Z" fill="#0E6B64"/>
<path d="M160.52 44.81L158.797 58.2111C158.797 58.2111 158.438 60.1034 163.612 60.1994C168.786 60.2955 168.786 58.2111 168.786 58.2111L167.523 44.81V42.0545L173.494 38.9546H170.279L167.523 40.3323L168.786 38.9546H166.26L164.423 44.0064H162.931L161.094 41.0212L164.423 38.9546H161.668L160.52 40.3323H158.797L158.338 38.9546H156.042L158.338 41.0212L160.52 44.81Z" fill="#372D1F"/>
<path d="M174.38 30.5624C180.114 29.3159 180.509 34.8214 179.99 37.73C179.99 37.73 174.38 40.3654 163.629 40.3654C152.877 40.3654 147.268 37.73 147.268 37.73C145.523 31.2478 152.358 30.2507 155.994 30.5624C156.492 27.8198 159.526 25.4723 160.98 24.6413C168.708 22.1483 173.134 27.5499 174.38 30.5624Z" fill="#0E6B64"/>
</svg>
