<svg width="191" height="132" viewBox="0 0 191 132" fill="none" xmlns="http://www.w3.org/2000/svg">
<path d="M57.645 126.988L9.43168 98.1954C7.01398 96.7516 5.53345 94.143 5.53345 91.327V79.3675L57.4988 113.144C61.7833 115.928 67.3018 115.945 71.6029 113.186L183.366 41.489L185.366 36.8083L184.956 51.1317C184.9 53.1187 183.863 54.9486 182.187 56.018L71.3042 126.785C67.1565 129.432 61.8696 129.511 57.645 126.988Z" fill="#023C40"/>
<path d="M8.34407 75.4145L123.306 2.83411C125.194 1.64209 127.588 1.59713 129.52 2.7174L182.343 33.355C186.235 35.6123 186.35 41.1913 182.554 43.607L67.6401 116.744C65.7361 117.956 63.3133 117.996 61.3696 116.85L8.49828 85.6556C4.63197 83.3744 4.54818 77.811 8.34407 75.4145Z" fill="#60BF8B"/>
<path opacity="0.2" d="M78.4248 100.99H76.2932" stroke="black" stroke-width="9.68194" stroke-linecap="round" stroke-linejoin="round"/>
<path opacity="0.2" d="M71.629 104.052H70.342" stroke="black" stroke-width="5.8457" stroke-linecap="round" stroke-linejoin="round"/>
<path d="M78.6697 98.0419V93.1472" stroke="black" stroke-width="5.4481" stroke-linecap="round" stroke-linejoin="round"/>
<path d="M71.7766 102.406V99.4504" stroke="black" stroke-width="5.8457" stroke-linecap="round" stroke-linejoin="round"/>
<circle cx="78.6699" cy="90.0673" r="6.19989" fill="#55AF74"/>
<circle cx="71.7768" cy="98.269" r="3.74333" fill="#55AF74"/>
<path d="M28.3695 68.1494L18.0986 73.9069C15.6986 75.2523 15.5168 78.6386 17.759 80.2333L44.7279 99.414C45.8111 100.184 47.2212 100.324 48.4343 99.7802L63.6683 92.9542C66.4724 91.6978 66.6578 87.787 63.9851 86.271L32.0529 68.1586C30.9114 67.5111 29.5143 67.5076 28.3695 68.1494Z" fill="#3B89B5"/>
<path d="M28.7232 70.7362L18.9399 76.29C16.4821 77.6852 16.3927 81.1946 18.7762 82.7131L49.106 102.036C50.2676 102.776 51.7414 102.82 52.9448 102.15L64.5035 95.7143C67.0513 94.2958 67.0757 90.6394 64.547 89.1869L32.4419 70.7457C31.2913 70.0848 29.8771 70.0812 28.7232 70.7362Z" fill="#9BD8FB"/>
<path d="M30.7446 75.2395L39.8061 80.2389" stroke="white" stroke-width="1.87479" stroke-linecap="round"/>
<path d="M31.0571 82.7388L36.369 85.8634" stroke="white" stroke-width="1.87479" stroke-linecap="round"/>
<path d="M46.0554 85.863L51.3673 88.9877" stroke="white" stroke-width="1.87479" stroke-linecap="round"/>
<path d="M41.0557 91.4878L50.1172 97.1122" stroke="white" stroke-width="1.87479" stroke-linecap="round"/>
</svg>
