<svg width="112" height="82" viewBox="0 0 112 82" fill="none" xmlns="http://www.w3.org/2000/svg">
<path d="M2.22894 56.1305L0.468506 39.1279L34.0443 60.9806H58.1737L88.4901 41.7686V53.4539L71.1665 69.4954L62.5046 81.8903H34.0443L12.3897 69.4954V63.9895L2.22894 56.1305Z" fill="#A2E4BF"/>
<path d="M34.3731 62.8947L0.468506 39.1289L5.6846 28.8597L25.6546 10.2682L78.4504 0.342285L110.336 20.0239L92.6038 44.2581L55.8895 62.8947H34.3731Z" fill="#60BF8B"/>
<path d="M55.9221 81.82V62.8953L85.8648 44.8999L108.811 20.6695C109.618 19.8176 111.051 20.3885 111.051 21.5618V31.1262L100.819 52.377L88.6195 60.6411L81.5359 70.4794L62.5237 81.82H55.9221Z" fill="#023C40"/>
</svg>
