<svg width="169" height="98" viewBox="0 0 169 98" fill="none" xmlns="http://www.w3.org/2000/svg">
<path d="M76.0232 23.5666C81.4306 22.1269 87.6612 22.1337 93.0592 23.5851L139.501 36.0729C146.641 37.9928 151.206 42.1279 151.206 46.6752L151.206 53.0047C151.206 56.027 149.18 58.932 145.552 61.1107L99.0799 89.0175C91.1367 93.7876 77.927 93.8064 69.943 89.0591L22.9535 61.1186C19.2828 58.936 17.2295 56.0134 17.2295 52.9711L17.2296 46.7063C17.2296 42.1431 21.8265 37.9965 29.0039 36.0856L76.0232 23.5666Z" fill="#9F4F44"/>
<rect width="86.8367" height="86.8367" rx="16.5403" transform="matrix(0.866025 0.5 -0.866025 0.5 84.335 1.56445)" fill="#F7C780"/>
</svg>
