<svg width="127" height="92" viewBox="0 0 127 92" fill="none" xmlns="http://www.w3.org/2000/svg">
<path d="M70.8985 23.6758C66.1156 20.9144 58.361 20.9144 53.578 23.6758L8.65995 49.6092C3.87702 52.3707 3.87702 56.8478 8.65995 59.6092L56.1009 86.9993C60.8838 89.7607 68.6384 89.7607 73.4214 86.9993L118.339 61.0658C123.122 58.3044 123.122 53.8272 118.339 51.0658L70.8985 23.6758Z" fill="black"/>
<path d="M72.1642 16.2053C67.3812 13.4439 59.6266 13.4439 54.8437 16.2053L9.92557 42.1388C5.14265 44.9002 5.14265 49.3774 9.92558 52.1388L54.8437 78.0723C59.6266 80.8337 67.3812 80.8337 72.1642 78.0723L117.082 52.1388C121.865 49.3774 121.865 44.9002 117.082 42.1388L72.1642 16.2053Z" fill="#1ADAB7"/>
<path d="M111.052 30.2718C114.295 32.5418 114.565 43.0183 114.295 47.9728H111.998C113.835 42.8922 112.133 34.0552 111.052 30.2718Z" fill="#7B5533"/>
<path d="M108.746 40.836C110.116 32.1727 112.027 33.354 111.782 30.5413L119.134 36.9882C119.263 32.6197 115.631 29.7437 113.799 28.8517L121.74 26.4621C118.057 23.8178 113.586 24.9469 111.811 25.8419C110.616 21.8717 106.985 20.1981 105.319 19.8576C106.91 22.2654 107.575 26.1545 107.709 27.798C105.088 27.7208 101.451 27.3613 100.096 28.8517L107.812 31.7361C105.319 35.9144 106.661 36.9882 108.746 40.836Z" fill="#34C3A7"/>
<path d="M26.7491 19.4548C22.3668 22.5224 22.0016 36.6795 22.3668 43.3746H25.4709C22.9876 36.509 25.2883 24.5674 26.7491 19.4548Z" fill="#7B5533"/>
<path d="M29.8644 33.7305C28.0138 22.0236 25.4309 23.6199 25.7622 19.8189L15.8268 28.5308C15.653 22.6276 20.5607 18.7412 23.0362 17.5359L12.3062 14.3067C17.2821 10.7334 23.324 12.2591 25.7229 13.4686C27.3375 8.10361 32.2438 5.84203 34.4951 5.38186C32.3457 8.63564 31.4468 13.891 31.266 16.1119C34.8079 16.0077 39.7219 15.5219 41.5537 17.5359L31.1272 21.4335C34.4951 27.0798 32.6827 28.5308 29.8644 33.7305Z" fill="#34C3A7"/>
</svg>
