<svg width="169" height="98" viewBox="0 0 169 98" fill="none" xmlns="http://www.w3.org/2000/svg">
<path d="M67.5197 34.8713C69.7077 34.2887 72.0885 33.987 74.4979 33.987L148.408 33.987C152.203 33.987 155.279 35.763 155.279 37.9539L155.279 44.153C155.279 46.6779 153.56 49.1017 150.492 50.9013L82.7977 90.614C76.2385 94.462 65.4802 94.441 58.966 90.5676L20.1741 67.5016C17.1546 65.7062 15.4657 63.3022 15.4657 60.7996L15.4657 54.8884C15.4657 51.1347 19.247 47.7239 25.151 46.152L67.5197 34.8713Z" fill="#9F4F44"/>
<rect width="71.4298" height="105.963" rx="13.6057" transform="matrix(0.866025 0.5 -0.866025 0.5 100.344 0.510986)" fill="#F7C780"/>
<path d="M67.8921 70.8264V74.0489" stroke="#CA6B49" stroke-width="3.2225" stroke-linecap="round"/>
<path d="M100.907 63.6011L100.907 65.9296" stroke="#CA6B49" stroke-width="3.2225" stroke-linecap="round"/>
<path d="M92.5979 57.9365V60.4199" stroke="#CA6B49" stroke-width="3.2225" stroke-linecap="round"/>
<path d="M26.0815 49.0405V52.263" stroke="#CA6B49" stroke-width="3.2225" stroke-linecap="round"/>
<path d="M37.8975 42.5957L37.8975 44.8342" stroke="#CA6B49" stroke-width="3.2225" stroke-linecap="round"/>
<path d="M37.8975 53.3374L37.8975 55.5226" stroke="#CA6B49" stroke-width="3.2225" stroke-linecap="round"/>
<path d="M129.188 33.8047V37.0272" stroke="#CA6B49" stroke-width="3.2225" stroke-linecap="round"/>
<path d="M141.003 27.3599L141.003 29.5984" stroke="#CA6B49" stroke-width="3.2225" stroke-linecap="round"/>
<path d="M141.003 38.1016L141.003 40.2867" stroke="#CA6B49" stroke-width="3.2225" stroke-linecap="round"/>
</svg>
