<svg width="170" height="117" viewBox="0 0 170 117" fill="none" xmlns="http://www.w3.org/2000/svg">
<path d="M110.223 113.784L159.079 84.6073C162.101 82.8025 163.951 79.5417 163.951 76.0217V67.2434C163.951 66.3623 162.975 65.8322 162.236 66.3123L110.338 100.045C107.054 102.179 102.827 102.2 99.5226 100.099L9.54184 42.8891C8.50583 42.2304 7.69327 41.2737 7.21088 40.1448C6.94688 39.527 6.02377 39.7297 6.04295 40.4013L6.32974 50.4385C6.40579 53.1007 7.80168 55.5505 10.0531 56.9731L99.7536 113.652C102.94 115.665 106.987 115.716 110.223 113.784Z" fill="#023538"/>
<path d="M161.123 61.2473L72.629 5.52889C67.9107 2.55814 61.9341 2.44954 57.111 5.24692L8.99416 33.1547C5.10123 35.4126 4.98752 40.9935 8.78522 43.4081L101.846 102.576C103.749 103.786 106.171 103.827 108.114 102.68L160.975 71.4923C164.844 69.2095 164.924 63.6408 161.123 61.2473Z" fill="#F79780"/>
<path opacity="0.2" d="M91.0601 86.8193H93.1917" stroke="black" stroke-width="9.68194" stroke-linecap="round" stroke-linejoin="round"/>
<path opacity="0.2" d="M97.8558 89.8818H99.1428" stroke="black" stroke-width="5.8457" stroke-linecap="round" stroke-linejoin="round"/>
<path d="M90.8152 83.8717V78.9771" stroke="black" stroke-width="5.4481" stroke-linecap="round" stroke-linejoin="round"/>
<path d="M97.7083 88.2355V85.2803" stroke="black" stroke-width="5.8457" stroke-linecap="round" stroke-linejoin="round"/>
<circle r="6.19989" transform="matrix(-1 0 0 1 90.815 75.8972)" fill="#55AF74"/>
<circle r="3.74333" transform="matrix(-1 0 0 1 97.7081 84.0988)" fill="#55AF74"/>
<path d="M141.115 53.9792L151.386 59.7368C153.786 61.0822 153.968 64.4684 151.726 66.0631L124.757 85.2438C123.674 86.0142 122.264 86.1535 121.051 85.61L105.817 78.7841C103.012 77.5276 102.827 73.6168 105.5 72.1008L137.432 53.9885C138.574 53.341 139.971 53.3374 141.115 53.9792Z" fill="#3B89B5"/>
<path d="M140.762 56.5661L150.545 62.1198C153.003 63.515 153.092 67.0244 150.709 68.543L120.379 87.8661C119.217 88.6062 117.743 88.6498 116.54 87.9798L104.981 81.5442C102.434 80.1256 102.409 76.4692 104.938 75.0168L137.043 56.5755C138.194 55.9146 139.608 55.911 140.762 56.5661Z" fill="#9BD8FB"/>
<path d="M138.74 61.0693L129.679 66.0688" stroke="white" stroke-width="1.87479" stroke-linecap="round"/>
<path d="M138.428 68.5686L133.116 71.6933" stroke="white" stroke-width="1.87479" stroke-linecap="round"/>
<path d="M123.429 71.6931L118.118 74.8178" stroke="white" stroke-width="1.87479" stroke-linecap="round"/>
<path d="M128.429 77.3176L119.368 82.942" stroke="white" stroke-width="1.87479" stroke-linecap="round"/>
</svg>
