<svg width="375" height="812" viewBox="0 0 375 812" fill="none" xmlns="http://www.w3.org/2000/svg">
<g clip-path="url(#clip0_902_3365)">
<ellipse cx="240.653" cy="607.06" rx="30.6463" ry="17.5842" fill="#14625C"/>
<path fill-rule="evenodd" clip-rule="evenodd" d="M326.079 169.719L327.584 163.394L325.677 160.081L323.669 158.274H325.677L326.079 159.479H327.584L328.588 158.274H330.998L328.086 160.081L329.693 162.691H330.998L332.604 158.274H334.813L333.708 159.479L336.118 158.274H338.929L333.708 160.985V163.394L334.813 169.719H326.079ZM332.303 166.908C332.746 166.908 333.106 166.233 333.106 165.402C333.106 164.57 332.746 163.896 332.303 163.896C331.859 163.896 331.5 164.57 331.5 165.402C331.5 166.233 331.859 166.908 332.303 166.908Z" fill="#123335"/>
<path d="M346.559 158.002H317.947C316.421 152.334 322.398 151.462 325.577 151.735C326.013 149.337 328.665 147.284 329.937 146.558C336.694 144.378 340.564 149.101 341.654 151.735C346.668 150.645 347.013 155.459 346.559 158.002Z" fill="#1F6F7D"/>
<path fill-rule="evenodd" clip-rule="evenodd" d="M326.079 169.719L327.584 163.394L325.677 160.081L323.669 158.274H325.677L326.079 159.479H327.584L328.588 158.274H330.998L328.086 160.081L329.693 162.691H330.998L332.604 158.274H334.813L333.708 159.479L336.118 158.274H338.929L333.708 160.985V163.394L334.813 169.719H326.079ZM332.303 166.908C332.746 166.908 333.106 166.233 333.106 165.402C333.106 164.57 332.746 163.896 332.303 163.896C331.859 163.896 331.5 164.57 331.5 165.402C331.5 166.233 331.859 166.908 332.303 166.908Z" fill="#123335"/>
<path d="M346.559 158.002H317.947C316.421 152.334 322.398 151.462 325.577 151.735C326.013 149.337 328.665 147.284 329.937 146.558C336.694 144.378 340.564 149.101 341.654 151.735C346.668 150.645 347.013 155.459 346.559 158.002Z" fill="#2D9582"/>
<path fill-rule="evenodd" clip-rule="evenodd" d="M304.831 540.312L306.337 533.988L304.429 530.675L302.421 528.868H304.429L304.831 530.072H306.337L307.341 528.868H309.75L306.839 530.675L308.445 533.285H309.75L311.356 528.868H313.565L312.461 530.072L314.87 528.868H317.681L312.461 531.578V533.988L313.565 540.312H304.831ZM311.055 537.501C311.498 537.501 311.858 536.827 311.858 535.995C311.858 535.164 311.498 534.489 311.055 534.489C310.611 534.489 310.252 535.164 310.252 535.995C310.252 536.827 310.611 537.501 311.055 537.501Z" fill="#123335"/>
<path d="M325.311 528.596H296.699C295.173 522.928 301.15 522.056 304.329 522.328C304.765 519.93 307.417 517.878 308.689 517.151C315.447 514.971 319.316 519.694 320.406 522.328C325.42 521.238 325.765 526.052 325.311 528.596Z" fill="#3CB9A4"/>
<path fill-rule="evenodd" clip-rule="evenodd" d="M311.748 676.862L313.253 670.538L311.346 667.225L309.338 665.418H311.346L311.748 666.622H313.253L314.257 665.418H316.667L313.755 667.225L315.362 669.835H316.667L318.273 665.418H320.482L319.377 666.622L321.787 665.418H324.598L319.377 668.128V670.538L320.482 676.862H311.748ZM317.972 674.051C318.415 674.051 318.775 673.377 318.775 672.545C318.775 671.714 318.415 671.039 317.972 671.039C317.528 671.039 317.169 671.714 317.169 672.545C317.169 673.377 317.528 674.051 317.972 674.051Z" fill="#102425"/>
<path d="M331.154 667.294H302.542C301.016 661.626 306.993 660.754 310.172 661.027C310.608 658.629 313.26 656.576 314.531 655.849C321.289 653.669 325.159 658.393 326.249 661.027C331.263 659.937 331.608 664.751 331.154 667.294Z" fill="#3CB9A4"/>
<path fill-rule="evenodd" clip-rule="evenodd" d="M26.5034 699.805L28.0093 693.48L26.1018 690.167L24.094 688.36H26.1018L26.5034 689.565H28.0093L29.0132 688.36H31.4226L28.5112 690.167L30.1175 692.777H31.4226L33.0289 688.36H35.2375L34.1332 689.565L36.5426 688.36H39.3536L34.1332 691.071V693.48L35.2375 699.805H26.5034ZM32.7276 696.994C33.1711 696.994 33.5307 696.319 33.5307 695.488C33.5307 694.656 33.1711 693.982 32.7276 693.982C32.284 693.982 31.9244 694.656 31.9244 695.488C31.9244 696.319 32.284 696.994 32.7276 696.994Z" fill="#102425"/>
<path d="M45.9094 690.236H17.2977C15.7717 684.568 21.7484 683.697 24.9275 683.969C25.3634 681.571 28.0157 679.518 29.2873 678.792C36.0451 676.612 39.9145 681.335 41.0045 683.969C46.0184 682.879 46.3635 687.693 45.9094 690.236Z" fill="#3CB9A4"/>
<path d="M4.48909 397.634H-16.5956C-17.7201 393.457 -13.3158 392.815 -10.973 393.016C-10.6517 391.248 -8.69723 389.736 -7.76013 389.2C-2.78012 387.594 0.0713367 391.074 0.874565 393.016C4.56941 392.212 4.82376 395.76 4.48909 397.634Z" fill="#39A48F"/>
<path fill-rule="evenodd" clip-rule="evenodd" d="M-0.623551 488.261L0.882329 481.937L-1.02512 478.624L-3.03296 476.817H-1.02512L-0.623551 478.021H0.882329L1.88625 476.817H4.29566L1.38429 478.624L2.99056 481.234H4.29566L5.90193 476.817H8.11055L7.00624 478.021L9.41565 476.817H12.2266L7.00624 479.527V481.937L8.11055 488.261H-0.623551ZM5.60067 485.45C6.04423 485.45 6.4038 484.776 6.4038 483.944C6.4038 483.112 6.04423 482.438 5.60067 482.438C5.15711 482.438 4.79753 483.112 4.79753 483.944C4.79753 484.776 5.15711 485.45 5.60067 485.45Z" fill="#123335"/>
<path d="M19.8566 476.545H-8.75507C-10.281 470.877 -4.30436 470.005 -1.12528 470.277C-0.689292 467.879 1.96297 465.826 3.2346 465.1C9.99241 462.92 13.8618 467.643 14.9518 470.277C19.9656 469.187 20.3108 474.001 19.8566 476.545Z" fill="#3CB9A4"/>
<path d="M259.16 30.5879V104.705L283.329 125.114V54.2195C283.329 48.8803 287.657 44.552 292.996 44.552H392.894L371.41 20.9204H268.828C263.488 20.9204 259.16 25.2487 259.16 30.5879Z" fill="#12645D"/>
<path d="M262.709 33.353V105.247L286.236 125.114V56.3575C286.236 51.0183 290.565 46.69 295.904 46.69H392.893L371.98 23.6855H272.376C267.037 23.6855 262.709 28.0138 262.709 33.353Z" fill="#199B91"/>
<path d="M78.1631 124.577C78.1631 115.975 85.1364 109.002 93.7385 109.002H233.003C248.539 109.002 263.742 113.502 276.775 121.959V121.959C285.04 127.323 281.242 140.153 271.389 140.153H93.7385C85.1364 140.153 78.1631 133.179 78.1631 124.577V124.577Z" fill="#12645D"/>
<path d="M78.1631 126.566C78.1631 117.964 85.1364 110.991 93.7385 110.991H233.003C248.539 110.991 263.742 115.491 276.775 123.948V123.948C285.04 129.312 281.242 142.142 271.389 142.142H93.7385C85.1364 142.142 78.1631 135.168 78.1631 126.566V126.566Z" fill="#199B91"/>
<path d="M-5.62207 144.449C-5.62207 133.771 3.03449 125.115 13.7129 125.115H175.249C194.758 125.115 213.813 130.998 229.926 141.997V141.997C239.621 148.615 234.938 163.784 223.199 163.784H13.7129C3.0345 163.784 -5.62207 155.128 -5.62207 144.449V144.449Z" fill="#12645D"/>
<path d="M-7.2334 145.805C-7.2334 134.268 2.11945 124.915 13.6568 124.915H175.089C196.404 124.915 217.176 131.636 234.451 144.122V144.122C244.253 151.207 239.241 166.695 227.147 166.695H13.6568C2.11946 166.695 -7.2334 157.343 -7.2334 145.805V145.805Z" fill="#199B91"/>
<path d="M-53.959 170.23C-53.959 159.551 -45.3024 150.895 -34.624 150.895H131.296C150.721 150.895 169.708 156.661 185.852 167.464V167.464C195.768 174.099 191.071 189.564 179.14 189.564H-34.624C-45.3024 189.564 -53.959 180.908 -53.959 170.23V170.23Z" fill="#199B91"/>
<path d="M-98 184.194C-98 173.515 -89.3434 164.859 -78.665 164.859H49.6548C69.7086 164.859 89.159 171.718 104.776 184.298V184.298C112.72 190.698 108.195 203.529 97.9942 203.529H-78.665C-89.3435 203.529 -98 194.872 -98 184.194V184.194Z" fill="#199B91"/>
<path d="M238.171 102.997C233.015 108.153 238.529 114.096 241.931 116.424L259.655 126.091C262.877 129.314 277.378 129.851 277.378 129.851C277.378 129.851 284.897 131.462 284.897 125.017C286.186 118.142 280.422 118.572 277.378 119.646C278.238 107.186 269.859 106.935 265.562 108.367C262.125 99.3444 253.747 101.743 249.987 104.071C248.197 101.564 243.327 97.8405 238.171 102.997Z" fill="#199B91"/>
<path d="M251.641 111.15C246.485 116.306 251.999 122.25 255.4 124.577L273.124 134.245C276.347 137.467 290.848 138.004 290.848 138.004C290.848 138.004 298.367 139.616 298.367 133.171C299.656 126.296 293.892 126.726 290.848 127.8C291.707 115.34 283.329 115.089 279.032 116.521C275.595 107.498 267.216 109.897 263.457 112.225C261.666 109.718 256.797 105.994 251.641 111.15Z" fill="#199B91"/>
<path opacity="0.2" fill-rule="evenodd" clip-rule="evenodd" d="M288.264 362.64C288.264 360.909 291.563 359.505 295.632 359.505H298.519C302.588 359.505 305.887 360.909 305.887 362.64C305.887 364.371 302.588 365.775 298.519 365.775H295.632C291.563 365.775 288.264 364.371 288.264 362.64Z" fill="black"/>
<path opacity="0.2" fill-rule="evenodd" clip-rule="evenodd" d="M315.532 168.945C315.532 167.601 319.912 166.511 325.315 166.511H329.147C334.549 166.511 338.929 167.601 338.929 168.945C338.929 170.289 334.549 171.378 329.147 171.378H325.315C319.912 171.378 315.532 170.289 315.532 168.945Z" fill="black"/>
<path opacity="0.2" fill-rule="evenodd" clip-rule="evenodd" d="M336.45 7.43731C336.45 6.09344 339.449 5.00401 343.148 5.00401L345.772 5.00401C349.471 5.00401 352.47 6.09344 352.47 7.43731C352.47 8.78118 349.471 9.87061 345.772 9.87061H343.148C339.449 9.87061 336.45 8.78118 336.45 7.43731Z" fill="black"/>
<path opacity="0.2" fill-rule="evenodd" clip-rule="evenodd" d="M-8.69531 16.6956C-8.69531 15.3517 -4.31558 14.2623 1.0871 14.2623L4.91917 14.2623C10.3218 14.2623 14.7016 15.3517 14.7016 16.6956C14.7016 18.0395 10.3218 19.1289 4.91917 19.1289H1.0871C-4.31558 19.1289 -8.69531 18.0395 -8.69531 16.6956Z" fill="black"/>
<path opacity="0.2" fill-rule="evenodd" clip-rule="evenodd" d="M34.8633 68.4852C34.8633 67.1413 39.243 66.0519 44.6457 66.0519H48.4778C53.8804 66.0519 58.2602 67.1413 58.2602 68.4852C58.2602 69.829 53.8804 70.9185 48.4778 70.9185H44.6457C39.243 70.9185 34.8633 69.829 34.8633 68.4852Z" fill="black"/>
<path fill-rule="evenodd" clip-rule="evenodd" d="M299.922 357.473C300.515 357.473 300.996 357.954 300.996 358.547V362.549C300.996 363.142 300.515 363.623 299.922 363.623C299.329 363.623 298.848 363.142 298.848 362.549V358.547C298.848 357.954 299.329 357.473 299.922 357.473Z" fill="#123335"/>
<circle cx="299.921" cy="354.006" r="5.06894" fill="#3BB49E"/>
<path opacity="0.2" fill-rule="evenodd" clip-rule="evenodd" d="M304.137 419.117C304.137 416.897 312.703 415.097 323.271 415.097H330.766C341.333 415.097 349.899 416.897 349.899 419.117C349.899 421.337 341.333 423.137 330.766 423.137H323.271C312.703 423.137 304.137 421.337 304.137 419.117Z" fill="black"/>
<path opacity="0.2" fill-rule="evenodd" clip-rule="evenodd" d="M296.752 475.785C296.752 473.395 302.669 471.457 309.967 471.457H315.144C322.443 471.457 328.359 473.395 328.359 475.785C328.359 478.174 322.443 480.112 315.144 480.112H309.967C302.669 480.112 296.752 478.174 296.752 475.785Z" fill="black"/>
<path opacity="0.2" fill-rule="evenodd" clip-rule="evenodd" d="M12.7061 267.258C12.7061 265.723 16.5066 264.478 21.1949 264.478H24.5203C29.2085 264.478 33.0091 265.723 33.0091 267.258C33.0091 268.793 29.2085 270.038 24.5203 270.038H21.1949C16.5066 270.038 12.7061 268.793 12.7061 267.258Z" fill="black"/>
<path opacity="0.8" fill-rule="evenodd" clip-rule="evenodd" d="M30.0938 587.516C30.0938 585.609 37.5531 584.063 46.7547 584.063H53.2813C62.4828 584.063 69.9422 585.609 69.9422 587.516C69.9422 589.423 62.4828 590.969 53.2813 590.969H46.7547C37.5531 590.969 30.0938 589.423 30.0938 587.516Z" fill="#14625C"/>
<path opacity="0.2" fill-rule="evenodd" clip-rule="evenodd" d="M301.426 676.862C301.426 675.11 305.763 673.69 311.114 673.69H314.909C320.26 673.69 324.597 675.11 324.597 676.862C324.597 678.614 320.26 680.034 314.909 680.034H311.114C305.763 680.034 301.426 678.614 301.426 676.862Z" fill="black"/>
<path opacity="0.2" fill-rule="evenodd" clip-rule="evenodd" d="M16.1816 699.804C16.1816 698.052 20.5192 696.632 25.8698 696.632H29.6649C35.0156 696.632 39.3531 698.052 39.3531 699.804C39.3531 701.557 35.0156 702.977 29.6649 702.977H25.8698C20.5192 702.977 16.1816 701.557 16.1816 699.804Z" fill="black"/>
<path opacity="0.2" fill-rule="evenodd" clip-rule="evenodd" d="M294.518 538.663C294.518 536.911 298.855 535.49 304.206 535.49H308.001C313.352 535.49 317.689 536.911 317.689 538.663C317.689 540.415 313.352 541.835 308.001 541.835H304.206C298.855 541.835 294.518 540.415 294.518 538.663Z" fill="black"/>
<path opacity="0.2" fill-rule="evenodd" clip-rule="evenodd" d="M-15.8818 406.357C-15.8818 405.065 -12.6854 404.019 -8.74238 404.019H-5.94564C-2.00263 404.019 1.19382 405.065 1.19382 406.357C1.19382 407.648 -2.00263 408.694 -5.94564 408.694H-8.74238C-12.6854 408.694 -15.8818 407.648 -15.8818 406.357Z" fill="black"/>
<path fill-rule="evenodd" clip-rule="evenodd" d="M325.747 410.341C326.34 410.341 326.821 410.822 326.821 411.415V418.043C326.821 418.636 326.34 419.117 325.747 419.117C325.154 419.117 324.673 418.636 324.673 418.043V411.415C324.673 410.822 325.154 410.341 325.747 410.341Z" fill="#123335"/>
<path opacity="0.2" fill-rule="evenodd" clip-rule="evenodd" d="M-6.99023 487.465C-6.99023 486.301 -2.6527 485.358 2.69792 485.358H6.49307C11.8437 485.358 16.1812 486.301 16.1812 487.465C16.1812 488.628 11.8437 489.572 6.49307 489.572H2.69792C-2.6527 489.572 -6.99023 488.628 -6.99023 487.465Z" fill="black"/>
<path fill-rule="evenodd" clip-rule="evenodd" d="M310.647 413.495C311.241 413.495 311.722 413.976 311.722 414.57V418.571C311.722 419.165 311.241 419.645 310.647 419.645C310.054 419.645 309.573 419.165 309.573 418.571V414.57C309.573 413.976 310.054 413.495 310.647 413.495Z" fill="#123335"/>
<path fill-rule="evenodd" clip-rule="evenodd" d="M27.1279 258.799C27.7211 258.799 28.202 259.28 28.202 259.873V266.501C28.202 267.094 27.7211 267.575 27.1279 267.575C26.5346 267.575 26.0537 267.094 26.0537 266.501V259.873C26.0537 259.28 26.5346 258.799 27.1279 258.799Z" fill="#123335"/>
<path fill-rule="evenodd" clip-rule="evenodd" d="M338.582 413.086C339.175 413.086 339.656 413.567 339.656 414.161V418.162C339.656 418.756 339.175 419.237 338.582 419.237C337.989 419.237 337.508 418.756 337.508 418.162V414.161C337.508 413.567 337.989 413.086 338.582 413.086Z" fill="#123335"/>
<path fill-rule="evenodd" clip-rule="evenodd" d="M60.7119 578.69C61.3051 578.69 61.786 579.171 61.786 579.764V586.392C61.786 586.986 61.3051 587.466 60.7119 587.466C60.1186 587.466 59.6377 586.986 59.6377 586.392V579.764C59.6377 579.171 60.1186 578.69 60.7119 578.69Z" fill="#123335"/>
<circle cx="325.747" cy="404.305" r="8.39543" fill="#3CB9A4"/>
<circle cx="310.648" cy="410.029" r="5.06894" fill="#5BBEAB"/>
<path fill-rule="evenodd" clip-rule="evenodd" d="M45.0126 581.191C45.6059 581.191 46.0868 581.672 46.0868 582.265V586.267C46.0868 586.86 45.6059 587.341 45.0126 587.341C44.4194 587.341 43.9385 586.86 43.9385 586.267V582.265C43.9385 581.672 44.4194 581.191 45.0126 581.191Z" fill="#123335"/>
<circle cx="338.582" cy="409.62" r="5.06894" fill="#087465"/>
<circle cx="27.1282" cy="255.438" r="5.71998" fill="#5BBEAB"/>
<circle cx="60.7118" cy="572.654" r="8.39543" fill="#3CB9A4"/>
<circle cx="45.0123" cy="577.723" r="5.06894" fill="#087465"/>
<path d="M9.54321 73.387V75.8703" stroke="#1EA197" stroke-width="3.2225" stroke-linecap="round"/>
<path d="M209.547 55.2622V58.4847" stroke="#1EA197" stroke-width="3.2225" stroke-linecap="round"/>
<path d="M273.661 4.80811V8.0306" stroke="#1EA197" stroke-width="3.2225" stroke-linecap="round"/>
<path d="M219.227 8.7124V11.9349" stroke="#1EA197" stroke-width="3.2225" stroke-linecap="round"/>
<path d="M140.496 461.174V464.397" stroke="#266F64" stroke-width="3.2225" stroke-linecap="round"/>
<path d="M64.7668 534.842L64.7668 537.17" stroke="#266F64" stroke-width="3.2225" stroke-linecap="round"/>
<path d="M22.8574 498.77V501.253" stroke="#266F64" stroke-width="3.2225" stroke-linecap="round"/>
<path d="M47.061 474.633L47.061 476.818" stroke="#266F64" stroke-width="3.2225" stroke-linecap="round"/>
<path d="M28.2451 533.767L28.2451 536.006" stroke="#266F64" stroke-width="3.2225" stroke-linecap="round"/>
<path d="M99.5752 518.105L99.5752 520.433" stroke="#266F64" stroke-width="3.2225" stroke-linecap="round"/>
<path d="M66.4282 499.041V501.524" stroke="#266F64" stroke-width="3.2225" stroke-linecap="round"/>
<g opacity="0.9">
<path d="M236.256 651.304V654.527" stroke="#297264" stroke-width="3.2225" stroke-linecap="round"/>
<path d="M213.388 691.299L213.388 693.628" stroke="#297264" stroke-width="3.2225" stroke-linecap="round"/>
<path d="M280.862 663.96V666.444" stroke="#297264" stroke-width="3.2225" stroke-linecap="round"/>
<path d="M223.982 609.589L223.982 611.774" stroke="#297264" stroke-width="3.2225" stroke-linecap="round"/>
<path d="M316.968 705.518L316.968 707.757" stroke="#297264" stroke-width="3.2225" stroke-linecap="round"/>
<path d="M343.123 614.253L343.123 616.581" stroke="#297264" stroke-width="3.2225" stroke-linecap="round"/>
<path d="M268.52 638.121V640.604" stroke="#297264" stroke-width="3.2225" stroke-linecap="round"/>
</g>
<g opacity="0.9">
<path d="M10.5166 645.332V648.554" stroke="#297264" stroke-width="3.2225" stroke-linecap="round"/>
<path d="M191.892 660.76L191.892 663.089" stroke="#297264" stroke-width="3.2225" stroke-linecap="round"/>
<path d="M150.171 687.132V689.615" stroke="#297264" stroke-width="3.2225" stroke-linecap="round"/>
<path d="M48.9243 627.174L48.9243 629.359" stroke="#297264" stroke-width="3.2225" stroke-linecap="round"/>
<path d="M99.6465 696.019L99.6465 698.258" stroke="#297264" stroke-width="3.2225" stroke-linecap="round"/>
<path d="M89.4866 663.089L89.4866 665.417" stroke="#297264" stroke-width="3.2225" stroke-linecap="round"/>
<path d="M137.83 661.292V663.776" stroke="#297264" stroke-width="3.2225" stroke-linecap="round"/>
</g>
<path d="M8.85449 558.396L8.85449 560.725" stroke="#266F64" stroke-width="3.2225" stroke-linecap="round"/>
<path d="M30.0938 574.603V577.087" stroke="#266F64" stroke-width="3.2225" stroke-linecap="round"/>
<path d="M22.843 607.404L22.843 609.589" stroke="#266F64" stroke-width="3.2225" stroke-linecap="round"/>
<path d="M78.7698 562.159V564.643" stroke="#266F64" stroke-width="3.2225" stroke-linecap="round"/>
<g opacity="0.3">
<path d="M243.658 562.52V565.742" stroke="#28695D" stroke-width="3.2225" stroke-linecap="round"/>
<path d="M274.26 585.137L274.26 587.465" stroke="#28695D" stroke-width="3.2225" stroke-linecap="round"/>
<path d="M288.263 575.176V577.659" stroke="#28695D" stroke-width="3.2225" stroke-linecap="round"/>
<path d="M261.662 573.453L261.662 575.639" stroke="#28695D" stroke-width="3.2225" stroke-linecap="round"/>
<path d="M237.738 584.063L237.738 586.301" stroke="#28695D" stroke-width="3.2225" stroke-linecap="round"/>
<path d="M261.918 559.297L261.918 561.626" stroke="#28695D" stroke-width="3.2225" stroke-linecap="round"/>
<path d="M275.922 549.336V551.819" stroke="#28695D" stroke-width="3.2225" stroke-linecap="round"/>
</g>
<path d="M47.0615 348.005L47.0615 350.333" stroke="#266C60" stroke-width="3.2225" stroke-linecap="round"/>
<path d="M148.144 231.439L148.144 233.624" stroke="#266C60" stroke-width="3.2225" stroke-linecap="round"/>
<path d="M97.6191 267.799L97.6191 270.038" stroke="#266C60" stroke-width="3.2225" stroke-linecap="round"/>
<path d="M45.6572 63.5776H48.4615V67.8286C48.4615 68.7038 45.6572 68.7038 45.6572 67.8286V63.5776Z" fill="#023C40"/>
<path d="M44.7911 53.558C45.7898 51.8058 48.322 51.8242 49.2953 53.5906L53.6205 61.4411C53.7782 61.7273 53.8911 62.0772 53.6953 62.3388C52.2369 64.2885 41.6019 64.4742 40.201 62.3613C40.0152 62.081 40.1364 61.7238 40.3029 61.4316L44.7911 53.558Z" fill="#32A691"/>
<path d="M44.9883 49.9734C45.813 48.3653 48.1224 48.397 48.9027 50.0271L51.4719 55.395C51.7803 56.0393 51.6079 56.7968 50.928 57.0157C48.754 57.716 44.4027 57.8173 42.4706 57.0344C41.8998 56.8031 41.83 56.1321 42.1111 55.584L44.9883 49.9734Z" fill="#32A691"/>
<path d="M6.75024 10.5491H10.558V16.3213C10.558 17.5097 6.75024 17.5097 6.75024 16.3213V10.5491Z" fill="#023C40"/>
<path d="M6.39035 -4.48793C7.38912 -6.2401 9.9213 -6.22173 10.8946 -4.45525L17.6491 7.80445C17.8068 8.09064 17.9203 8.42886 17.763 8.7153C16.2045 11.5546 0.733171 11.8314 -0.750989 8.73573C-0.896364 8.4325 -0.77766 8.08709 -0.611132 7.79494L6.39035 -4.48793Z" fill="#3CB9A4"/>
<path d="M6.5615 -9.32712C7.38619 -10.9353 9.69559 -10.9036 10.4758 -9.2734L14.8308 -0.174634C15.1392 0.469655 14.9789 1.2373 14.3129 1.49554C11.4158 2.6189 4.63151 2.79421 2.09564 1.5165C1.54554 1.23933 1.48995 0.562421 1.77103 0.0143128L6.5615 -9.32712Z" fill="#3CB9A4"/>
<path d="M343.146 0.804932H347.275V7.06386C347.275 8.35246 343.146 8.35246 343.146 7.06386V0.804932Z" fill="#023C40"/>
<path d="M342.948 -15.838C343.947 -17.5902 346.479 -17.5718 347.453 -15.8054L354.984 -2.13494C355.142 -1.84875 355.255 -1.51275 355.107 -1.22119C353.526 1.90418 336.498 2.21064 334.995 -1.20102C334.859 -1.50875 334.976 -1.8523 335.143 -2.14444L342.948 -15.838Z" fill="#3CB9A4"/>
<rect x="103.642" y="118.591" width="19.3292" height="2.76131" rx="1.38066" fill="#125459"/>
<rect x="-0.641602" y="191.699" width="21.6947" height="3.09924" rx="1.54962" fill="#0C5462"/>
<rect x="102.555" y="169.066" width="9.88618" height="2.32616" rx="1.16308" fill="#125459"/>
<rect x="147.178" y="169.404" width="9.88618" height="2.32616" rx="1.16308" fill="#125459"/>
<rect x="123.867" y="145.999" width="10.7152" height="2.52123" rx="1.26062" fill="#125459"/>
<rect x="165.127" y="149.479" width="10.7152" height="2.52123" rx="1.26062" fill="#125459"/>
<rect x="62.4355" y="149.042" width="9.07064" height="2.13427" rx="1.06713" fill="#125459"/>
<rect x="24.1211" y="137.16" width="9.07064" height="2.13427" rx="1.06713" fill="#125459"/>
<rect x="249.462" y="132.78" width="9.69816" height="2.28192" rx="1.14096" fill="#125459"/>
<rect x="204.975" y="131.639" width="9.69816" height="2.28192" rx="1.14096" fill="#125459"/>
<path d="M273.959 411.901C270.857 408.28 216.406 409.461 195.193 409.461C170.116 409.461 173.667 437.858 192.913 437.858C216.822 437.858 189.699 450.56 189.699 469.058C189.699 488.493 239.627 482.058 269.433 482.058C311.583 482.058 301.33 451.725 283.3 451.725C263.925 451.725 283.3 422.807 273.959 411.901Z" fill="#12645D"/>
<path d="M275.454 414.347C272.352 410.726 217.901 411.907 196.689 411.907C171.611 411.907 175.163 440.304 194.408 440.304C218.317 440.304 191.194 453.006 191.194 471.504C191.194 490.939 241.122 484.504 270.928 484.504C313.078 484.504 302.825 454.171 284.795 454.171C265.42 454.171 284.795 425.253 275.454 414.347Z" fill="#30ABA2"/>
<path d="M221.027 420.926H228.349" stroke="#0E6B64" stroke-width="1.79376" stroke-linecap="round"/>
<path d="M238.303 431.115H245.624" stroke="#0E6B64" stroke-width="1.79376" stroke-linecap="round"/>
<path d="M237.238 452.501H244.56" stroke="#0E6B64" stroke-width="1.79376" stroke-linecap="round"/>
<path d="M262.497 460.911H269.818" stroke="#0E6B64" stroke-width="1.79376" stroke-linecap="round"/>
<path d="M191.892 429.103H199.213" stroke="#0E6B64" stroke-width="1.79376" stroke-linecap="round"/>
<path d="M215.953 442.766H223.274" stroke="#0E6B64" stroke-width="1.79376" stroke-linecap="round"/>
<path d="M205.184 446.627H188.58C187.499 437.488 193.798 434.783 197.082 434.574C204.709 434.669 205.661 442.649 205.184 446.627Z" fill="#0A434E"/>
<path d="M188.561 446.627H178.995C178.372 441.361 182.001 439.803 183.893 439.682C188.287 439.737 188.836 444.335 188.561 446.627Z" fill="#0A434E"/>
<path d="M287.226 449.65H277.66C277.037 444.384 280.666 442.826 282.558 442.706C286.952 442.76 287.501 447.358 287.226 449.65Z" fill="#0A434E"/>
<path d="M249.275 433.44H237.327C236.549 426.863 241.081 424.917 243.445 424.766C248.933 424.835 249.619 430.578 249.275 433.44Z" fill="#0A434E"/>
<path d="M268.146 473.467H275.467" stroke="#0E6B64" stroke-width="1.79376" stroke-linecap="round"/>
<path d="M215.953 471.457H223.274" stroke="#0E6B64" stroke-width="1.79376" stroke-linecap="round"/>
<path d="M86.3913 232.864C83.9671 229.417 74.5182 225.526 70.0967 224.011L67.2599 226.232L66.5255 229.764L62.6254 227.859L65.8752 225.802L65.98 223.215C61.4705 221.331 51.6674 220.924 47.3296 220.956C48.8575 219.969 52.6946 217.731 55.8199 216.676C59.7266 215.358 63.3628 219.07 66.2031 218.882C69.0435 218.695 69.9506 216.784 71.0779 215.797C71.9797 215.008 73.2321 214.262 73.7455 213.987L72.2697 216.987C71.6335 221.156 78.5805 222.955 81.5563 223.896C83.937 224.65 85.7716 230.189 86.3913 232.864Z" fill="#023C40"/>
<path d="M116.187 212.731C114.388 210.166 107.391 207.26 104.118 206.128L102.023 207.773L101.485 210.396L98.5967 208.974L100.998 207.451L101.071 205.529C97.7318 204.122 90.4788 203.804 87.2697 203.821C88.3984 203.09 91.2336 201.434 93.544 200.655C96.4321 199.682 99.1282 202.446 101.229 202.311C103.33 202.176 103.998 200.758 104.831 200.027C105.497 199.442 106.422 198.89 106.801 198.687L105.714 200.913C105.25 204.009 110.393 205.357 112.596 206.061C114.358 206.624 115.724 210.742 116.187 212.731Z" fill="#023C40"/>
<path opacity="0.2" fill-rule="evenodd" clip-rule="evenodd" d="M22.3809 310.851C22.3809 309.316 29.0973 308.071 37.3824 308.071H43.2589C51.5441 308.071 58.2605 309.316 58.2605 310.851C58.2605 312.386 51.5441 313.63 43.2589 313.63H37.3824C29.0973 313.63 22.3809 312.386 22.3809 310.851Z" fill="black"/>
<path d="M67.2432 263.686L60.1848 260.734L60.7278 259.443H59.2799L58.7369 261.288L57.1081 260.734C55.805 260.734 56.5652 261.841 57.1081 262.394L56.0222 266.637L52.0406 283.437C52.0406 284.323 47.5763 285.774 45.3442 286.389C44.3818 286.436 43.5753 286.816 42.911 287.369C42.0262 285.987 38.9293 286.429 42.0262 288.299C41.8664 288.507 41.719 288.723 41.5838 288.943C40.9773 289.93 40.6135 290.997 40.4576 291.738C41.0368 294.247 37.3206 299.349 36.114 300.21V304.452L35.3901 311.646H37.7429L38.2858 304.452C38.5754 302.386 39.8544 301.378 40.4576 301.132C44.8012 300.984 47.0937 297.75 47.697 296.151H53.4884L52.0406 311.646H54.0314L56.0222 296.151L58.7369 292.462L60.1848 266.637C61.7775 267.08 63.7442 265.469 64.5284 264.608C66.5554 265.346 67.1828 264.3 67.2432 263.686Z" fill="#AB8B39"/>
<circle r="2.21202" transform="matrix(-1 0 0 1 51.7589 288.2)" fill="#125459"/>
<circle r="1.32721" transform="matrix(-1 0 0 1 47.3349 287.315)" fill="#125459"/>
<circle r="1.32721" transform="matrix(-1 0 0 1 43.7958 289.969)" fill="#125459"/>
<circle r="1.32721" transform="matrix(-1 0 0 1 53.5283 283.775)" fill="#125459"/>
<circle r="1.32721" transform="matrix(-1 0 0 1 56.1828 281.12)" fill="#125459"/>
<circle r="0.442404" transform="matrix(-1 0 0 1 54.4131 276.698)" fill="#125459"/>
<circle r="0.884807" transform="matrix(-1 0 0 1 53.9711 278.909)" fill="#125459"/>
<circle r="0.884807" transform="matrix(-1 0 0 1 56.6252 277.14)" fill="#125459"/>
<circle r="0.884807" transform="matrix(-1 0 0 1 55.7407 273.599)" fill="#125459"/>
<circle r="0.884807" transform="matrix(-1 0 0 1 47.7773 290.412)" fill="#125459"/>
<circle cx="294.605" cy="457.36" r="6.35274" fill="#B5CDCB"/>
<circle cx="291.737" cy="458.744" r="0.961482" fill="#0A434E"/>
<path d="M289.144 473.63L288.623 458.698L292.808 462.003L291.226 473.973L289.144 473.63Z" fill="#B5CDCB"/>
<path d="M298.954 451.47H315.547C317.92 451.47 319.843 453.393 319.843 455.766V471.086H298.954V451.47Z" fill="#B5CDCB"/>
<rect x="299.059" y="469.904" width="1.91035" height="6.22289" fill="#B5CDCB"/>
<rect x="302.227" y="469.904" width="1.91035" height="6.22289" fill="#B5CDCB"/>
<rect x="314.392" y="469.904" width="1.91035" height="6.22289" fill="#B5CDCB"/>
<rect x="317.933" y="469.904" width="1.91035" height="6.22289" fill="#B5CDCB"/>
<path d="M301.943 448.624L296.174 452.855L296.905 460.278L301.943 465.316V448.624Z" fill="#B5CDCB"/>
<path d="M125.347 58.4119L125.347 60.1027" stroke="#1EA197" stroke-width="2.34007" stroke-linecap="round"/>
<path d="M341.165 213.851C337.817 211.918 332.389 211.918 329.041 213.851L314.131 222.459C310.783 224.392 310.783 227.526 314.131 229.459L330.136 238.7C333.484 240.633 338.913 240.633 342.261 238.7L357.17 230.092C360.518 228.159 360.518 225.025 357.17 223.092L341.165 213.851Z" fill="#188777"/>
<path d="M341.715 210.433C338.367 208.5 332.938 208.5 329.59 210.433L314.681 219.041C311.333 220.974 311.333 224.108 314.681 226.041L329.59 234.649C332.938 236.582 338.367 236.582 341.715 234.649L356.624 226.041C359.972 224.108 359.972 220.974 356.624 219.041L341.715 210.433Z" fill="#25AA98"/>
<path d="M325.018 218.335H328.462V223.556C328.462 224.631 325.018 224.631 325.018 223.556V218.335Z" fill="#023C40"/>
<path d="M323.196 207.363C324.755 204.628 328.706 204.657 330.225 207.414L334.412 215.012C334.843 215.795 334.945 216.765 334.381 217.459C331.296 221.257 321.924 221.512 318.823 217.484C318.274 216.77 318.389 215.795 318.835 215.013L323.196 207.363Z" fill="#7EE887"/>
<path d="M323.284 207.243C324.82 204.532 328.72 204.516 330.278 207.214L332.078 210.329C332.601 211.233 332.651 212.396 331.855 213.072C329.541 215.041 325.059 215.538 321.965 214.93C320.459 214.635 320.041 212.966 320.797 211.631L323.284 207.243Z" fill="#1FC09A"/>
<path d="M323.528 202.933C324.815 200.423 328.419 200.473 329.636 203.017L332.544 209.092C332.709 209.436 332.82 209.822 332.712 210.188C331.748 213.45 322.671 214.51 320.456 210.513C320.154 209.968 320.258 209.309 320.542 208.754L323.528 202.933Z" fill="#7EE887"/>
<path d="M343.117 222.527H346.561V227.747C346.561 228.822 343.117 228.822 343.117 227.747V222.527Z" fill="#023C40"/>
<path d="M341.294 211.554C342.853 208.82 346.805 208.848 348.324 211.605L352.51 219.203C352.942 219.987 353.044 220.957 352.48 221.651C349.395 225.448 340.022 225.703 336.922 221.675C336.373 220.962 336.488 219.987 336.934 219.205L341.294 211.554Z" fill="#7EE887"/>
<path d="M341.383 211.434C342.919 208.724 346.819 208.708 348.377 211.405L350.177 214.52C350.699 215.425 350.75 216.587 349.954 217.264C347.639 219.232 343.157 219.729 340.063 219.122C338.558 218.826 338.139 217.157 338.896 215.822L341.383 211.434Z" fill="#1FC09A"/>
<path d="M341.626 207.124C342.913 204.615 346.517 204.664 347.735 207.208L350.643 213.283C350.808 213.628 350.918 214.013 350.81 214.38C349.846 217.642 340.769 218.701 338.554 214.705C338.252 214.159 338.356 213.5 338.641 212.946L341.626 207.124Z" fill="#7EE887"/>
</g>
<defs>
<clipPath id="clip0_902_3365">
<rect width="375" height="812" fill="white"/>
</clipPath>
</defs>
</svg>
