<svg width="375" height="812" viewBox="0 0 375 812" fill="none" xmlns="http://www.w3.org/2000/svg">
<defs>
<linearGradient id="paint0_linear_902_3366" x1="24.761" y1="501.832" x2="22.3221" y2="555.335" gradientUnits="userSpaceOnUse">
<stop stop-color="#258B96"/>
<stop offset="1" stop-color="#12867D" stop-opacity="0"/>
</linearGradient>
<linearGradient id="paint1_linear_902_3366" x1="26.7179" y1="570.954" x2="24.8572" y2="611.017" gradientUnits="userSpaceOnUse">
<stop stop-color="#258B96"/>
<stop offset="1" stop-color="#12867D" stop-opacity="0"/>
</linearGradient>
<linearGradient id="paint2_linear_902_3366" x1="253.394" y1="602.709" x2="253.394" y2="654.521" gradientUnits="userSpaceOnUse">
<stop stop-color="#11625B"/>
<stop offset="1" stop-color="#12867D"/>
</linearGradient>
<linearGradient id="paint3_linear_902_3366" x1="79.428" y1="523.459" x2="76.678" y2="584.946" gradientUnits="userSpaceOnUse">
<stop stop-color="#258B96"/>
<stop offset="1" stop-color="#12867D" stop-opacity="0"/>
</linearGradient>
<linearGradient id="paint4_linear_902_3366" x1="298.934" y1="629.967" x2="298.934" y2="654.638" gradientUnits="userSpaceOnUse">
<stop stop-color="#11625B"/>
<stop offset="1" stop-color="#12867D"/>
</linearGradient>
<linearGradient id="paint5_linear_902_3366" x1="310.585" y1="647.742" x2="367.737" y2="678.933" gradientUnits="userSpaceOnUse">
<stop stop-color="#61CFC6"/>
<stop offset="1" stop-color="#12867D" stop-opacity="0"/>
</linearGradient>
<linearGradient id="paint6_linear_902_3366" x1="-1.41284" y1="553.021" x2="105.315" y2="648.392" gradientUnits="userSpaceOnUse">
<stop stop-color="#61CFC6"/>
<stop offset="1" stop-color="#12867D" stop-opacity="0"/>
</linearGradient>
<clipPath id="clip0_902_3366">
<rect width="375" height="812" fill="white"/>
</clipPath>
</defs>
<g clip-path="url(#clip0_902_3366)">
<path d="M295.686 432.015C290.543 429.443 284.971 422.275 282.829 419.012L330.604 417.405L310.296 440.927L309.419 432.015L306.935 440.927C305.328 439.028 300.828 434.586 295.686 432.015Z" fill="#11444F"/>
<path d="M310.316 406.608C306.33 405.042 300.979 405.333 297.57 407.302L285.394 414.331C281.228 416.737 281.528 420.687 286.043 422.872L289.841 424.71L306.065 426.399C308.601 426.663 311.216 426.353 313.368 425.535L328.095 419.936C332.006 418.449 332.049 415.145 328.177 413.624L310.316 406.608Z" fill="#113840"/>
<path d="M313.602 389.791C313.602 387.474 312.682 385.253 311.044 383.615C309.406 381.977 307.184 381.056 304.868 381.056C302.551 381.056 300.329 381.977 298.691 383.615C297.053 385.253 296.133 387.474 296.133 389.791L304.868 389.791H313.602Z" fill="#084550"/>
<path d="M295.828 388.998L292.957 416.79H317.572L313.47 388.998H295.828Z" fill="#289379"/>
<rect x="298.878" y="397.589" width="3.2225" height="6.06522" fill="#0C5462"/>
<rect x="303.653" y="408.332" width="3.2225" height="8.45792" fill="#0C5462"/>
<rect x="308.388" y="397.589" width="3.2225" height="6.06522" fill="#0C5462"/>
<path d="M6.25831 512.478C1.8774 527.106 -3.4162 549.429 -5.51538 558.763H50.3412C46.5079 546.477 38.6223 520.02 37.7461 512.478C36.6509 503.049 11.7344 494.192 6.25831 512.478Z" fill="url(#paint0_linear_902_3366)"/>
<path d="M13.1186 578.926C9.89871 589.881 6.00797 606.598 4.46509 613.587H45.5191C42.7017 604.387 36.9058 584.575 36.2618 578.926C35.4569 571.866 17.1435 565.233 13.1186 578.926Z" fill="url(#paint1_linear_902_3366)"/>
<circle opacity="0.5" r="1.72364" transform="matrix(-1 0 0 1 333.36 354.939)" fill="#64C2B4"/>
<circle opacity="0.5" r="1.72364" transform="matrix(-1 0 0 1 343.759 101.977)" fill="#64C2B4"/>
<circle opacity="0.5" r="1.72364" transform="matrix(-1 0 0 1 21.4143 132.662)" fill="#64C2B4"/>
<circle opacity="0.5" r="1.72364" transform="matrix(-1 0 0 1 230.153 51.7236)" fill="#64C2B4"/>
<circle opacity="0.5" r="1.72364" transform="matrix(-1 0 0 1 219.086 440.928)" fill="#64C2B4"/>
<circle opacity="0.5" r="1.72364" transform="matrix(-1 0 0 1 33.9436 302.068)" fill="#64C2B4"/>
<circle opacity="0.5" r="1.72364" transform="matrix(-1 0 0 1 237.114 118.743)" fill="#64C2B4"/>
<circle opacity="0.5" r="1.72364" transform="matrix(-1 0 0 1 338.17 292.427)" fill="#64C2B4"/>
<circle r="1.72364" transform="matrix(-1 0 0 1 110.9 564.17)" fill="#64C2B4"/>
<circle opacity="0.5" r="1.72364" transform="matrix(-1 0 0 1 324.894 407.544)" fill="#64C2B4"/>
<circle opacity="0.5" r="1.72364" transform="matrix(-1 0 0 1 308.861 587.157)" fill="#64C2B4"/>
<circle opacity="0.5" r="1.72364" transform="matrix(-1 0 0 1 346.445 510.33)" fill="#87EADB"/>
<circle opacity="0.5" r="1.72364" transform="matrix(-1 0 0 1 330.341 616.79)" fill="#87EADB"/>
<circle r="1.72364" transform="matrix(-1 0 0 1 251.12 642.893)" fill="#61CFC6"/>
<circle r="1.72364" transform="matrix(-1 0 0 1 175.941 488.484)" fill="#61CFC6"/>
<circle r="1.72364" transform="matrix(-1 0 0 1 60.9797 693.114)" fill="#61CFC6"/>
<path opacity="0.2" fill-rule="evenodd" clip-rule="evenodd" d="M219.086 796.549C219.086 795.205 223.466 794.116 228.869 794.116H232.701C238.103 794.116 242.483 795.205 242.483 796.549C242.483 797.893 238.103 798.982 232.701 798.982H228.869C223.466 798.982 219.086 797.893 219.086 796.549Z" fill="black"/>
<path opacity="0.2" fill-rule="evenodd" clip-rule="evenodd" d="M307.137 767.143C307.137 766.282 309.943 765.584 313.404 765.584H315.859C319.32 765.584 322.126 766.282 322.126 767.143C322.126 768.004 319.32 768.702 315.859 768.702H313.404C309.943 768.702 307.137 768.004 307.137 767.143Z" fill="black"/>
<path d="M234.473 605.268C229.342 622.078 223.142 647.73 220.683 658.456H286.104C281.615 644.338 273.371 613.759 271.353 605.268C266.738 585.849 240.887 584.255 234.473 605.268Z" fill="url(#paint2_linear_902_3366)"/>
<path d="M57.7569 535.692C52.6258 552.502 46.4257 578.155 43.967 588.88H109.389C104.899 574.763 95.663 544.36 94.6367 535.692C93.354 524.858 64.1708 514.68 57.7569 535.692Z" fill="url(#paint3_linear_902_3366)"/>
<path d="M235.927 405.48H202.628C205.482 386.734 219.278 391.811 220.467 399.622C224.927 392.787 233.152 400.598 235.927 405.48Z" fill="#2E8394"/>
<path opacity="0.4" d="M120.153 179.448H86.8538C89.708 160.702 103.503 165.779 104.693 173.59C109.152 166.755 117.378 174.566 120.153 179.448Z" fill="#2E8394"/>
<path opacity="0.4" d="M43.7222 332.591H10.4231C13.2773 313.845 27.0727 318.922 28.2619 326.733C32.7216 319.898 40.9473 327.709 43.7222 332.591Z" fill="#2E8394"/>
<path opacity="0.4" d="M286.721 65.6419H253.422C256.276 46.896 270.072 51.973 271.261 59.7841C275.721 52.9493 283.946 60.7601 286.721 65.6419Z" fill="#2E8394"/>
<path opacity="0.4" d="M382.997 229.797H349.698C352.552 211.051 366.348 216.128 367.537 223.939C371.997 217.104 380.222 224.915 382.997 229.797Z" fill="#2E8394"/>
<path d="M256.477 162.645H289.776C286.921 143.899 273.126 148.976 271.937 156.787C267.477 149.952 259.251 157.763 256.477 162.645Z" fill="#2E8394"/>
<path d="M42.3291 804.916V808.138" stroke="#1EA197" stroke-width="3.2225" stroke-linecap="round"/>
<path d="M92.1091 768.47L92.1091 770.799" stroke="#1EA197" stroke-width="3.2225" stroke-linecap="round"/>
<path d="M29.9556 781.032V783.515" stroke="#1EA197" stroke-width="3.2225" stroke-linecap="round"/>
<path d="M19.759 719.459L19.759 721.788" stroke="#1EA197" stroke-width="3.2225" stroke-linecap="round"/>
<path d="M22.4124 696.181V698.665" stroke="#1EA197" stroke-width="3.2225" stroke-linecap="round"/>
<path d="M272.985 783.229V786.452" stroke="#1EA197" stroke-width="3.2225" stroke-linecap="round"/>
<path d="M348.138 771.574V774.797" stroke="#1EA197" stroke-width="3.2225" stroke-linecap="round"/>
<path opacity="0.2" fill-rule="evenodd" clip-rule="evenodd" d="M111.385 751.556C111.385 750.213 115.765 749.123 121.167 749.123H124.999C130.402 749.123 134.782 750.213 134.782 751.556C134.782 752.9 130.402 753.99 124.999 753.99H121.167C115.765 753.99 111.385 752.9 111.385 751.556Z" fill="black"/>
<path d="M122.626 745.68H126.053V750.875C126.053 751.945 122.626 751.945 122.626 750.875V745.68Z" fill="#023C40"/>
<path d="M122.074 732.546C123.073 730.793 125.605 730.812 126.579 732.578L132.412 743.166C132.57 743.452 132.684 743.794 132.513 744.073C130.986 746.574 117.356 746.815 115.898 744.094C115.739 743.797 115.86 743.449 116.026 743.156L122.074 732.546Z" fill="#3CB9A4"/>
<path d="M122.255 728.181C123.08 726.573 125.39 726.605 126.17 728.235L129.848 735.919C130.156 736.563 129.992 737.328 129.321 737.573C126.69 738.533 120.844 738.679 118.528 737.593C117.97 737.332 117.909 736.656 118.19 736.108L122.255 728.181Z" fill="#3CB9A4"/>
<path d="M6.25192 807.744C7.25069 805.991 9.78288 806.01 10.7561 807.776L17.5106 820.036C17.6683 820.322 17.7818 820.66 17.6246 820.947C16.066 823.786 0.594743 824.063 -0.889417 820.967C-1.03479 820.664 -0.916087 820.319 -0.74956 820.026L6.25192 807.744Z" fill="#3CB9A4"/>
<path d="M6.42307 802.904C7.24776 801.296 9.55717 801.328 10.3374 802.958L14.6924 812.057C15.0008 812.701 14.8404 813.469 14.1745 813.727C11.2774 814.85 4.49308 815.026 1.95721 813.748C1.40712 813.471 1.35152 812.794 1.6326 812.246L6.42307 802.904Z" fill="#3CB9A4"/>
<path d="M342.81 796.393C343.809 794.641 346.341 794.66 347.314 796.426L354.846 810.097C355.004 810.383 355.116 810.719 354.969 811.01C353.388 814.136 336.359 814.442 334.856 811.03C334.721 810.723 334.838 810.379 335.004 810.087L342.81 796.393Z" fill="#3CB9A4"/>
<path d="M342.973 791.154C343.797 789.545 346.107 789.577 346.887 791.207L351.813 801.5C352.122 802.144 351.966 802.913 351.304 803.182C348.191 804.445 340.604 804.646 337.887 803.204C337.343 802.915 337.289 802.237 337.57 801.689L342.973 791.154Z" fill="#3CB9A4"/>
<path d="M314.728 762.718H317.257V766.551C317.257 767.341 314.728 767.341 314.728 766.551V762.718Z" fill="#023C40"/>
<path d="M313.723 754.073C314.721 752.321 317.253 752.339 318.227 754.106L321.886 760.747C322.044 761.033 322.156 761.384 321.948 761.637C320.537 763.348 311.195 763.51 309.835 761.66C309.635 761.389 309.757 761.03 309.924 760.738L313.723 754.073Z" fill="#32A691"/>
<path d="M313.927 750.832C314.751 749.224 317.061 749.256 317.841 750.886L319.921 755.231C320.229 755.875 320.054 756.628 319.37 756.833C317.411 757.423 313.698 757.506 311.946 756.852C311.369 756.636 311.293 755.968 311.574 755.42L313.927 750.832Z" fill="#32A691"/>
<path d="M236.625 791.438H239.546V795.865C239.546 796.776 236.625 796.776 236.625 795.865V791.438Z" fill="#023C40"/>
<path d="M235.818 780.837C236.817 779.085 239.349 779.103 240.322 780.87L244.928 789.23C245.086 789.517 245.199 789.866 245.008 790.131C243.531 792.182 232.344 792.378 230.931 790.152C230.751 789.868 230.872 789.513 231.039 789.221L235.818 780.837Z" fill="#32A691"/>
<path d="M236.012 777.108C236.836 775.5 239.146 775.531 239.926 777.161L242.702 782.961C243.01 783.605 242.841 784.364 242.163 784.588C239.901 785.336 235.275 785.446 233.269 784.608C232.7 784.371 232.632 783.698 232.913 783.15L236.012 777.108Z" fill="#32A691"/>
<path d="M289.925 631.186C287.482 639.19 284.529 651.405 283.359 656.511H314.509C312.372 649.789 308.518 635.211 307.485 631.186C305.3 622.664 292.979 621.18 289.925 631.186Z" fill="url(#paint4_linear_902_3366)"/>
<path fill-rule="evenodd" clip-rule="evenodd" d="M310.585 643.713H337.149C341.177 644.161 348.804 646.077 347.085 650.159C346.817 652.128 348.106 655.959 355.41 655.53H390.59V666.809H355.41C350.129 667.704 339.083 668.098 337.149 662.512C337.507 659.826 337.686 654.348 335.538 653.918H313.137L310.585 643.713ZM324.228 650.301C326.585 650.301 328.496 649.62 328.496 648.78C328.496 647.939 326.585 647.258 324.228 647.258C321.871 647.258 319.96 647.939 319.96 648.78C319.96 649.62 321.871 650.301 324.228 650.301ZM360.553 661.855C360.553 662.695 357.613 663.377 353.986 663.377C350.36 663.377 347.42 662.695 347.42 661.855C347.42 661.015 350.36 660.334 353.986 660.334C357.613 660.334 360.553 661.015 360.553 661.855ZM340.534 655.898C341.126 655.898 341.605 655.217 341.605 654.377C341.605 653.537 341.126 652.855 340.534 652.855C339.943 652.855 339.464 653.537 339.464 654.377C339.464 655.217 339.943 655.898 340.534 655.898Z" fill="url(#paint5_linear_902_3366)"/>
<path fill-rule="evenodd" clip-rule="evenodd" d="M355.539 331.18C354.493 331.632 353.373 331.96 352.194 332.143C344.727 333.3 337.736 328.186 336.578 320.719C335.889 316.275 337.422 311.999 340.35 309.022C334.77 311.435 331.296 317.386 332.271 323.674C333.429 331.141 340.42 336.256 347.887 335.098C350.91 334.629 353.547 333.205 355.539 331.18Z" fill="#61CFC6"/>
<path fill-rule="evenodd" clip-rule="evenodd" d="M-1.41284 546.654H45.1212C51.4878 547.362 63.5419 550.389 60.8255 556.841C60.401 559.953 62.4383 566.009 73.983 565.33H205.626V583.156H73.983C65.6357 584.571 48.1772 585.193 45.1212 576.365C45.6872 572.121 45.9701 563.462 42.5746 562.783H-1.41284V546.654ZM24.6997 557.066C28.4254 557.066 31.4457 555.99 31.4457 554.662C31.4457 553.333 28.4254 552.257 24.6997 552.257C20.974 552.257 17.9537 553.333 17.9537 554.662C17.9537 555.99 20.974 557.066 24.6997 557.066ZM82.1112 575.327C82.1112 576.655 77.4646 577.731 71.7328 577.731C66.0009 577.731 61.3543 576.655 61.3543 575.327C61.3543 573.998 66.0009 572.922 71.7328 572.922C77.4646 572.922 82.1112 573.998 82.1112 575.327ZM50.4713 565.914C51.406 565.914 52.1636 564.837 52.1636 563.509C52.1636 562.181 51.406 561.104 50.4713 561.104C49.5367 561.104 48.7791 562.181 48.7791 563.509C48.7791 564.837 49.5367 565.914 50.4713 565.914Z" fill="url(#paint6_linear_902_3366)"/>
<path d="M79.1955 220.377H14.5146L34.7082 259.41L43.6599 244.491L60.6682 251.354L79.1955 220.377Z" fill="#11444F"/>
<path d="M49.2015 204.485C45.2119 202.885 39.811 203.164 36.3764 205.147L18.1385 215.677C13.9852 218.075 14.269 222.01 18.753 224.2L26.2576 227.866L47.9841 230.449C50.5553 230.755 53.2317 230.467 55.4397 229.647L76.5073 221.825C80.4492 220.361 80.5508 217.055 76.7013 215.511L49.2015 204.485Z" fill="#266F7D"/>
<path d="M46.9165 176.584L46.9165 182.659" stroke="#57A2B0" stroke-width="1.66075" stroke-linecap="round"/>
<path d="M60.5803 192.128L60.5803 198.203" stroke="#57A2B0" stroke-width="1.66075" stroke-linecap="round"/>
<path d="M33.2517 192.128L33.2517 198.203" stroke="#57A2B0" stroke-width="1.66075" stroke-linecap="round"/>
<path d="M28.6279 198.713C28.6279 196.16 30.6982 194.089 33.2521 194.089V194.089C35.8059 194.089 37.8762 196.16 37.8762 198.713V220.379H28.6279V198.713Z" fill="#57A2B0"/>
<path d="M55.9563 198.713C55.9563 196.16 58.0266 194.089 60.5804 194.089V194.089C63.1343 194.089 65.2046 196.16 65.2046 198.713V220.379H55.9563V198.713Z" fill="#57A2B0"/>
<path d="M55.9563 198.713C55.9563 196.16 58.0266 194.089 60.5804 194.089V194.089C63.1343 194.089 65.2046 196.16 65.2046 198.713V201.779H55.9563V198.713Z" fill="#214C55"/>
<path d="M28.6279 198.713C28.6279 196.16 30.6982 194.089 33.2521 194.089V194.089C35.8059 194.089 37.8762 196.16 37.8762 198.713V201.779H28.6279V198.713Z" fill="#214C55"/>
<path d="M42.292 183.439C42.292 180.885 44.3623 178.815 46.9161 178.815V178.815C49.47 178.815 51.5403 180.885 51.5403 183.439V205.104H42.292V183.439Z" fill="#57A2B0"/>
<path d="M42.292 183.439C42.292 180.885 44.3623 178.815 46.9161 178.815V178.815C49.47 178.815 51.5403 180.885 51.5403 183.439V186.504H42.292V183.439Z" fill="#214C55"/>
<path d="M35.6938 204.74C35.6938 198.858 40.4624 194.089 46.3447 194.089V194.089C52.227 194.089 56.9955 198.858 56.9955 204.74V220.379H35.6938V204.74Z" fill="#57A2B0"/>
<path d="M44.3779 211.162C44.3779 210.075 45.2585 209.195 46.3448 209.195V209.195C47.4311 209.195 48.3117 210.075 48.3117 211.162V220.377H44.3779V211.162Z" fill="#214C55"/>
<path d="M58.0793 205.756C58.0793 205.19 58.5387 204.73 59.1054 204.73V204.73C59.6721 204.73 60.1315 205.19 60.1315 205.756V208.394H58.0793V205.756Z" fill="#214C55"/>
<path d="M29.1736 205.756C29.1736 205.19 29.633 204.73 30.1996 204.73V204.73C30.7663 204.73 31.2257 205.19 31.2257 205.756V208.394H29.1736V205.756Z" fill="#214C55"/>
<path d="M44.1272 189.491C44.1272 188.924 44.5866 188.465 45.1533 188.465V188.465C45.7199 188.465 46.1793 188.924 46.1793 189.491V192.128H44.1272V189.491Z" fill="#214C55"/>
<path d="M62.0134 205.756C62.0134 205.19 62.4728 204.73 63.0395 204.73V204.73C63.6062 204.73 64.0656 205.19 64.0656 205.756V208.394H62.0134V205.756Z" fill="#214C55"/>
<path d="M32.7007 205.756C32.7007 205.19 33.1601 204.73 33.7267 204.73V204.73C34.2934 204.73 34.7528 205.19 34.7528 205.756V208.394H32.7007V205.756Z" fill="#214C55"/>
<path d="M47.6541 189.491C47.6541 188.924 48.1134 188.465 48.6801 188.465V188.465C49.2468 188.465 49.7062 188.924 49.7062 189.491V192.128H47.6541V189.491Z" fill="#214C55"/>
<path d="M35.6938 204.74C35.6938 198.858 40.4624 194.089 46.3447 194.089V194.089C52.227 194.089 56.9955 198.858 56.9955 204.74V205.831H35.6938V204.74Z" fill="#214C55"/>
<path d="M61.7532 655.899L68.8513 658.281" stroke="#D8E9F7" stroke-width="1.96366"/>
<path d="M336.597 124.253H296.017L304.968 155.815L315.71 135.568L325.855 145.691L336.597 124.253Z" fill="#11444F"/>
<path d="M315.5 115.428C313.195 114.575 310.171 114.763 308.234 115.881L297.52 122.067C295.109 123.459 295.274 125.744 297.877 127.015L302.233 129.143L315.283 130.695C316.511 130.841 317.787 130.754 318.923 130.448L334.142 126.346C336.868 125.612 337.12 123.43 334.588 122.493L315.5 115.428Z" fill="#266F7D"/>
<rect x="323.629" y="89.0166" width="3.4173" height="4.23047" fill="#289379"/>
<rect x="305.567" y="93.2471" width="21.4798" height="31.4063" fill="#289379"/>
<rect x="305.567" y="89.0166" width="3.4173" height="4.23047" fill="#289379"/>
<path d="M312.9 113.037C312.9 111.186 314.4 109.686 316.251 109.686V109.686C318.102 109.686 319.603 111.186 319.603 113.037V121.652H312.9V113.037Z" fill="#0C5462"/>
<circle cx="310.941" cy="100.303" r="2.66429" fill="#0C5462" stroke="#51AA94" stroke-width="0.903999"/>
<circle cx="321.562" cy="100.303" r="2.66429" fill="#0C5462" stroke="#51AA94" stroke-width="0.903999"/>
<rect x="311.325" y="89.0166" width="3.4173" height="4.23047" fill="#289379"/>
<rect x="317.084" y="89.0166" width="3.4173" height="4.23047" fill="#289379"/>
<rect x="305.567" y="89.0166" width="1.62538" height="4.23047" fill="#289379"/>
<rect x="311.325" y="89.0166" width="1.62538" height="4.23047" fill="#289379"/>
<rect x="317.084" y="89.0166" width="1.62538" height="4.23047" fill="#289379"/>
<rect x="323.629" y="89.0166" width="1.62538" height="4.23047" fill="#289379"/>
<path d="M56.392 715.891C53.044 713.958 47.6157 713.958 44.2677 715.891L29.3583 724.499C26.0102 726.432 26.0102 729.566 29.3583 731.499L45.3635 740.739C48.7115 742.672 54.1398 742.672 57.4878 740.739L72.3972 732.131C75.7453 730.198 75.7453 727.064 72.3972 725.131L56.392 715.891Z" fill="#11756C"/>
<path d="M56.9418 712.473C53.5938 710.54 48.1655 710.54 44.8175 712.473L29.9081 721.081C26.56 723.014 26.56 726.148 29.9081 728.081L44.8175 736.689C48.1655 738.622 53.5938 738.622 56.9418 736.689L71.8512 728.081C75.1993 726.148 75.1993 723.014 71.8512 721.081L56.9418 712.473Z" fill="#25AA98"/>
<path opacity="0.2" fill-rule="evenodd" clip-rule="evenodd" d="M36.8875 726.287C36.8875 725.167 41.7871 724.259 47.8311 724.259H52.118C58.162 724.259 63.0616 725.167 63.0616 726.287C63.0616 727.407 58.162 728.315 52.118 728.315H47.8311C41.7871 728.315 36.8875 727.407 36.8875 726.287Z" fill="black"/>
<path d="M69.6145 691.88L64.4654 689.727L64.8615 688.785H63.8053L63.4092 690.131L62.221 689.727C61.2704 689.727 61.8249 690.535 62.221 690.938L61.4288 694.033L58.5242 706.289C58.5242 706.935 55.2675 707.994 53.6392 708.442C52.9371 708.476 52.3488 708.754 51.8642 709.157C51.2187 708.149 48.9596 708.472 51.2187 709.836C51.1021 709.987 50.9946 710.145 50.896 710.306C50.4535 711.025 50.1881 711.804 50.0745 712.345C50.4969 714.175 47.786 717.897 46.9058 718.525V721.62L46.3777 726.868H48.0941L48.4901 721.62C48.7014 720.112 49.6344 719.377 50.0745 719.197C53.2431 719.09 54.9155 716.73 55.3556 715.564H59.5804L58.5242 726.868H59.9765L61.4288 715.564L63.4092 712.873L64.4654 694.033C65.6273 694.356 67.062 693.181 67.6341 692.553C69.1128 693.091 69.5705 692.329 69.6145 691.88Z" fill="#DEAF67"/>
<circle r="1.61367" transform="matrix(-1 0 0 1 58.3187 709.763)" fill="#125459"/>
<circle r="0.9682" transform="matrix(-1 0 0 1 55.0914 709.118)" fill="#125459"/>
<circle r="0.9682" transform="matrix(-1 0 0 1 52.5096 711.054)" fill="#125459"/>
<circle r="0.9682" transform="matrix(-1 0 0 1 59.6094 706.535)" fill="#125459"/>
<circle r="0.9682" transform="matrix(-1 0 0 1 61.546 704.599)" fill="#125459"/>
<circle r="0.322733" transform="matrix(-1 0 0 1 60.2549 701.372)" fill="#125459"/>
<circle r="0.645467" transform="matrix(-1 0 0 1 59.9327 702.985)" fill="#125459"/>
<circle r="0.645467" transform="matrix(-1 0 0 1 61.8687 701.695)" fill="#125459"/>
<circle r="0.645467" transform="matrix(-1 0 0 1 61.2234 699.113)" fill="#125459"/>
<circle r="0.645467" transform="matrix(-1 0 0 1 55.4141 711.377)" fill="#125459"/>
<path d="M29.0054 402.975C25.2849 401.305 19.9933 401.496 16.6611 403.419L-2.69011 414.592C-6.33993 416.699 -6.33993 420.116 -2.6901 422.223L16.8984 433.532C20.6539 435.701 26.7802 435.628 30.3794 433.374L48.4188 422.072C49.9607 421.107 50.8394 419.849 50.89 418.536L51.0028 415.608C51.0686 413.9 49.7304 412.276 47.3949 411.228L29.0054 402.975Z" fill="#11444F"/>
<path d="M29.7485 399.848C26.0987 397.741 20.1811 397.741 16.5313 399.848L-2.0436 410.572C-5.69342 412.68 -5.69341 416.096 -2.04359 418.203L16.5313 428.928C20.1811 431.035 26.0987 431.035 29.7485 428.928L48.3234 418.203C51.9732 416.096 51.9732 412.68 48.3234 410.572L29.7485 399.848Z" fill="#266F7D"/>
<path opacity="0.3" d="M26.3005 403.358C24.201 402.146 20.7971 402.146 18.6976 403.358L5.94674 410.72C3.84727 411.932 3.84727 413.897 5.94674 415.11L17.5158 421.789C19.6153 423.001 23.0192 423.001 25.1187 421.789L37.8695 414.427C39.969 413.215 39.969 411.25 37.8695 410.038L26.3005 403.358Z" fill="#023C40"/>
<path d="M20.687 402.867H22.1017V418.779L20.687 418.094V402.867Z" fill="#F4F1EC"/>
<path d="M22.1016 402.867H23.7025V418.094L22.1016 418.779V402.867Z" fill="#9E9E9E"/>
<path fill-rule="evenodd" clip-rule="evenodd" d="M22.0964 397.547L12.7856 393.068L12.7856 402.707L14.7984 403.676L14.7984 401.287C14.7984 399.488 16.1133 398.661 17.7352 399.441C19.3571 400.221 20.6719 402.313 20.6719 404.113V406.501L22.0964 407.186V397.547Z" fill="#F4F1EC"/>
<path d="M22.1017 387.431C30.2173 387.76 30.2172 393.668 30.2172 393.668L22.1016 397.572L13.9861 393.668C13.9861 393.668 13.9861 387.102 22.1017 387.431Z" fill="#9E9E9E"/>
<path d="M22.0093 387.3C22.0093 387.3 24.49 389.408 23.9963 392.699C23.5026 395.99 22.0093 397.44 22.0093 397.44C22.0093 397.44 15.1133 394.799 13.8937 393.536C14.2681 387.3 22.0093 387.3 22.0093 387.3Z" fill="#F4F1EC"/>
<rect x="21.1926" y="386.146" width="1.12014" height="1.82773" fill="#F4F1EC"/>
<path fill-rule="evenodd" clip-rule="evenodd" d="M22.0964 397.504L31.9073 392.785V402.532L29.6824 403.602V401.223C29.6824 399.423 28.3675 398.597 26.7456 399.377C25.1237 400.157 23.8089 402.249 23.8089 404.048L23.8089 406.428L22.0964 407.252L22.0964 397.504Z" fill="#9E9E9E"/>
<path d="M29.5269 399.725H31.9078V414.61L30.0444 415.388L29.5269 399.725Z" fill="#9E9E9E"/>
<path d="M29.5269 401.845H30.1126L30.0444 415.407L29.5269 415.297V401.845Z" fill="#464646"/>
<path d="M28.009 399.027C29.9646 398.84 30.2286 400.838 30.1162 401.86H29.4861C29.5492 400.213 28.7208 399.269 28.009 399.027Z" fill="#464646"/>
<path d="M15.167 399.699H12.786V414.584L14.6494 415.362L15.167 399.699Z" fill="#F4F1EC"/>
<path d="M15.167 401.819H14.5812L14.6494 415.381L15.167 415.271V401.819Z" fill="#464646"/>
<path d="M16.6848 399.129C14.7293 398.95 14.4652 400.858 14.5776 401.835H15.2077C15.1446 400.261 15.973 399.36 16.6848 399.129Z" fill="#464646"/>
</g>
</svg>
