<svg width="375" height="812" viewBox="0 0 375 812" fill="none" xmlns="http://www.w3.org/2000/svg">
<g clip-path="url(#clip0_902_3367)">
<path d="M204.437 19.3696C202.446 20.6384 202.006 20.2332 202.265 19.3696H204.437C207.023 17.7217 212.227 13.2498 221.918 3.29023C243.357 -18.7445 246.335 -38.3971 263.605 -38.9926C280.876 -39.5882 289.809 -3.85616 315.416 -0.282963C341.024 3.29023 348.766 -22.3177 365.441 -21.7222C382.116 -21.1266 383.307 15.2009 410.106 19.3696H204.437Z" fill="url(#paint0_linear_902_3367)"/>
<path d="M22.3163 119.582L21.4136 110.864L38.6305 122.069H51.0036L66.5492 112.218V118.21L57.666 126.436L53.2244 132.792H38.6305L27.5265 126.436V123.612L22.3163 119.582Z" fill="#1D3D63"/>
<path d="M38.7991 123.05L21.4136 110.864L24.0883 105.598L40.8052 96.8717L49.8323 97.543L66.5492 108.283L68.2495 113.196L49.8323 123.05H38.7991Z" fill="#446B97"/>
<rect width="20.3627" height="11.9368" transform="matrix(0.866025 0.5 -2.20305e-08 1 39.3262 90.3149)" fill="#9E7E50"/>
<rect width="13.7834" height="10.7694" transform="matrix(0.866025 -0.5 2.20305e-08 1 27.3896 97.2471)" fill="#9E7E50"/>
<path d="M31.0826 95.2301L27.3896 97.3252L44.4237 107.518L56.1288 100.424L38.4553 90.666L36.6999 91.3682L34.9445 90.3149L31.7848 92.0703L31.0826 95.2301Z" fill="#EFAF4E"/>
<path d="M47.7455 102.336L31.8978 92.2537L30.8701 95.2302L47.3944 105.496L47.7455 102.336Z" fill="#AC8448"/>
<path d="M55.5654 100.424L38.3783 90.8447L36.6877 91.4082L53.5931 101.833L55.5654 100.424Z" fill="#AC8448"/>
<path d="M51.0941 100.145L47.9343 102.252L47.5833 104.007V105.411L53.5929 101.833L51.0941 100.145Z" fill="#AC8448"/>
<path d="M32.4612 92.0394L34.2166 91.1266L36.6742 94.2863L32.4612 92.0394Z" fill="#F4F1EC"/>
<rect width="20.3627" height="11.9368" rx="0.611258" transform="matrix(0.866025 0.5 -2.20305e-08 1 27.3896 96.912)" fill="#4E391C"/>
<rect width="13.9321" height="11.9368" rx="0.611258" transform="matrix(0.866025 -0.5 2.20305e-08 1 44.8152 107.167)" fill="#4E391C"/>
<rect width="20.702" height="11.049" transform="matrix(0.866025 0.5 -2.20305e-08 1 38.8723 79.7826)" fill="#4E391C"/>
<path d="M39.18 80.9097C39.772 80.9097 40.3582 81.0336 40.9051 81.2743C41.4521 81.515 41.9491 81.8678 42.3677 82.3126C42.7863 82.7574 43.1184 83.2854 43.3449 83.8665C43.5715 84.4477 43.6881 85.0705 43.6881 85.6995C43.6881 86.3285 43.5715 86.9514 43.3449 87.5325C43.1184 88.1137 42.7863 88.6417 42.3677 89.0865C41.9491 89.5312 41.4521 89.8841 40.9051 90.1248C40.3582 90.3655 39.772 90.4894 39.18 90.4894L39.18 85.6995L39.18 80.9097Z" fill="#675131"/>
<path d="M56.5294 90.3151C57.1287 90.3151 57.7222 90.4604 58.276 90.7427C58.8297 91.025 59.3329 91.4387 59.7567 91.9604C60.1805 92.482 60.5167 93.1012 60.746 93.7827C60.9754 94.4643 61.0934 95.1947 61.0934 95.9324C61.0934 96.6701 60.9754 97.4005 60.746 98.082C60.5167 98.7636 60.1805 99.3828 59.7567 99.9044C59.3329 100.426 58.8297 100.84 58.276 101.122C57.7222 101.404 57.1287 101.55 56.5294 101.55L56.5294 95.9324L56.5294 90.3151Z" fill="#9E7E50"/>
<path d="M49.8489 132.755V123.051L68.2494 113.042L66.5491 118.086L57.7476 126.436L53.234 132.755H49.8489Z" fill="#4579A7"/>
<path d="M-34.7573 348.302C-36.7486 349.571 -37.1883 349.166 -36.9292 348.302H-34.7573C-32.1709 346.655 -26.9669 342.183 -17.2765 332.223C4.16261 310.188 7.14023 290.536 24.4107 289.94C41.6812 289.345 50.6142 325.077 76.2221 328.65C101.83 332.223 109.572 306.615 126.247 307.211C142.922 307.806 144.113 344.134 170.912 348.302H-34.7573Z" fill="url(#paint1_linear_902_3367)"/>
<g opacity="0.5">
<path d="M30.5658 173.795C28.2603 175.037 19.1904 180.153 17.9218 186.666C16.336 194.807 18.7013 200 15.3095 208.812C11.9177 217.623 4.5257 222.818 1.90261 231.853" stroke="#3F7594" stroke-width="5.28768" stroke-linecap="round"/>
<path d="M6.37548 178.224C7.65731 180.508 9.61684 186.62 7.20031 192.8C4.17965 200.524 3.97801 201.027 2.12363 210.285C0.26925 219.543 4.39939 222.776 1.7763 231.811" stroke="#3F7594" stroke-width="5.28768" stroke-linecap="round"/>
<path d="M47.9409 171.417C45.6354 172.659 38.8504 176.675 39.4388 183.285C41.3459 204.707 28.2556 188.818 19.681 218.352C17.0485 227.419 -2.49037 236.529 -5.11346 245.564" stroke="#3F7594" stroke-width="5.28768" stroke-linecap="round"/>
<path d="M-4.60872 156.16C-3.3269 158.444 0.252439 165.469 -3.7839 170.736C-16.8665 187.806 2.6973 181.397 -5.87733 210.931C-8.50989 219.999 0.462035 225.762 -2.16105 234.797" stroke="#3F7594" stroke-width="5.28768" stroke-linecap="round"/>
</g>
<path d="M42.0675 469.359C42.4398 470.795 43.9054 471.657 45.341 471.284C46.7766 470.912 47.6386 469.446 47.2664 468.011C46.8941 466.575 45.4285 465.713 43.9928 466.085C42.5572 466.458 41.6952 467.923 42.0675 469.359Z" fill="#3F7594"/>
<circle cx="40.5115" cy="454.84" r="7.73504" transform="rotate(-14.5375 40.5115 454.84)" fill="#3F7594"/>
<path d="M340.758 125.9C340.758 121.072 336.845 117.159 332.017 117.159H284.984L275.606 124.928V126.871L284.984 134.64H332.017C336.845 134.64 340.758 130.727 340.758 125.9V125.9Z" fill="#4A96B7"/>
<path d="M309.486 115.953C309.486 114.116 307.997 112.627 306.159 112.627H294.571C292.733 112.627 291.244 114.116 291.244 115.953V117.159H309.486V115.953Z" fill="#4A96B7"/>
<rect x="273.392" y="120.801" width="2.98017" height="10.1975" fill="#0C3037"/>
<path d="M301.667 102.429V102.429C300.228 102.429 299.061 103.596 299.061 105.035V113.759H301.667V102.429Z" fill="#4A96B7"/>
<rect width="2.60602" height="2.2661" transform="matrix(-1 0 0 1 304.274 102.429)" fill="#4A96B7"/>
<rect width="1.30301" height="4.53221" transform="matrix(-1 0 0 1 305.576 101.296)" fill="#375F83"/>
<circle cx="314.087" cy="125.728" r="2.74706" fill="#23495E"/>
<circle cx="322.877" cy="125.728" r="2.74706" fill="#23495E"/>
<circle cx="331.668" cy="125.728" r="2.74706" fill="#23495E"/>
<path d="M259.728 92.7953C259.487 93.7246 260.045 94.6733 260.974 94.9143C261.904 95.1552 262.852 94.5973 263.093 93.668C263.334 92.7387 262.776 91.79 261.847 91.549C260.918 91.308 259.969 91.866 259.728 92.7953Z" fill="#1E344D"/>
<path d="M268.592 113.788C268.3 114.913 267.152 115.588 266.028 115.297C264.903 115.005 264.228 113.857 264.52 112.732C264.811 111.608 265.959 110.932 267.084 111.224C268.208 111.516 268.884 112.664 268.592 113.788Z" fill="#1E344D"/>
<circle r="6.05911" transform="matrix(-0.967983 -0.251014 -0.251014 0.967983 269.811 102.415)" fill="#1E344D"/>
<path d="M89.1415 689.798C75.794 684.512 58.706 692.037 52.2911 695.471C54.4193 693.694 61.0226 687.348 66.724 684.091C72.4254 680.835 82.8599 683.496 87.3645 685.234C91.8077 687.104 90.4005 689.056 89.1415 689.798Z" fill="#023C40"/>
<path d="M87.9946 688.517L79.8772 724.948" stroke="#023C40" stroke-width="0.337162"/>
<path d="M44.1994 709.637L73.5894 728.721" stroke="#023C40" stroke-width="0.337162"/>
<path d="M59.5525 688.972L73.5895 728.721" stroke="#023C40" stroke-width="0.337162"/>
<path d="M70.4786 682.269L80.0649 729.079" stroke="#023C40" stroke-width="0.337162"/>
<path d="M46.1556 710.963C53.1873 684.867 79.2548 682.62 90.895 687.46C87.9441 682.1 78.9319 678.678 74.7946 677.637C43.518 670.627 37.8359 707.255 39.6801 710.605C41.1556 713.285 44.6119 711.961 46.1556 710.963Z" fill="#88EFFD" fill-opacity="0.59"/>
<rect width="9.29655" height="6.29516" transform="matrix(-0.919838 0.392298 0.427732 0.903905 79.5059 721.737)" fill="#11444F"/>
<rect width="9.29655" height="6.29516" transform="matrix(-0.919838 0.392298 0.427732 0.903905 79.5059 722.759)" fill="#288193"/>
<circle cx="26.1231" cy="457.758" r="0.356708" transform="rotate(6.46346 26.1231 457.758)" fill="#254366"/>
<path d="M32.7923 367.713C34.3601 365.595 36.0653 364.24 37.1442 365.184C39.3654 367.127 37.5237 369.343 36.5535 370.398C36.1536 371.18 34.9822 372.605 32.6759 374.985C32.7721 375.355 33.1852 376.048 34.068 375.861C35.1716 375.627 36.0382 375.007 36.6516 373.999C37.2649 372.992 37.2649 372.992 37.6997 372.323L37.6997 372.323C38.1344 371.654 38.4605 371.105 38.8835 371.38C39.5522 371.815 39.1576 372.129 38.6827 373.153C38.2078 374.176 36.1145 376.81 35.011 377.044C33.9074 377.278 32.4784 377.217 31.5211 376.161C29.5062 378.188 26.8113 380.789 23.2796 384.096C22.0426 385.255 20.7458 386.414 19.4165 387.56C20.7216 388.202 23.9898 389.223 26.6218 388.172C29.9118 386.858 32.1183 385.048 32.67 384.596C33.2216 384.143 34.7568 383.148 35.5055 384.116C36.2542 385.083 34.9899 386.064 33.8866 386.969C32.7834 387.874 30.5389 389.407 28.2051 390.102C24.6712 391.155 20.5172 391.715 17.2378 389.404C9.53422 395.808 1.25592 401.539 -2.6043 404.023L-4.057 400.013C-2.52136 399.274 1.70249 396.85 6.31269 393.069C10.1425 389.928 13.1717 387.789 16.1911 385.315C15.6672 383.551 14.8743 380.507 15.8219 378.114C16.0956 377.423 16.8011 376.45 17.6298 375.434C17.0498 374.95 15.989 373.812 16.3855 373.139C16.782 372.467 17.4897 371.543 17.794 371.166C17.9904 370.935 18.4734 370.559 18.8341 370.904C19.1947 371.248 18.904 371.756 18.7136 371.967C18.3409 372.284 17.5795 373.059 17.5153 373.626C17.451 374.194 17.9293 374.631 18.1765 374.778C19.2295 373.537 20.3664 372.312 21.0348 371.533C21.4356 370.897 22.4734 369.799 23.4179 370.501C24.3624 371.203 23.646 372.467 23.1698 373.011C22.5851 373.798 20.874 375.662 19.4353 377.458C17.8704 379.411 17.4758 379.725 18.6316 383.228C19.3585 382.577 20.0967 381.888 20.8568 381.142C25.6881 376.4 30.8327 370.36 32.7923 367.713Z" fill="#254366"/>
<path d="M-2.74626 591.478C-5.68615 593.352 -6.33524 592.753 -5.95282 591.478H-2.74626C1.07212 589.046 8.75488 582.444 23.0611 567.74C54.7124 535.209 59.1084 506.195 84.6053 505.316C110.102 504.437 123.29 557.189 161.096 562.465C198.902 567.74 210.332 529.934 234.949 530.813C259.567 531.692 261.326 585.324 300.89 591.478H-2.74626Z" fill="url(#paint2_linear_902_3367)"/>
<path d="M-2.74626 591.478C-5.68615 593.352 -6.33524 592.753 -5.95282 591.478H-2.74626C1.07212 589.046 8.75488 582.444 23.0611 567.74C54.7124 535.209 59.1084 506.195 84.6053 505.316C110.102 504.437 123.29 557.189 161.096 562.465C198.902 567.74 210.332 529.934 234.949 530.813C259.567 531.692 261.326 585.324 300.89 591.478H-2.74626Z" fill="url(#paint3_linear_902_3367)"/>
<path d="M193.156 631.646C191.164 632.914 190.725 632.509 190.984 631.646H193.156C195.742 629.998 200.946 625.526 210.637 615.566C232.076 593.531 235.053 573.879 252.324 573.283C269.594 572.688 278.527 608.42 304.135 611.993C329.743 615.566 337.485 589.958 354.16 590.554C370.835 591.149 372.026 627.477 398.825 631.646H193.156Z" fill="url(#paint4_linear_902_3367)"/>
<path d="M193.156 631.646C191.164 632.914 190.725 632.509 190.984 631.646H193.156C195.742 629.998 200.946 625.526 210.637 615.566C232.076 593.531 235.053 573.879 252.324 573.283C269.594 572.688 278.527 608.42 304.135 611.993C329.743 615.566 337.485 589.958 354.16 590.554C370.835 591.149 372.026 627.477 398.825 631.646H193.156Z" fill="url(#paint5_linear_902_3367)"/>
<path d="M84.9692 27.3589C84.3715 27.9566 84.4911 28.6739 84.9692 29.1521" stroke="#375F84" stroke-width="1.40792"/>
<path d="M81.9812 25.5657C81.3835 26.1634 81.503 26.8807 81.9812 27.3589" stroke="#375F84" stroke-width="1.40792"/>
<path d="M81.9812 29.152C81.3835 29.7497 81.503 30.467 81.9812 30.9452" stroke="#375F84" stroke-width="1.40792"/>
<path fill-rule="evenodd" clip-rule="evenodd" d="M122.649 22.388C120.489 22.9254 118.404 23.4654 116.374 23.991C98.0141 28.746 84.2 32.3235 60.8888 22.079C60.3979 21.8632 60.4138 21.1545 60.9076 20.9454C68.3801 17.7812 74.414 15.9438 79.6005 15.0095C79.795 13.0785 80.4575 10.3625 82.0483 10.5101C83.2903 10.6254 87.4634 12.4992 91.2422 14.3161C95.9072 14.6341 100.136 15.633 104.751 16.723C109.981 17.9585 115.708 19.3111 123.128 19.9222L135.925 7.64713C136.42 7.17255 137.205 7.73516 136.914 8.35609L133.122 16.4574C131.644 19.6143 131.826 23.2981 133.608 26.2941L136.711 31.5129C137.058 32.0965 136.348 32.7322 135.806 32.323L122.649 22.388Z" fill="#4C87BA"/>
<circle cx="74.3878" cy="18.9133" r="0.926206" transform="rotate(-17.3252 74.3878 18.9133)" fill="#0C5462"/>
<path fill-rule="evenodd" clip-rule="evenodd" d="M39.2692 55.2143C40.7074 55.5721 42.096 55.9317 43.4476 56.2818C55.562 59.4192 64.7043 61.7868 79.9716 55.1935C80.464 54.9808 80.4501 54.2802 79.9553 54.0734C75.1762 52.0764 71.2898 50.905 67.9357 50.3008C67.8061 49.0149 67.365 47.2063 66.3057 47.3046C65.4786 47.3813 62.6996 48.6292 60.1833 49.8391C57.0768 50.0509 54.2609 50.716 51.1879 51.4418C47.7047 52.2646 43.8912 53.1653 38.9501 53.5723L31.2288 46.1662C30.7341 45.6916 29.9493 46.2542 30.24 46.8751L31.5055 49.5789C32.9832 52.7358 32.8014 56.4196 31.02 59.4156L30.4434 60.3852C30.0965 60.9688 30.8065 61.6045 31.3483 61.1954L39.2692 55.2143Z" fill="#203D60"/>
<path d="M39.2692 55.2143L38.845 54.6525L39.1131 54.45L39.4392 54.5311L39.2692 55.2143ZM43.4476 56.2818L43.6241 55.6003L43.6241 55.6003L43.4476 56.2818ZM79.9716 55.1935L80.2507 55.8397L80.2507 55.8397L79.9716 55.1935ZM79.9553 54.0734L80.2267 53.4239L80.2267 53.4239L79.9553 54.0734ZM67.9357 50.3008L67.8109 50.9936L67.2885 50.8995L67.2353 50.3713L67.9357 50.3008ZM66.3057 47.3046L66.3707 48.0056L66.3707 48.0056L66.3057 47.3046ZM60.1833 49.8391L60.4883 50.4735L60.3663 50.5322L60.2311 50.5414L60.1833 49.8391ZM51.1879 51.4418L51.3497 52.127L51.3497 52.127L51.1879 51.4418ZM38.9501 53.5723L39.0079 54.2739L38.6917 54.2999L38.4628 54.0803L38.9501 53.5723ZM31.2288 46.1662L31.7161 45.6581L31.7161 45.6581L31.2288 46.1662ZM30.24 46.8751L30.8775 46.5767L30.8775 46.5767L30.24 46.8751ZM31.5055 49.5789L30.868 49.8773L30.868 49.8773L31.5055 49.5789ZM31.02 59.4156L31.6251 59.7754L31.6251 59.7754L31.02 59.4156ZM30.4434 60.3852L31.0485 60.745L31.0485 60.745L30.4434 60.3852ZM31.3483 61.1954L30.9241 60.6336L30.9241 60.6336L31.3483 61.1954ZM39.4392 54.5311C40.8812 54.8899 42.2729 55.2504 43.6241 55.6003L43.2711 56.9632C41.9191 56.6131 40.5337 56.2543 39.0993 55.8974L39.4392 54.5311ZM43.6241 55.6003C49.695 57.1725 54.9318 58.5256 60.547 58.683C66.1407 58.8397 72.1414 57.8082 79.6925 54.5472L80.2507 55.8397C72.5345 59.1721 66.3304 60.2535 60.5076 60.0903C54.7062 59.9278 49.3146 58.5284 43.2711 56.9632L43.6241 55.6003ZM79.6925 54.5472C79.6806 54.5524 79.66 54.5672 79.6452 54.5916C79.6324 54.6125 79.6296 54.6308 79.6298 54.6429C79.63 54.655 79.6333 54.6703 79.6441 54.687C79.6567 54.7067 79.6739 54.7188 79.6839 54.7229L80.2267 53.4239C81.2709 53.8602 81.3366 55.3708 80.2507 55.8397L79.6925 54.5472ZM79.6839 54.7229C74.9386 52.74 71.1023 51.5865 67.8109 50.9936L68.0605 49.608C71.4774 50.2235 75.4137 51.4127 80.2267 53.4239L79.6839 54.7229ZM67.2353 50.3713C67.1736 49.7588 67.0405 49.0671 66.8229 48.5623C66.578 47.9942 66.395 48.0033 66.3707 48.0056L66.2406 46.6037C67.2756 46.5076 67.8429 47.3718 68.1158 48.005C68.416 48.7014 68.5683 49.5569 68.6361 50.2302L67.2353 50.3713ZM66.3707 48.0056C66.26 48.0158 66.0051 48.0797 65.588 48.2268C65.1914 48.3666 64.7029 48.5612 64.1532 48.7948C63.055 49.2615 61.7422 49.8706 60.4883 50.4735L59.8782 49.2047C61.1406 48.5977 62.4755 47.9779 63.6026 47.499C64.1656 47.2598 64.6842 47.0525 65.12 46.8989C65.5351 46.7526 65.9378 46.6318 66.2406 46.6037L66.3707 48.0056ZM60.2311 50.5414C57.1914 50.7487 54.4304 51.3993 51.3497 52.127L51.0261 50.7567C54.0913 50.0327 56.9623 49.3531 60.1354 49.1368L60.2311 50.5414ZM51.3497 52.127C47.8647 52.9501 44.0063 53.8622 39.0079 54.2739L38.8923 52.8707C43.7761 52.4685 47.5446 51.579 51.0261 50.7567L51.3497 52.127ZM38.4628 54.0803L30.7415 46.6742L31.7161 45.6581L39.4374 53.0642L38.4628 54.0803ZM30.7415 46.6742C30.7391 46.6719 30.7444 46.6775 30.7585 46.6834C30.7723 46.6892 30.7879 46.6926 30.8029 46.693C30.8312 46.6939 30.8457 46.6851 30.85 46.682C30.8544 46.6788 30.8674 46.668 30.8757 46.6409C30.88 46.6265 30.8819 46.6107 30.8808 46.5957C30.8797 46.5805 30.8761 46.5737 30.8775 46.5767L29.6024 47.1736C28.9811 45.8463 30.6585 44.6437 31.7161 45.6581L30.7415 46.6742ZM30.8775 46.5767L32.1431 49.2804L30.868 49.8773L29.6024 47.1736L30.8775 46.5767ZM32.1431 49.2804C33.7197 52.6486 33.5257 56.5789 31.6251 59.7754L30.4149 59.0558C32.0771 56.2603 32.2468 52.823 30.868 49.8773L32.1431 49.2804ZM31.6251 59.7754L31.0485 60.745L29.8384 60.0255L30.4149 59.0558L31.6251 59.7754ZM31.0485 60.745C31.047 60.7476 31.0512 60.7411 31.0538 60.7263C31.0564 60.7117 31.0562 60.6961 31.0533 60.6815C31.048 60.6541 31.0364 60.6419 31.0321 60.6381C31.0279 60.6343 31.0145 60.6241 30.9867 60.6218C30.9719 60.6206 30.9563 60.6221 30.9421 60.6263C30.9277 60.6305 30.9217 60.6354 30.9241 60.6336L31.7725 61.7572C30.6144 62.6317 29.0967 61.2729 29.8384 60.0255L31.0485 60.745ZM30.9241 60.6336L38.845 54.6525L39.6934 55.7761L31.7725 61.7572L30.9241 60.6336Z" fill="#244265"/>
<path d="M60.7983 54.2643C60.4003 54.6623 60.4799 55.14 60.7983 55.4584" stroke="#244265" stroke-width="1.40792"/>
<path d="M58.8086 53.0702C58.4106 53.4682 58.4902 53.9459 58.8086 54.2643" stroke="#244265" stroke-width="1.40792"/>
<path d="M58.8086 55.4583C58.4106 55.8563 58.4902 56.3339 58.8086 56.6524" stroke="#244265" stroke-width="1.40792"/>
<circle r="0.616775" transform="matrix(-0.95463 -0.297795 -0.297795 0.95463 71.407 52.9005)" fill="#203D60"/>
<circle r="0.575091" transform="matrix(-0.981354 -0.192211 -0.192211 0.981354 324.777 456.519)" fill="#0C5462"/>
<circle r="0.537083" transform="matrix(-0.993644 0.11257 0.11257 0.993644 345.527 501.737)" fill="#396C99"/>
<path d="M335.486 366.159C333.125 362.97 330.558 360.931 328.933 362.352C325.589 365.277 328.362 368.613 329.822 370.203C330.425 371.38 332.188 373.525 335.661 377.109C335.516 377.666 334.894 378.709 333.565 378.427C331.903 378.075 330.598 377.142 329.675 375.625L329.675 375.625C328.751 374.108 328.751 374.108 328.097 373.101C327.442 372.094 326.951 371.267 326.314 371.681C325.308 372.336 325.902 372.809 326.617 374.35C327.332 375.89 330.484 379.857 332.145 380.21C333.807 380.562 335.958 380.469 337.4 378.879C340.433 381.932 344.491 385.847 349.809 390.827C351.671 392.572 353.624 394.317 355.625 396.043C353.66 397.009 348.739 398.547 344.776 396.964C339.823 394.985 336.5 392.26 335.67 391.579C334.839 390.898 332.528 389.4 331.4 390.856C330.273 392.313 332.177 393.79 333.838 395.152C335.499 396.515 338.879 398.824 342.392 399.871C347.713 401.456 353.968 402.299 358.905 398.819C370.505 408.461 382.969 417.091 388.781 420.83L390.968 414.792C388.656 413.679 382.297 410.03 375.355 404.338C369.589 399.609 365.028 396.387 360.482 392.662C361.27 390.006 362.464 385.423 361.037 381.821C360.625 380.78 359.563 379.314 358.315 377.785C359.189 377.056 360.786 375.343 360.189 374.33C359.592 373.317 358.526 371.927 358.068 371.358C357.772 371.011 357.045 370.445 356.502 370.964C355.959 371.483 356.397 372.248 356.683 372.565C357.245 373.042 358.391 374.209 358.488 375.063C358.584 375.917 357.864 376.575 357.492 376.798C355.907 374.929 354.195 373.084 353.189 371.911C352.585 370.953 351.022 369.301 349.6 370.358C348.178 371.414 349.257 373.317 349.974 374.137C350.854 375.322 353.431 378.129 355.597 380.832C357.953 383.772 358.547 384.245 356.807 389.52C355.712 388.541 354.601 387.502 353.457 386.379C346.182 379.239 338.436 370.145 335.486 366.159Z" fill="#396C99"/>
<path d="M342.972 412.758C340.449 411.418 338.148 410.889 337.533 412.317C336.268 415.255 339.104 416.563 340.547 417.142C341.303 417.721 343.115 418.568 346.483 419.819C346.561 420.226 346.481 421.097 345.53 421.326C344.341 421.612 343.203 421.411 342.133 420.712C341.062 420.012 341.062 420.012 340.324 419.561L340.324 419.561C339.587 419.11 339.011 418.725 338.726 419.191C338.274 419.929 338.807 420.052 339.75 420.832C340.692 421.611 343.971 423.211 345.16 422.925C346.349 422.638 347.718 421.91 348.162 420.43C351.08 421.473 354.931 422.758 359.932 424.345C361.683 424.901 363.493 425.429 365.329 425.93C364.352 427.167 361.631 429.692 358.565 429.893C354.732 430.144 351.728 429.404 350.977 429.219C350.226 429.034 348.259 428.778 347.979 430.074C347.698 431.37 349.393 431.739 350.895 432.109C352.397 432.479 355.31 432.932 357.918 432.522C361.867 431.901 366.193 430.509 368.322 426.716C378.85 429.383 389.627 431.124 394.564 431.752L394.112 427.15C392.264 427.144 387 426.745 380.723 425.199C375.509 423.915 371.546 423.237 367.436 422.226C367.125 420.256 366.479 416.907 364.434 415.009C363.844 414.461 362.699 413.837 361.414 413.231C361.755 412.486 362.261 410.877 361.559 410.405C360.857 409.932 359.734 409.359 359.259 409.131C358.959 408.997 358.311 408.855 358.12 409.361C357.928 409.866 358.449 410.228 358.734 410.345C359.247 410.481 360.354 410.884 360.681 411.409C361.009 411.933 360.745 412.585 360.573 412.844C358.963 412.122 357.278 411.454 356.26 411.004C355.571 410.569 354.043 409.98 353.447 411.108C352.85 412.235 354.141 413.138 354.862 413.448C355.801 413.945 358.346 414.969 360.592 416.054C363.036 417.234 363.568 417.357 364.074 421.324C363.059 421.027 362.014 420.697 360.922 420.323C353.98 417.939 346.126 414.433 342.972 412.758Z" fill="#396C99"/>
<circle cx="56.2092" cy="55.6815" r="0.537083" transform="rotate(-12.3632 56.2092 55.6815)" fill="#396C99"/>
<circle cx="246.388" cy="664.763" r="3.45267" fill="#288193"/>
<circle cx="330.428" cy="569.245" r="3.45267" fill="#288193"/>
<path opacity="0.4" d="M55.7869 807.667H22.4878C25.342 788.921 39.1374 793.998 40.3266 801.809C44.7863 794.974 53.012 802.785 55.7869 807.667Z" fill="#2E8394"/>
<path opacity="0.4" d="M149.936 732.851H116.637C119.491 714.105 133.287 719.182 134.476 726.993C138.936 720.158 147.161 727.969 149.936 732.851Z" fill="#2E8394"/>
<path opacity="0.4" d="M340.758 696.354H314.758C316.987 681.717 327.758 685.681 328.687 691.78C332.169 686.444 338.591 692.542 340.758 696.354Z" fill="#2E8394"/>
<circle cx="22.4112" cy="626.062" r="3.45267" fill="#288193"/>
<path d="M262.584 684.811C263.952 678.379 275.037 667.026 280.408 662.154L285.78 663.616L288.954 668.244L293.349 663.128L287.489 662.154L285.78 658.5C291.054 653.043 304.744 646.481 310.929 643.882C308.162 643.395 301.358 642.518 296.279 642.908C289.931 643.395 287.001 650.947 282.85 652.409C278.699 653.871 276.258 651.678 274.06 650.947C272.302 650.363 270.072 650.054 269.177 649.973L273.083 653.384C276.502 658.987 267.712 665.808 264.049 668.975C261.119 671.509 261.852 680.588 262.584 684.811Z" fill="#288193"/>
<path d="M341.715 276.763C341.715 293.801 306.636 291.868 304.776 299.982L394.624 296.072C391.228 285.391 373.605 276.763 373.605 276.763C373.605 276.763 341.715 259.803 341.715 276.763Z" fill="url(#paint6_linear_902_3367)"/>
<path d="M275.492 404.09C275.492 421.129 240.413 419.195 238.553 427.309L328.401 423.399C325.005 412.718 307.382 404.09 307.382 404.09C307.382 404.09 275.492 387.13 275.492 404.09Z" fill="url(#paint7_linear_902_3367)"/>
<path d="M304.606 329.572C305.352 332.145 308.509 337.053 315.165 336.105C314.21 333.946 310.762 329.617 304.606 329.572Z" fill="#975B4D"/>
<ellipse cx="284.534" cy="339.402" rx="18.6587" ry="3.887" fill="#203D60"/>
<path d="M271.82 332.263C278.229 321.903 295.441 318.58 309.864 332.263C302.672 337.381 284.994 344.545 271.82 332.263Z" fill="#975B4D"/>
<path d="M271.73 332.217C278.562 328.905 295.705 324.268 309.617 332.217C304.505 334.325 289.771 337.276 271.73 332.217Z" fill="#1E344D"/>
<ellipse cx="290.225" cy="331.628" rx="1.53719" ry="1.6369" fill="#375F83"/>
<ellipse cx="297.116" cy="331.211" rx="1.53719" ry="1.6369" fill="#375F83"/>
<path d="M272.184 331.419C271.882 334.081 272.907 339.826 279.415 341.513C279.365 339.153 277.848 333.83 272.184 331.419Z" fill="#975B4D"/>
<path d="M278.686 341.32C280.008 343.65 284.216 347.693 290.471 345.23C289.042 343.351 284.685 339.938 278.686 341.32Z" fill="#975B4D"/>
<path d="M315.119 335.851C315.332 338.521 314.118 344.228 307.557 345.699C307.686 343.342 309.378 338.072 315.119 335.851Z" fill="#975B4D"/>
<path d="M49.9492 452.593V455.815" stroke="#3D6CA4" stroke-width="3.2225" stroke-linecap="round"/>
<path d="M99.7292 416.148L99.7292 418.476" stroke="#3D6CA4" stroke-width="3.2225" stroke-linecap="round"/>
<path d="M37.5757 428.709V431.193" stroke="#3D6CA4" stroke-width="3.2225" stroke-linecap="round"/>
<path d="M64.6882 423.702L64.6882 426.031" stroke="#3D6CA4" stroke-width="3.2225" stroke-linecap="round"/>
<path d="M67.3416 400.424V402.908" stroke="#3D6CA4" stroke-width="3.2225" stroke-linecap="round"/>
<path d="M280.605 430.907V434.129" stroke="#3D6CA4" stroke-width="3.2225" stroke-linecap="round"/>
<path d="M281.143 464.717V467.939" stroke="#3D6CA4" stroke-width="3.2225" stroke-linecap="round"/>
<path d="M121.044 487.01V490.232" stroke="#3D6CA4" stroke-width="3.2225" stroke-linecap="round"/>
<path d="M313.921 454.908V458.13" stroke="#3D6CA4" stroke-width="3.2225" stroke-linecap="round"/>
<ellipse cx="323.161" cy="474.985" rx="14.5821" ry="5.09057" fill="#203D60"/>
<path d="M314.556 469.41C321.31 463.821 329.014 464.364 332.022 465.334C338.161 466.471 335.582 474.087 333.525 477.752C329.554 479.377 326.856 477.326 326.004 476.098C322.273 477.602 319.636 475.17 318.784 473.766C313.609 473.887 313.809 470.912 314.556 469.41Z" fill="#A69468"/>
<ellipse rx="14.5821" ry="5.09057" transform="matrix(-1 0 0 1 38.31 469.894)" fill="#203D60"/>
<path d="M46.9149 464.319C40.1611 458.73 32.4565 459.274 29.4485 460.244C23.3102 461.381 25.8889 468.996 27.9455 472.662C31.9167 474.286 34.6143 472.236 35.4667 471.007C39.1972 472.511 41.8347 470.08 42.687 468.676C47.8616 468.796 47.6617 465.822 46.9149 464.319Z" fill="#A69468"/>
<path d="M51.0434 242.988C51.0434 246.199 60.5397 250.838 66.4518 250.838C72.3638 250.838 77.1565 247.323 77.1565 242.988C77.1565 238.652 72.3638 235.138 66.4518 235.138C60.5397 235.138 51.0434 240.252 51.0434 242.988Z" fill="#5A93C6"/>
<path d="M84.9688 238.111L72.6421 240.49L73.1287 244.772L84.9688 246.675L80.7518 242.155L84.9688 238.111Z" fill="#5A93C6"/>
<path d="M45.8265 213.277C45.6034 214.138 44.7251 214.654 43.8648 214.431C43.0045 214.208 42.4879 213.33 42.711 212.47C42.9341 211.609 43.8124 211.093 44.6727 211.316C45.533 211.539 46.0496 212.417 45.8265 213.277Z" fill="#6C97CB"/>
<circle r="3.59846" transform="matrix(-0.967983 -0.251014 -0.251014 0.967983 46.2307 226.486)" fill="#6C97CB"/>
<circle cx="58.512" cy="240.589" r="1.22319" fill="#1E344D"/>
<circle r="1.72364" transform="matrix(-1 0 0 1 34.4604 116.524)" fill="#3C6F8F"/>
<circle r="1.72364" transform="matrix(-1 0 0 1 120.538 214.835)" fill="#3C6F8F"/>
<path d="M23.0973 422.11C23.0973 439.149 -11.9811 437.215 -13.8413 445.329L76.0069 441.42C72.6101 430.738 54.9873 422.11 54.9873 422.11C54.9873 422.11 23.0973 405.151 23.0973 422.11Z" fill="url(#paint8_linear_902_3367)"/>
<rect x="356.992" y="706.157" width="1.3165" height="2.57826" fill="#F4F1EC"/>
<path d="M334.859 763.525L333.88 754.068L352.556 766.223H365.977L382.84 755.537V762.037L373.204 770.959L368.386 777.854H352.556L340.511 770.959V767.897L334.859 763.525Z" fill="#023C40"/>
<path d="M352.739 767.287L333.88 754.068L336.781 748.356L354.915 738.89L364.707 739.619L382.84 751.268L384.684 756.598L364.707 767.287H352.739Z" fill="#266F7D"/>
<path d="M364.725 777.814V767.288L384.684 756.43L382.84 761.902L373.293 770.96L368.397 777.814H364.725Z" fill="#136172"/>
<rect width="13.1939" height="13.5974" transform="matrix(0.866025 0.5 -2.20305e-08 1 346.629 739.63)" fill="#F4F1EC"/>
<path d="M349.306 749.991C349.306 748.659 350.241 748.119 351.395 748.785V748.785C352.548 749.451 353.484 751.071 353.484 752.403L353.484 757.221L349.306 754.809L349.306 749.991Z" fill="#023C40"/>
<rect width="13.3146" height="13.7498" transform="matrix(-0.866025 0.5 2.20305e-08 1 369.586 739.51)" fill="#9E9E9E"/>
<path d="M358.061 731.959C367.599 732.423 367.599 740.756 367.599 740.756L358.061 746.263L348.523 740.756C348.523 740.756 348.523 731.495 358.061 731.959Z" fill="#9E9E9E"/>
<path d="M357.952 731.773C357.952 731.773 360.868 734.747 360.288 739.389C359.707 744.031 357.952 746.078 357.952 746.078C357.952 746.078 349.847 742.352 348.414 740.571C348.854 731.773 357.952 731.773 357.952 731.773Z" fill="#F4F1EC"/>
<path d="M366.36 750.679C366.36 749.347 365.425 748.807 364.271 749.473V749.473C363.118 750.139 362.183 751.759 362.183 753.091L362.183 757.909L366.36 755.497L366.36 750.679Z" fill="#023C40"/>
</g>
<defs>
<linearGradient id="paint0_linear_902_3367" x1="314.892" y1="-70.0172" x2="319.561" y2="22.7018" gradientUnits="userSpaceOnUse">
<stop stop-color="#2D5F8D"/>
<stop offset="1" stop-color="#2D517B"/>
</linearGradient>
<linearGradient id="paint1_linear_902_3367" x1="75.6977" y1="258.916" x2="80.3664" y2="351.635" gradientUnits="userSpaceOnUse">
<stop stop-color="#2D5F8D"/>
<stop offset="1" stop-color="#2D517B"/>
</linearGradient>
<linearGradient id="paint2_linear_902_3367" x1="160.322" y1="459.514" x2="167.215" y2="596.398" gradientUnits="userSpaceOnUse">
<stop stop-color="#446C9A"/>
<stop offset="1" stop-color="#0C5462" stop-opacity="0.41"/>
</linearGradient>
<linearGradient id="paint3_linear_902_3367" x1="160.322" y1="459.514" x2="167.215" y2="596.398" gradientUnits="userSpaceOnUse">
<stop stop-color="#446C9A"/>
<stop offset="1" stop-color="#0C5462" stop-opacity="0.41"/>
</linearGradient>
<linearGradient id="paint4_linear_902_3367" x1="303.611" y1="542.259" x2="308.279" y2="634.978" gradientUnits="userSpaceOnUse">
<stop stop-color="#2D668D"/>
<stop offset="1" stop-color="#0C5462" stop-opacity="0.41"/>
</linearGradient>
<linearGradient id="paint5_linear_902_3367" x1="303.611" y1="542.259" x2="308.279" y2="634.978" gradientUnits="userSpaceOnUse">
<stop stop-color="#2D668D"/>
<stop offset="1" stop-color="#0C5462" stop-opacity="0.41"/>
</linearGradient>
<linearGradient id="paint6_linear_902_3367" x1="357.53" y1="250.485" x2="355.449" y2="297.006" gradientUnits="userSpaceOnUse">
<stop stop-color="#4376B2"/>
<stop offset="1" stop-color="#2D517B"/>
</linearGradient>
<linearGradient id="paint7_linear_902_3367" x1="291.307" y1="377.812" x2="289.227" y2="424.333" gradientUnits="userSpaceOnUse">
<stop stop-color="#4376B2"/>
<stop offset="1" stop-color="#2D517B"/>
</linearGradient>
<linearGradient id="paint8_linear_902_3367" x1="35.0508" y1="417.013" x2="36.832" y2="442.353" gradientUnits="userSpaceOnUse">
<stop stop-color="#4376B2"/>
<stop offset="0.837406" stop-color="#2D517B"/>
</linearGradient>
<clipPath id="clip0_902_3367">
<rect width="375" height="812" fill="white"/>
</clipPath>
</defs>
</svg>
