<svg width="375" height="812" viewBox="0 0 375 812" fill="none" xmlns="http://www.w3.org/2000/svg">
<g clip-path="url(#clip0_902_3368)">
<path d="M201.079 811.439C199.088 812.708 198.648 812.303 198.907 811.439H201.079C203.666 809.792 208.87 805.32 218.56 795.36C239.999 773.325 242.977 753.673 260.247 753.077C277.518 752.482 286.451 788.214 312.059 791.787C337.666 795.36 345.408 769.752 362.083 770.348C378.758 770.943 379.949 807.271 406.748 811.439H201.079Z" fill="url(#paint0_linear_902_3368)"/>
<path d="M40.0117 748.294C41.9674 746.212 43.9746 744.969 45.0172 746.121C47.1634 748.494 44.9004 750.647 43.7224 751.661C43.1929 752.452 41.7515 753.839 38.9674 756.11C39.0243 756.52 39.3816 757.319 40.3559 757.229C41.5737 757.116 42.5852 756.558 43.3729 755.551C44.1607 754.544 44.1607 754.544 44.7133 753.879L44.7133 753.879C45.2659 753.213 45.6864 752.663 46.1071 753.013C46.7723 753.566 46.3077 753.854 45.667 754.896C45.0264 755.938 42.4395 758.51 41.2217 758.623C40.0038 758.735 38.4728 758.488 37.5754 757.23C35.1497 759.159 31.9194 761.618 27.6986 764.734C26.2202 765.825 24.6774 766.91 23.1011 767.976C24.4253 768.832 27.8155 770.344 30.7825 769.544C34.4911 768.545 37.0957 766.875 37.7469 766.458C38.398 766.04 40.1768 765.163 40.8608 766.299C41.5447 767.436 40.0594 768.332 38.7571 769.167C37.4548 770.002 34.8443 771.37 32.2435 771.823C28.3052 772.511 23.7614 772.589 20.5223 769.686C11.4181 775.608 1.77999 780.734 -2.69044 782.92L-3.74805 778.419C-2.00109 777.817 2.85329 775.741 8.29516 772.252C12.8159 769.354 16.348 767.433 19.9118 765.15C19.5705 763.185 19.1013 759.807 20.424 757.35C20.806 756.641 21.6887 755.681 22.7093 754.693C22.146 754.098 21.1475 752.739 21.6594 752.065C22.1713 751.391 23.0501 750.486 23.4255 750.117C23.6661 749.894 24.2336 749.55 24.5784 749.967C24.9232 750.383 24.5461 750.894 24.3144 751.097C23.8731 751.391 22.9552 752.129 22.8144 752.732C22.6736 753.334 23.1333 753.865 23.3808 754.056C24.6714 752.852 26.0506 751.676 26.8687 750.922C27.3807 750.288 28.6368 749.237 29.5651 750.112C30.4935 750.987 29.5624 752.258 28.9808 752.784C28.2518 753.557 26.1738 755.348 24.3978 757.1C22.466 759.005 22.0014 759.293 22.8034 763.212C23.6683 762.603 24.5503 761.954 25.4629 761.246C31.2644 756.75 37.567 750.897 40.0117 748.294Z" fill="#396C99"/>
<g opacity="0.8">
<path d="M150.559 688.144C150.559 691.137 147.952 694 143.378 696.144C138.843 698.27 132.543 699.598 125.557 699.598C118.572 699.598 112.272 698.27 107.737 696.144C103.163 694 100.556 691.137 100.556 688.144C100.556 685.152 103.163 682.289 107.737 680.144C112.272 678.018 118.572 676.69 125.557 676.69C132.543 676.69 138.843 678.018 143.378 680.144C147.952 682.289 150.559 685.152 150.559 688.144Z" stroke="url(#paint1_linear_902_3368)"/>
<path d="M144.184 688.144C144.184 685.795 142.266 683.533 138.858 681.829C135.48 680.14 130.778 679.081 125.558 679.081C120.337 679.081 115.635 680.14 112.257 681.829C108.849 683.533 106.931 685.795 106.931 688.144C106.931 690.494 108.849 692.755 112.257 694.459C115.635 696.148 120.337 697.207 125.558 697.207C130.778 697.207 135.48 696.148 138.858 694.459C142.266 692.755 144.184 690.494 144.184 688.144Z" stroke="url(#paint2_linear_902_3368)"/>
<path d="M140.199 688.543C140.199 689.184 139.872 689.847 139.168 690.504C138.463 691.161 137.416 691.777 136.081 692.304C133.412 693.357 129.692 694.02 125.557 694.02C121.423 694.02 117.703 693.357 115.034 692.304C113.699 691.777 112.652 691.161 111.947 690.504C111.243 689.847 110.916 689.184 110.916 688.543C110.916 687.902 111.243 687.239 111.947 686.582C112.652 685.924 113.699 685.309 115.034 684.781C117.703 683.728 121.423 683.066 125.557 683.066C129.692 683.066 133.412 683.728 136.081 684.781C137.416 685.309 138.463 685.924 139.168 686.582C139.872 687.239 140.199 687.902 140.199 688.543Z" stroke="url(#paint3_linear_902_3368)"/>
</g>
<g opacity="0.8">
<path d="M208.213 696.946C208.213 698.27 207.05 699.622 204.809 700.672C202.608 701.704 199.531 702.356 196.107 702.356C192.682 702.356 189.606 701.704 187.405 700.672C185.164 699.622 184 698.27 184 696.946C184 695.623 185.164 694.271 187.405 693.221C189.606 692.189 192.682 691.537 196.107 691.537C199.531 691.537 202.608 692.189 204.809 693.221C207.05 694.271 208.213 695.623 208.213 696.946Z" stroke="url(#paint4_linear_902_3368)"/>
<path d="M205.062 696.946C205.062 695.932 204.227 694.88 202.569 694.051C200.941 693.237 198.657 692.719 196.107 692.719C193.556 692.719 191.272 693.237 189.645 694.051C187.987 694.88 187.152 695.932 187.152 696.946C187.152 697.96 187.987 699.013 189.645 699.842C191.272 700.656 193.556 701.174 196.107 701.174C198.657 701.174 200.941 700.656 202.569 699.842C204.227 699.013 205.062 697.96 205.062 696.946Z" stroke="url(#paint5_linear_902_3368)"/>
<path d="M203.092 697.143C203.092 697.367 202.979 697.633 202.663 697.928C202.345 698.224 201.859 698.514 201.216 698.768C199.933 699.274 198.127 699.598 196.107 699.598C194.086 699.598 192.28 699.274 190.998 698.768C190.355 698.514 189.868 698.224 189.551 697.928C189.234 697.633 189.122 697.367 189.122 697.143C189.122 696.92 189.234 696.654 189.551 696.359C189.868 696.063 190.355 695.773 190.998 695.519C192.28 695.013 194.086 694.689 196.107 694.689C198.127 694.689 199.933 695.013 201.216 695.519C201.859 695.773 202.345 696.063 202.663 696.359C202.979 696.654 203.092 696.92 203.092 697.143Z" stroke="url(#paint6_linear_902_3368)"/>
</g>
<path fill-rule="evenodd" clip-rule="evenodd" d="M352.431 709.239C355.997 711.3 358.456 712.093 359.944 707.381C362.515 699.239 357.244 690.316 348.17 687.45C339.096 684.585 329.656 688.862 327.084 697.005C325.528 701.934 328.301 702.541 332.745 702.888C332.568 703.023 332.39 703.163 332.214 703.308C329.213 705.78 326.703 709.626 326.194 716.05C325.956 719.049 324.831 720.86 323.475 721.966C322.081 723.103 320.292 723.614 318.576 723.704C317.749 723.748 317.113 724.454 317.157 725.282C317.201 726.109 317.907 726.744 318.734 726.7C320.887 726.586 323.349 725.94 325.371 724.291C327.432 722.61 328.89 720.007 329.185 716.287C329.631 710.65 331.767 707.563 334.121 705.624C335.309 704.645 336.594 703.926 337.849 703.324C338.005 703.343 338.161 703.363 338.318 703.384C338.319 703.394 338.319 703.403 338.319 703.412C338.435 706.522 337.843 708.259 336.883 709.735C336.375 710.516 335.74 711.259 334.951 712.127C334.762 712.336 334.563 712.552 334.356 712.777L334.356 712.777C333.721 713.468 333.012 714.239 332.277 715.11C331.743 715.743 331.823 716.69 332.457 717.224C333.09 717.758 334.036 717.677 334.57 717.044C335.26 716.227 335.907 715.523 336.533 714.842L336.533 714.842C336.748 714.608 336.961 714.377 337.172 714.145C337.977 713.258 338.75 712.366 339.397 711.371C340.665 709.422 341.364 707.212 341.332 703.944C341.678 704.028 342.025 704.121 342.372 704.222C342.397 705.258 342.33 706.397 342.161 707.587C341.728 710.632 340.682 713.614 339.261 715.488C337.136 718.289 335.83 721.03 335.533 723.513C335.228 726.069 336.006 728.365 338.006 729.932C338.658 730.443 339.601 730.329 340.112 729.677C340.623 729.024 340.508 728.082 339.856 727.571C338.806 726.748 338.311 725.552 338.512 723.869C338.721 722.114 339.702 719.871 341.651 717.301C343.488 714.879 344.657 711.349 345.131 708.009C345.257 707.121 345.338 706.218 345.366 705.327C346.101 705.652 346.808 706.003 347.489 706.365C348.236 707.413 348.913 708.463 349.362 709.572C349.837 710.743 350.039 711.942 349.789 713.229C349.537 714.524 348.797 716.053 347.141 717.831C343.965 721.237 343.685 725.292 344.579 728.7C345.454 732.037 347.49 734.938 349.293 736.35C349.945 736.861 350.887 736.747 351.398 736.095C351.909 735.443 351.795 734.5 351.143 733.989C349.896 733.012 348.203 730.693 347.481 727.939C346.777 725.256 347.032 722.347 349.335 719.876C351.274 717.796 352.349 715.778 352.733 713.802C353.056 712.144 352.873 710.617 352.431 709.239Z" fill="#447AA9"/>
<circle opacity="0.5" r="1.72364" transform="matrix(-1 0 0 1 337.4 774.151)" fill="#3C6F8F"/>
<circle r="4.18335" transform="matrix(-1 0 0 1 340.969 756.066)" fill="#396C99"/>
<circle r="2.11437" transform="matrix(-1 0 0 1 328.046 741.587)" fill="#3D6DA6"/>
<circle r="2.11437" transform="matrix(-1 0 0 1 83.7255 713.172)" fill="#3D6DA6"/>
<path d="M89.9446 663.124H38.0859C40.8317 657.507 50.4047 646.424 66.7298 647.023C83.055 647.622 89.0085 658.007 89.9446 663.124Z" fill="#5A93C6"/>
<path d="M29.2461 663.124H43.2193C42.707 660.927 40.5924 656.466 36.2327 656.196C31.8731 655.925 29.7584 660.702 29.2461 663.124Z" fill="#5A93C6"/>
</g>
<defs>
<linearGradient id="paint0_linear_902_3368" x1="311.534" y1="722.053" x2="316.203" y2="814.772" gradientUnits="userSpaceOnUse">
<stop stop-color="#2D5F8D"/>
<stop offset="1" stop-color="#2D517B"/>
</linearGradient>
<linearGradient id="paint1_linear_902_3368" x1="125.557" y1="676.19" x2="125.557" y2="700.098" gradientUnits="userSpaceOnUse">
<stop stop-color="#46A2AD"/>
<stop offset="1" stop-color="#46A2AD" stop-opacity="0"/>
</linearGradient>
<linearGradient id="paint2_linear_902_3368" x1="125.558" y1="697.707" x2="125.558" y2="678.581" gradientUnits="userSpaceOnUse">
<stop stop-color="#46A2AD"/>
<stop offset="1" stop-color="#46A2AD" stop-opacity="0"/>
</linearGradient>
<linearGradient id="paint3_linear_902_3368" x1="125.557" y1="682.566" x2="125.557" y2="694.52" gradientUnits="userSpaceOnUse">
<stop stop-color="#46A2AD"/>
<stop offset="1" stop-color="#46A2AD" stop-opacity="0"/>
</linearGradient>
<linearGradient id="paint4_linear_902_3368" x1="196.107" y1="691.037" x2="196.107" y2="702.856" gradientUnits="userSpaceOnUse">
<stop stop-color="#46A2AD"/>
<stop offset="1" stop-color="#46A2AD" stop-opacity="0"/>
</linearGradient>
<linearGradient id="paint5_linear_902_3368" x1="196.107" y1="701.674" x2="196.107" y2="692.219" gradientUnits="userSpaceOnUse">
<stop stop-color="#46A2AD"/>
<stop offset="1" stop-color="#46A2AD" stop-opacity="0"/>
</linearGradient>
<linearGradient id="paint6_linear_902_3368" x1="196.107" y1="694.189" x2="196.107" y2="700.098" gradientUnits="userSpaceOnUse">
<stop stop-color="#46A2AD"/>
<stop offset="1" stop-color="#46A2AD" stop-opacity="0"/>
</linearGradient>
<clipPath id="clip0_902_3368">
<rect width="375" height="812" fill="white"/>
</clipPath>
</defs>
</svg>
