<svg width="56" height="66" viewBox="0 0 56 66" fill="none" xmlns="http://www.w3.org/2000/svg">
<mask id="path-1-inside-1_908_8301" fill="white">
<path fill-rule="evenodd" clip-rule="evenodd" d="M2.51329 55.3386C1.32295 54.0016 0.609131 52.1942 0.609131 49.8049C0.609131 34.7888 12.7822 22.6157 27.7984 22.6157C42.4245 22.6157 54.3533 34.1646 54.9631 48.6408C55.526 53.0285 52.9018 57.5269 47.0905 60.8821C36.4944 66.9998 19.3145 66.9998 8.71837 60.8821C5.9008 59.2553 3.83245 57.3599 2.51329 55.3386Z"/>
</mask>
<path fill-rule="evenodd" clip-rule="evenodd" d="M2.51329 55.3386C1.32295 54.0016 0.609131 52.1942 0.609131 49.8049C0.609131 34.7888 12.7822 22.6157 27.7984 22.6157C42.4245 22.6157 54.3533 34.1646 54.9631 48.6408C55.526 53.0285 52.9018 57.5269 47.0905 60.8821C36.4944 66.9998 19.3145 66.9998 8.71837 60.8821C5.9008 59.2553 3.83245 57.3599 2.51329 55.3386Z" fill="white"/>
<path d="M2.51329 55.3386L3.63869 54.6041L3.58379 54.52L3.517 54.445L2.51329 55.3386ZM54.9631 48.6408L53.6204 48.6973L53.6228 48.7548L53.6302 48.8118L54.9631 48.6408ZM47.0905 60.8821L47.7625 62.0459L47.7625 62.0459L47.0905 60.8821ZM8.71837 60.8821L8.04644 62.0459L8.04644 62.0459L8.71837 60.8821ZM3.517 54.445C2.57197 53.3835 1.95299 51.9064 1.95299 49.8049H-0.734729C-0.734729 52.482 0.0739253 54.6196 1.50958 56.2322L3.517 54.445ZM1.95299 49.8049C1.95299 35.5309 13.5244 23.9596 27.7984 23.9596V21.2719C12.04 21.2719 -0.734729 34.0466 -0.734729 49.8049H1.95299ZM27.7984 23.9596C41.7013 23.9596 53.0408 34.9377 53.6204 48.6973L56.3058 48.5842C55.6658 33.3915 43.1478 21.2719 27.7984 21.2719V23.9596ZM53.6302 48.8118C54.0988 52.4643 51.9613 56.5182 46.4186 59.7182L47.7625 62.0459C53.8424 58.5356 56.9533 53.5926 56.296 48.4697L53.6302 48.8118ZM46.4186 59.7182C41.3729 62.6314 34.6751 64.1265 27.9044 64.1265C21.1338 64.1265 14.436 62.6314 9.3903 59.7182L8.04644 62.0459C13.5969 65.2504 20.7871 66.8142 27.9044 66.8142C35.0218 66.8142 42.212 65.2504 47.7625 62.0459L46.4186 59.7182ZM9.3903 59.7182C6.71221 58.1721 4.81798 56.4111 3.63869 54.6041L1.38789 56.073C2.84692 58.3087 5.08939 60.3386 8.04644 62.0459L9.3903 59.7182Z" fill="black" mask="url(#path-1-inside-1_908_8301)"/>
<path d="M52.9109 53.2663C52.9109 38.4475 41.5789 28.8589 36.3487 28.8589C36.3487 29.4696 35.4301 29.6208 34.6053 30.6023C33.5465 31.8623 32.4802 33.9257 31.9902 34.089C40.3585 41.0626 42.16 55.3002 41.5789 61.9832C49.9471 59.1938 52.9109 54.138 52.9109 53.2663Z" fill="#93B5FE"/>
<ellipse cx="27.8636" cy="30.5299" rx="7.39123" ry="4.03158" fill="#3F4748"/>
<path d="M42.6469 16.4192C42.6469 24.6118 36.3016 31.2017 28.5364 31.2017C20.7712 31.2017 14.4258 24.6118 14.4258 16.4192C14.4258 8.22664 20.7712 1.63677 28.5364 1.63677C36.3016 1.63677 42.6469 8.22664 42.6469 16.4192Z" fill="white" stroke="black" stroke-width="1.34386"/>
</svg>
