<svg width="56" height="74" viewBox="0 0 56 74" fill="none" xmlns="http://www.w3.org/2000/svg">
<ellipse cx="22.9852" cy="60.595" rx="22.9852" ry="12.5374" fill="#3F4748"/>
<path d="M11.626 58.3335L22.2189 64.9026L22.2189 67.936L11.626 61.4567L11.626 58.3335Z" fill="white"/>
<path d="M22.2192 64.7216L33.0515 58.3334L33.0515 61.5479L22.2192 67.9614L22.2192 64.7216Z" fill="white"/>
<path d="M22.2661 52.4626L33.0514 58.3333L22.2464 64.8733L11.6263 58.3334L22.2661 52.4626Z" fill="#61B99A"/>
<path d="M15.6123 56.0649L22.0897 60.0309L22.0897 62.3195L15.6123 58.3335L15.6123 56.0649Z" fill="white"/>
<rect width="7.47942" height="2.46118" transform="matrix(0.866025 -0.5 2.20305e-08 1 22.0894 60.0801)" fill="white"/>
<path d="M22.1294 52.6239L28.5669 56.3406L22.1176 60.0641L15.611 56.0536L22.1294 52.6239Z" fill="#61B99A"/>
<path d="M19.6118 3.86377L22.8616 5.74001L22.8616 56.4529C22.8616 56.9406 22.5192 57.1383 22.0968 56.8944L19.6118 55.4597L19.6118 3.86377Z" fill="white" stroke="black" stroke-width="0.680685" stroke-linejoin="round"/>
<rect width="5.0286" height="51.9561" transform="matrix(0.866025 -0.5 2.20305e-08 1 22.8613 5.18555)" fill="#BEF9D8" stroke="black" stroke-width="0.680685" stroke-linejoin="round"/>
<path d="M27.2166 7.13368L55.4252 23.6909L55.4252 45.2822L51.9389 46.5197L26.4338 28.0084L22.397 8.74024L27.2166 7.13368Z" fill="#BEF9D8" stroke="black" stroke-width="0.883052"/>
<rect width="32.3701" height="20.5412" transform="matrix(0.866025 0.5 -2.20305e-08 1 22.397 8.74023)" fill="#F4F1EC" stroke="black" stroke-width="0.883052"/>
<rect width="5.99602" height="5.13531" transform="matrix(0.866025 0.5 -2.20305e-08 1 25.5127 10.5396)" fill="#3D3D3D"/>
<rect width="5.99602" height="5.13531" transform="matrix(0.866025 0.5 -2.20305e-08 1 25.5127 20.8101)" fill="#3D3D3D"/>
<rect width="7.19522" height="5.13531" transform="matrix(0.866025 0.5 -2.20305e-08 1 34.8594 15.9355)" fill="#3D3D3D"/>
<rect width="7.19522" height="5.13531" transform="matrix(0.866025 0.5 -2.20305e-08 1 34.8594 26.2061)" fill="#3D3D3D"/>
<rect width="4.79681" height="5.13531" transform="matrix(0.866025 0.5 -2.20305e-08 1 46.2837 22.5312)" fill="#3D3D3D"/>
<rect width="4.79681" height="5.13531" transform="matrix(0.866025 0.5 -2.20305e-08 1 46.2837 32.8018)" fill="#3D3D3D"/>
<rect width="4.79681" height="5.13531" transform="matrix(0.866025 0.5 -2.20305e-08 1 30.7056 18.6724)" fill="#3D3D3D"/>
<rect width="4.79681" height="5.13531" transform="matrix(0.866025 0.5 -2.20305e-08 1 30.7056 28.9429)" fill="#3D3D3D"/>
<rect width="3.59761" height="5.13531" transform="matrix(0.866025 0.5 -2.20305e-08 1 22.397 13.8755)" fill="#3D3D3D"/>
<rect width="3.59761" height="5.13531" transform="matrix(0.866025 0.5 -2.20305e-08 1 22.397 24.146)" fill="#3D3D3D"/>
<rect width="5.99602" height="5.13531" transform="matrix(0.866025 0.5 -2.20305e-08 1 41.0908 24.6685)" fill="#3D3D3D"/>
<rect width="5.99602" height="5.13531" transform="matrix(0.866025 0.5 -2.20305e-08 1 41.0908 34.9395)" fill="#3D3D3D"/>
<rect width="3.24194" height="5.67664" transform="matrix(0.866025 0.5 -0.866025 0.5 24.4878 1)" fill="white" stroke="black" stroke-width="0.680685" stroke-linejoin="round"/>
</svg>
