<svg width="59" height="92" viewBox="0 0 59 92" fill="none" xmlns="http://www.w3.org/2000/svg">
<g clip-path="url(#clip0_908_8850)">
<path d="M29.2063 47.4796C29.5608 47.4796 29.8508 47.1895 29.8508 46.8351V10.2597C29.8508 9.90526 29.5608 9.61523 29.2063 9.61523C28.8519 9.61523 28.5618 9.90526 28.5618 10.2597V46.8458C28.5618 47.2003 28.8519 47.4903 29.2063 47.4903V47.4796Z" fill="#F3F1EB"/>
<path d="M25.5543 7.68151C25.5543 7.85338 25.5758 8.02524 25.6295 8.19711C25.8443 8.99199 26.5855 9.64723 27.5737 9.99096C28.0571 10.1628 28.6157 10.2595 29.1957 10.2595C31.2044 10.2595 32.8372 9.11015 32.8372 7.68151C32.8372 6.25287 31.2044 5.09277 29.1957 5.09277C27.187 5.09277 25.5543 6.25287 25.5543 7.68151Z" fill="#F3F1EB" stroke="black" stroke-width="1.07417" stroke-miterlimit="10"/>
<path d="M26.1344 7.91796C26.3492 8.71284 26.8863 9.14251 27.8746 9.48624C27.8746 9.48624 27.8101 8.76655 28.2076 7.82128C28.605 6.87602 28.8521 6.62896 28.8521 6.62896C28.8521 6.62896 28.0035 6.40338 27.0582 6.91898C26.1129 7.43458 26.1344 7.9287 26.1344 7.9287V7.91796Z" fill="white"/>
<path d="M0.537029 -21.8042C0.537029 -8.78527 9.21629 2.20344 21.0966 5.70522C23.6638 6.45713 26.3922 6.86531 29.2065 6.86531C30.0336 6.86531 30.85 6.83309 31.6556 6.7579C46.3287 5.52261 57.8652 -6.78733 57.8652 -21.8042C57.8652 -29.9893 54.4279 -37.3796 48.9067 -42.6C44.3308 -46.9504 38.3154 -49.7862 31.6449 -50.3555C30.8392 -50.4307 30.0121 -50.4629 29.1958 -50.4629C13.3733 -50.4629 0.537029 -37.6374 0.537029 -21.8042Z" fill="#F3F1EB" stroke="black" stroke-width="1.07417" stroke-miterlimit="10"/>
<path d="M43.3103 34.3748V60.6381L15.1779 77.5132V51.2606L43.3103 34.3748Z" fill="#C9E4F0" stroke="black" stroke-width="0.537083" stroke-miterlimit="10"/>
<path d="M43.0095 60.4555L34.0725 55.0954C32.2464 53.9997 29.8832 54.5583 28.7339 56.3414L15.6291 76.7721C15.5109 76.9547 15.7257 77.1695 15.9083 77.0513L43.0095 60.7885C43.1384 60.7133 43.1384 60.5199 43.0095 60.4447V60.4555Z" fill="#C9E4F0" stroke="black" stroke-width="0.537083" stroke-miterlimit="10"/>
<path d="M14.7481 51.3467C15.0059 51.4756 25.5971 56.8142 25.8872 56.9646C26.1772 57.115 27.1762 57.3513 27.7777 57.2546L28.4115 56.2664C28.8411 55.6004 29.4427 55.117 30.1301 54.8377L14.7373 51.3467H14.7481Z" fill="#023C40"/>
<path d="M28.5082 57.3082C30.4417 57.0075 32.01 55.1492 32.01 55.1492L30.8607 54.8914C30.1839 55.1706 29.5717 55.654 29.142 56.32L28.5082 57.3082Z" fill="#C4C4C4"/>
<path d="M43.031 34.8797L32.3 54.2039C31.4407 55.7507 29.5824 56.4489 27.9175 55.8474L15.4786 51.3681C15.3605 51.3251 15.339 51.1533 15.4464 51.0888L42.8054 34.6756C42.945 34.5896 43.0954 34.74 43.0202 34.8797H43.031Z" fill="#C9E4F0" stroke="black" stroke-width="0.537083" stroke-miterlimit="10"/>
<path d="M34.6308 66.9756C34.6308 66.9756 34.7275 66.9756 34.7705 66.9649C35.1249 66.8897 35.3398 66.5352 35.2646 66.1915L30.0334 42.6136C29.9582 42.2591 29.6037 42.0443 29.26 42.1195C28.9055 42.1946 28.6907 42.5491 28.7659 42.8929L33.9971 66.4708C34.0615 66.7716 34.3301 66.9756 34.6308 66.9756Z" fill="#3D3D3D"/>
<path d="M4.68322 -21.8043C4.68322 -12.1798 9.43103 -3.66169 16.7031 1.53727C13.3517 -3.14609 11.3753 -8.89288 11.3753 -15.1016C11.3753 -17.6258 11.6975 -20.0857 12.3205 -22.4166C11.762 -22.2877 11.1927 -22.2233 10.6019 -22.2233C8.32464 -22.2233 6.27298 -23.19 4.84434 -24.7368C4.74767 -23.7701 4.69396 -22.7926 4.69396 -21.8043H4.68322Z" fill="#3D3D3D"/>
<path d="M29.2388 42.4524C29.2388 42.4524 27.7135 37.9087 24.6843 36.3941C21.6552 34.8796 20.3984 37.3931 20.1406 37.9194C19.8828 38.4458 18.626 40.9486 21.6659 42.4632C24.7058 43.9777 29.2495 42.4632 29.2495 42.4632L29.2388 42.4524Z" stroke="#3D3D3D" stroke-width="1.07417" stroke-miterlimit="10"/>
<path d="M29.2387 41.9905C29.2387 41.9905 30.7641 37.4468 33.7932 35.9322C36.8223 34.4176 38.0791 36.9312 38.3369 37.4575C38.5947 37.9839 39.8515 40.4867 36.8116 42.0013C33.7717 43.5158 29.228 42.0013 29.228 42.0013L29.2387 41.9905Z" stroke="#3D3D3D" stroke-width="1.07417" stroke-miterlimit="10"/>
</g>
<defs>
<clipPath id="clip0_908_8850">
<rect width="58.4024" height="142.112" fill="white" transform="matrix(-1 0 0 1 58.4023 -51)"/>
</clipPath>
</defs>
</svg>
