<svg width="72" height="105" viewBox="0 0 72 105" fill="none" xmlns="http://www.w3.org/2000/svg">
<path d="M5.30371 20.6205L5.82618 19.5028C6.35686 18.3674 7.1589 17.6734 8.08875 17.545L12.6256 16.9183L27.0583 40.4601L24.7131 47.1304L6.14376 25.9102C4.99532 24.5978 4.60208 22.1216 5.30371 20.6205Z" fill="#C4C4C4" stroke="black" stroke-width="0.8"/>
<path d="M18.5626 45.6045L23.8846 30.4674C24.5319 28.6262 25.7914 27.6838 27.2128 27.9771L29.9556 28.5429L59.1973 78.0899C60.2204 79.8234 60.3447 82.3424 59.4733 83.6828C56.2388 88.6577 50.8659 88.5424 46.4567 83.4033L19.8328 52.3725C18.403 50.706 17.8343 47.6759 18.5626 45.6045Z" fill="#C4C4C4" stroke="black" stroke-width="0.864031"/>
<mask id="path-3-inside-1_908_8880" fill="white">
<path d="M24.2636 50.9699C22.8677 49.343 22.3125 46.3846 23.0235 44.3623L28.2996 29.3558C29.0406 27.248 30.8208 26.9139 32.2756 28.6096L59.1046 59.8794C63.3902 64.8744 65.0948 73.9571 62.9118 80.1661C60.7288 86.3751 55.4849 87.3592 51.1992 82.3641L24.2636 50.9699Z"/>
<path d="M10.9508 23.7547C10.2333 22.9184 9.94792 21.3977 10.3134 20.3582L11.1334 18.026C11.7425 16.2934 13.2058 16.0188 14.4016 17.4126L26.9966 33.0618L24.4119 40.4133L10.9508 23.7547Z"/>
</mask>
<path d="M24.2636 50.9699C22.8677 49.343 22.3125 46.3846 23.0235 44.3623L28.2996 29.3558C29.0406 27.248 30.8208 26.9139 32.2756 28.6096L59.1046 59.8794C63.3902 64.8744 65.0948 73.9571 62.9118 80.1661C60.7288 86.3751 55.4849 87.3592 51.1992 82.3641L24.2636 50.9699Z" fill="white"/>
<path d="M10.9508 23.7547C10.2333 22.9184 9.94792 21.3977 10.3134 20.3582L11.1334 18.026C11.7425 16.2934 13.2058 16.0188 14.4016 17.4126L26.9966 33.0618L24.4119 40.4133L10.9508 23.7547Z" fill="white"/>
<path d="M51.1992 82.3641L50.5435 82.9268L50.5435 82.9268L51.1992 82.3641ZM59.1046 59.8794L58.4488 60.442L58.4488 60.442L59.1046 59.8794ZM28.2996 29.3558L29.1147 29.6424L29.1147 29.6424L28.2996 29.3558ZM32.2756 28.6096L32.9314 28.047L32.9314 28.047L32.2756 28.6096ZM23.0235 44.3623L22.2084 44.0757L22.2084 44.0757L23.0235 44.3623ZM24.2636 50.9699L24.9193 50.4073L24.9193 50.4073L24.2636 50.9699ZM26.9966 33.0618L27.8117 33.3484L27.9712 32.8947L27.6697 32.5201L26.9966 33.0618ZM24.4119 40.4133L23.7399 40.9564L24.7133 42.1611L25.227 40.6999L24.4119 40.4133ZM11.1334 18.026L11.9485 18.3126L11.1334 18.026ZM14.4016 17.4126L15.0747 16.8709L15.0662 16.8603L15.0574 16.85L14.4016 17.4126ZM10.3134 20.3582L11.1285 20.6448L11.1285 20.6448L10.3134 20.3582ZM10.9508 23.7547L11.6229 23.2116L11.6149 23.2017L11.6066 23.192L10.9508 23.7547ZM23.8386 44.6489L29.1147 29.6424L27.4845 29.0692L22.2084 44.0757L23.8386 44.6489ZM31.6199 29.1722L58.4488 60.442L59.7603 59.3168L32.9314 28.047L31.6199 29.1722ZM51.855 81.8015L24.9193 50.4073L23.6078 51.5325L50.5435 82.9268L51.855 81.8015ZM62.0967 79.8795C61.0654 82.8125 59.3939 84.2966 57.6846 84.6174C55.9754 84.9382 53.8795 84.1611 51.855 81.8015L50.5435 82.9268C52.8047 85.5622 55.4735 86.7906 58.0034 86.3158C60.5333 85.841 62.5751 83.7286 63.7269 80.4526L62.0967 79.8795ZM58.4488 60.442C60.4697 62.7973 61.9163 66.1653 62.5847 69.7269C63.2531 73.2885 63.126 76.9517 62.0967 79.8795L63.7269 80.4526C64.8805 77.1714 64.9927 73.1888 64.2831 69.4081C63.5736 65.6274 62.0252 61.9565 59.7603 59.3168L58.4488 60.442ZM29.1147 29.6424C29.4249 28.7599 29.8701 28.4636 30.1793 28.4056C30.4885 28.3476 31.0108 28.4623 31.6199 29.1722L32.9314 28.047C32.0856 27.0612 30.9904 26.4951 29.8606 26.7072C28.7307 26.9192 27.9153 27.8438 27.4845 29.0692L29.1147 29.6424ZM22.2084 44.0757C21.7907 45.2636 21.7593 46.6684 22.0042 47.9737C22.2492 49.279 22.7879 50.5769 23.6078 51.5325L24.9193 50.4073C24.3434 49.736 23.9065 48.7412 23.7026 47.655C23.4988 46.5688 23.5452 45.4833 23.8386 44.6489L22.2084 44.0757ZM11.1285 20.6448L11.9485 18.3126L10.3183 17.7394L9.49829 20.0716L11.1285 20.6448ZM13.7285 17.9544L26.3235 33.6036L27.6697 32.5201L15.0747 16.8709L13.7285 17.9544ZM26.1815 32.7752L23.5968 40.1268L25.227 40.6999L27.8117 33.3484L26.1815 32.7752ZM25.0839 39.8703L11.6229 23.2116L10.2788 24.2977L23.7399 40.9564L25.0839 39.8703ZM11.9485 18.3126C12.1928 17.6178 12.5257 17.4301 12.7069 17.3961C12.888 17.3621 13.2663 17.4163 13.7459 17.9752L15.0574 16.85C14.3411 16.0151 13.3899 15.5097 12.3881 15.6977C11.3864 15.8857 10.6831 16.7016 10.3183 17.7394L11.9485 18.3126ZM9.49829 20.0716C9.2534 20.7681 9.24087 21.5678 9.37678 22.292C9.51269 23.0162 9.81431 23.7569 10.2951 24.3173L11.6066 23.192C11.3698 22.9161 11.17 22.4784 11.0752 21.9733C10.9804 21.4682 11.0079 20.9878 11.1285 20.6448L9.49829 20.0716Z" fill="black" mask="url(#path-3-inside-1_908_8880)"/>
<path d="M17.3147 28.6561L19.1692 24.1449L26.7737 33.2603L24.4382 40.0524L19.4936 41.4713L11.566 31.6809L14.4858 31.0351C15.7613 30.753 16.818 29.8643 17.3147 28.6561Z" fill="#F7C780" stroke="black" stroke-width="0.8"/>
<path d="M16.4223 30.116L24.3237 40.1436" stroke="black" stroke-width="0.864031" stroke-linecap="round"/>
<path d="M42.0382 41.127L37.6356 36.3374L38.7653 67.0128L43.2089 71.8526L42.0382 41.127Z" fill="#F7C780"/>
<path d="M44.7107 43.9951L43.1559 42.3414L44.2654 72.9345L46.8998 75.7866L44.7107 43.9951Z" fill="#F7C780"/>
</svg>
