<svg width="72" height="104" viewBox="0 0 72 104" fill="none" xmlns="http://www.w3.org/2000/svg">
<path d="M5.57882 25.929C4.43038 24.6166 4.03714 22.1404 4.73877 20.6393L5.26124 19.5216C5.79192 18.3862 6.59396 17.6922 7.52381 17.5638L12.0607 16.9371L26.4934 40.4789L24.1482 47.1492L5.57882 25.929Z" fill="#C4C4C4" stroke="black" stroke-width="0.8"/>
<path d="M19.2678 52.3913C17.8381 50.7248 17.2694 47.6947 17.9977 45.6233L23.3197 30.4862C23.967 28.645 25.2265 27.7026 26.6479 27.9959L29.3907 28.5617L58.6324 78.1087C59.6555 79.8422 59.7798 82.3612 58.9083 83.7016C55.6738 88.6765 50.301 88.5612 45.8917 83.4221L19.2678 52.3913Z" fill="#C4C4C4" stroke="black" stroke-width="0.864031"/>
<mask id="path-3-inside-1_908_8880" fill="white">
<path d="M23.6986 50.9887C22.3027 49.3618 21.7475 46.4034 22.4586 44.3811L27.7346 29.3746C28.4757 27.2668 30.2559 26.9327 31.7107 28.6284L58.5396 59.8982C62.8253 64.8932 64.5298 73.9759 62.3468 80.1849C60.1638 86.3939 54.92 87.378 50.6343 82.3829L23.6986 50.9887Z"/>
<path d="M10.3859 23.7735C9.66836 22.9372 9.38298 21.4165 9.74847 20.377L10.5684 18.0448C11.1776 16.3122 12.6408 16.0376 13.8367 17.4314L26.4316 33.0806L23.847 40.4321L10.3859 23.7735Z"/>
</mask>
<path d="M23.6986 50.9887C22.3027 49.3618 21.7475 46.4034 22.4586 44.3811L27.7346 29.3746C28.4757 27.2668 30.2559 26.9327 31.7107 28.6284L58.5396 59.8982C62.8253 64.8932 64.5298 73.9759 62.3468 80.1849C60.1638 86.3939 54.92 87.378 50.6343 82.3829L23.6986 50.9887Z" fill="white"/>
<path d="M10.3859 23.7735C9.66836 22.9372 9.38298 21.4165 9.74847 20.377L10.5684 18.0448C11.1776 16.3122 12.6408 16.0376 13.8367 17.4314L26.4316 33.0806L23.847 40.4321L10.3859 23.7735Z" fill="white"/>
<path d="M50.6343 82.3829L49.9786 82.9456L50.6343 82.3829ZM58.5396 59.8982L57.8839 60.4608L58.5396 59.8982ZM27.7346 29.3746L28.5498 29.6612L27.7346 29.3746ZM31.7107 28.6284L32.3665 28.0658L31.7107 28.6284ZM22.4586 44.3811L21.6434 44.0945L22.4586 44.3811ZM23.6986 50.9887L24.3544 50.4261L23.6986 50.9887ZM26.4316 33.0806L27.2468 33.3672L27.4063 32.9135L27.1048 32.5389L26.4316 33.0806ZM23.847 40.4321L23.1749 40.9752L24.1484 42.1799L24.6621 40.7187L23.847 40.4321ZM10.5684 18.0448L11.3836 18.3314L10.5684 18.0448ZM13.8367 17.4314L14.5098 16.8897L14.5013 16.8791L14.4924 16.8688L13.8367 17.4314ZM9.74847 20.377L10.5636 20.6636L9.74847 20.377ZM10.3859 23.7735L11.0579 23.2304L11.0499 23.2205L11.0416 23.2108L10.3859 23.7735ZM23.2737 44.6676L28.5498 29.6612L26.9195 29.088L21.6434 44.0945L23.2737 44.6676ZM31.055 29.191L57.8839 60.4608L59.1954 59.3356L32.3665 28.0658L31.055 29.191ZM51.2901 81.8203L24.3544 50.4261L23.0429 51.5513L49.9786 82.9456L51.2901 81.8203ZM61.5317 79.8983C60.5005 82.8313 58.8289 84.3154 57.1197 84.6362C55.4105 84.957 53.3145 84.1799 51.2901 81.8203L49.9786 82.9456C52.2397 85.581 54.9086 86.8094 57.4384 86.3346C59.9683 85.8598 62.0102 83.7474 63.1619 80.4715L61.5317 79.8983ZM57.8839 60.4608C59.9047 62.8161 61.3514 66.1841 62.0198 69.7457C62.6882 73.3073 62.5611 76.9705 61.5317 79.8983L63.1619 80.4715C64.3156 77.1902 64.4277 73.2076 63.7182 69.4269C63.0087 65.6462 61.4602 61.9753 59.1954 59.3356L57.8839 60.4608ZM28.5498 29.6612C28.86 28.7787 29.3052 28.4824 29.6144 28.4244C29.9236 28.3664 30.4459 28.4811 31.055 29.191L32.3665 28.0658C31.5207 27.08 30.4255 26.5139 29.2956 26.726C28.1658 26.938 27.3503 27.8626 26.9195 29.088L28.5498 29.6612ZM21.6434 44.0945C21.2258 45.2824 21.1943 46.6872 21.4393 47.9925C21.6843 49.2978 22.2229 50.5957 23.0429 51.5513L24.3544 50.4261C23.7784 49.7548 23.3415 48.76 23.1377 47.6738C22.9339 46.5876 22.9803 45.5021 23.2737 44.6676L21.6434 44.0945ZM10.5636 20.6636L11.3836 18.3314L9.75332 17.7582L8.93335 20.0904L10.5636 20.6636ZM13.1636 17.9732L25.7585 33.6224L27.1048 32.5389L14.5098 16.8897L13.1636 17.9732ZM25.6165 32.794L23.0318 40.1456L24.6621 40.7187L27.2468 33.3672L25.6165 32.794ZM24.519 39.8891L11.0579 23.2304L9.71383 24.3165L23.1749 40.9752L24.519 39.8891ZM11.3836 18.3314C11.6278 17.6366 11.9608 17.4489 12.1419 17.4149C12.323 17.3809 12.7014 17.4351 13.1809 17.994L14.4924 16.8688C13.7762 16.0339 12.8249 15.5285 11.8232 15.7165C10.8214 15.9045 10.1182 16.7204 9.75332 17.7582L11.3836 18.3314ZM8.93335 20.0904C8.68846 20.7869 8.67593 21.5866 8.81184 22.3108C8.94775 23.035 9.24937 23.7757 9.73013 24.3361L11.0416 23.2108C10.8049 22.9349 10.605 22.4971 10.5103 21.9921C10.4155 21.487 10.443 21.0066 10.5636 20.6636L8.93335 20.0904Z" fill="black" mask="url(#path-3-inside-1_908_8880)"/>
<path d="M16.7497 28.6749L18.6043 24.1637L26.2088 33.2791L23.8733 40.0712L18.9286 41.4901L11.0011 31.6997L13.9208 31.0539C15.1964 30.7718 16.253 29.8831 16.7497 28.6749Z" fill="#F7C780" stroke="black" stroke-width="0.8"/>
<path d="M15.8574 30.1348L23.7588 40.1624" stroke="black" stroke-width="0.864031" stroke-linecap="round"/>
<path d="M41.4732 41.1458L37.0706 36.3562L38.2004 67.0316L42.644 71.8714L41.4732 41.1458Z" fill="#F7C780"/>
<path d="M44.1458 44.0139L42.5909 42.3602L43.7005 72.9533L46.3348 75.8054L44.1458 44.0139Z" fill="#F7C780"/>
</svg>
