<svg width="55" height="65" viewBox="0 0 55 65" fill="none" xmlns="http://www.w3.org/2000/svg">
<mask id="path-1-inside-1_908_8301" fill="white">
<path fill-rule="evenodd" clip-rule="evenodd" d="M1.90416 54.3737C0.713817 53.0367 0 51.2293 0 48.8401C0 33.8239 12.173 21.6509 27.1892 21.6509C41.8154 21.6509 53.7442 33.1998 54.354 47.6759C54.9169 52.0636 52.2927 56.5621 46.4814 59.9172C35.8852 66.0349 18.7054 66.0349 8.10923 59.9172C5.29167 58.2905 3.22332 56.395 1.90416 54.3737Z"/>
</mask>
<path fill-rule="evenodd" clip-rule="evenodd" d="M1.90416 54.3737C0.713817 53.0367 0 51.2293 0 48.8401C0 33.8239 12.173 21.6509 27.1892 21.6509C41.8154 21.6509 53.7442 33.1998 54.354 47.6759C54.9169 52.0636 52.2927 56.5621 46.4814 59.9172C35.8852 66.0349 18.7054 66.0349 8.10923 59.9172C5.29167 58.2905 3.22332 56.395 1.90416 54.3737Z" fill="white"/>
<path d="M1.90416 54.3737L3.02956 53.6393L2.97466 53.5552L2.90787 53.4801L1.90416 54.3737ZM54.354 47.6759L53.0113 47.7325L53.0137 47.7899L53.021 47.8469L54.354 47.6759ZM46.4814 59.9172L47.1533 61.081L46.4814 59.9172ZM8.10923 59.9172L7.4373 61.081L7.4373 61.081L8.10923 59.9172ZM2.90787 53.4801C1.96284 52.4187 1.34386 50.9415 1.34386 48.8401H-1.34386C-1.34386 51.5172 -0.535206 53.6548 0.900446 55.2673L2.90787 53.4801ZM1.34386 48.8401C1.34386 34.5661 12.9152 22.9947 27.1892 22.9947V20.307C11.4308 20.307 -1.34386 33.0817 -1.34386 48.8401H1.34386ZM27.1892 22.9947C41.0921 22.9947 52.4317 33.9728 53.0113 47.7325L55.6966 47.6194C55.0566 32.4267 42.5386 20.307 27.1892 20.307V22.9947ZM53.021 47.8469C53.4896 51.4995 51.3522 55.5533 45.8095 58.7534L47.1533 61.081C53.2333 57.5708 56.3442 52.6278 55.6869 47.5049L53.021 47.8469ZM45.8095 58.7534C40.7637 61.6666 34.0659 63.1616 27.2953 63.1616C20.5247 63.1616 13.8269 61.6666 8.78116 58.7534L7.4373 61.081C12.9878 64.2856 20.1779 65.8494 27.2953 65.8494C34.4127 65.8494 41.6029 64.2856 47.1533 61.081L45.8095 58.7534ZM8.78117 58.7534C6.10308 57.2072 4.20885 55.4463 3.02956 53.6393L0.778761 55.1082C2.23779 57.3438 4.48026 59.3738 7.4373 61.081L8.78117 58.7534Z" fill="black" mask="url(#path-1-inside-1_908_8301)"/>
<path d="M52.3017 52.3015C52.3017 37.4827 40.9697 27.894 35.7396 27.894C35.7396 28.5047 34.8209 28.656 33.9962 29.6374C32.9373 30.8975 31.8711 32.9609 31.3811 33.1242C39.7494 40.0977 41.5509 54.3354 40.9697 61.0184C49.338 58.229 52.3017 53.1731 52.3017 52.3015Z" fill="#93B5FE"/>
<ellipse cx="27.2545" cy="29.565" rx="7.39123" ry="4.03158" fill="#3F4748"/>
<path d="M42.0378 15.4544C42.0378 23.647 35.6924 30.2368 27.9272 30.2368C20.162 30.2368 13.8167 23.647 13.8167 15.4544C13.8167 7.2618 20.162 0.67193 27.9272 0.67193C35.6924 0.67193 42.0378 7.2618 42.0378 15.4544Z" fill="white" stroke="black" stroke-width="1.34386"/>
</svg>
