<svg width="82" height="52" viewBox="0 0 82 52" fill="none" xmlns="http://www.w3.org/2000/svg">
<path d="M81.2636 16.5713V19.3131C81.2636 20.1573 80.7007 20.889 80.1781 21.3955C80.0012 21.5644 79.8243 21.7091 79.6715 21.8217L31.3969 50.7833C31.1798 50.8878 30.9707 50.9843 30.7536 51.0647C29.6441 51.4989 28.5586 51.6436 27.5696 51.6195C26.1933 51.5859 24.2731 51.0084 23.5494 50.6707C23.2439 50.526 23.075 50.4295 23.075 50.4295C23.075 50.4295 7.34799 40.99 2.8534 38.2965C2.62827 38.1598 2.42726 38.0312 2.25037 37.8945C1.22119 37.1306 0.859375 36.3829 0.859375 35.6994V32.9657C0.859375 33.3918 0.996062 33.8421 1.34984 34.3004C1.66342 34.7105 2.14584 35.1366 2.84536 35.5628C7.33995 38.2643 23.067 47.6958 23.067 47.6958C23.067 47.6958 23.0831 47.7038 23.1153 47.7279C23.4369 47.9048 25.2218 48.8536 27.5616 48.8938C28.9365 48.9179 30.4964 48.6365 32.0562 47.6958C32.3376 47.5269 32.7638 47.2696 33.3266 46.9319C33.4633 46.8435 33.616 46.7631 33.7688 46.6666C34.3879 46.2967 35.1437 45.8465 35.988 45.3319L36.6473 44.9379C43.2404 40.982 55.1563 33.8341 64.7083 28.1013L65.5043 27.6269C65.826 27.4339 66.1476 27.2409 66.4611 27.048L67.4019 26.4851C74.2041 22.4006 79.2534 19.3774 79.2534 19.3774C79.2534 19.3774 79.2535 19.3774 79.2776 19.3613C79.4223 19.2729 80.2183 18.7502 80.757 17.9784C80.7731 17.9542 80.7892 17.9301 80.8053 17.898C80.958 17.6728 81.0786 17.4236 81.159 17.1663C81.2153 16.9814 81.2475 16.7803 81.2475 16.5793L81.2636 16.5713Z" fill="#FFD979" stroke="black" stroke-width="0.566227" stroke-miterlimit="10"/>
<path d="M81.1748 16.322V19.3211C81.1748 20.3101 80.1778 21.3875 79.6552 21.701L31.284 50.6224C30.0297 51.2094 28.5423 51.4586 27.5854 51.4104V48.8777C27.8669 48.7088 32.7876 47.2535 33.3504 46.9158C33.4871 46.8273 33.6399 46.7469 33.7926 46.6505C34.4118 46.2806 35.1676 45.8303 36.0118 45.3158L36.6711 44.9218C43.2643 40.9659 55.1802 33.818 64.7322 28.0851L65.5282 27.6108C65.8498 27.4178 66.1714 27.2248 66.485 27.0318L67.4257 26.469C74.2279 22.3845 79.2773 19.3613 79.2773 19.3613C79.2773 19.3613 79.2773 19.3613 79.3014 19.3452C79.4461 19.2568 80.2421 18.7341 80.7808 17.9623C80.7969 17.9381 80.813 17.914 80.8291 17.8818C81.0783 17.4637 81.1829 16.7964 81.1829 16.314L81.1748 16.322Z" fill="#FFD979"/>
<path d="M81.2636 16.5711C81.2636 17.0857 81.0545 17.5681 80.7731 17.9701C80.2344 18.742 79.4384 19.2647 79.2937 19.3531C79.2776 19.3611 79.2695 19.3692 79.2695 19.3692C79.2695 19.3692 74.2201 22.3924 67.418 26.4769L66.4772 27.0397C66.1636 27.2327 65.842 27.4176 65.5204 27.6186L64.7244 28.093C55.1724 33.8259 43.2565 40.9738 36.6634 44.9297L36.004 45.3237C35.1518 45.8382 34.404 46.2805 33.7849 46.6584C33.6321 46.7548 33.4794 46.8433 33.3427 46.9237C32.7798 47.2614 32.3537 47.5187 32.0723 47.6875C27.8591 50.2203 23.6459 48.0011 23.1313 47.7197C23.0992 47.7036 23.0831 47.6875 23.0831 47.6875C23.0831 47.6875 7.35603 38.2481 2.86144 35.5545C2.16192 35.1284 1.6795 34.7103 1.36592 34.2922C1.0041 33.8259 0.859375 33.3756 0.859375 32.9494C0.859375 31.3494 2.8534 30.1514 2.8534 30.1514C2.8534 30.1514 45.548 4.53461 50.0426 1.83303C54.5372 -0.868554 59.0318 1.83303 59.0318 1.83303C59.0318 1.83303 74.7669 11.2725 79.2615 13.966C80.757 14.8665 81.2555 15.7671 81.2555 16.5631L81.2636 16.5711Z" fill="white" stroke="black" stroke-width="0.566227" stroke-miterlimit="10"/>
<path d="M41.0795 28.674L48.0705 24.7701L41.8968 20.5938L34.4519 24.7701L41.0795 28.674Z" fill="#FFD979"/>
<path d="M26.8031 45.0017L33.7941 41.0977L27.6204 36.9214L20.1755 41.0977L26.8031 45.0017Z" fill="#FFD979"/>
<path d="M61.1774 24.634L68.1684 20.73L61.9947 16.5537L54.5498 20.73L61.1774 24.634Z" fill="#FFD979"/>
<path d="M14.0942 36.9133L61.2915 8.59497" stroke="#3D3D3D" stroke-width="0.566227" stroke-miterlimit="10"/>
<path d="M20.8401 40.9575L68.0293 12.6392" stroke="#3D3D3D" stroke-width="0.566227" stroke-miterlimit="10"/>
<path d="M14.0942 28.8247L34.3239 40.9577" stroke="#3D3D3D" stroke-width="0.566227" stroke-miterlimit="10"/>
<path d="M20.8401 24.7803L41.0617 36.9133" stroke="#3D3D3D" stroke-width="0.566227" stroke-miterlimit="10"/>
<path d="M27.5776 20.7361L47.8073 32.8691" stroke="#3D3D3D" stroke-width="0.566227" stroke-miterlimit="10"/>
<path d="M34.3237 16.6836L54.5454 28.8246" stroke="#3D3D3D" stroke-width="0.566227" stroke-miterlimit="10"/>
<path d="M41.0618 12.6392L61.2915 24.7802" stroke="#3D3D3D" stroke-width="0.566227" stroke-miterlimit="10"/>
<path d="M47.8079 8.59497L68.0295 20.736" stroke="#3D3D3D" stroke-width="0.566227" stroke-miterlimit="10"/>
<path d="M7.35596 32.8689L54.5452 4.55054L74.7749 16.6835L27.5776 45.0019L7.35596 32.8689Z" stroke="#3D3D3D" stroke-width="0.566227" stroke-miterlimit="10"/>
<path d="M7.35596 32.869L14.0938 28.8247L20.8397 32.869L14.0938 36.9134L7.35596 32.869Z" fill="#3D3D3D"/>
<path d="M27.5776 28.8246L34.3235 24.7803L41.0614 28.8246L34.3235 32.8689L27.5776 28.8246Z" fill="#3D3D3D"/>
<path d="M27.5776 36.9132L34.3235 32.8689L41.0614 36.9132L34.3235 40.9576L27.5776 36.9132Z" fill="#3D3D3D"/>
<path d="M41.0618 20.736L47.8077 16.6836L54.5455 20.736L47.8077 24.7803L41.0618 20.736Z" fill="#3D3D3D"/>
<path d="M34.3237 16.6835L41.0616 12.6392L47.8075 16.6835L41.0616 20.7359L34.3237 16.6835Z" fill="#3D3D3D"/>
<path d="M47.8079 8.59487L54.5457 4.55054L61.2917 8.59487L54.5457 12.6392L47.8079 8.59487Z" fill="#3D3D3D"/>
<path d="M61.2915 16.5709L68.0294 12.5186L74.7753 16.5709L68.0294 20.6153L61.2915 16.5709Z" fill="#3D3D3D"/>
</svg>
