<svg width="71" height="45" viewBox="0 0 71 45" fill="none" xmlns="http://www.w3.org/2000/svg">
<path d="M70 14.6594V17.0091C70 17.7326 69.5177 18.3596 69.0698 18.7937C68.9182 18.9384 68.7666 19.0625 68.6357 19.1589L27.2651 43.9785C27.0791 44.0681 26.8999 44.1508 26.7139 44.2197C25.763 44.5918 24.8328 44.7158 23.9852 44.6951C22.8057 44.6664 21.1601 44.1715 20.54 43.8821C20.2781 43.758 20.1334 43.6754 20.1334 43.6754C20.1334 43.6754 6.65561 35.5859 2.80382 33.2776C2.61088 33.1604 2.43862 33.0502 2.28703 32.9331C1.40504 32.2785 1.09497 31.6376 1.09497 31.0519V28.7092C1.09497 29.0744 1.21211 29.4602 1.51529 29.853C1.78402 30.2044 2.19745 30.5696 2.79693 30.9348C6.64872 33.25 20.1265 41.3326 20.1265 41.3326C20.1265 41.3326 20.1403 41.3395 20.1679 41.3601C20.4435 41.5117 21.9732 42.3248 23.9783 42.3593C25.1566 42.3799 26.4934 42.1388 27.8301 41.3326C28.0713 41.1879 28.4365 40.9674 28.9188 40.678C29.036 40.6022 29.1669 40.5333 29.2978 40.4506C29.8284 40.1336 30.4761 39.7478 31.1996 39.3068L31.7646 38.9691C37.4148 35.579 47.6266 29.4533 55.8125 24.5404L56.4946 24.1339C56.7702 23.9685 57.0459 23.8031 57.3146 23.6378L58.1208 23.1554C63.9502 19.655 68.2774 17.0642 68.2774 17.0642C68.2774 17.0642 68.2774 17.0642 68.2981 17.0504C68.4221 16.9746 69.1043 16.5268 69.5659 15.8653C69.5797 15.8446 69.5935 15.8239 69.6073 15.7964C69.7382 15.6034 69.8415 15.3898 69.9104 15.1693C69.9587 15.0108 69.9862 14.8386 69.9862 14.6663L70 14.6594Z" fill="#FFD979" stroke="black" stroke-width="0.566227" stroke-miterlimit="10"/>
<path d="M69.924 14.4459V17.016C69.924 17.8635 69.0696 18.7869 68.6217 19.0556L27.1684 43.8407C26.0935 44.3438 24.8187 44.5574 23.9988 44.516V42.3455C24.2399 42.2008 28.4569 40.9536 28.9393 40.6642C29.0564 40.5884 29.1873 40.5195 29.3182 40.4368C29.8488 40.1199 30.4965 39.734 31.22 39.293L31.785 38.9554C37.4353 35.5653 47.647 29.4396 55.8329 24.5267L56.5151 24.1201C56.7907 23.9548 57.0663 23.7894 57.335 23.624L58.1412 23.1417C63.9706 19.6413 68.2978 17.0505 68.2978 17.0505C68.2978 17.0505 68.2978 17.0505 68.3185 17.0367C68.4425 16.9609 69.1247 16.513 69.5864 15.8515C69.6001 15.8308 69.6139 15.8102 69.6277 15.7826C69.8413 15.4243 69.9309 14.8524 69.9309 14.439L69.924 14.4459Z" fill="#FFD979"/>
<path d="M70 14.6593C70 15.1003 69.8209 15.5137 69.5797 15.8582C69.118 16.5197 68.4359 16.9676 68.3119 17.0434C68.2981 17.0503 68.2912 17.0572 68.2912 17.0572C68.2912 17.0572 63.9639 19.648 58.1346 23.1484L57.3284 23.6307C57.0597 23.7961 56.784 23.9546 56.5084 24.1268L55.8263 24.5334C47.6403 29.4463 37.4286 35.572 31.7784 38.9621L31.2134 39.2997C30.483 39.7407 29.8422 40.1197 29.3116 40.4435C29.1807 40.5262 29.0498 40.602 28.9326 40.6709C28.4503 40.9603 28.0851 41.1808 27.8439 41.3255C24.2333 43.496 20.6227 41.5943 20.1817 41.3531C20.1541 41.3393 20.1403 41.3255 20.1403 41.3255C20.1403 41.3255 6.6625 33.2361 2.81071 30.9278C2.21123 30.5626 1.7978 30.2043 1.52907 29.846C1.219 29.4463 1.09497 29.0604 1.09497 28.6952C1.09497 27.324 2.80382 26.2973 2.80382 26.2973C2.80382 26.2973 39.3924 4.34419 43.2442 2.02898C47.096 -0.286228 50.9478 2.02898 50.9478 2.02898C50.9478 2.02898 64.4325 10.1184 68.2843 12.4268C69.5659 13.1985 69.9931 13.9702 69.9931 14.6524L70 14.6593Z" fill="white" stroke="black" stroke-width="0.566227" stroke-miterlimit="10"/>
<path d="M35.563 25.0314L41.5542 21.6857L36.2635 18.1067L29.8833 21.6857L35.563 25.0314Z" fill="#FFD979"/>
<path d="M23.3284 39.0238L29.3196 35.6781L24.0288 32.0991L17.6487 35.6781L23.3284 39.0238Z" fill="#FFD979"/>
<path d="M52.7864 21.569L58.7776 18.2233L53.4869 14.6443L47.1067 18.2233L52.7864 21.569Z" fill="#FFD979"/>
<path d="M12.437 32.0923L52.8843 7.82397" stroke="#3D3D3D" stroke-width="0.566227" stroke-miterlimit="10"/>
<path d="M18.218 35.5582L58.6584 11.2898" stroke="#3D3D3D" stroke-width="0.566227" stroke-miterlimit="10"/>
<path d="M12.437 25.1604L29.7735 35.5582" stroke="#3D3D3D" stroke-width="0.566227" stroke-miterlimit="10"/>
<path d="M18.218 21.6943L35.5476 32.0921" stroke="#3D3D3D" stroke-width="0.566227" stroke-miterlimit="10"/>
<path d="M23.9919 18.2285L41.3284 28.6263" stroke="#3D3D3D" stroke-width="0.566227" stroke-miterlimit="10"/>
<path d="M29.7732 14.7556L47.1028 25.1603" stroke="#3D3D3D" stroke-width="0.566227" stroke-miterlimit="10"/>
<path d="M35.5476 11.2898L52.8841 21.6945" stroke="#3D3D3D" stroke-width="0.566227" stroke-miterlimit="10"/>
<path d="M41.3289 7.82397L58.6585 18.2286" stroke="#3D3D3D" stroke-width="0.566227" stroke-miterlimit="10"/>
<path d="M6.66235 28.6263L47.1027 4.35791L64.4392 14.7557L23.992 39.024L6.66235 28.6263Z" stroke="#3D3D3D" stroke-width="0.566227" stroke-miterlimit="10"/>
<path d="M6.66235 28.6263L12.4366 25.1604L18.2177 28.6263L12.4366 32.0922L6.66235 28.6263Z" fill="#3D3D3D"/>
<path d="M23.9919 25.1603L29.7731 21.6943L35.5473 25.1603L29.7731 28.6262L23.9919 25.1603Z" fill="#3D3D3D"/>
<path d="M23.9919 32.0921L29.7731 28.6262L35.5473 32.0921L29.7731 35.5581L23.9919 32.0921Z" fill="#3D3D3D"/>
<path d="M35.5476 18.2284L41.3287 14.7556L47.103 18.2284L41.3287 21.6944L35.5476 18.2284Z" fill="#3D3D3D"/>
<path d="M29.7732 14.7557L35.5474 11.2898L41.3286 14.7557L35.5474 18.2285L29.7732 14.7557Z" fill="#3D3D3D"/>
<path d="M41.3289 7.82384L47.1031 4.35791L52.8842 7.82384L47.1031 11.2898L41.3289 7.82384Z" fill="#3D3D3D"/>
<path d="M52.8843 14.6591L58.6585 11.1863L64.4397 14.6591L58.6585 18.125L52.8843 14.6591Z" fill="#3D3D3D"/>
</svg>
