<svg width="54" height="43" viewBox="0 0 54 43" fill="none" xmlns="http://www.w3.org/2000/svg">
<path d="M4.98262 6.56885L38.2805 27.1396L50.4739 24.0912L49.1216 20.9358C49.01 20.6755 48.8171 20.4583 48.5719 20.3168L15.4979 1.22699C15.0913 0.992335 14.5903 0.992931 14.1843 1.22855L4.98262 6.56885Z" fill="#FFD979" stroke="black" stroke-width="1.18572" stroke-linejoin="round"/>
<mask id="mask0_908_8399" style="mask-type:alpha" maskUnits="userSpaceOnUse" x="5" y="1" width="47" height="27">
<path d="M5.74836 7.15736L39.5259 27.1396L51.7192 24.0912L50.0992 21.0241C49.98 20.7984 49.7975 20.6124 49.574 20.489L16.2937 2.09721C15.9013 1.88035 15.4253 1.87904 15.0317 2.09373L5.74836 7.15736Z" fill="#FFD979"/>
</mask>
<g mask="url(#mask0_908_8399)">
<rect opacity="0.9" width="36.0556" height="5.40834" transform="matrix(-1 0 0 1 52.9651 13.4673)" fill="white"/>
<rect opacity="0.9" width="36.0556" height="1.80278" transform="matrix(-1 0 0 1 43.9509 9.86157)" fill="white"/>
</g>
<path d="M49.2263 21.1515L52.8514 29.22C53.1657 29.9194 52.5871 31.215 51.7626 31.6584L37.0279 39.5807C35.431 40.4393 34.3886 39.1436 35.0196 37.0841L38.0651 27.1436C38.251 26.5366 38.6847 25.971 39.1553 25.7219L48.2234 20.92C48.666 20.6856 49.0575 20.776 49.2263 21.1515Z" fill="#F4F1EC" stroke="black" stroke-width="1.18572" stroke-linejoin="round"/>
<path d="M36.5428 38.9123L38.3548 26.9477C38.4354 26.4158 38.1828 25.8886 37.7178 25.6181L4.92903 6.54272L1.22919 16.4314C0.670879 17.9236 1.25227 19.6019 2.61398 20.429L34.5658 39.8366C35.3658 40.3225 36.4026 39.8378 36.5428 38.9123Z" fill="white" stroke="black" stroke-width="1.18572" stroke-linejoin="round"/>
</svg>
