<svg width="65" height="51" viewBox="0 0 65 51" fill="none" xmlns="http://www.w3.org/2000/svg">
<path d="M6.44413 7.81318L46.0975 32.3102L60.6182 28.68L58.9749 24.8458C58.8634 24.5855 58.6705 24.3683 58.4252 24.2267L18.8409 1.37933C18.4344 1.14468 17.9334 1.14528 17.5274 1.3809L6.44413 7.81318Z" fill="#FFD979" stroke="black" stroke-width="1.18572" stroke-linejoin="round"/>
<mask id="mask0_908_8399" style="mask-type:alpha" maskUnits="userSpaceOnUse" x="7" y="2" width="56" height="31">
<path d="M7.35612 8.5141L47.5807 32.3102L62.1013 28.6801L60.1372 24.9616C60.018 24.7359 59.8354 24.5499 59.612 24.4264L19.794 2.42167C19.4016 2.20481 18.9255 2.2035 18.532 2.41819L7.35612 8.5141Z" fill="#FFD979"/>
</mask>
<g mask="url(#mask0_908_8399)">
<rect opacity="0.9" width="42.9374" height="6.44061" transform="matrix(-1 0 0 1 63.585 16.0283)" fill="white"/>
<rect opacity="0.9" width="42.9374" height="2.14687" transform="matrix(-1 0 0 1 52.8503 11.7344)" fill="white"/>
</g>
<path d="M59.0796 25.0615L63.5775 35.0724C63.8918 35.7718 63.3132 37.0674 62.4886 37.5108L43.9721 47.4664C42.3752 48.3251 41.3328 47.0293 41.9638 44.9699L45.8999 32.1224C46.0858 31.5155 46.5195 30.9499 46.9901 30.7007L58.0767 24.8299C58.5193 24.5955 58.9109 24.686 59.0796 25.0615Z" fill="#F4F1EC" stroke="black" stroke-width="1.18572" stroke-linejoin="round"/>
<path d="M43.9716 46.7015L46.2112 31.9136C46.2918 31.3817 46.0392 30.8546 45.5742 30.584L6.38012 7.78223L1.79042 20.0492C1.23212 21.5414 1.8135 23.2198 3.17522 24.0469L41.9947 47.6258C42.7946 48.1117 43.8315 47.627 43.9716 46.7015Z" fill="white" stroke="black" stroke-width="1.18572" stroke-linejoin="round"/>
</svg>
