<svg width="83" height="85" viewBox="0 0 83 85" fill="none" xmlns="http://www.w3.org/2000/svg">
<path d="M71.9531 44.3876C74.0686 47.9133 80.4149 46.503 78.7876 38.7464C77.5385 32.7922 71.9531 35.4154 73.4719 39.5523C74.1961 41.5248 81.1201 45.0928 81.8252 33.1052" stroke="#F4F1EC" stroke-width="0.805624" stroke-linecap="round"/>
<path d="M71.9526 50.5222C71.9526 68.9431 56.7987 83.8761 38.1054 83.8761C19.4122 83.8761 4.2583 68.9431 4.2583 50.5222C4.2583 40.3424 8.88626 31.2277 16.182 25.1098C17.9671 23.6129 12.0149 18.2973 16.951 14.7716C23.2973 11.951 25.1467 19.6502 26.8231 19.0663C30.3519 17.8372 34.1494 17.1684 38.1054 17.1684C56.7987 17.1684 71.9526 32.1014 71.9526 50.5222Z" fill="#F4F1EC" stroke="black" stroke-width="1.07417"/>
<path d="M52.208 34.1124L53.0321 33.1052C55.48 30.1134 59.999 29.9519 62.6542 32.7615V32.7615C64.7743 35.0047 64.9951 38.4402 63.1796 40.9364L60.6698 44.3874" stroke="black" stroke-width="1.07417" stroke-linecap="round"/>
<rect width="25.9075" height="16.3774" rx="7.51916" transform="matrix(0.866025 0.5 -2.20305e-08 1 1.43799 51.283)" fill="#F4F1EC" stroke="black" stroke-width="1.07417"/>
<ellipse cx="25.4127" cy="54.9647" rx="1.4103" ry="3.52574" fill="black"/>
<ellipse cx="12.7201" cy="48.6182" rx="1.4103" ry="2.82059" fill="black"/>
<circle r="3.20522" transform="matrix(0.866025 0.5 -2.20305e-08 1 7.41911 63.0698)" fill="#636363"/>
<circle r="3.20522" transform="matrix(0.866025 0.5 -2.20305e-08 1 17.0343 69.4804)" fill="#636363"/>
<path d="M33.8745 23.2332L31.054 25.3486C32.4643 25.3486 37.4003 26.7589 42.3363 29.5795L45.1569 27.464C40.926 23.9383 36.6951 23.2332 33.8745 23.2332Z" fill="black"/>
<circle cx="57.1444" cy="38.0411" r="3.52574" fill="#DBD4C9"/>
<ellipse cx="19.696" cy="22.0337" rx="2.82059" ry="3.52574" transform="rotate(-28.3 19.696 22.0337)" fill="#DBD4C9"/>
<path d="M39.659 1.44597C41.5372 1.20318 43.4249 2.32386 44.9592 4.3648C46.4935 6.40574 47.6592 9.34728 48.0943 12.713C48.5294 16.0787 48.1492 19.2239 47.1853 21.5852C46.2213 23.9466 44.6796 25.5118 42.8014 25.7546L39.4207 26.1917L36.2783 1.883L39.659 1.44597Z" fill="#EAB95B"/>
<path d="M39.659 1.44597C41.5372 1.20318 43.4249 2.32386 44.9592 4.3648C46.4935 6.40574 47.6592 9.34728 48.0943 12.713C48.5294 16.0787 48.1492 19.2239 47.1853 21.5852C46.2213 23.9466 44.6796 25.5118 42.8014 25.7546L39.4207 26.1917L36.2783 1.883L39.659 1.44597Z" fill="#FFD979"/>
<path d="M36.7144 1.82689C38.5926 1.5841 40.4802 2.70478 42.0146 4.74572C43.5489 6.78666 44.7159 9.72803 45.151 13.0937C45.586 16.4594 45.2059 19.6046 44.2419 21.966C43.2779 24.3273 41.7362 25.8926 39.858 26.1354C37.9798 26.3782 36.0922 25.2575 34.558 23.2178C33.0238 21.1781 31.858 18.2353 31.4227 14.8684C30.9875 11.5014 31.368 8.35874 32.3319 5.99739C33.2959 3.63604 34.8362 2.06968 36.7144 1.82689Z" fill="white"/>
<path d="M36.9348 5.16403C38.2485 4.99421 39.5759 5.8119 40.6611 7.3016C41.7463 8.7913 42.575 10.9342 42.8919 13.3855C43.2087 15.8367 42.9514 18.1222 42.2815 19.8366C41.6116 21.551 40.535 22.6817 39.2212 22.8515C37.9075 23.0213 36.5844 22.2031 35.4953 20.7084C34.4062 19.2138 33.5814 17.0758 33.2645 14.6246C32.9477 12.1733 33.205 9.88783 33.8749 8.17342C34.5448 6.45901 35.6221 5.33372 36.9348 5.16403Z" fill="#FFD979"/>
<path fill-rule="evenodd" clip-rule="evenodd" d="M40.6734 7.31456C38.3471 4.10445 35.2999 4.49836 33.8665 8.19448C32.433 11.8906 33.1569 17.4906 35.4833 20.7017C37.5597 23.5673 40.2102 23.5657 41.7756 20.8982C40.3262 23.1271 37.9725 23.0557 36.1207 20.4999C33.9807 17.5459 33.3145 12.3924 34.6332 8.99342C35.952 5.59448 38.7554 5.2299 40.8954 8.18391C41.9675 9.66445 42.6694 11.6924 42.9375 13.7742C42.6854 11.3786 41.9038 9.01243 40.6734 7.31456Z" fill="#E9AC66"/>
<path d="M47.8317 11.4784L45.0194 11.8419C45.046 12.0477 45.2836 13.3558 45.3523 13.8876C45.4211 14.4195 45.4517 16.8256 45.2924 18.2319C44.7151 23.3279 42.3514 25.0477 41.1084 25.8667L43.4616 25.5625C46.4709 24.4061 47.2245 21.1012 47.8661 19.2957C48.4872 16.5496 48.119 12.9541 47.8317 11.4784Z" fill="#C18E48"/>
</svg>
