<svg width="73" height="74" viewBox="0 0 73 74" fill="none" xmlns="http://www.w3.org/2000/svg">
<path d="M9.68262 38.5486C7.82204 41.6495 2.24031 40.4091 3.67152 33.587C4.77016 28.3502 9.68262 30.6574 8.34682 34.2958C7.70991 36.0307 1.62011 39.1688 0.999921 28.6255" stroke="#F4F1EC" stroke-width="0.805624" stroke-linecap="round"/>
<path d="M9.68319 43.9441C9.68319 60.1456 23.0113 73.2795 39.4524 73.2795C55.8935 73.2795 69.2217 60.1456 69.2217 43.9441C69.2217 34.9907 65.1513 26.9742 58.7346 21.5934C57.1645 20.2768 62.3996 15.6017 58.0582 12.5007C52.4765 10.0199 50.8499 16.7915 49.3755 16.278C46.2718 15.197 42.9318 14.6087 39.4524 14.6087C23.0113 14.6087 9.68319 27.7426 9.68319 43.9441Z" fill="#F4F1EC" stroke="black" stroke-width="1.07417"/>
<path d="M27.0488 29.5113L26.3241 28.6255C24.1711 25.9941 20.1965 25.8521 17.8612 28.3232V28.3232C15.9965 30.2962 15.8024 33.3177 17.3991 35.5132L19.6065 38.5484" stroke="black" stroke-width="1.07417" stroke-linecap="round"/>
<rect width="22.7861" height="14.4042" rx="7.20211" transform="matrix(-0.866025 0.5 2.20305e-08 1 71.7021 44.613)" fill="#F4F1EC" stroke="black" stroke-width="1.07417"/>
<ellipse rx="1.24039" ry="3.10096" transform="matrix(-1 0 0 1 50.6158 47.8512)" fill="black"/>
<ellipse rx="1.24039" ry="2.48077" transform="matrix(-1 0 0 1 61.7794 42.2693)" fill="black"/>
<circle r="2.81905" transform="matrix(-0.866025 0.5 2.20305e-08 1 66.4417 54.9798)" fill="#636363"/>
<circle r="2.81905" transform="matrix(-0.866025 0.5 2.20305e-08 1 57.9849 60.6182)" fill="#636363"/>
<path d="M43.1735 19.9426L45.6543 21.8032C44.4139 21.8032 40.0726 23.0436 35.7312 25.5244L33.2504 23.6638C36.9716 20.5628 40.6928 19.9426 43.1735 19.9426Z" fill="black"/>
<circle r="3.10096" transform="matrix(-1 0 0 1 22.7071 32.9667)" fill="#DBD4C9"/>
<ellipse rx="2.48077" ry="3.10096" transform="matrix(-0.880477 -0.474089 -0.474089 0.880477 55.6439 18.8877)" fill="#DBD4C9"/>
<path d="M38.086 0.780346C36.4341 0.566805 34.7739 1.55247 33.4244 3.34752C32.0749 5.14257 31.0497 7.72971 30.667 10.6899C30.2843 13.6501 30.6187 16.4164 31.4665 18.4932C32.3144 20.5701 33.6703 21.9468 35.3222 22.1603L38.2957 22.5447L41.0594 1.16472L38.086 0.780346Z" fill="#EAB95B"/>
<path d="M38.086 0.780346C36.4341 0.566805 34.7739 1.55247 33.4244 3.34752C32.0749 5.14257 31.0497 7.72971 30.667 10.6899C30.2843 13.6501 30.6187 16.4164 31.4665 18.4932C32.3144 20.5701 33.6703 21.9468 35.3222 22.1603L38.2957 22.5447L41.0594 1.16472L38.086 0.780346Z" fill="#FFD979"/>
<path d="M40.6757 1.1154C39.0238 0.901859 37.3636 1.88752 36.0141 3.68257C34.6647 5.47762 33.6383 8.06462 33.2556 11.0248C32.873 13.985 33.2073 16.7513 34.0551 18.8281C34.903 20.905 36.259 22.2817 37.9109 22.4952C39.5628 22.7088 41.223 21.7231 42.5723 19.9291C43.9217 18.1352 44.9471 15.547 45.3299 12.5857C45.7127 9.62435 45.378 6.8603 44.5302 4.78344C43.6824 2.70659 42.3276 1.32894 40.6757 1.1154Z" fill="white"/>
<path d="M40.4819 4.05063C39.3264 3.90126 38.159 4.62044 37.2045 5.93066C36.2501 7.24088 35.5212 9.12563 35.2425 11.2816C34.9638 13.4375 35.1901 15.4476 35.7793 16.9555C36.3686 18.4633 37.3155 19.4577 38.4709 19.6071C39.6264 19.7565 40.7901 19.0368 41.748 17.7223C42.7059 16.4077 43.4313 14.5273 43.71 12.3714C43.9887 10.2154 43.7624 8.20531 43.1731 6.69745C42.5839 5.18959 41.6364 4.19987 40.4819 4.05063Z" fill="#FFD979"/>
<path fill-rule="evenodd" clip-rule="evenodd" d="M37.1937 5.94208C39.2397 3.11872 41.9198 3.46518 43.1805 6.71599C44.4413 9.9668 43.8046 14.8921 41.7585 17.7164C39.9323 20.2367 37.6011 20.2353 36.2243 17.8892C37.4991 19.8496 39.5692 19.7867 41.1979 17.5388C43.0801 14.9407 43.666 10.4081 42.5061 7.41868C41.3463 4.42923 38.8806 4.10859 36.9984 6.7067C36.0555 8.00886 35.4381 9.79245 35.2024 11.6235C35.4241 9.51653 36.1115 7.4354 37.1937 5.94208Z" fill="#E9AC66"/>
<path d="M30.898 9.60421L33.3715 9.92395C33.3481 10.1049 33.1391 11.2554 33.0787 11.7232C33.0182 12.191 32.9913 14.3072 33.1314 15.5441C33.6391 20.0261 35.718 21.5387 36.8113 22.259L34.7416 21.9915C32.0949 20.9744 31.432 18.0677 30.8678 16.4797C30.3214 14.0645 30.6453 10.9021 30.898 9.60421Z" fill="#C18E48"/>
</svg>
