<svg width="69" height="64" viewBox="0 0 69 64" fill="none" xmlns="http://www.w3.org/2000/svg">
<g clip-path="url(#clip0_908_8734)">
<path d="M3.23828 39.4439L34.7284 20.5425L66.2259 39.4439L34.7284 58.338L3.23828 39.4439Z" stroke="black" stroke-width="0.578856" stroke-miterlimit="10"/>
<path d="M7.73608 25.9441L34.7287 9.74707L61.7286 25.9441L34.7287 42.1411L7.73608 25.9441Z" fill="white" stroke="black" stroke-width="0.578856" stroke-miterlimit="10"/>
<path d="M3.23828 39.4441L7.73582 25.9441L34.7284 42.1411V58.3381L3.23828 39.4441Z" fill="#F3F1EB" stroke="black" stroke-width="0.578856" stroke-miterlimit="10"/>
<path d="M61.7284 25.9441L66.226 39.4441L34.7285 58.3381V42.1411L61.7284 25.9441Z" fill="#F79780" stroke="black" stroke-width="0.578856" stroke-miterlimit="10"/>
<path d="M44.2233 30.9855C43.9734 30.743 43.7309 30.5886 43.7309 30.5886L30.231 22.4901C30.231 22.4901 27.9822 21.1379 25.7334 22.4901C25.535 22.6077 25.3733 22.7253 25.241 22.8429C24.7413 22.3431 24.2269 21.4392 25.7334 20.5353C27.9822 19.1831 30.231 20.5353 30.231 20.5353L43.7309 28.6338C43.7309 28.6338 45.6049 29.7582 44.2233 30.9781V30.9855Z" fill="#C4C4C4" stroke="black" stroke-width="0.578856" stroke-miterlimit="10"/>
<path d="M44.2232 30.9855C44.091 31.1031 43.9293 31.2207 43.7309 31.3382C42.3493 32.1687 40.9603 31.9776 40.1005 31.7057C39.564 31.5367 39.226 31.3382 39.226 31.3382L36.3379 29.6039L25.726 23.2397C25.726 23.2397 25.4835 23.0927 25.2336 22.8429C25.3659 22.7253 25.5276 22.6077 25.726 22.4901C27.9748 21.1379 30.2236 22.4901 30.2236 22.4901L37.6166 26.9289L41.3204 29.1483L43.7162 30.5886C43.7162 30.5886 43.966 30.7356 44.2085 30.9855H44.2232Z" fill="#3D3D3D" stroke="black" stroke-width="0.578856" stroke-miterlimit="10"/>
<path d="M48.4783 14.2814L41.3278 29.1556L40.1005 31.7203C39.5641 31.544 39.2334 31.3455 39.2334 31.3455L36.3379 29.6112L37.624 26.9362L43.2532 15.2147L44.6569 12.2898L48.4783 14.2814V14.2814Z" fill="#3D3D3D" stroke="black" stroke-width="0.578856" stroke-miterlimit="10"/>
<path d="M44.3628 17.1695L38.9467 28.4354C38.9467 28.4354 38.5278 28.3105 37.9693 27.8916C37.4842 27.5315 37.5724 27.311 37.5724 27.311L42.871 16.2729L43.988 16.1333L44.3628 17.1621V17.1695Z" fill="#DEFCEB"/>
<path d="M56.8929 8.69598C57.1281 12.6791 54.6736 16.2066 51.102 17.4926C50.3303 17.7719 49.4999 17.9409 48.6401 17.9924C48.3902 18.0071 48.133 18.0144 47.8905 18.0071C43.3709 17.8968 39.6156 14.3399 39.3437 9.73952C39.1967 7.23354 40.1153 4.90394 41.7027 3.20634C43.0255 1.788 44.8113 0.810591 46.847 0.516634C47.0895 0.47989 47.3467 0.450494 47.5965 0.435796C52.4395 0.149189 56.6063 3.83834 56.8929 8.68863V8.69598Z" fill="#F79780" stroke="black" stroke-width="0.578856" stroke-miterlimit="10"/>
<path d="M55.6215 8.76935C55.7979 11.7163 54.4972 14.4133 52.366 16.133C53.3066 14.6338 53.8064 12.8406 53.6961 10.9446C53.652 10.173 53.5051 9.4234 53.2772 8.72525C53.4463 8.75465 53.6226 8.762 53.8064 8.75465C54.5045 8.71055 55.1145 8.37985 55.526 7.88013C55.5774 8.17408 55.6068 8.46804 55.6289 8.77669L55.6215 8.76935Z" fill="#3D3D3D"/>
<path d="M53.8431 7.97574C54.5777 7.97574 55.1732 7.38021 55.1732 6.64558C55.1732 5.91096 54.5777 5.31543 53.8431 5.31543C53.1085 5.31543 52.5129 5.91096 52.5129 6.64558C52.5129 7.38021 53.1085 7.97574 53.8431 7.97574Z" fill="#3D3D3D"/>
</g>
<defs>
<clipPath id="clip0_908_8734">
<rect width="68.464" height="63.139" fill="white" transform="translate(0.439209 0.60498)"/>
</clipPath>
</defs>
</svg>
