<svg width="97" height="96" viewBox="0 0 97 96" fill="none" xmlns="http://www.w3.org/2000/svg">
<g clip-path="url(#clip0_908_8751)">
<path d="M31.5085 79.9486C32.4196 80.4195 33.3737 80.7603 34.3871 80.9736C44.9528 83.2219 56.6931 70.1832 60.5983 51.8595C64.5083 33.5265 59.1125 16.8322 48.5468 14.5839C47.5497 14.373 46.5422 14.2971 45.5383 14.3517C35.8347 14.8346 25.8751 27.0872 22.3333 43.691C18.7963 60.2855 22.8678 75.5207 31.5155 79.9463L31.5085 79.9486Z" fill="#C9E4F0" stroke="black" stroke-width="1.07417" stroke-miterlimit="10"/>
<path d="M28.5019 79.7234L34.389 80.9807C33.3756 80.7674 32.4193 80.4195 31.5104 79.9556C22.8697 75.5277 18.7912 60.2949 22.3282 43.7003C25.8769 27.0942 35.8343 14.8346 45.5402 14.3587C46.5511 14.3019 47.5586 14.3778 48.5487 14.5909L42.6616 13.3337C32.1192 11.0856 20.4098 24.0523 16.4771 42.3153C16.4697 42.3642 16.4578 42.399 16.4504 42.4478C12.5427 60.7878 17.9362 77.4751 28.5042 79.7304L28.5019 79.7234Z" fill="white" stroke="black" stroke-width="1.07417" stroke-miterlimit="10"/>
<path d="M38.9652 55.8687C39.1901 55.9893 39.4339 56.0728 39.6848 56.1308C42.3437 56.693 45.2928 53.4229 46.2811 48.8072C47.2669 44.2077 45.9048 40.0055 43.2459 39.4433C42.9972 39.3923 42.7366 39.3762 42.485 39.3881C40.0463 39.5052 37.5388 42.5857 36.6474 46.7598C35.7629 50.9318 36.7859 54.7563 38.9582 55.8709L38.9652 55.8687Z" fill="#3D3D3D"/>
<path d="M38.9652 55.8687C39.1901 55.9893 39.4339 56.0728 39.6848 56.1308C42.3437 56.693 45.2928 53.4229 46.2811 48.8072C47.2669 44.2077 45.9048 40.0055 43.2459 39.4433C42.9972 39.3923 42.7366 39.3762 42.485 39.3881C40.0463 39.5052 37.5388 42.5857 36.6474 46.7598C35.7629 50.9318 36.7859 54.7563 38.9582 55.8709L38.9652 55.8687Z" fill="#3D3D3D"/>
<path d="M36.847 46.8501C35.9626 51.022 36.9855 54.8466 39.1579 55.9612C39.3827 56.0818 39.6265 56.1653 39.8775 56.2233C42.5363 56.7855 45.4855 53.5155 46.4737 48.8997C47.4595 44.3002 46.0974 40.098 43.4385 39.5358C43.1898 39.4848 42.9292 39.4687 42.6776 39.4806C40.2389 39.5977 37.7314 42.6782 36.84 46.8524L36.847 46.8501Z" fill="#3D3D3D"/>
<path d="M27.5371 44.7984C30.1169 32.7244 37.3644 23.8044 44.4243 23.4508C45.1627 23.4127 45.891 23.463 46.6138 23.6157C54.3022 25.2488 58.2317 37.3954 55.3851 50.7477C52.5411 64.0838 43.9921 73.5727 36.3107 71.9374C35.5763 71.773 34.8775 71.5274 34.2191 71.1913C27.9339 67.9657 24.9666 56.8771 27.5394 44.8054L27.5371 44.7984ZM36.5422 63.674C36.9896 63.9082 37.4609 64.0727 37.9676 64.1794C43.1877 65.289 48.9943 58.8483 50.9252 49.7864C52.8583 40.7315 50.191 32.4789 44.9687 31.3622C44.4712 31.2603 43.978 31.2189 43.4794 31.2567C38.6812 31.4963 33.7555 37.5508 32.0088 45.7482C30.2551 53.9478 32.2717 61.4825 36.5422 63.674V63.674Z" fill="#3D3D3D"/>
<path d="M27.0022 78.9171C29.8102 79.7483 30.6131 79.7899 30.6131 79.7899C22.7263 75.4195 18.4847 60.2086 22.0239 43.621L16.8443 42.3976C16.8369 42.4464 16.6714 43.0341 16.6688 43.0737C12.7611 61.4137 18.8558 76.3722 27.0022 78.9171Z" fill="#C4C4C4"/>
<path d="M85.8877 61.0186L86.041 61.0618C86.6058 61.1806 87.2144 60.5035 87.4296 59.5437C87.6262 58.5744 87.3447 57.706 86.794 57.5826C86.7288 57.5728 86.6823 57.5724 86.6287 57.5743C86.1233 57.591 85.6058 58.2387 85.4099 59.1148C85.228 59.9864 85.438 60.7774 85.89 61.0256L85.8877 61.0186Z" fill="white" stroke="black" stroke-width="0.537083" stroke-miterlimit="10"/>
<path d="M41.6633 50.7728C41.6633 50.7728 41.7167 50.7942 41.7422 50.8014L85.8344 60.9973C85.6487 60.9259 85.0906 60.565 85.4077 59.1078C85.7877 57.3671 86.6265 57.5673 86.6265 57.5673L74.6264 54.7856L42.4859 47.3175C42.4859 47.3175 42.4371 47.3101 42.4068 47.3122C41.906 47.3429 41.3908 47.9743 41.188 48.8527C41.0061 49.7243 41.2276 50.5271 41.6728 50.7543L41.6633 50.7728Z" fill="#3D3D3D" stroke="black" stroke-width="1.07417" stroke-miterlimit="10"/>
<path d="M90.4011 54.1223L86.4638 58.6414L84.5614 52.7723L83.9079 53.5259L85.808 59.388L81.8706 63.9071L82.1885 64.8876L86.1258 60.3685L87.7104 65.2571L88.3639 64.5035L86.7793 59.6149L90.7167 55.0958L90.4011 54.1223Z" fill="#F3F1EB" stroke="black" stroke-width="0.537083" stroke-miterlimit="10"/>
<path d="M85.4925 58.4147L73.813 55.7147L77.0899 51.9515L83.908 53.5261L85.4925 58.4147Z" fill="#93B5FE" stroke="black" stroke-width="0.537083" stroke-miterlimit="10"/>
<path d="M81.8707 63.9072L75.0549 62.3396L73.4703 57.451L85.1894 60.1536L81.8707 63.9072Z" fill="white" stroke="black" stroke-width="0.537083" stroke-miterlimit="10"/>
<path d="M90.4011 54.1223L84.5614 52.7723L86.4638 58.6414L90.4011 54.1223Z" fill="white" stroke="black" stroke-width="0.537083" stroke-miterlimit="10"/>
<path d="M87.7105 65.257L82.8703 64.1016L86.126 60.3684L87.7105 65.257Z" fill="#93B5FE" stroke="black" stroke-width="0.537083" stroke-miterlimit="10"/>
<path d="M84.5615 52.7725L77.7504 51.1956L77.0899 51.9514L83.908 53.5261L84.5615 52.7725Z" fill="white" stroke="black" stroke-width="0.537083" stroke-miterlimit="10"/>
<path d="M82.1886 64.8878L75.3705 63.3132L75.0549 62.3397L81.8708 63.9073L82.1886 64.8878Z" fill="#C4C4C4" stroke="black" stroke-width="0.537083" stroke-miterlimit="10"/>
<path d="M85.8729 61.4025L86.0425 61.4482C86.6817 61.5815 87.3632 60.8189 87.6074 59.7336C87.833 58.6388 87.5152 57.6583 86.89 57.5204C86.8179 57.5128 86.7691 57.5054 86.7015 57.5119C86.1263 57.528 85.5498 58.2567 85.3297 59.249C85.1213 60.2298 85.3561 61.1212 85.8707 61.3955L85.8729 61.4025Z" fill="#F3F1EB" stroke="black" stroke-width="0.537083" stroke-miterlimit="10"/>
<path d="M41.6756 48.447L67.1189 54.6418C67.1189 54.6418 67.1164 53.5359 67.8487 53.3836C68.5318 53.5569 42.4895 47.448 42.4895 47.448C42.4895 47.448 42.0303 47.5117 41.6756 48.447V48.447Z" fill="#DEFCEB"/>
</g>
<defs>
<clipPath id="clip0_908_8751">
<rect width="76.1417" height="74.6575" fill="white" transform="matrix(-0.951275 0.308345 0.308345 0.951275 73.0881 0.709961)"/>
</clipPath>
</defs>
</svg>
