<svg width="61" height="57" viewBox="0 0 61 57" fill="none" xmlns="http://www.w3.org/2000/svg">
<g clip-path="url(#clip0_908_8734)">
<path d="M58.5061 34.6047L30.449 17.7639L2.38535 34.6047L30.449 51.439L58.5061 34.6047Z" stroke="black" stroke-width="0.578856" stroke-miterlimit="10"/>
<path d="M54.4988 22.5765L30.4489 8.14526L6.39247 22.5765L30.4489 37.0077L54.4988 22.5765Z" fill="white" stroke="black" stroke-width="0.578856" stroke-miterlimit="10"/>
<path d="M58.5061 34.6049L54.4989 22.5767L30.449 37.0079V51.4391L58.5061 34.6049Z" fill="#F3F1EB" stroke="black" stroke-width="0.578856" stroke-miterlimit="10"/>
<path d="M6.3923 22.5767L2.38508 34.6049L30.4487 51.4391V37.0079L6.3923 22.5767Z" fill="#F79780" stroke="black" stroke-width="0.578856" stroke-miterlimit="10"/>
<path d="M21.9892 27.0683C22.2118 26.8522 22.4279 26.7147 22.4279 26.7147L34.4561 19.4991C34.4561 19.4991 36.4597 18.2943 38.4633 19.4991C38.6401 19.6038 38.7842 19.7086 38.902 19.8134C39.3473 19.3681 39.8056 18.5628 38.4633 17.7574C36.4597 16.5526 34.4561 17.7574 34.4561 17.7574L22.4279 24.973C22.4279 24.973 20.7582 25.9748 21.9892 27.0617V27.0683Z" fill="#C4C4C4" stroke="black" stroke-width="0.578856" stroke-miterlimit="10"/>
<path d="M21.9893 27.0683C22.1072 27.173 22.2512 27.2778 22.428 27.3826C23.659 28.1225 24.8965 27.9522 25.6626 27.71C26.1406 27.5594 26.4418 27.3826 26.4418 27.3826L29.015 25.8373L38.47 20.167C38.47 20.167 38.6861 20.036 38.9087 19.8134C38.7908 19.7086 38.6468 19.6038 38.47 19.4991C36.4664 18.2943 34.4628 19.4991 34.4628 19.4991L27.8757 23.4539L24.5757 25.4313L22.4411 26.7147C22.4411 26.7147 22.2185 26.8457 22.0024 27.0683H21.9893Z" fill="#3D3D3D" stroke="black" stroke-width="0.578856" stroke-miterlimit="10"/>
<path d="M18.198 12.1853L24.569 25.438L25.6624 27.7231C26.1404 27.566 26.4351 27.3892 26.4351 27.3892L29.0149 25.8439L27.869 23.4606L22.8535 13.0169L21.6028 10.4109L18.198 12.1853Z" fill="#3D3D3D" stroke="black" stroke-width="0.578856" stroke-miterlimit="10"/>
<path d="M21.8649 14.7587L26.6906 24.7964C26.6906 24.7964 27.0639 24.6851 27.5615 24.3118C27.9936 23.991 27.9151 23.7946 27.9151 23.7946L23.1941 13.9599L22.1989 13.8354L21.8649 14.7521V14.7587Z" fill="#DEFCEB"/>
<path d="M10.7009 7.20904C10.4914 10.7579 12.6783 13.9008 15.8605 15.0467C16.548 15.2955 17.2879 15.4461 18.054 15.4919C18.2766 15.505 18.5058 15.5116 18.7219 15.505C22.7488 15.4068 26.0947 12.2377 26.3369 8.13882C26.4679 5.90604 25.6494 3.83041 24.2351 2.31788C23.0565 1.05416 21.4654 0.183311 19.6517 -0.0785993C19.4356 -0.111338 19.2064 -0.137529 18.9838 -0.150624C14.6688 -0.405987 10.9563 2.88098 10.7009 7.2025V7.20904Z" fill="#F79780" stroke="black" stroke-width="0.578856" stroke-miterlimit="10"/>
<path d="M11.8337 7.27446C11.6766 9.9001 12.8355 12.3031 14.7344 13.8353C13.8963 12.4996 13.451 10.9019 13.5492 9.21259C13.5885 8.52508 13.7195 7.8572 13.9225 7.23517C13.7719 7.26136 13.6147 7.26791 13.451 7.26136C12.829 7.22207 12.2855 6.92742 11.9188 6.48218C11.873 6.74409 11.8468 7.006 11.8272 7.281L11.8337 7.27446Z" fill="#3D3D3D"/>
<path d="M13.4184 6.56731C12.7638 6.56731 12.2332 6.0367 12.2332 5.38216C12.2332 4.72763 12.7638 4.19702 13.4184 4.19702C14.0729 4.19702 14.6035 4.72763 14.6035 5.38216C14.6035 6.0367 14.0729 6.56731 13.4184 6.56731Z" fill="#3D3D3D"/>
</g>
<defs>
<clipPath id="clip0_908_8734">
<rect width="61.0001" height="56.2556" fill="white" transform="matrix(-1 0 0 1 61 0)"/>
</clipPath>
</defs>
</svg>
