<svg width="96" height="95" viewBox="0 0 96 95" fill="none" xmlns="http://www.w3.org/2000/svg">
<g clip-path="url(#clip0_908_8751)">
<path d="M30.852 79.2386C31.7632 79.7095 32.7172 80.0504 33.7306 80.2636C44.2963 82.512 56.0366 69.4733 59.9418 51.1495C63.8518 32.8165 58.456 16.1222 47.8903 13.8739C46.8932 13.6631 45.8857 13.5872 44.8818 13.6417C35.1782 14.1246 25.2186 26.3772 21.6768 42.981C18.1398 59.5756 22.2113 74.8107 30.8591 79.2363L30.852 79.2386Z" fill="#C9E4F0" stroke="black" stroke-width="1.07417" stroke-miterlimit="10"/>
<path d="M27.8454 79.0135L33.7325 80.2707C32.7191 80.0574 31.7628 79.7095 30.8539 79.2456C22.2132 74.8177 18.1347 59.5849 21.6717 42.9903C25.2205 26.3843 35.1778 14.1247 44.8837 13.6488C45.8946 13.592 46.9021 13.6678 47.8922 13.8809L42.0051 12.6237C31.4627 10.3756 19.7533 23.3424 15.8206 41.6054C15.8132 41.6542 15.8013 41.689 15.7939 41.7378C11.8862 60.0779 17.2797 76.7651 27.8477 79.0205L27.8454 79.0135Z" fill="white" stroke="black" stroke-width="1.07417" stroke-miterlimit="10"/>
<path d="M38.3088 55.1587C38.5336 55.2793 38.7774 55.3628 39.0283 55.4208C41.6872 55.983 44.6364 52.713 45.6246 48.0972C46.6104 43.4977 45.2483 39.2955 42.5894 38.7333C42.3407 38.6824 42.0801 38.6662 41.8285 38.6781C39.3898 38.7952 36.8823 41.8757 35.9909 46.0499C35.1064 50.2218 36.1294 54.0463 38.3017 55.161L38.3088 55.1587Z" fill="#3D3D3D"/>
<path d="M38.3088 55.1587C38.5336 55.2793 38.7774 55.3628 39.0283 55.4208C41.6872 55.983 44.6364 52.713 45.6246 48.0972C46.6104 43.4977 45.2483 39.2955 42.5894 38.7333C42.3407 38.6824 42.0801 38.6662 41.8285 38.6781C39.3898 38.7952 36.8823 41.8757 35.9909 46.0499C35.1064 50.2218 36.1294 54.0463 38.3017 55.161L38.3088 55.1587Z" fill="#3D3D3D"/>
<path d="M36.1905 46.1401C35.3061 50.3121 36.329 54.1366 38.5014 55.2512C38.7262 55.3719 38.97 55.4554 39.221 55.5133C41.8799 56.0756 44.829 52.8055 45.8172 48.1898C46.803 43.5903 45.4409 39.3881 42.782 38.8258C42.5333 38.7749 42.2727 38.7588 42.0211 38.7706C39.5824 38.8878 37.0749 41.9682 36.1835 46.1424L36.1905 46.1401Z" fill="#3D3D3D"/>
<path d="M26.8806 44.0884C29.4604 32.0144 36.7079 23.0944 43.7678 22.7409C44.5062 22.7028 45.2345 22.7531 45.9573 22.9057C53.6457 24.5388 57.5752 36.6854 54.7287 50.0378C51.8846 63.3738 43.3356 72.8628 35.6542 71.2275C34.9198 71.063 34.221 70.8174 33.5626 70.4814C27.2774 67.2558 24.3101 56.1672 26.8829 44.0954L26.8806 44.0884ZM35.8857 62.964C36.3332 63.1982 36.8044 63.3628 37.3111 63.4694C42.5312 64.5791 48.3378 58.1384 50.2687 49.0764C52.2018 40.0215 49.5345 31.7689 44.3122 30.6522C43.8148 30.5503 43.3215 30.509 42.8229 30.5467C38.0247 30.7863 33.099 36.8409 31.3523 45.0382C29.5986 53.2378 31.6152 60.7726 35.8857 62.964Z" fill="#3D3D3D"/>
<path d="M26.3457 78.2071C29.1537 79.0384 29.9566 79.0799 29.9566 79.0799C22.0698 74.7095 17.8282 59.4986 21.3674 42.911L16.1878 41.6876C16.1805 41.7365 16.0149 42.3241 16.0123 42.3637C12.1046 60.7037 18.1993 75.6622 26.3457 78.2071Z" fill="#C4C4C4"/>
<path d="M85.2312 60.3087L85.3845 60.3519C85.9493 60.4706 86.5579 59.7935 86.7731 58.8337C86.9697 57.8645 86.6882 56.996 86.1375 56.8727C86.0724 56.8628 86.0258 56.8624 85.9722 56.8643C85.4669 56.8811 84.9493 57.5287 84.7534 58.4048C84.5715 59.2764 84.7815 60.0675 85.2335 60.3157L85.2312 60.3087Z" fill="white" stroke="black" stroke-width="0.537083" stroke-miterlimit="10"/>
<path d="M41.0068 50.0629C41.0068 50.0629 41.0602 50.0842 41.0857 50.0914L85.1779 60.2873C84.9922 60.2159 84.4341 59.8551 84.7512 58.3979C85.1312 56.6572 85.97 56.8574 85.97 56.8574L73.9699 54.0756L41.8294 46.6075C41.8294 46.6075 41.7806 46.6001 41.7503 46.6022C41.2495 46.633 40.7343 47.2643 40.5315 48.1427C40.3496 49.0143 40.5711 49.8171 41.0163 50.0443L41.0068 50.0629Z" fill="#3D3D3D" stroke="black" stroke-width="1.07417" stroke-miterlimit="10"/>
<path d="M89.7447 53.4123L85.8073 57.9314L83.9049 52.0624L83.2514 52.816L85.1515 58.678L81.2141 63.1971L81.532 64.1776L85.4693 59.6585L87.0539 64.5471L87.7074 63.7935L86.1228 58.9049L90.0602 54.3858L89.7447 53.4123Z" fill="#F3F1EB" stroke="black" stroke-width="0.537083" stroke-miterlimit="10"/>
<path d="M84.836 57.7047L73.1565 55.0048L76.4334 51.2415L83.2515 52.8162L84.836 57.7047Z" fill="#93B5FE" stroke="black" stroke-width="0.537083" stroke-miterlimit="10"/>
<path d="M81.2142 63.1972L74.3984 61.6296L72.8138 56.741L84.5329 59.4436L81.2142 63.1972Z" fill="white" stroke="black" stroke-width="0.537083" stroke-miterlimit="10"/>
<path d="M89.7447 53.4123L83.9049 52.0624L85.8073 57.9314L89.7447 53.4123Z" fill="white" stroke="black" stroke-width="0.537083" stroke-miterlimit="10"/>
<path d="M87.0541 64.547L82.2138 63.3916L85.4695 59.6584L87.0541 64.547Z" fill="#93B5FE" stroke="black" stroke-width="0.537083" stroke-miterlimit="10"/>
<path d="M83.905 52.0625L77.0939 50.4856L76.4334 51.2415L83.2515 52.8161L83.905 52.0625Z" fill="white" stroke="black" stroke-width="0.537083" stroke-miterlimit="10"/>
<path d="M81.5321 64.1778L74.714 62.6032L74.3985 61.6297L81.2143 63.1973L81.5321 64.1778Z" fill="#C4C4C4" stroke="black" stroke-width="0.537083" stroke-miterlimit="10"/>
<path d="M85.2164 60.6926L85.386 60.7382C86.0252 60.8716 86.7067 60.1089 86.9509 59.0236C87.1765 57.9289 86.8587 56.9484 86.2335 56.8105C86.1614 56.8029 86.1126 56.7955 86.045 56.8019C85.4698 56.8181 84.8933 57.5467 84.6732 58.5391C84.4648 59.5199 84.6996 60.4112 85.2142 60.6856L85.2164 60.6926Z" fill="#F3F1EB" stroke="black" stroke-width="0.537083" stroke-miterlimit="10"/>
<path d="M41.0191 47.7371L66.4624 53.9319C66.4624 53.9319 66.4599 52.8259 67.1923 52.6737C67.8753 52.847 41.833 46.738 41.833 46.738C41.833 46.738 41.3738 46.8017 41.0191 47.7371Z" fill="#DEFCEB"/>
</g>
<defs>
<clipPath id="clip0_908_8751">
<rect width="76.1417" height="74.6575" fill="white" transform="matrix(-0.951275 0.308345 0.308345 0.951275 72.4316 0)"/>
</clipPath>
</defs>
</svg>
