<svg width="77" height="77" viewBox="0 0 77 77" fill="none" xmlns="http://www.w3.org/2000/svg">
<path d="M57.1762 45.9527L75.831 34.7614L57.1762 23.5701L38.5293 34.7614L57.1762 45.9527Z" fill="white" stroke="black" stroke-width="0.649618" stroke-miterlimit="10"/>
<path d="M57.176 53.4162L75.8308 42.225V34.7615L57.176 45.9528V53.4162Z" fill="#C4C4C4" stroke="black" stroke-width="0.649618" stroke-miterlimit="10"/>
<path d="M19.8745 31.0337V53.4163L38.5293 64.6076V42.225L19.8745 31.0337Z" fill="#F3F1EB" stroke="black" stroke-width="0.649618" stroke-miterlimit="10"/>
<path d="M38.5293 42.225L57.1762 31.0337V53.4163L38.5293 64.6076V42.225Z" fill="#C4C4C4" stroke="black" stroke-width="0.649618" stroke-miterlimit="10"/>
<path d="M19.8745 31.0336L38.5293 19.8423L57.1762 31.0336L38.5293 42.2249L19.8745 31.0336Z" fill="white" stroke="black" stroke-width="0.649618" stroke-miterlimit="10"/>
<path d="M19.8745 38.4893L38.5293 49.6805L19.8745 60.8718L1.21973 49.6805L19.8745 38.4893Z" fill="white" stroke="black" stroke-width="0.649618" stroke-miterlimit="10"/>
<path d="M38.5293 64.6074L19.8745 75.7987V60.8717L38.5293 49.6804V64.6074Z" fill="#C4C4C4" stroke="black" stroke-width="0.649618" stroke-miterlimit="10"/>
<path d="M1.21973 49.6804V64.6074L19.8745 75.7987V60.8717L1.21973 49.6804Z" fill="#F3F1EB" stroke="black" stroke-width="0.649618" stroke-miterlimit="10"/>
<path d="M33.5907 22.9174L32.8278 26.0711L31.9313 29.7831C31.7818 30.4045 33.0559 31.7178 32.0886 31.128L29.2966 29.4292L29.1629 29.3506C28.8484 29.1225 28.7068 28.6192 28.8798 27.8878L30.5392 21.0142C30.5628 20.904 30.5864 20.7939 30.5943 20.6838L33.0559 21.3287C33.5671 21.4624 33.7794 22.0995 33.5907 22.9095V22.9174Z" fill="#C18E47" stroke="black" stroke-width="0.324809" stroke-miterlimit="10"/>
<path d="M40.3853 2.60311C39.9763 2.39863 39.3786 2.63457 38.8674 3.1379C38.7495 3.25587 38.6236 3.39743 38.5214 3.55472C38.2854 3.88504 38.1045 4.2704 37.9944 4.70295L36.335 11.5687C36.1935 12.1507 35.8632 12.7327 35.4463 13.1495C35.289 13.3068 35.116 13.4405 34.943 13.5427L29.5636 16.6492C29.3749 16.7593 29.2018 16.893 29.0446 17.0503C28.5176 17.5773 28.1873 18.3087 28.1165 18.9457C28.0694 19.3625 30.0984 21.0613 28.3289 19.9681L25.6549 18.3087C24.664 18.0491 24.9707 16.1852 26.001 15.155C26.1583 14.9977 26.3313 14.864 26.52 14.7539L31.8994 11.6474C32.0724 11.5451 32.2455 11.4114 32.4027 11.2541C32.8117 10.8452 33.1499 10.2632 33.2914 9.67336L34.9509 2.80759C35.1003 2.17842 35.4385 1.6279 35.8238 1.24254C36.3272 0.739206 36.917 0.511133 37.326 0.699883L37.4597 0.786394L40.3853 2.60311V2.60311Z" fill="white" stroke="black" stroke-width="0.324809" stroke-miterlimit="10"/>
<path d="M50.2165 5.17488C49.9648 5.04904 49.6266 5.06477 49.2177 5.30071L46.3078 6.97587L43.8383 8.39935C43.2091 8.76112 42.6429 8.61956 42.4463 8.03758L41.7463 5.95347L46.1662 3.39748C46.5673 3.16155 46.9055 3.13795 47.1571 3.26379H47.165L47.2594 3.3267L50.2165 5.15915V5.17488Z" fill="#E9AD66" stroke="black" stroke-width="0.324809" stroke-miterlimit="10"/>
<path d="M45.7254 14.0303C45.2142 14.7538 45.0019 15.6425 45.1906 16.2245L46.8501 21.1713C47.1253 21.9814 46.6298 23.1217 45.9535 23.806C45.5367 24.2228 45.0412 24.4744 44.6008 24.3565L40.2438 23.2161C39.8427 23.1139 39.3315 23.3341 38.8832 23.7824C38.7574 23.9082 38.6394 24.0498 38.5293 24.2071L34.1802 30.3729C34.0622 30.5459 33.9364 30.6953 33.8106 30.8212C33.3466 31.2852 32.8668 31.4582 32.4972 31.3795L32.0961 31.1357C31.8759 30.8762 31.7894 30.4122 31.9388 29.7909L32.8354 26.0788L33.5982 22.9251C33.7949 22.1151 33.5825 21.478 33.0635 21.3443L30.6018 20.6995L28.7144 20.204C28.5571 20.1647 28.4312 20.086 28.3368 19.968C28.1402 19.7321 28.0695 19.3625 28.1245 18.9457C28.1953 18.3086 28.5335 17.5772 29.0525 17.0503C29.2098 16.893 29.3828 16.7593 29.5716 16.6492L34.951 13.5427C35.124 13.4405 35.297 13.3068 35.4543 13.1495C35.8633 12.7326 36.2014 12.1585 36.343 11.5687L38.0024 4.70291C38.1047 4.27036 38.2934 3.87713 38.5293 3.55468C38.6316 3.40526 38.7574 3.2637 38.8754 3.13786C39.3787 2.63453 39.9764 2.39859 40.3933 2.60307L40.4955 2.66599C40.6213 2.76036 40.7236 2.90193 40.7865 3.09854L41.746 5.96124L42.4459 8.04536C42.6425 8.62733 43.2009 8.77676 43.8379 8.40713L46.3074 6.98364L49.2173 5.30848C49.6263 5.07255 49.9723 5.04895 50.2161 5.18265L50.279 5.22197C50.8295 5.58374 50.861 6.76343 50.0745 7.87233L45.7176 14.0382L45.7254 14.0303Z" fill="#FFD979" stroke="black" stroke-width="0.324809" stroke-miterlimit="10"/>
</svg>
