<svg width="71" height="71" viewBox="0 0 71 71" fill="none" xmlns="http://www.w3.org/2000/svg">
<path d="M18.203 42.7917L1.00011 32.4714L18.203 22.1511L35.3987 32.4714L18.203 42.7917Z" fill="white" stroke="black" stroke-width="0.649618" stroke-miterlimit="10"/>
<path d="M18.2031 49.6743L1.00023 39.354V32.4714L18.2031 42.7917V49.6743Z" fill="#C4C4C4" stroke="black" stroke-width="0.649618" stroke-miterlimit="10"/>
<path d="M52.6016 29.0337V49.6743L35.3987 59.9946V39.354L52.6016 29.0337Z" fill="#F3F1EB" stroke="black" stroke-width="0.649618" stroke-miterlimit="10"/>
<path d="M35.3987 39.354L18.203 29.0337V49.6743L35.3987 59.9946V39.354Z" fill="#C4C4C4" stroke="black" stroke-width="0.649618" stroke-miterlimit="10"/>
<path d="M52.6016 29.0337L35.3987 18.7134L18.203 29.0337L35.3987 39.354L52.6016 29.0337Z" fill="white" stroke="black" stroke-width="0.649618" stroke-miterlimit="10"/>
<path d="M52.6015 35.9092L35.3987 46.2295L52.6015 56.5498L69.8044 46.2295L52.6015 35.9092Z" fill="white" stroke="black" stroke-width="0.649618" stroke-miterlimit="10"/>
<path d="M35.3987 59.9945L52.6016 70.3148V56.5495L35.3987 46.2292V59.9945Z" fill="#C4C4C4" stroke="black" stroke-width="0.649618" stroke-miterlimit="10"/>
<path d="M69.8044 46.2292V59.9945L52.6015 70.3148V56.5495L69.8044 46.2292Z" fill="#F3F1EB" stroke="black" stroke-width="0.649618" stroke-miterlimit="10"/>
<path d="M39.9529 21.5492L40.6564 24.4575L41.4832 27.8806C41.621 28.4536 40.4461 29.6647 41.3381 29.1208L43.9128 27.5543L44.036 27.4817C44.3261 27.2714 44.4567 26.8073 44.2971 26.1328L42.7669 19.7941C42.7451 19.6926 42.7234 19.591 42.7161 19.4895L40.4461 20.0842C39.9747 20.2075 39.7789 20.795 39.9529 21.542V21.5492Z" fill="#C67966" stroke="black" stroke-width="0.324809" stroke-miterlimit="10"/>
<path d="M33.6871 2.81583C34.0642 2.62726 34.6154 2.84484 35.0868 3.309C35.1956 3.41778 35.3117 3.54833 35.4059 3.69338C35.6235 3.99798 35.7903 4.35335 35.8919 4.75224L37.4221 11.0837C37.5527 11.6203 37.8573 12.157 38.2417 12.5414C38.3867 12.6865 38.5463 12.8098 38.7058 12.904L43.6665 15.7688C43.8406 15.8703 44.0001 15.9936 44.1452 16.1386C44.6311 16.6246 44.9357 17.299 45.001 17.8865C45.0445 18.2709 43.1734 19.8374 44.8052 18.8293L47.271 17.299C48.1848 17.0597 47.902 15.3409 46.9519 14.3908C46.8069 14.2457 46.6473 14.1225 46.4732 14.0209L41.5125 11.1562C41.353 11.0619 41.1934 10.9386 41.0484 10.7936C40.6712 10.4164 40.3594 9.87975 40.2288 9.33581L38.6986 3.00439C38.5608 2.42419 38.2489 1.91652 37.8935 1.56115C37.4294 1.09699 36.8855 0.886665 36.5083 1.06072L36.385 1.1405L33.6871 2.81583Z" fill="white" stroke="black" stroke-width="0.324809" stroke-miterlimit="10"/>
<path d="M24.621 5.18752C24.853 5.07148 25.1649 5.08598 25.542 5.30356L28.2255 6.84834L30.5027 8.16104C31.0829 8.49465 31.6051 8.36411 31.7864 7.82742L32.4319 5.90551L28.356 3.54845C27.9861 3.33088 27.6743 3.30912 27.4422 3.42516H27.4349L27.3479 3.48318L24.621 5.17301V5.18752Z" fill="#C67966" stroke="black" stroke-width="0.324809" stroke-miterlimit="10"/>
<path d="M28.7625 13.3537C29.2339 14.0209 29.4298 14.8405 29.2557 15.3772L27.7254 19.939C27.4716 20.686 27.9285 21.7376 28.5522 22.3686C28.9366 22.7529 29.3935 22.985 29.7996 22.8762L33.8175 21.8246C34.1874 21.7303 34.6588 21.9334 35.0722 22.3468C35.1882 22.4628 35.297 22.5934 35.3986 22.7384L39.4092 28.4244C39.518 28.5839 39.634 28.7217 39.7501 28.8378C40.178 29.2657 40.6203 29.4252 40.9612 29.3527L41.3311 29.1279C41.5342 28.8885 41.6139 28.4607 41.4761 27.8877L40.6494 24.4645L39.9459 21.5563C39.7646 20.8093 39.9604 20.2218 40.439 20.0985L42.7091 19.5038L44.4497 19.0469C44.5947 19.0107 44.7108 18.9381 44.7978 18.8293C44.9791 18.6118 45.0444 18.2709 44.9936 17.8865C44.9283 17.2991 44.6165 16.6246 44.1378 16.1387C43.9928 15.9936 43.8332 15.8703 43.6591 15.7688L38.6984 12.9041C38.5389 12.8098 38.3793 12.6865 38.2343 12.5414C37.8571 12.1571 37.5453 11.6276 37.4148 11.0837L35.8845 4.75227C35.7902 4.35338 35.6161 3.99076 35.3986 3.69341C35.3043 3.55561 35.1882 3.42506 35.0795 3.30902C34.6153 2.84486 34.0641 2.62729 33.6797 2.81585L33.5854 2.87387C33.4694 2.9609 33.3751 3.09145 33.3171 3.27276L32.4323 5.91267L31.7868 7.83458C31.6055 8.37126 31.0906 8.50906 30.5031 8.16819L28.2258 6.85549L25.5424 5.31071C25.1653 5.09314 24.8462 5.07138 24.6214 5.19467L24.5634 5.23093C24.0557 5.56455 24.0267 6.65242 24.7519 7.67502L28.7698 13.361L28.7625 13.3537Z" fill="#FFBCAC" stroke="black" stroke-width="0.324809" stroke-miterlimit="10"/>
</svg>
