<svg width="60" height="143" viewBox="0 0 60 143" fill="none" xmlns="http://www.w3.org/2000/svg">
<g clip-path="url(#clip0_908_8850)">
<path d="M30.0901 98.8765C29.7356 98.8765 29.4456 98.5865 29.4456 98.232V61.6567C29.4456 61.3022 29.7356 61.0122 30.0901 61.0122C30.4445 61.0122 30.7346 61.3022 30.7346 61.6567V98.2428C30.7346 98.5972 30.4445 98.8873 30.0901 98.8873V98.8765Z" fill="#F3F1EB"/>
<path d="M33.7421 59.0785C33.7421 59.2504 33.7206 59.4222 33.6669 59.5941C33.452 60.389 32.7109 61.0442 31.7226 61.3879C31.2393 61.5598 30.6807 61.6565 30.1007 61.6565C28.092 61.6565 26.4592 60.5071 26.4592 59.0785C26.4592 57.6498 28.092 56.4897 30.1007 56.4897C32.1093 56.4897 33.7421 57.6498 33.7421 59.0785V59.0785Z" fill="#F3F1EB" stroke="black" stroke-width="1.07417" stroke-miterlimit="10"/>
<path d="M33.162 59.3149C32.9471 60.1098 32.4101 60.5395 31.4218 60.8832C31.4218 60.8832 31.4863 60.1635 31.0888 59.2183C30.6914 58.273 30.4443 58.0259 30.4443 58.0259C30.4443 58.0259 31.2929 57.8004 32.2382 58.316C33.1835 58.8316 33.162 59.3257 33.162 59.3257V59.3149Z" fill="white"/>
<path d="M58.7594 29.5928C58.7594 42.6117 50.0801 53.6004 38.1998 57.1022C35.6326 57.8541 32.9042 58.2623 30.0899 58.2623C29.2628 58.2623 28.4464 58.2301 27.6408 58.1549C12.9677 56.9196 1.43115 44.6096 1.43115 29.5928C1.43115 21.4077 4.86848 14.0174 10.3897 8.79697C14.9656 4.4466 20.981 1.61081 27.6515 1.0415C28.4572 0.966307 29.2843 0.934082 30.1006 0.934082C45.9231 0.934082 58.7594 13.7596 58.7594 29.5928V29.5928Z" fill="#F3F1EB" stroke="black" stroke-width="1.07417" stroke-miterlimit="10"/>
<path d="M15.9861 85.7717V112.035L44.1185 128.91V102.658L15.9861 85.7717Z" fill="#C9E4F0" stroke="black" stroke-width="0.537083" stroke-miterlimit="10"/>
<path d="M16.2869 111.852L25.2239 106.492C27.05 105.397 29.4132 105.955 30.5625 107.738L43.6673 128.169C43.7855 128.352 43.5707 128.566 43.3881 128.448L16.2869 112.185C16.158 112.11 16.158 111.917 16.2869 111.842V111.852Z" fill="#C9E4F0" stroke="black" stroke-width="0.537083" stroke-miterlimit="10"/>
<path d="M44.5483 102.744C44.2905 102.873 33.6992 108.211 33.4092 108.362C33.1192 108.512 32.1202 108.748 31.5187 108.652L30.8849 107.663C30.4553 106.997 29.8537 106.514 29.1663 106.235L44.5591 102.744H44.5483Z" fill="#023C40"/>
<path d="M30.7882 108.705C28.8547 108.404 27.2864 106.546 27.2864 106.546L28.4357 106.288C29.1125 106.568 29.7247 107.051 30.1544 107.717L30.7882 108.705V108.705Z" fill="#C4C4C4"/>
<path d="M16.2654 86.2766L26.9963 105.601C27.8557 107.148 29.714 107.846 31.3789 107.244L43.8178 102.765C43.9359 102.722 43.9574 102.55 43.85 102.486L16.491 86.0725C16.3514 85.9866 16.201 86.137 16.2762 86.2766H16.2654Z" fill="#C9E4F0" stroke="black" stroke-width="0.537083" stroke-miterlimit="10"/>
<path d="M24.6656 118.373C24.6656 118.373 24.5689 118.373 24.5259 118.362C24.1715 118.287 23.9566 117.932 24.0318 117.588L29.263 94.0105C29.3382 93.6561 29.6927 93.4412 30.0364 93.5164C30.3909 93.5916 30.6057 93.9461 30.5305 94.2898L25.2993 117.868C25.2349 118.169 24.9663 118.373 24.6656 118.373Z" fill="#3D3D3D"/>
<path d="M54.6132 29.5926C54.6132 39.2171 49.8654 47.7353 42.5933 52.9342C45.9447 48.2509 47.9211 42.5041 47.9211 36.2954C47.9211 33.7711 47.5989 31.3113 46.9759 28.9804C47.5344 29.1093 48.1037 29.1737 48.6945 29.1737C50.9718 29.1737 53.0234 28.207 54.452 26.6602C54.5487 27.6269 54.6024 28.6044 54.6024 29.5926H54.6132Z" fill="#3D3D3D"/>
<path d="M49.2315 26.671C51.6282 26.671 53.5711 24.728 53.5711 22.3313C53.5711 19.9346 51.6282 17.9917 49.2315 17.9917C46.8348 17.9917 44.8918 19.9346 44.8918 22.3313C44.8918 24.728 46.8348 26.671 49.2315 26.671Z" fill="#3D3D3D"/>
<path d="M30.0576 93.8494C30.0576 93.8494 31.5829 89.3057 34.6121 87.7911C37.6412 86.2765 38.898 88.7901 39.1558 89.3164C39.4136 89.8428 40.6704 92.3456 37.6305 93.8601C34.5906 95.3747 30.0469 93.8601 30.0469 93.8601L30.0576 93.8494Z" stroke="#3D3D3D" stroke-width="1.07417" stroke-miterlimit="10"/>
<path d="M30.0577 93.3875C30.0577 93.3875 28.5323 88.8438 25.5032 87.3292C22.474 85.8146 21.2173 88.3282 20.9595 88.8545C20.7017 89.3808 19.4449 91.8837 22.4848 93.3982C25.5247 94.9128 30.0684 93.3982 30.0684 93.3982L30.0577 93.3875Z" stroke="#3D3D3D" stroke-width="1.07417" stroke-miterlimit="10"/>
</g>
<defs>
<clipPath id="clip0_908_8850">
<rect width="58.4024" height="142.112" fill="white" transform="translate(0.894043 0.396973)"/>
</clipPath>
</defs>
</svg>
