<svg width="194" height="125" viewBox="0 0 194 125" fill="none" xmlns="http://www.w3.org/2000/svg">
<path d="M81.1768 4.21558L139.23 106.857L112.509 124.102L54.456 21.4607L81.1768 4.21558Z" fill="#023C40"/>
<rect width="29.7681" height="6.44499" transform="matrix(-0.866025 0.5 2.20305e-08 1 85.9644 0.668945)" fill="#023C40"/>
<rect width="29.7681" height="6.44499" transform="matrix(-0.866025 0.5 2.20305e-08 1 91.4558 10.1824)" fill="#023C40"/>
<rect width="29.7681" height="6.44499" transform="matrix(-0.866025 0.5 2.20305e-08 1 96.8267 19.8499)" fill="#023C40"/>
<rect width="29.7681" height="6.44499" transform="matrix(-0.866025 0.5 2.20305e-08 1 102.197 29.5173)" fill="#023C40"/>
<rect width="29.7681" height="6.44499" transform="matrix(-0.866025 0.5 2.20305e-08 1 107.568 39.1848)" fill="#023C40"/>
<rect width="29.7681" height="6.44499" transform="matrix(-0.866025 0.5 2.20305e-08 1 112.939 48.8523)" fill="#023C40"/>
<rect width="29.7681" height="6.44499" transform="matrix(-0.866025 0.5 2.20305e-08 1 118.31 58.5198)" fill="#023C40"/>
<rect width="29.7681" height="6.44499" transform="matrix(-0.866025 0.5 2.20305e-08 1 123.681 68.1873)" fill="#023C40"/>
<rect width="29.7681" height="6.44499" transform="matrix(-0.866025 0.5 2.20305e-08 1 129.052 77.8547)" fill="#023C40"/>
<rect width="29.7681" height="6.44499" transform="matrix(-0.866025 0.5 2.20305e-08 1 134.422 87.5222)" fill="#023C40"/>
<rect width="29.9078" height="6.44499" transform="matrix(-0.866025 0.5 0.866025 0.5 85.9644 6.95972)" fill="#60BF8B"/>
<rect width="29.9078" height="6.44499" transform="matrix(-0.866025 0.5 0.866025 0.5 91.4558 16.4731)" fill="#60BF8B"/>
<rect width="29.9078" height="6.44499" transform="matrix(-0.866025 0.5 0.866025 0.5 96.8267 26.1406)" fill="#60BF8B"/>
<rect width="29.9078" height="6.44499" transform="matrix(-0.866025 0.5 0.866025 0.5 102.197 35.8081)" fill="#60BF8B"/>
<rect width="29.9078" height="6.44499" transform="matrix(-0.866025 0.5 0.866025 0.5 107.568 45.4756)" fill="#60BF8B"/>
<rect width="29.9078" height="6.44499" transform="matrix(-0.866025 0.5 0.866025 0.5 112.939 55.1431)" fill="#60BF8B"/>
<rect width="29.9078" height="6.44499" transform="matrix(-0.866025 0.5 0.866025 0.5 118.31 64.8105)" fill="#60BF8B"/>
<rect width="29.9078" height="6.44499" transform="matrix(-0.866025 0.5 0.866025 0.5 123.681 74.478)" fill="#60BF8B"/>
<rect width="29.9078" height="6.44499" transform="matrix(-0.866025 0.5 0.866025 0.5 129.052 84.1455)" fill="#60BF8B"/>
<rect width="29.9078" height="6.44499" transform="matrix(-0.866025 0.5 0.866025 0.5 134.422 93.813)" fill="#60BF8B"/>
</svg>
