<svg width="125" height="59" viewBox="0 0 125 59" fill="none" xmlns="http://www.w3.org/2000/svg">
<rect width="34.5007" height="7.13808" rx="3.56904" transform="matrix(0.842105 0.539314 -0.888112 0.459627 19.8801 33.6873)" fill="#023C40"/>
<rect width="34.5007" height="7.13808" rx="3.56904" transform="matrix(0.842105 0.539314 -0.888112 0.459627 19.9351 32.4988)" fill="#F79780"/>
<rect width="34.5007" height="7.13808" rx="3.56904" transform="matrix(0.866025 0.5 -0.866025 0.5 46.5186 18.1995)" fill="#023C40"/>
<rect width="34.5007" height="7.13808" rx="3.56904" transform="matrix(0.866025 0.5 -0.866025 0.5 46.5186 17.0098)" fill="#F79780"/>
<rect width="34.5007" height="7.13808" rx="3.56904" transform="matrix(0.866025 0.5 -0.866025 0.5 72.9849 2.06689)" fill="#023C40"/>
<rect width="34.5007" height="7.13808" rx="3.56904" transform="matrix(0.866025 0.5 -0.866025 0.5 72.9849 0.877197)" fill="#F79780"/>
<path d="M1.01175 46.6262L98.7752 -11.0439" stroke="white" stroke-width="1.18968"/>
<path d="M31.2646 58.3867L124.06 1.59839" stroke="white" stroke-width="1.18968"/>
<rect width="34.5007" height="7.13808" rx="3.56904" transform="matrix(0.866025 0.5 -0.866025 0.5 59.8398 9.52148)" fill="#023C40"/>
<rect width="34.5007" height="7.13808" rx="3.56904" transform="matrix(0.866025 0.5 -0.866025 0.5 59.8398 8.33179)" fill="#F79780"/>
<rect width="34.5007" height="7.13808" rx="3.56904" transform="matrix(0.866025 0.5 -0.866025 0.5 85.4309 -6.46802)" fill="#023C40"/>
<rect width="34.5007" height="7.13808" rx="3.56904" transform="matrix(0.866025 0.5 -0.866025 0.5 85.4309 -7.65771)" fill="#F79780"/>
<rect width="34.5007" height="7.13808" rx="3.56904" transform="matrix(0.851828 0.523822 -0.879557 0.475793 31.9292 24.9683)" fill="#023C40"/>
<rect width="34.5007" height="7.13808" rx="3.56904" transform="matrix(0.851828 0.523822 -0.879557 0.475793 31.9619 23.7788)" fill="#F79780"/>
</svg>
