<svg width="184" height="138" viewBox="0 0 184 138" fill="none" xmlns="http://www.w3.org/2000/svg">
<path d="M103.489 12.836L76.231 17.8795L76.2309 28.5734L148.145 70.0929L166.497 58.5682C168.783 57.1327 170.052 55.2538 170.052 53.3038L170.052 42.3619L159.052 44.9154L103.489 12.836Z" fill="#023C40"/>
<path d="M126.802 54.836L98.4015 61.0296L11.5571 122.982L35.526 137.218L150.771 68.6744L126.802 54.836Z" fill="#023C40"/>
<path d="M102.128 0.895235L76.2309 17.4693L148.145 58.9888L165.882 48.7481C171.141 45.7118 171.144 40.7895 165.888 37.7514L102.128 0.895235Z" fill="#60BF8B"/>
<rect width="145.965" height="27.6769" transform="matrix(-0.866025 0.5 0.866025 0.5 126.802 43.7319)" fill="#60BF8B"/>
<rect width="2.33819" height="16.1005" transform="matrix(-0.866025 -0.5 -2.20305e-08 1 139.994 44.0918)" fill="#023C40"/>
<rect width="2.33819" height="16.1522" transform="matrix(0.866025 -0.5 2.20305e-08 1 139.994 44.0918)" fill="#F79780"/>
<path d="M129.248 38.4341C129.248 36.7772 130.411 34.7625 131.846 33.9341L146.525 25.4591C148.517 24.3089 150.413 24.2046 151.729 25.1728L154.702 27.3618C155.358 27.8442 155.254 29.2236 154.475 30.3836L150.239 36.6899C149.86 37.254 149.405 37.7332 148.926 38.0737L131.969 50.1125L129.952 48.7979C129.5 48.5029 129.248 47.9138 129.248 47.1506L129.248 38.4341Z" fill="#023C40"/>
<path d="M131.333 39.6106C131.333 37.9537 132.496 35.939 133.931 35.1106L150.34 25.6367C151.091 25.203 151.806 25.166 152.299 25.5353L155.653 28.0457C156.209 28.4617 156.222 29.5466 155.685 30.6115L152.302 37.3129C151.809 38.2907 151.072 39.1171 150.296 39.5656L133.931 49.0138C132.496 49.8422 131.333 49.1706 131.333 47.5138L131.333 39.6106Z" fill="#F79780"/>
</svg>
