<svg width="191" height="121" viewBox="0 0 191 121" fill="none" xmlns="http://www.w3.org/2000/svg">
<path d="M110.484 3.54408L56.426 96.7183L52.1324 96.1816L52.1324 104.232L80.2748 120.162L135.04 24.9568L131.564 15.1394L110.484 3.54408Z" fill="#9F4F44"/>
<rect width="29.747" height="6.44044" transform="matrix(0.866025 0.5 -2.20305e-08 1 105.7 0)" fill="#9F4F44"/>
<rect width="29.747" height="6.44044" transform="matrix(0.866025 0.5 -2.20305e-08 1 100.213 9.50659)" fill="#9F4F44"/>
<rect width="29.747" height="6.44044" transform="matrix(0.866025 0.5 -2.20305e-08 1 94.8462 19.1672)" fill="#9F4F44"/>
<rect width="29.747" height="6.44044" transform="matrix(0.866025 0.5 -2.20305e-08 1 89.479 28.8279)" fill="#9F4F44"/>
<rect width="29.747" height="6.44044" transform="matrix(0.866025 0.5 -2.20305e-08 1 84.1121 38.4885)" fill="#9F4F44"/>
<rect width="29.747" height="6.44044" transform="matrix(0.866025 0.5 -2.20305e-08 1 78.7444 48.1492)" fill="#9F4F44"/>
<rect width="29.747" height="6.44044" transform="matrix(0.866025 0.5 -2.20305e-08 1 73.3779 57.8098)" fill="#9F4F44"/>
<rect width="29.747" height="6.44044" transform="matrix(0.866025 0.5 -2.20305e-08 1 68.011 67.4705)" fill="#9F4F44"/>
<rect width="29.747" height="6.44044" transform="matrix(0.866025 0.5 -2.20305e-08 1 62.6438 77.1311)" fill="#9F4F44"/>
<rect width="29.747" height="6.44044" transform="matrix(0.866025 0.5 -2.20305e-08 1 57.2766 86.7917)" fill="#9F4F44"/>
<rect width="29.8867" height="6.44044" transform="matrix(0.866025 0.5 -0.866025 0.5 105.7 6.28638)" fill="#F7C780"/>
<rect width="29.8867" height="6.44044" transform="matrix(0.866025 0.5 -0.866025 0.5 100.213 15.7927)" fill="#F7C780"/>
<rect width="29.8867" height="6.44044" transform="matrix(0.866025 0.5 -0.866025 0.5 94.8462 25.4536)" fill="#F7C780"/>
<rect width="29.8867" height="6.44044" transform="matrix(0.866025 0.5 -0.866025 0.5 89.479 35.1143)" fill="#F7C780"/>
<rect width="29.8867" height="6.44044" transform="matrix(0.866025 0.5 -0.866025 0.5 84.1121 44.7749)" fill="#F7C780"/>
<rect width="29.8867" height="6.44044" transform="matrix(0.866025 0.5 -0.866025 0.5 78.7444 54.4355)" fill="#F7C780"/>
<rect width="29.8867" height="6.44044" transform="matrix(0.866025 0.5 -0.866025 0.5 73.3779 64.0962)" fill="#F7C780"/>
<rect width="29.8867" height="6.44044" transform="matrix(0.866025 0.5 -0.866025 0.5 68.011 73.7568)" fill="#F7C780"/>
<rect width="29.8867" height="6.44044" transform="matrix(0.866025 0.5 -0.866025 0.5 62.6438 83.4175)" fill="#F7C780"/>
<rect width="29.8867" height="6.44044" transform="matrix(0.866025 0.5 -0.866025 0.5 57.2766 93.0781)" fill="#F7C780"/>
</svg>
