<svg width="110" height="66" viewBox="0 0 110 66" fill="none" xmlns="http://www.w3.org/2000/svg">
<rect width="31.8589" height="6.59151" rx="3.29575" transform="matrix(-0.842105 0.539314 0.888112 0.459627 96.8789 42.4526)" fill="#9F4F44"/>
<rect width="31.8589" height="6.59151" rx="3.29575" transform="matrix(-0.842105 0.539314 0.888112 0.459627 96.8284 41.3552)" fill="#F7C780"/>
<rect width="31.8589" height="6.5915" rx="3.29575" transform="matrix(-0.866025 0.5 0.866025 0.5 72.28 28.1509)" fill="#9F4F44"/>
<rect width="31.8589" height="6.5915" rx="3.29575" transform="matrix(-0.866025 0.5 0.866025 0.5 72.28 27.0522)" fill="#F7C780"/>
<rect width="31.8589" height="6.5915" rx="3.29575" transform="matrix(-0.866025 0.5 0.866025 0.5 47.8403 13.2537)" fill="#9F4F44"/>
<rect width="31.8589" height="6.5915" rx="3.29575" transform="matrix(-0.866025 0.5 0.866025 0.5 47.8403 12.155)" fill="#F7C780"/>
<path d="M108.996 51.6942L24.0248 1.14673" stroke="white" stroke-width="1.09858"/>
<path d="M86.366 65.2607L0.67587 12.8208" stroke="white" stroke-width="1.09858"/>
<rect width="31.8589" height="6.5915" rx="3.29575" transform="matrix(-0.866025 0.5 0.866025 0.5 59.979 20.1375)" fill="#9F4F44"/>
<rect width="31.8589" height="6.5915" rx="3.29575" transform="matrix(-0.866025 0.5 0.866025 0.5 59.979 19.0388)" fill="#F7C780"/>
<rect width="31.8589" height="6.5915" rx="3.29575" transform="matrix(-0.866025 0.5 0.866025 0.5 36.3474 5.37207)" fill="#9F4F44"/>
<rect width="31.8589" height="6.5915" rx="3.29575" transform="matrix(-0.866025 0.5 0.866025 0.5 36.3474 4.27344)" fill="#F7C780"/>
<rect width="31.8589" height="6.5915" rx="3.29575" transform="matrix(-0.851828 0.523822 0.879557 0.475793 85.7527 34.4011)" fill="#9F4F44"/>
<rect width="31.8589" height="6.5915" rx="3.29575" transform="matrix(-0.851828 0.523822 0.879557 0.475793 85.7222 33.3027)" fill="#F7C780"/>
</svg>
