<svg width="130" height="81" viewBox="0 0 130 81" fill="none" xmlns="http://www.w3.org/2000/svg">
<rect width="81.9032" height="10.4068" transform="matrix(-0.866025 0.5 0.866025 0.5 90.2166 21.7908)" fill="#01705B"/>
<path d="M89.0851 25.178L6.34375 58.3813L6.34382 65.1208L32.3509 80.2507L123.265 27.6766L123.265 20.8458L89.0851 25.178Z" fill="#9F4F44"/>
<rect width="104.749" height="29.913" transform="matrix(-0.866025 0.5 0.866025 0.5 97.2808 5.72607)" fill="#F7C780"/>
<path d="M81.571 5.53516C80.2907 10.7217 73.5576 21.5437 56.8683 23.3399" stroke="#F79780" stroke-width="0.537083"/>
<path d="M56.417 20.2075C54.4793 25.5877 46.0521 36.8273 27.8444 38.7447" stroke="#F79780" stroke-width="0.537083"/>
<path d="M85.8432 1.77026H81.749V18.9685C81.749 18.9685 81.749 19.693 83.9512 19.693C86.1535 19.693 85.8432 18.9685 85.8432 18.9685V1.77026Z" fill="#9F4F44"/>
<ellipse rx="2.04709" ry="1.13722" transform="matrix(-1 0 0 1 83.7964 1.79273)" fill="#D9D9D9"/>
<path d="M29.5602 34.0842H25.466V51.2824C25.466 51.2824 25.466 52.0069 27.6683 52.0069C29.8705 52.0069 29.5602 51.2824 29.5602 51.2824V34.0842Z" fill="#9F4F44"/>
<ellipse rx="2.04709" ry="1.13722" transform="matrix(-1 0 0 1 27.5135 34.1067)" fill="#D9D9D9"/>
<path d="M57.9266 17.3225H53.8325V34.5207C53.8325 34.5207 53.8325 35.2452 56.0347 35.2452C58.237 35.2452 57.9266 34.5207 57.9266 34.5207V17.3225Z" fill="#9F4F44"/>
<ellipse rx="2.04709" ry="1.13722" transform="matrix(-1 0 0 1 55.8799 17.3447)" fill="#D9D9D9"/>
</svg>
