<svg width="95" height="122" viewBox="0 0 95 122" fill="none" xmlns="http://www.w3.org/2000/svg">
<path d="M43.7741 110.401L37.3354 106.222V101.147H42.1184L52.1445 99.4011L58.3354 98.208V103.084L54.6808 107.022L47.8601 110.401H43.7741Z" fill="#9F4F44"/>
<path d="M59.4383 86.2371L50.5469 80.1581V75.1634L57.1519 72.776L70.9974 70.2371L79.5469 70.6797V75.5944L74.4999 81.3214L65.0809 86.2371H59.4383Z" fill="#9F4F44"/>
<path d="M18.9383 81.2371L10.0469 75.1581V70.1848L16.6519 67.776L30.4974 65.2371L39.0469 65.6078V70.5944L33.9999 76.3214L24.5809 81.2371H18.9383Z" fill="#9F4F44"/>
<path d="M43.6282 56.3479L34.7368 50.2689V45.3588L41.3418 42.8868L55.1874 40.3479L63.7368 40.8396V45.7052L58.6899 51.4323L49.2708 56.3479H43.6282Z" fill="#9F4F44"/>
<path d="M29.1282 21.4431L20.2368 15.3642V10.454L26.8418 7.98202L40.6874 5.44312L49.2368 5.93482V10.8004L44.1899 16.5275L34.7708 21.4431H29.1282Z" fill="#9F4F44"/>
<path d="M9.36333 48.3479L0.471924 42.2689V37.2708L7.07691 34.8868L20.9225 32.3479L29.4719 32.7061V37.7052L24.425 43.4323L15.006 48.3479H9.36333Z" fill="#9F4F44"/>
<path d="M82.5174 121.401L74.6511 116.15L74.6511 111.421L80.231 109.243L87.626 107.401L92.126 109.243L94.626 111.421V115.079L88.1601 121.401H82.5174Z" fill="#9F4F44"/>
<path d="M83.5174 116.401L74.626 111.434L75.9939 109.287L81.231 105.401L86.626 105.401L93.126 107.412L94.626 111.434L89.16 116.401H83.5174Z" fill="#F7C780"/>
<path d="M43.7741 105.401L37.3354 101.222L38.326 99.416L42.1184 96.1466L52.1445 94.4011L58.3354 98.0843L54.6808 102.022L47.8601 105.401H43.7741Z" fill="#F7C780"/>
<path d="M59.4383 81.2371L50.5469 75.1581L51.9148 72.5314L57.1519 67.776L70.9974 65.2371L79.5469 70.5944L74.4999 76.3214L65.0809 81.2371H59.4383Z" fill="#F7C780"/>
<path d="M18.9383 76.2371L10.0469 70.1581L11.4148 67.5314L16.6519 62.776L30.4974 60.2371L39.0469 65.5944L33.9999 71.3214L24.5809 76.2371H18.9383Z" fill="#F7C780"/>
<path d="M43.6282 51.3479L34.7368 45.2689L36.1047 42.6422L41.3418 37.8868L55.1874 35.3479L63.7368 40.7052L58.6899 46.4323L49.2708 51.3479H43.6282Z" fill="#F7C780"/>
<path d="M29.1282 16.4431L20.2368 10.3642L21.6047 7.73746L26.8418 2.98202L40.6874 0.443115L49.2368 5.80044L44.1899 11.5275L34.7708 16.4431H29.1282Z" fill="#F7C780"/>
<path d="M9.36333 43.3479L0.471924 37.2689L1.83983 34.6422L7.07691 29.8868L20.9225 27.3479L29.4719 32.7052L24.425 38.4323L15.006 43.3479H9.36333Z" fill="#F7C780"/>
</svg>
