<svg xmlns="http://www.w3.org/2000/svg" xmlns:xlink="http://www.w3.org/1999/xlink" width="166" height="111" viewBox="0 0 166 111">
  <defs>
    <clipPath id="clip-path">
      <rect id="SVGID" width="166" height="111" transform="translate(0.064 -0.29)" fill="none"/>
    </clipPath>
  </defs>
  <g id="Group_3521" data-name="Group 3521" transform="translate(0.152 0.434)">
    <g id="BACKGROUND" transform="translate(-0.216 -0.144)">
      <rect id="Rectangle_1907" data-name="Rectangle 1907" width="166" height="111" transform="translate(0.064 -0.29)" fill="#0d54d1"/>
    </g>
    <g id="OBJECTS" transform="translate(-0.216 -0.144)">
      <g id="Group_3516" data-name="Group 3516" transform="translate(0 0)">
        <g id="Group_3515" data-name="Group 3515" clip-path="url(#clip-path)">
          <path id="Path_20872" data-name="Path 20872" d="M67.887-191.251-52.884-179.174l116.5-34.049L54.4-236.041-53.146-179.548l94.018-76.923-17.4-17.4-76.858,93.938L4.913-286.39l-22.655-9.615L-53.855-179.963-41.751-301H-66.362l12.094,120.94L-88.333-296.618l-22.818,9.22,56.492,107.541-76.923-94.018-17.4,17.4,93.938,76.858-106.454-58.3-9.615,22.655,115.989,36.1L-176-191.251v24.611l120.771-12.078-116.5,34.049,9.22,22.818,107.164-56.294-93.64,76.614,17.4,17.4,77.041-94.162L-113.026-71.5l22.655,9.615L-54.29-177.823-66.362-57.113h24.611l-12.061-120.6L-19.78-61.273l22.818-9.22L-53.616-178.344,23.469-84.128l17.4-17.4-93.529-76.523L53.388-119.976,63-142.631l-115.989-36.1L67.887-166.64Z" transform="translate(137.128 234.438)" fill="#1070e2" opacity="0.5"/>
          <g id="Group_3513" data-name="Group 3513" transform="translate(-5.343 -2.382)">
            <path id="Path_20873" data-name="Path 20873" d="M-24.5,358.188l54.456-26.521L-23.836,361.95Z" transform="translate(24.5 -255.83)" fill="#003da8"/>
            <path id="Path_20874" data-name="Path 20874" d="M287,373.057l13.87-39.489-10.55,40.6Z" transform="translate(-218.061 -257.31)" fill="#003da8"/>
            <path id="Path_20875" data-name="Path 20875" d="M523.468,373.226,477.842,333.5l53.593,39.726Z" transform="translate(-366.667 -257.258)" fill="#003da8"/>
            <path id="Path_20876" data-name="Path 20876" d="M541.243-11,503.8,23.694l46.742-34.03Z" transform="translate(-386.877 11)" fill="#003da8"/>
            <path id="Path_20877" data-name="Path 20877" d="M-17,25.525,41.323,53.758-16.336,18Z" transform="translate(18.66 -11.582)" fill="#003da8"/>
            <path id="Path_20878" data-name="Path 20878" d="M229-9.893l14.754,23.66L232.984-11Z" transform="translate(-172.897 11)" fill="#003da8"/>
            <path id="Path_20879" data-name="Path 20879" d="M-13,250l41.164,1.107L-13,252.656Z" transform="translate(15.545 -192.237)" fill="#003da8"/>
            <path id="Path_20880" data-name="Path 20880" d="M628.465,199,592.5,205.394l36.848-1.3Z" transform="translate(-455.951 -152.524)" fill="#003da8"/>
            <path id="Path_20881" data-name="Path 20881" d="M470.333-6,459.627,16.8,473.874-5.336Z" transform="translate(-352.483 7.107)" fill="#003da8"/>
            <path id="Path_20882" data-name="Path 20882" d="M226,442.541l11.863-18.889L229.1,442.541Z" transform="translate(-170.561 -327.458)" fill="#003da8"/>
            <path id="Path_20883" data-name="Path 20883" d="M-19,389.115,24.82,363-19,390.885Z" transform="translate(20.217 -280.229)" fill="#0387ff"/>
            <path id="Path_20884" data-name="Path 20884" d="M312,427.238,317.754,404l-4.869,23.238Z" transform="translate(-237.528 -312.155)" fill="#0387ff"/>
            <path id="Path_20885" data-name="Path 20885" d="M-13,271.426,33.7,267-13,270.1Z" transform="translate(15.545 -205.475)" fill="#0387ff"/>
            <path id="Path_20886" data-name="Path 20886" d="M648.91,449.271,627,434l25.008,15.271Z" transform="translate(-482.814 -335.516)" fill="#0387ff"/>
            <path id="Path_20887" data-name="Path 20887" d="M672.68,185.328,649,190.2l23.68-6.2Z" transform="translate(-499.946 -140.844)" fill="#0387ff"/>
            <path id="Path_20888" data-name="Path 20888" d="M204.32-6,223.8,24.984,201-6Z" transform="translate(-151.094 7.107)" fill="#0387ff"/>
            <path id="Path_20889" data-name="Path 20889" d="M633.685,33,598.921,54.979l35.87-16Z" transform="translate(-460.95 -23.262)" fill="#0387ff"/>
            <path id="Path_20890" data-name="Path 20890" d="M513.7,418.512,492.584,394.5l18.461,24.234Z" transform="translate(-378.146 -304.757)" fill="#0387ff"/>
            <path id="Path_20891" data-name="Path 20891" d="M-4.557,70,27.09,84.828-5,71.992Z" transform="translate(9.316 -52.074)" fill="#0387ff"/>
            <path id="Path_20892" data-name="Path 20892" d="M450.394-6,438,22.771,447.959-6Z" transform="translate(-335.643 7.107)" fill="#0387ff"/>
            <path id="Path_20893" data-name="Path 20893" d="M596,315.537,550.53,304.606,596,321.292Z" transform="translate(-423.268 -234.758)" fill="#003da8"/>
            <path id="Path_20894" data-name="Path 20894" d="M-22.276,287.586l51.057-6.55-50.614,11.626Z" transform="translate(22.768 -216.405)" fill="#003da8"/>
            <path id="Path_20895" data-name="Path 20895" d="M483.047,390.122l-23.756-32.366L480.443,390.4Z" transform="translate(-352.222 -276.145)" fill="#003da8"/>
            <path id="Path_20896" data-name="Path 20896" d="M408.134,383.616l-6.979-36.329,10.469,36.674Z" transform="translate(-306.952 -267.994)" fill="#003da8"/>
            <path id="Path_20897" data-name="Path 20897" d="M425.15,416.473l-7.665-26.67,9.659,26.67Z" transform="translate(-319.668 -301.1)" fill="#0387ff"/>
            <path id="Path_20898" data-name="Path 20898" d="M93.074,406.971l32.061-27.577-24.845,27.86Z" transform="translate(-67.053 -292.994)" fill="#0387ff"/>
            <path id="Path_20899" data-name="Path 20899" d="M295.666-11,306,21.754,297.51-11Z" transform="translate(-224.809 11)" fill="#0387ff"/>
            <path id="Path_20900" data-name="Path 20900" d="M-6.6,5.064,37.607,33.872-6.6,3.707Z" transform="translate(10.564 -0.452)" fill="#0387ff"/>
            <path id="Path_20901" data-name="Path 20901" d="M553.375,16.343,495.787,50.773,553.375,14.9Z" transform="translate(-380.641 -9.167)" fill="#003da8"/>
            <path id="Path_20902" data-name="Path 20902" d="M-17.557,191.632l58.731,8.048L-18,190.337Z" transform="translate(19.439 -145.779)" fill="#003da8"/>
            <path id="Path_20903" data-name="Path 20903" d="M569.515,350.049l-53-27.049,53.665,25.7Z" transform="translate(-396.78 -249.081)" fill="#0387ff"/>
          </g>
          <g id="Group_3514" data-name="Group 3514" transform="translate(-4.502 -1.408)">
            <path id="Path_20904" data-name="Path 20904" d="M-20.7,383.038,14.12,367.361-20.7,382.13Z" transform="translate(20.699 -284.598)" fill="#fff"/>
            <path id="Path_20905" data-name="Path 20905" d="M248.576,460.265l6-13.256-5.225,13.256Z" transform="translate(-188.982 -346.619)" fill="#fff"/>
            <path id="Path_20906" data-name="Path 20906" d="M163.974-6.6l21.366,27.75L161.761-6.6Z" transform="translate(-121.38 6.602)" fill="#fff"/>
            <path id="Path_20907" data-name="Path 20907" d="M662.845,69.266,636.872,81.132l25.795-11.01Z" transform="translate(-491.343 -52.475)" fill="#fff"/>
            <path id="Path_20908" data-name="Path 20908" d="M625.381,368.691l-36.866-17.116,36.866,15.365Z" transform="translate(-453.688 -272.306)" fill="#fff"/>
            <path id="Path_20909" data-name="Path 20909" d="M600.638-3.622,586.253,9.887,599.562-3.622Z" transform="translate(-451.926 4.281)" fill="#fff"/>
            <path id="Path_20910" data-name="Path 20910" d="M-4.656,182.458l23.008,4.076-23.008-5.028Z" transform="translate(8.206 -139.875)" fill="#fff"/>
            <path id="Path_20911" data-name="Path 20911" d="M0-4.116c.165,0,25.345,17.973,25.345,17.973L1.853-4.618Z" transform="translate(4.581 5.057)"/>
            <path id="Path_20912" data-name="Path 20912" d="M-3.927,454.047l17.469-11.255L-3.927,455Z" transform="translate(7.639 -343.336)"/>
            <path id="Path_20913" data-name="Path 20913" d="M401.927,421.39l-3.538-23.469,2.038,23.469Z" transform="translate(-305.639 -308.395)"/>
            <path id="Path_20914" data-name="Path 20914" d="M704.291,443.373l-14.047-7.71,14.047,9.281Z" transform="translate(-532.903 -337.784)"/>
            <path id="Path_20915" data-name="Path 20915" d="M509.173-3.622l-9.838,14.784L510.564-3.622Z" transform="translate(-384.245 4.281)"/>
            <path id="Path_20916" data-name="Path 20916" d="M324.205-3.622l3.089,16.208L325.477-3.622Z" transform="translate(-247.873 4.281)"/>
            <path id="Path_20917" data-name="Path 20917" d="M710.848,80.247,698.517,85.3l12.33-4.252Z" transform="translate(-539.345 -61.026)"/>
            <path id="Path_20918" data-name="Path 20918" d="M22.576-2.378l9.023,7.1L23.468-2.557Z" transform="translate(-12.999 3.452)" fill="#fff"/>
            <path id="Path_20919" data-name="Path 20919" d="M-11.051,404.25l13.91-5.712-13.91,4.84Z" transform="translate(13.186 -308.875)"/>
            <path id="Path_20920" data-name="Path 20920" d="M392.546,454.922l-1.228-14.451.331,14.451Z" transform="translate(-300.133 -341.528)" fill="#fff"/>
            <path id="Path_20921" data-name="Path 20921" d="M217.5,465.438l6.563-10.95-7.884,10.95Z" transform="translate(-163.755 -352.443)"/>
            <path id="Path_20922" data-name="Path 20922" d="M-7.15,164.8,8.418,168.3-7.15,163.69Z" transform="translate(10.149 -126.002)"/>
            <path id="Path_20923" data-name="Path 20923" d="M653.541,277.686l-28.862-1.548,28.862,3.1Z" transform="translate(-481.848 -213.564)"/>
            <path id="Path_20924" data-name="Path 20924" d="M703.548,275.672l-14.65-.728h14.65Z" transform="translate(-531.855 -212.634)" fill="#fff"/>
          </g>
        </g>
      </g>
      <g id="Group_3520" data-name="Group 3520" transform="translate(0 0)" opacity="0.2" style="mix-blend-mode: multiply;isolation: isolate">
        <g id="Group_3519" data-name="Group 3519" clip-path="url(#clip-path)">
          <g id="Group_3518" data-name="Group 3518" transform="translate(-10.473 -37.402)">
            <g id="Group_3517" data-name="Group 3517" transform="translate(0 0)">
              <ellipse id="Ellipse_946" data-name="Ellipse 946" cx="93" cy="92.5" rx="93" ry="92.5" transform="translate(-0.463 0.111)" fill="none" stroke="#003da8" stroke-linecap="round" stroke-linejoin="round" stroke-width="0.5" stroke-dasharray="0 10"/>
              <circle id="Ellipse_947" data-name="Ellipse 947" cx="90.74" cy="90.74" r="90.74" transform="translate(2.804 2.043)" fill="none" stroke="#003da8" stroke-linecap="round" stroke-linejoin="round" stroke-width="0.732" stroke-dasharray="0 10"/>
              <circle id="Ellipse_948" data-name="Ellipse 948" cx="88.529" cy="88.529" r="88.529" transform="translate(5.016 4.254)" fill="none" stroke="#003da8" stroke-linecap="round" stroke-linejoin="round" stroke-width="0.963" stroke-dasharray="0 10"/>
              <circle id="Ellipse_949" data-name="Ellipse 949" cx="86.317" cy="86.317" r="86.317" transform="translate(7.227 6.466)" fill="none" stroke="#003da8" stroke-linecap="round" stroke-linejoin="round" stroke-width="1.195" stroke-dasharray="0 10"/>
              <circle id="Ellipse_950" data-name="Ellipse 950" cx="84.106" cy="84.106" r="84.106" transform="translate(9.439 8.677)" fill="none" stroke="#003da8" stroke-linecap="round" stroke-linejoin="round" stroke-width="1.427" stroke-dasharray="0 10"/>
              <circle id="Ellipse_951" data-name="Ellipse 951" cx="81.894" cy="81.894" r="81.894" transform="translate(11.65 10.889)" fill="none" stroke="#003da8" stroke-linecap="round" stroke-linejoin="round" stroke-width="1.659" stroke-dasharray="0 10"/>
              <circle id="Ellipse_952" data-name="Ellipse 952" cx="79.683" cy="79.683" r="79.683" transform="translate(13.862 13.1)" fill="none" stroke="#003da8" stroke-linecap="round" stroke-linejoin="round" stroke-width="1.89" stroke-dasharray="0 10"/>
              <circle id="Ellipse_953" data-name="Ellipse 953" cx="77.471" cy="77.471" r="77.471" transform="translate(16.073 15.312)" fill="none" stroke="#003da8" stroke-linecap="round" stroke-linejoin="round" stroke-width="2.122" stroke-dasharray="0 10"/>
              <circle id="Ellipse_954" data-name="Ellipse 954" cx="75.259" cy="75.259" r="75.259" transform="translate(18.285 17.523)" fill="none" stroke="#003da8" stroke-linecap="round" stroke-linejoin="round" stroke-width="2.354" stroke-dasharray="0 10"/>
              <circle id="Ellipse_955" data-name="Ellipse 955" cx="73.048" cy="73.048" r="73.048" transform="translate(20.496 19.735)" fill="none" stroke="#003da8" stroke-linecap="round" stroke-linejoin="round" stroke-width="2.585" stroke-dasharray="0 10"/>
              <circle id="Ellipse_956" data-name="Ellipse 956" cx="70.836" cy="70.836" r="70.836" transform="translate(22.708 21.946)" fill="none" stroke="#003da8" stroke-linecap="round" stroke-linejoin="round" stroke-width="2.817" stroke-dasharray="0 10"/>
              <circle id="Ellipse_957" data-name="Ellipse 957" cx="68.625" cy="68.625" r="68.625" transform="translate(24.919 24.158)" fill="none" stroke="#003da8" stroke-linecap="round" stroke-linejoin="round" stroke-width="3.049" stroke-dasharray="0 10"/>
              <circle id="Ellipse_958" data-name="Ellipse 958" cx="66.413" cy="66.413" r="66.413" transform="translate(27.131 26.369)" fill="none" stroke="#003da8" stroke-linecap="round" stroke-linejoin="round" stroke-width="3.28" stroke-dasharray="0 10"/>
              <circle id="Ellipse_959" data-name="Ellipse 959" cx="64.202" cy="64.202" r="64.202" transform="translate(29.342 28.581)" fill="none" stroke="#003da8" stroke-linecap="round" stroke-linejoin="round" stroke-width="3.512" stroke-dasharray="0 10"/>
              <circle id="Ellipse_960" data-name="Ellipse 960" cx="61.99" cy="61.99" r="61.99" transform="translate(31.554 30.792)" fill="none" stroke="#003da8" stroke-linecap="round" stroke-linejoin="round" stroke-width="3.744" stroke-dasharray="0 10"/>
              <circle id="Ellipse_961" data-name="Ellipse 961" cx="59.779" cy="59.779" r="59.779" transform="translate(33.765 33.004)" fill="none" stroke="#003da8" stroke-linecap="round" stroke-linejoin="round" stroke-width="3.976" stroke-dasharray="0 10"/>
              <circle id="Ellipse_962" data-name="Ellipse 962" cx="57.567" cy="57.567" r="57.567" transform="translate(35.977 35.215)" fill="none" stroke="#003da8" stroke-linecap="round" stroke-linejoin="round" stroke-width="4.207" stroke-dasharray="0 10"/>
              <circle id="Ellipse_963" data-name="Ellipse 963" cx="55.356" cy="55.356" r="55.356" transform="translate(38.188 37.427)" fill="none" stroke="#003da8" stroke-linecap="round" stroke-linejoin="round" stroke-width="4.439" stroke-dasharray="0 10"/>
              <circle id="Ellipse_964" data-name="Ellipse 964" cx="53.144" cy="53.144" r="53.144" transform="translate(40.4 39.638)" fill="none" stroke="#003da8" stroke-linecap="round" stroke-linejoin="round" stroke-width="4.671" stroke-dasharray="0 10"/>
              <circle id="Ellipse_965" data-name="Ellipse 965" cx="50.933" cy="50.933" r="50.933" transform="translate(42.611 41.85)" fill="none" stroke="#003da8" stroke-linecap="round" stroke-linejoin="round" stroke-width="4.902" stroke-dasharray="0 10"/>
              <circle id="Ellipse_966" data-name="Ellipse 966" cx="48.721" cy="48.721" r="48.721" transform="translate(44.823 44.061)" fill="none" stroke="#003da8" stroke-linecap="round" stroke-linejoin="round" stroke-width="5.134" stroke-dasharray="0 10"/>
              <circle id="Ellipse_967" data-name="Ellipse 967" cx="46.51" cy="46.51" r="46.51" transform="translate(47.034 46.273)" fill="none" stroke="#003da8" stroke-linecap="round" stroke-linejoin="round" stroke-width="5.366" stroke-dasharray="0 10"/>
              <circle id="Ellipse_968" data-name="Ellipse 968" cx="44.298" cy="44.298" r="44.298" transform="translate(49.246 48.484)" fill="none" stroke="#003da8" stroke-linecap="round" stroke-linejoin="round" stroke-width="5.598" stroke-dasharray="0 10"/>
              <circle id="Ellipse_969" data-name="Ellipse 969" cx="42.087" cy="42.087" r="42.087" transform="translate(51.457 50.696)" fill="none" stroke="#003da8" stroke-linecap="round" stroke-linejoin="round" stroke-width="5.829" stroke-dasharray="0 10"/>
              <circle id="Ellipse_970" data-name="Ellipse 970" cx="39.875" cy="39.875" r="39.875" transform="translate(53.669 52.907)" fill="none" stroke="#003da8" stroke-linecap="round" stroke-linejoin="round" stroke-width="6.061" stroke-dasharray="0 10"/>
              <circle id="Ellipse_971" data-name="Ellipse 971" cx="37.664" cy="37.664" r="37.664" transform="translate(55.88 55.119)" fill="none" stroke="#003da8" stroke-linecap="round" stroke-linejoin="round" stroke-width="6.293" stroke-dasharray="0 10"/>
              <circle id="Ellipse_972" data-name="Ellipse 972" cx="35.452" cy="35.452" r="35.452" transform="translate(58.092 57.331)" fill="none" stroke="#003da8" stroke-linecap="round" stroke-linejoin="round" stroke-width="6.524" stroke-dasharray="0 10"/>
              <circle id="Ellipse_973" data-name="Ellipse 973" cx="33.241" cy="33.241" r="33.241" transform="translate(60.303 59.542)" fill="none" stroke="#003da8" stroke-linecap="round" stroke-linejoin="round" stroke-width="6.756" stroke-dasharray="0 10"/>
              <circle id="Ellipse_974" data-name="Ellipse 974" cx="31.029" cy="31.029" r="31.029" transform="translate(62.515 61.754)" fill="none" stroke="#003da8" stroke-linecap="round" stroke-linejoin="round" stroke-width="6.988" stroke-dasharray="0 10"/>
              <circle id="Ellipse_975" data-name="Ellipse 975" cx="28.818" cy="28.818" r="28.818" transform="translate(64.726 63.965)" fill="none" stroke="#003da8" stroke-linecap="round" stroke-linejoin="round" stroke-width="7.22" stroke-dasharray="0 10"/>
              <circle id="Ellipse_976" data-name="Ellipse 976" cx="26.606" cy="26.606" r="26.606" transform="translate(66.938 66.177)" fill="none" stroke="#003da8" stroke-linecap="round" stroke-linejoin="round" stroke-width="7.451" stroke-dasharray="0 10"/>
              <circle id="Ellipse_977" data-name="Ellipse 977" cx="24.395" cy="24.395" r="24.395" transform="translate(69.149 68.388)" fill="none" stroke="#003da8" stroke-linecap="round" stroke-linejoin="round" stroke-width="7.683" stroke-dasharray="0 10"/>
              <circle id="Ellipse_978" data-name="Ellipse 978" cx="22.183" cy="22.183" r="22.183" transform="translate(71.361 70.6)" fill="none" stroke="#003da8" stroke-linecap="round" stroke-linejoin="round" stroke-width="7.915" stroke-dasharray="0 10"/>
              <circle id="Ellipse_979" data-name="Ellipse 979" cx="19.972" cy="19.972" r="19.972" transform="translate(73.572 72.811)" fill="none" stroke="#003da8" stroke-linecap="round" stroke-linejoin="round" stroke-width="8.146" stroke-dasharray="0 10"/>
              <circle id="Ellipse_980" data-name="Ellipse 980" cx="17.76" cy="17.76" r="17.76" transform="translate(75.784 75.023)" fill="none" stroke="#003da8" stroke-linecap="round" stroke-linejoin="round" stroke-width="8.378" stroke-dasharray="0 10"/>
              <circle id="Ellipse_981" data-name="Ellipse 981" cx="15.549" cy="15.549" r="15.549" transform="translate(77.995 77.234)" fill="none" stroke="#003da8" stroke-linecap="round" stroke-linejoin="round" stroke-width="8.61" stroke-dasharray="0 10"/>
              <circle id="Ellipse_982" data-name="Ellipse 982" cx="13.337" cy="13.337" r="13.337" transform="translate(80.207 79.446)" fill="none" stroke="#003da8" stroke-linecap="round" stroke-linejoin="round" stroke-width="8.841" stroke-dasharray="0 10"/>
              <circle id="Ellipse_983" data-name="Ellipse 983" cx="11.126" cy="11.126" r="11.126" transform="translate(82.419 81.657)" fill="none" stroke="#003da8" stroke-linecap="round" stroke-linejoin="round" stroke-width="9.073" stroke-dasharray="0 10"/>
              <circle id="Ellipse_984" data-name="Ellipse 984" cx="8.914" cy="8.914" r="8.914" transform="translate(84.63 83.869)" fill="none" stroke="#003da8" stroke-linecap="round" stroke-linejoin="round" stroke-width="9.305" stroke-dasharray="0 10"/>
              <circle id="Ellipse_985" data-name="Ellipse 985" cx="6.703" cy="6.703" r="6.703" transform="translate(86.842 86.08)" fill="none" stroke="#003da8" stroke-linecap="round" stroke-linejoin="round" stroke-width="9.537" stroke-dasharray="0 10"/>
              <circle id="Ellipse_986" data-name="Ellipse 986" cx="4.491" cy="4.491" r="4.491" transform="translate(89.053 88.292)" fill="none" stroke="#003da8" stroke-linecap="round" stroke-linejoin="round" stroke-width="9.768" stroke-dasharray="0 10"/>
              <circle id="Ellipse_987" data-name="Ellipse 987" cx="2.28" cy="2.28" r="2.28" transform="translate(91.265 90.503)" fill="none" stroke="#003da8" stroke-linecap="round" stroke-linejoin="round" stroke-width="10" stroke-dasharray="0 10"/>
            </g>
          </g>
        </g>
      </g>
    </g>
  </g>
</svg>
