<svg xmlns="http://www.w3.org/2000/svg" width="409.391" height="366.604" viewBox="0 0 409.391 366.604">
  <g id="Group_8766" data-name="Group 8766" transform="translate(-45.305 -78.637)">
    <g id="Desk">
      <path id="Path_31344" data-name="Path 31344" d="M45.3,401l51.174-.243,51.174-.088L250,400.5l102.348.166,51.174.088L454.7,401l-51.174.245-51.174.088L250,401.5l-102.348-.168-51.174-.088Z" fill="#263238"/>
    </g>
    <g id="Shadow">
      <ellipse id="Ellipse_381" data-name="Ellipse 381" cx="184.77" cy="13.666" rx="184.77" ry="13.666" transform="translate(65.23 417.91)" fill="#ebebeb"/>
    </g>
    <g id="Character">
      <g id="Group_8745" data-name="Group 8745">
        <g id="Group_8711" data-name="Group 8711">
          <g id="Group_8706" data-name="Group 8706">
            <g id="Group_8705" data-name="Group 8705">
              <path id="Path_31345" data-name="Path 31345" d="M290.005,320.99s-.01.05-.03.14c-.01.03-.01.06-.02.1-.01.08-.03.16-.05.27l-.03.18a3.087,3.087,0,0,0-.07.39c-.02.09-.03.18-.05.28q-.045.3-.12.66c-.07.38-.15.81-.23,1.29-.13.71-.28,1.52-.45,2.44-.05.26-.1.54-.15.83-.07.38-.14.78-.22,1.19-.08.45-.16.92-.25,1.41a.037.037,0,0,0-.01.03c-.06.34-.13.69-.19,1.05-.19,1.07-.39,2.21-.62,3.43a.292.292,0,0,0-.02.09c-.24,1.36-.5,2.82-.78,4.35-.07.4-.15.8-.23,1.2-.08.42-.16.84-.23,1.26,0,.01-.01.02,0,.03-.04.26-.09.53-.15.8v.02q-.57,3.2-1.23,6.76c-.15.8-.29,1.61-.44,2.43-.29,1.6-.59,3.24-.9,4.93-.08.39-.15.78-.21,1.18q-.675,3.675-1.39,7.64c-.06.27-.1.54-.15.81-.23,1.24-.46,2.49-.68,3.77a1.592,1.592,0,0,0-.06.3c-.11.6-.22,1.21-.33,1.82q-.66,3.66-1.36,7.49c-.12.63-.24,1.27-.35,1.92-.23,1.29-.47,2.59-.71,3.9-.3,1.63-.6,3.27-.9,4.94s-.6,3.34-.91,5.03c-.16.85-.31,1.7-.47,2.55-.18,1.02-.37,2.04-.55,3.07h-86.32c10.66-44.29,19.65-79.98,19.65-79.98Z" fill="#263238"/>
              <g id="Group_8704" data-name="Group 8704">
                <path id="Path_31346" data-name="Path 31346" d="M276.945,330.96q-6.5,35.01-13.12,70.01h-1.2c4.59-23.39,9.32-46.74,14.03-70.1C276.7,330.68,276.975,330.77,276.945,330.96Z" fill="#263238"/>
              </g>
            </g>
            <path id="Path_31347" data-name="Path 31347" d="M289.995,320.99s-.01.05-.02.14c-.01.03-.01.06-.02.1-.02.07-.03.16-.05.27l-.03.18a3.087,3.087,0,0,0-.07.39c-.02.09-.03.18-.05.28q-.06.3-.12.66c-.07.38-.15.81-.23,1.29-.14.71-.28,1.52-.45,2.44-.05.26-.1.54-.15.83-.07.38-.14.78-.22,1.19-.08.45-.16.92-.25,1.41a.037.037,0,0,0-.01.03c-.06.34-.13.69-.19,1.05-.2,1.07-.4,2.21-.62,3.43a.292.292,0,0,0-.02.09c-.25,1.36-.51,2.8-.79,4.33-.08.4-.15.81-.22,1.22s-.16.84-.23,1.26c0,.01-.01.02,0,.03-.06.26-.1.53-.15.8v.02c-.39,2.12-.8,4.38-1.23,6.76-.15.8-.29,1.61-.44,2.43-.3,1.6-.6,3.24-.9,4.93-.08.39-.15.78-.21,1.18q-.69,3.69-1.39,7.64c-.06.27-.1.54-.15.81-.23,1.24-.46,2.49-.68,3.77a1.592,1.592,0,0,0-.06.3c-.11.6-.22,1.21-.33,1.82q-.675,3.66-1.36,7.49c-.12.63-.24,1.27-.35,1.92-.24,1.29-.47,2.59-.71,3.9-.3,1.63-.6,3.27-.9,4.94s-.61,3.34-.91,5.03c-.16.85-.31,1.7-.47,2.55-.18,1.02-.37,2.04-.56,3.07h-43.27l-3.47-35.52-.12-1.26-.14-1.36v-.01l-.68-6.95v-.01l-.59-6.02-2.82-28.85Z" fill="#455a64"/>
          </g>
          <g id="Group_8710" data-name="Group 8710">
            <g id="Group_8709" data-name="Group 8709">
              <path id="Path_31348" data-name="Path 31348" d="M339.105,400.97H245.9c-.16-8.58-.33-16.88-.54-24.71v-.01c-.01-.19-.01-.38-.02-.57,0,0-10.88-6.44-16.74-11.49a20.7,20.7,0,0,1-2.74-2.72c0-.01,0-.01-.01-.02l-.01-.01c-3.75-4.78-7.51-23.16-15.29-40.45h114C343.105,357.03,341.8,385.88,339.105,400.97Z" fill="#263238"/>
              <g id="Group_8708" data-name="Group 8708">
                <g id="Group_8707" data-name="Group 8707">
                  <path id="Path_31349" data-name="Path 31349" d="M223.158,360.238c5.547,2.268,10.532,5.761,15.456,9.127,5.115,3.5,9.8,7.535,14.724,11.286.189.144.011.456-.2.322-5.186-3.311-10.617-6.223-15.745-9.632-4.981-3.311-10.161-6.533-14.485-10.7C222.738,360.479,222.928,360.144,223.158,360.238Z" fill="#455a64"/>
                  <path id="Path_31350" data-name="Path 31350" d="M222.458,328.175c.66,3.549,1.521,7.063,2.287,10.591.719,3.31,1.248,6.688,2.124,9.96a16.952,16.952,0,0,0,4.638,8.348c1.3,1.207,2.73,2.275,4.115,3.381.746.6,1.552,1.168,2.328,1.772-.1-.469-.182-.946-.267-1.429q-.354-2.018-.69-4.04-.753-4.483-1.438-8.98c-.9-5.889-1.73-11.841-2.959-17.672a.19.19,0,0,1,.368-.092c1.467,5.778,3.087,11.494,4.365,17.321.626,2.859,2.863,16.969,2.962,17.967.1,1.031.188,2.066.225,3.1a12.351,12.351,0,0,1,0,3.168c-.061.257-.371.216-.48.042l-.015.01a12.441,12.441,0,0,1-.9-3.066c-.258-1.007-.486-2.029-.667-3.053-.065-.369-.117-.748-.169-1.125-1.39-.845-2.684-1.961-3.983-2.9-1.4-1.014-2.827-2-4.151-3.117a15.9,15.9,0,0,1-5.067-7.918,57.679,57.679,0,0,1-1.662-10.14c-.449-4.01-.777-8.04-1.336-12.035C222.058,328.03,222.413,327.932,222.458,328.175Z" fill="#455a64"/>
                </g>
                <path id="Path_31351" data-name="Path 31351" d="M317.3,352.893c-1.485-.777-7.248.6-17.741-1.2a11.948,11.948,0,0,1-5.663-2.3c-2.734-2.234-4.8-5.818-6.457-8.89a45.852,45.852,0,0,1-4.519-10.975c-.053-.23-.387-.12-.347.105.39,2.172.607,4.34,1.18,6.488a39.767,39.767,0,0,0,2.168,5.892c1.586,3.561,3.438,7.383,6.631,9.788,3.349,2.524,8.021,2.995,12.079,3.278,2.348.163,11.555-.084,12.792-1.4A.512.512,0,0,0,317.3,352.893Z" fill="#455a64"/>
              </g>
            </g>
          </g>
        </g>
        <g id="Group_8744" data-name="Group 8744">
          <g id="Group_8714" data-name="Group 8714">
            <g id="Group_8712" data-name="Group 8712">
              <path id="Path_31352" data-name="Path 31352" d="M230.564,192.757c-9.6,14.191-76.28,99.656-85.938,101.4-24.59,4.436-47.108-4-37.815-25.176,10.822-24.655,71.014-73.553,111.1-95.2C246.629,158.27,240.039,178.753,230.564,192.757Z" fill="#ffa89e"/>
            </g>
            <g id="Group_8713" data-name="Group 8713">
              <path id="Path_31353" data-name="Path 31353" d="M198.045,239.879l-52.3-24.018s48.388-33.64,71.049-43.878c23.616-10.67,33.166-4.437,12.992,23.323C209.9,222.654,198.045,239.879,198.045,239.879Z" fill="#455a64"/>
              <path id="Path_31354" data-name="Path 31354" d="M173.55,197.26a3.531,3.531,0,0,0-.32.21l40.69,19.86c.07-.09.13-.19.2-.28Zm-11.25,7.39a3.284,3.284,0,0,0-.31.2l45.15,22.04c.06-.09.12-.18.19-.27Zm-11.09,7.46c-.11.07-.21.14-.31.21l49.51,24.16c.05-.09.12-.18.18-.27Z" fill="#fff"/>
              <path id="Path_31355" data-name="Path 31355" d="M198.652,229.255c-1.175-.712-2.462-1.266-3.7-1.867q-1.908-.927-3.81-1.865c-2.573-1.263-5.169-2.481-7.769-3.685-5.2-2.407-10.384-4.833-15.62-7.152-1.439-.637-2.882-1.271-4.337-1.871-1.531-.631-3.109-1.151-4.635-1.783-.1-.04-.142.1-.054.146,1.267.635,2.486,1.376,3.754,2.018q1.947.985,3.921,1.922,3.883,1.839,7.794,3.618c5.134,2.332,10.263,4.686,15.445,6.909,1.447.62,2.9,1.227,4.346,1.847,1.513.649,3.025,1.394,4.591,1.9C198.661,229.419,198.732,229.3,198.652,229.255Z" fill="#263238"/>
              <path id="Path_31356" data-name="Path 31356" d="M229.778,195.3c-19.872,27.348-31.735,44.572-31.735,44.572l-16.718-7.682,57.311-63.963C242.993,171.2,240.92,179.967,229.778,195.3Z" fill="#263238"/>
            </g>
          </g>
          <g id="Group_8716" data-name="Group 8716">
            <g id="Group_8715" data-name="Group 8715">
              <path id="Path_31357" data-name="Path 31357" d="M200.216,340.157h134.9s-20.608-128.722-70.331-172.736c-6.145-5.44-20.007-4.2-29.051.29-3.231,1.606-14.822,17.823-18.131,33.157C214.319,216.185,199.854,339.7,200.216,340.157Z" fill="#455a64"/>
              <path id="Path_31358" data-name="Path 31358" d="M322.865,285.2l-59.86-119.05a10.417,10.417,0,0,1,1.78,1.27C293.005,192.4,311.845,244.66,322.865,285.2Z" fill="#263238"/>
              <path id="Path_31359" data-name="Path 31359" d="M258.95,164.55H245.28c.64-.12,1.27-.23,1.91-.33h10.19C257.92,164.31,258.44,164.42,258.95,164.55Zm14.1,11.24H228.82c-.07.11-.14.22-.22.33h44.73C273.24,176.01,273.14,175.9,273.05,175.79ZM282,187.36H222.31l-.15.33h60.06C282.15,187.58,282.07,187.47,282,187.36Zm7.28,11.57H218.07c-.04.11-.06.22-.09.33h71.5C289.41,199.15,289.35,199.04,289.28,198.93Zm6.24,11.57H216c-.01.11-.03.22-.05.33h79.74C295.63,210.72,295.57,210.61,295.52,210.5Zm5.47,11.57H214.38c-.02.11-.03.22-.04.33h86.79C301.09,222.29,301.04,222.18,300.99,222.07Zm4.89,11.58H212.84c-.01.11-.03.22-.04.32h93.21C305.96,233.86,305.92,233.75,305.88,233.65Zm4.41,11.57H211.36c-.02.11-.03.21-.04.32H310.4C310.37,245.43,310.33,245.33,310.29,245.22Zm4.03,11.57H209.91c-.02.11-.03.22-.04.33H314.42C314.39,257.01,314.36,256.9,314.32,256.79Zm3.69,11.57H208.48c-.01.11-.03.22-.04.33H318.11C318.08,268.58,318.04,268.47,318.01,268.36Zm3.4,11.57H207.08c-.02.11-.03.22-.04.33H321.5Zm3.14,11.57H205.69c-.01.11-.03.22-.04.33H324.63C324.6,291.72,324.57,291.61,324.55,291.5Zm2.89,11.57H204.32c-.01.11-.03.22-.04.33H327.52C327.49,303.29,327.47,303.18,327.44,303.07Zm2.66,11.57H202.97c-.01.11-.02.22-.04.33H330.17C330.15,314.86,330.13,314.75,330.1,314.64Zm2.44,11.57H201.65c-.01.11-.02.22-.04.33H332.6Zm2.18,11.57H200.4l-.03.33h134.4C334.76,338,334.74,337.89,334.72,337.78Z" fill="#fff"/>
            </g>
          </g>
          <g id="Group_8720" data-name="Group 8720">
            <g id="Group_8719" data-name="Group 8719">
              <path id="Path_31360" data-name="Path 31360" d="M288.183,170.657C322.2,183.226,405.9,216.592,410.158,236.114c3.126,14.349-60.757,23.266-62.574,20.942-1.438-1.839-60.75-48.045-81.663-72.915C247.755,162.537,277.313,166.64,288.183,170.657Z" fill="#ffa89e"/>
              <g id="Group_8718" data-name="Group 8718">
                <path id="Path_31361" data-name="Path 31361" d="M313.867,229.476l44.792-31.036s-53.519-24.676-77.619-30.8c-25.116-6.383-33.431,1.421-8.72,25.233C296.664,216.331,313.867,229.476,313.867,229.476Z" fill="#455a64"/>
                <path id="Path_31362" data-name="Path 31362" d="M325.553,183.941l-34.72,26.115c.085.075.161.15.247.215L325.9,184.083Zm12.282,5.234-38.1,28.662c.085.086.161.151.247.226l38.208-28.736C338.069,189.28,337.952,189.223,337.835,189.175Zm12.145,5.337-41.141,30.96c.086.075.172.141.258.206l41.224-31C350.2,194.626,350.1,194.569,349.98,194.512Z" fill="#fff"/>
                <g id="Group_8717" data-name="Group 8717">
                  <path id="Path_31363" data-name="Path 31363" d="M346.3,196.349c-1.2.66-2.331,1.495-3.47,2.262q-1.76,1.187-3.525,2.361c-2.383,1.592-4.738,3.227-7.085,4.873-4.689,3.287-9.39,6.557-14.022,9.924-1.273.926-2.545,1.856-3.794,2.814-1.314,1.008-2.555,2.112-3.868,3.115-.082.062.018.174.1.12,1.184-.778,2.437-1.461,3.628-2.235q1.83-1.191,3.63-2.429,3.538-2.436,7.04-4.927c4.592-3.271,9.2-6.528,13.724-9.9,1.262-.94,2.516-1.892,3.778-2.832,1.32-.984,2.723-1.918,3.947-3.019C346.45,196.423,346.386,196.3,346.3,196.349Z" fill="#263238"/>
                  <path id="Path_31364" data-name="Path 31364" d="M309.729,225.935c-1.255-1.067-2.432-2.224-3.653-3.33s-2.476-2.185-3.71-3.282c-2.41-2.143-4.847-4.258-7.263-6.4q-7.346-6.5-14.625-13.078c-2.751-2.5-5.447-5.07-8.284-7.47-.041-.035-.1.016-.063.058,2.227,2.416,4.626,4.679,7,6.948-.5-.315-.995-.64-1.478-.98q-.8-.565-1.577-1.172c-.527-.412-1.028-.87-1.574-1.255-.089-.063-.173.061-.114.137a13.308,13.308,0,0,0,3.146,2.707,20.157,20.157,0,0,0,1.8,1.065c.218.114.444.214.669.314q3.178,3.025,6.4,6.006c4.8,4.432,9.691,8.778,14.689,12.989,1.38,1.162,2.776,2.3,4.172,3.446,1.43,1.171,2.944,2.237,4.37,3.412C309.7,226.109,309.8,225.992,309.729,225.935Z" fill="#263238"/>
                </g>
              </g>
            </g>
          </g>
          <g id="Group_8733" data-name="Group 8733">
            <g id="Group_8722" data-name="Group 8722">
              <g id="Group_8721" data-name="Group 8721">
                <path id="Path_31365" data-name="Path 31365" d="M240.074,192.423c7.93,1.019,19.974-12.2,24.217-22.328.287-.7-1.445-7.516-3.157-15.9-1.02-5.093-2.035-10.788-2.586-16.052-.107-1.081-32.174,11.476-32.174,11.476s4.4,10.694,5.3,19.877a11.791,11.791,0,0,1,0,2.184c0,.1-.017.223-.01.362C231.428,176.214,232.41,191.432,240.074,192.423Z" fill="#ffa89e"/>
              </g>
              <path id="Path_31366" data-name="Path 31366" d="M235.075,171.862a19.955,19.955,0,0,1-3.4.175c-.006-.14.008-.257.009-.364a11.209,11.209,0,0,0-.005-2.182c-.9-9.175-5.3-19.872-5.3-19.872s26.026-10.194,31.263-11.426C257.256,144.382,254.5,169.393,235.075,171.862Z" fill="#263238"/>
            </g>
            <g id="Group_8732" data-name="Group 8732">
              <g id="Group_8723" data-name="Group 8723">
                <path id="Path_31367" data-name="Path 31367" d="M254.977,97.329c6.649,10.355,9.886,44.768,3.884,54.334-8.7,13.87-27.541,20.269-40.484,8.759-12.547-11.157-15.973-56.078-8.84-65.245C220.042,81.676,245.156,82.033,254.977,97.329Z" fill="#ffa89e"/>
              </g>
              <g id="Group_8729" data-name="Group 8729">
                <g id="Group_8724" data-name="Group 8724">
                  <path id="Path_31368" data-name="Path 31368" d="M233.634,127.384c.009-.09.192.092.2.187.156,2.324.726,4.959,2.9,5.521.067.017.072.134-.007.131C234.13,133.117,233.409,129.61,233.634,127.384Z" fill="#263238"/>
                  <path id="Path_31369" data-name="Path 31369" d="M235.464,124.76c3.7-.652,4.729,6.792,1.3,7.4C233.4,132.751,232.363,125.306,235.464,124.76Z" fill="#263238"/>
                </g>
                <g id="Group_8725" data-name="Group 8725">
                  <path id="Path_31370" data-name="Path 31370" d="M219.447,129.035c-.03-.086-.166.134-.15.228.393,2.295.456,4.991-1.523,6.046-.062.033-.04.148.036.126C220.306,134.724,220.187,131.146,219.447,129.035Z" fill="#263238"/>
                  <path id="Path_31371" data-name="Path 31371" d="M217.053,126.912c-3.747.232-3.007,7.711.465,7.495C220.936,134.2,220.2,126.716,217.053,126.912Z" fill="#263238"/>
                </g>
                <path id="Path_31372" data-name="Path 31372" d="M237.93,120.949a29.577,29.577,0,0,1-3.025-.616,5,5,0,0,1-2.964-1.216,1.591,1.591,0,0,1-.01-1.941c.979-1.144,2.473-1.191,3.879-.948a5.787,5.787,0,0,1,3.647,2.023A1.7,1.7,0,0,1,237.93,120.949Z" fill="#263238"/>
                <path id="Path_31373" data-name="Path 31373" d="M213.655,123.562a28.952,28.952,0,0,0,2.853-1.178,4.981,4.981,0,0,0,2.679-1.756,1.587,1.587,0,0,0-.357-1.907c-1.178-.937-2.653-.7-3.988-.2a5.8,5.8,0,0,0-3.2,2.678A1.7,1.7,0,0,0,213.655,123.562Z" fill="#263238"/>
                <path id="Path_31374" data-name="Path 31374" d="M238.455,147.761c-.478.616-.926,1.436-1.753,1.622a6.131,6.131,0,0,1-2.559-.236.081.081,0,0,0-.083.132,3.132,3.132,0,0,0,3.1.846,2.477,2.477,0,0,0,1.531-2.291C238.708,147.7,238.525,147.671,238.455,147.761Z" fill="#263238"/>
                <g id="Group_8727" data-name="Group 8727">
                  <g id="Group_8726" data-name="Group 8726">
                    <path id="Path_31375" data-name="Path 31375" d="M235.074,141.193a7.922,7.922,0,0,1-4.757,4.219,9.94,9.94,0,0,1-2.806.521,2.814,2.814,0,0,1-.548.013c-.172,0-.326,0-.516-.008a.581.581,0,0,1-.535-.452v-.017a1.057,1.057,0,0,1-.011-.239l0-.017-.024-.2c-.294-1.768-.5-4.492-.5-4.492-.6.415-3.705,2.361-3.782,1.426-.6-7.743-1.279-16.353-.247-24.186a.216.216,0,0,1,.43,0c.877,7.418.442,14.94,1.2,22.406a13.883,13.883,0,0,1,3.551-1.639c.262.038.3,5.272.492,6.056a.289.289,0,0,0,.027.082c3.036-.031,5.159-1.244,7.778-3.649C234.983,140.86,235.187,140.99,235.074,141.193Z" fill="#263238"/>
                  </g>
                </g>
                <g id="Group_8728" data-name="Group 8728">
                  <path id="Path_31376" data-name="Path 31376" d="M228.433,144.888a9.41,9.41,0,0,0,4.131,2.374,4.234,4.234,0,0,0,2.567-.194c1.775-.74,1.587-2.436,1.048-3.835a10.089,10.089,0,0,0-1.132-2.1A12.173,12.173,0,0,1,228.433,144.888Z" fill="#263238"/>
                  <path id="Path_31377" data-name="Path 31377" d="M232.564,147.262a4.234,4.234,0,0,0,2.567-.194c1.775-.74,1.587-2.436,1.048-3.835C234.234,143.709,232.465,145.32,232.564,147.262Z" fill="#ff98b9"/>
                </g>
              </g>
              <g id="Group_8730" data-name="Group 8730">
                <path id="Path_31378" data-name="Path 31378" d="M260.062,123.517c-6.057,1.555-10.15-13.155-10.15-13.155s-9.591,1.283-18.021-9.732c0,0-9.311,11.07-19.667,12.435-16.231,2.139-22.214-17.917-17.781-23.819,6.283-8.364,23.464-4.639,23.464-4.639s19.965-13.15,31.255-.418c0,0,9.914-2.713,14.058,7.872S264.576,122.358,260.062,123.517Z" fill="#263238"/>
                <path id="Path_31379" data-name="Path 31379" d="M252.591,111.388a21.219,21.219,0,0,1-13.467-2.58c-4.171-2.517-7.657-7.321-7.8-12.3-.008-.271-.449-.233-.422.041.538,5.414,2.509,10.525,7.108,13.765a14.784,14.784,0,0,0,14.687,1.522C252.921,111.729,252.868,111.355,252.591,111.388Z" fill="#263238"/>
                <path id="Path_31380" data-name="Path 31380" d="M261.969,85.482c-4.245-2.859-9.051-1.975-13.556-.353-.258.093-.1.508.152.4,4.319-1.954,9.8-.411,13.313,2.51,3.447,2.863,4.384,7.561,4.734,11.832a33.483,33.483,0,0,1-6.622,23.058.106.106,0,0,0,.165.133,33.447,33.447,0,0,0,7.6-25.358C267.192,93.271,265.885,88.12,261.969,85.482Z" fill="#263238"/>
                <path id="Path_31381" data-name="Path 31381" d="M218.74,85.136a15.717,15.717,0,0,0-10.494-3.749,18.832,18.832,0,0,0-12.308,5.381,10.617,10.617,0,0,0-2.54,10.32c1.062,4.241,4.257,7.526,7.648,10.027a.094.094,0,0,0,.116-.148c-2.883-2.471-5.466-5.487-6.434-9.273a9.774,9.774,0,0,1,2.835-10c5.389-4.816,14.743-7.312,20.919-2.234C218.691,85.635,218.951,85.306,218.74,85.136Z" fill="#263238"/>
              </g>
              <g id="Group_8731" data-name="Group 8731">
                <path id="Path_31382" data-name="Path 31382" d="M255.73,127.12s4.672-12.576,10.191-11.179,3.936,18.277-1.183,21.863a5.957,5.957,0,0,1-8.531-1.09Z" fill="#ffa89e"/>
                <path id="Path_31383" data-name="Path 31383" d="M265.347,120.768a.081.081,0,0,1,.07.144c-3.556,2.644-4.69,6.874-5.161,11.077.8-1.779,2.2-3,4.536-2.109.122.047.065.235-.053.24a3.665,3.665,0,0,0-3.581,2.253,17.694,17.694,0,0,0-1.047,3.643c-.094.4-.785.381-.756-.064,0-.032.006-.067.008-.1C257.945,130.81,260.039,122.693,265.347,120.768Z" fill="#263238"/>
              </g>
            </g>
          </g>
          <g id="Group_8735" data-name="Group 8735">
            <g id="Group_8734" data-name="Group 8734">
              <path id="Path_31384" data-name="Path 31384" d="M394.367,319.312c-9.506,33.177-36.714,60.136-42.288,63.671-4.739,3.026-7.211,4.539-7.211,4.539-8.4,5.6-14.182,4.079-14.182,4.079s-7.8,9.325-14.223,5.544c-7.211-4.218,5.159-16.489,7.835-27.4,6.132-24.993,7.858-62.232,8.91-69.616Z" fill="#ffa89e"/>
              <path id="Path_31385" data-name="Path 31385" d="M349.13,348.074c-1.951,7.318-3.676,14.559-6.608,21.576-3.218,7.7-7.6,14.567-11.9,21.671a.2.2,0,0,0,.327.233c9.8-11.63,16.942-28.272,18.818-43.337C349.817,347.853,349.228,347.706,349.13,348.074Z" fill="#263238"/>
              <path id="Path_31386" data-name="Path 31386" d="M364.753,349.582c-2.294,7.017-6.4,19.322-20.084,37.8-.045.06.043.155.1.1a78.7,78.7,0,0,0,20.681-37.637C365.557,349.385,364.906,349.116,364.753,349.582Z" fill="#263238"/>
              <path id="Path_31387" data-name="Path 31387" d="M329.781,339.166c-.491-3.571-2.369-3.337-5.606,2.192-3.289,5.586-11.362,30.163-19.715,26.6-8.389-3.558,3.608-38.149,9.705-46.943,6.078-8.81,19.043-20.884,19.043-20.884C332.228,307.333,331.52,325.019,329.781,339.166Z" fill="#ffa89e"/>
            </g>
            <path id="Path_31388" data-name="Path 31388" d="M410.158,236.114c6.675,20.943-10.925,67.666-15.791,83.2-2.121,6.769-63.938-11.316-61.625-18.538,4.741-14.8,17.011-41.718,14.842-43.718C345.868,255.474,404.09,217.078,410.158,236.114Z" fill="#ffa89e"/>
            <path id="Path_31389" data-name="Path 31389" d="M364.517,244.456c-.815.328-1.639.576-2.432.961-.818.4-1.65.77-2.448,1.207a31.956,31.956,0,0,0-4.358,2.935,41.063,41.063,0,0,0-3.922,3.477c-.635.647-1.258,1.309-1.846,2a12.127,12.127,0,0,0-1.558,2.11.245.245,0,0,0,.006.247c.008.013.033.062.056.072.267.112.415-.1.6-.27.316-.284.626-.572.938-.86.666-.617,1.3-1.266,1.971-1.882,1.337-1.232,2.731-2.418,4.17-3.527s2.919-2.151,4.423-3.17c.751-.509,1.486-1.04,2.254-1.524s1.506-1.015,2.288-1.453C364.834,244.682,364.706,244.38,364.517,244.456Z" fill="#263238"/>
          </g>
          <g id="Group_8743" data-name="Group 8743">
            <path id="Path_31390" data-name="Path 31390" d="M141.025,234.173c-10.041,6.971-40.457,34.263-34.312,49.17s29.576,14.535,62.355,8.605Z" fill="#ffa89e"/>
            <g id="Group_8742" data-name="Group 8742">
              <g id="Group_8741" data-name="Group 8741">
                <path id="Path_31391" data-name="Path 31391" d="M140.115,234.82c13.435-11.185,32.949-24.783,40.932-24.351,8.379.453,37.772,3.226,44.394,6.073s25.664,21.364,27.612,27.507c1.559,4.92-8.1,9.557-20.366,1.668-11.465-7.376-13.844-9.7-17.585-10.991-3.818-1.312-18.48,1.547-20.261,7.108-1.049,3.277,3.2,12.123,9.11,14.044s11.989-1.641,20.329-1.19,16.335,8.612,14.747,11.332-5.342,1.246-16.708,5.05c-7.31,2.446-15.976,6.846-28.368,14.13-12.673,7.449-31,7.318-31,7.318Z" fill="#ffa89e"/>
                <g id="Group_8737" data-name="Group 8737">
                  <path id="Path_31392" data-name="Path 31392" d="M233.2,247.118c20.012,6.264,10.767,35.914-9.278,29.639C203.911,270.493,213.156,240.843,233.2,247.118Z" fill="#ffc727"/>
                  <path id="Path_31393" data-name="Path 31393" d="M233.2,247.118c20.012,6.264,10.767,35.914-9.278,29.639C203.911,270.493,213.156,240.843,233.2,247.118Z" opacity="0.1"/>
                  <path id="Path_31394" data-name="Path 31394" d="M231.321,246.53c19.071,5.97,9.825,35.619-9.279,29.639C202.972,270.2,212.218,240.55,231.321,246.53Z" fill="#ffc727"/>
                  <path id="Path_31395" data-name="Path 31395" d="M214.215,260.5c-.579,5.418,1.9,11.052,8.618,13.153,15.852,4.963,23.529-19.645,7.7-24.6-.1-.032-.207-.065-.312-.091,14.8,4.962,7.436,28.235-7.679,23.5A11.35,11.35,0,0,1,214.215,260.5Z" opacity="0.1"/>
                </g>
                <g id="Group_8738" data-name="Group 8738">
                  <path id="Path_31397" data-name="Path 31397" d="M181.047,210.469c9.886-2.683,30.794-4.715,44.712.722,9.407,3.675,22.757,37.209,17.88,41.158s-8.986.233-14.4-6.016c-1.972-2.277-9.84-17.124-14.066-16.486-6.075.917-20.686,9.651-20.686,9.651Z" fill="#ffa89e"/>
                  <path id="Path_31398" data-name="Path 31398" d="M244.676,250.017c1.508-7.609-2.623-16.162-7.22-24.135-.072-.124-.269-.021-.2.1,1.17,2.033,7.307,16.514,7.276,24.046C244.534,250.115,244.661,250.094,244.676,250.017Z" fill="#263238"/>
                </g>
                <g id="Group_8739" data-name="Group 8739">
                  <path id="Path_31399" data-name="Path 31399" d="M181.047,210.469c9.886-2.683,30.794-4.715,44.712.722,9.407,3.675,14.771,35.914,9.894,39.862s-11.1-1.05-15.542-9.241c-1.436-2.647-3.966-14.035-8.192-13.4-6.075.917-21.029,3.309-21.029,3.309Z" fill="#ffa89e"/>
                  <path id="Path_31400" data-name="Path 31400" d="M199.852,229.97c1.572-.413,2.118-.563,3.7-.948s3.155-.742,4.751-1.01a12.323,12.323,0,0,1,4.216-.309,6.241,6.241,0,0,1,3.394,2.055c2.067,2.265,2.8,5.554,3.713,8.4,1.02,3.171,3.642,9.2,7.363,11.931a9.034,9.034,0,0,0,3.342,1.714,5.679,5.679,0,0,0,2.772.182c3.746-1.159,4.5-5.685,4.461-9.417-.078-6.953-2.306-13.975-4.837-20.383-.622-1.573-1.283-3.131-1.944-4.688a13.693,13.693,0,0,0-3.046-4.927c-2.343-2.166-8.39-3.289-10.251-3.658-.141-.028-.073-.237.065-.212,2.274.416,8.546.747,12.176,4.406,1.329,1.339,1.979,3.24,2.748,4.941.8,1.78,1.553,3.59,2.257,5.412a72.467,72.467,0,0,1,3.346,10.9c.755,3.517,1.418,7.423.828,11.012-.512,3.11-2.667,6.238-5.77,7.166-2.616.783-5.216-.822-6.353-1.618a15.13,15.13,0,0,1-2.978-2.764,64.364,64.364,0,0,1-4.786-7.848c-1.315-2.7-1.907-5.785-3.449-8.364a5.376,5.376,0,0,0-3.261-2.6,14.293,14.293,0,0,0-4.212,0A43.778,43.778,0,0,0,200.1,230.4C199.38,230.57,199.2,230.142,199.852,229.97Z" fill="#263238"/>
                </g>
                <g id="Group_8740" data-name="Group 8740">
                  <path id="Path_31401" data-name="Path 31401" d="M173.439,212.4c2.638-1.564,17.705-11.021,23.621-12.661s29.06-4.87,33.693.4c5.821,6.624-11.564,12.151-19.339,13.87s-14.643,10.413-14.643,10.413Z" fill="#ffa89e"/>
                  <path id="Path_31402" data-name="Path 31402" d="M223.406,210.347c-2.592.425-5.2,1.139-7.734,1.82a51.264,51.264,0,0,0-7.239,2.129,22.7,22.7,0,0,0-6.124,4.185c-.907.825-1.753,1.7-2.584,2.6-.9.982-1.723,2.058-2.644,3.022-.1.1.049.266.151.164a56.841,56.841,0,0,1,5.6-4.733,30.977,30.977,0,0,1,6.5-3.87c4.6-2.015,9.579-3.023,14.2-4.994C223.709,210.588,223.59,210.317,223.406,210.347Z" fill="#263238"/>
                </g>
                <path id="Path_31403" data-name="Path 31403" d="M234.456,251.455c1.783,1.011,3.8,2.027,5.9,1.918a4.328,4.328,0,0,0,3.512-1.881,2.162,2.162,0,0,0,.52-1.4c-.027-.137.192-.125.158,0a6.856,6.856,0,0,0-.08.86,3.222,3.222,0,0,1-.2.7,3.692,3.692,0,0,1-.772,1.205,4.657,4.657,0,0,1-2.773,1.368c-2.484.338-4.663-.963-6.375-2.642A.086.086,0,0,1,234.456,251.455Z" fill="#263238"/>
              </g>
              <path id="Path_31404" data-name="Path 31404" d="M194.355,227.528a89.2,89.2,0,0,0-5.89,9.8,39.517,39.517,0,0,0-3.528,10.71c-.63,4.036-.293,8.022-.208,12.079a35.519,35.519,0,0,1-.226,5.769,21.8,21.8,0,0,1-7.954,14c-.112.1.04.279.161.2a23.2,23.2,0,0,0,9.9-17c.365-4.139-.334-8.289-.009-12.434a44.275,44.275,0,0,1,2.486-11.066,69.872,69.872,0,0,1,5.409-11.983C194.543,227.515,194.409,227.444,194.355,227.528Z" fill="#263238"/>
            </g>
            <path id="Path_31405" data-name="Path 31405" d="M157.829,221.282A180.6,180.6,0,0,0,135.7,237.188a120.86,120.86,0,0,0-19.026,19.463,82.5,82.5,0,0,0-8.059,12.988.079.079,0,0,0,.138.076,101.572,101.572,0,0,1,7.717-11.153,120.72,120.72,0,0,1,8.912-10.072,183.11,183.11,0,0,1,20.685-17.755c4.118-3.094,7.9-6.056,12.009-9.162C158.473,221.275,158.27,221.014,157.829,221.282Z" fill="#263238"/>
          </g>
        </g>
        <path id="Path_31406" data-name="Path 31406" d="M273.375,412.472c-.07.41-.15.82-.23,1.24.07-.41.15-.83.22-1.24Z" fill="#ebebeb"/>
      </g>
    </g>
    <g id="Plant">
      <g id="Group_8757" data-name="Group 8757">
        <g id="Group_8754" data-name="Group 8754">
          <g id="Group_8747" data-name="Group 8747">
            <path id="Path_31407" data-name="Path 31407" d="M114.74,301.916c-13.507,18.293-27.59,39.522-31.02,62.462-.041.347.515.46.6.116a136.526,136.526,0,0,1,5.974-18.368c8.88-2.443,17.6-4.451,22.259-13.264,4.756-9.061,4.151-20.874,3.247-30.743C115.732,301.59,115.015,301.564,114.74,301.916Z" fill="#00ad9f"/>
            <g id="Group_8746" data-name="Group 8746">
              <path id="Path_31408" data-name="Path 31408" d="M90.422,345.954c6.068-13.616,13.858-27.288,23.759-38.484.066-.075.17.033.109.109-6.482,7.974-11.408,16.659-16.219,25.495,4.473-4.54,9.373-8.607,13.61-13.422.082-.094.214.042.136.136-4.207,5.048-8.8,10.533-14.28,14.269q-2.208,4.066-4.456,8.15c.368-.2.748-.389,1.126-.576.066-.033.125.066.058.1-.418.211-.831.434-1.262.617-.712,1.287-1.417,2.575-2.148,3.859C90.692,346.493,90.294,346.242,90.422,345.954Z" fill="#263238"/>
              <path id="Path_31409" data-name="Path 31409" d="M94.936,341.2a79.911,79.911,0,0,0,10.369-6.921c.088-.072.216.051.126.126a54.781,54.781,0,0,1-10.346,7.05C94.917,341.545,94.771,341.3,94.936,341.2Z" fill="#263238"/>
            </g>
          </g>
          <g id="Group_8749" data-name="Group 8749">
            <path id="Path_31410" data-name="Path 31410" d="M82.157,360.968c.028.278.5.273.494-.023.071-7.554.007-15.144.121-22.732,1.935-3.906,6.089-6.067,8.977-9.2a40.231,40.231,0,0,0,5.388-7.5,53.9,53.9,0,0,0,6.251-20.84c.8-8.081-2.269-34.745-5.675-33.819-1.767.48-7.483,13.687-9,18.053a125.829,125.829,0,0,0-5.377,22.137C80.576,324.823,80.806,343.078,82.157,360.968Z" fill="#00ad9f"/>
            <g id="Group_8748" data-name="Group 8748">
              <path id="Path_31411" data-name="Path 31411" d="M82.1,328.379l.035-.029c.413-9.559,2.567-19.212,4.583-28.483,2.171-9.987,4.71-19.391,9.849-28.3a.148.148,0,0,1,.255.149,105.1,105.1,0,0,0-7.912,21.723c.344-.539.762-1.05,1.12-1.558.141-.2.472-.014.333.194a14.09,14.09,0,0,1-1.606,2.268.126.126,0,0,1-.067.03c-1.769,7.139-3.039,14.441-4.126,21.725.082-.093.16-.192.242-.281.055-.06.149.016.111.085-.134.242-.285.482-.433.722-.548,3.7-1.055,7.388-1.566,11.045,6.583-5.627,12.205-12.259,15.376-20.43.015-.038.076-.022.062.017-3.107,8.476-8,16.011-15.542,21.153q-.207,1.479-.416,2.952c-.029.2-.353.15-.353-.048,0-.87.045-1.744.079-2.616A.2.2,0,0,1,82.1,328.379Z" fill="#263238"/>
              <path id="Path_31412" data-name="Path 31412" d="M85.2,314.529c5.031-7.507,9.73-14.8,13.411-23.1.041-.092.2-.026.164.069-3.1,8.246-7.446,16.6-13.323,23.224A.161.161,0,0,1,85.2,314.529Z" fill="#263238"/>
              <path id="Path_31413" data-name="Path 31413" d="M91.89,289.576c2.084-3.687,4.281-7.275,6.243-11.035.054-.1.2-.012.155.091a57.429,57.429,0,0,1-6.077,11.132A.186.186,0,0,1,91.89,289.576Z" fill="#263238"/>
              <path id="Path_31414" data-name="Path 31414" d="M91.076,291.18a.033.033,0,0,1,0,.065A.033.033,0,0,1,91.076,291.18Z" fill="#263238"/>
            </g>
          </g>
          <g id="Group_8751" data-name="Group 8751">
            <path id="Path_31415" data-name="Path 31415" d="M77.045,339.121A76.971,76.971,0,0,1,75.28,354c.077.538.155,1.075.233,1.629a70.946,70.946,0,0,0,2.663-16.59.508.508,0,0,0,.023-.513v-.016a109.926,109.926,0,0,0-1.668-22.478c-2.339-13.884-7.45-27.208-17.133-37.613a.69.69,0,0,0-1.069.22c-3.907,9.935-2.544,21.789.784,31.7A58,58,0,0,0,66.79,325.4C70.112,330.069,74.346,334.02,77.045,339.121Z" fill="#00ad9f"/>
            <g id="Group_8750" data-name="Group 8750">
              <path id="Path_31416" data-name="Path 31416" d="M60.543,283.072c9.176,14.893,15.561,32.55,16.341,50.143.014.311-.511.394-.554.075-.218-1.581-.459-3.148-.712-4.708-.006,0-.011,0-.016-.006-3.8-3.636-7.694-7.472-10.412-12.016-.048-.079.067-.173.131-.1,3.3,3.775,6.384,7.642,10.113,11.008q-.985-5.835-2.357-11.489c-.246-.282-.485-.57-.726-.853-.159-.187.106-.459.272-.273.073.082.147.163.221.244a132.8,132.8,0,0,0-4.8-15.232c-2.336-2.787-4.948-5.2-6.65-8.551a.071.071,0,0,1,.122-.071c1.368,1.919,2.692,3.85,4.244,5.632.619.709,1.3,1.373,1.939,2.065a117.532,117.532,0,0,0-7.513-15.659A.206.206,0,0,1,60.543,283.072Z" fill="#263238"/>
              <path id="Path_31417" data-name="Path 31417" d="M62.4,301.443c2.967,3.992,6.347,7.8,9.1,11.926.079.119-.094.24-.192.148-3.543-3.324-6.541-7.862-9.111-11.957C62.117,301.431,62.311,301.327,62.4,301.443Z" fill="#263238"/>
              <path id="Path_31418" data-name="Path 31418" d="M71.916,314.294l.127.126c.087.088-.049.224-.136.136l-.127-.126A.1.1,0,0,1,71.916,314.294Z" fill="#263238"/>
            </g>
          </g>
          <g id="Group_8753" data-name="Group 8753">
            <path id="Path_31419" data-name="Path 31419" d="M46.165,311.7c.738,7.662,4.769,16.814,9.683,22.718a24.129,24.129,0,0,0,7.853,6.128c3.4,1.682,6.962,3.62,10.48,5a68.775,68.775,0,0,1,3.71,13.181c.114-.384.227-.784.34-1.168-2.258-19.4-14.811-35.98-30.868-46.624A.78.78,0,0,0,46.165,311.7Z" fill="#00ad9f"/>
            <g id="Group_8752" data-name="Group 8752">
              <path id="Path_31420" data-name="Path 31420" d="M51.713,317.433c-.113-.1.04-.3.164-.212a65.692,65.692,0,0,1,20.459,25.216c.117.265-.247.5-.4.233-.747-1.308-1.508-2.58-2.282-3.83,0,0-.006,0-.011,0-3.665-.69-7.136-3.269-9.856-5.718-.074-.066.035-.174.109-.109a22.5,22.5,0,0,0,4.637,3.258c1.494.758,3.1,1.237,4.657,1.844-1.358-2.156-2.774-4.223-4.252-6.228A42.76,42.76,0,0,1,53.926,325.7c-.1-.076-.012-.247.1-.178a109.71,109.71,0,0,0,10.238,5.473,91.869,91.869,0,0,0-7.228-8.427c-1.246-.658-2.509-1.319-3.716-2.022a.1.1,0,0,1,.079-.188,13.329,13.329,0,0,1,2.851,1.4C54.8,320.291,53.312,318.844,51.713,317.433Z" fill="#263238"/>
              <path id="Path_31421" data-name="Path 31421" d="M52.055,324.131a4.665,4.665,0,0,1,.617.441c.06.052-.016.128-.077.1a4.5,4.5,0,0,1-.644-.365C51.84,324.238,51.943,324.06,52.055,324.131Z" fill="#263238"/>
            </g>
          </g>
        </g>
        <g id="Group_8756" data-name="Group 8756">
          <g id="Group_8755" data-name="Group 8755">
            <path id="Path_31422" data-name="Path 31422" d="M103.29,400.739h-44l3.552-40.069.78-8.837H98.958l.78,8.837Z" fill="#455a64"/>
            <path id="Path_31423" data-name="Path 31423" d="M99.738,360.671h-36.9l.78-8.837H98.958Z" fill="#263238"/>
          </g>
          <rect id="Rectangle_2410" data-name="Rectangle 2410" width="39.546" height="8.745" transform="translate(61.518 345.656)" fill="#455a64"/>
        </g>
      </g>
    </g>
    <g id="Piggy_Bank" data-name="Piggy Bank">
      <g id="Group_8765" data-name="Group 8765">
        <g id="Group_8758" data-name="Group 8758">
          <path id="Path_31424" data-name="Path 31424" d="M167.479,324.156c.329-1.693.531-3.218.7-4.841a47.212,47.212,0,0,0,.245-4.871,27.754,27.754,0,0,0-.445-5.065,12.1,12.1,0,0,0-2.258-5.334,6.9,6.9,0,0,0-4.412-2.545,8.248,8.248,0,0,0-1.6-.071,9.629,9.629,0,0,0-5.391,2.168,15.006,15.006,0,0,0-3.448,3.948,13.659,13.659,0,0,0-1.893,4.881,5.944,5.944,0,0,0,.245,3.106,3.426,3.426,0,0,0,1.245,1.577,3.6,3.6,0,0,0,1.811.6,3.346,3.346,0,0,0,1.9-.459,3.954,3.954,0,0,0,1.23-1.216,7.1,7.1,0,0,0,.963-2.6,14.308,14.308,0,0,0-.045-4.94,11.78,11.78,0,0,0-1.747-4.59,5.555,5.555,0,0,0-1.9-1.778,4.05,4.05,0,0,0-2.6-.433,7.911,7.911,0,0,0-4.135,2.428,26.131,26.131,0,0,0-4.878,7.762,25.806,25.806,0,0,1,5.381-7.226,6.817,6.817,0,0,1,3.76-1.85,3.212,3.212,0,0,1,3.049,1.929,10.075,10.075,0,0,1,1.085,4.017,12.141,12.141,0,0,1-.35,4.139,4.59,4.59,0,0,1-.755,1.6,1.184,1.184,0,0,1-.417.338.516.516,0,0,1-.3,0c-.139-.034-.3-.106-.316-.155a.568.568,0,0,1-.089-.23,3.172,3.172,0,0,1,.1-1.4,11.416,11.416,0,0,1,4.537-6.084,5.231,5.231,0,0,1,3.041-.948,3.522,3.522,0,0,1,.675.105,2.106,2.106,0,0,1,.522.208,2.178,2.178,0,0,1,.76.745,7.416,7.416,0,0,1,.909,3.131,22.333,22.333,0,0,1,0,4.04,41.3,41.3,0,0,1-.574,4.218c-.258,1.39-.59,2.864-.952,4.136Z" fill="#00ad9f"/>
          <path id="Path_31425" data-name="Path 31425" d="M167.479,324.156c.329-1.693.531-3.218.7-4.841a47.212,47.212,0,0,0,.245-4.871,27.754,27.754,0,0,0-.445-5.065,12.1,12.1,0,0,0-2.258-5.334,6.9,6.9,0,0,0-4.412-2.545,8.248,8.248,0,0,0-1.6-.071,9.629,9.629,0,0,0-5.391,2.168,15.006,15.006,0,0,0-3.448,3.948,13.659,13.659,0,0,0-1.893,4.881,5.944,5.944,0,0,0,.245,3.106,3.426,3.426,0,0,0,1.245,1.577,3.6,3.6,0,0,0,1.811.6,3.346,3.346,0,0,0,1.9-.459,3.954,3.954,0,0,0,1.23-1.216,7.1,7.1,0,0,0,.963-2.6,14.308,14.308,0,0,0-.045-4.94,11.78,11.78,0,0,0-1.747-4.59,5.555,5.555,0,0,0-1.9-1.778,4.05,4.05,0,0,0-2.6-.433,7.911,7.911,0,0,0-4.135,2.428,26.131,26.131,0,0,0-4.878,7.762,25.806,25.806,0,0,1,5.381-7.226,6.817,6.817,0,0,1,3.76-1.85,3.212,3.212,0,0,1,3.049,1.929,10.075,10.075,0,0,1,1.085,4.017,12.141,12.141,0,0,1-.35,4.139,4.59,4.59,0,0,1-.755,1.6,1.184,1.184,0,0,1-.417.338.516.516,0,0,1-.3,0c-.139-.034-.3-.106-.316-.155a.568.568,0,0,1-.089-.23,3.172,3.172,0,0,1,.1-1.4,11.416,11.416,0,0,1,4.537-6.084,5.231,5.231,0,0,1,3.041-.948,3.522,3.522,0,0,1,.675.105,2.106,2.106,0,0,1,.522.208,2.178,2.178,0,0,1,.76.745,7.416,7.416,0,0,1,.909,3.131,22.333,22.333,0,0,1,0,4.04,41.3,41.3,0,0,1-.574,4.218c-.258,1.39-.59,2.864-.952,4.136Z" opacity="0.1"/>
        </g>
        <g id="Group_8759" data-name="Group 8759">
          <path id="Path_31426" data-name="Path 31426" d="M172.549,398.462c4.411,6.232,3.514,25.257,6.18,27.923s30.036,2.385,31.879.818.972-8.292,3.041-9.4C214.457,417.373,172.549,398.462,172.549,398.462Z" fill="#00ad9f"/>
          <path id="Path_31427" data-name="Path 31427" d="M172.549,398.462c4.411,6.232,3.514,25.257,6.18,27.923s30.036,2.385,31.879.818.972-8.292,3.041-9.4C214.457,417.373,172.549,398.462,172.549,398.462Z" opacity="0.1"/>
          <path id="Path_31428" data-name="Path 31428" d="M289.391,398.767c-5.508,7.954-2.532,24.952-5.2,27.618s-30.036,2.385-31.878.818-1-8.654-2.09-10C249.648,416.488,289.391,398.767,289.391,398.767Z" fill="#00ad9f"/>
          <path id="Path_31429" data-name="Path 31429" d="M289.391,398.767c-5.508,7.954-2.532,24.952-5.2,27.618s-30.036,2.385-31.878.818-1-8.654-2.09-10C249.648,416.488,289.391,398.767,289.391,398.767Z" opacity="0.1"/>
          <path id="Path_31430" data-name="Path 31430" d="M213.646,417.808a3,3,0,0,0-1.172,2.028,130.065,130.065,0,0,1-36.648-9.858c-.631-4.638-1.546-9.06-3.275-11.512C172.551,398.466,214.46,417.376,213.646,417.808Z" opacity="0.3"/>
          <path id="Path_31431" data-name="Path 31431" d="M289.392,398.765c-2.053,2.968-2.934,7.2-3.358,11.462a124.406,124.406,0,0,1-35.2,9.734,6.132,6.132,0,0,0-.606-2.76C249.645,416.486,289.392,398.765,289.392,398.765Z" opacity="0.3"/>
        </g>
        <g id="Group_8760" data-name="Group 8760">
          <path id="Path_31432" data-name="Path 31432" d="M229.137,283.444c-55.047,0-76.114,43.091-76.114,68.3,0,24.879,16,67.162,76.114,67.162s80.056-35.819,80.056-67.733S284.747,283.444,229.137,283.444Z" fill="#00ad9f"/>
        </g>
        <g id="Group_8761" data-name="Group 8761">
          <path id="Path_31434" data-name="Path 31434" d="M244.67,286.557s25.137-19.281,52.367-16.983c9.377.791-6.192,21.1-6.475,36.973Z" fill="#00ad9f"/>
          <path id="Path_31435" data-name="Path 31435" d="M244.67,286.557s25.137-19.281,52.367-16.983c9.377.791-6.192,21.1-6.475,36.973Z" opacity="0.1"/>
          <path id="Path_31436" data-name="Path 31436" d="M280.061,298.781c-.157,1,8.518,4.722,9.415,4.15s1.8-13.072,8.883-26.389C299.4,274.581,281.739,288.041,280.061,298.781Z" opacity="0.3"/>
        </g>
        <g id="Group_8762" data-name="Group 8762">
          <path id="Path_31437" data-name="Path 31437" d="M285.516,348.3a4.469,4.469,0,0,0,3.61-3.15,6.662,6.662,0,0,1-2.93,4.99c-.12.08-.06.31.1.26,4.81-1.81,4.29-8.6,2.6-12.93-.09-.24-.18-.48-.29-.71-1.08-2.51-2.96-4.33-5.32-3.99C275.516,333.89,278.316,349.34,285.516,348.3Z" opacity="0.3"/>
        </g>
        <g id="Group_8763" data-name="Group 8763">
          <path id="Path_31438" data-name="Path 31438" d="M304.038,326.3c1.2,3.614,12.118.683,14.872,2.967,4.33,3.594,3.132,48.187-.83,51.781-2.222,2.015-14.6-.109-18.08,2.341S304.038,326.3,304.038,326.3Z" fill="#00ad9f"/>
          <path id="Path_31439" data-name="Path 31439" d="M304.038,326.3c1.2,3.614,12.118.683,14.872,2.967,4.33,3.594,3.132,48.187-.83,51.781-2.222,2.015-14.6-.109-18.08,2.341S304.038,326.3,304.038,326.3Z" opacity="0.1"/>
          <path id="Path_31440" data-name="Path 31440" d="M319.489,354.069c0,10.862-.907,19.668-2.027,19.668s-2.026-8.806-2.026-19.668.907-19.667,2.026-19.667S319.489,343.208,319.489,354.069Z" opacity="0.3"/>
        </g>
        <path id="Path_31441" data-name="Path 31441" d="M207.8,297.733c.184-.061,18.739-6.1,36.01-1.374l1.721-6.293c-19.219-5.256-38.963,1.2-39.795,1.478l2.066,6.188-1.033-3.094Z" opacity="0.3"/>
        <g id="Group_8764" data-name="Group 8764">
          <path id="Path_31442" data-name="Path 31442" d="M182.034,392.414c-24.8-28.489-9.624-61.575-8.933-62.993a4.078,4.078,0,0,0-7.322-3.593,68.767,68.767,0,0,0-5.847,23.755c-1.2,18.118,4.8,34.76,18.983,46.085C183.192,399.084,185.22,396.075,182.034,392.414Z" fill="#fff"/>
          <path id="Path_31443" data-name="Path 31443" d="M171.243,316.775a4.433,4.433,0,1,0,4.433-4.433A4.433,4.433,0,0,0,171.243,316.775Z" fill="#fff"/>
        </g>
      </g>
    </g>
  </g>
</svg>
