<svg width="375" height="375" viewBox="0 0 375 375" fill="none" xmlns="http://www.w3.org/2000/svg">
<path opacity="0.54" d="M223.307 318.731C277.705 318.731 321.803 295.561 321.803 266.979C321.803 238.397 277.705 215.227 223.307 215.227C168.909 215.227 124.811 238.397 124.811 266.979C124.811 295.561 168.909 318.731 223.307 318.731Z" fill="#1A262C"/>
<path d="M104.335 241.864C104.303 252.613 111.402 263.375 125.6 271.574C153.829 287.876 199.447 287.87 227.487 271.574C241.421 263.479 248.397 252.885 248.429 242.272C248.41 247.662 248.397 253.06 248.384 258.45C248.352 269.064 241.375 279.657 227.449 287.753C199.408 304.048 153.79 304.048 125.562 287.753C111.357 279.554 104.264 268.785 104.296 258.036C104.309 252.645 104.329 247.248 104.342 241.857L104.335 241.864Z" fill="#D29830" stroke="black" stroke-width="1.7473" stroke-miterlimit="10"/>
<path d="M125.27 212.561C153.318 196.266 198.935 196.266 227.157 212.561C255.386 228.856 255.535 255.279 227.487 271.575C199.447 287.87 153.829 287.876 125.6 271.575C97.3783 255.279 97.2295 228.856 125.27 212.561Z" fill="white" stroke="black" stroke-width="1.7473" stroke-miterlimit="10"/>
<path opacity="0.5" d="M135.114 218.244C157.757 205.088 194.586 205.088 217.379 218.244C240.178 231.401 240.295 252.737 217.651 265.894C195.007 279.05 158.171 279.05 135.379 265.894C112.586 252.737 112.47 231.401 135.114 218.244Z" fill="#FFB710"/>
<path d="M217.379 220.852C194.586 207.696 157.757 207.696 135.114 220.852C124.416 227.071 118.799 235.115 118.255 243.257C117.66 234.242 123.271 225.124 135.114 218.244C157.757 205.088 194.586 205.088 217.379 218.244C229.403 225.188 235.117 234.404 234.509 243.496C233.965 235.271 228.258 227.13 217.379 220.852Z" fill="#FFB710"/>
<path d="M118.165 220.067C118.132 230.816 125.232 241.578 139.43 249.778C167.659 266.079 213.27 266.073 241.317 249.778C255.25 241.682 262.226 231.088 262.259 220.475C262.239 225.865 262.226 231.263 262.213 236.653C262.181 247.267 255.211 257.86 241.278 265.956C213.237 282.251 167.62 282.251 139.391 265.956C125.186 257.757 118.094 246.988 118.126 236.239C118.139 230.849 118.158 225.451 118.171 220.061L118.165 220.067Z" fill="#D29830" stroke="black" stroke-width="1.7473" stroke-miterlimit="10"/>
<path d="M139.1 190.764C167.147 174.469 212.765 174.469 240.987 190.764C269.216 207.066 269.364 233.483 241.317 249.784C213.27 266.079 167.659 266.086 139.43 249.784C111.201 233.489 111.053 207.066 139.1 190.771V190.764Z" fill="white" stroke="black" stroke-width="1.7473" stroke-miterlimit="10"/>
<path opacity="0.5" d="M148.943 196.447C171.587 183.291 208.416 183.291 231.209 196.447C254.008 209.604 254.124 230.94 231.48 244.097C208.837 257.254 172.001 257.254 149.215 244.097C126.422 230.94 126.299 209.604 148.95 196.447H148.943Z" fill="#FFB710" stroke="#1A1A1A" stroke-width="2.20677" stroke-miterlimit="10"/>
<path d="M231.209 199.055C208.416 185.892 171.587 185.892 148.943 199.055C138.246 205.275 132.628 213.319 132.085 221.46C131.49 212.445 137.1 203.327 148.943 196.447C171.587 183.291 208.416 183.291 231.209 196.447C243.233 203.391 248.947 212.607 248.339 221.699C247.795 213.474 242.087 205.333 231.209 199.055Z" fill="#FFB710"/>
<path d="M109.176 200.079C109.143 210.828 116.243 221.59 130.441 229.789C158.67 246.091 204.281 246.085 232.328 229.789C246.261 221.693 253.237 211.1 253.27 200.486C253.25 205.877 253.237 211.274 253.225 216.665C253.192 227.278 246.222 237.872 232.289 245.968C204.248 262.263 158.631 262.263 130.402 245.968C116.197 237.769 109.105 227 109.137 216.251C109.15 210.86 109.169 205.463 109.182 200.072L109.176 200.079Z" fill="#D29830" stroke="black" stroke-width="1.7473" stroke-miterlimit="10"/>
<path d="M130.111 170.776C158.158 154.481 203.776 154.481 231.998 170.776C260.227 187.078 260.376 213.494 232.328 229.796C204.281 246.091 158.67 246.098 130.441 229.796C102.213 213.501 102.064 187.078 130.111 170.783V170.776Z" fill="white" stroke="black" stroke-width="1.7473" stroke-miterlimit="10"/>
<path opacity="0.5" d="M139.954 176.457C162.598 163.301 199.427 163.301 222.22 176.457C245.019 189.614 245.135 210.95 222.491 224.107C199.848 237.263 163.012 237.263 140.226 224.107C117.433 210.95 117.31 189.614 139.961 176.457H139.954Z" fill="#FFB710" stroke="#1A1A1A" stroke-width="2.20677" stroke-miterlimit="10"/>
<path d="M222.22 179.065C199.427 165.902 162.598 165.902 139.954 179.065C129.257 185.284 123.64 193.328 123.096 201.47C122.501 192.455 128.111 183.336 139.954 176.457C162.598 163.301 199.427 163.301 222.22 176.457C234.244 183.401 239.958 192.617 239.35 201.709C238.806 193.484 233.098 185.343 222.22 179.065Z" fill="#FFB710"/>
<g style="mix-blend-mode:multiply" opacity="0.58">
<path d="M214.868 227.22C211.484 224.159 212.357 220.885 216.829 219.901C221.301 218.917 239.104 223.124 236.8 226.683C235.739 228.327 233.564 230.003 229.092 230.98C224.621 231.964 218.253 230.281 214.868 227.22Z" fill="#231F20"/>
<path d="M213.522 226.677C210.137 223.616 211.011 220.341 215.483 219.358C219.955 218.374 237.318 222.458 235.266 226.043C234.315 227.712 232.212 229.46 227.746 230.443C223.275 231.427 216.907 229.744 213.522 226.683V226.677Z" fill="#231F20"/>
<path d="M212.176 226.134C208.791 223.073 209.665 219.798 214.137 218.814C218.609 217.831 235.532 221.798 233.739 225.402C232.891 227.104 230.872 228.916 226.4 229.9C221.928 230.884 215.561 229.201 212.176 226.14V226.134Z" fill="#231F20"/>
<path d="M210.83 225.596C207.445 222.535 208.319 219.26 212.791 218.277C217.263 217.293 233.745 221.156 232.205 224.768C231.467 226.502 229.526 228.379 225.054 229.362C220.582 230.346 214.214 228.663 210.83 225.602V225.596Z" fill="#231F20"/>
<path d="M209.477 225.052C206.093 221.991 206.966 218.717 211.438 217.733C215.91 216.749 231.953 220.516 230.665 224.127C230.031 225.906 228.167 227.835 223.702 228.819C219.23 229.802 212.862 228.12 209.477 225.059V225.052Z" fill="#231F20"/>
<path d="M208.125 224.508C204.74 221.447 205.614 218.173 210.086 217.189C214.557 216.205 230.167 219.881 229.131 223.486C228.607 225.311 226.821 227.291 222.349 228.275C217.877 229.258 211.509 227.576 208.125 224.515V224.508Z" fill="#231F20"/>
<path d="M206.772 223.966C203.388 220.905 204.261 217.63 208.733 216.647C213.205 215.663 228.394 219.268 227.591 222.846C227.17 224.73 225.468 226.749 220.997 227.732C216.525 228.716 210.157 227.033 206.772 223.972V223.966Z" fill="#231F20"/>
<path d="M205.413 223.428C202.029 220.367 202.902 217.092 207.374 216.108C211.846 215.125 226.614 218.658 226.051 222.211C225.74 224.146 224.109 226.21 219.644 227.194C215.172 228.178 208.804 226.495 205.42 223.434L205.413 223.428Z" fill="#231F20"/>
<path d="M204.054 222.885C200.67 219.824 201.543 216.55 206.015 215.566C210.487 214.582 224.847 218.051 224.504 221.571C224.31 223.571 222.75 225.668 218.279 226.652C213.807 227.635 207.439 225.953 204.054 222.892V222.885Z" fill="#231F20"/>
<path d="M202.689 222.34C199.304 219.279 200.178 216.005 204.65 215.021C209.121 214.037 223.087 217.454 222.951 220.923C222.873 222.988 221.385 225.117 216.913 226.1C212.441 227.084 206.073 225.401 202.689 222.34Z" fill="#231F20"/>
<path d="M201.323 221.798C197.939 218.737 198.812 215.462 203.284 214.479C207.756 213.495 221.333 216.854 221.404 220.284C221.443 222.413 220.019 224.574 215.554 225.558C211.082 226.541 204.714 224.859 201.33 221.798H201.323Z" fill="#231F20"/>
<path d="M199.958 221.253C196.573 218.192 197.447 214.918 201.919 213.934C206.39 212.95 219.592 216.257 219.851 219.642C220.019 221.842 218.654 224.029 214.182 225.013C209.71 225.997 203.342 224.314 199.958 221.253Z" fill="#231F20"/>
<path d="M198.579 220.71C195.195 217.649 196.068 214.375 200.54 213.391C205.012 212.408 217.845 215.663 218.285 219.002C218.583 221.267 217.269 223.487 212.804 224.47C208.332 225.454 201.964 223.771 198.579 220.71Z" fill="#231F20"/>
<path d="M197.194 220.174C193.81 217.113 194.684 213.838 199.155 212.854C203.627 211.871 216.104 215.074 216.719 218.368C217.153 220.704 215.891 222.95 211.425 223.934C206.953 224.917 200.586 223.235 197.201 220.174H197.194Z" fill="#231F20"/>
<path d="M195.803 219.629C192.419 216.568 193.292 213.294 197.764 212.31C202.236 211.326 214.357 214.478 215.14 217.727C215.716 220.127 214.499 222.405 210.027 223.389C205.556 224.373 199.188 222.69 195.803 219.629Z" fill="#231F20"/>
<path d="M194.405 219.087C191.021 216.026 191.894 212.751 196.366 211.768C200.838 210.784 212.61 213.877 213.554 217.087C214.279 219.553 213.095 221.863 208.63 222.847C204.158 223.831 197.79 222.148 194.405 219.087Z" fill="#231F20"/>
<path d="M193.001 218.541C189.616 215.48 190.49 212.206 194.962 211.222C199.434 210.238 210.862 213.267 211.969 216.444C212.849 218.975 211.697 221.324 207.225 222.301C202.754 223.285 196.386 221.602 193.001 218.541Z" fill="#231F20"/>
<path d="M191.597 218.005C188.212 214.944 189.086 211.67 193.558 210.686C198.029 209.702 209.121 212.666 210.377 215.811C211.412 218.394 210.293 220.788 205.821 221.765C201.349 222.749 194.981 221.066 191.597 218.005Z" fill="#231F20"/>
<path d="M190.186 217.462C186.801 214.401 187.675 211.126 192.147 210.143C196.619 209.159 207.374 212.052 208.778 215.171C209.969 217.811 208.876 220.245 204.41 221.228C199.938 222.212 193.571 220.529 190.186 217.468V217.462Z" fill="#231F20"/>
<path d="M188.775 216.919C185.391 213.858 186.264 210.583 190.736 209.6C195.208 208.616 205.627 211.437 207.186 214.531C208.545 217.223 207.471 219.701 202.999 220.685C198.528 221.669 192.16 219.986 188.775 216.925V216.919Z" fill="#231F20"/>
<path d="M187.358 216.374C183.973 213.313 184.847 210.039 189.319 209.055C193.791 208.071 203.873 210.815 205.582 213.889C207.102 216.626 206.054 219.157 201.582 220.141C197.11 221.124 190.742 219.442 187.358 216.381V216.374Z" fill="#231F20"/>
<path d="M185.934 215.837C182.55 212.776 183.423 209.502 187.895 208.518C192.367 207.535 202.119 210.201 203.97 213.255C205.659 216.038 204.624 218.62 200.158 219.604C195.687 220.587 189.319 218.905 185.934 215.844V215.837Z" fill="#231F20"/>
<path d="M184.51 215.294C181.126 212.233 181.999 208.958 186.471 207.975C190.943 206.991 200.359 209.567 202.365 212.615C204.223 215.436 203.206 218.077 198.735 219.06C194.263 220.044 187.895 218.361 184.51 215.3V215.294Z" fill="#231F20"/>
<path d="M183.087 214.756C179.702 211.695 180.576 208.42 185.048 207.437C189.519 206.453 198.599 208.945 200.754 211.98C202.779 214.834 201.783 217.539 197.311 218.522C192.839 219.506 186.471 217.823 183.087 214.762V214.756Z" fill="#231F20"/>
<path d="M181.663 214.213C178.278 211.152 179.152 207.877 183.624 206.894C188.096 205.91 196.839 208.311 199.142 211.34C201.446 214.368 200.353 216.996 195.887 217.979C191.415 218.963 185.047 217.28 181.663 214.219V214.213Z" fill="#231F20"/>
<path d="M180.233 213.676C176.848 210.615 177.722 207.341 182.194 206.357C186.665 205.373 195.072 207.677 197.531 210.706C199.99 213.735 198.929 216.459 194.457 217.443C189.985 218.426 183.617 216.744 180.233 213.683V213.676Z" fill="#231F20"/>
<path d="M178.803 213.132C175.418 210.071 176.292 206.797 180.763 205.813C185.235 204.829 193.305 207.036 195.913 210.065C198.521 213.094 197.499 215.915 193.027 216.899C188.555 217.882 182.187 216.2 178.803 213.139V213.132Z" fill="#231F20"/>
<path d="M177.372 212.595C173.988 209.534 174.861 206.26 179.333 205.276C183.805 204.292 191.538 206.395 194.302 209.424C197.013 212.401 196.068 215.371 191.603 216.355C187.131 217.339 180.763 215.656 177.379 212.595H177.372Z" fill="#231F20"/>
<path d="M175.942 212.051C172.558 208.99 173.431 205.715 177.903 204.731C182.375 203.748 189.765 205.747 192.684 208.782C195.603 211.818 194.638 214.827 190.166 215.81C185.695 216.794 179.327 215.112 175.942 212.051Z" fill="#231F20"/>
<path d="M174.512 211.514C171.127 208.453 172.001 205.179 176.473 204.195C180.945 203.211 187.999 205.107 191.066 208.149C194.134 211.191 193.202 214.29 188.736 215.274C184.264 216.258 177.897 214.575 174.512 211.514Z" fill="#231F20"/>
<path d="M173.075 210.976C169.691 207.915 170.564 204.641 175.036 203.657C179.508 202.674 186.219 204.466 189.448 207.514C192.677 210.562 191.771 213.753 187.306 214.736C182.834 215.72 176.466 214.038 173.082 210.976H173.075Z" fill="#231F20"/>
<path d="M171.645 210.44C168.261 207.379 169.134 204.104 173.606 203.121C178.078 202.137 184.446 203.82 187.83 206.881C191.215 209.942 190.341 213.216 185.869 214.2C181.398 215.184 175.03 213.501 171.645 210.44Z" fill="#231F20"/>
</g>
<path d="M184.517 123.449L184.485 123.223C184.485 123.223 184.478 123.184 184.472 123.164L184.446 123.035L184.387 122.821L184.368 122.757C184.368 122.757 184.355 122.711 184.342 122.685L184.323 122.627L184.245 122.42L184.161 122.226C184.038 121.961 183.889 121.637 183.753 121.333C183.689 121.197 183.624 121.055 183.559 120.912L182.796 119.281C182.757 119.197 182.711 119.107 182.673 119.016C182.465 118.583 182.265 118.149 182.058 117.715C182 117.592 181.941 117.469 181.89 117.359L181.831 117.236C181.508 116.557 181.184 115.884 180.861 115.217L180.841 115.179C180.841 115.179 180.828 115.153 180.822 115.133C180.453 114.376 180.09 113.632 179.722 112.894C179.702 112.855 179.683 112.81 179.663 112.771L179.644 112.726C179.223 111.872 178.796 111.03 178.382 110.202L178.363 110.17C178.363 110.17 178.363 110.163 178.363 110.157C178.356 110.137 178.343 110.124 178.337 110.105C178.097 109.632 177.819 109.082 177.541 108.545C177.444 108.358 177.347 108.163 177.249 107.976C177.146 107.775 177.049 107.581 176.952 107.4L176.557 106.649C176.557 106.649 176.557 106.643 176.557 106.636C176.441 106.416 176.331 106.196 176.214 105.976C176.065 105.691 175.916 105.413 175.774 105.135L175.437 104.494C175.237 104.119 175.004 103.685 174.771 103.245C174.635 102.993 174.506 102.747 174.37 102.501C174.357 102.482 174.35 102.462 174.337 102.443C174.227 102.236 174.111 102.022 174.001 101.821C173.943 101.705 173.871 101.588 173.82 101.478L173.69 101.245C173.606 101.09 173.522 100.941 173.438 100.786C173.412 100.734 173.38 100.682 173.354 100.631C173.088 100.145 172.829 99.6729 172.577 99.2199C172.486 99.0581 172.402 98.9093 172.318 98.7539C172.169 98.4886 172.02 98.2233 171.878 97.9709C170.83 96.1071 169.859 94.4375 168.998 92.9943C168.804 92.6708 168.629 92.3795 168.474 92.1207C166.759 89.2926 165.73 87.6618 164.656 86.031L164.585 85.921C164.216 85.358 163.763 84.6849 163.323 84.0378C163.083 83.6883 162.837 83.3195 162.572 82.9247C162.171 82.3358 161.614 81.5463 161.025 80.7309C159.408 78.4788 157.926 76.5762 156.534 74.9259C156.495 74.8806 156.457 74.8354 156.418 74.79L156.347 74.6994C156.321 74.6671 156.288 74.6283 156.256 74.5959C155.57 73.7805 154.852 72.9521 154.205 72.2856C153.324 71.3666 152.748 70.7907 152.315 70.3571L152.127 70.1629L151.92 69.9688L151.713 69.7747L151.506 69.5805L151.299 69.3864C151.176 69.2699 151.014 69.1146 150.885 69.0045L150.859 68.9851C150.393 68.5515 149.933 68.1374 149.474 67.7297L149.429 67.6908L149.221 67.5096L149.014 67.3284L148.807 67.1472L148.6 66.966L148.393 66.7848L148.186 66.6036C148.121 66.5519 148.037 66.4807 147.979 66.4224C147.979 66.4224 147.972 66.4224 147.972 66.416C147.584 66.0859 147.066 65.6588 146.678 65.3352L146.458 65.1605C146.355 65.0764 146.251 64.9922 146.148 64.9081L145.371 64.2804C145.164 64.1186 144.924 63.9309 144.685 63.7432H144.678C144.458 63.5685 144.245 63.4002 144.057 63.2514L142.75 62.2613C142.355 61.97 141.825 61.5818 141.43 61.297L140.123 60.3651C139.728 60.0868 139.197 59.7309 138.802 59.4591L137.495 58.5855C137.1 58.3266 136.576 57.9901 136.181 57.7312L135.767 57.4659C135.612 57.3688 135.463 57.2717 135.308 57.1747L134.887 56.9093C134.499 56.6634 133.975 56.3463 133.586 56.1069L132.299 55.3368C132.156 55.2526 131.994 55.1556 131.826 55.0585C131.768 55.0261 131.71 54.9873 131.651 54.955C131.431 54.8255 131.205 54.6961 131.017 54.5861L130.176 54.1007C130.04 54.0231 129.904 53.9454 129.768 53.8678L129.749 53.8548C129.373 53.6412 128.869 53.3565 128.487 53.1429L128.306 53.0394C128.047 52.897 127.794 52.7547 127.536 52.6123L127.244 52.4505C126.875 52.2499 126.377 51.9845 126.008 51.7839C125.575 51.551 124.559 51.0074 123.588 50.5026L122.404 49.8878C122.054 49.7066 121.588 49.4671 121.239 49.2859L120.093 48.7035L120.067 48.6906C119.737 48.5223 119.304 48.3023 118.974 48.134L118.65 47.9722C118.437 47.8622 118.223 47.7522 118.016 47.6487C113.771 45.3125 109.597 43.0345 106.859 41.5396C105.254 40.4718 104.115 39.5075 102.879 38.2909C102.879 38.2909 102.866 38.2844 102.86 38.278C102.86 38.278 102.866 38.278 102.873 38.278C102.795 38.2132 102.763 38.1874 102.672 38.1291C102.653 38.1162 102.633 38.1032 102.607 38.0903C102.607 38.0903 102.601 38.0903 102.594 38.0838L102.465 38.0126C102.465 38.0126 102.484 38.0256 102.491 38.032C102.452 38.0126 102.42 37.9932 102.368 37.9738L102.232 37.922H102.213L102.083 37.8832C102.083 37.8832 102.09 37.8832 102.096 37.8832C102.09 37.8832 102.077 37.8832 102.07 37.8767H102.038C102.038 37.8767 102.025 37.8702 102.018 37.8638H101.98L101.941 37.8508C101.941 37.8508 101.941 37.8508 101.954 37.8508H101.947C101.947 37.8508 101.947 37.8508 101.941 37.8508H101.896L101.837 37.8379H101.747C101.747 37.8379 101.734 37.8379 101.727 37.8379H101.688C101.688 37.8379 101.682 37.8379 101.676 37.8379H101.611H101.598L101.52 37.8508H101.514L101.468 37.8638C101.468 37.8638 101.449 37.8638 101.443 37.8638H101.423L101.404 37.8767C101.404 37.8767 101.404 37.8767 101.41 37.8767L101.32 37.9026L101.287 37.9155L101.177 37.9608L101.061 38.0191L101.035 38.0385L100.938 38.1032C100.938 38.1032 100.931 38.1032 100.925 38.1097C100.899 38.1291 100.867 38.155 100.841 38.1744C100.841 38.1744 100.834 38.1809 100.828 38.1874L100.614 38.3686C100.614 38.3686 100.575 38.4074 100.556 38.4203C100.556 38.4203 100.588 38.3944 100.601 38.3815L100.575 38.4074L100.472 38.5109L100.388 38.6145L100.349 38.6662C100.349 38.6662 100.336 38.6792 100.329 38.6921L100.284 38.7504C100.265 38.7827 100.245 38.8151 100.226 38.841C100.077 38.8798 100.064 38.9575 100.103 39.0998C100.103 39.1192 100.103 39.1322 100.103 39.1516L100.077 39.2422C100.077 39.2422 100.077 39.2551 100.077 39.2616C100.077 39.2681 100.077 39.281 100.071 39.2875C100.051 39.3522 100.032 39.4169 100.032 39.4752V39.4946L100.019 39.5852C100.019 39.6046 100.019 39.6175 100.012 39.637V39.5917V39.6499V39.6628V39.734V39.747V39.9023V39.9282V39.9541C100.012 39.9541 100.019 40.0058 100.025 40.0253C100.025 40.0253 100.025 40.0123 100.019 40.0123L100.058 40.2453C100.058 40.2453 100.058 40.2388 100.058 40.2323L100.077 40.3424L100.122 40.5041C100.135 40.5494 100.148 40.6012 100.168 40.6465C100.232 40.8601 100.329 41.1966 100.465 41.6431C101.177 44.29 102.763 49.0918 105.183 55.052C110.36 68.2474 116.346 79.0742 122.65 87.9272C125.801 92.4572 129.263 96.7931 133.017 100.67C133.082 100.741 133.166 100.825 133.237 100.896C133.256 100.915 133.276 100.935 133.295 100.954C134.259 101.964 135.483 103.161 136.427 104.093C137.463 105.122 138.938 106.371 140.019 107.335L140.09 107.393L140.161 107.452L140.233 107.51L140.304 107.568L140.375 107.626L140.446 107.685L140.517 107.743L140.589 107.801L140.66 107.859L140.731 107.918L140.802 107.976L140.873 108.034C140.97 108.112 141.054 108.209 141.158 108.273C141.184 108.286 141.21 108.312 141.229 108.332L141.3 108.39L141.372 108.448L141.443 108.506C141.443 108.506 141.449 108.506 141.456 108.513C148.535 114.525 155.402 118.576 161.427 121.216C168.972 124.763 175.353 126.225 179.301 126.051C180.103 126.135 180.873 126.18 181.553 126.174C181.605 126.174 181.657 126.174 181.702 126.174C181.754 126.174 181.799 126.174 181.851 126.174H181.922C182.207 126.174 182.427 126.174 182.575 126.174L182.796 126.161L182.944 126.135H182.97C182.97 126.135 183.003 126.122 183.016 126.115L183.139 126.083L183.274 126.031L183.307 126.012L183.436 125.947L183.559 125.869L183.702 125.759L183.915 125.578L183.999 125.494C183.999 125.494 183.986 125.507 183.98 125.514C183.986 125.507 183.993 125.494 184.006 125.488L184.083 125.41L184.18 125.293C184.252 125.196 184.329 125.061 184.394 124.957L184.459 124.821C184.498 124.724 184.536 124.595 184.569 124.497V124.485C184.646 124.226 184.672 123.967 184.653 123.695C184.653 123.676 184.653 123.663 184.653 123.643V123.63L184.64 123.449H184.517ZM102.187 38.4462C102.187 38.4462 102.174 38.4527 102.174 38.4592C102.174 38.4592 102.187 38.4527 102.187 38.4462Z" fill="#01656B"/>
<path d="M182.763 126.814L182.427 126.84C182.278 126.84 182.058 126.84 181.786 126.84H181.417C180.789 126.84 180.026 126.795 179.159 126.711C174.667 126.892 168.079 125.112 161.077 121.825C154.159 118.79 147.396 114.486 140.977 109.037L140.711 108.817C140.653 108.785 140.563 108.707 140.472 108.623L138.718 107.109C137.78 106.287 136.725 105.355 135.916 104.559L135.502 104.151C134.615 103.277 133.612 102.281 132.771 101.407L132.493 101.122C128.946 97.466 125.439 93.1496 122.061 88.3024C115.279 78.7829 109.377 67.6714 104.516 55.2849C101.455 47.7262 100.116 43.0538 99.7728 41.8048C99.6434 41.3777 99.5399 41.0347 99.4816 40.8212L99.391 40.5882L99.3651 40.3811L99.3328 40.3682L99.3198 40.1417V40.0899L99.2745 40.0705V39.9411L99.5593 38.019L100.31 37.6955L101.048 37.2619L101.203 37.2166H101.222L101.268 37.2036L101.417 37.8119L101.352 37.1907L101.449 37.1777H101.954L101.928 37.4948L101.96 37.1842L102.141 37.2166L102.504 37.3331L102.666 37.4107L102.899 37.5466C103.002 37.6178 103.041 37.6437 103.106 37.6955H103.119L103.203 37.7796C104.523 39.0803 105.649 39.9993 107.099 40.9571C109.797 42.4261 113.971 44.7041 118.217 47.0403L123.776 49.8877C124.727 50.386 125.723 50.9167 126.176 51.1561L129.056 52.7352C129.36 52.9034 129.691 53.0911 129.956 53.2464L132.519 54.7349L134.208 55.7574C134.518 55.945 134.848 56.1521 135.114 56.3139L136.874 57.4335C137.172 57.6276 137.482 57.8282 137.741 57.9965L139.456 59.1484C139.773 59.362 140.11 59.5949 140.381 59.7891L142.109 61.0187C142.42 61.2452 142.756 61.4911 143.028 61.6917L144.97 63.1737C145.229 63.3743 145.468 63.562 145.669 63.7237L147.403 65.1345C147.701 65.3869 148.024 65.6523 148.283 65.8723L149.765 67.1601C150.27 67.6066 150.736 68.0273 151.202 68.4673C151.325 68.5774 151.454 68.7003 151.564 68.8039L152.671 69.8652C153.104 70.2923 153.68 70.8747 154.567 71.8002C155.143 72.3955 155.822 73.1656 156.644 74.1428L156.922 74.4729C158.398 76.2267 159.88 78.1357 161.446 80.3166C162.087 81.2032 162.63 81.9669 163.006 82.5234L163.756 83.6365C164.196 84.2836 164.649 84.9632 165.025 85.5262L165.102 85.6427C166.248 87.377 167.322 89.092 168.927 91.7453C169.082 92.0041 169.264 92.3018 169.458 92.6254C170.357 94.1332 171.328 95.8093 172.351 97.6214L173.056 98.8768C173.308 99.3298 173.567 99.8023 173.839 100.294L175.256 102.909C175.489 103.349 175.722 103.782 175.923 104.158L178.039 108.222C178.317 108.765 178.595 109.309 178.835 109.788L178.867 109.846C179.307 110.713 179.728 111.561 180.155 112.415L180.239 112.59C180.602 113.328 180.971 114.072 181.339 114.829L181.378 114.913C181.702 115.58 182.025 116.259 182.355 116.939L182.634 117.521C182.821 117.922 183.016 118.317 183.203 118.725L184.95 122.621L185.067 123.106L185.112 123.41L185.132 123.663C185.158 124.044 185.119 124.381 185.022 124.711L184.983 124.834C184.95 124.931 184.912 125.041 184.879 125.125L184.769 125.345C184.679 125.5 184.595 125.636 184.523 125.733L184.226 126.057L183.786 126.426L183.223 126.717L182.783 126.821L182.763 126.814ZM100.543 40.2582L100.588 40.4199C100.653 40.64 100.75 40.97 100.886 41.4101C101.222 42.6656 102.543 47.2668 105.578 54.7543C110.399 67.0436 116.249 78.0581 122.967 87.487C126.306 92.2824 129.768 96.5406 133.269 100.152L133.548 100.436C134.376 101.297 135.372 102.281 136.253 103.154L136.667 103.562C137.45 104.332 138.492 105.251 139.417 106.06L141.074 107.49C141.113 107.523 141.151 107.555 141.184 107.587C141.216 107.62 141.249 107.652 141.287 107.672L141.643 107.95C147.992 113.341 154.664 117.586 161.491 120.582C168.273 123.773 174.861 125.559 179.126 125.371H179.204C180.045 125.462 180.783 125.501 181.398 125.494H181.779C182.051 125.507 182.258 125.507 182.407 125.507L182.614 125.494L182.931 125.397L183.236 125.203L183.494 124.976L183.637 124.821C183.663 124.782 183.721 124.692 183.766 124.614L183.824 124.491C183.824 124.491 183.857 124.394 183.876 124.336L183.902 124.252C183.954 124.051 183.967 123.889 183.954 123.708L183.941 123.507L183.799 122.873L183.643 122.485L182.194 119.346C181.98 118.887 181.792 118.492 181.598 118.091L181.326 117.515C181.003 116.835 180.679 116.162 180.356 115.496L180.317 115.411C179.948 114.661 179.586 113.91 179.223 113.172L179.165 113.049C178.718 112.156 178.298 111.309 177.884 110.487L177.851 110.428C177.592 109.917 177.314 109.374 177.036 108.836L174.926 104.785C174.726 104.41 174.499 103.983 174.26 103.543L172.849 100.941C172.583 100.456 172.325 99.9835 172.072 99.5305L171.373 98.2815C170.364 96.4824 169.393 94.8127 168.5 93.3178C168.312 93.0007 168.131 92.703 167.976 92.4442C166.377 89.8038 165.31 88.1018 164.171 86.3739L164.093 86.2574C163.73 85.7009 163.277 85.0279 162.837 84.3872L162.087 83.2741C161.718 82.7305 161.187 81.9798 160.553 81.0997C159.006 78.9447 157.55 77.0615 156.094 75.3336L155.822 75.01C155.013 74.0458 154.353 73.3015 153.797 72.7256C152.917 71.8131 152.347 71.2371 151.914 70.81L150.826 69.7681C150.723 69.671 150.606 69.561 150.509 69.4769C150.017 69.0174 149.558 68.6032 149.105 68.202L147.578 66.8754C147.338 66.6683 147.021 66.4094 146.723 66.1635L145.008 64.7657C144.808 64.6103 144.575 64.4227 144.335 64.2415L142.394 62.7595C142.129 62.5654 141.799 62.3194 141.488 62.0929L139.78 60.8698C139.514 60.6822 139.178 60.4557 138.867 60.2421L137.172 59.0966C136.919 58.9284 136.615 58.7342 136.317 58.5401L134.57 57.427C134.305 57.2652 133.981 57.0646 133.677 56.8769L129.477 54.3983C129.192 54.2366 128.869 54.0554 128.564 53.8871L125.73 52.3339C125.251 52.0816 124.261 51.5509 123.316 51.0526L117.751 48.1987C113.492 45.856 109.318 43.578 106.581 42.0831C105.041 41.0606 103.869 40.1093 102.51 38.7827L102.491 38.7697C102.491 38.7697 102.484 38.7568 102.478 38.7568C102.426 38.7179 102.407 38.6985 102.342 38.6597L102.569 38.0579L102.303 38.5885L102.543 38.9833L102.484 39.0221L102.219 38.5756L101.941 38.4656H101.921L101.973 38.1679L101.947 38.129L101.883 38.4591L101.902 38.142L101.857 38.4656L101.326 38.5303L101.074 38.6921L100.646 39.1257L100.498 39.501L100.485 39.6822L100.543 40.2646V40.2582ZM101.837 38.3944V38.4397L101.863 38.0384L101.837 38.3944ZM101.831 38.2714V38.2973L101.85 38.1485L101.831 38.2779V38.2714ZM101.954 38.0126L101.973 38.0449L101.993 37.8184L101.954 38.0126ZM101.883 37.799L101.87 37.8961L101.883 37.8702V37.8055V37.799Z" fill="#231F20"/>
<path d="M99.9282 40.1942L99.9346 40.2007L99.9152 40.123L99.9282 40.1942Z" fill="#01656B"/>
<path d="M174.175 122.835V122.627H174.169C174.169 122.608 174.169 122.589 174.169 122.576L174.156 122.459L174.124 122.265L174.111 122.207C174.111 122.207 174.098 122.162 174.098 122.142L174.085 122.09L174.033 121.903L173.968 121.721C173.878 121.476 173.761 121.178 173.651 120.893C173.606 120.764 173.554 120.641 173.502 120.505L172.914 118.991C172.881 118.913 172.849 118.829 172.816 118.745C172.661 118.343 172.499 117.942 172.338 117.541C172.292 117.424 172.247 117.314 172.208 117.211L172.163 117.101C171.91 116.473 171.658 115.845 171.406 115.231L171.393 115.192C171.393 115.192 171.38 115.166 171.373 115.153C171.089 114.454 170.797 113.762 170.513 113.076C170.5 113.037 170.48 112.998 170.467 112.959L170.448 112.92C170.118 112.131 169.781 111.341 169.451 110.571L169.438 110.539C169.438 110.539 169.438 110.539 169.438 110.532C169.432 110.513 169.425 110.5 169.419 110.481C169.231 110.04 169.005 109.529 168.785 109.031C168.707 108.856 168.629 108.675 168.552 108.5C168.468 108.313 168.39 108.131 168.319 107.963L168.002 107.264C168.002 107.264 168.002 107.258 168.002 107.251C167.911 107.044 167.82 106.844 167.73 106.636C167.613 106.371 167.497 106.112 167.38 105.853L167.109 105.252C166.947 104.902 166.759 104.494 166.572 104.087C166.461 103.854 166.358 103.621 166.248 103.394C166.241 103.375 166.235 103.362 166.222 103.342C166.131 103.148 166.041 102.954 165.95 102.76C165.898 102.657 165.847 102.54 165.801 102.443L165.698 102.223C165.633 102.081 165.562 101.938 165.497 101.796C165.471 101.75 165.452 101.699 165.426 101.653C165.212 101.2 164.999 100.76 164.798 100.34C164.727 100.191 164.656 100.048 164.585 99.8997C164.462 99.6473 164.345 99.4078 164.229 99.1684C163.381 97.4275 162.585 95.8614 161.873 94.5089C161.718 94.2112 161.569 93.9329 161.44 93.687C160.029 91.0337 159.175 89.5 158.275 87.9598L158.217 87.8562C157.906 87.3256 157.524 86.6849 157.155 86.0766C156.955 85.7465 156.748 85.3971 156.521 85.0217C156.185 84.4652 155.712 83.7145 155.208 82.9444C153.829 80.8088 152.554 78.9903 151.338 77.4048C151.305 77.3595 151.273 77.3142 151.234 77.2754L151.169 77.1912C151.169 77.1912 151.118 77.1265 151.092 77.0941C150.496 76.3111 149.862 75.5151 149.293 74.8615C148.51 73.9684 147.998 73.4054 147.61 72.9848L147.442 72.7971L147.261 72.6029L147.079 72.4088L146.892 72.2211L146.704 72.0334C146.594 71.917 146.445 71.7681 146.335 71.6581L146.316 71.6387C145.895 71.218 145.481 70.8039 145.067 70.4026L145.028 70.3638L144.84 70.1826L144.653 70.0014L144.465 69.8202L144.277 69.639L144.09 69.4578L143.902 69.2831C143.844 69.2313 143.766 69.1601 143.714 69.1083C143.714 69.1083 143.714 69.1083 143.708 69.1019C143.358 68.7718 142.886 68.3512 142.53 68.0276L142.329 67.8529C142.239 67.7687 142.142 67.6846 142.045 67.6005L141.339 66.9727C141.152 66.811 140.931 66.6233 140.711 66.4356H140.705C140.504 66.2609 140.31 66.0926 140.135 65.9438L138.938 64.9472C138.576 64.6495 138.091 64.2677 137.728 63.97L136.518 63.0316C136.156 62.7533 135.664 62.3845 135.301 62.1127L134.091 61.2196C133.729 60.9543 133.237 60.6113 132.874 60.346L132.486 60.0742C132.344 59.9771 132.201 59.8735 132.059 59.7765L131.664 59.5047C131.302 59.2523 130.817 58.9287 130.454 58.6763L129.257 57.8738C129.121 57.7832 128.972 57.6862 128.817 57.5826C128.765 57.5438 128.707 57.5114 128.655 57.4726C128.448 57.3367 128.241 57.2008 128.06 57.0843L127.27 56.5796C127.141 56.4954 127.018 56.4178 126.888 56.3336L126.875 56.3207C126.52 56.0942 126.047 55.803 125.691 55.5765L125.523 55.4729C125.283 55.3241 125.044 55.1752 124.798 55.0264L124.52 54.8581C124.17 54.6446 123.711 54.3663 123.361 54.1527C122.954 53.9068 122.002 53.3309 121.083 52.8002L119.97 52.1466C119.64 51.9524 119.207 51.7001 118.877 51.5124L117.802 50.8911L117.777 50.8782C117.466 50.697 117.058 50.464 116.748 50.2893L116.443 50.1145C116.243 49.9981 116.042 49.8816 115.842 49.7716C111.862 47.3189 107.946 44.9244 105.377 43.3583C103.889 42.2711 102.86 41.3133 101.753 40.1226C101.753 40.1226 101.74 40.1161 101.734 40.1096H101.74C101.669 40.0449 101.643 40.019 101.559 39.9608C101.54 39.9478 101.52 39.9284 101.501 39.922C101.501 39.922 101.494 39.922 101.488 39.9155L101.365 39.8378C101.365 39.8378 101.384 39.8508 101.391 39.8572C101.358 39.8378 101.32 39.8184 101.274 39.7925L101.145 39.7343H101.125L101.002 39.6825C101.002 39.6825 101.009 39.6825 101.015 39.6825C101.009 39.6825 100.996 39.6825 100.99 39.676H100.957C100.957 39.676 100.944 39.6631 100.938 39.6631H100.899L100.86 39.6437C100.86 39.6437 100.86 39.6437 100.867 39.6437H100.86C100.86 39.6437 100.86 39.6437 100.854 39.6437L100.808 39.6307H100.757V39.6243H100.666C100.666 39.6243 100.653 39.6113 100.647 39.6113H100.608C100.608 39.6113 100.601 39.6113 100.595 39.6113H100.53H100.517H100.439H100.433H100.388C100.388 39.6113 100.368 39.6113 100.355 39.6178H100.336H100.316C100.316 39.6178 100.316 39.6178 100.323 39.6178L100.226 39.6307H100.194V39.6372L100.077 39.6696L99.9541 39.7084L99.9217 39.7213L99.8182 39.7666C99.8182 39.7666 99.8117 39.7666 99.8052 39.7666C99.7793 39.7796 99.747 39.799 99.7146 39.8184C99.7146 39.8184 99.7082 39.8184 99.7017 39.8249L99.4687 39.9673C99.4687 39.9673 99.4234 39.9931 99.404 40.0061C99.404 40.0061 99.4364 39.9867 99.4558 39.9737L99.4299 39.9931L99.3134 40.0708L99.2163 40.1549L99.171 40.2002C99.171 40.2002 99.1581 40.2132 99.1516 40.2196L99.1063 40.2714C99.1063 40.2714 99.061 40.3232 99.0416 40.3426C98.8863 40.362 98.8669 40.4332 98.8927 40.5626C98.8927 40.5756 98.8863 40.595 98.8798 40.6079L98.8474 40.6856C98.8474 40.6856 98.8474 40.6985 98.841 40.6985C98.841 40.705 98.8345 40.7115 98.828 40.718V40.705V40.7244C98.8021 40.7827 98.7763 40.8344 98.7698 40.8862V40.8992L98.7504 40.9833C98.7504 40.9962 98.7439 41.0092 98.7374 41.0286V40.9833V41.0351V41.048L98.7245 41.1127V41.1257L98.7115 41.2616V41.2874V41.3069C98.7115 41.3069 98.7115 41.3522 98.7115 41.3716C98.7115 41.3716 98.7115 41.3651 98.7115 41.3586L98.7245 41.5657V41.5592V41.6563L98.731 41.6434V41.6563L98.7568 41.8052C98.7633 41.844 98.7763 41.8893 98.7827 41.9346C98.8216 42.1287 98.8863 42.4329 98.9769 42.8406C99.4105 45.2415 100.498 49.6292 102.284 55.1105C106.07 67.2381 110.904 77.3465 116.262 85.74C118.928 90.0306 121.925 94.1789 125.258 97.9388C125.316 98.01 125.387 98.0876 125.452 98.1588C125.465 98.1782 125.484 98.1977 125.503 98.2171C126.364 99.1943 127.451 100.366 128.293 101.272C129.218 102.275 130.551 103.517 131.528 104.462L131.593 104.52L131.658 104.579L131.723 104.637L131.787 104.695L131.852 104.753L131.917 104.812L131.981 104.87L132.046 104.928L132.111 104.986L132.176 105.044L132.24 105.103L132.305 105.161C132.389 105.239 132.467 105.329 132.564 105.394C132.583 105.407 132.609 105.433 132.629 105.452L132.693 105.51L132.758 105.569L132.823 105.627C132.823 105.627 132.829 105.627 132.829 105.633C139.255 111.594 145.656 115.794 151.376 118.68C158.515 122.505 164.708 124.381 168.655 124.588C169.445 124.737 170.202 124.847 170.882 124.905C170.933 124.905 170.979 124.918 171.03 124.925C171.082 124.925 171.127 124.938 171.173 124.944H171.244C171.529 124.983 171.749 125.003 171.891 125.015H172.111H172.26H172.286C172.286 125.015 172.318 125.009 172.331 125.003L172.454 124.983L172.596 124.951L172.635 124.938L172.771 124.893L172.901 124.834L173.056 124.75L173.289 124.608L173.38 124.543C173.38 124.543 173.367 124.556 173.36 124.562C173.367 124.562 173.38 124.55 173.386 124.543L173.477 124.478L173.587 124.388C173.664 124.31 173.761 124.2 173.833 124.116L173.91 123.999C173.962 123.922 174.014 123.805 174.053 123.721V123.708C174.156 123.488 174.208 123.262 174.221 123.016C174.221 123.003 174.221 122.99 174.221 122.97V122.958V122.796L174.175 122.835ZM101.067 40.2391C101.067 40.2391 101.054 40.2391 101.048 40.2455C101.048 40.2455 101.061 40.2455 101.067 40.2391Z" fill="#45BA9B"/>
<path d="M172.085 125.643L171.749 125.63C171.6 125.617 171.386 125.598 171.114 125.565L170.746 125.526C170.124 125.475 169.367 125.371 168.513 125.209C164.028 124.963 157.66 122.782 151.033 119.236C144.471 115.923 138.181 111.503 132.363 106.099L132.117 105.879C132.059 105.847 131.981 105.769 131.897 105.691L130.318 104.203C129.47 103.387 128.506 102.468 127.781 101.685L127.413 101.284C126.623 100.43 125.723 99.4593 124.979 98.6115L124.733 98.3332C121.582 94.7804 118.54 90.6451 115.686 86.0568C109.927 77.0356 105.202 66.6812 101.65 55.2914C99.3845 48.3346 98.5368 44.0893 98.3297 42.9503C98.2455 42.562 98.1808 42.2514 98.142 42.0507L98.0773 41.8372V41.6495L98.0449 41.6366V41.436V41.3907L98.0061 41.3712L98.032 41.2548L98.5044 39.5722L99.2875 39.3651L100.064 39.048L100.226 39.0221H100.245H100.291L100.381 39.5722V39.0156H100.452L100.478 39.4298V39.0156L100.977 39.0674L100.918 39.3392L100.983 39.0674L101.158 39.1127L101.501 39.2486L101.656 39.3327L101.876 39.4751C101.915 39.501 101.941 39.5269 101.967 39.5463C102.005 39.5722 102.031 39.5981 102.064 39.6304H102.077L102.154 39.7145C103.332 40.983 104.361 41.8954 105.701 42.8791C108.231 44.4193 112.153 46.8138 116.126 49.2665L121.362 52.2951C122.261 52.8193 123.193 53.3823 123.614 53.6347L126.319 55.2979C126.604 55.4791 126.914 55.6732 127.167 55.8285L129.561 57.3752L131.179 58.4624C131.451 58.6501 131.742 58.8442 131.981 59.0125L133.612 60.1644C133.884 60.3586 134.175 60.5657 134.415 60.7404L136 61.9182C136.291 62.1382 136.602 62.3712 136.854 62.5653L138.44 63.8143C138.725 64.0408 139.035 64.2932 139.281 64.4938L141.054 65.9823C141.287 66.1829 141.507 66.3706 141.695 66.5324L143.274 67.9367C143.546 68.1826 143.837 68.4479 144.07 68.6679L145.41 69.9428C145.869 70.3829 146.283 70.7971 146.704 71.2242C146.814 71.3277 146.931 71.4507 147.034 71.5542L148.024 72.5897C148.412 73.0038 148.924 73.5733 149.713 74.4729C150.224 75.0488 150.82 75.793 151.538 76.7314L151.784 77.0485C153.072 78.7311 154.347 80.5496 155.673 82.6205C156.224 83.4682 156.677 84.1866 156.994 84.7108L157.628 85.7656C157.997 86.3804 158.379 87.0146 158.696 87.5517L158.76 87.6617C159.718 89.299 160.611 90.9104 161.938 93.402C162.067 93.6479 162.216 93.9261 162.371 94.2238C163.109 95.6346 163.905 97.2072 164.734 98.8962L165.303 100.068C165.51 100.495 165.717 100.935 165.937 101.388L167.076 103.828C167.264 104.235 167.452 104.636 167.613 104.992L169.296 108.772C169.516 109.276 169.742 109.788 169.93 110.228L169.956 110.286C170.305 111.095 170.636 111.878 170.972 112.674L171.037 112.836C171.322 113.522 171.613 114.214 171.897 114.913L171.93 114.991C172.182 115.612 172.435 116.24 172.687 116.868L172.901 117.405C173.049 117.774 173.198 118.142 173.341 118.518L174.674 122.122L174.738 122.562L174.751 122.834V123.054C174.726 123.391 174.654 123.688 174.525 123.973L174.473 124.077C174.434 124.161 174.383 124.258 174.337 124.329L174.208 124.517C174.098 124.646 174.001 124.756 173.923 124.834L173.593 125.093L173.114 125.378L172.525 125.585L172.079 125.636L172.085 125.643ZM99.2486 41.6819L99.281 41.8372C99.3198 42.0313 99.3845 42.329 99.4687 42.7367C99.6757 43.8757 100.511 48.0563 102.756 54.9484C106.283 66.2411 110.962 76.5049 116.67 85.4485C119.491 89.985 122.501 94.062 125.607 97.5761L125.853 97.8479C126.591 98.6892 127.477 99.6469 128.267 100.501L128.636 100.902C129.335 101.66 130.286 102.572 131.121 103.374L132.609 104.779C132.641 104.805 132.68 104.844 132.713 104.876C132.745 104.908 132.771 104.934 132.803 104.96C132.842 104.986 132.887 105.025 132.926 105.057L133.127 105.238C138.886 110.584 145.086 114.939 151.564 118.214C157.984 121.65 164.352 123.837 168.61 124.064H168.688C169.516 124.226 170.247 124.329 170.856 124.381L171.224 124.426C171.496 124.459 171.71 124.478 171.852 124.491H172.059L172.389 124.439L172.706 124.29L172.985 124.116L173.14 123.993C173.172 123.96 173.237 123.883 173.289 123.818L173.36 123.714C173.36 123.714 173.399 123.637 173.425 123.578L173.464 123.507C173.535 123.333 173.567 123.19 173.574 123.035V122.854L173.502 122.278L173.392 121.922L172.273 119.016C172.105 118.589 171.962 118.22 171.813 117.858L171.6 117.327C171.347 116.699 171.095 116.072 170.843 115.457L170.81 115.379C170.526 114.68 170.234 113.988 169.95 113.302L169.904 113.185C169.555 112.357 169.225 111.574 168.895 110.804L168.869 110.746C168.662 110.273 168.442 109.762 168.222 109.264L166.539 105.497C166.377 105.148 166.196 104.746 166.008 104.339L164.876 101.912C164.662 101.459 164.449 101.019 164.248 100.598L163.685 99.4334C162.863 97.7508 162.074 96.1847 161.342 94.7868C161.187 94.4892 161.038 94.2109 160.909 93.9714C159.589 91.4929 158.709 89.8944 157.751 88.2636L157.686 88.1471C157.382 87.6229 157 86.9887 156.631 86.3804L155.997 85.3255C155.686 84.8143 155.24 84.1024 154.696 83.2611C153.383 81.2162 152.127 79.4171 150.852 77.7604L150.613 77.4433C149.907 76.5179 149.325 75.7995 148.833 75.243C148.057 74.3564 147.545 73.7934 147.157 73.3792L146.186 72.3567C146.096 72.2596 145.992 72.1561 145.902 72.0719C145.455 71.6189 145.047 71.2112 144.633 70.8165L143.281 69.5287C143.035 69.3022 142.75 69.0433 142.478 68.7974L140.918 67.406C140.737 67.2507 140.524 67.063 140.304 66.8818L138.531 65.3999C138.285 65.1992 137.98 64.9598 137.696 64.7333L136.123 63.4972C135.877 63.3096 135.567 63.0766 135.282 62.8566L133.709 61.6917C133.476 61.5234 133.192 61.3163 132.92 61.1222L131.302 59.9832C131.069 59.8214 130.784 59.6273 130.512 59.4396L126.545 56.8381C126.28 56.6698 125.976 56.4757 125.691 56.3009L123.031 54.6637C122.585 54.3919 121.653 53.8353 120.76 53.3111L115.518 50.2825C111.525 47.8233 107.61 45.4289 105.041 43.8628C103.617 42.8209 102.549 41.8695 101.339 40.5753L101.32 40.5558C101.32 40.5558 101.313 40.5429 101.307 40.5429C101.261 40.5041 101.242 40.4847 101.184 40.4394L101.468 39.9281L101.145 40.3682L101.345 40.75L101.287 40.7823L101.255 40.7176L101.054 40.3552L100.815 40.2452L100.737 40.2193H100.731L100.744 40.1805L100.789 39.9475L100.705 40.2193L100.769 39.8634L100.679 40.2128L100.155 40.2452L99.9087 40.3617L99.4428 40.7047L99.2616 41.0218L99.2292 41.1836V41.7013L99.2486 41.6819ZM100.841 39.941L100.776 40.1222L100.847 39.9605L100.834 39.941H100.841ZM100.731 40.0446V40.064L100.763 39.9346L100.731 40.0446ZM100.879 39.831L100.892 39.8569L100.931 39.6563L100.873 39.8246L100.879 39.831ZM100.834 39.6369L100.808 39.721L100.821 39.6951L100.834 39.6369Z" fill="#231F20"/>
<path d="M98.6403 41.5706H98.6468L98.6403 41.5059V41.5706Z" fill="#45BA9B"/>
<path d="M184.342 209.32C184.381 209.268 184.426 209.222 184.465 209.171C184.497 209.132 184.53 209.093 184.562 209.054C184.582 209.028 184.595 209.002 184.614 208.977C184.653 208.925 184.685 208.867 184.718 208.815C184.756 208.75 184.808 208.685 184.84 208.621C184.86 208.588 184.866 208.556 184.886 208.53C184.886 208.53 184.886 208.53 184.886 208.524C184.918 208.465 184.944 208.407 184.97 208.349C184.996 208.291 185.022 208.239 185.041 208.181C185.061 208.135 185.073 208.084 185.086 208.038C185.106 207.98 185.125 207.928 185.138 207.87C185.151 207.825 185.164 207.773 185.177 207.728C185.19 207.669 185.196 207.605 185.209 207.546C185.216 207.495 185.229 207.443 185.235 207.398C185.235 207.359 185.235 207.32 185.242 207.275C185.242 207.21 185.242 207.145 185.242 207.08C185.242 207.029 185.242 206.97 185.242 206.919C183.184 174.885 181.132 142.857 179.074 110.824C179.074 110.824 179.074 110.817 179.074 110.811C179.074 110.733 179.061 110.681 179.055 110.629C179.055 110.597 179.042 110.552 179.029 110.507C179.023 110.455 179.01 110.416 179.003 110.384C178.997 110.338 178.984 110.293 178.964 110.241C178.964 110.241 178.964 110.241 178.964 110.254V110.241C178.964 110.228 178.958 110.215 178.951 110.202C178.926 110.125 178.913 110.092 178.887 110.034C178.887 110.034 178.874 109.995 178.861 109.976C178.861 109.976 178.854 109.963 178.854 109.956C178.841 109.931 178.828 109.905 178.822 109.885C178.816 109.872 178.809 109.859 178.803 109.84V109.827C178.777 109.788 178.757 109.749 178.731 109.717C178.718 109.698 178.712 109.685 178.699 109.665L178.608 109.529C178.608 109.529 178.608 109.529 178.608 109.536V109.523C178.608 109.516 178.596 109.51 178.589 109.503L178.563 109.465C178.563 109.465 178.537 109.432 178.524 109.419C178.524 109.419 178.524 109.419 178.524 109.413H178.518L178.511 109.393L178.408 109.277L178.35 109.219L178.278 109.154C178.278 109.154 178.259 109.141 178.253 109.128C178.24 109.115 178.227 109.102 178.214 109.089L178.071 108.979L177.929 108.882L177.864 108.843C177.819 108.817 177.761 108.785 177.715 108.759C177.715 108.759 177.702 108.759 177.702 108.753C177.702 108.753 177.689 108.753 177.689 108.746L177.541 108.675L177.398 108.617C177.398 108.617 177.398 108.617 177.392 108.617C177.392 108.617 177.392 108.617 177.385 108.617L177.243 108.572L177.198 108.559C177.198 108.559 177.165 108.552 177.152 108.546L177.107 108.533L176.971 108.5L176.874 108.487C176.835 108.487 176.803 108.474 176.764 108.474H176.706C176.667 108.462 176.615 108.462 176.576 108.455H176.531C176.486 108.455 176.447 108.455 176.402 108.455C176.376 108.455 176.343 108.455 176.318 108.455H176.188L176.149 108.468C176.123 108.468 176.098 108.468 176.072 108.474H176.059C176.02 108.481 175.968 108.487 175.923 108.494C175.903 108.494 175.871 108.5 175.852 108.507C175.852 108.507 175.852 108.507 175.858 108.507L175.787 108.52L175.748 108.533C175.748 108.533 175.742 108.533 175.735 108.533L175.651 108.552L175.509 108.597C175.509 108.597 175.509 108.597 175.502 108.597L175.36 108.649L175.211 108.714C175.211 108.714 175.204 108.714 175.198 108.714C175.198 108.714 175.191 108.714 175.185 108.714L175.036 108.792L174.887 108.882C174.849 108.908 174.81 108.934 174.764 108.966L174.7 109.012C174.674 109.031 174.654 109.05 174.628 109.07C174.616 109.083 174.596 109.096 174.59 109.109L174.57 109.122C174.57 109.122 174.564 109.128 174.557 109.135C174.544 109.148 174.531 109.16 174.518 109.173C174.518 109.173 174.506 109.186 174.499 109.186L174.486 109.199C174.486 109.199 174.454 109.232 174.434 109.251L174.37 109.316L174.357 109.329L174.305 109.393L174.247 109.458C174.234 109.471 174.221 109.491 174.208 109.51C174.195 109.529 174.175 109.549 174.163 109.568L174.059 109.723C174.02 109.788 174.001 109.827 173.975 109.879V109.892C173.975 109.892 173.955 109.918 173.949 109.937C173.943 109.95 173.93 109.976 173.923 109.995C173.91 110.028 173.891 110.06 173.878 110.099C173.852 110.157 173.845 110.189 173.82 110.267C173.794 110.345 173.787 110.377 173.774 110.442V110.455C173.774 110.455 173.768 110.474 173.768 110.487C173.768 110.5 173.768 110.513 173.761 110.526C173.761 110.552 173.748 110.584 173.748 110.61C173.748 110.629 173.748 110.636 173.742 110.662V110.675C173.735 110.733 173.729 110.778 173.722 110.85C173.722 110.85 173.722 110.85 173.722 110.856C171.846 142.903 169.975 174.943 168.099 206.99C168.099 207.003 168.099 207.016 168.099 207.029C168.099 207.029 168.099 207.035 168.099 207.042C168.099 207.068 168.099 207.093 168.099 207.126C168.099 207.229 168.099 207.326 168.105 207.43C168.105 207.436 168.105 207.449 168.105 207.456C168.105 207.469 168.105 207.488 168.105 207.501C168.105 207.54 168.118 207.579 168.125 207.611C168.131 207.669 168.138 207.728 168.151 207.786C168.157 207.825 168.17 207.857 168.183 207.896C168.189 207.922 168.196 207.954 168.202 207.98C168.209 208.006 168.215 208.025 168.228 208.051C168.235 208.077 168.241 208.103 168.248 208.122C168.28 208.219 168.319 208.316 168.364 208.407C168.364 208.414 168.371 208.427 168.377 208.433C168.377 208.433 168.377 208.433 168.377 208.439C168.377 208.439 168.377 208.452 168.384 208.459C168.39 208.478 168.403 208.491 168.409 208.511C168.448 208.595 168.494 208.679 168.539 208.757C168.558 208.789 168.578 208.821 168.597 208.854C168.61 208.873 168.623 208.899 168.636 208.918C168.649 208.938 168.668 208.957 168.681 208.983C168.701 209.009 168.714 209.041 168.739 209.067C168.804 209.158 168.882 209.255 168.959 209.345C168.959 209.345 168.966 209.358 168.972 209.365C168.972 209.365 168.972 209.365 168.979 209.371C168.985 209.378 168.998 209.391 169.005 209.397C169.082 209.488 169.167 209.578 169.251 209.663C169.277 209.688 169.309 209.714 169.335 209.74C169.354 209.76 169.374 209.779 169.393 209.798C169.419 209.824 169.445 209.844 169.471 209.863C169.51 209.902 169.548 209.934 169.594 209.973C169.652 210.025 169.723 210.07 169.788 210.122C169.827 210.148 169.853 210.18 169.891 210.206C169.911 210.219 169.93 210.232 169.95 210.245C169.975 210.264 169.988 210.277 170.014 210.297C170.157 210.4 170.312 210.497 170.474 210.594C170.506 210.614 170.545 210.633 170.577 210.659C170.629 210.685 170.681 210.711 170.733 210.737C170.914 210.84 171.102 210.937 171.296 211.022C171.334 211.041 171.367 211.06 171.406 211.08C171.464 211.106 171.529 211.125 171.587 211.151C171.723 211.209 171.859 211.261 172.001 211.313C172.111 211.352 172.221 211.397 172.338 211.429C172.48 211.475 172.622 211.52 172.771 211.565C172.888 211.598 172.998 211.63 173.121 211.662C173.269 211.701 173.425 211.74 173.58 211.772C173.697 211.798 173.813 211.824 173.93 211.85C174.091 211.882 174.253 211.908 174.415 211.934C174.499 211.947 174.583 211.966 174.674 211.979C174.7 211.979 174.726 211.979 174.751 211.986C175.069 212.025 175.386 212.057 175.703 212.083C175.709 212.083 175.716 212.083 175.722 212.083C175.871 212.089 176.013 212.096 176.162 212.096C176.279 212.096 176.395 212.109 176.512 212.109C176.518 212.109 176.525 212.109 176.531 212.109C176.764 212.109 176.997 212.109 177.224 212.096C177.243 212.096 177.262 212.096 177.275 212.096C177.334 212.096 177.385 212.089 177.444 212.083C177.579 212.076 177.715 212.07 177.858 212.057C177.916 212.057 177.974 212.044 178.032 212.038C178.104 212.031 178.175 212.025 178.246 212.018C178.311 212.012 178.382 212.005 178.447 211.999C178.589 211.979 178.725 211.96 178.867 211.941C178.9 211.941 178.938 211.934 178.971 211.928C178.984 211.928 178.997 211.928 179.003 211.928C179.184 211.895 179.359 211.863 179.54 211.831C179.586 211.824 179.624 211.811 179.67 211.798C179.728 211.785 179.78 211.772 179.838 211.759C179.916 211.74 179.993 211.727 180.065 211.708C180.187 211.675 180.31 211.643 180.427 211.61C180.466 211.598 180.498 211.591 180.537 211.578C180.55 211.578 180.563 211.572 180.582 211.565C180.757 211.513 180.925 211.455 181.093 211.397C181.126 211.384 181.158 211.371 181.191 211.358C181.249 211.339 181.307 211.313 181.359 211.293C181.443 211.261 181.534 211.229 181.611 211.196C181.682 211.164 181.754 211.132 181.825 211.099C181.896 211.067 181.961 211.041 182.032 211.009C182.071 210.989 182.116 210.976 182.155 210.957C182.317 210.879 182.472 210.802 182.621 210.717C182.66 210.692 182.705 210.672 182.744 210.646C182.808 210.607 182.86 210.569 182.918 210.53C183.028 210.459 183.145 210.394 183.248 210.323C183.281 210.303 183.307 210.277 183.339 210.258C183.359 210.245 183.384 210.226 183.41 210.213C183.481 210.161 183.54 210.109 183.611 210.051C183.669 210.006 183.734 209.954 183.792 209.908C183.812 209.896 183.831 209.876 183.844 209.863C183.928 209.792 183.999 209.721 184.07 209.643C184.122 209.591 184.18 209.54 184.226 209.488C184.245 209.468 184.258 209.455 184.277 209.436C184.31 209.404 184.336 209.365 184.362 209.333L184.342 209.32ZM178.57 109.452C178.57 109.452 178.57 109.445 178.563 109.439C178.563 109.439 178.57 109.445 178.576 109.452H178.57Z" fill="#01656B"/>
<path d="M178.964 110.241C178.984 110.293 178.997 110.338 179.003 110.384C179.01 110.416 179.023 110.455 179.029 110.507C179.042 110.552 179.055 110.597 179.055 110.629C179.061 110.681 179.074 110.733 179.074 110.811C179.074 110.817 179.074 110.824 179.074 110.824C181.132 142.857 183.184 174.885 185.242 206.919C185.242 206.97 185.242 207.029 185.242 207.08C185.242 207.145 185.242 207.21 185.242 207.275C185.235 207.32 185.235 207.359 185.235 207.398C185.229 207.443 185.216 207.495 185.209 207.546C185.196 207.605 185.19 207.669 185.177 207.728C185.164 207.773 185.151 207.825 185.138 207.87C185.125 207.928 185.106 207.98 185.086 208.038C185.073 208.084 185.061 208.135 185.041 208.181C185.022 208.239 184.996 208.291 184.97 208.349C184.944 208.407 184.918 208.465 184.886 208.524C184.886 208.53 184.886 208.53 184.886 208.53C184.866 208.556 184.86 208.588 184.84 208.621C184.808 208.685 184.756 208.75 184.718 208.815C184.685 208.867 184.653 208.925 184.614 208.977C184.595 209.002 184.582 209.028 184.562 209.054C184.53 209.093 184.497 209.132 184.465 209.171C184.426 209.222 184.381 209.268 184.342 209.32L184.362 209.333C184.336 209.365 184.31 209.404 184.277 209.436C184.258 209.455 184.245 209.468 184.226 209.488C184.18 209.54 184.122 209.591 184.07 209.643C183.999 209.721 183.928 209.792 183.844 209.863C183.831 209.876 183.812 209.896 183.792 209.908C183.734 209.954 183.669 210.006 183.611 210.051C183.54 210.109 183.481 210.161 183.41 210.213C183.384 210.226 183.359 210.245 183.339 210.258C183.307 210.277 183.281 210.303 183.248 210.323C183.145 210.394 183.028 210.459 182.918 210.53C182.86 210.569 182.808 210.607 182.744 210.646C182.705 210.672 182.66 210.692 182.621 210.717C182.472 210.802 182.317 210.879 182.155 210.957C182.116 210.976 182.071 210.989 182.032 211.009C181.961 211.041 181.896 211.067 181.825 211.099C181.754 211.132 181.682 211.164 181.611 211.196C181.534 211.229 181.443 211.261 181.359 211.293C181.307 211.313 181.249 211.339 181.191 211.358C181.158 211.371 181.126 211.384 181.093 211.397C180.925 211.455 180.757 211.513 180.582 211.565C180.563 211.572 180.55 211.578 180.537 211.578C180.498 211.591 180.466 211.598 180.427 211.61C180.31 211.643 180.187 211.675 180.065 211.708C179.993 211.727 179.916 211.74 179.838 211.759C179.78 211.772 179.728 211.785 179.67 211.798C179.624 211.811 179.586 211.824 179.54 211.831C179.359 211.863 179.184 211.895 179.003 211.928C178.997 211.928 178.984 211.928 178.971 211.928C178.938 211.934 178.9 211.941 178.867 211.941C178.725 211.96 178.589 211.979 178.447 211.999C178.382 212.005 178.311 212.012 178.246 212.018C178.175 212.025 178.104 212.031 178.032 212.038C177.974 212.044 177.916 212.057 177.858 212.057C177.715 212.07 177.579 212.076 177.444 212.083C177.385 212.089 177.334 212.096 177.275 212.096C177.262 212.096 177.243 212.096 177.224 212.096C176.997 212.109 176.764 212.109 176.531 212.109C176.525 212.109 176.518 212.109 176.512 212.109C176.395 212.109 176.279 212.096 176.162 212.096C176.013 212.096 175.871 212.089 175.722 212.083C175.716 212.083 175.709 212.083 175.703 212.083C175.386 212.057 175.069 212.025 174.751 211.986C174.726 211.979 174.7 211.979 174.674 211.979C174.583 211.966 174.499 211.947 174.415 211.934C174.253 211.908 174.091 211.882 173.93 211.85C173.813 211.824 173.697 211.798 173.58 211.772C173.425 211.74 173.269 211.701 173.121 211.662C172.998 211.63 172.888 211.598 172.771 211.565C172.622 211.52 172.48 211.475 172.338 211.429C172.221 211.397 172.111 211.352 172.001 211.313C171.859 211.261 171.723 211.209 171.587 211.151C171.529 211.125 171.464 211.106 171.406 211.08C171.367 211.06 171.334 211.041 171.296 211.022C171.102 210.937 170.914 210.84 170.733 210.737C170.681 210.711 170.629 210.685 170.577 210.659C170.545 210.633 170.506 210.614 170.474 210.594C170.312 210.497 170.157 210.4 170.014 210.297C169.988 210.277 169.975 210.264 169.95 210.245C169.93 210.232 169.911 210.219 169.891 210.206C169.853 210.18 169.827 210.148 169.788 210.122C169.723 210.07 169.652 210.025 169.594 209.973C169.548 209.934 169.51 209.902 169.471 209.863C169.445 209.844 169.419 209.824 169.393 209.798C169.374 209.779 169.354 209.76 169.335 209.74C169.309 209.714 169.277 209.688 169.251 209.663C169.167 209.578 169.082 209.488 169.005 209.397C168.998 209.391 168.985 209.378 168.979 209.371C168.972 209.365 168.972 209.365 168.972 209.365C168.966 209.358 168.959 209.345 168.959 209.345C168.882 209.255 168.804 209.158 168.739 209.067C168.714 209.041 168.701 209.009 168.681 208.983C168.668 208.957 168.649 208.938 168.636 208.918C168.623 208.899 168.61 208.873 168.597 208.854C168.578 208.821 168.558 208.789 168.539 208.757C168.494 208.679 168.448 208.595 168.409 208.511C168.403 208.491 168.39 208.478 168.384 208.459C168.377 208.452 168.377 208.439 168.377 208.439C168.377 208.433 168.377 208.433 168.377 208.433C168.371 208.427 168.364 208.414 168.364 208.407C168.319 208.316 168.28 208.219 168.248 208.122C168.241 208.103 168.235 208.077 168.228 208.051C168.215 208.025 168.209 208.006 168.202 207.98C168.196 207.954 168.189 207.922 168.183 207.896C168.17 207.857 168.157 207.825 168.151 207.786C168.138 207.728 168.131 207.669 168.125 207.611C168.118 207.579 168.105 207.54 168.105 207.501C168.105 207.488 168.105 207.469 168.105 207.456C168.105 207.449 168.105 207.436 168.105 207.43C168.099 207.326 168.099 207.229 168.099 207.126C168.099 207.093 168.099 207.068 168.099 207.042C168.099 207.035 168.099 207.029 168.099 207.029C168.099 207.016 168.099 207.003 168.099 206.99C169.975 174.943 171.846 142.903 173.722 110.856C173.722 110.85 173.722 110.85 173.722 110.85C173.729 110.778 173.735 110.733 173.742 110.675V110.662C173.748 110.636 173.748 110.629 173.748 110.61C173.748 110.584 173.761 110.552 173.761 110.526C173.768 110.513 173.768 110.5 173.768 110.487C173.768 110.474 173.774 110.455 173.774 110.455V110.442C173.787 110.377 173.794 110.345 173.82 110.267C173.845 110.189 173.852 110.157 173.878 110.099C173.891 110.06 173.91 110.028 173.923 109.995C173.93 109.976 173.943 109.95 173.949 109.937C173.955 109.918 173.975 109.892 173.975 109.892V109.879C174.001 109.827 174.02 109.788 174.059 109.723L174.163 109.568C174.175 109.549 174.195 109.529 174.208 109.51C174.221 109.491 174.234 109.471 174.247 109.458L174.305 109.393L174.357 109.329L174.37 109.316L174.434 109.251C174.454 109.232 174.486 109.199 174.486 109.199L174.499 109.186C174.506 109.186 174.518 109.173 174.518 109.173C174.531 109.16 174.544 109.148 174.557 109.135C174.564 109.128 174.57 109.122 174.57 109.122L174.59 109.109C174.596 109.096 174.616 109.083 174.628 109.07C174.654 109.05 174.674 109.031 174.7 109.012L174.764 108.966C174.81 108.934 174.849 108.908 174.887 108.882L175.036 108.792L175.185 108.714C175.191 108.714 175.198 108.714 175.198 108.714C175.204 108.714 175.211 108.714 175.211 108.714L175.36 108.649L175.502 108.597C175.509 108.597 175.509 108.597 175.509 108.597L175.651 108.552L175.735 108.533C175.742 108.533 175.748 108.533 175.748 108.533L175.787 108.52L175.858 108.507C175.852 108.507 175.852 108.507 175.852 108.507C175.871 108.5 175.903 108.494 175.923 108.494C175.968 108.487 176.02 108.481 176.059 108.474H176.072C176.098 108.468 176.123 108.468 176.149 108.468L176.188 108.455H176.318C176.343 108.455 176.376 108.455 176.402 108.455C176.447 108.455 176.486 108.455 176.531 108.455H176.576C176.615 108.462 176.667 108.462 176.706 108.474H176.764C176.803 108.474 176.835 108.487 176.874 108.487L176.971 108.5L177.107 108.533L177.152 108.546C177.165 108.552 177.198 108.559 177.198 108.559L177.243 108.572L177.385 108.617C177.392 108.617 177.392 108.617 177.392 108.617C177.398 108.617 177.398 108.617 177.398 108.617L177.541 108.675L177.689 108.746C177.689 108.753 177.702 108.753 177.702 108.753C177.702 108.759 177.715 108.759 177.715 108.759C177.761 108.785 177.819 108.817 177.864 108.843L177.929 108.882L178.071 108.979L178.214 109.089C178.227 109.102 178.24 109.115 178.253 109.128C178.259 109.141 178.278 109.154 178.278 109.154L178.35 109.219L178.408 109.277L178.511 109.393L178.518 109.413H178.524C178.524 109.419 178.524 109.419 178.524 109.419C178.537 109.432 178.563 109.465 178.563 109.465L178.589 109.503C178.596 109.51 178.608 109.516 178.608 109.523V109.536C178.608 109.529 178.608 109.529 178.608 109.529L178.699 109.665C178.712 109.685 178.718 109.698 178.731 109.717C178.757 109.749 178.777 109.788 178.803 109.827V109.84C178.809 109.859 178.816 109.872 178.822 109.885C178.828 109.905 178.841 109.931 178.854 109.956C178.854 109.963 178.861 109.976 178.861 109.976C178.874 109.995 178.887 110.034 178.887 110.034C178.913 110.092 178.926 110.125 178.951 110.202C178.958 110.215 178.964 110.228 178.964 110.241ZM178.964 110.241C178.964 110.241 178.964 110.241 178.964 110.254V110.241ZM178.57 109.452C178.57 109.452 178.57 109.445 178.563 109.439C178.563 109.439 178.57 109.445 178.576 109.452H178.57Z" stroke="#231F20" stroke-width="1.1584" stroke-miterlimit="10"/>
<path d="M258.085 98.721C258.266 97.8926 258.389 97.2649 258.551 96.3654C258.577 96.2165 258.602 96.0871 258.622 95.9447C259.101 93.2914 259.36 91.2723 259.36 90.9617V90.7934L259.353 90.7546C259.353 90.7158 259.347 90.6769 259.34 90.6381V90.6122L259.308 90.4504V90.4375C259.308 90.4375 259.295 90.3987 259.288 90.3792L259.263 90.2886L259.204 90.1333L259.133 89.9845L259.055 89.8421L258.965 89.6997L258.861 89.5703L258.738 89.4344L258.661 89.3697C258.661 89.3697 258.648 89.3567 258.641 89.3503L258.615 89.3244L258.447 89.195L258.402 89.1626C258.402 89.1626 258.376 89.1497 258.363 89.1432L258.305 89.1108H258.298V89.1044L258.24 89.072L258.091 89.0073C258.091 89.0073 258.098 89.0073 258.104 89.0138L258.072 88.9943L257.916 88.9426H257.897L257.774 88.9037L257.703 88.8908C257.703 88.8908 257.69 88.8908 257.683 88.8908H257.645L257.632 88.8843H257.625H257.619C257.619 88.8843 257.619 88.8843 257.612 88.8843H257.535L257.463 88.8714C257.463 88.8714 257.463 88.8714 257.47 88.8714H257.444H257.347H257.334H257.237H257.205H257.192H257.179C257.179 88.8714 257.179 88.8714 257.185 88.8714L257.082 88.8843C257.082 88.8843 257.069 88.8843 257.056 88.8843H257.049H257.036C257.036 88.8843 257.036 88.8843 257.043 88.8843L256.887 88.9102C256.887 88.9102 256.875 88.9102 256.868 88.9102H256.842H256.855C256.849 88.9102 256.842 88.9102 256.836 88.9102H256.797C256.797 88.9102 256.81 88.9167 256.816 88.9102C256.803 88.9102 256.797 88.9102 256.784 88.9232H256.752C256.752 88.9232 256.758 88.9232 256.765 88.9232C256.752 88.9232 256.732 88.9296 256.719 88.9361H256.7C256.7 88.9361 256.661 88.9555 256.648 88.962C256.564 88.9879 256.48 89.0073 256.389 89.0267C255.509 89.2208 254.571 89.2791 253.335 89.1626C253.283 89.1626 253.225 89.1497 253.173 89.1432C252.823 89.1044 252.474 89.0526 252.124 89.0073C252.053 88.9943 251.995 88.9879 251.924 88.9749C251.904 88.9749 251.891 88.9749 251.872 88.9685C251.788 88.9555 251.704 88.9361 251.62 88.9232C251.354 88.8779 251.095 88.8261 250.83 88.7808C250.177 88.6578 249.458 88.5025 248.656 88.3213C247.886 88.1466 247.116 87.9589 246.345 87.7712C245.291 87.5124 244.132 87.2212 242.825 86.8846C242.825 86.8846 242.812 86.8846 242.806 86.8846C242.475 86.8005 242.035 86.684 241.705 86.5999L240.586 86.3151C240.243 86.2245 239.783 86.1145 239.44 86.0239L238.903 85.888C238.806 85.8621 238.709 85.8427 238.618 85.8168L238.282 85.7327C237.926 85.6421 237.447 85.5321 237.091 85.4415L236.878 85.3897C236.748 85.3574 236.619 85.325 236.489 85.2991L235.894 85.1568C235.674 85.105 235.415 85.0467 235.163 84.9885L234.839 84.9173L234.768 84.9044C234.768 84.9044 234.703 84.8914 234.671 84.8849L234.147 84.7685L233.61 84.652C233.61 84.652 233.642 84.6584 233.661 84.6649L233.448 84.6196C233.072 84.542 232.574 84.4384 232.199 84.3608L231.273 84.1796C231.209 84.1666 231.144 84.1537 231.079 84.1407L230.95 84.1148C230.73 84.0695 230.464 84.0242 230.206 83.9789C230.083 83.9595 229.96 83.9336 229.837 83.9142C229.785 83.9078 229.727 83.8948 229.675 83.8883L229.429 83.8495C229.118 83.7977 228.814 83.746 228.517 83.6942L228.419 83.6813L228.122 83.636H228.096C227.785 83.5842 227.475 83.5389 227.17 83.4936C227.157 83.4936 227.138 83.4936 227.125 83.4936H227.106C226.698 83.4353 226.303 83.3771 225.915 83.3318H225.857C225.857 83.3318 225.844 83.3253 225.837 83.3188C225.831 83.3188 225.824 83.3188 225.818 83.3188C225.805 83.3188 225.798 83.3188 225.786 83.3188C225.688 83.3059 225.585 83.293 225.481 83.28C225.481 83.28 225.468 83.28 225.462 83.28C225.158 83.2412 224.828 83.2088 224.556 83.1765L223.3 83.0535C223.1 83.0341 222.867 83.0212 222.634 83.0017C222.556 83.0017 222.479 82.9888 222.407 82.9823C222.446 82.9823 222.485 82.9888 222.524 82.9953C222.336 82.9823 222.155 82.9694 221.993 82.9564L220.744 82.8917L220.22 82.8723H219.942C219.761 82.8658 219.579 82.8594 219.418 82.8594H219.204H218.978C219.029 82.8594 219.075 82.8594 219.126 82.8594H219.055C218.932 82.8594 218.816 82.8594 218.693 82.8594H218.182C218.052 82.8594 217.91 82.8658 217.761 82.8723L217.353 82.8853L217.146 82.8982C217.049 82.8982 216.952 82.9047 216.861 82.9111L216.505 82.937L216.143 82.9564C216.201 82.9564 216.26 82.9564 216.318 82.95L215.658 82.9953C215.541 83.0017 215.418 83.0147 215.282 83.0276L214.875 83.0665L214.642 83.0923C214.532 83.1053 214.428 83.1118 214.331 83.1247L214.04 83.1635L213.697 83.2024C213.749 83.1959 213.807 83.1894 213.859 83.1829C213.619 83.2153 213.386 83.2477 213.16 83.28C213.16 83.28 213.16 83.28 213.153 83.28C213.153 83.28 213.153 83.28 213.16 83.28C213.16 83.28 213.16 83.28 213.153 83.28C213.14 83.28 213.134 83.28 213.121 83.28C213.121 83.28 212.875 83.3189 212.558 83.3706L212.37 83.403C212.312 83.4159 212.234 83.4289 212.17 83.4418L212.105 83.4548C212.105 83.4548 212.047 83.4677 212.021 83.4677H211.975C211.937 83.4871 211.885 83.4936 211.839 83.5001C211.814 83.5001 211.781 83.513 211.755 83.513C211.044 83.6554 210.435 83.7977 209.905 83.9466C209.879 83.9531 209.846 83.9595 209.827 83.966C209.277 84.1148 209.05 84.1731 208.636 84.3284L208.526 84.3608C208.481 84.3802 208.429 84.3996 208.377 84.419C208.319 84.4384 208.261 84.4578 208.203 84.4837C208.19 84.4837 208.17 84.4967 208.151 84.5031C208.138 84.5031 208.125 84.5161 208.112 84.5225C208.086 84.5355 208.047 84.5484 208.021 84.5549L208.086 84.529C207.847 84.6196 207.614 84.7167 207.381 84.8202L207.161 84.9173C206.979 85.0014 206.74 85.1179 206.565 85.2021L207.141 84.9302L206.319 85.325L205.109 86.011C204.799 86.1857 204.404 86.4575 204.113 86.6646C203.893 86.8199 203.491 87.1047 202.935 87.5447C201.873 88.3407 200.793 89.305 199.718 90.4698C199.032 91.1817 198.34 91.9712 197.628 92.8449C195.758 95.0258 194.101 97.4073 192.645 99.8276C189.034 105.665 186.607 111.599 185.384 114.958C184.866 116.2 184.504 117.119 184.29 117.838C184.271 117.89 184.258 117.935 184.245 117.961L184.226 118.019C184.213 118.058 184.2 118.103 184.18 118.161L184.167 118.2V118.232C184.167 118.232 184.148 118.284 184.142 118.31L184.129 118.381V118.446C184.129 118.446 184.116 118.478 184.109 118.498V118.485V118.504C184.109 118.517 184.109 118.524 184.109 118.537V118.55L184.103 118.614V118.647C183.928 119.669 184.187 120.232 184.815 121.009C184.815 121.009 184.815 121.009 184.815 121.015L184.938 121.164L185.073 121.306L185.235 121.462L185.293 121.507C189.409 125.772 202.495 133.906 216.577 135.57C219.12 135.958 221.702 136.113 224.271 135.977C224.517 135.977 224.757 135.964 224.977 135.958C224.977 135.958 225.022 135.958 225.08 135.951C225.889 135.919 226.646 135.861 227.352 135.783H227.371L227.436 135.777H227.5L227.572 135.764H227.643L227.714 135.751H227.785V135.744C227.902 135.731 227.999 135.718 228.057 135.712C228.148 135.699 228.238 135.699 228.329 135.673C228.329 135.673 228.497 135.647 228.691 135.621H228.724C228.724 135.621 228.743 135.615 228.756 135.608C229.073 135.557 229.474 135.492 229.565 135.473C229.63 135.46 229.701 135.447 229.772 135.434C230.219 135.35 230.581 135.272 230.956 135.181C231.215 135.123 231.467 135.058 231.688 135C232.063 134.89 232.477 134.761 232.898 134.618C233.144 134.541 233.409 134.456 233.707 134.366C233.972 134.262 234.276 134.139 234.58 134.016C234.949 133.874 235.305 133.732 235.629 133.596L235.849 133.499C235.849 133.499 235.868 133.486 235.881 133.486C236.593 133.169 236.929 133.013 237.499 132.69C237.518 132.677 237.538 132.664 237.564 132.657C237.687 132.586 237.829 132.509 237.984 132.412C238.288 132.243 238.586 132.069 238.877 131.894C239.013 131.81 239.149 131.726 239.285 131.635C239.389 131.577 239.486 131.512 239.596 131.447L239.719 131.357C240.029 131.15 240.32 130.949 240.605 130.742C240.644 130.716 240.676 130.69 240.715 130.664C240.858 130.561 241 130.457 241.142 130.354C241.175 130.328 241.207 130.308 241.239 130.282L241.298 130.244C241.298 130.244 241.311 130.237 241.311 130.231C242.831 129.085 244.469 127.597 246.132 125.636C246.798 124.859 247.491 123.979 248.345 122.788C250.157 120.258 251.542 117.553 251.555 117.527C251.594 117.449 251.639 117.365 251.678 117.281C252.002 116.66 252.312 116.039 252.603 115.43C252.687 115.256 252.759 115.094 252.836 114.932C254.195 112.007 255.173 109.282 255.871 107.069C255.943 106.843 256.014 106.616 256.091 106.37C256.091 106.37 256.091 106.364 256.091 106.357C256.493 105.05 256.92 103.562 257.282 102.112C257.567 100.98 257.826 99.8341 258.059 98.7274L258.085 98.721ZM213.05 83.3059C213.05 83.3059 213.004 83.3189 212.985 83.3253C213.004 83.3124 213.03 83.3124 213.05 83.3059ZM213.05 83.3059C213.05 83.3059 213.082 83.293 213.101 83.293C213.082 83.293 213.069 83.2994 213.05 83.3059ZM213.101 83.293C213.101 83.293 213.127 83.2865 213.134 83.28C213.134 83.28 213.108 83.2865 213.101 83.293ZM213.16 83.2735C213.16 83.2735 213.147 83.2735 213.14 83.2735C213.14 83.2735 213.153 83.2735 213.16 83.2735Z" fill="#01656B"/>
<path d="M222.459 136.631C220.544 136.631 218.55 136.476 216.518 136.165C202.773 134.541 189.558 126.736 184.925 121.954L184.536 121.579L184.349 121.346C184.265 121.242 184.18 121.132 184.109 121.029L183.546 123.274V119.831C183.469 119.462 183.462 119.055 183.546 118.563L183.611 117.981H183.656C183.676 117.922 183.682 117.883 183.695 117.851L183.734 117.748L184.711 113.845V115.133C184.763 115.01 184.815 114.881 184.873 114.745C186.005 111.651 188.471 105.529 192.179 99.5368C193.771 96.8964 195.467 94.5214 197.214 92.4764C197.919 91.6092 198.631 90.8003 199.324 90.0755C200.34 88.9689 201.446 87.9593 202.605 87.0857C203.161 86.6456 203.575 86.3544 203.795 86.1991C204.106 85.979 204.507 85.7072 204.837 85.5196L206.339 84.6912L207.167 84.3029C207.394 84.1994 207.62 84.1088 207.847 84.0182C207.847 84.0182 207.847 84.0182 207.853 84.0182L207.918 83.9923L208.131 84.5294L207.918 83.9858L208.461 83.7852C208.882 83.6299 209.134 83.5587 209.678 83.4099L209.911 83.947L209.756 83.3904C210.338 83.2287 210.953 83.0863 211.645 82.9504L211.865 82.9051L212.079 83.4552L211.969 82.8857L212.461 82.7951C212.72 82.7498 212.894 82.7174 213.017 82.7045L213.108 82.6915C213.263 82.6656 213.438 82.6462 213.626 82.6203L215.606 82.4003L216.111 82.3679L217.741 82.2903C217.89 82.2903 218.039 82.2838 218.169 82.2773H218.978H219.204H219.405L220.744 82.3097L222.433 82.4003L222.634 82.4132C222.893 82.4327 223.132 82.4521 223.333 82.465L225.915 82.7368L225.902 83.3193L225.973 82.7433C226.361 82.7886 226.763 82.8468 227.17 82.9051H227.229C227.533 82.9568 227.843 83.0022 228.161 83.0539L228.588 83.1251C228.885 83.1704 229.19 83.2222 229.5 83.2804L232.658 83.8823C232.956 83.947 233.28 84.0117 233.538 84.0635L233.707 84.1023L239.783 85.539L242.922 86.3414C244.242 86.6779 245.401 86.9756 246.449 87.2345C247.213 87.4222 247.983 87.6034 248.753 87.7846C249.542 87.9658 250.261 88.1146 250.908 88.244C251.167 88.2894 251.426 88.3411 251.684 88.3864L252.176 88.4641C252.513 88.5094 252.862 88.5547 253.205 88.6L253.38 88.6194C253.781 88.6582 254.15 88.6776 254.499 88.6776H254.506L253.199 88.3347L256.9 88.3152V88.3347H256.933V88.3152L257.082 88.3023V88.3411H257.12V88.3023H257.269H257.282H257.47L258.855 88.82L258.939 88.8847L259.683 89.8619L259.838 90.3085L259.897 90.5997C259.897 90.5997 259.91 90.6838 259.91 90.7291L259.923 90.975C259.923 91.3762 259.644 93.4989 259.178 96.0745L259.107 96.4952C258.945 97.4141 258.822 98.0354 258.641 98.8702C258.389 100.074 258.13 101.219 257.858 102.281C257.45 103.924 256.978 105.503 256.661 106.545L256.434 107.264C255.554 110.059 254.525 112.726 253.373 115.198C253.283 115.398 253.212 115.547 253.14 115.709C252.843 116.343 252.526 116.971 252.209 117.579L252.092 117.812C252.034 117.929 250.655 120.614 248.837 123.151C248.022 124.29 247.31 125.209 246.591 126.037C245.077 127.824 243.42 129.403 241.679 130.723L241.537 130.826C241.369 130.956 241.22 131.059 241.078 131.169L240.961 131.254C240.676 131.461 240.379 131.668 240.062 131.881L239.563 132.198C239.44 132.276 239.324 132.354 239.201 132.431C238.903 132.613 238.599 132.787 238.288 132.962C238.14 133.053 237.997 133.13 237.868 133.208L237.518 132.735L237.803 133.24C237.214 133.57 236.871 133.732 236.14 134.062L235.888 134.179C235.551 134.321 235.189 134.47 234.807 134.612L233.94 134.962L233.085 135.233C232.665 135.376 232.244 135.505 231.862 135.615C231.636 135.68 231.37 135.745 231.105 135.809C230.73 135.9 230.354 135.984 229.901 136.068L229.707 136.107C229.61 136.127 229.202 136.198 228.872 136.249L228.808 136.262C228.685 136.282 228.568 136.301 228.491 136.308C228.413 136.327 228.329 136.34 228.251 136.347H228.186C228.115 136.366 228.005 136.379 227.876 136.392L227.442 136.437C226.679 136.521 225.921 136.573 225.132 136.605H225.002C224.802 136.618 224.562 136.625 224.31 136.631C223.702 136.664 223.087 136.683 222.459 136.683V136.631ZM228.633 135.059L228.788 135.622L228.698 135.046C229.008 134.994 229.397 134.929 229.487 134.91L229.694 134.871C230.134 134.787 230.49 134.716 230.853 134.625C231.112 134.567 231.351 134.509 231.565 134.444C231.933 134.34 232.335 134.211 232.749 134.075L233.571 133.816L234.399 133.48C234.774 133.337 235.124 133.195 235.441 133.059L235.648 132.968C236.399 132.632 236.709 132.49 237.253 132.179L237.602 132.651L237.318 132.147C237.441 132.075 237.577 131.998 237.732 131.907C238.036 131.732 238.334 131.571 238.612 131.396C238.728 131.325 238.845 131.254 238.955 131.176L239.421 130.885C239.738 130.671 240.023 130.47 240.308 130.27L240.424 130.186C240.56 130.089 240.696 129.985 240.832 129.882L241.026 129.739C242.676 128.49 244.268 126.976 245.731 125.248C246.423 124.439 247.116 123.546 247.912 122.439C249.678 119.974 251.018 117.366 251.076 117.256L251.199 117.016C251.516 116.414 251.82 115.8 252.118 115.178C252.189 115.023 252.26 114.881 252.325 114.738L252.351 114.68C253.477 112.26 254.487 109.632 255.354 106.888L255.58 106.164C255.904 105.122 256.357 103.575 256.758 101.97C257.023 100.928 257.282 99.7956 257.528 98.6049C257.709 97.7765 257.826 97.1682 257.988 96.2622L258.059 95.848C258.538 93.1818 258.784 91.2145 258.784 90.9685L258.738 90.5608L258.551 90.1208L258.272 89.7972L257.852 89.5383L257.502 89.4477V89.4348H257.483L257.457 89.4477H257.399H257.321H257.23H257.185H257.179H257.12V89.4219H257.114V89.4413L256.836 89.5189C256.732 89.5513 256.661 89.5707 256.59 89.5836L256.519 89.6031C255.522 89.8231 254.525 89.8684 253.27 89.7519L253.108 89.7325C252.746 89.6872 252.39 89.6419 252.04 89.5966L251.516 89.5125C251.251 89.4672 250.985 89.4154 250.72 89.3701C250.067 89.2471 249.348 89.0918 248.52 88.9041C247.743 88.7229 246.973 88.5417 246.203 88.3541C245.142 88.0952 243.983 87.7975 242.676 87.461L234.639 85.4807L234.664 84.8918L234.541 85.4613L233.532 85.2413L233.318 85.196C233.066 85.1442 232.742 85.073 232.451 85.0148L229.332 84.4259C229.021 84.3741 228.724 84.3223 228.426 84.2706L228.031 84.2058C227.695 84.1541 227.39 84.1088 227.093 84.0635L227.119 83.481L227.035 84.057C226.633 83.9988 226.239 83.947 225.857 83.8952H225.798V83.2998L225.727 83.8758L224.504 83.7334L223.255 83.6169C223.061 83.604 222.835 83.5846 222.602 83.5652H222.492V83.5587L219.418 83.4293H219.223H219.152H218.207C218.091 83.4293 217.949 83.4293 217.806 83.4422L214.422 83.6817L213.969 83.7399C213.755 83.7723 213.548 83.7981 213.347 83.824L213.27 83.8434H213.263V83.8499L213.186 83.8693V83.8499C213.095 83.8629 212.914 83.8952 212.7 83.9276L211.911 84.0764C211.244 84.2058 210.655 84.3482 210.105 84.4971L210.021 84.5165C209.477 84.6653 209.277 84.7171 208.882 84.8659L208.351 85.0601C208.125 85.1507 207.898 85.2413 207.672 85.3448L206.623 85.8431L205.446 86.5097C205.154 86.678 204.766 86.9433 204.494 87.131C204.281 87.2798 203.886 87.5581 203.342 87.9852C202.229 88.8265 201.174 89.7843 200.197 90.8521C199.518 91.5639 198.825 92.347 198.133 93.2012C196.418 95.2074 194.755 97.5306 193.195 100.119C189.539 106.034 187.105 112.072 185.979 115.146C185.41 116.511 185.086 117.359 184.899 117.993L184.828 118.201C184.828 118.201 184.808 118.272 184.795 118.317L184.776 118.375H184.737V118.783L184.705 118.815C184.588 119.579 184.769 119.967 185.313 120.64L185.766 121.106C189.649 125.131 202.708 133.344 216.7 135.001C219.34 135.402 221.89 135.538 224.297 135.402C224.556 135.402 224.795 135.389 225.009 135.382H225.106C225.883 135.343 226.607 135.292 227.352 135.208L227.785 135.162C227.895 135.149 227.979 135.143 228.031 135.13C228.076 135.123 228.128 135.117 228.174 135.111C228.193 135.111 228.219 135.111 228.238 135.104L228.394 135.085C228.394 135.085 228.504 135.065 228.665 135.039L228.633 135.059Z" fill="#231F20"/>
<path d="M251.963 104.422C252.144 103.594 252.267 102.966 252.429 102.067C252.454 101.918 252.48 101.788 252.5 101.646C252.979 98.9926 253.238 96.9735 253.238 96.6628V96.4946L253.231 96.4558C253.231 96.4169 253.225 96.3781 253.218 96.3393V96.3134L253.186 96.1516V96.1387C253.186 96.1387 253.173 96.0998 253.166 96.0804L253.14 95.9898L253.082 95.8345L253.011 95.6856L252.933 95.5433L252.843 95.4009L252.739 95.2715L252.616 95.1356L252.539 95.0709C252.539 95.0709 252.526 95.0579 252.519 95.0514L252.493 95.0256L252.325 94.8961L252.28 94.8638C252.28 94.8638 252.254 94.8508 252.241 94.8444L252.183 94.812H252.176V94.8055L252.118 94.7732L251.969 94.7085C251.969 94.7085 251.976 94.7085 251.982 94.7149L251.95 94.6955L251.794 94.6437H251.775L251.652 94.6049L251.581 94.592C251.581 94.592 251.568 94.592 251.561 94.592H251.523L251.51 94.5855H251.503H251.497C251.497 94.5855 251.497 94.5855 251.49 94.5855H251.413L251.341 94.5726C251.341 94.5726 251.341 94.5726 251.348 94.5726H251.322H251.225H251.212H251.115H251.083H251.07H251.057C251.057 94.5726 251.057 94.5726 251.063 94.5726L250.96 94.5855C250.96 94.5855 250.947 94.5855 250.934 94.5855H250.927H250.914C250.914 94.5855 250.914 94.5855 250.921 94.5855L250.765 94.6114C250.765 94.6114 250.752 94.6114 250.746 94.6114H250.72H250.733C250.727 94.6114 250.72 94.6114 250.714 94.6114H250.675C250.675 94.6114 250.688 94.6179 250.694 94.6114C250.681 94.6114 250.675 94.6114 250.662 94.6243H250.63C250.63 94.6243 250.636 94.6243 250.642 94.6243C250.63 94.6243 250.61 94.6308 250.597 94.6373H250.578C250.578 94.6373 250.539 94.6567 250.526 94.6632C250.442 94.689 250.358 94.7085 250.267 94.7279C249.387 94.922 248.449 94.9803 247.213 94.8638C247.161 94.8638 247.103 94.8508 247.051 94.8444C246.701 94.8055 246.352 94.7538 246.002 94.7085C245.931 94.6955 245.873 94.689 245.802 94.6761C245.782 94.6761 245.769 94.6761 245.75 94.6696C245.666 94.6567 245.582 94.6373 245.498 94.6243C245.232 94.579 244.973 94.5273 244.708 94.482C244.054 94.359 243.336 94.2037 242.534 94.0225C241.764 93.8477 240.993 93.6601 240.223 93.4724C239.169 93.2135 238.01 92.9223 236.703 92.5858C236.703 92.5858 236.69 92.5858 236.683 92.5858C236.353 92.5017 235.913 92.3852 235.583 92.3011L234.464 92.0163C234.121 91.9257 233.661 91.8157 233.318 91.7251L232.781 91.5892C232.684 91.5633 232.587 91.5439 232.496 91.518L232.16 91.4339C231.804 91.3433 231.325 91.2333 230.969 91.1427L230.756 91.0909C230.626 91.0585 230.497 91.0262 230.367 91.0003L229.772 90.8579C229.552 90.8062 229.293 90.7479 229.041 90.6897L228.717 90.6185L228.646 90.6055C228.646 90.6055 228.581 90.5926 228.549 90.5861L228.025 90.4696L227.487 90.3531C227.487 90.3531 227.52 90.3596 227.539 90.3661L227.326 90.3208C226.95 90.2431 226.452 90.1396 226.077 90.0619L225.151 89.8807C225.087 89.8678 225.022 89.8548 224.957 89.8419L224.828 89.816C224.608 89.7707 224.342 89.7254 224.083 89.6801C223.961 89.6607 223.838 89.6348 223.715 89.6154C223.663 89.6089 223.605 89.596 223.553 89.5895L223.307 89.5507C222.996 89.4989 222.692 89.4471 222.394 89.3954L222.297 89.3824L222 89.3371H221.974C221.663 89.2854 221.353 89.2401 221.048 89.1948C221.035 89.1948 221.016 89.1948 221.003 89.1948H220.984C220.576 89.1365 220.181 89.0783 219.793 89.033H219.735C219.735 89.033 219.722 89.0265 219.715 89.02C219.709 89.02 219.702 89.02 219.696 89.02C219.683 89.02 219.676 89.02 219.663 89.02C219.566 89.0071 219.463 88.9941 219.359 88.9812C219.359 88.9812 219.346 88.9812 219.34 88.9812C219.036 88.9424 218.706 88.91 218.434 88.8777L217.178 88.7547C216.978 88.7353 216.745 88.7223 216.512 88.7029C216.434 88.7029 216.357 88.69 216.285 88.6835C216.324 88.6835 216.363 88.69 216.402 88.6964C216.214 88.6835 216.033 88.6706 215.871 88.6576L214.622 88.5929L214.098 88.5735H213.82C213.639 88.567 213.457 88.5605 213.296 88.5605H213.082H212.855C212.907 88.5605 212.953 88.5605 213.004 88.5605H212.933C212.81 88.5605 212.694 88.5605 212.571 88.5605H212.059C211.93 88.5605 211.788 88.567 211.639 88.5735L211.231 88.5864L211.024 88.5994C210.927 88.5994 210.83 88.6058 210.739 88.6123L210.383 88.6382L210.021 88.6576C210.079 88.6576 210.137 88.6576 210.196 88.6511L209.536 88.6964C209.419 88.7029 209.296 88.7159 209.16 88.7288L208.753 88.7676L208.52 88.7935C208.41 88.8065 208.306 88.8129 208.209 88.8259L207.918 88.8647L207.575 88.9035C207.627 88.8971 207.685 88.8906 207.737 88.8841C207.497 88.9165 207.264 88.9488 207.038 88.9812C207.038 88.9812 207.038 88.9812 207.031 88.9812C207.031 88.9812 207.031 88.9812 207.038 88.9812C207.038 88.9812 207.038 88.9812 207.031 88.9812C207.018 88.9812 207.012 88.9812 206.999 88.9812C206.999 88.9812 206.753 89.02 206.436 89.0718L206.248 89.1042C206.19 89.1171 206.112 89.13 206.047 89.143L205.983 89.1559C205.983 89.1559 205.925 89.1689 205.899 89.1689H205.853C205.814 89.1883 205.763 89.1948 205.717 89.2012C205.692 89.2012 205.659 89.2142 205.633 89.2142C204.921 89.3565 204.313 89.4989 203.782 89.6478C203.757 89.6542 203.724 89.6607 203.705 89.6672C203.155 89.816 202.928 89.8743 202.514 90.0296L202.404 90.0619C202.359 90.0813 202.307 90.1008 202.255 90.1202C202.197 90.1396 202.139 90.159 202.08 90.1849C202.068 90.1849 202.048 90.1978 202.029 90.2043C202.016 90.2043 202.003 90.2172 201.99 90.2237C201.964 90.2367 201.925 90.2496 201.899 90.2561L201.964 90.2302C201.725 90.3208 201.492 90.4179 201.259 90.5214L201.039 90.6185C200.857 90.7026 200.618 90.8191 200.443 90.9032L201.019 90.6314L200.197 91.0262L198.987 91.7122C198.676 91.8869 198.282 92.1587 197.99 92.3658C197.77 92.5211 197.369 92.8058 196.813 93.2459C195.751 94.0419 194.671 95.0061 193.596 96.171C192.91 96.8829 192.218 97.6724 191.506 98.546C189.636 100.727 187.979 103.108 186.523 105.529C182.912 111.366 180.485 117.3 179.262 120.659C178.744 121.902 178.382 122.821 178.168 123.539C178.149 123.591 178.136 123.636 178.123 123.662L178.104 123.72C178.091 123.759 178.078 123.804 178.058 123.862L178.045 123.901V123.934C178.045 123.934 178.026 123.985 178.019 124.011L178.007 124.083V124.147C178.007 124.147 177.994 124.18 177.987 124.199V124.186V124.205C177.987 124.218 177.987 124.225 177.987 124.238V124.251L177.981 124.315V124.348C177.806 125.37 178.065 125.933 178.693 126.71C178.693 126.71 178.693 126.71 178.693 126.716L178.815 126.865L178.951 127.008L179.113 127.163L179.171 127.208C183.287 131.473 196.373 139.608 210.455 141.271C212.998 141.659 215.58 141.814 218.149 141.678C218.395 141.678 218.635 141.666 218.855 141.659C218.855 141.659 218.9 141.659 218.958 141.653C219.767 141.62 220.524 141.562 221.23 141.484H221.249L221.314 141.478H221.378L221.45 141.465H221.521L221.592 141.452H221.663V141.445C221.78 141.433 221.877 141.42 221.935 141.413C222.026 141.4 222.116 141.4 222.207 141.374C222.207 141.374 222.375 141.348 222.569 141.323H222.602C222.602 141.323 222.621 141.316 222.634 141.31C222.951 141.258 223.352 141.193 223.443 141.174C223.508 141.161 223.579 141.148 223.65 141.135C224.096 141.051 224.459 140.973 224.834 140.882C225.093 140.824 225.345 140.76 225.565 140.701C225.941 140.591 226.355 140.462 226.776 140.319C227.022 140.242 227.287 140.158 227.585 140.067C227.85 139.964 228.154 139.841 228.458 139.718C228.827 139.575 229.183 139.433 229.507 139.297L229.727 139.2C229.727 139.2 229.746 139.187 229.759 139.187C230.471 138.87 230.807 138.715 231.377 138.391C231.396 138.378 231.416 138.365 231.442 138.359C231.565 138.287 231.707 138.21 231.862 138.113C232.166 137.944 232.464 137.77 232.755 137.595C232.891 137.511 233.027 137.427 233.163 137.336C233.267 137.278 233.364 137.213 233.474 137.148L233.597 137.058C233.907 136.851 234.198 136.65 234.483 136.443C234.522 136.417 234.554 136.391 234.593 136.365C234.736 136.262 234.878 136.158 235.02 136.055C235.053 136.029 235.085 136.009 235.117 135.984L235.176 135.945C235.176 135.945 235.189 135.938 235.189 135.932C236.709 134.786 238.347 133.298 240.01 131.337C240.676 130.56 241.369 129.68 242.223 128.49C244.035 125.959 245.42 123.254 245.433 123.228C245.472 123.151 245.517 123.066 245.556 122.982C245.879 122.361 246.19 121.74 246.481 121.132C246.565 120.957 246.637 120.795 246.714 120.633C248.073 117.708 249.05 114.984 249.749 112.77C249.821 112.544 249.892 112.317 249.969 112.071C249.969 112.071 249.969 112.065 249.969 112.058C250.371 110.751 250.798 109.263 251.16 107.813C251.445 106.681 251.704 105.535 251.937 104.429L251.963 104.422ZM206.928 89.0071C206.928 89.0071 206.882 89.02 206.863 89.0265C206.882 89.0136 206.908 89.0136 206.928 89.0071ZM206.928 89.0071C206.928 89.0071 206.96 88.9941 206.979 88.9941C206.979 88.9941 206.947 89.0006 206.928 89.0071ZM206.979 88.9941C206.979 88.9941 207.005 88.9877 207.012 88.9812C207.012 88.9812 206.986 88.9877 206.979 88.9941ZM207.038 88.9747C207.038 88.9747 207.025 88.9747 207.018 88.9747C207.018 88.9747 207.031 88.9747 207.038 88.9747Z" fill="#45BA9B"/>
<path d="M216.337 142.327C214.422 142.327 212.428 142.171 210.396 141.861C196.651 140.236 183.436 132.432 178.809 127.649L178.582 127.442L178.239 127.041C177.579 126.219 177.223 125.488 177.431 124.252L177.443 124.155L177.935 124.194L177.443 124.142L177.67 124.161L177.443 124.135L177.521 123.747C177.534 123.708 177.541 123.669 177.554 123.643L177.657 123.346C177.851 122.699 178.181 121.825 178.757 120.44C179.89 117.347 182.355 111.218 186.064 105.232C187.655 102.592 189.351 100.21 191.098 98.1717C191.797 97.311 192.516 96.4956 193.208 95.7708C194.231 94.6577 195.337 93.6546 196.489 92.781C197.065 92.3215 197.499 92.0173 197.686 91.8879C197.971 91.6873 198.392 91.4025 198.728 91.2084L200.23 90.38L201.051 89.9917C201.278 89.8882 201.504 89.7976 201.731 89.707L202.352 89.474C202.773 89.3187 203.025 89.2475 203.569 89.0987L203.653 89.0793C204.229 88.9175 204.85 88.7751 205.536 88.6392L205.756 88.5939L205.924 89.1505L205.814 88.581L206.345 88.4839C206.61 88.4386 206.785 88.4062 206.915 88.3933H206.953L211.192 87.5391L210.176 88.0438L212.868 87.9597H213.095H213.295L214.635 87.9921L216.318 88.0827L216.551 88.1021C216.784 88.1215 217.023 88.1344 217.224 88.1539L219.728 88.4192L219.715 89.0016L219.786 88.4257V89.0146L219.858 88.4386C220.246 88.4839 220.647 88.5421 221.055 88.6004H221.113C221.417 88.6522 221.728 88.6975 222.045 88.7492L222.472 88.8204C222.77 88.8657 223.074 88.9175 223.385 88.9757L224.161 89.1116C224.42 89.1569 224.685 89.2087 224.912 89.2475L227.578 89.7911L234.58 91.4608L236.8 92.0303C238.12 92.3668 239.272 92.6645 240.327 92.9233C241.091 93.111 241.861 93.2922 242.631 93.4734C243.42 93.6546 244.139 93.8035 244.786 93.9329C245.045 93.9782 245.303 94.03 245.562 94.0753L246.054 94.1529C246.417 94.2047 246.747 94.25 247.083 94.2888L247.277 94.3147C248.41 94.4118 249.264 94.3729 250.099 94.1853L250.144 94.1723C250.202 94.1594 250.261 94.1464 250.319 94.127L250.422 94.0882L250.532 94.4182L250.461 94.0753L250.558 94.36L250.539 94.1853L250.494 94.0623H250.507L250.772 94.0105V94.0429H250.804V94.0041L250.979 93.9847H251.005H251.141V94.0105L251.154 93.9847V94.0105L251.18 93.9847H251.335L252.7 94.4441H252.707V94.483L253.626 95.7514L253.697 95.9843L253.755 96.282C253.755 96.282 253.768 96.3662 253.768 96.4179L253.781 96.6574C253.781 97.0586 253.503 99.1813 253.037 101.757L252.966 102.178C252.804 103.084 252.681 103.711 252.5 104.553C252.247 105.756 251.988 106.902 251.717 107.963C251.303 109.626 250.837 111.199 250.519 112.228C250.435 112.487 250.364 112.726 250.293 112.946C249.413 115.735 248.384 118.408 247.232 120.88C247.161 121.042 247.083 121.21 246.999 121.385C246.695 122.019 246.378 122.653 246.067 123.255L245.951 123.488C245.951 123.488 244.54 126.251 242.695 128.827C241.88 129.966 241.168 130.885 240.456 131.713C238.942 133.506 237.285 135.079 235.544 136.392L235.409 136.489C235.24 136.612 235.104 136.716 234.968 136.813L234.865 136.884C234.528 137.124 234.231 137.337 233.92 137.544L233.81 137.622L233.461 137.835C233.338 137.913 233.202 138.004 233.059 138.088C232.762 138.269 232.458 138.444 232.147 138.618L231.733 138.858L231.383 138.392L231.668 138.897C231.105 139.214 230.743 139.382 230.102 139.673L230.005 139.77H229.888L229.752 139.835C229.416 139.977 229.054 140.126 228.672 140.269L227.805 140.618L226.95 140.883C226.53 141.026 226.109 141.155 225.727 141.265C225.501 141.33 225.235 141.395 224.97 141.459C224.595 141.55 224.219 141.634 223.76 141.718L223.559 141.757C223.469 141.777 223.061 141.841 222.731 141.899L222.666 141.912C222.537 141.932 222.427 141.951 222.343 141.958C222.265 141.977 222.181 141.99 222.103 141.997H222.038C221.967 142.016 221.864 142.029 221.728 142.042L221.294 142.087C220.524 142.171 219.767 142.223 218.984 142.255H218.874C218.654 142.268 218.408 142.281 218.162 142.281C217.554 142.314 216.939 142.333 216.311 142.333L216.337 142.327ZM222.511 140.754L222.666 141.317L222.576 140.741C222.886 140.689 223.268 140.625 223.359 140.605L223.566 140.566C224.006 140.482 224.362 140.411 224.724 140.32C224.983 140.262 225.222 140.204 225.436 140.139C225.805 140.036 226.206 139.906 226.62 139.77L227.442 139.512L228.271 139.175C228.639 139.033 228.989 138.89 229.306 138.754L229.545 138.644C230.238 138.334 230.568 138.185 231.118 137.874L231.157 137.926L231.215 137.9L231.183 137.842L231.597 137.602C231.901 137.428 232.199 137.259 232.477 137.091C232.606 137.007 232.742 136.923 232.872 136.839L233.286 136.573C233.603 136.36 233.888 136.159 234.173 135.959L234.283 135.881C234.438 135.765 234.567 135.674 234.697 135.577L234.865 135.454C236.541 134.185 238.133 132.671 239.602 130.943C240.295 130.134 240.987 129.248 241.783 128.135C243.576 125.63 244.928 122.977 244.941 122.951L245.064 122.705C245.375 122.11 245.685 121.488 245.983 120.867C246.067 120.699 246.138 120.537 246.209 120.375C247.342 117.942 248.352 115.321 249.219 112.577C249.29 112.351 249.361 112.124 249.439 111.885C249.756 110.849 250.215 109.296 250.623 107.659C250.888 106.611 251.147 105.478 251.393 104.294C251.574 103.459 251.697 102.844 251.853 101.951L251.924 101.537C252.403 98.8706 252.649 96.9033 252.649 96.6574V96.4956C252.642 96.4632 252.636 96.4373 252.636 96.4115L252.526 96.0167L252.273 95.6155L252.137 95.486L251.723 95.2272L251.354 95.1301V95.1042L251.328 95.1301H251.27H251.186H251.095V95.0654H251.082V95.1236L250.979 95.1366V95.1107H250.972V95.1366L250.843 95.1625L250.701 95.2142C250.591 95.2466 250.513 95.266 250.442 95.2854L250.384 95.2984C249.387 95.5184 248.39 95.5637 247.135 95.4472L246.967 95.4278C246.617 95.389 246.281 95.3437 245.938 95.2984L245.375 95.2078C245.109 95.1625 244.844 95.1107 244.579 95.0654C243.919 94.936 243.187 94.7806 242.378 94.5994C241.602 94.4182 240.832 94.237 240.062 94.0494C239 93.7905 237.842 93.4928 236.535 93.1563L227.39 90.9366L224.692 90.3865C224.472 90.3477 224.213 90.2959 223.954 90.2506L223.184 90.1147C222.873 90.0629 222.576 90.0112 222.278 89.9594L221.883 89.8947C221.547 89.8429 221.242 89.7976 220.945 89.7523L220.971 89.1699L220.887 89.7458C220.485 89.6876 220.091 89.6358 219.709 89.5905H219.644V88.9951L219.573 89.5711L218.35 89.4287L217.101 89.3122C216.907 89.2928 216.674 89.2799 216.447 89.2605H216.337V89.254L213.263 89.1246H213.069H212.998L210.228 89.2087L209.561 89.254C209.458 89.2605 209.335 89.2734 209.206 89.2864L207.801 89.4417C207.594 89.4676 207.4 89.4999 207.206 89.5258L207.167 89.5452H207.102H207.096L207.012 89.5711V89.5517L206.869 89.5776C206.779 89.5905 206.662 89.6099 206.533 89.6358L205.743 89.7847C205.083 89.9141 204.494 90.0565 203.938 90.2053L203.847 90.2312C203.31 90.3736 203.109 90.4318 202.715 90.5807L202.184 90.7748C201.957 90.8654 201.731 90.956 201.504 91.0595L200.456 91.5579L199.278 92.2244C198.987 92.3927 198.599 92.658 198.327 92.8457C198.152 92.9686 197.738 93.2598 197.175 93.6999C196.062 94.5347 195.007 95.499 194.03 96.5668C193.344 97.2786 192.651 98.0682 191.966 98.9159C190.251 100.916 188.587 103.239 187.028 105.834C183.371 111.742 180.938 117.787 179.812 120.861C179.243 122.226 178.919 123.074 178.731 123.708L178.582 124.239H178.576L178.563 124.394C178.421 125.261 178.595 125.656 179.152 126.349L179.605 126.814C183.488 130.84 196.547 139.052 210.539 140.709C213.179 141.11 215.729 141.246 218.136 141.11C218.389 141.11 218.622 141.097 218.835 141.091H218.939C219.715 141.052 220.446 141 221.184 140.916L221.618 140.871C221.728 140.858 221.812 140.851 221.864 140.838C221.909 140.832 221.961 140.825 222.006 140.819C222.032 140.819 222.051 140.819 222.077 140.812L222.226 140.793C222.226 140.793 222.336 140.773 222.498 140.748L222.511 140.754ZM231.448 138.327L231.461 138.347L231.448 138.321V138.327ZM178.039 124.2L178.142 124.213H178.155L178.039 124.2Z" fill="#231F20"/>
</svg>
