<svg width="374" height="373" viewBox="0 0 374 373" fill="none" xmlns="http://www.w3.org/2000/svg">
<mask id="mask0_4030_12947" style="mask-type:alpha" maskUnits="userSpaceOnUse" x="0" y="0" width="373" height="373">
<rect width="373" height="373" fill="#D9D9D9"/>
</mask>
<g mask="url(#mask0_4030_12947)">
<path opacity="0.2" d="M484.647 175.994L162.725 348.523C152.314 354.103 139.779 354.006 129.455 348.266L57.4807 308.254C51.5722 304.97 51.6883 296.432 57.6839 293.309L476.717 75.0506C482.367 72.1076 489.125 76.2071 489.125 82.5777V168.514C489.125 171.642 487.404 174.516 484.647 175.994Z" fill="black"/>
<path d="M488.196 111.674L147.03 296.878C143.457 298.817 139.13 298.741 135.628 296.678L44.0096 242.699L488.196 7.90625V111.674Z" fill="#196461" stroke="url(#paint0_linear_4030_12947)" stroke-width="1.85852"/>
<path d="M488.505 100.215L161.716 275.535L150.564 262.216L488.505 80.3906V100.215Z" fill="black"/>
<path fill-rule="evenodd" clip-rule="evenodd" d="M149.304 263.128L489.125 81.0063V-24L43.6998 208.005L43.9981 208.171C38.7714 211.315 30.9991 217.621 31 229.067C31.0008 238.979 40.9121 244.245 40.9121 244.245L134.669 296.344L136.741 297.018C137.946 297.733 139.471 298.265 141.406 298.536L136.741 297.018C133.752 295.244 132.731 292.339 132.289 289.469C130.994 279.321 138.775 269.455 146.127 264.83L149.096 263.239C149.173 263.205 149.249 263.172 149.326 263.14L149.304 263.128Z" fill="#2CA49D"/>
<path d="M489.125 81.0063L489.564 81.8254L490.054 81.5626V81.0063H489.125ZM149.304 263.128L148.865 262.309L147.37 263.11L148.849 263.938L149.304 263.128ZM489.125 -24H490.054V-25.5318L488.696 -24.8242L489.125 -24ZM43.6998 208.005L43.2705 207.181L41.7394 207.979L43.2483 208.817L43.6998 208.005ZM43.9981 208.171L44.4772 208.967L45.8535 208.139L44.4496 207.359L43.9981 208.171ZM31 229.067L30.0707 229.067L31 229.067ZM40.9121 244.245L41.3635 243.433L41.3558 243.429L41.3481 243.425L40.9121 244.245ZM134.669 296.344L134.217 297.156L134.296 297.2L134.381 297.227L134.669 296.344ZM141.406 298.536L141.277 299.456L141.694 297.653L141.406 298.536ZM132.289 289.469L131.367 289.587L131.369 289.599L131.371 289.61L132.289 289.469ZM146.127 264.83L145.688 264.011L145.66 264.026L145.632 264.044L146.127 264.83ZM149.096 263.239L148.722 262.388L148.689 262.403L148.657 262.42L149.096 263.239ZM149.326 263.14L149.688 263.996L151.435 263.257L149.78 262.329L149.326 263.14ZM488.686 80.1873L148.865 262.309L149.743 263.947L489.564 81.8254L488.686 80.1873ZM488.196 -24V81.0063H490.054V-24H488.196ZM44.1291 208.829L489.554 -23.1758L488.696 -24.8242L43.2705 207.181L44.1291 208.829ZM44.4496 207.359L44.1513 207.193L43.2483 208.817L43.5466 208.983L44.4496 207.359ZM31.9293 229.067C31.9284 218.119 39.3422 212.056 44.4772 208.967L43.5191 207.375C38.2006 210.574 30.0698 217.124 30.0707 229.067L31.9293 229.067ZM40.9121 244.245C41.3481 243.425 41.3484 243.425 41.3486 243.425C41.3486 243.425 41.3488 243.425 41.3489 243.425C41.349 243.425 41.349 243.425 41.3488 243.425C41.3484 243.425 41.3475 243.424 41.346 243.423C41.3429 243.422 41.3375 243.419 41.3299 243.415C41.3146 243.406 41.2903 243.393 41.2577 243.374C41.1923 243.338 41.0935 243.281 40.9659 243.204C40.7106 243.05 40.3411 242.817 39.8953 242.505C39.0023 241.882 37.8117 240.952 36.6235 239.726C34.2403 237.269 31.9296 233.694 31.9293 229.067L30.0707 229.067C30.0712 234.353 32.7166 238.367 35.2892 241.02C36.5789 242.35 37.8662 243.356 38.8316 244.03C39.315 244.367 39.7198 244.623 40.0065 244.795C40.15 244.882 40.2641 244.948 40.3439 244.993C40.3838 245.015 40.4152 245.033 40.4375 245.045C40.4486 245.051 40.4574 245.056 40.4639 245.059C40.4671 245.061 40.4697 245.062 40.4718 245.063C40.4728 245.064 40.4737 245.064 40.4744 245.065C40.4748 245.065 40.4752 245.065 40.4754 245.065C40.4758 245.066 40.4761 245.066 40.9121 244.245ZM135.12 295.531L41.3635 243.433L40.4607 245.057L134.217 297.156L135.12 295.531ZM137.029 296.134L134.956 295.46L134.381 297.227L136.453 297.902L137.029 296.134ZM141.535 297.616C139.699 297.358 138.296 296.86 137.215 296.219L136.267 297.817C137.596 298.606 139.243 299.171 141.277 299.456L141.535 297.616ZM136.453 297.902L141.119 299.42L141.694 297.653L137.029 296.134L136.453 297.902ZM131.371 289.61C131.829 292.586 132.923 295.832 136.267 297.817L137.215 296.219C134.581 294.655 133.633 292.092 133.208 289.328L131.371 289.61ZM145.632 264.044C141.842 266.428 137.957 270.15 135.178 274.585C132.399 279.02 130.685 284.239 131.367 289.587L133.211 289.351C132.598 284.551 134.127 279.763 136.753 275.572C139.379 271.381 143.06 267.857 146.622 265.617L145.632 264.044ZM148.657 262.42L145.688 264.011L146.566 265.649L149.535 264.058L148.657 262.42ZM148.964 262.284C148.883 262.318 148.803 262.353 148.722 262.388L149.469 264.09C149.542 264.058 149.615 264.027 149.688 263.996L148.964 262.284ZM148.849 263.938L148.871 263.951L149.78 262.329L149.758 262.317L148.849 263.938Z" fill="url(#paint1_linear_4030_12947)"/>
<path opacity="0.4" d="M154 150L255.928 206.811" stroke="#93D7B5" stroke-width="2.33319"/>
<path opacity="0.4" d="M270 88L371.928 144.811" stroke="#93D7B5" stroke-width="2.33319"/>
<circle cx="11.6075" cy="11.6075" r="11.6075" transform="matrix(-0.866025 0.5 2.20305e-08 1 160.938 258.213)" fill="#233837"/>
<circle cx="11.6075" cy="11.6075" r="11.6075" transform="matrix(-0.866025 0.5 2.20305e-08 1 164.011 259.5)" fill="#D9D9D9"/>
<circle cx="6.73981" cy="6.73981" r="6.73981" transform="matrix(-0.866025 0.5 2.20305e-08 1 159.897 267.414)" fill="#0E4543"/>
<circle cx="11.3818" cy="11.3818" r="11.3818" transform="matrix(-0.866025 0.5 2.20305e-08 1 237.564 217.301)" fill="#233837"/>
<circle cx="11.3818" cy="11.3818" r="11.3818" transform="matrix(-0.866025 0.5 2.20305e-08 1 240.574 218.561)" fill="#D9D9D9"/>
<circle cx="6.60881" cy="6.60881" r="6.60881" transform="matrix(-0.866025 0.5 2.20305e-08 1 236.543 226.318)" fill="#0E4543"/>
<circle cx="11.3818" cy="11.3818" r="11.3818" transform="matrix(-0.866025 0.5 2.20305e-08 1 311.297 178.398)" fill="#233837"/>
<circle cx="11.3818" cy="11.3818" r="11.3818" transform="matrix(-0.866025 0.5 2.20305e-08 1 314.308 179.658)" fill="#D9D9D9"/>
<circle cx="6.60881" cy="6.60881" r="6.60881" transform="matrix(-0.866025 0.5 2.20305e-08 1 310.277 187.416)" fill="#0E4543"/>
<path d="M53.2664 129.103L56.7111 127.955C56.826 127.916 56.9193 127.826 56.9551 127.711L58.1034 124.266C58.2218 123.911 58.7206 123.911 58.839 124.266L59.9872 127.711C60.0267 127.826 60.1164 127.919 60.2312 127.955L63.676 129.103C64.0312 129.222 64.0312 129.721 63.676 129.839L60.2312 130.987C60.1164 131.027 60.0231 131.116 59.9872 131.231L58.839 134.676C58.7206 135.031 58.2218 135.031 58.1034 134.676L56.9551 131.231C56.9157 131.116 56.826 131.023 56.7111 130.987L53.2664 129.839C52.9112 129.721 52.9112 129.222 53.2664 129.103Z" fill="#E49E8A"/>
<path d="M173.266 197.103L176.711 195.955C176.826 195.916 176.919 195.826 176.955 195.711L178.103 192.266C178.222 191.911 178.721 191.911 178.839 192.266L179.987 195.711C180.027 195.826 180.116 195.919 180.231 195.955L183.676 197.103C184.031 197.222 184.031 197.721 183.676 197.839L180.231 198.987C180.116 199.027 180.023 199.116 179.987 199.231L178.839 202.676C178.721 203.031 178.222 203.031 178.103 202.676L176.955 199.231C176.916 199.116 176.826 199.023 176.711 198.987L173.266 197.839C172.911 197.721 172.911 197.222 173.266 197.103Z" fill="white"/>
<circle cx="48.5" cy="167.5" r="1.5" fill="#FFE8AD"/>
<circle cx="72" cy="154" r="3" fill="#1ADAB7"/>
<path d="M194 131.943C189.152 131.943 186 135.064 186 138.943" stroke="#1EA197" stroke-width="2" stroke-linecap="round" stroke-linejoin="round"/>
<ellipse cx="134.612" cy="218.255" rx="23.816" ry="14.6811" fill="#262C2B"/>
<path d="M88.3396 172.585C87.1084 157.654 90.2837 143.803 96.3873 133.482C102.492 123.161 111.497 116.406 121.935 115.545C132.372 114.685 142.363 119.873 150.075 129.055C157.787 138.237 163.188 151.38 164.419 166.312C165.651 181.243 162.475 195.094 156.372 205.414C150.267 215.736 141.262 222.491 130.824 223.351C120.387 224.212 110.396 219.024 102.684 209.841C94.9719 200.66 89.5708 187.517 88.3396 172.585Z" fill="#C18E48" stroke="black"/>
<path d="M83.9665 173.426C82.7347 158.486 85.6026 144.656 91.209 134.375C96.8178 124.09 105.13 117.411 114.783 116.615C124.436 115.819 133.73 121.046 140.948 130.274C148.163 139.497 153.257 152.671 154.489 167.611C155.721 182.55 152.853 196.38 147.247 206.661C141.638 216.947 133.326 223.625 123.673 224.421C114.02 225.217 104.726 219.99 97.5077 210.763C90.293 201.539 85.1984 188.365 83.9665 173.426Z" fill="white" stroke="black"/>
<path d="M91.5821 173.222C90.6389 161.784 92.8354 151.2 97.1228 143.338C101.413 135.471 107.758 130.384 115.11 129.777C122.462 129.171 129.555 133.151 135.076 140.208C140.593 147.262 144.493 157.343 145.437 168.781C146.38 180.219 144.183 190.803 139.896 198.666C135.606 206.532 129.26 211.62 121.909 212.226C114.557 212.832 107.463 208.853 101.943 201.795C96.4257 194.741 92.5252 184.66 91.5821 173.222Z" fill="#C18C3B" stroke="black"/>
<ellipse cx="121.203" cy="170.782" rx="24.8132" ry="37.7485" transform="rotate(175.286 121.203 170.782)" fill="#FFD979"/>
<path d="M129.224 153.713L125.002 188.318L121.133 187.846L121.16 187.618C122.405 177.418 123.649 167.217 124.89 157.016C124.908 156.864 124.97 156.769 125.096 156.678C126.404 155.73 127.706 154.776 129.007 153.82C129.068 153.775 129.099 153.695 129.145 153.632L129.224 153.713L129.224 153.713Z" fill="#023C40"/>
<path d="M113.557 186.923L113.585 186.689C114.541 178.854 115.497 171.019 116.45 163.184C116.467 163.042 116.519 162.947 116.64 162.859C117.894 161.95 119.144 161.033 120.396 160.12C120.452 160.079 120.511 160.041 120.592 159.986L117.251 187.374L113.557 186.923L113.557 186.923Z" fill="#023C40"/>
</g>
<ellipse cx="306.568" cy="120.013" rx="41.5752" ry="58.0221" transform="rotate(86.5301 306.568 120.013)" fill="#262C2B"/>
<path d="M282.395 90.0458C297.354 89.2137 311.115 92.7577 321.269 99.1348C331.424 105.513 337.936 114.695 338.517 125.152C339.099 135.609 333.646 145.457 324.261 152.922C314.877 160.386 301.594 165.434 286.635 166.266C271.676 167.098 257.915 163.554 247.761 157.177C237.606 150.799 231.094 141.617 230.512 131.16C229.931 120.703 235.384 110.855 244.769 103.39C254.153 95.9261 267.436 90.8779 282.395 90.0458Z" fill="#C18E48" stroke="black"/>
<path d="M281.673 85.6524C296.64 84.8199 310.389 88.0561 320.516 93.935C330.648 99.8165 337.102 108.304 337.64 117.975C338.178 127.646 332.705 136.797 323.288 143.766C313.875 150.732 300.57 155.473 285.603 156.305C270.636 157.138 256.887 153.901 246.76 148.023C236.628 142.141 230.173 133.653 229.635 123.983C229.098 114.312 234.571 105.161 243.988 98.1919C253.401 91.226 266.706 86.4849 281.673 85.6524Z" fill="white" stroke="black"/>
<ellipse cx="283.172" cy="120.248" rx="27.5186" ry="41.8642" transform="rotate(-93.1837 283.172 120.248)" fill="#C18C3B"/>
<ellipse cx="283.322" cy="122.947" rx="24.8132" ry="37.7485" transform="rotate(-93.1837 283.322 122.947)" fill="#FFD979"/>
<path d="M300.17 131.419L265.69 126.275L266.265 122.42L266.492 122.453C276.656 123.97 286.82 125.486 296.984 126.999C297.136 127.021 297.228 127.086 297.317 127.214C298.229 128.546 299.148 129.874 300.069 131.2C300.112 131.262 300.191 131.295 300.253 131.342L300.17 131.419L300.17 131.419Z" fill="#023C40"/>
<path d="M267.389 114.872L267.623 114.906C275.429 116.071 283.235 117.236 291.043 118.397C291.184 118.418 291.277 118.472 291.362 118.596C292.238 119.874 293.12 121.148 294 122.423C294.04 122.481 294.075 122.541 294.129 122.623L266.84 118.552L267.389 114.871L267.389 114.872Z" fill="#023C40"/>
<path d="M281.356 78.3056C296.315 77.4735 310.076 81.0175 320.23 87.3945C330.385 93.7724 336.896 102.955 337.478 113.412C338.06 123.869 332.607 133.717 323.221 141.182C313.837 148.646 300.555 153.694 285.596 154.526C270.636 155.358 256.876 151.814 246.722 145.437C236.566 139.059 230.055 129.876 229.473 119.42C228.892 108.963 234.345 99.1145 243.73 91.6497C253.114 84.1859 266.397 79.1377 281.356 78.3056Z" fill="#C18E48" stroke="black"/>
<path d="M280.634 73.9122C295.601 73.0797 309.349 76.3159 319.477 82.1948C329.609 88.0762 336.063 96.5639 336.601 106.235C337.139 115.906 331.666 125.057 322.249 132.025C312.836 138.991 299.531 143.732 284.564 144.565C269.597 145.397 255.848 142.161 245.72 136.282C235.588 130.401 229.134 121.913 228.596 112.242C228.058 102.572 233.531 93.4204 242.949 86.4516C252.362 79.4858 265.667 74.7447 280.634 73.9122Z" fill="white" stroke="black"/>
<ellipse cx="282.133" cy="108.507" rx="27.5186" ry="41.8642" transform="rotate(-93.1837 282.133 108.507)" fill="#C18C3B"/>
<ellipse cx="282.283" cy="111.207" rx="24.8132" ry="37.7485" transform="rotate(-93.1837 282.283 111.207)" fill="#FFD979"/>
<path d="M299.13 119.679L264.651 114.535L265.226 110.679L265.453 110.713C275.617 112.23 285.781 113.746 295.945 115.258C296.096 115.281 296.189 115.346 296.277 115.474C297.19 116.806 298.109 118.134 299.03 119.46C299.073 119.522 299.152 119.555 299.214 119.602L299.131 119.679L299.13 119.679Z" fill="#023C40"/>
<path d="M266.35 103.131L266.583 103.166C274.39 104.331 282.196 105.495 290.004 106.657C290.145 106.678 290.238 106.732 290.323 106.855C291.199 108.134 292.081 109.407 292.961 110.683C293.001 110.74 293.036 110.8 293.089 110.883L265.801 106.812L266.35 103.131L266.35 103.131Z" fill="#023C40"/>
<path d="M288.356 66.0458C303.315 65.2137 317.076 68.7577 327.23 75.1348C337.385 81.5126 343.896 90.6954 344.478 101.152C345.06 111.609 339.607 121.457 330.221 128.922C320.837 136.386 307.555 141.434 292.596 142.266C277.636 143.098 263.876 139.554 253.722 133.177C243.566 126.799 237.055 117.617 236.473 107.16C235.892 96.703 241.345 86.8547 250.73 79.39C260.114 71.9261 273.397 66.8779 288.356 66.0458Z" fill="#C18E48" stroke="black"/>
<path d="M287.634 61.6524C302.601 60.8199 316.349 64.0561 326.477 69.935C336.609 75.8165 343.063 84.3042 343.601 93.975C344.139 103.646 338.666 112.797 329.249 119.766C319.836 126.732 306.531 131.473 291.564 132.305C276.597 133.138 262.848 129.901 252.72 124.023C242.588 118.141 236.134 109.653 235.596 99.9826C235.058 90.3118 240.531 81.1607 249.949 74.1919C259.362 67.226 272.667 62.4849 287.634 61.6524Z" fill="white" stroke="black"/>
<path d="M287.633 69.2707C299.092 68.6333 309.613 71.1116 317.358 75.6074C325.108 80.1057 330.024 86.5852 330.434 93.9503C330.843 101.315 326.676 108.3 319.473 113.63C312.275 118.957 302.093 122.587 290.634 123.225C279.175 123.862 268.653 121.384 260.908 116.888C253.159 112.389 248.243 105.91 247.833 98.5449C247.423 91.1797 251.591 84.195 258.793 78.865C265.992 73.538 276.174 69.9081 287.633 69.2707Z" fill="#C18C3B" stroke="black"/>
<ellipse cx="289.283" cy="98.9469" rx="24.8132" ry="37.7485" transform="rotate(-93.1837 289.283 98.9469)" fill="#FFD979"/>
<path d="M306.13 107.419L271.651 102.275L272.226 98.4196L272.453 98.4535C282.617 99.9698 292.781 101.486 302.945 102.999C303.096 103.021 303.189 103.086 303.277 103.214C304.19 104.546 305.109 105.874 306.03 107.2C306.073 107.262 306.152 107.295 306.214 107.342L306.131 107.419L306.13 107.419Z" fill="#023C40"/>
<path d="M273.35 90.8715L273.583 90.9063C281.39 92.0709 289.196 93.2356 297.004 94.3971C297.145 94.4182 297.238 94.4723 297.323 94.5956C298.199 95.8741 299.081 97.1476 299.961 98.4234C300.001 98.4807 300.036 98.5407 300.089 98.6231L272.801 94.5518L273.35 90.8714L273.35 90.8715Z" fill="#023C40"/>
<defs>
<linearGradient id="paint0_linear_4030_12947" x1="171.628" y1="299.849" x2="594.751" y2="72.7995" gradientUnits="userSpaceOnUse">
<stop stop-color="#1ADAB7"/>
<stop offset="1" stop-color="#1ADAB7" stop-opacity="0"/>
</linearGradient>
<linearGradient id="paint1_linear_4030_12947" x1="31" y1="237.47" x2="475.672" y2="7.7678" gradientUnits="userSpaceOnUse">
<stop stop-color="#9CDFBB"/>
<stop offset="1" stop-color="#9CDFBB" stop-opacity="0"/>
</linearGradient>
</defs>
</svg>
