<svg width="375" height="375" viewBox="0 0 375 375" fill="none" xmlns="http://www.w3.org/2000/svg">
<rect width="168.45" height="92.5122" rx="7.09232" transform="matrix(0.866025 -0.5 0.866025 0.5 62.5587 210.467)" fill="#144849"/>
<path d="M121.319 140.021L121.994 235.346C122.009 237.391 123.481 239.86 125.244 240.796L132.523 244.659C134.615 245.77 136.599 245.911 138.079 245.055L144.333 241.439C145.117 240.986 145.513 239.953 145.413 238.619L138.791 149.999C138.587 147.267 136.427 144.218 134.213 143.535L121.708 139.68C121.48 139.61 121.319 139.751 121.319 140.021Z" fill="#C34B29" stroke="black"/>
<path d="M135.125 148.572L245.864 77.7398C246.513 77.325 247.159 77.1069 247.74 77.1069L257.529 77.1069C259.08 77.1069 260.075 78.3457 260.114 80.3257L261.946 173.554L138.249 244.971C136.524 245.967 135.125 245.16 135.125 243.168L135.125 148.572Z" fill="#A5381B"/>
<path d="M135.125 148.572L245.864 77.7398C246.513 77.325 247.159 77.1069 247.74 77.1069L257.529 77.1069C259.08 77.1069 260.075 78.3457 260.114 80.3257L261.946 173.554L138.249 244.971C136.524 245.967 135.125 245.16 135.125 243.168L135.125 148.572Z" stroke="black" stroke-linejoin="round"/>
<path d="M134.915 147.681L246.105 77.5785C246.599 77.2672 247.093 77.0693 247.557 76.9962L258.062 75.3444C259.592 75.1038 260.723 75.966 261.047 77.6209L277.817 163.104C278.932 168.788 274.852 177.109 269.263 180.549L164.244 245.207C157.776 249.189 152.127 247.187 150.971 240.502L134.915 147.681Z" fill="#F79780" stroke="black" stroke-linejoin="round"/>
<rect width="145.466" height="16.9007" rx="1.18403" transform="matrix(0.866025 -0.5 0.866025 0.5 120.77 139.801)" fill="#C34B29" stroke="black" stroke-linejoin="bevel"/>
<path d="M163.532 160.878C163.289 159.64 164.204 157.822 165.422 157.122L181.57 147.846C182.483 147.322 183.268 147.611 183.45 148.539L187.395 168.622C187.639 169.861 186.724 171.678 185.506 172.378L169.358 181.654C168.445 182.179 167.66 181.889 167.477 180.962L163.532 160.878Z" fill="#EC7656" stroke="black"/>
<path opacity="0.8" d="M170.034 196.927C169.79 195.688 170.705 193.871 171.924 193.171L188.071 183.895C188.984 183.371 189.77 183.66 189.952 184.588L193.897 204.671C194.14 205.91 193.226 207.727 192.007 208.427L175.859 217.703C174.946 218.227 174.161 217.938 173.979 217.011L170.034 196.927Z" fill="#A5381B" stroke="black"/>
<path d="M196.192 140.363C195.949 139.124 196.863 137.307 198.082 136.607L214.23 127.331C215.143 126.806 215.928 127.096 216.11 128.023L220.055 148.107C220.299 149.345 219.384 151.163 218.165 151.863L202.018 161.139C201.105 161.663 200.319 161.374 200.137 160.446L196.192 140.363Z" fill="#FFE9B1" stroke="black"/>
<path d="M169.89 135.34C169.447 133.085 171.112 129.776 173.331 128.501C174.993 127.547 176.423 128.073 176.755 129.762L177.001 131.016C177.444 133.271 175.779 136.58 173.56 137.854C171.898 138.809 170.468 138.282 170.136 136.594L169.89 135.34Z" fill="black"/>
<path d="M221.116 105.736C220.673 103.481 222.338 100.172 224.557 98.8975C226.219 97.943 227.649 98.4696 227.981 100.158L228.227 101.412C228.67 103.667 227.005 106.976 224.786 108.251C223.124 109.205 221.694 108.679 221.363 106.99L221.116 105.736Z" fill="black"/>
<path d="M202.695 176.413C202.452 175.175 203.366 173.357 204.585 172.657L220.733 163.381C221.645 162.857 222.431 163.146 222.613 164.074L226.558 184.158C226.801 185.396 225.887 187.213 224.668 187.914L208.52 197.189C207.607 197.714 206.822 197.424 206.64 196.497L202.695 176.413Z" fill="#EC7656" stroke="black"/>
<path d="M225.44 121.958C225.196 120.72 226.111 118.902 227.33 118.202L243.477 108.926C244.39 108.402 245.176 108.691 245.358 109.619L249.303 129.702C249.546 130.941 248.632 132.758 247.413 133.459L231.265 142.734C230.352 143.259 229.567 142.969 229.385 142.042L225.44 121.958Z" fill="#EC7656" stroke="black"/>
<path d="M231.945 158.009C231.702 156.77 232.616 154.953 233.835 154.253L249.983 144.977C250.895 144.453 251.681 144.742 251.863 145.67L255.808 165.753C256.051 166.992 255.137 168.809 253.918 169.509L237.77 178.785C236.857 179.309 236.072 179.02 235.89 178.093L231.945 158.009Z" fill="#FFE9B1" stroke="black"/>
<path d="M203.25 92.2852C202.175 92.8004 200.874 92.3495 200.479 91.225C199.398 88.1441 199.094 84.8312 199.612 81.5844C200.243 77.6247 202.066 73.9515 204.838 71.0542C207.61 68.1569 211.199 66.1732 215.127 65.3675C219.055 64.5617 223.136 64.9721 226.824 66.5441C230.513 68.116 233.635 70.7748 235.775 74.1662C237.914 77.5575 238.969 81.5203 238.799 85.5264C238.63 89.5326 237.243 93.3919 234.824 96.5899C232.841 99.2122 230.241 101.288 227.27 102.642C226.185 103.136 224.959 102.509 224.586 101.377C224.213 100.245 224.838 99.0388 225.907 98.5117C228.05 97.4546 229.928 95.9085 231.382 93.9865C233.271 91.4881 234.355 88.4733 234.487 85.3436C234.62 82.214 233.796 79.1182 232.125 76.4689C230.453 73.8196 228.014 71.7425 225.133 70.5145C222.251 69.2865 219.063 68.9658 215.995 69.5953C212.926 70.2247 210.122 71.7744 207.957 74.0378C205.791 76.3012 204.367 79.1707 203.874 82.2641C203.494 84.6439 203.68 87.0691 204.402 89.3476C204.762 90.4836 204.324 91.77 203.25 92.2852Z" fill="white"/>
<path d="M149.485 123.608C148.288 124.182 146.84 123.68 146.4 122.428C145.188 118.975 144.854 115.261 145.445 111.624C146.167 107.194 148.228 103.091 151.351 99.8677C154.475 96.6444 158.511 94.4556 162.917 93.596C167.322 92.7364 171.885 93.2471 175.992 95.0596C180.098 96.872 183.55 99.8991 185.884 103.733C188.218 107.567 189.321 112.025 189.044 116.505C188.768 120.985 187.126 125.272 184.338 128.791C182.05 131.679 179.081 133.935 175.713 135.366C174.492 135.885 173.145 135.153 172.762 133.882C172.38 132.611 173.11 131.286 174.314 130.73C176.747 129.607 178.894 127.925 180.572 125.807C182.749 123.058 184.032 119.709 184.248 116.209C184.464 112.709 183.602 109.227 181.779 106.232C179.956 103.236 177.259 100.872 174.051 99.4558C170.843 98.0399 167.279 97.6408 163.837 98.3124C160.396 98.9839 157.242 100.694 154.802 103.212C152.362 105.73 150.752 108.935 150.188 112.396C149.754 115.063 149.958 117.783 150.768 120.337C151.169 121.602 150.681 123.034 149.485 123.608Z" fill="white"/>
<g style="mix-blend-mode:multiply">
<path d="M135.525 229.192L134.869 147.332L145.145 207.541L135.525 229.192Z" fill="#A5381B"/>
</g>
<path opacity="0.54" d="M269.131 255.526C296.818 255.526 319.262 243.733 319.262 229.186C319.262 214.639 296.818 202.846 269.131 202.846C241.445 202.846 219 214.639 219 229.186C219 243.733 241.445 255.526 269.131 255.526Z" fill="#1A262C"/>
<path d="M245.578 221.402C245.562 226.873 249.175 232.35 256.402 236.523C270.769 244.82 293.987 244.817 308.259 236.523C315.35 232.403 318.901 227.011 318.918 221.609C318.908 224.353 318.901 227.1 318.895 229.844C318.878 235.245 315.327 240.637 308.239 244.758C293.967 253.052 270.749 253.052 256.382 244.758C249.152 240.585 245.542 235.104 245.559 229.633C245.565 226.889 245.575 224.142 245.582 221.398L245.578 221.402Z" fill="#D29830" stroke="black" stroke-width="0.889318" stroke-miterlimit="10"/>
<path d="M256.234 206.488C270.509 198.194 293.727 198.194 308.091 206.488C322.458 214.782 322.534 228.23 308.259 236.524C293.987 244.817 270.769 244.821 256.402 236.524C242.038 228.23 241.962 214.782 256.234 206.488Z" fill="white" stroke="black" stroke-width="0.889318" stroke-miterlimit="10"/>
<path opacity="0.5" d="M261.244 209.382C272.769 202.685 291.513 202.685 303.114 209.382C314.718 216.078 314.777 226.937 303.252 233.634C291.728 240.33 272.979 240.33 261.379 233.634C249.778 226.937 249.719 216.078 261.244 209.382Z" fill="#FFB710"/>
<path d="M303.114 210.709C291.513 204.013 272.769 204.013 261.244 210.709C255.799 213.874 252.94 217.968 252.663 222.112C252.36 217.524 255.216 212.883 261.244 209.382C272.769 202.685 291.513 202.685 303.114 209.382C309.234 212.916 312.142 217.606 311.833 222.234C311.556 218.047 308.651 213.904 303.114 210.709Z" fill="#FFB710"/>
<path d="M252.617 210.306C252.601 215.777 256.214 221.255 263.441 225.428C277.808 233.725 301.023 233.721 315.298 225.428C322.389 221.307 325.94 215.915 325.956 210.514C325.947 213.257 325.94 216.004 325.933 218.748C325.917 224.15 322.369 229.542 315.278 233.662C301.006 241.956 277.788 241.956 263.421 233.662C256.191 229.489 252.581 224.008 252.597 218.537C252.604 215.793 252.614 213.046 252.621 210.303L252.617 210.306Z" fill="#D29830" stroke="black" stroke-width="0.889318" stroke-miterlimit="10"/>
<path d="M263.273 195.392C277.548 187.098 300.766 187.098 315.13 195.392C329.497 203.689 329.573 217.134 315.298 225.431C301.023 233.725 277.808 233.728 263.441 225.431C249.073 217.138 248.997 203.689 263.273 195.395V195.392Z" fill="white" stroke="black" stroke-width="0.889318" stroke-miterlimit="10"/>
<path opacity="0.5" d="M268.282 198.286C279.807 191.59 298.552 191.59 310.153 198.286C321.757 204.982 321.816 215.842 310.291 222.538C298.766 229.234 280.018 229.234 268.421 222.538C256.82 215.842 256.758 204.982 268.286 198.286H268.282Z" fill="#FFB710" stroke="#1A1A1A" stroke-width="1.12318" stroke-miterlimit="10"/>
<path d="M310.153 199.613C298.552 192.914 279.807 192.914 268.282 199.613C262.838 202.779 259.979 206.873 259.702 211.016C259.399 206.428 262.255 201.787 268.282 198.286C279.807 191.59 298.552 191.59 310.153 198.286C316.273 201.82 319.181 206.51 318.871 211.138C318.595 206.952 315.69 202.808 310.153 199.613Z" fill="#FFB710"/>
<path d="M248.042 200.134C248.026 205.605 251.639 211.083 258.866 215.256C273.233 223.553 296.447 223.55 310.723 215.256C317.814 211.135 321.365 205.743 321.381 200.342C321.371 203.085 321.365 205.832 321.358 208.576C321.342 213.978 317.794 219.37 310.703 223.49C296.431 231.784 273.213 231.784 258.846 223.49C251.616 219.317 248.006 213.836 248.022 208.365C248.029 205.622 248.039 202.875 248.046 200.131L248.042 200.134Z" fill="#D29830" stroke="black" stroke-width="0.889318" stroke-miterlimit="10"/>
<path d="M258.698 185.22C272.973 176.927 296.191 176.927 310.555 185.22C324.922 193.517 324.998 206.962 310.723 215.259C296.447 223.553 273.233 223.556 258.866 215.259C244.498 206.966 244.422 193.517 258.698 185.224V185.22Z" fill="white" stroke="black" stroke-width="0.889318" stroke-miterlimit="10"/>
<path opacity="0.5" d="M263.707 188.112C275.232 181.416 293.977 181.416 305.578 188.112C317.182 194.808 317.241 205.668 305.716 212.364C294.191 219.06 275.443 219.06 263.846 212.364C252.245 205.668 252.182 194.808 263.711 188.112H263.707Z" fill="#FFB710" stroke="#1A1A1A" stroke-width="1.12318" stroke-miterlimit="10"/>
<path d="M305.578 189.439C293.977 182.74 275.232 182.74 263.707 189.439C258.263 192.605 255.404 196.699 255.127 200.842C254.824 196.254 257.68 191.613 263.707 188.112C275.232 181.416 293.977 181.416 305.578 188.112C311.698 191.646 314.606 196.337 314.296 200.964C314.02 196.778 311.115 192.634 305.578 189.439Z" fill="#FFB710"/>
<path opacity="0.54" d="M100.131 281.526C127.818 281.526 150.262 269.733 150.262 255.186C150.262 240.639 127.818 228.846 100.131 228.846C72.4445 228.846 50 240.639 50 255.186C50 269.733 72.4445 281.526 100.131 281.526Z" fill="#1A262C"/>
<path opacity="0.54" d="M159.559 297C183.859 297 203.559 285.583 203.559 271.5C203.559 257.417 183.859 246 159.559 246C135.258 246 115.559 257.417 115.559 271.5C115.559 285.583 135.258 297 159.559 297Z" fill="#1A262C"/>
<path d="M70.5785 252.402C70.562 257.873 74.1753 263.35 81.4018 267.523C95.7692 275.82 118.987 275.817 133.259 267.523C140.35 263.403 143.901 258.011 143.918 252.609C143.908 255.353 143.901 258.1 143.895 260.844C143.878 266.245 140.327 271.637 133.239 275.758C118.967 284.052 95.7495 284.052 81.382 275.758C74.1522 271.585 70.5422 266.104 70.5587 260.633C70.5653 257.889 70.5752 255.142 70.5818 252.398L70.5785 252.402Z" fill="#D29830" stroke="black" stroke-width="0.889318" stroke-miterlimit="10"/>
<path d="M81.2338 237.488C95.509 229.194 118.727 229.194 133.091 237.488C147.458 245.782 147.534 259.23 133.259 267.524C118.987 275.817 95.7692 275.821 81.4018 267.524C67.0377 259.23 66.9619 245.782 81.2338 237.488Z" fill="white" stroke="black" stroke-width="0.889318" stroke-miterlimit="10"/>
<path opacity="0.5" d="M86.2437 240.382C97.7686 233.685 116.513 233.685 128.114 240.382C139.718 247.078 139.777 257.937 128.252 264.634C116.728 271.33 97.9794 271.33 86.3787 264.634C74.778 257.937 74.7187 247.078 86.2437 240.382Z" fill="#FFB710"/>
<path d="M128.114 241.709C116.513 235.013 97.7686 235.013 86.2436 241.709C80.799 244.874 77.94 248.968 77.6634 253.112C77.3603 248.524 80.216 243.883 86.2436 240.382C97.7686 233.685 116.513 233.685 128.114 240.382C134.234 243.916 137.142 248.606 136.833 253.234C136.556 249.047 133.651 244.904 128.114 241.709Z" fill="#FFB710"/>
<path d="M77.6173 241.306C77.6008 246.777 81.2141 252.255 88.4406 256.428C102.808 264.725 126.023 264.721 140.298 256.428C147.389 252.307 150.94 246.915 150.956 241.514C150.947 244.257 150.94 247.004 150.933 249.748C150.917 255.15 147.369 260.542 140.278 264.662C126.006 272.956 102.788 272.956 88.4208 264.662C81.191 260.489 77.581 255.008 77.5975 249.537C77.6041 246.793 77.614 244.046 77.6206 241.303L77.6173 241.306Z" fill="#D29830" stroke="black" stroke-width="0.889318" stroke-miterlimit="10"/>
<path d="M88.2726 226.392C102.548 218.098 125.766 218.098 140.13 226.392C154.497 234.689 154.573 248.134 140.298 256.431C126.023 264.725 102.808 264.728 88.4406 256.431C74.0732 248.138 73.9974 234.689 88.2726 226.395V226.392Z" fill="white" stroke="black" stroke-width="0.889318" stroke-miterlimit="10"/>
<path opacity="0.5" d="M93.2824 229.286C104.807 222.59 123.552 222.59 135.153 229.286C146.757 235.982 146.816 246.842 135.291 253.538C123.766 260.234 105.018 260.234 93.4208 253.538C81.8201 246.842 81.7575 235.982 93.2857 229.286H93.2824Z" fill="#FFB710" stroke="#1A1A1A" stroke-width="1.12318" stroke-miterlimit="10"/>
<path d="M135.153 230.613C123.552 223.914 104.807 223.914 93.2824 230.613C87.8378 233.779 84.9788 237.873 84.7022 242.016C84.3991 237.428 87.2548 232.787 93.2824 229.286C104.807 222.59 123.552 222.59 135.153 229.286C141.273 232.82 144.181 237.51 143.871 242.138C143.595 237.952 140.69 233.808 135.153 230.613Z" fill="#FFB710"/>
<path d="M73.0422 231.134C73.0257 236.605 76.639 242.083 83.8656 246.256C98.233 254.553 121.447 254.55 135.723 246.256C142.814 242.135 146.365 236.743 146.381 231.342C146.371 234.085 146.365 236.832 146.358 239.576C146.342 244.978 142.794 250.37 135.703 254.49C121.431 262.784 98.2132 262.784 83.8458 254.49C76.616 250.317 73.006 244.836 73.0225 239.365C73.029 236.622 73.0389 233.875 73.0455 231.131L73.0422 231.134Z" fill="#D29830" stroke="black" stroke-width="0.889318" stroke-miterlimit="10"/>
<path d="M83.6976 216.22C97.9728 207.927 121.191 207.927 135.555 216.22C149.922 224.517 149.998 237.962 135.723 246.259C121.447 254.553 98.233 254.556 83.8655 246.259C69.4981 237.966 69.4224 224.517 83.6976 216.224V216.22Z" fill="white" stroke="black" stroke-width="0.889318" stroke-miterlimit="10"/>
<path opacity="0.5" d="M88.7074 219.112C100.232 212.416 118.977 212.416 130.578 219.112C142.182 225.808 142.241 236.668 130.716 243.364C119.191 250.06 100.443 250.06 88.8457 243.364C77.2451 236.668 77.1825 225.808 88.7107 219.112H88.7074Z" fill="#FFB710" stroke="#1A1A1A" stroke-width="1.12318" stroke-miterlimit="10"/>
<path d="M130.578 220.439C118.977 213.74 100.232 213.74 88.7074 220.439C83.2628 223.605 80.4038 227.699 80.1271 231.842C79.8241 227.254 82.6798 222.613 88.7074 219.112C100.232 212.416 118.977 212.416 130.578 219.112C136.698 222.646 139.606 227.337 139.296 231.964C139.02 227.778 136.115 223.634 130.578 220.439Z" fill="#FFB710"/>
</svg>
