<svg width="78" height="64" viewBox="0 0 78 64" fill="none" xmlns="http://www.w3.org/2000/svg">
<path fill-rule="evenodd" clip-rule="evenodd" d="M40.6512 0.750336C40.237 0.398194 39.6226 0.419954 39.2343 0.800517L7.76375 31.6467C7.09402 32.3031 7.55377 33.4415 8.49153 33.4488L9.56176 33.4571V31.7389V31.1747H10.126H19.0588H19.6231V31.7389V33.5349L24.6531 33.5738V30.582V30.0177H25.2174H34.1502H34.7145V30.582V33.6516L39.7464 33.6906V30.582V30.0177H40.3107H49.2435H49.8078V30.582V33.7684L57.4586 33.8276V49.8794H53.362C52.9266 49.8794 52.5735 50.2324 52.5735 50.6679V62.0961C52.5735 62.5316 52.9266 62.8846 53.362 62.8846H68.8182C69.2537 62.8846 69.6067 62.5316 69.6067 62.0961V50.6679C69.6067 50.2324 69.2537 49.8794 68.8182 49.8794H68.3006V33.9114L76.868 33.9777C77.8502 33.9853 78.3054 32.7616 77.5571 32.1254L40.6512 0.750336ZM49.2435 33.764V30.582H40.3107V33.6949L49.2435 33.764ZM34.1502 33.6473V30.582H25.2174V33.5782L34.1502 33.6473ZM19.0588 33.5305V31.7389H10.126V33.4614L19.0588 33.5305Z" fill="#A9C6D6"/>
<mask id="path-2-outside-1_1594_34102" maskUnits="userSpaceOnUse" x="0" y="4.2793" width="73" height="60" fill="black">
<rect fill="white" y="4.2793" width="73" height="60"/>
<path fill-rule="evenodd" clip-rule="evenodd" d="M37.2723 5.49532C36.9258 5.20729 36.4232 5.20729 36.0768 5.49532L2.33912 33.5443C1.66625 34.1037 2.06182 35.1983 2.93686 35.1983H12.6262V52.012H11.0906C10.7033 52.012 10.3893 52.326 10.3893 52.7133V61.8393C10.3893 62.2266 10.7033 62.5406 11.0906 62.5406H63.3768C63.7641 62.5406 64.0781 62.2266 64.0781 61.8393V52.7133C64.0781 52.326 63.7641 52.012 63.3768 52.012H61.841V35.1983H70.4122C71.2872 35.1983 71.6828 34.1037 71.0099 33.5443L37.2723 5.49532ZM52.8929 35.1983H48.4197V52.012H52.8929V35.1983ZM39.4716 35.1983V52.012H34.9966V35.1983H39.4716ZM26.0485 35.1983H21.5743V52.012H26.0485V35.1983Z"/>
</mask>
<path fill-rule="evenodd" clip-rule="evenodd" d="M37.2723 5.49532C36.9258 5.20729 36.4232 5.20729 36.0768 5.49532L2.33912 33.5443C1.66625 34.1037 2.06182 35.1983 2.93686 35.1983H12.6262V52.012H11.0906C10.7033 52.012 10.3893 52.326 10.3893 52.7133V61.8393C10.3893 62.2266 10.7033 62.5406 11.0906 62.5406H63.3768C63.7641 62.5406 64.0781 62.2266 64.0781 61.8393V52.7133C64.0781 52.326 63.7641 52.012 63.3768 52.012H61.841V35.1983H70.4122C71.2872 35.1983 71.6828 34.1037 71.0099 33.5443L37.2723 5.49532ZM52.8929 35.1983H48.4197V52.012H52.8929V35.1983ZM39.4716 35.1983V52.012H34.9966V35.1983H39.4716ZM26.0485 35.1983H21.5743V52.012H26.0485V35.1983Z" fill="white"/>
<path d="M36.0768 5.49532L36.7161 6.26428V6.26428L36.0768 5.49532ZM37.2723 5.49532L37.9116 4.72636L37.9116 4.72636L37.2723 5.49532ZM2.33912 33.5443L1.69982 32.7753H1.69982L2.33912 33.5443ZM12.6262 35.1983H13.6262C13.6262 34.646 13.1785 34.1983 12.6262 34.1983V35.1983ZM12.6262 52.012V53.012C13.1785 53.012 13.6262 52.5643 13.6262 52.012H12.6262ZM61.841 52.012H60.841C60.841 52.5643 61.2887 53.012 61.841 53.012V52.012ZM61.841 35.1983V34.1983C61.2887 34.1983 60.841 34.646 60.841 35.1983H61.841ZM71.0099 33.5443L70.3706 34.3132V34.3133L71.0099 33.5443ZM52.8929 35.1983H53.8929C53.8929 34.646 53.4452 34.1983 52.8929 34.1983V35.1983ZM48.4197 35.1983V34.1983C47.8674 34.1983 47.4197 34.646 47.4197 35.1983H48.4197ZM48.4197 52.012H47.4197C47.4197 52.5643 47.8674 53.012 48.4197 53.012V52.012ZM52.8929 52.012V53.012C53.4452 53.012 53.8929 52.5643 53.8929 52.012H52.8929ZM39.4716 52.012V53.012C40.0239 53.012 40.4716 52.5643 40.4716 52.012H39.4716ZM39.4716 35.1983H40.4716C40.4716 34.646 40.0239 34.1983 39.4716 34.1983V35.1983ZM34.9966 52.012H33.9966C33.9966 52.5643 34.4443 53.012 34.9966 53.012V52.012ZM34.9966 35.1983V34.1983C34.4443 34.1983 33.9966 34.646 33.9966 35.1983H34.9966ZM21.5743 35.1983V34.1983C21.0221 34.1983 20.5743 34.646 20.5743 35.1983H21.5743ZM26.0485 35.1983H27.0485C27.0485 34.646 26.6007 34.1983 26.0485 34.1983V35.1983ZM21.5743 52.012H20.5743C20.5743 52.5643 21.0221 53.012 21.5743 53.012V52.012ZM26.0485 52.012V53.012C26.6007 53.012 27.0485 52.5643 27.0485 52.012H26.0485ZM36.7161 6.26428C36.692 6.2843 36.6571 6.2843 36.633 6.26428L37.9116 4.72636C37.1946 4.13028 36.1545 4.13027 35.4375 4.72636L36.7161 6.26428ZM2.97842 34.3133L36.7161 6.26428L35.4375 4.72636L1.69982 32.7753L2.97842 34.3133ZM2.93686 34.1983C2.93281 34.1983 2.93763 34.1978 2.94802 34.2013C2.95812 34.2046 2.96815 34.2099 2.97672 34.2163C2.99283 34.2283 2.99706 34.2386 2.99799 34.2412C2.99893 34.2438 3.00227 34.2544 2.99755 34.2739C2.99504 34.2843 2.99069 34.2948 2.98508 34.3038C2.97929 34.3131 2.9753 34.3158 2.97842 34.3133L1.69982 32.7753C0.307312 33.933 1.12595 36.1983 2.93686 36.1983V34.1983ZM12.6262 34.1983H2.93686V36.1983H12.6262V34.1983ZM13.6262 52.012V35.1983H11.6262V52.012H13.6262ZM11.0906 53.012H12.6262V51.012H11.0906V53.012ZM11.3893 52.7133C11.3893 52.8783 11.2556 53.012 11.0906 53.012V51.012C10.151 51.012 9.38935 51.7737 9.38935 52.7133H11.3893ZM11.3893 61.8393V52.7133H9.38935V61.8393H11.3893ZM11.0906 61.5406C11.2556 61.5406 11.3893 61.6743 11.3893 61.8393H9.38935C9.38935 62.7789 10.151 63.5406 11.0906 63.5406V61.5406ZM63.3768 61.5406H11.0906V63.5406H63.3768V61.5406ZM63.0781 61.8393C63.0781 61.6743 63.2118 61.5406 63.3768 61.5406V63.5406C64.3164 63.5406 65.0781 62.7789 65.0781 61.8393H63.0781ZM63.0781 52.7133V61.8393H65.0781V52.7133H63.0781ZM63.3768 53.012C63.2118 53.012 63.0781 52.8783 63.0781 52.7133H65.0781C65.0781 51.7737 64.3164 51.012 63.3768 51.012V53.012ZM61.841 53.012H63.3768V51.012H61.841V53.012ZM60.841 35.1983V52.012H62.841V35.1983H60.841ZM70.4122 34.1983H61.841V36.1983H70.4122V34.1983ZM70.3706 34.3133C70.3738 34.3158 70.3698 34.3131 70.364 34.3038C70.3584 34.2948 70.354 34.2843 70.3515 34.2739C70.3468 34.2544 70.3501 34.2438 70.3511 34.2412C70.352 34.2386 70.3562 34.2283 70.3723 34.2163C70.3809 34.2099 70.3909 34.2046 70.401 34.2013C70.4114 34.1978 70.4163 34.1983 70.4122 34.1983V36.1983C72.2231 36.1983 73.0417 33.933 71.6492 32.7753L70.3706 34.3133ZM36.633 6.26428L70.3706 34.3132L71.6492 32.7753L37.9116 4.72636L36.633 6.26428ZM52.8929 34.1983H48.4197V36.1983H52.8929V34.1983ZM47.4197 35.1983V52.012H49.4197V35.1983H47.4197ZM48.4197 53.012H52.8929V51.012H48.4197V53.012ZM53.8929 52.012V35.1983H51.8929V52.012H53.8929ZM40.4716 52.012V35.1983H38.4716V52.012H40.4716ZM34.9966 53.012H39.4716V51.012H34.9966V53.012ZM33.9966 35.1983V52.012H35.9966V35.1983H33.9966ZM39.4716 34.1983H34.9966V36.1983H39.4716V34.1983ZM21.5743 36.1983H26.0485V34.1983H21.5743V36.1983ZM22.5743 52.012V35.1983H20.5743V52.012H22.5743ZM26.0485 51.012H21.5743V53.012H26.0485V51.012ZM25.0485 35.1983V52.012H27.0485V35.1983H25.0485Z" fill="black" mask="url(#path-2-outside-1_1594_34102)"/>
<mask id="path-4-inside-2_1594_34102" fill="white">
<rect width="5.5" height="17" rx="0.5" transform="matrix(-1 0 0 1 26.2998 35)"/>
</mask>
<rect width="5.5" height="17" rx="0.5" transform="matrix(-1 0 0 1 26.2998 35)" fill="#62E3C4" stroke="black" stroke-width="2" mask="url(#path-4-inside-2_1594_34102)"/>
<mask id="path-5-inside-3_1594_34102" fill="white">
<rect width="5.5" height="17" rx="0.5" transform="matrix(-1 0 0 1 39.7998 35)"/>
</mask>
<rect width="5.5" height="17" rx="0.5" transform="matrix(-1 0 0 1 39.7998 35)" fill="#62E3C4" stroke="black" stroke-width="2" mask="url(#path-5-inside-3_1594_34102)"/>
<mask id="path-6-inside-4_1594_34102" fill="white">
<rect width="5.5" height="17" rx="0.5" transform="matrix(-1 0 0 1 53.2998 35)"/>
</mask>
<rect width="5.5" height="17" rx="0.5" transform="matrix(-1 0 0 1 53.2998 35)" fill="#62E3C4" stroke="black" stroke-width="2" mask="url(#path-6-inside-4_1594_34102)"/>
</svg>
