<svg xmlns="http://www.w3.org/2000/svg" xmlns:xlink="http://www.w3.org/1999/xlink" width="2856.953" height="2800" viewBox="0 0 2856.953 2800">
  <defs>
    <linearGradient id="linear-gradient" x1="0.786" y1="0.559" x2="1.776" y2="0.559" gradientUnits="objectBoundingBox">
      <stop offset="0" stop-color="#444b8c"/>
      <stop offset="0.996" stop-color="#26264f"/>
    </linearGradient>
    <linearGradient id="linear-gradient-2" x1="-16.905" y1="0.286" x2="-15.598" y2="-1.513" gradientUnits="objectBoundingBox">
      <stop offset="0" stop-color="#ffc444"/>
      <stop offset="0.996" stop-color="#f36f56"/>
    </linearGradient>
    <linearGradient id="linear-gradient-3" x1="-6.253" y1="-1.448" x2="-5.287" y2="-1.448" xlink:href="#linear-gradient"/>
    <linearGradient id="linear-gradient-4" x1="-22" y1="0.064" x2="-20.965" y2="-1.857" xlink:href="#linear-gradient-2"/>
    <linearGradient id="linear-gradient-5" x1="-1.671" y1="0.758" x2="-2.566" y2="0.092" gradientUnits="objectBoundingBox">
      <stop offset="0" stop-color="#311944"/>
      <stop offset="1" stop-color="#893976"/>
    </linearGradient>
    <linearGradient id="linear-gradient-6" x1="-2.066" y1="0.775" x2="-3.084" y2="0.099" xlink:href="#linear-gradient-5"/>
    <linearGradient id="linear-gradient-7" x1="-4.46" y1="0.843" x2="-5.553" y2="0.192" xlink:href="#linear-gradient-5"/>
    <linearGradient id="linear-gradient-8" x1="0.5" x2="0.5" y2="1" gradientUnits="objectBoundingBox">
      <stop offset="0" stop-color="#34c3a7"/>
      <stop offset="1" stop-color="#17957d"/>
    </linearGradient>
    <linearGradient id="linear-gradient-9" x1="0.5" x2="0.5" y2="1" gradientUnits="objectBoundingBox">
      <stop offset="0" stop-color="#18cca9"/>
      <stop offset="1" stop-color="#0c6655"/>
    </linearGradient>
    <linearGradient id="linear-gradient-10" x1="-1.289" y1="-1.69" x2="-1.233" y2="-3.459" xlink:href="#linear-gradient-2"/>
    <linearGradient id="linear-gradient-11" x1="-12.903" y1="-0.803" x2="-13.58" y2="-2.353" gradientUnits="objectBoundingBox">
      <stop offset="0" stop-color="#311944"/>
      <stop offset="1" stop-color="#6b3976"/>
    </linearGradient>
    <linearGradient id="linear-gradient-12" x1="-15.651" y1="-1.597" x2="-16.454" y2="-3.725" xlink:href="#linear-gradient-11"/>
    <linearGradient id="linear-gradient-13" x1="1.21" y1="0.5" x2="2.21" y2="0.5" gradientUnits="objectBoundingBox">
      <stop offset="0" stop-color="#ff9085"/>
      <stop offset="1" stop-color="#fb6fbb"/>
    </linearGradient>
  </defs>
  <g id="Group_6480" data-name="Group 6480" transform="translate(-420.503 -455)">
    <path id="Path_27463" data-name="Path 27463" d="M3011.125,2643.634c-577.611,738.83-1930.312,750.692-2304.781,340.3-149.454-163.769-188.915-445.044-246.92-858.2-27.924-198.889-31.923-359.207-34.294-469.2-8.175-374.16-12.245-561.258,47.989-688.542,172.529-364.347,771.87-506.153,1159.258-512.731q40.555-.7,81.822.539c453.6,13.516,965.459,202.339,1281.142,605.831a1353.364,1353.364,0,0,1,91.238,131.813C3374.73,1667.274,3326.244,2240.609,3011.125,2643.634Z" fill="#eaeaea" opacity="0.45"/>
    <g id="Group_6451" data-name="Group 6451">
      <g id="Group_6449" data-name="Group 6449">
        <path id="Path_27464" data-name="Path 27464" d="M1228.718,2756.238l-126.183-104.612L2321.756,1078.487,2447.939,1183.1Z" fill="#fe757f"/>
        <path id="Path_27465" data-name="Path 27465" d="M1775.237,818.875c-586.579,0-1062.093,491.809-1062.093,1098.488S1188.658,3015.85,1775.237,3015.85,2837.33,2524.041,2837.33,1917.363,2361.816,818.875,1775.237,818.875Zm0,2008.666c-486.024,0-880.023-407.5-880.023-910.178s394-910.179,880.023-910.179,880.023,407.5,880.023,910.179S2261.26,2827.541,1775.237,2827.541Z" fill="#fe767d"/>
      </g>
      <g id="Group_6450" data-name="Group 6450">
        <path id="Path_27466" data-name="Path 27466" d="M1301.709,2734.422,1175.526,2629.81l1219.22-1573.139,126.183,104.612Z" fill="#ff9085"/>
        <path id="Path_27467" data-name="Path 27467" d="M1848.228,797.059c-586.579,0-1062.094,491.809-1062.094,1098.488s475.515,1098.487,1062.094,1098.487,1062.093-491.809,1062.093-1098.487S2434.806,797.059,1848.228,797.059Zm0,2008.666c-486.024,0-880.024-407.5-880.024-910.178s394-910.179,880.024-910.179,880.023,407.5,880.023,910.179S2334.251,2805.725,1848.228,2805.725Z" fill="#ff9085"/>
      </g>
    </g>
    <g id="Group_6454" data-name="Group 6454">
      <path id="Path_27468" data-name="Path 27468" d="M2174.133,1850.354l-9.867-18.566s-9.077-1.872-13.193-8.359l-4.117-6.487s-2.058-6.814,5.413-14.209a7.463,7.463,0,0,0,2.221-6.355c-1.026-7.06-3.107-21.5-3.517-25.2-.273-2.444.725-5.358,1.8-7.68a1.853,1.853,0,0,1,3.48.264l7.911,29.107s6.338-1.6,8.516,3.732c0,0,5.479,3.27,6.3,8.967s-.01,19.469-.01,19.469l8.683,19.587Z" fill="#ffc444"/>
      <path id="Path_27469" data-name="Path 27469" d="M1503.945,1858.838l9.868-18.566s9.077-1.871,13.193-8.358l4.116-6.488s2.059-6.814-5.413-14.209a7.461,7.461,0,0,1-2.221-6.355c1.026-7.06,3.107-21.5,3.518-25.2.272-2.443-.725-5.357-1.8-7.68a1.853,1.853,0,0,0-3.479.264l-7.911,29.108s-6.339-1.6-8.516,3.731c0,0-5.48,3.27-6.3,8.967s.01,19.469.01,19.469l-8.683,19.587Z" fill="#ffc444"/>
      <path id="Path_27470" data-name="Path 27470" d="M1828.145,3210.064c-3.6,3.315-3.833,11.057-3.982,16.118-.068,2.26-.1,3.391.2,4.17,2.185,5.681,13.456,5.6,31.181,6.331,28.012,1.147,36.429,2.833,38.356-1.442,1.8-4.007-3.523-10.063-4.122-10.73-3.221-3.585-6.976-4.732-14.217-6.635-13.4-3.522-22.415-5.348-25.146-5.9C1833.364,3208.518,1830.512,3207.889,1828.145,3210.064Z" fill="url(#linear-gradient)"/>
      <path id="Path_27471" data-name="Path 27471" d="M1847.791,3182.132l1.093,31.885c-.873,1.491-10.552,5.584-17.834,1.241l-5.495-31.578Z" fill="url(#linear-gradient-2)"/>
      <path id="Path_27472" data-name="Path 27472" d="M2064.763,3212.943c-5.016,4.781-6.61,13.974-2.744,18.741,3.8,4.688,10.075,1.64,27.315,3.019,18.466,1.48,23.063,5.921,35.817,3.236,5.153-1.086,14.3-3.9,14.327-7.386.016-2.454-4.479-3.952-19.456-9.639-21.259-8.072-21.143-8.448-25.7-9.414C2082.879,3209.072,2071.389,3206.633,2064.763,3212.943Z" fill="url(#linear-gradient-3)"/>
      <path id="Path_27473" data-name="Path 27473" d="M2078.225,3184.588l7.63,30.1c-.79,1.552-10.516,6.371-18.423,2.6l-12.178-29.463Z" fill="url(#linear-gradient-4)"/>
      <path id="Path_27474" data-name="Path 27474" d="M2031.889,2531.476a2671.619,2671.619,0,0,0,54.773,662.194l-36.018,7.351c-28.534-28.421-64.062-72.682-79.014-133.422-9.28-37.7-4.438-56.577-9.095-102.6-7.414-73.278-28.505-112.551-49.232-172.4-18.626-53.779-39.806-132.389-47.72-236.419Z" fill="url(#linear-gradient-5)"/>
      <path id="Path_27475" data-name="Path 27475" d="M2015.307,2997.133c-13.221-50.267-38.69-63.559-39.6-111.006-.642-33.561,11.92-36.3,11.087-68.429-1.264-48.727-30.995-74.275-45.932-104.925-15.775-32.37-21.819-84.364,20.7-170.849l-95.977,14.259c7.914,104.03,29.094,182.641,47.72,236.418,20.728,59.848,41.818,99.121,49.232,172.4,4.657,46.022-.185,64.9,9.095,102.6,14.952,60.74,50.48,105,79.014,133.422l9.161-1.869c-30.845-35.349-41.73-66.918-44.5-92.533C2010.8,3064.944,2028.635,3047.815,2015.307,2997.133Z" opacity="0.3" fill="url(#linear-gradient-6)" style="mix-blend-mode: multiply;isolation: isolate"/>
      <path id="Path_27476" data-name="Path 27476" d="M1917.325,2517.961q-20.577,189.4-37.672,386-12.771,147.507-22.81,291.37-17.526,1.218-35.054,2.439a406.116,406.116,0,0,1-31.314-95.672c-9.742-50.363-5.3-79.724-7.98-131.525-3.014-58.1-11.2-71.158-23-144.876-23.954-149.609-35.932-224.415,2.057-268.52C1773.879,2542.859,1812.039,2507.327,1917.325,2517.961Z" fill="url(#linear-gradient-7)"/>
      <path id="Path_27477" data-name="Path 27477" d="M2193.988,1833.392q-16.41,6.939-32.83,13.879c5.413,12.559,35.6,85.7.765,153.592-30.32,59.1-100.675,96.2-179.828,93.385-14.492-2.361-29.644-4.394-45.415-5.992-7.552-1.715-15.128-3.758-22.7-6.233-.053.837-.134,2.286-.219,4.263-7.175-.506-14.443-.936-21.845-1.241a754.433,754.433,0,0,0-127.8,5.637c0-.047-.008-.132-.008-.175-.348.113-.692.2-1.04.317-24.178,3.154-46.8,7.262-67.695,11.918-78.906,2.6-148.973-34.446-179.216-93.395-34.831-67.893-4.644-141.033.765-153.592q-16.41-6.939-32.83-13.879c-14.832,16.325-106.4,120.256-82.656,248.631,27.368,147.961,193.048,266.195,284.219,227.329.223.751.466,1.517.685,2.266,14.225,48.595,23.8,94.785,24.631,149.683.287,17.912.081,67.876,3.025,141.432,1.951,47.683,3.939,75.007,19.78,82.1a16.361,16.361,0,0,0,4.932,1.369,18.761,18.761,0,0,0,4.312-.125c13.31-2.073,28.239-19.156,60.7-30.143,29.4-9.952,59.041-7.256,117.09-1.493,86.579,8.583,92.714,20.815,109.712,10.656,9.994-5.971,15.262-14.636,18.744-30.393,5.681-25.293,6.843-68.871,15.921-148.9,9.083-79.61,12.937-80.48,16.918-136.87,1.239-17.739,2.041-34.616,2.518-50.521,82.911-29.228,172.535-119.516,192.024-224.875C2300.392,1953.648,2208.825,1849.716,2193.988,1833.392Z" fill="url(#linear-gradient-8)"/>
      <path id="Path_27478" data-name="Path 27478" d="M2050.344,2643.1c-3.523,17.373-8.791,26.37-19.821,32.383-17,9.247-23.133-1.907-109.712-9.7-58.049-5.225-87.693-7.671-117.09,1.368-32.466,10.034-47.395,25.541-60.7,27.407a18.761,18.761,0,0,1-4.312.125,16.361,16.361,0,0,1-4.932-1.369c-15.841-7.09-17.829-34.414-19.78-82.1-2.944-73.556-2.738-123.52-3.025-141.432-.83-54.9-10.406-101.088-24.631-149.683,21.728-7.05,34-4.852,41.342-.208,23.55,14.8-2.2,54.234,24.335,96.859,28.033,44.946,80.275,39.1,88.2,71.939,9.994,41.3-64.932,83.176-54.732,96.859,9.787,13.1,72.52-34.207,129.241-13.849,39.807,14.263,39.556,48.512,82.142,65.015,17.33,6.758,35.365,8.043,52.408,6.468A9.317,9.317,0,0,0,2050.344,2643.1Z" opacity="0.3" fill="url(#linear-gradient-9)" style="mix-blend-mode: multiply;isolation: isolate"/>
      <g id="Group_6453" data-name="Group 6453">
        <path id="Path_27479" data-name="Path 27479" d="M1884.126,2003.738a241.315,241.315,0,0,1-6.88,47.968c-3.18,12.706-5.154,15.926-7.591,18.495-3.669,3.867-9.084,6.986-39.039,12.739-16.3,3.129-18.365,2.91-18.806,4.487-2.148,7.7,40.3,36.583,85.967,32.6,27.948-2.433,54.03-16.911,52.925-25.3-1.113-8.447-29.059-5.439-36.51-21.011-5.182-10.832,2.055-25.431,10.328-37.4C1917.884,2022.111,1890.761,2017.944,1884.126,2003.738Z" fill="url(#linear-gradient-10)"/>
        <g id="Group_6452" data-name="Group 6452">
          <path id="Path_27480" data-name="Path 27480" d="M1935.174,2014.643c7.01-8.346,8.225-23.505,1.194-33.505-6.05-8.6-16.2-10.327-22.279-11.361-17.612-2.992-40.366,3.212-49.014,19.106-5.124,9.419,3.772,30.034,5.14,33.728,1.55,4.177,4.679,5.749,7.48,8.994,3.88,4.5,9.949,11.65,19.841,23.595a73.121,73.121,0,0,1,4.669-11.81,64.516,64.516,0,0,1,9.17-13.68C1921.211,2018.94,1928.528,2022.553,1935.174,2014.643Z" fill="url(#linear-gradient-11)"/>
          <path id="Path_27481" data-name="Path 27481" d="M1883.07,2044.827s10.629,19.734,33.905,19.464c20.838-.243,26.367-46.652,13.631-57.242-4.25-3.534-13.04-5.377-20.354-3.742-4.32.966-5.855,2.658-12.945,4.1-6.54,1.33-8.323.517-10.357,2.051-2.545,1.92-4.6,6.849-1.258,20.681-3.748-4.222-8.421-6.017-11.876-4.606a7.113,7.113,0,0,0-2.91,2.547C1867.719,2033.241,1872.215,2040.294,1883.07,2044.827Z" fill="#ffc444"/>
          <path id="Path_27482" data-name="Path 27482" d="M1886.159,2006.62c.962.8-2.3,4.373-2.809,9.649-.993,10.242,8.74,23.119,19.284,24.73,6.234.951,8.158-2.733,18.576-3.275a47.515,47.515,0,0,1,15.066,1.681c2.655,11.431-1.008,22.493-8.812,27.3-8.4,5.174-18.569,1.22-22.82-.433-2.843-1.106-11.957-4.631-16.351-13.4-4.577-9.134.665-14.213-4.81-20.517-2.761-3.18-6.53-4.7-9.955-10.749a28.958,28.958,0,0,1-1.9-4.056C1877.293,2012.161,1884.767,2005.46,1886.159,2006.62Z" fill="url(#linear-gradient-12)"/>
          <path id="Path_27483" data-name="Path 27483" d="M1926.093,2046.935c0,2.361-1.509,4.276-3.369,4.276s-3.369-1.915-3.369-4.276,1.508-4.276,3.369-4.276S1926.093,2044.573,1926.093,2046.935Z" fill="#ffc444"/>
        </g>
      </g>
    </g>
    <g id="Group_6466" data-name="Group 6466">
      <g id="Group_6463" data-name="Group 6463">
        <g id="Group_6462" data-name="Group 6462">
          <path id="Path_27506" data-name="Path 27506" d="M2397.917,1429.828q-49.413,199.542-99.248,400.8c-.186.835.231-.835,0,0-131.963-39.486-273.528-57.535-419.733-57.953a1682.012,1682.012,0,0,0-316.775,29.743c-41.805,7.887-83.1,19.626-125.23,30.762-2.877.742-6.407-.788-9.28,0q-68.492-229.262-139.34-466.226c156.876-32.9,311.3-48.673,460.981-48.4,200.123.418,391.848,29.511,569.7,84.728Q2358.943,1415.675,2397.917,1429.828Z" fill="#ff9220"/>
          <path id="Path_27507" data-name="Path 27507" d="M2407.2,1429.828q-49.761,200.795-99.851,403.354c-2.877-.881-5.8-1.717-8.677-2.552-132.24-38.65-273.433-58.37-419.733-57.953a1685.157,1685.157,0,0,0-317.051,31.6q-62.226,12.04-124.954,28.907c-.235-.743-.466-1.531-.7-2.273q-68.139-228.148-138.643-463.953c153.632-32.248,304.894-48.024,451.7-48.4,201.147-.463,393.842,27.981,572.668,82.825Q2365.112,1414.54,2407.2,1429.828Z" fill="#ffa825"/>
        </g>
        <path id="Path_27508" data-name="Path 27508" d="M2407.2,1429.828q-49.761,200.795-99.851,403.354c-2.877-.881-5.8-1.717-8.677-2.552-.186.835.231-.835,0,0-131.963-39.486-273.528-57.535-419.733-57.953a1685.157,1685.157,0,0,0-317.051,31.6c.09-.6.186-1.253.276-1.855,1.255-7.146,2.6-14.849,3.992-23.107,15.08-88.671,177.48-14.571,276.963-143.33s257.8-54.52,321.6-46.4,83.379-98.09,138.04-170.52a70.083,70.083,0,0,1,16.24-15.775,35.049,35.049,0,0,1,2.968-1.9Q2365.112,1414.54,2407.2,1429.828Z" opacity="0.3" fill="url(#linear-gradient-13)" style="mix-blend-mode: multiply;isolation: isolate"/>
      </g>
      <text id="Account_Disabled_" data-name="Account 
Disabled*" transform="translate(1847.503 1530)" fill="#fff" font-size="117" font-family="'ADAM\.CGPRO', 'ADAM\.CG PRO'" letter-spacing="-0.01em"><tspan x="-298.057" y="0">Account </tspan><tspan x="-275.184" y="143">Disabled*</tspan></text>
    </g>
    <g id="Group_6467" data-name="Group 6467">
      <path id="Path_27511" data-name="Path 27511" d="M2656.4,1232.187a18.056,18.056,0,0,1-25.25,3.813l-.041-.03a18.057,18.057,0,0,1-3.813-25.251l169.39-229.643a18.056,18.056,0,0,1,25.25-3.813l.041.03a18.057,18.057,0,0,1,3.813,25.251Z" fill="#fe767d"/>
      <path id="Path_27512" data-name="Path 27512" d="M1499.131,973.645c1.781,9.813-4.669,19.633-14.534,21.047l-.051.007c-9.865,1.415-19.218-4.784-21-14.6L1412.574,699.25c-1.781-9.813,4.665-19.66,14.53-21.074l.051-.008c9.865-1.414,19.222,4.812,21,14.624Z" fill="#fe767d"/>
      <path id="Path_27513" data-name="Path 27513" d="M2272.825,1037.927c-4.724,8.783-1.623,20.115,7.323,24.507l.046.023c8.946,4.392,19.756,1.386,24.481-7.4L2439.9,803.683c4.725-8.783,1.635-20.14-7.31-24.532l-.047-.023c-8.945-4.391-19.768-1.36-24.493,7.422Z" fill="#fe767d"/>
      <path id="Path_27514" data-name="Path 27514" d="M1882.522,942.277c-1.17,9.9,5.878,19.256,15.821,19.921l.051,0c9.943.665,18.873-5.778,20.044-15.682l33.537-284.1c1.171-9.9-5.821-20.105-15.764-20.769l-.051,0a19.014,19.014,0,0,0-20.1,16.53Z" fill="#fe767d"/>
      <path id="Path_27515" data-name="Path 27515" d="M2907.343,1452.635a18.058,18.058,0,0,1-25.1-4.692l-.029-.043a18.057,18.057,0,0,1,4.693-25.1l235.422-161.262a18.057,18.057,0,0,1,25.1,4.692l.029.043a18.056,18.056,0,0,1-4.692,25.1Z" fill="#fe767d"/>
      <path id="Path_27516" data-name="Path 27516" d="M1050.179,1138.769a18.057,18.057,0,0,0,25.068,4.869l.042-.029a18.057,18.057,0,0,0,4.869-25.068l-159.6-236.549a18.058,18.058,0,0,0-25.068-4.869l-.043.029a18.057,18.057,0,0,0-4.869,25.068Z" fill="#fe767d"/>
      <path id="Path_27517" data-name="Path 27517" d="M833.024,1358.516a18.058,18.058,0,0,0,24.251-8l.023-.046a18.057,18.057,0,0,0-8-24.251l-254.838-128.4a18.057,18.057,0,0,0-24.251,8l-.023.046a18.056,18.056,0,0,0,8,24.25Z" fill="#fe767d"/>
    </g>
  </g>
</svg>
