<svg xmlns="http://www.w3.org/2000/svg" width="579.916" height="238.751" viewBox="0 0 579.916 238.751">
  <g id="Group_4642" data-name="Group 4642" transform="translate(-9619.461 -2540.618)">
    <g id="Group_4495" data-name="Group 4495" transform="translate(8161.439 1281.645)">
      <path id="Path_18503" data-name="Path 18503" d="M1945.918,1382.53c.623-20.055,18.531-38.338,35.118-49.629s36.27-16.961,55.669-22.088c-4.143,7.328-8.395,14.8-14.656,20.423-10.961,9.854-26.341,12.667-39.734,18.822a83.728,83.728,0,0,0-36.4,32.472" fill="#7eb299"/>
      <path id="Path_18504" data-name="Path 18504" d="M1945.806,1382.233a229.254,229.254,0,0,1-11.09-42.554c-2.081-12.948-3.006-26.628,2.511-39.88,6.448-15.488,20.836-28.484,34.736-40.826-8.445,20.172-10.579,43.449-19.023,63.621-2.529,6.04-5.079,12.159-5.792,18.3-.642,5.527.225,10.892,1.09,16.2,1.573,9.658-3.163,16.211-1.589,25.869" fill="#7eb299"/>
      <path id="Path_18505" data-name="Path 18505" d="M1944.569,1381.715c5.015-3.729,15.633-8.45,21.868-8.878,30.83-2.119,49.914,7.988,71.5,31.966-5.35,2.81-11.937,1.932-17.578-.235s-10.774-5.511-16.418-7.67c-10.69-4.088-22.474-3.694-33.915-3.98a44.257,44.257,0,0,1-9.5-.983,24.378,24.378,0,0,1-14.692-10.656" fill="#7eb299"/>
      <path id="Path_18506" data-name="Path 18506" d="M1947.891,1381.97c-5.993-3.6-9.406-10.159-13.37-15.918-6.194-9-14.24-16.54-22.22-24-5.33-4.985-10.848-10.09-17.677-12.661-9.554-3.6-19.3-7.241-30.218.173,3.4-1.593,7.552-.661,10.693,1.4s5.489,5.1,7.81,8.049q11.857,15.088,24.847,29.243c5.5,5.993,11.337,11.99,18.739,15.366s16.781,3.6,23.128-1.486" fill="#7eb299"/>
    </g>
    <g id="Group_4518" data-name="Group 4518" transform="translate(8161.439 1281.645)">
      <g id="Group_4673" data-name="Group 4673">
        <g id="Group_4516" data-name="Group 4516">
          <path id="Path_18536" data-name="Path 18536" d="M1517.271,1311.488c19.557,17.844,21.731,48.512,39.1,68.488,8.1,9.314,19,15.69,28.215,23.9" fill="none" stroke="#e48e41" stroke-miterlimit="10" stroke-width="0.75"/>
          <path id="Path_18537" data-name="Path 18537" d="M1561,1385.467c-17.03-6.122-33.185-6.879-51.283-6.829s-36.411,4.393-51.692,14.089c9.811-4.562,21.347-2.51,31.736.511s20.916,6.973,31.686,5.94c13.944-1.337,25.852-10.8,39.553-13.711" fill="#e48e41"/>
          <path id="Path_18539" data-name="Path 18539" d="M1537.441,1347.188c-6.883-8.114-14.3-15.941-23.254-21.693a66.625,66.625,0,0,0-48.093-9.263c24.551,5.715,44.595,24.927,69.449,29.137" fill="#e48e41"/>
          <path id="Path_18540" data-name="Path 18540" d="M1537.972,1343.7c-4.043-8.286-3.165-18.417.883-26.7s10.953-14.885,18.584-20.058a296.836,296.836,0,0,1-20.522,48.729" fill="#e48e41"/>
          <path id="Path_18541" data-name="Path 18541" d="M1529.865,1328.072c-5.757-2.434-6.645-10.645-8-16.641-2.262-9.979-8.386-17.785-14.423-25.413a23.448,23.448,0,0,0-5.755-5.743c-6.477-4.035-16.695-2.519-26.184-.905a85.821,85.821,0,0,1,27.428,17.408c9.915,9.461,15.934,22.864,26.938,31.294" fill="#e48e41"/>
        </g>
      </g>
    </g>
    <g id="Group_4551" data-name="Group 4551" transform="translate(8161.439 1281.645)">
      <g id="Group_4672" data-name="Group 4672">
        <g id="Group_4549" data-name="Group 4549">
          <path id="Path_18593" data-name="Path 18593" d="M1715.646,1413.707c-3.952,6.738-7.824,13.523-11.7,20.3-.372.647-1.023,1.213-.782,2.1a2.71,2.71,0,0,1-2.215,2.486q-2.226.633-4.434,1.323a136.346,136.346,0,0,1-37.225,5.812,114.462,114.462,0,0,1-22.983-1.97,117.324,117.324,0,0,1-33.505-11.438c-2.029-1.049-3.817-2.613-6.163-3.023a2.688,2.688,0,0,0-2.6-.883c-3.673.6-7.4.845-11.05,1.6-5.191,1.073-9.976-1.848-11.794-7.178q-6.289-18.439-12.538-36.891c-.215-.642-.224-1.4-.858-1.851v-4.646a13.516,13.516,0,0,1,7.795-8.011c2.748-1.225,5.255-2.988,7.888-4.476a2.133,2.133,0,0,0,1.273-1.945,98.129,98.129,0,0,1,13.117-43.227,3.228,3.228,0,0,0-.127-3.944c-8.311-12.584-17.649-24.412-26.75-36.413-.241-.317-.676-.545-.524-1.331,3.851.359,7.727.693,11.6,1.094a354.444,354.444,0,0,1,42.686,6.912,3.086,3.086,0,0,0,2.841-.888,131.38,131.38,0,0,1,30.039-17.847,4.8,4.8,0,0,1,3.631-.224q8.128,2.631,16.325,5.056c1.289.388,1.847.9,1.065,2.181-.651-.778-1.373-.368-2.117-.161a117.048,117.048,0,0,0-27.76,11.929c-3.251,1.919-6.641,3.674-9.368,6.366a4.229,4.229,0,0,0-.976,5.187c1.5,3.188,4.692,3.957,7.976,1.683a114.62,114.62,0,0,1,21.056-11.456c2.625-1.1,5.2-2.494,8.159-2.612-1.112,5.732-2.909,11.29-4.388,16.934-.415,1.585-.216,2.312,1.365,3.014,6.108,2.709,12.124,5.626,18.215,8.374,1.336.6,1.518,1.12.926,2.477-3.784,8.636-7.423,17.331-11.185,25.976-.6,1.378-.571,2.088.841,2.989,8.661,5.52,17.23,11.2,25.879,16.748a2.006,2.006,0,0,1,.972,2.874c-3.716,10.475-7.292,21-11.025,31.463-.625,1.75-.426,2.49,1.4,3.175,8.767,3.272,17.458,6.734,26.217,10.027C1716.352,1411.94,1716.4,1412.422,1715.646,1413.707Z" fill="#5abfbf"/>
          <path id="Path_18594" data-name="Path 18594" d="M1980.422,1419.6c-.194.278-.4.546-.579.834a5.076,5.076,0,0,1-9.566-2.167,72.581,72.581,0,0,0-3.776-17.916,8.234,8.234,0,0,0-1.378-2.58c-.164,1.383-.242,2.781-.505,4.144-1.553,8.062-6.68,13.169-14.152,14.159a18.719,18.719,0,0,1-18.674-10.137c-4.174-8.651-1.725-16.407,3.675-23.63a24.684,24.684,0,0,1,4.642-4.358c-6.528-1.781-12.241-.912-17.545,2.729a10.068,10.068,0,0,0-4.607,6.736c-5.987,28.459-22.654,48.949-47.761,62.964a92.44,92.44,0,0,1-11.847,5.522,3.891,3.891,0,0,0-2.244,2.021c-6.117,11.959-12.307,23.882-18.42,35.845a8.646,8.646,0,0,1-3.594,3.961l-3.234-.007c-6.229-2.388-12.668-4.139-18.991-6.243-4.823-1.6-5.755-3.135-4.979-8.129.885-5.7,1.575-11.431,2.561-17.111.319-1.841-.282-2.1-1.841-2.168a127.54,127.54,0,0,1-31.927-5.518c-.583-.176-1.157-.385-2.072-.691,3.6-1.976,6.891-3.853,10.254-5.581,1.245-.64,1.421-1.12.6-2.3-1.391-2.02-2.58-4.18-3.854-6.281,3.419.274,6.833.7,10.256.791a125.932,125.932,0,0,0,19.713-1.176,114.581,114.581,0,0,0,36.486-10.955,99.656,99.656,0,0,0,31.3-24.113,88.937,88.937,0,0,0,21.43-65.8,98.953,98.953,0,0,0-16.21-46.614c-1.548-2.4-3.61-4.482-4.64-7.215a18.35,18.35,0,0,1,4.546,3.635c18.23,16.8,30.524,36.994,35.01,61.61a104.075,104.075,0,0,1,1.432,16.122c.7.344,1.142-.156,1.624-.358,11.466-4.827,22.109-3.227,32.044,4.051a7.474,7.474,0,0,0,2.44,1.6c6.149,1.639,10.672,5.518,14.272,10.589,5.347,7.529,7.777,16.145,9.279,25.107.2,1.2-.026,2.509.823,3.561Zm-25.4-22.781a20.744,20.744,0,0,0-3.323-10.545,2.409,2.409,0,0,0-3.339-1.069c-4.775,1.767-7.119,5.5-8.2,10.185a8.381,8.381,0,0,0,5.5,10.1c4.2,1.549,7.634-.182,8.754-4.515A37.688,37.688,0,0,0,1955.018,1396.816Z" fill="#2c8987"/>
          <path id="Path_18595" data-name="Path 18595" d="M1878.952,1288.608c1.03,2.733,3.092,4.814,4.64,7.215a98.953,98.953,0,0,1,16.21,46.614,88.937,88.937,0,0,1-21.43,65.8,99.656,99.656,0,0,1-31.3,24.113,114.581,114.581,0,0,1-36.486,10.955,125.932,125.932,0,0,1-19.713,1.176c-3.423-.093-6.837-.517-10.256-.791-2.954-4.625-5.869-9.277-8.89-13.859-.845-1.282-.093-1.464.822-1.862,7.291-3.169,14.553-6.408,21.866-9.526,1.427-.608,1.767-.975.813-2.441-5.145-7.9-10.128-15.913-15.26-23.825-.9-1.383-.78-2,.595-2.926,9.281-6.254,18.481-12.628,27.755-18.894,1.24-.837,1.617-1.479,1.034-3-3.653-9.527-7.14-19.118-10.789-28.647-.584-1.525-.477-2.232,1.029-3.093,8.128-4.643,16.157-9.458,24.273-14.122,1.427-.82,1.593-1.44.778-2.876-3.332-5.876-6.5-11.846-9.792-17.745-.587-1.053-.572-1.656.436-2.438,5.06-3.924,10.06-7.924,15.082-11.9.316.661.983.72,1.57.938a110.927,110.927,0,0,1,18.135,8.408c2.411,1.43,4.807,2.891,7.151,4.428a5.135,5.135,0,0,0,5.937-.051c1.9-1.163,2.145-3.054,1.84-5.018-.282-1.818-1.678-2.863-3.108-3.794a121,121,0,0,0-22.739-11.87c.823-.888-.09-1.4-.486-1.944-3.188-4.384-6.412-8.742-9.62-13.112-.4-.549-.778-1.119-1.4-2.011a120.065,120.065,0,0,1,16.173,5.172,131.263,131.263,0,0,1,33.717,19.436A14.139,14.139,0,0,1,1878.952,1288.608Z" fill="#5abfbf"/>
          <path id="Path_18596" data-name="Path 18596" d="M1596.635,1429.3c2.343.41,4.135,1.972,6.162,3.021a117.237,117.237,0,0,0,33.5,11.439,114.543,114.543,0,0,0,22.983,1.969,136.165,136.165,0,0,0,37.225-5.812q2.211-.687,4.436-1.323a2.707,2.707,0,0,0,2.212-2.486c7.8,2.992,15.586,6,23.394,8.959,1.085.412,1.386.829.82,1.973-1.592,3.211-3.118,6.459-4.534,9.751-.508,1.183-1.443,1.417-2.435,1.738a131.482,131.482,0,0,1-27.2,5.726c-1.55.157-1.971.447-1.668,2.105,1.059,5.811,1.936,11.656,2.845,17.493.481,3.083-.626,5.086-3.534,6.1q-10.053,3.507-20.165,6.848c-3,.993-5.172-.025-6.779-3.022q-8.525-15.892-17-31.811a4.52,4.52,0,0,0-2.913-2.411c-18.163-5.681-33.955-15.162-46.719-29.429C1597.039,1429.872,1596.846,1429.579,1596.635,1429.3Z" fill="#2c8987"/>
          <path id="Path_18597" data-name="Path 18597" d="M1665.618,1287.322c-2.957.12-5.534,1.516-8.159,2.613a114.363,114.363,0,0,0-21.056,11.456c-3.286,2.273-6.48,1.506-7.977-1.682a4.235,4.235,0,0,1,.978-5.189c2.725-2.691,6.116-4.445,9.366-6.366a117.051,117.051,0,0,1,27.762-11.926c.743-.21,1.465-.618,2.118.16A95.856,95.856,0,0,1,1665.618,1287.322Z" fill="#2c8987"/>
          <path id="Path_18598" data-name="Path 18598" d="M1839.151,1279.58a121,121,0,0,1,22.739,11.87c1.43.931,2.826,1.976,3.108,3.794.3,1.964.059,3.855-1.84,5.018a5.135,5.135,0,0,1-5.937.051c-2.344-1.537-4.74-3-7.151-4.428a110.927,110.927,0,0,0-18.135-8.408c-.587-.218-1.254-.277-1.57-.938Z" fill="#2c8987"/>
          <circle id="Ellipse_53" data-name="Ellipse 53" cx="9.159" cy="9.159" r="9.159" transform="translate(1601.004 1335.199)" fill="#2c8987"/>
        </g>
      </g>
    </g>
  </g>
</svg>
