<svg width="375" height="90" viewBox="0 0 375 90" fill="none" xmlns="http://www.w3.org/2000/svg">
<rect width="375" height="90" fill="#023C40"/>
<mask id="mask0_1924_23364" style="mask-type:alpha" maskUnits="userSpaceOnUse" x="0" y="0" width="375" height="90">
<rect width="375" height="90" fill="#023C40"/>
</mask>
<g mask="url(#mask0_1924_23364)">
<path opacity="0.6" d="M314.352 66.625C313.582 68.7767 312.286 70.8864 308.774 72.3091C308.439 72.4449 308.487 73.0615 308.836 73.1537C311.979 73.9916 313.337 76.1415 314.409 78.7591C314.52 79.0305 314.905 79.0439 315.038 78.7808C316.325 76.2237 318.143 74.1726 320.876 73.2023C321.197 73.0884 321.215 72.5588 320.901 72.4315C317.764 71.1495 315.996 69.0197 315.058 66.62C314.938 66.3133 314.465 66.3133 314.354 66.625H314.352Z" fill="#FFD979"/>
<path opacity="0.6" d="M94.2487 70.1312C93.8175 71.3353 93.0927 72.5159 91.1273 73.3121C90.9396 73.3881 90.9665 73.7332 91.1617 73.7847C92.9208 74.2536 93.6809 75.4568 94.2803 76.9216C94.3425 77.0735 94.5581 77.081 94.6325 76.9338C95.3527 75.5027 96.3702 74.3549 97.8998 73.8119C98.0791 73.7482 98.0893 73.4518 97.9137 73.3806C96.1583 72.6632 95.1687 71.4713 94.6436 70.1284C94.5767 69.9567 94.3119 69.9567 94.2496 70.1312H94.2487Z" fill="#62E3C4"/>
<path opacity="0.3" d="M330.249 51.1312C329.818 52.3353 329.093 53.5159 327.127 54.3121C326.94 54.3881 326.967 54.7332 327.162 54.7847C328.921 55.2536 329.681 56.4568 330.28 57.9216C330.343 58.0735 330.558 58.081 330.632 57.9338C331.353 56.5027 332.37 55.3549 333.9 54.8119C334.079 54.7482 334.089 54.4518 333.914 54.3806C332.158 53.6632 331.169 52.4713 330.644 51.1284C330.577 50.9567 330.312 50.9567 330.25 51.1312H330.249Z" fill="#62E3C4"/>
<path opacity="0.8" d="M14.2847 -0.832307C13.7886 0.707029 12.9547 2.2164 10.6933 3.23423C10.4774 3.33134 10.5084 3.77251 10.7329 3.83845C12.7569 4.43788 13.6314 5.97602 14.3211 7.84864C14.3927 8.04285 14.6408 8.05244 14.7263 7.86422C15.5549 6.03476 16.7257 4.56736 18.4855 3.87322C18.6919 3.7917 18.7036 3.41286 18.5016 3.32174C16.4819 2.40461 15.3432 0.880864 14.7391 -0.835903C14.6621 -1.05529 14.3574 -1.05529 14.2858 -0.832307H14.2847Z" fill="#FFD979"/>
<path opacity="0.6" d="M39.776 8.13117C39.3449 9.33528 38.62 10.5159 36.6546 11.3121C36.4669 11.3881 36.4939 11.7332 36.689 11.7847C38.4481 12.2536 39.2083 13.4568 39.8076 14.9216C39.8699 15.0735 40.0855 15.081 40.1598 14.9338C40.88 13.5027 41.8975 12.3549 43.4271 11.8119C43.6065 11.7482 43.6167 11.4518 43.441 11.3806C41.6857 10.6632 40.696 9.47125 40.171 8.12836C40.1041 7.95675 39.8392 7.95675 39.777 8.13117H39.776Z" fill="#62E3C4"/>
<path opacity="0.6" d="M189.776 83.1312C189.345 84.3353 188.62 85.5159 186.655 86.3121C186.467 86.3881 186.494 86.7332 186.689 86.7847C188.448 87.2536 189.208 88.4568 189.808 89.9216C189.87 90.0735 190.085 90.081 190.16 89.9338C190.88 88.5027 191.898 87.3549 193.427 86.8119C193.606 86.7482 193.617 86.4518 193.441 86.3806C191.686 85.6632 190.696 84.4713 190.171 83.1284C190.104 82.9567 189.839 82.9567 189.777 83.1312H189.776Z" fill="#62E3C4"/>
<path opacity="0.6" d="M29.776 85.1312C29.3449 86.3353 28.62 87.5159 26.6546 88.3121C26.4669 88.3881 26.4939 88.7332 26.689 88.7847C28.4481 89.2536 29.2083 90.4568 29.8076 91.9216C29.8699 92.0735 30.0855 92.081 30.1598 91.9338C30.88 90.5027 31.8975 89.3549 33.4271 88.8119C33.6065 88.7482 33.6167 88.4518 33.441 88.3806C31.6857 87.6632 30.696 86.4713 30.171 85.1284C30.1041 84.9567 29.8392 84.9567 29.777 85.1312H29.776Z" fill="#62E3C4"/>
<path opacity="0.6" d="M348.352 3.62502C347.582 5.77667 346.286 7.88643 342.774 9.30913C342.439 9.44487 342.487 10.0615 342.836 10.1537C345.979 10.9916 347.337 13.1415 348.409 15.7591C348.52 16.0305 348.905 16.0439 349.038 15.7808C350.325 13.2237 352.143 11.1726 354.876 10.2023C355.197 10.0884 355.215 9.55882 354.901 9.43146C351.764 8.14952 349.996 6.01965 349.058 3.62C348.938 3.31334 348.465 3.31334 348.354 3.62502H348.352Z" fill="#FFD979"/>
<path opacity="0.3" d="M30.7281 42.7248C29.8351 45.2185 28.334 47.6637 24.2636 49.3126C23.8749 49.4699 23.9307 50.1846 24.3348 50.2914C27.978 51.2625 29.5522 53.7543 30.7935 56.7879C30.9225 57.1025 31.369 57.1181 31.5229 56.8132C33.0144 53.8494 35.1218 51.4722 38.2896 50.3477C38.661 50.2157 38.6822 49.602 38.3184 49.4543C34.683 47.9686 32.6334 45.5001 31.546 42.719C31.4075 42.3635 30.859 42.3635 30.73 42.7248H30.7281Z" fill="#FFD979"/>
<path opacity="0.6" d="M-1.27189 26.7248C-2.16487 29.2185 -3.666 31.6637 -7.73636 33.3126C-8.12512 33.4699 -8.06931 34.1846 -7.66516 34.2914C-4.02203 35.2625 -2.44777 37.7543 -1.20646 40.7879C-1.07751 41.1025 -0.631025 41.1181 -0.477064 40.8132C1.01444 37.8494 3.12179 35.4722 6.28956 34.3477C6.66099 34.2157 6.68216 33.602 6.31843 33.4543C2.683 31.9686 0.633387 29.5001 -0.453969 26.719C-0.592534 26.3635 -1.14102 26.3635 -1.26997 26.7248H-1.27189Z" fill="#62E3C4"/>
<path opacity="0.6" d="M357.796 20.1312C357.364 21.3353 356.64 22.5159 354.674 23.3121C354.486 23.3881 354.513 23.7332 354.709 23.7847C356.468 24.2536 357.228 25.4568 357.827 26.9216C357.889 27.0735 358.105 27.081 358.179 26.9338C358.9 25.5027 359.917 24.3549 361.447 23.8119C361.626 23.7482 361.636 23.4518 361.461 23.3806C359.705 22.6632 358.716 21.4713 358.191 20.1284C358.124 19.9567 357.859 19.9567 357.796 20.1312H357.796Z" fill="#62E3C4"/>
<path opacity="0.6" d="M376.352 53.2344C375.582 55.386 374.286 57.4958 370.774 58.9185C370.439 59.0542 370.487 59.6709 370.836 59.7631C373.979 60.6009 375.337 62.7509 376.409 65.3684C376.52 65.6399 376.905 65.6533 377.038 65.3902C378.325 62.833 380.143 60.7819 382.876 59.8117C383.197 59.6977 383.215 59.1682 382.901 59.0408C379.764 57.7589 377.996 55.629 377.058 53.2294C376.938 52.9227 376.465 52.9227 376.354 53.2344H376.352Z" fill="#FFD979"/>
<path opacity="0.6" d="M364.796 70.1312C364.364 71.3353 363.64 72.5159 361.674 73.3121C361.486 73.3881 361.513 73.7332 361.709 73.7847C363.468 74.2536 364.228 75.4568 364.827 76.9216C364.889 77.0735 365.105 77.081 365.179 76.9338C365.9 75.5027 366.917 74.3549 368.447 73.8119C368.626 73.7482 368.636 73.4518 368.461 73.3806C366.705 72.6632 365.716 71.4713 365.191 70.1284C365.124 69.9567 364.859 69.9567 364.796 70.1312H364.796Z" fill="#62E3C4"/>
<path opacity="0.6" d="M373.796 1.13117C373.364 2.33528 372.64 3.51594 370.674 4.31211C370.486 4.38807 370.513 4.73317 370.709 4.78474C372.468 5.25363 373.228 6.4568 373.827 7.9216C373.889 8.07352 374.105 8.08102 374.179 7.93379C374.9 6.50275 375.917 5.35491 377.447 4.81194C377.626 4.74817 377.636 4.45183 377.461 4.38056C375.705 3.66316 374.716 2.47125 374.191 1.12836C374.124 0.956747 373.859 0.956747 373.796 1.13117H373.796Z" fill="#62E3C4"/>
<path opacity="0.6" d="M293.796 0.131173C293.364 1.33528 292.64 2.51594 290.674 3.31211C290.486 3.38807 290.513 3.73317 290.709 3.78474C292.468 4.25363 293.228 5.4568 293.827 6.9216C293.889 7.07352 294.105 7.08102 294.179 6.93379C294.9 5.50275 295.917 4.35491 297.447 3.81194C297.626 3.74817 297.636 3.45183 297.461 3.38056C295.705 2.66316 294.716 1.47125 294.191 0.12836C294.124 -0.0432527 293.859 -0.0432528 293.796 0.131173H293.796Z" fill="#62E3C4"/>
<path opacity="0.3" d="M206.796 26.1312C206.364 27.3353 205.64 28.5159 203.674 29.3121C203.486 29.3881 203.513 29.7332 203.709 29.7847C205.468 30.2536 206.228 31.4568 206.827 32.9216C206.889 33.0735 207.105 33.081 207.179 32.9338C207.9 31.5027 208.917 30.3549 210.447 29.8119C210.626 29.7482 210.636 29.4518 210.461 29.3806C208.705 28.6632 207.716 27.4713 207.191 26.1284C207.124 25.9567 206.859 25.9567 206.796 26.1312H206.796Z" fill="#62E3C4"/>
<path opacity="0.2" d="M156.796 1.13117C156.364 2.33528 155.64 3.51594 153.674 4.31211C153.486 4.38807 153.513 4.73317 153.709 4.78474C155.468 5.25363 156.228 6.4568 156.827 7.9216C156.889 8.07352 157.105 8.08102 157.179 7.93379C157.9 6.50275 158.917 5.35491 160.447 4.81194C160.626 4.74817 160.636 4.45183 160.461 4.38056C158.705 3.66316 157.716 2.47125 157.191 1.12836C157.124 0.956747 156.859 0.956747 156.796 1.13117H156.796Z" fill="#FFD979"/>
</g>
</svg>
