<svg xmlns="http://www.w3.org/2000/svg" width="414" height="39.206" viewBox="0 0 414 39.206">
  <g id="Group_4494" data-name="Group 4494" transform="translate(-10411.005 -1489.09)">
    <path id="Path_18499" data-name="Path 18499" d="M0,120.341H137.873a86.558,86.558,0,0,0,34.731-7.273,86.55,86.55,0,0,1,68.9-.244l.771.331a88.5,88.5,0,0,0,34.932,7.186H414V145H0Z" transform="translate(10411.005 1383.296)" fill="#fff" fill-rule="evenodd"/>
    <path id="Path_18500" data-name="Path 18500" d="M184,125.778a7.4,7.4,0,0,1,5.6-7.179l12.574-3.144a24.012,24.012,0,0,1,11.642,0L226.4,118.6a7.4,7.4,0,0,1,5.6,7.179.221.221,0,0,1-.222.222H184.222A.221.221,0,0,1,184,125.778Z" transform="translate(10411.005 1383.296)" fill="#34c3a7" fill-rule="evenodd"/>
  </g>
</svg>
