<svg width="188" height="219" viewBox="0 0 188 219" fill="none"
    xmlns="http://www.w3.org/2000/svg">
    <defs>
        <linearGradient id="paint0_linear_200:1345" x1="51.5764" y1="126.027" x2="120.604" y2="72.5303" gradientUnits="userSpaceOnUse">
            <stop stop-color="#FF9E0B"/>
            <stop offset="1" stop-color="#FFC773"/>
        </linearGradient>
        <linearGradient id="paint1_linear_200:1345" x1="95.9685" y1="97.6864" x2="125.437" y2="86.4805" gradientUnits="userSpaceOnUse">
            <stop stop-color="#FF9E0B"/>
            <stop offset="1" stop-color="#FFC773"/>
        </linearGradient>
        <linearGradient id="paint2_linear_200:1345" x1="43.7769" y1="112.551" x2="71.1756" y2="85.6624" gradientUnits="userSpaceOnUse">
            <stop stop-color="#FF9E0B"/>
            <stop offset="1" stop-color="#FFC773"/>
        </linearGradient>
        <linearGradient id="paint3_linear_200:1345" x1="50.1707" y1="69.9813" x2="52.3878" y2="62.4914" gradientUnits="userSpaceOnUse">
            <stop stop-color="#FF9E0B"/>
            <stop offset="1" stop-color="#FFC773"/>
        </linearGradient>
        <linearGradient id="paint4_linear_200:1345" x1="86.4865" y1="52.5979" x2="79.301" y2="49.5307" gradientUnits="userSpaceOnUse">
            <stop stop-color="#FF9E0B"/>
            <stop offset="1" stop-color="#FFC773"/>
        </linearGradient>
        <linearGradient id="paint5_linear_200:1345" x1="63.328" y1="55.3318" x2="69.8303" y2="51.0042" gradientUnits="userSpaceOnUse">
            <stop stop-color="#FF9E0B"/>
            <stop offset="1" stop-color="#FFC773"/>
        </linearGradient>
    </defs>
    <path d="M51.916 8.92373C50.8401 7.85459 50.0139 6.93496 49.9685 5.34937C49.9277 3.97671 50.2772 2.62217 50.2999 1.2495C50.3135 0.375166 48.9517 0.375166 48.9381 1.2495C48.9063 3.02536 48.3252 4.86917 48.7474 6.6269C49.0697 7.98144 49.9958 8.92826 50.9536 9.88414C51.5755 10.5048 52.5379 9.54437 51.916 8.92373Z" fill="#34C3A7"/>
    <path d="M55.9204 32.7842C55.7388 33.2462 55.0851 33.6177 54.6947 33.8805C54.209 34.2067 53.7051 34.4921 53.2058 34.7956C52.4567 35.2486 53.1422 36.4265 53.8912 35.9689C55.0715 35.2531 56.7012 34.5147 57.2324 33.1466C57.5501 32.3266 56.2382 31.9732 55.9204 32.7842Z" fill="#34C3A7"/>
    <path d="M29.9445 26.8952C29.4315 27.543 29.0592 28.3675 29.486 29.1603C29.9445 30.0165 30.6299 29.9078 31.388 29.9622C31.3154 30.6644 30.7934 31.4073 30.7207 32.0869C30.6481 32.7573 30.8206 33.2557 31.2836 33.7449C31.8874 34.3837 32.8498 33.4187 32.246 32.7845C31.7376 32.2454 32.4412 31.1808 32.6001 30.6326C32.7499 30.1298 32.7953 29.6994 32.6909 29.1875C32.6455 28.97 32.4321 28.7571 32.2142 28.7118C31.5969 28.5804 30.4665 28.8613 30.9205 27.8647C31.1792 27.2893 32.4775 26.2157 33.0994 26.8001C33.735 27.4026 34.7019 26.4422 34.0618 25.8397C32.6773 24.5349 30.9341 25.6403 29.9445 26.8952Z" fill="#34C3A7"/>
    <path d="M137.818 10.2734C137.914 10.3051 138.014 10.3322 138.109 10.364C138.25 10.4093 138.395 10.3957 138.527 10.3413C138.558 10.3594 138.586 10.373 138.595 10.3775C138.663 10.4229 138.672 10.4319 138.622 10.3957C138.654 10.4274 138.686 10.4546 138.717 10.4908C138.972 10.7536 139.421 10.749 139.68 10.4908C139.943 10.2281 139.938 9.79315 139.68 9.53039C139.217 9.05472 138.477 8.74666 137.818 8.96411C137.183 9.1725 137.165 10.0695 137.818 10.2734Z" fill="#34C3A7"/>
    <path d="M139.884 28.1045C139.04 28.4261 137.796 29.0468 136.693 29.2416C137.546 28.3582 138.826 27.4884 139.68 27.2754C140.529 27.0625 140.17 25.7533 139.316 25.9662C138.227 26.238 137.464 26.981 136.588 27.6379C135.83 28.2041 135.185 28.6889 134.759 29.5541C134.568 29.9347 134.718 30.4375 135.167 30.5508C136.261 30.8317 137.469 30.4919 138.604 30.0615C138.213 30.4693 137.787 30.8679 137.587 31.2122C137.142 31.9914 136.661 32.9473 136.697 33.8669C136.733 34.7367 138.095 34.7413 138.059 33.8669C137.973 31.6788 140.778 30.7637 140.742 28.7568C140.737 28.3536 140.311 27.9414 139.884 28.1045Z" fill="#34C3A7"/>
    <path d="M150.17 53.5008V50.1802C150.17 49.3058 148.809 49.3058 148.809 50.1802V53.5008C148.809 54.3752 150.17 54.3752 150.17 53.5008Z" fill="#34C3A7"/>
    <path d="M154.632 64.6C154.21 64.6136 153.815 64.7676 153.547 65.1029C153.316 65.3883 153.271 65.7869 153.547 66.0633C153.788 66.3034 154.278 66.3487 154.51 66.0633C154.537 66.027 154.564 65.9953 154.596 65.9681C154.596 65.9681 154.596 65.9681 154.601 65.9681C154.605 65.9681 154.605 65.9681 154.61 65.9636C154.619 65.9636 154.623 65.9636 154.637 65.9636C154.991 65.9545 155.336 65.6601 155.318 65.2841C155.3 64.9217 155.014 64.5864 154.632 64.6Z" fill="#34C3A7"/>
    <path d="M27.7335 74.6256C27.5927 74.3175 27.3521 74.0593 26.9754 73.8872C26.5895 73.7105 26.19 73.6969 25.7814 73.6199C25.2458 73.5157 24.7464 73.3707 24.1971 73.3571C23.321 73.339 23.321 74.6981 24.1971 74.7162C24.7419 74.7298 25.2639 74.911 25.8041 74.9925C26.1718 75.0469 26.6213 75.0288 26.5486 75.509C26.4624 76.0889 27.2069 76.7684 27.6881 76.1704C27.8379 75.9801 27.9831 75.7899 28.1148 75.586C28.3872 75.1601 28.1057 74.7524 27.7335 74.6256Z" fill="#34C3A7"/>
    <path d="M51.5576 58.7562L50.9538 59.3587C50.6951 59.6169 50.6951 60.0609 50.9538 60.3191C51.2126 60.5773 51.6575 60.5773 51.9162 60.3191C52.116 60.1198 52.3202 59.9159 52.52 59.7166C52.7787 59.4584 52.7787 59.0144 52.52 58.7562C52.2612 58.4979 51.8209 58.4979 51.5576 58.7562Z" fill="#34C3A7"/>
    <path d="M172.609 7.54157C171.129 8.09426 169.414 9.02749 168.923 10.6629C168.447 12.2575 170.113 13.0911 171.397 13.3811C172.251 13.5759 172.614 12.2666 171.76 12.0718C171.361 11.9812 170.925 11.8861 170.58 11.6505C170.067 11.3017 170.208 10.9664 170.53 10.4998C171.107 9.66625 172.046 9.19964 172.968 8.85081C173.785 8.54728 173.431 7.23351 172.609 7.54157Z" fill="#34C3A7"/>
    <path d="M176.159 23.9187C175.86 23.742 175.392 23.8326 175.229 24.1633C175.129 24.3626 175.029 24.5665 174.925 24.7658C174.761 25.092 174.838 25.4997 175.17 25.6945C175.469 25.8712 175.937 25.7806 176.1 25.4499C176.2 25.2506 176.3 25.0467 176.404 24.8474C176.572 24.5212 176.495 24.1135 176.159 23.9187Z" fill="#34C3A7"/>
    <path d="M170.372 64.5996C169.496 64.5996 169.496 65.9587 170.372 65.9587C171.248 65.9587 171.248 64.5996 170.372 64.5996Z" fill="#34C3A7"/>
    <path d="M163.662 92.8825C163.563 93.4487 163.531 94.0241 163.449 94.5949C163.381 95.0887 163.331 95.8543 162.927 96.2077C162.269 96.7921 163.236 97.7479 163.889 97.1681C164.92 96.253 164.752 94.4771 164.974 93.2449C165.129 92.3887 163.817 92.0217 163.662 92.8825Z" fill="#34C3A7"/>
    <path d="M137.328 85.9832C137.333 85.9879 137.342 85.9879 137.352 85.9926C137.347 85.9879 137.342 85.9832 137.338 85.9785C137.333 85.9785 137.333 85.9785 137.328 85.9832C137.328 85.9785 137.328 85.9832 137.328 85.9832Z" fill="#34C3A7"/>
    <path d="M138.082 86.2228C137.873 86.1639 137.664 86.0869 137.455 86.0416C137.414 86.0325 137.383 86.0144 137.351 85.9917C137.455 86.0959 137.033 86.0914 137.328 85.9827C137.287 85.9555 137.251 85.9328 137.21 85.9147C137.274 85.9419 137.31 85.96 137.333 85.9827C137.523 85.9102 137.75 85.652 137.932 85.5478C138.159 85.4164 138.39 85.3031 138.631 85.199C139.434 84.8547 138.74 83.6858 137.946 84.0256C137.033 84.4152 135.313 85.4028 136.057 86.626C136.366 87.1379 136.974 87.3282 137.519 87.4822C138.014 87.6226 138.599 87.6181 138.522 88.2342C138.409 89.0995 139.775 89.0904 139.884 88.2342C140.034 87.0246 139.094 86.4991 138.082 86.2228Z" fill="#34C3A7"/>
    <path d="M42.4785 108.29C42.1108 108.625 41.2937 108.403 40.8397 108.394C39.9636 108.376 39.9636 109.735 40.8397 109.753C41.7658 109.775 42.6964 109.934 43.4409 109.25C44.09 108.656 43.1231 107.696 42.4785 108.29Z" fill="#34C3A7"/>
    <path d="M74.555 49.5236C74.1963 49.5961 73.9875 50.0219 74.0783 50.3617C74.1736 50.7105 74.5096 50.8781 74.85 50.8374C74.8591 50.8419 74.8591 50.8419 74.8727 50.8464C74.8591 50.8419 74.8591 50.8374 74.8546 50.8374C74.8682 50.8419 74.8954 50.8555 74.9091 50.8645C75.0271 50.9234 75.1043 50.9823 75.195 51.0594C75.3902 51.2224 75.5718 51.4082 75.7716 51.5713C76.0576 51.8023 76.457 51.8476 76.7339 51.5713C76.9745 51.3312 77.0199 50.8419 76.7339 50.6109C76.0848 50.0763 75.4901 49.3333 74.555 49.5236Z" fill="#34C3A7"/>
    <path d="M82.6129 0.501699C82.5629 0.198173 82.2361 0.0214938 81.9546 0.00337282C81.3236 -0.0373993 80.6382 0.297839 80.1434 0.664788C79.8483 0.88224 79.6985 1.25372 79.8982 1.59349C80.0662 1.88342 80.5338 2.05557 80.8288 1.83812C81.0195 1.69768 81.2283 1.57084 81.4462 1.4757C81.478 1.46211 81.5007 1.45758 81.5325 1.44852C81.7095 1.59802 81.9683 1.66597 82.1816 1.60708C82.5675 1.50288 82.7173 1.13593 82.6583 0.768983C82.6401 0.678379 82.6265 0.592304 82.6129 0.501699Z" fill="#34C3A7"/>
    <path d="M6.33895 7.81822C5.48552 7.78651 4.70471 8.1444 3.84673 8.13081C2.87527 8.11722 1.92196 8.19423 1.03675 7.72762C0.378511 7.37879 -0.375057 8.2486 0.210547 8.79675C0.27864 8.85565 0.342194 8.91907 0.410287 8.97796C0.573711 9.13199 0.759833 9.17729 0.936876 9.15917C1.62689 9.40834 2.3169 9.47176 3.09771 9.47629C3.66061 9.48082 4.2326 9.53065 4.7955 9.45364C5.32663 9.38115 5.79875 9.15917 6.34349 9.17729C7.21963 9.20901 7.21509 7.84994 6.33895 7.81822Z" fill="#34C3A7"/>
    <path d="M3.57447 52.6132C2.49859 53.3425 1.07317 53.8499 0.537498 55.132C0.396772 55.4717 0.691843 55.8749 1.01415 55.9701C1.40455 56.0833 1.71325 55.8342 1.85397 55.4944C2.0174 55.1003 2.603 54.7967 2.94347 54.5838C3.37926 54.312 3.83776 54.0719 4.26448 53.7865C4.98627 53.2972 4.30534 52.1194 3.57447 52.6132Z" fill="#34C3A7"/>
    <path d="M11.6689 101.468C10.7746 101.345 9.99831 100.729 9.0677 100.838C8.7 100.883 8.39131 101.119 8.38677 101.518C8.38223 101.853 8.70454 102.242 9.0677 102.197C9.84396 102.102 10.5476 102.673 11.3057 102.777C11.6734 102.827 12.032 102.686 12.1455 102.301C12.2318 101.989 12.032 101.518 11.6689 101.468Z" fill="#34C3A7"/>
    <path d="M151.305 120.168C150.311 120.299 149.794 121.06 149.14 121.735C148.509 122.392 148.005 123.022 147.696 123.842C146.966 124.082 147.333 125.278 148.155 125.124C148.237 125.11 148.318 125.092 148.4 125.079C148.627 125.038 148.818 124.816 148.877 124.603C149.081 123.874 149.449 123.362 149.975 122.823C150.284 122.505 150.838 121.586 151.305 121.522C152.159 121.414 152.172 120.055 151.305 120.168Z" fill="#34C3A7"/>
    <path d="M154.674 142.611C154.27 142.412 153.866 142.208 153.462 142.008C153.135 141.845 152.726 141.922 152.531 142.253C152.354 142.556 152.445 143.019 152.776 143.182C153.18 143.381 153.584 143.585 153.988 143.784C154.315 143.947 154.724 143.87 154.919 143.54C155.096 143.241 155.005 142.778 154.674 142.611Z" fill="#34C3A7"/>
    <path d="M171.597 116.276C171.035 117.219 170.29 118.02 169.586 118.858C169.028 119.524 169.986 120.489 170.549 119.819C171.325 118.895 172.156 118.007 172.773 116.965C173.223 116.208 172.047 115.524 171.597 116.276Z" fill="#34C3A7"/>
    <path d="M186.836 57.5509C186.119 58.2576 186.328 59.2452 186.332 60.1467C186.342 61.021 187.703 61.021 187.694 60.1467C187.69 59.7118 187.454 58.8556 187.799 58.5113C188.421 57.8952 187.458 56.9348 186.836 57.5509Z" fill="#34C3A7"/>
    <path d="M10.5791 139.802H7.85534C6.97921 139.802 6.97921 141.161 7.85534 141.161H10.5791C11.4552 141.161 11.4552 139.802 10.5791 139.802Z" fill="#34C3A7"/>
    <path d="M30.78 137.763C30.7891 140.101 31.234 142.556 29.9629 144.668C29.5135 145.42 30.6892 146.104 31.1387 145.352C32.5505 143 32.151 140.373 32.1374 137.759C32.1374 136.889 30.7755 136.885 30.78 137.763Z" fill="#34C3A7"/>
    <path d="M28.7372 160.641C27.861 160.641 27.861 162 28.7372 162C29.6133 162 29.6133 160.641 28.7372 160.641Z" fill="#34C3A7"/>
    <circle cx="95" cy="139" r="80" fill="#F1F6FF"/>
    <mask id="mask0_200:1345" style="mask-type:alpha" maskUnits="userSpaceOnUse" x="14" y="16" width="161" height="203">
        <path d="M175 139.197C175 183.271 139.265 219 95.1833 219C51.1018 219 15.3667 183.271 15.3667 139.197C15.3667 95.1223 -2.59249 16 91.6914 16C135.773 16 175 95.1223 175 139.197Z" fill="#EEF3FD"/>
    </mask>
    <g mask="url(#mask0_200:1345)">
        <path d="M88.8727 162.111L100.646 136.27L124.226 144.481C125.094 153.646 112.788 166.103 103.633 175.436L88.8727 162.111Z" fill="#F9B384"/>
        <path d="M88.4674 157.026C66.3063 186.761 45.0187 212.695 27.0414 224.224C24.3711 225.934 21.1463 226.482 18.0125 225.987C11.8183 225.003 5.3033 225.083 -2.03987 226.021C-6.58118 283.112 -6.77742 336.421 9.16106 370.807C21.1875 368.68 35.9161 364.776 44.4401 359.007C40.3611 336.698 36.1141 304.878 33.3784 277.187L107.254 172.876L88.4674 157.026Z" fill="#34C3A7"/>
        <path d="M-37.0041 190.338C-34.0217 187.226 -32.218 181.654 -33.3684 169.931C-26.5144 179.568 -15.1518 182.857 2.62725 177.11C2.62725 177.11 14.1287 173.962 12.7989 162.438C11.5941 152.02 3.6491 145.716 -3.87699 153.317C-18.4891 147.314 -33.2354 144.953 -41.3397 157.955C-41.3397 157.955 -63.6937 166.713 -47.5206 186.491L-37.0041 190.338Z" fill="#102048"/>
        <path d="M138.713 159.544L101.849 176.86L101.59 164.524L129.377 151.469L138.713 159.544Z" fill="#6F3428"/>
        <path d="M120.212 155.774L110.76 160.213L92.8582 128.013L106.846 121.443L120.212 155.774Z" fill="#BB9132"/>
        <path d="M108.739 120.576L90.9811 128.917C87.0075 130.786 82.2602 129.456 79.8335 125.795L55.4985 89.0783L100.71 67.8397L113.448 110.004C114.719 114.206 112.712 118.707 108.739 120.576Z" fill="url(#paint0_linear_200:1345)"/>
        <path d="M108.954 99.0644L106.756 97.8616C114.803 83.1125 115.019 70.4561 110.6 67.1921C108.302 65.4938 104.731 66.8315 100.796 70.8564L99.0026 69.1028C105.969 61.9762 110.476 63.9832 112.091 65.1736C117.468 69.1527 117.763 82.917 108.954 99.0644Z" fill="url(#paint1_linear_200:1345)"/>
        <path d="M73.5758 115.713C55.519 112.189 45.1107 103.174 45.4881 96.4959C45.6021 94.4896 46.9322 89.7431 56.8646 88.932L57.0697 91.4273C51.4597 91.8857 48.1508 93.7855 47.992 96.633C47.687 102.117 57.5645 110.026 74.0597 113.251L73.5758 115.713Z" fill="url(#paint2_linear_200:1345)"/>
        <path opacity="0.6" d="M92.0544 89.0194C90.8604 86.3301 91.2288 83.5593 92.8802 82.8243C94.5311 82.0942 96.8368 83.6795 98.0313 86.3638C99.2252 89.0531 98.8569 91.8239 97.2054 92.559C95.554 93.294 93.2483 91.7087 92.0544 89.0194Z" fill="white"/>
        <path d="M124.274 143.842C124.423 148.226 121.283 151.791 115.525 151.18C111.923 150.798 107.408 145.327 106.968 139.354C106.605 134.428 108.801 131.46 112.361 130.413C116.022 129.342 123.994 135.576 124.274 143.842Z" fill="#F9B384"/>
        <path d="M22.4224 53.6211L20.8477 57.228L50.1707 69.9813L51.7454 66.3743L22.4224 53.6211Z" fill="url(#paint3_linear_200:1345)"/>
        <path d="M91.5672 20.7952L82.7036 51.5098L86.4865 52.5979L95.3501 21.8833L91.5672 20.7952Z" fill="url(#paint4_linear_200:1345)"/>
        <path d="M52.5233 24.9995L49.001 26.7559L63.328 55.3318L66.8502 53.5754L52.5233 24.9995Z" fill="url(#paint5_linear_200:1345)"/>
        <path d="M106.21 143.232C107.484 139.894 107.344 136.738 105.903 136.189C104.462 135.641 102.007 137.003 100.732 140.345C99.4575 143.683 97.8898 148.523 100.116 149.877C104.057 152.274 104.935 146.569 106.21 143.232Z" fill="#F9B384"/>
    </g>

</svg>
