<svg xmlns="http://www.w3.org/2000/svg" width="210" height="161" viewBox="0 0 210 161">
  <g id="Group_6637" data-name="Group 6637" transform="translate(6917 -4564)">
    <path id="Subtraction_26" data-name="Subtraction 26" d="M30.5,176H16A16,16,0,0,1,0,160V42A16,16,0,0,1,16,26H30.5a25.5,25.5,0,0,0,51,0H184a16,16,0,0,1,16,16V160a16,16,0,0,1-16,16H81.5a25.5,25.5,0,1,0-51,0Z" transform="translate(-6912 4543)" fill="none" stroke="#707070" stroke-width="10"/>
    <text id="_" data-name="%" transform="translate(-6830 4686)" fill="#707070" stroke="#707070" stroke-width="5" font-size="128" font-family="MazzardM-Regular, Mazzard" letter-spacing="-0.018em"><tspan x="0" y="0">%</tspan></text>
  </g>
</svg>
