<svg width="259" height="69" viewBox="0 0 259 69" fill="none" xmlns="http://www.w3.org/2000/svg">
<path opacity="0.8" d="M231.29 8.4609C231.416 7.99878 232.072 7.99878 232.198 8.4609L233.013 11.4432C233.048 11.5721 233.136 11.68 233.256 11.7399L235.806 13.0186C236.153 13.1922 236.153 13.6864 235.806 13.86L233.256 15.1387C233.136 15.1986 233.048 15.3065 233.013 15.4354L232.198 18.4177C232.072 18.8798 231.416 18.8798 231.29 18.4177L230.476 15.4354C230.44 15.3065 230.352 15.1986 230.233 15.1387L227.682 13.86C227.336 13.6864 227.336 13.1922 227.682 13.0186L230.233 11.7399C230.352 11.68 230.44 11.5721 230.476 11.4432L231.29 8.4609Z" fill="#FFE9B1"/>
<path opacity="0.6" d="M4.44735 57.3808C4.57356 56.9187 5.22903 56.9187 5.35524 57.3808L6.16976 60.3631C6.20497 60.492 6.29334 60.5999 6.41281 60.6598L8.96349 61.9385C9.30973 62.1121 9.30973 62.6063 8.96349 62.7799L6.41281 64.0586C6.29334 64.1185 6.20497 64.2264 6.16976 64.3553L5.35524 67.3376C5.22903 67.7997 4.57356 67.7997 4.44735 67.3376L3.63283 64.3553C3.59762 64.2264 3.50925 64.1185 3.38978 64.0586L0.839094 62.7799C0.492858 62.6063 0.492858 62.1121 0.839094 61.9385L3.38978 60.6598C3.50925 60.5999 3.59762 60.492 3.63283 60.3631L4.44735 57.3808Z" fill="#FFD979"/>
<path opacity="0.2" d="M238.477 17.1319C238.564 16.8142 239.015 16.8142 239.102 17.1319L239.662 19.1823C239.686 19.2709 239.746 19.3451 239.829 19.3862L241.582 20.2654C241.82 20.3847 241.82 20.7244 241.582 20.8438L239.829 21.7229C239.746 21.7641 239.686 21.8383 239.662 21.9269L239.102 23.9772C239.015 24.2949 238.564 24.2949 238.477 23.9772L237.917 21.9269C237.893 21.8383 237.832 21.7641 237.75 21.7229L235.997 20.8438C235.759 20.7244 235.759 20.3847 235.997 20.2654L237.75 19.3862C237.832 19.3451 237.893 19.2709 237.917 19.1823L238.477 17.1319Z" fill="#F4EDD9"/>
<path opacity="0.2" d="M17.7169 55.173C17.8037 54.8552 18.2543 54.8552 18.3411 55.173L18.9011 57.2233C18.9253 57.3119 18.986 57.3861 19.0682 57.4272L20.8218 58.3064C21.0598 58.4257 21.0598 58.7655 20.8218 58.8848L19.0682 59.7639C18.986 59.8051 18.9253 59.8793 18.9011 59.9679L18.3411 62.0182C18.2543 62.3359 17.8037 62.3359 17.7169 62.0182L17.1569 59.9679C17.1327 59.8793 17.072 59.8051 16.9898 59.7639L15.2362 58.8848C14.9982 58.7655 14.9982 58.4257 15.2362 58.3064L16.9898 57.4272C17.072 57.3861 17.1327 57.3119 17.1569 57.2233L17.7169 55.173Z" fill="#F4EDD9"/>
<circle opacity="0.3" cx="67.0022" cy="15.0675" r="2.75698" fill="#FFD979"/>
<circle opacity="0.3" cx="190.785" cy="61.8068" r="2.75698" fill="#93B5FE"/>
<circle opacity="0.3" cx="134.377" cy="2.31384" r="1.67321" fill="#C4C4C4"/>
<circle opacity="0.3" cx="153.959" cy="20.8873" r="1.37849" fill="#C4C4C4"/>
<path d="M14.7856 49.8252H10.7473C8.79608 49.8252 7.28943 49.3065 6.22737 48.2692C5.16531 47.2318 4.63428 45.7375 4.63428 43.7863V32.0418C4.63428 30.0906 5.16531 28.5963 6.22737 27.559C7.28943 26.5216 8.79608 26.0029 10.7473 26.0029H14.7856C16.7121 26.0029 18.2064 26.5339 19.2685 27.596C20.3553 28.6334 20.8986 30.1153 20.8986 32.0418V33.7831C20.8986 34.3265 20.627 34.5982 20.0836 34.5982H16.9715C16.4528 34.5982 16.1935 34.3265 16.1935 33.7831V32.2641C16.1935 31.4738 16.0206 30.918 15.6748 30.5969C15.3537 30.2512 14.798 30.0783 14.0076 30.0783H11.4883C10.7226 30.0783 10.1669 30.2512 9.82109 30.5969C9.5 30.918 9.33946 31.4738 9.33946 32.2641V43.564C9.33946 44.3543 9.5 44.9224 9.82109 45.2682C10.1669 45.5893 10.7226 45.7498 11.4883 45.7498H14.0076C14.798 45.7498 15.3537 45.5893 15.6748 45.2682C16.0206 44.9224 16.1935 44.3543 16.1935 43.564V42.045C16.1935 41.5016 16.4528 41.2299 16.9715 41.2299H20.0836C20.627 41.2299 20.8986 41.5016 20.8986 42.045V43.7863C20.8986 45.7128 20.3553 47.2071 19.2685 48.2692C18.2064 49.3065 16.7121 49.8252 14.7856 49.8252ZM33.6095 49.8252H30.3122C28.361 49.8252 26.8543 49.3065 25.7922 48.2692C24.7302 47.2318 24.1992 45.7375 24.1992 43.7863V36.9693C24.1992 35.0181 24.7302 33.5238 25.7922 32.4864C26.8543 31.4491 28.361 30.9304 30.3122 30.9304H33.6095C35.536 30.9304 37.0303 31.4614 38.0924 32.5235C39.1792 33.5608 39.7225 35.0428 39.7225 36.9693V43.7863C39.7225 45.7128 39.1792 47.2071 38.0924 48.2692C37.0303 49.3065 35.536 49.8252 33.6095 49.8252ZM31.0161 45.7869H32.9056C33.696 45.7869 34.2517 45.6263 34.5728 45.3053C34.9186 44.9842 35.0915 44.4284 35.0915 43.6381V37.1175C35.0915 36.3271 34.9186 35.7714 34.5728 35.4503C34.2517 35.1292 33.696 34.9687 32.9056 34.9687H31.0161C30.2257 34.9687 29.67 35.1292 29.3489 35.4503C29.0278 35.7714 28.8673 36.3271 28.8673 37.1175V43.6381C28.8673 44.4284 29.0278 44.9842 29.3489 45.3053C29.67 45.6263 30.2257 45.7869 31.0161 45.7869ZM47.3468 49.8252H44.1976C43.6789 49.8252 43.4196 49.5659 43.4196 49.0472V31.7084C43.4196 31.1897 43.6789 30.9304 44.1976 30.9304H47.3468C47.8654 30.9304 48.1248 31.1897 48.1248 31.7084V32.931H48.273C48.8164 31.5973 50.0266 30.9304 51.9037 30.9304H53.0893C56.9671 30.9304 58.9059 32.9434 58.9059 36.9693V49.0472C58.9059 49.5659 58.6342 49.8252 58.0909 49.8252H54.9788C54.4601 49.8252 54.2008 49.5659 54.2008 49.0472V37.1916C54.2008 36.4012 54.0279 35.8455 53.6821 35.5244C53.361 35.1786 52.8053 35.0057 52.0149 35.0057H50.6811C48.9769 35.0057 48.1248 35.9443 48.1248 37.8214V49.0472C48.1248 49.5659 47.8654 49.8252 47.3468 49.8252ZM69.481 48.9731H68.2584C66.3566 48.9731 64.9117 48.4544 63.9237 47.417C62.9604 46.3797 62.4788 44.8854 62.4788 42.9341V36.9693C62.4788 35.0181 63.0098 33.5238 64.0719 32.4864C65.134 31.4491 66.6406 30.9304 68.5918 30.9304H77.1501C77.6935 30.9304 77.9652 31.1897 77.9652 31.7084V49.9734C77.9652 51.8999 77.4218 53.3819 76.335 54.4192C75.273 55.4566 73.7787 55.9753 71.8521 55.9753H64.7388C64.4424 55.9753 64.2325 55.9135 64.109 55.79C64.0102 55.6912 63.9608 55.506 63.9608 55.2343V52.6779C63.9608 52.1593 64.2201 51.8999 64.7388 51.8999H71.0741C71.8645 51.8999 72.4202 51.727 72.7413 51.3812C73.0871 51.0602 73.26 50.5168 73.26 49.7511V46.9354H73.1118C72.8401 47.6023 72.3585 48.1086 71.6669 48.4544C70.9753 48.8002 70.2467 48.9731 69.481 48.9731ZM73.26 42.082V35.4133C73.26 35.1416 73.1118 35.0057 72.8154 35.0057H69.3328C68.5424 35.0057 67.9867 35.1786 67.6656 35.5244C67.3445 35.8455 67.184 36.4012 67.184 37.1916V42.7119C67.184 43.5022 67.3445 44.058 67.6656 44.379C67.9867 44.7001 68.5424 44.8607 69.3328 44.8607H70.7036C72.4079 44.8607 73.26 43.9345 73.26 42.082ZM85.9512 49.8252H82.802C82.2834 49.8252 82.024 49.5659 82.024 49.0472V31.7084C82.024 31.1897 82.2834 30.9304 82.802 30.9304H85.9512C86.4699 30.9304 86.7292 31.1897 86.7292 31.7084V32.9681H86.8774C87.1491 32.3012 87.6307 31.7948 88.3223 31.4491C89.0139 31.1033 89.7425 30.9304 90.5082 30.9304H91.8419C92.3359 30.9304 92.5829 31.1897 92.5829 31.7084V34.2648C92.5829 34.5611 92.5211 34.7711 92.3976 34.8946C92.2988 34.9934 92.1136 35.0304 91.8419 35.0057H89.2856C87.5813 35.0057 86.7292 35.969 86.7292 37.8955V49.0472C86.7292 49.5659 86.4699 49.8252 85.9512 49.8252ZM101.572 49.8252H100.683C98.7317 49.8252 97.2251 49.3065 96.163 48.2692C95.1009 47.2318 94.5699 45.7375 94.5699 43.7863V36.9693C94.5699 35.0181 95.1009 33.5238 96.163 32.4864C97.2251 31.4491 98.7317 30.9304 100.683 30.9304H109.241C109.785 30.9304 110.056 31.1897 110.056 31.7084V49.0472C110.056 49.5659 109.785 49.8252 109.241 49.8252H106.129C105.61 49.8252 105.351 49.5659 105.351 49.0472V47.8246H105.203C104.931 48.4914 104.45 48.9978 103.758 49.3436C103.066 49.6647 102.338 49.8252 101.572 49.8252ZM105.351 42.9341V35.4133C105.351 35.1416 105.203 35.0057 104.906 35.0057H101.424C100.634 35.0057 100.078 35.1786 99.7567 35.5244C99.4356 35.8455 99.2751 36.4012 99.2751 37.1916V43.564C99.2751 44.3543 99.4356 44.9224 99.7567 45.2682C100.078 45.5893 100.634 45.7498 101.424 45.7498H102.795C104.499 45.7498 105.351 44.8113 105.351 42.9341ZM114.523 35.0057H113.042C112.745 35.0057 112.535 34.9563 112.412 34.8575C112.313 34.7587 112.264 34.5611 112.264 34.2648V31.7084C112.264 31.1897 112.523 30.9304 113.042 30.9304H114.523C114.795 30.9304 114.931 30.7945 114.931 30.5228V27.0032C114.931 26.4845 115.203 26.2252 115.746 26.2252H118.858C119.377 26.2252 119.636 26.4845 119.636 27.0032V30.5228C119.636 30.7945 119.784 30.9304 120.081 30.9304H122.971C123.489 30.9304 123.749 31.1897 123.749 31.7084V34.2648C123.749 34.5364 123.687 34.734 123.563 34.8575C123.465 34.9563 123.267 35.0057 122.971 35.0057H120.081C119.784 35.0057 119.636 35.1416 119.636 35.4133V43.601C119.636 44.3667 119.809 44.9224 120.155 45.2682C120.501 45.5893 121.069 45.7498 121.859 45.7498H123.341C123.86 45.7498 124.119 46.0092 124.119 46.5279V49.0842C124.119 49.3559 124.057 49.5535 123.934 49.677C123.835 49.7758 123.637 49.8252 123.341 49.8252H121.081C119.13 49.8252 117.611 49.3065 116.524 48.2692C115.462 47.2318 114.931 45.7498 114.931 43.8233V35.4133C114.931 35.1416 114.795 35.0057 114.523 35.0057ZM133.994 49.8252H132.771C130.87 49.8252 129.425 49.3065 128.437 48.2692C127.473 47.2318 126.992 45.7375 126.992 43.7863V31.7084C126.992 31.1897 127.251 30.9304 127.77 30.9304H130.919C131.438 30.9304 131.697 31.1897 131.697 31.7084V43.564C131.697 44.3543 131.858 44.9224 132.179 45.2682C132.524 45.5893 133.08 45.7498 133.846 45.7498H135.217C136.921 45.7498 137.773 44.8113 137.773 42.9341V31.7084C137.773 31.1897 138.032 30.9304 138.551 30.9304H141.663C142.206 30.9304 142.478 31.1897 142.478 31.7084V49.0472C142.478 49.5659 142.206 49.8252 141.663 49.8252H138.551C138.032 49.8252 137.773 49.5659 137.773 49.0472V47.8246H137.625C137.353 48.4914 136.871 48.9978 136.18 49.3436C135.488 49.6647 134.76 49.8252 133.994 49.8252ZM150.682 49.8252H147.533C147.014 49.8252 146.755 49.5659 146.755 49.0472V24.558C146.755 24.0393 147.014 23.78 147.533 23.78H150.682C151.201 23.78 151.46 24.0393 151.46 24.558V49.0472C151.46 49.5659 151.201 49.8252 150.682 49.8252ZM162.355 49.8252H161.466C159.515 49.8252 158.008 49.3065 156.946 48.2692C155.884 47.2318 155.353 45.7375 155.353 43.7863V36.9693C155.353 35.0181 155.884 33.5238 156.946 32.4864C158.008 31.4491 159.515 30.9304 161.466 30.9304H170.024C170.568 30.9304 170.839 31.1897 170.839 31.7084V49.0472C170.839 49.5659 170.568 49.8252 170.024 49.8252H166.912C166.393 49.8252 166.134 49.5659 166.134 49.0472V47.8246H165.986C165.714 48.4914 165.233 48.9978 164.541 49.3436C163.849 49.6647 163.121 49.8252 162.355 49.8252ZM166.134 42.9341V35.4133C166.134 35.1416 165.986 35.0057 165.689 35.0057H162.207C161.416 35.0057 160.861 35.1786 160.54 35.5244C160.219 35.8455 160.058 36.4012 160.058 37.1916V43.564C160.058 44.3543 160.219 44.9224 160.54 45.2682C160.861 45.5893 161.416 45.7498 162.207 45.7498H163.578C165.282 45.7498 166.134 44.8113 166.134 42.9341ZM175.306 35.0057H173.825C173.528 35.0057 173.318 34.9563 173.195 34.8575C173.096 34.7587 173.046 34.5611 173.046 34.2648V31.7084C173.046 31.1897 173.306 30.9304 173.825 30.9304H175.306C175.578 30.9304 175.714 30.7945 175.714 30.5228V27.0032C175.714 26.4845 175.986 26.2252 176.529 26.2252H179.641C180.16 26.2252 180.419 26.4845 180.419 27.0032V30.5228C180.419 30.7945 180.567 30.9304 180.864 30.9304H183.754C184.272 30.9304 184.532 31.1897 184.532 31.7084V34.2648C184.532 34.5364 184.47 34.734 184.346 34.8575C184.248 34.9563 184.05 35.0057 183.754 35.0057H180.864C180.567 35.0057 180.419 35.1416 180.419 35.4133V43.601C180.419 44.3667 180.592 44.9224 180.938 45.2682C181.284 45.5893 181.852 45.7498 182.642 45.7498H184.124C184.643 45.7498 184.902 46.0092 184.902 46.5279V49.0842C184.902 49.3559 184.84 49.5535 184.717 49.677C184.618 49.7758 184.42 49.8252 184.124 49.8252H181.864C179.913 49.8252 178.394 49.3065 177.307 48.2692C176.245 47.2318 175.714 45.7498 175.714 43.8233V35.4133C175.714 35.1416 175.578 35.0057 175.306 35.0057ZM188.145 27.7442V24.521C188.145 24.027 188.392 23.78 188.886 23.78H192.109C192.603 23.78 192.85 24.0146 192.85 24.4839V27.7442C192.85 28.2382 192.603 28.4852 192.109 28.4852H188.886C188.392 28.4852 188.145 28.2382 188.145 27.7442ZM188.145 49.0472V31.7084C188.145 31.1897 188.392 30.9304 188.886 30.9304H192.072C192.591 30.9304 192.85 31.1897 192.85 31.7084V49.0472C192.85 49.3683 192.789 49.5782 192.665 49.677C192.566 49.7758 192.381 49.8252 192.109 49.8252H188.923C188.405 49.8252 188.145 49.5659 188.145 49.0472ZM206.154 49.8252H202.856C200.905 49.8252 199.398 49.3065 198.336 48.2692C197.274 47.2318 196.743 45.7375 196.743 43.7863V36.9693C196.743 35.0181 197.274 33.5238 198.336 32.4864C199.398 31.4491 200.905 30.9304 202.856 30.9304H206.154C208.08 30.9304 209.574 31.4614 210.636 32.5235C211.723 33.5608 212.267 35.0428 212.267 36.9693V43.7863C212.267 45.7128 211.723 47.2071 210.636 48.2692C209.574 49.3065 208.08 49.8252 206.154 49.8252ZM203.56 45.7869H205.45C206.24 45.7869 206.796 45.6263 207.117 45.3053C207.463 44.9842 207.635 44.4284 207.635 43.6381V37.1175C207.635 36.3271 207.463 35.7714 207.117 35.4503C206.796 35.1292 206.24 34.9687 205.45 34.9687H203.56C202.77 34.9687 202.214 35.1292 201.893 35.4503C201.572 35.7714 201.411 36.3271 201.411 37.1175V43.6381C201.411 44.4284 201.572 44.9842 201.893 45.3053C202.214 45.6263 202.77 45.7869 203.56 45.7869ZM219.891 49.8252H216.742C216.223 49.8252 215.964 49.5659 215.964 49.0472V31.7084C215.964 31.1897 216.223 30.9304 216.742 30.9304H219.891C220.409 30.9304 220.669 31.1897 220.669 31.7084V32.931H220.817C221.36 31.5973 222.571 30.9304 224.448 30.9304H225.633C229.511 30.9304 231.45 32.9434 231.45 36.9693V49.0472C231.45 49.5659 231.178 49.8252 230.635 49.8252H227.523C227.004 49.8252 226.745 49.5659 226.745 49.0472V37.1916C226.745 36.4012 226.572 35.8455 226.226 35.5244C225.905 35.1786 225.349 35.0057 224.559 35.0057H223.225C221.521 35.0057 220.669 35.9443 220.669 37.8214V49.0472C220.669 49.5659 220.409 49.8252 219.891 49.8252ZM242.507 49.8252H235.467C234.973 49.8252 234.726 49.5659 234.726 49.0472V46.6761C234.726 46.4044 234.776 46.2191 234.875 46.1203C234.973 45.9968 235.171 45.9351 235.467 45.9351H241.655C242.865 45.9351 243.47 45.5646 243.47 44.8236V44.6384C243.47 44.0456 242.964 43.4775 241.951 42.9341L238.283 40.8965C237.023 40.2543 236.097 39.5627 235.504 38.8217C234.912 38.0808 234.615 37.1299 234.615 35.969C234.615 34.2401 235.072 32.9681 235.986 32.153C236.9 31.3379 238.333 30.9304 240.284 30.9304H246.471C246.965 30.9304 247.212 31.1897 247.212 31.7084V34.1166C247.212 34.3883 247.162 34.5858 247.064 34.7093C246.965 34.8081 246.767 34.8575 246.471 34.8575H241.321C240.111 34.8575 239.506 35.1663 239.506 35.7838V35.969C239.506 36.5124 240.037 37.0681 241.099 37.6362L244.841 39.8591C246.125 40.5507 247.027 41.267 247.545 42.0079C248.064 42.7242 248.323 43.6751 248.323 44.8607C248.323 48.1704 246.384 49.8252 242.507 49.8252ZM251.416 32.5235V26.7809C251.416 26.2622 251.675 26.0029 252.194 26.0029H255.714C256.232 26.0029 256.492 26.2622 256.492 26.7809V32.5235C256.492 33.5114 256.43 34.6229 256.306 35.8579C256.208 37.0681 256.134 37.9696 256.084 38.5624C256.035 39.1552 255.985 39.6368 255.936 40.0073C255.887 40.3778 255.862 40.5754 255.862 40.6001C255.763 41.1188 255.479 41.3781 255.01 41.3781H252.898C252.429 41.3781 252.145 41.1188 252.046 40.6001C252.046 40.5754 252.021 40.3778 251.972 40.0073C251.922 39.6368 251.861 39.1552 251.786 38.5624C251.737 37.9696 251.688 37.3274 251.638 36.6359C251.49 34.6105 251.416 33.2397 251.416 32.5235ZM256.381 44.4902V49.0472C256.381 49.5659 256.134 49.8252 255.64 49.8252H252.379C251.885 49.8252 251.638 49.5535 251.638 49.0101V44.5272C251.638 44.0333 251.885 43.7863 252.379 43.7863H255.64C256.134 43.7863 256.381 44.0209 256.381 44.4902Z" fill="#9F4F44"/>
<path d="M14.7856 47.6357H10.7473C8.79608 47.6357 7.28943 47.1171 6.22737 46.0797C5.16531 45.0423 4.63428 43.548 4.63428 41.5968V29.8524C4.63428 27.9012 5.16531 26.4069 6.22737 25.3695C7.28943 24.3321 8.79608 23.8135 10.7473 23.8135H14.7856C16.7121 23.8135 18.2064 24.3445 19.2685 25.4065C20.3553 26.4439 20.8986 27.9259 20.8986 29.8524V31.5937C20.8986 32.1371 20.627 32.4087 20.0836 32.4087H16.9715C16.4528 32.4087 16.1935 32.1371 16.1935 31.5937V30.0747C16.1935 29.2843 16.0206 28.7286 15.6748 28.4075C15.3537 28.0617 14.798 27.8888 14.0076 27.8888H11.4883C10.7226 27.8888 10.1669 28.0617 9.82109 28.4075C9.5 28.7286 9.33946 29.2843 9.33946 30.0747V41.3745C9.33946 42.1649 9.5 42.733 9.82109 43.0788C10.1669 43.3998 10.7226 43.5604 11.4883 43.5604H14.0076C14.798 43.5604 15.3537 43.3998 15.6748 43.0788C16.0206 42.733 16.1935 42.1649 16.1935 41.3745V39.8555C16.1935 39.3121 16.4528 39.0405 16.9715 39.0405H20.0836C20.627 39.0405 20.8986 39.3121 20.8986 39.8555V41.5968C20.8986 43.5233 20.3553 45.0176 19.2685 46.0797C18.2064 47.1171 16.7121 47.6357 14.7856 47.6357ZM33.6095 47.6357H30.3122C28.361 47.6357 26.8543 47.1171 25.7922 46.0797C24.7302 45.0423 24.1992 43.548 24.1992 41.5968V34.7799C24.1992 32.8286 24.7302 31.3343 25.7922 30.297C26.8543 29.2596 28.361 28.7409 30.3122 28.7409H33.6095C35.536 28.7409 37.0303 29.272 38.0924 30.334C39.1792 31.3714 39.7225 32.8533 39.7225 34.7799V41.5968C39.7225 43.5233 39.1792 45.0176 38.0924 46.0797C37.0303 47.1171 35.536 47.6357 33.6095 47.6357ZM31.0161 43.5974H32.9056C33.696 43.5974 34.2517 43.4369 34.5728 43.1158C34.9186 42.7947 35.0915 42.239 35.0915 41.4486V34.9281C35.0915 34.1377 34.9186 33.5819 34.5728 33.2609C34.2517 32.9398 33.696 32.7792 32.9056 32.7792H31.0161C30.2257 32.7792 29.67 32.9398 29.3489 33.2609C29.0278 33.5819 28.8673 34.1377 28.8673 34.9281V41.4486C28.8673 42.239 29.0278 42.7947 29.3489 43.1158C29.67 43.4369 30.2257 43.5974 31.0161 43.5974ZM47.3468 47.6357H44.1976C43.6789 47.6357 43.4196 47.3764 43.4196 46.8577V29.5189C43.4196 29.0003 43.6789 28.7409 44.1976 28.7409H47.3468C47.8654 28.7409 48.1248 29.0003 48.1248 29.5189V30.7416H48.273C48.8164 29.4078 50.0266 28.7409 51.9037 28.7409H53.0893C56.9671 28.7409 58.9059 30.7539 58.9059 34.7799V46.8577C58.9059 47.3764 58.6342 47.6357 58.0909 47.6357H54.9788C54.4601 47.6357 54.2008 47.3764 54.2008 46.8577V35.0021C54.2008 34.2118 54.0279 33.656 53.6821 33.335C53.361 32.9892 52.8053 32.8163 52.0149 32.8163H50.6811C48.9769 32.8163 48.1248 33.7548 48.1248 35.632V46.8577C48.1248 47.3764 47.8654 47.6357 47.3468 47.6357ZM69.481 46.7836H68.2584C66.3566 46.7836 64.9117 46.2649 63.9237 45.2276C62.9604 44.1902 62.4788 42.6959 62.4788 40.7447V34.7799C62.4788 32.8286 63.0098 31.3343 64.0719 30.297C65.134 29.2596 66.6406 28.7409 68.5918 28.7409H77.1501C77.6935 28.7409 77.9652 29.0003 77.9652 29.5189V47.7839C77.9652 49.7105 77.4218 51.1924 76.335 52.2298C75.273 53.2671 73.7787 53.7858 71.8521 53.7858H64.7388C64.4424 53.7858 64.2325 53.7241 64.109 53.6006C64.0102 53.5018 63.9608 53.3165 63.9608 53.0448V50.4885C63.9608 49.9698 64.2201 49.7105 64.7388 49.7105H71.0741C71.8645 49.7105 72.4202 49.5376 72.7413 49.1918C73.0871 48.8707 73.26 48.3273 73.26 47.5616V44.7459H73.1118C72.8401 45.4128 72.3585 45.9192 71.6669 46.2649C70.9753 46.6107 70.2467 46.7836 69.481 46.7836ZM73.26 39.8926V33.2238C73.26 32.9521 73.1118 32.8163 72.8154 32.8163H69.3328C68.5424 32.8163 67.9867 32.9892 67.6656 33.335C67.3445 33.656 67.184 34.2118 67.184 35.0021V40.5224C67.184 41.3128 67.3445 41.8685 67.6656 42.1896C67.9867 42.5107 68.5424 42.6712 69.3328 42.6712H70.7036C72.4079 42.6712 73.26 41.745 73.26 39.8926ZM85.9512 47.6357H82.802C82.2834 47.6357 82.024 47.3764 82.024 46.8577V29.5189C82.024 29.0003 82.2834 28.7409 82.802 28.7409H85.9512C86.4699 28.7409 86.7292 29.0003 86.7292 29.5189V30.7786H86.8774C87.1491 30.1117 87.6307 29.6054 88.3223 29.2596C89.0139 28.9138 89.7425 28.7409 90.5082 28.7409H91.8419C92.3359 28.7409 92.5829 29.0003 92.5829 29.5189V32.0753C92.5829 32.3717 92.5211 32.5816 92.3976 32.7051C92.2988 32.8039 92.1136 32.841 91.8419 32.8163H89.2856C87.5813 32.8163 86.7292 33.7795 86.7292 35.7061V46.8577C86.7292 47.3764 86.4699 47.6357 85.9512 47.6357ZM101.572 47.6357H100.683C98.7317 47.6357 97.2251 47.1171 96.163 46.0797C95.1009 45.0423 94.5699 43.548 94.5699 41.5968V34.7799C94.5699 32.8286 95.1009 31.3343 96.163 30.297C97.2251 29.2596 98.7317 28.7409 100.683 28.7409H109.241C109.785 28.7409 110.056 29.0003 110.056 29.5189V46.8577C110.056 47.3764 109.785 47.6357 109.241 47.6357H106.129C105.61 47.6357 105.351 47.3764 105.351 46.8577V45.6351H105.203C104.931 46.302 104.45 46.8083 103.758 47.1541C103.066 47.4752 102.338 47.6357 101.572 47.6357ZM105.351 40.7447V33.2238C105.351 32.9521 105.203 32.8163 104.906 32.8163H101.424C100.634 32.8163 100.078 32.9892 99.7567 33.335C99.4356 33.656 99.2751 34.2118 99.2751 35.0021V41.3745C99.2751 42.1649 99.4356 42.733 99.7567 43.0788C100.078 43.3998 100.634 43.5604 101.424 43.5604H102.795C104.499 43.5604 105.351 42.6218 105.351 40.7447ZM114.523 32.8163H113.042C112.745 32.8163 112.535 32.7669 112.412 32.6681C112.313 32.5693 112.264 32.3717 112.264 32.0753V29.5189C112.264 29.0003 112.523 28.7409 113.042 28.7409H114.523C114.795 28.7409 114.931 28.6051 114.931 28.3334V24.8138C114.931 24.2951 115.203 24.0357 115.746 24.0357H118.858C119.377 24.0357 119.636 24.2951 119.636 24.8138V28.3334C119.636 28.6051 119.784 28.7409 120.081 28.7409H122.971C123.489 28.7409 123.749 29.0003 123.749 29.5189V32.0753C123.749 32.347 123.687 32.5446 123.563 32.6681C123.465 32.7669 123.267 32.8163 122.971 32.8163H120.081C119.784 32.8163 119.636 32.9521 119.636 33.2238V41.4116C119.636 42.1772 119.809 42.733 120.155 43.0788C120.501 43.3998 121.069 43.5604 121.859 43.5604H123.341C123.86 43.5604 124.119 43.8197 124.119 44.3384V46.8948C124.119 47.1665 124.057 47.3641 123.934 47.4875C123.835 47.5863 123.637 47.6357 123.341 47.6357H121.081C119.13 47.6357 117.611 47.1171 116.524 46.0797C115.462 45.0423 114.931 43.5604 114.931 41.6339V33.2238C114.931 32.9521 114.795 32.8163 114.523 32.8163ZM133.994 47.6357H132.771C130.87 47.6357 129.425 47.1171 128.437 46.0797C127.473 45.0423 126.992 43.548 126.992 41.5968V29.5189C126.992 29.0003 127.251 28.7409 127.77 28.7409H130.919C131.438 28.7409 131.697 29.0003 131.697 29.5189V41.3745C131.697 42.1649 131.858 42.733 132.179 43.0788C132.524 43.3998 133.08 43.5604 133.846 43.5604H135.217C136.921 43.5604 137.773 42.6218 137.773 40.7447V29.5189C137.773 29.0003 138.032 28.7409 138.551 28.7409H141.663C142.206 28.7409 142.478 29.0003 142.478 29.5189V46.8577C142.478 47.3764 142.206 47.6357 141.663 47.6357H138.551C138.032 47.6357 137.773 47.3764 137.773 46.8577V45.6351H137.625C137.353 46.302 136.871 46.8083 136.18 47.1541C135.488 47.4752 134.76 47.6357 133.994 47.6357ZM150.682 47.6357H147.533C147.014 47.6357 146.755 47.3764 146.755 46.8577V22.3686C146.755 21.8499 147.014 21.5905 147.533 21.5905H150.682C151.201 21.5905 151.46 21.8499 151.46 22.3686V46.8577C151.46 47.3764 151.201 47.6357 150.682 47.6357ZM162.355 47.6357H161.466C159.515 47.6357 158.008 47.1171 156.946 46.0797C155.884 45.0423 155.353 43.548 155.353 41.5968V34.7799C155.353 32.8286 155.884 31.3343 156.946 30.297C158.008 29.2596 159.515 28.7409 161.466 28.7409H170.024C170.568 28.7409 170.839 29.0003 170.839 29.5189V46.8577C170.839 47.3764 170.568 47.6357 170.024 47.6357H166.912C166.393 47.6357 166.134 47.3764 166.134 46.8577V45.6351H165.986C165.714 46.302 165.233 46.8083 164.541 47.1541C163.849 47.4752 163.121 47.6357 162.355 47.6357ZM166.134 40.7447V33.2238C166.134 32.9521 165.986 32.8163 165.689 32.8163H162.207C161.416 32.8163 160.861 32.9892 160.54 33.335C160.219 33.656 160.058 34.2118 160.058 35.0021V41.3745C160.058 42.1649 160.219 42.733 160.54 43.0788C160.861 43.3998 161.416 43.5604 162.207 43.5604H163.578C165.282 43.5604 166.134 42.6218 166.134 40.7447ZM175.306 32.8163H173.825C173.528 32.8163 173.318 32.7669 173.195 32.6681C173.096 32.5693 173.046 32.3717 173.046 32.0753V29.5189C173.046 29.0003 173.306 28.7409 173.825 28.7409H175.306C175.578 28.7409 175.714 28.6051 175.714 28.3334V24.8138C175.714 24.2951 175.986 24.0357 176.529 24.0357H179.641C180.16 24.0357 180.419 24.2951 180.419 24.8138V28.3334C180.419 28.6051 180.567 28.7409 180.864 28.7409H183.754C184.272 28.7409 184.532 29.0003 184.532 29.5189V32.0753C184.532 32.347 184.47 32.5446 184.346 32.6681C184.248 32.7669 184.05 32.8163 183.754 32.8163H180.864C180.567 32.8163 180.419 32.9521 180.419 33.2238V41.4116C180.419 42.1772 180.592 42.733 180.938 43.0788C181.284 43.3998 181.852 43.5604 182.642 43.5604H184.124C184.643 43.5604 184.902 43.8197 184.902 44.3384V46.8948C184.902 47.1665 184.84 47.3641 184.717 47.4875C184.618 47.5863 184.42 47.6357 184.124 47.6357H181.864C179.913 47.6357 178.394 47.1171 177.307 46.0797C176.245 45.0423 175.714 43.5604 175.714 41.6339V33.2238C175.714 32.9521 175.578 32.8163 175.306 32.8163ZM188.145 25.5547V22.3315C188.145 21.8375 188.392 21.5905 188.886 21.5905H192.109C192.603 21.5905 192.85 21.8252 192.85 22.2945V25.5547C192.85 26.0487 192.603 26.2957 192.109 26.2957H188.886C188.392 26.2957 188.145 26.0487 188.145 25.5547ZM188.145 46.8577V29.5189C188.145 29.0003 188.392 28.7409 188.886 28.7409H192.072C192.591 28.7409 192.85 29.0003 192.85 29.5189V46.8577C192.85 47.1788 192.789 47.3888 192.665 47.4875C192.566 47.5863 192.381 47.6357 192.109 47.6357H188.923C188.405 47.6357 188.145 47.3764 188.145 46.8577ZM206.154 47.6357H202.856C200.905 47.6357 199.398 47.1171 198.336 46.0797C197.274 45.0423 196.743 43.548 196.743 41.5968V34.7799C196.743 32.8286 197.274 31.3343 198.336 30.297C199.398 29.2596 200.905 28.7409 202.856 28.7409H206.154C208.08 28.7409 209.574 29.272 210.636 30.334C211.723 31.3714 212.267 32.8533 212.267 34.7799V41.5968C212.267 43.5233 211.723 45.0176 210.636 46.0797C209.574 47.1171 208.08 47.6357 206.154 47.6357ZM203.56 43.5974H205.45C206.24 43.5974 206.796 43.4369 207.117 43.1158C207.463 42.7947 207.635 42.239 207.635 41.4486V34.9281C207.635 34.1377 207.463 33.5819 207.117 33.2609C206.796 32.9398 206.24 32.7792 205.45 32.7792H203.56C202.77 32.7792 202.214 32.9398 201.893 33.2609C201.572 33.5819 201.411 34.1377 201.411 34.9281V41.4486C201.411 42.239 201.572 42.7947 201.893 43.1158C202.214 43.4369 202.77 43.5974 203.56 43.5974ZM219.891 47.6357H216.742C216.223 47.6357 215.964 47.3764 215.964 46.8577V29.5189C215.964 29.0003 216.223 28.7409 216.742 28.7409H219.891C220.409 28.7409 220.669 29.0003 220.669 29.5189V30.7416H220.817C221.36 29.4078 222.571 28.7409 224.448 28.7409H225.633C229.511 28.7409 231.45 30.7539 231.45 34.7799V46.8577C231.45 47.3764 231.178 47.6357 230.635 47.6357H227.523C227.004 47.6357 226.745 47.3764 226.745 46.8577V35.0021C226.745 34.2118 226.572 33.656 226.226 33.335C225.905 32.9892 225.349 32.8163 224.559 32.8163H223.225C221.521 32.8163 220.669 33.7548 220.669 35.632V46.8577C220.669 47.3764 220.409 47.6357 219.891 47.6357ZM242.507 47.6357H235.467C234.973 47.6357 234.726 47.3764 234.726 46.8577V44.4866C234.726 44.2149 234.776 44.0297 234.875 43.9309C234.973 43.8074 235.171 43.7456 235.467 43.7456H241.655C242.865 43.7456 243.47 43.3751 243.47 42.6342V42.4489C243.47 41.8562 242.964 41.2881 241.951 40.7447L238.283 38.707C237.023 38.0648 236.097 37.3733 235.504 36.6323C234.912 35.8913 234.615 34.9404 234.615 33.7795C234.615 32.0506 235.072 30.7786 235.986 29.9635C236.9 29.1485 238.333 28.7409 240.284 28.7409H246.471C246.965 28.7409 247.212 29.0003 247.212 29.5189V31.9271C247.212 32.1988 247.162 32.3964 247.064 32.5199C246.965 32.6187 246.767 32.6681 246.471 32.6681H241.321C240.111 32.6681 239.506 32.9768 239.506 33.5943V33.7795C239.506 34.3229 240.037 34.8787 241.099 35.4467L244.841 37.6697C246.125 38.3612 247.027 39.0775 247.545 39.8185C248.064 40.5347 248.323 41.4857 248.323 42.6712C248.323 45.9809 246.384 47.6357 242.507 47.6357ZM251.416 30.334V24.5915C251.416 24.0728 251.675 23.8135 252.194 23.8135H255.714C256.232 23.8135 256.492 24.0728 256.492 24.5915V30.334C256.492 31.322 256.43 32.4334 256.306 33.6684C256.208 34.8787 256.134 35.7802 256.084 36.3729C256.035 36.9657 255.985 37.4474 255.936 37.8178C255.887 38.1883 255.862 38.3859 255.862 38.4106C255.763 38.9293 255.479 39.1886 255.01 39.1886H252.898C252.429 39.1886 252.145 38.9293 252.046 38.4106C252.046 38.3859 252.021 38.1883 251.972 37.8178C251.922 37.4474 251.861 36.9657 251.786 36.3729C251.737 35.7802 251.688 35.138 251.638 34.4464C251.49 32.4211 251.416 31.0503 251.416 30.334ZM256.381 42.3007V46.8577C256.381 47.3764 256.134 47.6357 255.64 47.6357H252.379C251.885 47.6357 251.638 47.3641 251.638 46.8207V42.3378C251.638 41.8438 251.885 41.5968 252.379 41.5968H255.64C256.134 41.5968 256.381 41.8315 256.381 42.3007Z" fill="#FFD979"/>
<path d="M14.778 46.9824H10.7397C8.78845 46.9824 7.2818 46.4637 6.21974 45.4264C5.15768 44.389 4.62665 42.8947 4.62665 40.9435V29.1991C4.62665 27.2478 5.15768 25.7535 6.21974 24.7162C7.2818 23.6788 8.78845 23.1601 10.7397 23.1601H14.778C16.7045 23.1601 18.1988 23.6912 19.2609 24.7532C20.3476 25.7906 20.891 27.2725 20.891 29.1991V30.9404C20.891 31.4837 20.6193 31.7554 20.0759 31.7554H16.9639C16.4452 31.7554 16.1858 31.4837 16.1858 30.9404V29.4214C16.1858 28.631 16.0129 28.0753 15.6672 27.7542C15.3461 27.4084 14.7903 27.2355 14 27.2355H11.4807C10.715 27.2355 10.1593 27.4084 9.81346 27.7542C9.49237 28.0753 9.33183 28.631 9.33183 29.4214V40.7212C9.33183 41.5116 9.49237 42.0796 9.81346 42.4254C10.1593 42.7465 10.715 42.9071 11.4807 42.9071H14C14.7903 42.9071 15.3461 42.7465 15.6672 42.4254C16.0129 42.0796 16.1858 41.5116 16.1858 40.7212V39.2022C16.1858 38.6588 16.4452 38.3871 16.9639 38.3871H20.0759C20.6193 38.3871 20.891 38.6588 20.891 39.2022V40.9435C20.891 42.87 20.3476 44.3643 19.2609 45.4264C18.1988 46.4637 16.7045 46.9824 14.778 46.9824ZM33.6019 46.9824H30.3046C28.3533 46.9824 26.8467 46.4637 25.7846 45.4264C24.7226 44.389 24.1915 42.8947 24.1915 40.9435V34.1265C24.1915 32.1753 24.7226 30.681 25.7846 29.6436C26.8467 28.6063 28.3533 28.0876 30.3046 28.0876H33.6019C35.5284 28.0876 37.0227 28.6186 38.0848 29.6807C39.1715 30.7181 39.7149 32.2 39.7149 34.1265V40.9435C39.7149 42.87 39.1715 44.3643 38.0848 45.4264C37.0227 46.4637 35.5284 46.9824 33.6019 46.9824ZM31.0085 42.9441H32.898C33.6883 42.9441 34.2441 42.7836 34.5652 42.4625C34.9109 42.1414 35.0838 41.5857 35.0838 40.7953V34.2747C35.0838 33.4844 34.9109 32.9286 34.5652 32.6075C34.2441 32.2865 33.6883 32.1259 32.898 32.1259H31.0085C30.2181 32.1259 29.6624 32.2865 29.3413 32.6075C29.0202 32.9286 28.8597 33.4844 28.8597 34.2747V40.7953C28.8597 41.5857 29.0202 42.1414 29.3413 42.4625C29.6624 42.7836 30.2181 42.9441 31.0085 42.9441ZM47.3391 46.9824H44.19C43.6713 46.9824 43.412 46.7231 43.412 46.2044V28.8656C43.412 28.3469 43.6713 28.0876 44.19 28.0876H47.3391C47.8578 28.0876 48.1171 28.3469 48.1171 28.8656V30.0882H48.2653C48.8087 28.7545 50.019 28.0876 51.8961 28.0876H53.0817C56.9594 28.0876 58.8983 30.1006 58.8983 34.1265V46.2044C58.8983 46.7231 58.6266 46.9824 58.0832 46.9824H54.9711C54.4525 46.9824 54.1931 46.7231 54.1931 46.2044V34.3488C54.1931 33.5585 54.0202 33.0027 53.6744 32.6816C53.3534 32.3359 52.7976 32.163 52.0073 32.163H50.6735C48.9693 32.163 48.1171 33.1015 48.1171 34.9787V46.2044C48.1171 46.7231 47.8578 46.9824 47.3391 46.9824ZM69.4734 46.1303H68.2508C66.3489 46.1303 64.904 45.6116 63.9161 44.5743C62.9528 43.5369 62.4712 42.0426 62.4712 40.0914V34.1265C62.4712 32.1753 63.0022 30.681 64.0643 29.6436C65.1263 28.6063 66.633 28.0876 68.5842 28.0876H77.1425C77.6858 28.0876 77.9575 28.3469 77.9575 28.8656V47.1306C77.9575 49.0571 77.4141 50.5391 76.3274 51.5765C75.2653 52.6138 73.771 53.1325 71.8445 53.1325H64.7312C64.4348 53.1325 64.2248 53.0708 64.1013 52.9473C64.0025 52.8485 63.9531 52.6632 63.9531 52.3915V49.8352C63.9531 49.3165 64.2125 49.0571 64.7312 49.0571H71.0665C71.8568 49.0571 72.4126 48.8843 72.7337 48.5385C73.0795 48.2174 73.2523 47.674 73.2523 46.9083V44.0926H73.1042C72.8325 44.7595 72.3508 45.2658 71.6593 45.6116C70.9677 45.9574 70.2391 46.1303 69.4734 46.1303ZM73.2523 39.2393V32.5705C73.2523 32.2988 73.1042 32.163 72.8078 32.163H69.3252C68.5348 32.163 67.9791 32.3359 67.658 32.6816C67.3369 33.0027 67.1764 33.5585 67.1764 34.3488V39.8691C67.1764 40.6595 67.3369 41.2152 67.658 41.5363C67.9791 41.8574 68.5348 42.0179 69.3252 42.0179H70.696C72.4002 42.0179 73.2523 41.0917 73.2523 39.2393ZM85.9435 46.9824H82.7944C82.2757 46.9824 82.0164 46.7231 82.0164 46.2044V28.8656C82.0164 28.3469 82.2757 28.0876 82.7944 28.0876H85.9435C86.4622 28.0876 86.7216 28.3469 86.7216 28.8656V30.1253H86.8698C87.1414 29.4584 87.6231 28.9521 88.3147 28.6063C89.0062 28.2605 89.7349 28.0876 90.5005 28.0876H91.8343C92.3283 28.0876 92.5753 28.3469 92.5753 28.8656V31.422C92.5753 31.7184 92.5135 31.9283 92.39 32.0518C92.2912 32.1506 92.106 32.1877 91.8343 32.163H89.2779C87.5737 32.163 86.7216 33.1262 86.7216 35.0528V46.2044C86.7216 46.7231 86.4622 46.9824 85.9435 46.9824ZM101.564 46.9824H100.675C98.7241 46.9824 97.2174 46.4637 96.1554 45.4264C95.0933 44.389 94.5623 42.8947 94.5623 40.9435V34.1265C94.5623 32.1753 95.0933 30.681 96.1554 29.6436C97.2174 28.6063 98.7241 28.0876 100.675 28.0876H109.234C109.777 28.0876 110.049 28.3469 110.049 28.8656V46.2044C110.049 46.7231 109.777 46.9824 109.234 46.9824H106.121C105.603 46.9824 105.343 46.7231 105.343 46.2044V44.9818H105.195C104.924 45.6487 104.442 46.155 103.75 46.5008C103.059 46.8219 102.33 46.9824 101.564 46.9824ZM105.343 40.0914V32.5705C105.343 32.2988 105.195 32.163 104.899 32.163H101.416C100.626 32.163 100.07 32.3359 99.7491 32.6816C99.428 33.0027 99.2675 33.5585 99.2675 34.3488V40.7212C99.2675 41.5116 99.428 42.0796 99.7491 42.4254C100.07 42.7465 100.626 42.9071 101.416 42.9071H102.787C104.491 42.9071 105.343 41.9685 105.343 40.0914ZM114.516 32.163H113.034C112.738 32.163 112.528 32.1136 112.404 32.0148C112.305 31.916 112.256 31.7184 112.256 31.422V28.8656C112.256 28.3469 112.515 28.0876 113.034 28.0876H114.516C114.788 28.0876 114.923 27.9518 114.923 27.6801V24.1604C114.923 23.6418 115.195 23.3824 115.738 23.3824H118.851C119.369 23.3824 119.629 23.6418 119.629 24.1604V27.6801C119.629 27.9518 119.777 28.0876 120.073 28.0876H122.963C123.482 28.0876 123.741 28.3469 123.741 28.8656V31.422C123.741 31.6937 123.679 31.8913 123.556 32.0148C123.457 32.1136 123.259 32.163 122.963 32.163H120.073C119.777 32.163 119.629 32.2988 119.629 32.5705V40.7582C119.629 41.5239 119.801 42.0796 120.147 42.4254C120.493 42.7465 121.061 42.9071 121.852 42.9071H123.333C123.852 42.9071 124.111 43.1664 124.111 43.6851V46.2414C124.111 46.5131 124.05 46.7107 123.926 46.8342C123.827 46.933 123.63 46.9824 123.333 46.9824H121.073C119.122 46.9824 117.603 46.4637 116.516 45.4264C115.454 44.389 114.923 42.9071 114.923 40.9805V32.5705C114.923 32.2988 114.788 32.163 114.516 32.163ZM133.986 46.9824H132.764C130.862 46.9824 129.417 46.4637 128.429 45.4264C127.466 44.389 126.984 42.8947 126.984 40.9435V28.8656C126.984 28.3469 127.244 28.0876 127.762 28.0876H130.911C131.43 28.0876 131.689 28.3469 131.689 28.8656V40.7212C131.689 41.5116 131.85 42.0796 132.171 42.4254C132.517 42.7465 133.073 42.9071 133.838 42.9071H135.209C136.913 42.9071 137.765 41.9685 137.765 40.0914V28.8656C137.765 28.3469 138.025 28.0876 138.543 28.0876H141.655C142.199 28.0876 142.471 28.3469 142.471 28.8656V46.2044C142.471 46.7231 142.199 46.9824 141.655 46.9824H138.543C138.025 46.9824 137.765 46.7231 137.765 46.2044V44.9818H137.617C137.345 45.6487 136.864 46.155 136.172 46.5008C135.481 46.8219 134.752 46.9824 133.986 46.9824ZM150.674 46.9824H147.525C147.007 46.9824 146.747 46.7231 146.747 46.2044V21.7152C146.747 21.1966 147.007 20.9372 147.525 20.9372H150.674C151.193 20.9372 151.453 21.1966 151.453 21.7152V46.2044C151.453 46.7231 151.193 46.9824 150.674 46.9824ZM162.347 46.9824H161.458C159.507 46.9824 158 46.4637 156.938 45.4264C155.876 44.389 155.345 42.8947 155.345 40.9435V34.1265C155.345 32.1753 155.876 30.681 156.938 29.6436C158 28.6063 159.507 28.0876 161.458 28.0876H170.016C170.56 28.0876 170.832 28.3469 170.832 28.8656V46.2044C170.832 46.7231 170.56 46.9824 170.016 46.9824H166.904C166.386 46.9824 166.126 46.7231 166.126 46.2044V44.9818H165.978C165.707 45.6487 165.225 46.155 164.533 46.5008C163.842 46.8219 163.113 46.9824 162.347 46.9824ZM166.126 40.0914V32.5705C166.126 32.2988 165.978 32.163 165.682 32.163H162.199C161.409 32.163 160.853 32.3359 160.532 32.6816C160.211 33.0027 160.05 33.5585 160.05 34.3488V40.7212C160.05 41.5116 160.211 42.0796 160.532 42.4254C160.853 42.7465 161.409 42.9071 162.199 42.9071H163.57C165.274 42.9071 166.126 41.9685 166.126 40.0914ZM175.299 32.163H173.817C173.52 32.163 173.311 32.1136 173.187 32.0148C173.088 31.916 173.039 31.7184 173.039 31.422V28.8656C173.039 28.3469 173.298 28.0876 173.817 28.0876H175.299C175.571 28.0876 175.706 27.9518 175.706 27.6801V24.1604C175.706 23.6418 175.978 23.3824 176.521 23.3824H179.634C180.152 23.3824 180.412 23.6418 180.412 24.1604V27.6801C180.412 27.9518 180.56 28.0876 180.856 28.0876H183.746C184.265 28.0876 184.524 28.3469 184.524 28.8656V31.422C184.524 31.6937 184.462 31.8913 184.339 32.0148C184.24 32.1136 184.042 32.163 183.746 32.163H180.856C180.56 32.163 180.412 32.2988 180.412 32.5705V40.7582C180.412 41.5239 180.584 42.0796 180.93 42.4254C181.276 42.7465 181.844 42.9071 182.634 42.9071H184.116C184.635 42.9071 184.894 43.1664 184.894 43.6851V46.2414C184.894 46.5131 184.833 46.7107 184.709 46.8342C184.61 46.933 184.413 46.9824 184.116 46.9824H181.856C179.905 46.9824 178.386 46.4637 177.299 45.4264C176.237 44.389 175.706 42.9071 175.706 40.9805V32.5705C175.706 32.2988 175.571 32.163 175.299 32.163ZM188.138 24.9014V21.6782C188.138 21.1842 188.385 20.9372 188.879 20.9372H192.102C192.596 20.9372 192.843 21.1719 192.843 21.6411V24.9014C192.843 25.3954 192.596 25.6424 192.102 25.6424H188.879C188.385 25.6424 188.138 25.3954 188.138 24.9014ZM188.138 46.2044V28.8656C188.138 28.3469 188.385 28.0876 188.879 28.0876H192.065C192.583 28.0876 192.843 28.3469 192.843 28.8656V46.2044C192.843 46.5255 192.781 46.7354 192.658 46.8342C192.559 46.933 192.374 46.9824 192.102 46.9824H188.916C188.397 46.9824 188.138 46.7231 188.138 46.2044ZM206.146 46.9824H202.849C200.897 46.9824 199.391 46.4637 198.329 45.4264C197.267 44.389 196.736 42.8947 196.736 40.9435V34.1265C196.736 32.1753 197.267 30.681 198.329 29.6436C199.391 28.6063 200.897 28.0876 202.849 28.0876H206.146C208.072 28.0876 209.567 28.6186 210.629 29.6807C211.716 30.7181 212.259 32.2 212.259 34.1265V40.9435C212.259 42.87 211.716 44.3643 210.629 45.4264C209.567 46.4637 208.072 46.9824 206.146 46.9824ZM203.552 42.9441H205.442C206.232 42.9441 206.788 42.7836 207.109 42.4625C207.455 42.1414 207.628 41.5857 207.628 40.7953V34.2747C207.628 33.4844 207.455 32.9286 207.109 32.6075C206.788 32.2865 206.232 32.1259 205.442 32.1259H203.552C202.762 32.1259 202.206 32.2865 201.885 32.6075C201.564 32.9286 201.404 33.4844 201.404 34.2747V40.7953C201.404 41.5857 201.564 42.1414 201.885 42.4625C202.206 42.7836 202.762 42.9441 203.552 42.9441ZM219.883 46.9824H216.734C216.215 46.9824 215.956 46.7231 215.956 46.2044V28.8656C215.956 28.3469 216.215 28.0876 216.734 28.0876H219.883C220.402 28.0876 220.661 28.3469 220.661 28.8656V30.0882H220.809C221.353 28.7545 222.563 28.0876 224.44 28.0876H225.626C229.503 28.0876 231.442 30.1006 231.442 34.1265V46.2044C231.442 46.7231 231.171 46.9824 230.627 46.9824H227.515C226.996 46.9824 226.737 46.7231 226.737 46.2044V34.3488C226.737 33.5585 226.564 33.0027 226.218 32.6816C225.897 32.3359 225.342 32.163 224.551 32.163H223.218C221.513 32.163 220.661 33.1015 220.661 34.9787V46.2044C220.661 46.7231 220.402 46.9824 219.883 46.9824ZM242.499 46.9824H235.46C234.966 46.9824 234.719 46.7231 234.719 46.2044V43.8333C234.719 43.5616 234.768 43.3764 234.867 43.2776C234.966 43.1541 235.163 43.0923 235.46 43.0923H241.647C242.857 43.0923 243.462 42.7218 243.462 41.9809V41.7956C243.462 41.2028 242.956 40.6348 241.943 40.0914L238.275 38.0537C237.016 37.4115 236.09 36.7199 235.497 35.979C234.904 35.238 234.608 34.2871 234.608 33.1262C234.608 31.3973 235.065 30.1253 235.978 29.3102C236.892 28.4951 238.325 28.0876 240.276 28.0876H246.463C246.957 28.0876 247.204 28.3469 247.204 28.8656V31.2738C247.204 31.5455 247.155 31.7431 247.056 31.8666C246.957 31.9654 246.76 32.0148 246.463 32.0148H241.313C240.103 32.0148 239.498 32.3235 239.498 32.941V33.1262C239.498 33.6696 240.029 34.2253 241.091 34.7934L244.833 37.0163C246.117 37.7079 247.019 38.4242 247.538 39.1652C248.056 39.8814 248.316 40.8323 248.316 42.0179C248.316 45.3276 246.377 46.9824 242.499 46.9824ZM251.408 29.6807V23.9382C251.408 23.4195 251.668 23.1601 252.186 23.1601H255.706C256.225 23.1601 256.484 23.4195 256.484 23.9382V29.6807C256.484 30.6687 256.422 31.7801 256.299 33.0151C256.2 34.2253 256.126 35.1269 256.076 35.7196C256.027 36.3124 255.978 36.794 255.928 37.1645C255.879 37.535 255.854 37.7326 255.854 37.7573C255.755 38.276 255.471 38.5353 255.002 38.5353H252.89C252.421 38.5353 252.137 38.276 252.038 37.7573C252.038 37.7326 252.013 37.535 251.964 37.1645C251.915 36.794 251.853 36.3124 251.779 35.7196C251.729 35.1269 251.68 34.4847 251.631 33.7931C251.482 31.7678 251.408 30.397 251.408 29.6807ZM256.373 41.6474V46.2044C256.373 46.7231 256.126 46.9824 255.632 46.9824H252.372C251.878 46.9824 251.631 46.7107 251.631 46.1674V41.6845C251.631 41.1905 251.878 40.9435 252.372 40.9435H255.632C256.126 40.9435 256.373 41.1781 256.373 41.6474Z" fill="black"/>
<path d="M14.7782 45.3057H10.7399C8.78863 45.3057 7.28199 44.787 6.21993 43.7496C5.15786 42.7123 4.62683 41.218 4.62683 39.2667V27.5223C4.62683 25.5711 5.15786 24.0768 6.21993 23.0394C7.28199 22.0021 8.78863 21.4834 10.7399 21.4834H14.7782C16.7047 21.4834 18.199 22.0144 19.2611 23.0765C20.3478 24.1138 20.8912 25.5958 20.8912 27.5223V29.2636C20.8912 29.807 20.6195 30.0787 20.0761 30.0787H16.964C16.4454 30.0787 16.186 29.807 16.186 29.2636V27.7446C16.186 26.9542 16.0131 26.3985 15.6673 26.0774C15.3462 25.7316 14.7905 25.5587 14.0001 25.5587H11.4808C10.7152 25.5587 10.1594 25.7316 9.81365 26.0774C9.49256 26.3985 9.33201 26.9542 9.33201 27.7446V39.0444C9.33201 39.8348 9.49256 40.4029 9.81365 40.7487C10.1594 41.0698 10.7152 41.2303 11.4808 41.2303H14.0001C14.7905 41.2303 15.3462 41.0698 15.6673 40.7487C16.0131 40.4029 16.186 39.8348 16.186 39.0444V37.5254C16.186 36.9821 16.4454 36.7104 16.964 36.7104H20.0761C20.6195 36.7104 20.8912 36.9821 20.8912 37.5254V39.2667C20.8912 41.1933 20.3478 42.6876 19.2611 43.7496C18.199 44.787 16.7047 45.3057 14.7782 45.3057ZM33.6021 45.3057H30.3047C28.3535 45.3057 26.8469 44.787 25.7848 43.7496C24.7227 42.7123 24.1917 41.218 24.1917 39.2667V32.4498C24.1917 30.4985 24.7227 29.0043 25.7848 27.9669C26.8469 26.9295 28.3535 26.4108 30.3047 26.4108H33.6021C35.5286 26.4108 37.0229 26.9419 38.085 28.0039C39.1717 29.0413 39.7151 30.5232 39.7151 32.4498V39.2667C39.7151 41.1933 39.1717 42.6876 38.085 43.7496C37.0229 44.787 35.5286 45.3057 33.6021 45.3057ZM31.0087 41.2674H32.8981C33.6885 41.2674 34.2442 41.1068 34.5653 40.7857C34.9111 40.4646 35.084 39.9089 35.084 39.1185V32.598C35.084 31.8076 34.9111 31.2519 34.5653 30.9308C34.2442 30.6097 33.6885 30.4492 32.8981 30.4492H31.0087C30.2183 30.4492 29.6626 30.6097 29.3415 30.9308C29.0204 31.2519 28.8598 31.8076 28.8598 32.598V39.1185C28.8598 39.9089 29.0204 40.4646 29.3415 40.7857C29.6626 41.1068 30.2183 41.2674 31.0087 41.2674ZM47.3393 45.3057H44.1902C43.6715 45.3057 43.4122 45.0463 43.4122 44.5276V27.1889C43.4122 26.6702 43.6715 26.4108 44.1902 26.4108H47.3393C47.858 26.4108 48.1173 26.6702 48.1173 27.1889V28.4115H48.2655C48.8089 27.0777 50.0192 26.4108 51.8963 26.4108H53.0819C56.9596 26.4108 58.8985 28.4238 58.8985 32.4498V44.5276C58.8985 45.0463 58.6268 45.3057 58.0834 45.3057H54.9713C54.4527 45.3057 54.1933 45.0463 54.1933 44.5276V32.6721C54.1933 31.8817 54.0204 31.326 53.6746 31.0049C53.3535 30.6591 52.7978 30.4862 52.0074 30.4862H50.6737C48.9694 30.4862 48.1173 31.4248 48.1173 33.3019V44.5276C48.1173 45.0463 47.858 45.3057 47.3393 45.3057ZM69.4736 44.4535H68.251C66.3491 44.4535 64.9042 43.9349 63.9163 42.8975C62.953 41.8601 62.4714 40.3658 62.4714 38.4146V32.4498C62.4714 30.4985 63.0024 29.0043 64.0645 27.9669C65.1265 26.9295 66.6332 26.4108 68.5844 26.4108H77.1426C77.686 26.4108 77.9577 26.6702 77.9577 27.1889V45.4539C77.9577 47.3804 77.4143 48.8623 76.3276 49.8997C75.2655 50.9371 73.7712 51.4557 71.8447 51.4557H64.7313C64.4349 51.4557 64.225 51.394 64.1015 51.2705C64.0027 51.1717 63.9533 50.9865 63.9533 50.7148V48.1584C63.9533 47.6397 64.2127 47.3804 64.7313 47.3804H71.0667C71.857 47.3804 72.4128 47.2075 72.7338 46.8617C73.0796 46.5406 73.2525 45.9972 73.2525 45.2316V42.4159H73.1043C72.8326 43.0827 72.351 43.5891 71.6594 43.9349C70.9679 44.2807 70.2392 44.4535 69.4736 44.4535ZM73.2525 37.5625V30.8937C73.2525 30.622 73.1043 30.4862 72.8079 30.4862H69.3254C68.535 30.4862 67.9793 30.6591 67.6582 31.0049C67.3371 31.326 67.1766 31.8817 67.1766 32.6721V38.1923C67.1766 38.9827 67.3371 39.5384 67.6582 39.8595C67.9793 40.1806 68.535 40.3411 69.3254 40.3411H70.6962C72.4004 40.3411 73.2525 39.4149 73.2525 37.5625ZM85.9437 45.3057H82.7946C82.2759 45.3057 82.0166 45.0463 82.0166 44.5276V27.1889C82.0166 26.6702 82.2759 26.4108 82.7946 26.4108H85.9437C86.4624 26.4108 86.7217 26.6702 86.7217 27.1889V28.4485H86.8699C87.1416 27.7816 87.6233 27.2753 88.3148 26.9295C89.0064 26.5837 89.735 26.4108 90.5007 26.4108H91.8345C92.3284 26.4108 92.5754 26.6702 92.5754 27.1889V29.7452C92.5754 30.0416 92.5137 30.2516 92.3902 30.3751C92.2914 30.4738 92.1062 30.5109 91.8345 30.4862H89.2781C87.5739 30.4862 86.7217 31.4495 86.7217 33.376V44.5276C86.7217 45.0463 86.4624 45.3057 85.9437 45.3057ZM101.565 45.3057H100.675C98.7243 45.3057 97.2176 44.787 96.1555 43.7496C95.0935 42.7123 94.5625 41.218 94.5625 39.2667V32.4498C94.5625 30.4985 95.0935 29.0043 96.1555 27.9669C97.2176 26.9295 98.7243 26.4108 100.675 26.4108H109.234C109.777 26.4108 110.049 26.6702 110.049 27.1889V44.5276C110.049 45.0463 109.777 45.3057 109.234 45.3057H106.122C105.603 45.3057 105.344 45.0463 105.344 44.5276V43.305H105.195C104.924 43.9719 104.442 44.4782 103.751 44.824C103.059 45.1451 102.33 45.3057 101.565 45.3057ZM105.344 38.4146V30.8937C105.344 30.622 105.195 30.4862 104.899 30.4862H101.416C100.626 30.4862 100.07 30.6591 99.7493 31.0049C99.4282 31.326 99.2676 31.8817 99.2676 32.6721V39.0444C99.2676 39.8348 99.4282 40.4029 99.7493 40.7487C100.07 41.0698 100.626 41.2303 101.416 41.2303H102.787C104.491 41.2303 105.344 40.2917 105.344 38.4146ZM114.516 30.4862H113.034C112.738 30.4862 112.528 30.4368 112.404 30.338C112.305 30.2392 112.256 30.0416 112.256 29.7452V27.1889C112.256 26.6702 112.515 26.4108 113.034 26.4108H114.516C114.788 26.4108 114.924 26.275 114.924 26.0033V22.4837C114.924 21.965 115.195 21.7057 115.739 21.7057H118.851C119.369 21.7057 119.629 21.965 119.629 22.4837V26.0033C119.629 26.275 119.777 26.4108 120.073 26.4108H122.963C123.482 26.4108 123.741 26.6702 123.741 27.1889V29.7452C123.741 30.0169 123.679 30.2145 123.556 30.338C123.457 30.4368 123.26 30.4862 122.963 30.4862H120.073C119.777 30.4862 119.629 30.622 119.629 30.8937V39.0815C119.629 39.8472 119.802 40.4029 120.147 40.7487C120.493 41.0698 121.061 41.2303 121.852 41.2303H123.334C123.852 41.2303 124.112 41.4897 124.112 42.0083V44.5647C124.112 44.8364 124.05 45.034 123.926 45.1575C123.828 45.2563 123.63 45.3057 123.334 45.3057H121.074C119.122 45.3057 117.603 44.787 116.517 43.7496C115.455 42.7123 114.924 41.2303 114.924 39.3038V30.8937C114.924 30.622 114.788 30.4862 114.516 30.4862ZM133.987 45.3057H132.764C130.862 45.3057 129.417 44.787 128.429 43.7496C127.466 42.7123 126.984 41.218 126.984 39.2667V27.1889C126.984 26.6702 127.244 26.4108 127.762 26.4108H130.912C131.43 26.4108 131.69 26.6702 131.69 27.1889V39.0444C131.69 39.8348 131.85 40.4029 132.171 40.7487C132.517 41.0698 133.073 41.2303 133.838 41.2303H135.209C136.913 41.2303 137.766 40.2917 137.766 38.4146V27.1889C137.766 26.6702 138.025 26.4108 138.544 26.4108H141.656C142.199 26.4108 142.471 26.6702 142.471 27.1889V44.5276C142.471 45.0463 142.199 45.3057 141.656 45.3057H138.544C138.025 45.3057 137.766 45.0463 137.766 44.5276V43.305H137.617C137.346 43.9719 136.864 44.4782 136.172 44.824C135.481 45.1451 134.752 45.3057 133.987 45.3057ZM150.675 45.3057H147.526C147.007 45.3057 146.748 45.0463 146.748 44.5276V20.0385C146.748 19.5198 147.007 19.2605 147.526 19.2605H150.675C151.193 19.2605 151.453 19.5198 151.453 20.0385V44.5276C151.453 45.0463 151.193 45.3057 150.675 45.3057ZM162.348 45.3057H161.458C159.507 45.3057 158.001 44.787 156.939 43.7496C155.876 42.7123 155.345 41.218 155.345 39.2667V32.4498C155.345 30.4985 155.876 29.0043 156.939 27.9669C158.001 26.9295 159.507 26.4108 161.458 26.4108H170.017C170.56 26.4108 170.832 26.6702 170.832 27.1889V44.5276C170.832 45.0463 170.56 45.3057 170.017 45.3057H166.905C166.386 45.3057 166.127 45.0463 166.127 44.5276V43.305H165.978C165.707 43.9719 165.225 44.4782 164.533 44.824C163.842 45.1451 163.113 45.3057 162.348 45.3057ZM166.127 38.4146V30.8937C166.127 30.622 165.978 30.4862 165.682 30.4862H162.199C161.409 30.4862 160.853 30.6591 160.532 31.0049C160.211 31.326 160.051 31.8817 160.051 32.6721V39.0444C160.051 39.8348 160.211 40.4029 160.532 40.7487C160.853 41.0698 161.409 41.2303 162.199 41.2303H163.57C165.274 41.2303 166.127 40.2917 166.127 38.4146ZM175.299 30.4862H173.817C173.521 30.4862 173.311 30.4368 173.187 30.338C173.088 30.2392 173.039 30.0416 173.039 29.7452V27.1889C173.039 26.6702 173.298 26.4108 173.817 26.4108H175.299C175.571 26.4108 175.707 26.275 175.707 26.0033V22.4837C175.707 21.965 175.978 21.7057 176.522 21.7057H179.634C180.152 21.7057 180.412 21.965 180.412 22.4837V26.0033C180.412 26.275 180.56 26.4108 180.856 26.4108H183.746C184.265 26.4108 184.524 26.6702 184.524 27.1889V29.7452C184.524 30.0169 184.462 30.2145 184.339 30.338C184.24 30.4368 184.043 30.4862 183.746 30.4862H180.856C180.56 30.4862 180.412 30.622 180.412 30.8937V39.0815C180.412 39.8472 180.585 40.4029 180.93 40.7487C181.276 41.0698 181.844 41.2303 182.635 41.2303H184.117C184.635 41.2303 184.895 41.4897 184.895 42.0083V44.5647C184.895 44.8364 184.833 45.034 184.709 45.1575C184.611 45.2563 184.413 45.3057 184.117 45.3057H181.857C179.905 45.3057 178.386 44.787 177.3 43.7496C176.238 42.7123 175.707 41.2303 175.707 39.3038V30.8937C175.707 30.622 175.571 30.4862 175.299 30.4862ZM188.138 23.2247V20.0014C188.138 19.5074 188.385 19.2605 188.879 19.2605H192.102C192.596 19.2605 192.843 19.4951 192.843 19.9644V23.2247C192.843 23.7186 192.596 23.9656 192.102 23.9656H188.879C188.385 23.9656 188.138 23.7186 188.138 23.2247ZM188.138 44.5276V27.1889C188.138 26.6702 188.385 26.4108 188.879 26.4108H192.065C192.584 26.4108 192.843 26.6702 192.843 27.1889V44.5276C192.843 44.8487 192.781 45.0587 192.658 45.1575C192.559 45.2563 192.374 45.3057 192.102 45.3057H188.916C188.397 45.3057 188.138 45.0463 188.138 44.5276ZM206.146 45.3057H202.849C200.898 45.3057 199.391 44.787 198.329 43.7496C197.267 42.7123 196.736 41.218 196.736 39.2667V32.4498C196.736 30.4985 197.267 29.0043 198.329 27.9669C199.391 26.9295 200.898 26.4108 202.849 26.4108H206.146C208.073 26.4108 209.567 26.9419 210.629 28.0039C211.716 29.0413 212.259 30.5232 212.259 32.4498V39.2667C212.259 41.1933 211.716 42.6876 210.629 43.7496C209.567 44.787 208.073 45.3057 206.146 45.3057ZM203.553 41.2674H205.442C206.233 41.2674 206.788 41.1068 207.109 40.7857C207.455 40.4646 207.628 39.9089 207.628 39.1185V32.598C207.628 31.8076 207.455 31.2519 207.109 30.9308C206.788 30.6097 206.233 30.4492 205.442 30.4492H203.553C202.762 30.4492 202.207 30.6097 201.885 30.9308C201.564 31.2519 201.404 31.8076 201.404 32.598V39.1185C201.404 39.9089 201.564 40.4646 201.885 40.7857C202.207 41.1068 202.762 41.2674 203.553 41.2674ZM219.883 45.3057H216.734C216.215 45.3057 215.956 45.0463 215.956 44.5276V27.1889C215.956 26.6702 216.215 26.4108 216.734 26.4108H219.883C220.402 26.4108 220.661 26.6702 220.661 27.1889V28.4115H220.81C221.353 27.0777 222.563 26.4108 224.44 26.4108H225.626C229.504 26.4108 231.442 28.4238 231.442 32.4498V44.5276C231.442 45.0463 231.171 45.3057 230.627 45.3057H227.515C226.997 45.3057 226.737 45.0463 226.737 44.5276V32.6721C226.737 31.8817 226.564 31.326 226.219 31.0049C225.898 30.6591 225.342 30.4862 224.551 30.4862H223.218C221.513 30.4862 220.661 31.4248 220.661 33.3019V44.5276C220.661 45.0463 220.402 45.3057 219.883 45.3057ZM242.499 45.3057H235.46C234.966 45.3057 234.719 45.0463 234.719 44.5276V42.1565C234.719 41.8848 234.768 41.6996 234.867 41.6008C234.966 41.4773 235.164 41.4156 235.46 41.4156H241.647C242.857 41.4156 243.462 41.0451 243.462 40.3041V40.1189C243.462 39.5261 242.956 38.958 241.943 38.4146L238.276 36.3769C237.016 35.7348 236.09 35.0432 235.497 34.3022C234.904 33.5612 234.608 32.6103 234.608 31.4495C234.608 29.7205 235.065 28.4485 235.979 27.6335C236.893 26.8184 238.325 26.4108 240.276 26.4108H246.463C246.957 26.4108 247.204 26.6702 247.204 27.1889V29.597C247.204 29.8687 247.155 30.0663 247.056 30.1898C246.957 30.2886 246.76 30.338 246.463 30.338H241.314C240.103 30.338 239.498 30.6467 239.498 31.2642V31.4495C239.498 31.9928 240.029 32.5486 241.091 33.1167L244.833 35.3396C246.118 36.0311 247.019 36.7474 247.538 37.4884C248.057 38.2047 248.316 39.1556 248.316 40.3411C248.316 43.6508 246.377 45.3057 242.499 45.3057ZM251.409 28.0039V22.2614C251.409 21.7427 251.668 21.4834 252.187 21.4834H255.706C256.225 21.4834 256.484 21.7427 256.484 22.2614V28.0039C256.484 28.9919 256.422 30.1034 256.299 31.3383C256.2 32.5486 256.126 33.4501 256.077 34.0429C256.027 34.6356 255.978 35.1173 255.928 35.4878C255.879 35.8583 255.854 36.0558 255.854 36.0805C255.756 36.5992 255.472 36.8586 255.002 36.8586H252.89C252.421 36.8586 252.137 36.5992 252.038 36.0805C252.038 36.0558 252.014 35.8583 251.964 35.4878C251.915 35.1173 251.853 34.6356 251.779 34.0429C251.73 33.4501 251.68 32.8079 251.631 32.1163C251.483 30.091 251.409 28.7202 251.409 28.0039ZM256.373 39.9707V44.5276C256.373 45.0463 256.126 45.3057 255.632 45.3057H252.372C251.878 45.3057 251.631 45.034 251.631 44.4906V40.0077C251.631 39.5137 251.878 39.2667 252.372 39.2667H255.632C256.126 39.2667 256.373 39.5014 256.373 39.9707Z" fill="white"/>
</svg>
