<svg width="113" height="108" viewBox="0 0 113 108" fill="none" xmlns="http://www.w3.org/2000/svg">
<path d="M18.6356 83.5344C15.5464 81.8475 15.5351 79.0106 18.6108 77.3156L57.1684 56.0658C59.8967 54.5621 64.1436 54.4775 67.045 55.869L105.105 74.1218C108.47 75.7355 108.704 78.6699 105.61 80.4551L65.687 103.489C62.8425 105.131 58.2524 105.167 55.3307 103.572L18.6356 83.5344Z" fill="#1A1A1A"/>
<rect width="41.8394" height="43.0382" rx="0.353212" transform="matrix(0.866025 -0.5 0.866025 0.5 19.8037 34.9014)" fill="white" stroke="black" stroke-width="0.264909" stroke-linejoin="bevel"/>
<rect width="43.0382" height="43.0382" rx="0.353212" transform="matrix(0.866025 0.5 -2.20305e-08 1 20.063 34.6406)" fill="#F4EDD9" stroke="black" stroke-width="0.713632"/>
<path d="M56.1714 56.6207C56.1714 56.4261 56.3078 56.1893 56.4764 56.0914L93.1368 34.8007C93.3061 34.7024 93.4436 34.7813 93.4436 34.9768L93.4436 77.3075C93.4436 77.5026 93.3066 77.7398 93.1377 77.8373L56.4773 99.0032C56.3083 99.1007 56.1714 99.0217 56.1714 98.8266L56.1714 56.6207Z" fill="#C4C4C4" stroke="black" stroke-width="0.713632" stroke-linejoin="round"/>
<path d="M73.0762 63.5273L81.3241 58.6902L81.3241 84.1679L73.0762 88.9298L73.0762 63.5273Z" fill="#B17518"/>
<path d="M39.6489 63.5273L31.401 58.6902L31.401 84.1679L39.6489 88.9298L39.6489 63.5273Z" fill="#EFAF4E"/>
<rect width="45.5014" height="46.8052" rx="0.381673" transform="matrix(0.866025 -0.5 0.866025 0.5 16.3545 34.7949)" fill="#F4EDD9" stroke="black" stroke-width="0.713632" stroke-linejoin="bevel"/>
<path d="M32.6097 25.943L41.9389 20.4228L81.2686 43.1298L71.8234 48.583L32.6097 25.943Z" fill="#EFAF4E"/>
<path d="M79.1051 25.9081L69.7731 20.3896L31.4016 42.5434L40.8468 47.9966L79.1051 25.9081Z" fill="#EFAF4E"/>
<rect width="45.5446" height="15.551" rx="0.381673" transform="matrix(0.866025 0.5 -2.20305e-08 1 16.6284 34.5117)" fill="#F4EDD9" stroke="black" stroke-width="0.713632"/>
<path d="M56.0723 58.2184C56.0723 58.0077 56.2201 57.7516 56.4025 57.6461L96.0995 34.6826C96.2822 34.577 96.4303 34.6623 96.4303 34.8733L96.4303 49.3972C96.4303 49.608 96.2824 49.8643 96.0998 49.9697L56.4028 72.8888C56.2203 72.9942 56.0723 72.9088 56.0723 72.698L56.0723 58.2184Z" fill="#C4C4C4" stroke="black" stroke-width="0.713632" stroke-linejoin="round"/>
<path fill-rule="evenodd" clip-rule="evenodd" d="M58.2807 35.0815C66.3471 35.7048 73.1488 31.6963 76.5234 26.9039C78.3581 24.2982 79.0144 21.7089 78.6442 19.6709C78.3011 17.7819 76.9905 15.8827 73.7469 14.6402C70.3247 13.3294 67.911 13.5575 66.1449 14.4089C64.3056 15.2956 62.7481 17.0608 61.495 19.5954C59.2945 24.0463 58.4027 30.1269 58.2807 35.0815ZM63.9659 9.88932C67.2437 8.30907 71.1337 8.26637 75.5417 9.95479C80.1282 11.7116 82.8718 14.871 83.5808 18.7742C84.2627 22.5284 82.969 26.4648 80.6258 29.7926C75.9311 36.4598 66.3585 41.6807 55.3379 39.763C54.1564 39.5574 53.2857 38.5444 53.2599 37.3454C53.1396 31.7535 53.9485 23.5382 56.9973 17.3717C58.5348 14.2618 60.7613 11.4343 63.9659 9.88932Z" fill="#C34B29" stroke="black" stroke-width="0.54685" stroke-linejoin="round"/>
<path fill-rule="evenodd" clip-rule="evenodd" d="M52.8224 35.0104C45.9684 34.8514 39.8139 30.9632 36.6035 26.3855C34.8265 23.8517 34.1492 21.3924 34.4326 19.4745C34.6907 17.727 35.8111 15.9664 38.7684 14.7466C41.8809 13.4626 44.014 13.703 45.5597 14.5055C47.2108 15.3627 48.655 17.1005 49.8301 19.6601C51.8558 24.0725 52.6915 30.0756 52.8224 35.0104ZM47.8717 10.0525C44.7338 8.42334 41.0134 8.39291 36.8551 10.1083C32.5414 11.8876 30.0264 14.9683 29.469 18.7413C28.9368 22.3438 30.2639 26.0842 32.4956 29.2664C36.9518 35.6205 45.8024 40.8886 55.5874 39.9178C56.8516 39.7923 57.8225 38.7416 57.8479 37.4714C57.9593 31.8959 57.21 23.7095 54.3899 17.5667C52.9737 14.4819 50.9042 11.627 47.8717 10.0525Z" fill="#C34B29" stroke="black" stroke-width="0.54685" stroke-linejoin="round"/>
<circle cx="55.6486" cy="36.8947" r="3.65544" fill="#F4EDD9" stroke="black" stroke-width="0.54685" stroke-linejoin="round"/>
<path d="M72.5894 48.85L82.0346 43.3544L82.0346 57.7201L72.5894 63.1733L72.5894 48.85Z" fill="#B17518"/>
<path d="M40.248 48.6263L30.8028 43.1298L30.8028 57.8081L40.248 63.2613L40.248 48.6263Z" fill="#EFAF4E"/>
<ellipse cx="96.8946" cy="26.1672" rx="2.17532" ry="2.1838" fill="#FFEFC7"/>
<ellipse cx="22.437" cy="2.1838" rx="2.17532" ry="2.1838" fill="#FFD979"/>
<ellipse cx="110.414" cy="16.1653" rx="2.17532" ry="2.1838" fill="#FFD979"/>
<ellipse cx="2.17532" cy="46.677" rx="2.17532" ry="2.1838" fill="#FFD979"/>
<ellipse cx="21.9616" cy="23.9838" rx="0.949834" ry="0.95354" fill="#FFEFC7"/>
<ellipse cx="103.064" cy="52.31" rx="0.949834" ry="0.95354" fill="#FFEFC7"/>
<ellipse cx="79.5236" cy="0.95354" rx="0.949834" ry="0.95354" fill="#FFD979"/>
</svg>
