<svg xmlns="http://www.w3.org/2000/svg" width="366" height="191.206" viewBox="0 0 366 191.206">
  <g id="Group_18402" data-name="Group 18402" transform="translate(-24 -105)">
    <g id="Group_69" data-name="Group 69">
      <path id="Path_984" data-name="Path 984" d="M390,217.659c0,30.17,0,45.255-9.373,54.627S356.17,281.659,326,281.659H276.127a86.558,86.558,0,0,0-34.731,7.273,86.55,86.55,0,0,1-68.9.244l-.771-.331a88.5,88.5,0,0,0-34.932-7.186H88c-30.17,0-45.255,0-54.627-9.373S24,247.829,24,217.659V169c0-30.17,0-45.255,9.373-54.627S57.83,105,88,105H326c30.17,0,45.255,0,54.627,9.373S390,138.83,390,169Z" fill="#34c3a7" fill-rule="evenodd"/>
    </g>
    <path id="Path_985" data-name="Path 985" d="M231,276.222a7.4,7.4,0,0,1-5.606,7.179l-12.573,3.144a24.012,24.012,0,0,1-11.642,0L188.6,283.4a7.4,7.4,0,0,1-5.6-7.179.221.221,0,0,1,.222-.222h47.556A.222.222,0,0,1,231,276.222Z" fill="#fff" fill-rule="evenodd"/>
  </g>
</svg>
