<svg width="24" height="24" viewBox="0 0 24 24" fill="none" xmlns="http://www.w3.org/2000/svg">
<path d="M17.73 2.24046C17.9213 2.07663 18.1674 1.99102 18.4191 2.00075C18.6707 2.01047 18.9095 2.1148 19.0876 2.29289C19.2657 2.47099 19.37 2.70973 19.3797 2.9614C19.3894 3.21308 19.3038 3.45916 19.14 3.65046L16 6.74046L16.76 7.69046L18.7 12.6905C18.7988 12.9541 18.8193 13.2407 18.759 13.5157C18.6986 13.7907 18.5601 14.0424 18.36 14.2405L15.27 17.3305C14.9827 17.5997 14.6037 17.7496 14.21 17.7496C13.8163 17.7496 13.4373 17.5997 13.15 17.3305L8.55 12.7305C8.41923 12.5994 8.31636 12.4433 8.24761 12.2714C8.17886 12.0995 8.14566 11.9155 8.15 11.7305L7.65 5.29046H8.72C8.859 5.28555 8.9975 5.3097 9.12664 5.36136C9.25578 5.41302 9.37272 5.49104 9.47 5.59046L9.61 5.76046L10.66 9.24046L17.73 2.24046ZM10.66 21.9505L5 16.3105L7.12 14.1905L12.78 19.8505L10.66 21.9505Z" fill="#34C3A7"/>
</svg>
