<svg width="16" height="17" viewBox="0 0 16 17" fill="none" xmlns="http://www.w3.org/2000/svg">
<g clip-path="url(#clip0_976_4638)">
<path d="M7.33301 3.37061H2.66634C2.31272 3.37061 1.97358 3.51108 1.72353 3.76113C1.47348 4.01118 1.33301 4.35032 1.33301 4.70394V14.0373C1.33301 14.3909 1.47348 14.73 1.72353 14.9801C1.97358 15.2301 2.31272 15.3706 2.66634 15.3706H11.9997C12.3533 15.3706 12.6924 15.2301 12.9425 14.9801C13.1925 14.73 13.333 14.3909 13.333 14.0373V9.37061" stroke="#62E3C4" stroke-width="1.33333" stroke-linecap="round" stroke-linejoin="round"/>
<path d="M12.333 2.37076C12.5982 2.10554 12.9579 1.95654 13.333 1.95654C13.7081 1.95654 14.0678 2.10554 14.333 2.37076C14.5982 2.63597 14.7472 2.99568 14.7472 3.37076C14.7472 3.74583 14.5982 4.10554 14.333 4.37076L7.99967 10.7041L5.33301 11.3708L5.99967 8.70409L12.333 2.37076Z" stroke="#62E3C4" stroke-width="1.33333" stroke-linecap="round" stroke-linejoin="round"/>
</g>
<defs>
<clipPath id="clip0_976_4638">
<rect width="16" height="16" fill="white" transform="translate(0 0.704102)"/>
</clipPath>
</defs>
</svg>
