<svg width="117" height="150" viewBox="0 0 117 150" fill="none" xmlns="http://www.w3.org/2000/svg">
<defs>
<linearGradient id="paint0_linear" x1="49.6632" y1="8.47119" x2="9.99229" y2="47.7493" gradientUnits="userSpaceOnUse">
<stop stop-color="#1CAF82"/>
<stop offset="1" stop-color="#158462"/>
</linearGradient>
<linearGradient id="paint1_linear" x1="14.7584" y1="104.648" x2="14.7584" y2="61.9452" gradientUnits="userSpaceOnUse">
<stop stop-color="#DEE1E2" stop-opacity="0"/>
<stop offset="1" stop-color="#B4BCBE"/>
</linearGradient>
<linearGradient id="paint2_linear" x1="16.4468" y1="62.1442" x2="64.0738" y2="12.4605" gradientUnits="userSpaceOnUse">
<stop stop-color="#FF9E0B"/>
<stop offset="1" stop-color="#FFC773"/>
</linearGradient>
<linearGradient id="paint3_linear" x1="31.4053" y1="104.648" x2="31.4053" y2="61.9453" gradientUnits="userSpaceOnUse">
<stop stop-color="#DEE1E2" stop-opacity="0"/>
<stop offset="1" stop-color="#B4BCBE"/>
</linearGradient>
</defs>
<path d="M49.8621 8.56204V47.6695H0.134033V8.56204C0.134033 3.83219 3.96623 0 8.69607 0H41.3C46.0299 0 49.8621 3.83651 49.8621 8.56204Z" fill="#1CAF82"/>
<path d="M49.8621 47.6736V72.4578C49.8621 72.8289 49.8405 73.1914 49.793 73.5496C49.7758 73.692 49.7542 73.8344 49.7283 73.9768C49.7154 74.0459 49.7024 74.115 49.6895 74.1884C49.6593 74.3264 49.6291 74.4645 49.5946 74.6026C48.6581 78.2277 45.4041 80.9249 41.4986 81.0242C41.4252 81.0242 41.3518 81.0285 41.2785 81.0285H8.69607C3.96623 81.0285 0.134033 77.1962 0.134033 72.4664V47.6822H49.8621V47.6736Z" fill="#EFEFEF"/>
<path d="M8.69584 81.0159H8.58364C3.84085 81.0159 0 77.1838 0 72.4539V47.6697H0.133807V72.4539C0.133807 77.1838 3.97032 81.0159 8.69584 81.0159Z" fill="#EFEFEF"/>
<path opacity="0.48" d="M26.7262 61.091H6.96531C5.60591 61.091 4.49683 59.9776 4.49683 58.6225C4.49683 57.2631 5.61023 56.1541 6.96531 56.1541H26.7262C28.0856 56.1541 29.1947 57.2675 29.1947 58.6225C29.199 59.9819 28.0856 61.091 26.7262 61.091Z" fill="#D8D8DB"/>
<path opacity="0.48" d="M18.4965 72.3328H6.9697C5.6103 72.3328 4.50122 71.2194 4.50122 69.8643C4.50122 68.5049 5.61462 67.3958 6.9697 67.3958H18.4965C19.8559 67.3958 20.965 68.5092 20.965 69.8643C20.965 71.2237 19.8516 72.3328 18.4965 72.3328Z" fill="#D8D8DB"/>
<path opacity="0.69" d="M37.7436 72.3328H26.2168C24.8574 72.3328 23.7483 71.2194 23.7483 69.8643C23.7483 68.5049 24.8617 67.3958 26.2168 67.3958H37.7436C39.103 67.3958 40.2121 68.5092 40.2121 69.8643C40.2121 71.2237 39.0987 72.3328 37.7436 72.3328Z" fill="#D8D8DB"/>
<path opacity="0.69" d="M42.6806 61.091H34.4465C33.0871 61.091 31.978 59.9776 31.978 58.6225C31.978 57.2631 33.0914 56.1541 34.4465 56.1541H42.6806C44.04 56.1541 45.1491 57.2675 45.1491 58.6225C45.1534 59.9819 44.04 61.091 42.6806 61.091Z" fill="#D8D8DB"/>
<path opacity="0.09" d="M39.0818 17.7409C43.0025 17.7409 46.1808 14.5626 46.1808 10.6418C46.1808 6.72112 43.0025 3.54272 39.0818 3.54272C35.1611 3.54272 31.9827 6.72112 31.9827 10.6418C31.9827 14.5626 35.1611 17.7409 39.0818 17.7409Z" fill="white"/>
<path opacity="0.09" d="M8.96378 2.38647C4.93737 2.38647 1.6748 5.64898 1.6748 9.67539C1.6748 13.7018 4.93737 16.9644 8.96378 16.9644C12.9902 16.9644 16.2527 13.7018 16.2527 9.67539C16.2527 5.6533 12.9859 2.38647 8.96378 2.38647ZM8.96378 13.7105C6.73695 13.7105 4.92875 11.9065 4.92875 9.67539C4.92875 7.44857 6.73264 5.64036 8.96378 5.64036C11.1906 5.64036 12.9988 7.44425 12.9988 9.67539C12.9945 11.9065 11.1906 13.7105 8.96378 13.7105Z" fill="white"/>
<path opacity="0.14" d="M49.8619 36.7681V41.0923C49.3095 40.8895 48.714 40.7816 48.0926 40.7816C45.2313 40.7816 42.9096 43.1033 42.9096 45.9646C42.9096 46.5644 43.0088 47.134 43.1987 47.6692H38.8831C38.7796 47.1168 38.7278 46.5472 38.7278 45.9646C38.7278 40.7902 42.9225 36.5955 48.0968 36.5955C48.6967 36.5998 49.2923 36.6559 49.8619 36.7681Z" fill="#EFEFEF"/>
<path opacity="0.14" d="M37.7438 33.2293C39.8173 33.2293 41.4983 31.5483 41.4983 29.4747C41.4983 27.4012 39.8173 25.7202 37.7438 25.7202C35.6702 25.7202 33.9893 27.4012 33.9893 29.4747C33.9893 31.5483 35.6702 33.2293 37.7438 33.2293Z" fill="white"/>
<path opacity="0.09" d="M5.32101 46.0162C6.78681 46.0162 7.97509 44.8279 7.97509 43.3621C7.97509 41.8963 6.78681 40.708 5.32101 40.708C3.85521 40.708 2.66699 41.8963 2.66699 43.3621C2.66699 44.8279 3.85521 46.0162 5.32101 46.0162Z" fill="white"/>
<path opacity="0.09" d="M11.0827 40.4321C15.1083 40.4321 18.3716 37.1687 18.3716 33.1432C18.3716 29.1176 15.1083 25.8542 11.0827 25.8542C7.05709 25.8542 3.7937 29.1176 3.7937 33.1432C3.7937 37.1687 7.05709 40.4321 11.0827 40.4321Z" fill="white"/>
<path opacity="0.22" d="M49.6632 9.10124V17.9654H27.6927C22.9629 17.9654 19.1306 21.7976 19.1306 26.5274V48.144H10.3831V17.0332C10.3831 12.3034 14.2153 8.47119 18.9451 8.47119H49.6373C49.6545 8.67834 49.6632 8.88547 49.6632 9.10124Z" fill="url(#paint0_linear)"/>
<path opacity="0.41" d="M19.1306 48.1443V79.3112C19.1306 80.5153 18.1554 81.4862 16.9556 81.4862H12.8256C12.0747 81.4862 11.3756 81.0978 10.9743 80.4591C10.5902 79.8463 10.3831 79.3414 10.3831 78.2367V48.1443H19.1306Z" fill="url(#paint1_linear)"/>
<path d="M66.1749 23.0366V62.1442H16.4468V23.0366C16.4468 18.3068 20.279 14.4746 25.0088 14.4746H57.6128C62.3427 14.4746 66.1749 18.3068 66.1749 23.0366Z" fill="url(#paint2_linear)"/>
<path d="M66.1749 62.144V86.9282C66.1749 87.2994 66.1533 87.6619 66.1058 88.0201C66.0886 88.1625 66.067 88.3049 66.0411 88.4473C66.0282 88.5163 66.0152 88.5854 66.0023 88.6588C65.9721 88.7969 65.9418 88.935 65.9073 89.0731C64.9708 92.6981 61.7169 95.3954 57.8113 95.4946C57.738 95.4946 57.6646 95.4989 57.5912 95.4989H25.0088C20.279 95.4989 16.4468 91.6667 16.4468 86.9369V62.1527H66.1749V62.144Z" fill="#EFEFEF"/>
<path d="M25.0085 95.4903H24.8964C20.1536 95.4903 16.3127 91.6581 16.3127 86.9282V62.144H16.4465V86.9282C16.4465 91.6537 20.2787 95.4903 25.0085 95.4903Z" fill="#EFEFEF"/>
<path opacity="0.48" d="M43.0392 75.5649H23.2783C21.919 75.5649 20.8098 74.4515 20.8098 73.0964C20.8098 71.737 21.9233 70.6279 23.2783 70.6279H43.0392C44.3986 70.6279 45.5077 71.7413 45.5077 73.0964C45.512 74.4515 44.3986 75.5649 43.0392 75.5649Z" fill="#D8D8DB"/>
<path opacity="0.48" d="M34.8091 86.803H23.2822C21.9228 86.803 20.8137 85.6895 20.8137 84.3344C20.8137 82.9751 21.9271 81.866 23.2822 81.866H34.8091C36.1685 81.866 37.2776 82.9794 37.2776 84.3344C37.2776 85.6938 36.1642 86.803 34.8091 86.803Z" fill="#D8D8DB"/>
<path opacity="0.69" d="M54.0564 86.803H42.5296C41.1702 86.803 40.061 85.6895 40.061 84.3344C40.061 82.9751 41.1745 81.866 42.5296 81.866H54.0564C55.4158 81.866 56.5249 82.9794 56.5249 84.3344C56.5249 85.6938 55.4115 86.803 54.0564 86.803Z" fill="#D8D8DB"/>
<path opacity="0.69" d="M58.9939 75.5649H50.7641C49.4047 75.5649 48.2957 74.4515 48.2957 73.0964C48.2957 71.737 49.4091 70.6279 50.7641 70.6279H58.9982C60.3576 70.6279 61.4667 71.7413 61.4667 73.0964C61.4667 74.4515 60.3533 75.5649 58.9939 75.5649Z" fill="#D8D8DB"/>
<path opacity="0.14" d="M55.3947 32.2111C59.3154 32.2111 62.4938 29.0327 62.4938 25.112C62.4938 21.1913 59.3154 18.0129 55.3947 18.0129C51.474 18.0129 48.2957 21.1913 48.2957 25.112C48.2957 29.0327 51.474 32.2111 55.3947 32.2111Z" fill="white"/>
<path opacity="0.14" d="M25.2762 16.8606C21.2498 16.8606 17.9873 20.1232 17.9873 24.1496C17.9873 28.176 21.2498 31.4385 25.2762 31.4385C29.3026 31.4385 32.5652 28.176 32.5652 24.1496C32.5652 20.1232 29.2983 16.8606 25.2762 16.8606ZM25.2762 28.1803C23.0494 28.1803 21.2412 26.3764 21.2412 24.1452C21.2412 21.9184 23.0451 20.1102 25.2762 20.1102C27.5074 20.1102 29.3113 21.9141 29.3113 24.1452C29.307 26.3764 27.503 28.1803 25.2762 28.1803Z" fill="white"/>
<path opacity="0.14" d="M66.1746 51.2383V55.5625C65.6222 55.3597 65.0267 55.2518 64.4053 55.2518C61.544 55.2518 59.2223 57.5736 59.2223 60.4348C59.2223 61.0346 59.3215 61.6043 59.5114 62.1394H55.1959C55.0923 61.587 55.0405 61.0174 55.0405 60.4348C55.0405 55.2604 59.2352 51.0657 64.4096 51.0657C65.0094 51.07 65.605 51.1261 66.1746 51.2383Z" fill="#EFEFEF"/>
<path opacity="0.14" d="M54.0565 47.6995C56.1301 47.6995 57.811 46.0185 57.811 43.9449C57.811 41.8714 56.1301 40.1904 54.0565 40.1904C51.9829 40.1904 50.302 41.8714 50.302 43.9449C50.302 46.0185 51.9829 47.6995 54.0565 47.6995Z" fill="white"/>
<path opacity="0.14" d="M21.6336 60.4871C23.0994 60.4871 24.2876 59.2988 24.2876 57.833C24.2876 56.3672 23.0994 55.179 21.6336 55.179C20.1678 55.179 18.9795 56.3672 18.9795 57.833C18.9795 59.2988 20.1678 60.4871 21.6336 60.4871Z" fill="white"/>
<path opacity="0.14" d="M27.3952 54.9026C31.4208 54.9026 34.6841 51.6393 34.6841 47.6137C34.6841 43.5881 31.4208 40.3247 27.3952 40.3247C23.3696 40.3247 20.1062 43.5881 20.1062 47.6137C20.1062 51.6393 23.3696 54.9026 27.3952 54.9026Z" fill="white"/>
<path d="M74.4563 14.4745L75.3021 14.4658C75.3064 14.4658 75.3108 14.4701 75.3108 14.4745C75.3108 14.4788 75.3064 14.483 75.3021 14.483L74.4563 14.4745Z" fill="#34C3A7"/>
<path d="M76.8209 14.4483L77.6667 14.4397C77.684 14.4397 77.7013 14.4527 77.7013 14.4699C77.7013 14.4872 77.6883 14.5044 77.6711 14.5044L76.8252 14.4958C76.8123 14.4958 76.7993 14.4829 76.7993 14.4699C76.7993 14.457 76.808 14.4483 76.8209 14.4483Z" fill="#34C3A7"/>
<path d="M79.19 14.4224L80.0359 14.4138C80.0661 14.4138 80.092 14.4397 80.092 14.4699C80.092 14.5001 80.0661 14.526 80.0359 14.526L79.19 14.5174C79.1641 14.5174 79.1426 14.4958 79.1426 14.4699C79.1426 14.444 79.1641 14.4224 79.19 14.4224Z" fill="#34C3A7"/>
<path d="M81.5594 14.4012L82.4053 14.3926C82.4484 14.3926 82.4873 14.4271 82.4873 14.4703C82.4873 14.5134 82.4527 14.5523 82.4096 14.5523L81.5637 14.5436C81.5249 14.5436 81.4904 14.5091 81.4904 14.4703C81.486 14.4314 81.5206 14.4012 81.5594 14.4012Z" fill="#34C3A7"/>
<path d="M83.9243 14.3748L84.7702 14.3662C84.8263 14.3662 84.8737 14.4137 84.8737 14.4698C84.8737 14.5259 84.8263 14.5733 84.7702 14.5733L83.9243 14.5647C83.8725 14.5647 83.8293 14.5216 83.8293 14.4698C83.8293 14.418 83.8725 14.3748 83.9243 14.3748Z" fill="#34C3A7"/>
<path d="M86.2936 14.3536L87.1395 14.345C87.2085 14.345 87.2689 14.4011 87.2689 14.4745C87.2689 14.5435 87.2128 14.6039 87.1395 14.6039C87.1395 14.6039 87.1395 14.6039 87.1351 14.6039L86.2893 14.5953C86.2245 14.5953 86.1685 14.5392 86.1685 14.4745C86.1771 14.4054 86.2288 14.3536 86.2936 14.3536Z" fill="#34C3A7"/>
<path d="M88.6627 14.3277L89.5085 14.3191C89.5949 14.3191 89.6639 14.3839 89.6639 14.4702C89.6639 14.5565 89.5992 14.6255 89.5129 14.6255H89.5085L88.6627 14.6169C88.585 14.6169 88.5203 14.5522 88.5203 14.4702C88.5203 14.3925 88.5807 14.3277 88.6627 14.3277Z" fill="#34C3A7"/>
<path d="M91.0408 14.3538L91.891 14.4487C91.9859 14.4574 92.055 14.5436 92.042 14.6386C92.0291 14.7335 91.9471 14.8026 91.8521 14.7897H91.8392L91.0106 14.6861H91.002C90.9114 14.6732 90.8466 14.5911 90.8553 14.5005C90.8682 14.4099 90.9502 14.3452 91.0408 14.3538Z" fill="#34C3A7"/>
<path d="M93.4059 14.755L94.2258 15.001C94.3251 15.0313 94.3812 15.1348 94.351 15.234C94.3208 15.3333 94.2172 15.3894 94.1179 15.3592L94.105 15.3549L93.3109 15.1089L93.298 15.1046C93.2031 15.0744 93.1469 14.9708 93.1771 14.8759C93.2117 14.7809 93.3109 14.7248 93.4059 14.755Z" fill="#34C3A7"/>
<path d="M95.6584 15.5749L96.4223 15.9634C96.5215 16.0151 96.5603 16.136 96.5085 16.2309C96.4568 16.3259 96.3359 16.369 96.241 16.3172L96.228 16.3129L95.4901 15.9289L95.4771 15.9245C95.3822 15.8727 95.3434 15.7562 95.3951 15.6613C95.4469 15.562 95.5634 15.5232 95.6584 15.5749Z" fill="#34C3A7"/>
<path d="M97.7346 16.7833L98.4208 17.3011C98.5157 17.3745 98.533 17.5083 98.4639 17.5989C98.3949 17.6895 98.2567 17.7111 98.1661 17.6421L98.1532 17.6334L97.4972 17.1242L97.4886 17.1156C97.398 17.0465 97.3807 16.9127 97.4498 16.8221C97.5145 16.7315 97.6439 16.7142 97.7346 16.7833Z" fill="#34C3A7"/>
<path d="M99.564 18.3409L100.147 18.9752C100.233 19.0659 100.224 19.2126 100.134 19.2946C100.043 19.3809 99.8963 19.3722 99.8143 19.2816L99.8057 19.2687L99.2489 18.6516L99.2403 18.6429C99.1583 18.5523 99.1669 18.4099 99.2576 18.3279C99.3396 18.2459 99.482 18.2545 99.564 18.3409Z" fill="#34C3A7"/>
<path d="M101.087 20.2012L101.549 20.9262C101.623 21.0384 101.588 21.1852 101.476 21.2585C101.364 21.3319 101.217 21.2973 101.143 21.1851L101.135 21.1722L100.699 20.4687L100.69 20.4558C100.621 20.3436 100.656 20.2012 100.768 20.1322C100.876 20.0588 101.018 20.0933 101.087 20.2012Z" fill="#34C3A7"/>
<path d="M102.261 22.3073L102.585 23.1057C102.637 23.2352 102.576 23.3862 102.447 23.438C102.317 23.4898 102.166 23.4294 102.115 23.2999L102.106 23.2826L101.804 22.5102L101.8 22.4972C101.748 22.3678 101.813 22.2254 101.942 22.1736C102.063 22.1175 102.21 22.1779 102.261 22.3073Z" fill="#34C3A7"/>
<path d="M103.038 24.5854L103.215 25.4312C103.245 25.578 103.155 25.7161 103.008 25.7463C102.861 25.7765 102.723 25.6859 102.693 25.5391L102.688 25.5219L102.529 24.7106L102.524 24.6933C102.494 24.5509 102.589 24.4128 102.732 24.3826C102.87 24.3567 103.008 24.4473 103.038 24.5854Z" fill="#34C3A7"/>
<path d="M103.396 26.9723C103.405 27.2572 103.418 27.5506 103.422 27.8311C103.422 27.9865 103.301 28.116 103.146 28.116C102.991 28.116 102.861 27.9951 102.861 27.8398V27.8355C102.861 27.5549 102.853 27.283 102.848 27.0068V26.9896C102.844 26.8386 102.969 26.7134 103.12 26.7091C103.267 26.7048 103.392 26.8213 103.396 26.9723Z" fill="#34C3A7"/>
<path d="M103.426 29.3539V30.1998C103.426 30.3594 103.297 30.4889 103.137 30.4889C102.978 30.4889 102.848 30.3594 102.848 30.1998V29.3539C102.848 29.1943 102.978 29.0691 103.137 29.0691C103.301 29.0691 103.426 29.1986 103.426 29.3539Z" fill="#34C3A7"/>
<path d="M103.431 31.7235V32.5693C103.431 32.729 103.301 32.8628 103.137 32.8628C102.978 32.8628 102.844 32.7333 102.844 32.5693V31.7235C102.844 31.5638 102.973 31.4343 103.137 31.4343C103.301 31.4343 103.431 31.5638 103.431 31.7235Z" fill="#34C3A7"/>
<path d="M103.435 34.0927V34.9385C103.435 35.1025 103.301 35.2363 103.137 35.2363C102.973 35.2363 102.84 35.1025 102.84 34.9385V34.0927C102.84 33.9287 102.973 33.7949 103.137 33.7992C103.306 33.7949 103.435 33.9287 103.435 34.0927Z" fill="#34C3A7"/>
<path d="M103.44 36.4578V37.3036C103.44 37.4719 103.306 37.6057 103.138 37.6057C102.969 37.6057 102.835 37.4719 102.835 37.3036V36.4578C102.835 36.2938 102.969 36.1557 103.138 36.16C103.306 36.16 103.44 36.2938 103.44 36.4578Z" fill="#34C3A7"/>
<path d="M103.444 38.8271V39.6729C103.444 39.8412 103.306 39.9793 103.137 39.9793C102.969 39.9793 102.831 39.8412 102.831 39.6729V38.8271C102.831 38.6588 102.969 38.5207 103.137 38.525C103.31 38.525 103.444 38.6588 103.444 38.8271Z" fill="#34C3A7"/>
<path d="M103.448 41.1962V42.042C103.448 42.2147 103.31 42.3528 103.138 42.3528C102.965 42.3528 102.827 42.2147 102.827 42.042V41.1962C102.827 41.0236 102.965 40.8855 103.138 40.8855C103.31 40.8855 103.448 41.0236 103.448 41.1962Z" fill="#34C3A7"/>
<path d="M103.452 43.5609V44.4068C103.452 44.5794 103.31 44.7218 103.137 44.7218C102.965 44.7218 102.822 44.5794 102.822 44.4068V43.5609C102.822 43.3883 102.965 43.2458 103.137 43.2458C103.314 43.2502 103.452 43.3883 103.452 43.5609Z" fill="#34C3A7"/>
<path d="M103.456 45.9304V46.7763C103.456 46.9533 103.314 47.0957 103.137 47.0957C102.96 47.0957 102.818 46.9533 102.818 46.7763V45.9304C102.818 45.7535 102.96 45.6111 103.137 45.6111C103.314 45.6111 103.456 45.7535 103.456 45.9304Z" fill="#34C3A7"/>
<path d="M103.461 48.2995V49.1454C103.461 49.3266 103.319 49.469 103.137 49.469C102.956 49.469 102.814 49.3266 102.814 49.1454V48.2995C102.814 48.1226 102.96 47.9758 103.137 47.9758C103.319 47.9758 103.465 48.1182 103.461 48.2995Z" fill="#34C3A7"/>
<path d="M103.465 50.6647V51.5105C103.465 51.6917 103.318 51.8385 103.137 51.8385C102.956 51.8385 102.809 51.6917 102.809 51.5105V50.6647C102.809 50.4834 102.956 50.3367 103.137 50.3367C103.323 50.341 103.469 50.4834 103.465 50.6647Z" fill="#34C3A7"/>
<path d="M103.474 53.0342V53.88C103.474 54.0656 103.327 54.2123 103.141 54.2123C102.956 54.2123 102.809 54.0656 102.809 53.88V53.0342C102.809 52.853 102.96 52.7019 103.141 52.7019C103.323 52.7019 103.474 52.853 103.474 53.0342Z" fill="#34C3A7"/>
<path d="M103.478 55.4033V56.2491C103.478 56.4347 103.327 56.5857 103.142 56.5857C102.956 56.5857 102.805 56.4347 102.805 56.2491V55.4033C102.805 55.2177 102.956 55.0667 103.142 55.0667C103.327 55.0667 103.478 55.2177 103.478 55.4033Z" fill="#34C3A7"/>
<path d="M103.478 57.768V58.6139C103.478 58.7994 103.327 58.9462 103.141 58.9462C102.956 58.9462 102.809 58.7951 102.809 58.6139V57.768C102.809 57.5825 102.96 57.4314 103.146 57.4314C103.327 57.4314 103.474 57.5825 103.478 57.768Z" fill="#34C3A7"/>
<path d="M103.469 60.137V60.9828C103.469 61.1641 103.323 61.3108 103.137 61.3108C102.956 61.3108 102.809 61.1641 102.809 60.9828V60.137C102.809 59.9557 102.956 59.8047 103.141 59.8047C103.327 59.8047 103.469 59.9514 103.469 60.137Z" fill="#34C3A7"/>
<path d="M103.465 62.5062V63.352C103.465 63.5333 103.319 63.6757 103.137 63.6757C102.956 63.6757 102.814 63.529 102.814 63.352V62.5062C102.814 62.325 102.96 62.1782 103.142 62.1782C103.319 62.1782 103.465 62.3206 103.465 62.5062Z" fill="#34C3A7"/>
<path d="M103.461 64.871V65.7169C103.461 65.8939 103.319 66.0363 103.142 66.0363C102.965 66.0363 102.822 65.8939 102.822 65.7169V64.871C102.822 64.6941 102.965 64.5474 103.146 64.5474C103.319 64.5474 103.461 64.6941 103.461 64.871Z" fill="#34C3A7"/>
<path d="M103.457 67.2402V68.0861C103.457 68.2588 103.315 68.4012 103.142 68.4012C102.969 68.4012 102.827 68.2588 102.827 68.0861V67.2402C102.827 67.0633 102.969 66.9209 103.146 66.9209C103.315 66.9209 103.457 67.0633 103.457 67.2402Z" fill="#34C3A7"/>
<path d="M103.452 69.6097V70.4556C103.452 70.6282 103.314 70.7663 103.142 70.7663C102.969 70.7663 102.831 70.6282 102.831 70.4556V69.6097C102.831 69.4371 102.969 69.2947 103.146 69.2947C103.314 69.2947 103.452 69.4328 103.452 69.6097Z" fill="#34C3A7"/>
<path d="M103.448 71.9748V72.8207C103.448 72.989 103.31 73.127 103.142 73.127C102.974 73.127 102.835 72.989 102.835 72.8207V71.9748C102.835 71.8022 102.974 71.6641 103.142 71.6641C103.31 71.6641 103.448 71.8022 103.448 71.9748Z" fill="#34C3A7"/>
<path d="M103.444 74.344V75.1899C103.444 75.3582 103.306 75.4919 103.142 75.4919C102.978 75.4919 102.84 75.3582 102.84 75.1899V74.344C102.84 74.1757 102.973 74.0376 103.142 74.0376C103.31 74.0376 103.444 74.1757 103.444 74.344Z" fill="#34C3A7"/>
<path d="M103.44 76.7135V77.5593C103.44 77.7233 103.306 77.8571 103.142 77.8571C102.978 77.8571 102.844 77.7233 102.844 77.5593V76.7135C102.844 76.5495 102.978 76.4114 103.142 76.4114C103.306 76.4114 103.44 76.5452 103.44 76.7135Z" fill="#34C3A7"/>
<path d="M103.435 79.0781V79.9239C103.435 80.0879 103.301 80.2174 103.142 80.2174C102.978 80.2174 102.848 80.0879 102.848 79.9239V79.0781C102.848 78.9141 102.982 78.7803 103.142 78.7803C103.301 78.7803 103.435 78.9141 103.435 79.0781Z" fill="#34C3A7"/>
<path d="M103.431 81.4473V82.2931C103.431 82.4528 103.302 82.5823 103.142 82.5823C102.982 82.5823 102.853 82.4528 102.853 82.2931V81.4473C102.853 81.2876 102.982 81.1581 103.142 81.1538C103.302 81.1538 103.431 81.2833 103.431 81.4473Z" fill="#34C3A7"/>
<path d="M103.426 83.8167L103.422 84.6626C103.422 84.8179 103.293 84.9474 103.137 84.9474C102.982 84.9474 102.857 84.8223 102.852 84.6626L102.848 83.8167C102.848 83.6571 102.978 83.5319 103.133 83.5276C103.297 83.5276 103.426 83.6528 103.426 83.8167Z" fill="#34C3A7"/>
<path d="M103.414 86.1815L103.409 87.0274C103.409 87.1784 103.289 87.2949 103.138 87.2949C102.991 87.2949 102.87 87.1741 102.87 87.0274L102.866 86.1815C102.866 86.0304 102.987 85.9053 103.138 85.9053C103.293 85.9053 103.414 86.0261 103.414 86.1815Z" fill="#34C3A7"/>
<path d="M103.401 88.5506L103.397 89.3965C103.397 89.5389 103.28 89.6511 103.138 89.6511C102.995 89.6511 102.883 89.5346 102.883 89.3965L102.879 88.5506C102.879 88.4082 102.995 88.2874 103.138 88.2874C103.284 88.2874 103.401 88.4039 103.401 88.5506C103.401 88.5463 103.401 88.5506 103.401 88.5506Z" fill="#34C3A7"/>
<path d="M103.388 90.9156L103.384 91.7614C103.384 91.8952 103.271 92.0031 103.138 92.0031C103.004 92.0031 102.896 91.8952 102.896 91.7614L102.892 90.9156C102.892 90.7775 102.999 90.6653 103.138 90.6653C103.276 90.6696 103.388 90.7775 103.388 90.9156Z" fill="#34C3A7"/>
<path d="M103.375 93.2851L103.37 94.1309C103.37 94.2561 103.267 94.3597 103.142 94.3597C103.016 94.3597 102.913 94.2561 102.913 94.1309L102.908 93.2851C102.908 93.1556 103.012 93.052 103.142 93.0477C103.271 93.0434 103.375 93.1556 103.375 93.2851Z" fill="#34C3A7"/>
<path d="M103.362 95.6546L103.358 96.5004C103.358 96.6212 103.258 96.7162 103.142 96.7162C103.025 96.7162 102.926 96.6212 102.926 96.5004L102.922 95.6546C102.922 95.5337 103.021 95.4345 103.142 95.4345C103.263 95.4301 103.362 95.5294 103.362 95.6546C103.362 95.6502 103.362 95.6546 103.362 95.6546Z" fill="#34C3A7"/>
<path d="M103.349 98.0191L103.344 98.865C103.344 98.9772 103.254 99.0678 103.141 99.0678C103.029 99.0678 102.943 98.9772 102.939 98.865L102.934 98.0191C102.934 97.9026 103.025 97.812 103.141 97.812C103.254 97.812 103.349 97.9026 103.349 98.0191Z" fill="#34C3A7"/>
<path d="M103.336 100.388L103.331 101.234C103.331 101.338 103.245 101.424 103.142 101.42C103.038 101.42 102.956 101.333 102.956 101.234L102.952 100.388C102.952 100.28 103.038 100.194 103.146 100.194C103.245 100.194 103.331 100.28 103.336 100.388Z" fill="#34C3A7"/>
<path d="M103.318 102.757L103.314 103.603C103.314 103.698 103.236 103.776 103.137 103.776C103.042 103.776 102.965 103.698 102.965 103.603L102.96 102.757C102.96 102.658 103.038 102.576 103.137 102.576C103.236 102.576 103.318 102.654 103.318 102.757C103.318 102.753 103.318 102.757 103.318 102.757Z" fill="#34C3A7"/>
<path d="M103.306 105.122L103.297 105.968C103.297 106.055 103.224 106.124 103.142 106.124C103.055 106.124 102.991 106.055 102.986 105.968L102.978 105.122C102.978 105.032 103.051 104.958 103.142 104.958C103.228 104.958 103.306 105.032 103.306 105.122Z" fill="#34C3A7"/>
<path d="M103.28 107.492L103.271 108.338C103.271 108.411 103.211 108.467 103.137 108.467C103.064 108.467 103.008 108.407 103.008 108.338L102.999 107.492C102.999 107.414 103.06 107.349 103.137 107.349C103.215 107.349 103.28 107.414 103.28 107.492Z" fill="#34C3A7"/>
<path d="M103.258 109.861L103.25 110.707C103.25 110.767 103.202 110.815 103.142 110.815C103.081 110.815 103.038 110.767 103.034 110.707L103.025 109.861C103.025 109.796 103.077 109.744 103.142 109.744C103.202 109.74 103.254 109.792 103.258 109.861C103.258 109.857 103.258 109.861 103.258 109.861Z" fill="#34C3A7"/>
<path d="M103.232 112.226L103.224 113.072C103.224 113.119 103.185 113.153 103.142 113.153C103.094 113.153 103.06 113.115 103.06 113.072L103.051 112.226C103.051 112.174 103.09 112.135 103.142 112.135C103.189 112.135 103.232 112.174 103.232 112.226Z" fill="#34C3A7"/>
<path d="M103.206 114.595L103.198 115.441C103.198 115.476 103.172 115.501 103.137 115.501C103.107 115.501 103.081 115.476 103.077 115.441L103.068 114.595C103.068 114.556 103.099 114.526 103.137 114.526C103.176 114.526 103.206 114.556 103.206 114.595Z" fill="#34C3A7"/>
<path d="M103.185 116.964L103.176 117.81C103.176 117.827 103.159 117.845 103.142 117.845C103.124 117.845 103.107 117.827 103.107 117.81L103.098 116.964C103.098 116.938 103.116 116.921 103.142 116.921C103.163 116.921 103.185 116.938 103.185 116.964Z" fill="#34C3A7"/>
<path d="M103.159 119.329L103.151 120.175C103.151 120.18 103.146 120.184 103.138 120.184C103.133 120.184 103.129 120.18 103.129 120.175L103.12 119.329C103.12 119.321 103.129 119.312 103.138 119.308C103.151 119.312 103.159 119.321 103.159 119.329Z" fill="#34C3A7"/>
<path d="M24.288 104.993L24.3053 105.839C24.3053 105.848 24.2967 105.856 24.288 105.856C24.2794 105.856 24.2708 105.848 24.2708 105.839L24.288 104.993Z" fill="#34C3A7"/>
<path d="M24.3358 107.362L24.3488 108.208C24.3488 108.243 24.3229 108.273 24.2884 108.273C24.2539 108.273 24.2236 108.247 24.2236 108.212L24.2366 107.367C24.2366 107.341 24.2582 107.319 24.2884 107.319C24.3143 107.31 24.3358 107.332 24.3358 107.362Z" fill="#34C3A7"/>
<path d="M24.3745 109.727L24.3875 110.573C24.3875 110.629 24.3443 110.672 24.2882 110.672C24.2321 110.672 24.189 110.629 24.189 110.573V110.569L24.2019 109.723C24.2019 109.675 24.2407 109.636 24.2882 109.636C24.3357 109.645 24.3745 109.68 24.3745 109.727Z" fill="#34C3A7"/>
<path d="M24.4089 112.097L24.4218 112.943C24.4218 113.016 24.3614 113.081 24.288 113.081C24.2147 113.081 24.1499 113.02 24.1499 112.947V112.943L24.1629 112.097C24.1629 112.028 24.219 111.976 24.288 111.976C24.3571 111.976 24.4089 112.032 24.4089 112.097Z" fill="#34C3A7"/>
<path d="M24.4479 114.466L24.4608 115.311C24.4608 115.406 24.3874 115.484 24.2925 115.484C24.1976 115.484 24.1199 115.411 24.1199 115.316V115.311L24.1328 114.466C24.1328 114.379 24.2062 114.306 24.2968 114.306C24.3745 114.306 24.4479 114.379 24.4479 114.466Z" fill="#34C3A7"/>
<path d="M24.4738 116.831L24.4824 117.677C24.4824 117.784 24.3961 117.871 24.2882 117.871C24.1803 117.871 24.094 117.784 24.094 117.677V117.672L24.1026 116.826C24.1026 116.723 24.189 116.641 24.2882 116.641C24.3918 116.65 24.4738 116.731 24.4738 116.831Z" fill="#34C3A7"/>
<path d="M24.4954 119.2L24.504 120.046C24.504 120.167 24.409 120.262 24.2882 120.266C24.1674 120.266 24.0724 120.171 24.0681 120.05V120.046L24.0768 119.2C24.0768 119.084 24.1717 118.993 24.2882 118.993C24.4047 118.993 24.4954 119.088 24.4954 119.2Z" fill="#34C3A7"/>
<path d="M24.5382 121.556L24.6159 122.385V122.398C24.6289 122.527 24.5339 122.644 24.4001 122.657C24.2664 122.67 24.1542 122.575 24.1412 122.441V122.437L24.0765 121.578C24.0678 121.453 24.1628 121.34 24.2879 121.332C24.4131 121.323 24.5209 121.414 24.5339 121.539L24.5382 121.556Z" fill="#34C3A7"/>
<path d="M24.8921 123.852L25.1165 124.65L25.1208 124.668C25.1597 124.806 25.0777 124.952 24.9396 124.991C24.8015 125.03 24.6548 124.948 24.6159 124.81V124.806L24.3958 123.973C24.3613 123.839 24.4433 123.701 24.5771 123.662C24.7108 123.627 24.849 123.705 24.8835 123.839L24.8921 123.852Z" fill="#34C3A7"/>
<path d="M25.6517 126.04L26.0142 126.782L26.0228 126.8C26.0919 126.942 26.0315 127.11 25.8934 127.179C25.7509 127.248 25.5826 127.188 25.5136 127.05C25.5136 127.05 25.5136 127.046 25.5093 127.046L25.1425 126.264C25.0777 126.126 25.1381 125.962 25.2762 125.898C25.4143 125.833 25.574 125.893 25.6388 126.027L25.6517 126.04Z" fill="#34C3A7"/>
<path d="M26.7785 128.064L27.2661 128.733L27.279 128.746C27.374 128.875 27.3438 129.061 27.2143 129.156C27.0849 129.251 26.8993 129.22 26.8043 129.091L26.2994 128.388C26.2045 128.258 26.2347 128.077 26.3641 127.982C26.4936 127.891 26.6749 127.917 26.7655 128.047L26.7785 128.064Z" fill="#34C3A7"/>
<path d="M28.2412 129.855L28.8367 130.429L28.8497 130.442C28.9705 130.558 28.9748 130.744 28.8583 130.865C28.7418 130.986 28.5562 130.99 28.4354 130.873L27.8139 130.269C27.6974 130.157 27.6931 129.967 27.8097 129.851C27.9219 129.734 28.1117 129.73 28.2282 129.842L28.2412 129.855Z" fill="#34C3A7"/>
<path d="M29.9978 131.357L30.684 131.814L30.7013 131.827C30.8437 131.922 30.8825 132.112 30.7876 132.254C30.6926 132.397 30.5027 132.436 30.3603 132.341L29.644 131.857C29.5059 131.762 29.467 131.573 29.562 131.434C29.6569 131.296 29.8424 131.258 29.9805 131.352L29.9978 131.357Z" fill="#34C3A7"/>
<path d="M31.9867 132.526L32.7419 132.854L32.7592 132.863C32.9189 132.932 32.9923 133.117 32.9232 133.277C32.8542 133.437 32.6686 133.51 32.5089 133.441L31.7192 133.092C31.5638 133.023 31.4904 132.837 31.5595 132.682C31.6285 132.526 31.8098 132.453 31.9694 132.522L31.9867 132.526Z" fill="#34C3A7"/>
<path d="M34.1581 133.316L34.9608 133.502L34.9824 133.506C35.155 133.545 35.2629 133.717 35.224 133.89C35.1852 134.063 35.0126 134.171 34.84 134.132L33.9984 133.929C33.8258 133.89 33.7222 133.717 33.7611 133.545C33.7999 133.372 33.9725 133.269 34.1452 133.307L34.1581 133.316Z" fill="#34C3A7"/>
<path d="M36.4281 133.709L37.248 133.747H37.2696C37.4508 133.756 37.5889 133.911 37.5803 134.093C37.5717 134.274 37.4163 134.412 37.2351 134.403L36.372 134.356C36.1907 134.347 36.0526 134.192 36.0655 134.011C36.0742 133.829 36.2295 133.696 36.4065 133.704L36.4281 133.709Z" fill="#34C3A7"/>
<path d="M38.7668 133.747L39.6127 133.743C39.7983 133.743 39.9493 133.894 39.9493 134.08C39.9493 134.265 39.7983 134.416 39.6127 134.416L38.7668 134.412C38.5813 134.412 38.4346 134.261 38.4346 134.075C38.4346 133.898 38.5813 133.747 38.7668 133.747Z" fill="#34C3A7"/>
<path d="M41.1356 133.748L41.9815 133.752C42.1671 133.752 42.3138 133.903 42.3138 134.084C42.3138 134.265 42.1671 134.416 41.9815 134.416L41.1356 134.421C40.9501 134.421 40.7991 134.27 40.7991 134.089C40.7991 133.907 40.9458 133.748 41.1356 133.748Z" fill="#34C3A7"/>
<path d="M43.5008 133.756L44.3467 133.76C44.5279 133.76 44.6703 133.907 44.6703 134.088C44.6703 134.265 44.5236 134.412 44.3467 134.412L43.5008 134.416C43.3196 134.416 43.1729 134.27 43.1729 134.088C43.1729 133.907 43.3196 133.756 43.5008 133.756Z" fill="#34C3A7"/>
<path d="M45.8702 133.76L46.7161 133.765C46.893 133.765 47.0311 133.907 47.0311 134.084C47.0311 134.257 46.8887 134.399 46.7161 134.399L45.8702 134.404C45.6933 134.404 45.5509 134.261 45.5509 134.084C45.5466 133.907 45.6933 133.765 45.8702 133.76Z" fill="#34C3A7"/>
<path d="M48.2396 133.769L49.0854 133.773C49.258 133.773 49.3961 133.911 49.3961 134.084C49.3961 134.257 49.258 134.39 49.0854 134.395L48.2396 134.399C48.067 134.399 47.9246 134.261 47.9246 134.088C47.9246 133.916 48.0626 133.769 48.2396 133.769Z" fill="#34C3A7"/>
<path d="M50.6042 133.778L51.4501 133.782C51.6184 133.782 51.7522 133.92 51.7522 134.084C51.7522 134.253 51.6184 134.386 51.4501 134.386L50.6042 134.391C50.4359 134.391 50.2979 134.257 50.2979 134.084C50.2979 133.916 50.4359 133.778 50.6042 133.778Z" fill="#34C3A7"/>
<path d="M52.9735 133.786L53.8194 133.791C53.9834 133.791 54.1128 133.924 54.1128 134.088C54.1128 134.252 53.979 134.382 53.8194 134.382L52.9735 134.386C52.8095 134.386 52.6758 134.252 52.6758 134.088C52.6758 133.924 52.8052 133.786 52.9735 133.786Z" fill="#34C3A7"/>
<path d="M55.343 133.791L56.1888 133.795C56.3485 133.795 56.478 133.925 56.4737 134.084C56.4737 134.244 56.3442 134.369 56.1888 134.369L55.343 134.373C55.1833 134.373 55.0539 134.244 55.0496 134.084C55.0496 133.925 55.179 133.791 55.343 133.791Z" fill="#34C3A7"/>
<path d="M57.7075 133.804L58.5534 133.812C58.7045 133.812 58.821 133.938 58.821 134.084C58.821 134.231 58.7001 134.352 58.5534 134.352L57.7075 134.36C57.5522 134.36 57.427 134.24 57.427 134.084C57.427 133.929 57.5478 133.804 57.7032 133.804C57.7032 133.804 57.7075 133.804 57.7075 133.804Z" fill="#34C3A7"/>
<path d="M60.077 133.825L60.9229 133.834C61.061 133.834 61.1689 133.946 61.1689 134.084C61.1689 134.218 61.0567 134.326 60.9229 134.33L60.077 134.339C59.9346 134.339 59.8224 134.227 59.8181 134.084C59.8181 133.942 59.9303 133.83 60.0727 133.825H60.077Z" fill="#34C3A7"/>
<path d="M62.4464 133.851L63.2923 133.86C63.4174 133.86 63.5167 133.963 63.5167 134.088C63.5167 134.209 63.4174 134.308 63.2923 134.313L62.4464 134.321C62.3169 134.321 62.2134 134.218 62.2134 134.093C62.2134 133.968 62.317 133.86 62.4421 133.86C62.4421 133.851 62.4421 133.851 62.4464 133.851Z" fill="#34C3A7"/>
<path d="M64.8113 133.873L65.6571 133.881C65.7693 133.881 65.86 133.972 65.8556 134.084C65.8556 134.196 65.765 134.283 65.6571 134.283L64.8113 134.291C64.6948 134.291 64.5999 134.201 64.5999 134.084C64.5999 133.968 64.6905 133.873 64.8113 133.873Z" fill="#34C3A7"/>
<path d="M67.1804 133.894L68.0262 133.903C68.1255 133.903 68.2032 133.985 68.2032 134.084C68.2032 134.183 68.1212 134.261 68.0262 134.261L67.1804 134.269C67.0768 134.269 66.9905 134.187 66.9905 134.084C66.9905 133.98 67.0725 133.894 67.1804 133.894C67.1761 133.894 67.1804 133.894 67.1804 133.894Z" fill="#34C3A7"/>
<path d="M69.5495 133.92L70.3953 133.933C70.4773 133.933 70.542 134.002 70.542 134.084C70.542 134.166 70.473 134.231 70.3953 134.231L69.5495 134.244C69.4589 134.244 69.3855 134.175 69.3855 134.084C69.3855 133.993 69.4545 133.92 69.5452 133.92C69.5452 133.92 69.5452 133.92 69.5495 133.92Z" fill="#34C3A7"/>
<path d="M71.9146 133.955L72.7605 133.967C72.8209 133.967 72.8727 134.019 72.8727 134.084C72.8727 134.144 72.8209 134.192 72.7605 134.196L71.9146 134.209C71.8456 134.209 71.7895 134.153 71.7852 134.084C71.7852 134.015 71.8413 133.959 71.9146 133.955Z" fill="#34C3A7"/>
<path d="M74.2837 133.994L75.1296 134.007C75.1727 134.007 75.2029 134.041 75.2029 134.084C75.2029 134.127 75.1684 134.158 75.1296 134.158L74.2837 134.171C74.2363 134.171 74.1931 134.132 74.1931 134.084C74.1931 134.037 74.2319 133.994 74.2837 133.994C74.2794 133.994 74.2837 133.994 74.2837 133.994Z" fill="#34C3A7"/>
<path d="M76.6531 134.032L77.4989 134.05C77.5162 134.05 77.5335 134.067 77.5335 134.084C77.5335 134.102 77.5162 134.119 77.4989 134.119L76.6531 134.136C76.6229 134.136 76.6013 134.114 76.6013 134.084C76.6013 134.054 76.6186 134.032 76.6531 134.032C76.6488 134.032 76.6488 134.032 76.6531 134.032Z" fill="#34C3A7"/>
<path d="M79.0181 134.08L79.1389 134.084H79.0181V134.08Z" fill="#34C3A7"/>
<path d="M74.4562 135.741C75.3715 135.741 76.1134 134.999 76.1134 134.084C76.1134 133.169 75.3715 132.427 74.4562 132.427C73.541 132.427 72.7991 133.169 72.7991 134.084C72.7991 134.999 73.541 135.741 74.4562 135.741Z" fill="#34C3A7"/>
<path d="M75.5957 16.1313C76.5109 16.1313 77.2528 15.3893 77.2528 14.4741C77.2528 13.5589 76.5109 12.8169 75.5957 12.8169C74.6805 12.8169 73.9385 13.5589 73.9385 14.4741C73.9385 15.3893 74.6805 16.1313 75.5957 16.1313Z" fill="#34C3A7"/>
<path d="M103.142 120.054C104.057 120.054 104.799 119.312 104.799 118.397C104.799 117.482 104.057 116.74 103.142 116.74C102.227 116.74 101.485 117.482 101.485 118.397C101.485 119.312 102.227 120.054 103.142 120.054Z" fill="#34C3A7"/>
<path opacity="0.13" d="M95.0114 150C106.707 150 116.188 140.519 116.188 128.824C116.188 117.128 106.707 107.647 95.0114 107.647C83.316 107.647 73.835 117.128 73.835 128.824C73.835 140.519 83.316 150 95.0114 150Z" fill="#34C3A7"/>
<path opacity="0.31" d="M66.3129 23.1742V32.0384H44.3424C39.6125 32.0384 35.7803 35.8706 35.7803 40.6004V62.217H27.0327V31.1062C27.0327 26.3764 30.8649 22.5442 35.5948 22.5442H66.2869C66.3042 22.7513 66.3129 22.9585 66.3129 23.1742Z" fill="#FF9E0B"/>
<path opacity="0.41" d="M35.7801 62.2131V93.38C35.7801 94.5841 34.8048 95.555 33.605 95.555H29.4751C28.7242 95.555 28.025 95.1667 27.6237 94.528C27.2396 93.9152 27.0325 93.4102 27.0325 92.3055V62.2131H35.7801Z" fill="url(#paint3_linear)"/>
<path d="M82.824 37.1096V76.2172H33.0959V37.1096C33.0959 32.3798 36.9281 28.5476 41.658 28.5476H74.2619C78.9875 28.5433 82.824 32.3798 82.824 37.1096Z" fill="#34C3A7"/>
<path d="M82.824 76.2168V101.001C82.824 101.372 82.8024 101.735 82.755 102.093C82.7377 102.235 82.7161 102.378 82.6902 102.52C82.6773 102.589 82.6643 102.658 82.6514 102.732C82.6212 102.87 82.591 103.008 82.5565 103.146C81.62 106.771 78.3661 109.468 74.4605 109.567C74.3871 109.567 74.3138 109.572 74.2404 109.572H41.658C36.9281 109.572 33.0959 105.739 33.0959 101.01V76.2254H82.824V76.2168Z" fill="#EFEFEF"/>
<path d="M41.6578 109.563H41.5456C36.8028 109.563 32.9619 105.731 32.9619 101.001V76.2168H33.0957V101.001C33.0957 105.727 36.9279 109.563 41.6578 109.563Z" fill="#EFEFEF"/>
<path opacity="0.48" d="M59.6886 89.6384H39.9277C38.5683 89.6384 37.4592 88.525 37.4592 87.1699C37.4592 85.8105 38.5726 84.7014 39.9277 84.7014H59.6886C61.048 84.7014 62.1571 85.8148 62.1571 87.1699C62.1571 88.525 61.048 89.6384 59.6886 89.6384Z" fill="#D8D8DB"/>
<path opacity="0.48" d="M51.4545 100.876H39.9277C38.5683 100.876 37.4592 99.7626 37.4592 98.4075C37.4592 97.0481 38.5726 95.939 39.9277 95.939H51.4545C52.8139 95.939 53.923 97.0524 53.923 98.4075C53.923 99.7669 52.8139 100.876 51.4545 100.876Z" fill="#D8D8DB"/>
<path opacity="0.48" d="M70.7016 100.876H59.1748C57.8154 100.876 56.7063 99.7626 56.7063 98.4075C56.7063 97.0481 57.8197 95.939 59.1748 95.939H70.7016C72.061 95.939 73.1701 97.0524 73.1701 98.4075C73.1701 99.7669 72.061 100.876 70.7016 100.876Z" fill="#D8D8DB"/>
<path opacity="0.48" d="M75.643 89.6384H67.4089C66.0495 89.6384 64.9404 88.525 64.9404 87.1699C64.9404 85.8105 66.0538 84.7014 67.4089 84.7014H75.643C77.0024 84.7014 78.1115 85.8148 78.1115 87.1699C78.1115 88.525 77.0024 89.6384 75.643 89.6384Z" fill="#D8D8DB"/>
<path opacity="0.14" d="M72.0395 46.2844C75.9603 46.2844 79.1386 43.106 79.1386 39.1852C79.1386 35.2645 75.9603 32.0862 72.0395 32.0862C68.1188 32.0862 64.9404 35.2645 64.9404 39.1852C64.9404 43.106 68.1188 46.2844 72.0395 46.2844Z" fill="white"/>
<path opacity="0.14" d="M41.9213 30.9338C37.8949 30.9338 34.6323 34.1964 34.6323 38.2228C34.6323 42.2492 37.8949 45.5118 41.9213 45.5118C45.9477 45.5118 49.2103 42.2492 49.2103 38.2228C49.2103 34.1964 45.9477 30.9338 41.9213 30.9338ZM41.9213 42.2536C39.6945 42.2536 37.8863 40.4496 37.8863 38.2185C37.8863 35.9917 39.6902 34.1835 41.9213 34.1835C44.1524 34.1835 45.9563 35.9873 45.9563 38.2185C45.9563 40.4496 44.1481 42.2536 41.9213 42.2536Z" fill="white"/>
<path opacity="0.14" d="M82.8241 65.3113V69.6355C82.2717 69.4327 81.6761 69.3248 81.0547 69.3248C78.1935 69.3248 75.8717 71.6466 75.8717 74.5078C75.8717 75.1076 75.971 75.6773 76.1608 76.2124H71.8453C71.7417 75.66 71.6899 75.0904 71.6899 74.5078C71.6899 69.3334 75.8846 65.1387 81.059 65.1387C81.6588 65.143 82.2501 65.1991 82.8241 65.3113Z" fill="#EFEFEF"/>
<path opacity="0.14" d="M70.7015 61.7727C72.7751 61.7727 74.4561 60.0917 74.4561 58.0182C74.4561 55.9446 72.7751 54.2637 70.7015 54.2637C68.628 54.2637 66.947 55.9446 66.947 58.0182C66.947 60.0917 68.628 61.7727 70.7015 61.7727Z" fill="white"/>
<path opacity="0.14" d="M38.2788 74.5596C39.7446 74.5596 40.9329 73.3713 40.9329 71.9055C40.9329 70.4397 39.7446 69.2515 38.2788 69.2515C36.813 69.2515 35.6248 70.4397 35.6248 71.9055C35.6248 73.3713 36.813 74.5596 38.2788 74.5596Z" fill="white"/>
<path opacity="0.14" d="M44.0441 68.9756C48.0697 68.9756 51.333 65.7123 51.333 61.6867C51.333 57.6611 48.0697 54.3977 44.0441 54.3977C40.0185 54.3977 36.7551 57.6611 36.7551 61.6867C36.7551 65.7123 40.0185 68.9756 44.0441 68.9756Z" fill="white"/>
<path d="M64.7207 66.5372H51.2001C48.9302 66.5372 47.0874 64.6988 47.0874 62.4245V61.9239C47.0874 57.1595 50.9498 53.2971 55.7142 53.2971H60.198C64.9624 53.2971 68.8248 57.1595 68.8248 61.9239V62.4245C68.8291 64.6988 66.9907 66.5372 64.7207 66.5372Z" fill="#FEFEFE"/>
<path d="M57.9581 50.4616C61.3378 50.4616 64.0775 47.7218 64.0775 44.3421C64.0775 40.9625 61.3378 38.2227 57.9581 38.2227C54.5784 38.2227 51.8386 40.9625 51.8386 44.3421C51.8386 47.7218 54.5784 50.4616 57.9581 50.4616Z" fill="#FEFEFE"/>
<path d="M109.071 138.538L107.086 140.523C104.575 143.035 100.466 143.035 97.9588 140.523L83.614 126.178C81.1023 123.667 81.1023 119.558 83.614 117.051L85.5991 115.066C85.9746 114.69 86.5874 114.69 86.9628 115.066L90.2815 118.384C90.6569 118.76 90.6569 119.373 90.2815 119.748L87.5972 122.432C87.0362 122.993 87.0362 123.908 87.5972 124.469L99.6678 136.54C100.229 137.101 101.144 137.101 101.705 136.54L104.389 133.856C104.764 133.48 105.377 133.48 105.753 133.856L109.071 137.174C109.451 137.55 109.451 138.158 109.071 138.538Z" fill="#1CAF82"/>

</svg>
