<svg id="Layer_2" data-name="Layer 2" xmlns="http://www.w3.org/2000/svg" width="312.773" height="286.066" viewBox="0 0 312.773 286.066">
  <g id="Layer_5" data-name="Layer 5" transform="translate(0)">
    <path id="Path_33660" data-name="Path 33660" d="M213.237,29.913l-4.252-2.333L94.55,223.054l39.612-12.21Z" transform="translate(45.121 13.139)" fill="#f25536"/>
    <path id="Path_33661" data-name="Path 33661" d="M139.43,149.87,191.857,29.913,187.6,27.58,139.43,109.859Z" transform="translate(66.501 13.139)" fill="#f97243"/>
    <path id="Path_33662" data-name="Path 33662" d="M25.222,152.677a5.817,5.817,0,0,1-1.2-1.211,6.348,6.348,0,0,1-.945-3.543,5.7,5.7,0,0,1,.148-1.122,10.335,10.335,0,0,1,1.181-2.953A5.241,5.241,0,0,1,27.5,141.6a3.809,3.809,0,0,1,1.166,0,5,5,0,0,1,2.392,1.4,4.429,4.429,0,0,1,.65,1.565c.133.5,0,.974.162,1.476a14.025,14.025,0,0,1-.354,3.056,9.493,9.493,0,0,1-.827,2.717,3.543,3.543,0,0,1-3.647,1.476,5.315,5.315,0,0,1-1.816-.62Zm15.738-9.611c.177,0,.3.118.133.354a1.8,1.8,0,0,1-.709,1.063c-.325.4-.871.768-1.2,1.2-.93.989-1.624,2.052-2.525,2.835-1.476,1.609-3.071,3.233-4.621,5.064-1.816,1.831-3.44,3.853-5.3,5.906-.34.4-.428.856-.989,1.24-.266.177-.974,0-1.476,0-.221,0-.443-.089-.177-.266a.932.932,0,0,0,.369-.664,4.739,4.739,0,0,1,1.225-1.2c1.86-2.067,3.75-4.3,5.61-6.289s3.706-4.045,5.522-5.906c.635-.812,1.58-1.831,2.229-2.672.266-.177.354-.635.886-.782l.458.089c.162.015.4,0,.561.03ZM27.5,150.448a1.654,1.654,0,0,0,.8-1.063,4.872,4.872,0,0,0,.281-.945,10.866,10.866,0,0,0,.162-2.318c-.177-.31-.089-.753-.487-1.078a.9.9,0,0,0-.251-.1,1.166,1.166,0,0,0-1.048.546,3.779,3.779,0,0,0-.664,1.683c-.118.546-.177,1.093-.251,1.476a1.7,1.7,0,0,0,.413,1.476Zm13.288,8.017a9.447,9.447,0,0,1-.5,1.786,5.625,5.625,0,0,1-1.683,2.3,3.543,3.543,0,0,1-2.569.768,7.675,7.675,0,0,1-1.329-.413,4.282,4.282,0,0,1-2.333-2.835,9.626,9.626,0,0,1,0-3.839,7.382,7.382,0,0,1,1.683-3.484,3.868,3.868,0,0,1,3.44-1.27,1.9,1.9,0,0,1,.413.118,4.163,4.163,0,0,1,2.776,2.421,5.64,5.64,0,0,1,.413,2.17,15.9,15.9,0,0,1-.3,2.347Zm-2.628-.015c.133-.709.177-1.476.281-2.1s.192-2.111-.709-2.288a2.082,2.082,0,0,0-2.3,1.7,9.42,9.42,0,0,0-.517,1.7,8.445,8.445,0,0,0-.133,1.727,1.742,1.742,0,0,0,1.048,1.89c1.166.236,1.654-.871,2.067-1.727a3.824,3.824,0,0,0,.266-.9Z" transform="translate(11.072 67.438)" fill="#f97243"/>
    <path id="Path_33663" data-name="Path 33663" d="M82.485,103.65a7.264,7.264,0,0,1-2.333-.576,9.021,9.021,0,0,1-3.765-3.543,10.569,10.569,0,0,1-.65-1.476,14.438,14.438,0,0,1-.768-4.429,7.382,7.382,0,0,1,2.037-4.99,5.9,5.9,0,0,1,1.476-.783,7.161,7.161,0,0,1,3.912-.059,6.482,6.482,0,0,1,1.934,1.4c.531.5.768,1.152,1.3,1.654a18.471,18.471,0,0,1,1.816,3.912,13.405,13.405,0,0,1,1.033,3.868,5.005,5.005,0,0,1-3.322,4.429,7.854,7.854,0,0,1-2.672.591ZM83.607,99.4a2.333,2.333,0,0,0,.177-1.9,8.489,8.489,0,0,0-.354-1.344A15.176,15.176,0,0,0,81.953,93.2c-.428-.236-.664-.842-1.388-.93a1.579,1.579,0,0,0-.369,0,1.742,1.742,0,0,0-.856,1.476,5.906,5.906,0,0,0,.443,2.51c.266.723.605,1.476.827,1.993a2.392,2.392,0,0,0,1.639,1.476Zm10.6-18.9c.236-.089.443,0,.428.325a2.5,2.5,0,0,1-.089,1.8c-.074.723-.458,1.476-.531,2.318-.4,1.86-.428,3.661-.93,5.256-.65,3.056-1.3,6.142-1.8,9.493-.827,3.543-1.27,7.161-1.978,11.014a7.176,7.176,0,0,1-.281,2.215c-.192.413-1.137.768-1.757.989-.3.118-.605.221-.413-.192a3.208,3.208,0,0,1,0-1.063,6.422,6.422,0,0,1,.576-2.333c.709-3.853,1.344-7.928,2.082-11.693S90.989,91.042,91.8,87.5c.162-1.476.546-3.366.694-4.843.192-.413,0-1.019.487-1.609l.62-.221C93.75,80.766,94.03,80.589,94.207,80.5Zm11.235,18.676a13.185,13.185,0,0,1,.709,2.51,7.6,7.6,0,0,1-.31,4,4.99,4.99,0,0,1-2.51,2.82,10.69,10.69,0,0,1-1.9.487,6.024,6.024,0,0,1-4.887-1.668,13.76,13.76,0,0,1-2.79-4.651,10.335,10.335,0,0,1-.546-5.418,5.4,5.4,0,0,1,3.189-4.06,2.6,2.6,0,0,1,.62-.133,6.009,6.009,0,0,1,4.975.827,7.972,7.972,0,0,1,2.1,2.3,21.7,21.7,0,0,1,1.4,2.982Zm-3.263,1.8c-.354-.945-.871-1.89-1.211-2.717s-1.329-2.672-2.539-2.229a2.953,2.953,0,0,0-1.476,3.75,11.81,11.81,0,0,0,.62,2.407,13.008,13.008,0,0,0,1.063,2.244,2.48,2.48,0,0,0,2.672,1.476c1.565-.576,1.329-2.259,1.181-3.588a4.9,4.9,0,0,0-.266-1.344Z" transform="translate(35.793 38.334)" fill="#f97243"/>
    <path id="Path_33664" data-name="Path 33664" d="M164.579,122.5,142.02,148.47v79.238h22.559Z" transform="translate(67.735 58.358)" fill="#ffcd50"/>
    <path id="Path_33665" data-name="Path 33665" d="M142,142.76v75.3h22.589V169.335C156.764,166.81,147.994,156.668,142,142.76Z" transform="translate(67.726 68.01)" fill="#ffb53e"/>
    <path id="Path_33666" data-name="Path 33666" d="M141.542,152.37,120.43,180.082v33.4h21.112Z" transform="translate(57.45 72.588)" fill="#ffb53e"/>
    <path id="Path_33667" data-name="Path 33667" d="M188.254,98.7l-9.434,19.429-13.11,7.751V239.046h22.544Z" transform="translate(79.021 47.02)" fill="#ffcd50"/>
    <path id="Path_33668" data-name="Path 33668" d="M183.4,175.856c-6.939,0-13.288-6.349-17.717-16.536v50.847H188.3V174.734A12.018,12.018,0,0,1,183.4,175.856Z" transform="translate(79.007 75.899)" fill="#ffb53e"/>
    <path id="Path_33669" data-name="Path 33669" d="M211.949,36.9,189.39,93.948V268.487h22.559Z" transform="translate(90.302 17.579)" fill="#ffcd50"/>
    <path id="Path_33670" data-name="Path 33670" d="M189.39,169v36.541h22.559V184.65C204.641,184.561,196.846,178.877,189.39,169Z" transform="translate(90.302 80.51)" fill="#ffb53e"/>
    <path id="Path_33671" data-name="Path 33671" d="M121.712,235.425l-3.292-2.436,49.415-66.438,31.86-19.666L243.854,36.85l3.794,1.521L203,149.676l-32.348,19.946Z" transform="translate(56.492 17.555)" fill="#ffcd50"/>
    <path id="Path_33672" data-name="Path 33672" d="M204.661,0,158.45,47.3l22.633-5.2,7.662,21.924Z" transform="translate(75.562)" fill="#f97243"/>
    <path id="Path_33673" data-name="Path 33673" d="M17.436,234.644h233.27c10.187-12.136.605-27.4-15.03-18.617-.192-.5-2.244-2.1-2.407-2.613-4.163,0-7.175.207-9.346,3.145-.192-.517,1.919-6.467-3.647-4.163-7.648,3.174.162-5.906.664-14.764.428-7.559-5.035-15.015-23.416-13.6a60.532,60.532,0,0,0-13.1,3.558,41.5,41.5,0,0,0,0-5.094c-1.019-9.4-5.359-18.706-5.6-28.051-.118-4.252,6.836-15.428-3.676-14.1.5-5.167,3.839-10.217,4.355-15.62.148-1.476-.974-2.1-.694-3.721.591-3.366,7.057-6.289,6.053-10.025-2.111-7.869-6.924,1.786-9.021,3.809-1.476,1.476-4.739,2.362-5.906,3.868s-.576,3.661-1.476,4.71c-2.864,3.721-11.176,5.241-13.288,10.2-.635,1.476,1.107,3.366,0,4.695s-4.237.8-5.079,2.008.31,3.706,0,4.149c-1.772,2.259-3.735,2.229-7.456,3.573-6.452,2.333-12.682,6.1-11,12.667-4.016.635-12.918,1.373-15.443,3.986-3.307,3.455,1.845,5.448,1.255,9.213-1,6.54-9.006,4.119-13.155,6.659C97.22,162.8,70.35,156.661,57.638,171.735c-13.553,16.034,25.925,17.717,20.817,26.678-8.268-2.347-37.264-2.717-19.385,7.869-6.024-2.17-18.455-4.355-21.939,1.033-2.746,4.252,3.2,8.224,8.43,8.858a11.368,11.368,0,0,0,.148,1.284c-9.021-5.714-39.626-6.983-44.823,2.525C-2.406,225.815,3.957,234.644,17.436,234.644Z" transform="translate(0.093 51.422)" fill="#fff1d7"/>
    <path id="Path_33674" data-name="Path 33674" d="M244.707,195.614c-6.526,2.067-11.811,7.382-18.2,9.789-7.382,2.687-13.081,2.421-20.669,1.595-4.429-.487-10.822.768-13.849-3.484a9.6,9.6,0,0,1-.871-8.386c-2.525,2.953-11.221,3.13-14.1,3.47-4.68.546-10.763,1.816-15.414.827-2.215-.472-2.569-2.023-4.916-1.9-4.592.221-8.725,6.038-13.7,6.467a12.212,12.212,0,0,1-3.115.443c-1.211-.192-1-1.846-1.786-2.008-3.558-.723-6.334.679-9.907,1.639a55.35,55.35,0,0,1-25.32.354c-6.467-1.565-19.193-8.858-12.21-16.432,1.063-1.152,8.283-4.429,14.026-5.4a4.163,4.163,0,0,1,.472-1.314c1.019-1.86,6.91-3.75,8.991-4.665-2.023-1.314-2.658-4.429-.354-5.566a52.8,52.8,0,0,1-8.607-8.858,6.085,6.085,0,0,0-.989.472c-7.087-17.717-33.957-23.859-46.669-8.785C43.963,169.9,83.441,171.578,78.333,180.54c-8.268-2.347-37.264-2.717-19.385,7.869-6.024-2.17-18.455-4.355-21.939,1.033-2.746,4.252,3.2,8.224,8.43,8.858a11.369,11.369,0,0,0,.148,1.284C36.566,193.872,5.96,192.6.763,202.11c-3.2,5.906,3.159,14.69,16.639,14.69h233.27C258.777,207.263,254.525,195.762,244.707,195.614Z" transform="translate(0.053 69.236)" fill="#ffe8bb"/>
    <path id="Path_33675" data-name="Path 33675" d="M114.691,172.24a6.084,6.084,0,0,1-1.654-.428,6.526,6.526,0,0,1-2.643-2.569,8.067,8.067,0,0,1-.443-1.033,10.335,10.335,0,0,1-.5-3.145,5.256,5.256,0,0,1,1.476-3.514A3.674,3.674,0,0,1,111.96,161a4.872,4.872,0,0,1,2.761,0,4.223,4.223,0,0,1,1.373,1.019c.369.354.532.812.9,1.181a12.519,12.519,0,0,1,1.255,2.79,9.346,9.346,0,0,1,.694,2.761,3.558,3.558,0,0,1-2.392,3.1A5.685,5.685,0,0,1,114.691,172.24Zm.842-2.953a1.713,1.713,0,0,0,.133-1.344,5.9,5.9,0,0,0-.236-.945,11.544,11.544,0,0,0-1.063-2.082c-.31-.162-.458-.605-.974-.664a.694.694,0,0,0-.251,0,1.225,1.225,0,0,0-.635,1.019,4.252,4.252,0,0,0,.3,1.786c.192.517.413,1.019.561,1.476a1.742,1.742,0,0,0,1.152,1.093ZM123.254,156c.177,0,.325,0,.3.221a1.727,1.727,0,0,1,0,1.284c0,.517-.354,1.093-.413,1.639-.3,1.329-.34,2.6-.709,3.735-.487,2.156-.974,4.341-1.358,6.718-.62,2.5-.974,5.064-1.476,7.8a5.079,5.079,0,0,1-.207,1.565c-.148.3-.827.532-1.255.694s-.443.148-.3-.148a2.149,2.149,0,0,1,0-.753,5.079,5.079,0,0,1,.428-1.654c.546-2.717,1.033-5.61,1.595-8.283s1.107-5.374,1.727-7.884c.133-1.019.413-2.377.531-3.425.148-.3,0-.723.369-1.137l.443-.148C122.9,156.148,123.092,156,123.254,156Zm7.81,13.361a9.379,9.379,0,0,1,.472,1.786,5.389,5.389,0,0,1-.251,2.835,3.5,3.5,0,0,1-1.831,1.949,6.572,6.572,0,0,1-1.344.325,4.282,4.282,0,0,1-3.47-1.225,9.626,9.626,0,0,1-1.919-3.322,7.131,7.131,0,0,1-.34-3.853,3.824,3.824,0,0,1,2.288-2.864,2.021,2.021,0,0,1,.428-.1,4.193,4.193,0,0,1,3.514.62,5.906,5.906,0,0,1,1.476,1.654,15.175,15.175,0,0,1,.974,2.126Zm-2.333,1.24c-.251-.679-.605-1.344-.842-1.934s-.915-1.9-1.786-1.595a2.1,2.1,0,0,0-1.093,2.643,9.346,9.346,0,0,0,1.166,3.307,1.786,1.786,0,0,0,1.89,1.093c1.107-.4.96-1.594.871-2.539a3.972,3.972,0,0,0-.207-1Z" transform="translate(52.219 74.317)" fill="#f97243"/>
    <path id="Path_33676" data-name="Path 33676" d="M149.164,48.485c.162,0,.281.148.089.369a1.757,1.757,0,0,1-.842.96c-.354.354-.945.65-1.314,1.048-1.063.856-1.875,1.831-2.864,2.5-1.713,1.4-3.44,2.82-5.212,4.429-2.023,1.609-3.883,3.41-5.994,5.226-.384.354-.531.8-1.122,1.107-.3.148-.989-.089-1.476-.236s-.443-.148-.148-.3a.881.881,0,0,0,.443-.605,4.828,4.828,0,0,1,1.358-1.033c2.111-1.816,4.267-3.794,6.348-5.551s4.178-3.558,6.216-5.153c.723-.723,1.786-1.609,2.525-2.362.3-.148.443-.591.989-.679l.443.148A3.984,3.984,0,0,1,149.164,48.485Zm-16.8,7.589a5.714,5.714,0,0,1-1.033-1.344,6.437,6.437,0,0,1-.5-3.647,6.982,6.982,0,0,1,.281-1.093,9.891,9.891,0,0,1,1.55-2.79,5.256,5.256,0,0,1,3.337-1.86,4.562,4.562,0,0,1,1.137.207,4.975,4.975,0,0,1,2.2,1.683,4.429,4.429,0,0,1,.458,1.654c.074.5-.089.974,0,1.476a13.124,13.124,0,0,1-.738,2.953,9.2,9.2,0,0,1-1.152,2.6,3.529,3.529,0,0,1-3.794.96,5.034,5.034,0,0,1-1.683-.8Zm2.51-1.86a1.639,1.639,0,0,0,.945-.96,4.708,4.708,0,0,0,.384-.9,10.336,10.336,0,0,0,.443-2.288c-.133-.31,0-.753-.354-1.122a.886.886,0,0,0-.221-.133,1.2,1.2,0,0,0-1.122.413,4.267,4.267,0,0,0-.871,1.595c-.162.517-.3,1.048-.428,1.476a1.7,1.7,0,0,0,.236,1.565ZM147.1,63.824a10.113,10.113,0,0,1-.723,1.7,5.758,5.758,0,0,1-1.949,2.082,3.573,3.573,0,0,1-2.658.443,8,8,0,0,1-1.255-.576,4.237,4.237,0,0,1-1.964-3.1,9.523,9.523,0,0,1,.517-3.809,7.16,7.16,0,0,1,2.111-3.248,3.78,3.78,0,0,1,3.558-.827,1.889,1.889,0,0,1,.4.162,4.193,4.193,0,0,1,2.392,2.658,5.906,5.906,0,0,1,.133,2.215,16.342,16.342,0,0,1-.5,2.3Zm-2.613-.458c.236-.679.354-1.476.531-2.052s.458-2.067-.413-2.362a2.111,2.111,0,0,0-2.5,1.476,9.906,9.906,0,0,0-.723,1.609,10.543,10.543,0,0,0-.4,1.727,1.786,1.786,0,0,0,.812,2.008c1.122.384,1.742-.664,2.259-1.476a3.514,3.514,0,0,0,.487-.93Z" transform="translate(62.038 21.6)" fill="#f97243"/>
    <path id="Path_33677" data-name="Path 33677" d="M200.27,39.838a5.123,5.123,0,1,0,5.123-5.108A5.123,5.123,0,0,0,200.27,39.838Z" transform="translate(95.485 16.545)" fill="#f97243"/>
    <path id="Path_33678" data-name="Path 33678" d="M226.251,199.18H163.74s-1.358-4.429,8.534-9.227,7.175,5.8,16.742,1.713,12.977-9.907,20.492-9.227-3.41,10.94,4.784,9.227S247.762,188.24,226.251,199.18Z" transform="translate(78.053 86.886)" fill="#ffe8bb"/>
    <path id="Path_33679" data-name="Path 33679" d="M186.262,180.887c-1.595-2.377-5.123-.354-6.969,2.672a6.275,6.275,0,0,0-.886,5.463c.635,1.284,2.274,1.727,4.178.62C185.539,187.959,187.975,183.456,186.262,180.887Z" transform="translate(84.94 85.676)" fill="#fff1d7"/>
    <path id="Path_33680" data-name="Path 33680" d="M212.526,179.957c-.325-2.17-2.953-1.949-4.843-.458a4.784,4.784,0,0,0-1.964,3.484,1.934,1.934,0,0,0,2.318,1.831C210.238,184.608,212.866,182.261,212.526,179.957Z" transform="translate(98.081 84.967)" fill="#fff1d7"/>
    <path id="Path_33681" data-name="Path 33681" d="M70,148.422c-9.183-3.573-20.965-3.381-25.512,1.476-5.226,5.61,2.082,13.524,14.764,16.358,10.615,2.377,19.725-.236,21.585-5.02C82.478,156.955,77.975,151.522,70,148.422Z" transform="translate(20.461 69.538)" fill="#fff1d7"/>
    <path id="Path_33682" data-name="Path 33682" d="M71.392,168.52l-6.142,3.189c7.279,1.137,13.893.915,19.355,7.973C84.605,179.682,78.907,169.657,71.392,168.52Z" transform="translate(31.163 80.282)" fill="#ffe8bb"/>
    <path id="Path_33683" data-name="Path 33683" d="M59.923,176.8c-3.632-1.949-7.6-1.595-8.858.8s.635,5.906,4.267,7.854,7.6,1.58,8.858-.812S63.555,178.73,59.923,176.8Z" transform="translate(24.221 83.625)" fill="#fff1d7"/>
    <path id="Path_33684" data-name="Path 33684" d="M71.971,165.686c-1.595-1.713-5.271-3.794-7.825-2.288-6.895,4.045,2.953,9.818,7.589,8.342a2.628,2.628,0,0,0,1.845-2.953,6.024,6.024,0,0,0-1.609-3.1Z" transform="translate(29.505 77.594)" fill="#fff1d7"/>
    <path id="Path_33685" data-name="Path 33685" d="M42.212,175.614c-6.289-3.366-14.764-3.632-16.358-.591-1.211,2.288,2.584,5.226,7.382,6.747,4.031,1.284,8.563,1.476,11.058.517C47.276,181.077,47.054,178.2,42.212,175.614Z" transform="translate(12.286 82.371)" fill="#fff1d7"/>
    <path id="Path_33686" data-name="Path 33686" d="M33.074,168.676c-3.086-1.654-8.105-1.786-9.921,0-1.476,1.476.458,3.248,3.529,4.06a11.338,11.338,0,0,0,6.954-.236C35.407,171.555,35.437,169.946,33.074,168.676Z" transform="translate(10.868 79.742)" fill="#ffe8bb"/>
    <path id="Path_33687" data-name="Path 33687" d="M78.562,155.5c1.609-1.55,1.476-5.182-2.539-6.467-4.533-1.476-5.906,2.244-4.429,4.813a5.389,5.389,0,0,0,3.425,2.5,3.942,3.942,0,0,0,3.543-.842Z" transform="translate(33.914 70.841)" fill="#ffe8bb"/>
    <path id="Path_33688" data-name="Path 33688" d="M93.111,166c2.746-4.518-6.629-10.866-16.787-10.217-6.5.428-7.131,4.06-4.429,7.028a20.211,20.211,0,0,0,9.537,4.975C86.054,168.881,91.546,168.57,93.111,166Z" transform="translate(33.612 74.193)" fill="#ffe8bb"/>
    <path id="Path_33689" data-name="Path 33689" d="M98.889,166.232c2.746-4.518-6.629-10.866-16.787-10.217-6.5.428-7.116,4.06-4.429,7.028a20.2,20.2,0,0,0,9.552,4.975C91.846,169.111,97.324,168.815,98.889,166.232Z" transform="translate(36.368 74.302)" fill="#fff1d7"/>
    <path id="Path_33690" data-name="Path 33690" d="M104.448,172.84s-4.09,9.788,3.883,16.388l14.38-.546C116.245,187.929,104.286,183.012,104.448,172.84Z" transform="translate(49.337 82.34)" fill="#ffe8bb"/>
    <path id="Path_33691" data-name="Path 33691" d="M131.235,147.865c-2.953,9.006-11.28.34-7.175-5.8S132.254,144.794,131.235,147.865Z" transform="translate(58.648 66.67)" fill="#fff1d7"/>
    <path id="Path_33692" data-name="Path 33692" d="M129.911,136.1c-1.845,7.382-6.954.281-4.429-4.769S130.546,133.547,129.911,136.1Z" transform="translate(59.529 61.735)" fill="#fff1d7"/>
    <path id="Path_33693" data-name="Path 33693" d="M135.608,139.8c-1.8,3.514-6.777.133-4.311-2.259S136.154,138.609,135.608,139.8Z" transform="translate(62.307 65.133)" fill="#fff1d7"/>
    <path id="Path_33694" data-name="Path 33694" d="M98.458,129.475c-1.8,3.514-6.777.133-4.311-2.259S99.078,128.279,98.458,129.475Z" transform="translate(44.609 60.212)" fill="#fff1d7"/>
    <path id="Path_33695" data-name="Path 33695" d="M42.488,165.281c-1.8,3.514-6.777.133-4.311-2.274S43.093,164.085,42.488,165.281Z" transform="translate(17.945 77.261)" fill="#ffe8bb"/>
  </g>
</svg>
