<svg id="fasben3" xmlns="http://www.w3.org/2000/svg" xmlns:xlink="http://www.w3.org/1999/xlink" width="373.099" height="275.461" viewBox="0 0 373.099 275.461">
  <defs>
    <linearGradient id="linear-gradient" y1="0.5" x2="1" y2="0.5" gradientUnits="objectBoundingBox">
      <stop offset="0" stop-color="#ffa880"/>
      <stop offset="1" stop-color="#ff9a78"/>
    </linearGradient>
    <linearGradient id="linear-gradient-2" x1="-0.226" y1="0.7" x2="0.273" y2="0.571" gradientUnits="objectBoundingBox">
      <stop offset="0" stop-color="#fff"/>
      <stop offset="1" stop-color="#f3a6a9"/>
    </linearGradient>
    <linearGradient id="linear-gradient-3" y1="0.5" x2="1" y2="0.5" gradientUnits="objectBoundingBox">
      <stop offset="0.01" stop-color="#efb3eb"/>
      <stop offset="1" stop-color="#d71c5c"/>
    </linearGradient>
    <linearGradient id="linear-gradient-4" x1="0" y1="0.507" x2="1" y2="0.507" xlink:href="#linear-gradient-3"/>
    <linearGradient id="linear-gradient-5" y1="0.5" x2="1" y2="0.5" gradientUnits="objectBoundingBox">
      <stop offset="0" stop-color="#d83f35"/>
      <stop offset="1"/>
    </linearGradient>
    <linearGradient id="linear-gradient-6" x1="0.295" y1="0.268" x2="0.742" y2="0.827" gradientUnits="objectBoundingBox">
      <stop offset="0" stop-color="#c1393a"/>
      <stop offset="1" stop-color="#d83b3c"/>
    </linearGradient>
    <linearGradient id="linear-gradient-7" x1="0.564" y1="0.787" x2="0.416" y2="0.05" gradientUnits="objectBoundingBox">
      <stop offset="0" stop-color="#181d3b"/>
      <stop offset="1" stop-color="#3b405f"/>
    </linearGradient>
    <linearGradient id="linear-gradient-8" y1="0.5" x2="1" y2="0.5" gradientUnits="objectBoundingBox">
      <stop offset="0" stop-color="#705abc"/>
      <stop offset="1" stop-color="#3b405f"/>
    </linearGradient>
    <linearGradient id="linear-gradient-9" x1="0.5" y1="0.077" x2="0.5" y2="0.896" gradientUnits="objectBoundingBox">
      <stop offset="0" stop-color="#cceee4"/>
      <stop offset="1" stop-color="#c0e3e9"/>
    </linearGradient>
    <linearGradient id="linear-gradient-10" y1="0.5" x2="1" y2="0.5" gradientUnits="objectBoundingBox">
      <stop offset="0" stop-color="#5094b0"/>
      <stop offset="1" stop-color="#476fa6"/>
    </linearGradient>
    <linearGradient id="linear-gradient-11" y1="0.5" x2="1" y2="0.5" gradientUnits="objectBoundingBox">
      <stop offset="0" stop-color="#6a41b4"/>
      <stop offset="1" stop-color="#786ee2"/>
    </linearGradient>
    <linearGradient id="linear-gradient-12" x1="0.079" y1="2.528" x2="0.765" y2="-1.176" gradientUnits="objectBoundingBox">
      <stop offset="0" stop-color="#9660a3"/>
      <stop offset="1" stop-color="#7666ab"/>
    </linearGradient>
    <linearGradient id="linear-gradient-13" x1="-0.385" y1="5.043" x2="0.299" y2="1.337" xlink:href="#linear-gradient-12"/>
    <linearGradient id="linear-gradient-14" x1="0.433" y1="0.614" x2="1.119" y2="-3.114" xlink:href="#linear-gradient-12"/>
    <linearGradient id="linear-gradient-15" x1="0.119" y1="2.322" x2="0.805" y2="-1.406" xlink:href="#linear-gradient-12"/>
    <linearGradient id="linear-gradient-16" x1="0.46" y1="0.178" x2="0.543" y2="0.876" xlink:href="#linear-gradient-7"/>
    <linearGradient id="linear-gradient-17" x1="-0.027" y1="0.329" x2="-2.056" y2="-0.332" xlink:href="#linear-gradient-7"/>
    <linearGradient id="linear-gradient-18" x1="1.676" y1="0.702" x2="5.484" y2="1.354" xlink:href="#linear-gradient-8"/>
    <linearGradient id="linear-gradient-19" x1="0.026" y1="0.5" x2="0.974" y2="0.5" gradientUnits="objectBoundingBox">
      <stop offset="0" stop-color="#cc2847"/>
      <stop offset="0.99" stop-color="#fc6344"/>
    </linearGradient>
    <linearGradient id="linear-gradient-20" x1="-0.007" y1="0.49" x2="1" y2="0.49" gradientUnits="objectBoundingBox">
      <stop offset="0" stop-color="#fff"/>
      <stop offset="1" stop-color="#d4d9ff"/>
    </linearGradient>
    <linearGradient id="linear-gradient-21" x1="0.01" y1="0.489" x2="1" y2="0.489" xlink:href="#linear-gradient-7"/>
    <linearGradient id="linear-gradient-22" x1="-0.015" y1="0.497" x2="1" y2="0.497" xlink:href="#linear-gradient-20"/>
    <linearGradient id="linear-gradient-24" x1="0" y1="0.5" x2="1" y2="0.5" xlink:href="#linear-gradient"/>
    <linearGradient id="linear-gradient-25" x1="-0.59" y1="0.82" x2="0.074" y2="0.631" xlink:href="#linear-gradient-2"/>
    <linearGradient id="linear-gradient-26" y1="0.502" x2="1" y2="0.502" gradientUnits="objectBoundingBox">
      <stop offset="0" stop-color="#ea7862"/>
      <stop offset="1" stop-color="#f3a6a9"/>
    </linearGradient>
    <linearGradient id="linear-gradient-27" x1="0" y1="0.499" x2="1" y2="0.499" xlink:href="#linear-gradient-26"/>
    <linearGradient id="linear-gradient-28" y1="0.498" x2="1" y2="0.498" gradientUnits="objectBoundingBox">
      <stop offset="0" stop-color="#ffc1ab"/>
      <stop offset="1" stop-color="#f2d6b6"/>
    </linearGradient>
    <linearGradient id="linear-gradient-29" x1="0" y1="0.501" x2="1" y2="0.501" xlink:href="#linear-gradient-28"/>
    <linearGradient id="linear-gradient-30" x1="0" y1="0.5" x2="1" y2="0.5" xlink:href="#linear-gradient"/>
    <linearGradient id="linear-gradient-31" x1="0" y1="0.5" x2="1" y2="0.5" xlink:href="#linear-gradient-2"/>
    <linearGradient id="linear-gradient-32" x1="0" y1="0.5" x2="1" y2="0.5" xlink:href="#linear-gradient-26"/>
    <linearGradient id="linear-gradient-33" x1="0.001" y1="0.5" x2="1" y2="0.5" xlink:href="#linear-gradient-2"/>
    <linearGradient id="linear-gradient-34" x1="0" y1="0.5" x2="1" y2="0.5" xlink:href="#linear-gradient-5"/>
    <linearGradient id="linear-gradient-35" x1="-0.003" y1="0.5" x2="1" y2="0.5" xlink:href="#linear-gradient-26"/>
    <linearGradient id="linear-gradient-36" x1="0" y1="0.498" x2="1" y2="0.498" xlink:href="#linear-gradient-26"/>
    <linearGradient id="linear-gradient-37" x1="0" y1="0.5" x2="0.996" y2="0.5" xlink:href="#linear-gradient-28"/>
    <linearGradient id="linear-gradient-38" x1="0" y1="0.501" x2="1" y2="0.501" xlink:href="#linear-gradient-28"/>
    <linearGradient id="linear-gradient-39" x1="0" y1="0.499" x2="1" y2="0.499" xlink:href="#linear-gradient-5"/>
    <linearGradient id="linear-gradient-40" x1="8.772" y1="-13.211" x2="4.435" y2="-6.022" gradientUnits="objectBoundingBox">
      <stop offset="0" stop-color="#ffafde"/>
      <stop offset="1" stop-color="#ffd1ec"/>
    </linearGradient>
    <linearGradient id="linear-gradient-41" x1="-0.535" y1="2.212" x2="-8.184" y2="14.892" xlink:href="#linear-gradient-40"/>
  </defs>
  <g id="Layer_2" data-name="Layer 2" transform="translate(0 0)">
    <g id="Layer_6" data-name="Layer 6">
      <path id="Path_33696" data-name="Path 33696" d="M123.557,9.91S107.819,13.822,96.51,20.939c0,0,4.282,2.215,9.774,4.813A68.993,68.993,0,0,1,98.8,38.582s22.766-4.724,27.653-4.724Z" transform="translate(45.976 4.703)" fill="#ff916e"/>
      <path id="Path_33697" data-name="Path 33697" d="M111.4,25.311a19.71,19.71,0,0,0,7.958,4l-1.166-9.862S111.093,22.536,111.4,25.311Z" transform="translate(53.067 9.248)" fill="#ff764d"/>
      <path id="Path_33698" data-name="Path 33698" d="M176.608,10.29s15.724,3.912,27.033,11.029c0,0-4.282,2.229-9.774,4.828a68.993,68.993,0,0,0,7.485,12.83s-22.781-4.739-27.653-4.739Z" transform="translate(82.749 4.885)" fill="#ff916e"/>
      <path id="Path_33699" data-name="Path 33699" d="M181.658,25.687a19.5,19.5,0,0,1-7.958,4l1.2-9.848S181.968,22.911,181.658,25.687Z" transform="translate(82.749 9.434)" fill="#ff764d"/>
      <path id="Path_33700" data-name="Path 33700" d="M109.762,5.575s53.563-13.45,105.916,1.476c0,0,1.624,15.222-3.263,28.051,0,0-20.241-5.7-51.157-5.094s-48.721,4.562-48.721,4.562a60.532,60.532,0,0,1-2.776-29Z" transform="translate(51.976 -0.012)" fill="#ffa694"/>
      <path id="Path_33701" data-name="Path 33701" d="M151.289,10.645l-2.333-7.973a.369.369,0,0,0-.679,0c-.487,1.078-1.225,5.566-2.318,7.958a.354.354,0,0,1-.34.207H137.2A.369.369,0,0,0,137,11.5l6.245,4.282a.369.369,0,0,1,.118.458c-1.329,2.953-2.569,5.6-3.292,7.072a.369.369,0,0,0,.531.472l7.161-4.636a.384.384,0,0,1,.413,0l7.662,5.241a.384.384,0,0,0,.561-.443l-3.086-8a.354.354,0,0,1,.148-.443c2.466-1.58,4.843-3.056,6.053-3.809a.31.31,0,0,0-.133-.576c-1.476-.1-4.282-.251-7.766-.281a.354.354,0,0,1-.325-.192Z" transform="translate(65.194 1.149)" fill="#ff764d"/>
      <path id="Path_33702" data-name="Path 33702" d="M128.036,12.079,124.67,4.535a.354.354,0,0,0-.664,0c-.354,1.152-.472,5.684-1.24,8.209a.369.369,0,0,1-.31.251l-8.356,1.2a.369.369,0,0,0-.1.694l6.762,3.4a.384.384,0,0,1,.177.443c-.93,3.056-1.8,5.906-2.3,7.382a.369.369,0,0,0,.591.384l6.467-5.536a.369.369,0,0,1,.4,0l8.3,4.178a.384.384,0,0,0,.5-.517l-4.1-7.471a.384.384,0,0,1,0-.472c2.244-1.89,4.429-3.661,5.507-4.577a.31.31,0,0,0-.221-.561c-1.476.1-4.282.34-7.722.782a.384.384,0,0,1-.31-.236Z" transform="translate(54.209 2.033)" fill="#ff764d"/>
      <path id="Path_33703" data-name="Path 33703" d="M174.468,12.594l-1.476-8.12a.369.369,0,0,0-.664-.089c-.605,1.033-1.786,5.418-3.115,7.692a.369.369,0,0,1-.354.162l-8.43-.812a.369.369,0,0,0-.266.65l5.773,4.872a.369.369,0,0,1,.089.472c-1.624,2.746-3.13,5.3-3.986,6.718a.369.369,0,0,0,.472.517l7.589-3.9a.384.384,0,0,1,.413,0l7.087,5.979a.369.369,0,0,0,.605-.369l-2.244-8.312a.369.369,0,0,1,.192-.428c2.613-1.329,5.123-2.554,6.408-3.174a.31.31,0,0,0,0-.591c-1.476-.236-4.237-.679-7.707-1.048a.384.384,0,0,1-.384-.221Z" transform="translate(76.238 1.99)" fill="#ff764d"/>
      <rect id="Rectangle_5250" data-name="Rectangle 5250" width="51.334" height="29.484" rx="9.98" transform="translate(153.028 185.978)" fill="#ff916e"/>
      <rect id="Rectangle_5251" data-name="Rectangle 5251" width="40.94" height="22.146" rx="7.5" transform="translate(158.225 189.64)" fill="#ffa694"/>
      <path id="Path_33704" data-name="Path 33704" d="M148.12,137.48h0a8.858,8.858,0,0,1-8.858,8.858H116.008a8.858,8.858,0,0,1-8.858-8.858h0a5.684,5.684,0,0,0,5.669,5.669h29.528a5.7,5.7,0,0,0,5.773-5.669Z" transform="translate(51.045 65.477)" fill="#ff764d"/>
      <path id="Path_33705" data-name="Path 33705" d="M63.076,46.909,60.64,51.249l-28.45-9.2,2.6-8.681Z" transform="translate(15.335 15.88)" fill="#ffb53e"/>
      <path id="Path_33706" data-name="Path 33706" d="M66.289,41.107,63.868,43.72,42.18,28.277,49.99,21.5Z" transform="translate(20.094 10.225)" fill="#ffb53e"/>
      <path id="Path_33707" data-name="Path 33707" d="M68.42,39.147,71.2,37.582,63.046,13.96,55.93,16.071Z" transform="translate(26.645 6.633)" fill="#ffb53e"/>
      <path id="Path_33708" data-name="Path 33708" d="M231.215,101.45l-1.225,3.263,31.462,6.821,2.082-6.821Z" transform="translate(109.565 48.313)" fill="#ffb53e"/>
      <path id="Path_33709" data-name="Path 33709" d="M229.142,113.23l-1.742,4.06,22.515,10.527,3.455-6.157Z" transform="translate(108.331 53.924)" fill="#ffb53e"/>
      <path id="Path_33710" data-name="Path 33710" d="M226.116,120.91l-2.746,4.267,16.107,20.2,7.411-8.283Z" transform="translate(106.411 57.583)" fill="#ffb53e"/>
      <path id="Path_33711" data-name="Path 33711" d="M256.987,80.416l3.2-6.112-5.108-2.731a12.061,12.061,0,0,0,.251-2.51l5.536-1.7-2.023-6.629-5.536,1.683h0A12.683,12.683,0,0,0,251.7,60.47l2.717-5.123-6.038-3.263-2.717,5.123a12.21,12.21,0,0,0-2.525-.251l-1.683-5.536-6.629,2.023,1.683,5.536a11.988,11.988,0,0,0-1.964,1.609l-5.108-2.717L226.174,64l5.108,2.717a12.179,12.179,0,0,0-.236,2.525l-5.536,1.683,2.023,6.629L233.04,75.9a11.882,11.882,0,0,0,1.609,1.949l-2.717,5.108,6.112,3.278,2.731-5.108a11.958,11.958,0,0,0,2.51.251h0l1.683,5.536,6.644-2.023-1.683-5.536a12.534,12.534,0,0,0,1.949-1.609Zm-16.772-5.655a6.363,6.363,0,1,1,8.607-2.628A6.363,6.363,0,0,1,240.215,74.762Z" transform="translate(107.431 24.479)" fill="#ffb53e"/>
      <path id="Path_33712" data-name="Path 33712" d="M231.808,95.594l3.9,2.82,2.347-3.248a7.825,7.825,0,0,0,1.713.413l.62,3.971,4.754-.768-.62-3.957h0A9.2,9.2,0,0,0,246,93.911l3.248,2.362,2.82-3.9-3.248-2.362a7.5,7.5,0,0,0,.413-1.7l3.957-.635-.753-4.739-3.957.62a8.591,8.591,0,0,0-.915-1.476l2.348-3.248L246.025,76l-2.362,3.248a9.82,9.82,0,0,0-1.7-.413l-.635-3.957-4.754.753.635,3.971a7.78,7.78,0,0,0-1.476.915l-3.248-2.362-2.82,3.9,3.233,2.362a8.356,8.356,0,0,0-.4,1.7h0l-3.971.635.753,4.739,3.971-.62a8.269,8.269,0,0,0,.915,1.476ZM237.3,84.609a4.429,4.429,0,1,1,.974,6.157,4.429,4.429,0,0,1-.974-6.157Z" transform="translate(108.869 35.655)" fill="#ff764d"/>
      <path id="Path_33713" data-name="Path 33713" d="M31.554,68.183a5.389,5.389,0,0,0-7.589.842L19.241,74.93l-7.4-4.562a5.419,5.419,0,0,0-6.791,8.445L11.844,84.2l8.43,6.762,6.762-8.43L32.4,75.861a5.4,5.4,0,0,0-.842-7.677Z" transform="translate(1.443 31.899)" fill="#ffcd50"/>
      <path id="Path_33714" data-name="Path 33714" d="M37.087,105.956,20.935,108.1,17.82,75.631,34.1,73.83Z" transform="translate(8.489 35.155)" fill="#ff764d"/>
      <path id="Path_33715" data-name="Path 33715" d="M29.424,107.516,3.47,110.026,0,78.652l26.309-3.6Z" transform="translate(0 35.736)" fill="#ffa694"/>
      <rect id="Rectangle_5252" data-name="Rectangle 5252" width="5.448" height="29.262" transform="translate(29.244 123.95) rotate(83.7)" fill="#ffcd50"/>
      <path id="Path_33716" data-name="Path 33716" d="M16.224,109.241l-5.418.605L7.07,75.919l5.359-.989Z" transform="translate(3.368 35.679)" fill="#ffcd50"/>
      <rect id="Rectangle_5253" data-name="Rectangle 5253" width="5.448" height="15.901" transform="translate(44.768 122.244) rotate(83.7)" fill="#ffcd50"/>
      <path id="Path_33717" data-name="Path 33717" d="M29.836,107.548l-3.617.4-3.5-33.957L26.1,73.62Z" transform="translate(10.824 35.054)" fill="#ffcd50"/>
      <path id="Path_33718" data-name="Path 33718" d="M137.236,60.5c-8.253,4.282-24.287,4.178-24.287,4.178-5.64,3.041-15.591,8.342-15.591,8.342l26.9,50.109s-4.636,8.135-10.069,17.111c-6.142,10.172-13.288,21.437-15.9,23.224-4.9,3.351-20.167,10.335-20.167,10.335,0,2.288.207,4.636.443,7.028C80.986,205.1,91.852,233.7,91.852,233.7c-17.023,15.93-49.5,12.254-49.5,12.254,0-1.476,0-3.307-.074-5.463-.62-12.446-3.765-34.917-5.61-47.348-.8-5.389-1.344-8.858-1.344-8.858-1.122-16.979,1.7-50.2,4.813-57.875,3.41-8.356,7.973-13.288,12.564-16.24a25.424,25.424,0,0,1,19.178-3.529L79.613,60.5c20.98-8.563,63.249-21.541,64.74-21.231s3.248,5.492,3.366,6.718S145.489,56.221,137.236,60.5Z" transform="translate(16.707 18.689)" fill="url(#linear-gradient)"/>
      <path id="Path_33719" data-name="Path 33719" d="M137.217,60.5c-8.253,4.282-24.287,4.178-24.287,4.178-5.64,3.041-15.591,8.342-15.591,8.342l26.9,50.109s-21.083,36.91-25.97,40.335S78.1,173.8,78.1,173.8c.605,25.409,13.745,59.956,13.745,59.956-17.038,15.871-49.518,12.2-49.518,12.2,0-1.476,0-3.307-.074-5.463,2.7,5.212,31-.65,33.366-8.283s-3.056-51.674-7.943-52.855-24.109-1.831-26.826,2.731A54.805,54.805,0,0,0,36.7,193.2c-.8-5.389-1.344-8.858-1.344-8.858-1.122-16.979,1.7-50.2,4.813-57.875C50.656,100.7,71.857,106.64,71.857,106.64L79.594,60.5c20.98-8.563,63.249-21.541,64.74-21.231s3.248,5.492,3.366,6.718S145.47,56.221,137.217,60.5Z" transform="translate(16.726 18.689)" opacity="0.5" fill="url(#linear-gradient-2)"/>
      <path id="Path_33720" data-name="Path 33720" d="M131.553,60.5c-8.253,4.282-24.287,4.178-24.287,4.178-5.64,3.041-15.591,8.342-15.591,8.342l26.9,50.109s-4.636,8.135-10.069,17.111a14.764,14.764,0,0,0-5.359.768c-4.341,9.729-14.055,15.975-14.055,15.975-16.964,7.042-36.91,7.042-36.91,7.042L47,110.08a25.423,25.423,0,0,1,19.193-3.44L73.929,60.5c20.98-8.563,63.249-21.541,64.74-21.231s3.248,5.492,3.366,6.718S139.806,56.221,131.553,60.5Z" transform="translate(22.39 18.689)" opacity="0.5" fill="url(#linear-gradient-3)"/>
      <path id="Path_33721" data-name="Path 33721" d="M74.7,138.038c-1.978-3.868-3.883-4.429-3.883-4.429-13.288-1.358-25.586-3.41-27.623-4.429,0,0,23.268,3.115,31,1.727C74.3,133.343,74.46,135.647,74.7,138.038Z" transform="translate(20.575 61.523)" opacity="0.5" fill="url(#linear-gradient-4)"/>
      <path id="Path_33722" data-name="Path 33722" d="M44.548,137.692c-7.308-6.7-3.425,39.863-.8,44.779s14,9.2,15.443,7.042S51.65,144.233,44.548,137.692Z" transform="translate(19.217 65.264)" opacity="0.5" fill="url(#linear-gradient-5)"/>
      <path id="Path_33723" data-name="Path 33723" d="M226.369,86.324S193.106,59.837,184.587,50.27c0,0-4.429,3.056-4.429,6.112,0,0-1.476,11.811,2.082,20.581s14.808,43.775,14.808,43.775Z" transform="translate(85.681 23.931)" fill="url(#linear-gradient-6)"/>
      <path id="Path_33724" data-name="Path 33724" d="M252.261,50.41s1.27,32.776-4.222,84.922c0,0-66.438-.812-172.93-3.868l-4.429-5.492L237.512,127.7,249.057,47Z" transform="translate(33.671 22.373)" fill="url(#linear-gradient-7)"/>
      <path id="Path_33725" data-name="Path 33725" d="M73.494,45.44s120.222.207,175.587,2.3c0,0-4.075,67.279-5.714,85.778,0,0-119.351-2.672-172.738-6.747C70.645,126.715,71.87,59.554,73.494,45.44Z" transform="translate(33.647 21.63)" fill="url(#linear-gradient-8)"/>
      <path id="Path_33726" data-name="Path 33726" d="M239.413,48.7s0,.694-.089,1.949c-.221,4.665-.8,17.052-1.639,31-1.122,18.9-2.7,40.557-4.429,49.193,0,0-120.651-3.381-160.1-6.216l-1.476-.1s0-4.961.221-13.288c.325-14.129,1.107-37.988,2.953-64.075C75.105,47.14,197.646,45.456,239.413,48.7Z" transform="translate(34.148 22.233)" fill="url(#linear-gradient-9)"/>
      <path id="Path_33727" data-name="Path 33727" d="M237.671,78.807c-.443,7.648-.974,15.753-1.565,23.253-.856,11.043-1.816,20.8-2.82,25.94,0,0-120.651-3.381-160.1-6.216l-1.476-.1V115.3c0-1.934.089-4.267.148-6.939,1.993-4.1,22.987-22.81,29.528-23.135,8.15-.413,18.13,25.866,22.6,30.148,0,0,7.574-10.866,9.98-11.974,1.476-.664,7.943,4.843,7.943,4.843S166.878,74.7,175.485,75c5.906.207,14.085,16.344,15.709,17.717s25.261-41.147,28.051-40.128C220.619,53.206,229.226,65.873,237.671,78.807Z" transform="translate(34.162 25.025)" opacity="0.5" fill="url(#linear-gradient-10)"/>
      <path id="Path_33728" data-name="Path 33728" d="M236.106,89.882c-.856,11.043-1.816,20.8-2.82,25.94,0,0-120.651-3.381-160.1-6.216l-1.476-.1v-6.378a41.841,41.841,0,0,1,10.925-3.942c8.342-1.152,52.958,9.139,52.958,9.139s20.669-19.857,26.678-20.005,33.957,12.225,33.957,12.225,24.228-22.6,30.93-22.412C229.211,78.189,232.474,83.032,236.106,89.882Z" transform="translate(34.162 37.203)" opacity="0.5" fill="url(#linear-gradient-11)"/>
      <path id="Path_33729" data-name="Path 33729" d="M137.557,70.821H111.838s-1.476-.369-.871,8.711c.162,2.554,1.594,3.263,3.219,1.476,1.152-1.24,2.023-2.731,2.554-2.731s.443,1.078,1.284,1.181c.561,0,2.141-3.9,3.233-3.824,1.476.1,2.037,4.134,3.248,7.781.458,1.373,2.023,1.831,2.613.517a10.452,10.452,0,0,1,1.831-3.2,4.223,4.223,0,0,1,2.835-.118,1.343,1.343,0,0,0,1.476-.679c.65-1.211,1.875-3.145,2.953-3.425a.827.827,0,0,1,.709.1,1.388,1.388,0,0,0,2.17-.842v-.089C139.137,71.086,137.557,70.821,137.557,70.821Z" transform="translate(52.794 33.72)" fill="url(#linear-gradient-12)"/>
      <path id="Path_33730" data-name="Path 33730" d="M171.167,56.481H145.448s-1.476-.369-.871,8.7c.162,2.554,1.595,3.263,3.219,1.476,1.152-1.225,2.023-2.717,2.554-2.717s.443,1.078,1.284,1.181c.561,0,2.141-3.912,3.233-3.839,1.476.1,2.037,4.134,3.248,7.781.458,1.373,2.023,1.845,2.613.517a10.453,10.453,0,0,1,1.831-3.2,4.223,4.223,0,0,1,2.835-.118,1.344,1.344,0,0,0,1.476-.679c.65-1.2,1.875-3.145,3.027-3.425a.827.827,0,0,1,.709.1,1.388,1.388,0,0,0,2.17-.842.64.64,0,0,1,0-.074C172.791,56.776,171.167,56.481,171.167,56.481Z" transform="translate(68.806 26.888)" fill="url(#linear-gradient-13)"/>
      <path id="Path_33731" data-name="Path 33731" d="M115.207,83H89.488s-1.476-.369-.871,8.7c.162,2.554,1.594,3.263,3.219,1.476,1.152-1.314,2.023-2.79,2.554-2.79s.443,1.078,1.284,1.181c.561,0,2.141-3.912,3.233-3.839,1.476.1,2.037,4.134,3.248,7.781.458,1.373,2.023,1.831,2.613.517a10.453,10.453,0,0,1,1.831-3.2,4.222,4.222,0,0,1,2.835-.118,1.343,1.343,0,0,0,1.476-.679c.65-1.211,1.875-3.145,2.953-3.425a.827.827,0,0,1,.709.1,1.388,1.388,0,0,0,2.17-.842h0C116.831,83.252,115.207,83,115.207,83Z" transform="translate(42.147 39.522)" fill="url(#linear-gradient-14)"/>
      <path id="Path_33732" data-name="Path 33732" d="M163.625,83h-25.7s-1.476-.369-.886,8.7c.177,2.554,1.595,3.263,3.233,1.476,1.211-1.314,2.023-2.79,2.539-2.79s.458,1.078,1.3,1.181c.546,0,2.141-3.912,3.233-3.839,1.476.1,2.037,4.134,3.248,7.781.458,1.373,2.023,1.831,2.6.517a10.083,10.083,0,0,1,1.845-3.2,4.178,4.178,0,0,1,2.82-.118,1.344,1.344,0,0,0,1.476-.679c.664-1.211,1.89-3.145,2.953-3.425a.827.827,0,0,1,.709.1,1.388,1.388,0,0,0,2.17-.842h0C165.264,83.252,163.625,83,163.625,83Z" transform="translate(65.216 39.522)" fill="url(#linear-gradient-15)"/>
      <path id="Path_33733" data-name="Path 33733" d="M239.4,48.706s0,.694-.089,1.949C213.473,48.469,76.036,48.1,76.036,48.1c-1.476,8.962-2.849,76.477-2.849,76.477l-1.476-.1s.251-35.847,3.381-77.333C75.091,47.141,197.631,45.458,239.4,48.706Z" transform="translate(34.162 22.232)" fill="url(#linear-gradient-16)"/>
      <path id="Path_33734" data-name="Path 33734" d="M187.478,87.33h0a2.554,2.554,0,0,1-2.406-2.7l.812-14a2.569,2.569,0,0,1,2.7-2.421h0a2.584,2.584,0,0,1,2.407,2.717l-.812,14A2.569,2.569,0,0,1,187.478,87.33Z" transform="translate(88.164 32.476)" fill="url(#linear-gradient-17)"/>
      <path id="Path_33735" data-name="Path 33735" d="M186.928,87.33h0a2.554,2.554,0,0,1-2.407-2.7l.812-14a2.584,2.584,0,0,1,2.7-2.421h0a2.569,2.569,0,0,1,2.407,2.717l-.782,14a2.569,2.569,0,0,1-2.731,2.407Z" transform="translate(87.902 32.476)" fill="url(#linear-gradient-18)"/>
      <ellipse id="Ellipse_550" data-name="Ellipse 550" cx="8.563" cy="6.053" rx="8.563" ry="6.053" transform="translate(151.406 87.79) rotate(-26.88)" fill="url(#linear-gradient-19)"/>
      <path id="Path_33736" data-name="Path 33736" d="M111.24,57.967a2.953,2.953,0,0,1-1.476,2.6,3.1,3.1,0,0,1-1.476.4,3,3,0,0,1,0-5.994,3.1,3.1,0,0,1,1.476.4A2.953,2.953,0,0,1,111.24,57.967Z" transform="translate(50.159 26.17)" fill="url(#linear-gradient-20)"/>
      <path id="Path_33737" data-name="Path 33737" d="M110.3,57.838a2.953,2.953,0,0,1-1.476,2.6,2.953,2.953,0,0,1,0-5.2A2.953,2.953,0,0,1,110.3,57.838Z" transform="translate(51.102 26.298)" fill="url(#linear-gradient-21)"/>
      <path id="Path_33738" data-name="Path 33738" d="M117.005,57.966a2.953,2.953,0,1,1-1.476-2.6A2.953,2.953,0,0,1,117.005,57.966Z" transform="translate(52.927 26.171)" fill="url(#linear-gradient-22)"/>
      <path id="Path_33739" data-name="Path 33739" d="M116.077,57.838a2.953,2.953,0,0,1-1.476,2.6,2.953,2.953,0,0,1,0-5.2A2.953,2.953,0,0,1,116.077,57.838Z" transform="translate(53.856 26.298)" fill="url(#linear-gradient-21)"/>
      <path id="Path_33740" data-name="Path 33740" d="M115.339,79.578c.591,3.5,1.624,13.819-4.99,21.614a76.078,76.078,0,0,1-15.281,14.1s-4.267,4.3-5.906,14.218S85.472,149.692,74.65,158.24c-16.742,13.184-31.418,13.627-31.418,13.627-3.145-14.557-7.382-31.329-4.075-42.328s20.581-40.158,28.731-76.61l4.237-1.993c5.787-2.7,16.9-7.84,29.528-13.435,5.787-2.554,11.9-5.226,17.953-7.781A2.953,2.953,0,0,1,122,31.61a6.2,6.2,0,0,1,.472,2.554S121.3,46.521,106.762,54.73C91.274,63.47,80.187,65.523,80.187,65.523s-6.083,28.1-5.374,43.746a85.365,85.365,0,0,0,10.2-8.489,99.539,99.539,0,0,0,9.449-10.335c9.478-12.033,11-14.351,12.372-15.576a1.329,1.329,0,0,1,.62-.281,7.2,7.2,0,0,1,3.971,1.019,11.944,11.944,0,0,1,3.661,2.776S115.192,78.854,115.339,79.578Z" transform="translate(18.082 14.141)" fill="url(#linear-gradient-24)"/>
      <path id="Path_33741" data-name="Path 33741" d="M111.428,75.548h0c4.429,4.311-1.181,17.879-10.748,25.615s-17.318,5.108-15.664-.413a85.367,85.367,0,0,1-10.2,8.489C74.105,93.6,80.2,65.553,80.2,65.553S91.276,63.5,106.778,54.76c14.528-8.224,15.694-20.581,15.694-20.581,0-4.282-2.849-4.429-2.849-4.429C115.267,31.6,101.669,37.5,101.669,37.5c5.153,3.558.723,10.261-7.382,12.889-14.306,4.592-25.955,6.511-22.146.546L67.9,52.929c-1.24,5.522-2.687,10.881-4.252,16.034,0,0,8.858-4.828,7.6,9.065-2.643,31-6.5,33.795-10.453,38.814-7.722,9.788-21.629,12.667-21.629,12.667-3.351,11,.93,27.771,4.075,42.328,0,0,14.675-.413,31.373-13.6,10.807-8.534,12.815-18.868,14.5-28.745s5.906-14.218,5.906-14.218a76.078,76.078,0,0,0,15.34-14.1c8.105-9.537,4.739-22.855,4.739-22.855a11.944,11.944,0,0,0-3.676-2.776ZM72.776,144.289c-1.639,4.99-18.337,20.049-20.581,20.67s-5.492-10.586-3.056-17.613,9.848-18.529,15.886-23.755C72.393,117.226,74.4,139.284,72.776,144.289Z" transform="translate(18.081 14.155)" opacity="0.5" fill="url(#linear-gradient-25)"/>
      <path id="Path_33742" data-name="Path 33742" d="M100.7,31.619c-2.6,1.934-11.959,6.954-13.376,7.175s-4.547-.96-4.665-2.333c5.787-2.554,9.611-4.208,15.664-6.762A2.953,2.953,0,0,1,100.7,31.619Z" transform="translate(39.378 14.131)" opacity="0.5" fill="url(#linear-gradient-26)"/>
      <path id="Path_33743" data-name="Path 33743" d="M95.871,65.116C92.918,71.3,88.489,77.488,87.219,78.4c-1.639,1.166-9.006-3.484-8.356-4.739a96.218,96.218,0,0,1,9.08-13.583A7.2,7.2,0,0,1,91.914,61.1a11.944,11.944,0,0,1,3.661,2.776S95.723,64.393,95.871,65.116Z" transform="translate(37.55 28.602)" opacity="0.5" fill="url(#linear-gradient-27)"/>
      <path id="Path_33744" data-name="Path 33744" d="M83.4,36.324c-.723.4,2.466,1.7,4.222,1.4s12.771-6.1,12.771-6.1-1.152-2.953-3.543-2.451C96.854,29.164,93.8,30.684,83.4,36.324Z" transform="translate(39.683 13.856)" fill="url(#linear-gradient-28)"/>
      <path id="Path_33745" data-name="Path 33745" d="M79.885,73.3c-.34,1.181,4.665,3.972,6.275,3.514S95.3,64.546,95.3,64.546a6.245,6.245,0,0,0-2.274-3.056,6.452,6.452,0,0,0-5.581-1.358S81.347,68.547,79.885,73.3Z" transform="translate(38.049 28.553)" fill="url(#linear-gradient-29)"/>
      <path id="Path_33746" data-name="Path 33746" d="M252.822,138.257c-13.642,24.036-18.735,53.062-18.735,53.062-3.115,17.717-14.941,44.439-20.315,56.029-1.654,3.558-2.7,5.684-2.7,5.684-32.392,8.253-41.856-12.21-41.856-12.21l29.395-52.707c-8.342-4.429-22.825-18.942-24.213-25.822q-.856-4.429-1.772-8.3h0c-.915-4.031-1.845-7.677-2.776-10.984-6.363-22.766-12.52-29.085-15.532-33.957-3.75-6.127-4.208-19.533-3.75-21.57a8.415,8.415,0,0,1,1.742-3.322,10.334,10.334,0,0,1,1.137-1.137,9.537,9.537,0,0,1,3.927-2.037c2.17-.561,5.979-1.063,8.622,1.225l.266.221c2.643,2.554,6.924,22.515,6.924,22.515s.236.723.679,1.9c1.344,3.588,4.592,11.265,8.858,14.764,5.7,4.68,18.868,6.924,18.868,6.924a89.6,89.6,0,0,0,17.6-20.729A121.064,121.064,0,0,0,227.812,87.4c.856-2.658,1.329-4.341,1.329-4.341-7.943-2.229-29.941-11-35.035-20.153a25.675,25.675,0,0,1-3.5-14.764,9.824,9.824,0,0,1,.236-1.476,8.7,8.7,0,0,1,5.4-3.661c2.953,1.683,6.289,3.661,9.774,5.817,2.141,1.329,4.355,2.731,6.57,4.163,10.335,6.614,21.009,13.922,27.8,18.632h0c4.429,3.027,7.116,4.975,7.116,4.975a110.229,110.229,0,0,1-2.835,19.429C251.8,121.249,252.822,138.257,252.822,138.257Z" transform="translate(71.659 20.467)" fill="url(#linear-gradient-30)"/>
      <path id="Path_33747" data-name="Path 33747" d="M252.822,138.257c-13.642,24.036-18.735,53.062-18.735,53.062-3.115,17.717-14.941,44.439-20.315,56.029h0s10.748-34.946,8-52.353a120.724,120.724,0,0,1-23.15-6.88c-8.342-4.429-22.825-18.942-24.213-25.822q-.856-4.429-1.772-8.3c.177.34,5.906,11.117,12.165,15.177s17.1,6.053,18.942,5.551,4.429-27.328,3.056-33.706-24.523-17.008-28.731-14.675c-2.761,1.476-6.157,10.482-8.224,16.654-6.363-22.766-12.52-29.085-15.532-33.957-3.75-6.127-4.208-19.533-3.75-21.57a8.416,8.416,0,0,1,1.742-3.322c.089,8.15,3.957,25.66,12.726,29.631,6.186,2.82,8.179-3.174,8.858-6.939,1.344,3.588,4.592,11.265,8.858,14.764,5.7,4.68,18.868,6.924,18.868,6.924,5.167,4.075,23.15-12.461,28.465-21.349,2.008-3.351-2.215-19.739-2.215-19.739.856-2.658,1.329-4.341,1.329-4.341-7.943-2.229-29.941-11-35.035-20.153s-3.263-16.24-3.263-16.24A8.7,8.7,0,0,1,196.247,43c4.813,2.717,10.512,6.23,16.344,9.98,0,0-7.958-1.993-8.858,2.51S230.307,75.717,234.9,76.868s7.8-3.647,5.507-5.241c4.429,3.027,7.116,4.975,7.116,4.975a110.229,110.229,0,0,1-2.835,19.429C251.8,121.249,252.822,138.257,252.822,138.257Z" transform="translate(71.659 20.467)" opacity="0.5" fill="url(#linear-gradient-31)"/>
      <path id="Path_33748" data-name="Path 33748" d="M223.791,121.164A63.4,63.4,0,0,0,211.36,100.6a213.443,213.443,0,0,0,4.3-21.718C222.772,104.156,223.791,121.164,223.791,121.164Z" transform="translate(100.69 37.56)" opacity="0.5" fill="url(#linear-gradient-32)"/>
      <path id="Path_33749" data-name="Path 33749" d="M215.9,99.772c-4.09,4.429-23.947,45.768-22.146,52.752s20.566-9.921,22.146-13.583,8.179-17.982,7.264-24.493S220.273,95.107,215.9,99.772Z" transform="translate(92.249 47.037)" opacity="0.5" fill="url(#linear-gradient-33)"/>
      <path id="Path_33750" data-name="Path 33750" d="M171.422,102.669c-2.658,4.931-6.319,13.288-5.094,16.609s10.689,20.773,17.525,22.146,8.135-22.973,5.079-29.174S173.962,97.929,171.422,102.669Z" transform="translate(79.121 48.216)" opacity="0.5" fill="url(#linear-gradient-34)"/>
      <path id="Path_33751" data-name="Path 33751" d="M167.6,83.9c-.4,2.717-9.862,4.68-10.335,4-2.156-2.849-3.927-11.988-4.769-17.038a9.537,9.537,0,0,1,3.927-2.037c2.17-.561,5.979-1.063,8.622,1.225C166.157,74.625,167.884,82.051,167.6,83.9Z" transform="translate(72.65 32.543)" opacity="0.5" fill="url(#linear-gradient-35)"/>
      <path id="Path_33752" data-name="Path 33752" d="M193.906,50.559c.074,1.3-3.159,4.872-4.577,4.872-1.063,0-8.046-4.8-11.649-7.382a9.828,9.828,0,0,1,.236-1.476A8.7,8.7,0,0,1,183.261,43c2.953,1.683,6.289,3.661,9.774,5.817a6,6,0,0,1,.871,1.742Z" transform="translate(84.645 20.467)" opacity="0.5" fill="url(#linear-gradient-36)"/>
      <path id="Path_33753" data-name="Path 33753" d="M177.68,47.762s10.335,6.732,11.235,6.57,4.71-4.533,4.429-4.946c-2.805-3.366-10.1-6.806-10.1-6.806a4.931,4.931,0,0,0-3.2,1.137,6.053,6.053,0,0,0-2.362,4.045Z" transform="translate(84.645 20.267)" fill="url(#linear-gradient-37)"/>
      <path id="Path_33754" data-name="Path 33754" d="M157.829,86.389c.546.591,9.065-2.052,8.947-3.086-1.152-10.423-2.746-14.616-2.746-14.616a9.478,9.478,0,0,0-6.2-.856A8.563,8.563,0,0,0,152.47,71.2S154.906,83.3,157.829,86.389Z" transform="translate(72.635 32.207)" fill="url(#linear-gradient-38)"/>
      <path id="Path_33755" data-name="Path 33755" d="M191.925,146.264c-3.706,4.533-25.364,41.856-24.139,45.1s10.335,8.4,20.359,10.335c4.075.812,10.807-32.791,11.206-38.091S195.675,141.583,191.925,146.264Z" transform="translate(79.908 69.272)" opacity="0.5" fill="url(#linear-gradient-39)"/>
      <ellipse id="Ellipse_551" data-name="Ellipse 551" cx="4.769" cy="4.769" rx="4.769" ry="4.769" transform="translate(218.771 169.576)" fill="#ffb53e"/>
      <ellipse id="Ellipse_552" data-name="Ellipse 552" cx="7.072" cy="7.072" rx="7.072" ry="7.072" transform="translate(223.54 214.68)" fill="#ffb53e"/>
      <ellipse id="Ellipse_553" data-name="Ellipse 553" cx="3.75" cy="3.75" rx="3.75" ry="3.75" transform="translate(10.423 178.478)" fill="url(#linear-gradient-40)"/>
      <ellipse id="Ellipse_554" data-name="Ellipse 554" cx="6.334" cy="6.334" rx="6.334" ry="6.334" transform="translate(49.71 77.655)" fill="#ffa694"/>
      <ellipse id="Ellipse_555" data-name="Ellipse 555" cx="3.78" cy="3.78" rx="3.78" ry="3.78" transform="translate(324.481 25.627)" fill="#ffa694"/>
      <ellipse id="Ellipse_556" data-name="Ellipse 556" cx="12.033" cy="12.033" rx="12.033" ry="12.033" transform="translate(308.152 47.286)" fill="#ffa694"/>
      <ellipse id="Ellipse_557" data-name="Ellipse 557" cx="2.126" cy="2.126" rx="2.126" ry="2.126" transform="translate(318.28 214.665)" fill="url(#linear-gradient-41)"/>
    </g>
  </g>
</svg>
