<svg width="16" height="16" viewBox="0 0 16 16" fill="none" xmlns="http://www.w3.org/2000/svg">
<g id="Frame" clip-path="url(#clip0_976_3468)">
<g id="Group">
<path id="Vector" d="M15.1168 2.96478e-08H0.882438C0.395031 0.00025003 -0.00012497 0.395625 2.96478e-08 0.883187V15.1176C0.00025003 15.605 0.395625 16.0001 0.883187 16H15.1168C15.6045 16.0001 15.9999 15.6048 16 15.1172V0.882438C15.9998 0.395031 15.6044 -0.00012497 15.1168 2.96478e-08Z" fill="#4267B2"/>
<path id="Vector_2" d="M11.0469 15.9996V9.81214H13.1328L13.4453 7.39026H11.0469V5.84777C11.0469 5.1482 11.2411 4.67152 12.2443 4.67152H13.5156V2.51123C13.2944 2.48183 12.5355 2.41602 11.6525 2.41602C9.80872 2.41602 8.54688 3.54102 8.54688 5.60789V7.39026H6.46875V9.81214H8.54688V15.9996H11.0469Z" fill="white"/>
</g>
</g>
<defs>
<clipPath id="clip0_976_3468">
<rect width="16" height="16" fill="white"/>
</clipPath>
</defs>
</svg>
