<svg width="185" height="185" viewBox="0 0 185 185" fill="none" xmlns="http://www.w3.org/2000/svg">
<circle cx="10.2269" cy="10.2269" r="10.2269" transform="matrix(0.866025 0.5 -0.866025 0.5 58.3174 120.797)" fill="black"/>
<path d="M46.3078 45.6431L51.2442 62.6264L62.624 59.7847L46.8827 45.2869C46.6213 45.0461 46.2086 45.3018 46.3078 45.6431Z" fill="#3EA59E"/>
<path d="M39.8235 66.2243L45.6686 45.5844C45.7648 45.2444 46.2463 45.2436 46.3438 45.5832L51.2576 62.7092L39.8235 66.2243Z" fill="#09454A"/>
<path d="M93.8381 92.0952L76.6572 87.6186L73.3961 99.1634L93.8543 92.77C94.1911 92.6647 94.1795 92.1842 93.8381 92.0952Z" fill="#CEF8F5"/>
<path d="M79.2192 76.1969L94.149 91.5558C94.397 91.8109 94.1518 92.2306 93.8078 92.14L76.6447 87.6184L79.2192 76.1969Z" fill="#81D9CA"/>
<path d="M31.7762 109.166L42.9672 96.9535L52.8236 104.116L32.1271 109.742C31.7877 109.834 31.5386 109.425 31.7762 109.166Z" fill="#81D9CA"/>
<path d="M35.556 87.8952L31.2407 108.865C31.1689 109.214 31.6031 109.435 31.8437 109.172L43.7181 96.1835L35.556 87.8952Z" fill="#09454A"/>
<path d="M83.3007 54.4691L51.2236 62.6382L56.4309 82.8489L83.6115 55.0077C83.8395 54.7743 83.6169 54.3886 83.3007 54.4691Z" fill="#094549"/>
<path d="M56.3522 82.6684L83.5228 55.069C83.7713 54.8166 84.1949 55.0493 84.115 55.3944L76.6448 87.677L56.3522 82.6684Z" fill="#3EA49E"/>
<path d="M19.6931 72.2789L51.2537 62.6375L56.3761 82.6514L19.7059 72.9541C19.3643 72.8637 19.3551 72.3822 19.6931 72.2789Z" fill="#CEF8F5"/>
<path d="M56.4543 82.6702L19.7726 72.954C19.4271 72.8625 19.1818 73.2855 19.4327 73.5399L42.7758 97.2053L56.4543 82.6702Z" fill="#3DA49D"/>
<path d="M66.5726 120L42.7576 97.2051L56.3846 82.6493L67.1525 119.649C67.2528 119.994 66.832 120.249 66.5726 120Z" fill="#09454A"/>
<path d="M56.3782 82.6445L67.1546 119.708C67.2534 120.048 67.7362 120.045 67.8302 119.704L76.6653 87.6122L56.3782 82.6445Z" fill="#81D9CA"/>
<path d="M62.1703 59.4563L46.8857 45.3469C46.5023 44.9931 45.8807 45.166 45.7352 45.667L39.9123 65.7128C39.8463 65.9401 39.6702 66.1188 39.444 66.1882L19.5978 72.2773C19.096 72.4313 18.9344 73.0613 19.3002 73.4378L34.789 89.38C34.9491 89.5448 35.0185 89.7776 34.9746 90.0033L31.3058 108.871C31.2064 109.382 31.6783 109.82 32.1804 109.682L50.1554 104.76C50.3939 104.694 50.6493 104.759 50.8276 104.931L66.63 120.131C67.0155 120.502 67.6574 120.323 67.7952 119.806L73.1991 99.5415C73.2614 99.3081 73.4392 99.1231 73.6699 99.0516L93.8809 92.7955C94.383 92.6401 94.5426 92.0085 94.1747 91.6332L79.4845 76.6492C79.316 76.4774 79.2473 76.2312 79.3024 75.997L84.1535 55.3673C84.2738 54.8558 83.8104 54.3983 83.3005 54.5252L62.8161 59.6217C62.5867 59.6788 62.344 59.6166 62.1703 59.4563Z" stroke="black" stroke-width="0.351064"/>
<path d="M19.9452 72.747L55.968 82.5359C56.2121 82.6022 56.473 82.5321 56.651 82.3524L83.4118 55.3301" stroke="black" stroke-width="0.351064"/>
<path d="M46.37 46.0029L67.0703 119.394" stroke="black" stroke-width="0.351064"/>
<path d="M32.2195 109.018L56.4284 82.608C56.6048 82.4155 56.8734 82.3368 57.1258 82.4037L93.8308 92.1305" stroke="black" stroke-width="0.351064"/>
<path d="M34.6505 89.4064L51.7111 105.733" stroke="black" stroke-width="0.351064"/>
<path d="M79.5292 75.126L72.8605 100.852" stroke="black" stroke-width="0.351064"/>
<path d="M39.1588 66.2799L63.0258 59.5724" stroke="black" stroke-width="0.351064"/>
<path d="M74.1656 130.603C72.5041 129.703 72.4696 128.173 74.0888 127.196L127.922 94.7467C129.501 93.7949 132.071 93.7233 133.717 94.5852L162.564 109.696C164.304 110.608 164.324 112.198 162.607 113.177L106.76 145.052C105.15 145.971 102.605 146.009 100.999 145.139L74.1656 130.603Z" fill="black"/>
<path d="M152.558 69.4867L92.6896 106.472L70.7663 100.991L73.3585 94.9429C73.4547 94.7185 73.621 94.5312 73.8325 94.4091L134.267 59.5273C134.618 59.3249 135.05 59.3255 135.4 59.5286L152.558 69.4867Z" fill="#FFD979" stroke="black" stroke-width="0.388591" stroke-linejoin="round"/>
<mask id="mask0_3944_12864" style="mask-type:alpha" maskUnits="userSpaceOnUse" x="68" y="61" width="84" height="46">
<path d="M151.181 70.5436L90.4501 106.471L68.5269 100.99L74.2386 95.1019C74.3116 95.0266 74.3948 94.9618 74.4857 94.9095L131.811 61.8877C132.133 61.7024 132.525 61.6868 132.86 61.846L151.181 70.5436Z" fill="#FFD979"/>
</mask>
<g mask="url(#mask0_3944_12864)">
<path opacity="0.9" d="M66.2874 81.8877H131.114V91.6117H66.2874V81.8877Z" fill="white"/>
<rect opacity="0.9" x="82.4941" y="75.4053" width="64.8269" height="3.24134" fill="white"/>
</g>
<path d="M73.2681 95.1292L65.8637 111.609C65.5927 112.212 66.0915 113.329 66.8025 113.712L98.0482 130.511C99.4251 131.252 100.324 130.134 99.7798 128.359L92.7876 105.536C92.6272 105.013 92.2533 104.525 91.8476 104.31L74.1328 94.9296C73.7512 94.7275 73.4136 94.8054 73.2681 95.1292Z" fill="#C28C02" stroke="black" stroke-width="0.388591" stroke-linejoin="round"/>
<path d="M96.0894 129.46L92.4308 105.302C92.3613 104.844 92.5791 104.389 92.98 104.156L152.654 69.4395L160.207 89.6258C160.688 90.9123 160.187 92.3594 159.013 93.0726L97.794 130.257C97.1042 130.676 96.2103 130.258 96.0894 129.46Z" fill="#F7CC60" stroke="black" stroke-width="0.388591" stroke-linejoin="round"/>
</svg>
