<svg width="28" height="28" viewBox="0 0 28 28" fill="none" xmlns="http://www.w3.org/2000/svg">
<path d="M24.1442 4.62195H3.82758C3.48827 4.62195 3.21289 4.34657 3.21289 4.00727C3.21289 3.66796 3.48827 3.39258 3.82758 3.39258H24.1442C24.4835 3.39258 24.7589 3.66796 24.7589 4.00727C24.7589 4.34657 24.4835 4.62195 24.1442 4.62195Z" fill="#A5381B"/>
<path d="M17.8948 4.62197H10.0815C9.74218 4.62197 9.4668 4.34659 9.4668 4.00728V2.41586C9.4668 1.16835 10.4816 0.153809 11.7288 0.153809H16.2477C17.4949 0.153809 18.5095 1.16866 18.5095 2.41586V4.00728C18.5095 4.3469 18.2341 4.62197 17.8948 4.62197ZM10.6962 3.3926H17.2801V2.41586C17.2801 1.84635 16.8169 1.38318 16.2477 1.38318H11.7288C11.1593 1.38318 10.6962 1.84635 10.6962 2.41586V3.3926Z" fill="#A5381B"/>
<path d="M22.831 6.11293C22.7148 5.98969 22.5532 5.91992 22.3838 5.91992H5.59332C5.42397 5.91992 5.26231 5.98969 5.14614 6.11293C5.02996 6.23587 4.96972 6.40153 4.97956 6.57057L6.09737 25.6625C6.16805 26.8691 7.1703 27.8145 8.37939 27.8145H19.5971C20.8062 27.8145 21.8085 26.8691 21.8798 25.6621L22.9976 6.57026C23.0071 6.40153 22.9469 6.23587 22.831 6.11293ZM10.2318 23.5421C10.2195 23.543 10.2075 23.5433 10.1952 23.5433C9.87216 23.5433 9.60108 23.2913 9.58203 22.9646L8.87821 10.9431C8.85854 10.6041 9.11702 10.3134 9.45602 10.2937C9.79041 10.2747 10.0858 10.5325 10.1054 10.8715L10.8093 22.8927C10.8292 23.2314 10.5708 23.5221 10.2318 23.5421ZM14.6031 22.9286C14.6031 23.2679 14.3277 23.5433 13.9884 23.5433C13.6491 23.5433 13.3737 23.2679 13.3737 22.9286V10.9072C13.3737 10.5679 13.6491 10.2925 13.9884 10.2925C14.3277 10.2925 14.6031 10.5679 14.6031 10.9072V22.9286ZM18.3945 22.9646C18.3754 23.2913 18.1047 23.5433 17.7817 23.5433C17.7697 23.5433 17.7574 23.543 17.7451 23.5421C17.4061 23.5224 17.1476 23.2314 17.1676 22.8927L17.8714 10.8715C17.8908 10.5325 18.1766 10.2716 18.5208 10.2937C18.8598 10.3134 19.1183 10.6045 19.0986 10.9431L18.3945 22.9646Z" fill="#A5381B"/>
</svg>
