<svg width="84" height="78" viewBox="0 0 84 78" fill="none" xmlns="http://www.w3.org/2000/svg">
<path d="M59.3008 29.5313L58.9022 29.6807C58.7847 29.7065 58.6801 29.7914 58.5625 29.8172C58.0593 30.0516 57.7256 30.4967 57.5355 31.0343C57.3125 31.7031 57.4682 32.4127 57.8919 32.9396C58.0744 33.2095 58.1522 33.5643 58.0407 33.8987C57.975 34.1611 57.7788 34.3901 57.5566 34.5008C57.4978 34.5137 57.439 34.5266 57.3932 34.5986C57.2757 34.6244 57.171 34.7094 57.0535 34.7352C56.5503 34.9695 56.2166 35.4146 56.0265 35.9522C55.8035 36.621 55.9592 37.3307 56.3829 37.8575C56.5654 38.1274 56.6432 38.4823 56.5317 38.8166C56.466 39.079 56.2698 39.308 56.0476 39.4187C55.9888 39.4316 55.93 39.4445 55.8842 39.5166C55.7666 39.5424 55.662 39.6273 55.5445 39.6531C55.0413 39.8875 54.7076 40.3326 54.5175 40.8702C54.2945 41.5389 54.4502 42.2486 54.8739 42.7755C55.0563 43.0454 55.1342 43.4002 55.0227 43.7346C54.957 43.9969 54.7608 44.2259 54.5386 44.3367C54.4798 44.3496 54.421 44.3625 54.3752 44.4345C54.3164 44.4474 54.3164 44.4474 54.2576 44.4603C54.0354 44.571 53.911 44.8463 54.0217 45.0699C54.0865 45.3656 54.4324 45.5377 54.7134 45.414C54.8309 45.3882 54.9356 45.3033 55.0531 45.2775C55.5563 45.0431 55.89 44.598 56.0801 44.0604C56.3031 43.3917 56.1474 42.682 55.7237 42.1551C55.5412 41.8852 55.4634 41.5304 55.5749 41.196C55.6406 40.9337 55.8368 40.7047 56.059 40.5939C56.1178 40.581 56.1766 40.5681 56.2224 40.4961C56.34 40.4703 56.4446 40.3854 56.5621 40.3596C57.0653 40.1252 57.399 39.6801 57.5891 39.1425C57.8121 38.4737 57.6564 37.7641 57.2327 37.2372C57.0503 36.9673 56.9724 36.6125 57.0839 36.2781C57.1496 36.0157 57.3458 35.7867 57.568 35.676C57.6268 35.6631 57.6856 35.6502 57.7314 35.5782C57.849 35.5524 57.9536 35.4674 58.0712 35.4416C58.5743 35.2073 58.908 34.7622 59.0981 34.2246C59.3211 33.5558 59.1654 32.8461 58.7417 32.3193C58.5593 32.0494 58.4814 31.6945 58.5929 31.3602C58.6586 31.0978 58.8548 30.8688 59.077 30.7581C59.1358 30.7452 59.1946 30.7323 59.2404 30.6602L59.639 30.5108C59.6977 30.4979 59.6977 30.4979 59.7565 30.485C59.9787 30.3743 60.1032 30.099 59.9925 29.8754C59.8818 29.6517 59.5948 29.4668 59.3008 29.5313Z" fill="#D8F3DF"/>
<path d="M26.9584 38.8138C27.2546 38.6648 27.3287 38.2923 27.1065 37.9943C27.0324 37.8453 26.8103 37.6963 26.5881 37.6963C26.44 37.6963 26.3659 37.6963 26.2918 37.7708C25.5512 38.2923 25.329 39.2608 25.6994 40.0058C25.7734 40.1548 25.7734 40.3784 25.6994 40.5274C25.6253 40.6764 25.4772 40.8254 25.255 40.8254C24.6625 40.8999 24.2181 41.2724 23.9219 41.7194C23.6256 42.1664 23.6256 42.8369 23.9219 43.3584C23.996 43.5074 23.996 43.7309 23.9219 43.8799C23.8478 44.0289 23.8478 44.1779 23.8478 44.3269C23.8478 44.4759 23.996 44.625 24.1441 44.6995C24.2181 44.774 24.2922 44.774 24.4403 44.774C24.6625 44.774 24.8847 44.625 24.9587 44.4759C25.1809 43.9544 25.1809 43.3584 24.9587 42.9114C24.8847 42.7624 24.8847 42.5389 24.9587 42.3899C25.0328 42.2409 25.1809 42.0919 25.4031 42.0919C25.9956 42.0174 26.44 41.6449 26.7362 41.1979C27.0324 40.6764 27.0324 40.0803 26.7362 39.5588C26.6621 39.2608 26.8103 38.9628 26.9584 38.8138Z" fill="#D8F3DF"/>
<path d="M36.5859 27.7129C36.4378 27.4894 36.1415 27.4149 35.9194 27.4894C35.8453 27.4894 35.7712 27.5639 35.7712 27.5639C35.1788 27.9364 34.8085 28.6068 34.7344 29.2773C34.6603 29.9478 34.8825 30.6928 35.3269 31.2143C35.6231 31.5123 35.6972 31.8848 35.6231 32.2573C35.5491 32.6298 35.2528 32.9278 34.8825 33.0767C34.1419 33.3747 33.6235 33.9707 33.4013 34.7902C33.2532 35.5352 33.4013 36.3547 33.9197 36.9507C34.216 37.2487 34.29 37.6212 34.216 37.9936C34.1419 38.3661 33.8457 38.6641 33.4754 38.8131C32.7347 39.1111 32.2163 39.7071 31.9941 40.5266C31.846 41.2716 31.9941 42.0911 32.5126 42.687C32.6607 42.836 32.8829 42.9105 33.1051 42.836C33.1791 42.836 33.2532 42.7615 33.3272 42.687C33.5494 42.4636 33.6235 42.0911 33.4013 41.7931C33.105 41.4951 33.031 41.1226 33.1051 40.7501C33.1791 40.3776 33.4754 40.0796 33.8457 39.9306C34.5863 39.6326 35.1047 39.0366 35.3269 38.2171C35.475 37.4722 35.3269 36.6527 34.8084 36.0567C34.5122 35.7587 34.4381 35.3862 34.5122 35.0137C34.5863 34.6412 34.8825 34.3432 35.2528 34.1942C35.9934 33.8962 36.5118 33.3002 36.734 32.4808C36.8822 31.7358 36.734 30.9163 36.2156 30.3203C35.9934 30.0968 35.8453 29.7243 35.9194 29.3518C35.9934 28.9793 36.1415 28.6813 36.4378 28.5323C36.5859 28.4578 36.66 28.3088 36.734 28.1598C36.66 28.0109 36.66 27.8619 36.5859 27.7129Z" fill="url(#paint0_linear)"/>
<path d="M52.031 31.5171C51.8829 31.2936 51.5866 31.1446 51.2904 31.2191C51.2163 31.2191 51.1423 31.2936 51.1423 31.2936C49.9573 32.0386 49.587 33.4541 50.1795 34.7207C50.4017 35.0932 50.3276 35.5402 50.1054 35.9127C49.9573 36.2107 49.661 36.4342 49.3648 36.5087C49.2907 36.5087 49.2167 36.5087 49.1426 36.5832C48.9945 36.5832 48.8464 36.6577 48.6982 36.6577C48.0317 36.8812 47.4392 37.2537 47.143 37.9242C46.6986 38.6693 46.6986 39.6378 47.0689 40.3828C47.217 40.7553 47.217 41.2023 46.9948 41.5748C46.9208 41.7238 46.9208 41.9473 46.9208 42.0963C46.9948 42.2453 47.0689 42.3943 47.217 42.4688C47.3652 42.5434 47.5873 42.5433 47.7355 42.5433C47.8836 42.4688 48.0317 42.3943 48.1798 42.2453C48.6242 41.5003 48.6242 40.6063 48.2539 39.7868C48.0317 39.4143 48.1058 38.9673 48.3279 38.5948C48.4761 38.2968 48.7723 38.0732 49.0686 37.9987C49.1426 37.9987 49.2167 37.9987 49.2907 37.9242C49.4389 37.9242 49.587 37.8497 49.7351 37.8497C50.4016 37.6262 50.9941 37.2537 51.3644 36.5832C51.8088 35.8382 51.8088 34.8697 51.4385 34.1247C51.1423 33.5286 51.3644 32.7836 51.9569 32.4856C52.1791 32.2621 52.2532 31.8151 52.031 31.5171Z" fill="#FF9E0B"/>
<path d="M42.4682 33.4434C42.6904 33.2199 42.6904 32.7729 42.3941 32.5494C42.246 32.4004 42.0238 32.4004 41.8016 32.4004C41.6535 32.4004 41.5794 32.4749 41.5054 32.6239C40.9129 33.2944 40.9129 34.4119 41.5794 35.0825C41.7276 35.2315 41.7276 35.3805 41.7276 35.604C41.6535 35.8275 41.5794 35.9765 41.3573 36.051C40.8388 36.2745 40.3945 36.796 40.2463 37.3175C40.0982 37.9135 40.3204 38.5095 40.6907 38.9565C40.8388 39.1055 40.8388 39.2545 40.8388 39.4781C40.8388 39.6271 40.8388 39.7761 40.9129 39.9251C40.987 40.0741 41.1351 40.1486 41.2832 40.2231C41.3573 40.2231 41.5054 40.2231 41.5794 40.2231C41.8016 40.1486 41.9497 39.9996 42.0238 39.7761C42.1719 39.18 41.9497 38.584 41.5794 38.137C41.4313 37.988 41.4313 37.839 41.4313 37.6155C41.5054 37.392 41.5794 37.243 41.8016 37.1685C42.3201 36.945 42.7644 36.4235 42.9125 35.902C43.0607 35.306 42.8385 34.7099 42.4682 34.2629C42.246 33.9649 42.3201 33.6669 42.4682 33.4434Z" fill="#D8F3DF"/>
<path d="M49.1761 43.8789V77.8502H19.0333C17.5521 77.8502 16.4412 76.6582 16.4412 75.2428V43.8789H49.1761Z" fill="#E9EDF5"/>
<path d="M63.3963 43.8789V75.2428C63.3963 76.7327 62.2113 77.8502 60.8042 77.8502H49.1025V43.8789H63.3963Z" fill="#DAE1ED"/>
<path opacity="0.2" d="M63.3963 43.8789V75.2428C63.3963 76.7327 62.2113 77.8502 60.8042 77.8502H49.1025V43.8789H63.3963Z" fill="url(#paint1_linear)"/>
<path d="M28.4393 53.4153C26.7359 53.0428 24.2178 55.7249 23.1069 56.7679C22.2922 57.5129 21.4035 58.3324 20.5888 59.152C19.8482 59.897 19.1816 60.8655 18.1448 61.3125C16.8858 61.834 15.5527 61.387 14.2936 60.94C13.9974 60.8655 13.7752 60.7165 13.553 60.642C12.5162 60.2695 11.5534 59.8225 10.5906 59.2265C9.62779 58.6304 7.99845 57.5129 8.07251 56.1719C8.14657 54.8309 10.3684 53.6388 10.3684 53.6388L15.7008 55.5759C15.5527 55.5759 15.1083 55.8739 14.9602 55.8739C14.6639 56.0229 14.3677 56.1719 14.1455 56.4699C13.9974 56.7679 13.9233 57.1404 13.9974 57.4384C14.0714 57.5874 14.1455 57.7364 14.2196 57.8109C14.2936 57.8109 14.3677 57.8109 14.4417 57.8109C15.0342 57.7364 16.0711 56.6934 16.3673 56.3954C17.7004 55.2779 19.5519 53.7133 21.4775 52.7448C24.6621 51.1803 25.6249 52.4468 28.4393 53.4153Z" fill="url(#paint2_linear)"/>
<path opacity="0.5" d="M30.8093 70.2519L30.2168 52.5212L36.0676 51.5527L36.4379 70.6988L35.7714 70.4008L35.327 66.7504" fill="url(#paint3_linear)"/>
<path d="M36.3639 77.8508H30.5131C30.5131 73.8279 30.5131 69.7305 30.5131 65.7076C30.5131 65.3351 30.5131 65.0371 30.5131 64.6646C30.5131 63.1746 30.439 61.6101 30.1428 60.1202C29.7725 57.9597 29.5503 55.2033 28.5134 53.3408C28.7356 53.4153 28.8837 53.4898 29.1059 53.5643C31.2537 54.1603 34.1421 55.2033 35.253 57.2892C35.7714 58.2577 35.8455 59.5242 35.9195 60.6417C35.9936 61.5357 36.0676 62.3551 36.1417 63.2491C36.1417 63.3236 36.1417 63.4726 36.1417 63.5471C36.2898 65.7821 36.3639 68.0915 36.4379 70.3265C36.4379 70.997 36.4379 77.8508 36.3639 77.8508Z" fill="#FF9E0B"/>
<path opacity="0.4" d="M53.6204 64.4409V53.9367L58.4343 53.6387L57.99 68.9854L56.2866 63.696L53.6204 64.4409Z" fill="url(#paint4_linear)"/>
<path opacity="0.2" d="M58.4343 68.9854L58.1381 77.8511H53.6204V69.2834L58.4343 68.9854Z" fill="url(#paint5_linear)"/>
<path d="M83.7629 57.2152C83.7629 57.2152 85.2441 60.9402 80.8005 62.0576C78.5046 62.6536 74.6534 64.3671 72.3575 63.6221C69.5432 62.7281 68.2101 59.9717 66.6548 57.2897C65.7661 55.7998 64.8033 54.3843 63.174 54.0863C62.6555 54.0118 62.2112 54.0863 61.8409 54.2353C60.5078 54.8313 59.6931 56.5448 59.1747 57.8857C58.5081 59.4502 58.1378 61.1637 58.1378 62.8771C58.2119 65.6336 58.8044 68.3155 58.8784 71.072C58.8784 72.5619 58.8784 74.0519 58.7303 75.4674C58.6563 76.2124 58.6563 77.2553 58.2119 77.9258C58.2119 77.9258 58.2119 77.9258 58.1378 78.0003H53.5461C54.2126 75.7654 55.1754 72.4129 53.9164 66.8255C53.1017 63.1751 53.2498 57.8857 55.916 54.9058C57.3232 53.2668 59.6931 52.4473 61.8409 52.2238C62.5815 52.1493 63.3221 52.1493 63.9146 52.2238C67.6176 52.5963 69.7654 54.8313 71.2466 57.2897C72.7278 59.6737 74.8015 64.2181 76.579 63.4731C78.3565 62.7281 79.0971 58.0347 79.0971 58.0347L83.7629 57.2152Z" fill="#FF9E0B"/>
<path d="M14.2196 56.4697C14.0714 56.7677 13.9974 57.1403 14.0714 57.4383C14.1455 57.5873 14.2196 57.7363 14.2936 57.8108C14.3677 57.8108 14.4417 57.8108 14.5158 57.8108L14.2936 60.9398C13.9974 60.8653 13.7752 60.7163 13.553 60.6418C12.5162 60.2693 11.5534 59.8223 10.5906 59.2263C9.62779 58.6303 7.99845 57.5128 8.07251 56.1717C8.14657 54.8307 10.3684 53.6387 10.3684 53.6387L15.7008 55.5757C15.5527 55.5757 15.1083 55.8737 14.9602 55.8737C14.6639 55.9482 14.3677 56.0972 14.2196 56.4697Z" fill="url(#paint6_linear)"/>
<path d="M36.1418 63.3243L30.4391 64.7398C30.4391 63.2498 30.365 61.6852 30.0688 60.1952C29.6985 58.0346 29.4763 55.2781 28.4395 53.4155C28.6616 53.49 28.8098 53.5645 29.0319 53.639C31.1797 54.235 34.0681 55.2781 35.179 57.3641C35.6974 58.3326 35.7715 59.5992 35.8455 60.7167C35.9937 61.6107 36.0677 62.4302 36.1418 63.3243Z" fill="url(#paint7_linear)"/>
<path d="M29.5502 30.9173C29.9592 30.9173 30.2908 30.5837 30.2908 30.1723C30.2908 29.7608 29.9592 29.4272 29.5502 29.4272C29.1412 29.4272 28.8096 29.7608 28.8096 30.1723C28.8096 30.5837 29.1412 30.9173 29.5502 30.9173Z" fill="url(#paint8_linear)"/>
<path d="M30.9575 30.3959L7.25797 51.1064L0 46.1895L13.2569 29.2039L19.7002 16.9861L29.9947 0.000488281L36.438 4.02341L30.9575 30.3959Z" fill="#CED7E8"/>
<path d="M29.9947 0.000488281L23.7735 25.8515L0 46.1895L11.4794 19.9661L29.9947 0.000488281Z" fill="#E9EDF5"/>
<path d="M30.9571 30.3954L23.7732 25.851L26.2913 15.2722L27.6244 9.6848L29.9943 0L36.4376 4.02292L34.2898 14.0802L33.253 19.3696L30.9571 30.3954Z" fill="#DAE1ED"/>
<path d="M33.2532 19.3704L26.5136 15.1238L26.2914 15.2728L17.4782 20.5624L15.0342 19.0724L27.4764 9.53613L27.6245 9.68514L34.29 14.0807L33.2532 19.3704Z" fill="url(#paint9_linear)"/>
<path d="M16.2934 14.6766L18.0708 10.9517L20.1445 6.92879C20.3667 6.4818 20.9592 6.2583 21.4036 6.4073L24.8104 7.59927C25.4028 7.82277 25.6991 8.41876 25.4028 9.01474L24.8104 10.5047C24.7363 10.6537 24.5882 10.8772 24.4401 10.9517L17.5524 15.8686C17.4043 15.9431 17.2561 16.0921 17.1821 16.3156L14.8121 21.8285C14.7381 21.903 14.7381 21.9775 14.664 22.052C14.2197 22.5735 12.0719 25.1809 10.961 27.6394C9.62788 30.5448 8.14666 32.8543 7.33199 33.4502C7.18387 33.5992 7.03575 33.6737 6.88762 33.7482C6.51732 33.9717 5.99889 33.9717 5.70265 33.6737L2.66615 31.1408C2.29585 30.8428 2.14773 30.2468 2.44397 29.7998C2.81427 29.2038 3.3327 28.3843 4.14737 27.4904C5.70265 25.7769 8.51696 23.5419 8.51696 23.5419L14.0715 18.923C14.1456 18.8485 14.2937 18.6995 14.3678 18.5505L16.2934 14.6766Z" fill="#FF9E0B"/>
<path d="M15.9972 16.8377C17.5524 15.7202 19.7743 12.3676 21.6999 11.1011C23.6254 9.83454 27.8469 8.3445 29.6244 8.64251C31.4759 8.86601 33.994 9.08952 36.512 11.1011C33.6237 11.5481 33.6237 11.5481 33.6237 11.5481L36.1417 14.3046C36.1417 14.3046 32.3646 11.8461 28.7356 12.9636C25.1067 14.0811 22.3664 15.7947 20.2927 17.0612C18.219 18.3277 17.3303 18.9237 17.3303 18.9237L15.7009 18.2532L15.9972 16.8377Z" fill="url(#paint10_linear)"/>
<path d="M13.479 19.0717C13.4049 19.2207 13.1827 19.2952 13.0346 19.2952C9.70186 19.5187 8.59095 19.2952 7.33191 18.9227C6.07288 18.5502 4.73978 18.2522 3.77699 18.7737C3.11044 19.0717 2.44389 19.5187 2.07359 19.7422C1.8514 19.8912 1.77734 20.1147 1.77734 20.3381L1.99953 25.3295C1.99953 25.702 2.29577 25.9255 2.66607 25.9255L5.55445 25.702C5.62851 25.702 5.77663 25.6275 5.85069 25.6275L11.9977 21.6046C12.0718 21.6046 12.0718 21.5301 12.1459 21.5301L14.8861 18.4757C14.9602 18.4012 14.9602 18.4012 14.9602 18.3267L17.3301 13.4843C17.4783 13.2608 17.4042 12.9628 17.2561 12.8138C16.5895 12.0688 14.8861 10.3554 13.9233 9.16338C13.2568 8.34389 12.7384 7.8969 12.3681 7.67341C12.0718 7.44991 11.7015 7.52441 11.5534 7.8224L7.85034 12.3668C7.70222 12.5903 7.70222 12.8138 7.77628 13.0373C7.99846 13.4843 8.51688 14.2293 9.55374 14.8998C10.8128 15.7192 12.8124 16.9857 13.8493 17.5817C14.1455 17.8052 14.2196 18.1777 13.9974 18.4757L13.479 19.0717Z" fill="url(#paint11_linear)"/>
<path d="M20.7367 39.3352L14.8118 33.5243L18.1446 18.9971L15.4784 19.5186L9.92383 37.6962L16.1449 43.2836" fill="#FF9E0B"/>
<path d="M15.9229 21.6795L13.3308 19.1464C13.3308 19.1464 14.4417 16.5389 15.1823 15.9429C16.0711 16.6879 17.182 18.6994 18.0707 18.9229C17.4042 20.6365 16.5895 21.158 16.5895 21.158L15.9229 21.6795Z" fill="url(#paint12_linear)"/>
<path d="M37.0416 23.5329C37.1156 23.6819 37.2638 23.831 37.4119 23.7565C37.4859 23.7565 37.56 23.6819 37.6341 23.6074L38.3006 22.3409C38.4487 22.0429 38.6709 21.8939 38.9672 21.8194L40.3003 21.5214C40.4484 21.4469 40.5965 21.2979 40.5224 21.1489C40.5224 21.0744 40.4484 20.9999 40.3743 20.9254L39.1153 20.2549C38.819 20.1059 38.6709 19.8824 38.5969 19.5844L38.3006 18.2433C38.2265 18.0943 38.0784 17.9453 37.9303 18.0198C37.8562 18.0198 37.7822 18.0943 37.7081 18.1688L37.0416 19.4354C36.8935 19.7334 36.6713 19.8824 36.375 19.9569L35.0419 20.2549C34.8938 20.3294 34.7457 20.4784 34.8197 20.6274C34.8197 20.7019 34.8938 20.7764 34.9679 20.8509L36.2269 21.5214C36.5231 21.6704 36.6713 21.8939 36.7453 22.1919L37.0416 23.5329Z" fill="#FF9E0B"/>
<path d="M59.2415 21.7331C59.3156 21.8821 59.4637 22.0311 59.6118 21.9566C59.6859 21.9566 59.76 21.8821 59.834 21.8076L60.5006 20.5411C60.6487 20.2431 60.8709 20.0941 61.1671 20.0196L62.5002 19.7216C62.6483 19.6471 62.7965 19.4981 62.7224 19.3491C62.7224 19.2746 62.6483 19.2001 62.5743 19.1256L61.3152 18.4551C61.019 18.3061 60.8709 18.0826 60.7968 17.7845L60.5006 16.4435C60.4265 16.2945 60.2784 16.1455 60.1303 16.22C60.0562 16.22 59.9821 16.2945 59.9081 16.369L59.2415 17.6355C59.0934 17.9335 58.8712 18.0826 58.575 18.1571L57.2419 18.4551C57.0938 18.5296 56.9456 18.6786 57.0197 18.8276C57.0197 18.9021 57.0938 18.9766 57.1678 19.0511L58.4269 19.7216C58.7231 19.8706 58.8712 20.0941 58.9453 20.3921L59.2415 21.7331Z" fill="#FF9E0B"/>
<path d="M51.3981 25.2549C51.3241 25.4039 51.3981 25.5529 51.5463 25.6274C51.6203 25.6274 51.6944 25.6274 51.7684 25.6274L52.8053 24.9569C53.0275 24.8079 53.3237 24.8079 53.5459 24.8824L54.7309 25.2549C54.879 25.3294 55.0271 25.2549 55.1012 25.1059C55.1012 25.0314 55.1012 24.9569 55.1012 24.8824L54.4346 23.8393C54.2865 23.6158 54.2865 23.3178 54.3606 23.0943L54.7309 21.9023C54.8049 21.7533 54.7309 21.6043 54.5828 21.5298C54.5087 21.5298 54.4346 21.5298 54.3606 21.5298L53.3237 22.2003C53.1015 22.3493 52.8053 22.3493 52.5831 22.2748L51.3981 21.9023C51.25 21.8278 51.1019 21.9768 51.0278 22.0513C51.0278 22.1258 51.0278 22.2003 51.0278 22.2748L51.6944 23.3178C51.8425 23.5413 51.8425 23.8393 51.7684 24.0628L51.3981 25.2549Z" fill="#D8F3DF"/>
<path d="M41.7702 29.3019C41.6961 29.4509 41.7702 29.5999 41.9183 29.5999C41.9924 29.5999 42.0665 29.5999 42.1405 29.5999L43.1033 29.0039C43.3255 28.8549 43.5477 28.8549 43.7699 28.9294L44.8808 29.2274C45.0289 29.3019 45.177 29.2274 45.177 29.0784C45.177 29.0039 45.177 28.9294 45.177 28.8549L44.5845 27.8863C44.4364 27.6628 44.4364 27.4393 44.5105 27.2158L44.8067 26.0983C44.8808 25.9493 44.8067 25.8003 44.6586 25.8003C44.5845 25.8003 44.5105 25.8003 44.4364 25.8003L43.4736 26.3963C43.2514 26.5453 43.0292 26.5453 42.8071 26.4708L41.6961 26.1728C41.548 26.0983 41.3999 26.1728 41.3999 26.3218C41.3999 26.3963 41.3999 26.4708 41.3999 26.5453L41.9924 27.5138C42.1405 27.7373 42.1405 27.9608 42.0664 28.1843L41.7702 29.3019Z" fill="#D8F3DF"/>
<path d="M50.1704 16.1012C50.0963 16.2502 50.1704 16.3992 50.3185 16.3992C50.3925 16.3992 50.4666 16.3992 50.5407 16.3992L51.5034 15.8032C51.7256 15.6542 51.9478 15.6542 52.17 15.7287L53.2809 16.0267C53.429 16.1012 53.5772 16.0267 53.5772 15.8777C53.5772 15.8032 53.5772 15.7287 53.5772 15.6542L52.9847 14.6857C52.8365 14.4622 52.8365 14.2386 52.9106 14.0151L53.2068 12.8976C53.2809 12.7486 53.2068 12.5996 53.0587 12.5996C52.9847 12.5996 52.9106 12.5996 52.8365 12.5996L51.8738 13.1956C51.6516 13.3446 51.4294 13.3446 51.2072 13.2701L50.0963 12.9721C49.9482 12.8976 49.8 12.9721 49.8 13.1211C49.8 13.1956 49.8 13.2701 49.8 13.3446L50.3925 14.3131C50.5407 14.5367 50.5407 14.7602 50.4666 14.9837L50.1704 16.1012Z" fill="#D8F3DF"/>
<path d="M59.9186 28.2466C59.8445 28.3956 59.9926 28.5446 60.1408 28.6191C60.2148 28.6191 60.2889 28.6191 60.3629 28.6191L61.5479 27.8741C61.7701 27.7251 62.0663 27.6506 62.3626 27.7251L63.6957 28.0976C63.8438 28.1721 63.9919 28.0231 64.066 27.8741C64.066 27.7996 64.066 27.7251 64.066 27.6506L63.3254 26.4586C63.1032 26.3096 63.1032 25.937 63.1773 25.7135L63.5476 24.3725C63.6216 24.2235 63.4735 24.0745 63.3254 24C63.2513 24 63.1773 24 63.1032 24L61.9182 24.745C61.696 24.894 61.3998 24.9685 61.1035 24.894L59.7705 24.5215C59.6223 24.447 59.4742 24.596 59.4001 24.745C59.4001 24.8195 59.4001 24.894 59.4001 24.9685L60.1408 26.1605C60.2889 26.3841 60.3629 26.6821 60.2889 26.9801L59.9186 28.2466Z" fill="#D8F3DF"/>
<path d="M44.3185 22.2466C44.2444 22.3956 44.3925 22.5446 44.5407 22.6191C44.6147 22.6191 44.6888 22.6191 44.7628 22.6191L45.9478 21.8741C46.17 21.7251 46.4662 21.6506 46.7625 21.7251L48.0956 22.0976C48.2437 22.1721 48.3918 22.0231 48.4659 21.8741C48.4659 21.7996 48.4659 21.7251 48.4659 21.6506L47.7253 20.4586C47.5031 20.3096 47.5031 19.937 47.5772 19.7135L47.9475 18.3725C48.0215 18.2235 47.8734 18.0745 47.7253 18C47.6512 18 47.5772 18 47.5031 18L46.3181 18.745C46.0959 18.894 45.7997 18.9685 45.5035 18.894L44.1704 18.5215C44.0222 18.447 43.8741 18.596 43.8 18.745C43.8 18.8195 43.8 18.894 43.8 18.9685L44.5407 20.1605C44.6888 20.3841 44.7628 20.6821 44.6888 20.9801L44.3185 22.2466Z" fill="#FF9E0B"/>
<defs>
<linearGradient id="paint0_linear" x1="31.9397" y1="42.8653" x2="40.763" y2="40.0879" gradientUnits="userSpaceOnUse">
<stop stop-color="#FF9E0B"/>
<stop offset="1" stop-color="#FFC773"/>
</linearGradient>
<linearGradient id="paint1_linear" x1="56.7447" y1="61.8188" x2="64.7594" y2="77.3865" gradientUnits="userSpaceOnUse">
<stop offset="0.00289017" stop-color="#606673" stop-opacity="0"/>
<stop offset="1" stop-color="#373C47"/>
</linearGradient>
<linearGradient id="paint2_linear" x1="8.07007" y1="61.5474" x2="15.3981" y2="45.9002" gradientUnits="userSpaceOnUse">
<stop stop-color="#FF9E0B"/>
<stop offset="1" stop-color="#FFC773"/>
</linearGradient>
<linearGradient id="paint3_linear" x1="33.0814" y1="51.8716" x2="33.6769" y2="67.0524" gradientUnits="userSpaceOnUse">
<stop offset="0.00289017" stop-color="#606673" stop-opacity="0"/>
<stop offset="1" stop-color="#373C47"/>
</linearGradient>
<linearGradient id="paint4_linear" x1="55.8259" y1="53.8879" x2="56.3026" y2="66.0402" gradientUnits="userSpaceOnUse">
<stop offset="0.00289017" stop-color="#606673" stop-opacity="0"/>
<stop offset="1" stop-color="#373C47"/>
</linearGradient>
<linearGradient id="paint5_linear" x1="55.8565" y1="69.1797" x2="56.1328" y2="76.2251" gradientUnits="userSpaceOnUse">
<stop offset="0.00289017" stop-color="#606673" stop-opacity="0"/>
<stop offset="1" stop-color="#373C47"/>
</linearGradient>
<linearGradient id="paint6_linear" x1="13.4507" y1="54.5337" x2="10.7297" y2="59.1154" gradientUnits="userSpaceOnUse">
<stop stop-color="#FFC266" stop-opacity="0"/>
<stop offset="0.4964" stop-color="#FF9E0B"/>
<stop offset="1" stop-color="#F7C822"/>
</linearGradient>
<linearGradient id="paint7_linear" x1="28.4395" y1="64.7398" x2="38.9717" y2="57.5762" gradientUnits="userSpaceOnUse">
<stop stop-color="#FF9E0B"/>
<stop offset="1" stop-color="#FFC773"/>
</linearGradient>
<linearGradient id="paint8_linear" x1="29.4893" y1="29.4086" x2="29.572" y2="30.9483" gradientUnits="userSpaceOnUse">
<stop stop-color="#83A6FF"/>
<stop offset="1" stop-color="#5A78FF"/>
</linearGradient>
<linearGradient id="paint9_linear" x1="15.0342" y1="20.5624" x2="24.5438" y2="3.95524" gradientUnits="userSpaceOnUse">
<stop stop-color="#FF9E0B"/>
<stop offset="1" stop-color="#FFC773"/>
</linearGradient>
<linearGradient id="paint10_linear" x1="15.7009" y1="18.9237" x2="23.9156" y2="2.35774" gradientUnits="userSpaceOnUse">
<stop stop-color="#FF9E0B"/>
<stop offset="1" stop-color="#FFC773"/>
</linearGradient>
<linearGradient id="paint11_linear" x1="1.77734" y1="25.9255" x2="19.9209" y2="10.4948" gradientUnits="userSpaceOnUse">
<stop stop-color="#FF9E0B"/>
<stop offset="1" stop-color="#FFC773"/>
</linearGradient>
<linearGradient id="paint12_linear" x1="13.3308" y1="21.6795" x2="18.9645" y2="17.0246" gradientUnits="userSpaceOnUse">
<stop stop-color="#FF9E0B"/>
<stop offset="1" stop-color="#FFC773"/>
</linearGradient>
</defs>
</svg>
