<svg width="185" height="218" viewBox="0 0 185 218" fill="none"
    xmlns="http://www.w3.org/2000/svg">
    <defs>
        <filter id="filter0_d" x="0.882812" y="33.469" width="183.399" height="183.896" filterUnits="userSpaceOnUse" color-interpolation-filters="sRGB">
            <feFlood flood-opacity="0" result="BackgroundImageFix"/>
            <feColorMatrix in="SourceAlpha" type="matrix" values="0 0 0 0 0 0 0 0 0 0 0 0 0 0 0 0 0 0 127 0" result="hardAlpha"/>
            <feOffset dy="8"/>
            <feGaussianBlur stdDeviation="6.5"/>
            <feColorMatrix type="matrix" values="0 0 0 0 1 0 0 0 0 0.619608 0 0 0 0 0.0431373 0 0 0 0.3 0"/>
            <feBlend mode="normal" in2="BackgroundImageFix" result="effect1_dropShadow"/>
            <feBlend mode="normal" in="SourceGraphic" in2="effect1_dropShadow" result="shape"/>
        </filter>
        <linearGradient id="paint0_linear" x1="80.2475" y1="195.429" x2="104.483" y2="43.1246" gradientUnits="userSpaceOnUse">
            <stop stop-color="#FF66A9"/>
            <stop offset="1" stop-color="#F53689"/>
        </linearGradient>
        <linearGradient id="paint1_linear" x1="13.8828" y1="196.365" x2="171.778" y2="38.9661" gradientUnits="userSpaceOnUse">
            <stop stop-color="#FF9E0B"/>
            <stop offset="1" stop-color="#FFC773"/>
        </linearGradient>
        <linearGradient id="paint2_linear" x1="43.1671" y1="167.02" x2="142.36" y2="68.2439" gradientUnits="userSpaceOnUse">
            <stop offset="0.0113208" stop-color="#FFC9E3"/>
            <stop offset="1" stop-color="white"/>
        </linearGradient>
        <linearGradient id="paint3_linear" x1="91.5029" y1="130.053" x2="151.965" y2="52.7528" gradientUnits="userSpaceOnUse">
            <stop stop-color="#FF9E0B"/>
            <stop offset="1" stop-color="#FFC773"/>
        </linearGradient>
        <linearGradient id="paint4_linear" x1="115.479" y1="92.2115" x2="123.852" y2="112.617" gradientUnits="userSpaceOnUse">
            <stop stop-color="#E81778"/>
            <stop offset="1" stop-color="#E01F79" stop-opacity="0"/>
        </linearGradient>
        <linearGradient id="paint5_linear" x1="106.845" y1="112.702" x2="95.5129" y2="100.33" gradientUnits="userSpaceOnUse">
            <stop offset="0.0113208" stop-color="#FFC9E3"/>
            <stop offset="1" stop-color="white"/>
        </linearGradient>
        <linearGradient id="paint6_linear" x1="128.762" y1="92.6271" x2="117.43" y2="80.255" gradientUnits="userSpaceOnUse">
            <stop offset="0.0113208" stop-color="#FFC9E3"/>
            <stop offset="1" stop-color="white"/>
        </linearGradient>
    </defs>
    <path d="M173.133 106.344C173.133 125.25 166.807 142.606 156.313 156.707C150.604 164.301 143.66 170.964 135.635 176.078C122.827 184.601 107.396 189.56 90.7303 189.56C45.208 189.56 8.17285 152.213 8.17285 106.189C8.17285 60.1646 45.208 23.1282 90.576 23.1282C107.087 23.1282 122.364 28.087 135.481 36.4551C143.505 41.5689 150.449 48.2324 156.159 55.8256C166.652 70.0823 173.133 87.4383 173.133 106.344Z" fill="#F1F6FF"/>
    <path d="M26.6829 189.986C28.2261 189.986 29.6149 188.747 29.6149 187.042C29.6149 185.337 28.3804 184.098 26.6829 184.098C25.1398 184.098 23.751 185.337 23.751 187.042C23.751 188.902 25.1398 189.986 26.6829 189.986Z" fill="#F1F6FF"/>
    <path d="M117.427 43.1179L166.653 92.5515C172.825 98.7501 172.825 108.668 166.653 114.866L89.9591 191.729C87.4901 194.208 84.2495 195.758 81.0089 196.223C76.2252 196.842 71.2872 195.448 67.738 191.729L18.5122 142.295C12.3397 136.096 12.3397 126.179 18.5122 119.98L95.0514 43.1179C97.9834 40.1736 101.995 38.624 106.008 38.469C110.174 38.469 114.186 40.0186 117.427 43.1179Z" fill="url(#paint0_linear)"/>
    <g filter="url(#filter0_d)">
        <path d="M117.427 43.1179L166.653 92.5515C172.825 98.7501 172.825 108.668 166.653 114.866L89.9591 191.729C87.4901 194.208 84.2495 195.758 81.0089 196.223C76.2252 196.842 71.2872 195.448 67.738 191.729L18.5122 142.295C12.3397 136.096 12.3397 126.179 18.5122 119.98L95.0514 43.1179C97.9834 40.1736 101.995 38.624 106.008 38.469C110.174 38.469 114.186 40.0186 117.427 43.1179Z" fill="url(#paint1_linear)"/>
    </g>
    <path d="M133.784 59.5441L141.809 67.6022C141.809 67.7572 141.654 67.7572 141.5 67.9122L117.581 92.0866L145.666 120.135L153.228 127.728C153.382 127.883 153.382 127.883 153.536 128.038L145.512 136.096C145.358 136.096 145.358 135.941 145.203 135.941L117.118 108.048L109.403 100.455L43.0482 167.089L34.8696 158.876L101.224 92.2416L73.7565 64.6579L81.9351 56.4448L109.557 83.8735L133.63 59.6991C133.476 59.6991 133.63 59.6991 133.784 59.5441Z" fill="url(#paint2_linear)"/>
    <path opacity="0.6" d="M166.499 114.866L151.376 130.053H98.6013L101.379 119.515H93.3547L91.5029 106.963L110.483 97.0456L127.304 74.5757L126.223 67.7573H142.118L166.653 92.3966C172.672 98.7502 172.672 108.668 166.499 114.866Z" fill="url(#paint3_linear)"/>
    <path d="M150.295 110.063L141.5 111.767L142.425 119.67V120.445L141.191 119.67L113.106 102.005L112.18 119.67L111.717 130.363L105.853 124.939L98.7549 129.898L99.0635 119.67L99.3721 110.683L124.988 92.5518L150.295 110.063Z" fill="white"/>
    <path d="M92.8906 135.012L60.7935 167.245C60.022 168.02 60.022 169.259 60.7935 170.034C61.5651 170.809 62.7996 170.809 63.5712 170.034L95.6682 137.802C96.4398 137.027 96.4398 135.787 95.6682 135.012C94.8967 134.237 93.6622 134.237 92.8906 135.012Z" fill="#E18904"/>
    <path d="M90.1127 151.438L81.7798 159.806C81.0083 160.581 81.0083 161.821 81.7798 162.596C82.5514 163.371 83.7859 163.371 84.5575 162.596L92.8904 154.228C93.6619 153.453 93.6619 152.213 92.8904 151.438C92.1188 150.663 90.8843 150.663 90.1127 151.438Z" fill="#E18904"/>
    <path opacity="0.6" d="M150.295 110.063L141.5 111.767L142.425 119.67H141.191L113.106 102.005L112.18 119.67H99.0635L99.3721 110.683L124.988 92.5518L150.295 110.063Z" fill="url(#paint4_linear)"/>
    <path d="M77.4591 164.3L67.7374 174.063C66.9658 174.837 66.9658 176.077 67.7374 176.852C68.5089 177.627 69.7434 177.627 70.515 176.852L80.2367 167.089C81.0083 166.314 81.0083 165.075 80.2367 164.3C79.3108 163.525 78.2307 163.525 77.4591 164.3Z" fill="#E18904"/>
    <path d="M97.0573 90.0725H106.625L114.34 99.9902L109.865 103.09L99.372 117.501C97.0573 120.6 92.2736 120.291 90.4218 116.881L80.2372 97.9757C78.3854 94.4115 80.8544 90.0725 84.8665 90.0725H85.4838" fill="url(#paint5_linear)"/>
    <path d="M113.723 100.455L118.661 98.4405L136.407 97.5107C140.265 97.3557 142.734 93.1717 140.882 89.6075L130.697 70.7019C128.846 67.1377 123.753 66.9827 121.593 70.237L109.711 88.3678L113.723 100.455Z" fill="url(#paint6_linear)"/>
    <g opacity="0.3">
        <path opacity="0.3" d="M111.562 102.47L110.174 103.399L110.328 103.245L102.921 113.162C101.686 114.867 100.452 116.416 99.2174 118.121C97.8286 119.671 95.5139 120.291 93.5078 119.516V119.361C95.5139 119.981 97.6743 119.361 98.9088 117.811C100.143 116.262 101.223 114.557 102.458 112.852L109.556 102.78L110.945 101.85L111.562 102.47Z" fill="#EC3A8D"/>
    </g>
    <g opacity="0.3">
        <path opacity="0.3" d="M115.882 99.0604L118.506 97.9757L130.542 97.6657L136.56 97.5108C138.566 97.3558 140.418 95.9611 141.035 94.1016C140.418 95.9611 138.566 97.5108 136.56 97.8207L130.542 98.2856L118.506 99.0604H118.66L116.191 99.8352L115.882 99.0604Z" fill="#EC3A8D"/>
    </g>
    <path d="M102.612 95.8061C100.761 91.4671 102.304 86.8182 105.699 84.9586C109.557 82.7891 114.958 85.2685 117.735 90.2274C120.513 95.1862 119.433 101.075 115.575 103.244C112.797 104.794 109.248 104.174 106.625 101.695C104.619 99.9901 103.847 98.5955 102.612 95.8061Z" fill="white"/>
    <path d="M89.5867 36.1065C89.1237 36.1065 88.6608 35.9515 88.3521 35.6416L87.7349 35.1767C87.7349 35.1767 87.5806 35.1767 87.5806 35.0217L78.6304 26.0338C77.8589 25.259 77.8589 24.0193 78.6304 23.2444C79.402 22.4696 80.6365 22.4696 81.4081 23.2444L90.8212 32.6973C91.5927 33.3171 91.747 34.5568 91.1298 35.4866C90.6668 35.7965 90.2039 36.1065 89.5867 36.1065Z" fill="#34C3A7"/>
    <path d="M104.864 17.201C103.784 17.201 102.858 16.2712 102.858 15.1865V2.01453C102.858 0.929785 103.784 0 104.864 0C105.944 0 106.87 0.929785 106.87 2.01453V15.3415C106.87 16.2712 105.944 17.201 104.864 17.201Z" fill="#34C3A7"/>
    <path d="M104.864 30.3728C103.784 30.3728 102.858 29.443 102.858 28.3583V22.4696C102.858 21.3849 103.784 20.4551 104.864 20.4551C105.944 20.4551 106.87 21.3849 106.87 22.4696V28.3583C106.87 29.443 105.944 30.3728 104.864 30.3728Z" fill="#34C3A7"/>
    <path d="M120.604 33.1624C120.141 33.1624 119.678 33.0074 119.215 32.5425C118.444 31.7677 118.444 30.528 119.215 29.7532L126.931 22.0049C127.703 21.2301 128.937 21.2301 129.709 22.0049C130.48 22.7798 130.48 24.0195 129.709 24.7943L121.993 32.5425C121.684 33.0074 121.067 33.1624 120.604 33.1624Z" fill="#34C3A7"/>
    <path d="M44.8999 59.5446C43.2024 56.6003 38.8817 56.1354 36.7213 58.9248C34.5609 56.1354 30.2401 56.6003 28.5427 59.5446C26.9996 62.0241 28.0798 64.3485 30.0858 66.673C32.0919 68.9975 34.7152 71.012 36.104 71.9418C36.2583 72.0967 36.567 72.0967 36.8756 72.0967C37.1842 72.0967 37.4929 72.0967 37.6472 71.9418C38.8817 71.167 41.6593 69.1524 43.6654 66.673C45.3628 64.5035 46.443 62.179 44.8999 59.5446Z" fill="#34C3A7"/>
    <path d="M172.825 166.16C172.208 162.751 168.35 160.891 165.264 162.751C164.029 159.342 160.017 158.257 157.239 160.581C154.925 162.441 155.233 165.075 156.314 167.865C157.394 170.654 159.245 173.598 160.171 174.838C160.326 174.993 160.48 175.148 160.789 175.303C161.097 175.458 161.252 175.458 161.56 175.303C163.103 174.993 166.344 174.063 168.967 172.514C171.436 170.964 173.288 169.104 172.825 166.16Z" fill="#34C3A7"/>
    <path opacity="0.5" d="M118.044 195.138C115.266 194.828 112.952 197.152 113.569 199.942C110.791 199.942 108.939 202.731 109.865 205.366C110.637 207.535 112.643 208 114.958 208C117.427 208 119.896 207.225 121.13 206.76C121.285 206.76 121.439 206.605 121.593 206.45C121.747 206.295 121.747 206.14 121.902 205.83C122.056 204.591 122.056 201.956 121.593 199.477C121.285 197.307 120.359 195.448 118.044 195.138Z" fill="#1EA6FC"/>
    <path opacity="0.5" d="M13.4194 97.666C10.6418 97.3561 8.32711 99.6805 8.94436 102.47C6.16673 102.47 4.31497 105.259 5.24085 107.894C6.16673 110.063 8.17279 110.528 10.4875 110.528C12.9565 110.528 15.4255 109.753 16.66 109.288C16.8143 109.288 16.9686 109.133 17.1229 108.978C17.2773 108.823 17.4316 108.513 17.4316 108.359C17.5859 107.119 17.5859 104.484 17.1229 102.005C16.66 99.8355 15.7341 97.9759 13.4194 97.666Z" fill="#1EA6FC"/>
    <path d="M158.475 42.9626C157.394 40.4832 154.154 39.7083 152.148 41.7229C150.605 39.3984 147.364 39.2435 145.667 41.413C144.278 43.2725 144.895 45.1321 146.13 47.1466C147.364 49.1612 149.37 51.0207 150.296 51.7956C150.45 51.9505 150.605 51.9505 150.913 52.1055C151.068 52.1055 151.376 52.1055 151.53 51.9505C152.611 51.4856 154.925 50.0909 156.777 48.3863C158.32 46.8367 159.4 45.1321 158.475 42.9626Z" fill="#FF9E0B"/>

</svg>
