<svg width="23" height="23" viewBox="0 0 23 23" fill="none" xmlns="http://www.w3.org/2000/svg">
<ellipse cx="11.2049" cy="11.3514" rx="11.2049" ry="11.2049" fill="#CEF8F5"/>
<mask id="mask0_716_4092" style="mask-type:alpha" maskUnits="userSpaceOnUse" x="0" y="0" width="23" height="23">
<ellipse cx="11.2049" cy="11.3514" rx="11.2049" ry="11.2049" fill="#CEF8F5"/>
</mask>
<g mask="url(#mask0_716_4092)">
<ellipse cx="11.2739" cy="15.8119" rx="6.40282" ry="2.29236" fill="#332A63"/>
<path d="M17.489 16.3652C17.6116 16.188 17.6767 16.0027 17.6767 15.8119C17.6767 14.5459 14.8101 13.5195 11.2739 13.5195C7.73774 13.5195 4.87109 14.5459 4.87109 15.8119C4.87109 16.0027 4.93619 16.188 5.05887 16.3652C5.75027 15.3665 8.27062 14.6262 11.2739 14.6262C14.2772 14.6262 16.7976 15.3665 17.489 16.3652Z" fill="#01656B"/>
</g>
<path d="M5.66162 10.9112C5.66162 7.81156 8.17436 5.29883 11.274 5.29883C14.3736 5.29883 16.8863 7.81156 16.8863 10.9112V16.2073H5.66162V10.9112Z" fill="#332A63"/>
<path d="M6.61035 11.1474C6.61027 10.2402 6.92639 8.93412 7.63781 8.2227M9.06066 6.87891C8.8324 7.01379 8.62185 7.16637 8.42828 7.33237" stroke="white" stroke-width="0.526259" stroke-linecap="round"/>
<rect x="10.8794" y="10.1992" width="0.948566" height="2.21331" rx="0.474283" fill="white"/>
<rect x="14.0415" y="10.1992" width="0.948566" height="2.21331" rx="0.474283" fill="white"/>
</svg>
