<svg width="414" height="237" viewBox="0 0 414 237" fill="none" xmlns="http://www.w3.org/2000/svg">
<g opacity="0.25">
<path d="M308.321 -106.559L125.114 88.5757L232.438 54.9637L11.2893 230.585L330.005 39.792L287.722 48.4633L411.315 -59.9462L300.735 -26.3342L406.974 -138L308.321 -106.559Z" fill="white"/>
<path d="M61.1584 221.913L318.078 73.3916L141.371 234.926L61.1584 221.913Z" fill="white"/>
<path d="M502.37 -94.6313L331.091 24.6081L498.04 -55.6044L502.37 -94.6313Z" fill="white"/>
<path d="M448.708 -12.3457L291.527 136.176L341.384 119.919L211.302 237L468.222 47.2801L386.924 79.8066L471.478 6.08232L448.708 -12.3457Z" fill="white"/>
<path d="M-39.7871 196.839L162.092 90.978L-13.5537 213.437L-39.7871 196.839Z" fill="white"/>
</g>
</svg>
