<svg width="16" height="16" viewBox="0 0 16 16" fill="none" xmlns="http://www.w3.org/2000/svg">
<g id="Frame" clip-path="url(#clip0_976_3492)">
<g id="Group">
<path id="Vector" d="M0.999807 1.08886C-0.257526 2.39486 -0.000192679 3.78219 -0.000192679 7.99686C-0.000192679 11.4969 -0.610859 15.0055 2.58514 15.8315C3.58314 16.0882 12.4258 16.0882 13.4225 15.8302C14.7531 15.4869 15.8358 14.4075 15.9838 12.5255C16.0045 12.2629 16.0045 3.73553 15.9831 3.46753C15.8258 1.46286 14.5918 0.307527 12.9658 0.073527C12.5931 0.019527 12.5185 0.00352702 10.6065 0.000193691C3.82447 0.00352702 2.33781 -0.298473 0.999807 1.08886Z" fill="url(#paint0_linear_976_3492)"/>
<path id="Vector_2" d="M7.99789 2.09359C5.57723 2.09359 3.27856 1.87826 2.40056 4.13159C2.03789 5.06226 2.09056 6.27093 2.09056 8.00159C2.09056 9.52026 2.04189 10.9476 2.40056 11.8709C3.27656 14.1256 5.59389 13.9096 7.99656 13.9096C10.3146 13.9096 12.7046 14.1509 13.5932 11.8709C13.9566 10.9309 13.9032 9.74026 13.9032 8.00159C13.9032 5.69359 14.0306 4.20359 12.9112 3.08493C11.7779 1.95159 10.2452 2.09359 7.99523 2.09359H7.99789ZM7.46856 3.15826C12.5179 3.15026 13.1606 2.58893 12.8059 10.3869C12.6799 13.1449 10.5799 12.8423 7.99856 12.8423C3.29189 12.8423 3.15656 12.7076 3.15656 7.99893C3.15656 3.23559 3.52989 3.16093 7.46856 3.15693V3.15826ZM11.1512 4.13893C10.9633 4.13893 10.783 4.21359 10.6501 4.34649C10.5172 4.47939 10.4426 4.65964 10.4426 4.84759C10.4426 5.03554 10.5172 5.21579 10.6501 5.34869C10.783 5.4816 10.9633 5.55626 11.1512 5.55626C11.3392 5.55626 11.5194 5.4816 11.6523 5.34869C11.7852 5.21579 11.8599 5.03554 11.8599 4.84759C11.8599 4.65964 11.7852 4.47939 11.6523 4.34649C11.5194 4.21359 11.3392 4.13893 11.1512 4.13893ZM7.99789 4.96759C7.5995 4.96764 7.20503 5.04615 6.83698 5.19864C6.46894 5.35114 6.13453 5.57464 5.85286 5.85637C5.284 6.42535 4.96447 7.19701 4.96456 8.00159C4.96465 8.80617 5.28435 9.57776 5.85333 10.1466C6.42232 10.7155 7.19398 11.035 7.99856 11.0349C8.80314 11.0348 9.57473 10.7151 10.1436 10.1461C10.7124 9.57716 11.032 8.8055 11.0319 8.00093C11.0318 7.19635 10.7121 6.42476 10.1431 5.8559C9.57413 5.28704 8.80247 4.9675 7.99789 4.96759ZM7.99789 6.03226C10.6012 6.03226 10.6046 9.97093 7.99789 9.97093C5.39523 9.97093 5.39123 6.03226 7.99789 6.03226Z" fill="white"/>
</g>
</g>
<defs>
<linearGradient id="paint0_linear_976_3492" x1="1.03049" y1="14.9783" x2="15.9008" y2="2.10818" gradientUnits="userSpaceOnUse">
<stop stop-color="#FFDD55"/>
<stop offset="0.5" stop-color="#FF543E"/>
<stop offset="1" stop-color="#C837AB"/>
</linearGradient>
<clipPath id="clip0_976_3492">
<rect width="16" height="16" fill="white"/>
</clipPath>
</defs>
</svg>
