<svg width="16" height="16" viewBox="0 0 16 16" fill="none" xmlns="http://www.w3.org/2000/svg">
<g id="Frame" clip-path="url(#clip0_976_3479)">
<g id="Group">
<g id="Layer 2">
<g id="10.linkedin">
<path id="Vector" d="M14.5155 0H1.48455C0.664654 0 0 0.664654 0 1.48455V14.5155C0 15.3353 0.664654 16 1.48455 16H14.5155C15.3353 16 16 15.3353 16 14.5155V1.48455C16 0.664654 15.3353 0 14.5155 0Z" fill="#0B63BD"/>
<g id="Group_2">
<path id="Vector_2" d="M5.76438 4.36364C5.76438 4.63334 5.68441 4.89698 5.53457 5.12123C5.38473 5.34548 5.17176 5.52026 4.92259 5.62347C4.67342 5.72668 4.39923 5.75369 4.13471 5.70107C3.87019 5.64845 3.62722 5.51858 3.43651 5.32787C3.2458 5.13717 3.11593 4.89419 3.06331 4.62967C3.0107 4.36515 3.0377 4.09097 3.14091 3.8418C3.24412 3.59262 3.4189 3.37965 3.64315 3.22981C3.8674 3.07998 4.13104 3 4.40075 3C4.76241 3 5.10925 3.14367 5.36498 3.3994C5.62071 3.65513 5.76438 4.00198 5.76438 4.36364ZM5.45529 6.63636V12.6609C5.45553 12.7054 5.44698 12.7494 5.43014 12.7905C5.4133 12.8317 5.38849 12.8691 5.35715 12.9006C5.32581 12.9321 5.28855 12.9571 5.24751 12.9742C5.20647 12.9912 5.16246 13 5.11802 13H3.68075C3.6363 13.0001 3.59227 12.9915 3.55119 12.9745C3.5101 12.9575 3.47278 12.9326 3.44135 12.9012C3.40992 12.8698 3.38502 12.8325 3.36806 12.7914C3.35111 12.7503 3.34244 12.7063 3.34256 12.6618V6.63636C3.34256 6.54667 3.37819 6.46065 3.44162 6.39723C3.50504 6.33381 3.59105 6.29818 3.68075 6.29818H5.11802C5.20755 6.29842 5.29334 6.33416 5.35656 6.39755C5.41979 6.46095 5.45529 6.54683 5.45529 6.63636ZM12.968 9.77273V12.6891C12.9681 12.73 12.9602 12.7704 12.9446 12.8082C12.929 12.846 12.9061 12.8803 12.8772 12.9092C12.8483 12.9381 12.814 12.961 12.7762 12.9766C12.7385 12.9922 12.698 13.0001 12.6571 13H11.1117C11.0708 13.0001 11.0303 12.9922 10.9925 12.9766C10.9548 12.961 10.9204 12.9381 10.8915 12.9092C10.8626 12.8803 10.8398 12.846 10.8242 12.8082C10.8086 12.7704 10.8006 12.73 10.8007 12.6891V9.86273C10.8007 9.44091 10.9244 8.01545 9.69802 8.01545C8.74802 8.01545 8.55438 8.99091 8.5162 9.42909V12.6891C8.51621 12.7708 8.48408 12.8492 8.42675 12.9073C8.36942 12.9655 8.29151 12.9988 8.20984 13H6.71711C6.67632 13 6.63594 12.992 6.59827 12.9763C6.5606 12.9607 6.52638 12.9378 6.49759 12.9089C6.46879 12.88 6.44597 12.8457 6.43045 12.808C6.41492 12.7703 6.40699 12.7299 6.40711 12.6891V6.61C6.40699 6.56921 6.41492 6.52881 6.43045 6.49109C6.44597 6.45337 6.46879 6.41909 6.49759 6.39021C6.52638 6.36133 6.5606 6.33841 6.59827 6.32277C6.63594 6.30714 6.67632 6.29909 6.71711 6.29909H8.20984C8.2923 6.29909 8.37138 6.33185 8.42968 6.39015C8.48799 6.44846 8.52075 6.52754 8.52075 6.61V7.13545C8.87347 6.60636 9.3962 6.19818 10.5117 6.19818C12.9826 6.19818 12.968 8.50545 12.968 9.77273Z" fill="white"/>
</g>
</g>
</g>
</g>
</g>
<defs>
<clipPath id="clip0_976_3479">
<rect width="16" height="16" fill="white"/>
</clipPath>
</defs>
</svg>
