<svg width="414" height="229" viewBox="0 0 414 229" fill="none" xmlns="http://www.w3.org/2000/svg">
<mask id="mask0_1002_1080" style="mask-type:alpha" maskUnits="userSpaceOnUse" x="0" y="0" width="414" height="229">
<rect width="414" height="229" fill="#C4C4C4"/>
</mask>
<g mask="url(#mask0_1002_1080)">
<path d="M209.265 64.8037C209.211 64.8037 209.211 64.8583 209.265 64.8037C212.488 69.5559 212.543 73.0517 212.543 74.9635C212.543 77.8039 210.248 81.6821 205.824 81.6821C204.732 81.6821 203.803 81.409 202.984 81.0266C203.803 83.2661 205.933 85.6695 209.32 85.6695C213.799 85.6695 216.038 81.8459 216.038 78.951C215.984 76.5476 215.984 71.5223 209.265 64.8037Z" fill="#4DCFE1"/>
<path d="M212.488 74.9635C212.488 73.0517 212.488 69.5013 209.211 64.8037C202.547 71.4677 202.492 76.4929 202.492 78.951C202.492 79.5518 202.656 80.2619 202.929 80.972C203.749 81.3543 204.677 81.6275 205.77 81.6275C210.249 81.6821 212.488 77.8585 212.488 74.9635Z" fill="#80DDE9"/>
<path d="M208.392 74.9628C208.118 76.4922 207.135 77.5846 206.152 77.4208C205.223 77.2569 204.677 75.8367 204.95 74.3073C205.223 72.7779 206.207 71.6854 207.19 71.8493C208.118 72.0678 208.665 73.4333 208.392 74.9628Z" fill="#B1EAF1"/>
<path d="M208.665 89.874C210.85 93.0421 210.85 95.3909 210.85 96.6472C210.85 98.559 209.32 101.126 206.371 101.126C205.66 101.126 205.005 100.962 204.459 100.689C205.005 102.164 206.425 103.803 208.665 103.803C211.669 103.803 213.144 101.236 213.144 99.3237C213.198 97.6851 213.144 94.3531 208.665 89.874Z" fill="#4DCFE1"/>
<path d="M210.849 96.6472C210.849 95.3363 210.849 92.9875 208.665 89.874C204.24 94.3531 204.186 97.6851 204.186 99.3237C204.186 99.7061 204.295 100.198 204.459 100.689C205.005 100.962 205.66 101.126 206.37 101.126C209.32 101.126 210.849 98.559 210.849 96.6472Z" fill="#80DDE9"/>
<path d="M208.118 96.6483C207.955 97.6861 207.244 98.3962 206.644 98.2869C205.988 98.1777 205.66 97.2491 205.824 96.2113C205.988 95.1734 206.698 94.4634 207.299 94.5726C207.9 94.6818 208.282 95.6651 208.118 96.6483Z" fill="#B1EAF1"/>
<path d="M267.329 7.66895L260.883 17.6649C260.228 18.7573 260.719 20.1775 261.921 20.5052C262.686 20.7237 263.505 20.5052 263.997 19.9044L272.026 9.36224L267.329 7.66895Z" fill="#FEAA90"/>
<path d="M271.59 8.32422L265.144 18.3201C264.489 19.4126 264.98 20.8328 266.182 21.1605C266.947 21.379 267.766 21.1605 268.258 20.5597L276.287 10.0175L271.59 8.32422Z" fill="#FEAA90"/>
<path d="M275.741 9.30664L269.295 19.3026C268.64 20.395 269.132 21.8152 270.333 22.1429C271.098 22.3614 271.917 22.1429 272.409 21.5421L280.438 10.9999L275.741 9.30664Z" fill="#FEAA90"/>
<path d="M261.594 10.1807C261.321 10.5084 261.048 10.8908 260.775 11.2731L259.409 13.4034C260.775 13.5126 262.086 13.9496 263.287 14.6597L264.817 12.6387C265.035 12.3656 265.254 12.2017 265.527 12.0378C265.527 12.0378 265.582 12.0378 265.582 11.9832C265.527 11.9832 265.527 11.9286 265.472 11.9286C264.216 11.1639 262.96 10.563 261.594 10.1807Z" fill="#FEBAA5"/>
<path d="M256.787 17.5C256.186 18.4832 256.623 19.7395 257.716 20.0673C258.371 20.2858 259.136 20.0673 259.573 19.521L263.233 14.6596C262.031 14.0042 260.72 13.5672 259.354 13.4033L256.787 17.5Z" fill="#FECBBB"/>
<path d="M299.229 10.4538H292.62L282.733 4.60916C279.51 2.69737 275.523 2.47888 272.136 4.00831L266.237 6.63019C264.434 7.44953 262.85 8.65123 261.594 10.1807C262.96 10.563 264.271 11.1639 265.472 11.9832C265.527 11.9832 265.527 12.0378 265.581 12.0378C268.64 9.79831 272.628 11.2185 274.758 14.0589C276.069 15.8068 277.435 18.0463 278.363 19.6304H303.872L299.229 10.4538Z" fill="#FECBBB"/>
<path d="M266.237 11.4921C262.195 7.45005 255.749 7.17694 251.38 10.6182L253.674 12.4753C256.897 10.2904 261.376 10.6182 264.216 13.5132C265.254 14.551 265.964 15.8619 266.346 17.2275C267.275 17.0636 268.258 16.9544 269.241 16.8998C268.804 14.8787 267.766 13.0216 266.237 11.4921Z" fill="#00BAD3"/>
<path d="M266.401 17.2271C266.892 19.0296 266.783 20.8868 266.073 22.6347L268.367 24.4919C269.569 22.1431 269.897 19.412 269.296 16.8447C268.258 16.954 267.329 17.0632 266.401 17.2271Z" fill="#00ABBF"/>
<path d="M250.396 11.4911L252.417 13.5122C252.8 13.1298 253.237 12.8021 253.674 12.4744L251.379 10.6172C251.052 10.8903 250.724 11.1634 250.396 11.4911Z" fill="#0097A5"/>
<path d="M266.018 22.6348C265.636 23.618 265.035 24.5466 264.216 25.3113L266.237 27.3323C267.111 26.4583 267.766 25.5298 268.313 24.4919L266.018 22.6348Z" fill="#0097A5"/>
<path d="M215.383 47.215L218.497 53.7151L221.555 52.8957L216.694 46.5049L215.383 47.215Z" fill="#00ABBF"/>
<path d="M219.971 50.8756L221.555 52.8966L241.765 47.489L237.45 43.1738L219.971 50.8756Z" fill="#00ABBF"/>
<path d="M267.93 36.401C270.224 34.1069 270.224 30.4472 267.93 28.153L251.324 11.5478C249.03 9.25361 245.37 9.25361 243.076 11.5478L240.291 14.3335L265.308 39.0775L267.93 36.401Z" fill="#00ABBF"/>
<path d="M240.291 14.2783L228.547 26.0222C226.253 28.3163 226.253 31.976 228.547 34.2702L232.753 38.4761L216.694 46.5603L219.971 50.9301L237.396 43.2283L241.765 47.5435L245.207 50.9847C247.501 53.2788 251.16 53.2788 253.455 50.9847L265.308 39.1316L240.291 14.2783Z" fill="#00BAD3"/>
<path d="M217.459 51.5292L215.383 47.214L215.001 46.777L213.198 47.651L203.202 44.0459C203.202 44.0459 200.69 49.7813 202.929 55.6259C203.858 58.0293 205.059 59.8318 206.261 61.1428L213.581 53.1679L217.459 51.5292Z" fill="white"/>
<path d="M218.496 53.7142L217.459 51.5293L213.526 53.2226L206.206 61.1975C208.828 64.0379 211.45 64.8026 211.45 64.8026L215.874 55.189L218.496 54.3151V53.7142Z" fill="#BADDF9"/>
<path d="M295.405 24.7097L296.989 11.3818C293.493 12.1466 286.393 14.113 282.678 17.7181C279.292 17.7181 268.258 18.592 264.107 18.592C260.01 18.592 258.754 24.0543 263.67 24.0543C267.165 24.0543 275.304 26.403 279.729 27.7686C286.174 28.5879 293.985 24.9829 295.405 24.7097Z" fill="#FECBBB"/>
<path d="M296.935 11.3823L295.351 24.7102C293.985 24.9833 286.174 28.5884 279.674 27.7691C281.476 28.3153 282.678 28.6976 282.678 28.6976C287.539 30.0632 294.586 27.5506 298.901 27.5506V10.9453C298.956 10.9453 298.191 11.1092 296.935 11.3823Z" fill="#FEAA90"/>
<path d="M329.202 23.127H298.409V29.8455H329.202V23.127Z" fill="#E3F1FC"/>
<path d="M329.202 9.25293H298.409V23.1271H329.202V9.25293Z" fill="white"/>
<path d="M414 9.25293H315.812V23.1271H414V9.25293Z" fill="#4D4D4D"/>
<path d="M414 23.127H315.812V29.8455H414V23.127Z" fill="#333333"/>
<path d="M303.121 26.5677C303.121 27.3324 303.717 27.9333 304.475 27.9333C305.233 27.9333 305.829 27.3324 305.829 26.5677C305.829 25.803 305.233 25.2021 304.475 25.2021C303.717 25.2568 303.121 25.8576 303.121 26.5677Z" fill="white"/>
<path d="M207.587 221.32C219.634 221.32 229.4 219.96 229.4 218.282C229.4 216.605 219.634 215.245 207.587 215.245C195.54 215.245 185.774 216.605 185.774 218.282C185.774 219.96 195.54 221.32 207.587 221.32Z" fill="#1CAF82"/>
<path d="M206.207 116.837L195.494 106.124C195.162 105.792 194.555 105.792 194.223 106.124L194.058 106.289C193.782 106.565 193.726 107.007 193.947 107.394L202.673 121.144C203.722 122.801 204.274 124.734 204.274 126.667V153.063V154.278V162.562C204.274 164.329 202.12 165.213 200.906 163.942L171.361 134.122C171.03 133.79 170.477 133.79 170.091 134.122C169.759 134.453 169.76 134.95 170.036 135.281L200.74 172.944C202.231 174.766 203.059 177.086 203.059 179.46V216.46H207.864V117.389C207.311 117.444 206.649 117.279 206.207 116.837Z" fill="#6D4C41"/>
<path d="M237.298 160.794C236.966 160.463 236.414 160.463 236.027 160.85L215.374 182.663C214.159 183.988 211.95 183.105 211.95 181.282V174.545V173.33V159.027C211.95 156.763 212.723 154.554 214.104 152.732L236.524 123.684C236.801 123.353 236.745 122.856 236.469 122.525C236.138 122.193 235.586 122.193 235.254 122.525L213.993 143.786C212.723 145.056 210.625 144.172 210.625 142.405V127.163C210.625 124.954 211.343 122.746 212.723 120.978L227.247 101.705C227.523 101.374 227.468 100.877 227.192 100.546L226.916 100.27C226.584 99.9383 226.032 99.883 225.645 100.27L209.078 116.837C208.747 117.168 208.36 117.334 207.974 117.389V216.515H213.165V198.126C213.165 195.917 213.883 193.763 215.208 191.996L237.518 162.009C237.684 161.623 237.629 161.126 237.298 160.794Z" fill="#5D4037"/>
<path d="M203.059 216.515C203.059 217.896 200.629 217.786 200.132 218.283C201.402 219.498 205.599 219.718 207.864 219.718V215.521L203.059 216.515Z" fill="#6D4C41"/>
<path d="M213.055 216.515C213.055 217.896 215.485 217.786 215.982 218.283C214.711 219.498 210.183 219.718 207.864 219.718V215.521L213.055 216.515Z" fill="#5D4037"/>
<path d="M227.799 194.592H226.695C221.725 194.592 217.693 190.119 217.693 184.652C217.693 179.185 221.725 174.712 226.695 174.712H227.799C222.829 174.712 218.798 179.185 218.798 184.652C218.743 190.119 222.774 194.592 227.799 194.592Z" fill="#F9B21F"/>
<path d="M227.799 174.712C232.769 174.712 236.856 179.185 236.856 184.652C236.856 190.119 232.824 194.592 227.799 194.592C222.829 194.592 218.798 190.119 218.798 184.652C218.742 179.13 222.774 174.712 227.799 174.712Z" fill="#FFD22B"/>
<path d="M230.615 179.958V180.842H229.345H228.572C228.793 181.062 229.014 181.449 229.124 181.946C229.179 182.112 229.179 182.277 229.235 182.498H230.615V183.382H229.29C229.179 185.149 228.075 185.812 227.357 186.088C226.97 186.253 226.694 186.253 226.639 186.253L226.915 186.695L229.621 191.058H228.406L226.142 187.634L225.369 186.419V185.37C227.467 185.37 228.075 184.431 228.13 183.382H225.314V182.498H228.075C227.909 181.78 227.412 181.173 225.314 181.173V179.958H229.511H230.615Z" fill="#DB9400"/>
<path d="M171.526 147.65H172.41C176.551 147.65 179.92 143.95 179.92 139.422C179.92 134.838 176.551 131.193 172.41 131.193H171.526C175.668 131.193 179.037 134.893 179.037 139.422C178.981 144.005 175.668 147.65 171.526 147.65Z" fill="#F9B21F"/>
<path d="M171.526 131.193C167.384 131.193 164.016 134.893 164.016 139.422C164.016 144.005 167.384 147.65 171.526 147.65C175.668 147.65 179.036 143.95 179.036 139.422C178.981 134.838 175.668 131.193 171.526 131.193Z" fill="#FFD22B"/>
<path d="M173.956 135.281V135.999H172.907H172.244C172.41 136.164 172.575 136.496 172.686 136.937C172.741 137.103 172.741 137.214 172.796 137.379H173.956V138.097H172.851C172.796 139.533 171.857 140.14 171.25 140.361C170.918 140.472 170.698 140.472 170.642 140.472L170.863 140.803L173.127 144.393H172.078L170.201 141.521L169.538 140.527V139.699C171.305 139.699 171.802 138.926 171.802 138.042H169.483V137.324H171.747C171.636 136.717 171.195 136.22 169.483 136.22V135.226H172.962H173.956V135.281Z" fill="#DB9400"/>
<path d="M191.241 179.462H192.346C197.371 179.462 201.403 174.988 201.403 169.466C201.403 163.944 197.316 159.471 192.346 159.471H191.241C196.267 159.471 200.298 163.944 200.298 169.466C200.298 174.988 196.267 179.462 191.241 179.462Z" fill="#F9B21F"/>
<path d="M191.241 159.525C186.216 159.525 182.185 163.998 182.185 169.521C182.185 175.043 186.271 179.516 191.241 179.516C196.267 179.516 200.298 175.043 200.298 169.521C200.298 163.998 196.267 159.525 191.241 159.525Z" fill="#FFD22B"/>
<path d="M194.223 164.439V165.323H192.953H192.18C192.401 165.544 192.622 165.93 192.732 166.427C192.788 166.593 192.788 166.759 192.843 166.98H194.223V167.863H192.898C192.788 169.63 191.683 170.348 190.91 170.569C190.523 170.735 190.192 170.735 190.192 170.735L190.468 171.177L193.174 175.539H191.959L189.695 172.06L188.922 170.845V169.907C191.02 169.907 191.683 168.968 191.683 167.919H188.867V167.035H191.628C191.462 166.317 190.965 165.71 188.867 165.71V164.495H193.064H194.223V164.439Z" fill="#DB9400"/>
<path d="M197.481 131.968H198.585C203.666 131.968 207.808 127.439 207.808 121.807C207.808 116.174 203.666 111.646 198.585 111.646H197.481C202.562 111.646 206.703 116.174 206.703 121.807C206.703 127.439 202.562 131.968 197.481 131.968Z" fill="#F9B21F"/>
<path d="M197.481 111.646C192.4 111.646 188.259 116.174 188.259 121.807C188.259 127.439 192.4 131.968 197.481 131.968C202.561 131.968 206.703 127.439 206.703 121.807C206.703 116.174 202.561 111.646 197.481 111.646Z" fill="#FFD22B"/>
<path d="M200.519 116.726V117.61H199.249H198.475C198.696 117.831 198.917 118.217 199.028 118.769C199.083 118.935 199.083 119.156 199.138 119.322H200.519V120.205H199.138C199.028 121.972 197.923 122.69 197.15 122.966C196.763 123.132 196.432 123.132 196.432 123.132L196.708 123.574L199.469 127.992H198.199L195.88 124.457L195.052 123.242V122.193C197.205 122.193 197.813 121.254 197.868 120.15H194.996V119.266H197.813C197.647 118.493 197.15 117.941 194.996 117.941V116.671H199.249H200.519V116.726Z" fill="#DB9400"/>
<path d="M231.002 155.879H229.511C222.94 155.879 217.638 150.025 217.638 142.791C217.638 135.557 222.94 129.703 229.511 129.703H230.947C224.375 129.703 219.074 135.557 219.074 142.791C219.074 150.025 224.431 155.879 231.002 155.879Z" fill="#F9B21F"/>
<path d="M231.002 129.703C237.574 129.703 242.875 135.557 242.875 142.791C242.875 150.025 237.574 155.879 231.002 155.879C224.431 155.879 219.129 150.025 219.129 142.791C219.074 135.557 224.431 129.703 231.002 129.703Z" fill="#FFD22B"/>
<path d="M234.702 136.661V137.821H233.045H232.051C232.328 138.097 232.604 138.649 232.769 139.312C232.825 139.533 232.88 139.754 232.935 140.03H234.757V141.189H232.99C232.88 143.509 231.389 144.392 230.395 144.779C229.842 144.945 229.511 145 229.456 145L229.787 145.552L233.322 151.24H231.72L228.738 146.712L227.689 145.11V143.785C230.45 143.785 231.278 142.57 231.334 141.189H227.634V140.03H231.278C231.113 139.036 230.395 138.318 227.634 138.318V136.716H233.156H234.702V136.661Z" fill="#DB9400"/>
<path d="M223.602 116.784H222.995C220.123 116.784 217.804 114.244 217.804 111.041C217.804 107.893 220.123 105.298 222.995 105.298H223.602C220.731 105.298 218.411 107.893 218.411 111.041C218.411 114.244 220.731 116.784 223.602 116.784Z" fill="#F9B21F"/>
<path d="M223.602 105.352C226.474 105.352 228.793 107.947 228.793 111.095C228.793 114.243 226.474 116.838 223.602 116.838C220.731 116.838 218.411 114.298 218.411 111.095C218.411 107.892 220.731 105.352 223.602 105.352Z" fill="#FFD22B"/>
<path d="M225.259 108.389V108.886H224.541H224.099C224.209 108.996 224.32 109.217 224.43 109.548C224.43 109.659 224.486 109.769 224.486 109.88H225.259V110.377H224.486C224.43 111.371 223.768 111.813 223.381 111.923C223.16 111.978 222.995 112.034 222.995 112.034L223.16 112.254L224.706 114.739H223.989L222.663 112.751L222.221 112.034V111.426C223.436 111.426 223.823 110.874 223.823 110.266H222.221V109.769H223.823C223.768 109.328 223.436 108.996 222.221 108.996V108.278H224.651H225.259V108.389Z" fill="#DB9400"/>
<path d="M193.229 108.222H193.616C195.383 108.222 196.819 106.62 196.819 104.688C196.819 102.755 195.383 101.153 193.616 101.153H193.229C194.996 101.153 196.432 102.755 196.432 104.688C196.432 106.676 194.996 108.222 193.229 108.222Z" fill="#F9B21F"/>
<path d="M193.229 101.209C191.462 101.209 190.026 102.81 190.026 104.743C190.026 106.676 191.462 108.278 193.229 108.278C194.996 108.278 196.432 106.676 196.432 104.743C196.432 102.755 194.996 101.209 193.229 101.209Z" fill="#FFD22B"/>
<path d="M235.751 167.919H235.198C232.769 167.919 230.836 165.766 230.836 163.115C230.836 160.464 232.769 158.311 235.198 158.311H235.751C233.321 158.311 231.388 160.464 231.388 163.115C231.388 165.766 233.321 167.919 235.751 167.919Z" fill="#F9B21F"/>
<path d="M235.751 158.311C238.18 158.311 240.113 160.464 240.113 163.115C240.113 165.766 238.18 167.919 235.751 167.919C233.321 167.919 231.388 165.766 231.388 163.115C231.388 160.464 233.321 158.311 235.751 158.311Z" fill="#FFD22B"/>
<path d="M212.503 167.091H211.895C209.134 167.091 206.87 164.606 206.87 161.513C206.87 158.421 209.134 155.936 211.895 155.936H212.503C209.742 155.936 207.478 158.421 207.478 161.513C207.478 164.606 209.742 167.091 212.503 167.091Z" fill="#F9B21F"/>
<path d="M212.503 155.936C215.264 155.936 217.528 158.421 217.528 161.513C217.528 164.606 215.264 167.091 212.503 167.091C209.742 167.091 207.478 164.606 207.478 161.513C207.478 158.421 209.742 155.936 212.503 155.936Z" fill="#FFD22B"/>
<path d="M203.446 198.843H203.059C201.292 198.843 199.801 197.242 199.801 195.309C199.801 193.321 201.237 191.774 203.059 191.774H203.446C201.678 191.774 200.187 193.376 200.187 195.309C200.243 197.242 201.678 198.843 203.446 198.843Z" fill="#F9B21F"/>
<path d="M203.446 191.72C205.213 191.72 206.704 193.321 206.704 195.254C206.704 197.242 205.268 198.788 203.446 198.788C201.679 198.788 200.188 197.187 200.188 195.254C200.243 193.321 201.679 191.72 203.446 191.72Z" fill="#FFD22B"/>
<path d="M131.158 206.41C139.637 206.41 146.51 205.446 146.51 204.256C146.51 203.067 139.637 202.103 131.158 202.103C122.679 202.103 115.806 203.067 115.806 204.256C115.806 205.446 122.679 206.41 131.158 206.41Z" fill="#1CAF82"/>
<path d="M130.164 137.932L122.598 130.367C122.377 130.146 121.936 130.146 121.715 130.367L121.604 130.477C121.383 130.698 121.383 130.974 121.549 131.25L127.734 140.915C128.452 142.074 128.894 143.4 128.894 144.78V163.39V164.274V170.128C128.894 171.398 127.403 172.005 126.519 171.122L105.7 150.082C105.479 149.861 105.037 149.861 104.816 150.082C104.595 150.303 104.595 150.689 104.761 150.91L126.409 177.417C127.458 178.687 128.065 180.344 128.065 182.001V202.93H131.434V138.319C130.937 138.374 130.495 138.209 130.164 137.932Z" fill="#6D4C41"/>
<path d="M152.088 168.913C151.812 168.692 151.425 168.692 151.204 168.913L136.68 184.32C135.797 185.259 134.251 184.652 134.251 183.381V178.632V177.749V167.643C134.251 166.041 134.803 164.495 135.742 163.225L151.536 142.737C151.701 142.516 151.701 142.13 151.48 141.909C151.259 141.688 150.873 141.688 150.597 141.909L135.631 156.874C134.748 157.758 133.257 157.15 133.257 155.88V145.112C133.257 143.51 133.754 142.019 134.692 140.749L144.909 127.164C145.074 126.943 145.074 126.557 144.853 126.336L144.688 126.17C144.467 125.894 144.025 125.894 143.804 126.17L132.097 137.877C131.876 138.098 131.6 138.209 131.324 138.264V202.931H134.968V195.144C134.968 193.598 135.465 192.052 136.404 190.837L152.143 169.686C152.364 169.465 152.309 169.134 152.088 168.913Z" fill="#5D4037"/>
<path d="M127.955 202.986C127.955 203.98 126.243 203.87 125.912 204.257C126.795 205.085 129.777 205.251 131.379 205.251V202.269L127.955 202.986Z" fill="#6D4C41"/>
<path d="M135.024 202.986C135.024 203.98 136.736 203.87 137.067 204.257C136.183 205.085 132.98 205.251 131.379 205.251V202.269L135.024 202.986Z" fill="#5D4037"/>
<path d="M149.713 179.904H148.94C145.406 179.904 142.589 176.756 142.589 172.89C142.589 169.025 145.461 165.877 148.94 165.877H149.713C146.179 165.877 143.362 169.025 143.362 172.89C143.307 176.756 146.179 179.904 149.713 179.904Z" fill="#F9B21F"/>
<path d="M149.713 165.877C153.248 165.877 156.064 169.025 156.064 172.89C156.064 176.756 153.192 179.904 149.713 179.904C146.179 179.904 143.363 176.756 143.363 172.89C143.307 169.025 146.179 165.877 149.713 165.877Z" fill="#FFD22B"/>
<path d="M151.701 169.577V170.184H150.818H150.265C150.431 170.35 150.541 170.626 150.652 170.957C150.707 171.068 150.707 171.178 150.707 171.344H151.701V171.951H150.762C150.707 173.166 149.934 173.663 149.382 173.884C149.106 173.995 148.885 173.995 148.885 173.995L149.05 174.271L150.928 177.308H150.044L148.443 174.878L147.891 174.05V173.332C149.382 173.332 149.823 172.669 149.823 171.951H147.835V171.344H149.768C149.658 170.847 149.271 170.405 147.835 170.405V169.521H150.762H151.701V169.577Z" fill="#DB9400"/>
<path d="M107.302 159.802H107.964C110.891 159.802 113.266 157.206 113.266 154.004C113.266 150.801 110.891 148.205 107.964 148.205H107.302C110.228 148.205 112.603 150.801 112.603 154.004C112.603 157.206 110.228 159.802 107.302 159.802Z" fill="#F9B21F"/>
<path d="M107.301 148.149C104.375 148.149 102 150.745 102 153.948C102 157.151 104.375 159.746 107.301 159.746C110.228 159.746 112.603 157.151 112.603 153.948C112.603 150.745 110.228 148.149 107.301 148.149Z" fill="#FFD22B"/>
<path d="M109.014 151.021V151.518H108.296H107.854C107.964 151.628 108.075 151.904 108.185 152.18C108.185 152.291 108.24 152.401 108.24 152.512H109.069V153.009H108.296C108.24 154.058 107.578 154.444 107.136 154.61C106.915 154.665 106.749 154.72 106.749 154.72L106.915 154.997L108.517 157.537H107.799L106.473 155.494L106.032 154.776V154.168C107.246 154.168 107.633 153.616 107.633 153.009H105.976V152.512H107.578C107.523 152.07 107.191 151.738 105.976 151.738V151.021H108.406H109.014V151.021Z" fill="#DB9400"/>
<path d="M118.457 175.703H119.23C122.764 175.703 125.636 172.555 125.636 168.689C125.636 164.824 122.764 161.676 119.23 161.676H118.457C121.991 161.676 124.862 164.824 124.862 168.689C124.862 172.555 121.991 175.703 118.457 175.703Z" fill="#F9B21F"/>
<path d="M118.456 161.676C114.922 161.676 112.051 164.824 112.051 168.689C112.051 172.555 114.922 175.703 118.456 175.703C121.991 175.703 124.862 172.555 124.862 168.689C124.862 164.824 121.991 161.676 118.456 161.676Z" fill="#FFD22B"/>
<path d="M120.555 165.157V165.765H119.671H119.119C119.285 165.93 119.395 166.206 119.506 166.538C119.561 166.648 119.561 166.814 119.561 166.924H120.555V167.532H119.616C119.561 168.802 118.788 169.244 118.236 169.465C117.96 169.575 117.739 169.575 117.739 169.575L117.904 169.851L119.837 172.944H118.954L117.352 170.514L116.8 169.686V168.968C118.291 168.968 118.733 168.305 118.733 167.587H116.745V166.98H118.677C118.567 166.483 118.18 166.041 116.745 166.041V165.157H119.727H120.555Z" fill="#DB9400"/>
<path d="M127.458 157.096H128.231C131.821 157.096 134.748 153.893 134.748 149.972C134.748 145.996 131.821 142.793 128.231 142.793H127.458C131.048 142.793 133.974 145.996 133.974 149.972C133.974 153.893 131.048 157.096 127.458 157.096Z" fill="#F9B21F"/>
<path d="M127.458 142.793C123.869 142.793 120.942 145.996 120.942 149.972C120.942 153.948 123.869 157.096 127.458 157.096C131.048 157.096 133.975 153.893 133.975 149.972C133.975 145.996 131.048 142.793 127.458 142.793Z" fill="#FFD22B"/>
<path d="M129.612 146.327V146.99H128.728H128.176C128.342 147.156 128.452 147.432 128.563 147.818C128.618 147.929 128.618 148.094 128.618 148.205H129.612V148.867H128.673C128.618 150.138 127.79 150.635 127.292 150.8C127.016 150.911 126.795 150.911 126.795 150.911L126.961 151.242L128.894 154.335H128.01L126.409 151.849L125.857 150.966V150.248C127.348 150.248 127.845 149.585 127.845 148.812H125.857V148.15H127.845C127.734 147.597 127.348 147.211 125.857 147.211V146.327H128.839H129.612V146.327Z" fill="#DB9400"/>
<path d="M144.632 161.237H143.859C140.38 161.237 137.563 158.144 137.563 154.278C137.563 150.413 140.38 147.32 143.859 147.32H144.632C141.153 147.32 138.337 150.413 138.337 154.278C138.337 158.144 141.153 161.237 144.632 161.237Z" fill="#F9B21F"/>
<path d="M144.632 147.375C148.111 147.375 150.928 150.467 150.928 154.333C150.928 158.199 148.111 161.291 144.632 161.291C141.153 161.291 138.337 158.199 138.337 154.333C138.337 150.467 141.153 147.375 144.632 147.375Z" fill="#FFD22B"/>
<path d="M146.62 151.021V151.628H145.737H145.185C145.35 151.794 145.461 152.07 145.571 152.401C145.626 152.512 145.626 152.622 145.626 152.788H146.565V153.395H145.626C145.571 154.61 144.798 155.107 144.246 155.273C143.97 155.383 143.749 155.383 143.749 155.383L143.914 155.659L145.792 158.697H145.019L143.417 156.267L142.865 155.438V154.721C144.301 154.721 144.743 154.058 144.798 153.34H142.865V152.733H144.798C144.688 152.236 144.301 151.794 142.865 151.794V150.91H145.792H146.62V151.021Z" fill="#DB9400"/>
<path d="M142.589 136.385H141.981C139.109 136.385 136.735 133.789 136.735 130.642C136.735 127.494 139.054 124.898 141.981 124.898H142.589C139.717 124.898 137.342 127.494 137.342 130.642C137.342 133.789 139.662 136.385 142.589 136.385Z" fill="#F9B21F"/>
<path d="M142.589 124.898C145.46 124.898 147.835 127.494 147.835 130.642C147.835 133.789 145.516 136.385 142.589 136.385C139.717 136.385 137.343 133.789 137.343 130.642C137.343 127.494 139.662 124.898 142.589 124.898Z" fill="#FFD22B"/>
<path d="M144.191 127.937V128.434H143.473H143.031C143.141 128.544 143.252 128.765 143.362 129.096C143.362 129.207 143.418 129.317 143.418 129.428H144.191V129.925H143.418C143.362 130.919 142.7 131.36 142.258 131.471C142.037 131.526 141.871 131.581 141.871 131.581L142.037 131.857L143.583 134.342H142.865L141.54 132.354L141.098 131.636V131.029C142.313 131.029 142.7 130.477 142.7 129.869H141.098V129.372H142.7C142.644 128.931 142.313 128.599 141.098 128.599V127.937H143.528H144.191Z" fill="#DB9400"/>
<path d="M125.028 135.004H125.304C126.575 135.004 127.569 133.9 127.569 132.519C127.569 131.139 126.575 130.034 125.304 130.034H125.028C126.298 130.034 127.292 131.139 127.292 132.519C127.292 133.9 126.298 135.004 125.028 135.004Z" fill="#F9B21F"/>
<path d="M125.028 130.09C123.758 130.09 122.764 131.194 122.764 132.575C122.764 133.955 123.758 135.06 125.028 135.06C126.298 135.06 127.292 133.955 127.292 132.575C127.292 131.194 126.298 130.09 125.028 130.09Z" fill="#FFD22B"/>
<path d="M131.765 189.288H131.489C130.219 189.288 129.225 188.184 129.225 186.803C129.225 185.423 130.219 184.318 131.489 184.318H131.765C130.495 184.318 129.501 185.423 129.501 186.803C129.501 188.184 130.55 189.288 131.765 189.288Z" fill="#F9B21F"/>
<path d="M131.765 184.318C133.035 184.318 134.029 185.423 134.029 186.803C134.029 188.184 133.035 189.288 131.765 189.288C130.495 189.288 129.501 188.184 129.501 186.803C129.501 185.423 130.55 184.318 131.765 184.318Z" fill="#FFD22B"/>
<path d="M287.938 207.128C296.416 207.128 303.29 206.163 303.29 204.974C303.29 203.785 296.416 202.82 287.938 202.82C279.459 202.82 272.585 203.785 272.585 204.974C272.585 206.163 279.459 207.128 287.938 207.128Z" fill="#1CAF82"/>
<path d="M289.594 138.596L297.159 131.03C297.38 130.809 297.822 130.809 298.043 131.03L298.153 131.14C298.374 131.361 298.374 131.637 298.209 131.914L292.024 141.578C291.306 142.737 290.864 144.063 290.864 145.443V164.054V164.937V170.791C290.864 172.061 292.355 172.668 293.239 171.785L306.989 158.476C307.21 158.255 307.652 158.255 307.873 158.476C308.094 158.697 308.094 159.083 307.928 159.304L293.459 178.191C292.41 179.461 291.803 181.118 291.803 182.774V203.704H288.434V138.982C288.821 139.093 289.262 138.927 289.594 138.596Z" fill="#5D4037"/>
<path d="M267.67 169.63C267.946 169.41 268.333 169.41 268.554 169.63L283.077 185.038C283.961 185.977 285.507 185.369 285.507 184.099V179.295V178.411V168.305C285.507 166.704 284.955 165.157 284.016 163.887L273.137 148.314C272.972 148.093 272.972 147.707 273.192 147.486C273.413 147.265 273.8 147.265 274.076 147.486L284.127 157.592C285.01 158.475 286.501 157.868 286.501 156.598V145.829C286.501 144.228 286.004 142.737 285.066 141.467L280.151 133.238C279.985 133.017 279.985 132.631 280.206 132.41L280.372 132.244C280.592 131.968 281.034 131.968 281.255 132.244L287.606 138.595C287.827 138.816 288.103 138.926 288.379 138.981V203.648H284.734V195.862C284.734 194.315 284.237 192.769 283.298 191.554L267.615 170.404C267.449 170.183 267.449 169.851 267.67 169.63Z" fill="#6D4C41"/>
<path d="M291.803 203.704C291.803 204.698 293.515 204.588 293.846 204.974C292.962 205.803 289.98 205.968 288.379 205.968V202.986L291.803 203.704Z" fill="#5D4037"/>
<path d="M284.789 203.704C284.789 204.698 283.077 204.588 282.746 204.974C283.63 205.803 286.833 205.968 288.434 205.968V202.986L284.789 203.704Z" fill="#6D4C41"/>
<path d="M293.128 160.519H292.576C289.98 160.519 287.827 158.199 287.827 155.328C287.827 152.456 289.925 150.137 292.576 150.137H293.128C290.533 150.137 288.379 152.456 288.379 155.328C288.379 158.199 290.533 160.519 293.128 160.519Z" fill="#F9B21F"/>
<path d="M293.128 150.081C295.724 150.081 297.877 152.4 297.877 155.272C297.877 158.144 295.779 160.463 293.128 160.463C290.533 160.463 288.379 158.144 288.379 155.272C288.379 152.456 290.533 150.081 293.128 150.081Z" fill="#FFD22B"/>
<path d="M294.619 152.844V153.286H293.957H293.57C293.681 153.396 293.791 153.617 293.846 153.893C293.846 154.003 293.901 154.059 293.901 154.169H294.619V154.611H293.901C293.846 155.55 293.294 155.881 292.852 156.047C292.631 156.102 292.466 156.157 292.466 156.157L292.631 156.378L294.067 158.642H293.404L292.245 156.82L291.858 156.212V155.66C292.963 155.66 293.294 155.163 293.294 154.611H291.803V154.169H293.239C293.184 153.783 292.907 153.506 291.803 153.506V152.844H294.012H294.619V152.844Z" fill="#DB9400"/>
<path d="M296.553 179.02H296.111C294.233 179.02 292.687 177.308 292.687 175.265C292.687 173.166 294.233 171.454 296.111 171.454H296.553C294.675 171.454 293.129 173.166 293.129 175.265C293.074 177.308 294.62 179.02 296.553 179.02Z" fill="#F9B21F"/>
<path d="M296.552 171.454C298.43 171.454 299.976 173.166 299.976 175.265C299.976 177.363 298.43 179.02 296.552 179.02C294.675 179.02 293.128 177.308 293.128 175.265C293.073 173.111 294.619 171.454 296.552 171.454Z" fill="#FFD22B"/>
<path d="M297.602 173.441V173.773H297.105H296.828C296.939 173.828 296.994 173.994 297.049 174.215C297.049 174.27 297.105 174.325 297.105 174.435H297.602V174.767H297.105C297.049 175.429 296.663 175.706 296.387 175.816C296.221 175.871 296.11 175.871 296.11 175.871L296.221 176.037L297.27 177.694H296.828L295.945 176.368L295.669 175.926V175.54C296.442 175.54 296.718 175.153 296.718 174.767H295.669V174.435H296.718C296.663 174.159 296.442 173.938 295.669 173.938V173.497H297.27H297.602V173.441Z" fill="#DB9400"/>
<path d="M270.984 178.634H271.647C274.684 178.634 277.114 175.928 277.114 172.615C277.114 169.302 274.684 166.596 271.647 166.596H270.984C274.021 166.596 276.451 169.302 276.451 172.615C276.451 175.928 273.966 178.634 270.984 178.634Z" fill="#F9B21F"/>
<path d="M270.984 166.596C267.946 166.596 265.517 169.302 265.517 172.615C265.517 175.928 267.946 178.634 270.984 178.634C274.021 178.634 276.451 175.928 276.451 172.615C276.451 169.302 273.966 166.596 270.984 166.596Z" fill="#FFD22B"/>
<path d="M272.751 169.576V170.128H271.978H271.536C271.646 170.239 271.812 170.515 271.867 170.791C271.867 170.902 271.923 171.012 271.923 171.122H272.751V171.675H271.923C271.867 172.724 271.205 173.166 270.763 173.331C270.542 173.442 270.321 173.442 270.321 173.442L270.487 173.718L272.143 176.313H271.425L270.045 174.215L269.548 173.497V172.89C270.818 172.89 271.205 172.337 271.205 171.675H269.493V171.122H271.149C271.039 170.681 270.763 170.349 269.493 170.349V169.631H272.033H272.751V169.576Z" fill="#DB9400"/>
<path d="M276.893 157.757H277.666C281.256 157.757 284.183 154.554 284.183 150.633C284.183 146.657 281.256 143.454 277.666 143.454H276.893C280.483 143.454 283.41 146.657 283.41 150.633C283.41 154.554 280.483 157.757 276.893 157.757Z" fill="#F9B21F"/>
<path d="M276.894 143.454C273.304 143.454 270.377 146.657 270.377 150.633C270.377 154.609 273.304 157.757 276.894 157.757C280.483 157.757 283.41 154.554 283.41 150.633C283.41 146.657 280.483 143.454 276.894 143.454Z" fill="#FFD22B"/>
<path d="M279.047 147.044V147.707H278.108H277.556C277.721 147.872 277.832 148.148 277.942 148.535C277.997 148.645 277.997 148.811 277.997 148.922H278.991V149.584H278.108C278.053 150.854 277.224 151.351 276.727 151.517C276.451 151.627 276.23 151.627 276.23 151.627L276.396 151.959L278.329 155.051H277.445L275.844 152.566L275.292 151.683V150.965C276.783 150.965 277.28 150.302 277.28 149.529H275.292V148.866H277.28C277.169 148.314 276.783 147.928 275.292 147.928V147.044H278.274H279.047V147.044Z" fill="#DB9400"/>
<path d="M306.161 167.255H305.499C302.517 167.255 300.142 164.605 300.142 161.346C300.142 158.088 302.572 155.438 305.499 155.438H306.161C303.179 155.438 300.805 158.088 300.805 161.346C300.805 164.605 303.179 167.255 306.161 167.255Z" fill="#F9B21F"/>
<path d="M306.161 155.438C309.143 155.438 311.518 158.088 311.518 161.346C311.518 164.605 309.088 167.255 306.161 167.255C303.179 167.255 300.805 164.605 300.805 161.346C300.805 158.088 303.179 155.438 306.161 155.438Z" fill="#FFD22B"/>
<path d="M307.873 158.586V159.138H307.1H306.658C306.769 159.249 306.935 159.525 306.99 159.801C306.99 159.911 307.045 160.022 307.045 160.132H307.873V160.684H307.1C307.045 161.734 306.382 162.12 305.94 162.286C305.72 162.396 305.554 162.396 305.499 162.396L305.664 162.672L307.266 165.268H306.548L305.223 163.225L304.726 162.507V161.899C305.996 161.899 306.327 161.347 306.382 160.74H304.726V160.187H306.382C306.327 159.746 305.996 159.414 304.726 159.414V158.696H307.211H307.873V158.586Z" fill="#DB9400"/>
<path d="M297.933 140.529H297.325C294.454 140.529 292.079 137.934 292.079 134.786C292.079 131.583 294.398 129.043 297.325 129.043H297.933C295.061 129.043 292.687 131.638 292.687 134.786C292.742 137.989 295.061 140.529 297.933 140.529Z" fill="#F9B21F"/>
<path d="M297.933 129.043C300.805 129.043 303.179 131.638 303.179 134.786C303.179 137.989 300.86 140.529 297.933 140.529C295.061 140.529 292.687 137.934 292.687 134.786C292.742 131.638 295.061 129.043 297.933 129.043Z" fill="#FFD22B"/>
<path d="M299.59 132.079V132.576H298.872H298.43C298.54 132.686 298.651 132.907 298.761 133.238C298.761 133.349 298.816 133.459 298.816 133.57H299.59V134.067H298.816C298.761 135.061 298.099 135.503 297.657 135.613C297.436 135.668 297.27 135.723 297.27 135.723L297.436 136L298.982 138.485H298.264L296.939 136.497L296.497 135.779V135.171C297.712 135.171 298.099 134.619 298.099 134.011H296.497V133.514H298.099C298.043 133.073 297.712 132.741 296.497 132.741V132.023H298.927H299.59V132.079Z" fill="#DB9400"/>
<path d="M280.482 135.556H280.759C282.029 135.556 283.023 134.452 283.023 133.071C283.023 131.69 282.029 130.586 280.759 130.586H280.482C281.753 130.586 282.747 131.69 282.747 133.071C282.691 134.452 281.697 135.556 280.482 135.556Z" fill="#F9B21F"/>
<path d="M280.482 130.586C279.212 130.586 278.218 131.69 278.218 133.071C278.218 134.452 279.212 135.556 280.482 135.556C281.752 135.556 282.746 134.452 282.746 133.071C282.691 131.746 281.697 130.586 280.482 130.586Z" fill="#FFD22B"/>
<path d="M292.134 191.112H291.803C290.312 191.112 289.152 189.787 289.152 188.186C289.152 186.584 290.367 185.259 291.803 185.259H292.134C290.643 185.259 289.484 186.584 289.484 188.186C289.484 189.787 290.699 191.112 292.134 191.112Z" fill="#F9B21F"/>
<path d="M292.134 185.204C293.625 185.204 294.785 186.529 294.785 188.131C294.785 189.732 293.57 191.058 292.134 191.058C290.643 191.058 289.484 189.732 289.484 188.131C289.484 186.529 290.699 185.204 292.134 185.204Z" fill="#FFD22B"/>
<path d="M192.096 176.442H190.771C190.44 176.442 190.192 176.194 190.192 175.862V174.538C190.192 174.206 189.943 173.958 189.612 173.958C189.281 173.958 189.032 174.206 189.032 174.538V175.862C189.032 176.194 188.784 176.442 188.453 176.442H187.128C186.797 176.442 186.548 176.69 186.548 177.022C186.548 177.353 186.797 177.601 187.128 177.601H188.453C188.784 177.601 189.032 177.85 189.032 178.181V179.506C189.032 179.837 189.281 180.085 189.612 180.085C189.943 180.085 190.192 179.837 190.192 179.506V178.181C190.192 177.85 190.44 177.601 190.771 177.601H192.096C192.427 177.601 192.676 177.353 192.676 177.022C192.676 176.69 192.427 176.442 192.096 176.442Z" fill="white"/>
<path d="M263.884 153.424H262.559C262.228 153.424 261.979 153.176 261.979 152.845V151.52C261.979 151.189 261.731 150.94 261.4 150.94C261.068 150.94 260.82 151.189 260.82 151.52V152.845C260.82 153.176 260.572 153.424 260.24 153.424H258.916C258.584 153.424 258.336 153.673 258.336 154.004C258.336 154.335 258.584 154.584 258.916 154.584H260.24C260.572 154.584 260.82 154.832 260.82 155.163V156.488C260.82 156.819 261.068 157.068 261.4 157.068C261.731 157.068 261.979 156.819 261.979 156.488V155.163C261.979 154.832 262.228 154.584 262.559 154.584H263.884C264.215 154.584 264.463 154.335 264.463 154.004C264.463 153.673 264.215 153.424 263.884 153.424Z" fill="#FFD22B"/>
<path d="M182.822 105.98H181.498C181.166 105.98 180.918 105.732 180.918 105.4V104.076C180.918 103.744 180.67 103.496 180.338 103.496C180.007 103.496 179.759 103.744 179.759 104.076V105.4C179.759 105.732 179.51 105.98 179.179 105.98H177.854C177.523 105.98 177.275 106.228 177.275 106.56C177.275 106.891 177.523 107.139 177.854 107.139H179.179C179.51 107.139 179.759 107.388 179.759 107.719V109.044C179.759 109.375 180.007 109.623 180.338 109.623C180.67 109.623 180.918 109.375 180.918 109.044V107.719C180.918 107.388 181.166 107.139 181.498 107.139H182.822C183.154 107.139 183.402 106.891 183.402 106.56C183.402 106.228 183.154 105.98 182.822 105.98Z" fill="#FFD22B"/>
<path d="M255.935 55.3061H253.948C253.451 55.3061 253.037 54.8921 253.037 54.3953V52.4081C253.037 51.9113 252.623 51.5801 252.209 51.5801C251.712 51.5801 251.381 51.9941 251.381 52.4081V54.3953C251.381 54.8921 250.967 55.3061 250.47 55.3061H248.483C247.986 55.3061 247.655 55.7201 247.655 56.1341C247.655 56.6309 248.069 56.9621 248.483 56.9621H250.47C250.967 56.9621 251.381 57.3761 251.381 57.8729V59.8601C251.381 60.3569 251.795 60.6881 252.209 60.6881C252.706 60.6881 253.037 60.2741 253.037 59.8601V57.8729C253.037 57.3761 253.451 56.9621 253.948 56.9621H255.935C256.432 56.9621 256.763 56.5481 256.763 56.1341C256.763 55.7201 256.432 55.3061 255.935 55.3061Z" fill="#FFD22B"/>
<path d="M163.364 75.2607C164.233 75.2607 164.938 74.5563 164.938 73.6875C164.938 72.8186 164.233 72.1143 163.364 72.1143C162.496 72.1143 161.791 72.8186 161.791 73.6875C161.791 74.5563 162.496 75.2607 163.364 75.2607Z" fill="white"/>
<path d="M145.811 129.495C145.811 130.489 144.983 131.317 143.989 131.317C142.996 131.317 142.168 130.489 142.168 129.495C142.168 128.502 142.996 127.674 143.989 127.674C144.983 127.674 145.811 128.419 145.811 129.495Z" fill="white"/>
<path d="M275.807 84.8654C275.807 86.1902 274.73 87.2666 273.406 87.2666C272.081 87.2666 271.004 86.1902 271.004 84.8654C271.004 83.5406 272.081 82.4641 273.406 82.4641C274.73 82.3813 275.807 83.5406 275.807 84.8654Z" fill="white"/>
<path d="M270.011 123.119C270.011 124.444 268.935 125.52 267.61 125.52C266.285 125.52 265.208 124.444 265.208 123.119C265.208 121.794 266.285 120.718 267.61 120.718C268.935 120.635 270.011 121.794 270.011 123.119Z" fill="white"/>
<path d="M174.14 107.075C174.14 108.234 173.229 109.145 172.07 109.145C170.911 109.145 170 108.234 170 107.075C170 105.916 170.911 105.005 172.07 105.005C173.229 104.922 174.14 105.916 174.14 107.075Z" fill="white"/>
<path d="M320.843 74.6119C323.748 74.283 326.818 74.1185 329.23 72.5289C331.093 71.323 332.409 69.3496 334.382 68.3081C336.465 67.2119 338.932 67.2119 341.289 67.157C343.646 67.0474 346.167 66.7733 347.921 65.1837C349.566 63.7037 350.114 61.237 349.676 59.0444C349.237 56.8519 347.921 54.9333 346.332 53.4533C345.51 52.6859 344.578 51.9733 343.646 51.3704C341.179 50.4933 338.493 50 335.698 50C324.132 50 314.484 58.2222 312.292 69.1304C307.03 69.5141 302.644 73.077 301 77.9007H313.169C314.978 75.7081 318.047 74.9956 320.843 74.6119Z" fill="white"/>
<path d="M369.683 77.8458C369.409 71.3777 364.366 66.1154 357.953 65.5125C355.541 59.0443 350.443 53.8917 343.975 51.4799C343.81 51.4251 343.701 51.3702 343.536 51.3154C344.468 51.9732 345.4 52.631 346.222 53.3984C347.812 54.9332 349.127 56.8517 349.566 58.9895C350.004 61.1821 349.401 63.5939 347.812 65.1288C346.058 66.7184 343.536 67.0473 341.179 67.1021C338.822 67.2117 336.356 67.1569 334.273 68.2532C332.299 69.2947 330.984 71.268 329.12 72.474C326.653 74.0636 323.638 74.228 320.733 74.5569C317.938 74.8858 314.923 75.5984 313.114 77.791H336.684H369.683V77.8458Z" fill="#C7E5C9"/>
<path d="M116.966 51.3744C113.406 51.6228 109.68 51.3744 106.699 49.3872C104.794 48.1452 103.387 46.2408 101.565 44.8332C98.75 42.6804 95.2724 41.8524 91.7948 41.2728C88.3172 40.6932 84.7568 40.4448 81.4448 39.2856C78.1328 38.1264 74.9864 35.9736 73.6616 32.7444C72.254 29.3496 73.3304 25.2096 76.0628 22.7256C68.4452 26.8656 62.8976 34.3176 61.1588 43.0116C54.5348 43.5084 49.07 47.9796 47 54.024H91.9604H133.278C133.278 53.3616 133.195 52.782 133.112 52.1196C131.456 51.2916 129.552 50.7948 127.647 50.6292C124.087 50.4636 120.526 51.126 116.966 51.3744Z" fill="#C7E5C9"/>
<path d="M118.539 38.5408C115.558 30.4264 109.1 23.968 101.068 20.9044C97.7564 19.6624 94.196 19 90.5528 19C85.3364 19 80.4512 20.3248 76.1456 22.726C73.4132 25.1272 72.4196 29.35 73.7444 32.7448C75.0692 35.974 78.2156 38.2096 81.5276 39.286C84.8396 40.4452 88.4 40.6936 91.8776 41.2732C95.3552 41.8528 98.9156 42.6808 101.648 44.8336C103.47 46.2412 104.877 48.1456 106.782 49.3876C109.762 51.3748 113.488 51.6232 117.049 51.3748C120.609 51.1264 124.087 50.464 127.647 50.7124C129.552 50.878 131.373 51.292 133.112 52.2028C131.87 44.9164 125.908 39.286 118.539 38.5408Z" fill="white"/>
</g>
</svg>
