<svg width="178" height="35" viewBox="0 0 178 35" fill="none" xmlns="http://www.w3.org/2000/svg">
<circle cx="17.0947" cy="17.0947" r="16.6358" fill="#495DB2" stroke="white" stroke-width="0.917915"/>
<mask id="mask0_4109_13038" style="mask-type:alpha" maskUnits="userSpaceOnUse" x="0" y="0" width="35" height="35">
<circle cx="17.0947" cy="17.0947" r="16.6358" fill="#495DB2" stroke="white" stroke-width="0.917915"/>
</mask>
<g mask="url(#mask0_4109_13038)">
<path d="M26.9694 23.8977C26.9694 25.8292 22.596 27.3951 17.201 27.3951C11.8061 27.3951 7.43262 25.8292 7.43262 23.8977C7.43262 21.9662 11.8061 20.4004 17.201 20.4004C22.596 20.4004 26.9694 21.9662 26.9694 23.8977Z" fill="#EFAF4E"/>
<path d="M26.683 24.7419C26.8701 24.4716 26.9694 24.1888 26.9694 23.8977C26.9694 21.9662 22.596 20.4004 17.201 20.4004C11.8061 20.4004 7.43262 21.9662 7.43262 23.8977C7.43262 24.1888 7.53193 24.4716 7.71909 24.7419C8.77392 23.2182 12.6191 22.0888 17.201 22.0888C21.783 22.0888 25.6281 23.2182 26.683 24.7419Z" fill="#1F2C65"/>
</g>
<path d="M8.63867 16.4199C8.63867 11.691 12.4722 7.85742 17.2011 7.85742C21.93 7.85742 25.7635 11.691 25.7635 16.4199V24.4999H8.63867V16.4199Z" fill="#EFAF4E"/>
<path fill-rule="evenodd" clip-rule="evenodd" d="M14.1699 10.0645C14.2827 10.2553 14.2194 10.5015 14.0285 10.6143C13.7014 10.8076 13.3992 11.0265 13.1209 11.2652C12.9526 11.4096 12.6991 11.3901 12.5548 11.2218C12.4105 11.0535 12.4299 10.8001 12.5982 10.6558C12.9105 10.388 13.2507 10.1413 13.6201 9.92308C13.811 9.81029 14.0571 9.87359 14.1699 10.0645ZM11.9374 12.035C12.0942 12.1918 12.0942 12.4459 11.9374 12.6027C11.4561 13.084 11.0903 13.7879 10.8453 14.5594C10.6014 15.3275 10.4874 16.1307 10.4875 16.7809C10.4875 17.0026 10.3078 17.1824 10.0861 17.1824C9.86434 17.1824 9.68459 17.0027 9.68457 16.781C9.6845 16.0471 9.81157 15.162 10.0801 14.3164C10.3475 13.4742 10.7656 12.6391 11.3697 12.035C11.5265 11.8782 11.7806 11.8782 11.9374 12.035Z" fill="white"/>
<path d="M16.5977 16.0576C16.5977 15.6579 16.9216 15.334 17.3212 15.334C17.7209 15.334 18.0448 15.6579 18.0448 16.0576V17.9871C18.0448 18.3868 17.7209 18.7107 17.3212 18.7107C16.9216 18.7107 16.5977 18.3868 16.5977 17.9871V16.0576Z" fill="#1F2C65"/>
<path d="M21.4219 16.0576C21.4219 15.6579 21.7458 15.334 22.1455 15.334C22.5451 15.334 22.869 15.6579 22.869 16.0576V17.9871C22.869 18.3868 22.5451 18.7107 22.1455 18.7107C21.7458 18.7107 21.4219 18.3868 21.4219 17.9871V16.0576Z" fill="#1F2C65"/>
<circle cx="47.2094" cy="17.142" r="16.437" fill="#EFAF4E" stroke="white" stroke-width="0.917915"/>
<mask id="mask1_4109_13038" style="mask-type:alpha" maskUnits="userSpaceOnUse" x="30" y="0" width="35" height="35">
<circle cx="47.2094" cy="17.142" r="16.896" fill="#D9D9D9"/>
</mask>
<g mask="url(#mask1_4109_13038)">
<path d="M71.3466 21.5492L50.8008 22.5987L69.8774 11.4746L71.3466 21.5492Z" fill="black"/>
<path d="M71.6812 4.6543L50.8 16.71L50.8 22.6823L71.6812 10.6266L71.6812 4.6543Z" fill="#232326"/>
<path d="M65.0259 0.875L44.166 12.9185L50.7638 16.7277L71.6237 4.68426L65.0259 0.875Z" fill="#FFD979"/>
<path d="M44.2944 12.9238L50.8009 16.6804L50.8009 22.6202L44.2944 18.8636L44.2944 12.9238Z" fill="white"/>
</g>
<path d="M48.9936 25.8528C48.9936 27.012 47.0672 27.9517 44.6909 27.9517C42.3146 27.9517 40.3882 27.012 40.3882 25.8528C40.3882 24.6936 42.3146 23.7539 44.6909 23.7539C47.0672 23.7539 48.9936 24.6936 48.9936 25.8528Z" fill="black"/>
<path d="M47.3142 22.1786C47.3142 24.6708 45.2939 26.6912 42.8016 26.6912C40.3094 26.6912 38.2891 24.6708 38.2891 22.1786C38.2891 19.6864 40.3094 17.666 42.8016 17.666C45.2939 17.666 47.3142 19.6864 47.3142 22.1786Z" fill="#495DB2"/>
<path fill-rule="evenodd" clip-rule="evenodd" d="M42.0057 19.6439C42.0731 19.8042 41.9979 19.9888 41.8377 20.0563C40.9485 20.4305 40.5331 21.0997 40.3697 21.781C40.2027 22.4775 40.3043 23.1732 40.4443 23.5356C40.507 23.6978 40.4263 23.88 40.2641 23.9427C40.1019 24.0053 39.9196 23.9246 39.8569 23.7625C39.6726 23.2852 39.5595 22.4593 39.7574 21.6341C39.9589 20.7937 40.4881 19.9412 41.5934 19.4759C41.7536 19.4085 41.9382 19.4837 42.0057 19.6439Z" fill="white"/>
<path d="M43.7096 19.2415C43.7096 19.5313 43.4747 19.7662 43.1849 19.7662C42.8951 19.7662 42.6602 19.5313 42.6602 19.2415C42.6602 18.9517 42.8951 18.7168 43.1849 18.7168C43.4747 18.7168 43.7096 18.9517 43.7096 19.2415Z" fill="white"/>
<circle cx="76.0893" cy="17.1381" r="16.437" fill="#E35833" stroke="white" stroke-width="0.917915"/>
<mask id="mask2_4109_13038" style="mask-type:alpha" maskUnits="userSpaceOnUse" x="59" y="0" width="34" height="35">
<circle cx="76.0893" cy="17.1381" r="16.896" fill="#FFCCBF"/>
</mask>
<g mask="url(#mask2_4109_13038)">
<path d="M86.7649 26.2677C86.7649 27.5428 83.8049 28.5765 80.1535 28.5765C76.502 28.5765 73.542 27.5428 73.542 26.2677C73.542 24.9927 76.502 23.959 80.1535 23.959C83.8049 23.959 86.7649 24.9927 86.7649 26.2677Z" fill="black"/>
<path d="M88.3106 14.8574C88.3106 21.507 82.9201 26.8975 76.2705 26.8975C69.621 26.8975 64.2305 21.507 64.2305 14.8574L76.2705 14.8574L88.3106 14.8574Z" fill="#F79780"/>
<path d="M88.3106 14.8573C88.3106 18.0922 82.9201 20.7147 76.2705 20.7147C69.621 20.7147 64.2305 18.0922 64.2305 14.8573C64.2305 11.6224 69.621 9 76.2705 9C82.9201 9 88.3106 11.6224 88.3106 14.8573Z" fill="white"/>
<path d="M82.1281 14.991C82.1281 16.2772 79.9906 17.3199 77.3538 17.3199C74.7171 17.3199 72.5796 16.2772 72.5796 14.991C72.5796 13.7048 74.7171 12.6621 77.3538 12.6621C79.9906 12.6621 82.1281 13.7048 82.1281 14.991Z" fill="black"/>
<path d="M80.2647 10.9153C80.2647 13.6807 78.023 15.9224 75.2576 15.9224C72.4923 15.9224 70.2505 13.6807 70.2505 10.9153C70.2505 8.14997 72.4923 5.9082 75.2576 5.9082C78.023 5.9082 80.2647 8.14997 80.2647 10.9153Z" fill="#62E3C4"/>
<path fill-rule="evenodd" clip-rule="evenodd" d="M74.3743 8.10256C74.4492 8.28038 74.3657 8.48521 74.1879 8.56007C73.2013 8.97538 72.7404 9.71782 72.5591 10.4738C72.3737 11.2467 72.4865 12.0186 72.6418 12.4207C72.7113 12.6006 72.6218 12.8029 72.4418 12.8724C72.2619 12.9419 72.0596 12.8524 71.9901 12.6724C71.7855 12.1429 71.6601 11.2264 71.8797 10.3109C72.1033 9.37838 72.6905 8.43237 73.9168 7.91613C74.0946 7.84127 74.2995 7.92474 74.3743 8.10256Z" fill="white"/>
<path d="M76.265 7.65449C76.265 7.97604 76.0044 8.23671 75.6828 8.23671C75.3613 8.23671 75.1006 7.97604 75.1006 7.65449C75.1006 7.33294 75.3613 7.07227 75.6828 7.07227C76.0044 7.07227 76.265 7.33294 76.265 7.65449Z" fill="white"/>
</g>
<circle cx="104.489" cy="17.2374" r="16.0808" fill="#F79780" stroke="white" stroke-width="0.952541"/>
<mask id="mask3_4109_13038" style="mask-type:alpha" maskUnits="userSpaceOnUse" x="88" y="1" width="33" height="32">
<circle cx="104.489" cy="17.2374" r="15.6046" fill="#CEC5FF"/>
</mask>
<g mask="url(#mask3_4109_13038)">
<path d="M98.1893 18.4004L106.525 23.0644V37.3003L87.5278 27.2437L98.1893 18.4004Z" fill="#E35833"/>
<path d="M110.543 18.3027L104.358 22.4976L104.489 36.5242L120.253 26.6925L110.543 18.3027Z" fill="#1F2C65"/>
<path d="M104.415 14.7676L110.459 18.2572C111.108 18.6319 111.108 19.2394 110.459 19.6141L105.59 22.4252C104.941 22.7999 103.888 22.7999 103.239 22.4252L98.3704 19.6141C97.7214 19.2394 97.7214 18.6319 98.3704 18.2572L104.415 14.7676Z" fill="white"/>
<path d="M104.415 16.7051L107.395 18.426C108.044 18.8007 108.044 19.4083 107.395 19.783L105.59 20.8255C104.941 21.2002 103.888 21.2002 103.239 20.8255L101.434 19.783C100.785 19.4083 100.785 18.8007 101.434 18.426L104.415 16.7051Z" fill="#232326"/>
<path d="M99.0251 14.1254L103.794 7.41552C104.185 6.86631 105.003 6.87316 105.384 7.42884L109.989 14.1434C110.314 14.6168 110.158 15.2671 109.654 15.5423L105.055 18.0534C104.77 18.209 104.426 18.2116 104.139 18.0602L99.3634 15.5444C98.8446 15.2711 98.6854 14.6033 99.0251 14.1254Z" fill="#495DB2"/>
<path fill-rule="evenodd" clip-rule="evenodd" d="M104.265 8.95241C104.398 9.04247 104.432 9.22326 104.342 9.35622L102.307 12.3608C102.217 12.4938 102.036 12.5285 101.903 12.4385C101.77 12.3484 101.735 12.1676 101.825 12.0347L103.861 9.03006C103.951 8.89711 104.132 8.86234 104.265 8.95241ZM101.659 12.8374C101.788 12.9338 101.814 13.116 101.717 13.2445L101.136 14.0199C101.039 14.1484 100.857 14.1744 100.729 14.078C100.6 13.9817 100.574 13.7994 100.67 13.671L101.252 12.8956C101.348 12.7671 101.531 12.7411 101.659 12.8374Z" fill="white"/>
</g>
<circle cx="133.378" cy="17.1401" r="16.437" fill="#EFAF4E" stroke="white" stroke-width="0.917915"/>
<mask id="mask4_4109_13038" style="mask-type:alpha" maskUnits="userSpaceOnUse" x="116" y="0" width="35" height="35">
<circle cx="133.378" cy="17.1401" r="16.896" fill="#D9D9D9"/>
</mask>
<g mask="url(#mask4_4109_13038)">
<path d="M157.516 21.5473L136.97 22.5967L156.046 11.4727L157.516 21.5473Z" fill="black"/>
<path d="M157.85 4.65234L136.969 16.7081L136.969 22.6804L157.85 10.6247L157.85 4.65234Z" fill="#232326"/>
<path d="M151.195 0.873047L130.335 12.9165L136.933 16.7258L157.793 4.68231L151.195 0.873047Z" fill="#FFD979"/>
<path d="M130.463 12.9219L136.97 16.6784L136.97 22.6182L130.463 18.8617L130.463 12.9219Z" fill="white"/>
</g>
<path d="M135.163 25.8508C135.163 27.01 133.236 27.9497 130.86 27.9497C128.484 27.9497 126.557 27.01 126.557 25.8508C126.557 24.6917 128.484 23.752 130.86 23.752C133.236 23.752 135.163 24.6917 135.163 25.8508Z" fill="black"/>
<path d="M133.483 22.1766C133.483 24.6689 131.463 26.6892 128.971 26.6892C126.478 26.6892 124.458 24.6689 124.458 22.1766C124.458 19.6844 126.478 17.6641 128.971 17.6641C131.463 17.6641 133.483 19.6844 133.483 22.1766Z" fill="#495DB2"/>
<path fill-rule="evenodd" clip-rule="evenodd" d="M128.175 19.642C128.242 19.8022 128.167 19.9868 128.007 20.0543C127.117 20.4286 126.702 21.0977 126.539 21.779C126.372 22.4755 126.473 23.1713 126.613 23.5336C126.676 23.6958 126.595 23.8781 126.433 23.9407C126.271 24.0034 126.089 23.9227 126.026 23.7605C125.842 23.2833 125.728 22.4573 125.926 21.6322C126.128 20.7918 126.657 19.9392 127.762 19.474C127.923 19.4065 128.107 19.4817 128.175 19.642Z" fill="white"/>
<path d="M129.879 19.2396C129.879 19.5294 129.644 19.7643 129.354 19.7643C129.064 19.7643 128.829 19.5294 128.829 19.2396C128.829 18.9498 129.064 18.7148 129.354 18.7148C129.644 18.7148 129.879 18.9498 129.879 19.2396Z" fill="white"/>
<circle cx="160.895" cy="17.1381" r="16.437" fill="#249782" stroke="white" stroke-width="0.917915"/>
<path d="M148.692 19.8035V17.1575H146.186V15.9815H148.692V13.3355H149.91V15.9815H152.416V17.1575H149.91V19.8035H148.692ZM156.262 21.3575C155.543 21.3575 154.936 21.2361 154.442 20.9935C153.956 20.7415 153.55 20.4521 153.224 20.1255L153.966 19.0895C154.236 19.3415 154.54 19.5655 154.876 19.7615C155.212 19.9481 155.604 20.0415 156.052 20.0415C156.546 20.0415 156.957 19.8921 157.284 19.5935C157.61 19.2948 157.774 18.8748 157.774 18.3335C157.774 17.8015 157.624 17.3908 157.326 17.1015C157.027 16.8121 156.63 16.6675 156.136 16.6675C155.846 16.6675 155.604 16.7095 155.408 16.7935C155.212 16.8681 154.978 16.9941 154.708 17.1715L153.938 16.6815L154.204 12.2855H158.964V13.6435H155.604L155.422 15.7995C155.608 15.7061 155.79 15.6361 155.968 15.5895C156.154 15.5335 156.364 15.5055 156.598 15.5055C157.111 15.5055 157.578 15.6035 157.998 15.7995C158.418 15.9955 158.754 16.2988 159.006 16.7095C159.267 17.1201 159.398 17.6475 159.398 18.2915C159.398 18.9355 159.248 19.4861 158.95 19.9435C158.66 20.4008 158.278 20.7508 157.802 20.9935C157.326 21.2361 156.812 21.3575 156.262 21.3575ZM163.649 21.3575C162.725 21.3575 161.988 20.9561 161.437 20.1535C160.896 19.3508 160.625 18.1981 160.625 16.6955C160.625 15.1928 160.896 14.0541 161.437 13.2795C161.988 12.5048 162.725 12.1175 163.649 12.1175C164.573 12.1175 165.306 12.5048 165.847 13.2795C166.398 14.0541 166.673 15.1928 166.673 16.6955C166.673 18.1981 166.398 19.3508 165.847 20.1535C165.306 20.9561 164.573 21.3575 163.649 21.3575ZM163.649 20.0975C163.939 20.0975 164.195 19.9901 164.419 19.7755C164.643 19.5515 164.816 19.1921 164.937 18.6975C165.068 18.2028 165.133 17.5355 165.133 16.6955C165.133 15.8555 165.068 15.1928 164.937 14.7075C164.816 14.2221 164.643 13.8815 164.419 13.6855C164.195 13.4801 163.939 13.3775 163.649 13.3775C163.369 13.3775 163.117 13.4801 162.893 13.6855C162.669 13.8815 162.492 14.2221 162.361 14.7075C162.231 15.1928 162.165 15.8555 162.165 16.6955C162.165 17.5355 162.231 18.2028 162.361 18.6975C162.492 19.1921 162.669 19.5515 162.893 19.7755C163.117 19.9901 163.369 20.0975 163.649 20.0975ZM170.827 21.3575C169.903 21.3575 169.166 20.9561 168.615 20.1535C168.074 19.3508 167.803 18.1981 167.803 16.6955C167.803 15.1928 168.074 14.0541 168.615 13.2795C169.166 12.5048 169.903 12.1175 170.827 12.1175C171.751 12.1175 172.484 12.5048 173.025 13.2795C173.576 14.0541 173.851 15.1928 173.851 16.6955C173.851 18.1981 173.576 19.3508 173.025 20.1535C172.484 20.9561 171.751 21.3575 170.827 21.3575ZM170.827 20.0975C171.116 20.0975 171.373 19.9901 171.597 19.7755C171.821 19.5515 171.994 19.1921 172.115 18.6975C172.246 18.2028 172.311 17.5355 172.311 16.6955C172.311 15.8555 172.246 15.1928 172.115 14.7075C171.994 14.2221 171.821 13.8815 171.597 13.6855C171.373 13.4801 171.116 13.3775 170.827 13.3775C170.547 13.3775 170.295 13.4801 170.071 13.6855C169.847 13.8815 169.67 14.2221 169.539 14.7075C169.408 15.1928 169.343 15.8555 169.343 16.6955C169.343 17.5355 169.408 18.2028 169.539 18.6975C169.67 19.1921 169.847 19.5515 170.071 19.7755C170.295 19.9901 170.547 20.0975 170.827 20.0975Z" fill="white"/>
</svg>
