<svg width="178" height="35" viewBox="0 0 178 35" fill="none" xmlns="http://www.w3.org/2000/svg">
<circle cx="17.0947" cy="17.9053" r="16.6358" fill="#495DB2" stroke="white" stroke-width="0.917915"/>
<mask id="mask0_3850_13952" style="mask-type:alpha" maskUnits="userSpaceOnUse" x="0" y="0" width="35" height="35">
<circle cx="17.0947" cy="17.9053" r="16.6358" fill="#495DB2" stroke="white" stroke-width="0.917915"/>
</mask>
<g mask="url(#mask0_3850_13952)">
<path d="M26.9692 24.7083C26.9692 26.6398 22.5957 28.2056 17.2008 28.2056C11.8058 28.2056 7.43237 26.6398 7.43237 24.7083C7.43237 22.7767 11.8058 21.2109 17.2008 21.2109C22.5957 21.2109 26.9692 22.7767 26.9692 24.7083Z" fill="#EFAF4E"/>
<path d="M26.6827 25.5525C26.8699 25.2821 26.9692 24.9993 26.9692 24.7083C26.9692 22.7767 22.5957 21.2109 17.2008 21.2109C11.8058 21.2109 7.43237 22.7767 7.43237 24.7083C7.43237 24.9993 7.53169 25.2821 7.71885 25.5525C8.77368 24.0288 12.6188 22.8993 17.2008 22.8993C21.7827 22.8993 25.6279 24.0288 26.6827 25.5525Z" fill="#1F2C65"/>
</g>
<path d="M8.63843 17.2304C8.63843 12.5015 12.472 8.66797 17.2009 8.66797C21.9298 8.66797 25.7633 12.5015 25.7633 17.2304V25.3105H8.63843V17.2304Z" fill="#EFAF4E"/>
<path fill-rule="evenodd" clip-rule="evenodd" d="M14.1699 10.875C14.2827 11.0659 14.2194 11.3121 14.0285 11.4249C13.7014 11.6181 13.3992 11.8371 13.1209 12.0758C12.9526 12.2201 12.6991 12.2007 12.5548 12.0324C12.4105 11.8641 12.4299 11.6107 12.5982 11.4663C12.9105 11.1985 13.2507 10.9519 13.6201 10.7336C13.811 10.6208 14.0571 10.6841 14.1699 10.875ZM11.9374 12.8455C12.0942 13.0023 12.0942 13.2565 11.9374 13.4133C11.4561 13.8946 11.0903 14.5984 10.8453 15.3699C10.6014 16.138 10.4874 16.9412 10.4875 17.5915C10.4875 17.8132 10.3078 17.9929 10.0861 17.993C9.86434 17.993 9.68459 17.8133 9.68457 17.5916C9.6845 16.8577 9.81157 15.9725 10.0801 15.1269C10.3475 14.2848 10.7656 13.4496 11.3697 12.8455C11.5265 12.6888 11.7806 12.6888 11.9374 12.8455Z" fill="white"/>
<path d="M16.5979 16.8681C16.5979 16.4685 16.9219 16.1445 17.3215 16.1445C17.7211 16.1445 18.0451 16.4685 18.0451 16.8681V18.7977C18.0451 19.1973 17.7211 19.5213 17.3215 19.5213C16.9219 19.5213 16.5979 19.1973 16.5979 18.7977V16.8681Z" fill="#1F2C65"/>
<path d="M21.4219 16.8681C21.4219 16.4685 21.7458 16.1445 22.1455 16.1445C22.5451 16.1445 22.869 16.4685 22.869 16.8681V18.7977C22.869 19.1973 22.5451 19.5213 22.1455 19.5213C21.7458 19.5213 21.4219 19.1973 21.4219 18.7977V16.8681Z" fill="#1F2C65"/>
<circle cx="47.2097" cy="17.9526" r="16.437" fill="#EFAF4E" stroke="white" stroke-width="0.917915"/>
<mask id="mask1_3850_13952" style="mask-type:alpha" maskUnits="userSpaceOnUse" x="30" y="1" width="35" height="34">
<circle cx="47.2097" cy="17.9526" r="16.896" fill="#D9D9D9"/>
</mask>
<g mask="url(#mask1_3850_13952)">
<path d="M71.3468 22.3598L50.801 23.4092L69.8776 12.2852L71.3468 22.3598Z" fill="black"/>
<path d="M71.6812 5.46484L50.8 17.5206L50.8 23.4929L71.6812 11.4372L71.6812 5.46484Z" fill="#232326"/>
<path d="M65.0261 1.68555L44.1662 13.729L50.7641 17.5383L71.624 5.49481L65.0261 1.68555Z" fill="#FFD979"/>
<path d="M44.2944 13.7344L50.8009 17.4909L50.8009 23.4307L44.2944 19.6742L44.2944 13.7344Z" fill="white"/>
</g>
<path d="M48.9938 26.6633C48.9938 27.8225 47.0674 28.7622 44.6911 28.7622C42.3148 28.7622 40.3884 27.8225 40.3884 26.6633C40.3884 25.5042 42.3148 24.5645 44.6911 24.5645C47.0674 24.5645 48.9938 25.5042 48.9938 26.6633Z" fill="black"/>
<path d="M47.3147 22.9891C47.3147 25.4814 45.2944 27.5017 42.8021 27.5017C40.3099 27.5017 38.2896 25.4814 38.2896 22.9891C38.2896 20.4969 40.3099 18.4766 42.8021 18.4766C45.2944 18.4766 47.3147 20.4969 47.3147 22.9891Z" fill="#495DB2"/>
<path fill-rule="evenodd" clip-rule="evenodd" d="M42.0062 20.4545C42.0736 20.6147 41.9984 20.7993 41.8381 20.8668C40.949 21.2411 40.5336 21.9102 40.3702 22.5915C40.2032 23.288 40.3048 23.9838 40.4448 24.3461C40.5074 24.5083 40.4268 24.6906 40.2646 24.7532C40.1024 24.8159 39.9201 24.7352 39.8574 24.573C39.6731 24.0958 39.56 23.2698 39.7579 22.4447C39.9594 21.6043 40.4886 20.7517 41.5938 20.2865C41.7541 20.219 41.9387 20.2942 42.0062 20.4545Z" fill="white"/>
<path d="M43.7096 20.0521C43.7096 20.3419 43.4747 20.5768 43.1849 20.5768C42.8951 20.5768 42.6602 20.3419 42.6602 20.0521C42.6602 19.7623 42.8951 19.5273 43.1849 19.5273C43.4747 19.5273 43.7096 19.7623 43.7096 20.0521Z" fill="white"/>
<circle cx="76.0891" cy="17.9487" r="16.437" fill="#E35833" stroke="white" stroke-width="0.917915"/>
<mask id="mask2_3850_13952" style="mask-type:alpha" maskUnits="userSpaceOnUse" x="59" y="1" width="34" height="34">
<circle cx="76.0891" cy="17.9487" r="16.896" fill="#FFCCBF"/>
</mask>
<g mask="url(#mask2_3850_13952)">
<path d="M86.7649 27.0783C86.7649 28.3534 83.8049 29.3871 80.1535 29.3871C76.502 29.3871 73.542 28.3534 73.542 27.0783C73.542 25.8032 76.502 24.7695 80.1535 24.7695C83.8049 24.7695 86.7649 25.8032 86.7649 27.0783Z" fill="black"/>
<path d="M88.3106 15.668C88.3106 22.3175 82.9201 27.708 76.2705 27.708C69.621 27.708 64.2305 22.3175 64.2305 15.668L76.2705 15.668L88.3106 15.668Z" fill="#F79780"/>
<path d="M88.3106 15.6679C88.3106 18.9028 82.9201 21.5252 76.2705 21.5252C69.621 21.5252 64.2305 18.9028 64.2305 15.6679C64.2305 12.433 69.621 9.81055 76.2705 9.81055C82.9201 9.81055 88.3106 12.433 88.3106 15.6679Z" fill="white"/>
<path d="M82.1278 15.8015C82.1278 17.0878 79.9903 18.1304 77.3536 18.1304C74.7168 18.1304 72.5793 17.0878 72.5793 15.8015C72.5793 14.5153 74.7168 13.4727 77.3536 13.4727C79.9903 13.4727 82.1278 14.5153 82.1278 15.8015Z" fill="black"/>
<path d="M80.2647 11.7259C80.2647 14.4912 78.023 16.733 75.2576 16.733C72.4923 16.733 70.2505 14.4912 70.2505 11.7259C70.2505 8.96051 72.4923 6.71875 75.2576 6.71875C78.023 6.71875 80.2647 8.96051 80.2647 11.7259Z" fill="#62E3C4"/>
<path fill-rule="evenodd" clip-rule="evenodd" d="M74.3746 8.91311C74.4494 9.09093 74.3659 9.29576 74.1881 9.37061C73.2015 9.78593 72.7406 10.5284 72.5593 11.2843C72.374 12.0572 72.4868 12.8292 72.6421 13.2312C72.7116 13.4112 72.6221 13.6134 72.4421 13.683C72.2621 13.7525 72.0599 13.663 71.9903 13.483C71.7858 12.9535 71.6603 12.037 71.8799 11.1214C72.1035 10.1889 72.6907 9.24292 73.9171 8.72667C74.0949 8.65182 74.2997 8.73529 74.3746 8.91311Z" fill="white"/>
<path d="M76.2648 8.46504C76.2648 8.78659 76.0041 9.04726 75.6826 9.04726C75.361 9.04726 75.1003 8.78659 75.1003 8.46504C75.1003 8.14348 75.361 7.88281 75.6826 7.88281C76.0041 7.88281 76.2648 8.14348 76.2648 8.46504Z" fill="white"/>
</g>
<circle cx="104.489" cy="18.0479" r="16.0808" fill="#F79780" stroke="white" stroke-width="0.952541"/>
<mask id="mask3_3850_13952" style="mask-type:alpha" maskUnits="userSpaceOnUse" x="88" y="2" width="33" height="32">
<circle cx="104.489" cy="18.0479" r="15.6046" fill="#CEC5FF"/>
</mask>
<g mask="url(#mask3_3850_13952)">
<path d="M98.1891 19.2109L106.524 23.8749V38.1109L87.5276 28.0543L98.1891 19.2109Z" fill="#E35833"/>
<path d="M110.543 19.1133L104.358 23.3082L104.489 37.3347L120.253 27.503L110.543 19.1133Z" fill="#1F2C65"/>
<path d="M104.414 15.5781L110.458 19.0677C111.107 19.4424 111.107 20.0499 110.458 20.4246L105.589 23.2358C104.94 23.6105 103.888 23.6105 103.239 23.2358L98.3702 20.4246C97.7212 20.0499 97.7212 19.4424 98.3702 19.0677L104.414 15.5781Z" fill="white"/>
<path d="M104.414 17.5156L107.395 19.2366C108.044 19.6113 108.044 20.2188 107.395 20.5935L105.589 21.636C104.94 22.0107 103.888 22.0107 103.239 21.636L101.434 20.5935C100.785 20.2188 100.785 19.6113 101.434 19.2366L104.414 17.5156Z" fill="#232326"/>
<path d="M99.0246 14.9359L103.794 8.22606C104.184 7.67686 105.002 7.68371 105.383 8.23939L109.988 14.9539C110.313 15.4274 110.157 16.0777 109.654 16.3528L105.054 18.8639C104.769 19.0196 104.425 19.0221 104.138 18.8708L99.3629 16.3549C98.8441 16.0816 98.6849 15.4138 99.0246 14.9359Z" fill="#495DB2"/>
<path fill-rule="evenodd" clip-rule="evenodd" d="M104.264 9.76296C104.397 9.85302 104.432 10.0338 104.342 10.1668L102.307 13.1714C102.217 13.3043 102.036 13.3391 101.903 13.249C101.77 13.159 101.735 12.9782 101.825 12.8452L103.861 9.84061C103.951 9.70766 104.131 9.67289 104.264 9.76296ZM101.659 13.648C101.787 13.7443 101.813 13.9266 101.717 14.0551L101.135 14.8304C101.039 14.9589 100.857 14.9849 100.728 14.8886C100.6 14.7922 100.574 14.61 100.67 14.4815L101.252 13.7061C101.348 13.5777 101.53 13.5516 101.659 13.648Z" fill="white"/>
</g>
<circle cx="133.378" cy="17.9506" r="16.437" fill="#EFAF4E" stroke="white" stroke-width="0.917915"/>
<mask id="mask4_3850_13952" style="mask-type:alpha" maskUnits="userSpaceOnUse" x="116" y="1" width="35" height="34">
<circle cx="133.378" cy="17.9506" r="16.896" fill="#D9D9D9"/>
</mask>
<g mask="url(#mask4_3850_13952)">
<path d="M157.515 22.3578L136.969 23.4072L156.046 12.2832L157.515 22.3578Z" fill="black"/>
<path d="M157.85 5.46289L136.968 17.5186L136.968 23.4909L157.85 11.4352L157.85 5.46289Z" fill="#232326"/>
<path d="M151.195 1.68359L130.335 13.7271L136.933 17.5363L157.792 5.49286L151.195 1.68359Z" fill="#FFD979"/>
<path d="M130.463 13.7324L136.969 17.489L136.969 23.4288L130.463 19.6722L130.463 13.7324Z" fill="white"/>
</g>
<path d="M135.162 26.6614C135.162 27.8206 133.236 28.7603 130.86 28.7603C128.483 28.7603 126.557 27.8206 126.557 26.6614C126.557 25.5022 128.483 24.5625 130.86 24.5625C133.236 24.5625 135.162 25.5022 135.162 26.6614Z" fill="black"/>
<path d="M133.483 22.9872C133.483 25.4794 131.463 27.4998 128.971 27.4998C126.478 27.4998 124.458 25.4794 124.458 22.9872C124.458 20.495 126.478 18.4746 128.971 18.4746C131.463 18.4746 133.483 20.495 133.483 22.9872Z" fill="#495DB2"/>
<path fill-rule="evenodd" clip-rule="evenodd" d="M128.175 20.4525C128.242 20.6128 128.167 20.7974 128.007 20.8648C127.117 21.2391 126.702 21.9083 126.539 22.5896C126.372 23.2861 126.473 23.9818 126.613 24.3441C126.676 24.5063 126.595 24.6886 126.433 24.7513C126.271 24.8139 126.089 24.7332 126.026 24.571C125.842 24.0938 125.728 23.2679 125.926 22.4427C126.128 21.6023 126.657 20.7498 127.762 20.2845C127.923 20.217 128.107 20.2923 128.175 20.4525Z" fill="white"/>
<path d="M129.878 20.0501C129.878 20.3399 129.643 20.5748 129.353 20.5748C129.064 20.5748 128.829 20.3399 128.829 20.0501C128.829 19.7603 129.064 19.5254 129.353 19.5254C129.643 19.5254 129.878 19.7603 129.878 20.0501Z" fill="white"/>
<circle cx="160.895" cy="17.9487" r="16.437" fill="#249782" stroke="white" stroke-width="0.917915"/>
<path d="M152.356 20.614V17.968H149.85V16.792H152.356V14.146H153.574V16.792H156.08V17.968H153.574V20.614H152.356ZM159.926 22.168C159.207 22.168 158.6 22.0467 158.106 21.804C157.62 21.552 157.214 21.2627 156.888 20.936L157.63 19.9C157.9 20.152 158.204 20.376 158.54 20.572C158.876 20.7587 159.268 20.852 159.716 20.852C160.21 20.852 160.621 20.7027 160.948 20.404C161.274 20.1053 161.438 19.6853 161.438 19.144C161.438 18.612 161.288 18.2013 160.99 17.912C160.691 17.6227 160.294 17.478 159.8 17.478C159.51 17.478 159.268 17.52 159.072 17.604C158.876 17.6787 158.642 17.8047 158.372 17.982L157.602 17.492L157.868 13.096H162.628V14.454H159.268L159.086 16.61C159.272 16.5167 159.454 16.4467 159.632 16.4C159.818 16.344 160.028 16.316 160.262 16.316C160.775 16.316 161.242 16.414 161.662 16.61C162.082 16.806 162.418 17.1093 162.67 17.52C162.931 17.9307 163.062 18.458 163.062 19.102C163.062 19.746 162.912 20.2967 162.614 20.754C162.324 21.2113 161.942 21.5613 161.466 21.804C160.99 22.0467 160.476 22.168 159.926 22.168ZM164.891 22V12.844H166.515V20.628H170.323V22H164.891Z" fill="white"/>
</svg>
