<svg width="164" height="164" viewBox="0 0 164 164" fill="none" xmlns="http://www.w3.org/2000/svg">
<path d="M164 82C164 100.629 157.71 117.732 147.278 131.628C141.602 139.11 134.698 145.676 126.72 150.715C113.987 159.114 98.6455 164 82.0767 164C36.8195 164 0 127.199 0 81.8473C0 36.4953 36.8195 0 81.9233 0C98.3386 0 113.527 4.88641 126.567 13.1322C134.544 18.1713 141.448 24.7374 147.124 32.2197C157.557 46.2682 164 63.3706 164 82Z" fill="#F1F6FF"/>
<path opacity="0.2" d="M127.032 34.8591V134.259C127.032 137.927 124.059 140.913 120.377 140.913L86.0093 140.881L57.2413 140.854H40.655C38.3868 140.827 36.3959 139.713 35.1914 137.999C34.4459 136.913 34.0005 135.59 34.0005 134.172V20.1819C34.0005 16.5137 36.9732 13.5273 40.655 13.5273H105.714L117.686 25.5136L127.032 34.8591Z" fill="#34C3A7"/>
<g opacity="0.57">
<path opacity="0.3" d="M108.446 52.1411H51.7642C49.3278 52.1411 47.3369 50.1502 47.3369 47.7139C47.3369 45.2775 49.3278 43.2866 51.7642 43.2866H108.441C110.878 43.2866 112.868 45.2775 112.868 47.7139C112.873 50.1502 110.878 52.1411 108.446 52.1411Z" fill="#34C3A7"/>
<path opacity="0.3" d="M108.445 74.291H51.7637C49.3273 74.291 47.3364 72.3001 47.3364 69.8638C47.3364 67.4274 49.3273 65.4365 51.7637 65.4365H108.441C110.877 65.4365 112.868 67.4274 112.868 69.8638C112.872 72.3001 110.877 74.291 108.445 74.291Z" fill="#34C3A7"/>
<path opacity="0.3" d="M108.445 96.4409H51.7637C49.3273 96.4409 47.3364 94.45 47.3364 92.0137C47.3364 89.5773 49.3273 87.5864 51.7637 87.5864H108.441C110.877 87.5864 112.868 89.5773 112.868 92.0137C112.872 94.45 110.877 96.4409 108.445 96.4409Z" fill="#34C3A7"/>
<path opacity="0.3" d="M108.445 118.586H51.7637C49.3273 118.586 47.3364 116.596 47.3364 114.159C47.3364 111.723 49.3273 109.732 51.7637 109.732H108.441C110.877 109.732 112.868 111.723 112.868 114.159C112.872 116.596 110.877 118.586 108.445 118.586Z" fill="#34C3A7"/>
</g>
<path opacity="0.1" d="M127.204 34.8638V57.5137L105.768 36.0774C106.877 36.9774 108.295 37.4956 109.845 37.4956H127.023V34.8638H127.204Z" fill="#34C3A7"/>
<path opacity="0.3" d="M117.691 25.5185H34.0005V20.1867C34.0005 16.5186 36.9732 13.5322 40.655 13.5322H105.714L117.691 25.5185Z" fill="#34C3A7"/>
<path opacity="0.3" d="M127.031 129.081V134.258C127.031 137.927 124.059 140.913 120.377 140.913L86.0088 140.881L57.2408 140.854H40.6545C38.3863 140.827 36.3954 139.713 35.1909 137.999C34.4455 136.913 34 135.59 34 134.172V129.077H127.031V129.081Z" fill="#34C3A7"/>
<path d="M127.022 34.8639V37.4957H109.845C108.295 37.4957 106.877 36.9776 105.768 36.0776L105.663 36.0003C104.218 34.7867 103.291 32.9821 103.291 30.9458V13.5322H105.713L127.022 34.8639Z" fill="#34C3A7"/>
<path opacity="0.16" d="M99.0117 160.375C99.0117 160.375 98.9116 110.796 137.272 97C137.272 97 144.746 111.959 132.525 115.749C121.651 119.121 120.749 120.963 121.912 123.401C122.53 124.703 125.685 124.035 127.655 123.156C128.368 122.839 129.086 123.601 128.702 124.28C127.7 126.061 126.064 128.921 117.928 132.01C115.089 133.084 112.763 135.204 111.021 137.687C108.4 141.421 104.454 148.182 99.0117 160.375Z" fill="#34C3A7"/>
<path d="M138.468 120.618C135.808 121.047 133.715 121.464 132.073 121.893C130.81 122.227 129.814 122.56 129.046 122.906C126.603 124.002 126.414 125.198 126.876 126.695C127.087 127.369 127.961 127.658 129.046 127.714C129.998 127.764 131.111 127.625 132.073 127.402C132.257 127.358 132.43 127.313 132.602 127.263C133.353 127.052 133.955 127.903 133.481 128.526C133.12 128.994 132.702 129.539 132.079 130.129C131.383 130.786 130.437 131.498 129.052 132.205C127.805 132.839 126.202 133.474 124.11 134.058C123.375 134.264 122.585 134.464 121.728 134.659C118.767 135.327 116.168 137.091 114.087 139.306C113.441 139.996 112.718 140.808 111.917 141.76C108.856 145.405 104.632 151.121 99 160.075C99 160.075 101.449 142.589 111.917 126.729C115.156 121.82 119.162 117.068 124.104 113.039C125.657 111.77 127.299 110.573 129.046 109.471C130.025 108.848 131.033 108.258 132.073 107.696C136.147 105.492 140.71 103.773 145.808 102.715C145.808 102.721 151.106 118.587 138.468 120.618Z" fill="#34C3A7"/>
<g opacity="0.1">
<path opacity="0.1" d="M124.11 113.044V134.064C123.375 134.27 122.585 134.47 121.728 134.665C118.767 135.333 116.168 137.097 114.087 139.312C113.441 140.002 112.718 140.814 111.917 141.766V126.74C115.161 121.826 119.168 117.074 124.11 113.044Z" fill="url(#paint0_linear_637:3635)"/>
<path opacity="0.1" d="M132.073 107.702V121.893C130.81 122.227 129.814 122.56 129.046 122.906V109.471C130.025 108.854 131.033 108.258 132.073 107.702Z" fill="url(#paint1_linear_637:3635)"/>
<path opacity="0.1" d="M132.073 127.402V130.135C131.378 130.792 130.432 131.504 129.046 132.211V127.72C129.998 127.764 131.111 127.625 132.073 127.402Z" fill="url(#paint2_linear_637:3635)"/>
</g>
<defs>
<linearGradient id="paint0_linear_637:3635" x1="112.417" y1="116.04" x2="122.182" y2="135.863" gradientUnits="userSpaceOnUse">
<stop stop-color="#FEFEFC"/>
<stop offset="1" stop-color="white" stop-opacity="0.1"/>
</linearGradient>
<linearGradient id="paint1_linear_637:3635" x1="127.311" y1="108.703" x2="137.076" y2="128.526" gradientUnits="userSpaceOnUse">
<stop stop-color="#FEFEFC"/>
<stop offset="1" stop-color="white" stop-opacity="0.1"/>
</linearGradient>
<linearGradient id="paint2_linear_637:3635" x1="121.563" y1="111.535" x2="131.328" y2="131.358" gradientUnits="userSpaceOnUse">
<stop stop-color="#FEFEFC"/>
<stop offset="1" stop-color="white" stop-opacity="0.1"/>
</linearGradient>
</defs>
</svg>
