<svg width="146" height="150" viewBox="0 0 146 150" fill="none"
    xmlns="http://www.w3.org/2000/svg">
    <defs>
        <linearGradient id="paint0_linear_195:1308" x1="92.4475" y1="124.033" x2="92.4475" y2="25.7989" gradientUnits="userSpaceOnUse">
            <stop stop-color="#DEE1E2"/>
            <stop offset="1" stop-color="#EFEFEF"/>
        </linearGradient>
        <linearGradient id="paint1_linear_195:1308" x1="77.2932" y1="123.256" x2="77.2932" y2="31.5223" gradientUnits="userSpaceOnUse">
            <stop stop-color="#DEE1E2"/>
            <stop offset="1" stop-color="#B4BCBE"/>
        </linearGradient>
        <linearGradient id="paint2_linear_195:1308" x1="84.8844" y1="61.5428" x2="84.8844" y2="24.5962" gradientUnits="userSpaceOnUse">
            <stop stop-color="#DEE1E2"/>
            <stop offset="1" stop-color="#EFEFEF"/>
        </linearGradient>
        <linearGradient id="paint3_linear_195:1308" x1="106.788" y1="48.5573" x2="106.788" y2="63.1327" gradientUnits="userSpaceOnUse">
            <stop stop-color="#DEE1E2"/>
            <stop offset="1" stop-color="#B4BCBE"/>
        </linearGradient>
        <linearGradient id="paint4_linear_195:1308" x1="103.094" y1="49.1385" x2="103.094" y2="54.2951" gradientUnits="userSpaceOnUse">
            <stop stop-color="#DEE1E2"/>
            <stop offset="1" stop-color="#B4BCBE"/>
        </linearGradient>
        <linearGradient id="paint5_linear_195:1308" x1="113.572" y1="61.6926" x2="102.278" y2="55.6909" gradientUnits="userSpaceOnUse">
            <stop stop-color="#DEE1E2"/>
            <stop offset="1" stop-color="#B4BCBE"/>
        </linearGradient>
        <linearGradient id="paint6_linear_195:1308" x1="85.9477" y1="120.024" x2="85.9477" y2="51.6175" gradientUnits="userSpaceOnUse">
            <stop stop-color="#DEE1E2"/>
            <stop offset="1" stop-color="#EFEFEF"/>
        </linearGradient>
        <linearGradient id="paint7_linear_195:1308" x1="119.549" y1="99.6345" x2="58.9697" y2="32.878" gradientUnits="userSpaceOnUse">
            <stop stop-color="#DEE1E2"/>
            <stop offset="1" stop-color="#B4BCBE"/>
        </linearGradient>
        <linearGradient id="paint8_linear_195:1308" x1="50.6807" y1="74.2152" x2="87.663" y2="141.3" gradientUnits="userSpaceOnUse">
            <stop stop-color="#DEE1E2"/>
            <stop offset="0.3003" stop-color="#D7DBDC"/>
            <stop offset="0.7459" stop-color="#C3C9CB"/>
            <stop offset="1" stop-color="#B4BCBE"/>
        </linearGradient>
        <linearGradient id="paint9_linear_195:1308" x1="28.1747" y1="88.0455" x2="82.079" y2="88.0455" gradientUnits="userSpaceOnUse">
            <stop stop-color="#FEFEFC"/>
            <stop offset="1" stop-color="white" stop-opacity="0.1"/>
        </linearGradient>
        <linearGradient id="paint10_linear_195:1308" x1="80.8365" y1="72.0673" x2="82.1336" y2="103.718" gradientUnits="userSpaceOnUse">
            <stop stop-color="#DEE1E2"/>
            <stop offset="1" stop-color="#B4BCBE"/>
        </linearGradient>
        <linearGradient id="paint11_linear_195:1308" x1="62.9105" y1="47.9929" x2="62.9105" y2="62.5682" gradientUnits="userSpaceOnUse">
            <stop stop-color="#DEE1E2"/>
            <stop offset="1" stop-color="#B4BCBE"/>
        </linearGradient>
        <linearGradient id="paint12_linear_195:1308" x1="71.6379" y1="54.3783" x2="59.5541" y2="61.316" gradientUnits="userSpaceOnUse">
            <stop stop-color="#DEE1E2"/>
            <stop offset="1" stop-color="#B4BCBE"/>
        </linearGradient>
        <linearGradient id="paint13_linear_195:1308" x1="103.271" y1="150" x2="149.869" y2="107.447" gradientUnits="userSpaceOnUse">
            <stop stop-color="#FF9E0B"/>
            <stop offset="1" stop-color="#FFC773"/>
        </linearGradient>
        <linearGradient id="paint14_linear_195:1308" x1="119.203" y1="129.36" x2="125.3" y2="119.454" gradientUnits="userSpaceOnUse">
            <stop stop-color="#FF9E0B"/>
            <stop offset="1" stop-color="#FFC773"/>
        </linearGradient>
        <linearGradient id="paint15_linear_195:1308" x1="131.113" y1="114.559" x2="117.638" y2="128.264" gradientUnits="userSpaceOnUse">
            <stop stop-color="#FEFEFC"/>
            <stop offset="1" stop-color="#C4EAFC" stop-opacity="0.1"/>
        </linearGradient>
        <linearGradient id="paint16_linear_195:1308" x1="136.104" y1="120.563" x2="123.239" y2="133.647" gradientUnits="userSpaceOnUse">
            <stop stop-color="#FEFEFC"/>
            <stop offset="1" stop-color="#C4EAFC" stop-opacity="0.1"/>
        </linearGradient>
    </defs>
    <g opacity="0.57">
        <g opacity="0.62">
            <path opacity="0.62" d="M36.8246 0L36.8772 1.20254C36.8772 1.23069 36.857 1.25488 36.8246 1.2589C36.7964 1.2589 36.7721 1.23874 36.7681 1.20656V1.20254L36.8246 0Z" fill="#34C3A7"/>
            <path opacity="0.62" d="M36.9216 2.4011L36.962 3.60373C36.9661 3.68015 36.9055 3.74042 36.8287 3.74444C36.7519 3.74846 36.6913 3.6881 36.6873 3.61169C36.6873 3.60767 36.6873 3.60373 36.6873 3.60373L36.7277 2.4011C36.7277 2.34881 36.7761 2.30458 36.8287 2.3086C36.8812 2.3086 36.9216 2.34881 36.9216 2.4011Z" fill="#34C3A7"/>
            <path opacity="0.62" d="M37.0026 4.80231L37.043 6.00485C37.047 6.12551 36.9541 6.22195 36.8328 6.22597C36.7116 6.23 36.6146 6.13758 36.6106 6.01693C36.6106 6.01291 36.6106 6.00887 36.6106 6.00082L36.651 4.79829C36.655 4.70176 36.7359 4.62528 36.8328 4.6293C36.9258 4.63332 36.9985 4.70981 37.0026 4.80231Z" fill="#34C3A7"/>
            <path opacity="0.62" d="M37.0712 7.20313L37.0995 8.40567C37.1035 8.5585 36.9823 8.68316 36.8288 8.68718C36.6752 8.6912 36.5499 8.57057 36.5459 8.41774C36.5459 8.41372 36.5459 8.40969 36.5459 8.40567L36.5742 7.20313C36.5782 7.06639 36.6914 6.95776 36.8288 6.96178C36.9621 6.9658 37.0672 7.07443 37.0712 7.20313Z" fill="#34C3A7"/>
            <path opacity="0.62" d="M37.1279 9.60459L37.1481 10.8071C37.1522 10.9881 37.0067 11.1369 36.8289 11.1369C36.6471 11.141 36.4976 10.9962 36.4976 10.8192C36.4976 10.8152 36.4976 10.8111 36.4976 10.8071L36.5178 9.60459C36.5218 9.43567 36.6592 9.30295 36.8289 9.30697C36.9946 9.311 37.1279 9.44371 37.1279 9.60459Z" fill="#34C3A7"/>
            <path opacity="0.62" d="M37.1722 12.0055L37.1924 13.208C37.1964 13.4091 37.0348 13.578 36.8287 13.582C36.6266 13.586 36.4569 13.4252 36.4529 13.2201C36.4529 13.2161 36.4529 13.212 36.4529 13.208L36.4731 12.0055C36.4771 11.8124 36.6347 11.6636 36.8287 11.6636C37.0186 11.6676 37.1681 11.8205 37.1722 12.0055Z" fill="#34C3A7"/>
            <path opacity="0.62" d="M37.2128 14.4065L37.2249 15.609C37.2289 15.8302 37.0511 16.0072 36.8289 16.0112C36.6066 16.0152 36.4288 15.8383 36.4248 15.6171C36.4248 15.613 36.4248 15.609 36.4248 15.609L36.4369 14.4065C36.441 14.1933 36.6147 14.0244 36.8289 14.0244C37.039 14.0284 37.2087 14.1973 37.2128 14.4065Z" fill="#34C3A7"/>
            <path opacity="0.62" d="M37.2371 16.8076L37.2492 18.0101C37.2533 18.2434 37.0633 18.4324 36.829 18.4365C36.5946 18.4405 36.4047 18.2514 36.4006 18.0182C36.4006 18.0141 36.4006 18.0101 36.4006 18.0101L36.4128 16.8076C36.4168 16.5824 36.6027 16.4014 36.829 16.4014C37.0553 16.4054 37.2331 16.5864 37.2371 16.8076Z" fill="#34C3A7"/>
            <path opacity="0.62" d="M37.2613 19.2083L37.2653 20.4109C37.2653 20.6522 37.0713 20.8493 36.8289 20.8493C36.5864 20.8493 36.3884 20.6562 36.3884 20.4149V20.4109L36.3924 19.2083C36.3924 18.9711 36.5905 18.7781 36.8289 18.7781C37.0673 18.7781 37.2572 18.9711 37.2613 19.2083Z" fill="#34C3A7"/>
            <path opacity="0.62" d="M37.2694 21.6134L37.2734 22.816C37.2734 23.0613 37.0754 23.2624 36.8289 23.2624C36.5824 23.2624 36.3804 23.0653 36.3804 22.82V22.816L36.3844 21.6134C36.3844 21.3681 36.5824 21.1751 36.8289 21.1751C37.0714 21.1711 37.2653 21.3681 37.2694 21.6134Z" fill="#34C3A7"/>
            <path opacity="0.62" d="M37.2772 24.0147V25.2172C37.2772 25.4666 37.0752 25.6676 36.8247 25.6676C36.5741 25.6676 36.3721 25.4666 36.3721 25.2172V24.0147C36.3721 23.7653 36.5741 23.5642 36.8247 23.5642C37.0752 23.5642 37.2772 23.7653 37.2772 24.0147Z" fill="#34C3A7"/>
            <path opacity="0.62" d="M37.2734 26.4155L37.2694 27.6181C37.2694 27.8634 37.0673 28.0604 36.8249 28.0564C36.5824 28.0564 36.3844 27.8594 36.3844 27.6181L36.3804 26.4155C36.3804 26.1702 36.5784 25.9691 36.8249 25.9691C37.0714 25.965 37.2734 26.1662 37.2734 26.4155Z" fill="#34C3A7"/>
            <path opacity="0.62" d="M37.2653 28.8169L37.2613 30.0194C37.2613 30.2567 37.0632 30.4538 36.8248 30.4498C36.5864 30.4498 36.3924 30.2567 36.3924 30.0194L36.3884 28.8169C36.3884 28.5756 36.5824 28.3785 36.8248 28.3785C37.0673 28.3745 37.2613 28.5716 37.2653 28.8169Z" fill="#34C3A7"/>
            <path opacity="0.62" d="M37.2571 31.2019L37.346 32.3562L37.35 32.3964C37.3662 32.6216 37.1965 32.8187 36.9702 32.8348C36.7479 32.8509 36.5499 32.6859 36.5297 32.4647L36.4085 31.2261C36.3843 30.9928 36.558 30.7876 36.7884 30.7635C37.0187 30.7393 37.2288 30.9124 37.253 31.1416C37.253 31.1456 37.253 31.1456 37.253 31.1497L37.2571 31.2019Z" fill="#34C3A7"/>
            <path opacity="0.62" d="M37.5522 33.4983L37.8755 34.6124L37.8876 34.6526C37.9482 34.8578 37.827 35.0709 37.6249 35.1272C37.4229 35.1835 37.2127 35.0709 37.1481 34.8739L36.7763 33.6873C36.7117 33.4782 36.8289 33.257 37.039 33.1886C37.2491 33.1202 37.4714 33.241 37.5401 33.4501V33.4541L37.5522 33.4983Z" fill="#34C3A7"/>
            <path opacity="0.62" d="M38.3077 35.6899L38.8492 36.7235L38.8654 36.7557C38.9543 36.9246 38.8896 37.1337 38.7158 37.2222C38.5502 37.3067 38.3441 37.2464 38.2511 37.0855L37.6369 36.0076C37.5359 35.8306 37.6005 35.6054 37.7783 35.5089C37.9561 35.4083 38.1825 35.4727 38.2794 35.6457C38.2794 35.6497 38.2835 35.6537 38.2835 35.6537L38.3077 35.6899Z" fill="#34C3A7"/>
            <path opacity="0.62" d="M39.4916 37.6971L40.2351 38.602L40.2553 38.6262C40.3604 38.7549 40.3443 38.9479 40.2109 39.0525C40.0816 39.1571 39.8957 39.1409 39.7907 39.0163L38.9744 38.0913C38.8532 37.9546 38.8693 37.7494 39.0027 37.6328C39.136 37.5161 39.3462 37.5282 39.4633 37.6609C39.4674 37.665 39.4674 37.665 39.4714 37.669L39.4916 37.6971Z" fill="#34C3A7"/>
            <path opacity="0.62" d="M41.0598 39.4344L41.969 40.1785L41.9892 40.1946C42.0943 40.279 42.1104 40.4358 42.0215 40.5404C41.9366 40.6409 41.7871 40.6611 41.6821 40.5806L40.6921 39.8486C40.5708 39.7561 40.5425 39.5832 40.6355 39.4626C40.7284 39.3419 40.9022 39.3137 41.0234 39.4062C41.0274 39.4102 41.0315 39.4102 41.0315 39.4142L41.0598 39.4344Z" fill="#34C3A7"/>
            <path opacity="0.62" d="M42.9548 40.8342L44.0014 41.3933L44.0176 41.4014C44.1024 41.4456 44.1348 41.5542 44.0903 41.6386C44.0459 41.7191 43.9449 41.7512 43.8641 41.715L42.7488 41.2084C42.6397 41.1601 42.5912 41.0313 42.6396 40.9227C42.6881 40.8141 42.8175 40.7659 42.9266 40.8141C42.9306 40.8141 42.9346 40.8181 42.9387 40.8181L42.9548 40.8342Z" fill="#34C3A7"/>
            <path opacity="0.62" d="M45.1004 41.8394L46.248 42.1732L46.2561 42.1773C46.3086 42.1934 46.3369 42.2457 46.3207 42.2979C46.3046 42.3462 46.2561 42.3743 46.2076 42.3663L45.0196 42.1009C44.9468 42.0848 44.8983 42.0123 44.9145 41.9399C44.9307 41.8676 45.0034 41.8193 45.0761 41.8354C45.0802 41.8354 45.0802 41.8354 45.0842 41.8394H45.1004Z" fill="#34C3A7"/>
            <path opacity="0.62" d="M47.4282 42.3987L48.5879 42.5078L47.4161 42.5037C47.3878 42.5037 47.3635 42.4795 47.3635 42.4512C47.3635 42.4229 47.3878 42.3987 47.4161 42.3987H47.4201H47.4282Z" fill="#34C3A7"/>
        </g>
    </g>
    <path opacity="0.26" d="M130.57 81.1532C129.657 71.7862 124.529 63.65 117.098 58.6387V47.8802C117.098 33.14 105.569 21.0825 91.4584 21.0825H91.3128C77.202 21.0825 65.6733 33.1441 65.6733 47.8802V60.2073C59.3977 65.2588 55.1507 72.7072 54.3264 81.1492C54.2294 82.1385 54.1809 83.144 54.1809 84.1615V86.2329C54.1809 103.245 68.0372 117.036 85.1303 117.036H99.7665C104.886 117.036 109.715 115.802 113.966 113.61C114.043 113.569 114.12 113.533 114.193 113.493C124.02 108.333 130.716 98.0612 130.716 86.2329V84.1615C130.716 83.148 130.663 82.1426 130.57 81.1532ZM109.707 54.9868C106.588 53.9331 103.242 53.3621 99.7665 53.3621H85.1303C80.851 53.3621 76.7696 54.2267 73.0641 55.7912V50.6875C73.0641 49.8348 73.0924 48.9902 73.149 48.1617C73.5086 43.0178 74.9795 38.3323 77.594 34.7769C80.6327 30.6505 85.2111 28.0524 91.3856 28.0524C102.494 28.0524 108.301 36.2852 109.481 46.6134C109.634 47.9406 109.707 49.304 109.707 50.6875V54.9868Z" fill="url(#paint0_linear_195:1308)"/>
    <path opacity="0.19" d="M110.968 114.35C108.81 116.477 106.337 118.287 103.629 119.711C103.553 119.751 103.48 119.792 103.403 119.828C99.152 122.02 94.3231 123.254 89.2032 123.254H74.567C57.474 123.254 43.6177 109.463 43.6177 92.4508V90.3795C43.6177 89.362 43.6662 88.3565 43.7632 87.3671C44.5875 78.9252 48.8345 71.4768 55.11 66.4253V54.0982C55.11 44.6468 59.85 36.3014 66.9701 31.5234C62.1655 36.402 59.1711 43.215 59.1711 50.7279V63.0549C52.8956 68.1064 48.6486 75.5549 47.8243 83.9968C47.7273 84.9862 47.6788 85.9957 47.6788 87.0092V89.0804C47.6788 106.093 61.5351 119.884 78.6282 119.884H93.2644C98.3802 119.884 103.209 118.649 107.464 116.457C107.541 116.417 107.614 116.381 107.69 116.341C108.826 115.745 109.921 115.082 110.968 114.35Z" fill="url(#paint1_linear_195:1308)"/>
    <path d="M110.596 50.7238V63.6099H103.205V53.5311C103.205 52.1476 103.128 50.7841 102.979 49.4569C101.799 39.1327 95.9922 30.896 84.8837 30.896C79.2911 30.896 75.0077 33.0235 71.9932 36.4904C71.678 36.8523 71.379 37.2304 71.0921 37.6165C68.4776 41.1678 67.0067 45.8573 66.6471 51.0013C66.5905 51.8338 66.5582 52.6785 66.5582 53.5311V63.6099H59.1714V50.7238C59.1714 43.211 62.1657 36.3979 66.9703 31.5194C71.5932 26.8258 77.8929 23.926 84.811 23.926H84.9565C99.0673 23.926 110.596 35.9877 110.596 50.7238Z" fill="url(#paint2_linear_195:1308)"/>
    <path opacity="0.82" d="M110.596 52.8715V60.9715C108.317 59.5517 105.836 58.4175 103.209 57.6252V53.531C103.209 52.1475 103.132 50.784 102.983 49.4568C105.694 50.2531 108.248 51.4115 110.596 52.8715Z" fill="url(#paint3_linear_195:1308)"/>
    <path opacity="0.82" d="M103.205 53.531C103.205 52.1475 103.128 50.784 102.979 49.4568C103.039 49.4729 103.1 49.493 103.157 49.5091C103.189 50.1325 103.205 50.7559 103.205 51.3873V53.531Z" fill="url(#paint4_linear_195:1308)"/>
    <path d="M110.596 58.8278V60.9675C108.317 59.5478 105.836 58.4136 103.209 57.6213V55.4817C105.836 56.278 108.317 57.4121 110.596 58.8278Z" fill="url(#paint5_linear_195:1308)"/>
    <path d="M124.214 87.0091V89.0804C124.214 99.5413 118.977 108.784 110.968 114.35C109.921 115.078 108.826 115.745 107.691 116.341C107.614 116.381 107.541 116.421 107.464 116.457C103.213 118.645 98.3844 119.884 93.2645 119.884H78.6284C61.5353 119.884 47.679 106.093 47.679 89.0804V87.0091C47.679 85.9916 47.7275 84.9861 47.8244 83.9968C48.6488 75.5548 52.8958 68.1063 59.1713 63.0548C59.4016 62.8658 59.636 62.6849 59.8745 62.5039C60.715 61.8644 61.5918 61.2652 62.5011 60.7142C62.7112 60.5855 62.9213 60.4607 63.1355 60.336C64.2386 59.7006 65.3822 59.1295 66.5622 58.6348C70.2717 57.0703 74.349 56.2056 78.6284 56.2056H93.2645C95.2729 56.2056 97.2408 56.3946 99.144 56.7606C100.534 57.0261 101.892 57.384 103.205 57.8304C104.345 58.2165 105.456 58.663 106.531 59.1738C107.949 59.8414 109.307 60.6176 110.592 61.4863C118.023 66.4936 123.151 74.6338 124.064 83.9968C124.165 84.9861 124.214 85.9916 124.214 87.0091Z" fill="url(#paint6_linear_195:1308)"/>
    <path opacity="0.42" d="M124.214 87.0091V89.0804C124.214 100.909 117.518 111.181 107.69 116.341C108.802 115.315 109.929 114.133 110.895 112.769C119.211 101.037 115.097 76.9705 101.73 66.5981C88.3465 56.2136 73.1082 59.6161 63.1353 60.336C67.6934 57.7098 72.983 56.2056 78.6321 56.2056H93.2684C109.343 56.2056 122.553 68.3999 124.072 83.9968C124.165 84.9861 124.214 85.9916 124.214 87.0091Z" fill="url(#paint7_linear_195:1308)"/>
    <path d="M81.8853 119.884H78.6283C61.5353 119.884 47.679 106.093 47.679 89.0801V87.0089C47.679 85.9914 47.7275 84.9859 47.8244 83.9965C48.6771 75.2409 53.215 67.5592 59.8745 62.5037C54.7667 74.3642 53.6555 93.5484 60.1896 105.574C66.5743 117.322 77.1615 119.116 81.8853 119.884Z" fill="url(#paint8_linear_195:1308)"/>
    <path opacity="0.5" d="M89.5105 119.884H78.6284C61.5353 119.884 47.679 106.093 47.679 89.0804V87.0091C47.679 85.9916 47.7275 84.9861 47.8244 83.9968C48.6771 75.2411 53.215 67.5594 59.8745 62.5039C60.9089 61.7156 62 60.9916 63.1355 60.336C67.6936 57.7098 72.9832 56.2056 78.6323 56.2056H87.2072C83.5461 58.2487 80.0992 60.9072 79.6588 64.9251C78.9395 71.5129 87.2153 73.4112 89.0135 82.4242C91.4017 94.4134 78.6687 100.635 80.7821 110.352C81.7479 114.788 85.3201 117.708 89.5105 119.884Z" fill="url(#paint9_linear_195:1308)"/>
    <path d="M92.9977 99.8508C93.2967 101.053 92.3795 102.22 91.1349 102.22H80.58C79.3354 102.22 78.4181 101.057 78.7171 99.8508L81.3437 89.221C81.5135 88.5293 81.2871 87.8053 80.7537 87.3348C79.1091 85.8909 78.0827 83.7593 78.1352 81.3904C78.2241 77.4088 81.3882 74.1591 85.3321 73.8896C85.4897 73.8775 85.6473 73.8736 85.8049 73.8696C90.0963 73.8414 93.5877 77.2961 93.5877 81.5593C93.5877 83.8598 92.5694 85.9271 90.9611 87.3388C90.4277 87.8053 90.2095 88.5333 90.3792 89.217L92.9977 99.8508Z" fill="white"/>
    <path d="M81.3357 89.2215L78.7091 99.8512C78.41 101.054 79.3273 102.22 80.5719 102.22H79.5132C78.2686 102.22 77.3513 101.058 77.6504 99.8512L80.277 89.2215C80.4467 88.5297 80.2204 87.8058 79.6829 87.3352C78.0383 85.8914 77.0159 83.7598 77.0644 81.3909C77.1533 77.2484 80.572 73.9022 84.7341 73.874C84.9321 73.874 85.126 73.878 85.32 73.8941C81.3761 74.1635 78.2121 77.4133 78.1232 81.3949C78.0706 83.7638 79.093 85.8954 80.7417 87.3393C81.2791 87.8058 81.5054 88.5337 81.3357 89.2215Z" fill="url(#paint10_linear_195:1308)"/>
    <path opacity="0.82" d="M59.1714 55.2685C61.402 53.3219 63.9195 51.689 66.6471 50.4382C66.5905 51.2708 66.5582 52.1113 66.5582 52.964V58.5745C64.0124 59.7489 61.6566 61.257 59.5432 63.0427H59.1714V55.2685Z" fill="url(#paint11_linear_195:1308)"/>
    <path d="M66.5622 55.6506V58.3976C64.0488 59.6565 61.7131 61.1847 59.5836 62.9422H59.1714V60.4045C61.4141 58.5504 63.8912 56.9457 66.5622 55.6506Z" fill="url(#paint12_linear_195:1308)"/>
    <path opacity="0.18" d="M138.951 109.013C138.66 111.981 137.924 117.294 136.066 123.114C135.399 125.205 134.587 127.365 133.597 129.505C130.493 136.221 125.656 142.741 118.12 146.401C117.962 146.481 117.809 146.557 117.643 146.634C117.631 146.638 117.615 146.65 117.595 146.658C117.583 146.654 117.566 146.642 117.546 146.634C116.491 146.143 115.489 145.6 114.536 145.009C113.853 144.587 113.194 144.136 112.564 143.666C111.303 142.729 110.139 141.703 109.064 140.609C108.507 140.042 107.973 139.455 107.46 138.855C106.131 137.291 104.951 135.618 103.912 133.893C102.074 130.844 100.667 127.622 99.5884 124.501C98.0165 119.953 97.1396 115.621 96.6587 112.351C96.4688 111.056 96.3395 109.93 96.2506 109.021C96.1091 107.585 96.9982 106.262 98.3761 105.836L102.328 104.605L115.534 100.495L117.55 99.8715L117.574 99.8674L136.817 105.84C138.199 106.258 139.092 107.581 138.951 109.013Z" fill="#FF9E0B"/>
    <path d="M145.986 112.355C145.695 115.323 144.959 120.636 143.101 126.456C142.434 128.547 141.622 130.707 140.632 132.847C137.528 139.563 132.691 146.083 125.155 149.743C124.997 149.823 124.844 149.899 124.678 149.976C124.666 149.98 124.65 149.992 124.63 150C124.618 149.996 124.601 149.984 124.581 149.976C123.526 149.485 122.524 148.942 121.571 148.351C120.888 147.929 120.229 147.478 119.599 147.008C118.338 146.071 117.174 145.045 116.099 143.951C115.542 143.384 115.008 142.797 114.495 142.198C113.166 140.633 111.986 138.96 110.947 137.234C109.108 134.186 107.702 130.964 106.623 127.843C105.051 123.295 104.174 118.963 103.694 115.693C103.504 114.398 103.374 113.272 103.285 112.363C103.144 110.927 104.033 109.604 105.411 109.178L109.363 107.947L122.569 103.837L124.585 103.213L124.609 103.209L143.852 109.182C145.23 109.596 146.123 110.923 145.986 112.355Z" fill="url(#paint13_linear_195:1308)"/>
    <g opacity="0.43">
        <path opacity="0.2" d="M140.725 117.897C142.452 117.897 143.852 116.504 143.852 114.785C143.852 113.065 142.452 111.672 140.725 111.672C138.997 111.672 137.597 113.065 137.597 114.785C137.597 116.504 138.997 117.897 140.725 117.897Z" fill="white"/>
        <path opacity="0.2" d="M113.348 132.846C113.348 134.684 112.394 136.297 110.951 137.23C109.113 134.182 107.707 130.96 106.628 127.839C107.096 127.703 107.589 127.63 108.103 127.63C111 127.626 113.348 129.963 113.348 132.846Z" fill="white"/>
        <path opacity="0.2" d="M111.339 111.804C111.339 114.45 109.185 116.594 106.527 116.594C105.472 116.594 104.494 116.256 103.702 115.681C103.512 114.386 103.383 113.26 103.294 112.351C103.152 110.915 104.041 109.592 105.419 109.166L109.371 107.935C110.563 108.812 111.339 110.219 111.339 111.804Z" fill="white"/>
        <path opacity="0.2" d="M129.677 141.868C131.556 141.868 133.079 140.351 133.079 138.481C133.079 136.611 131.556 135.095 129.677 135.095C127.798 135.095 126.274 136.611 126.274 138.481C126.274 140.351 127.798 141.868 129.677 141.868Z" fill="white"/>
        <path opacity="0.2" d="M111.339 124.385C112.451 124.385 113.352 123.488 113.352 122.382C113.352 121.276 112.451 120.379 111.339 120.379C110.228 120.379 109.327 121.276 109.327 122.382C109.327 123.488 110.228 124.385 111.339 124.385Z" fill="white"/>
        <path opacity="0.2" d="M132.388 115.81C133.5 115.81 134.401 114.913 134.401 113.807C134.401 112.701 133.5 111.804 132.388 111.804C131.277 111.804 130.376 112.701 130.376 113.807C130.376 114.913 131.277 115.81 132.388 115.81Z" fill="white"/>
        <path opacity="0.2" d="M143.101 126.456C142.434 128.547 141.622 130.707 140.632 132.847C139.242 132.404 138.24 131.109 138.24 129.581C138.24 127.687 139.779 126.154 141.683 126.154C142.188 126.154 142.669 126.263 143.101 126.456Z" fill="white"/>
        <path opacity="0.2" d="M121.442 104.589C118.783 104.589 116.629 106.733 116.629 109.379C116.629 112.025 118.783 114.169 121.442 114.169C124.101 114.169 126.254 112.025 126.254 109.379C126.254 106.737 124.101 104.589 121.442 104.589ZM121.442 112.045C119.963 112.045 118.767 110.851 118.767 109.383C118.767 107.911 119.963 106.716 121.442 106.716C122.921 106.716 124.121 107.911 124.121 109.383C124.121 110.851 122.921 112.045 121.442 112.045Z" fill="white"/>
        <path opacity="0.2" d="M118.726 139.692C116.904 139.692 115.316 140.701 114.499 142.189C115.008 142.792 115.546 143.376 116.104 143.943C116.354 142.728 117.433 141.819 118.726 141.819C120.205 141.819 121.401 143.014 121.401 144.482C121.401 145.648 120.65 146.637 119.603 146.999C120.233 147.47 120.892 147.92 121.575 148.343C122.763 147.47 123.535 146.066 123.535 144.482C123.539 141.839 121.385 139.692 118.726 139.692Z" fill="white"/>
    </g>
    <path d="M135.977 125.467C135.977 125.708 135.969 125.941 135.948 126.178C135.609 131.745 131.208 136.213 125.664 136.704C125.325 136.74 124.985 136.752 124.638 136.752C124.533 136.752 124.432 136.752 124.327 136.744C122.504 136.696 120.787 136.221 119.28 135.421C117.631 134.532 116.225 133.257 115.19 131.708C114.33 130.417 113.727 128.949 113.465 127.369C113.356 126.77 113.299 126.154 113.299 125.527V125.467C113.299 119.233 118.37 114.181 124.638 114.181C125.648 114.181 126.622 114.31 127.555 114.559H127.564C129.107 114.965 130.53 115.697 131.742 116.671C133.192 117.829 134.34 119.333 135.076 121.058C135.657 122.41 135.977 123.902 135.977 125.467Z" fill="white"/>
    <path d="M130.299 122.531L123.494 129.118C123.114 129.484 122.496 129.428 122.193 128.998L119.203 124.747" stroke="url(#paint14_linear_195:1308)" stroke-width="2.97629" stroke-miterlimit="10" stroke-linecap="square" stroke-linejoin="round"/>
    <path opacity="0.21" d="M130.308 118.448L117.102 130.45C116.415 129.42 115.934 128.25 115.724 126.987L126.966 116.767H126.97C128.206 117.089 129.338 117.672 130.308 118.448Z" fill="url(#paint15_linear_195:1308)"/>
    <path opacity="0.21" d="M133.686 125.466C133.686 125.659 133.682 125.844 133.665 126.033L124.388 134.467C122.933 134.427 121.563 134.049 120.363 133.41L132.966 121.951C133.431 123.029 133.686 124.216 133.686 125.466Z" fill="url(#paint16_linear_195:1308)"/>
    <path opacity="0.12" d="M51.2913 45.0852H11.6985C5.26532 45.0852 0 39.8447 0 33.4419C0 27.0391 5.26532 21.7986 11.6985 21.7986H51.2913C57.7245 21.7986 62.9898 27.0391 62.9898 33.4419C62.9938 39.8447 57.7285 45.0852 51.2913 45.0852Z" fill="#1CAF82"/>
    <path d="M58.0236 51.6449H21.8453C15.9658 51.6449 11.1531 46.8549 11.1531 41.003C11.1531 35.1512 15.9658 30.3611 21.8453 30.3611H58.0236C63.9032 30.3611 68.7159 35.1512 68.7159 41.003C68.7119 46.8589 63.9032 51.6449 58.0236 51.6449Z" fill="#34C3A7"/>
    <path d="M25.0293 36.2251V45.7891" stroke="white" stroke-width="1.89664" stroke-miterlimit="10" stroke-linecap="round" stroke-linejoin="round"/>
    <path d="M29.8339 41.0073H20.2246" stroke="white" stroke-width="1.89664" stroke-miterlimit="10" stroke-linecap="round" stroke-linejoin="round"/>
    <path d="M28.4278 44.3893L21.635 37.6245" stroke="white" stroke-width="1.89664" stroke-miterlimit="10" stroke-linecap="round" stroke-linejoin="round"/>
    <path d="M21.635 44.3893L28.4278 37.6245" stroke="white" stroke-width="1.89664" stroke-miterlimit="10" stroke-linecap="round" stroke-linejoin="round"/>
    <path d="M41.0435 36.2251V45.7891" stroke="white" stroke-width="1.89664" stroke-miterlimit="10" stroke-linecap="round" stroke-linejoin="round"/>
    <path d="M45.8481 41.0073H36.2388" stroke="white" stroke-width="1.89664" stroke-miterlimit="10" stroke-linecap="round" stroke-linejoin="round"/>
    <path d="M44.4378 44.3893L37.645 37.6245" stroke="white" stroke-width="1.89664" stroke-miterlimit="10" stroke-linecap="round" stroke-linejoin="round"/>
    <path d="M37.645 44.3893L44.4378 37.6245" stroke="white" stroke-width="1.89664" stroke-miterlimit="10" stroke-linecap="round" stroke-linejoin="round"/>
    <path d="M57.0537 36.2251V45.7891" stroke="white" stroke-width="1.89664" stroke-miterlimit="10" stroke-linecap="round" stroke-linejoin="round"/>
    <path d="M61.8583 41.0073H52.249" stroke="white" stroke-width="1.89664" stroke-miterlimit="10" stroke-linecap="round" stroke-linejoin="round"/>
    <path d="M60.4521 44.3893L53.6553 37.6245" stroke="white" stroke-width="1.89664" stroke-miterlimit="10" stroke-linecap="round" stroke-linejoin="round"/>
    <path d="M53.6553 44.3893L60.4521 37.6245" stroke="white" stroke-width="1.89664" stroke-miterlimit="10" stroke-linecap="round" stroke-linejoin="round"/>
    <path d="M127.677 63.6121L128.885 63.5474C128.921 63.5474 128.95 63.5717 128.954 63.608C128.954 63.6444 128.929 63.6727 128.893 63.6767C128.889 63.6767 128.889 63.6767 128.885 63.6767L127.677 63.6121Z" fill="#34C3A7"/>
    <path d="M131.063 63.457L132.271 63.4088C132.384 63.4048 132.477 63.4893 132.481 63.6019C132.485 63.7145 132.4 63.807 132.287 63.811C132.283 63.811 132.275 63.811 132.271 63.811L131.063 63.7627C130.978 63.7587 130.913 63.6863 130.917 63.6019C130.917 63.5255 130.982 63.4611 131.063 63.457Z" fill="#34C3A7"/>
    <path d="M134.49 63.522L135.706 63.7833C135.872 63.8195 135.981 63.9844 135.944 64.1493C135.908 64.3142 135.742 64.4228 135.577 64.3866C135.573 64.3866 135.565 64.3826 135.561 64.3826L135.524 64.3745L134.393 64.0608L134.36 64.0528C134.215 64.0126 134.13 63.8638 134.17 63.715C134.207 63.5742 134.348 63.4898 134.49 63.522Z" fill="#34C3A7"/>
    <path d="M137.787 64.6114L138.858 65.2549C139.04 65.3635 139.1 65.6008 138.987 65.7818C138.874 65.9628 138.64 66.0231 138.458 65.9105C138.454 65.9065 138.45 65.9065 138.446 65.9025L138.409 65.8783L137.436 65.2389L137.399 65.2147C137.234 65.1061 137.189 64.8849 137.298 64.72C137.407 64.5592 137.621 64.5149 137.787 64.6114Z" fill="#34C3A7"/>
    <path d="M140.575 66.7107L141.388 67.6639C141.545 67.8449 141.521 68.1224 141.335 68.2752C141.149 68.428 140.874 68.408 140.721 68.223C140.721 68.219 140.717 68.2189 140.717 68.2149L140.684 68.1747L139.957 67.2778L139.929 67.2417C139.783 67.0607 139.812 66.7992 139.993 66.6544C140.171 66.5136 140.43 66.5378 140.575 66.7107Z" fill="#34C3A7"/>
    <path d="M142.56 69.5944L143.024 70.7608C143.117 70.9981 143 71.2716 142.762 71.3641C142.523 71.4566 142.248 71.3399 142.155 71.1026V71.0986L142.135 71.0503L141.719 69.9764L141.699 69.9282C141.606 69.6909 141.727 69.4255 141.966 69.333C142.2 69.2405 142.467 69.3571 142.56 69.5944Z" fill="#34C3A7"/>
    <path d="M143.509 72.965C143.533 73.3832 143.562 73.8015 143.582 74.2197C143.594 74.4852 143.388 74.7104 143.125 74.7225C142.863 74.7345 142.632 74.5295 142.62 74.2681L142.616 74.2238L142.559 73.0736L142.555 73.0212C142.543 72.7598 142.745 72.5386 143.008 72.5266C143.275 72.5105 143.497 72.7076 143.509 72.965Z" fill="#34C3A7"/>
    <path d="M143.578 76.3872L143.574 77.5898C143.574 77.8472 143.359 78.0563 143.101 78.0563C142.842 78.0563 142.632 77.8472 142.632 77.5898L142.628 76.3872C142.628 76.1258 142.838 75.9126 143.101 75.9126C143.363 75.9126 143.578 76.1218 143.578 76.3872Z" fill="#34C3A7"/>
    <path d="M143.562 79.7538L143.545 80.9563C143.541 81.2017 143.339 81.3988 143.093 81.3948C142.85 81.3907 142.657 81.1976 142.652 80.9563L142.636 79.7538C142.632 79.5004 142.838 79.2913 143.089 79.2913C143.343 79.2873 143.554 79.4924 143.554 79.7417C143.562 79.7457 143.562 79.7538 143.562 79.7538Z" fill="#34C3A7"/>
    <path d="M143.517 83.124L143.497 84.3266C143.493 84.5478 143.311 84.7207 143.093 84.7167C142.879 84.7127 142.705 84.5397 142.701 84.3266L142.681 83.124C142.677 82.8948 142.863 82.7057 143.093 82.7017C143.323 82.6977 143.513 82.8827 143.517 83.112C143.517 83.116 143.517 83.12 143.517 83.124Z" fill="#34C3A7"/>
    <path d="M143.457 86.4945L143.432 87.697C143.428 87.878 143.279 88.0188 143.097 88.0188C142.919 88.0147 142.778 87.874 142.774 87.697L142.749 86.4945C142.745 86.3014 142.899 86.1406 143.097 86.1366C143.291 86.1325 143.452 86.2853 143.457 86.4824C143.457 86.4824 143.457 86.4904 143.457 86.4945Z" fill="#34C3A7"/>
    <path d="M143.368 89.8647L143.327 91.0673C143.323 91.1919 143.218 91.2884 143.093 91.2844C142.971 91.2803 142.879 91.1839 142.875 91.0673L142.834 89.8647C142.83 89.7199 142.943 89.5952 143.093 89.5912C143.242 89.5871 143.363 89.6998 143.368 89.8486C143.368 89.8526 143.368 89.8567 143.368 89.8647Z" fill="#34C3A7"/>
    <path d="M143.242 93.2311L143.194 94.4336C143.19 94.4819 143.149 94.5221 143.097 94.5221C143.048 94.5221 143.012 94.4819 143.008 94.4336L142.959 93.2311C142.955 93.1547 143.016 93.0904 143.093 93.0864C143.17 93.0823 143.234 93.1426 143.238 93.219C143.242 93.2271 143.242 93.2311 143.242 93.2311Z" fill="#34C3A7"/>
    <path d="M102.049 141.996L100.841 142.053C100.808 142.053 100.78 142.029 100.78 141.996C100.78 141.964 100.804 141.936 100.837 141.936H100.841L102.049 141.996Z" fill="#34C3A7"/>
    <path d="M98.6669 142.137L97.4587 142.181C97.3576 142.185 97.2687 142.105 97.2687 142.004C97.2647 141.903 97.3455 141.815 97.4465 141.815C97.4506 141.815 97.4546 141.815 97.4587 141.815L98.6669 141.859C98.7437 141.863 98.8043 141.928 98.8043 142.004C98.8002 142.072 98.7396 142.133 98.6669 142.137Z" fill="#34C3A7"/>
    <path d="M95.2804 142.249L94.0722 142.281C93.9105 142.285 93.7812 142.161 93.7772 142C93.7732 141.839 93.8984 141.71 94.06 141.706C94.0641 141.706 94.0722 141.706 94.0762 141.706L95.2844 141.739C95.4259 141.743 95.539 141.859 95.535 142C95.5269 142.137 95.4138 142.245 95.2804 142.249Z" fill="#34C3A7"/>
    <path d="M91.8938 142.334L90.6856 142.358C90.4835 142.362 90.3178 142.201 90.3138 142.004C90.3098 141.803 90.4714 141.638 90.6694 141.634C90.6734 141.634 90.6775 141.634 90.6815 141.634L91.8898 141.658C92.0797 141.662 92.2292 141.815 92.2251 142.004C92.2251 142.185 92.0756 142.33 91.8938 142.334Z" fill="#34C3A7"/>
    <path d="M88.5078 142.398L87.2996 142.414C87.0692 142.418 86.8752 142.233 86.8752 142C86.8752 141.767 87.0571 141.578 87.2915 141.578C87.2955 141.578 87.2996 141.578 87.3036 141.578L88.5118 141.594C88.7341 141.598 88.9159 141.779 88.9119 142C88.9078 142.217 88.726 142.394 88.5078 142.398Z" fill="#34C3A7"/>
    <path d="M85.1254 142.438L83.9172 142.451C83.6626 142.455 83.4565 142.249 83.4525 142C83.4484 141.747 83.6505 141.542 83.905 141.538C83.9091 141.538 83.9131 141.538 83.9172 141.538L85.1254 141.55C85.3719 141.554 85.5658 141.755 85.5658 141.996C85.5618 142.241 85.3638 142.434 85.1254 142.438Z" fill="#34C3A7"/>
    <path d="M81.7393 142.462L80.531 142.466C80.2684 142.466 80.0542 142.257 80.0542 141.996C80.0542 141.734 80.2643 141.521 80.527 141.521H80.531L81.7393 141.525C81.9979 141.525 82.208 141.734 82.208 141.996C82.204 142.253 81.9979 142.462 81.7393 142.462Z" fill="#34C3A7"/>
    <path d="M78.3529 142.475H77.1447C76.878 142.475 76.6638 142.262 76.6638 141.996C76.6638 141.731 76.878 141.518 77.1447 141.518H78.3529C78.6196 141.518 78.8338 141.731 78.8378 141.996C78.8378 142.258 78.6196 142.475 78.3529 142.475Z" fill="#34C3A7"/>
    <path d="M74.9345 142.438L73.6817 142.277C73.4272 142.245 73.2453 142.012 73.2776 141.759C73.31 141.505 73.5444 141.328 73.7989 141.356L73.8515 141.365L74.9991 141.505L75.0516 141.513C75.3102 141.546 75.4921 141.779 75.4638 142.036C75.4355 142.294 75.1971 142.471 74.9345 142.438Z" fill="#34C3A7"/>
    <path d="M71.5116 141.626L70.3801 141.071C70.1619 140.966 70.073 140.705 70.1821 140.488C70.2872 140.275 70.5418 140.186 70.76 140.287L70.8044 140.307L71.8551 140.794L71.9036 140.814C72.1299 140.918 72.2268 141.184 72.1217 141.409C72.0167 141.634 71.75 141.731 71.5237 141.626C71.5197 141.626 71.5116 141.626 71.5116 141.626Z" fill="#34C3A7"/>
    <path d="M68.5376 139.768L67.6446 138.891C67.491 138.738 67.487 138.493 67.6405 138.336C67.79 138.187 68.0325 138.179 68.186 138.324L68.2184 138.356L69.071 139.145L69.1033 139.177C69.269 139.33 69.2811 139.591 69.1235 139.76C68.97 139.925 68.7073 139.937 68.5376 139.78C68.5457 139.776 68.5416 139.772 68.5376 139.768Z" fill="#34C3A7"/>
    <path d="M66.3188 137.081L65.7531 135.975C65.6722 135.815 65.7369 135.617 65.8985 135.533C66.0561 135.453 66.2501 135.513 66.3349 135.666L66.3551 135.698L66.9249 136.716L66.9451 136.752C67.0381 136.921 66.9775 137.134 66.8078 137.23C66.638 137.327 66.4238 137.262 66.3269 137.094C66.3269 137.094 66.3228 137.085 66.3188 137.081Z" fill="#34C3A7"/>
    <path d="M65.0866 133.852L64.9088 132.633C64.8886 132.5 64.9815 132.38 65.1149 132.364C65.2401 132.343 65.3613 132.428 65.3856 132.553L65.3896 132.581L65.62 133.731L65.624 133.759C65.6523 133.908 65.5553 134.049 65.4098 134.077C65.2644 134.105 65.1189 134.008 65.0906 133.864C65.0906 133.864 65.0906 133.856 65.0866 133.852Z" fill="#34C3A7"/>
    <path d="M64.9249 130.441L64.9694 129.239C64.9734 129.174 65.026 129.122 65.0906 129.126C65.1512 129.13 65.2038 129.178 65.2038 129.239L65.2482 130.441C65.2523 130.53 65.1795 130.606 65.0906 130.61C65.0017 130.614 64.9249 130.542 64.9209 130.453C64.9249 130.449 64.9249 130.445 64.9249 130.441Z" fill="#34C3A7"/>
    <path d="M65.0583 127.071L65.0866 126.516L65.1149 127.071C65.1149 127.087 65.1028 127.099 65.0907 127.099C65.0705 127.103 65.0583 127.091 65.0583 127.071C65.0583 127.075 65.0583 127.075 65.0583 127.071Z" fill="#34C3A7"/>

</svg>
