<svg width="241" height="242" viewBox="0 0 241 242" fill="none" xmlns="http://www.w3.org/2000/svg">
<path opacity="0.3" d="M99.4835 133.695C99.5004 129.44 103.005 126.008 107.316 126.037C111.74 126.059 115.127 129.474 115.104 133.869C115.081 138.327 111.65 141.691 107.147 141.674C102.865 141.657 99.4666 138.118 99.4835 133.695ZM115.11 107.401C115.093 103 111.661 99.546 107.311 99.5572C102.87 99.5685 99.4609 103.028 99.4835 107.503C99.5004 111.842 102.983 115.228 107.406 115.206C111.717 115.183 115.127 111.735 115.11 107.407V107.401ZM94.1132 127.457C97.7704 127.44 100.92 124.267 100.904 120.621C100.887 116.93 97.776 113.786 94.1301 113.769C90.394 113.752 87.3116 116.812 87.3172 120.537C87.3172 124.408 90.332 127.474 94.1132 127.457ZM94.023 100.752C97.7704 100.78 100.656 97.9512 100.672 94.232C100.689 90.603 97.8211 87.5826 94.2935 87.5206C90.5236 87.4474 87.4525 90.4622 87.4637 94.2264C87.475 97.8103 90.4053 100.729 94.023 100.752ZM94.1132 140.463C90.3546 140.446 87.5257 143.308 87.475 147.163C87.4299 150.679 90.5969 153.761 94.1977 153.705C97.7817 153.649 100.672 150.685 100.672 147.073C100.672 143.297 97.8718 140.474 94.1132 140.457V140.463ZM120.345 129.435C120.457 129.57 120.621 129.671 120.942 129.666C127.772 128.657 131.311 121.912 127.992 116.079C126.352 113.2 123.714 111.757 120.424 111.492C120.384 111.526 120.367 111.566 120.339 111.605C120.311 111.566 120.294 111.526 120.255 111.492C116.964 111.757 114.326 113.194 112.687 116.079C109.367 121.912 112.906 128.657 119.736 129.666C120.057 129.666 120.221 129.57 120.333 129.435H120.345ZM80.9045 128.105C77.6924 128.088 75.1679 130.607 75.1116 133.881C75.0609 136.85 77.7319 139.567 80.7298 139.583C83.9925 139.606 86.6241 137.098 86.6579 133.926C86.6917 130.731 84.1165 128.122 80.9101 128.105H80.9045ZM107.316 86.7092C110.506 86.6754 113.025 84.1396 113.019 80.967C113.013 77.6986 110.523 75.2022 107.237 75.1684C104.172 75.1346 101.529 77.8395 101.563 80.9726C101.591 84.117 104.228 86.743 107.316 86.7092ZM80.9157 113.098C84.094 113.093 86.6298 110.563 86.6523 107.39C86.6748 104.223 84.0263 101.631 80.7861 101.653C77.6924 101.67 75.1341 104.234 75.1116 107.322C75.089 110.546 77.6586 113.104 80.9157 113.098ZM107.192 154.511C104.183 154.494 101.614 157.114 101.574 160.242C101.535 163.358 104.048 165.973 107.113 166.012C110.444 166.057 112.996 163.617 113.019 160.377C113.042 157.041 110.54 154.528 107.192 154.505V154.511ZM80.927 86.326C83.9587 86.3372 86.2522 84.0156 86.2635 80.9332C86.2747 77.8958 83.9362 75.5573 80.8988 75.5629C77.8051 75.5685 75.5173 77.8338 75.5117 80.8881C75.506 84.0438 77.7657 86.3091 80.9327 86.326H80.927ZM80.8256 154.905C77.8559 154.905 75.5286 157.205 75.5117 160.174C75.4947 163.324 77.7601 165.646 80.865 165.657C83.9362 165.668 86.2578 163.381 86.2578 160.338C86.2578 157.21 83.9587 154.917 80.8199 154.911L80.8256 154.905ZM67.645 115.747C64.9965 115.747 62.8101 117.894 62.765 120.542C62.7199 123.242 64.9064 125.456 67.6281 125.468C70.3724 125.479 72.5081 123.371 72.5363 120.621C72.5645 117.877 70.4288 115.753 67.645 115.747ZM120.204 100.927V100.96C120.255 100.96 120.3 100.943 120.35 100.943C120.401 100.943 120.446 100.96 120.497 100.96V100.927C124.165 100.712 127.124 97.6413 127.011 94.0348C126.904 90.4114 124.013 87.5488 120.508 87.4643V87.4417C120.452 87.4417 120.407 87.453 120.35 87.453C120.294 87.453 120.249 87.4417 120.193 87.4417V87.4643C116.682 87.5488 113.797 90.4171 113.69 94.0348C113.583 97.6413 116.535 100.712 120.204 100.927ZM94.0737 72.4298C96.7053 72.4467 98.8185 70.3504 98.8241 67.7132C98.8241 65.1154 96.6828 62.9797 94.0794 62.9853C91.4816 62.9909 89.3853 65.1379 89.4079 67.7752C89.4248 70.3335 91.5098 72.4072 94.0794 72.4298H94.0737ZM67.5661 142.322C65.0303 142.367 62.9172 144.525 62.9397 147.05C62.9622 149.704 65.0585 151.778 67.6958 151.755C70.2766 151.733 72.3785 149.653 72.3729 147.123C72.3673 144.413 70.2259 142.277 67.5661 142.322ZM94.0794 168.706C91.5323 168.734 89.4022 170.932 89.4022 173.541C89.4022 176.093 91.5154 178.223 94.0512 178.229C96.6659 178.229 98.8298 176.105 98.8185 173.518C98.8129 170.943 96.5814 168.678 94.0794 168.706ZM67.6338 98.881C70.2597 98.9092 72.3785 96.8017 72.3729 94.1701C72.3673 91.5666 70.3443 89.4873 67.7746 89.4535C65.1036 89.4197 62.9228 91.5666 62.9397 94.2264C62.9566 96.7284 65.1036 98.8585 67.6338 98.881ZM67.6788 169.337C65.3008 169.331 63.4525 171.197 63.475 173.586C63.4976 175.891 65.3684 177.699 67.707 177.688C70.0174 177.671 71.8376 175.823 71.8263 173.496C71.8207 171.157 70.0062 169.348 67.6732 169.337H67.6788ZM67.5943 71.8832C69.916 71.9395 71.7699 70.1588 71.8376 67.809C71.9052 65.476 70.1414 63.5939 67.8085 63.515C65.5319 63.4361 63.5539 65.2788 63.4807 67.5329C63.4074 69.9109 65.2163 71.8212 67.5943 71.8775V71.8832ZM107.423 182.732C105.248 182.653 103.422 184.315 103.327 186.462C103.225 188.756 104.955 190.728 107.119 190.773C109.3 190.818 111.227 189.077 111.334 186.952C111.452 184.704 109.706 182.816 107.423 182.737V182.732ZM107.311 58.4885C109.582 58.4716 111.368 56.6458 111.334 54.3805C111.3 52.256 109.39 50.4303 107.232 50.4472C105.074 50.4697 103.304 52.3124 103.321 54.527C103.332 56.7754 105.079 58.511 107.311 58.4885ZM54.4983 103.378C52.2555 103.35 50.4185 105.175 50.4072 107.441C50.4016 109.531 52.3231 111.43 54.4532 111.436C56.6227 111.442 58.426 109.622 58.4429 107.413C58.4598 105.192 56.7129 103.406 54.4983 103.378ZM54.4983 129.88C52.2217 129.88 50.441 131.553 50.3959 133.745C50.3509 135.994 52.1597 137.814 54.4476 137.82C56.7016 137.825 58.4372 136.112 58.4429 133.864C58.4429 131.576 56.7749 129.88 54.4983 129.874V129.88ZM54.5603 156.596C52.464 156.54 50.8073 158.179 50.796 160.315C50.7904 162.338 52.4415 163.984 54.4701 163.978C56.3804 163.978 58.1048 162.287 58.1273 160.405C58.1499 158.377 56.5326 156.652 54.5603 156.602V156.596ZM80.9101 58.1786C82.9669 58.1729 84.4659 56.6683 84.4828 54.6059C84.4997 52.4364 83.0402 50.8811 80.9608 50.8585C78.8026 50.836 77.236 52.3687 77.2135 54.5439C77.1909 56.5275 78.8815 58.1898 80.9101 58.1786ZM54.3462 84.6129C56.3973 84.6636 58.1104 82.99 58.1273 80.9163C58.1442 78.9327 56.465 77.2872 54.4138 77.2872C52.4133 77.2872 50.8129 78.8538 50.7848 80.8374C50.7566 82.9055 52.3175 84.5622 54.3405 84.6129H54.3462ZM80.758 183.064C78.78 183.087 77.1797 184.8 77.2135 186.851C77.2473 188.851 78.8307 190.401 80.8425 190.395C82.9726 190.395 84.4771 188.885 84.4771 186.766C84.4771 184.58 82.9275 183.042 80.758 183.07V183.064ZM120.226 72.5368V72.565C120.266 72.565 120.3 72.5537 120.339 72.5537C120.378 72.5537 120.412 72.565 120.452 72.565V72.5368C123.173 72.3621 125.101 70.2772 125.022 67.5103C124.949 64.997 122.982 63.0755 120.502 62.974C120.502 62.9684 120.502 62.9571 120.502 62.9515C120.446 62.9515 120.395 62.9628 120.339 62.9628C120.283 62.9628 120.232 62.9515 120.176 62.9515C120.176 62.9571 120.176 62.9684 120.176 62.974C117.691 63.0698 115.724 64.997 115.656 67.5103C115.577 70.2772 117.505 72.3621 120.226 72.5368ZM41.3009 117.308C39.4356 117.28 37.948 118.711 37.9198 120.576C37.8916 122.436 39.3342 123.895 41.222 123.923C43.0872 123.946 44.5298 122.498 44.5241 120.593C44.5241 118.773 43.1154 117.336 41.3009 117.308ZM41.2558 143.906C39.5596 143.906 38.1001 145.298 38.0494 146.949C38.0043 148.667 39.4638 150.183 41.1712 150.194C42.9632 150.206 44.2931 148.927 44.31 147.174C44.3325 145.354 42.9745 143.906 41.2501 143.906H41.2558ZM41.3628 97.3088C42.9801 97.2806 44.3325 95.8775 44.3269 94.232C44.3156 92.3781 42.997 91.0313 41.1994 91.0369C39.4751 91.0426 38.0212 92.5302 38.055 94.2546C38.0945 95.9958 39.5483 97.3426 41.3628 97.3088ZM94.1921 196.853C92.3381 196.831 90.9519 198.144 90.9462 199.93C90.9462 201.637 92.3325 203.108 93.9723 203.136C95.7079 203.165 97.2238 201.716 97.2238 200.02C97.2238 198.268 95.8882 196.876 94.1921 196.853ZM93.8991 44.3669C95.7361 44.4345 97.1787 43.1497 97.2181 41.3972C97.2632 39.6108 96.0235 38.264 94.2766 38.2021C92.417 38.1344 91.0139 39.3798 90.9519 41.1549C90.8955 42.8848 92.1916 44.3049 93.8991 44.3669ZM54.5096 57.4573C56.1832 57.4291 57.4004 56.1725 57.3891 54.4932C57.3778 52.8365 55.9634 51.4502 54.3349 51.4953C52.7683 51.5404 51.399 52.9661 51.4272 54.527C51.461 56.257 52.757 57.4911 54.5039 57.4573H54.5096ZM54.4363 183.78C52.8698 183.768 51.4553 185.138 51.4328 186.682C51.4103 188.339 52.7683 189.725 54.4307 189.736C55.9916 189.747 57.3722 188.384 57.4004 186.8C57.4286 185.093 56.1494 183.791 54.4363 183.78ZM41.3347 170.92C39.8244 170.875 38.6242 172.002 38.5847 173.507C38.5453 174.865 39.7906 176.127 41.1938 176.15C42.58 176.172 43.8592 174.966 43.8986 173.597C43.9381 172.228 42.7322 170.965 41.3347 170.92ZM41.1769 70.3391C42.6476 70.3617 43.9155 69.1276 43.9043 67.685C43.893 66.434 42.6082 65.1323 41.3403 65.0928C39.8639 65.0478 38.5847 66.2649 38.5735 67.7132C38.5622 69.1501 39.7174 70.3166 41.1769 70.3391ZM67.5943 43.9386C68.9749 43.9724 70.2259 42.7552 70.2597 41.3577C70.2935 39.9208 69.1722 38.7205 67.7352 38.6529C66.3377 38.5852 65.0529 39.7686 65.0134 41.1492C64.974 42.62 66.163 43.9048 67.6 43.9386H67.5943ZM67.5267 197.287C66.2926 197.31 65.0134 198.64 65.0022 199.907C64.9853 201.389 66.1855 202.584 67.6901 202.578C69.1158 202.578 70.2766 201.389 70.2654 199.947C70.2541 198.476 69.0087 197.265 67.5267 197.287ZM28.047 104.77C26.6214 104.747 25.4154 105.919 25.3929 107.345C25.376 108.816 26.4918 109.971 27.9625 109.999C29.4164 110.027 30.5772 108.906 30.6167 107.435C30.6561 106.021 29.4671 104.792 28.047 104.764V104.77ZM27.9682 131.244C26.5876 131.244 25.4211 132.382 25.3985 133.762C25.3704 135.166 26.4749 136.411 27.7822 136.462C29.3319 136.524 30.5885 135.402 30.611 133.937C30.6336 132.393 29.5065 131.244 27.9682 131.244ZM107.333 30.6566C108.826 30.6285 109.914 29.5183 109.903 28.0307C109.897 26.5881 108.697 25.416 107.271 25.4441C105.784 25.478 104.685 26.605 104.702 28.0814C104.718 29.5183 105.913 30.6848 107.333 30.6566ZM107.401 210.58C105.958 210.541 104.741 211.662 104.696 213.077C104.651 214.502 105.8 215.753 107.198 215.793C108.601 215.832 109.869 214.66 109.914 213.28C109.965 211.843 108.826 210.62 107.401 210.58ZM120.198 44.5078V44.5472C120.249 44.5472 120.294 44.5303 120.339 44.5303C120.39 44.5303 120.429 44.5472 120.48 44.5472V44.5078C122.283 44.2993 123.455 43.0821 123.461 41.3465C123.467 39.5488 122.339 38.3317 120.486 38.0499V37.9992C120.435 37.9992 120.39 38.0161 120.339 38.0217C120.288 38.0161 120.243 38.0048 120.193 37.9992V38.0499C118.333 38.326 117.212 39.5488 117.217 41.3465C117.223 43.0821 118.401 44.2993 120.198 44.5078ZM27.9231 83.2267C29.1403 83.2605 30.2786 82.2067 30.3124 81.0064C30.3462 79.8061 29.2586 78.696 28.0301 78.6904C26.8186 78.6847 25.7761 79.6484 25.7197 80.8317C25.6634 82.0489 26.7115 83.1928 27.9174 83.2267H27.9231ZM80.9101 210.902C79.6873 210.89 78.611 211.967 78.611 213.195C78.611 214.435 79.6986 215.522 80.9045 215.5C82.0822 215.472 83.1472 214.339 83.136 213.116C83.1247 211.944 82.0878 210.913 80.9101 210.902ZM27.9513 158.038C26.7397 158.038 25.6859 159.154 25.7197 160.394C25.7479 161.555 26.8186 162.569 28.0132 162.558C29.2473 162.552 30.3349 161.465 30.318 160.264C30.2955 159.042 29.2304 158.038 27.9513 158.038ZM80.8538 30.3411C82.1104 30.3523 83.1191 29.3324 83.1134 28.0476C83.1134 26.7797 82.2062 25.8611 80.9495 25.8442C79.5971 25.8273 78.6279 26.7233 78.6053 28.0081C78.5828 29.2535 79.6253 30.3298 80.8538 30.3411ZM14.6355 118.486C13.6099 118.542 12.7139 119.551 12.7139 120.661C12.7139 121.771 13.7508 122.802 14.8383 122.78C15.9428 122.757 16.9064 121.731 16.9008 120.582C16.8895 119.387 15.847 118.418 14.6298 118.486H14.6355ZM14.7369 145.066C13.7564 145.095 12.7646 146.148 12.804 147.112C12.8491 148.098 13.8691 149.073 14.8383 149.062C15.8132 149.05 16.8219 147.997 16.7824 147.033C16.7486 146.098 15.6442 145.044 14.7313 145.066H14.7369ZM94.0625 16.7379C95.1331 16.7548 96.0291 15.8644 96.0122 14.7994C95.9953 13.7794 95.1219 12.8497 94.1752 12.8609C93.1383 12.8722 92.124 13.802 92.1015 14.7656C92.0845 15.7912 93.0087 16.721 94.0625 16.7379ZM14.7144 96.086C15.785 96.1085 16.7148 95.2238 16.7148 94.1926C16.7148 93.0881 15.8583 92.2147 14.7932 92.2259C13.7733 92.2428 12.7928 93.229 12.8266 94.1982C12.866 95.2295 13.7 96.0635 14.7144 96.086ZM94.085 224.499C93.0312 224.505 92.1015 225.418 92.1015 226.443C92.1015 227.379 93.1834 228.41 94.1301 228.376C95.1275 228.337 95.9953 227.458 96.0122 226.477C96.0291 225.423 95.1219 224.493 94.0906 224.499H94.085ZM41.3403 198.121C40.4105 198.115 39.4976 198.978 39.4807 199.868C39.4582 200.888 40.2133 201.694 41.1881 201.688C42.1799 201.688 42.9688 200.905 42.9632 199.93C42.9632 199.034 42.1461 198.127 41.3403 198.121ZM41.3347 43.0201C42.2926 42.975 42.9914 42.2255 42.9632 41.2619C42.9294 40.1743 42.3039 39.6277 41.2783 39.5488C40.2922 39.4756 39.4751 40.3265 39.492 41.307C39.5089 42.2875 40.3429 43.0652 41.3347 43.0201ZM1.562 132.28C0.609661 132.32 0.0292432 132.889 0.0123379 133.813C-0.00456748 134.726 0.508221 135.323 1.46619 135.425C2.48615 135.38 3.0722 134.833 3.19618 133.864C3.30324 133.041 2.46361 132.241 1.55636 132.28H1.562ZM27.9625 185.149C27.0046 185.205 26.4974 185.791 26.4354 186.716C26.3791 187.606 27.1511 188.31 28.0583 188.293C28.9036 188.277 29.5911 187.589 29.5967 186.755C29.5967 185.882 28.8303 185.098 27.9625 185.155V185.149ZM107.418 3.21924C108.342 3.08399 108.832 2.48667 108.866 1.63577C108.832 0.683433 108.083 -0.0829429 107.277 0.00721897C106.353 0.114286 105.789 0.660893 105.755 1.61886C105.722 2.4754 106.595 3.33757 107.418 3.21924ZM27.9287 56.0879C28.8979 56.0879 29.6643 55.3103 29.5911 54.4143C29.5122 53.4676 28.9149 52.9773 27.9851 52.9379C27.1003 52.8984 26.3791 53.6705 26.441 54.5834C26.5087 55.5526 27.1511 55.9583 27.9287 56.0879ZM54.2222 211.612C53.4558 211.769 52.8923 212.243 52.8867 213.212C52.8867 214.108 53.6361 214.835 54.5321 214.756C55.4732 214.671 55.9803 214.091 56.0198 213.161C56.0536 212.288 55.259 211.572 54.2222 211.612ZM1.55071 108.957C2.37908 108.979 3.25252 108.173 3.19054 107.345C3.12291 106.41 2.5256 105.869 1.61271 105.823C0.643469 105.778 0.130675 106.404 0.0123379 107.294C-0.106 108.168 0.64346 108.928 1.55071 108.951V108.957ZM54.2447 29.6254C55.2703 29.6536 56.0029 29.0055 56.0141 28.1321C56.0254 27.1741 55.5014 26.6163 54.5434 26.5374C53.6023 26.4585 52.8585 27.1516 52.881 28.0757C52.9092 29.0506 53.4896 29.524 54.2391 29.6254H54.2447ZM107.249 238.108C106.24 238.108 105.806 238.767 105.738 239.658C105.676 240.537 106.488 241.219 107.412 241.162C108.421 241.1 108.776 240.446 108.866 239.601C108.764 238.576 108.184 238.108 107.249 238.108ZM120.226 16.845C120.226 16.845 120.226 16.8957 120.226 16.9182C120.271 16.9069 120.294 16.89 120.339 16.8788C120.378 16.89 120.407 16.9069 120.452 16.9182C120.452 16.8957 120.452 16.8675 120.452 16.845C121.703 16.5068 122.334 15.8194 122.306 14.7543C122.278 13.8245 121.545 13.1032 120.486 12.8497C120.486 12.8215 120.486 12.7933 120.486 12.7708C120.435 12.7764 120.395 12.8046 120.345 12.8102C120.294 12.7989 120.255 12.7764 120.204 12.7708C120.204 12.7989 120.204 12.8271 120.204 12.8497C119.144 13.1032 118.412 13.8245 118.384 14.7543C118.35 15.8194 118.981 16.5012 120.238 16.845H120.226ZM120.525 224.212L120.452 224.251C120.452 224.251 120.452 224.257 120.452 224.262C120.452 224.262 120.452 224.262 120.457 224.262L120.525 224.212ZM14.7482 172.092C13.8916 172.092 13.4465 172.741 13.3957 173.529C13.3338 174.454 14.0381 174.831 14.7932 174.876C15.6216 174.927 16.1457 174.442 16.1964 173.524C16.1569 172.622 15.6329 172.092 14.7482 172.092ZM14.6918 69.1558C15.43 68.9698 16.1513 68.75 16.1795 67.8315C16.2077 66.9243 15.6498 66.3382 14.7989 66.2819C13.9536 66.2255 13.4634 66.8679 13.3845 67.6568C13.2999 68.5359 13.9311 68.9247 14.6862 69.1558H14.6918ZM67.6394 16.2307C68.4959 16.1237 69.082 15.7292 69.0425 14.8445C69.0031 13.9316 68.417 13.4301 67.5267 13.447C66.6871 13.4639 66.3377 14.1119 66.3095 14.8389C66.2757 15.7067 66.8617 16.1124 67.6394 16.2307ZM67.3633 225.215C66.8899 225.299 66.2306 225.62 66.2081 226.477C66.1912 227.097 66.5744 227.598 67.2787 227.627C68.1071 227.655 68.9073 227.367 68.9467 226.483C68.9749 225.857 68.5636 225.164 67.3633 225.215ZM133.531 141.674C137.814 141.657 141.212 138.118 141.2 133.695C141.183 129.44 137.678 126.008 133.367 126.037C128.944 126.059 125.557 129.474 125.58 133.869C125.602 138.327 129.034 141.691 133.536 141.674H133.531ZM133.367 99.5629C129.017 99.5516 125.585 103.006 125.574 107.407C125.557 111.735 128.966 115.183 133.277 115.206C137.701 115.228 141.183 111.847 141.2 107.503C141.217 103.028 137.808 99.5685 133.373 99.5572L133.367 99.5629ZM146.554 113.78C142.908 113.797 139.791 116.942 139.78 120.633C139.763 124.279 142.919 127.451 146.571 127.468C150.352 127.485 153.366 124.419 153.366 120.548C153.366 116.823 150.284 113.763 146.554 113.78ZM146.666 100.763C150.278 100.735 153.214 97.816 153.226 94.2377C153.237 90.4734 150.166 87.4643 146.396 87.5319C142.868 87.5995 140 90.6199 140.017 94.2433C140.034 97.9625 142.919 100.786 146.666 100.763ZM146.576 140.474C142.818 140.491 140.017 143.314 140.017 147.089C140.017 150.702 142.908 153.666 146.492 153.722C150.092 153.778 153.254 150.696 153.214 147.18C153.169 143.32 150.335 140.463 146.576 140.479V140.474ZM159.785 128.116C156.573 128.133 153.998 130.742 154.037 133.937C154.071 137.11 156.702 139.617 159.965 139.595C162.963 139.572 165.634 136.862 165.583 133.892C165.527 130.618 162.997 128.099 159.791 128.116H159.785ZM133.373 86.7204C136.461 86.7542 139.093 84.1283 139.127 80.9839C139.155 77.8508 136.517 75.1459 133.452 75.1797C130.167 75.2135 127.676 77.7099 127.67 80.9782C127.665 84.1508 130.184 86.6866 133.373 86.7204ZM159.774 113.11C163.031 113.115 165.6 110.557 165.578 107.334C165.555 104.24 162.997 101.682 159.903 101.665C156.663 101.642 154.014 104.234 154.037 107.401C154.06 110.574 156.601 113.104 159.774 113.11ZM133.497 154.522C130.15 154.539 127.648 157.058 127.67 160.394C127.693 163.634 130.246 166.074 133.576 166.029C136.641 165.99 139.155 163.375 139.115 160.259C139.076 157.131 136.506 154.511 133.497 154.528V154.522ZM159.762 86.3316C162.929 86.3203 165.189 84.055 165.183 80.8937C165.178 77.8395 162.884 75.5742 159.796 75.5685C156.759 75.5629 154.42 77.9015 154.432 80.9388C154.443 84.0212 156.742 86.3429 159.768 86.3316H159.762ZM159.864 154.911C156.725 154.911 154.426 157.216 154.426 160.338C154.426 163.381 156.748 165.668 159.819 165.657C162.924 165.646 165.195 163.324 165.172 160.174C165.155 157.21 162.828 154.905 159.858 154.905L159.864 154.911ZM173.044 115.753C170.261 115.753 168.125 117.883 168.153 120.627C168.181 123.377 170.317 125.49 173.061 125.473C175.783 125.462 177.969 123.247 177.924 120.548C177.879 117.9 175.693 115.753 173.044 115.753ZM120.486 140.316C120.486 140.316 120.486 140.294 120.486 140.282C120.435 140.282 120.39 140.299 120.345 140.299C120.294 140.299 120.249 140.282 120.204 140.282C120.204 140.294 120.204 140.305 120.204 140.316C116.552 140.53 113.65 143.489 113.69 147.073C113.729 150.747 116.609 153.666 120.181 153.784C120.181 153.795 120.181 153.801 120.181 153.812C120.238 153.812 120.288 153.801 120.345 153.801C120.401 153.801 120.452 153.818 120.508 153.812C120.508 153.801 120.508 153.795 120.508 153.784C124.081 153.671 126.96 150.747 127 147.073C127.039 143.489 124.143 140.53 120.486 140.316ZM146.621 72.4354C149.191 72.4185 151.27 70.3391 151.293 67.7808C151.31 65.1436 149.219 63.0022 146.621 62.9909C144.018 62.9853 141.871 65.1154 141.876 67.7188C141.876 70.356 143.99 72.4523 146.627 72.4354H146.621ZM173.123 142.333C170.458 142.288 168.322 144.424 168.316 147.135C168.316 149.665 170.413 151.744 172.994 151.767C175.631 151.789 177.727 149.715 177.75 147.061C177.772 144.537 175.665 142.379 173.123 142.333ZM146.61 168.717C144.108 168.689 141.876 170.96 141.871 173.529C141.865 176.11 144.023 178.246 146.638 178.24C149.174 178.24 151.287 176.105 151.287 173.552C151.287 170.943 149.157 168.74 146.61 168.717ZM173.056 98.8923C175.591 98.8697 177.733 96.7397 177.75 94.2377C177.767 91.5779 175.586 89.4309 172.915 89.4647C170.351 89.4985 168.322 91.5779 168.316 94.1813C168.311 96.8129 170.43 98.9148 173.056 98.8923ZM173.01 169.348C170.678 169.354 168.863 171.168 168.857 173.507C168.852 175.834 170.666 177.683 172.977 177.699C175.321 177.716 177.186 175.907 177.209 173.597C177.231 171.208 175.389 169.343 173.005 169.348H173.01ZM173.095 71.8944C175.473 71.8381 177.288 69.9221 177.209 67.5498C177.135 65.2957 175.157 63.453 172.881 63.5319C170.548 63.6108 168.784 65.4929 168.852 67.8259C168.919 70.1701 170.773 71.9508 173.095 71.9001V71.8944ZM133.266 182.743C130.984 182.822 129.237 184.71 129.355 186.958C129.468 189.082 131.389 190.824 133.57 190.779C135.734 190.733 137.464 188.767 137.363 186.468C137.267 184.326 135.441 182.664 133.266 182.737V182.743ZM133.379 58.4998C135.61 58.5167 137.357 56.781 137.368 54.5383C137.38 52.3237 135.61 50.481 133.458 50.4584C131.299 50.4359 129.389 52.2673 129.355 54.3918C129.321 56.6571 131.108 58.4829 133.379 58.4998ZM186.23 111.447C188.361 111.442 190.288 109.543 190.276 107.452C190.265 105.187 188.428 103.367 186.185 103.389C183.965 103.417 182.218 105.204 182.241 107.424C182.258 109.638 184.061 111.459 186.23 111.447ZM186.191 129.891C183.914 129.891 182.241 131.587 182.246 133.881C182.246 136.129 183.988 137.842 186.242 137.837C188.53 137.831 190.338 136.011 190.293 133.762C190.254 131.565 188.473 129.891 186.191 129.897V129.891ZM186.129 156.607C184.157 156.658 182.539 158.382 182.562 160.411C182.585 162.293 184.309 163.978 186.219 163.984C188.248 163.989 189.899 162.344 189.893 160.321C189.888 158.185 188.231 156.551 186.129 156.602V156.607ZM159.774 58.1786C161.802 58.1842 163.493 56.5218 163.47 54.5439C163.448 52.3744 161.881 50.836 159.723 50.8585C157.649 50.8811 156.19 52.4364 156.201 54.6059C156.218 56.6683 157.717 58.1673 159.774 58.1786ZM186.338 84.6129C188.361 84.5622 189.921 82.9055 189.893 80.8374C189.865 78.8538 188.265 77.2872 186.264 77.2872C184.219 77.2872 182.539 78.9271 182.556 80.9163C182.573 82.99 184.286 84.6636 186.338 84.6129ZM159.92 183.058C157.751 183.036 156.201 184.574 156.201 186.755C156.201 188.874 157.711 190.384 159.836 190.384C161.847 190.384 163.431 188.84 163.465 186.84C163.498 184.788 161.898 183.075 159.92 183.053V183.058ZM120.463 168.678C120.463 168.678 120.463 168.661 120.463 168.649C120.424 168.649 120.384 168.661 120.339 168.661C120.3 168.661 120.26 168.649 120.215 168.649C120.215 168.661 120.215 168.666 120.215 168.678C117.707 168.83 115.735 170.796 115.662 173.298C115.583 176.054 117.437 178.083 120.238 178.376C120.238 178.387 120.238 178.398 120.238 178.409C120.271 178.409 120.305 178.398 120.339 178.393C120.373 178.393 120.407 178.404 120.44 178.409C120.44 178.398 120.44 178.387 120.44 178.376C123.241 178.083 125.089 176.054 125.016 173.298C124.949 170.796 122.971 168.83 120.463 168.678ZM199.383 117.313C197.568 117.342 196.16 118.779 196.16 120.599C196.16 122.503 197.597 123.952 199.462 123.929C201.35 123.907 202.792 122.441 202.764 120.582C202.736 118.722 201.254 117.285 199.383 117.313ZM199.422 143.911C197.698 143.911 196.346 145.359 196.362 147.18C196.385 148.932 197.715 150.206 199.501 150.2C201.209 150.189 202.668 148.673 202.623 146.954C202.578 145.297 201.113 143.911 199.417 143.911H199.422ZM199.315 97.3145C201.13 97.3483 202.584 96.0015 202.623 94.2602C202.657 92.5415 201.203 91.0538 199.479 91.0426C197.681 91.0369 196.362 92.3837 196.351 94.2377C196.346 95.8775 197.692 97.2863 199.315 97.3145ZM146.48 196.853C144.784 196.876 143.449 198.268 143.449 200.02C143.449 201.711 144.965 203.165 146.7 203.136C148.34 203.108 149.726 201.643 149.726 199.93C149.726 198.149 148.334 196.831 146.48 196.853ZM146.773 44.3669C148.481 44.3049 149.783 42.8848 149.721 41.1549C149.659 39.3798 148.255 38.1344 146.396 38.2021C144.649 38.264 143.409 39.6108 143.454 41.3972C143.499 43.1497 144.936 44.4345 146.773 44.3669ZM186.163 57.4573C187.91 57.4854 189.206 56.2513 189.24 54.527C189.268 52.9661 187.904 51.5404 186.332 51.4953C184.709 51.4502 183.295 52.8421 183.278 54.4932C183.266 56.1781 184.484 57.4291 186.157 57.4573H186.163ZM186.242 183.78C184.529 183.791 183.25 185.098 183.278 186.8C183.306 188.378 184.686 189.742 186.247 189.736C187.904 189.725 189.262 188.344 189.245 186.682C189.228 185.132 187.814 183.768 186.242 183.78ZM199.338 170.92C197.946 170.96 196.734 172.228 196.774 173.597C196.813 174.966 198.092 176.167 199.479 176.15C200.882 176.127 202.127 174.871 202.088 173.507C202.048 172.002 200.842 170.875 199.338 170.92ZM199.496 70.3391C200.955 70.3166 202.105 69.1501 202.099 67.7132C202.088 66.2649 200.809 65.0534 199.332 65.0928C198.064 65.1267 196.779 66.4284 196.768 67.685C196.757 69.1332 198.025 70.3673 199.496 70.3391ZM173.078 43.933C174.515 43.8992 175.704 42.6144 175.665 41.1436C175.625 39.763 174.335 38.5796 172.943 38.6472C171.506 38.7148 170.385 39.9151 170.418 41.3521C170.447 42.7496 171.703 43.9668 173.078 43.933ZM173.146 197.281C171.669 197.253 170.418 198.47 170.407 199.941C170.396 201.389 171.557 202.573 172.982 202.573C174.487 202.573 175.687 201.384 175.67 199.902C175.659 198.634 174.374 197.304 173.146 197.281ZM212.631 104.77C211.205 104.792 210.022 106.026 210.061 107.441C210.101 108.912 211.262 110.033 212.716 110.005C214.186 109.977 215.302 108.821 215.285 107.351C215.268 105.925 214.057 104.747 212.631 104.775V104.77ZM212.71 131.244C211.172 131.244 210.039 132.399 210.067 133.937C210.09 135.397 211.346 136.518 212.896 136.462C214.209 136.411 215.308 135.166 215.28 133.762C215.251 132.382 214.091 131.244 212.71 131.244ZM133.351 30.6566C134.776 30.6848 135.965 29.5183 135.982 28.0814C135.999 26.605 134.9 25.478 133.413 25.4441C131.987 25.4103 130.787 26.5881 130.781 28.0307C130.775 29.5183 131.857 30.6285 133.351 30.6566ZM133.283 210.58C131.857 210.62 130.719 211.843 130.77 213.28C130.82 214.66 132.088 215.832 133.486 215.793C134.883 215.753 136.033 214.502 135.988 213.077C135.943 211.662 134.725 210.535 133.283 210.58ZM120.474 196.746C120.474 196.746 120.474 196.724 120.474 196.712C120.429 196.712 120.39 196.724 120.345 196.729C120.3 196.729 120.26 196.718 120.215 196.712C120.215 196.724 120.215 196.735 120.215 196.746C118.136 196.943 117.24 198.166 117.217 200.843C117.29 200.978 117.364 201.113 117.437 201.243C118.074 202.331 118.891 203.148 120.204 203.193V203.221C120.26 203.221 120.3 203.204 120.35 203.204C120.401 203.204 120.44 203.221 120.497 203.221V203.193C121.81 203.148 122.627 202.331 123.264 201.243C123.337 201.108 123.41 200.972 123.483 200.843C123.461 198.166 122.565 196.949 120.486 196.746H120.474ZM212.761 83.2267C213.967 83.1928 215.02 82.0489 214.958 80.8317C214.902 79.654 213.859 78.6847 212.648 78.6904C211.419 78.696 210.332 79.8061 210.366 81.0064C210.4 82.2067 211.538 83.2661 212.755 83.2267H212.761ZM159.774 210.896C158.596 210.907 157.565 211.938 157.548 213.111C157.536 214.333 158.601 215.466 159.779 215.494C160.985 215.522 162.067 214.429 162.073 213.189C162.073 211.961 160.996 210.885 159.774 210.896ZM212.732 158.033C211.453 158.033 210.388 159.036 210.366 160.259C210.343 161.459 211.431 162.547 212.67 162.552C213.859 162.558 214.93 161.549 214.964 160.388C214.998 159.143 213.944 158.033 212.732 158.033ZM159.824 30.3411C161.053 30.3298 162.09 29.2535 162.073 28.0081C162.05 26.7177 161.081 25.8273 159.729 25.8442C158.472 25.8611 157.57 26.7797 157.565 28.0476C157.565 29.3267 158.568 30.3467 159.824 30.3411ZM226.043 118.486C224.825 118.424 223.783 119.387 223.772 120.582C223.766 121.731 224.73 122.757 225.834 122.78C226.922 122.802 227.959 121.771 227.959 120.661C227.959 119.551 227.068 118.542 226.037 118.486H226.043ZM225.941 145.066C225.028 145.044 223.924 146.098 223.89 147.033C223.851 147.997 224.859 149.05 225.834 149.062C226.809 149.073 227.829 148.098 227.868 147.112C227.908 146.148 226.916 145.089 225.936 145.066H225.941ZM146.621 16.7379C147.675 16.721 148.599 15.7856 148.582 14.7656C148.565 13.8076 147.545 12.8722 146.509 12.8609C145.562 12.8553 144.688 13.7794 144.671 14.7994C144.655 15.8644 145.551 16.7548 146.621 16.7379ZM225.964 96.086C226.978 96.0691 227.812 95.2351 227.851 94.1982C227.891 93.229 226.905 92.2372 225.885 92.2259C224.82 92.209 223.963 93.0881 223.963 94.1926C223.963 95.2295 224.893 96.1085 225.964 96.086ZM146.599 224.499C145.562 224.499 144.66 225.423 144.677 226.477C144.694 227.458 145.562 228.337 146.559 228.376C147.506 228.41 148.588 227.384 148.588 226.443C148.588 225.418 147.658 224.505 146.604 224.499H146.599ZM199.343 198.121C198.538 198.121 197.72 199.034 197.72 199.93C197.72 200.905 198.504 201.688 199.496 201.688C200.47 201.688 201.226 200.888 201.203 199.868C201.186 198.972 200.268 198.115 199.343 198.121ZM199.349 43.0201C200.335 43.0652 201.175 42.2875 201.192 41.307C201.209 40.3265 200.392 39.4756 199.405 39.5488C198.385 39.6221 197.754 40.1743 197.72 41.2619C197.692 42.2255 198.391 42.975 199.349 43.0201ZM239.122 132.28C238.214 132.241 237.375 133.041 237.482 133.864C237.611 134.833 238.198 135.374 239.212 135.425C240.17 135.323 240.688 134.726 240.666 133.813C240.649 132.889 240.068 132.325 239.116 132.28H239.122ZM212.721 185.149C211.853 185.098 211.081 185.876 211.087 186.749C211.087 187.583 211.774 188.271 212.625 188.288C213.538 188.31 214.31 187.6 214.248 186.71C214.192 185.786 213.685 185.205 212.721 185.143V185.149ZM133.266 3.21924C134.089 3.33757 134.962 2.4754 134.928 1.61886C134.889 0.660893 134.331 0.114286 133.407 0.00721897C132.607 -0.0829429 131.852 0.683433 131.818 1.63577C131.852 2.48667 132.336 3.08963 133.266 3.21924ZM212.749 56.0879C213.527 55.9583 214.169 55.5526 214.237 54.5834C214.299 53.6705 213.578 52.9041 212.693 52.9379C211.769 52.9773 211.166 53.462 211.087 54.4143C211.014 55.3159 211.78 56.0936 212.749 56.0879ZM186.462 211.617C185.425 211.578 184.63 212.293 184.664 213.167C184.703 214.097 185.205 214.677 186.152 214.762C187.053 214.846 187.803 214.119 187.797 213.218C187.797 212.248 187.222 211.775 186.462 211.617ZM239.133 108.962C240.04 108.934 240.79 108.179 240.671 107.306C240.547 106.41 240.035 105.79 239.071 105.835C238.158 105.88 237.561 106.421 237.493 107.356C237.437 108.185 238.31 108.99 239.133 108.968V108.962ZM186.433 29.6254C187.188 29.524 187.769 29.0506 187.791 28.0757C187.814 27.146 187.076 26.4585 186.129 26.5374C185.177 26.6163 184.647 27.1741 184.658 28.1321C184.67 29.0055 185.402 29.6536 186.428 29.6254H186.433ZM133.435 238.108C132.494 238.108 131.919 238.57 131.812 239.601C131.902 240.446 132.257 241.1 133.266 241.162C134.19 241.219 135.007 240.537 134.94 239.658C134.878 238.767 134.444 238.102 133.429 238.108H133.435ZM120.159 224.217L120.226 224.268C120.226 224.268 120.226 224.262 120.226 224.257L120.153 224.217H120.159ZM120.457 224.33C120.457 224.33 120.457 224.291 120.457 224.274C120.412 224.274 120.384 224.296 120.345 224.302C120.305 224.296 120.271 224.279 120.232 224.274C120.232 224.291 120.232 224.313 120.232 224.33C119.206 224.527 118.609 225.209 118.412 226.229C118.237 227.136 118.784 227.779 119.499 228.235C119.854 228.461 120.159 228.534 120.345 228.359C120.531 228.528 120.835 228.461 121.19 228.235C121.911 227.779 122.452 227.142 122.278 226.229C122.08 225.209 121.483 224.533 120.457 224.33ZM225.93 172.098C225.045 172.098 224.521 172.628 224.482 173.529C224.532 174.448 225.062 174.933 225.885 174.882C226.64 174.837 227.344 174.454 227.282 173.535C227.232 172.746 226.786 172.104 225.93 172.098ZM225.986 69.1614C226.741 68.9247 227.378 68.5415 227.288 67.6625C227.209 66.8735 226.724 66.2311 225.874 66.2875C225.023 66.3438 224.465 66.9299 224.493 67.8372C224.521 68.7557 225.242 68.9811 225.981 69.1614H225.986ZM173.044 16.2307C173.822 16.1124 174.408 15.7123 174.374 14.8389C174.346 14.1119 173.997 13.4639 173.157 13.447C172.267 13.4301 171.681 13.926 171.641 14.8445C171.607 15.7292 172.188 16.118 173.044 16.2307ZM173.32 225.215C172.12 225.164 171.709 225.857 171.737 226.483C171.776 227.367 172.577 227.66 173.405 227.627C174.115 227.598 174.493 227.091 174.476 226.477C174.453 225.62 173.794 225.299 173.32 225.215Z" fill="url(#paint0_radial_2047_2989)"/>
<defs>
<radialGradient id="paint0_radial_2047_2989" cx="0" cy="0" r="1" gradientUnits="userSpaceOnUse" gradientTransform="translate(120.339 120.582) scale(120.462 120.462)">
<stop stop-color="#00EAC2"/>
<stop offset="0.11" stop-color="#04E0BA" stop-opacity="0.94"/>
<stop offset="0.32" stop-color="#0EC6A6" stop-opacity="0.8"/>
<stop offset="0.6" stop-color="#209C86" stop-opacity="0.56"/>
<stop offset="0.96" stop-color="#38635A" stop-opacity="0.24"/>
<stop offset="1" stop-color="#3B5C55" stop-opacity="0.2"/>
</radialGradient>
</defs>
</svg>
