<svg width="165" height="167" viewBox="0 0 165 167" fill="none" xmlns="http://www.w3.org/2000/svg">
<defs>
<linearGradient id="paint0_linear_446:2800" x1="80.8621" y1="46.372" x2="80.8621" y2="212.183" gradientUnits="userSpaceOnUse">
<stop stop-color="#D6E6FD"/>
<stop offset="1" stop-color="#D2E3FD"/>
</linearGradient>
<linearGradient id="paint1_linear_446:2800" x1="103.314" y1="46.3726" x2="103.314" y2="212.183" gradientUnits="userSpaceOnUse">
<stop stop-color="#D6E6FD"/>
<stop offset="1" stop-color="#D2E3FD"/>
</linearGradient>
<linearGradient id="paint2_linear_446:2800" x1="22.7805" y1="80.507" x2="107.581" y2="80.507" gradientUnits="userSpaceOnUse">
<stop stop-color="#D6E6FD"/>
<stop offset="1" stop-color="#D2E3FD"/>
</linearGradient>
<linearGradient id="paint3_linear_446:2800" x1="9.03027" y1="45.0804" x2="44.1103" y2="9.85091" gradientUnits="userSpaceOnUse">
<stop stop-color="#FF9E0B"/>
<stop offset="1" stop-color="#FFC773"/>
</linearGradient>
<linearGradient id="paint4_linear_446:2800" x1="84.1549" y1="93.6089" x2="90.6757" y2="95.2704" gradientUnits="userSpaceOnUse">
<stop stop-color="#FD9271"/>
<stop offset="1" stop-color="#FED4C4" stop-opacity="0"/>
</linearGradient>
<linearGradient id="paint5_linear_446:2800" x1="99.5218" y1="130.849" x2="82.6613" y2="124.359" gradientUnits="userSpaceOnUse">
<stop stop-color="#FD9271"/>
<stop offset="1" stop-color="#FED4C4" stop-opacity="0"/>
</linearGradient>
<linearGradient id="paint6_linear_446:2800" x1="84.2827" y1="157.307" x2="150.666" y2="93.2236" gradientUnits="userSpaceOnUse">
<stop stop-color="#FF9E0B"/>
<stop offset="1" stop-color="#FFC773"/>
</linearGradient>
<linearGradient id="paint7_linear_446:2800" x1="78.2334" y1="112.499" x2="157.631" y2="170.668" gradientUnits="userSpaceOnUse">
<stop stop-color="#FD9271"/>
<stop offset="1" stop-color="#FED4C4" stop-opacity="0"/>
</linearGradient>
<linearGradient id="paint8_linear_446:2800" x1="99.854" y1="136.552" x2="111.752" y2="125.746" gradientUnits="userSpaceOnUse">
<stop stop-color="#FF9E0B"/>
<stop offset="1" stop-color="#FFC773"/>
</linearGradient>
</defs>
<path d="M164.961 83.2158C164.961 102.121 158.634 119.477 148.14 133.579C142.431 141.172 135.487 147.836 127.462 152.95C114.655 161.473 99.2232 166.432 82.5574 166.432C37.0351 166.432 0 129.085 0 83.0608C0 37.0364 37.0351 0 82.4031 0C98.9146 0 114.192 4.95886 127.308 13.3269C135.332 18.4407 142.277 25.1042 147.986 32.6975C158.479 46.9542 164.961 64.3102 164.961 83.2158Z" fill="#F1F6FF"/>
<path opacity="0.51" d="M136.784 99.5999C135.937 101.202 134.836 102.705 133.489 104.052L131.283 106.265L129.587 107.958L127.879 109.663L104.633 132.908L94.0425 143.506C86.7659 150.783 74.9647 150.783 67.6919 143.506L41.4664 117.277L33.852 109.663L32.1477 107.958L28.2418 104.052C27.0499 102.861 26.0592 101.551 25.2545 100.158C21.1588 93.0407 22.1571 83.7941 28.2418 77.7094L38.8398 67.1191L45.1522 60.8065L65.4827 40.4684L67.6881 38.2631C69.0356 36.9118 70.5463 35.8148 72.1444 34.9683C74.8622 33.5297 77.8609 32.8047 80.8558 32.8047C85.6271 32.8047 90.3947 34.6229 94.0349 38.2631L133.485 77.7132C139.41 83.6309 140.515 92.5587 136.784 99.5999Z" fill="url(#paint0_linear_446:2800)"/>
<path opacity="0.48" d="M136.784 99.5998C135.937 101.202 134.836 102.705 133.489 104.052L131.283 106.265L129.583 107.958L127.878 109.663L104.633 132.908L94.0386 143.506C86.762 150.783 74.9646 150.783 67.688 143.506C135.463 107.37 80.8595 32.8008 80.8595 32.8008C85.6271 32.8008 90.3984 34.619 94.0386 38.2592L99.535 43.7556L133.489 77.7093C139.41 83.6308 140.511 92.5585 136.784 99.5998Z" fill="url(#paint1_linear_446:2800)"/>
<path opacity="0.62" d="M107.582 71.6167V96.1719C107.582 98.4038 105.775 100.215 103.54 100.215H25.9262C25.6985 100.215 25.4707 100.195 25.2505 100.158C21.1548 93.0403 22.1531 83.7937 28.2379 77.709L38.8358 67.1187L45.1483 60.8062H95.6405C97.8724 60.8062 99.683 62.613 99.683 64.845V67.5817H103.543C105.772 67.5742 107.582 69.3847 107.582 71.6167Z" fill="url(#paint2_linear_446:2800)"/>
<path d="M88.6559 100.423H11.0388C8.80682 100.423 7 98.6126 7 96.3845V71.8293C7 69.5973 8.81062 67.7905 11.0388 67.7905H88.6559C90.8879 67.7905 92.6947 69.6011 92.6947 71.8293V96.3845C92.6947 98.6126 90.8841 100.423 88.6559 100.423Z" fill="#34C3A7"/>
<path d="M96.5548 107.199H18.9377C16.7057 107.199 14.8989 105.388 14.8989 103.16V78.6047C14.8989 76.3728 16.7095 74.5659 18.9377 74.5659H96.5548C98.7868 74.5659 100.594 76.3766 100.594 78.6047V103.16C100.594 105.388 98.7868 107.199 96.5548 107.199Z" fill="#1CAF82"/>
<path d="M94.9494 80.2065H73.6055V101.55H94.9494V80.2065Z" fill="white"/>
<path d="M60.6882 87.6236H24.7227C22.6767 87.6236 21.0142 85.9648 21.0142 83.9151C21.0142 81.8691 22.6729 80.2065 24.7227 80.2065H60.6882C62.7341 80.2065 64.3967 81.8653 64.3967 83.9151C64.3967 85.9648 62.7379 87.6236 60.6882 87.6236Z" fill="white"/>
<path d="M46.1426 99.9415H24.7227C22.6767 99.9415 21.0142 98.2827 21.0142 96.2329C21.0142 94.187 22.6729 92.5244 24.7227 92.5244H46.1426C48.1885 92.5244 49.8511 94.1832 49.8511 96.2329C49.8473 98.2827 48.1885 99.9415 46.1426 99.9415Z" fill="white"/>
<path d="M44.26 45.0804H26.9738C17.2451 45.0804 8.94739 37.1243 9.0309 27.3917C9.11061 17.534 17.321 9.61585 27.2926 10.0144C36.5089 10.3826 43.9601 18.0237 44.1044 27.2437C44.1727 31.2635 42.8897 34.9644 40.6881 37.948L44.26 45.0804Z" fill="url(#paint3_linear_446:2800)"/>
<path d="M44.26 45.0804H26.9738C17.2451 45.0804 8.94739 37.1243 9.0309 27.3917C9.11061 17.534 17.321 9.61585 27.2926 10.0144C6.26373 30.6144 44.26 45.0804 44.26 45.0804Z" fill="#FF9E0B"/>
<path d="M26.2826 35.1996C25.4779 36.1334 24.0279 36.1448 23.2118 35.2186L18.8731 30.3106C17.6509 28.8796 17.8179 26.7273 19.2489 25.5051L24.7529 31.9428L31.9232 23.4856C33.1417 22.0508 35.2901 21.8725 36.7287 23.091L26.2826 35.1996Z" fill="white"/>
<path d="M85.3539 91.5143C86.3408 90.7399 87.3164 90.8955 88.0186 91.2789C88.7208 91.6623 90.7061 94.7103 90.6795 95.3442C90.6567 95.9781 88.3489 97.9102 87.6504 97.8381C86.7167 97.7356 84.906 95.0595 84.5227 94.2283C84.1431 93.4008 84.2114 92.4101 85.3539 91.5143Z" fill="url(#paint4_linear_446:2800)"/>
<path d="M159.24 144.77L148.406 151.204L148.399 151.208L141.194 155.489L141.19 155.493L138.131 157.311C138.131 157.311 129.712 150.688 127.286 149.796C124.865 148.9 121.186 147.355 119.531 146.729C117.277 145.89 108.174 140.01 107.54 139.361C104.963 136.723 101.695 134.069 99.2123 132.232C99.1933 132.221 99.1781 132.21 99.1592 132.194C97.5649 131.018 96.3009 130.183 95.7733 129.917C95.4886 129.78 95.1888 129.663 94.8775 129.556C92.6152 128.824 89.848 129.017 89.4153 127.878C89.4039 127.833 89.3849 127.791 89.3811 127.742C89.0965 126.307 92.6494 122.447 97.1133 123.589C97.9559 123.806 98.8897 124.162 99.85 124.603L99.8538 124.606H99.8614C103.764 126.394 108.095 129.53 108.546 129.856C108.573 129.875 108.584 129.886 108.584 129.886C108.584 129.886 106.626 126.102 105.001 123.855C103.376 121.619 95.6708 111.53 94.1183 109.393C92.562 107.259 86.3786 98.6354 85.6574 97.174C84.9324 95.7088 83.1332 93.2301 85.3613 91.5219C87.4225 89.9315 89.9277 91.5713 91.6586 93.7539C93.3858 95.9328 99.0225 102.94 101.217 105.589C102.701 107.392 105.122 109.966 106.884 111.898C106.884 110.262 106.72 108.725 108.573 107.559C109.704 106.85 110.786 106.88 111.716 107.225H111.72C113.428 107.855 114.616 109.529 114.616 109.529C114.616 109.529 113.724 106.785 116.51 105.407C119.224 104.063 121.346 107.533 121.448 107.696C121.414 107.567 120.792 105.312 122.428 104.337C124.914 102.845 128.922 108.755 128.922 108.755C130.361 110.505 133.09 114.403 134.013 115.804C135.466 117.998 140.507 130.16 141.745 131.758C142.982 133.344 159.24 144.77 159.24 144.77Z" fill="#FFF5E6"/>
<path d="M95.2763 127.955C95.4281 128.114 95.2307 129.405 95.0485 129.541C95.0295 129.553 94.9726 129.553 94.8777 129.553C92.6192 128.82 89.852 129.014 89.4155 127.875C89.6736 127.609 90.1178 127.31 90.6947 127.101C91.7196 126.74 95.1282 127.799 95.2763 127.955Z" fill="url(#paint5_linear_446:2800)"/>
<path opacity="0.2" d="M148.406 151.2L148.399 151.204L141.194 155.485L141.19 155.489L138.131 157.307C138.131 157.307 129.712 150.684 127.286 149.792C124.865 148.896 121.186 147.351 119.531 146.725C117.277 145.886 108.174 140.006 107.54 139.357C104.963 136.719 101.695 134.066 99.2123 132.228C99.1933 132.217 99.1781 132.206 99.1592 132.19C97.5649 131.014 96.3009 130.179 95.7733 129.913C95.4886 129.776 95.1888 129.659 94.8775 129.552C92.6152 128.82 89.848 129.013 89.4153 127.874C89.4039 127.829 89.3849 127.787 89.3811 127.738C89.0965 126.303 92.6494 122.443 97.1133 123.585C97.9559 123.802 98.8897 124.158 99.85 124.599L99.8538 124.602H99.8614C103.764 126.39 108.095 129.526 108.546 129.852C108.573 129.871 108.584 129.882 108.584 129.882C108.584 129.882 106.626 126.098 105.001 123.851C103.376 121.615 95.6708 111.526 94.1183 109.389C92.562 107.256 86.3786 98.6314 85.6574 97.17C84.9324 95.7048 83.1332 93.2262 85.3613 91.5181C87.4225 89.9276 89.9277 91.5674 91.6586 93.75C93.3858 95.9288 99.0225 102.936 101.217 105.585C102.701 107.388 105.122 109.962 106.884 111.894C106.884 110.258 106.72 108.721 108.573 107.555C109.704 106.846 110.786 106.876 111.716 107.221H111.72C112.638 111.378 113.857 119.619 118.313 130.581C124.364 145.457 148.406 151.2 148.406 151.2Z" fill="url(#paint6_linear_446:2800)"/>
<path d="M141.194 155.485L138.131 157.308C138.131 157.308 129.712 150.684 127.286 149.792C124.865 148.896 121.186 147.351 119.531 146.725C117.277 145.886 108.174 140.006 107.54 139.357C104.963 136.719 101.695 134.066 99.2124 132.229C121.494 147.047 123.335 144.387 128.342 144.994C133.599 145.628 141.194 155.485 141.194 155.485Z" fill="url(#paint7_linear_446:2800)"/>
<path d="M110.71 136.552C110.551 136.385 108.349 134.016 107.301 131.591C106.223 129.112 100.048 124.735 99.854 124.599H99.8616C103.764 126.386 108.095 129.522 108.546 129.848C108.524 133.166 110.585 136.358 110.71 136.552Z" fill="url(#paint8_linear_446:2800)"/>

</svg>
