<svg xmlns="http://www.w3.org/2000/svg" width="530.113" height="475.575" viewBox="0 0 530.113 475.575">
  <g id="object" transform="translate(-294.758 -114.941)">
    <g id="Group_8767" data-name="Group 8767" opacity="0.15">
      <path id="Path_31444" data-name="Path 31444" d="M375.351,551.44a.75.75,0,0,0-1.4-.151l-8,16.466c-.025-.021-.045-.043-.07-.064-6.112-5.054-12.321-9.779-17.97-15.381a143.055,143.055,0,0,1-16.073-19.151A162.867,162.867,0,0,1,310.2,489.345c-12.056-37.266-10.992-77.723-1.929-115.492.633-2.636-3.321-3.733-4.057-1.118-10.856,38.6-13.386,80.043-2.191,118.865a171.262,171.262,0,0,0,21.428,46.459c9.235,14.045,21.223,28.259,35.408,37.577l-12.571,8.385a.75.75,0,0,0,.313,1.367l37.133,5.121a.75.75,0,0,0,.832-.919Z" fill="#ff9e0b"/>
      <path id="Path_31445" data-name="Path 31445" d="M804.671,279.247a171.276,171.276,0,0,0-29.349-41.907c-11.586-12.178-25.911-24.033-41.527-30.68l10.879-10.488a.75.75,0,0,0-.551-1.289l-37.452,1.566a.75.75,0,0,0-.655,1.052l15.856,35.9a.75.75,0,0,0,1.408-.1l4.943-17.626c.028.016.052.034.08.05,6.913,3.887,13.863,7.432,20.418,11.94a142.867,142.867,0,0,1,19.223,15.987,162.811,162.811,0,0,1,29.081,39.267c18.493,34.528,24.642,74.529,22.441,113.308-.154,2.706,3.932,3.083,4.191.379C827.475,356.7,822.593,315.459,804.671,279.247Z" fill="#ff9e0b"/>
    </g>
    <g id="Group_8768" data-name="Group 8768" opacity="0.17">
      <path id="Path_31446" data-name="Path 31446" d="M656.151,256.618l-15.62-6.737a9.62,9.62,0,0,1-2.335-16.236l13.089-10.865a.422.422,0,0,0,.114-.5l-19.824-43.409a.418.418,0,0,0-.451-.239l-16.782,2.777a9.668,9.668,0,0,1-9.342-3.82,9.509,9.509,0,0,1-1.4-8.577l5.137-16.216a.421.421,0,0,0-.173-.48l-40.146-25.8a.42.42,0,0,0-.507.042l-12.617,11.409a9.436,9.436,0,0,1-6.417,2.492,9.547,9.547,0,0,1-9.323-7.113l-4.446-16.42a.418.418,0,0,0-.4-.31H486.982a.418.418,0,0,0-.4.31l-4.446,16.42a9.547,9.547,0,0,1-9.323,7.113,9.436,9.436,0,0,1-6.417-2.492L453.776,126.56a.421.421,0,0,0-.508-.042l-40.146,25.8a.421.421,0,0,0-.173.48l5.137,16.216a9.512,9.512,0,0,1-1.4,8.578,9.657,9.657,0,0,1-9.342,3.819l-16.782-2.777a.424.424,0,0,0-.451.239l-19.824,43.409a.422.422,0,0,0,.114.5l13.089,10.865a9.62,9.62,0,0,1-2.335,16.236l-15.62,6.737a.421.421,0,0,0-.249.445l6.792,47.236a.418.418,0,0,0,.365.356l16.885,2.064a9.62,9.62,0,0,1,6.813,14.921l-9.5,14.113a.421.421,0,0,0,.031.508l31.251,36.065a.421.421,0,0,0,.5.1l15.322-7.393a9.563,9.563,0,0,1,4.18-.969,9.727,9.727,0,0,1,6.9,2.924,9.508,9.508,0,0,1,2.717,6.913l-.36,17.007a.419.419,0,0,0,.3.411l45.789,13.445a.418.418,0,0,0,.475-.182l8.891-14.5a9.62,9.62,0,0,1,16.4,0l8.892,14.5a.419.419,0,0,0,.358.2.4.4,0,0,0,.117-.017l45.79-13.445a.419.419,0,0,0,.3-.411l-.36-17.007a9.508,9.508,0,0,1,2.717-6.913,9.725,9.725,0,0,1,6.9-2.924,9.57,9.57,0,0,1,4.181.969l15.321,7.393a.422.422,0,0,0,.5-.1l31.251-36.065a.421.421,0,0,0,.031-.508l-9.5-14.113a9.62,9.62,0,0,1,6.813-14.921l16.885-2.064a.418.418,0,0,0,.365-.356l6.792-47.236A.42.42,0,0,0,656.151,256.618ZM510.843,329.507a68.805,68.805,0,1,1,68.805-68.8A68.806,68.806,0,0,1,510.843,329.507Z" fill="#c4c4c4"/>
    </g>
    <g id="Group_8769" data-name="Group 8769">
      <path id="Path_31447" data-name="Path 31447" d="M648.6,254.941l-15.62-6.737a9.62,9.62,0,0,1-2.335-16.236L643.738,221.1a.42.42,0,0,0,.114-.5L624.028,177.2a.418.418,0,0,0-.451-.239l-16.782,2.777a9.668,9.668,0,0,1-9.342-3.82,9.509,9.509,0,0,1-1.4-8.577l5.137-16.216a.421.421,0,0,0-.173-.48l-40.146-25.8a.42.42,0,0,0-.508.042l-12.616,11.409a9.435,9.435,0,0,1-6.417,2.491,9.546,9.546,0,0,1-9.323-7.112l-4.446-16.42a.418.418,0,0,0-.4-.31H479.435a.418.418,0,0,0-.4.31l-4.446,16.42a9.546,9.546,0,0,1-9.323,7.112,9.435,9.435,0,0,1-6.417-2.491l-12.617-11.409a.418.418,0,0,0-.507-.042l-40.146,25.8a.421.421,0,0,0-.173.48l5.137,16.216a9.509,9.509,0,0,1-1.4,8.577,9.656,9.656,0,0,1-9.342,3.82l-16.782-2.777a.424.424,0,0,0-.451.239L362.74,220.6a.42.42,0,0,0,.114.5l13.089,10.866a9.62,9.62,0,0,1-2.335,16.236l-15.62,6.737a.42.42,0,0,0-.249.445l6.792,47.236a.419.419,0,0,0,.365.356l16.885,2.064a9.62,9.62,0,0,1,6.813,14.921l-9.5,14.112a.422.422,0,0,0,.031.509l31.251,36.065a.421.421,0,0,0,.5.1L426.2,363.36a9.549,9.549,0,0,1,4.18-.969,9.727,9.727,0,0,1,6.9,2.924A9.508,9.508,0,0,1,440,372.228l-.36,17.007a.42.42,0,0,0,.3.411l45.79,13.445a.417.417,0,0,0,.475-.183l8.891-14.5a9.62,9.62,0,0,1,16.4,0l8.892,14.5a.417.417,0,0,0,.357.2.4.4,0,0,0,.118-.017l45.79-13.445a.42.42,0,0,0,.3-.411l-.36-17.007a9.508,9.508,0,0,1,2.717-6.913,9.725,9.725,0,0,1,6.9-2.924,9.557,9.557,0,0,1,4.181.969l15.321,7.393a.422.422,0,0,0,.5-.1l31.251-36.065a.422.422,0,0,0,.031-.509L618,319.963a9.62,9.62,0,0,1,6.813-14.921l16.885-2.064a.419.419,0,0,0,.365-.356l6.792-47.236A.42.42,0,0,0,648.6,254.941ZM503.3,327.83a68.805,68.805,0,1,1,68.805-68.8A68.805,68.805,0,0,1,503.3,327.83Z" fill="#25ccab"/>
    </g>
    <g id="Group_8771" data-name="Group 8771">
      <g id="Group_8770" data-name="Group 8770">
        <path id="Path_31448" data-name="Path 31448" d="M774.713,517.989l-9.234-10.076a7.729,7.729,0,0,1,3.628-12.67l13.168-3.66a.338.338,0,0,0,.247-.328l-.255-38.341a.337.337,0,0,0-.252-.324L768.8,449.106a7.767,7.767,0,0,1-5.592-5.873,7.64,7.64,0,0,1,1.8-6.747l9.1-10.2a.338.338,0,0,0,.031-.409l-20.945-32.116a.338.338,0,0,0-.386-.137l-13,4.214a7.578,7.578,0,0,1-5.523-.283,7.671,7.671,0,0,1-4.495-8.281l2.141-13.5a.336.336,0,0,0-.195-.36l-34.983-15.7a.336.336,0,0,0-.4.094l-8.66,10.575a7.669,7.669,0,0,1-9.173,2.148,7.582,7.582,0,0,1-3.885-3.937l-5.5-12.513a.339.339,0,0,0-.359-.2l-37.915,5.71a.337.337,0,0,0-.284.295l-1.568,13.577a7.642,7.642,0,0,1-3.847,5.828,7.757,7.757,0,0,1-8.1-.273l-11.39-7.555a.34.34,0,0,0-.409.027l-28.809,25.3a.338.338,0,0,0-.08.4l6.022,12.27a7.73,7.73,0,0,1-7.052,11.134l-13.666-.2a.337.337,0,0,0-.329.244l-10.556,36.861a.337.337,0,0,0,.15.381l11.7,7.066a7.73,7.73,0,0,1,.088,13.179l-11.6,7.222a.339.339,0,0,0-.145.383l11.048,36.716a.34.34,0,0,0,.332.24l13.663-.38a7.674,7.674,0,0,1,3.383.664,7.815,7.815,0,0,1,4.1,4.413,7.644,7.644,0,0,1-.281,5.962l-5.858,12.349a.336.336,0,0,0,.086.4l29.145,24.915a.335.335,0,0,0,.409.023l11.287-7.707a7.73,7.73,0,0,1,12.024,5.4l1.749,13.555a.336.336,0,0,0,.2.264.359.359,0,0,0,.092.027l37.989,5.2a.337.337,0,0,0,.356-.2L676.021,577a7.638,7.638,0,0,1,4.266-4.174,7.811,7.811,0,0,1,6.021.126,7.679,7.679,0,0,1,2.745,2.085l8.8,10.458a.339.339,0,0,0,.4.089l34.771-16.161a.338.338,0,0,0,.19-.362l-2.321-13.469a7.73,7.73,0,0,1,9.9-8.7l13.056,4.041a.336.336,0,0,0,.384-.142L774.75,518.4A.337.337,0,0,0,774.713,517.989Zm-130.492,5.643a55.283,55.283,0,1,1,73.068-27.81A55.283,55.283,0,0,1,644.221,523.632Z" fill="#05293c"/>
      </g>
    </g>
    <g id="Group_8773" data-name="Group 8773">
      <g id="Group_8772" data-name="Group 8772">
        <path id="Path_31449" data-name="Path 31449" d="M536.275,511.906l-5.909-6.447a4.946,4.946,0,0,1,2.322-8.108l8.426-2.342a.215.215,0,0,0,.158-.21l-.163-24.535a.216.216,0,0,0-.161-.207l-8.457-2.229a4.972,4.972,0,0,1-3.579-3.758,4.89,4.89,0,0,1,1.149-4.318l5.822-6.525a.217.217,0,0,0,.02-.262l-13.4-20.552a.217.217,0,0,0-.247-.087l-8.32,2.7a4.851,4.851,0,0,1-3.534-.182,4.908,4.908,0,0,1-2.877-5.3l1.371-8.638a.216.216,0,0,0-.125-.231l-22.386-10.043a.216.216,0,0,0-.255.06l-5.541,6.767a4.909,4.909,0,0,1-5.87,1.375,4.856,4.856,0,0,1-2.486-2.52l-3.517-8.007a.215.215,0,0,0-.23-.126l-24.262,3.653a.217.217,0,0,0-.182.189l-1,8.688a4.89,4.89,0,0,1-2.461,3.729,4.966,4.966,0,0,1-5.186-.174L428.1,419.43a.217.217,0,0,0-.261.017L409.4,435.638a.216.216,0,0,0-.051.257l3.853,7.852a4.947,4.947,0,0,1-4.513,7.125l-8.745-.127a.214.214,0,0,0-.21.156l-6.755,23.588a.215.215,0,0,0,.1.243l7.486,4.522a4.946,4.946,0,0,1,.056,8.433l-7.425,4.621a.216.216,0,0,0-.092.246l7.069,23.5a.217.217,0,0,0,.212.153l8.743-.243a4.9,4.9,0,0,1,2.165.425,5,5,0,0,1,2.622,2.824,4.89,4.89,0,0,1-.18,3.815l-3.748,7.9a.214.214,0,0,0,.055.256l18.649,15.943a.215.215,0,0,0,.262.015l7.223-4.932a4.946,4.946,0,0,1,7.694,3.452l1.119,8.674a.216.216,0,0,0,.126.169.192.192,0,0,0,.059.017l24.309,3.33a.214.214,0,0,0,.227-.13l3.411-8.054a4.891,4.891,0,0,1,2.729-2.671,5.005,5.005,0,0,1,3.853.081,4.912,4.912,0,0,1,1.757,1.335l5.631,6.692a.218.218,0,0,0,.256.056l22.25-10.341a.215.215,0,0,0,.121-.232l-1.485-8.618a4.946,4.946,0,0,1,6.336-5.566l8.355,2.585a.215.215,0,0,0,.246-.09L536.3,512.167A.214.214,0,0,0,536.275,511.906Zm-83.5,3.611a35.375,35.375,0,1,1,46.756-17.8A35.374,35.374,0,0,1,452.773,515.517Z" fill="#ff9e0b"/>
      </g>
    </g>
    <g id="Group_8779" data-name="Group 8779" opacity="0.07">
      <g id="Group_8774" data-name="Group 8774">
        <path id="Path_31450" data-name="Path 31450" d="M471.7,320.139a69.044,69.044,0,0,1-31.872-34.519l-.107-.117c-23.873-26.415-47.189-53.328-69.649-80.943L362.74,220.6a.42.42,0,0,0,.114.5l13.089,10.866a9.62,9.62,0,0,1-2.335,16.236l-15.62,6.737a.42.42,0,0,0-.249.445l6.792,47.236a.418.418,0,0,0,.365.356l16.885,2.064a9.62,9.62,0,0,1,6.813,14.921l-9.5,14.112a.422.422,0,0,0,.031.509l31.251,36.065a.421.421,0,0,0,.5.1L426.2,363.36a9.549,9.549,0,0,1,4.18-.969,9.727,9.727,0,0,1,6.9,2.924A9.508,9.508,0,0,1,440,372.228l-.36,17.007a.42.42,0,0,0,.3.411l45.79,13.445a.417.417,0,0,0,.475-.183l8.891-14.5a9.62,9.62,0,0,1,16.4,0l8.892,14.5a.417.417,0,0,0,.357.2.4.4,0,0,0,.118-.017l23.03-6.762C519.937,370.824,495.641,345.649,471.7,320.139Z"/>
      </g>
      <g id="Group_8776" data-name="Group 8776">
        <g id="Group_8775" data-name="Group 8775">
          <path id="Path_31451" data-name="Path 31451" d="M662.784,528.337a55.32,55.32,0,0,1-51.15-57.849q-21.547-24.138-43.421-47.983l-6.541-.1a.337.337,0,0,0-.329.244l-10.556,36.861a.336.336,0,0,0,.15.381l11.7,7.066a7.73,7.73,0,0,1,.088,13.179l-11.6,7.222a.337.337,0,0,0-.145.383l11.048,36.716a.339.339,0,0,0,.332.24l13.663-.38a7.674,7.674,0,0,1,3.383.664,7.814,7.814,0,0,1,4.1,4.414,7.641,7.641,0,0,1-.281,5.961l-5.858,12.349a.336.336,0,0,0,.086.4l29.144,24.915a.337.337,0,0,0,.41.023l11.287-7.707a7.73,7.73,0,0,1,12.024,5.4l1.749,13.555a.336.336,0,0,0,.2.264.359.359,0,0,0,.092.027l37.989,5.2a.337.337,0,0,0,.356-.2L676.021,577a7.638,7.638,0,0,1,4.266-4.174,7.811,7.811,0,0,1,6.021.126,7.688,7.688,0,0,1,2.745,2.085l8.8,10.458a.339.339,0,0,0,.4.089l10.531-4.9Q685.745,554.547,662.784,528.337Z"/>
        </g>
      </g>
    </g>
    <g id="Group_8780" data-name="Group 8780">
      <path id="Path_31453" data-name="Path 31453" d="M375.351,542.976a.75.75,0,0,0-1.4-.152l-8,16.466c-.025-.021-.045-.043-.07-.064-6.112-5.054-12.321-9.779-17.97-15.381a142.98,142.98,0,0,1-16.073-19.15A162.868,162.868,0,0,1,310.2,480.881c-12.056-37.266-10.992-77.723-1.929-115.493.633-2.635-3.321-3.733-4.057-1.118-10.856,38.6-13.386,80.043-2.191,118.865a171.247,171.247,0,0,0,21.428,46.459c9.235,14.045,21.223,28.259,35.408,37.577l-12.571,8.386a.75.75,0,0,0,.313,1.367l37.133,5.12a.75.75,0,0,0,.832-.919Z"/>
      <path id="Path_31454" data-name="Path 31454" d="M804.671,270.783a171.282,171.282,0,0,0-29.349-41.908c-11.586-12.178-25.911-24.033-41.527-30.68l10.879-10.487a.75.75,0,0,0-.551-1.29l-37.452,1.566a.75.75,0,0,0-.655,1.052l15.856,35.9a.75.75,0,0,0,1.408-.1l4.943-17.626c.028.016.052.035.08.051,6.913,3.886,13.863,7.432,20.418,11.94a142.86,142.86,0,0,1,19.223,15.986,162.817,162.817,0,0,1,29.081,39.268c18.493,34.527,24.642,74.528,22.441,113.308-.154,2.706,3.932,3.083,4.191.378C827.475,348.231,822.593,306.995,804.671,270.783Z"/>
    </g>
  </g>
</svg>
