<svg width="52" height="77" viewBox="0 0 52 77" fill="none" xmlns="http://www.w3.org/2000/svg">
<path opacity="0.5" d="M11.2121 41.0498H30.6776V76.376L20.9449 68.684L11.2121 76.376V41.0498Z" fill="#232326"/>
<path d="M15.5378 36.7235H35.0032V72.0497L25.2705 64.3577L15.5378 72.0497V36.7235Z" fill="#5371EE"/>
<circle opacity="0.5" cx="25.9914" cy="26.2702" r="25.5935" fill="#232326"/>
<circle cx="25.631" cy="23.7469" r="23.0702" fill="#5371EE"/>
<circle cx="25.631" cy="23.0259" r="18.7445" fill="#C2D7FF"/>
<path d="M19.7737 32.2884V29.3037C19.7737 27.9627 20.3469 26.838 21.4932 25.9297L27.6248 20.9335C28.663 20.1117 29.1821 19.16 29.1821 18.0786V17.008C29.1821 15.4508 28.371 14.6721 26.7489 14.6721H25.1592C24.3373 14.6721 23.7425 14.856 23.3749 15.2237C23.0072 15.5913 22.8233 16.1861 22.8233 17.008V18.2084C22.8233 18.5977 22.6395 18.7923 22.2718 18.7923H20.1955C19.8278 18.7923 19.644 18.5977 19.644 18.2084V16.9431C19.644 15.3642 20.0874 14.1422 20.9741 13.2771C21.8609 12.412 23.1045 11.9794 24.705 11.9794H27.2355C28.8144 11.9794 30.0472 12.412 30.9339 13.2771C31.8207 14.1422 32.2641 15.3642 32.2641 16.9431V18.2732C32.2641 19.9603 31.6044 21.3445 30.2851 22.4259L24.0562 27.5193C23.5587 27.9303 23.31 28.4169 23.31 28.9792V30.0174H31.745C32.1343 30.0174 32.329 30.2012 32.329 30.5689V32.2884C32.329 32.6561 32.1343 32.8399 31.745 32.8399H20.3577C19.9684 32.8399 19.7737 32.6561 19.7737 32.2884Z" fill="#39393C"/>
</svg>
