<svg xmlns="http://www.w3.org/2000/svg" xmlns:xlink="http://www.w3.org/1999/xlink" width="1824.039" height="1251.319" viewBox="0 0 1824.039 1251.319">
  <defs>
    <linearGradient id="linear-gradient" x1="0.506" y1="-0.023" x2="0.498" y2="0.93" gradientUnits="objectBoundingBox">
      <stop offset="0" stop-color="#8eeedb"/>
      <stop offset="0.99" stop-color="#fafee5"/>
      <stop offset="1" stop-color="#fafee5"/>
    </linearGradient>
  </defs>
  <g id="Group_5713" data-name="Group 5713" transform="translate(-1533.088 -544.466)">
    <path id="Path_20803" data-name="Path 20803" d="M1683.672,1781.952c-256.922-208.6-117.384-410.665-70.667-543.674,57.305-163.15-152.251-406.595,70.667-516.9,261.615-129.448,569.239-188.982,994.8,18.454s634.9,290.876,673.94,596.069-177.28,446.047-177.28,446.047Z" fill="url(#linear-gradient)" style="mix-blend-mode: multiply;isolation: isolate"/>
    <g id="Group_5706" data-name="Group 5706">
      <path id="Rectangle_2065" data-name="Rectangle 2065" d="M14.329,0H1669.114a14.328,14.328,0,0,1,14.328,14.328v3.714a14.328,14.328,0,0,1-14.328,14.328H14.328A14.328,14.328,0,0,1,0,18.042V14.329A14.329,14.329,0,0,1,14.329,0Z" transform="translate(3296.447 1795.785) rotate(180)" fill="#ffeac9"/>
    </g>
    <g id="Group_5712" data-name="Group 5712">
      <g id="Group_5708" data-name="Group 5708">
        <path id="Path_20804" data-name="Path 20804" d="M2813.278,544.466H1822.951c-42.3,0-76.589,31.666-76.589,70.728v633.034c0,39.061,34.29,70.729,76.589,70.729h102.717l-13.892,188.892,184.54-188.892h716.962c42.3,0,76.591-31.668,76.591-70.729V615.194C2889.869,576.132,2855.578,544.466,2813.278,544.466Z" fill="#34c3a7"/>
        <path id="Path_20805" data-name="Path 20805" d="M2077.563,988.614H1912.7a19.747,19.747,0,0,1-19.747-19.747h0A19.747,19.747,0,0,1,1912.7,949.12h164.864a19.746,19.746,0,0,1,19.745,19.746v0A19.745,19.745,0,0,1,2077.563,988.614Z" fill="#f3ffff"/>
        <path id="Path_20806" data-name="Path 20806" d="M2738.529,988.614H2194.18a19.745,19.745,0,0,1-19.746-19.746h0a19.747,19.747,0,0,1,19.747-19.748h544.348a19.745,19.745,0,0,1,19.744,19.746v0A19.745,19.745,0,0,1,2738.529,988.614Z" fill="#f3ffff"/>
        <path id="Path_20807" data-name="Path 20807" d="M2320.23,1092.829H1912.7a19.747,19.747,0,0,1-19.747-19.747h0a19.748,19.748,0,0,1,19.747-19.747h407.53a19.748,19.748,0,0,1,19.749,19.748h0A19.747,19.747,0,0,1,2320.23,1092.829Z" fill="#f3ffff"/>
        <path id="Path_20808" data-name="Path 20808" d="M2738.529,884.4H1912.7a19.747,19.747,0,0,1-19.746-19.747h0a19.747,19.747,0,0,1,19.747-19.747h825.83a19.745,19.745,0,0,1,19.744,19.746h0A19.745,19.745,0,0,1,2738.529,884.4Z" fill="#f3ffff"/>
        <path id="Path_20809" data-name="Path 20809" d="M2738.529,1092.829H2425.113a19.747,19.747,0,0,1-19.748-19.747h0a19.748,19.748,0,0,1,19.748-19.748h313.414a19.747,19.747,0,0,1,19.746,19.747v0A19.745,19.745,0,0,1,2738.529,1092.829Z" fill="#f3ffff"/>
        <path id="Path_20810" data-name="Path 20810" d="M2738.526,1197.045H1912.7a19.748,19.748,0,0,1-19.747-19.748h0a19.747,19.747,0,0,1,19.747-19.747h825.83a19.744,19.744,0,0,1,19.744,19.746h0A19.747,19.747,0,0,1,2738.526,1197.045Z" fill="#f3ffff"/>
        <g id="Group_5707" data-name="Group 5707">
          <path id="Path_20811" data-name="Path 20811" d="M2683.957,627.921l22.965,46.533,51.352,7.462-37.158,36.221,8.771,51.145-45.93-24.148-45.93,24.148,8.771-51.145-37.16-36.221,51.353-7.462Z" fill="#fff" style="mix-blend-mode: screen;isolation: isolate"/>
          <path id="Path_20812" data-name="Path 20812" d="M1967.27,627.921l22.965,46.533,51.352,7.462-37.158,36.221,8.771,51.145-45.93-24.148-45.932,24.148,8.773-51.145-37.159-36.221,51.352-7.462Z" fill="#fcc13f"/>
          <path id="Path_20813" data-name="Path 20813" d="M1998.547,698.441a84.6,84.6,0,0,0-71.992,40.43l-5.216,30.41,45.93-24.147,45.93,24.147-8.771-51.144,16.952-16.525A83.93,83.93,0,0,0,1998.547,698.441Z" fill="#5c5c5c" style="mix-blend-mode: screen;isolation: isolate"/>
          <path id="Path_20814" data-name="Path 20814" d="M2146.441,627.921l22.965,46.533,51.352,7.462L2183.6,718.137l8.771,51.145-45.93-24.148-45.931,24.148,8.772-51.145-37.16-36.221,51.353-7.462Z" fill="#fcc13f"/>
          <path id="Path_20815" data-name="Path 20815" d="M2177.719,698.441a84.593,84.593,0,0,0-71.992,40.43l-5.216,30.41,45.93-24.147,45.93,24.147-8.771-51.144,16.951-16.525A83.918,83.918,0,0,0,2177.719,698.441Z" fill="#5c5c5c" style="mix-blend-mode: screen;isolation: isolate"/>
          <path id="Path_20816" data-name="Path 20816" d="M2325.613,627.921l22.965,46.533,51.352,7.462-37.158,36.221,8.772,51.145-45.931-24.148-45.931,24.148,8.771-51.145L2251.3,681.916l51.353-7.462Z" fill="#fcc13f"/>
          <path id="Path_20817" data-name="Path 20817" d="M2356.891,698.441a84.6,84.6,0,0,0-71.993,40.43l-5.215,30.41,45.93-24.147,45.931,24.147-8.773-51.144,16.953-16.525A83.931,83.931,0,0,0,2356.891,698.441Z" fill="#5c5c5c" style="mix-blend-mode: screen;isolation: isolate"/>
          <path id="Path_20818" data-name="Path 20818" d="M2504.785,627.921l22.965,46.533,51.352,7.462-37.159,36.221,8.772,51.145-45.93-24.148-45.931,24.148,8.771-51.145-37.158-36.221,51.352-7.462Z" fill="#fff" style="mix-blend-mode: screen;isolation: isolate"/>
        </g>
      </g>
      <g id="Group_5711" data-name="Group 5711">
        <path id="Path_20819" data-name="Path 20819" d="M3141.392,1711.251s7.163,7.089,7.325,9.688.635,30.458-2.289,33.058-11.516,4.444-8.754,7.369c2.089,2.211,18.147,1.738,28.79,1.146,3.106-.175,7-25.3,8.234-28.992,1.786-5.365,8.225-17.039,6.6-20.777-.792-1.821-6.672-5.971-12.01-9.467-5.614-3.674-10.985-11.857-10.985-11.857Z" fill="#f7a491"/>
        <path id="Path_20820" data-name="Path 20820" d="M3045.553,1728.656s6.412,18.36,6.419,18.406c.475,2.908,2.352,10.095,2.352,12.739,0,9.932-44.191-8.432-34.287-12.835.9-.4,3.709-3.581,4-6.962.453-5.208-3.722-11.741-3.722-11.741Z" fill="#f7a491"/>
        <g id="Group_5709" data-name="Group 5709">
          <path id="Path_20821" data-name="Path 20821" d="M2971.769,1381.536s-3.33,30.377-3.33,30.865c0,53.239-6.214,157.228-4.233,167.237,4.828,24.412,57.579,157.284,57.579,157.284l27.335-3.906-36.614-156.94,13.474-60.014,19.065-118.631Z" fill="#2d2861"/>
          <path id="Path_20822" data-name="Path 20822" d="M3074.789,1408.11l5.33,31.194,14.426,128.372,70.6,130.27s-10.615,16.3-22.014,18.865L3042.92,1585.148l-54.309-164.83,1.905-36.619Z" fill="#352e73"/>
        </g>
        <g id="Group_5710" data-name="Group 5710">
          <path id="Path_20823" data-name="Path 20823" d="M2961.473,1050.665a68,68,0,0,1-4.356,6.162s7.978,85.412,8.613,90.754l24.277,36.746-27.2,19.964s-27.71-44.377-27.964-46.539.89-66.118.89-66.118,2.035-33.187,2.035-34.839-4.883-12.351-5.848-16.656c-.894-3.981-1.145-16.276-1.145-16.276l2.034-2.925,9.437-2.066,6.674.763s15.412,6.231,16.015,8.2c.274.894-.516,12.744-1.429,16.879A33.162,33.162,0,0,1,2961.473,1050.665Z" fill="#f7a491"/>
          <path id="Path_20824" data-name="Path 20824" d="M2958.485,1034.608a28.857,28.857,0,0,1-3.877,6.419c-2.352,2.8-6.99,2.1-9.723-1.525a24.326,24.326,0,0,1-3.749-7.247Z" fill="#fe875e"/>
          <path id="Path_20825" data-name="Path 20825" d="M2997.164,836.273l-4.584,76.362,60.307,47.067-74.042,19.237-26.128,71.9-41.176-64.473-76.455-2.631,48.593-59.084-21.123-73.525,71.209,27.957Z" fill="#fcc13f"/>
          <path id="Path_20826" data-name="Path 20826" d="M2985.7,949.422c-38.876-22.177-84.767-20.938-121.722-.818l-28.893,35.132,76.454,2.631,41.176,64.473,26.128-71.9,33.778-8.776A123.694,123.694,0,0,0,2985.7,949.422Z" fill="#5c5c5c" style="mix-blend-mode: screen;isolation: isolate"/>
          <path id="Path_20827" data-name="Path 20827" d="M2958.549,1034.894c-.11-1.865.191-5.77.191-5.77s-3.951-7.731-3.052-8.249c3.148-1.811,9.311,6.9,9.311,6.9S2958.9,1040.937,2958.549,1034.894Z" fill="#f7a491"/>
          <path id="Path_20828" data-name="Path 20828" d="M2932.131,1039.963s-4.276-16.032-2.436-20.551c1.18-2.9,17.032-9.155,19.067-6.357,1.856,2.553-13.362,7.844-12.9,8.456.762,1.017,11.5-6.294,13.475-4.9,2.21,1.569-10.366,9.218-9.787,10.427.365.766,7.4-6.552,8.133-3.306S2932.131,1039.963,2932.131,1039.963Z" fill="#f7a491"/>
          <path id="Path_20829" data-name="Path 20829" d="M2971.3,1363.026l5.545-75.9h0c1.783-18.738,2.474-33.7.955-39.1-3.232-11.49-26.821-50.1-26.821-50.1s22.626-25.174,38.643-25.174c0,0,17.766,34.223,38.878,37.242s16.569,3.148,25.165,4.054c10.07,1.058,19.619,2.666,27.364,5.9,16.123,6.719,3.983,67.086,2.146,76.906-2.786,14.844,2.424,139.881,2.424,139.881s-46.264,10.416-117.206-24.313Z" fill="#ff9e0b"/>
          <path id="Path_20830" data-name="Path 20830" d="M3049.35,1180.868l5.011,33.819s-18.549,39.4-29.677,35.95c-9.339-2.9-3.479-38.964-3.479-38.964s4.977-18.057,3.448-27.519S3049.35,1180.868,3049.35,1180.868Z" fill="#f7a491"/>
          <path id="Path_20831" data-name="Path 20831" d="M3045.752,1191.093a74.255,74.255,0,0,1-21.608,6.5c.705-4.733,1.106-9.738.509-13.438-.7-4.367,4.5-5.4,10.315-5.248,7.6.695,14.382,1.962,14.382,1.962l.964,6.5A15.9,15.9,0,0,1,3045.752,1191.093Z" fill="#fe875e"/>
          <path id="Path_20832" data-name="Path 20832" d="M3073.444,1141.858c.789.005-7.547,37.784-20.444,44.282s-32.137,3.112-35.746-7.064c-3.992-11.255,10.571-49.8,28.713-54.693S3073.444,1141.858,3073.444,1141.858Z" fill="#f7a491"/>
          <path id="Path_20833" data-name="Path 20833" d="M3172.406,1264.492l-12.5,75.472,55.082,53.086-75.641,11.43-33.466,68.792-34.245-68.407-75.768-10.57,54.478-53.708-13.36-75.324,67.914,35.214Z" fill="#fcc13f"/>
          <path id="Path_20834" data-name="Path 20834" d="M3149.236,1375.836c-36.357-26.1-82.128-29.643-120.976-13.477l-32.393,31.935,75.768,10.57,34.245,68.408,33.466-68.792,34.508-5.214A123.645,123.645,0,0,0,3149.236,1375.836Z" fill="#5c5c5c" style="mix-blend-mode: screen;isolation: isolate"/>
          <path id="Path_20835" data-name="Path 20835" d="M3125.887,1282.359s16.523,22.38,17.539,26.321-6.228,96.888-6.61,105.09c0,0,3.05,9.917,4.766,16.212s2.48,10.966,1.621,12.2-3.526.381-4.576,2.766-4.1,2-5.053,2.48-3.764,4-4.815,3.909-2.763-.286-3.669.286-2.43,2.147-4.576,1.765a5.782,5.782,0,0,1-3.207-1.606s1.683-17.087.443-17.039-4.385,1.48-4.815,2.528-.238,3.387-.666,4.435a2.765,2.765,0,0,1-3.146,1.62c-1.287-.43-1.1-6.293-1.1-6.293s.192-4.768,1.906-7.581c5.946-9.746,7.239-8.384,8.006-9.632.382-.62-.094-24.7-.094-24.7s-2.383-68.392-2.636-72.078l-17.415-25.814Z" fill="#f8a492"/>
          <path id="Path_20836" data-name="Path 20836" d="M3132.75,1282.612l-34.83,26.2s-19.022-28.695-29.232-38.91c-12.793-12.795,5.187-53.432,12.9-49.779C3100.565,1229.107,3132.75,1282.612,3132.75,1282.612Z" fill="#ff9e0b"/>
          <path id="Path_20837" data-name="Path 20837" d="M3058.519,1107.147a42.659,42.659,0,0,1,16.622,19.6c4.836,2.45,10.688,7.748,13.5,22.02,3.453,17.55-8.826,31.077-21.842,35.146s-15.216,13.265-15.216,13.265l-1.29-9.9s2.9-8.612,7.249-12.924-2.061-10.594-2.625-15.72c-.435-3.945,2.287-11.609,1.7-18.082l-1.577-5.357s-5.161-8.216-12.786-9.234S3045.3,1099.009,3058.519,1107.147Z" fill="#2d2861"/>
          <path id="Path_20838" data-name="Path 20838" d="M3053.035,1165.215c-1.685,4.365-1,8.7,1.539,9.677s5.959-1.764,7.646-6.125,1-8.7-1.54-9.676S3054.721,1160.852,3053.035,1165.215Z" fill="#f7a491"/>
        </g>
        <path id="Path_20839" data-name="Path 20839" d="M3168.943,1703.1s-16.513,47.123-22.976,49.4c-1.715.6-9.95,2.135-11.5,5.826-.471,1.113,0,4.827,0,4.827h34.415s4.351-20.763,6.073-29.884c0,0,9.11-22.29,8.1-24.316S3168.943,1703.1,3168.943,1703.1Z" fill="#2d2861"/>
        <path id="Path_20840" data-name="Path 20840" d="M3056.84,1763.077l-5.061-16.205s-10.629,4.558-15.943,3.8-15.69-3.8-15.69-3.8c-21.212,7.077-38.589,10.513-35.429,16.205h72.123Z" fill="#2d2861"/>
      </g>
    </g>
  </g>
</svg>
