<svg width="233" height="156" viewBox="0 0 233 156" fill="none" xmlns="http://www.w3.org/2000/svg">
<path d="M60.6163 156C94.0938 156 121.233 128.839 121.233 95.3338C121.233 61.8287 94.0938 34.6675 60.6163 34.6675C27.1388 34.6675 0 61.8287 0 95.3338C0 128.839 27.1388 156 60.6163 156Z" fill="#F1F6FF"/>
<mask id="mask0_230:2296" style="mask-type:alpha" maskUnits="userSpaceOnUse" x="0" y="0" width="144" height="156">
<path d="M60.6163 156C94.0937 156 143.848 128.839 143.848 95.3337C143.848 61.8286 89.4966 0 56.0191 0C22.5417 0 0 61.8286 0 95.3337C0 128.839 27.1388 156 60.6163 156Z" fill="#F1F6FF"/>
</mask>
<g mask="url(#mask0_230:2296)">
<path d="M12.8234 161.833V150.113C11.6592 150.005 10.5226 149.74 9.44291 149.327C8.03387 150.263 6.09444 150.596 4.38961 150.488C-13.9527 141.639 -34.4704 125.855 -26.5815 102.838C-18.2395 78.4989 12.5932 64.8956 36.1374 62.1321V54.7471C27.4238 44.727 19.1197 14.1138 40.2261 11.6536C51.0263 -0.256527 90.6323 12.3638 78.0559 30.291C78.767 40.7224 77.3375 57.5938 68.6414 64.2204C75.5219 65.9092 82.6021 66.1367 86.8409 72.5387C90.9718 78.7789 91.1671 88.2347 94.4514 95.1865C95.9421 91.898 97.1937 88.9842 101.314 88.4782C104.302 82.0922 107.354 81.1166 113.761 80.3612C115.459 80.1614 120.821 82.0266 121.23 82.0353C127.512 82.1607 132.417 77.7158 137.951 83.2209C149.652 94.8598 130.845 102.958 121.531 103.04C116.304 120.238 99.2701 140.692 80.4325 125.654V161.835H12.8234V161.833ZM-0.286302 113.296C0.216406 114.337 2.56092 117.885 12.8234 123.385V102.952C3.50659 107.314 0.468488 111.881 -0.286302 113.296Z" fill="white"/>
<path d="M111.908 90.6678C102.582 109.334 93.2566 146.667 74.6055 81.3345" stroke="#FFC984" stroke-width="6.26877" stroke-miterlimit="10" stroke-linecap="round"/>
<path d="M95.2201 124.842C94.8238 124.842 94.4201 124.825 94.0092 124.788C83.1085 123.837 75.7034 117.421 66.6896 81.3329C64.2184 71.4425 80.0529 67.4788 82.5227 77.3721C88.4838 101.235 92.7852 103.203 95.0744 106.81C97.0619 103.682 99.5099 98.1766 100.993 94.8443C102.166 92.2047 117.054 98.8984 115.902 101.487C110.789 112.976 105.51 124.842 95.2201 124.842Z" fill="#34C3A7"/>
<path d="M18.6514 72.001C37.3011 65.7783 55.9522 65.7783 74.6049 72.001V156.001H18.6514V72.001Z" fill="#34C3A7"/>
<path d="M9.3252 137.242C46.6275 137.242 46.6275 135.534 83.9299 135.534" stroke="white" stroke-width="0.783597" stroke-miterlimit="10"/>
<path d="M9.3252 149.123C46.6275 149.123 46.6275 143.59 83.9299 143.59" stroke="white" stroke-width="0.783597" stroke-miterlimit="10"/>
<path d="M9.3252 124.8C46.6275 124.8 46.6275 128.229 83.9299 128.229" stroke="white" stroke-width="0.783597" stroke-miterlimit="10"/>
<path d="M9.3252 115.852C46.6275 115.852 46.6275 119.683 83.9299 119.683" stroke="white" stroke-width="0.783597" stroke-miterlimit="10"/>
<path d="M9.3252 106.397C46.6275 106.397 46.6275 111.138 83.9299 111.138" stroke="white" stroke-width="0.783597" stroke-miterlimit="10"/>
<path d="M9.3252 99.6975C46.6275 99.6975 46.6275 97.2402 83.9299 97.2402" stroke="white" stroke-width="0.783597" stroke-miterlimit="10"/>
<path d="M9.3252 90.9253C46.6275 90.9253 46.6275 92.5353 83.9299 92.5353" stroke="white" stroke-width="0.783597" stroke-miterlimit="10"/>
<path d="M9.3252 84.8374C46.6275 84.8374 46.6275 79.1484 83.9299 79.1484" stroke="white" stroke-width="0.783597" stroke-miterlimit="10"/>
<path d="M46.6287 76.6673C53.0666 76.6673 58.2856 74.5779 58.2856 72.0006C58.2856 69.4233 53.0666 67.334 46.6287 67.334C40.1907 67.334 34.9717 69.4233 34.9717 72.0006C34.9717 74.5779 40.1907 76.6673 46.6287 76.6673Z" fill="#11192B"/>
<path d="M41.9668 70.8351V48.6686C41.9668 46.0917 44.0547 44.002 46.6291 44.002C49.2036 44.002 51.2915 46.0917 51.2915 48.6686V70.8351C51.2915 73.412 41.9668 73.412 41.9668 70.8351Z" fill="#FFC984"/>
<path d="M9.32537 137.334C-9.3258 128.001 -37.3025 109.334 18.651 81.3345" stroke="#FFE5B1" stroke-width="6.26877" stroke-miterlimit="10" stroke-linecap="round"/>
<path d="M27.9669 144.335C27.0489 144.335 26.1498 144.155 25.2945 143.8L24.9273 143.648C23.0972 142.887 22.0888 142.468 20.9814 142.468C19.874 142.468 18.8657 142.888 17.0355 143.648L16.6698 143.8C15.813 144.155 14.914 144.335 13.996 144.335C11.156 144.335 8.6192 142.637 7.53073 140.011C6.81528 138.284 6.81528 136.381 7.53073 134.654C8.24617 132.926 9.58964 131.582 11.3163 130.866C15.4385 129.157 18.2391 128.459 20.9814 128.459C23.7237 128.459 26.5243 129.157 30.6451 130.866C32.6821 131.71 33.4835 133.31 33.7968 134.504C34.234 136.168 34.046 138.125 33.265 140.012C32.0133 143.043 30.4279 144.335 27.9669 144.335Z" fill="#FFE5B1"/>
<path d="M5.67604 144.638C-6.44722 138.572 -22.5645 128.689 -22.5645 112.977C-22.5645 99.4185 -9.32504 82.3546 18.6517 72.0005C22.8803 70.4357 25.0456 73.262 25.9504 77.6807C26.8539 82.0994 26.6397 92.0846 22.3018 93.3037C-0.873729 99.8239 -6.24468 110.617 -6.24468 112.975C-6.24468 116.367 -2.91078 122.079 12.9762 130.029C17.0052 132.047 6.84902 145.226 5.67604 144.638Z" fill="#34C3A7"/>
<path d="M46.6289 67.3351V55.6685" stroke="#FFC984" stroke-width="6.26877" stroke-miterlimit="10" stroke-linecap="round"/>
<path d="M72.2076 32.9199C70.87 46.4604 61.0184 57.5787 52.503 57.5787C43.9875 57.5787 34.3151 46.4386 32.7983 32.9199C31.2829 19.407 41.1345 15.6533 43.409 18.1252C48.9665 6.88587 73.7245 17.571 72.2076 32.9199Z" fill="#1F3A93"/>
<path d="M71.108 47.5043V38.171C71.108 29.7944 64.3236 23.0044 55.9539 23.0044C47.5842 23.0044 40.7998 29.7944 40.7998 38.171V47.5043C40.7998 55.8809 47.5842 62.6708 55.9539 62.6708C64.3236 62.6708 71.108 55.8809 71.108 47.5043Z" fill="#FFE5B1"/>
<path d="M51.2914 37.002C51.2914 40.868 48.1603 44.0019 44.2979 44.0019V37.002H51.2914Z" fill="#1F3A93"/>
<path d="M44.2979 30.0015L51.2914 37.0014H44.2979V30.0015Z" fill="#11192B"/>
<path d="M51.2911 34.6687L40.7998 25.3354V37.0021H51.2911V34.6687Z" fill="#1F3A93"/>
<path d="M41.9661 34.6685C44.5405 34.6685 46.6284 36.7582 46.6284 39.3351V48.6684C41.478 48.6684 37.3037 44.4903 37.3037 39.3351C37.3037 36.7568 39.3901 34.6685 41.9661 34.6685Z" fill="#FFE5B1"/>
<path d="M41.9668 23.0019C41.9668 17.8467 44.7324 12.502 52.4581 12.502C60.1837 12.502 74.6063 17.8467 74.6063 23.0019C74.6063 28.1571 68.3436 32.3352 60.618 32.3352C52.8923 32.3352 41.9668 28.1556 41.9668 23.0019Z" fill="#1F3A93"/>
<path d="M130.556 90.6685C124.585 93.1432 117.878 93.1432 111.906 90.6685" stroke="#FFC984" stroke-width="6.26877" stroke-miterlimit="10" stroke-linecap="round"/>
</g>
<path d="M46.6289 67.3341V55.6675" stroke="#FFC984" stroke-width="6.26877" stroke-miterlimit="10" stroke-linecap="round"/>
<path d="M72.2076 32.9189C70.87 46.4595 61.0184 57.5777 52.503 57.5777C43.9875 57.5777 34.3151 46.4376 32.7983 32.9189C31.2829 19.4061 41.1345 15.6523 43.409 18.1242C48.9665 6.88489 73.7245 17.57 72.2076 32.9189Z" fill="#11192B"/>
<path d="M71.108 47.5033V38.17C71.108 29.7934 64.3236 23.0034 55.9539 23.0034C47.5842 23.0034 40.7998 29.7934 40.7998 38.17V47.5033C40.7998 55.8799 47.5842 62.6699 55.9539 62.6699C64.3236 62.6699 71.108 55.8799 71.108 47.5033Z" fill="#FFE5B1"/>
<path d="M51.2914 37.001C51.2914 40.867 48.1603 44.0009 44.2979 44.0009V37.001H51.2914Z" fill="#11192B"/>
<path d="M44.2979 30.0005L51.2914 37.0005H44.2979V30.0005Z" fill="#11192B"/>
<path d="M51.2911 34.6678L40.7998 25.3345V37.0011H51.2911V34.6678Z" fill="#11192B"/>
<path d="M41.9661 34.6675C44.5405 34.6675 46.6284 36.7573 46.6284 39.3341V48.6674C41.478 48.6674 37.3037 44.4893 37.3037 39.3341C37.3037 36.7558 39.3901 34.6675 41.9661 34.6675Z" fill="#FFE5B1"/>
<path d="M41.9668 23.0009C41.9668 17.8457 44.7324 12.501 52.4581 12.501C60.1837 12.501 74.6063 17.8457 74.6063 23.0009C74.6063 28.1561 68.3436 32.3342 60.618 32.3342C52.8923 32.3342 41.9668 28.1546 41.9668 23.0009Z" fill="#11192B"/>
<path d="M130.556 90.6675C124.585 93.1423 117.878 93.1423 111.906 90.6675" stroke="#FFC984" stroke-width="6.26877" stroke-miterlimit="10" stroke-linecap="round"/>
<path d="M109.575 25.3345H132.889C136.752 25.3345 139.883 28.4684 139.883 32.3344V55.6676C139.883 59.5337 136.752 62.6676 132.889 62.6676H109.575C105.712 62.6676 102.581 59.5337 102.581 55.6676V32.3344C102.581 28.4684 105.712 25.3345 109.575 25.3345Z" fill="url(#paint0_linear_230:2296)"/>
<path d="M186.372 118.678C212.124 118.678 233 97.7843 233 72.0111C233 46.238 212.124 25.3447 186.372 25.3447C160.62 25.3447 139.744 46.238 139.744 72.0111C139.744 97.7843 160.62 118.678 186.372 118.678Z" fill="#F1F6FF"/>
<mask id="mask1_230:2296" style="mask-type:alpha" maskUnits="userSpaceOnUse" x="139" y="1" width="94" height="118">
<path d="M186.372 118.678C212.124 118.678 233 97.7844 233 72.0113C233 46.2381 217.507 1.49854 191.755 1.49854C166.004 1.49854 139.744 46.2381 139.744 72.0113C139.744 97.7844 160.62 118.678 186.372 118.678Z" fill="#F1F6FF"/>
</mask>
<g mask="url(#mask1_230:2296)">
<path d="M233.001 140.843C233.001 127.38 233.001 113.915 233.001 100.452C233.001 84.83 235.93 68.9635 217.757 62.3412C222.74 53.8261 218.36 35.5664 215.882 26.3935C212.488 13.8388 199.973 7.05026 187.581 7.96463C173.984 8.96796 166.003 16.8283 165.018 30.331C164.286 40.357 157.846 57.7942 167.094 65.5495C154.871 73.5382 158.398 91.1767 158.398 103.736C158.398 116.105 158.398 128.473 158.398 140.843H233.001V140.843Z" fill="white"/>
<path d="M219.014 149.01C214.507 149.01 210.854 145.354 210.854 140.843V75.5104C210.854 70.9998 210.054 65.9861 214.351 67.3438C218.966 68.8021 227.174 72.5558 227.174 80.1771V140.843C227.174 145.354 223.521 149.01 219.014 149.01Z" fill="#34C3A7"/>
<path d="M172.384 149.01C176.891 149.01 180.544 145.354 180.544 140.843V75.5104C180.544 70.9998 181.344 65.9861 177.047 67.3438C172.433 68.8021 164.225 72.5558 164.225 80.1771V140.843C164.225 145.354 167.878 149.01 172.384 149.01Z" fill="#34C3A7"/>
<path d="M177.047 67.3437C186.371 64.2331 205.022 64.2331 214.349 67.3437C214.349 67.3437 219.012 90.6769 219.012 128.01C219.012 134.233 172.384 134.233 172.384 128.01C172.384 90.6769 177.047 67.3437 177.047 67.3437Z" fill="#34C3A7"/>
<path d="M191.034 13.6772C180.734 13.6772 171.217 22.0349 171.217 32.3438C171.217 39.3438 165.24 55.2541 170.052 60.3437C177.262 67.9707 204.807 67.9707 212.017 60.3437C216.828 55.2541 210.851 39.3438 210.851 32.3438C210.851 22.0349 201.335 13.6772 191.034 13.6772Z" fill="#11192B"/>
<path d="M198.03 80.1767C206.4 80.1767 213.184 75.9986 213.184 70.8434C213.184 69.2991 212.565 67.8451 211.487 66.5618C204.328 64.9008 193.922 64.5712 185.503 65.592C183.846 67.0882 182.876 68.8951 182.876 70.842C182.876 75.9986 189.66 80.1767 198.03 80.1767Z" fill="#FFE5B1"/>
<path d="M198.029 76.6767C204.467 76.6767 209.686 73.5428 209.686 69.6768C209.686 68.2666 208.985 66.957 207.792 65.8589C202.1 64.9941 195.228 64.7987 188.985 65.2639C187.353 66.4684 186.372 68.0026 186.372 69.6768C186.372 73.5428 191.591 76.6767 198.029 76.6767Z" fill="#FFE5B1"/>
<path d="M191.036 66.1775V51.0109C191.036 48.434 193.124 46.3442 195.698 46.3442C198.273 46.3442 200.361 48.434 200.361 51.0109V66.1775C200.361 68.7543 191.036 68.7543 191.036 66.1775Z" fill="#FFC984"/>
<path d="M174.715 44.8227V36.207C174.715 28.4749 180.978 22.207 188.703 22.207C196.429 22.207 202.692 28.4749 202.692 36.207V44.8227C202.692 52.5548 196.429 58.8227 188.703 58.8227C180.978 58.8227 174.715 52.5548 174.715 44.8227Z" fill="#FFE5B1"/>
<path d="M182.891 20.6777C182.891 32.3429 199.21 28.5542 199.21 35.8429V20.6777H182.891Z" fill="#11192B"/>
<path d="M207.355 25.3452H199.196V37.0104H207.355V25.3452Z" fill="#11192B"/>
<path d="M207.353 41.6772H200.359V55.6772H207.353V41.6772Z" fill="#11192B"/>
<path d="M201.527 32.3442C199.597 32.3442 198.03 33.9119 198.03 35.8442V46.3442C201.893 46.3442 205.024 43.2102 205.024 39.3442V35.8442C205.024 33.9119 203.459 32.3442 201.527 32.3442Z" fill="#FFE5B1"/>
</g>
<path d="M191.034 13.6763C180.734 13.6763 171.217 22.0339 171.217 32.3428C171.217 39.3428 165.24 55.2531 170.052 60.3427C177.262 67.9697 204.807 67.9697 212.017 60.3427C216.828 55.2531 210.851 39.3428 210.851 32.3428C210.851 22.0339 201.335 13.6763 191.034 13.6763Z" fill="#11192B"/>
<path d="M198.029 80.1762C206.399 80.1762 213.183 75.9981 213.183 70.8429C213.183 69.2986 212.564 67.8446 211.486 66.5613C204.327 64.9003 193.921 64.5707 185.502 65.5915C183.845 67.0878 182.875 68.8946 182.875 70.8415C182.875 75.9981 189.659 80.1762 198.029 80.1762Z" fill="#FFE5B1"/>
<path d="M198.028 76.6762C204.466 76.6762 209.685 73.5423 209.685 69.6763C209.685 68.2661 208.984 66.9565 207.791 65.8584C202.099 64.9936 195.227 64.7982 188.984 65.2634C187.352 66.468 186.371 68.0021 186.371 69.6763C186.371 73.5423 191.591 76.6762 198.028 76.6762Z" fill="#FFE5B1"/>
<path d="M191.035 66.176V51.0094C191.035 48.4326 193.123 46.3428 195.697 46.3428C198.272 46.3428 200.36 48.4326 200.36 51.0094V66.176C200.36 68.7529 191.035 68.7529 191.035 66.176Z" fill="#FFC984"/>
<path d="M174.714 44.8223V36.2065C174.714 28.4744 180.977 22.2065 188.702 22.2065C196.428 22.2065 202.691 28.4744 202.691 36.2065V44.8223C202.691 52.5543 196.428 58.8222 188.702 58.8222C180.977 58.8222 174.714 52.5543 174.714 44.8223Z" fill="#FFE5B1"/>
<path d="M182.89 20.6768C182.89 32.3419 199.209 28.5532 199.209 35.8419V20.6768H182.89Z" fill="#11192B"/>
<path d="M207.354 25.3447H199.195V37.0099H207.354V25.3447Z" fill="#11192B"/>
<path d="M207.352 41.6763H200.358V55.6762H207.352V41.6763Z" fill="#11192B"/>
<path d="M201.526 32.3438C199.596 32.3438 198.029 33.9114 198.029 35.8437V46.3437C201.892 46.3437 205.023 43.2097 205.023 39.3437V35.8437C205.023 33.9114 203.458 32.3438 201.526 32.3438Z" fill="#FFE5B1"/>
<path d="M127.998 53.5459L121.556 50.1757L115.349 53.96C114.769 54.3144 114.042 53.8215 114.155 53.1506L115.367 45.9786L109.852 41.2405C109.336 40.7972 109.581 39.9543 110.253 39.8536L117.444 38.7905L120.243 32.0764C120.505 31.4493 121.382 31.4201 121.684 32.0297L124.916 38.5455L132.161 39.1347C132.838 39.1901 133.136 40.0155 132.65 40.4924L127.457 45.5819L129.136 52.6592C129.292 53.3213 128.6 53.8609 127.998 53.5459Z" fill="white"/>
<path d="M121.229 16.0011V11.3345" stroke="url(#paint1_linear_230:2296)" stroke-miterlimit="10" stroke-linecap="round"/>
<path d="M107.241 19.7517L106.075 17.7305" stroke="url(#paint2_linear_230:2296)" stroke-miterlimit="10" stroke-linecap="round"/>
<path d="M97.0002 30.0008L92.9629 27.6675" stroke="url(#paint3_linear_230:2296)" stroke-miterlimit="10" stroke-linecap="round"/>
<path d="M93.253 44.0005H90.9219" stroke="url(#paint4_linear_230:2296)" stroke-miterlimit="10" stroke-linecap="round"/>
<path d="M97.0002 58.001L92.9629 60.3343" stroke="url(#paint5_linear_230:2296)" stroke-miterlimit="10" stroke-linecap="round"/>
<path d="M107.241 68.2485L106.075 70.2698" stroke="url(#paint6_linear_230:2296)" stroke-miterlimit="10" stroke-linecap="round"/>
<path d="M121.229 72.001V76.6676" stroke="url(#paint7_linear_230:2296)" stroke-miterlimit="10" stroke-linecap="round"/>
<path d="M135.218 68.2485L136.383 70.2698" stroke="url(#paint8_linear_230:2296)" stroke-miterlimit="10" stroke-linecap="round"/>
<path d="M145.459 58.001L149.498 60.3343" stroke="url(#paint9_linear_230:2296)" stroke-miterlimit="10" stroke-linecap="round"/>
<path d="M149.207 44.0005H151.538" stroke="url(#paint10_linear_230:2296)" stroke-miterlimit="10" stroke-linecap="round"/>
<path d="M145.459 30.0008L149.498 27.6675" stroke="url(#paint11_linear_230:2296)" stroke-miterlimit="10" stroke-linecap="round"/>
<path d="M135.218 19.7517L136.383 17.7305" stroke="url(#paint12_linear_230:2296)" stroke-miterlimit="10" stroke-linecap="round"/>
<defs>
<linearGradient id="paint0_linear_230:2296" x1="102.581" y1="62.6676" x2="139.914" y2="25.3653" gradientUnits="userSpaceOnUse">
<stop stop-color="#FF9E0B"/>
<stop offset="1" stop-color="#FFC773"/>
</linearGradient>
<linearGradient id="paint1_linear_230:2296" x1="121.229" y1="16.0011" x2="123.142" y2="15.5914" gradientUnits="userSpaceOnUse">
<stop stop-color="#FF9E0B"/>
<stop offset="1" stop-color="#FFC773"/>
</linearGradient>
<linearGradient id="paint2_linear_230:2296" x1="106.075" y1="19.7517" x2="107.825" y2="18.7429" gradientUnits="userSpaceOnUse">
<stop stop-color="#FF9E0B"/>
<stop offset="1" stop-color="#FFC773"/>
</linearGradient>
<linearGradient id="paint3_linear_230:2296" x1="92.9629" y1="30.0008" x2="94.9846" y2="26.5026" gradientUnits="userSpaceOnUse">
<stop stop-color="#FF9E0B"/>
<stop offset="1" stop-color="#FFC773"/>
</linearGradient>
<linearGradient id="paint4_linear_230:2296" x1="90.9219" y1="45.0005" x2="91.6465" y2="43.3113" gradientUnits="userSpaceOnUse">
<stop stop-color="#FF9E0B"/>
<stop offset="1" stop-color="#FFC773"/>
</linearGradient>
<linearGradient id="paint5_linear_230:2296" x1="92.9629" y1="60.3343" x2="94.9846" y2="56.8361" gradientUnits="userSpaceOnUse">
<stop stop-color="#FF9E0B"/>
<stop offset="1" stop-color="#FFC773"/>
</linearGradient>
<linearGradient id="paint6_linear_230:2296" x1="106.075" y1="70.2698" x2="107.825" y2="69.2609" gradientUnits="userSpaceOnUse">
<stop stop-color="#FF9E0B"/>
<stop offset="1" stop-color="#FFC773"/>
</linearGradient>
<linearGradient id="paint7_linear_230:2296" x1="121.229" y1="76.6676" x2="123.142" y2="76.2579" gradientUnits="userSpaceOnUse">
<stop stop-color="#FF9E0B"/>
<stop offset="1" stop-color="#FFC773"/>
</linearGradient>
<linearGradient id="paint8_linear_230:2296" x1="135.218" y1="70.2698" x2="136.967" y2="69.2609" gradientUnits="userSpaceOnUse">
<stop stop-color="#FF9E0B"/>
<stop offset="1" stop-color="#FFC773"/>
</linearGradient>
<linearGradient id="paint9_linear_230:2296" x1="145.459" y1="60.3343" x2="147.48" y2="56.8355" gradientUnits="userSpaceOnUse">
<stop stop-color="#FF9E0B"/>
<stop offset="1" stop-color="#FFC773"/>
</linearGradient>
<linearGradient id="paint10_linear_230:2296" x1="149.207" y1="45.0005" x2="149.932" y2="43.3113" gradientUnits="userSpaceOnUse">
<stop stop-color="#FF9E0B"/>
<stop offset="1" stop-color="#FFC773"/>
</linearGradient>
<linearGradient id="paint11_linear_230:2296" x1="145.459" y1="30.0008" x2="147.48" y2="26.502" gradientUnits="userSpaceOnUse">
<stop stop-color="#FF9E0B"/>
<stop offset="1" stop-color="#FFC773"/>
</linearGradient>
<linearGradient id="paint12_linear_230:2296" x1="135.218" y1="19.7517" x2="136.967" y2="18.7429" gradientUnits="userSpaceOnUse">
<stop stop-color="#FF9E0B"/>
<stop offset="1" stop-color="#FFC773"/>
</linearGradient>
</defs>
</svg>
