<svg width="357" height="362" viewBox="0 0 357 362" fill="none" xmlns="http://www.w3.org/2000/svg">
<path opacity="0.89" d="M234.501 55.8574L276.896 69.484L298.201 282.517L148.956 361.702L46.9395 212.164L234.501 55.8574Z" fill="url(#paint0_linear_1319_2042)"/>
<path opacity="0.5" d="M239.333 55.6641L268.767 67.8685L234.501 271.031L176.877 266.724L128.061 237.29L239.333 55.6641Z" fill="url(#paint1_linear_1319_2042)"/>
<path d="M188.292 237.454C183.513 235.489 177.1 235.494 172.329 237.465L118.395 259.746C115.856 260.795 114.011 262.312 113.165 264.047L109.317 271.941C107.971 274.703 109.313 277.669 112.827 279.698L170.59 313.047C175.955 316.144 184.653 316.144 190.018 313.047L247.853 279.656C251.328 277.649 252.682 274.724 251.404 271.984L247.732 264.113C246.903 262.337 245.031 260.783 242.436 259.716L188.292 237.454Z" fill="#49687A"/>
<g opacity="0.6">
<rect opacity="0.2" width="36.481" height="7.8615" transform="matrix(-0.866025 0.5 0.866025 0.5 86.1816 131.816)" fill="#62808F"/>
<rect opacity="0.3" width="36.481" height="7.8615" transform="matrix(-0.866025 0.5 0.866025 0.5 92.8789 143.42)" fill="#62808F"/>
<rect opacity="0.4" width="36.481" height="7.8615" transform="matrix(-0.866025 0.5 0.866025 0.5 99.4316 155.213)" fill="#62808F"/>
<rect opacity="0.4" width="36.481" height="7.8615" transform="matrix(-0.866025 0.5 0.866025 0.5 105.982 167.005)" fill="#62808F"/>
<rect opacity="0.5" width="36.481" height="7.8615" transform="matrix(-0.866025 0.5 0.866025 0.5 112.535 178.797)" fill="#62808F"/>
<rect opacity="0.6" width="36.481" height="7.8615" transform="matrix(-0.866025 0.5 0.866025 0.5 119.084 190.589)" fill="#62808F"/>
<rect opacity="0.7" width="36.481" height="7.8615" transform="matrix(-0.866025 0.5 0.866025 0.5 125.635 202.382)" fill="#62808F"/>
<rect opacity="0.8" width="36.481" height="7.8615" transform="matrix(-0.866025 0.5 0.866025 0.5 132.188 214.174)" fill="#62808F"/>
<rect opacity="0.9" width="36.481" height="7.8615" transform="matrix(-0.866025 0.5 0.866025 0.5 138.738 225.966)" fill="#62808F"/>
<rect width="36.481" height="7.8615" transform="matrix(-0.866025 0.5 0.866025 0.5 145.289 237.759)" fill="#62808F"/>
</g>
<g opacity="0.6">
<rect width="36.481" height="7.8615" transform="matrix(0.866025 0.5 -0.866025 0.5 122.516 285.402)" fill="#62808F"/>
<rect opacity="0.7" width="36.481" height="7.8615" transform="matrix(0.866025 0.5 -0.866025 0.5 115.818 297.006)" fill="#62808F"/>
<rect opacity="0.4" width="36.481" height="7.8615" transform="matrix(0.866025 0.5 -0.866025 0.5 109.266 308.799)" fill="#62808F"/>
<rect opacity="0.1" width="36.481" height="7.8615" transform="matrix(0.866025 0.5 -0.866025 0.5 102.715 320.591)" fill="#62808F"/>
</g>
<rect width="84.4851" height="84.4851" rx="11.2167" transform="matrix(-0.866025 0.5 0.866025 0.5 180.303 222.906)" fill="#627F8E"/>
<rect width="193.527" height="148.24" transform="matrix(-1 0 0 1 273.258 150.031)" fill="url(#paint2_radial_1319_2042)"/>
<ellipse opacity="0.4" rx="13.8801" ry="6.72024" transform="matrix(-1 0 0 1 179.784 260.814)" fill="black"/>
<g opacity="0.2" filter="url(#filter0_f_1319_2042)">
<circle cx="193.183" cy="211.608" r="54.4307" fill="#FFD979"/>
</g>
<path d="M226.882 168.325L172.944 222L148.511 221.623L149.676 215.051C149.772 214.509 150.041 214.012 150.442 213.636L204.612 162.864C205.278 162.24 206.227 162.019 207.099 162.286L226.882 168.325Z" fill="#FFD979"/>
<mask id="mask0_1319_2042" style="mask-type:alpha" maskUnits="userSpaceOnUse" x="146" y="164" width="80" height="59">
<path d="M225.693 169.779L170.586 222.552L146.154 222.175L147.864 215.652C147.99 215.172 148.253 214.739 148.621 214.406L203.49 164.865C204.137 164.281 205.038 164.067 205.878 164.3L225.693 169.779Z" fill="#FFD979"/>
</mask>
<g mask="url(#mask0_1319_2042)">
<rect opacity="0.9" x="139.096" y="202.613" width="70.0983" height="10.5147" transform="rotate(-13.1527 139.096 202.613)" fill="white"/>
<rect opacity="0.9" x="154.564" y="191.799" width="70.0983" height="3.50492" transform="rotate(-13.1527 154.564 191.799)" fill="white"/>
</g>
<path d="M149.574 215.505L146.28 232.383C145.995 233.847 147.663 236.044 149.42 236.518L180.82 244.998C184.224 245.917 185.624 243.003 183.518 239.383L173.355 221.911C172.734 220.844 171.663 219.965 170.662 219.702L151.37 214.623C150.429 214.375 149.727 214.719 149.574 215.505Z" fill="#B17518"/>
<path d="M181.443 243.519L172.719 221.669C172.331 220.698 172.576 219.588 173.337 218.87L226.973 168.252L238.352 185.336C240.069 187.914 239.711 191.349 237.499 193.517L185.594 244.394C184.295 245.668 182.117 245.209 181.443 243.519Z" fill="#EFAF4E"/>
<circle r="1.71153" transform="matrix(-0.96783 -0.251604 -0.251604 0.96783 281.696 57.6394)" fill="#627F8E"/>
<path d="M240.14 35.3906C225.046 39.5558 223.069 47.1622 234.223 58.1507C245.376 69.1391 266.654 74.6705 281.747 70.5054C296.84 66.3402 298.817 58.7338 287.664 47.7453C276.51 36.7569 255.233 31.2255 240.14 35.3906Z" fill="#A9C6D6"/>
<circle r="1.71419" transform="matrix(-0.96783 -0.251604 -0.251604 0.96783 241.63 55.4626)" fill="#627F8E"/>
<circle r="1.71419" transform="matrix(-0.96783 -0.251604 -0.251604 0.96783 234.484 44.4157)" fill="#627F8E"/>
<circle r="1.71419" transform="matrix(-0.96783 -0.251604 -0.251604 0.96783 278.849 63.2292)" fill="#627F8E"/>
<circle r="1.71419" transform="matrix(-0.96783 -0.251604 -0.251604 0.96783 289.16 55.0114)" fill="#627F8E"/>
<circle r="1.71419" transform="matrix(-0.96783 -0.251604 -0.251604 0.96783 261.765 63.966)" fill="#627F8E"/>
<g opacity="0.8">
<mask id="path-35-inside-1_1319_2042" fill="white">
<path d="M246.384 38.2857C244.719 44.6886 251.832 49.9151 261.62 52.4596C271.408 55.0042 280.439 52.8512 281.83 47.5004C283.494 41.0975 277.516 31.5066 267.728 28.962C257.94 26.4174 248.048 31.8828 246.384 38.2857Z"/>
</mask>
<path d="M246.384 38.2857C244.719 44.6886 251.832 49.9151 261.62 52.4596C271.408 55.0042 280.439 52.8512 281.83 47.5004C283.494 41.0975 277.516 31.5066 267.728 28.962C257.94 26.4174 248.048 31.8828 246.384 38.2857Z" fill="#627F8E"/>
<path d="M247.573 38.5948C246.897 41.1925 247.934 43.654 250.512 45.8919C253.111 48.1476 257.137 50.0251 261.929 51.2708L261.311 53.6485C256.314 52.3496 251.89 50.3415 248.902 47.7471C245.893 45.1349 244.206 41.7818 245.195 37.9766L247.573 38.5948ZM261.929 51.2708C266.668 52.5029 271.163 52.5791 274.583 51.7472C278.053 50.9033 280.112 49.2237 280.641 47.1913L283.018 47.8095C282.156 51.1279 279.004 53.2002 275.164 54.1344C271.274 55.0806 266.359 54.961 261.311 53.6485L261.929 51.2708ZM280.641 47.1913C281.351 44.4583 280.454 40.8323 278.074 37.498C275.716 34.1947 272.01 31.3442 267.419 30.1508L268.037 27.7731C273.235 29.1243 277.412 32.3416 280.073 36.0707C282.713 39.7688 283.972 44.1396 283.018 47.8095L280.641 47.1913ZM267.419 30.1508C262.829 28.9574 258.204 29.6421 254.535 31.3788C250.833 33.1318 248.283 35.8617 247.573 38.5948L245.195 37.9766C246.149 34.3068 249.378 31.1026 253.484 29.1583C257.625 27.1978 262.84 26.4219 268.037 27.7731L267.419 30.1508Z" fill="#1B262C" mask="url(#path-35-inside-1_1319_2042)"/>
</g>
<path opacity="0.4" d="M229.588 51.1473C230.663 53.5528 233.877 56.7269 235.905 58.742C236.237 56.9482 237.37 55.4042 238.982 54.5494L251.225 48.0562C247.657 45.4278 246.928 43.325 246.928 43.325C242.83 44.3747 235.785 46.6764 232.189 47.5718C229.265 48.2998 229.358 50.3966 229.588 51.1473Z" fill="white"/>
<path opacity="0.4" d="M252.863 49.1194L256.292 50.6487C256.292 50.6487 246.519 60.4383 245.36 61.6251C244.201 62.812 244.532 64.8112 244.532 64.8112C241.804 63.0391 239.968 61.924 239.968 61.924C239.968 61.924 239.734 59.7373 240.848 58.5387C243.274 55.9276 250.922 51.0623 252.863 49.1194Z" fill="white"/>
<path opacity="0.4" d="M356.252 143.961H325.979C328.573 126.918 341.115 131.534 342.197 138.635C346.251 132.422 353.729 139.523 356.252 143.961Z" fill="#3E3E3F"/>
<path opacity="0.4" d="M53.973 201.674H23.6992C26.2941 184.631 38.8361 189.247 39.9173 196.348C43.9719 190.135 51.4502 197.236 53.973 201.674Z" fill="#2E2E30"/>
<g opacity="0.3">
<path d="M43.4344 28.2485H2.88281L15.5431 52.7203L21.1554 43.3665L31.8188 47.6693L43.4344 28.2485Z" fill="#11444F"/>
<path d="M24.63 18.2856C22.1288 17.2827 18.7427 17.4576 16.5893 18.7008L5.15507 25.3024C2.5512 26.8057 2.7291 29.2729 5.54038 30.6461L10.2454 32.9442L23.8668 34.564C25.4788 34.7557 27.1567 34.5752 28.541 34.0612L41.7494 29.1567C44.2207 28.2391 44.2844 26.1661 41.871 25.1985L24.63 18.2856Z" fill="#266F7D"/>
<path d="M23.1973 0.792969L23.1973 4.60164" stroke="#57A2B0" stroke-width="1.04121" stroke-linecap="round"/>
<path d="M31.7637 10.5381L31.7637 14.3468" stroke="#57A2B0" stroke-width="1.04121" stroke-linecap="round"/>
<path d="M14.6289 10.5381L14.6289 14.3468" stroke="#57A2B0" stroke-width="1.04121" stroke-linecap="round"/>
<path d="M11.7305 14.6676C11.7305 13.0665 13.0284 11.7686 14.6296 11.7686C16.2307 11.7686 17.5287 13.0665 17.5287 14.6677V28.2505H11.7305V14.6676Z" fill="#57A2B0"/>
<path d="M28.8633 14.6676C28.8633 13.0665 30.1613 11.7686 31.7624 11.7686C33.3635 11.7686 34.6615 13.0665 34.6615 14.6677V28.2505H28.8633V14.6676Z" fill="#57A2B0"/>
<path d="M28.8633 14.6677C28.8633 13.0665 30.1613 11.7686 31.7624 11.7686C33.3635 11.7686 34.6615 13.0665 34.6615 14.6677V16.5893H28.8633V14.6677Z" fill="#214C55"/>
<path d="M11.7305 14.6677C11.7305 13.0665 13.0284 11.7686 14.6296 11.7686C16.2307 11.7686 17.5287 13.0665 17.5287 14.6677V16.5893H11.7305V14.6677Z" fill="#214C55"/>
<path d="M20.2969 5.09148C20.2969 3.49035 21.5948 2.19238 23.196 2.19238C24.7971 2.19238 26.0951 3.49035 26.0951 5.09148V18.6744H20.2969V5.09148Z" fill="#57A2B0"/>
<path d="M20.2969 5.09148C20.2969 3.49035 21.5948 2.19238 23.196 2.19238C24.7971 2.19238 26.0951 3.49035 26.0951 5.09148V7.01311H20.2969V5.09148Z" fill="#214C55"/>
<path d="M16.1602 18.4461C16.1602 14.7582 19.1498 11.7686 22.8377 11.7686C26.5256 11.7686 29.5152 14.7582 29.5152 18.4461V28.2505H16.1602V18.4461Z" fill="#57A2B0"/>
<path d="M21.6055 22.4714C21.6055 21.7904 22.1576 21.2383 22.8386 21.2383C23.5197 21.2383 24.0718 21.7904 24.0718 22.4714V28.249H21.6055V22.4714Z" fill="#214C55"/>
<path d="M30.1953 19.0827C30.1953 18.7275 30.4833 18.4395 30.8386 18.4395C31.1939 18.4395 31.4819 18.7275 31.4819 19.0827V20.7362H30.1953V19.0827Z" fill="#214C55"/>
<path d="M12.0723 19.0827C12.0723 18.7275 12.3603 18.4395 12.7156 18.4395C13.0708 18.4395 13.3588 18.7275 13.3588 19.0827V20.7362H12.0723V19.0827Z" fill="#214C55"/>
<path d="M21.4473 8.88499C21.4473 8.52971 21.7353 8.2417 22.0906 8.2417C22.4458 8.2417 22.7338 8.52971 22.7338 8.88499V10.5385H21.4473V8.88499Z" fill="#214C55"/>
<path d="M32.6621 19.0827C32.6621 18.7275 32.9501 18.4395 33.3054 18.4395C33.6607 18.4395 33.9487 18.7275 33.9487 19.0827V20.7362H32.6621V19.0827Z" fill="#214C55"/>
<path d="M14.2832 19.0827C14.2832 18.7275 14.5712 18.4395 14.9265 18.4395C15.2818 18.4395 15.5698 18.7275 15.5698 19.0827V20.7362H14.2832V19.0827Z" fill="#214C55"/>
<path d="M23.6602 8.88499C23.6602 8.52971 23.9482 8.2417 24.3034 8.2417C24.6587 8.2417 24.9467 8.52971 24.9467 8.88499V10.5385H23.6602V8.88499Z" fill="#214C55"/>
<path d="M16.1602 18.4461C16.1602 14.7582 19.1498 11.7686 22.8377 11.7686C26.5256 11.7686 29.5152 14.7582 29.5152 18.4461V19.13H16.1602V18.4461Z" fill="#214C55"/>
</g>
<g opacity="0.4">
<path d="M341.071 315.321H316.846L322.19 334.163L328.602 322.075L334.658 328.119L341.071 315.321Z" fill="#11444F"/>
<path d="M328.475 310.053C327.099 309.543 325.294 309.656 324.138 310.323L317.741 314.016C316.302 314.847 316.4 316.211 317.954 316.97L320.555 318.24L328.345 319.167C329.078 319.254 329.84 319.202 330.519 319.019L339.604 316.571C341.231 316.132 341.382 314.83 339.87 314.27L328.475 310.053Z" fill="#266F7D"/>
<rect x="333.328" y="294.287" width="2.04007" height="2.52551" fill="#289379"/>
<rect x="322.545" y="296.812" width="12.823" height="18.749" fill="#289379"/>
<rect x="322.545" y="294.287" width="2.04007" height="2.52551" fill="#289379"/>
<path d="M326.92 308.626C326.92 307.521 327.816 306.625 328.921 306.625C330.026 306.625 330.921 307.521 330.921 308.626V313.769H326.92V308.626Z" fill="#0C5462"/>
<circle cx="325.751" cy="301.024" r="1.59053" fill="#0C5462" stroke="#51AA94" stroke-width="0.539671"/>
<circle cx="332.093" cy="301.024" r="1.59053" fill="#0C5462" stroke="#51AA94" stroke-width="0.539671"/>
<rect x="325.982" y="294.287" width="2.04007" height="2.52551" fill="#289379"/>
<rect x="329.42" y="294.287" width="2.04007" height="2.52551" fill="#289379"/>
<rect x="322.545" y="294.287" width="0.97032" height="2.52551" fill="#289379"/>
<rect x="325.982" y="294.287" width="0.97032" height="2.52551" fill="#289379"/>
<rect x="329.42" y="294.287" width="0.97032" height="2.52551" fill="#289379"/>
<rect x="333.328" y="294.287" width="0.97032" height="2.52551" fill="#289379"/>
</g>
<defs>
<filter id="filter0_f_1319_2042" x="78.1487" y="96.5745" width="230.068" height="230.068" filterUnits="userSpaceOnUse" color-interpolation-filters="sRGB">
<feFlood flood-opacity="0" result="BackgroundImageFix"/>
<feBlend mode="normal" in="SourceGraphic" in2="BackgroundImageFix" result="shape"/>
<feGaussianBlur stdDeviation="30.3016" result="effect1_foregroundBlur_1319_2042"/>
</filter>
<linearGradient id="paint0_linear_1319_2042" x1="253.428" y1="54.343" x2="182.266" y2="261.773" gradientUnits="userSpaceOnUse">
<stop stop-color="#4FBCAB" stop-opacity="0.37"/>
<stop offset="1" stop-color="#232326" stop-opacity="0"/>
</linearGradient>
<linearGradient id="paint1_linear_1319_2042" x1="253.427" y1="54.3428" x2="182.265" y2="261.773" gradientUnits="userSpaceOnUse">
<stop stop-color="#4FBCAB" stop-opacity="0.37"/>
<stop offset="1" stop-color="#232326" stop-opacity="0"/>
</linearGradient>
<radialGradient id="paint2_radial_1319_2042" cx="0" cy="0" r="1" gradientUnits="userSpaceOnUse" gradientTransform="translate(96.7633 74.12) rotate(90) scale(74.12 96.7633)">
<stop stop-color="#486677"/>
<stop offset="1" stop-color="#232326" stop-opacity="0"/>
</radialGradient>
</defs>
</svg>
