<svg xmlns="http://www.w3.org/2000/svg" width="1417.95" height="919.588" viewBox="0 0 1417.95 919.588">
  <g id="Group_6602" data-name="Group 6602" transform="translate(-12092.08 -13203.652)">
    <path id="Path_27688" data-name="Path 27688" d="M1442.132,461.474c0,32.448-317.414,58.759-708.983,58.759-391.551,0-708.967-26.311-708.967-58.759S341.6,402.7,733.149,402.7C1124.719,402.7,1442.132,429.016,1442.132,461.474Z" transform="translate(12067.898 13603.007)" fill="#eaeaea"/>
    <g id="Group_6600" data-name="Group 6600" transform="translate(11054.994 13048.852)">
      <g id="Group_6576" data-name="Group 6576" transform="translate(1293.882 154.801)">
        <g id="Group_6555" data-name="Group 6555">
          <g id="Group_6554" data-name="Group 6554" transform="translate(45.949)">
            <path id="Path_27638" data-name="Path 27638" d="M77.21,199.4l87.723,791.074a45.323,45.323,0,0,0,45.046,40.329h349.7a45.322,45.322,0,0,0,45.075-50.052L521.844,190.777A40.163,40.163,0,0,0,481.9,154.8H117.132A40.168,40.168,0,0,0,77.21,199.4Z" transform="translate(-76.96 -154.801)"/>
            <g id="Group_6553" data-name="Group 6553" transform="translate(32.992 2.095)">
              <g id="Group_6551" data-name="Group 6551">
                <path id="Path_27639" data-name="Path 27639" d="M87.35,204.913l82.36,724.294A42.549,42.549,0,0,0,212,967.07H511.313a42.553,42.553,0,0,0,42.32-46.992L475.792,196.82a37.708,37.708,0,0,0-37.5-33.776H124.83A37.71,37.71,0,0,0,87.35,204.913Z" transform="translate(-87.116 -138.361)" fill="#fbfbfb"/>
                <path id="Path_27640" data-name="Path 27640" d="M125.078,155.446l6.527,35.245a17.272,17.272,0,0,0,16.981,14.122H261.064a15.629,15.629,0,0,0,15.369-18.475l-5.721-30.892Z" transform="translate(-1.752 -155.446)"/>
              </g>
            </g>
          </g>
        </g>
        <g id="Group_6601" data-name="Group 6601" transform="translate(-9965.346 1112.025) rotate(-3)">
          <g id="Group_6435" data-name="Group 6435" transform="translate(10200 -282.516)">
            <g id="Layer_1" data-name="Layer 1" transform="translate(0 27.124)">
              <text id="fe_o" data-name="fe  o" transform="translate(0 86)" fill="#4a4a4a" font-size="115" font-family="PastikaDEMO-Medium, Pastika DEMO" font-weight="500" letter-spacing="-0.01em"><tspan x="0" y="0" xml:space="preserve">fe  o</tspan></text>
            </g>
            <path id="Path_27444" data-name="Path 27444" d="M611.595,364.58l-.052,91.432H600V376.175Z" transform="translate(-504.385 -340.392)" fill="#36c3a8"/>
            <path id="Path_27445" data-name="Path 27445" d="M653.12,322.67V438.291H641V334.79Z" transform="translate(-521.722 -322.67)" fill="#36c3a8"/>
          </g>
        </g>
        <g id="Group_6575" data-name="Group 6575" transform="translate(137.133 43.357)">
          <g id="Group_6564" data-name="Group 6564" transform="translate(0 335.994)">
            <g id="Group_6558" data-name="Group 6558" transform="translate(349.463 0.027)">
              <g id="Group_6557" data-name="Group 6557" transform="translate(180.975 353.403)">
                <path id="Path_27643" data-name="Path 27643" d="M373.019,475.518l-31.9-95.153-72.809,8,37.085,100.026,70.33-9.961Z" transform="translate(-268.308 -380.365)" fill="#eaaa93"/>
                <g id="Group_6556" data-name="Group 6556" transform="translate(17.616 75.625)">
                  <path id="Path_27644" data-name="Path 27644" d="M283.93,413.585s50.445,17.254,70.148-9.941l92.8,52.459-173.118-1.036Z" transform="translate(-273.658 -403.644)" fill="#19213d"/>
                  <path id="Path_27645" data-name="Path 27645" d="M446.846,435.337,273.73,434.3l.1-14.827,173.116,1.037Z" transform="translate(-273.73 -368.05)" fill="#fff"/>
                  <path id="Path_27646" data-name="Path 27646" d="M300.911,423.706a2.834,2.834,0,0,0,1.176-.893,58.73,58.73,0,0,1,13.271-12.939,2.628,2.628,0,0,0,.786-3.755,2.968,2.968,0,0,0-3.937-.754,63.136,63.136,0,0,0-14.726,14.265,2.628,2.628,0,0,0,.63,3.785A2.971,2.971,0,0,0,300.911,423.706Z" transform="translate(-221.543 -400.761)" fill="#fff"/>
                  <path id="Path_27647" data-name="Path 27647" d="M305.176,425.844a2.794,2.794,0,0,0,1.176-.893,58.626,58.626,0,0,1,13.274-12.939,2.63,2.63,0,0,0,.783-3.755,2.955,2.955,0,0,0-3.937-.754,63.134,63.134,0,0,0-14.726,14.265,2.629,2.629,0,0,0,.63,3.785A2.981,2.981,0,0,0,305.176,425.844Z" transform="translate(-211.953 -395.967)" fill="#fff"/>
                  <path id="Path_27648" data-name="Path 27648" d="M309.443,427.975a2.862,2.862,0,0,0,1.176-.893,58.807,58.807,0,0,1,13.274-12.939,2.626,2.626,0,0,0,.783-3.752,2.954,2.954,0,0,0-3.937-.754A63.123,63.123,0,0,0,306.009,423.9a2.626,2.626,0,0,0,.633,3.781A2.972,2.972,0,0,0,309.443,427.975Z" transform="translate(-202.364 -391.168)" fill="#fff"/>
                </g>
              </g>
              <path id="Path_27649" data-name="Path 27649" d="M346.545,271.581l27.117,40.637c85.911,179.313,133.016,362.264,133.016,362.264l-113.966,5.669S295.434,428.342,268.88,379l-56.28-97.96Z" transform="translate(-212.6 -271.581)" fill="#221e26"/>
            </g>
            <g id="Group_6563" data-name="Group 6563">
              <g id="Group_6561" data-name="Group 6561" transform="translate(0 20.654)">
                <g id="Group_6560" data-name="Group 6560">
                  <path id="Path_27650" data-name="Path 27650" d="M132.144,346.432l95.932,46.911,41.068-69.964L168.15,289.016,137.8,315.675Z" transform="translate(-44.054 -253.003)" fill="#eaaa93"/>
                  <g id="Group_6559" data-name="Group 6559">
                    <path id="Path_27651" data-name="Path 27651" d="M244.371,314.9s-45.218,28.241-36.56,60.688l-99.263,38.873L218.613,280.836Z" transform="translate(-97.114 -271.397)" fill="#19213d"/>
                    <path id="Path_27652" data-name="Path 27652" d="M105.028,411.559,215.092,277.93l11.435,9.439L116.464,421Z" transform="translate(-105.028 -277.93)" fill="#fff"/>
                    <path id="Path_27653" data-name="Path 27653" d="M133.913,306.747a2.865,2.865,0,0,0-.049,1.475,58.827,58.827,0,0,1,1.663,18.462,2.626,2.626,0,0,0,2.417,2.979,2.962,2.962,0,0,0,3.067-2.579,63.028,63.028,0,0,0-1.771-20.428,2.627,2.627,0,0,0-3.33-1.9A2.988,2.988,0,0,0,133.913,306.747Z" transform="translate(-40.353 -217.852)" fill="#fff"/>
                    <path id="Path_27654" data-name="Path 27654" d="M129.566,308.707a2.878,2.878,0,0,0-.049,1.478,58.829,58.829,0,0,1,1.663,18.462,2.625,2.625,0,0,0,2.417,2.976,2.95,2.95,0,0,0,3.067-2.576,63.026,63.026,0,0,0-1.771-20.428,2.622,2.622,0,0,0-3.33-1.9A2.977,2.977,0,0,0,129.566,308.707Z" transform="translate(-50.128 -213.441)" fill="#fff"/>
                    <path id="Path_27655" data-name="Path 27655" d="M125.223,310.669a2.81,2.81,0,0,0-.049,1.478,58.91,58.91,0,0,1,1.657,18.459,2.626,2.626,0,0,0,2.417,2.979,2.95,2.95,0,0,0,3.067-2.579,63.1,63.1,0,0,0-1.764-20.424,2.628,2.628,0,0,0-3.333-1.9A2.966,2.966,0,0,0,125.223,310.669Z" transform="translate(-59.9 -209.029)" fill="#fff"/>
                  </g>
                </g>
                <path id="Path_27656" data-name="Path 27656" d="M191.052,290.389l163.163,76.926-35.023,105.1L146.311,382.7Z" transform="translate(-12.199 -249.916)" fill="#221e26"/>
              </g>
              <g id="Group_6562" data-name="Group 6562" transform="translate(265.478)">
                <path id="Path_27657" data-name="Path 27657" d="M279.023,271.6c-2.29-2.1-66.045,118.339-89.358,174.739-11.153,26.98,11.374,57.842,38.6,68.391h0a52.043,52.043,0,0,0,64.161-23.013l77.5-124.83Z" transform="translate(-186.748 -271.573)" fill="#221e26"/>
                <line id="Line_139" data-name="Line 139" y1="55.494" x2="25.759" transform="translate(157.421 81.307)" fill="none" stroke="#000" stroke-linecap="round" stroke-linejoin="round" stroke-width="0.548"/>
              </g>
            </g>
          </g>
          <g id="Group_6571" data-name="Group 6571" transform="translate(159.838 151.594)">
            <g id="Group_6566" data-name="Group 6566" transform="translate(0 53.368)">
              <path id="Path_27658" data-name="Path 27658" d="M390.923,231.238l-124.835,41.72L177.1,340.412" transform="translate(-102.809 -231.238)" fill="none" stroke="#eaaa93" stroke-linecap="round" stroke-linejoin="round" stroke-width="22.369"/>
              <g id="Group_6565" data-name="Group 6565" transform="translate(0 84.067)">
                <path id="Path_27659" data-name="Path 27659" d="M206.563,272.591a9.284,9.284,0,0,1,5.289,10.477,268.138,268.138,0,0,1-10.331,38.152c-1.407,5.835-6.669,9.941-12.238,9.548h0c-6.029-.429-10.243-5.955-9.431-12.364l1.686-13.274s-14.395-9.99,4.132-41.089Z" transform="translate(-104.804 -241.544)" fill="#eaaa93"/>
                <path id="Path_27660" data-name="Path 27660" d="M216.265,338.281l-55.214-35.95s3.772-26.142,25.417-44.617c2.7-2.307,19.911,2.664,22.958,4.662l36.281,32.49Z" transform="translate(-138.891 -257.116)" fill="#eaaa93"/>
                <path id="Path_27661" data-name="Path 27661" d="M205.651,287.524l-19.687,35.56c-2.969,4.993-9.022,6.839-13.605,4.145h0c-4.392-2.583-5.906-8.456-3.473-13.472l17.374-38.389Z" transform="translate(-123.878 -216.073)" fill="#eaaa93"/>
                <path id="Path_27662" data-name="Path 27662" d="M198.1,282l-25.05,33.182c-3.457,4.652-9.4,5.945-13.368,2.908h0c-3.8-2.917-4.46-8.82-1.507-13.54l23.244-36.161Z" transform="translate(-149.518 -231.767)" fill="#eaaa93"/>
                <path id="Path_27663" data-name="Path 27663" d="M192.3,279.447l-25.281,23.166c-3.983,3.359-9.119,3.479-11.539.27h0c-2.32-3.076-1.332-8.157,2.268-11.653l24.586-25.976Z" transform="translate(-154.23 -238.816)" fill="#eaaa93"/>
                <path id="Path_27664" data-name="Path 27664" d="M202.056,288.269,178.39,319.648c-3.489,4.626-9.655,5.708-13.859,2.43h0c-4.032-3.141-4.857-9.213-1.891-13.927l21.714-34.507Z" transform="translate(-139.314 -219.95)" fill="#eaaa93"/>
                <path id="Path_27665" data-name="Path 27665" d="M181.051,316.1s-1.848-10.6,1.186-19.105c0,0-12.452-11.221-2.446-29.329" transform="translate(-105.502 -233.404)" fill="none" stroke="#000" stroke-linecap="round" stroke-linejoin="round" stroke-width="0.548"/>
              </g>
            </g>
            <path id="Path_27666" data-name="Path 27666" d="M203.247,432.53l180.694,9.3L412.1,288.787a63.457,63.457,0,0,0-1.234-30.891c-6.786-21.984-16.571-28.166-42.5-38.289-48.412-18.9-96.024,20.548-116.8,74.557S203.247,432.53,203.247,432.53Z" transform="translate(-44.006 -214.811)" fill="#24aa90"/>
            <g id="Group_6570" data-name="Group 6570" transform="translate(251.064 38.241)">
              <g id="Group_6568" data-name="Group 6568" transform="translate(51.98 46.112)">
                <path id="Path_27667" data-name="Path 27667" d="M247.512,240.776l47.643,140.71,97.4,71.187" transform="translate(-247.512 -240.776)" fill="none" stroke="#eaaa93" stroke-linecap="round" stroke-linejoin="round" stroke-width="22.369"/>
                <g id="Group_6567" data-name="Group 6567" transform="translate(123.841 176.926)">
                  <path id="Path_27668" data-name="Path 27668" d="M296.13,302.143a9.288,9.288,0,0,1,9.493-6.9,268.076,268.076,0,0,1,39.315,4.077c5.984.451,10.883,4.987,11.387,10.545h0c.546,6.02-4.233,11.068-10.691,11.292l-13.371.468s-7.55,15.811-41.219,2.511Z" transform="translate(-273.468 -295.237)" fill="#eaaa93"/>
                  <path id="Path_27669" data-name="Path 27669" d="M361.674,317.589l-26.626,60.266s-26.408.474-48.116-17.929c-2.713-2.3-.565-20.08.919-23.41L314.1,295.495Z" transform="translate(-285.633 -294.658)" fill="#eaaa93"/>
                  <path id="Path_27670" data-name="Path 27670" d="M312.024,301.44l38.259,13.726c5.4,2.128,8.2,7.807,6.273,12.764h0c-1.845,4.75-7.4,7.186-12.741,5.588l-40.68-10.99Z" transform="translate(-246.275 -281.29)" fill="#eaaa93"/>
                  <path id="Path_27671" data-name="Path 27671" d="M308.515,312.573l36.768,19.4c5.149,2.664,7.381,8.33,5.016,12.731h0c-2.271,4.22-7.992,5.815-13.121,3.658l-39.426-17.14Z" transform="translate(-258.382 -256.256)" fill="#eaaa93"/>
                  <path id="Path_27672" data-name="Path 27672" d="M307.253,316.239l26.925,21.236c3.954,3.395,4.9,8.443,2.118,11.344h0c-2.667,2.787-7.839,2.625-11.867-.364l-29.582-20.1Z" transform="translate(-264.917 -248.012)" fill="#eaaa93"/>
                  <path id="Path_27673" data-name="Path 27673" d="M313.885,307.376l34.77,18.326c5.126,2.7,7.183,8.615,4.623,13.29h0c-2.456,4.483-8.317,6.27-13.446,4.1l-37.541-15.9Z" transform="translate(-248.175 -267.942)" fill="#eaaa93"/>
                </g>
              </g>
              <g id="Group_6569" data-name="Group 6569">
                <path id="Path_27674" data-name="Path 27674" d="M333.032,298.3,322.7,260.456a46.455,46.455,0,0,0-54.178-32.893h0a46.454,46.454,0,0,0-35.228,58.164l11.377,41.057Z" transform="translate(-231.512 -226.582)" fill="#1c9a81"/>
                <line id="Line_140" data-name="Line 140" x1="20.632" y1="65.897" transform="translate(79.507 5.824)" fill="none" stroke="#000" stroke-linecap="round" stroke-linejoin="round" stroke-width="0.548"/>
                <path id="Path_27675" data-name="Path 27675" d="M260.321,276.54l-17.608,5.675L232.382,246.4" transform="translate(-229.557 -182.013)" fill="none" stroke="#000" stroke-linecap="round" stroke-linejoin="round" stroke-width="0.548"/>
              </g>
            </g>
          </g>
          <g id="Group_6574" data-name="Group 6574" transform="translate(456.711)">
            <path id="Path_27676" data-name="Path 27676" d="M341.44,228.665l-38,62.577-57.824-19.853,50.168-81.636Z" transform="translate(-245.613 -119.564)" fill="#eaaa93"/>
            <path id="Path_27677" data-name="Path 27677" d="M263.213,204.893,275.8,237.537l16.8-27.308Z" transform="translate(-206.037 -85.518)"/>
            <path id="Path_27678" data-name="Path 27678" d="M321.582,175.547s15.412,2.93,21.99,35.573,6.78,66.38-12.231,74.371c-16.156,6.793-38.4,3.574-56.419-14.609l-16.916-56.569Z" transform="translate(-217.745 -151.507)" fill="#eaaa93"/>
            <path id="Path_27679" data-name="Path 27679" d="M308.1,239.952s24.332,1.959,45.088-44.234c0,0-20.717-36.742-63.833-22.25a69.5,69.5,0,0,0-22.286,14.187c-17.046,15.954-22.516,40.68-15.33,62.894,2.674,8.261,6.364,17.562,11.068,24.68l32.4-18.241Z" transform="translate(-238.772 -163.791)" fill="#0c0d10"/>
            <circle id="Ellipse_353" data-name="Ellipse 353" cx="17.714" cy="17.714" r="17.714" transform="translate(29.041 71.31) rotate(-32.681)" fill="#eaaa93"/>
            <path id="Path_27680" data-name="Path 27680" d="M285.876,192.194l13.581,17.152-15.651,1.64Z" transform="translate(-159.73 -114.073)" fill="#eaaa93"/>
            <path id="Path_27681" data-name="Path 27681" d="M260.683,189.784s9.437-1.03,11.666,8.739" transform="translate(-211.725 -119.564)" fill="none" stroke="#000" stroke-linecap="round" stroke-linejoin="round" stroke-width="0.637"/>
            <path id="Path_27682" data-name="Path 27682" d="M245.613,214.882s-.344,10.438,23.267,18.953,34.556.9,34.556.9L275.056,215.8Z" transform="translate(-245.613 -63.056)" fill="#eaaa93"/>
            <g id="Group_6573" data-name="Group 6573" transform="translate(103.096 59.164)">
              <g id="Group_6572" data-name="Group 6572">
                <path id="Path_27683" data-name="Path 27683" d="M287.962,186.528s8.32-1.212,9.083,2.849c0,0,1.069,2.8-6,4.012s-12.8,2.024-13.631-.923C276.569,189.488,284.057,186.9,287.962,186.528Z" transform="translate(-277.348 -186.359)"/>
                <path id="Path_27684" data-name="Path 27684" d="M281.583,194.74a2.8,2.8,0,1,0,3.294-2.284A2.832,2.832,0,0,0,281.583,194.74Z" transform="translate(-267.947 -172.76)"/>
                <path id="Path_27685" data-name="Path 27685" d="M291.48,202.083s-5.117,1.894-10.237-3.271" transform="translate(-268.586 -158.356)" fill="none" stroke="#000" stroke-linecap="round" stroke-linejoin="round" stroke-width="0.637"/>
              </g>
            </g>
            <path id="Path_27686" data-name="Path 27686" d="M284.666,206.588s53.271,19.622,65.724-.8-25.863-56.757-68.826-25.379S284.666,206.588,284.666,206.588Z" transform="translate(-205.97 -168.147)" fill="#0c0d10"/>
          </g>
        </g>
      </g>
      <path id="Path_27687" data-name="Path 27687" d="M2094.836,0" transform="translate(49.001 1030.798)" fill="none" stroke="#3f2e1f" stroke-width="0.949"/>
    </g>
  </g>
</svg>
