<svg width="366" height="114" viewBox="0 0 366 114" fill="none" xmlns="http://www.w3.org/2000/svg">
<path d="M-60 261V218.841L79.8153 177.178L-60 180.532V141.039L79.8153 144.395L-60 102.73V60.5708L89.9668 113.217L-60 9.86615V-42.3745L109.271 86.6935L-60 -134.477V-215.694L135.842 67.4247L-0.654182 -325H52.1829L167.078 57.2945L158.926 -325H208.074L199.922 57.2945L315.548 -325H368.385L231.158 67.4247L427 -215.694V-134.477L257.729 86.6935L427 -42.3745V9.86615L277.033 113.217L427 60.5708V102.73L287.185 144.395L427 141.039V180.532L287.185 177.178L427 218.841V261H-60Z" fill="white"/>
</svg>
