<svg width="103" height="54" viewBox="0 0 103 54" fill="none" xmlns="http://www.w3.org/2000/svg">
<path d="M26.7332 19.6264H29.3508C29.8078 19.6264 30.0364 19.8342 30.0364 20.2497V34.5842C30.0364 36.2046 29.5793 37.4615 28.6652 38.3548C27.7719 39.2273 26.5151 39.6636 24.8946 39.6636H21.4668C19.8256 39.6636 18.5584 39.2273 17.6651 38.3548C16.7717 37.4822 16.3251 36.2254 16.3251 34.5842V20.2808C16.3251 19.8446 16.5432 19.6264 16.9795 19.6264H19.6283C20.0645 19.6264 20.2827 19.8446 20.2827 20.2808V34.3972C20.2827 35.062 20.4177 35.5398 20.6878 35.8307C20.9786 36.1007 21.446 36.2358 22.0901 36.2358H24.2402C24.905 36.2358 25.3725 36.1007 25.6425 35.8307C25.9334 35.5398 26.0788 35.062 26.0788 34.3972V20.2808C26.0788 19.8446 26.2969 19.6264 26.7332 19.6264ZM36.9098 39.6636H34.261C33.8247 39.6636 33.6066 39.4454 33.6066 39.0092V18.4111C33.6066 17.9748 33.8247 17.7567 34.261 17.7567H36.9098C37.346 17.7567 37.5642 17.9748 37.5642 18.4111V25.4537H37.6888C38.1459 24.3319 39.1638 23.771 40.7427 23.771H41.7399C45.0015 23.771 46.6323 25.4641 46.6323 28.8504V39.0092C46.6323 39.4454 46.4038 39.6636 45.9467 39.6636H43.3291C42.8929 39.6636 42.6747 39.4454 42.6747 39.0092V29.0373C42.6747 28.3726 42.5293 27.9051 42.2385 27.6351C41.9684 27.3442 41.501 27.1988 40.8362 27.1988H39.7143C38.2809 27.1988 37.5642 27.9882 37.5642 29.5671V39.0092C37.5642 39.4454 37.346 39.6636 36.9098 39.6636ZM62.53 36.2358H64.7425C65.4073 36.2358 65.8747 36.1007 66.1448 35.8307C66.4357 35.5398 66.5811 35.062 66.5811 34.3972V24.8928C66.5811 24.228 66.4357 23.7606 66.1448 23.4905C65.8747 23.1997 65.4073 23.0542 64.7425 23.0542H62.53C61.8652 23.0542 61.3978 23.1997 61.1277 23.4905C60.8577 23.7606 60.7226 24.228 60.7226 24.8928V34.3972C60.7226 35.062 60.8577 35.5398 61.1277 35.8307C61.3978 36.1007 61.8652 36.2358 62.53 36.2358ZM65.3969 39.6636H61.9068C60.2656 39.6636 58.9983 39.2273 58.105 38.3548C57.2117 37.4822 56.7651 36.2254 56.7651 34.5842V24.7058C56.7651 23.0646 57.2117 21.8078 58.105 20.9352C58.9983 20.0627 60.2656 19.6264 61.9068 19.6264H65.3969C67.0381 19.6264 68.3054 20.0627 69.1987 20.9352C70.092 21.8078 70.5386 23.0646 70.5386 24.7058V34.5842C70.5386 36.2254 70.092 37.4822 69.1987 38.3548C68.3054 39.2273 67.0381 39.6636 65.3969 39.6636ZM77.2621 39.6636H74.6133C74.177 39.6636 73.9589 39.4454 73.9589 39.0092V18.4111C73.9589 17.9748 74.177 17.7567 74.6133 17.7567H77.2621C77.6984 17.7567 77.9165 17.9748 77.9165 18.4111V25.4537H78.0411C78.4982 24.3319 79.5161 23.771 81.095 23.771H82.0922C85.3538 23.771 86.9846 25.4641 86.9846 28.8504V39.0092C86.9846 39.4454 86.7561 39.6636 86.2991 39.6636H83.6815C83.2452 39.6636 83.027 39.4454 83.027 39.0092V29.0373C83.027 28.3726 82.8816 27.9051 82.5908 27.6351C82.3207 27.3442 81.8533 27.1988 81.1885 27.1988H80.0667C78.6332 27.1988 77.9165 27.9882 77.9165 29.5671V39.0092C77.9165 39.4454 77.6984 39.6636 77.2621 39.6636Z" fill="#FFD979"/>
<path d="M26.7273 18.373H29.3449C29.802 18.373 30.0305 18.5808 30.0305 18.9962V33.3308C30.0305 34.9512 29.5735 36.208 28.6594 37.1014C27.7661 37.9739 26.5092 38.4102 24.8888 38.4102H21.461C19.8198 38.4102 18.5525 37.9739 17.6592 37.1014C16.7659 36.2288 16.3192 34.972 16.3192 33.3308V19.0274C16.3192 18.5911 16.5374 18.373 16.9736 18.373H19.6224C20.0587 18.373 20.2768 18.5911 20.2768 19.0274V33.1438C20.2768 33.8086 20.4118 34.2864 20.6819 34.5772C20.9728 34.8473 21.4402 34.9823 22.0842 34.9823H24.2344C24.8992 34.9823 25.3666 34.8473 25.6367 34.5772C25.9275 34.2864 26.0729 33.8086 26.0729 33.1438V19.0274C26.0729 18.5911 26.2911 18.373 26.7273 18.373ZM36.9039 38.4102H34.2551C33.8189 38.4102 33.6007 38.192 33.6007 37.7558V17.1577C33.6007 16.7214 33.8189 16.5033 34.2551 16.5033H36.9039C37.3402 16.5033 37.5583 16.7214 37.5583 17.1577V24.2003H37.683C38.14 23.0785 39.158 22.5175 40.7368 22.5175H41.734C44.9956 22.5175 46.6264 24.2107 46.6264 27.597V37.7558C46.6264 38.192 46.3979 38.4102 45.9409 38.4102H43.3233C42.887 38.4102 42.6689 38.192 42.6689 37.7558V27.7839C42.6689 27.1191 42.5234 26.6517 42.2326 26.3816C41.9625 26.0908 41.4951 25.9454 40.8303 25.9454H39.7085C38.275 25.9454 37.5583 26.7348 37.5583 28.3137V37.7558C37.5583 38.192 37.3402 38.4102 36.9039 38.4102ZM62.5242 34.9823H64.7367C65.4014 34.9823 65.8689 34.8473 66.1389 34.5772C66.4298 34.2864 66.5752 33.8086 66.5752 33.1438V23.6394C66.5752 22.9746 66.4298 22.5072 66.1389 22.2371C65.8689 21.9462 65.4014 21.8008 64.7367 21.8008H62.5242C61.8594 21.8008 61.3919 21.9462 61.1219 22.2371C60.8518 22.5072 60.7168 22.9746 60.7168 23.6394V33.1438C60.7168 33.8086 60.8518 34.2864 61.1219 34.5772C61.3919 34.8473 61.8594 34.9823 62.5242 34.9823ZM65.3911 38.4102H61.9009C60.2597 38.4102 58.9925 37.9739 58.0992 37.1014C57.2058 36.2288 56.7592 34.972 56.7592 33.3308V23.4524C56.7592 21.8112 57.2058 20.5543 58.0992 19.6818C58.9925 18.8093 60.2597 18.373 61.9009 18.373H65.3911C67.0323 18.373 68.2995 18.8093 69.1928 19.6818C70.0861 20.5543 70.5328 21.8112 70.5328 23.4524V33.3308C70.5328 34.972 70.0861 36.2288 69.1928 37.1014C68.2995 37.9739 67.0323 38.4102 65.3911 38.4102ZM77.2562 38.4102H74.6075C74.1712 38.4102 73.9531 38.192 73.9531 37.7558V17.1577C73.9531 16.7214 74.1712 16.5033 74.6075 16.5033H77.2562C77.6925 16.5033 77.9106 16.7214 77.9106 17.1577V24.2003H78.0353C78.4923 23.0785 79.5103 22.5175 81.0891 22.5175H82.0863C85.348 22.5175 86.9788 24.2107 86.9788 27.597V37.7558C86.9788 38.192 86.7502 38.4102 86.2932 38.4102H83.6756C83.2393 38.4102 83.0212 38.192 83.0212 37.7558V27.7839C83.0212 27.1191 82.8758 26.6517 82.5849 26.3816C82.3149 26.0908 81.8474 25.9454 81.1826 25.9454H80.0608C78.6274 25.9454 77.9106 26.7348 77.9106 28.3137V37.7558C77.9106 38.192 77.6925 38.4102 77.2562 38.4102Z" fill="#1B262C"/>
<path d="M26.7273 16.9629H29.3449C29.802 16.9629 30.0305 17.1706 30.0305 17.5861V31.9206C30.0305 33.541 29.5735 34.7979 28.6594 35.6912C27.7661 36.5637 26.5092 37 24.8888 37H21.461C19.8198 37 18.5525 36.5637 17.6592 35.6912C16.7659 34.8187 16.3192 33.5618 16.3192 31.9206V17.6173C16.3192 17.181 16.5374 16.9629 16.9736 16.9629H19.6224C20.0587 16.9629 20.2768 17.181 20.2768 17.6173V31.7336C20.2768 32.3984 20.4118 32.8762 20.6819 33.1671C20.9728 33.4371 21.4402 33.5722 22.0842 33.5722H24.2344C24.8992 33.5722 25.3666 33.4371 25.6367 33.1671C25.9275 32.8762 26.0729 32.3984 26.0729 31.7336V17.6173C26.0729 17.181 26.2911 16.9629 26.7273 16.9629ZM36.9039 37H34.2551C33.8189 37 33.6007 36.7819 33.6007 36.3456V15.7475C33.6007 15.3113 33.8189 15.0931 34.2551 15.0931H36.9039C37.3402 15.0931 37.5583 15.3113 37.5583 15.7475V22.7901H37.683C38.14 21.6683 39.158 21.1074 40.7368 21.1074H41.734C44.9956 21.1074 46.6264 22.8005 46.6264 26.1868V36.3456C46.6264 36.7819 46.3979 37 45.9409 37H43.3233C42.887 37 42.6689 36.7819 42.6689 36.3456V26.3738C42.6689 25.709 42.5234 25.2415 42.2326 24.9715C41.9625 24.6806 41.4951 24.5352 40.8303 24.5352H39.7085C38.275 24.5352 37.5583 25.3246 37.5583 26.9035V36.3456C37.5583 36.7819 37.3402 37 36.9039 37ZM62.5242 33.5722H64.7367C65.4014 33.5722 65.8689 33.4371 66.1389 33.1671C66.4298 32.8762 66.5752 32.3984 66.5752 31.7336V22.2292C66.5752 21.5644 66.4298 21.097 66.1389 20.8269C65.8689 20.5361 65.4014 20.3907 64.7367 20.3907H62.5242C61.8594 20.3907 61.3919 20.5361 61.1219 20.8269C60.8518 21.097 60.7168 21.5644 60.7168 22.2292V31.7336C60.7168 32.3984 60.8518 32.8762 61.1219 33.1671C61.3919 33.4371 61.8594 33.5722 62.5242 33.5722ZM65.3911 37H61.9009C60.2597 37 58.9925 36.5637 58.0992 35.6912C57.2058 34.8187 56.7592 33.5618 56.7592 31.9206V22.0423C56.7592 20.4011 57.2058 19.1442 58.0992 18.2717C58.9925 17.3991 60.2597 16.9629 61.9009 16.9629H65.3911C67.0323 16.9629 68.2995 17.3991 69.1928 18.2717C70.0861 19.1442 70.5328 20.4011 70.5328 22.0423V31.9206C70.5328 33.5618 70.0861 34.8187 69.1928 35.6912C68.2995 36.5637 67.0323 37 65.3911 37ZM77.2562 37H74.6075C74.1712 37 73.9531 36.7819 73.9531 36.3456V15.7475C73.9531 15.3113 74.1712 15.0931 74.6075 15.0931H77.2562C77.6925 15.0931 77.9106 15.3113 77.9106 15.7475V22.7901H78.0353C78.4923 21.6683 79.5103 21.1074 81.0891 21.1074H82.0863C85.348 21.1074 86.9788 22.8005 86.9788 26.1868V36.3456C86.9788 36.7819 86.7502 37 86.2932 37H83.6756C83.2393 37 83.0212 36.7819 83.0212 36.3456V26.3738C83.0212 25.709 82.8758 25.2415 82.5849 24.9715C82.3149 24.6806 81.8474 24.5352 81.1826 24.5352H80.0608C78.6274 24.5352 77.9106 25.3246 77.9106 26.9035V36.3456C77.9106 36.7819 77.6925 37 77.2562 37Z" fill="white"/>
<path opacity="0.8" d="M93.7824 1.27052C93.8789 0.917265 94.38 0.917265 94.4764 1.27052L95.0991 3.55023C95.126 3.64878 95.1935 3.73123 95.2849 3.77702L97.2347 4.75452C97.4993 4.8872 97.4993 5.26496 97.2347 5.39765L95.2849 6.37514C95.1935 6.42093 95.126 6.50338 95.0991 6.60193L94.4764 8.88164C94.38 9.2349 93.8789 9.2349 93.7824 8.88164L93.1598 6.60193C93.1329 6.50338 93.0653 6.42093 92.974 6.37514L91.0242 5.39765C90.7596 5.26496 90.7596 4.8872 91.0242 4.75452L92.974 3.77702C93.0653 3.73123 93.1329 3.64878 93.1598 3.55023L93.7824 1.27052Z" fill="#FFE9B1"/>
<path opacity="0.6" d="M4.1799 40.585C4.27638 40.2317 4.77743 40.2317 4.87391 40.585L5.49654 42.8647C5.52346 42.9632 5.59101 43.0457 5.68233 43.0915L7.63212 44.069C7.89679 44.2017 7.89679 44.5794 7.63212 44.7121L5.68233 45.6896C5.59101 45.7354 5.52346 45.8178 5.49654 45.9164L4.87391 48.1961C4.77743 48.5493 4.27638 48.5493 4.1799 48.1961L3.55727 45.9164C3.53035 45.8178 3.4628 45.7354 3.37148 45.6896L1.42169 44.7121C1.15702 44.5794 1.15702 44.2017 1.42169 44.069L3.37148 43.0915C3.4628 43.0457 3.53035 42.9632 3.55727 42.8647L4.1799 40.585Z" fill="#FFD979"/>
<path opacity="0.2" d="M99.2767 7.89936C99.343 7.6565 99.6875 7.6565 99.7538 7.89936L100.182 9.46666C100.2 9.53441 100.247 9.5911 100.31 9.62258L101.65 10.2946C101.832 10.3858 101.832 10.6455 101.65 10.7368L100.31 11.4088C100.247 11.4403 100.2 11.497 100.182 11.5647L99.7538 13.132C99.6875 13.3749 99.343 13.3749 99.2767 13.132L98.8486 11.5647C98.8301 11.497 98.7837 11.4403 98.7209 11.4088L97.3804 10.7368C97.1985 10.6455 97.1985 10.3858 97.3804 10.2946L98.7209 9.62258C98.7837 9.5911 98.8301 9.53441 98.8486 9.46666L99.2767 7.89936Z" fill="#F4EDD9"/>
<path opacity="0.2" d="M9.20541 47.2119C9.27174 46.969 9.61621 46.969 9.68254 47.2119L10.1106 48.7792C10.1291 48.8469 10.1755 48.9036 10.2383 48.9351L11.5788 49.6071C11.7608 49.6983 11.7608 49.958 11.5788 50.0493L10.2383 50.7213C10.1755 50.7528 10.1291 50.8095 10.1106 50.8772L9.68254 52.4445C9.61621 52.6874 9.27174 52.6874 9.20541 52.4445L8.77735 50.8772C8.75884 50.8095 8.7124 50.7528 8.64962 50.7213L7.30914 50.0493C7.12718 49.958 7.12718 49.6983 7.30914 49.6071L8.64962 48.9351C8.7124 48.9036 8.75884 48.8469 8.77735 48.7792L9.20541 47.2119Z" fill="#F4EDD9"/>
<circle opacity="0.3" cx="3.38092" cy="12.7178" r="2.10748" fill="#FFD979"/>
<circle opacity="0.3" cx="98.003" cy="48.4459" r="2.10748" fill="#93B5FE"/>
<circle opacity="0.3" cx="54.8835" cy="2.96848" r="1.27903" fill="#C4C4C4"/>
<circle opacity="0.3" cx="69.8526" cy="17.166" r="1.05374" fill="#C4C4C4"/>
</svg>
