<svg width="219" height="185" viewBox="0 0 219 185" fill="none"
    xmlns="http://www.w3.org/2000/svg">
    <defs>
        <filter id="filter0_d" x="45.1709" y="0.367188" width="82.2935" height="90.0864" filterUnits="userSpaceOnUse" color-interpolation-filters="sRGB">
            <feFlood flood-opacity="0" result="BackgroundImageFix"/>
            <feColorMatrix in="SourceAlpha" type="matrix" values="0 0 0 0 0 0 0 0 0 0 0 0 0 0 0 0 0 0 127 0" result="hardAlpha"/>
            <feOffset dy="11"/>
            <feGaussianBlur stdDeviation="11"/>
            <feColorMatrix type="matrix" values="0 0 0 0 0.397708 0 0 0 0 0.47749 0 0 0 0 0.575 0 0 0 0.18 0"/>
            <feBlend mode="normal" in2="BackgroundImageFix" result="effect1_dropShadow"/>
            <feBlend mode="normal" in="SourceGraphic" in2="effect1_dropShadow" result="shape"/>
        </filter>
        <linearGradient id="paint0_linear" x1="80.0993" y1="169.75" x2="80.0993" y2="167.857" gradientUnits="userSpaceOnUse">
            <stop stop-color="white"/>
            <stop offset="0.9913" stop-color="#D6DEEA"/>
        </linearGradient>
        <linearGradient id="paint1_linear" x1="150.322" y1="107.762" x2="150.322" y2="104.224" gradientUnits="userSpaceOnUse">
            <stop stop-color="white"/>
            <stop offset="0.9913" stop-color="#D6DEEA"/>
        </linearGradient>
        <linearGradient id="paint2_linear" x1="89.0143" y1="90.2749" x2="15.8096" y2="90.2749" gradientUnits="userSpaceOnUse">
            <stop offset="0.00651336" stop-color="#9CA6BD" stop-opacity="0"/>
            <stop offset="1" stop-color="#34C3A7"/>
        </linearGradient>
        <linearGradient id="paint3_linear" x1="64.1886" y1="107.359" x2="14.5315" y2="107.359" gradientUnits="userSpaceOnUse">
            <stop offset="0.00651336" stop-color="#9CA6BD" stop-opacity="0"/>
            <stop offset="1" stop-color="#34C3A7"/>
        </linearGradient>
        <linearGradient id="paint4_linear" x1="204.961" y1="30.9857" x2="139.189" y2="30.9857" gradientUnits="userSpaceOnUse">
            <stop offset="0.00651336" stop-color="#9CA6BD" stop-opacity="0"/>
            <stop offset="1" stop-color="#FF9E0B"/>
        </linearGradient>
        <linearGradient id="paint5_linear" x1="182.656" y1="46.3348" x2="138.041" y2="46.3348" gradientUnits="userSpaceOnUse">
            <stop offset="0.00651336" stop-color="#9CA6BD" stop-opacity="0"/>
            <stop offset="1" stop-color="#FF9E0B"/>
        </linearGradient>
    </defs>
    <path d="M111.897 158.652C154.975 158.652 189.897 123.699 189.897 80.5828C189.897 37.4664 154.975 2.51367 111.897 2.51367C68.8195 2.51367 33.8979 37.4664 33.8979 80.5828C33.8979 123.699 68.8195 158.652 111.897 158.652Z" fill="#F1F6FF"/>
    <path d="M174.517 12.1525C177.811 12.1525 180.481 9.48005 180.481 6.18343C180.481 2.8868 177.811 0.214355 174.517 0.214355C171.223 0.214355 168.553 2.8868 168.553 6.18343C168.553 9.48005 171.223 12.1525 174.517 12.1525Z" fill="#F1F6FF"/>
    <path d="M40.8044 26.918C42.9713 26.918 44.7279 25.1598 44.7279 22.991C44.7279 20.8222 42.9713 19.064 40.8044 19.064C38.6375 19.064 36.8809 20.8222 36.8809 22.991C36.8809 25.1598 38.6375 26.918 40.8044 26.918Z" fill="#F1F6FF"/>
    <path d="M23.0708 36.9714C24.5443 36.9714 25.7388 35.7758 25.7388 34.301C25.7388 32.8262 24.5443 31.6306 23.0708 31.6306C21.5973 31.6306 20.4028 32.8262 20.4028 34.301C20.4028 35.7758 21.5973 36.9714 23.0708 36.9714Z" fill="#34C3A7"/>
    <path d="M149.721 5.02659C151.108 5.02659 152.233 3.90135 152.233 2.51329C152.233 1.12524 151.108 0 149.721 0C148.335 0 147.21 1.12524 147.21 2.51329C147.21 3.90135 148.335 5.02659 149.721 5.02659Z" fill="#FF9E0B"/>
    <path d="M105.307 158.552C105.307 165.935 102.168 172.532 97.1457 177.245C95.7332 178.501 94.3208 179.601 92.5944 180.543C88.8279 182.742 84.4335 183.999 79.7253 183.999C75.0171 183.999 70.6228 182.742 66.8562 180.543C66.2284 180.229 65.7576 179.915 65.1299 179.444C58.5384 174.888 54.144 167.191 54.144 158.552C54.144 144.415 65.6007 133.105 79.5684 133.105C93.85 132.948 105.307 144.415 105.307 158.552Z" fill="#DCE2F0"/>
    <path d="M74.5482 164.207C74.8621 164.521 75.176 164.992 75.6468 165.307C75.9607 165.621 76.2746 165.778 76.5884 166.092C76.7454 166.249 77.0593 166.406 77.2162 166.563C77.2162 166.563 77.3731 166.563 77.3731 166.72L77.5301 166.877V169.076C77.5301 169.076 77.5301 169.076 77.3731 168.919C77.2162 168.762 76.9023 168.605 76.7454 168.448C76.4315 168.291 76.1176 167.977 75.8037 167.82C75.6468 167.82 75.6468 167.663 75.4899 167.663C74.3913 167.034 73.4496 166.406 73.4496 165.621C73.6066 165.307 73.9205 164.835 74.5482 164.207ZM96.8338 176.459C95.8921 174.417 94.1658 172.375 91.9686 171.276C90.87 170.804 89.6145 170.333 88.359 170.333C88.0451 170.333 87.5743 170.333 87.2604 170.333C87.1035 170.333 86.9465 170.333 86.7896 170.333C85.0632 170.176 84.9063 169.862 84.9063 169.862V166.249C86.0049 165.307 87.1035 164.207 88.0451 163.107C88.8298 162.008 89.4576 160.751 89.7714 159.18C91.1839 158.866 92.1255 157.61 91.9686 156.039C91.9686 155.41 91.4978 154.782 91.4978 154.154C91.4978 153.84 91.4978 153.525 91.4978 153.211C91.4978 153.054 91.4978 152.74 91.4978 152.583C91.4978 152.426 91.4978 152.112 91.4978 151.955C91.3408 150.855 91.027 149.756 90.3992 148.499C88.5159 145.043 85.0632 142.844 80.9828 142.844C80.1981 142.844 79.4134 143.001 78.6287 143.158C77.2162 143.472 75.8037 144.101 74.7052 145.043C74.5482 145.2 74.2343 145.357 74.0774 145.671L73.9205 145.829C72.6649 147.085 71.5664 148.499 71.0955 150.227C70.4678 151.955 70.4678 153.683 70.6247 155.41C70.6247 155.41 70.6247 155.41 70.6247 155.568V155.725C70.6247 156.039 70.7817 156.039 70.6247 156.196C70.6247 156.353 70.4678 156.353 70.4678 156.51C70.1539 156.981 69.997 157.61 70.3108 158.552C70.9386 160.123 71.8802 159.966 72.9788 160.751C72.9788 160.751 72.8219 160.751 72.8219 160.908L71.7233 161.222C66.7012 162.793 64.9749 167.034 67.172 169.705C67.9567 170.647 69.2123 171.433 71.0955 171.904C70.6247 171.904 70.1539 172.218 69.84 172.532C67.6428 174.26 66.2304 176.931 65.9165 179.444C65.9165 179.601 65.9165 179.758 65.9165 179.915C66.5443 180.229 67.0151 180.7 67.6428 181.015H92.5964C94.1658 180.072 95.7352 178.973 97.1476 177.716C96.9907 176.931 96.9907 176.616 96.8338 176.459Z" fill="white"/>
    <path d="M97.1472 177.246C95.7347 178.502 94.3223 179.602 92.5959 180.544C88.8293 182.743 84.435 184 79.7268 184C75.0186 184 70.6243 182.743 66.8577 180.544C66.2299 180.23 65.7591 179.916 65.1313 179.445C65.1313 179.288 65.1313 179.13 65.1313 178.973C65.4452 176.46 66.8577 173.79 69.0549 172.062C69.3687 171.748 69.8396 171.591 70.3104 171.434C68.4271 171.119 67.1716 170.334 66.3869 169.234H72.3506C74.0769 171.591 76.7449 173.004 79.8837 173.004C82.5517 173.004 84.9058 171.905 86.6322 170.177C86.7891 170.177 86.9461 170.177 87.103 170.177C87.4169 170.177 87.7308 170.177 88.2016 170.177C89.4571 170.177 90.7126 170.491 91.8112 171.119C94.0084 172.219 95.5778 174.104 96.6764 176.303C96.9902 176.617 96.9902 176.931 97.1472 177.246Z" fill="#34C3A7"/>
    <path d="M85.062 166.249V169.548L75.1748 169.862L75.6456 167.663C75.8026 167.663 75.8026 167.82 75.9595 167.82C76.2734 167.977 76.5873 168.291 76.9011 168.448C77.0581 168.605 77.215 168.763 77.5289 168.92C77.5289 168.92 77.6858 168.92 77.6858 169.077V166.878L77.5289 166.721C79.2553 167.663 81.6094 168.291 85.062 166.249Z" fill="url(#paint0_linear)"/>
    <path d="M91.4973 152.583C89.614 153.212 87.4168 153.526 85.3766 153.369C82.0809 153.055 78.9421 151.798 76.431 149.599C75.6463 151.955 73.6061 153.683 71.252 154.782C70.9381 154.94 70.6242 155.097 70.3103 155.097C70.3103 155.097 70.3103 155.097 70.3103 154.94C70.1534 153.212 70.1534 151.484 70.7812 149.756C71.252 148.028 72.3506 146.614 73.6061 145.358L73.763 145.201C73.92 145.043 74.2338 144.886 74.3908 144.572C75.4894 143.63 76.9018 143.001 78.3143 142.687C79.099 142.53 79.8837 142.373 80.6684 142.373C84.7489 142.373 88.3585 144.572 90.0848 148.028C90.7126 149.285 91.0265 150.541 91.1834 151.484C91.4973 152.112 91.4973 152.426 91.4973 152.583Z" fill="#1C3754"/>
    <path d="M78.9422 175.831C78.0006 176.931 76.4312 176.93 75.0187 176.93C76.4312 175.517 75.6465 170.961 70.6244 171.433C63.719 170.176 64.3468 162.95 71.2521 160.751L72.3507 160.437L72.5077 160.594C72.9785 162.008 73.7632 163.264 74.5479 164.207C71.723 166.563 75.6465 167.191 77.5297 169.076C79.0992 170.019 80.5116 173.946 78.9422 175.831Z" fill="#1C3754"/>
    <path d="M105.307 158.552C105.307 165.935 102.168 172.532 97.1457 177.245C95.7332 178.501 94.3208 179.601 92.5944 180.543C88.8279 182.742 84.4335 183.999 79.7253 183.999C75.0171 183.999 70.6228 182.742 66.8562 180.543C66.2284 180.229 65.7576 179.915 65.1299 179.444C58.5384 174.888 54.144 167.191 54.144 158.552C54.144 144.415 65.6007 133.105 79.5684 133.105C93.85 132.948 105.307 144.415 105.307 158.552Z" stroke="white" stroke-width="1.6434" stroke-miterlimit="10" stroke-linecap="round" stroke-linejoin="round"/>
    <path d="M175.93 96.034C175.93 103.103 173.105 109.386 168.711 114.098C168.397 114.57 167.926 114.884 167.455 115.198C162.747 119.596 156.469 122.267 149.564 122.267C144.071 122.267 138.892 120.539 134.655 117.554C133.399 116.769 132.301 115.669 131.202 114.727C126.337 110.014 123.355 103.417 123.355 96.034C123.355 81.5826 135.126 69.8015 149.564 69.8015C164.159 69.8015 175.93 81.5826 175.93 96.034Z" fill="#E9F0F8"/>
    <path d="M175.93 96.0317C175.93 103.729 172.634 110.483 167.455 115.353C162.747 119.751 156.469 122.421 149.564 122.421C144.071 122.421 138.892 120.693 134.654 117.709C127.749 112.996 123.354 105.142 123.354 96.1888C123.354 81.7374 135.125 69.9563 149.564 69.9563C164.002 69.9563 175.93 81.5803 175.93 96.0317Z" fill="#DCE2F0"/>
    <path d="M168.71 114.098C168.396 114.569 167.925 114.884 167.454 115.198C162.746 119.596 156.469 122.266 149.563 122.266C144.07 122.266 138.891 120.538 134.654 117.554C133.398 116.769 132.3 115.669 131.201 114.726C131.829 113.941 132.771 113.47 134.811 112.684L135.596 112.37C137.165 111.742 139.362 110.957 142.187 109.7C142.658 109.543 142.972 109.229 143.286 108.915C143.443 108.757 143.599 108.6 143.599 108.286C143.756 107.972 143.913 107.501 143.913 107.187V101.846C143.756 101.689 143.756 101.689 143.599 101.532C143.129 100.903 142.815 100.118 142.815 99.1755L142.501 99.0184C141.088 99.3326 141.245 97.9188 140.931 95.0914C140.775 93.9918 140.931 93.6777 141.559 93.5206L142.03 92.8923C141.088 90.6931 140.618 88.6511 140.618 87.0803C140.618 84.4099 141.716 82.682 143.286 81.8966C142.344 80.0116 142.344 79.3833 142.344 79.3833C142.344 79.3833 147.837 80.3258 149.72 80.0116C152.074 79.5404 155.841 80.1687 157.253 83.3103C159.607 84.2528 160.392 85.6665 160.706 87.2373C161.02 89.7506 159.607 92.421 159.294 93.5206V93.6777C159.607 93.8347 159.764 94.1489 159.607 95.2485C159.294 97.9188 159.294 99.4896 158.038 99.1755L156.782 101.375C156.782 101.689 156.782 101.689 156.626 101.846C156.626 102.317 156.626 103.103 156.626 107.344C156.626 107.815 156.782 108.443 157.096 108.757C157.253 108.914 157.253 109.072 157.41 109.072C157.724 109.386 158.038 109.7 158.352 109.7C161.491 110.957 163.688 111.899 165.414 112.527C166.984 113.156 168.082 113.627 168.71 114.098Z" fill="white"/>
    <path d="M168.709 114.098C168.396 114.569 167.925 114.884 167.454 115.198C162.746 119.596 156.468 122.266 149.563 122.266C144.07 122.266 138.891 120.539 134.653 117.554C133.398 116.769 132.299 115.669 131.201 114.727C131.828 113.941 132.77 113.47 134.81 112.684L135.595 112.37C137.164 111.742 139.362 110.957 142.187 109.7C142.657 109.543 142.971 109.229 143.285 108.915C144.855 111.114 147.366 112.527 150.347 112.527C153.172 112.527 155.683 111.114 157.253 109.072C157.567 109.386 157.881 109.7 158.194 109.7C161.333 110.957 163.53 111.899 165.257 112.527C166.983 113.156 168.082 113.627 168.709 114.098Z" fill="#FF9E0B"/>
    <path d="M159.135 93.3635C159.292 92.7352 158.978 91.7927 158.664 91.3214C158.664 91.1644 158.507 91.1644 158.507 91.0073C157.409 88.8082 155.055 88.0227 152.858 87.8657C147.051 87.5515 146.58 88.6511 144.854 87.0803C145.481 87.8657 145.481 89.2794 144.54 90.8502C143.912 91.9498 142.813 92.5781 141.715 92.8922C139.047 86.9232 140.459 83.1532 142.97 81.8966C142.029 80.0116 142.029 79.3833 142.029 79.3833C142.029 79.3833 147.522 80.3258 149.405 80.0116C151.759 79.5404 155.526 80.1687 156.938 83.3103C159.292 84.2528 160.077 85.6665 160.391 87.2373C160.862 89.5936 159.449 92.2639 159.135 93.3635Z" fill="#1C3754"/>
    <path d="M144.07 107.187V101.846C143.913 101.689 143.913 101.689 143.756 101.532V101.218C144.07 101.689 144.384 102.16 144.855 102.474L149.092 105.459C150.034 106.244 151.446 106.244 152.388 105.459L156.312 102.003C156.469 101.846 156.625 101.846 156.782 101.689C156.782 102.16 156.782 102.946 156.782 107.187C156.782 107.501 156.782 107.658 156.939 107.972H144.07C143.913 107.658 144.07 107.501 144.07 107.187Z" fill="url(#paint1_linear)"/>
    <path d="M175.93 96.0317C175.93 103.729 172.634 110.483 167.455 115.353C162.747 119.751 156.469 122.421 149.564 122.421C144.071 122.421 138.892 120.693 134.654 117.709C127.749 112.996 123.354 105.142 123.354 96.1888C123.354 81.7374 135.125 69.9563 149.564 69.9563C164.002 69.9563 175.93 81.5803 175.93 96.0317Z" stroke="white" stroke-width="1.6604" stroke-miterlimit="10" stroke-linecap="round" stroke-linejoin="round"/>
    <path d="M0 114.256C0 119.282 4.08045 123.366 9.10254 123.366H89.7699C90.5546 123.366 91.3393 123.68 91.8101 124.152L103.11 135.461C103.424 135.933 104.051 136.09 104.679 135.776C105.15 135.619 105.621 134.99 105.621 134.519V82.211C105.621 77.1844 101.54 73.1003 96.5183 73.1003H9.10254C4.08045 73.1003 0 77.1844 0 82.211V114.256Z" fill="#D8F3DF"/>
    <path opacity="0.7" d="M85.8448 93.5205H16.4772C15.8494 93.5205 15.2217 92.8922 15.2217 92.2638V88.1797C15.2217 87.5514 15.8494 86.9231 16.4772 86.9231H85.8448C86.4726 86.9231 87.1004 87.5514 87.1004 88.1797V92.2638C87.1004 93.0493 86.6296 93.5205 85.8448 93.5205Z" fill="url(#paint2_linear)"/>
    <path opacity="0.7" d="M59.165 110.642H16.4772C15.8494 110.642 15.2217 110.014 15.2217 109.386V105.302C15.2217 104.673 15.8494 104.045 16.4772 104.045H59.165C59.7928 104.045 60.4205 104.673 60.4205 105.302V109.386C60.4205 110.171 59.9497 110.642 59.165 110.642Z" fill="url(#paint3_linear)"/>
    <g filter="url(#filter0_d)">
        <path d="M67.1709 41.5267C67.1709 45.1396 70.1528 48.1241 73.7624 48.1241H93.8508C94.4785 48.1241 94.9494 48.2812 95.4202 48.7524L103.738 57.0777C104.052 57.3919 104.523 57.549 104.837 57.3919C105.15 57.2348 105.464 56.9206 105.464 56.4494V17.9646C105.464 14.3517 102.482 11.3672 98.8729 11.3672H73.7624C70.1528 11.3672 67.1709 14.3517 67.1709 17.9646V41.5267Z" fill="white"/>
    </g>
    <path d="M218.304 52.5229C218.304 57.0782 214.694 60.6911 210.143 60.6911H137.637C137.009 60.6911 136.224 61.0053 135.753 61.4765L125.552 71.6867C125.238 72.0009 124.611 72.158 124.14 72.0009C123.669 71.8438 123.355 71.3726 123.355 70.9013V23.7771C123.355 19.2217 126.965 15.6089 131.516 15.6089H209.986C214.537 15.6089 218.147 19.2217 218.147 23.7771V52.5229H218.304Z" fill="#FFF5E6"/>
    <path opacity="0.7" d="M202.138 33.9874H139.833C139.205 33.9874 138.734 33.5161 138.734 32.8878V29.1179C138.734 28.4896 139.205 28.0183 139.833 28.0183H202.138C202.766 28.0183 203.237 28.4896 203.237 29.1179V32.8878C203.237 33.5161 202.766 33.9874 202.138 33.9874Z" fill="url(#paint4_linear)"/>
    <path opacity="0.7" d="M178.283 49.3809H139.833C139.205 49.3809 138.734 48.9097 138.734 48.2814V44.5114C138.734 43.8831 139.205 43.4119 139.833 43.4119H178.283C178.911 43.4119 179.382 43.8831 179.382 44.5114V48.2814C179.382 48.7526 178.754 49.3809 178.283 49.3809Z" fill="url(#paint5_linear)"/>
    <path d="M95.1056 25.6624C93.2223 22.5208 88.6711 22.0495 86.317 25.034C83.9629 22.0495 79.4116 22.5208 77.5283 25.6624C75.9589 28.3327 77.0575 30.846 79.0977 33.3593C81.1379 35.8726 84.1198 38.0718 85.5323 38.8572C85.8461 39.0142 86.0031 39.0142 86.317 39.0142C86.6308 39.0142 86.9447 39.0142 87.1017 38.8572C88.5141 37.9147 91.496 35.8726 93.5362 33.3593C95.5764 30.846 96.832 28.3327 95.1056 25.6624Z" fill="#34C3A7"/>

</svg>
