<svg width="23" height="24" viewBox="0 0 23 24" fill="none" xmlns="http://www.w3.org/2000/svg">
    <path
        d="M0 24L1.62442 17.837C0.622038 16.033 0.0953278 13.988 0.0962907 11.891C0.0991794 5.335 5.23629 0 11.5481 0C14.6112 0.001 17.4864 1.24 19.6491 3.488C21.8108 5.736 23.001 8.724 23 11.902C22.9971 18.459 17.86 23.794 11.5481 23.794C9.63196 23.793 7.7437 23.294 6.07113 22.346L0 24ZM6.3523 20.193C7.96613 21.188 9.50678 21.784 11.5443 21.785C16.7902 21.785 21.0636 17.351 21.0665 11.9C21.0684 6.438 16.8152 2.01 11.552 2.008C6.30223 2.008 2.03173 6.442 2.02981 11.892C2.02885 14.117 2.65666 15.783 3.71104 17.526L2.7491 21.174L6.3523 20.193ZM17.3169 14.729C17.2457 14.605 17.055 14.531 16.7681 14.382C16.4821 14.233 15.0753 13.514 14.8124 13.415C14.5505 13.316 14.3598 13.266 14.1682 13.564C13.9776 13.861 13.4287 14.531 13.2621 14.729C13.0955 14.927 12.928 14.952 12.642 14.803C12.356 14.654 11.4336 14.341 10.3407 13.328C9.49041 12.54 8.91556 11.567 8.74897 11.269C8.58239 10.972 8.73164 10.811 8.87415 10.663C9.00318 10.53 9.16013 10.316 9.30361 10.142C9.44901 9.97 9.49619 9.846 9.59248 9.647C9.68781 9.449 9.64063 9.275 9.56841 9.126C9.49619 8.978 8.92422 7.515 8.68638 6.92C8.45336 6.341 8.21745 6.419 8.0422 6.41L7.49334 6.4C7.30269 6.4 6.99263 6.474 6.73072 6.772C6.46881 7.07 5.7293 7.788 5.7293 9.251C5.7293 10.714 6.75479 12.127 6.8973 12.325C7.04078 12.523 8.91459 15.525 11.785 16.812C12.4677 17.118 13.0012 17.301 13.4162 17.438C14.1018 17.664 14.7257 17.632 15.2187 17.556C15.7686 17.471 16.9115 16.837 17.1503 16.143C17.3891 15.448 17.3891 14.853 17.3169 14.729Z"
        fill="white" />
</svg>
