<svg width="16" height="16" viewBox="0 0 16 16" fill="none" xmlns="http://www.w3.org/2000/svg">
<g clip-path="url(#clip0_976_3463)">
<path d="M8.002 0H7.998C3.587 0 0 3.588 0 8C0 9.75 0.564 11.372 1.523 12.689L0.526 15.661L3.601 14.678C4.866 15.516 6.375 16 8.002 16C12.413 16 16 12.411 16 8C16 3.589 12.413 0 8.002 0Z" fill="#4CAF50"/>
<path d="M12.6566 11.2962C12.4636 11.8412 11.6976 12.2932 11.0866 12.4252C10.6686 12.5142 10.1226 12.5852 8.28456 11.8232C5.93356 10.8492 4.41956 8.4602 4.30156 8.3052C4.18856 8.1502 3.35156 7.0402 3.35156 5.8922C3.35156 4.7442 3.93456 4.1852 4.16956 3.9452C4.36256 3.7482 4.68156 3.6582 4.98756 3.6582C5.08656 3.6582 5.17556 3.6632 5.25556 3.6672C5.49056 3.6772 5.60856 3.6912 5.76356 4.0622C5.95656 4.5272 6.42656 5.6752 6.48256 5.7932C6.53956 5.9112 6.59656 6.0712 6.51656 6.2262C6.44156 6.3862 6.37556 6.4572 6.25756 6.5932C6.13956 6.7292 6.02756 6.8332 5.90956 6.9792C5.80156 7.1062 5.67956 7.2422 5.81556 7.4772C5.95156 7.7072 6.42156 8.4742 7.11356 9.0902C8.00656 9.8852 8.73056 10.1392 8.98956 10.2472C9.18256 10.3272 9.41256 10.3082 9.55356 10.1582C9.73256 9.9652 9.95356 9.6452 10.1786 9.3302C10.3386 9.1042 10.5406 9.0762 10.7526 9.1562C10.9686 9.2312 12.1116 9.7962 12.3466 9.9132C12.5816 10.0312 12.7366 10.0872 12.7936 10.1862C12.8496 10.2852 12.8496 10.7502 12.6566 11.2962Z" fill="#FAFAFA"/>
</g>
<defs>
<clipPath id="clip0_976_3463">
<rect width="16" height="16" fill="white"/>
</clipPath>
</defs>
</svg>
