<svg width="242" height="126" viewBox="0 0 242 126" fill="none" xmlns="http://www.w3.org/2000/svg">
<path opacity="0.8" d="M217.946 3.53271C218.172 2.70579 219.345 2.70579 219.571 3.53271L221.028 8.86921C221.091 9.0999 221.25 9.29292 221.463 9.4001L226.028 11.6883C226.647 11.9989 226.647 12.8832 226.028 13.1938L221.463 15.482C221.25 15.5891 221.091 15.7822 221.028 16.0129L219.571 21.3494C219.345 22.1763 218.172 22.1763 217.946 21.3494L216.489 16.0129C216.426 15.7822 216.268 15.5891 216.054 15.482L211.49 13.1938C210.87 12.8832 210.87 11.9989 211.49 11.6883L216.054 9.4001C216.268 9.29292 216.426 9.0999 216.489 8.86921L217.946 3.53271Z" fill="#FFE9B1"/>
<path opacity="0.6" d="M8.19831 95.562C8.42416 94.7351 9.59705 94.7351 9.82289 95.562L11.2804 100.899C11.3434 101.129 11.5015 101.322 11.7153 101.429L16.2795 103.718C16.8991 104.028 16.8991 104.912 16.2795 105.223L11.7153 107.511C11.5015 107.618 11.3434 107.811 11.2804 108.042L9.8229 113.379C9.59705 114.206 8.42416 114.206 8.19831 113.379L6.74081 108.042C6.6778 107.811 6.51968 107.618 6.3059 107.511L1.74171 105.223C1.12215 104.912 1.12216 104.028 1.74171 103.718L6.3059 101.429C6.51968 101.322 6.6778 101.129 6.74081 100.899L8.19831 95.562Z" fill="#FFD979"/>
<path opacity="0.2" d="M230.807 19.0486C230.963 18.4801 231.769 18.4801 231.924 19.0486L232.926 22.7175C232.97 22.8761 233.078 23.0088 233.225 23.0824L236.363 24.6556C236.789 24.8691 236.789 25.4771 236.363 25.6906L233.225 27.2637C233.078 27.3374 232.97 27.4701 232.926 27.6287L231.924 31.2976C231.769 31.8661 230.963 31.8661 230.807 31.2976L229.805 27.6287C229.762 27.4701 229.653 27.3374 229.506 27.2637L226.368 25.6906C225.943 25.4771 225.943 24.8691 226.368 24.6556L229.506 23.0824C229.653 23.0088 229.762 22.8761 229.805 22.7175L230.807 19.0486Z" fill="#F4EDD9"/>
<path opacity="0.2" d="M19.9634 111.076C20.1186 110.507 20.925 110.507 21.0803 111.076L22.0823 114.745C22.1256 114.903 22.2343 115.036 22.3813 115.11L25.5192 116.683C25.9451 116.896 25.9451 117.504 25.5192 117.718L22.3813 119.291C22.2343 119.365 22.1256 119.497 22.0823 119.656L21.0803 123.325C20.925 123.893 20.1186 123.893 19.9634 123.325L18.9613 119.656C18.918 119.497 18.8093 119.365 18.6623 119.291L15.5245 117.718C15.0985 117.504 15.0985 116.896 15.5245 116.683L18.6623 115.11C18.8093 115.036 18.918 114.903 18.9613 114.745L19.9634 111.076Z" fill="#F4EDD9"/>
<circle opacity="0.3" cx="6.32884" cy="30.3303" r="4.93333" fill="#FFD979"/>
<circle opacity="0.3" cx="227.826" cy="113.965" r="4.93333" fill="#93B5FE"/>
<circle opacity="0.3" cx="126.89" cy="7.50772" r="2.99404" fill="#C4C4C4"/>
<circle opacity="0.3" cx="161.929" cy="40.7416" r="2.46667" fill="#C4C4C4"/>
<path d="M21.4749 96.2637H12.1936C11.2213 96.2637 10.6688 95.7996 10.5363 94.8715L3.4427 55.0283C3.31011 54.1002 3.77418 53.6361 4.83489 53.6361H11.7296C12.7461 53.6361 13.2764 54.1002 13.3206 55.0283L17.1657 87.7116H17.6298L23.9941 54.8294C24.1267 54.0339 24.5908 53.6361 25.3863 53.6361H32.8113C33.651 53.6361 34.1372 54.0118 34.2698 54.7631L40.7667 87.7116H41.2971L45.0759 55.0946C45.1201 54.1223 45.6504 53.6361 46.6669 53.6361H53.5616C54.6223 53.6361 55.0864 54.1223 54.9538 55.0946L47.7939 94.8715C47.6614 95.7996 47.1531 96.2637 46.2692 96.2637H36.9216C35.9935 96.2637 35.4631 95.7996 35.3305 94.8715L29.364 63.7792H29.0988L23.066 94.8715C22.8892 95.7996 22.3588 96.2637 21.4749 96.2637ZM75.7465 96.2637H69.8463C66.3548 96.2637 63.6588 95.3355 61.7583 93.4793C59.8579 91.623 58.9077 88.9491 58.9077 85.4576V73.2594C58.9077 69.7678 59.8579 67.0939 61.7583 65.2377C63.6588 63.3814 66.3548 62.4533 69.8463 62.4533H75.7465C79.1939 62.4533 81.8678 63.4035 83.7682 65.304C85.7129 67.1602 86.6852 69.812 86.6852 73.2594V85.4576C86.6852 88.9049 85.7129 91.5788 83.7682 93.4793C81.8678 95.3355 79.1939 96.2637 75.7465 96.2637ZM71.1059 89.0375H74.4869C75.9012 89.0375 76.8957 88.7503 77.4702 88.1757C78.089 87.6011 78.3983 86.6067 78.3983 85.1924V73.5245C78.3983 72.1103 78.089 71.1158 77.4702 70.5413C76.8957 69.9667 75.9012 69.6794 74.4869 69.6794H71.1059C69.6916 69.6794 68.6972 69.9667 68.1226 70.5413C67.5481 71.1158 67.2608 72.1103 67.2608 73.5245V85.1924C67.2608 86.6067 67.5481 87.6011 68.1226 88.1757C68.6972 88.7503 69.6916 89.0375 71.1059 89.0375ZM109.477 96.2637H103.576C100.085 96.2637 97.3889 95.3355 95.4884 93.4793C93.588 91.623 92.6377 88.9491 92.6377 85.4576V73.2594C92.6377 69.7678 93.588 67.0939 95.4884 65.2377C97.3889 63.3814 100.085 62.4533 103.576 62.4533H109.477C112.924 62.4533 115.598 63.4035 117.498 65.304C119.443 67.1602 120.415 69.812 120.415 73.2594V85.4576C120.415 88.9049 119.443 91.5788 117.498 93.4793C115.598 95.3355 112.924 96.2637 109.477 96.2637ZM104.836 89.0375H108.217C109.631 89.0375 110.626 88.7503 111.2 88.1757C111.819 87.6011 112.128 86.6067 112.128 85.1924V73.5245C112.128 72.1103 111.819 71.1158 111.2 70.5413C110.626 69.9667 109.631 69.6794 108.217 69.6794H104.836C103.422 69.6794 102.427 69.9667 101.853 70.5413C101.278 71.1158 100.991 72.1103 100.991 73.5245V85.1924C100.991 86.6067 101.278 87.6011 101.853 88.1757C102.427 88.7503 103.422 89.0375 104.836 89.0375ZM134.058 96.2637H128.423C127.495 96.2637 127.031 95.7996 127.031 94.8715V51.0506C127.031 50.1225 127.495 49.6584 128.423 49.6584H134.058C134.986 49.6584 135.45 50.1225 135.45 51.0506V66.0332H135.715C136.688 63.6466 138.853 62.4533 142.212 62.4533H144.334C151.273 62.4533 154.742 66.0553 154.742 73.2594V94.8715C154.742 95.7996 154.256 96.2637 153.284 96.2637H147.715C146.787 96.2637 146.323 95.7996 146.323 94.8715V73.6571C146.323 72.2428 146.013 71.2484 145.394 70.6739C144.82 70.0551 143.825 69.7457 142.411 69.7457H140.025C136.975 69.7457 135.45 71.4252 135.45 74.7841V94.8715C135.45 95.7996 134.986 96.2637 134.058 96.2637ZM177.908 96.2637H172.008C168.516 96.2637 165.82 95.3355 163.92 93.4793C162.019 91.623 161.069 88.9491 161.069 85.4576V73.2594C161.069 69.7678 162.019 67.0939 163.92 65.2377C165.82 63.3814 168.516 62.4533 172.008 62.4533H177.908C181.355 62.4533 184.029 63.4035 185.93 65.304C187.874 67.1602 188.847 69.812 188.847 73.2594V85.4576C188.847 88.9049 187.874 91.5788 185.93 93.4793C184.029 95.3355 181.355 96.2637 177.908 96.2637ZM173.267 89.0375H176.648C178.063 89.0375 179.057 88.7503 179.632 88.1757C180.25 87.6011 180.56 86.6067 180.56 85.1924V73.5245C180.56 72.1103 180.25 71.1158 179.632 70.5413C179.057 69.9667 178.063 69.6794 176.648 69.6794H173.267C171.853 69.6794 170.859 69.9667 170.284 70.5413C169.709 71.1158 169.422 72.1103 169.422 73.5245V85.1924C169.422 86.6067 169.709 87.6011 170.284 88.1757C170.859 88.7503 171.853 89.0375 173.267 89.0375ZM211.638 96.2637H205.738C202.246 96.2637 199.55 95.3355 197.65 93.4793C195.749 91.623 194.799 88.9491 194.799 85.4576V73.2594C194.799 69.7678 195.749 67.0939 197.65 65.2377C199.55 63.3814 202.246 62.4533 205.738 62.4533H211.638C215.085 62.4533 217.759 63.4035 219.66 65.304C221.604 67.1602 222.577 69.812 222.577 73.2594V85.4576C222.577 88.9049 221.604 91.5788 219.66 93.4793C217.759 95.3355 215.085 96.2637 211.638 96.2637ZM206.997 89.0375H210.378C211.793 89.0375 212.787 88.7503 213.362 88.1757C213.98 87.6011 214.29 86.6067 214.29 85.1924V73.5245C214.29 72.1103 213.98 71.1158 213.362 70.5413C212.787 69.9667 211.793 69.6794 210.378 69.6794H206.997C205.583 69.6794 204.589 69.9667 204.014 70.5413C203.44 71.1158 203.152 72.1103 203.152 73.5245V85.1924C203.152 86.6067 203.44 87.6011 204.014 88.1757C204.589 88.7503 205.583 89.0375 206.997 89.0375ZM228.861 65.304V55.0283C228.861 54.1002 229.325 53.6361 230.253 53.6361H236.551C237.479 53.6361 237.943 54.1002 237.943 55.0283V65.304C237.943 67.0718 237.833 69.0607 237.612 71.2705C237.435 73.4362 237.302 75.0493 237.214 76.11C237.125 77.1708 237.037 78.0326 236.949 78.6955C236.86 79.3585 236.816 79.7121 236.816 79.7563C236.639 80.6844 236.131 81.1484 235.291 81.1484H231.512C230.673 81.1484 230.164 80.6844 229.988 79.7563C229.988 79.7121 229.943 79.3585 229.855 78.6955C229.767 78.0326 229.656 77.1708 229.524 76.11C229.435 75.0493 229.347 73.9002 229.258 72.6627C228.993 69.0386 228.861 66.5857 228.861 65.304ZM237.744 86.7172V94.8715C237.744 95.7996 237.302 96.2637 236.418 96.2637H230.584C229.7 96.2637 229.258 95.7775 229.258 94.8052V86.7835C229.258 85.8996 229.7 85.4576 230.584 85.4576H236.418C237.302 85.4576 237.744 85.8775 237.744 86.7172Z" fill="#A5381B"/>
<path d="M21.4749 90.2637H12.1936C11.2213 90.2637 10.6688 89.7996 10.5363 88.8715L3.4427 49.0283C3.31011 48.1002 3.77418 47.6361 4.83489 47.6361H11.7296C12.7461 47.6361 13.2764 48.1002 13.3206 49.0283L17.1657 81.7116H17.6298L23.9941 48.8294C24.1267 48.0339 24.5908 47.6361 25.3863 47.6361H32.8113C33.651 47.6361 34.1372 48.0118 34.2698 48.7631L40.7667 81.7116H41.2971L45.0759 49.0946C45.1201 48.1223 45.6504 47.6361 46.6669 47.6361H53.5616C54.6223 47.6361 55.0864 48.1223 54.9538 49.0946L47.7939 88.8715C47.6614 89.7996 47.1531 90.2637 46.2692 90.2637H36.9216C35.9935 90.2637 35.4631 89.7996 35.3305 88.8715L29.364 57.7792H29.0988L23.066 88.8715C22.8892 89.7996 22.3588 90.2637 21.4749 90.2637ZM75.7465 90.2637H69.8463C66.3548 90.2637 63.6588 89.3355 61.7583 87.4793C59.8579 85.623 58.9077 82.9491 58.9077 79.4576V67.2594C58.9077 63.7678 59.8579 61.0939 61.7583 59.2377C63.6588 57.3814 66.3548 56.4533 69.8463 56.4533H75.7465C79.1939 56.4533 81.8678 57.4035 83.7682 59.304C85.7129 61.1602 86.6852 63.812 86.6852 67.2594V79.4576C86.6852 82.9049 85.7129 85.5788 83.7682 87.4793C81.8678 89.3355 79.1939 90.2637 75.7465 90.2637ZM71.1059 83.0375H74.4869C75.9012 83.0375 76.8957 82.7503 77.4702 82.1757C78.089 81.6011 78.3983 80.6067 78.3983 79.1924V67.5245C78.3983 66.1103 78.089 65.1158 77.4702 64.5413C76.8957 63.9667 75.9012 63.6794 74.4869 63.6794H71.1059C69.6916 63.6794 68.6972 63.9667 68.1226 64.5413C67.5481 65.1158 67.2608 66.1103 67.2608 67.5245V79.1924C67.2608 80.6067 67.5481 81.6011 68.1226 82.1757C68.6972 82.7503 69.6916 83.0375 71.1059 83.0375ZM109.477 90.2637H103.576C100.085 90.2637 97.3889 89.3355 95.4884 87.4793C93.588 85.623 92.6377 82.9491 92.6377 79.4576V67.2594C92.6377 63.7678 93.588 61.0939 95.4884 59.2377C97.3889 57.3814 100.085 56.4533 103.576 56.4533H109.477C112.924 56.4533 115.598 57.4035 117.498 59.304C119.443 61.1602 120.415 63.812 120.415 67.2594V79.4576C120.415 82.9049 119.443 85.5788 117.498 87.4793C115.598 89.3355 112.924 90.2637 109.477 90.2637ZM104.836 83.0375H108.217C109.631 83.0375 110.626 82.7503 111.2 82.1757C111.819 81.6011 112.128 80.6067 112.128 79.1924V67.5245C112.128 66.1103 111.819 65.1158 111.2 64.5413C110.626 63.9667 109.631 63.6794 108.217 63.6794H104.836C103.422 63.6794 102.427 63.9667 101.853 64.5413C101.278 65.1158 100.991 66.1103 100.991 67.5245V79.1924C100.991 80.6067 101.278 81.6011 101.853 82.1757C102.427 82.7503 103.422 83.0375 104.836 83.0375ZM134.058 90.2637H128.423C127.495 90.2637 127.031 89.7996 127.031 88.8715V45.0506C127.031 44.1225 127.495 43.6584 128.423 43.6584H134.058C134.986 43.6584 135.45 44.1225 135.45 45.0506V60.0332H135.715C136.688 57.6466 138.853 56.4533 142.212 56.4533H144.334C151.273 56.4533 154.742 60.0553 154.742 67.2594V88.8715C154.742 89.7996 154.256 90.2637 153.284 90.2637H147.715C146.787 90.2637 146.323 89.7996 146.323 88.8715V67.6571C146.323 66.2428 146.013 65.2484 145.394 64.6739C144.82 64.0551 143.825 63.7457 142.411 63.7457H140.025C136.975 63.7457 135.45 65.4252 135.45 68.7841V88.8715C135.45 89.7996 134.986 90.2637 134.058 90.2637ZM177.908 90.2637H172.008C168.516 90.2637 165.82 89.3355 163.92 87.4793C162.019 85.623 161.069 82.9491 161.069 79.4576V67.2594C161.069 63.7678 162.019 61.0939 163.92 59.2377C165.82 57.3814 168.516 56.4533 172.008 56.4533H177.908C181.355 56.4533 184.029 57.4035 185.93 59.304C187.874 61.1602 188.847 63.812 188.847 67.2594V79.4576C188.847 82.9049 187.874 85.5788 185.93 87.4793C184.029 89.3355 181.355 90.2637 177.908 90.2637ZM173.267 83.0375H176.648C178.063 83.0375 179.057 82.7503 179.632 82.1757C180.25 81.6011 180.56 80.6067 180.56 79.1924V67.5245C180.56 66.1103 180.25 65.1158 179.632 64.5413C179.057 63.9667 178.063 63.6794 176.648 63.6794H173.267C171.853 63.6794 170.859 63.9667 170.284 64.5413C169.709 65.1158 169.422 66.1103 169.422 67.5245V79.1924C169.422 80.6067 169.709 81.6011 170.284 82.1757C170.859 82.7503 171.853 83.0375 173.267 83.0375ZM211.638 90.2637H205.738C202.246 90.2637 199.55 89.3355 197.65 87.4793C195.749 85.623 194.799 82.9491 194.799 79.4576V67.2594C194.799 63.7678 195.749 61.0939 197.65 59.2377C199.55 57.3814 202.246 56.4533 205.738 56.4533H211.638C215.085 56.4533 217.759 57.4035 219.66 59.304C221.604 61.1602 222.577 63.812 222.577 67.2594V79.4576C222.577 82.9049 221.604 85.5788 219.66 87.4793C217.759 89.3355 215.085 90.2637 211.638 90.2637ZM206.997 83.0375H210.378C211.793 83.0375 212.787 82.7503 213.362 82.1757C213.98 81.6011 214.29 80.6067 214.29 79.1924V67.5245C214.29 66.1103 213.98 65.1158 213.362 64.5413C212.787 63.9667 211.793 63.6794 210.378 63.6794H206.997C205.583 63.6794 204.589 63.9667 204.014 64.5413C203.44 65.1158 203.152 66.1103 203.152 67.5245V79.1924C203.152 80.6067 203.44 81.6011 204.014 82.1757C204.589 82.7503 205.583 83.0375 206.997 83.0375ZM228.861 59.304V49.0283C228.861 48.1002 229.325 47.6361 230.253 47.6361H236.551C237.479 47.6361 237.943 48.1002 237.943 49.0283V59.304C237.943 61.0718 237.833 63.0607 237.612 65.2705C237.435 67.4362 237.302 69.0493 237.214 70.11C237.125 71.1708 237.037 72.0326 236.949 72.6955C236.86 73.3585 236.816 73.7121 236.816 73.7563C236.639 74.6844 236.131 75.1484 235.291 75.1484H231.512C230.673 75.1484 230.164 74.6844 229.988 73.7563C229.988 73.7121 229.943 73.3585 229.855 72.6955C229.767 72.0326 229.656 71.1708 229.524 70.11C229.435 69.0493 229.347 67.9002 229.258 66.6627C228.993 63.0386 228.861 60.5857 228.861 59.304ZM237.744 80.7172V88.8715C237.744 89.7996 237.302 90.2637 236.418 90.2637H230.584C229.7 90.2637 229.258 89.7775 229.258 88.8052V80.7835C229.258 79.8996 229.7 79.4576 230.584 79.4576H236.418C237.302 79.4576 237.744 79.8775 237.744 80.7172Z" fill="#FFD979"/>
<path d="M21.4612 87.5977H12.1799C11.2076 87.5977 10.6552 87.1336 10.5226 86.2055L3.42903 46.3623C3.29644 45.4341 3.76051 44.9701 4.82122 44.9701H11.7159C12.7324 44.9701 13.2628 45.4341 13.307 46.3623L17.1521 79.0456H17.6161L23.9804 46.1634C24.113 45.3678 24.5771 44.9701 25.3726 44.9701H32.7976C33.6374 44.9701 34.1235 45.3457 34.2561 46.0971L40.753 79.0456H41.2834L45.0622 46.4286C45.1064 45.4562 45.6367 44.9701 46.6533 44.9701H53.5479C54.6086 44.9701 55.0727 45.4562 54.9401 46.4286L47.7803 86.2055C47.6477 87.1336 47.1394 87.5977 46.2555 87.5977H36.9079C35.9798 87.5977 35.4494 87.1336 35.3168 86.2055L29.3503 55.1132H29.0851L23.0523 86.2055C22.8755 87.1336 22.3452 87.5977 21.4612 87.5977ZM75.7329 87.5977H69.8326C66.3411 87.5977 63.6451 86.6695 61.7447 84.8133C59.8442 82.957 58.894 80.2831 58.894 76.7916V64.5933C58.894 61.1018 59.8442 58.4279 61.7447 56.5717C63.6451 54.7154 66.3411 53.7873 69.8326 53.7873H75.7329C79.1802 53.7873 81.8541 54.7375 83.7545 56.638C85.6992 58.4942 86.6715 61.146 86.6715 64.5933V76.7916C86.6715 80.2389 85.6992 82.9128 83.7545 84.8133C81.8541 86.6695 79.1802 87.5977 75.7329 87.5977ZM71.0922 80.3715H74.4733C75.8876 80.3715 76.882 80.0842 77.4565 79.5097C78.0753 78.9351 78.3847 77.9407 78.3847 76.5264V64.8585C78.3847 63.4442 78.0753 62.4498 77.4565 61.8753C76.882 61.3007 75.8876 61.0134 74.4733 61.0134H71.0922C69.6779 61.0134 68.6835 61.3007 68.109 61.8753C67.5344 62.4498 67.2471 63.4442 67.2471 64.8585V76.5264C67.2471 77.9407 67.5344 78.9351 68.109 79.5097C68.6835 80.0842 69.6779 80.3715 71.0922 80.3715ZM109.463 87.5977H103.563C100.071 87.5977 97.3752 86.6695 95.4747 84.8133C93.5743 82.957 92.6241 80.2831 92.6241 76.7916V64.5933C92.6241 61.1018 93.5743 58.4279 95.4747 56.5717C97.3752 54.7154 100.071 53.7873 103.563 53.7873H109.463C112.91 53.7873 115.584 54.7375 117.485 56.638C119.429 58.4942 120.402 61.146 120.402 64.5933V76.7916C120.402 80.2389 119.429 82.9128 117.485 84.8133C115.584 86.6695 112.91 87.5977 109.463 87.5977ZM104.822 80.3715H108.203C109.618 80.3715 110.612 80.0842 111.187 79.5097C111.805 78.9351 112.115 77.9407 112.115 76.5264V64.8585C112.115 63.4442 111.805 62.4498 111.187 61.8753C110.612 61.3007 109.618 61.0134 108.203 61.0134H104.822C103.408 61.0134 102.414 61.3007 101.839 61.8753C101.264 62.4498 100.977 63.4442 100.977 64.8585V76.5264C100.977 77.9407 101.264 78.9351 101.839 79.5097C102.414 80.0842 103.408 80.3715 104.822 80.3715ZM134.044 87.5977H128.409C127.481 87.5977 127.017 87.1336 127.017 86.2055V42.3846C127.017 41.4565 127.481 40.9924 128.409 40.9924H134.044C134.972 40.9924 135.437 41.4565 135.437 42.3846V57.3672H135.702C136.674 54.9806 138.84 53.7873 142.199 53.7873H144.32C151.259 53.7873 154.728 57.3893 154.728 64.5933V86.2055C154.728 87.1336 154.242 87.5977 153.27 87.5977H147.701C146.773 87.5977 146.309 87.1336 146.309 86.2055V64.9911C146.309 63.5768 146 62.5824 145.381 62.0079C144.806 61.3891 143.812 61.0797 142.397 61.0797H140.011C136.961 61.0797 135.437 62.7592 135.437 66.1181V86.2055C135.437 87.1336 134.972 87.5977 134.044 87.5977ZM177.894 87.5977H171.994C168.502 87.5977 165.806 86.6695 163.906 84.8133C162.006 82.957 161.055 80.2831 161.055 76.7916V64.5933C161.055 61.1018 162.006 58.4279 163.906 56.5717C165.806 54.7154 168.502 53.7873 171.994 53.7873H177.894C181.342 53.7873 184.015 54.7375 185.916 56.638C187.861 58.4942 188.833 61.146 188.833 64.5933V76.7916C188.833 80.2389 187.861 82.9128 185.916 84.8133C184.015 86.6695 181.342 87.5977 177.894 87.5977ZM173.254 80.3715H176.635C178.049 80.3715 179.043 80.0842 179.618 79.5097C180.237 78.9351 180.546 77.9407 180.546 76.5264V64.8585C180.546 63.4442 180.237 62.4498 179.618 61.8753C179.043 61.3007 178.049 61.0134 176.635 61.0134H173.254C171.839 61.0134 170.845 61.3007 170.27 61.8753C169.696 62.4498 169.408 63.4442 169.408 64.8585V76.5264C169.408 77.9407 169.696 78.9351 170.27 79.5097C170.845 80.0842 171.839 80.3715 173.254 80.3715ZM211.624 87.5977H205.724C202.233 87.5977 199.537 86.6695 197.636 84.8133C195.736 82.957 194.785 80.2831 194.785 76.7916V64.5933C194.785 61.1018 195.736 58.4279 197.636 56.5717C199.537 54.7154 202.233 53.7873 205.724 53.7873H211.624C215.072 53.7873 217.746 54.7375 219.646 56.638C221.591 58.4942 222.563 61.146 222.563 64.5933V76.7916C222.563 80.2389 221.591 82.9128 219.646 84.8133C217.746 86.6695 215.072 87.5977 211.624 87.5977ZM206.984 80.3715H210.365C211.779 80.3715 212.773 80.0842 213.348 79.5097C213.967 78.9351 214.276 77.9407 214.276 76.5264V64.8585C214.276 63.4442 213.967 62.4498 213.348 61.8753C212.773 61.3007 211.779 61.0134 210.365 61.0134H206.984C205.569 61.0134 204.575 61.3007 204 61.8753C203.426 62.4498 203.139 63.4442 203.139 64.8585V76.5264C203.139 77.9407 203.426 78.9351 204 79.5097C204.575 80.0842 205.569 80.3715 206.984 80.3715ZM228.847 56.638V46.3623C228.847 45.4341 229.311 44.9701 230.239 44.9701H236.537C237.465 44.9701 237.929 45.4341 237.929 46.3623V56.638C237.929 58.4058 237.819 60.3947 237.598 62.6045C237.421 64.7701 237.289 66.3833 237.2 67.444C237.112 68.5047 237.023 69.3666 236.935 70.0295C236.847 70.6925 236.802 71.046 236.802 71.0902C236.626 72.0184 236.117 72.4824 235.278 72.4824H231.499C230.659 72.4824 230.151 72.0184 229.974 71.0902C229.974 71.046 229.93 70.6925 229.841 70.0295C229.753 69.3666 229.643 68.5047 229.51 67.444C229.422 66.3833 229.333 65.2342 229.245 63.9967C228.98 60.3726 228.847 57.9197 228.847 56.638ZM237.731 78.0512V86.2055C237.731 87.1336 237.289 87.5977 236.405 87.5977H230.571C229.687 87.5977 229.245 87.1115 229.245 86.1392V78.1175C229.245 77.2336 229.687 76.7916 230.571 76.7916H236.405C237.289 76.7916 237.731 77.2115 237.731 78.0512Z" fill="#1B262C"/>
<path d="M21.4616 84.5977H12.1803C11.208 84.5977 10.6555 84.1336 10.5229 83.2055L3.4294 43.3623C3.29681 42.4341 3.76087 41.9701 4.82159 41.9701H11.7163C12.7328 41.9701 13.2631 42.4341 13.3073 43.3623L17.1524 76.0456H17.6165L23.9808 43.1634C24.1134 42.3678 24.5774 41.9701 25.373 41.9701H32.798C33.6377 41.9701 34.1239 42.3457 34.2565 43.0971L40.7534 76.0456H41.2837L45.0626 43.4286C45.1067 42.4562 45.6371 41.9701 46.6536 41.9701H53.5483C54.609 41.9701 55.0731 42.4562 54.9405 43.4286L47.7806 83.2055C47.6481 84.1336 47.1398 84.5977 46.2559 84.5977H36.9083C35.9802 84.5977 35.4498 84.1336 35.3172 83.2055L29.3507 52.1132H29.0855L23.0527 83.2055C22.8759 84.1336 22.3455 84.5977 21.4616 84.5977ZM75.7332 84.5977H69.833C66.3415 84.5977 63.6455 83.6695 61.745 81.8133C59.8446 79.957 58.8943 77.2831 58.8943 73.7916V61.5933C58.8943 58.1018 59.8446 55.4279 61.745 53.5717C63.6455 51.7154 66.3415 50.7873 69.833 50.7873H75.7332C79.1806 50.7873 81.8545 51.7375 83.7549 53.638C85.6996 55.4942 86.6719 58.146 86.6719 61.5933V73.7916C86.6719 77.2389 85.6996 79.9128 83.7549 81.8133C81.8545 83.6695 79.1806 84.5977 75.7332 84.5977ZM71.0926 77.3715H74.4736C75.8879 77.3715 76.8823 77.0842 77.4569 76.5097C78.0757 75.9351 78.385 74.9407 78.385 73.5264V61.8585C78.385 60.4442 78.0757 59.4498 77.4569 58.8753C76.8823 58.3007 75.8879 58.0134 74.4736 58.0134H71.0926C69.6783 58.0134 68.6839 58.3007 68.1093 58.8753C67.5348 59.4498 67.2475 60.4442 67.2475 61.8585V73.5264C67.2475 74.9407 67.5348 75.9351 68.1093 76.5097C68.6839 77.0842 69.6783 77.3715 71.0926 77.3715ZM109.463 84.5977H103.563C100.072 84.5977 97.3756 83.6695 95.4751 81.8133C93.5747 79.957 92.6244 77.2831 92.6244 73.7916V61.5933C92.6244 58.1018 93.5747 55.4279 95.4751 53.5717C97.3756 51.7154 100.072 50.7873 103.563 50.7873H109.463C112.911 50.7873 115.585 51.7375 117.485 53.638C119.43 55.4942 120.402 58.146 120.402 61.5933V73.7916C120.402 77.2389 119.43 79.9128 117.485 81.8133C115.585 83.6695 112.911 84.5977 109.463 84.5977ZM104.823 77.3715H108.204C109.618 77.3715 110.612 77.0842 111.187 76.5097C111.806 75.9351 112.115 74.9407 112.115 73.5264V61.8585C112.115 60.4442 111.806 59.4498 111.187 58.8753C110.612 58.3007 109.618 58.0134 108.204 58.0134H104.823C103.408 58.0134 102.414 58.3007 101.839 58.8753C101.265 59.4498 100.978 60.4442 100.978 61.8585V73.5264C100.978 74.9407 101.265 75.9351 101.839 76.5097C102.414 77.0842 103.408 77.3715 104.823 77.3715ZM134.045 84.5977H128.41C127.482 84.5977 127.017 84.1336 127.017 83.2055V39.3846C127.017 38.4565 127.482 37.9924 128.41 37.9924H134.045C134.973 37.9924 135.437 38.4565 135.437 39.3846V54.3672H135.702C136.674 51.9806 138.84 50.7873 142.199 50.7873H144.32C151.259 50.7873 154.729 54.3893 154.729 61.5933V83.2055C154.729 84.1336 154.243 84.5977 153.27 84.5977H147.701C146.773 84.5977 146.309 84.1336 146.309 83.2055V61.9911C146.309 60.5768 146 59.5824 145.381 59.0079C144.807 58.3891 143.812 58.0797 142.398 58.0797H140.011C136.962 58.0797 135.437 59.7592 135.437 63.1181V83.2055C135.437 84.1336 134.973 84.5977 134.045 84.5977ZM177.895 84.5977H171.994C168.503 84.5977 165.807 83.6695 163.906 81.8133C162.006 79.957 161.056 77.2831 161.056 73.7916V61.5933C161.056 58.1018 162.006 55.4279 163.906 53.5717C165.807 51.7154 168.503 50.7873 171.994 50.7873H177.895C181.342 50.7873 184.016 51.7375 185.916 53.638C187.861 55.4942 188.833 58.146 188.833 61.5933V73.7916C188.833 77.2389 187.861 79.9128 185.916 81.8133C184.016 83.6695 181.342 84.5977 177.895 84.5977ZM173.254 77.3715H176.635C178.049 77.3715 179.044 77.0842 179.618 76.5097C180.237 75.9351 180.546 74.9407 180.546 73.5264V61.8585C180.546 60.4442 180.237 59.4498 179.618 58.8753C179.044 58.3007 178.049 58.0134 176.635 58.0134H173.254C171.84 58.0134 170.845 58.3007 170.271 58.8753C169.696 59.4498 169.409 60.4442 169.409 61.8585V73.5264C169.409 74.9407 169.696 75.9351 170.271 76.5097C170.845 77.0842 171.84 77.3715 173.254 77.3715ZM211.625 84.5977H205.724C202.233 84.5977 199.537 83.6695 197.636 81.8133C195.736 79.957 194.786 77.2831 194.786 73.7916V61.5933C194.786 58.1018 195.736 55.4279 197.636 53.5717C199.537 51.7154 202.233 50.7873 205.724 50.7873H211.625C215.072 50.7873 217.746 51.7375 219.646 53.638C221.591 55.4942 222.563 58.146 222.563 61.5933V73.7916C222.563 77.2389 221.591 79.9128 219.646 81.8133C217.746 83.6695 215.072 84.5977 211.625 84.5977ZM206.984 77.3715H210.365C211.779 77.3715 212.774 77.0842 213.348 76.5097C213.967 75.9351 214.276 74.9407 214.276 73.5264V61.8585C214.276 60.4442 213.967 59.4498 213.348 58.8753C212.774 58.3007 211.779 58.0134 210.365 58.0134H206.984C205.57 58.0134 204.575 58.3007 204.001 58.8753C203.426 59.4498 203.139 60.4442 203.139 61.8585V73.5264C203.139 74.9407 203.426 75.9351 204.001 76.5097C204.575 77.0842 205.57 77.3715 206.984 77.3715ZM228.847 53.638V43.3623C228.847 42.4341 229.311 41.9701 230.24 41.9701H236.538C237.466 41.9701 237.93 42.4341 237.93 43.3623V53.638C237.93 55.4058 237.819 57.3947 237.598 59.6045C237.421 61.7701 237.289 63.3833 237.201 64.444C237.112 65.5047 237.024 66.3666 236.935 67.0295C236.847 67.6925 236.803 68.046 236.803 68.0902C236.626 69.0184 236.118 69.4824 235.278 69.4824H231.499C230.659 69.4824 230.151 69.0184 229.974 68.0902C229.974 68.046 229.93 67.6925 229.842 67.0295C229.753 66.3666 229.643 65.5047 229.51 64.444C229.422 63.3833 229.334 62.2342 229.245 60.9967C228.98 57.3726 228.847 54.9197 228.847 53.638ZM237.731 75.0512V83.2055C237.731 84.1336 237.289 84.5977 236.405 84.5977H230.571C229.687 84.5977 229.245 84.1115 229.245 83.1392V75.1175C229.245 74.2336 229.687 73.7916 230.571 73.7916H236.405C237.289 73.7916 237.731 74.2115 237.731 75.0512Z" fill="white"/>
</svg>
