<svg width="388" height="321" viewBox="0 0 388 321" fill="none" xmlns="http://www.w3.org/2000/svg">
<g opacity="0.2">
<path d="M194 320.61C301.083 320.61 387.89 315.542 387.89 309.29C387.89 303.038 301.083 297.97 194 297.97C86.9176 297.97 0.110107 303.038 0.110107 309.29C0.110107 315.542 86.9176 320.61 194 320.61Z" fill="#F5F5F5"/>
<path d="M354.45 277.77C354.6 276.75 358.1 252.6 351.09 244.26C349.54 242.41 347.58 241.45 345.27 241.39C331.12 241.06 329.18 252.43 329.16 252.54L330.83 252.8C330.89 252.39 332.57 242.77 345.23 243.08C347.06 243.12 348.56 243.87 349.8 245.35C356.33 253.11 352.82 277.28 352.78 277.52L354.45 277.77Z" fill="#2EB19F"/>
<path d="M355.3 276.67L356.99 276.62C356.98 276.4 356.43 254.37 367.28 249.82C377.92 245.36 382.7 254.53 382.9 254.92L384.41 254.16C384.35 254.05 378.74 243.18 366.63 248.26C354.71 253.25 355.27 275.71 355.3 276.67Z" fill="#2EB19F"/>
<path d="M355.25 278.4C355.25 278.05 355.35 243.21 362.14 233.02C368.66 223.24 379.18 227.84 379.63 228.04L380.33 226.5C380.21 226.44 368.07 221.09 360.74 232.08C353.67 242.69 353.56 276.94 353.56 278.4H355.25Z" fill="#2EB19F"/>
<path d="M343.24 242.23C343.24 242.23 349.42 244.51 347.58 249.89C345.74 255.27 326.2 264.12 326.2 264.12C326.2 264.12 318.02 256.62 325.53 244.42C333.05 232.21 343.07 238.38 343.24 242.23Z" fill="#407BFF"/>
<path d="M362.45 231.18C362.45 231.18 358.06 230.71 358.42 228.04C358.77 225.37 375.47 218.49 385.33 229.61C385.33 229.61 379.02 240.45 369.9 240.59C360.78 240.73 362.45 231.18 362.45 231.18Z" fill="#407BFF"/>
<path d="M366.96 249.03C366.96 249.03 363.93 246.59 367.2 245.39C370.47 244.2 386.5 244.54 386.67 260.42C386.67 260.42 368 263.52 365.69 257.47C363.38 251.42 366.96 249.03 366.96 249.03Z" fill="#407BFF"/>
<path d="M343.24 242.23C343.24 242.23 349.42 244.51 347.58 249.89C345.74 255.27 326.2 264.12 326.2 264.12C326.2 264.12 318.02 256.62 325.53 244.42C333.05 232.21 343.07 238.38 343.24 242.23Z" fill="#258777"/>
<path d="M362.45 231.18C362.45 231.18 358.06 230.71 358.42 228.04C358.77 225.37 375.47 218.49 385.33 229.61C385.33 229.61 379.02 240.45 369.9 240.59C360.78 240.73 362.45 231.18 362.45 231.18Z" fill="#258777"/>
<path d="M366.96 249.03C366.96 249.03 363.93 246.59 367.2 245.39C370.47 244.2 386.5 244.54 386.67 260.42C386.67 260.42 368 263.52 365.69 257.47C363.38 251.42 366.96 249.03 366.96 249.03Z" fill="#258777"/>
<path d="M339.92 310.12H368.9L372.02 278.4H336.8L339.92 310.12Z" fill="#407BFF"/>
<path d="M339.92 310.12H368.9L372.02 278.4H336.8L339.92 310.12Z" fill="#AEE6DD"/>
<path d="M335.25 281.891H373.57V274.891H335.25V281.891Z" fill="#407BFF"/>
<path d="M335.25 281.891H373.57V274.891H335.25V281.891Z" fill="#2EB19F"/>
<path d="M307.12 287.38L278.31 284.55V244.06H266.89V284.54L237.96 287.38C235.09 287.66 232.9 290.08 232.9 292.96V297.29H271.48H273.6H312.18V292.96C312.18 290.08 310 287.66 307.12 287.38Z" fill="#263238"/>
<path opacity="0.2" d="M307.12 287.38L278.31 284.55V244.06H266.89V284.54L237.96 287.38C235.09 287.66 232.9 290.08 232.9 292.96V297.29H271.48H273.6H312.18V292.96C312.18 290.08 310 287.66 307.12 287.38Z" fill="white"/>
<path d="M235.95 310.13C240.076 310.13 243.42 306.786 243.42 302.66C243.42 298.534 240.076 295.19 235.95 295.19C231.824 295.19 228.48 298.534 228.48 302.66C228.48 306.786 231.824 310.13 235.95 310.13Z" fill="#263238"/>
<path d="M309.14 310.13C313.265 310.13 316.61 306.786 316.61 302.66C316.61 298.534 313.265 295.19 309.14 295.19C305.014 295.19 301.67 298.534 301.67 302.66C301.67 306.786 305.014 310.13 309.14 310.13Z" fill="#263238"/>
<path d="M276.14 252.76H269.05C266.77 252.76 264.92 250.91 264.92 248.63V216.7H280.27V248.63C280.28 250.91 278.43 252.76 276.14 252.76Z" fill="#263238"/>
<path opacity="0.3" d="M276.14 252.76H269.05C266.77 252.76 264.92 250.91 264.92 248.63V216.7H280.27V248.63C280.28 250.91 278.43 252.76 276.14 252.76Z" fill="white"/>
<path d="M299.9 153.4C299.9 153.4 302.08 207.4 287.04 216.69H304.2C304.2 216.69 317.5 198.29 313.74 153.4H299.9Z" fill="#263238"/>
<path opacity="0.3" d="M299.9 153.4C299.9 153.4 302.08 207.4 287.04 216.69H304.2C304.2 216.69 317.5 198.29 313.74 153.4H299.9Z" fill="white"/>
<path d="M238.13 209.14H305.05C307.81 209.14 310.05 211.38 310.05 214.14V220.83H233.13V214.14C233.13 211.38 235.37 209.14 238.13 209.14Z" fill="#263238"/>
<path d="M231.94 214.99H311.25C312.36 214.99 313.26 215.89 313.26 217V218.82C313.26 219.93 312.36 220.83 311.25 220.83H231.94C230.83 220.83 229.93 219.93 229.93 218.82V217C229.93 215.89 230.83 214.99 231.94 214.99Z" fill="#263238"/>
<path opacity="0.6" d="M231.94 214.99H311.25C312.36 214.99 313.26 215.89 313.26 217V218.82C313.26 219.93 312.36 220.83 311.25 220.83H231.94C230.83 220.83 229.93 219.93 229.93 218.82V217C229.93 215.89 230.83 214.99 231.94 214.99Z" fill="white"/>
<path d="M317.95 164.37H290.46C282.41 164.37 275.88 157.84 275.88 149.79V139.04C275.88 130.99 282.41 124.46 290.46 124.46H317.95C326 124.46 332.53 130.99 332.53 139.04V149.79C332.54 157.84 326.01 164.37 317.95 164.37Z" fill="#263238"/>
<path d="M207.05 80.33L201.56 65.86C201.56 65.86 203.91 63.68 202.3 61.47C200.69 59.26 190.56 53.04 188.71 54.14C186.86 55.23 182.77 59.35 184.98 61.64C187.2 63.93 197.01 67.74 197.01 67.74L201.86 86.73L207.05 80.33Z" fill="#E4897B"/>
<path d="M245.38 107.84C245.38 107.84 220.41 102.71 217.7 101.48C214.99 100.25 204.94 70.82 204.94 70.82L197.24 74.42C197.24 74.42 203.44 103.96 209.78 110.99C216.12 118.01 243.17 123.96 243.17 123.96L245.38 107.84Z" fill="#407BFF"/>
<path d="M243.17 123.95C243.17 123.95 243.01 123.92 242.71 123.84C241.34 123.53 237.08 122.53 232.01 121.04C223.78 118.65 213.4 114.99 209.78 110.98C203.45 103.95 197.24 74.41 197.24 74.41L204.94 70.81C204.94 70.81 214.99 100.25 217.71 101.47C220.42 102.69 245.38 107.82 245.38 107.82L243.17 123.95Z" fill="#258777"/>
<path opacity="0.2" d="M205.07 70.24L206.66 73.31L196.76 76.72L197.14 72.97L205.07 70.24Z" fill="black"/>
<path opacity="0.2" d="M243.36 123.54C241.97 123.34 237.64 122.67 232.47 121.58C235.42 116.49 244.06 113.87 244.06 113.87L243.36 123.54Z" fill="black"/>
<path d="M280.58 87.46C280.58 87.46 282.05 101.29 276.92 104.69C271.8 108.09 246.59 104.11 243.73 98.54C240.87 92.98 251.63 77.87 251.63 77.87L280.58 87.46Z" fill="#263238"/>
<path d="M178.59 269.45L185.17 271.03L188.5 261.95L191.52 253.69L184.03 250.5L181.15 260.52L178.59 269.45Z" fill="#E4897B"/>
<path opacity="0.2" d="M181.15 260.52L188.5 261.95L191.52 253.69L184.03 250.5L181.15 260.52Z" fill="black"/>
<path d="M181.81 255.73L190.93 259.12C190.93 259.12 215.26 198.29 220.26 198.08C225.26 197.87 276.17 221.27 288.93 208.29C301.69 195.32 283.24 164.05 283.24 164.05C283.24 164.05 252.55 159.67 250.24 166.6C249.79 167.94 249.3 170.57 248.94 172.82C248.59 174.94 248.35 176.72 248.35 176.72C248.35 176.72 248.34 176.72 248.33 176.71C247.38 176.47 216.57 168.52 204.43 176.72C192.1 185.06 181.81 255.73 181.81 255.73Z" fill="#407BFF"/>
<path d="M181.81 255.73L190.93 259.12C190.93 259.12 215.26 198.29 220.26 198.08C225.26 197.87 276.17 221.27 288.93 208.29C301.69 195.32 283.24 164.05 283.24 164.05C283.24 164.05 252.55 159.67 250.24 166.6C249.79 167.94 249.3 170.57 248.94 172.82C248.59 174.94 248.35 176.72 248.35 176.72C248.35 176.72 248.34 176.72 248.33 176.71C247.38 176.47 216.57 168.52 204.43 176.72C192.1 185.06 181.81 255.73 181.81 255.73Z" fill="#AEE6DD"/>
<path d="M234.27 295.39L240.82 293.72L239.56 284.32L238.39 275.69L230.29 276.42L232.39 286.47L234.27 295.39Z" fill="#E4897B"/>
<path opacity="0.2" d="M232.44 286.67L239.6 284.5L238.41 275.78L230.3 276.47L232.44 286.67Z" fill="black"/>
<path d="M194.7 255.74L181.41 251.23L180.85 256.67L190.92 260.23L194.7 255.74Z" fill="#2EB19F"/>
<path d="M266.89 211.41C266.89 211.41 264.81 211.46 232.62 209.96C232.62 209.96 237.43 250.21 240.06 280.33L230.43 281.97C230.43 281.97 207.43 217.46 207.68 207.21C207.93 196.96 219.68 193.96 219.68 193.96C219.68 193.96 242.61 207.21 266.89 211.41Z" fill="#407BFF"/>
<path opacity="0.6" d="M266.89 211.41C266.89 211.41 264.81 211.46 232.62 209.96C232.62 209.96 237.43 250.21 240.06 280.33L230.43 281.97C230.43 281.97 207.43 217.46 207.68 207.21C207.93 196.96 219.68 193.96 219.68 193.96C219.68 193.96 242.61 207.21 266.89 211.41Z" fill="white"/>
<path d="M266.89 211.41C266.89 211.41 264.81 211.46 232.62 209.96C232.62 209.96 237.43 250.21 240.06 280.33L230.43 281.97C230.43 281.97 207.43 217.46 207.68 207.21C207.93 196.96 219.68 193.96 219.68 193.96C219.68 193.96 242.61 207.21 266.89 211.41Z" fill="#65CEBA"/>
<path d="M241.46 277.41L228.23 278.92L230.79 284.1L241.5 282.73L241.46 277.41Z" fill="#2EB19F"/>
<path opacity="0.1" d="M248.35 176.72L266.3 180.46C266.3 180.46 256.38 174.98 248.94 172.82C248.59 174.94 248.35 176.72 248.35 176.72Z" fill="black"/>
<path d="M282.5 159.28L283.24 164.05L250.24 166.6L249.36 160.95L282.5 159.28Z" fill="#263238"/>
<path opacity="0.2" d="M282.5 159.28L283.24 164.05L250.24 166.6L249.36 160.95L282.5 159.28Z" fill="black"/>
<path d="M272.072 167.265L273.704 167.097L272.85 158.79L271.218 158.958L272.072 167.265Z" fill="#407BFF"/>
<path d="M257.467 166.43L264.692 165.966L264.34 160.487L257.115 160.951L257.467 166.43Z" fill="white"/>
<path d="M251.858 168.166L253.489 167.998L252.635 159.692L251.003 159.86L251.858 168.166Z" fill="#407BFF"/>
<path opacity="0.6" d="M272.072 167.265L273.704 167.097L272.85 158.79L271.218 158.958L272.072 167.265Z" fill="white"/>
<path opacity="0.6" d="M251.858 168.166L253.489 167.998L252.635 159.692L251.003 159.86L251.858 168.166Z" fill="white"/>
<path d="M244.78 107.39C244.78 107.39 253.2 110.03 263.79 109.49C274.38 108.95 287.04 114.09 287.04 114.09L282.49 159.28L249.36 160.95C249.36 160.95 238.23 123.21 244.78 107.39Z" fill="#2EB19F"/>
<path d="M250.11 81.86C250.11 81.86 251.97 59.91 270.32 67.89C293.35 77.9 275.04 104.63 263.79 99.14C252.54 93.65 250.11 81.86 250.11 81.86Z" fill="#263238"/>
<path opacity="0.2" d="M255.25 110.71L255.78 123.11L259.89 117.28C259.89 117.28 258.42 131 259.28 138.46C259.28 138.46 260.07 125.07 261.93 117.28L266.3 123.11L272.57 110.79C272.58 110.79 262.42 107.14 255.25 110.71Z" fill="black"/>
<path d="M260.93 113.02L270.42 110.34C264.57 106.32 267.52 97.32 267.52 97.32L258.12 100.62C258.62 102.18 258.94 103.5 259.13 104.64C260.11 110.5 257.46 110.97 257.46 110.97L260.93 113.02Z" fill="#E4897B"/>
<path opacity="0.2" d="M258.12 100.62C258.62 102.18 258.94 103.5 259.13 104.64C263.63 102.84 267.52 97.32 267.52 97.32L258.12 100.62Z" fill="black"/>
<path d="M264.26 72.5C255.94 70.66 252.27 74.52 249.76 82.96C246.63 93.51 247.32 101.65 258.23 101.66C273.05 101.69 278.08 75.56 264.26 72.5Z" fill="#E4897B"/>
<path d="M255.24 83.69C255.24 83.69 253.61 85.61 252.05 86.61C252.05 86.61 252.51 87.9 254.04 88.04L255.24 83.69Z" fill="#DE5753"/>
<path d="M260.49 84.13C260.32 84.81 260.55 85.45 261.01 85.56C261.46 85.67 261.97 85.21 262.13 84.53C262.3 83.85 262.07 83.21 261.61 83.1C261.16 82.99 260.66 83.45 260.49 84.13Z" fill="#263238"/>
<path d="M261.79 83.18L260.45 82.24C260.46 82.24 260.89 83.67 261.79 83.18Z" fill="#263238"/>
<path d="M252.07 81.91C251.9 82.59 252.13 83.23 252.59 83.34C253.04 83.45 253.55 82.99 253.71 82.31C253.88 81.63 253.65 80.99 253.19 80.88C252.74 80.77 252.24 81.23 252.07 81.91Z" fill="#263238"/>
<path d="M253.37 80.96L252.03 80.02C252.04 80.02 252.47 81.44 253.37 80.96Z" fill="#263238"/>
<path d="M261.84 78.41C261.84 78.41 264.25 78.62 265.17 80.47" stroke="#263238" stroke-width="0.7247" stroke-miterlimit="10" stroke-linecap="round" stroke-linejoin="round"/>
<path d="M255.87 76.72C255.87 76.72 254.52 75.85 252.4 76.67" stroke="#263238" stroke-width="0.7247" stroke-miterlimit="10" stroke-linecap="round" stroke-linejoin="round"/>
<path d="M270.25 88.54C270.25 88.54 267.87 80.84 269.63 75.69C269.63 75.69 254.63 65.3 250.11 81.86C250.11 81.86 251.79 66.64 266.17 69.47C280.53 72.3 275.86 93.22 267.09 97.82C267.08 97.83 271.71 93.35 270.25 88.54Z" fill="#263238"/>
<path d="M268.5 90C268.85 88.67 270.74 86.71 273.17 87.53C275.69 88.38 275.74 93.95 269.05 93.8C268.08 93.78 267.76 92.77 268.5 90Z" fill="#E4897B"/>
<path d="M252.55 91.19C252.84 92.29 252.98 94.28 252.98 94.28C253.16 94.3 253.35 94.32 253.53 94.33C256.01 94.54 257.24 93.82 257.84 92.95C258.17 92.48 258.3 91.95 258.36 91.52C258.43 91.02 258.36 90.65 258.36 90.65C256.98 91.33 254.64 91.31 253.4 91.24C252.88 91.23 252.55 91.19 252.55 91.19Z" fill="#263238"/>
<path d="M253.4 91.25L253.55 92.16C255.89 92.35 257.57 92.18 258.36 91.53C258.43 91.03 258.36 90.66 258.36 90.66C256.98 91.33 254.65 91.31 253.4 91.25Z" fill="white"/>
<path d="M253.53 94.34C256.01 94.55 257.24 93.83 257.84 92.96C256.99 92.92 255.96 92.97 255.03 93.27C254.33 93.5 253.86 93.91 253.53 94.34Z" fill="#DE5753"/>
<path d="M264.29 73.17C264.29 73.17 264.61 87.61 273.27 89.34C281.93 91.07 272.46 70.79 272.46 70.79C272.46 70.79 259.56 62.37 250.97 68.3C242.37 74.24 250.1 81.87 250.1 81.87C250.1 81.87 251.92 71.14 264.29 73.17Z" fill="#263238"/>
<path d="M264.59 72.21C264.59 72.21 261.5 81.34 267.6 86.13" stroke="#263238" stroke-width="0.5" stroke-miterlimit="10" stroke-linecap="round" stroke-linejoin="round"/>
<path d="M275.8 92.3C274.7 95.24 271.87 96.89 269.48 95.99C267.09 95.09 266.05 91.99 267.15 89.05C268.25 86.11 271.08 84.46 273.47 85.36C275.86 86.26 276.9 89.37 275.8 92.3Z" fill="#407BFF"/>
<path d="M275.8 92.3C274.7 95.24 271.87 96.89 269.48 95.99C267.09 95.09 266.05 91.99 267.15 89.05C268.25 86.11 271.08 84.46 273.47 85.36C275.86 86.26 276.9 89.37 275.8 92.3Z" fill="#258777"/>
<path d="M273.04 87.49C273.04 87.49 276.63 71.42 268.58 67.21C268.58 67.21 270.26 67.44 271.3 67.74C272.34 68.04 278.77 74.56 275.52 89L273.04 87.49Z" fill="#407BFF"/>
<path d="M273.04 87.49C273.04 87.49 276.63 71.42 268.58 67.21C268.58 67.21 270.26 67.44 271.3 67.74C272.34 68.04 278.77 74.56 275.52 89L273.04 87.49Z" fill="#258777"/>
<path d="M257.95 96.69C257.75 96.66 257.55 96.6301 257.35 96.6001L257.51 95.61C264.76 96.79 270.15 92.96 270.2 92.92L270.79 93.73C270.57 93.89 265.32 97.66 257.95 96.69Z" fill="#407BFF"/>
<path d="M257.95 96.69C257.75 96.66 257.55 96.6301 257.35 96.6001L257.51 95.61C264.76 96.79 270.15 92.96 270.2 92.92L270.79 93.73C270.57 93.89 265.32 97.66 257.95 96.69Z" fill="#258777"/>
<path d="M275.46 91.9C274.73 93.84 272.86 94.93 271.28 94.34C269.7 93.75 269.01 91.69 269.74 89.75C270.47 87.81 272.34 86.72 273.92 87.31C275.5 87.91 276.19 89.96 275.46 91.9Z" fill="#407BFF"/>
<path d="M257.06 97.02L256.26 96.91C255.66 96.83 255.24 96.29 255.32 95.69C255.4 95.09 255.94 94.67 256.54 94.75L257.34 94.86C257.94 94.94 258.36 95.48 258.28 96.08C258.2 96.67 257.65 97.09 257.06 97.02Z" fill="#407BFF"/>
<path d="M257.06 97.02L256.26 96.91C255.66 96.83 255.24 96.29 255.32 95.69C255.4 95.09 255.94 94.67 256.54 94.75L257.34 94.86C257.94 94.94 258.36 95.48 258.28 96.08C258.2 96.67 257.65 97.09 257.06 97.02Z" fill="#258777"/>
<path d="M267.87 106.9L261.93 112.73L264.31 119.89L272.58 110.79L267.87 106.9Z" fill="#258777"/>
<path d="M259.28 108.12L260.24 112.61L257.17 118.96L255.25 110.71L259.28 108.12Z" fill="#258777"/>
<path d="M266.6 111.96L270.05 99.33C270.05 99.33 268.38 96.18 268.74 95.53C269.1 94.87 270.9 86.39 272.18 85.47C273.46 84.55 278.72 86.12 279.26 86.98C279.79 87.84 274.22 99.33 274.22 99.33L272.19 113.01L266.6 111.96Z" fill="#E4897B"/>
<path d="M287.04 114.08C296.53 123.8 277.5 145.82 266.6 144.88C255.7 143.94 266.87 104.02 266.87 104.02L273.85 105.17C273.85 105.17 271.4 122.45 272.17 123.8C272.95 125.16 283.85 110.82 287.04 114.08Z" fill="#407BFF"/>
<path d="M287.04 114.08C296.53 123.8 277.5 145.82 266.6 144.88C255.7 143.94 266.87 104.02 266.87 104.02L273.85 105.17C273.85 105.17 271.4 122.45 272.17 123.8C272.95 125.16 283.85 110.82 287.04 114.08Z" fill="#258777"/>
<path opacity="0.2" d="M266.3 102.74L265.27 106.04L275 106.9V104.02L266.3 102.74Z" fill="black"/>
<path opacity="0.6" d="M251.56 137.87H247.62C247.18 137.87 246.83 137.52 246.83 137.08V129.64C246.83 129.2 247.18 128.85 247.62 128.85H251.56C252 128.85 252.35 129.2 252.35 129.64V137.08C252.35 137.52 251.99 137.87 251.56 137.87Z" fill="white"/>
<path opacity="0.2" d="M251.63 129.45H247.15V135.58H251.63V129.45Z" fill="black"/>
<path d="M249.99 126.68H249V130.29H249.99V126.68Z" fill="#263238"/>
<path d="M167.71 282.22C168.71 281.76 169.79 281.49 170.88 281.41C170.88 281.41 174.68 279.17 178.44 270.49L182.67 270.47C184.14 270.49 185.43 271.42 185.92 272.8C185.99 272.99 186.03 273.19 186.04 273.39C186 274.41 185.89 275.43 185.71 276.44C185.33 279.61 183.24 286.4 183.24 286.4L182.52 286.22L183.82 279.9C184.25 277.75 182 279.83 180.95 281.99C179.9 284.15 178.3 286.33 173.62 285.26C168.19 283.98 166 283.2 167.71 282.22Z" fill="#2EB19F"/>
<path d="M179.21 268.22C179.21 268.22 173.92 279.28 170.88 281.42C170.88 281.42 174.96 283.85 179.21 278.44C184.7 271.44 186.05 273.39 186.05 273.39C186.05 273.39 185.82 270.99 185.39 269.82C184.56 267.55 179.21 268.22 179.21 268.22Z" fill="#E4897B"/>
<path d="M225.93 308.57C226.79 307.89 227.77 307.37 228.82 307.03C228.82 307.03 231.98 303.96 233.58 294.63L237.69 293.6C239.12 293.27 240.6 293.86 241.4 295.09C241.51 295.26 241.6 295.44 241.66 295.63C241.86 296.63 242 297.65 242.07 298.67C242.45 301.84 242.03 308.93 242.03 308.93L241.29 308.92L241.06 302.47C240.97 300.28 239.27 302.83 238.77 305.18C238.27 307.53 237.23 310.03 232.43 310.1C226.82 310.17 224.5 309.93 225.93 308.57Z" fill="#2EB19F"/>
<path d="M233.78 292.24C233.78 292.24 231.27 304.24 228.82 307.03C228.82 307.03 233.36 308.43 236.2 302.16C239.88 294.05 241.65 295.64 241.65 295.64C241.65 295.64 240.86 293.37 240.16 292.33C238.82 290.33 233.78 292.24 233.78 292.24Z" fill="#E4897B"/>
<path d="M326.76 75.27H291.84C289.04 75.27 286.77 73 286.77 70.2V55.26C286.77 52.46 289.04 50.19 291.84 50.19H326.76C329.56 50.19 331.83 52.46 331.83 55.26V70.2C331.83 73 329.56 75.27 326.76 75.27Z" fill="#258777"/>
<path d="M298.85 72.41L288.33 86.71L305.3 73.37L298.85 72.41Z" fill="#258777"/>
<path d="M299.24 62.73C299.24 63.54 298.58 64.21 297.76 64.21C296.95 64.21 296.28 63.55 296.28 62.73C296.28 61.92 296.94 61.25 297.76 61.25C298.58 61.26 299.24 61.92 299.24 62.73Z" fill="white"/>
<path d="M306.93 62.73C306.93 63.54 306.27 64.21 305.45 64.21C304.63 64.21 303.97 63.55 303.97 62.73C303.97 61.92 304.63 61.25 305.45 61.25C306.27 61.25 306.93 61.92 306.93 62.73Z" fill="white"/>
<path d="M314.62 62.73C314.62 63.54 313.96 64.21 313.14 64.21C312.33 64.21 311.66 63.55 311.66 62.73C311.66 61.92 312.32 61.25 313.14 61.25C313.96 61.26 314.62 61.92 314.62 62.73Z" fill="white"/>
<path d="M322.31 62.73C322.31 63.54 321.65 64.21 320.83 64.21C320.02 64.21 319.35 63.55 319.35 62.73C319.35 61.92 320.01 61.25 320.83 61.25C321.65 61.26 322.31 61.92 322.31 62.73Z" fill="white"/>
<path d="M186.43 55.55L161.53 42.14C160.86 41.78 160.6 40.94 160.97 40.26L168.91 25.52C169.27 24.85 170.11 24.59 170.79 24.96L195.69 38.37C196.36 38.73 196.62 39.57 196.25 40.25L188.31 54.99C187.94 55.67 187.1 55.92 186.43 55.55Z" fill="#407BFF"/>
<path d="M186.43 55.55L161.53 42.14C160.86 41.78 160.6 40.94 160.97 40.26L168.91 25.52C169.27 24.85 170.11 24.59 170.79 24.96L195.69 38.37C196.36 38.73 196.62 39.57 196.25 40.25L188.31 54.99C187.94 55.67 187.1 55.92 186.43 55.55Z" fill="#9DCEC4"/>
<path d="M168.25 26.74L176.04 41.29C176.65 42.42 177.88 43.08 179.15 42.95L195.36 41.35L178.85 43.78C177.37 44 175.92 43.22 175.29 41.86L168.25 26.74Z" fill="#2EB19F"/>
<path d="M149.34 24.03C149.6 18.47 153.72 7.25996 158.73 3.82996C163.74 0.399957 160.44 5.14996 160.44 5.14996C160.44 5.14996 165.19 0.529961 167.69 0.669961C170.2 0.799961 167.69 3.69996 167.69 3.69996C167.69 3.69996 172.83 0.529959 175.21 0.659959C177.58 0.789959 175.21 3.55996 175.21 3.55996C175.21 3.55996 179.43 0.529958 181.14 1.97996C182.85 3.42996 159.25 18.99 156.61 25.32C153.99 31.65 149.07 29.66 149.34 24.03Z" fill="#407BFF"/>
<path d="M149.34 24.03C149.6 18.47 153.72 7.25996 158.73 3.82996C163.74 0.399957 160.44 5.14996 160.44 5.14996C160.44 5.14996 165.19 0.529961 167.69 0.669961C170.2 0.799961 167.69 3.69996 167.69 3.69996C167.69 3.69996 172.83 0.529959 175.21 0.659959C177.58 0.789959 175.21 3.55996 175.21 3.55996C175.21 3.55996 179.43 0.529958 181.14 1.97996C182.85 3.42996 159.25 18.99 156.61 25.32C153.99 31.65 149.07 29.66 149.34 24.03Z" fill="#D6F3EE"/>
<path d="M169.62 23.21L172.77 25.2299C173 25.38 172.88 25.73 172.61 25.71L169.3 25.45L169.58 27.99C169.61 28.27 169.27 28.42 169.08 28.21L167.17 26.05L169.62 23.21Z" fill="#407BFF"/>
<path opacity="0.3" d="M169.62 23.21L172.77 25.2299C173 25.38 172.88 25.73 172.61 25.71L169.3 25.45L169.58 27.99C169.61 28.27 169.27 28.42 169.08 28.21L167.17 26.05L169.62 23.21Z" fill="white"/>
<path d="M125.37 10.69C125.37 10.69 129.72 7.65996 136.32 9.62996C136.32 9.62996 138.22 18.33 143.4 21.23C146.25 22.82 153.22 22.69 158.74 20.9C165.29 18.78 168.5 18.78 169.69 21.23C170.81 23.55 169.56 26.24 164.55 27.43C159.54 28.62 155.58 37.32 146.48 37.45C137.38 37.58 132.59 28.46 134.88 20.44C134.87 20.45 132.1 14.47 125.37 10.69Z" fill="#407BFF"/>
<path d="M125.37 10.69C125.37 10.69 129.72 7.65996 136.32 9.62996C136.32 9.62996 138.22 18.33 143.4 21.23C146.25 22.82 153.22 22.69 158.74 20.9C165.29 18.78 168.5 18.78 169.69 21.23C170.81 23.55 169.56 26.24 164.55 27.43C159.54 28.62 155.58 37.32 146.48 37.45C137.38 37.58 132.59 28.46 134.88 20.44C134.87 20.45 132.1 14.47 125.37 10.69Z" fill="#AEE6DD"/>
<path d="M167.18 22.8899C167.18 23.1399 166.98 23.3299 166.74 23.3299C166.49 23.3299 166.29 23.1299 166.29 22.8899C166.29 22.6399 166.49 22.4399 166.74 22.4399C166.98 22.4399 167.18 22.6399 167.18 22.8899Z" fill="#263238"/>
<path d="M144.36 30.21C138.99 31.68 127.05 31.22 122.24 27.51C117.43 23.8 122.97 25.4699 122.97 25.4699C122.97 25.4699 117.11 22.38 116.47 19.96C115.82 17.54 119.35 19.0199 119.35 19.0199C119.35 19.0199 114.75 15.11 114.14 12.81C113.54 10.51 116.9 11.9099 116.9 11.9099C116.9 11.9099 112.71 8.82995 113.56 6.74995C114.41 4.66995 136.5 22.32 143.33 22.88C150.18 23.44 149.8 28.73 144.36 30.21Z" fill="#407BFF"/>
<path d="M144.36 30.21C138.99 31.68 127.05 31.22 122.24 27.51C117.43 23.8 122.97 25.4699 122.97 25.4699C122.97 25.4699 117.11 22.38 116.47 19.96C115.82 17.54 119.35 19.0199 119.35 19.0199C119.35 19.0199 114.75 15.11 114.14 12.81C113.54 10.51 116.9 11.9099 116.9 11.9099C116.9 11.9099 112.71 8.82995 113.56 6.74995C114.41 4.66995 136.5 22.32 143.33 22.88C150.18 23.44 149.8 28.73 144.36 30.21Z" fill="#D6F3EE"/>
<path d="M109.16 5.50995C108.22 5.17995 107.27 4.85995 106.31 4.56995" stroke="#2EB19F" stroke-width="0.75" stroke-linecap="round" stroke-linejoin="round"/>
<path d="M100.47 3.07995C96.97 2.34995 93.4 1.86995 89.86 1.61995C80.14 0.939947 64.89 -0.02005 58.94 9.66995C53.51 18.4999 62.85 33.56 66.16 41.76C70.22 51.8 75.05 64.2099 70.25 74.8399C60.39 96.6799 18.2 85.3399 3.96997 65.2199" stroke="#2EB19F" stroke-width="0.75" stroke-linecap="round" stroke-linejoin="round" stroke-dasharray="6.03 6.03"/>
<path d="M2.36003 62.6899C1.86003 61.8099 1.41003 60.9099 1.03003 59.9999" stroke="#2EB19F" stroke-width="0.75" stroke-linecap="round" stroke-linejoin="round"/>
<path d="M123.81 142.09H85.8501V149.87H123.81V142.09Z" fill="white"/>
<path opacity="0.1" d="M123.81 142.09H85.8501V149.87H123.81V142.09Z" fill="black"/>
<path opacity="0.1" d="M101.84 142.09H85.8501V149.87H101.84V142.09Z" fill="black"/>
<path opacity="0.1" d="M85.8501 143.21H119.64L85.8501 144.17V143.21Z" fill="black"/>
<path opacity="0.1" d="M123.81 144.56L94.52 145.29H123.81V144.56Z" fill="black"/>
<path opacity="0.1" d="M87.4001 146.74L101.84 146.15L123.07 146.74L101.84 147.07L87.4001 146.74Z" fill="black"/>
<path opacity="0.1" d="M85.8501 148.39H110.87L85.8501 148.98V148.39Z" fill="black"/>
<path opacity="0.1" d="M123.75 148.98L107.05 149.29H123.81L123.75 148.98Z" fill="black"/>
<path d="M118.53 134.31H80.5701V142.09H118.53V134.31Z" fill="white"/>
<path opacity="0.1" d="M118.53 134.31H80.5701V142.09H118.53V134.31Z" fill="black"/>
<path opacity="0.1" d="M96.5601 134.31H80.5701V142.09H96.5601V134.31Z" fill="black"/>
<path opacity="0.1" d="M80.5701 135.43H114.36L80.5701 136.38V135.43Z" fill="black"/>
<path opacity="0.1" d="M118.53 136.78L89.24 137.51H118.53V136.78Z" fill="black"/>
<path opacity="0.1" d="M82.1101 138.96L96.5501 138.36L117.78 138.96L96.5501 139.29L82.1101 138.96Z" fill="black"/>
<path opacity="0.1" d="M80.5701 140.6H105.59L80.5701 141.2V140.6Z" fill="black"/>
<path opacity="0.1" d="M118.47 141.2L101.76 141.51H118.53L118.47 141.2Z" fill="black"/>
<path d="M122.86 126.52H84.9001V134.3H122.86V126.52Z" fill="white"/>
<path opacity="0.1" d="M122.86 126.52H84.9001V134.3H122.86V126.52Z" fill="black"/>
<path opacity="0.1" d="M100.89 126.52H84.9001V134.3H100.89V126.52Z" fill="black"/>
<path opacity="0.1" d="M84.9001 127.64H118.69L84.9001 128.6V127.64Z" fill="black"/>
<path opacity="0.1" d="M122.86 128.99L93.5701 129.72H122.86V128.99Z" fill="black"/>
<path opacity="0.1" d="M86.4502 131.17L100.89 130.58L122.12 131.17L100.89 131.5L86.4502 131.17Z" fill="black"/>
<path opacity="0.1" d="M84.9001 132.82H109.92L84.9001 133.41V132.82Z" fill="black"/>
<path opacity="0.1" d="M122.81 133.41L106.1 133.72H122.86L122.81 133.41Z" fill="black"/>
<path d="M148.15 149.71L149.13 145.98H189.68L208.36 147.85L209.07 149.71H148.15Z" fill="#263238"/>
<path opacity="0.4" d="M189.68 145.98V149.71H148.15L149.13 145.98H189.68Z" fill="black"/>
<path d="M181.54 128.13C181.72 130.1 180.28 131.7 178.32 131.7H116.2C114.23 131.7 112.49 130.1 112.31 128.13L108.62 88.36C108.58 87.95 108.61 87.56 108.7 87.2C109.05 85.8 110.28 84.79 111.84 84.79H173.96C175.93 84.79 177.67 86.39 177.85 88.36L181.54 128.13Z" fill="#263238"/>
<path opacity="0.4" d="M178.1 131.7H116.2C114.23 131.7 112.49 130.1 112.31 128.13L108.62 88.36C108.58 87.95 108.61 87.56 108.7 87.2H170.6C172.56 87.2 174.3 88.8 174.49 90.77L178.18 130.54C178.22 130.95 178.19 131.34 178.1 131.7Z" fill="black"/>
<path d="M135.42 107.31H148.27L144.85 144.1L165.17 147.15V149.71H122.37V147.15L131.14 144.1L135.42 107.31Z" fill="#263238"/>
<path opacity="0.1" d="M148.27 107.31L138.75 149.13L131.14 148.9L135.42 107.31H148.27Z" fill="white"/>
<path d="M148.21 310.12H142.09L131.08 156.88H139.21L148.21 310.12Z" fill="#263238"/>
<path opacity="0.4" d="M148.22 310.12H142.09L131.62 164.49L131.08 157.12H139.21L139.65 164.49L148.22 310.12Z" fill="white"/>
<path opacity="0.2" d="M139.65 164.12H131.62L131.08 157.12H139.21L139.65 164.12Z" fill="black"/>
<path d="M193.17 310.12H187.05L186.05 156.88H194.17L193.17 310.12Z" fill="#263238"/>
<path opacity="0.5" d="M194.18 157.12L194.02 181.85L193.18 310.12H187.05L186.21 181.85L186.05 157.12H194.18Z" fill="white"/>
<path opacity="0.2" d="M194.18 157.12L194.02 182.12H186.21L186.05 157.12H194.18Z" fill="black"/>
<path d="M258.21 310.12H252.09L241.08 156.88H249.21L258.21 310.12Z" fill="#263238"/>
<path opacity="0.5" d="M258.22 310.12H252.09L241.62 164.49L241.08 157.12H249.21L249.65 164.49L258.22 310.12Z" fill="white"/>
<path opacity="0.2" d="M249.65 164.12H241.62L241.08 157.12H249.21L249.65 164.12Z" fill="black"/>
<path d="M78.13 310.12H72.01L81.01 156.88H89.14L78.13 310.12Z" fill="#263238"/>
<path opacity="0.5" d="M89.14 157.12L88.6 164.49L78.13 310.12H72.01L80.57 164.49L81.01 157.12H89.14Z" fill="white"/>
<path opacity="0.2" d="M81.0101 157.12H89.1401L88.6001 164.12H80.5701L81.0101 157.12Z" fill="black"/>
<path d="M253.49 160.71H76.7301C75.5401 160.71 74.5701 159.74 74.5701 158.55V153.04H255.65V158.55C255.65 159.74 254.68 160.71 253.49 160.71Z" fill="#407BFF"/>
<path d="M253.49 160.71H76.7301C75.5401 160.71 74.5701 159.74 74.5701 158.55V153.04H255.65V158.55C255.65 159.74 254.68 160.71 253.49 160.71Z" fill="#2EB19F"/>
<path d="M255.65 153.04H74.5701V156.88H255.65V153.04Z" fill="#258777"/>
<path d="M259.45 154.04H70.7701C69.5801 154.04 68.6101 153.07 68.6101 151.88C68.6101 150.69 69.5801 149.72 70.7701 149.72H259.45C260.64 149.72 261.61 150.69 261.61 151.88C261.61 153.07 260.64 154.04 259.45 154.04Z" fill="#407BFF"/>
<path d="M259.45 154.04H70.7701C69.5801 154.04 68.6101 153.07 68.6101 151.88C68.6101 150.69 69.5801 149.72 70.7701 149.72H259.45C260.64 149.72 261.61 150.69 261.61 151.88C261.61 153.07 260.64 154.04 259.45 154.04Z" fill="#2EB19F"/>
<path d="M214.81 143.05L217.13 139.57C217.59 138.88 218.37 138.46 219.21 138.46H222.15C222.4 138.46 222.64 138.5 222.87 138.57L233.36 141.75C233.96 141.93 234.46 142.33 234.78 142.86L236.28 145.39L214.81 143.05Z" fill="#407BFF"/>
<path d="M236.29 145.39L221.02 143.73L214.81 143.05L217.13 139.57C217.59 138.88 218.37 138.46 219.21 138.46H222.15C222.4 138.46 222.64 138.5 222.88 138.57L223.11 138.64L233.36 141.75C233.96 141.93 234.47 142.32 234.79 142.86L236.29 145.39Z" fill="#2EB19F"/>
<path d="M236.29 145.39L221.02 143.73L223.11 138.64L233.36 141.75C233.96 141.93 234.47 142.32 234.79 142.86L236.29 145.39Z" fill="#2EB19F"/>
<path d="M243.55 149.38V149.71H230.24H211.13L212.33 145.02C212.8 143.26 214.4 142.03 216.22 142.03H230.6C231.08 142.03 231.55 142.11 232 142.28L233.8 142.95L240.94 145.61C242.51 146.2 243.55 147.7 243.55 149.38Z" fill="#2EB19F"/>
<path opacity="0.2" d="M243.55 149.38V149.71H230.24L230.95 144.64C231.14 143.3 232.53 142.48 233.8 142.95L240.94 145.61C242.51 146.2 243.55 147.7 243.55 149.38Z" fill="black"/>
<path d="M232.31 146.27L236.54 133.56C236.72 133.01 237.35 132.76 237.87 133.02C238.26 133.22 238.46 133.67 238.35 134.1L234.78 147.67C234.78 147.66 232.41 148.62 232.31 146.27Z" fill="#263238"/>
<path opacity="0.2" d="M214.81 148.66H212.93L213.29 146.81H215.17L214.81 148.66Z" fill="black"/>
<path opacity="0.2" d="M217.61 148.59H215.73L216.09 146.74H217.97L217.61 148.59Z" fill="black"/>
</g>
</svg>
