<svg width="411" height="713" viewBox="0 0 411 713" fill="none" xmlns="http://www.w3.org/2000/svg">
<path d="M682.641 626.686H-273V627.164H682.641V626.686Z" fill="#EBEBEB"/>
<path d="M360.055 662.638H343.446V663.116H360.055V662.638Z" fill="#EBEBEB"/>
<path d="M157.325 650.979H-21.7236V651.457H157.325V650.979Z" fill="#EBEBEB"/>
<path d="M179.993 541.443H-189.057C-195.077 541.443 -199.97 536.55 -199.97 530.53V11.7505C-199.97 5.72992 -195.077 0.837036 -189.057 0.837036H180.012C186.033 0.837036 190.926 5.72992 190.926 11.7505V530.53C190.906 536.55 186.014 541.443 179.993 541.443ZM-189.057 1.31486C-194.81 1.31486 -199.492 5.9975 -199.492 11.7505V530.53C-199.492 536.283 -194.81 540.965 -189.057 540.965H180.012C185.765 540.965 190.448 536.283 190.448 530.53V11.7505C190.448 5.9975 185.765 1.31486 180.012 1.31486H-189.057Z" fill="#EBEBEB"/>
<path d="M593.403 541.443H224.335C218.314 541.443 213.421 536.55 213.421 530.53V11.7505C213.421 5.72992 218.314 0.837036 224.335 0.837036H593.403C599.424 0.837036 604.317 5.72992 604.317 11.7505V530.53C604.317 536.55 599.424 541.443 593.403 541.443ZM224.335 1.31486C218.582 1.31486 213.899 5.9975 213.899 11.7505V530.53C213.899 536.283 218.582 540.965 224.335 540.965H593.403C599.156 540.965 603.839 536.283 603.839 530.53V11.7505C603.839 5.9975 599.156 1.31486 593.403 1.31486H224.335Z" fill="#EBEBEB"/>
<path d="M578.324 119.776H115.258V566.137H578.324V119.776Z" fill="#E0E0E0"/>
<path d="M578.324 127.88H122.693V558.339H578.324V127.88Z" fill="#F5F5F5"/>
<path d="M126.057 454.098V324.608H139.493V307.502L169.768 293.359V275.851H174.814V324.608H179.859V454.098H186.587V386.821H201.724V351.519H206.77V454.098H218.525V415.413H226.934V405.322H245.435V370.02H255.527V346.473H267.301V311.153H272.346V346.473H284.12V370.02H294.192V405.322H312.693V415.413H321.103V454.098H331.195V405.322H349.696V297.717H354.742V285.943H395.089V297.717H403.499V375.066H437.137V383.457H448.891V388.502H437.137V418.777H472.438V317.881H479.166V297.717H495.985V220.367H501.031V297.717H512.805V317.881H578.324V558.339H122.693V454.098H126.057Z" fill="#E6E6E6"/>
<path d="M397.574 302.418H392.814V307.177H397.574V302.418Z" fill="#F0F0F0"/>
<path d="M397.574 310.407H392.814V315.167H397.574V310.407Z" fill="#F0F0F0"/>
<path d="M397.574 318.397H392.814V323.156H397.574V318.397Z" fill="#F0F0F0"/>
<path d="M397.574 326.386H392.814V331.145H397.574V326.386Z" fill="#F0F0F0"/>
<path d="M397.574 334.375H392.814V339.134H397.574V334.375Z" fill="#F0F0F0"/>
<path d="M397.574 342.364H392.814V347.123H397.574V342.364Z" fill="#F0F0F0"/>
<path d="M397.574 350.334H392.814V355.093H397.574V350.334Z" fill="#F0F0F0"/>
<path d="M397.574 358.323H392.814V363.082H397.574V358.323Z" fill="#F0F0F0"/>
<path d="M397.574 382.291H392.814V387.05H397.574V382.291Z" fill="#F0F0F0"/>
<path d="M397.574 390.28H392.814V395.039H397.574V390.28Z" fill="#F0F0F0"/>
<path d="M390.005 302.418H385.246V307.177H390.005V302.418Z" fill="#F0F0F0"/>
<path d="M390.005 310.407H385.246V315.167H390.005V310.407Z" fill="#F0F0F0"/>
<path d="M390.005 318.397H385.246V323.156H390.005V318.397Z" fill="#F0F0F0"/>
<path d="M390.005 326.386H385.246V331.145H390.005V326.386Z" fill="#F0F0F0"/>
<path d="M390.005 334.375H385.246V339.134H390.005V334.375Z" fill="#F0F0F0"/>
<path d="M390.005 342.364H385.246V347.123H390.005V342.364Z" fill="#F0F0F0"/>
<path d="M390.005 350.334H385.246V355.093H390.005V350.334Z" fill="#F0F0F0"/>
<path d="M390.005 358.323H385.246V363.082H390.005V358.323Z" fill="#F0F0F0"/>
<path d="M390.005 390.28H385.246V395.039H390.005V390.28Z" fill="#F0F0F0"/>
<path d="M382.436 302.418H377.677V307.177H382.436V302.418Z" fill="#F0F0F0"/>
<path d="M382.436 310.407H377.677V315.167H382.436V310.407Z" fill="#F0F0F0"/>
<path d="M382.436 318.397H377.677V323.156H382.436V318.397Z" fill="#F0F0F0"/>
<path d="M382.436 326.386H377.677V331.145H382.436V326.386Z" fill="#F0F0F0"/>
<path d="M382.436 334.375H377.677V339.134H382.436V334.375Z" fill="#F0F0F0"/>
<path d="M382.436 342.364H377.677V347.123H382.436V342.364Z" fill="#F0F0F0"/>
<path d="M382.436 350.334H377.677V355.093H382.436V350.334Z" fill="#F0F0F0"/>
<path d="M382.436 358.323H377.677V363.082H382.436V358.323Z" fill="#F0F0F0"/>
<path d="M374.867 302.418H370.108V307.177H374.867V302.418Z" fill="#F0F0F0"/>
<path d="M374.867 310.407H370.108V315.167H374.867V310.407Z" fill="#F0F0F0"/>
<path d="M374.867 318.397H370.108V323.156H374.867V318.397Z" fill="#F0F0F0"/>
<path d="M374.867 326.386H370.108V331.145H374.867V326.386Z" fill="#F0F0F0"/>
<path d="M374.867 334.375H370.108V339.134H374.867V334.375Z" fill="#F0F0F0"/>
<path d="M374.867 342.364H370.108V347.123H374.867V342.364Z" fill="#F0F0F0"/>
<path d="M374.867 358.323H370.108V363.082H374.867V358.323Z" fill="#F0F0F0"/>
<path d="M374.867 366.312H370.108V371.072H374.867V366.312Z" fill="#F0F0F0"/>
<path d="M374.867 390.28H370.108V395.039H374.867V390.28Z" fill="#F0F0F0"/>
<path d="M374.867 398.269H370.108V403.028H374.867V398.269Z" fill="#F0F0F0"/>
<path d="M374.867 406.258H370.108V411.017H374.867V406.258Z" fill="#F0F0F0"/>
<path d="M374.867 414.247H370.108V419.006H374.867V414.247Z" fill="#F0F0F0"/>
<path d="M374.867 422.237H370.108V426.996H374.867V422.237Z" fill="#F0F0F0"/>
<path d="M374.867 430.207H370.108V434.966H374.867V430.207Z" fill="#F0F0F0"/>
<path d="M374.867 438.196H370.108V442.955H374.867V438.196Z" fill="#F0F0F0"/>
<path d="M367.299 302.418H362.54V307.177H367.299V302.418Z" fill="#F0F0F0"/>
<path d="M367.299 310.407H362.54V315.167H367.299V310.407Z" fill="#F0F0F0"/>
<path d="M367.299 318.397H362.54V323.156H367.299V318.397Z" fill="#F0F0F0"/>
<path d="M367.299 326.386H362.54V331.145H367.299V326.386Z" fill="#F0F0F0"/>
<path d="M367.299 334.375H362.54V339.134H367.299V334.375Z" fill="#F0F0F0"/>
<path d="M367.299 342.364H362.54V347.123H367.299V342.364Z" fill="#F0F0F0"/>
<path d="M367.299 366.312H362.54V371.072H367.299V366.312Z" fill="#F0F0F0"/>
<path d="M367.299 374.302H362.54V379.061H367.299V374.302Z" fill="#F0F0F0"/>
<path d="M367.299 382.291H362.54V387.05H367.299V382.291Z" fill="#F0F0F0"/>
<path d="M367.299 390.28H362.54V395.039H367.299V390.28Z" fill="#F0F0F0"/>
<path d="M367.299 398.269H362.54V403.028H367.299V398.269Z" fill="#F0F0F0"/>
<path d="M367.299 406.258H362.54V411.017H367.299V406.258Z" fill="#F0F0F0"/>
<path d="M367.299 414.247H362.54V419.006H367.299V414.247Z" fill="#F0F0F0"/>
<path d="M367.299 422.237H362.54V426.996H367.299V422.237Z" fill="#F0F0F0"/>
<path d="M367.299 430.207H362.54V434.966H367.299V430.207Z" fill="#F0F0F0"/>
<path d="M367.299 438.196H362.54V442.955H367.299V438.196Z" fill="#F0F0F0"/>
<path d="M367.299 446.185H362.54V450.944H367.299V446.185Z" fill="#F0F0F0"/>
<path d="M367.299 462.163H362.54V466.922H367.299V462.163Z" fill="#F0F0F0"/>
<path d="M359.73 302.418H354.971V307.177H359.73V302.418Z" fill="#F0F0F0"/>
<path d="M359.73 310.407H354.971V315.167H359.73V310.407Z" fill="#F0F0F0"/>
<path d="M359.73 318.397H354.971V323.156H359.73V318.397Z" fill="#F0F0F0"/>
<path d="M359.73 326.386H354.971V331.145H359.73V326.386Z" fill="#F0F0F0"/>
<path d="M359.73 334.375H354.971V339.134H359.73V334.375Z" fill="#F0F0F0"/>
<path d="M359.73 342.364H354.971V347.123H359.73V342.364Z" fill="#F0F0F0"/>
<path d="M359.73 366.312H354.971V371.072H359.73V366.312Z" fill="#F0F0F0"/>
<path d="M359.73 374.302H354.971V379.061H359.73V374.302Z" fill="#F0F0F0"/>
<path d="M359.73 382.291H354.971V387.05H359.73V382.291Z" fill="#F0F0F0"/>
<path d="M359.73 390.28H354.971V395.039H359.73V390.28Z" fill="#F0F0F0"/>
<path d="M359.73 414.247H354.971V419.006H359.73V414.247Z" fill="#F0F0F0"/>
<path d="M359.73 422.237H354.971V426.996H359.73V422.237Z" fill="#F0F0F0"/>
<path d="M359.73 430.207H354.971V434.966H359.73V430.207Z" fill="#F0F0F0"/>
<path d="M359.73 438.196H354.971V442.955H359.73V438.196Z" fill="#F0F0F0"/>
<path d="M359.73 446.185H354.971V450.944H359.73V446.185Z" fill="#F0F0F0"/>
<path d="M359.73 462.163H354.971V466.922H359.73V462.163Z" fill="#F0F0F0"/>
<path d="M359.73 470.152H354.971V474.911H359.73V470.152Z" fill="#F0F0F0"/>
<path d="M291.077 376.691H286.318V381.45H291.077V376.691Z" fill="#F0F0F0"/>
<path d="M291.077 384.68H286.318V389.439H291.077V384.68Z" fill="#F0F0F0"/>
<path d="M291.077 392.669H286.318V397.428H291.077V392.669Z" fill="#F0F0F0"/>
<path d="M291.077 400.639H286.318V405.398H291.077V400.639Z" fill="#F0F0F0"/>
<path d="M291.077 408.628H286.318V413.387H291.077V408.628Z" fill="#F0F0F0"/>
<path d="M291.077 416.617H286.318V421.377H291.077V416.617Z" fill="#F0F0F0"/>
<path d="M291.077 424.607H286.318V429.366H291.077V424.607Z" fill="#F0F0F0"/>
<path d="M291.077 448.574H286.318V453.333H291.077V448.574Z" fill="#F0F0F0"/>
<path d="M291.077 456.563H286.318V461.322H291.077V456.563Z" fill="#F0F0F0"/>
<path d="M291.077 464.552H286.318V469.311H291.077V464.552Z" fill="#F0F0F0"/>
<path d="M283.508 376.691H278.749V381.45H283.508V376.691Z" fill="#F0F0F0"/>
<path d="M283.508 384.68H278.749V389.439H283.508V384.68Z" fill="#F0F0F0"/>
<path d="M283.508 392.669H278.749V397.428H283.508V392.669Z" fill="#F0F0F0"/>
<path d="M283.508 400.639H278.749V405.398H283.508V400.639Z" fill="#F0F0F0"/>
<path d="M283.508 408.628H278.749V413.387H283.508V408.628Z" fill="#F0F0F0"/>
<path d="M283.508 416.617H278.749V421.377H283.508V416.617Z" fill="#F0F0F0"/>
<path d="M283.508 424.607H278.749V429.366H283.508V424.607Z" fill="#F0F0F0"/>
<path d="M275.939 376.691H271.18V381.45H275.939V376.691Z" fill="#F0F0F0"/>
<path d="M275.939 384.68H271.18V389.439H275.939V384.68Z" fill="#F0F0F0"/>
<path d="M275.939 392.669H271.18V397.428H275.939V392.669Z" fill="#F0F0F0"/>
<path d="M275.939 400.639H271.18V405.398H275.939V400.639Z" fill="#F0F0F0"/>
<path d="M275.939 408.628H271.18V413.387H275.939V408.628Z" fill="#F0F0F0"/>
<path d="M275.939 416.617H271.18V421.377H275.939V416.617Z" fill="#F0F0F0"/>
<path d="M275.939 424.607H271.18V429.366H275.939V424.607Z" fill="#F0F0F0"/>
<path d="M268.371 376.691H263.612V381.45H268.371V376.691Z" fill="#F0F0F0"/>
<path d="M268.371 384.68H263.612V389.439H268.371V384.68Z" fill="#F0F0F0"/>
<path d="M268.371 392.669H263.612V397.428H268.371V392.669Z" fill="#F0F0F0"/>
<path d="M268.371 400.639H263.612V405.398H268.371V400.639Z" fill="#F0F0F0"/>
<path d="M268.371 408.628H263.612V413.387H268.371V408.628Z" fill="#F0F0F0"/>
<path d="M268.371 416.617H263.612V421.377H268.371V416.617Z" fill="#F0F0F0"/>
<path d="M268.371 424.607H263.612V429.366H268.371V424.607Z" fill="#F0F0F0"/>
<path d="M268.371 432.596H263.612V437.355H268.371V432.596Z" fill="#F0F0F0"/>
<path d="M268.371 440.585H263.612V445.344H268.371V440.585Z" fill="#F0F0F0"/>
<path d="M268.371 448.574H263.612V453.333H268.371V448.574Z" fill="#F0F0F0"/>
<path d="M268.371 456.563H263.612V461.322H268.371V456.563Z" fill="#F0F0F0"/>
<path d="M260.802 376.691H256.043V381.45H260.802V376.691Z" fill="#F0F0F0"/>
<path d="M260.802 384.68H256.043V389.439H260.802V384.68Z" fill="#F0F0F0"/>
<path d="M260.802 392.669H256.043V397.428H260.802V392.669Z" fill="#F0F0F0"/>
<path d="M260.802 400.639H256.043V405.398H260.802V400.639Z" fill="#F0F0F0"/>
<path d="M260.802 408.628H256.043V413.387H260.802V408.628Z" fill="#F0F0F0"/>
<path d="M260.802 416.617H256.043V421.377H260.802V416.617Z" fill="#F0F0F0"/>
<path d="M260.802 424.607H256.043V429.366H260.802V424.607Z" fill="#F0F0F0"/>
<path d="M260.802 432.596H256.043V437.355H260.802V432.596Z" fill="#F0F0F0"/>
<path d="M260.802 440.585H256.043V445.344H260.802V440.585Z" fill="#F0F0F0"/>
<path d="M260.802 448.574H256.043V453.333H260.802V448.574Z" fill="#F0F0F0"/>
<path d="M260.802 456.563H256.043V461.322H260.802V456.563Z" fill="#F0F0F0"/>
<path d="M260.802 464.552H256.043V469.311H260.802V464.552Z" fill="#F0F0F0"/>
<path d="M260.802 488.501H256.043V493.26H260.802V488.501Z" fill="#F0F0F0"/>
<path d="M260.802 496.49H256.043V501.249H260.802V496.49Z" fill="#F0F0F0"/>
<path d="M253.233 376.691H248.474V381.45H253.233V376.691Z" fill="#F0F0F0"/>
<path d="M253.233 384.68H248.474V389.439H253.233V384.68Z" fill="#F0F0F0"/>
<path d="M253.233 392.669H248.474V397.428H253.233V392.669Z" fill="#F0F0F0"/>
<path d="M253.233 416.617H248.474V421.377H253.233V416.617Z" fill="#F0F0F0"/>
<path d="M253.233 424.607H248.474V429.366H253.233V424.607Z" fill="#F0F0F0"/>
<path d="M253.233 432.596H248.474V437.355H253.233V432.596Z" fill="#F0F0F0"/>
<path d="M253.233 440.585H248.474V445.344H253.233V440.585Z" fill="#F0F0F0"/>
<path d="M253.233 448.574H248.474V453.333H253.233V448.574Z" fill="#F0F0F0"/>
<path d="M253.233 456.563H248.474V461.322H253.233V456.563Z" fill="#F0F0F0"/>
<path d="M253.233 464.552H248.474V469.311H253.233V464.552Z" fill="#F0F0F0"/>
<path d="M253.233 488.501H248.474V493.26H253.233V488.501Z" fill="#F0F0F0"/>
<path d="M253.233 496.49H248.474V501.249H253.233V496.49Z" fill="#F0F0F0"/>
<path d="M253.233 504.479H248.474V509.238H253.233V504.479Z" fill="#F0F0F0"/>
<path d="M173.934 328.756H169.175V333.515H173.934V328.756Z" fill="#F0F0F0"/>
<path d="M173.934 336.745H169.175V341.504H173.934V336.745Z" fill="#F0F0F0"/>
<path d="M173.934 344.734H169.175V349.493H173.934V344.734Z" fill="#F0F0F0"/>
<path d="M173.934 352.723H169.175V357.482H173.934V352.723Z" fill="#F0F0F0"/>
<path d="M173.934 360.712H169.175V365.471H173.934V360.712Z" fill="#F0F0F0"/>
<path d="M173.934 368.702H169.175V373.461H173.934V368.702Z" fill="#F0F0F0"/>
<path d="M173.934 376.691H169.175V381.45H173.934V376.691Z" fill="#F0F0F0"/>
<path d="M173.934 384.68H169.175V389.439H173.934V384.68Z" fill="#F0F0F0"/>
<path d="M173.934 392.669H169.175V397.428H173.934V392.669Z" fill="#F0F0F0"/>
<path d="M173.934 400.639H169.175V405.398H173.934V400.639Z" fill="#F0F0F0"/>
<path d="M173.934 408.628H169.175V413.387H173.934V408.628Z" fill="#F0F0F0"/>
<path d="M173.934 416.617H169.175V421.377H173.934V416.617Z" fill="#F0F0F0"/>
<path d="M173.934 424.607H169.175V429.366H173.934V424.607Z" fill="#F0F0F0"/>
<path d="M173.934 432.596H169.175V437.355H173.934V432.596Z" fill="#F0F0F0"/>
<path d="M173.934 440.585H169.175V445.344H173.934V440.585Z" fill="#F0F0F0"/>
<path d="M173.934 448.574H169.175V453.333H173.934V448.574Z" fill="#F0F0F0"/>
<path d="M173.934 456.563H169.175V461.322H173.934V456.563Z" fill="#F0F0F0"/>
<path d="M173.934 464.552H169.175V469.311H173.934V464.552Z" fill="#F0F0F0"/>
<path d="M173.934 472.542H169.175V477.301H173.934V472.542Z" fill="#F0F0F0"/>
<path d="M173.934 480.512H169.175V485.271H173.934V480.512Z" fill="#F0F0F0"/>
<path d="M173.934 488.501H169.175V493.26H173.934V488.501Z" fill="#F0F0F0"/>
<path d="M173.934 496.49H169.175V501.249H173.934V496.49Z" fill="#F0F0F0"/>
<path d="M173.934 504.479H169.175V509.238H173.934V504.479Z" fill="#F0F0F0"/>
<path d="M166.366 328.756H161.607V333.515H166.366V328.756Z" fill="#F0F0F0"/>
<path d="M166.366 336.745H161.607V341.504H166.366V336.745Z" fill="#F0F0F0"/>
<path d="M166.366 344.734H161.607V349.493H166.366V344.734Z" fill="#F0F0F0"/>
<path d="M166.366 352.723H161.607V357.482H166.366V352.723Z" fill="#F0F0F0"/>
<path d="M166.366 360.712H161.607V365.471H166.366V360.712Z" fill="#F0F0F0"/>
<path d="M166.366 368.702H161.607V373.461H166.366V368.702Z" fill="#F0F0F0"/>
<path d="M166.366 376.691H161.607V381.45H166.366V376.691Z" fill="#F0F0F0"/>
<path d="M166.366 384.68H161.607V389.439H166.366V384.68Z" fill="#F0F0F0"/>
<path d="M166.366 392.669H161.607V397.428H166.366V392.669Z" fill="#F0F0F0"/>
<path d="M166.366 400.639H161.607V405.398H166.366V400.639Z" fill="#F0F0F0"/>
<path d="M166.366 408.628H161.607V413.387H166.366V408.628Z" fill="#F0F0F0"/>
<path d="M166.366 416.617H161.607V421.377H166.366V416.617Z" fill="#F0F0F0"/>
<path d="M166.366 424.607H161.607V429.366H166.366V424.607Z" fill="#F0F0F0"/>
<path d="M166.366 432.596H161.607V437.355H166.366V432.596Z" fill="#F0F0F0"/>
<path d="M166.366 440.585H161.607V445.344H166.366V440.585Z" fill="#F0F0F0"/>
<path d="M166.366 448.574H161.607V453.333H166.366V448.574Z" fill="#F0F0F0"/>
<path d="M166.366 456.563H161.607V461.322H166.366V456.563Z" fill="#F0F0F0"/>
<path d="M166.366 464.552H161.607V469.311H166.366V464.552Z" fill="#F0F0F0"/>
<path d="M166.366 472.542H161.607V477.301H166.366V472.542Z" fill="#F0F0F0"/>
<path d="M158.797 328.756H154.038V333.515H158.797V328.756Z" fill="#F0F0F0"/>
<path d="M158.797 336.745H154.038V341.504H158.797V336.745Z" fill="#F0F0F0"/>
<path d="M158.797 344.734H154.038V349.493H158.797V344.734Z" fill="#F0F0F0"/>
<path d="M158.797 352.723H154.038V357.482H158.797V352.723Z" fill="#F0F0F0"/>
<path d="M158.797 360.712H154.038V365.471H158.797V360.712Z" fill="#F0F0F0"/>
<path d="M158.797 368.702H154.038V373.461H158.797V368.702Z" fill="#F0F0F0"/>
<path d="M158.797 376.691H154.038V381.45H158.797V376.691Z" fill="#F0F0F0"/>
<path d="M158.797 384.68H154.038V389.439H158.797V384.68Z" fill="#F0F0F0"/>
<path d="M158.797 392.669H154.038V397.428H158.797V392.669Z" fill="#F0F0F0"/>
<path d="M158.797 400.639H154.038V405.398H158.797V400.639Z" fill="#F0F0F0"/>
<path d="M158.797 408.628H154.038V413.387H158.797V408.628Z" fill="#F0F0F0"/>
<path d="M158.797 416.617H154.038V421.377H158.797V416.617Z" fill="#F0F0F0"/>
<path d="M158.797 424.607H154.038V429.366H158.797V424.607Z" fill="#F0F0F0"/>
<path d="M158.797 432.596H154.038V437.355H158.797V432.596Z" fill="#F0F0F0"/>
<path d="M158.797 440.585H154.038V445.344H158.797V440.585Z" fill="#F0F0F0"/>
<path d="M158.797 448.574H154.038V453.333H158.797V448.574Z" fill="#F0F0F0"/>
<path d="M158.797 456.563H154.038V461.322H158.797V456.563Z" fill="#F0F0F0"/>
<path d="M158.797 464.552H154.038V469.311H158.797V464.552Z" fill="#F0F0F0"/>
<path d="M158.797 472.542H154.038V477.301H158.797V472.542Z" fill="#F0F0F0"/>
<path d="M151.228 328.756H146.469V333.515H151.228V328.756Z" fill="#F0F0F0"/>
<path d="M151.228 336.745H146.469V341.504H151.228V336.745Z" fill="#F0F0F0"/>
<path d="M151.228 344.734H146.469V349.493H151.228V344.734Z" fill="#F0F0F0"/>
<path d="M151.228 352.723H146.469V357.482H151.228V352.723Z" fill="#F0F0F0"/>
<path d="M151.228 360.712H146.469V365.471H151.228V360.712Z" fill="#F0F0F0"/>
<path d="M151.228 368.702H146.469V373.461H151.228V368.702Z" fill="#F0F0F0"/>
<path d="M151.228 376.691H146.469V381.45H151.228V376.691Z" fill="#F0F0F0"/>
<path d="M151.228 384.68H146.469V389.439H151.228V384.68Z" fill="#F0F0F0"/>
<path d="M151.228 392.669H146.469V397.428H151.228V392.669Z" fill="#F0F0F0"/>
<path d="M151.228 400.639H146.469V405.398H151.228V400.639Z" fill="#F0F0F0"/>
<path d="M151.228 408.628H146.469V413.387H151.228V408.628Z" fill="#F0F0F0"/>
<path d="M151.228 416.617H146.469V421.377H151.228V416.617Z" fill="#F0F0F0"/>
<path d="M151.228 424.607H146.469V429.366H151.228V424.607Z" fill="#F0F0F0"/>
<path d="M151.228 432.596H146.469V437.355H151.228V432.596Z" fill="#F0F0F0"/>
<path d="M151.228 440.585H146.469V445.344H151.228V440.585Z" fill="#F0F0F0"/>
<path d="M143.659 328.756H138.9V333.515H143.659V328.756Z" fill="#F0F0F0"/>
<path d="M143.659 336.745H138.9V341.504H143.659V336.745Z" fill="#F0F0F0"/>
<path d="M143.659 344.734H138.9V349.493H143.659V344.734Z" fill="#F0F0F0"/>
<path d="M143.659 352.723H138.9V357.482H143.659V352.723Z" fill="#F0F0F0"/>
<path d="M143.659 360.712H138.9V365.471H143.659V360.712Z" fill="#F0F0F0"/>
<path d="M143.659 368.702H138.9V373.461H143.659V368.702Z" fill="#F0F0F0"/>
<path d="M143.659 376.691H138.9V381.45H143.659V376.691Z" fill="#F0F0F0"/>
<path d="M143.659 384.68H138.9V389.439H143.659V384.68Z" fill="#F0F0F0"/>
<path d="M143.659 392.669H138.9V397.428H143.659V392.669Z" fill="#F0F0F0"/>
<path d="M143.659 400.639H138.9V405.398H143.659V400.639Z" fill="#F0F0F0"/>
<path d="M143.659 408.628H138.9V413.387H143.659V408.628Z" fill="#F0F0F0"/>
<path d="M143.659 416.617H138.9V421.377H143.659V416.617Z" fill="#F0F0F0"/>
<path d="M143.659 424.607H138.9V429.366H143.659V424.607Z" fill="#F0F0F0"/>
<path d="M136.091 328.756H131.332V333.515H136.091V328.756Z" fill="#F0F0F0"/>
<path d="M136.091 336.745H131.332V341.504H136.091V336.745Z" fill="#F0F0F0"/>
<path d="M136.091 344.734H131.332V349.493H136.091V344.734Z" fill="#F0F0F0"/>
<path d="M136.091 352.723H131.332V357.482H136.091V352.723Z" fill="#F0F0F0"/>
<path d="M136.091 360.712H131.332V365.471H136.091V360.712Z" fill="#F0F0F0"/>
<path d="M136.091 368.702H131.332V373.461H136.091V368.702Z" fill="#F0F0F0"/>
<path d="M136.091 376.691H131.332V381.45H136.091V376.691Z" fill="#F0F0F0"/>
<path d="M136.091 384.68H131.332V389.439H136.091V384.68Z" fill="#F0F0F0"/>
<path d="M136.091 392.669H131.332V397.428H136.091V392.669Z" fill="#F0F0F0"/>
<path d="M136.091 400.639H131.332V405.398H136.091V400.639Z" fill="#F0F0F0"/>
<path d="M136.091 408.628H131.332V413.387H136.091V408.628Z" fill="#F0F0F0"/>
<path d="M136.091 416.617H131.332V421.377H136.091V416.617Z" fill="#F0F0F0"/>
<path d="M415.501 382.291H410.742V387.05H415.501V382.291Z" fill="#F0F0F0"/>
<path d="M415.501 390.28H410.742V395.039H415.501V390.28Z" fill="#F0F0F0"/>
<path d="M415.501 398.269H410.742V403.028H415.501V398.269Z" fill="#F0F0F0"/>
<path d="M415.501 406.258H410.742V411.017H415.501V406.258Z" fill="#F0F0F0"/>
<path d="M415.501 414.247H410.742V419.006H415.501V414.247Z" fill="#F0F0F0"/>
<path d="M415.501 422.237H410.742V426.996H415.501V422.237Z" fill="#F0F0F0"/>
<path d="M415.501 430.207H410.742V434.966H415.501V430.207Z" fill="#F0F0F0"/>
<path d="M415.501 438.196H410.742V442.955H415.501V438.196Z" fill="#F0F0F0"/>
<path d="M415.501 446.185H410.742V450.944H415.501V446.185Z" fill="#F0F0F0"/>
<path d="M415.501 454.174H410.742V458.933H415.501V454.174Z" fill="#F0F0F0"/>
<path d="M415.501 462.163H410.742V466.922H415.501V462.163Z" fill="#F0F0F0"/>
<path d="M415.501 470.152H410.742V474.911H415.501V470.152Z" fill="#F0F0F0"/>
<path d="M415.501 478.142H410.742V482.901H415.501V478.142Z" fill="#F0F0F0"/>
<path d="M415.501 486.131H410.742V490.89H415.501V486.131Z" fill="#F0F0F0"/>
<path d="M415.501 502.09H410.742V506.849H415.501V502.09Z" fill="#F0F0F0"/>
<path d="M415.501 518.068H410.742V522.827H415.501V518.068Z" fill="#F0F0F0"/>
<path d="M415.501 526.057H410.742V530.817H415.501V526.057Z" fill="#F0F0F0"/>
<path d="M415.501 534.047H410.742V538.806H415.501V534.047Z" fill="#F0F0F0"/>
<path d="M415.501 542.036H410.742V546.795H415.501V542.036Z" fill="#F0F0F0"/>
<path d="M415.501 550.025H410.742V554.784H415.501V550.025Z" fill="#F0F0F0"/>
<path d="M202.508 392.669H197.749V397.428H202.508V392.669Z" fill="#F0F0F0"/>
<path d="M202.508 400.639H197.749V405.398H202.508V400.639Z" fill="#F0F0F0"/>
<path d="M202.508 408.628H197.749V413.387H202.508V408.628Z" fill="#F0F0F0"/>
<path d="M202.508 416.617H197.749V421.377H202.508V416.617Z" fill="#F0F0F0"/>
<path d="M202.508 424.607H197.749V429.366H202.508V424.607Z" fill="#F0F0F0"/>
<path d="M202.508 432.596H197.749V437.355H202.508V432.596Z" fill="#F0F0F0"/>
<path d="M202.508 440.585H197.749V445.344H202.508V440.585Z" fill="#F0F0F0"/>
<path d="M202.508 448.574H197.749V453.333H202.508V448.574Z" fill="#F0F0F0"/>
<path d="M202.508 456.563H197.749V461.322H202.508V456.563Z" fill="#F0F0F0"/>
<path d="M202.508 464.552H197.749V469.311H202.508V464.552Z" fill="#F0F0F0"/>
<path d="M202.508 472.542H197.749V477.301H202.508V472.542Z" fill="#F0F0F0"/>
<path d="M202.508 488.501H197.749V493.26H202.508V488.501Z" fill="#F0F0F0"/>
<path d="M202.508 496.49H197.749V501.249H202.508V496.49Z" fill="#F0F0F0"/>
<path d="M202.508 504.479H197.749V509.238H202.508V504.479Z" fill="#F0F0F0"/>
<path d="M202.508 512.468H197.749V517.227H202.508V512.468Z" fill="#F0F0F0"/>
<path d="M202.508 520.457H197.749V525.216H202.508V520.457Z" fill="#F0F0F0"/>
<path d="M202.508 528.447H197.749V533.206H202.508V528.447Z" fill="#F0F0F0"/>
<path d="M202.508 536.436H197.749V541.195H202.508V536.436Z" fill="#F0F0F0"/>
<path d="M202.508 544.425H197.749V549.184H202.508V544.425Z" fill="#F0F0F0"/>
<path d="M194.959 392.669H190.199V397.428H194.959V392.669Z" fill="#F0F0F0"/>
<path d="M194.959 400.639H190.199V405.398H194.959V400.639Z" fill="#F0F0F0"/>
<path d="M194.959 408.628H190.199V413.387H194.959V408.628Z" fill="#F0F0F0"/>
<path d="M194.959 416.617H190.199V421.377H194.959V416.617Z" fill="#F0F0F0"/>
<path d="M194.959 424.607H190.199V429.366H194.959V424.607Z" fill="#F0F0F0"/>
<path d="M194.959 432.596H190.199V437.355H194.959V432.596Z" fill="#F0F0F0"/>
<path d="M194.959 440.585H190.199V445.344H194.959V440.585Z" fill="#F0F0F0"/>
<path d="M194.959 448.574H190.199V453.333H194.959V448.574Z" fill="#F0F0F0"/>
<path d="M194.959 456.563H190.199V461.322H194.959V456.563Z" fill="#F0F0F0"/>
<path d="M194.959 464.552H190.199V469.311H194.959V464.552Z" fill="#F0F0F0"/>
<path d="M194.959 472.542H190.199V477.301H194.959V472.542Z" fill="#F0F0F0"/>
<path d="M194.959 480.512H190.199V485.271H194.959V480.512Z" fill="#F0F0F0"/>
<path d="M194.959 488.501H190.199V493.26H194.959V488.501Z" fill="#F0F0F0"/>
<path d="M194.959 496.49H190.199V501.249H194.959V496.49Z" fill="#F0F0F0"/>
<path d="M194.959 504.479H190.199V509.238H194.959V504.479Z" fill="#F0F0F0"/>
<path d="M194.959 512.468H190.199V517.227H194.959V512.468Z" fill="#F0F0F0"/>
<path d="M194.959 520.457H190.199V525.216H194.959V520.457Z" fill="#F0F0F0"/>
<path d="M194.959 528.447H190.199V533.206H194.959V528.447Z" fill="#F0F0F0"/>
<path d="M194.959 536.436H190.199V541.195H194.959V536.436Z" fill="#F0F0F0"/>
<path d="M194.959 544.425H190.199V549.184H194.959V544.425Z" fill="#F0F0F0"/>
<path d="M239.797 423.766H235.038V428.525H239.797V423.766Z" fill="#F0F0F0"/>
<path d="M239.797 431.755H235.038V436.514H239.797V431.755Z" fill="#F0F0F0"/>
<path d="M239.797 439.744H235.038V444.503H239.797V439.744Z" fill="#F0F0F0"/>
<path d="M239.797 447.733H235.038V452.492H239.797V447.733Z" fill="#F0F0F0"/>
<path d="M239.797 455.722H235.038V460.481H239.797V455.722Z" fill="#F0F0F0"/>
<path d="M239.797 463.711H235.038V468.471H239.797V463.711Z" fill="#F0F0F0"/>
<path d="M239.797 471.701H235.038V476.46H239.797V471.701Z" fill="#F0F0F0"/>
<path d="M239.797 479.671H235.038V484.43H239.797V479.671Z" fill="#F0F0F0"/>
<path d="M239.797 487.66H235.038V492.419H239.797V487.66Z" fill="#F0F0F0"/>
<path d="M239.797 495.649H235.038V500.408H239.797V495.649Z" fill="#F0F0F0"/>
<path d="M232.229 423.766H227.469V428.525H232.229V423.766Z" fill="#F0F0F0"/>
<path d="M232.229 431.755H227.469V436.514H232.229V431.755Z" fill="#F0F0F0"/>
<path d="M232.229 439.744H227.469V444.503H232.229V439.744Z" fill="#F0F0F0"/>
<path d="M232.229 447.733H227.469V452.492H232.229V447.733Z" fill="#F0F0F0"/>
<path d="M232.229 455.722H227.469V460.481H232.229V455.722Z" fill="#F0F0F0"/>
<path d="M232.229 463.711H227.469V468.471H232.229V463.711Z" fill="#F0F0F0"/>
<path d="M232.229 471.701H227.469V476.46H232.229V471.701Z" fill="#F0F0F0"/>
<path d="M232.229 479.671H227.469V484.43H232.229V479.671Z" fill="#F0F0F0"/>
<path d="M232.229 487.66H227.469V492.419H232.229V487.66Z" fill="#F0F0F0"/>
<path d="M277.24 120.655H269.25V566.137H277.24V120.655Z" fill="#E0E0E0"/>
<path d="M67.2277 626.457H1.11646V531.218C1.11646 526.574 4.88169 522.789 9.54522 522.789H58.8181C63.4625 522.789 67.2468 526.554 67.2468 531.218V626.457H67.2277Z" fill="#F0F0F0"/>
<path d="M67.2277 536.818H1.11646V544.253H67.2277V536.818Z" fill="#E6E6E6"/>
<path d="M55.1676 613.9H38.6923C36.1885 613.9 34.1626 615.926 34.1626 618.43V626.457H59.6973V618.43C59.7164 615.926 57.6714 613.9 55.1676 613.9Z" fill="#E0E0E0"/>
<path d="M59.7931 626.457H41.4639C39.8393 626.457 38.5205 625.138 38.5205 623.514C38.5205 621.889 39.8393 620.57 41.4639 620.57H59.7931C61.4177 620.57 62.7365 621.889 62.7365 623.514C62.7365 625.138 61.4177 626.457 59.7931 626.457Z" fill="#E6E6E6"/>
<path d="M353.329 99.688C377.521 93.9755 392.502 69.7326 386.79 45.5401C381.077 21.3476 356.835 6.36662 332.642 12.0792C308.45 17.7917 293.469 42.0345 299.181 66.227C304.894 90.4195 329.136 105.401 353.329 99.688Z" fill="#E0E0E0"/>
<path d="M349.151 93.7006C370.021 90.3135 384.194 70.6489 380.807 49.7785C377.42 28.9081 357.755 14.7352 336.885 18.1223C316.015 21.5094 301.842 41.174 305.229 62.0444C308.616 82.9147 328.281 97.0877 349.151 93.7006Z" fill="#F0F0F0"/>
<path d="M344.803 29.6592V56.4171L362.54 46.3829" fill="#F0F0F0"/>
<path d="M344.803 29.6592V56.4171L362.54 46.3829" stroke="#E0E0E0" stroke-width="2" stroke-miterlimit="10" stroke-linecap="round" stroke-linejoin="round"/>
<path d="M204.821 713C409.486 713 575.399 703.313 575.399 691.364C575.399 679.415 409.486 669.729 204.821 669.729C0.155884 669.729 -165.758 679.415 -165.758 691.364C-165.758 703.313 0.155884 713 204.821 713Z" fill="#F5F5F5"/>
<path d="M421.025 649.488L365.961 644.079V566.691H344.134V644.06L288.841 649.488C283.355 650.023 279.169 654.649 279.169 660.153V668.429H352.907H356.959H430.696V660.153C430.696 654.649 426.529 650.023 421.025 649.488Z" fill="#263238"/>
<path opacity="0.2" d="M421.025 649.488L365.961 644.079V566.691H344.134V644.06L288.841 649.488C283.355 650.023 279.169 654.649 279.169 660.153V668.429H352.907H356.959H430.696V660.153C430.696 654.649 426.529 650.023 421.025 649.488Z" fill="white"/>
<path d="M284.999 692.97C292.884 692.97 299.276 686.578 299.276 678.693C299.276 670.807 292.884 664.415 284.999 664.415C277.114 664.415 270.722 670.807 270.722 678.693C270.722 686.578 277.114 692.97 284.999 692.97Z" fill="#263238"/>
<path d="M424.886 692.97C432.771 692.97 439.163 686.578 439.163 678.693C439.163 670.807 432.771 664.415 424.886 664.415C417.001 664.415 410.608 670.807 410.608 678.693C410.608 686.578 417.001 692.97 424.886 692.97Z" fill="#263238"/>
<path d="M361.813 583.32H348.262C343.904 583.32 340.369 579.784 340.369 575.426V514.399H369.707V575.426C369.726 579.784 366.19 583.32 361.813 583.32Z" fill="#263238"/>
<path opacity="0.3" d="M361.813 583.32H348.262C343.904 583.32 340.369 579.784 340.369 575.426V514.399H369.707V575.426C369.726 579.784 366.19 583.32 361.813 583.32Z" fill="white"/>
<path d="M407.226 393.415C407.226 393.415 411.392 496.624 382.646 514.38H415.444C415.444 514.38 440.864 479.212 433.678 393.415H407.226Z" fill="#263238"/>
<path opacity="0.3" d="M407.226 393.415C407.226 393.415 411.392 496.624 382.646 514.38H415.444C415.444 514.38 440.864 479.212 433.678 393.415H407.226Z" fill="white"/>
<path d="M289.165 499.949H417.068C422.343 499.949 426.625 504.231 426.625 509.506V522.292H279.609V509.506C279.609 504.231 283.89 499.949 289.165 499.949Z" fill="#263238"/>
<path d="M277.335 511.13H428.918C431.04 511.13 432.76 512.851 432.76 514.972V518.451C432.76 520.572 431.04 522.292 428.918 522.292H277.335C275.213 522.292 273.493 520.572 273.493 518.451V514.972C273.493 512.851 275.213 511.13 277.335 511.13Z" fill="#263238"/>
<path opacity="0.6" d="M277.335 511.13H428.918C431.04 511.13 432.76 512.851 432.76 514.972V518.451C432.76 520.572 431.04 522.292 428.918 522.292H277.335C275.213 522.292 273.493 520.572 273.493 518.451V514.972C273.493 512.851 275.213 511.13 277.335 511.13Z" fill="white"/>
<path d="M441.724 414.381H389.183C373.797 414.381 361.316 401.901 361.316 386.515V365.968C361.316 350.583 373.797 338.102 389.183 338.102H441.724C457.11 338.102 469.59 350.583 469.59 365.968V386.515C469.609 401.901 457.129 414.381 441.724 414.381Z" fill="#263238"/>
<path d="M229.763 253.757L219.27 226.101C219.27 226.101 223.761 221.934 220.684 217.71C217.607 213.486 198.246 201.598 194.71 203.701C191.174 205.784 183.357 213.658 187.581 218.035C191.824 222.412 210.574 229.694 210.574 229.694L219.843 265.989L229.763 253.757Z" fill="#E4897B"/>
<path d="M303.022 306.336C303.022 306.336 255.298 296.532 250.118 294.181C244.938 291.83 225.73 235.581 225.73 235.581L211.013 242.461C211.013 242.461 222.863 298.921 234.981 312.357C247.098 325.774 298.798 337.146 298.798 337.146L303.022 306.336Z" fill="#407BFF"/>
<path d="M298.798 337.127C298.798 337.127 298.493 337.07 297.919 336.917C295.301 336.324 287.159 334.413 277.468 331.565C261.739 326.997 241.899 320.002 234.981 312.338C222.882 298.901 211.013 242.442 211.013 242.442L225.73 235.562C225.73 235.562 244.938 291.83 250.137 294.162C255.317 296.493 303.022 306.298 303.022 306.298L298.798 337.127Z" fill="#258777"/>
<path opacity="0.2" d="M225.978 234.472L229.017 240.34L210.096 246.857L210.822 239.69L225.978 234.472Z" fill="black"/>
<path opacity="0.2" d="M299.162 336.344C296.505 335.961 288.229 334.681 278.348 332.597C283.986 322.869 300.5 317.861 300.5 317.861L299.162 336.344Z" fill="black"/>
<path d="M370.3 267.384C370.3 267.384 373.109 293.817 363.305 300.316C353.519 306.814 305.335 299.207 299.869 288.561C294.403 277.935 314.968 249.055 314.968 249.055L370.3 267.384Z" fill="#263238"/>
<path d="M175.368 615.219L187.944 618.239L194.309 600.884L200.081 585.097L185.765 579L180.261 598.151L175.368 615.219Z" fill="#E4897B"/>
<path opacity="0.2" d="M180.261 598.151L194.309 600.884L200.081 585.097L185.765 579L180.261 598.151Z" fill="black"/>
<path d="M181.522 588.996L198.953 595.475C198.953 595.475 245.455 479.212 255.011 478.811C264.567 478.409 361.871 523.133 386.259 498.325C410.647 473.535 375.384 413.77 375.384 413.77C375.384 413.77 316.726 405.398 312.311 418.643C311.451 421.204 310.515 426.231 309.827 430.532C309.158 434.583 308.699 437.986 308.699 437.986C308.699 437.986 308.68 437.986 308.661 437.966C306.845 437.508 247.958 422.313 224.755 437.986C201.189 453.926 181.522 588.996 181.522 588.996Z" fill="#407BFF"/>
<path d="M181.522 588.996L198.953 595.475C198.953 595.475 245.455 479.212 255.011 478.811C264.567 478.409 361.871 523.133 386.259 498.325C410.647 473.535 375.384 413.77 375.384 413.77C375.384 413.77 316.726 405.398 312.311 418.643C311.451 421.204 310.515 426.231 309.827 430.532C309.158 434.583 308.699 437.986 308.699 437.986C308.699 437.986 308.68 437.986 308.661 437.966C306.845 437.508 247.958 422.313 224.755 437.986C201.189 453.926 181.522 588.996 181.522 588.996Z" fill="#AEE6DD"/>
<path d="M281.788 664.797L294.307 661.606L291.899 643.64L289.663 627.145L274.181 628.54L278.195 647.749L281.788 664.797Z" fill="#E4897B"/>
<path opacity="0.2" d="M278.29 648.131L291.975 643.984L289.701 627.317L274.2 628.636L278.29 648.131Z" fill="black"/>
<path d="M206.159 589.015L180.758 580.395L179.688 590.793L198.934 597.597L206.159 589.015Z" fill="#2EB19F"/>
<path d="M344.134 504.288C344.134 504.288 340.159 504.384 278.634 501.517C278.634 501.517 287.828 578.446 292.854 636.014L274.449 639.148C274.449 639.148 230.489 515.851 230.967 496.261C231.445 476.67 253.902 470.936 253.902 470.936C253.902 470.936 297.728 496.261 344.134 504.288Z" fill="#407BFF"/>
<path opacity="0.6" d="M344.134 504.288C344.134 504.288 340.159 504.384 278.634 501.517C278.634 501.517 287.828 578.446 292.854 636.014L274.449 639.148C274.449 639.148 230.489 515.851 230.967 496.261C231.445 476.67 253.902 470.936 253.902 470.936C253.902 470.936 297.728 496.261 344.134 504.288Z" fill="white"/>
<path d="M344.134 504.288C344.134 504.288 340.159 504.384 278.634 501.517C278.634 501.517 287.828 578.446 292.854 636.014L274.449 639.148C274.449 639.148 230.489 515.851 230.967 496.261C231.445 476.67 253.902 470.936 253.902 470.936C253.902 470.936 297.728 496.261 344.134 504.288Z" fill="#65CEBA"/>
<path d="M295.531 630.433L270.244 633.319L275.137 643.219L295.607 640.601L295.531 630.433Z" fill="#2EB19F"/>
<path opacity="0.1" d="M308.699 437.986L343.006 445.134C343.006 445.134 324.047 434.66 309.827 430.532C309.158 434.583 308.699 437.986 308.699 437.986Z" fill="black"/>
<path d="M373.969 404.653L375.384 413.77L312.311 418.643L310.629 407.845L373.969 404.653Z" fill="#263238"/>
<path opacity="0.2" d="M373.969 404.653L375.384 413.77L312.311 418.643L310.629 407.845L373.969 404.653Z" fill="black"/>
<path d="M354.039 419.914L357.157 419.593L355.525 403.717L352.406 404.037L354.039 419.914Z" fill="#407BFF"/>
<path d="M326.124 418.318L339.933 417.431L339.26 406.96L325.452 407.847L326.124 418.318Z" fill="white"/>
<path d="M315.403 421.636L318.521 421.315L316.888 405.441L313.77 405.761L315.403 421.636Z" fill="#407BFF"/>
<path opacity="0.6" d="M354.039 419.914L357.157 419.593L355.525 403.717L352.406 404.037L354.039 419.914Z" fill="white"/>
<path opacity="0.6" d="M315.403 421.636L318.521 421.315L316.888 405.441L313.77 405.761L315.403 421.636Z" fill="white"/>
<path d="M301.876 305.476C301.876 305.476 317.969 310.522 338.209 309.49C358.45 308.458 382.646 318.282 382.646 318.282L373.95 404.653L310.629 407.845C310.629 407.845 289.357 335.713 301.876 305.476Z" fill="#2EB19F"/>
<path d="M312.063 256.681C312.063 256.681 315.618 214.729 350.69 229.981C394.707 249.113 359.711 300.201 338.209 289.708C316.707 279.215 312.063 256.681 312.063 256.681Z" fill="#263238"/>
<path opacity="0.2" d="M321.887 311.822L322.9 335.522L330.755 324.379C330.755 324.379 327.945 350.602 329.589 364.86C329.589 364.86 331.099 339.268 334.654 324.379L343.006 335.522L354.99 311.975C355.009 311.975 335.591 304.998 321.887 311.822Z" fill="black"/>
<path d="M332.743 316.237L350.881 311.115C339.7 303.431 345.339 286.23 345.339 286.23L327.373 292.537C328.328 295.519 328.94 298.041 329.303 300.22C331.176 311.42 326.111 312.319 326.111 312.319L332.743 316.237Z" fill="#E4897B"/>
<path opacity="0.2" d="M327.372 292.537C328.328 295.519 328.94 298.041 329.303 300.22C337.903 296.78 345.338 286.23 345.338 286.23L327.372 292.537Z" fill="black"/>
<path d="M339.108 238.792C323.206 235.275 316.191 242.652 311.394 258.784C305.412 278.948 306.73 294.506 327.583 294.525C355.908 294.582 365.521 244.64 339.108 238.792Z" fill="#E4897B"/>
<path d="M321.868 260.179C321.868 260.179 318.752 263.849 315.771 265.76C315.771 265.76 316.65 268.225 319.574 268.493L321.868 260.179Z" fill="#DE5753"/>
<path d="M331.902 261.02C331.577 262.32 332.017 263.543 332.896 263.753C333.756 263.963 334.731 263.084 335.036 261.784C335.361 260.485 334.922 259.262 334.042 259.051C333.182 258.841 332.227 259.72 331.902 261.02Z" fill="#263238"/>
<path d="M334.386 259.204L331.825 257.408C331.844 257.408 332.666 260.141 334.386 259.204Z" fill="#263238"/>
<path d="M315.809 256.777C315.484 258.077 315.924 259.3 316.803 259.51C317.663 259.72 318.638 258.841 318.944 257.541C319.268 256.242 318.829 255.019 317.95 254.808C317.09 254.598 316.134 255.477 315.809 256.777Z" fill="#263238"/>
<path d="M318.294 254.961L315.732 253.165C315.752 253.165 316.573 255.879 318.294 254.961Z" fill="#263238"/>
<path d="M334.482 250.087C334.482 250.087 339.088 250.489 340.847 254.025" stroke="#263238" stroke-width="0.7247" stroke-miterlimit="10" stroke-linecap="round" stroke-linejoin="round"/>
<path d="M323.072 246.857C323.072 246.857 320.491 245.194 316.439 246.762" stroke="#263238" stroke-width="0.7247" stroke-miterlimit="10" stroke-linecap="round" stroke-linejoin="round"/>
<path d="M350.556 269.449C350.556 269.449 346.007 254.732 349.371 244.889C349.371 244.889 320.702 225.03 312.063 256.681C312.063 256.681 315.274 227.592 342.758 233C370.204 238.409 361.279 278.393 344.517 287.185C344.497 287.204 353.347 278.642 350.556 269.449Z" fill="#263238"/>
<path d="M347.211 272.239C347.88 269.697 351.492 265.951 356.137 267.518C360.953 269.143 361.049 279.789 348.262 279.502C346.408 279.464 345.797 277.533 347.211 272.239Z" fill="#E4897B"/>
<path d="M316.726 274.514C317.281 276.616 317.548 280.419 317.548 280.419C317.892 280.458 318.255 280.496 318.599 280.515C323.339 280.916 325.69 279.54 326.837 277.877C327.468 276.979 327.716 275.966 327.831 275.144C327.965 274.189 327.831 273.482 327.831 273.482C325.193 274.781 320.721 274.743 318.351 274.609C317.357 274.59 316.726 274.514 316.726 274.514Z" fill="#263238"/>
<path d="M318.351 274.628L318.638 276.368C323.11 276.731 326.321 276.406 327.831 275.163C327.965 274.208 327.831 273.501 327.831 273.501C325.193 274.781 320.74 274.743 318.351 274.628Z" fill="white"/>
<path d="M318.599 280.534C323.339 280.935 325.69 279.559 326.837 277.897C325.212 277.82 323.244 277.916 321.466 278.489C320.128 278.929 319.23 279.712 318.599 280.534Z" fill="#DE5753"/>
<path d="M339.165 240.072C339.165 240.072 339.776 267.671 356.328 270.978C372.88 274.284 354.78 235.523 354.78 235.523C354.78 235.523 330.124 219.43 313.706 230.764C297.269 242.117 312.044 256.7 312.044 256.7C312.044 256.7 315.522 236.192 339.165 240.072Z" fill="#263238"/>
<path d="M339.738 238.237C339.738 238.237 333.832 255.687 345.491 264.843" stroke="#263238" stroke-width="0.5" stroke-miterlimit="10" stroke-linecap="round" stroke-linejoin="round"/>
<path d="M361.163 276.635C359.061 282.254 353.652 285.408 349.084 283.688C344.516 281.968 342.528 276.043 344.631 270.423C346.733 264.804 352.142 261.651 356.71 263.371C361.278 265.091 363.266 271.035 361.163 276.635Z" fill="#407BFF"/>
<path d="M361.163 276.635C359.061 282.254 353.652 285.408 349.084 283.688C344.516 281.968 342.528 276.043 344.631 270.423C346.733 264.804 352.142 261.651 356.71 263.371C361.278 265.091 363.266 271.035 361.163 276.635Z" fill="#258777"/>
<path d="M355.889 267.442C355.889 267.442 362.75 236.728 347.364 228.681C347.364 228.681 350.575 229.121 352.563 229.694C354.551 230.267 366.84 242.729 360.629 270.328L355.889 267.442Z" fill="#407BFF"/>
<path d="M355.889 267.442C355.889 267.442 362.75 236.728 347.364 228.681C347.364 228.681 350.575 229.121 352.563 229.694C354.551 230.267 366.84 242.729 360.629 270.328L355.889 267.442Z" fill="#258777"/>
<path d="M327.047 285.026C326.665 284.968 326.283 284.911 325.901 284.854L326.206 282.961C340.063 285.217 350.365 277.897 350.461 277.82L351.588 279.368C351.168 279.674 341.134 286.88 327.047 285.026Z" fill="#407BFF"/>
<path d="M327.047 285.026C326.665 284.968 326.283 284.911 325.901 284.854L326.206 282.961C340.063 285.217 350.365 277.897 350.461 277.82L351.588 279.368C351.168 279.674 341.134 286.88 327.047 285.026Z" fill="#258777"/>
<path d="M360.514 275.871C359.119 279.578 355.545 281.662 352.525 280.534C349.505 279.406 348.186 275.469 349.581 271.761C350.977 268.053 354.551 265.97 357.571 267.098C360.59 268.245 361.909 272.163 360.514 275.871Z" fill="#407BFF"/>
<path d="M325.346 285.656L323.817 285.446C322.67 285.293 321.868 284.261 322.021 283.114C322.174 281.968 323.206 281.165 324.352 281.318L325.881 281.528C327.028 281.681 327.831 282.713 327.678 283.86C327.525 284.987 326.474 285.79 325.346 285.656Z" fill="#407BFF"/>
<path d="M325.346 285.656L323.817 285.446C322.67 285.293 321.868 284.261 322.021 283.114C322.174 281.968 323.206 281.165 324.352 281.318L325.881 281.528C327.028 281.681 327.831 282.713 327.678 283.86C327.525 284.987 326.474 285.79 325.346 285.656Z" fill="#258777"/>
<path d="M346.007 304.54L334.654 315.683L339.203 329.367L355.009 311.975L346.007 304.54Z" fill="#258777"/>
<path d="M329.589 306.872L331.424 315.453L325.556 327.59L321.887 311.822L329.589 306.872Z" fill="#258777"/>
<path d="M343.58 314.211L350.174 290.071C350.174 290.071 346.982 284.051 347.67 282.808C348.358 281.547 351.798 265.339 354.245 263.581C356.691 261.823 366.745 264.823 367.777 266.467C368.79 268.111 358.144 290.071 358.144 290.071L354.264 316.218L343.58 314.211Z" fill="#E4897B"/>
<path d="M382.647 318.263C400.785 336.84 364.413 378.927 343.58 377.13C322.747 375.334 344.096 299.035 344.096 299.035L357.437 301.233C357.437 301.233 352.754 334.26 354.226 336.841C355.717 339.44 376.55 312.032 382.647 318.263Z" fill="#407BFF"/>
<path d="M382.647 318.263C400.785 336.84 364.413 378.927 343.58 377.13C322.747 375.334 344.096 299.035 344.096 299.035L357.437 301.233C357.437 301.233 352.754 334.26 354.226 336.841C355.717 339.44 376.55 312.032 382.647 318.263Z" fill="#258777"/>
<path opacity="0.2" d="M343.006 296.589L341.038 302.896L359.635 304.54V299.035L343.006 296.589Z" fill="black"/>
<path opacity="0.6" d="M314.834 363.732H307.304C306.463 363.732 305.794 363.063 305.794 362.222V348.002C305.794 347.161 306.463 346.492 307.304 346.492H314.834C315.675 346.492 316.344 347.161 316.344 348.002V362.222C316.344 363.063 315.656 363.732 314.834 363.732Z" fill="white"/>
<path opacity="0.2" d="M314.968 347.639H306.406V359.355H314.968V347.639Z" fill="black"/>
<path d="M311.833 342.345H309.941V349.245H311.833V342.345Z" fill="#263238"/>
<path d="M154.573 639.626C156.485 638.747 158.549 638.231 160.632 638.078C160.632 638.078 167.895 633.796 175.081 617.207L183.166 617.168C185.976 617.207 188.441 618.984 189.378 621.622C189.512 621.985 189.588 622.367 189.607 622.749C189.531 624.699 189.32 626.648 188.976 628.579C188.25 634.637 184.256 647.615 184.256 647.615L182.879 647.271L185.364 635.192C186.186 631.082 181.886 635.058 179.879 639.186C177.872 643.315 174.814 647.481 165.869 645.436C155.491 642.99 151.305 641.499 154.573 639.626Z" fill="#2EB19F"/>
<path d="M176.553 612.868C176.553 612.868 166.442 634.007 160.632 638.097C160.632 638.097 168.43 642.741 176.553 632.401C187.046 619.022 189.626 622.749 189.626 622.749C189.626 622.749 189.187 618.162 188.365 615.926C186.778 611.587 176.553 612.868 176.553 612.868Z" fill="#E4897B"/>
<path d="M265.848 689.988C267.492 688.688 269.365 687.695 271.372 687.045C271.372 687.045 277.411 681.177 280.469 663.345L288.325 661.376C291.058 660.746 293.886 661.873 295.415 664.224C295.626 664.549 295.798 664.893 295.912 665.256C296.295 667.167 296.562 669.117 296.696 671.066C297.422 677.125 296.62 690.676 296.62 690.676L295.205 690.657L294.766 678.329C294.594 674.144 291.344 679.017 290.389 683.509C289.433 688 287.445 692.779 278.271 692.912C267.549 693.046 263.115 692.588 265.848 689.988Z" fill="#2EB19F"/>
<path d="M280.852 658.777C280.852 658.777 276.054 681.712 271.372 687.045C271.372 687.045 280.049 689.721 285.477 677.737C292.51 662.236 295.893 665.275 295.893 665.275C295.893 665.275 294.383 660.937 293.046 658.949C290.484 655.126 280.852 658.777 280.852 658.777Z" fill="#E4897B"/>
<path d="M458.563 244.086H391.821C386.469 244.086 382.13 239.747 382.13 234.396V205.841C382.13 200.49 386.469 196.151 391.821 196.151H458.563C463.914 196.151 468.253 200.49 468.253 205.841V234.396C468.253 239.747 463.914 244.086 458.563 244.086Z" fill="#258777"/>
<path d="M405.219 238.62L385.112 265.951L417.547 240.455L405.219 238.62Z" fill="#258777"/>
<path d="M405.964 220.118C405.964 221.667 404.703 222.947 403.135 222.947C401.587 222.947 400.307 221.686 400.307 220.118C400.307 218.57 401.568 217.29 403.135 217.29C404.703 217.309 405.964 218.57 405.964 220.118Z" fill="white"/>
<path d="M190.352 206.395L142.761 180.765C141.481 180.077 140.984 178.472 141.691 177.172L156.867 149C157.555 147.719 159.16 147.222 160.46 147.929L208.051 173.56C209.331 174.248 209.828 175.853 209.121 177.153L193.945 205.325C193.238 206.625 191.633 207.103 190.352 206.395Z" fill="#407BFF"/>
<path d="M190.352 206.395L142.761 180.765C141.481 180.077 140.984 178.472 141.691 177.172L156.867 149C157.555 147.719 159.16 147.222 160.46 147.929L208.051 173.56C209.331 174.248 209.828 175.853 209.121 177.153L193.945 205.325C193.238 206.625 191.633 207.103 190.352 206.395Z" fill="#9DCEC4"/>
<path d="M155.605 151.331L170.494 179.141C171.66 181.3 174.011 182.562 176.438 182.313L207.42 179.255L175.865 183.9C173.036 184.32 170.265 182.829 169.061 180.23L155.605 151.331Z" fill="#2EB19F"/>
<path d="M119.463 146.152C119.96 135.525 127.834 114.1 137.41 107.544C146.985 100.988 140.678 110.067 140.678 110.067C140.678 110.067 149.757 101.237 154.535 101.504C159.332 101.753 154.535 107.295 154.535 107.295C154.535 107.295 164.359 101.237 168.908 101.485C173.437 101.734 168.908 107.028 168.908 107.028C168.908 107.028 176.973 101.237 180.242 104.008C183.51 106.779 138.404 136.519 133.358 148.617C128.35 160.716 118.947 156.912 119.463 146.152Z" fill="#407BFF"/>
<path d="M119.463 146.152C119.96 135.525 127.834 114.1 137.41 107.544C146.985 100.988 140.678 110.067 140.678 110.067C140.678 110.067 149.757 101.237 154.535 101.504C159.332 101.753 154.535 107.295 154.535 107.295C154.535 107.295 164.359 101.237 168.908 101.485C173.437 101.734 168.908 107.028 168.908 107.028C168.908 107.028 176.973 101.237 180.242 104.008C183.51 106.779 138.404 136.519 133.358 148.617C128.35 160.716 118.947 156.912 119.463 146.152Z" fill="#D6F3EE"/>
<path d="M158.223 144.585L164.244 148.445C164.684 148.732 164.454 149.401 163.938 149.363L157.612 148.866L158.147 153.72C158.204 154.256 157.554 154.542 157.191 154.141L153.541 150.013L158.223 144.585Z" fill="#407BFF"/>
<path opacity="0.3" d="M158.223 144.585L164.244 148.445C164.684 148.732 164.454 149.401 163.938 149.363L157.612 148.866L158.147 153.72C158.204 154.256 157.554 154.542 157.191 154.141L153.541 150.013L158.223 144.585Z" fill="white"/>
<path d="M73.6494 120.655C73.6494 120.655 81.9635 114.864 94.578 118.629C94.578 118.629 98.2094 135.257 108.11 140.8C113.557 143.839 126.879 143.591 137.429 140.169C149.948 136.118 156.083 136.118 158.357 140.8C160.498 145.234 158.109 150.376 148.533 152.65C138.958 154.925 131.389 171.553 113.997 171.801C96.6039 172.05 87.4489 154.619 91.8257 139.29C91.8066 139.309 86.5123 127.88 73.6494 120.655Z" fill="#407BFF"/>
<path d="M73.6494 120.655C73.6494 120.655 81.9635 114.864 94.578 118.629C94.578 118.629 98.2094 135.257 108.11 140.8C113.557 143.839 126.879 143.591 137.429 140.169C149.948 136.118 156.083 136.118 158.357 140.8C160.498 145.234 158.109 150.376 148.533 152.65C138.958 154.925 131.389 171.553 113.997 171.801C96.6039 172.05 87.4489 154.619 91.8257 139.29C91.8066 139.309 86.5123 127.88 73.6494 120.655Z" fill="#AEE6DD"/>
<path d="M153.56 143.973C153.56 144.451 153.178 144.814 152.719 144.814C152.241 144.814 151.859 144.432 151.859 143.973C151.859 143.495 152.241 143.113 152.719 143.113C153.178 143.113 153.56 143.495 153.56 143.973Z" fill="#263238"/>
<path d="M109.945 157.964C99.6813 160.773 76.8606 159.894 67.6673 152.803C58.4741 145.712 69.0626 148.904 69.0626 148.904C69.0626 148.904 57.8624 142.998 56.6392 138.373C55.3969 133.748 62.1437 136.576 62.1437 136.576C62.1437 136.576 53.3518 129.103 52.1859 124.707C51.0392 120.311 57.4611 122.987 57.4611 122.987C57.4611 122.987 49.4528 117.1 51.0774 113.125C52.702 109.149 94.9222 142.883 107.976 143.954C121.069 145.024 120.342 155.135 109.945 157.964Z" fill="#407BFF"/>
<path d="M109.945 157.964C99.6813 160.773 76.8606 159.894 67.6673 152.803C58.4741 145.712 69.0626 148.904 69.0626 148.904C69.0626 148.904 57.8624 142.998 56.6392 138.373C55.3969 133.748 62.1437 136.576 62.1437 136.576C62.1437 136.576 53.3518 129.103 52.1859 124.707C51.0392 120.311 57.4611 122.987 57.4611 122.987C57.4611 122.987 49.4528 117.1 51.0774 113.125C52.702 109.149 94.9222 142.883 107.976 143.954C121.069 145.024 120.342 155.135 109.945 157.964Z" fill="#D6F3EE"/>
<path d="M42.6676 110.755C40.871 110.124 39.0553 109.512 37.2205 108.958" stroke="#2EB19F" stroke-width="0.75" stroke-linecap="round" stroke-linejoin="round"/>
<path d="M26.0584 106.11C19.3689 104.715 12.5456 103.798 5.77969 103.32C-12.798 102.02 -41.945 100.185 -53.3172 118.706C-63.6954 135.582 -45.8441 164.366 -39.5177 180.039C-31.7579 199.228 -22.5264 222.947 -31.7006 243.264C-50.5458 285.006 -131.183 263.332 -158.38 224.877" stroke="#2EB19F" stroke-width="0.75" stroke-linecap="round" stroke-linejoin="round" stroke-dasharray="6.03 6.03"/>
<path d="M70.668 371.798H-1.88428V386.668H70.668V371.798Z" fill="white"/>
<path opacity="0.1" d="M70.668 371.798H-1.88428V386.668H70.668V371.798Z" fill="black"/>
<path opacity="0.1" d="M28.6771 371.798H-1.88428V386.668H28.6771V371.798Z" fill="black"/>
<path opacity="0.1" d="M-1.88452 373.938H62.6977L-1.88452 375.773V373.938Z" fill="black"/>
<path opacity="0.1" d="M70.6675 376.519L14.686 377.914H70.6675V376.519Z" fill="black"/>
<path opacity="0.1" d="M1.07812 380.685L28.6771 379.558L69.2536 380.685L28.6771 381.316L1.07812 380.685Z" fill="black"/>
<path opacity="0.1" d="M-1.88452 383.839H45.9357L-1.88452 384.967V383.839Z" fill="black"/>
<path opacity="0.1" d="M70.5529 384.967L38.6345 385.559H70.6676L70.5529 384.967Z" fill="black"/>
<path d="M60.5762 356.928H-11.9761V371.798H60.5762V356.928Z" fill="white"/>
<path opacity="0.1" d="M60.5762 356.928H-11.9761V371.798H60.5762V356.928Z" fill="black"/>
<path opacity="0.1" d="M18.5853 356.928H-11.9761V371.798H18.5853V356.928Z" fill="black"/>
<path opacity="0.1" d="M-11.9761 359.069H52.6061L-11.9761 360.884V359.069Z" fill="black"/>
<path opacity="0.1" d="M60.5762 361.649L4.59473 363.044H60.5762V361.649Z" fill="black"/>
<path opacity="0.1" d="M-9.03247 365.816L18.5665 364.669L59.143 365.816L18.5665 366.446L-9.03247 365.816Z" fill="black"/>
<path opacity="0.1" d="M-11.9761 368.95H35.8442L-11.9761 370.097V368.95Z" fill="black"/>
<path opacity="0.1" d="M60.4615 370.097L28.5239 370.689H60.5761L60.4615 370.097Z" fill="black"/>
<path d="M68.8523 342.039H-3.69995V356.909H68.8523V342.039Z" fill="white"/>
<path opacity="0.1" d="M68.8523 342.039H-3.69995V356.909H68.8523V342.039Z" fill="black"/>
<path opacity="0.1" d="M26.8615 342.039H-3.69995V356.909H26.8615V342.039Z" fill="black"/>
<path opacity="0.1" d="M-3.69995 344.18H60.8823L-3.69995 346.015V344.18Z" fill="black"/>
<path opacity="0.1" d="M68.8521 346.76L12.8706 348.155H68.8521V346.76Z" fill="black"/>
<path opacity="0.1" d="M-0.737305 350.927L26.8616 349.799L67.4381 350.927L26.8616 351.557L-0.737305 350.927Z" fill="black"/>
<path opacity="0.1" d="M-3.69995 354.08H44.1203L-3.69995 355.208V354.08Z" fill="black"/>
<path opacity="0.1" d="M68.7566 355.208L36.8191 355.8H68.8522L68.7566 355.208Z" fill="black"/>
<path d="M117.189 386.362L119.062 379.233H196.564L232.267 382.807L233.624 386.362H117.189Z" fill="#263238"/>
<path opacity="0.4" d="M196.564 379.233V386.362H117.189L119.062 379.233H196.564Z" fill="black"/>
<path d="M181.006 345.116C181.35 348.882 178.598 351.94 174.852 351.94H56.123C52.3578 351.94 49.0322 348.882 48.6882 345.116L41.6355 269.105C41.5591 268.321 41.6164 267.576 41.7884 266.888C42.4574 264.212 44.8083 262.281 47.7899 262.281H166.519C170.284 262.281 173.61 265.339 173.954 269.105L181.006 345.116Z" fill="#263238"/>
<path opacity="0.4" d="M174.431 351.94H56.123C52.3578 351.94 49.0322 348.882 48.6882 345.116L41.6355 269.105C41.5591 268.321 41.6164 267.576 41.7884 266.888H160.097C163.843 266.888 167.169 269.946 167.532 273.711L174.584 349.723C174.661 350.506 174.603 351.252 174.431 351.94Z" fill="black"/>
<path d="M92.8578 305.323H117.418L110.881 375.64L149.718 381.469V386.362H67.9155V381.469L84.6775 375.64L92.8578 305.323Z" fill="#263238"/>
<path opacity="0.1" d="M117.418 305.323L99.2224 385.253L84.6775 384.814L92.8578 305.323H117.418Z" fill="white"/>
<path d="M117.303 692.951H105.606L84.563 400.066H100.102L117.303 692.951Z" fill="#263238"/>
<path opacity="0.4" d="M117.322 692.951H105.606L85.5951 414.611L84.563 400.524H100.102L100.943 414.611L117.322 692.951Z" fill="white"/>
<path opacity="0.2" d="M100.943 413.903H85.5951L84.563 400.524H100.102L100.943 413.903Z" fill="black"/>
<path d="M203.234 692.951H191.537L189.626 400.066H205.146L203.234 692.951Z" fill="#263238"/>
<path opacity="0.5" d="M205.165 400.524L204.859 447.79L203.253 692.951H191.537L189.932 447.79L189.626 400.524H205.165Z" fill="white"/>
<path opacity="0.2" d="M205.165 400.524L204.859 448.306H189.932L189.626 400.524H205.165Z" fill="black"/>
<path d="M327.544 692.951H315.847L294.804 400.066H310.343L327.544 692.951Z" fill="#263238"/>
<path opacity="0.5" d="M327.563 692.951H315.847L295.836 414.611L294.804 400.524H310.343L311.184 414.611L327.563 692.951Z" fill="white"/>
<path opacity="0.2" d="M311.184 413.903H295.836L294.804 400.524H310.343L311.184 413.903Z" fill="black"/>
<path d="M-16.6396 692.951H-28.3367L-11.1351 400.066H4.40361L-16.6396 692.951Z" fill="#263238"/>
<path opacity="0.5" d="M4.40361 400.524L3.37153 414.611L-16.6396 692.951H-28.3367L-11.9761 414.611L-11.1351 400.524H4.40361Z" fill="white"/>
<path opacity="0.2" d="M-11.1351 400.524H4.4036L3.37152 413.903H-11.9761L-11.1351 400.524Z" fill="black"/>
<path d="M318.523 407.386H-19.3153C-21.5897 407.386 -23.4436 405.532 -23.4436 403.258V392.726H322.651V403.258C322.651 405.532 320.797 407.386 318.523 407.386Z" fill="#407BFF"/>
<path d="M318.523 407.386H-19.3153C-21.5897 407.386 -23.4436 405.532 -23.4436 403.258V392.726H322.651V403.258C322.651 405.532 320.797 407.386 318.523 407.386Z" fill="#2EB19F"/>
<path d="M322.651 392.726H-23.4436V400.066H322.651V392.726Z" fill="#258777"/>
<path d="M329.914 394.638H-30.7066C-32.981 394.638 -34.835 392.784 -34.835 390.509C-34.835 388.235 -32.981 386.381 -30.7066 386.381H329.914C332.189 386.381 334.043 388.235 334.043 390.509C334.043 392.784 332.189 394.638 329.914 394.638Z" fill="#407BFF"/>
<path d="M329.914 394.638H-30.7066C-32.981 394.638 -34.835 392.784 -34.835 390.509C-34.835 388.235 -32.981 386.381 -30.7066 386.381H329.914C332.189 386.381 334.043 388.235 334.043 390.509C334.043 392.784 332.189 394.638 329.914 394.638Z" fill="#2EB19F"/>
<path d="M244.595 373.633L249.029 366.981C249.908 365.663 251.399 364.86 253.004 364.86H258.624C259.101 364.86 259.56 364.936 260 365.07L280.049 371.148C281.196 371.492 282.151 372.256 282.763 373.269L285.63 378.105L244.595 373.633Z" fill="#407BFF"/>
<path d="M285.649 378.105L256.464 374.932L244.595 373.633L249.029 366.981C249.908 365.663 251.399 364.86 253.004 364.86H258.624C259.101 364.86 259.56 364.936 260.019 365.07L260.458 365.204L280.049 371.148C281.196 371.492 282.171 372.237 282.782 373.269L285.649 378.105Z" fill="#2EB19F"/>
<path d="M285.649 378.105L256.464 374.932L260.458 365.204L280.049 371.148C281.196 371.492 282.17 372.237 282.782 373.269L285.649 378.105Z" fill="#2EB19F"/>
<path d="M299.525 385.731V386.362H274.086H237.561L239.855 377.398C240.753 374.034 243.811 371.683 247.29 371.683H274.774C275.691 371.683 276.59 371.836 277.45 372.161L280.89 373.442L294.537 378.526C297.537 379.653 299.525 382.52 299.525 385.731Z" fill="#2EB19F"/>
<path opacity="0.2" d="M299.525 385.731V386.362H274.086L275.443 376.672C275.806 374.111 278.463 372.543 280.89 373.442L294.537 378.526C297.538 379.653 299.525 382.52 299.525 385.731Z" fill="black"/>
<path d="M278.042 379.787L286.127 355.495C286.471 354.443 287.675 353.966 288.669 354.462C289.414 354.845 289.796 355.705 289.586 356.527L282.763 382.463C282.763 382.444 278.233 384.279 278.042 379.787Z" fill="#263238"/>
<path opacity="0.2" d="M244.595 384.355H241.002L241.69 380.819H245.283L244.595 384.355Z" fill="black"/>
<path opacity="0.2" d="M249.946 384.221H246.353L247.041 380.685H250.635L249.946 384.221Z" fill="black"/>
</svg>
