<svg width="357" height="338" viewBox="0 0 357 338" fill="none" xmlns="http://www.w3.org/2000/svg">
<g opacity="0.8">
<circle cx="159.212" cy="154.17" r="154.17" fill="#E2EBFF"/>
<path d="M183.705 204.42C174.394 200.196 167.82 190.687 166.722 180.519C165.624 170.354 169.86 159.852 177.408 152.954C184.956 146.056 195.572 142.786 205.749 143.788C214.003 144.601 221.208 149.709 225.977 156.495C227.714 158.967 229.125 161.723 231.364 163.751C235.692 167.671 242.258 168.139 246.837 171.763C251.881 175.757 253.479 183.161 251.523 189.291C249.566 195.42 244.562 200.254 238.796 203.107C233.029 205.962 226.539 207.029 220.121 207.45C217.16 207.643 191.966 208.167 183.705 204.42Z" fill="#407BFF"/>
<path opacity="0.9" d="M183.705 204.42C174.394 200.196 167.82 190.687 166.722 180.519C165.624 170.354 169.86 159.852 177.408 152.954C184.956 146.056 195.572 142.786 205.749 143.788C214.003 144.601 221.208 149.709 225.977 156.495C227.714 158.967 229.125 161.723 231.364 163.751C235.692 167.671 242.258 168.139 246.837 171.763C251.881 175.757 253.479 183.161 251.523 189.291C249.566 195.42 244.562 200.254 238.796 203.107C233.029 205.962 226.539 207.029 220.121 207.45C217.16 207.643 191.966 208.167 183.705 204.42Z" fill="white"/>
<path d="M178.377 337.252C276.892 337.252 356.755 332.588 356.755 326.835C356.755 321.082 276.892 316.418 178.377 316.418C79.8623 316.418 0 321.082 0 326.835C0 332.588 79.8623 337.252 178.377 337.252Z" fill="#F5F5F5"/>
<path d="M277.589 248.336L291.223 326.257H301.678L300.861 319.797H315.935L317.378 326.257H327.833L314.2 248.336H277.589ZM285.609 256.081C285.377 253.421 287.342 251.264 290.003 251.264H302.299C303.625 251.264 304.881 251.804 305.826 252.673C306.776 253.547 307.42 254.749 307.537 256.081C307.769 258.739 305.799 260.898 303.143 260.898H290.847C289.517 260.898 288.265 260.358 287.315 259.484C286.37 258.613 285.724 257.407 285.609 256.081Z" fill="#407BFF"/>
<path d="M277.589 248.336L291.223 326.257H301.678L300.861 319.797H315.935L317.378 326.257H327.833L314.2 248.336H277.589ZM286.287 256.081C285.821 253.421 287.599 251.264 290.259 251.264H302.556C303.882 251.264 305.185 251.804 306.205 252.673C307.231 253.547 307.98 254.749 308.215 256.081C308.68 258.739 306.898 260.898 304.242 260.898H291.945C290.615 260.898 289.316 260.358 288.29 259.484C287.268 258.613 286.518 257.407 286.287 256.081Z" fill="#898989"/>
<path d="M277.553 248.336L263.92 326.257H274.375L275.818 319.797H290.892L290.075 326.257H300.53L314.164 248.336H277.553ZM303.465 259.482C302.439 260.355 301.142 260.896 299.81 260.896H287.513C284.855 260.896 283.074 258.737 283.54 256.079C283.772 254.749 284.524 253.544 285.55 252.671C286.572 251.802 287.873 251.262 289.199 251.262H301.496C304.156 251.262 305.934 253.416 305.468 256.079C305.237 257.407 304.487 258.613 303.465 259.482Z" fill="#C4C4C4"/>
<path d="M291.745 282.137H289.012L290.005 276.465C290.066 276.116 290.399 275.835 290.746 275.835H292.215C292.564 275.835 292.796 276.118 292.735 276.465L291.745 282.137Z" fill="#898989"/>
<path d="M299.409 287.323H279.264L279.793 284.302C280.043 282.871 281.407 281.712 282.838 281.712H297.802C299.234 281.712 300.19 282.871 299.94 284.302L299.409 287.323Z" fill="#898989"/>
<path d="M299.411 287.323L296.728 302.656L292.139 302.611L292.749 296.948L291.452 302.604L287.993 302.571L288.596 296.948L287.311 302.562L280.639 302.496L281.609 296.948L279.874 302.49L274.159 302.433L274.71 301.24C276.972 296.354 278.375 292.41 279.264 287.325H299.411V287.323Z" fill="#407BFF"/>
<path d="M299.411 287.323L296.728 302.656L292.139 302.611L292.749 296.948L291.452 302.604L287.993 302.571L288.596 296.948L287.311 302.562L280.639 302.496L281.609 296.948L279.874 302.49L274.159 302.433L274.71 301.24C276.972 296.354 278.375 292.41 279.264 287.325H299.411V287.323Z" fill="#E0E0E0"/>
<path d="M243.115 277.856H149.343C138.793 277.856 130.841 269.305 131.577 258.755L147.25 34.6265C147.988 24.0766 157.138 15.5256 167.686 15.5256H261.457C272.007 15.5256 279.959 24.0766 279.223 34.6265L263.55 258.755C262.812 269.303 253.662 277.856 243.115 277.856Z" fill="#A5A5A5"/>
<path d="M238.244 277.856H144.472C133.923 277.856 125.97 269.305 126.706 258.755L142.379 34.6266C143.117 24.0767 152.267 15.5256 162.815 15.5256H256.586C267.136 15.5256 275.088 24.0767 274.352 34.6266L258.679 258.755C257.943 269.303 248.794 277.856 238.244 277.856Z" fill="#263238"/>
<path d="M256.282 19.9091H231.91C230.314 19.9091 228.882 21.0953 228.57 22.68L228.419 23.443C227.656 27.31 224.16 30.2069 220.262 30.2069H197.091C193.193 30.2069 190.104 27.31 189.881 23.443L189.836 22.68C189.744 21.0953 188.481 19.9091 186.883 19.9091H162.509C154.381 19.9091 147.329 26.4997 146.761 34.6276L131.089 258.756C130.519 266.884 136.648 273.475 144.778 273.475H238.55C246.678 273.475 253.73 266.884 254.297 258.756L269.97 34.6276C270.539 26.4974 264.41 19.9091 256.282 19.9091Z" fill="#407BFF"/>
<path opacity="0.8" d="M269.971 34.6242L269.649 39.1777L254.303 258.755C253.733 266.887 246.677 273.476 238.551 273.476H144.775C136.643 273.476 130.525 266.887 131.094 258.755L146.441 39.1777L146.763 34.6242C147.332 26.5008 154.38 19.9035 162.503 19.9035H186.882C188.483 19.9035 189.743 21.0897 189.835 22.6811L189.88 23.4351C190.101 27.2999 193.191 30.2057 197.083 30.2057H220.249C224.159 30.2057 227.655 27.2976 228.409 23.4351L228.555 22.6811C228.877 21.0897 230.313 19.9035 231.904 19.9035H256.274C264.414 19.9035 270.54 26.5008 269.971 34.6242Z" fill="white"/>
<path opacity="0.7" d="M269.648 39.799L254.302 259.376C253.732 267.509 246.676 274.097 238.55 274.097H144.774C136.642 274.097 130.524 267.509 131.093 259.376L146.44 39.799H269.648Z" fill="black"/>
<g opacity="0.7">
<path opacity="0.7" d="M203.551 22.3919C203.479 23.4205 202.588 24.2534 201.559 24.2534C200.53 24.2534 199.756 23.4205 199.826 22.3919C199.898 21.3632 200.789 20.5304 201.818 20.5304C202.846 20.5281 203.623 21.3632 203.551 22.3919Z" fill="black"/>
<path opacity="0.7" d="M216.888 20.5271C216.151 20.5271 211.238 20.5271 210.502 20.5271C209.473 20.5271 208.582 21.3599 208.51 22.3886C208.438 23.4172 209.214 24.2501 210.243 24.2501C210.882 24.2501 215.989 24.2501 216.629 24.2501C217.657 24.2501 218.549 23.4172 218.621 22.3886C218.69 21.3622 217.916 20.5271 216.888 20.5271Z" fill="black"/>
</g>
<path d="M157.28 30.1697H159.252L159.391 28.1957H157.417L157.28 30.1697Z" fill="#2EB19F"/>
<path d="M161.363 28.1957L161.223 30.1697H163.195L163.335 28.1957L163.472 26.2239H161.5L161.363 28.1957Z" fill="#2EB19F"/>
<path d="M165.581 24.2521L165.444 26.2239L165.307 28.1957L165.167 30.1697H167.141L167.278 28.1957L167.416 26.2239L167.553 24.2521H165.581Z" fill="#2EB19F"/>
<path d="M250.376 24.385L250.275 25.8301H249.311L249.109 28.7224H250.072L249.971 30.1675H258.648L259.053 24.3828H250.376V24.385ZM253.928 28.7224H251.036L251.238 25.8301H254.13L253.928 28.7224Z" fill="#2EB19F"/>
<path opacity="0.2" d="M255.864 19.8654H162.092C153.962 19.8654 146.912 26.4559 146.345 34.5838L130.672 258.712L255.864 19.8654Z" fill="white"/>
<path d="M201.278 133.305L197.231 135.448C197.363 136.681 197.584 137.883 197.881 139.051L202.295 138.979C202.919 140.906 203.808 142.702 204.922 144.327L202.324 148.109C203.06 149.047 203.866 149.93 204.733 150.749L208.712 148.482C210.227 149.738 211.931 150.785 213.79 151.577L213.331 155.985C214.463 156.385 215.636 156.709 216.849 156.95L219.33 153.09C220.329 153.225 221.351 153.302 222.4 153.302C223.449 153.302 224.484 153.225 225.506 153.09L227.311 156.95C228.565 156.709 229.796 156.385 230.998 155.985L231.311 151.577C233.308 150.785 235.194 149.741 236.929 148.482L240.51 150.749C241.521 149.93 242.48 149.047 243.38 148.109L241.445 144.327C242.845 142.702 244.047 140.908 245.008 138.979L249.408 139.051C249.91 137.883 250.342 136.681 250.689 135.448L247.018 133.305C247.241 132.294 247.407 131.266 247.499 130.217C247.592 129.168 247.605 128.139 247.558 127.128L251.605 124.986C251.472 123.752 251.252 122.55 250.955 121.382L246.541 121.454C245.917 119.527 245.028 117.731 243.914 116.106L246.511 112.324C245.775 111.386 244.969 110.503 244.103 109.684L240.123 111.951C238.609 110.695 236.905 109.648 235.045 108.856L235.505 104.449C234.372 104.048 233.2 103.724 231.986 103.483L229.506 107.343C228.507 107.208 227.485 107.132 226.436 107.132C225.387 107.132 224.351 107.208 223.33 107.343L221.524 103.483C220.271 103.724 219.039 104.048 217.837 104.449L217.525 108.856C215.528 109.648 213.642 110.693 211.906 111.951L208.325 109.684C207.315 110.503 206.356 111.386 205.455 112.324L207.391 116.106C205.991 117.731 204.789 119.525 203.828 121.454L199.428 121.382C198.926 122.55 198.493 123.752 198.147 124.986L201.818 127.128C201.595 128.139 201.429 129.168 201.336 130.217C201.244 131.266 201.23 132.294 201.278 133.305ZM216.57 130.217C216.948 125.881 220.77 122.368 225.106 122.368C229.441 122.368 232.646 125.881 232.268 130.217C231.89 134.552 228.068 138.065 223.732 138.065C219.397 138.065 216.192 134.552 216.57 130.217Z" fill="#407BFF"/>
<path d="M201.278 133.305L197.231 135.448C197.363 136.681 197.584 137.883 197.881 139.051L202.295 138.979C202.919 140.906 203.808 142.702 204.922 144.327L202.324 148.109C203.06 149.047 203.866 149.93 204.733 150.749L208.712 148.482C210.227 149.738 211.931 150.785 213.79 151.577L213.331 155.985C214.463 156.385 215.636 156.709 216.849 156.95L219.33 153.09C220.329 153.225 221.351 153.302 222.4 153.302C223.449 153.302 224.484 153.225 225.506 153.09L227.311 156.95C228.565 156.709 229.796 156.385 230.998 155.985L231.311 151.577C233.308 150.785 235.194 149.741 236.929 148.482L240.51 150.749C241.521 149.93 242.48 149.047 243.38 148.109L241.445 144.327C242.845 142.702 244.047 140.908 245.008 138.979L249.408 139.051C249.91 137.883 250.342 136.681 250.689 135.448L247.018 133.305C247.241 132.294 247.407 131.266 247.499 130.217C247.592 129.168 247.605 128.139 247.558 127.128L251.605 124.986C251.472 123.752 251.252 122.55 250.955 121.382L246.541 121.454C245.917 119.527 245.028 117.731 243.914 116.106L246.511 112.324C245.775 111.386 244.969 110.503 244.103 109.684L240.123 111.951C238.609 110.695 236.905 109.648 235.045 108.856L235.505 104.449C234.372 104.048 233.2 103.724 231.986 103.483L229.506 107.343C228.507 107.208 227.485 107.132 226.436 107.132C225.387 107.132 224.351 107.208 223.33 107.343L221.524 103.483C220.271 103.724 219.039 104.048 217.837 104.449L217.525 108.856C215.528 109.648 213.642 110.693 211.906 111.951L208.325 109.684C207.315 110.503 206.356 111.386 205.455 112.324L207.391 116.106C205.991 117.731 204.789 119.525 203.828 121.454L199.428 121.382C198.926 122.55 198.493 123.752 198.147 124.986L201.818 127.128C201.595 128.139 201.429 129.168 201.336 130.217C201.244 131.266 201.23 132.294 201.278 133.305ZM216.57 130.217C216.948 125.881 220.77 122.368 225.106 122.368C229.441 122.368 232.646 125.881 232.268 130.217C231.89 134.552 228.068 138.065 223.732 138.065C219.397 138.065 216.192 134.552 216.57 130.217Z" fill="#2EB19F"/>
<path d="M162.23 99.3594L155.504 102.922C155.628 103.924 155.808 104.905 156.037 105.864L163.382 105.743C163.893 107.19 164.564 108.554 165.378 109.815L161.057 116.104C161.671 116.86 162.326 117.58 163.024 118.26L169.644 114.487C170.823 115.413 172.12 116.203 173.511 116.842L172.748 124.177C173.68 124.49 174.639 124.756 175.622 124.968L179.746 118.553C180.511 118.636 181.292 118.681 182.087 118.681C182.881 118.681 183.669 118.636 184.45 118.553L187.453 124.968C188.472 124.756 189.476 124.49 190.464 124.177L190.984 116.842C192.488 116.203 193.922 115.413 195.263 114.487L201.224 118.26C202.038 117.58 202.822 116.86 203.569 116.104L200.348 109.815C201.383 108.554 202.293 107.19 203.058 105.743L210.382 105.864C210.779 104.905 211.132 103.924 211.429 102.922L205.327 99.3594C205.478 98.5873 205.593 97.8017 205.662 97.0072C205.732 96.2126 205.755 95.4271 205.739 94.655L212.467 91.0919C212.343 90.0902 212.163 89.1089 211.933 88.15L204.589 88.2715C204.078 86.8242 203.407 85.4602 202.592 84.1997L206.914 77.9108C206.299 77.1545 205.644 76.4342 204.947 75.7544L198.327 79.5269C197.147 78.6018 195.851 77.8117 194.46 77.1725L195.223 69.8391C194.291 69.5263 193.332 69.2607 192.348 69.0491L188.223 75.4641C187.457 75.3808 186.676 75.3357 185.882 75.3357C185.087 75.3357 184.299 75.3808 183.518 75.4641L180.516 69.0491C179.496 69.2607 178.492 69.5263 177.504 69.8391L176.984 77.1725C175.48 77.8117 174.047 78.6018 172.705 79.5269L166.745 75.7544C165.93 76.4342 165.147 77.1545 164.399 77.9108L167.62 84.1997C166.585 85.4602 165.676 86.8242 164.91 88.2715L157.586 88.15C157.19 89.1089 156.836 90.0902 156.539 91.0919L162.641 94.655C162.491 95.4271 162.376 96.2126 162.306 97.0072C162.236 97.8017 162.214 98.5851 162.23 99.3594ZM174.794 97.0072C175.237 91.9337 179.712 87.8191 184.786 87.8191C189.859 87.8191 193.613 91.9337 193.17 97.0072C192.727 102.081 188.252 106.195 183.178 106.195C178.105 106.195 174.35 102.081 174.794 97.0072Z" fill="#407BFF"/>
<path d="M162.23 99.3594L155.504 102.922C155.628 103.924 155.808 104.905 156.037 105.864L163.382 105.743C163.893 107.19 164.564 108.554 165.378 109.815L161.057 116.104C161.671 116.86 162.326 117.58 163.024 118.26L169.644 114.487C170.823 115.413 172.12 116.203 173.511 116.842L172.748 124.177C173.68 124.49 174.639 124.756 175.622 124.968L179.746 118.553C180.511 118.636 181.292 118.681 182.087 118.681C182.881 118.681 183.669 118.636 184.45 118.553L187.453 124.968C188.472 124.756 189.476 124.49 190.464 124.177L190.984 116.842C192.488 116.203 193.922 115.413 195.263 114.487L201.224 118.26C202.038 117.58 202.822 116.86 203.569 116.104L200.348 109.815C201.383 108.554 202.293 107.19 203.058 105.743L210.382 105.864C210.779 104.905 211.132 103.924 211.429 102.922L205.327 99.3594C205.478 98.5873 205.593 97.8017 205.662 97.0072C205.732 96.2126 205.755 95.4271 205.739 94.655L212.467 91.0919C212.343 90.0902 212.163 89.1089 211.933 88.15L204.589 88.2715C204.078 86.8242 203.407 85.4602 202.592 84.1997L206.914 77.9108C206.299 77.1545 205.644 76.4342 204.947 75.7544L198.327 79.5269C197.147 78.6018 195.851 77.8117 194.46 77.1725L195.223 69.8391C194.291 69.5263 193.332 69.2607 192.348 69.0491L188.223 75.4641C187.457 75.3808 186.676 75.3357 185.882 75.3357C185.087 75.3357 184.299 75.3808 183.518 75.4641L180.516 69.0491C179.496 69.2607 178.492 69.5263 177.504 69.8391L176.984 77.1725C175.48 77.8117 174.047 78.6018 172.705 79.5269L166.745 75.7544C165.93 76.4342 165.147 77.1545 164.399 77.9108L167.62 84.1997C166.585 85.4602 165.676 86.8242 164.91 88.2715L157.586 88.15C157.19 89.1089 156.836 90.0902 156.539 91.0919L162.641 94.655C162.491 95.4271 162.376 96.2126 162.306 97.0072C162.236 97.8017 162.214 98.5851 162.23 99.3594ZM174.794 97.0072C175.237 91.9337 179.712 87.8191 184.786 87.8191C189.859 87.8191 193.613 91.9337 193.17 97.0072C192.727 102.081 188.252 106.195 183.178 106.195C178.105 106.195 174.35 102.081 174.794 97.0072Z" fill="#2EB19F"/>
<path d="M178.94 166.426L174.472 168.794C174.553 169.461 174.675 170.111 174.825 170.748L179.705 170.667C180.045 171.628 180.491 172.535 181.033 173.373L178.163 177.55C178.571 178.052 179.008 178.532 179.471 178.982L183.869 176.477C184.653 177.091 185.513 177.616 186.438 178.041L185.931 182.914C186.55 183.121 187.187 183.299 187.84 183.439L190.579 179.178C191.088 179.234 191.606 179.263 192.135 179.263C192.664 179.263 193.186 179.232 193.704 179.178L195.698 183.439C196.375 183.299 197.042 183.121 197.699 182.914L198.045 178.041C199.045 177.618 199.997 177.091 200.888 176.477L204.848 178.982C205.39 178.529 205.91 178.052 206.405 177.55L204.265 173.373C204.953 172.535 205.557 171.628 206.065 170.667L210.929 170.748C211.193 170.111 211.427 169.458 211.625 168.794L207.571 166.426C207.672 165.913 207.747 165.393 207.794 164.864C207.841 164.335 207.855 163.815 207.846 163.302L212.314 160.934C212.233 160.268 212.111 159.618 211.96 158.981L207.08 159.062C206.741 158.1 206.295 157.193 205.752 156.356L208.622 152.178C208.215 151.677 207.778 151.197 207.315 150.747L202.916 153.252C202.133 152.638 201.273 152.113 200.348 151.688L200.855 146.815C200.236 146.608 199.599 146.43 198.946 146.29L196.206 150.551C195.698 150.495 195.18 150.466 194.651 150.466C194.122 150.466 193.6 150.495 193.082 150.551L191.088 146.29C190.41 146.43 189.744 146.608 189.087 146.815L188.74 151.688C187.741 152.111 186.789 152.638 185.897 153.252L181.938 150.747C181.396 151.199 180.876 151.677 180.381 152.178L182.521 156.356C181.832 157.193 181.229 158.1 180.72 159.062L175.856 158.981C175.593 159.618 175.359 160.27 175.161 160.934L179.215 163.302C179.113 163.815 179.039 164.338 178.992 164.864C178.945 165.393 178.929 165.913 178.94 166.426ZM184.88 164.864C185.292 160.165 189.434 156.356 194.133 156.356C198.833 156.356 202.309 160.167 201.899 164.864C201.487 169.564 197.345 173.373 192.646 173.373C187.946 173.373 184.47 169.564 184.88 164.864Z" fill="#407BFF"/>
<path d="M178.94 166.426L174.472 168.794C174.553 169.461 174.675 170.111 174.825 170.748L179.705 170.667C180.045 171.628 180.491 172.535 181.033 173.373L178.163 177.55C178.571 178.052 179.008 178.532 179.471 178.982L183.869 176.477C184.653 177.091 185.513 177.616 186.438 178.041L185.931 182.914C186.55 183.121 187.187 183.299 187.84 183.439L190.579 179.178C191.088 179.234 191.606 179.263 192.135 179.263C192.664 179.263 193.186 179.232 193.704 179.178L195.698 183.439C196.375 183.299 197.042 183.121 197.699 182.914L198.045 178.041C199.045 177.618 199.997 177.091 200.888 176.477L204.848 178.982C205.39 178.529 205.91 178.052 206.405 177.55L204.265 173.373C204.953 172.535 205.557 171.628 206.065 170.667L210.929 170.748C211.193 170.111 211.427 169.458 211.625 168.794L207.571 166.426C207.672 165.913 207.747 165.393 207.794 164.864C207.841 164.335 207.855 163.815 207.846 163.302L212.314 160.934C212.233 160.268 212.111 159.618 211.96 158.981L207.08 159.062C206.741 158.1 206.295 157.193 205.752 156.356L208.622 152.178C208.215 151.677 207.778 151.197 207.315 150.747L202.916 153.252C202.133 152.638 201.273 152.113 200.348 151.688L200.855 146.815C200.236 146.608 199.599 146.43 198.946 146.29L196.206 150.551C195.698 150.495 195.18 150.466 194.651 150.466C194.122 150.466 193.6 150.495 193.082 150.551L191.088 146.29C190.41 146.43 189.744 146.608 189.087 146.815L188.74 151.688C187.741 152.111 186.789 152.638 185.897 153.252L181.938 150.747C181.396 151.199 180.876 151.677 180.381 152.178L182.521 156.356C181.832 157.193 181.229 158.1 180.72 159.062L175.856 158.981C175.593 159.618 175.359 160.27 175.161 160.934L179.215 163.302C179.113 163.815 179.039 164.338 178.992 164.864C178.945 165.393 178.929 165.913 178.94 166.426ZM184.88 164.864C185.292 160.165 189.434 156.356 194.133 156.356C198.833 156.356 202.309 160.167 201.899 164.864C201.487 169.564 197.345 173.373 192.646 173.373C187.946 173.373 184.47 169.564 184.88 164.864Z" fill="#2EB19F"/>
<path d="M185.573 65.396C185.657 65.3645 185.877 63.7686 186.118 61.8373C186.616 57.8173 188.999 54.7066 192.004 54.0943C194.174 53.6509 194.174 53.6509 194.174 53.6509C194.174 53.6509 190.771 53.6509 189.35 52.6583C186.341 50.5514 185.65 44.3323 185.65 44.3323C185.65 44.3323 184.806 50.5514 181.799 52.6583C180.378 53.6509 176.975 53.6509 176.975 53.6509C176.975 53.6509 176.975 53.6509 179.143 54.0943C182.148 54.7088 184.531 57.8173 185.029 61.8373C185.269 63.7686 185.49 65.3645 185.573 65.396Z" fill="#BCDFD9"/>
<g opacity="0.7">
<path opacity="0.7" d="M185.573 65.396C185.657 65.3645 185.877 63.7686 186.118 61.8373C186.616 57.8173 188.999 54.7066 192.004 54.0943C194.174 53.6509 194.174 53.6509 194.174 53.6509C194.174 53.6509 190.771 53.6509 189.35 52.6583C186.341 50.5514 185.65 44.3323 185.65 44.3323C185.65 44.3323 184.806 50.5514 181.799 52.6583C180.378 53.6509 176.975 53.6509 176.975 53.6509C176.975 53.6509 176.975 53.6509 179.143 54.0943C182.148 54.7088 184.531 57.8173 185.029 61.8373C185.269 63.7686 185.49 65.3645 185.573 65.396Z" fill="#BCDFD9"/>
</g>
<path d="M117.577 81.7373C117.705 81.6878 118.049 79.214 118.421 76.2159C119.193 69.9787 122.891 65.1528 127.555 64.2007C130.92 63.5142 130.92 63.5142 130.92 63.5142C130.92 63.5142 125.637 63.5142 123.436 61.9723C118.767 58.7041 117.696 49.0546 117.696 49.0546C117.696 49.0546 116.388 58.7041 111.72 61.9723C109.519 63.5142 104.236 63.5142 104.236 63.5142C104.236 63.5142 104.236 63.5142 107.601 64.2007C112.262 65.1528 115.963 69.9787 116.735 76.2159C117.104 79.214 117.448 81.6878 117.577 81.7373Z" fill="#BCDFD9"/>
<path d="M117.577 81.7373C117.705 81.6878 118.049 79.214 118.421 76.2159C119.193 69.9787 122.891 65.1528 127.555 64.2007C130.92 63.5142 130.92 63.5142 130.92 63.5142C130.92 63.5142 125.637 63.5142 123.436 61.9723C118.767 58.7041 117.696 49.0546 117.696 49.0546C117.696 49.0546 116.388 58.7041 111.72 61.9723C109.519 63.5142 104.236 63.5142 104.236 63.5142C104.236 63.5142 104.236 63.5142 107.601 64.2007C112.262 65.1528 115.963 69.9787 116.735 76.2159C117.104 79.214 117.448 81.6878 117.577 81.7373Z" fill="#BCDFD9"/>
<path d="M158.209 159.588C158.293 159.557 158.513 157.961 158.754 156.03C159.252 152.01 161.635 148.899 164.64 148.287C166.81 147.843 166.81 147.843 166.81 147.843C166.81 147.843 163.407 147.843 161.986 146.851C158.977 144.744 158.286 138.525 158.286 138.525C158.286 138.525 157.442 144.744 154.435 146.851C153.014 147.843 149.611 147.843 149.611 147.843C149.611 147.843 149.611 147.843 151.781 148.287C154.786 148.901 157.17 152.01 157.667 156.03C157.903 157.963 158.126 159.557 158.209 159.588Z" fill="#BCDFD9"/>
<g opacity="0.7">
<path opacity="0.7" d="M158.209 159.588C158.293 159.557 158.513 157.961 158.754 156.03C159.252 152.01 161.635 148.899 164.64 148.287C166.81 147.843 166.81 147.843 166.81 147.843C166.81 147.843 163.407 147.843 161.986 146.851C158.977 144.744 158.286 138.525 158.286 138.525C158.286 138.525 157.442 144.744 154.435 146.851C153.014 147.843 149.611 147.843 149.611 147.843C149.611 147.843 149.611 147.843 151.781 148.287C154.786 148.901 157.17 152.01 157.667 156.03C157.903 157.963 158.126 159.557 158.209 159.588Z" fill="#BCDFD9"/>
</g>
<path d="M79.7597 326.394C81.2701 326.646 82.4878 325.66 82.481 324.195L82.4608 319.929H138.082L138.098 323.283C138.105 324.749 139.336 326.142 140.844 326.392C142.354 326.644 143.572 325.658 143.565 324.193L142.53 112.705C142.523 111.24 141.292 109.849 139.784 109.596C138.273 109.344 137.053 110.33 137.062 111.796L137.078 115.174H81.4569L81.4456 112.705C81.4389 111.24 80.2076 109.849 78.6996 109.596C77.1892 109.344 75.9693 110.33 75.9783 111.796L77.0137 323.283C77.0204 324.751 78.2494 326.142 79.7597 326.394ZM137.866 275.533H82.2447L82.0691 239.753H137.69L137.866 275.533ZM81.6752 159.575H137.297L137.472 195.355H81.8508L81.6752 159.575ZM137.495 199.663L137.67 235.443H82.0489L81.8733 199.663H137.495ZM137.101 119.485L137.276 155.264H81.655L81.4794 119.485H137.101ZM82.4405 315.621L82.265 279.841H137.886L138.062 315.621H82.4405Z" fill="#263238"/>
<path d="M42.2287 326.394C43.694 326.646 45.0873 325.66 45.3394 324.195L46.0709 319.929H101.692L101.116 323.283C100.864 324.749 101.85 326.142 103.315 326.392C104.78 326.644 106.174 325.658 106.426 324.193L142.681 112.705C142.933 111.24 141.947 109.849 140.482 109.596C139.016 109.344 137.623 110.33 137.371 111.796L136.792 115.174H81.1711L81.5942 112.705C81.8463 111.24 80.8604 109.849 79.3951 109.596C77.9298 109.344 76.5365 110.33 76.2844 111.796L40.0296 323.283C39.7797 324.751 40.7633 326.142 42.2287 326.394ZM109.302 275.533H53.6811L59.8148 239.753H115.436L109.302 275.533ZM73.5608 159.575H129.182L123.049 195.355H67.4272L73.5608 159.575ZM122.31 199.663L116.177 235.443H60.5553L66.6889 199.663H122.31ZM136.054 119.484L129.921 155.264H74.2991L80.4328 119.484H136.054ZM46.8092 315.621L52.9428 279.841H108.564L102.431 315.621H46.8092Z" fill="#263238"/>
<path opacity="0.2" d="M42.2287 326.394C43.694 326.646 45.0873 325.66 45.3394 324.195L46.0709 319.929H101.692L101.116 323.283C100.864 324.749 101.85 326.142 103.315 326.392C104.78 326.644 106.174 325.658 106.426 324.193L142.681 112.705C142.933 111.24 141.947 109.849 140.482 109.596C139.016 109.344 137.623 110.33 137.371 111.796L136.792 115.174H81.1711L81.5942 112.705C81.8463 111.24 80.8604 109.849 79.3951 109.596C77.9298 109.344 76.5365 110.33 76.2844 111.796L40.0296 323.283C39.7797 324.751 40.7633 326.142 42.2287 326.394ZM109.302 275.533H53.6811L59.8148 239.753H115.436L109.302 275.533ZM73.5608 159.575H129.182L123.049 195.355H67.4272L73.5608 159.575ZM122.31 199.663L116.177 235.443H60.5553L66.6889 199.663H122.31ZM136.054 119.484L129.921 155.264H74.2991L80.4328 119.484H136.054ZM46.8092 315.621L52.9428 279.841H108.564L102.431 315.621H46.8092Z" fill="white"/>
<path d="M153.458 89.5598H208.237V81.3644H153.458V89.5598Z" fill="#263238"/>
<path opacity="0.1" d="M153.458 87.1852H208.237V83.7414H153.458V87.1852Z" fill="white"/>
<path d="M59.0922 148.674C58.588 148.674 58.104 148.397 57.8609 147.918C57.5166 147.238 57.7867 146.407 58.4664 146.063L180.221 84.2335C180.901 83.8891 181.731 84.1593 182.075 84.839C182.42 85.5188 182.15 86.3494 181.47 86.6937L59.7179 148.523C59.5176 148.624 59.3038 148.674 59.0922 148.674Z" fill="#263238"/>
<path d="M68.5842 111.784C68.5842 111.784 58.6375 122.17 61.3679 127.565C64.0982 132.963 70.3084 140.438 70.3084 140.438C70.3084 140.438 70.0698 143.249 72.701 143.776L78.0783 139.391C78.0783 139.391 74.3982 138.531 71.7737 138.531L67.2854 124.047L74.2226 114.492L68.5842 111.784Z" fill="#DD8C6A"/>
<path d="M78.0783 139.391L79.5369 141.86C80.1784 142.948 79.8925 144.345 78.8751 145.093L78.6073 145.291C77.8533 145.847 76.8494 145.923 76.0165 145.493L72.701 143.776L78.0783 139.391Z" fill="#DD8C6A"/>
<path d="M45.0469 245.797L40.8467 257.447L47.3112 259.95L52.3555 249.209L45.0469 245.797Z" fill="#DD8C6A"/>
<path d="M47.9775 260.511C47.9167 260.473 47.8852 260.403 47.8965 260.331C47.91 260.259 47.964 260.205 48.036 260.193C48.1621 260.173 51.0252 259.7 52.0404 260.432C52.2317 260.565 52.3622 260.767 52.405 260.995C52.4793 261.258 52.3802 261.539 52.1574 261.697C51.7433 261.956 50.8159 261.787 49.974 261.474C49.283 261.211 48.6145 260.889 47.9775 260.511ZM48.5763 260.488C49.7782 261.112 51.4911 261.735 51.9683 261.411C52.0336 261.373 52.1124 261.292 52.0674 261.049C52.0471 260.905 51.9616 260.781 51.8355 260.707C51.7455 260.641 51.6487 260.59 51.5429 260.554C50.5683 260.344 49.5599 260.322 48.5763 260.488Z" fill="#898989"/>
<path d="M47.8943 260.47C47.8583 260.421 47.8515 260.355 47.8763 260.299C47.9168 260.218 48.7766 258.458 49.9021 258.069C50.2284 257.952 50.5863 257.972 50.897 258.127C51.3224 258.336 51.3764 258.611 51.3246 258.8C51.185 259.615 49.013 260.479 48.0698 260.538C48.0451 260.54 48.0203 260.533 48.0001 260.52C47.9618 260.515 47.9235 260.497 47.8943 260.47ZM50.6764 258.39C50.4738 258.314 50.251 258.312 50.0484 258.386C49.3258 258.782 48.7429 259.39 48.3782 260.128C49.4024 259.944 50.8947 259.192 51.0252 258.717C51.0275 258.672 51.0523 258.548 50.7731 258.417L50.6764 258.39Z" fill="#898989"/>
<path d="M47.6376 259.304L40.2458 256.558C39.9667 256.455 39.6538 256.558 39.4917 256.808L35.9218 262.325C35.6022 262.811 35.7373 263.466 36.2235 263.786C36.2865 263.826 36.3518 263.862 36.4215 263.889C39.1023 264.832 41.5265 265.566 44.8421 266.804C48.7563 268.261 47.5881 268.36 52.1686 270.136C54.9282 271.202 56.6074 268.238 55.4887 267.646C50.3589 264.97 50.404 263.138 49.0422 260.439C48.7293 259.901 48.2296 259.498 47.6376 259.304Z" fill="#071916"/>
<path opacity="0.2" d="M43.0323 251.384L49.8142 254.623L52.3555 249.209L45.0469 245.797L43.0323 251.384Z" fill="#263238"/>
<path d="M83.7146 256.948L84.8332 269.28L91.7502 268.816L91.7794 256.948H83.7146Z" fill="#DD8C6A"/>
<path d="M92.943 268.609C92.8733 268.596 92.817 268.544 92.799 268.474C92.7832 268.405 92.8148 268.33 92.8755 268.294C92.9836 268.227 95.4505 266.698 96.6682 266.987C96.8956 267.036 97.0937 267.173 97.222 267.367C97.3908 267.581 97.4065 267.878 97.2625 268.11C96.9789 268.506 96.056 268.704 95.1601 268.735C94.4174 268.758 93.6768 268.715 92.943 268.609ZM93.4878 268.36C94.836 268.479 96.657 268.402 96.9766 267.918C97.0239 267.858 97.0644 267.754 96.9293 267.545C96.855 267.421 96.729 267.338 96.585 267.317C96.4769 267.29 96.3666 267.281 96.2563 267.286C95.2749 267.468 94.3341 267.831 93.4878 268.36Z" fill="#898989"/>
<path d="M92.8508 268.603C92.7967 268.571 92.7652 268.513 92.7675 268.452C92.7742 268.362 92.898 266.408 93.7894 265.618C94.046 265.386 94.3859 265.267 94.7303 265.292C95.2029 265.321 95.3582 265.555 95.383 265.751C95.5653 266.557 93.8862 268.184 93.0376 268.598C93.0151 268.609 92.9903 268.614 92.9656 268.607C92.9318 268.618 92.889 268.618 92.8508 268.603ZM94.629 265.618C94.4129 265.623 94.2058 265.708 94.046 265.854C93.5305 266.496 93.2222 267.281 93.1659 268.103C94.0415 267.543 95.1354 266.278 95.0746 265.789C95.0611 265.746 95.0364 265.623 94.728 265.607L94.629 265.618Z" fill="#898989"/>
<path d="M92.1687 267.624L84.2884 267.905C83.9913 267.916 83.7415 268.13 83.6874 268.423L82.4922 274.885C82.3819 275.457 82.7578 276.01 83.3296 276.121C83.4038 276.134 83.4781 276.141 83.5524 276.139C86.3907 275.988 88.9117 275.742 92.4501 275.621C96.6232 275.472 95.5833 276.01 100.492 275.904C103.45 275.837 103.871 272.458 102.613 272.337C96.8505 271.819 96.191 270.108 93.9042 268.134C93.4067 267.759 92.79 267.576 92.1687 267.624Z" fill="#071916"/>
<path opacity="0.2" d="M91.7794 256.948H83.7146L84.2998 263.39L91.7637 263.18L91.7794 256.948Z" fill="#263238"/>
<path d="M77.7791 142.693C77.7791 142.693 65.406 150.837 67.4296 174.806L65.3722 201.948C65.3722 201.948 53.0982 210.177 43.3272 248.106C43.3272 248.106 46.6022 250.976 51.9368 252.295L81.4525 207.152L92.376 160.147L93.6545 144.498L77.7791 142.693Z" fill="#407BFF"/>
<path d="M77.7791 142.693C77.7791 142.693 65.406 150.837 67.4296 174.806L65.3722 201.948C65.3722 201.948 53.0982 210.177 43.3272 248.106C43.3272 248.106 46.6022 250.976 51.9368 252.295L81.4525 207.152L92.376 160.147L93.6545 144.498L77.7791 142.693Z" fill="#898989"/>
<path opacity="0.2" d="M86.9041 183.682L82.4474 166.429L75.3549 162.938C75.3549 162.938 75.3459 196.586 78.5354 211.604L81.448 207.149L86.9041 183.682Z" fill="black"/>
<path d="M76.7729 102.085C76.7729 102.085 72.8924 101.351 69.6669 105.002C66.4414 108.653 63.0718 115.219 63.0718 115.219C63.0718 115.219 67.2359 120.412 71.9808 119.752L76.7729 102.085Z" fill="#407BFF"/>
<path d="M76.7729 102.085C76.7729 102.085 72.8924 101.351 69.6669 105.002C66.4414 108.653 63.0718 115.219 63.0718 115.219C63.0718 115.219 67.2359 120.412 71.9808 119.752L76.7729 102.085Z" fill="#898989"/>
<path opacity="0.1" d="M71.9808 119.752L75.7938 105.698L71.9763 106.171C71.9763 106.168 69.9798 118.775 71.9808 119.752Z" fill="black"/>
<path d="M80.721 142.693C80.721 142.693 70.511 153.862 76.7572 175.736L81.1419 203.194C81.1419 203.194 75.5552 229.35 82.4181 260.439C82.4181 260.439 87.746 261.292 92.8307 260.207L99.2097 201.671L102.404 145.721L80.721 142.693Z" fill="#A3A3A3"/>
<path d="M95.0072 80.3733C95.302 80.3215 95.6149 80.6322 95.705 81.0778C95.795 81.5258 95.6374 81.9422 95.3403 81.9962C95.0454 82.0502 94.7348 81.7396 94.6425 81.2917C94.53 80.828 94.7123 80.4251 95.0072 80.3733Z" fill="#263238"/>
<path d="M95.5924 86.2998C96.3689 86.3403 97.1252 86.0342 97.6542 85.467C96.531 84.4698 95.5496 83.3241 94.7348 82.0637L95.5924 86.2998Z" fill="#932A2A"/>
<path d="M92.6888 79.0836C93.13 78.5546 93.7985 78.2732 94.485 78.325C94.5143 78.334 94.5435 78.3408 94.5728 78.3408C94.7236 78.3408 94.8474 78.2192 94.8474 78.0684C94.8474 77.9176 94.7259 77.7938 94.5751 77.7938C93.7175 77.7038 92.8712 78.0347 92.3017 78.6807C92.2589 78.7302 92.2341 78.7909 92.2319 78.8562C92.2296 79.007 92.3489 79.1308 92.4998 79.1353C92.5673 79.1443 92.6348 79.1241 92.6888 79.0836Z" fill="#263238"/>
<path d="M90.8318 94.3062C90.0215 97.5362 89.99 101.547 93.5148 102.646C93.5148 102.646 97.9198 106.337 89.4363 106.337C81.727 106.337 80.5881 102.13 80.5881 102.13C83.4917 99.355 82.9987 93.6085 82.1884 89.4534L90.8318 94.3062Z" fill="#DD8C6A"/>
<path d="M77.4368 101.417C77.4368 101.417 78.8391 97.723 80.7321 96.6269C82.6251 95.5307 90.6202 97.1603 91.8582 97.7163C93.0961 98.2723 94.2261 101.243 94.2261 101.243L77.4368 101.417Z" fill="#407BFF"/>
<path d="M77.4368 101.417C77.4368 101.417 78.8391 97.723 80.7321 96.6269C82.6251 95.5307 90.6202 97.1603 91.8582 97.7163C93.0961 98.2723 94.2261 101.243 94.2261 101.243L77.4368 101.417Z" fill="#898989"/>
<path d="M71.2245 107.708C73.8355 123.309 73.0837 138.696 72.3927 146.691C72.2756 147.996 72.1676 149.106 72.0708 149.982C71.992 150.684 71.9335 151.238 71.8862 151.638L102.221 151.463C102.289 150.965 102.347 150.47 102.406 149.982C102.543 148.852 102.678 147.762 102.804 146.691C105.345 124.866 105.006 113.405 103.867 107.688C103.214 104.415 100.594 101.883 97.3031 101.329C96.952 101.27 95.7747 101.192 94.1766 101.115C93.31 101.077 92.3061 101.027 91.246 100.998C87.9732 100.872 84.1265 100.802 81.565 100.881C81.1171 100.89 80.7074 100.91 80.3473 100.94C79.4019 100.998 78.4588 101.086 77.5224 101.192C76.9867 101.241 76.46 101.309 75.9243 101.376C72.8496 101.768 70.718 104.64 71.2245 107.708Z" fill="#C4C4C4"/>
<path d="M79.2286 81.7058C79.2488 82.2708 79.3456 82.8268 79.4919 83.3805C80.5543 87.3735 81.1576 90.1871 82.7242 92.3007C83.2891 93.0705 83.9802 93.7413 84.876 94.3468C89.9292 97.7456 96.2497 93.8403 96.4163 88.0758C96.5918 82.8853 94.1766 74.8609 88.3424 73.7602C84.1737 72.9612 80.1424 75.6893 79.3433 79.8556C79.2285 80.4701 79.1903 81.0914 79.2286 81.7058Z" fill="#DD8C6A"/>
<g opacity="0.2">
<path opacity="0.2" d="M79.2285 81.7058C79.2488 82.2708 79.3455 82.8268 79.4918 83.3805C80.5542 87.3735 81.1575 90.1871 82.7241 92.3007L88.6642 92.3682L91.4395 85.4445L92.189 78.7549C92.1913 78.7549 84.0881 81.3254 79.2285 81.7058Z" fill="black"/>
</g>
<path d="M79.2286 84.1683C78.2832 82.9911 75.9761 79.1489 76.1021 77.6453C77.9681 75.3674 80.3135 73.3551 83.0865 72.3625C86.1342 71.2708 89.326 71.129 92.4975 71.7728C93.2628 72.9185 93.7625 74.3253 94.1226 75.6555C94.4827 76.9858 94.3882 78.5097 93.5554 79.6081C90.8656 83.1555 80.1739 85.3455 79.2286 84.1683Z" fill="#05110F"/>
<path d="M91.7254 80.9855C93.3393 81.4784 94.1586 83.8734 94.2126 85.3905C94.2734 87.0651 93.1434 88.1118 91.6961 86.9751C90.6067 86.0995 89.8347 84.8908 89.497 83.5335C89.1166 81.8881 90.1115 80.4926 91.7254 80.9855Z" fill="#DD8C6A"/>
<path opacity="0.1" d="M76.1426 77.6071C76.424 77.6949 76.7076 77.7624 77.0002 77.8119C78.344 78.037 79.7665 78.055 81.1193 77.9672C81.3916 78.5029 81.664 79.0386 81.9363 79.5833V77.9672C82.1997 78.3476 82.5688 78.9711 82.8322 79.3493C82.7939 78.8923 82.8705 78.3566 82.8322 77.8884C85.7741 77.508 88.5877 76.2138 90.7891 74.2173C91.363 73.6906 91.8987 73.1076 92.2116 72.3873C92.2994 72.1825 92.3669 71.9686 92.3962 71.7548C89.2607 71.1313 86.096 71.2866 83.0865 72.3693C80.3292 73.3507 78.0018 75.3472 76.1426 77.6071Z" fill="white"/>
<path opacity="0.2" d="M104.67 115.059C104.67 113.164 104.49 111.44 104.024 109.884L99.6305 107.656L96.9227 111.654C96.9227 111.654 101.193 120.38 104.72 123.948C105.15 120.412 104.67 117.202 104.67 115.059Z" fill="black"/>
<path d="M102.01 106.337C102.01 106.337 115.859 115.401 114.968 115.359L133.209 108.656C133.209 108.656 134.204 105.385 134.463 105.036L136.178 103.553C136.536 103.067 137.126 102.806 137.727 102.869L139.016 103.312C139.779 103.924 140.38 103.924 140.369 104.327L138.593 106.153L135.532 110.06C135.532 110.06 120.294 119.442 116.366 122.033C112.436 124.623 102.156 115.442 102.156 115.442L102.01 106.337Z" fill="#DD8C6A"/>
<path d="M98.3565 103.181C102.379 103.769 106.491 106.97 112.872 112.617C112.872 112.617 110.779 117.445 106.124 120.412C106.124 120.412 102.401 118.782 97.9693 113.144C92.6077 106.321 95.8895 102.821 98.3565 103.181Z" fill="#898989"/>
<path opacity="0.2" d="M88.725 149.982H102.408C102.545 148.852 102.68 147.762 102.806 146.691H89.3575L88.725 149.982Z" fill="black"/>
<path opacity="0.2" d="M72.0708 149.982H73.4438L73.7162 146.691H72.3927C72.2756 147.994 72.1698 149.106 72.0708 149.982Z" fill="black"/>
</g>
</svg>
