<svg width="42" height="23" viewBox="0 0 42 23" fill="none" xmlns="http://www.w3.org/2000/svg">
<path d="M27.1886 1.57324H14.5571C13.4672 1.57324 12.4557 2.14005 11.8867 3.06965L1.34481 20.293C1.02654 20.813 1.39863 21.4811 2.00827 21.4843L40.0625 21.6852C40.6789 21.6885 41.057 21.011 40.7306 20.4881L29.8446 3.0464C29.2726 2.13005 28.2687 1.57324 27.1886 1.57324Z" fill="#A7A7A8"/>
<path d="M29.8446 3.0464L29.1806 3.46083V3.46083L29.8446 3.0464ZM40.7306 20.4881L40.0666 20.9025L40.0666 20.9025L40.7306 20.4881ZM1.34481 20.293L0.677214 19.8844H0.677214L1.34481 20.293ZM11.8867 3.06965L12.5543 3.47827V3.47827L11.8867 3.06965ZM40.0625 21.6852L40.0583 22.4679L40.0625 21.6852ZM2.00827 21.4843L2.00413 22.267H2.00413L2.00827 21.4843ZM14.5571 2.35596H27.1886V0.790525H14.5571V2.35596ZM29.1806 3.46083L40.0666 20.9025L41.3946 20.0737L30.5086 2.63197L29.1806 3.46083ZM2.0124 20.7016L12.5543 3.47827L11.2191 2.66104L0.677214 19.8844L2.0124 20.7016ZM40.0666 20.9025L2.0124 20.7016L2.00413 22.267L40.0583 22.4679L40.0666 20.9025ZM40.0666 20.9025V20.9025L40.0583 22.4679C41.2912 22.4745 42.0474 21.1195 41.3946 20.0737L40.0666 20.9025ZM27.1886 2.35596C27.9987 2.35596 28.7516 2.77357 29.1806 3.46083L30.5086 2.63197C29.7936 1.48654 28.5388 0.790525 27.1886 0.790525V2.35596ZM14.5571 0.790525C13.1947 0.790525 11.9304 1.49904 11.2191 2.66104L12.5543 3.47827C12.9811 2.78107 13.7397 2.35596 14.5571 2.35596V0.790525ZM0.677214 19.8844C0.040688 20.9243 0.784865 22.2606 2.00413 22.267L2.0124 20.7016H2.0124L0.677214 19.8844Z" fill="#232326"/>
<path d="M37.0216 20.9575L27.5068 4.55957L28.4347 20.9575H37.0216Z" fill="#A9C6D6" stroke="#232326" stroke-linejoin="round"/>
<path d="M19.415 21.2603L27.1027 4.55973L28.0089 21.2603H19.415Z" fill="#232326"/>
</svg>
