<svg width="46" height="32" viewBox="0 0 46 32" fill="none" xmlns="http://www.w3.org/2000/svg">
<path d="M22.7796 16C22.3671 14.0114 22.2846 10.1006 25.2546 10.3658C26.0375 10.5184 27.6033 10.2588 27.6033 8" stroke="#A7A7A8" stroke-width="1.5" stroke-linecap="round"/>
<rect x="8.90039" y="14.3086" width="32.0996" height="16.4807" rx="8.24034" fill="#A9C6D6"/>
<rect x="6" y="14.4541" width="32.0996" height="16.4807" rx="8.24034" fill="#A7A7A8" stroke="#232326"/>
<path d="M17.3038 23.2691L17.3038 25.488C17.3038 25.6295 17.2712 25.7271 17.2059 25.7811C17.1516 25.8351 17.0537 25.8617 16.9123 25.8607L15.9986 25.8547C15.7484 25.8531 15.6233 25.7272 15.6233 25.477L15.6233 23.258L13.3718 23.2432C13.1107 23.2415 12.9802 23.1101 12.9802 22.849L12.9802 21.8864C12.9802 21.6253 13.1107 21.4957 13.3718 21.4974L15.6233 21.5122L15.6233 19.2932C15.6233 19.043 15.7484 18.9188 15.9986 18.9204L16.9123 18.9264C17.0537 18.9274 17.1516 18.9552 17.2059 19.0099C17.2712 19.0648 17.3038 19.1629 17.3038 19.3043L17.3038 21.5233L19.5391 21.538C19.8001 21.5397 19.9307 21.6711 19.9307 21.9321L19.9307 22.8948C19.9307 23.1558 19.8001 23.2855 19.5391 23.2838L17.3038 23.2691Z" fill="#232326"/>
<path d="M31.3821 22.3154C31.3821 23.8296 30.1452 25.0654 28.609 25.0654C27.0728 25.0654 25.8359 23.8296 25.8359 22.3154C25.8359 20.8013 27.0728 19.5654 28.609 19.5654C30.1452 19.5654 31.3821 20.8013 31.3821 22.3154Z" stroke="#232326" stroke-width="1.5"/>
</svg>
