<svg width="38" height="33" viewBox="0 0 38 33" fill="none" xmlns="http://www.w3.org/2000/svg">
<path d="M7.85096 31.6L7.02344 20.644H25.3053H34.614L33.6127 31.6H25.3053H7.85096Z" fill="#62E3C4"/>
<path d="M27.8911 13.6321L32.7652 20.0857C33.1702 20.622 33.9823 20.6118 34.3039 20.0217C36.6288 15.7569 34.6241 11.813 31.9326 10.0004L13.9281 10C11.6692 10 10.0955 11.7002 9.44082 13.196C9.32206 13.4674 9.36433 13.7773 9.52111 14.0286L11.3423 16.9477L13.9281 16.474L12.4376 14.4263C12.1971 14.0959 12.4331 13.6321 12.8418 13.6321H27.8911Z" fill="#62E3C4"/>
<path d="M25.3053 31.6H7.85096L7.02344 20.644H25.3053M25.3053 31.6V20.644M25.3053 31.6H33.6127L34.614 20.644H25.3053M27.8911 13.6321L32.7652 20.0857C33.1702 20.622 33.9823 20.6118 34.3039 20.0217C36.6288 15.7569 34.6241 11.813 31.9326 10.0004L13.9281 10C11.6692 10 10.0955 11.7002 9.44082 13.196C9.32206 13.4674 9.36433 13.7773 9.52111 14.0286L11.3423 16.9477L13.9281 16.474L12.4376 14.4263C12.1971 14.0959 12.4331 13.6321 12.8418 13.6321H27.8911Z" stroke="#232326" stroke-width="0.928565"/>
<ellipse opacity="0.4" cx="5.61164" cy="12.2511" rx="1.26301" ry="1.24624" fill="#FFD979"/>
<path d="M3.00237 16.9209L3.45721 18.1338L4.68639 18.5825L3.45721 19.0313L3.00237 20.2442L2.54754 19.0313L1.31836 18.5825L2.54754 18.1338L3.00237 16.9209Z" fill="#FFD979"/>
<path d="M29.3632 20.3032H10.1221C10.4279 19.0961 11.5142 18.2507 12.7595 18.2507H14.8079C15.478 18.2507 16.1285 18.0249 16.6544 17.6098L17.1686 17.2039C17.9206 16.6102 18.9771 16.5938 19.7472 17.1637C20.24 17.5284 20.8663 17.6623 21.465 17.531L23.7383 17.0325C24.669 16.8285 25.6424 17.0366 26.4083 17.6033L26.9099 17.9745C27.1523 18.1539 27.4459 18.2507 27.7474 18.2507C28.3919 18.2507 28.9541 18.6882 29.1123 19.3129L29.3632 20.3032Z" fill="#FFD979"/>
</svg>
