<svg width="35" height="33" viewBox="0 0 35 33" fill="none" xmlns="http://www.w3.org/2000/svg">
<path d="M16.8893 32.4986C19.9824 32.4986 22.795 32.1588 24.8478 31.6473C25.8705 31.3925 26.7291 31.089 27.344 30.7495C27.6506 30.5801 27.9194 30.3895 28.1173 30.1727C28.3154 29.9557 28.4733 29.6771 28.4733 29.347C28.4733 29.3338 28.4738 29.2588 28.4747 29.1299C28.481 28.256 28.5048 24.9063 28.4991 21.5865C28.4959 19.6764 28.4829 17.7637 28.4512 16.3136C28.4354 15.5895 28.4147 14.9752 28.3879 14.5326C28.3746 14.3128 28.3592 14.1259 28.3407 13.9859C28.3317 13.9177 28.3202 13.8467 28.3042 13.7836C28.2964 13.753 28.2838 13.7093 28.2635 13.6631L28.2631 13.6624C28.2506 13.6338 28.2002 13.5196 28.0787 13.4345C27.6041 13.102 26.932 12.9991 26.2209 12.9803C25.4896 12.9609 24.6105 13.0303 23.6463 13.1268C23.2892 13.1625 22.9189 13.2021 22.537 13.2429C20.8354 13.4248 18.9036 13.6313 16.8893 13.6313C15.0335 13.6313 13.1611 13.3994 11.4552 13.1881C11.1437 13.1495 10.8377 13.1116 10.5384 13.0759C9.57837 12.9615 8.68019 12.8694 7.90646 12.8593C7.14505 12.8494 6.43665 12.9163 5.89204 13.168C5.70802 13.253 5.62424 13.4124 5.59521 13.4713C5.55549 13.5518 5.5279 13.6393 5.50738 13.7178C5.4656 13.8779 5.43285 14.0819 5.40565 14.3103C5.35067 14.7718 5.31053 15.4023 5.28123 16.1362C5.2225 17.6078 5.20582 19.5394 5.20946 21.4658C5.2131 23.3938 5.23711 25.3227 5.26019 26.7912C5.27508 27.7381 5.28944 28.487 5.29783 28.9246C5.30253 29.1696 5.30535 29.317 5.30535 29.347C5.30535 29.6771 5.46319 29.9557 5.6613 30.1727C5.85922 30.3895 6.12801 30.5801 6.43467 30.7495C7.04949 31.089 7.9081 31.3925 8.93088 31.6473C10.9836 32.1588 13.7962 32.4986 16.8893 32.4986Z" fill="#62E3C4" stroke="#232326"/>
<path d="M16.8906 16.4746C19.9708 16.4746 22.7716 16.2592 24.8132 15.9067C25.83 15.7311 26.6826 15.5175 27.2925 15.2685C27.5952 15.1449 27.8672 15.0011 28.0719 14.8284C28.2722 14.6593 28.4746 14.4036 28.4746 14.0605C28.4746 13.7175 28.2722 13.4617 28.0719 13.2927C27.8672 13.12 27.5952 12.9762 27.2925 12.8526C26.6826 12.6036 25.83 12.39 24.8132 12.2144C22.7716 11.8618 19.9708 11.6465 16.8906 11.6465C13.8104 11.6465 11.0096 11.8618 8.96798 12.2144C7.95123 12.39 7.09865 12.6036 6.48868 12.8526C6.18597 12.9762 5.91402 13.12 5.70936 13.2927C5.50902 13.4617 5.30664 13.7175 5.30664 14.0605C5.30664 14.4036 5.50902 14.6593 5.70936 14.8284C5.91402 15.0011 6.18597 15.1449 6.48868 15.2685C7.09865 15.5175 7.95123 15.7311 8.96798 15.9067C11.0096 16.2592 13.8104 16.4746 16.8906 16.4746Z" fill="#A9C6D6" stroke="#232326"/>
<path d="M20.687 13.5588C20.687 13.0602 20.5888 12.5664 20.3979 12.1057C20.2071 11.645 19.9274 11.2265 19.5748 10.8739C19.2222 10.5213 18.8037 10.2416 18.343 10.0508C17.8823 9.85993 17.3885 9.76172 16.8899 9.76172C16.3912 9.76172 15.8975 9.85993 15.4368 10.0508C14.9761 10.2416 14.5575 10.5213 14.2049 10.8739C13.8523 11.2265 13.5726 11.645 13.3818 12.1057C13.191 12.5664 13.0928 13.0602 13.0928 13.5588L16.8899 13.5588H20.687Z" fill="#FFD979"/>
<rect x="11.4893" y="13.5781" width="10.7898" height="0.967374" rx="0.483687" fill="#232326"/>
<path d="M14.9902 21.124H18.5398" stroke="#232326" stroke-width="1.2" stroke-linecap="round" stroke-linejoin="round"/>
<path d="M14.9902 22.7881H18.5398" stroke="#232326" stroke-width="1.2" stroke-linecap="round" stroke-linejoin="round"/>
<path d="M14.9902 24.4521L17.5045 27.1143" stroke="#232326" stroke-width="1.2" stroke-linecap="round" stroke-linejoin="round"/>
<path d="M14.9902 24.4521H15.8776" stroke="#232326" stroke-width="1.2" stroke-linecap="round" stroke-linejoin="round"/>
<path d="M15.8779 24.4517C17.85 24.4517 17.85 21.124 15.8779 21.124" stroke="#232326" stroke-width="1.2" stroke-linecap="round" stroke-linejoin="round"/>
<circle opacity="0.4" cx="5.25405" cy="7.7228" r="1.25405" fill="#FFD979"/>
<circle cx="29.3673" cy="10.879" r="1.25405" fill="#FFD979"/>
<path d="M18.0627 0.308594L18.5143 1.52905L19.7347 1.98066L18.5143 2.43226L18.0627 3.65272L17.6111 2.43226L16.3906 1.98066L17.6111 1.52905L18.0627 0.308594Z" fill="#FFD979"/>
</svg>
