<svg width="38" height="33" viewBox="0 0 38 33" fill="none" xmlns="http://www.w3.org/2000/svg">
<path d="M5.82319 31.8161L5.00154 20.7914H23.1537H32.3962L31.4021 31.8161H23.1537H5.82319Z" fill="#A7A7A8"/>
<path d="M23.1537 20.063H31.3962C31.9485 20.063 32.3993 19.6128 32.3071 19.0682C32.0671 17.6505 31.3306 15.9014 29.9538 14.4097C28.9989 13.3752 27.5681 13.0004 26.1602 13.0003L10.4445 13C7.3208 13 5.30146 17.2336 5.03106 19.5656C4.99926 19.8399 5.22386 20.063 5.5 20.063H23.1537Z" fill="#A7A7A8"/>
<path d="M5.00154 20.7914V20.3271H4.50136L4.53854 20.8259L5.00154 20.7914ZM5.82319 31.8161L5.36019 31.8506L5.39222 32.2803H5.82319V31.8161ZM31.4021 31.8161V32.2803H31.8264L31.8645 31.8578L31.4021 31.8161ZM32.3962 20.7914L32.8587 20.8331L32.9043 20.3271H32.3962V20.7914ZM5.03106 19.5656L5.49225 19.619L5.03106 19.5656ZM10.4445 13L10.4445 12.5357H10.4445V13ZM26.1602 13.0003L26.1602 12.5361L26.1602 13.0003ZM29.9538 14.4097L30.295 14.0948V14.0948L29.9538 14.4097ZM32.3071 19.0682L32.7649 18.9907V18.9907L32.3071 19.0682ZM4.53854 20.8259L5.36019 31.8506L6.28619 31.7816L5.46453 20.7569L4.53854 20.8259ZM5.82319 32.2803H23.1537V31.3518H5.82319V32.2803ZM23.6179 31.8161V20.7914H22.6894V31.8161H23.6179ZM23.1537 20.3271H5.00154V21.2557H23.1537V20.3271ZM23.1537 32.2803H31.4021V31.3518H23.1537V32.2803ZM31.8645 31.8578L32.8587 20.8331L31.9338 20.7497L30.9397 31.7744L31.8645 31.8578ZM32.3962 20.3271H23.1537V21.2557H32.3962V20.3271ZM31.3962 19.5987H23.1537V20.5273H31.3962V19.5987ZM23.1537 19.5987H5.5V20.5273H23.1537V19.5987ZM5.49225 19.619C5.61837 18.5314 6.16234 16.9616 7.05024 15.6715C7.94388 14.3731 9.10769 13.4643 10.4445 13.4643V12.5357C8.6576 12.5357 7.24989 13.7437 6.28534 15.1451C5.31505 16.5548 4.71415 18.2677 4.56987 19.5121L5.49225 19.619ZM10.4445 13.4643L26.1601 13.4646L26.1602 12.5361L10.4445 12.5357L10.4445 13.4643ZM29.6126 14.7247C30.9253 16.1467 31.6236 17.8121 31.8493 19.1457L32.7649 18.9907C32.5107 17.4889 31.736 15.656 30.295 14.0948L29.6126 14.7247ZM26.1601 13.4646C27.5003 13.4647 28.7802 13.8228 29.6126 14.7247L30.295 14.0948C29.2175 12.9276 27.6358 12.5361 26.1602 12.5361L26.1601 13.4646ZM5.5 19.5987C5.48753 19.5987 5.48331 19.5939 5.48456 19.5952C5.48545 19.5961 5.48806 19.5992 5.49013 19.6051C5.49114 19.608 5.49181 19.611 5.49213 19.6138C5.49245 19.6167 5.49231 19.6185 5.49225 19.619L4.56987 19.5121C4.50202 20.0972 4.98279 20.5273 5.5 20.5273V19.5987ZM31.3962 20.5273C32.1828 20.5273 32.9135 19.8686 32.7649 18.9907L31.8493 19.1457C31.8851 19.3569 31.7142 19.5987 31.3962 19.5987V20.5273Z" fill="#232326"/>
<path fill-rule="evenodd" clip-rule="evenodd" d="M26.4883 14.2972C26.5702 14.5609 26.4228 14.8411 26.159 14.923C25.4036 15.1576 24.8867 15.7269 24.544 16.4001C24.1995 17.0768 24.0574 17.8111 24.0335 18.2648C24.019 18.5405 23.7836 18.7523 23.5079 18.7377C23.2321 18.7232 23.0203 18.4878 23.0349 18.2121C23.065 17.641 23.2355 16.7663 23.6529 15.9464C24.072 15.123 24.7664 14.3083 25.8625 13.9679C26.1262 13.886 26.4064 14.0334 26.4883 14.2972Z" fill="#232326"/>
</svg>
