<svg width="35" height="34" viewBox="0 0 35 34" fill="none" xmlns="http://www.w3.org/2000/svg">
<path d="M17.0433 33.109C20.0989 33.109 22.8775 32.7734 24.9057 32.268C25.9162 32.0162 26.7649 31.7164 27.3728 31.3806C27.676 31.2131 27.9422 31.0244 28.1383 30.8097C28.3346 30.5947 28.4915 30.318 28.4915 29.9899C28.4915 29.9769 28.492 29.903 28.4929 29.7759C28.499 28.9133 28.5226 25.604 28.517 22.3245C28.5138 20.4378 28.501 18.5485 28.4696 17.1161C28.454 16.4009 28.4336 15.794 28.4071 15.3567C28.394 15.1396 28.3788 14.9548 28.3605 14.8163C28.3516 14.7488 28.3402 14.6784 28.3242 14.6157C28.3165 14.5853 28.304 14.5418 28.2837 14.4958L28.2833 14.495C28.2708 14.4666 28.2205 14.3525 28.0991 14.2674C27.6288 13.9379 26.9633 13.8363 26.2607 13.8176C25.538 13.7985 24.6693 13.8671 23.7169 13.9624C23.3641 13.9977 22.9983 14.0368 22.6211 14.0771C20.9403 14.2568 19.0325 14.4607 17.0433 14.4607C15.2106 14.4607 13.3616 14.2317 11.6766 14.023C11.3689 13.9849 11.0667 13.9474 10.771 13.9122C9.82269 13.7992 8.93523 13.7082 8.17063 13.6982C7.41834 13.6883 6.71747 13.7545 6.17824 14.0036C5.99447 14.0885 5.91093 14.2477 5.88213 14.3061C5.84263 14.3862 5.81526 14.473 5.79494 14.5508C5.75356 14.7092 5.72118 14.9111 5.69429 15.1368C5.63996 15.5929 5.6003 16.2158 5.57137 16.9408C5.51335 18.3944 5.49688 20.3025 5.50047 22.2053C5.50406 24.1097 5.52778 26.015 5.55058 27.4655C5.56529 28.4011 5.57947 29.1409 5.58776 29.5731C5.5924 29.8149 5.59519 29.9604 5.59519 29.9899C5.59519 30.318 5.75207 30.5947 5.94838 30.8097C6.14449 31.0244 6.4106 31.2131 6.71383 31.3806C7.32177 31.7164 8.17044 32.0162 9.18093 32.268C11.2091 32.7734 13.9878 33.109 17.0433 33.109Z" fill="#A7A7A8" stroke="#232326"/>
<path d="M17.0448 17.2812C20.0875 17.2812 22.8544 17.0685 24.8714 16.7201C25.8759 16.5467 26.7185 16.3356 27.3216 16.0894C27.6209 15.9672 27.8901 15.8249 28.093 15.6537C28.2915 15.4862 28.4929 15.232 28.4929 14.8906C28.4929 14.5492 28.2915 14.295 28.093 14.1275C27.8901 13.9563 27.6209 13.814 27.3216 13.6918C26.7185 13.4456 25.8759 13.2345 24.8714 13.061C22.8544 12.7127 20.0875 12.5 17.0448 12.5C14.0021 12.5 11.2352 12.7127 9.21823 13.061C8.21377 13.2345 7.37114 13.4456 6.76805 13.6918C6.46877 13.814 6.19949 13.9563 5.99664 14.1275C5.79811 14.295 5.59668 14.5492 5.59668 14.8906C5.59668 15.232 5.79811 15.4862 5.99664 15.6537C6.19949 15.8249 6.46877 15.9672 6.76805 16.0894C7.37114 16.3356 8.21377 16.5467 9.21823 16.7201C11.2352 17.0685 14.0021 17.2812 17.0448 17.2812Z" fill="#A9C6D6" stroke="#232326"/>
<rect x="11.6807" y="14.25" width="10.6576" height="0.955519" rx="0.47776" fill="#232326"/>
<path d="M15.168 21.8672H18.674" stroke="#232326" stroke-width="1.2" stroke-linecap="round" stroke-linejoin="round"/>
<path d="M15.168 23.5107H18.674" stroke="#232326" stroke-width="1.2" stroke-linecap="round" stroke-linejoin="round"/>
<path d="M15.168 25.1543L17.6514 27.7838" stroke="#232326" stroke-width="1.2" stroke-linecap="round" stroke-linejoin="round"/>
<path d="M15.168 25.1543H16.0445" stroke="#232326" stroke-width="1.2" stroke-linecap="round" stroke-linejoin="round"/>
<path d="M16.0449 25.1541C17.9928 25.1541 17.9928 21.8672 16.0449 21.8672" stroke="#232326" stroke-width="1.2" stroke-linecap="round" stroke-linejoin="round"/>
</svg>
