<svg width="46" height="32" viewBox="0 0 46 32" fill="none" xmlns="http://www.w3.org/2000/svg">
<path d="M28.5684 11H15.937C14.8471 11 13.8356 11.5668 13.2666 12.4964L2.72469 29.7197C2.40643 30.2397 2.77851 30.9079 3.38815 30.9111L41.4424 31.112C42.0588 31.1152 42.4369 30.4378 42.1105 29.9149L31.2244 12.4732C30.6525 11.5568 29.6486 11 28.5684 11Z" fill="#A7A7A8"/>
<path d="M31.2244 12.4732L30.5604 12.8876L30.5604 12.8876L31.2244 12.4732ZM42.1105 29.9149L41.4465 30.3293L41.4465 30.3293L42.1105 29.9149ZM2.72469 29.7197L2.0571 29.3111L2.0571 29.3111L2.72469 29.7197ZM13.2666 12.4964L13.9342 12.905L13.9342 12.905L13.2666 12.4964ZM41.4424 31.112L41.4382 31.8947L41.4382 31.8947L41.4424 31.112ZM3.38815 30.9111L3.38402 31.6938L3.38402 31.6938L3.38815 30.9111ZM15.937 11.7827H28.5684V10.2173H15.937V11.7827ZM30.5604 12.8876L41.4465 30.3293L42.7745 29.5004L31.8884 12.0587L30.5604 12.8876ZM3.39228 30.1284L13.9342 12.905L12.599 12.0878L2.0571 29.3111L3.39228 30.1284ZM41.4465 30.3293L3.39228 30.1284L3.38402 31.6938L41.4382 31.8947L41.4465 30.3293ZM41.4465 30.3293L41.4465 30.3293L41.4382 31.8947C42.671 31.9012 43.4272 30.5463 42.7745 29.5004L41.4465 30.3293ZM28.5684 11.7827C29.3786 11.7827 30.1315 12.2003 30.5604 12.8876L31.8884 12.0587C31.1735 10.9133 29.9187 10.2173 28.5684 10.2173V11.7827ZM15.937 10.2173C14.5746 10.2173 13.3103 10.9258 12.599 12.0878L13.9342 12.905C14.361 12.2078 15.1196 11.7827 15.937 11.7827V10.2173ZM2.0571 29.3111C1.42057 30.3511 2.16475 31.6873 3.38402 31.6938L3.39228 30.1284L3.39228 30.1284L2.0571 29.3111Z" fill="#232326"/>
<path d="M38.4014 30.3842L28.8866 13.9863L22.4902 30.3842H38.4014Z" fill="#A9C6D6" stroke="#232326" stroke-linejoin="round"/>
<path d="M20.7949 30.6871L28.4825 13.9865L29.3888 30.6871H20.7949Z" fill="#232326"/>
</svg>
