<svg width="41" height="33" viewBox="0 0 41 33" fill="none" xmlns="http://www.w3.org/2000/svg">
<path opacity="0.5" d="M4.1875 0L40.1505 1.32365L35.7769 20.5124C34.7328 25.0934 30.6404 28.3297 25.9422 28.2898L18.15 28.2238C13.4516 28.1839 9.41455 24.8785 8.44846 20.2803L4.1875 0Z" fill="url(#paint0_linear_1091_1919)"/>
<path d="M9.00134 32.3955L8.17969 21.3709H26.3318H35.5744L34.5802 32.3955H26.3318H9.00134Z" fill="#62E3C4"/>
<path d="M28.8992 14.315L33.729 20.796C34.1338 21.3392 34.9536 21.3287 35.2735 20.7317C37.5709 16.4451 35.5817 12.4827 32.912 10.6606L15.0353 10.6602C12.7887 10.6602 11.2247 12.3768 10.5767 13.8838C10.461 14.1527 10.5024 14.4586 10.6558 14.7078L12.4679 17.6514L15.0353 17.1747L13.55 15.1067C13.3124 14.7759 13.5488 14.315 13.9561 14.315H28.8992Z" fill="#62E3C4"/>
<path d="M26.3318 32.3955H9.00134L8.17969 21.3709H26.3318M26.3318 32.3955V21.3709M26.3318 32.3955H34.5802L35.5744 21.3709H26.3318M28.8992 14.315L33.729 20.796C34.1338 21.3392 34.9536 21.3287 35.2735 20.7317C37.5709 16.4451 35.5817 12.4827 32.912 10.6606L15.0353 10.6602C12.7887 10.6602 11.2247 12.3768 10.5767 13.8838C10.461 14.1527 10.5024 14.4586 10.6558 14.7078L12.4679 17.6514L15.0353 17.1747L13.55 15.1067C13.3124 14.7759 13.5488 14.315 13.9561 14.315H28.8992Z" stroke="#232326" stroke-width="0.928565"/>
<circle opacity="0.4" cx="6.77748" cy="12.9249" r="1.25405" fill="#FFD979"/>
<path d="M4.18769 17.625L4.6393 18.8455L5.85975 19.2971L4.6393 19.7487L4.18769 20.9691L3.73608 19.7487L2.51562 19.2971L3.73608 18.8455L4.18769 17.625Z" fill="#FFD979"/>
<path d="M30.3605 21.0282H11.2559C11.5593 19.8144 12.6499 18.9628 13.9011 18.9628H15.9052C16.5722 18.9628 17.2194 18.7358 17.7402 18.3191L18.2523 17.9094C18.997 17.3137 20.0504 17.2973 20.8133 17.8694C21.3016 18.2357 21.9256 18.3703 22.5215 18.2378L24.7685 17.7385C25.696 17.5324 26.6672 17.7419 27.4272 18.3119L27.9243 18.6847C28.165 18.8652 28.4577 18.9628 28.7585 18.9628C29.3965 18.9628 29.9527 19.397 30.1074 20.016L30.3605 21.0282Z" fill="#FFD979"/>
<circle cx="0.836031" cy="13.7403" r="0.836031" fill="#FFD979"/>
<defs>
<linearGradient id="paint0_linear_1091_1919" x1="22.1689" y1="2.34221e-10" x2="22.1543" y2="19.8477" gradientUnits="userSpaceOnUse">
<stop stop-color="#55AF95" stop-opacity="0"/>
<stop offset="1" stop-color="#55AF95"/>
</linearGradient>
</defs>
</svg>
