<svg width="31" height="39" viewBox="0 0 31 39" fill="none" xmlns="http://www.w3.org/2000/svg">
<path d="M15.5449 36.9999C18.7378 36.9999 21.6407 36.6492 23.7589 36.1214C24.8144 35.8584 25.6994 35.5455 26.3325 35.1958C26.6483 35.0214 26.9242 34.8256 27.127 34.6035C27.3299 34.3813 27.4903 34.0973 27.4903 33.7619C27.4903 33.7482 27.4908 33.6703 27.4918 33.5367C27.4982 32.6327 27.5228 29.1756 27.517 25.7484C27.5136 23.776 27.5002 21.8011 27.4674 20.3039C27.4511 19.5562 27.4298 18.9222 27.4021 18.4654C27.3884 18.2386 27.3725 18.046 27.3535 17.9021C27.3443 17.8318 27.3325 17.7593 27.3161 17.695C27.3082 17.6638 27.2955 17.6197 27.275 17.5732L27.2747 17.5725C27.262 17.5437 27.2115 17.4292 27.0897 17.3439C26.6039 17.0035 25.9141 16.8973 25.1803 16.8778C24.4263 16.8578 23.5195 16.9293 22.5238 17.029C22.1553 17.0659 21.7731 17.1067 21.3788 17.1489C19.6217 17.3367 17.6258 17.5501 15.5449 17.5501C13.6274 17.5501 11.6929 17.3104 9.93135 17.0923C9.60973 17.0524 9.29388 17.0133 8.98496 16.9765C7.99363 16.8583 7.06693 16.7633 6.26892 16.7529C5.48322 16.7426 4.75478 16.8119 4.19586 17.0701C4.01117 17.1555 3.92677 17.3157 3.89714 17.3757C3.85682 17.4575 3.82866 17.5466 3.8076 17.6272C3.76473 17.7914 3.73102 18.0012 3.70296 18.2368C3.64627 18.7127 3.60483 19.3633 3.57459 20.121C3.51396 21.6402 3.49673 23.6345 3.50049 25.6237C3.50425 27.6144 3.52904 29.6062 3.55287 31.1225C3.56824 32.0996 3.58306 32.8728 3.59173 33.3249C3.59659 33.5783 3.59951 33.7309 3.59951 33.7619C3.59951 34.0973 3.75987 34.3813 3.9628 34.6035C4.16554 34.8256 4.44142 35.0214 4.75722 35.1958C5.39033 35.5455 6.27541 35.8584 7.33089 36.1214C9.44906 36.6492 12.352 36.9999 15.5449 36.9999Z" fill="#A7A7A8" stroke="#232326"/>
<path d="M15.546 20.4529C18.726 20.4529 21.6171 20.2306 23.7241 19.8667C24.7736 19.6855 25.6526 19.4652 26.2809 19.2087C26.5927 19.0814 26.8718 18.9337 27.0813 18.7569C27.2864 18.5838 27.4913 18.3238 27.4913 17.9765C27.4913 17.6291 27.2864 17.3691 27.0813 17.196C26.8718 17.0192 26.5927 16.8716 26.2809 16.7442C25.6526 16.4877 24.7736 16.2674 23.7241 16.0862C21.6171 15.7223 18.726 15.5 15.546 15.5C12.3659 15.5 9.47477 15.7223 7.36777 16.0862C6.31833 16.2674 5.43928 16.4877 4.81103 16.7442C4.49917 16.8716 4.22012 17.0192 4.01065 17.196C3.80549 17.3691 3.60059 17.6291 3.60059 17.9765C3.60059 18.3238 3.80549 18.5838 4.01065 18.7569C4.22012 18.9337 4.49917 19.0814 4.81103 19.2087C5.43928 19.4652 6.31833 19.6855 7.36777 19.8667C9.47477 20.2306 12.3659 20.4529 15.546 20.4529Z" fill="#A9C6D6" stroke="#232326"/>
<rect x="9.93848" y="17.3066" width="11.1417" height="0.998917" rx="0.499458" fill="#232326"/>
<path d="M13.585 25.2705H17.2502" stroke="#232326" stroke-width="1.2" stroke-linecap="round" stroke-linejoin="round"/>
<path d="M13.585 26.9883H17.2502" stroke="#232326" stroke-width="1.2" stroke-linecap="round" stroke-linejoin="round"/>
<path d="M13.585 28.707L16.1812 31.456" stroke="#232326" stroke-width="1.2" stroke-linecap="round" stroke-linejoin="round"/>
<path d="M13.585 28.707H14.5013" stroke="#232326" stroke-width="1.2" stroke-linecap="round" stroke-linejoin="round"/>
<path d="M14.502 28.7067C16.5383 28.7067 16.5383 25.2705 14.502 25.2705" stroke="#232326" stroke-width="1.2" stroke-linecap="round" stroke-linejoin="round"/>
</svg>
