<svg width="45" height="33" viewBox="0 0 45 33" fill="none" xmlns="http://www.w3.org/2000/svg">
<path opacity="0.5" d="M5.60352 0H44.4397L39.6211 22.368C38.6223 27.0043 34.5042 30.3014 29.7617 30.2617L20.0412 30.1804C15.3525 30.1412 11.3206 26.8495 10.3441 22.2634L5.60352 0Z" fill="url(#paint0_linear_1336_2098)"/>
<path d="M11.851 31.9984L11.0234 21.0424H29.3053H38.614L37.6127 31.9984H29.3053H11.851Z" fill="#62E3C4"/>
<path d="M31.8911 14.0305L36.7652 20.4841C37.1702 21.0204 37.9823 21.0103 38.3039 20.4202C40.6288 16.1553 38.6241 12.2115 35.9326 10.3988L17.9281 10.3984C15.6692 10.3984 14.0955 12.0987 13.4408 13.5945C13.3221 13.8658 13.3643 14.1757 13.5211 14.427L15.3423 17.3461L17.9281 16.8724L16.4376 14.8248C16.1971 14.4943 16.4331 14.0305 16.8418 14.0305H31.8911Z" fill="#62E3C4"/>
<path d="M29.3053 31.9984H11.851L11.0234 21.0424H29.3053M29.3053 31.9984V21.0424M29.3053 31.9984H37.6127L38.614 21.0424H29.3053M31.8911 14.0305L36.7652 20.4841C37.1702 21.0204 37.9823 21.0103 38.3039 20.4202C40.6288 16.1553 38.6241 12.2115 35.9326 10.3988L17.9281 10.3984C15.6692 10.3984 14.0955 12.0987 13.4408 13.5945C13.3221 13.8658 13.3643 14.1757 13.5211 14.427L15.3423 17.3461L17.9281 16.8724L16.4376 14.8248C16.1971 14.4943 16.4331 14.0305 16.8418 14.0305H31.8911Z" stroke="#232326" stroke-width="0.928565"/>
<ellipse opacity="0.4" cx="9.61164" cy="12.6496" rx="1.26301" ry="1.24624" fill="#FFD979"/>
<path d="M7.00237 17.3193L7.45721 18.5322L8.68639 18.981L7.45721 19.4298L7.00237 20.6426L6.54754 19.4298L5.31836 18.981L6.54754 18.5322L7.00237 17.3193Z" fill="#FFD979"/>
<path d="M33.3632 20.7017H14.1221C14.4279 19.4946 15.5142 18.6492 16.7595 18.6492H18.8079C19.478 18.6492 20.1285 18.4234 20.6544 18.0082L21.1686 17.6023C21.9206 17.0087 22.9771 16.9922 23.7472 17.5622C24.24 17.9268 24.8663 18.0607 25.465 17.9294L27.7383 17.431C28.669 17.2269 29.6424 17.435 30.4083 18.0018L30.9099 18.373C31.1523 18.5524 31.4459 18.6492 31.7474 18.6492C32.3919 18.6492 32.9541 19.0867 33.1123 19.7114L33.3632 20.7017Z" fill="#FFD979"/>
<ellipse cx="0.906199" cy="14.6959" rx="0.906199" ry="0.894163" fill="#FFD979"/>
<defs>
<linearGradient id="paint0_linear_1336_2098" x1="25.0941" y1="6.00787e-08" x2="25.0787" y2="21.2277" gradientUnits="userSpaceOnUse">
<stop stop-color="#55AF95" stop-opacity="0"/>
<stop offset="1" stop-color="#55AF95"/>
</linearGradient>
</defs>
</svg>
