<svg width="42" height="33" viewBox="0 0 42 33" fill="none" xmlns="http://www.w3.org/2000/svg">
<path opacity="0.5" d="M0 0H21H42L39.0467 23.2167C38.4089 28.2308 34.1299 31.9806 29.0755 31.9547L12.5889 31.8703C7.53728 31.8445 3.29827 28.0552 2.70844 23.038L0 0Z" fill="url(#paint0_linear_1090_1798)"/>
<path d="M21.6448 17.3047C21.2323 15.3161 21.1498 11.4053 24.1198 11.6705C24.9027 11.823 26.4685 11.5635 26.4685 9.30469" stroke="#FFD979" stroke-width="1.5" stroke-linecap="round"/>
<rect x="6.28125" y="15.5801" width="32.0996" height="16.4807" rx="8.24034" fill="#A9C6D6"/>
<rect x="3.38086" y="15.7266" width="32.0996" height="16.4807" rx="8.24034" fill="#62E3C4" stroke="#232326"/>
<path d="M15.0572 23.6797L16.6314 25.2436C16.7317 25.3432 16.778 25.4352 16.7703 25.5195C16.7703 25.5962 16.7201 25.6844 16.6198 25.784L15.9716 26.428C15.7941 26.6043 15.6166 26.6043 15.4392 26.428L13.8649 24.8641L12.2676 26.451C12.0824 26.635 11.8972 26.635 11.712 26.451L11.0291 25.7725C10.8439 25.5885 10.8439 25.4045 11.0291 25.2206L12.6264 23.6337L11.0522 22.0698C10.8747 21.8935 10.8747 21.7171 11.0522 21.5408L11.7004 20.8969C11.8007 20.7972 11.8895 20.7474 11.9666 20.7474C12.0515 20.7397 12.1441 20.7857 12.2444 20.8854L13.8186 22.4493L15.4044 20.8739C15.5896 20.6899 15.7748 20.6899 15.96 20.8739L16.643 21.5523C16.8282 21.7363 16.8282 21.9203 16.643 22.1043L15.0572 23.6797Z" fill="#232326"/>
<path d="M28.763 23.5859C28.763 25.1001 27.5261 26.3359 25.9899 26.3359C24.4537 26.3359 23.2168 25.1001 23.2168 23.5859C23.2168 22.0718 24.4537 20.8359 25.9899 20.8359C27.5261 20.8359 28.763 22.0718 28.763 23.5859Z" stroke="#232326" stroke-width="1.5"/>
<ellipse cx="25.9896" cy="23.5863" rx="1.92709" ry="1.91445" fill="#FFD979"/>
<circle opacity="0.4" cx="1.25405" cy="15.1388" r="1.25405" fill="#FFD979"/>
<circle cx="37.1759" cy="11.5548" r="1.25405" fill="#FFD979"/>
<defs>
<linearGradient id="paint0_linear_1090_1798" x1="21.0002" y1="3.49113" x2="20.9938" y2="31.336" gradientUnits="userSpaceOnUse">
<stop offset="0.027769" stop-color="#55AF95" stop-opacity="0"/>
<stop offset="1" stop-color="#55AF95"/>
</linearGradient>
</defs>
</svg>
