<svg width="39" height="32" viewBox="0 0 39 32" fill="none" xmlns="http://www.w3.org/2000/svg">
<path d="M19.5114 15.3488C19.0809 13.2736 18.9948 9.19222 22.0943 9.46892C22.9113 9.62816 24.5454 9.35731 24.5454 7" stroke="#A7A7A8" stroke-width="1.5" stroke-linecap="round"/>
<rect x="5.02637" y="13.583" width="33.4992" height="17.1993" rx="8.59964" fill="#A9C6D6"/>
<rect x="2" y="13.7344" width="33.4992" height="17.1993" rx="8.59964" fill="#A7A7A8" stroke="#232326"/>
<path d="M13.7967 22.9341L13.7967 25.2498C13.7967 25.3974 13.7627 25.4994 13.6946 25.5557C13.6378 25.612 13.5356 25.6398 13.3881 25.6388L12.4346 25.6325C12.1735 25.6308 12.0429 25.4994 12.0429 25.2383L12.0429 22.9226L9.69321 22.9071C9.42078 22.9053 9.28456 22.7682 9.28456 22.4958L9.28456 21.4912C9.28456 21.2187 9.42078 21.0834 9.69321 21.0852L12.0429 21.1006L12.0429 18.7849C12.0429 18.5238 12.1735 18.3941 12.4346 18.3959L13.3881 18.4021C13.5356 18.4031 13.6378 18.4322 13.6946 18.4893C13.7627 18.5465 13.7967 18.6489 13.7967 18.7964L13.7967 21.1122L16.1294 21.1275C16.4019 21.1293 16.5381 21.2664 16.5381 21.5389L16.5381 22.5435C16.5381 22.8159 16.4019 22.9513 16.1294 22.9495L13.7967 22.9341Z" fill="#232326"/>
<path d="M28.5214 21.9387C28.5214 23.5372 27.2157 24.8413 25.5947 24.8413C23.9736 24.8413 22.668 23.5372 22.668 21.9387C22.668 20.3403 23.9736 19.0361 25.5947 19.0361C27.2157 19.0361 28.5214 20.3403 28.5214 21.9387Z" stroke="#232326" stroke-width="1.5"/>
</svg>
