<svg width="29" height="38" viewBox="0 0 29 38" fill="none" xmlns="http://www.w3.org/2000/svg">
<path opacity="0.5" d="M0 0H29L25.7711 16.81C24.8599 21.5535 20.6885 24.9677 15.8585 24.9232L12.9763 24.8967C8.22081 24.853 4.154 21.4661 3.25047 16.797L0 0Z" fill="url(#paint0_linear_1091_1897)"/>
<path d="M14.7011 37.0839C17.894 37.0839 20.797 36.7331 22.9151 36.2054C23.9706 35.9424 24.8557 35.6295 25.4888 35.2798C25.8046 35.1054 26.0805 34.9096 26.2832 34.6875C26.4861 34.4653 26.6465 34.1813 26.6465 33.8459C26.6465 33.8321 26.6471 33.7543 26.648 33.6207C26.6544 32.7167 26.679 29.2596 26.6732 25.8324C26.6698 23.86 26.6564 21.8851 26.6237 20.3879C26.6073 19.6402 26.5861 19.0061 26.5584 18.5494C26.5446 18.3226 26.5288 18.13 26.5098 17.9861C26.5005 17.9158 26.4887 17.8432 26.4724 17.779C26.4644 17.7478 26.4518 17.7037 26.4312 17.6572L26.4309 17.6565C26.4182 17.6277 26.3677 17.5132 26.246 17.4279C25.7602 17.0875 25.0704 16.9812 24.3365 16.9618C23.5826 16.9418 22.6757 17.0133 21.68 17.113C21.3116 17.1499 20.9293 17.1907 20.5351 17.2329C18.7779 17.4207 16.782 17.6341 14.7011 17.6341C12.7837 17.6341 10.8491 17.3944 9.0876 17.1762C8.76598 17.1364 8.45013 17.0973 8.14121 17.0605C7.14988 16.9423 6.22318 16.8473 5.42517 16.8369C4.63947 16.8266 3.91103 16.8959 3.35211 17.1541C3.16742 17.2395 3.08302 17.3996 3.05339 17.4597C3.01307 17.5415 2.98491 17.6306 2.96385 17.7112C2.92098 17.8754 2.88727 18.0852 2.85921 18.3208C2.80252 18.7967 2.76108 19.4472 2.73084 20.205C2.67021 21.7241 2.65298 23.7185 2.65674 25.7077C2.6605 27.6984 2.68529 29.6901 2.70912 31.2065C2.72449 32.1836 2.73931 32.9568 2.74798 33.4089C2.75284 33.6623 2.75576 33.8149 2.75576 33.8459C2.75576 34.1813 2.91612 34.4653 3.11905 34.6875C3.32179 34.9096 3.59767 35.1054 3.91347 35.2798C4.54658 35.6295 5.43166 35.9424 6.48714 36.2054C8.60531 36.7331 11.5083 37.0839 14.7011 37.0839Z" fill="#62E3C4" stroke="#232326"/>
<path d="M14.7022 20.5369C17.8822 20.5369 20.7734 20.3146 22.8804 19.9507C23.9298 19.7695 24.8089 19.5492 25.4371 19.2927C25.749 19.1654 26.028 19.0177 26.2375 18.8409C26.4427 18.6678 26.6476 18.4078 26.6476 18.0604C26.6476 17.7131 26.4427 17.4531 26.2375 17.28C26.028 17.1032 25.749 16.9555 25.4371 16.8282C24.8089 16.5717 23.9298 16.3514 22.8804 16.1702C20.7734 15.8063 17.8822 15.584 14.7022 15.584C11.5222 15.584 8.63102 15.8063 6.52402 16.1702C5.47458 16.3514 4.59553 16.5717 3.96728 16.8282C3.65542 16.9555 3.37637 17.1032 3.1669 17.28C2.96174 17.4531 2.75684 17.7131 2.75684 18.0604C2.75684 18.4078 2.96174 18.6678 3.1669 18.8409C3.37637 19.0177 3.65542 19.1654 3.96728 19.2927C4.59553 19.5492 5.47458 19.7695 6.52402 19.9507C8.63102 20.3146 11.5222 20.5369 14.7022 20.5369Z" fill="#A9C6D6" stroke="#232326"/>
<path d="M18.6221 17.542C18.6221 17.0271 18.5207 16.5172 18.3236 16.0415C18.1266 15.5658 17.8378 15.1336 17.4737 14.7695C17.1096 14.4054 16.6774 14.1166 16.2017 13.9196C15.726 13.7225 15.2161 13.6211 14.7012 13.6211C14.1863 13.6211 13.6764 13.7225 13.2007 13.9196C12.725 14.1166 12.2928 14.4054 11.9287 14.7695C11.5646 15.1336 11.2758 15.5658 11.0787 16.0415C10.8817 16.5172 10.7803 17.0271 10.7803 17.542L14.7012 17.542H18.6221Z" fill="#FFD979"/>
<rect x="9.12402" y="17.5615" width="11.1417" height="0.998917" rx="0.499458" fill="#232326"/>
<path d="M12.7412 25.3545H16.4065" stroke="#232326" stroke-width="1.2" stroke-linecap="round" stroke-linejoin="round"/>
<path d="M12.7412 27.0723H16.4065" stroke="#232326" stroke-width="1.2" stroke-linecap="round" stroke-linejoin="round"/>
<path d="M12.7412 28.791L15.3375 31.54" stroke="#232326" stroke-width="1.2" stroke-linecap="round" stroke-linejoin="round"/>
<path d="M12.7412 28.791H13.6575" stroke="#232326" stroke-width="1.2" stroke-linecap="round" stroke-linejoin="round"/>
<path d="M13.6582 28.7907C15.6946 28.7907 15.6946 25.3545 13.6582 25.3545" stroke="#232326" stroke-width="1.2" stroke-linecap="round" stroke-linejoin="round"/>
<circle opacity="0.4" cx="3.2892" cy="11.7228" r="1.25405" fill="#FFD979"/>
<circle cx="27.4025" cy="14.879" r="1.25405" fill="#FFD979"/>
<path d="M16.0978 4.30859L16.5495 5.52905L17.7699 5.98066L16.5495 6.43226L16.0978 7.65272L15.6462 6.43226L14.4258 5.98066L15.6462 5.52905L16.0978 4.30859Z" fill="#FFD979"/>
<defs>
<linearGradient id="paint0_linear_1091_1897" x1="14.5931" y1="4.7345" x2="14.5894" y2="17.4974" gradientUnits="userSpaceOnUse">
<stop offset="0.027769" stop-color="#55AF95" stop-opacity="0"/>
<stop offset="1" stop-color="#55AF95"/>
</linearGradient>
</defs>
</svg>
