<svg width="48" height="32" viewBox="0 0 48 32" fill="none" xmlns="http://www.w3.org/2000/svg">
<path d="M30.5684 11H17.937C16.8471 11 15.8356 11.5668 15.2666 12.4964L4.72469 29.7197C4.40643 30.2397 4.77851 30.9079 5.38815 30.9111L43.4424 31.112C44.0588 31.1152 44.4369 30.4378 44.1105 29.9149L33.2244 12.4732C32.6525 11.5568 31.6486 11 30.5684 11Z" fill="#A7A7A8"/>
<path d="M33.2244 12.4732L32.5604 12.8876V12.8876L33.2244 12.4732ZM44.1105 29.9149L43.4465 30.3293L43.4465 30.3293L44.1105 29.9149ZM4.72469 29.7197L4.0571 29.3111H4.0571L4.72469 29.7197ZM15.2666 12.4964L15.9342 12.905V12.905L15.2666 12.4964ZM43.4424 31.112L43.4382 31.8947L43.4424 31.112ZM5.38815 30.9111L5.38402 31.6938H5.38402L5.38815 30.9111ZM17.937 11.7827H30.5684V10.2173H17.937V11.7827ZM32.5604 12.8876L43.4465 30.3293L44.7745 29.5004L33.8884 12.0587L32.5604 12.8876ZM5.39228 30.1284L15.9342 12.905L14.599 12.0878L4.0571 29.3111L5.39228 30.1284ZM43.4465 30.3293L5.39228 30.1284L5.38402 31.6938L43.4382 31.8947L43.4465 30.3293ZM43.4465 30.3293V30.3293L43.4382 31.8947C44.671 31.9012 45.4272 30.5463 44.7745 29.5004L43.4465 30.3293ZM30.5684 11.7827C31.3786 11.7827 32.1315 12.2003 32.5604 12.8876L33.8884 12.0587C33.1735 10.9133 31.9187 10.2173 30.5684 10.2173V11.7827ZM17.937 10.2173C16.5746 10.2173 15.3103 10.9258 14.599 12.0878L15.9342 12.905C16.361 12.2078 17.1196 11.7827 17.937 11.7827V10.2173ZM4.0571 29.3111C3.42057 30.3511 4.16475 31.6873 5.38402 31.6938L5.39228 30.1284H5.39228L4.0571 29.3111Z" fill="#232326"/>
<path d="M40.4014 30.3842L30.8866 13.9863L24.4902 30.3842H40.4014Z" fill="#A9C6D6" stroke="#232326" stroke-linejoin="round"/>
<path d="M22.7949 30.6871L30.4825 13.9865L31.3888 30.6871H22.7949Z" fill="#232326"/>
</svg>
