<svg width="35" height="33" viewBox="0 0 35 33" fill="none" xmlns="http://www.w3.org/2000/svg">
<path opacity="0.5" d="M0 0H35L30.7965 19.9882C29.8165 24.6481 25.6865 27.9707 20.9248 27.9299L13.8425 27.8692C9.13642 27.8288 5.09531 24.5125 4.13751 19.9047L0 0Z" fill="url(#paint0_linear_1336_2126)"/>
<path d="M17.4927 32.4994C20.4676 32.4994 23.1731 32.1726 25.1484 31.6804C26.1325 31.4352 26.9597 31.143 27.5529 30.8155C27.8487 30.6521 28.1091 30.4676 28.3013 30.2571C28.4937 30.0463 28.6486 29.774 28.6486 29.4502C28.6486 29.4376 28.6491 29.3659 28.65 29.2428C28.6559 28.4045 28.6789 25.182 28.6734 21.9894C28.6703 20.1531 28.6578 18.3141 28.6273 16.9198C28.6121 16.2236 28.5923 15.6327 28.5665 15.2068C28.5537 14.9953 28.5388 14.8151 28.521 14.6799C28.5123 14.614 28.5011 14.5448 28.4854 14.4831C28.4778 14.4531 28.4654 14.41 28.4452 14.3643L28.4449 14.3635C28.4324 14.3353 28.3823 14.2214 28.261 14.1364C27.7998 13.8133 27.1486 13.7144 26.4644 13.6963C25.76 13.6776 24.9138 13.7444 23.9868 13.8372C23.6433 13.8716 23.2871 13.9097 22.9199 13.9489C21.284 14.1238 19.428 14.3222 17.4927 14.3222C15.7098 14.3222 13.9111 14.0994 12.2711 13.8962C11.9715 13.8591 11.6772 13.8227 11.3893 13.7884C10.4664 13.6784 9.60197 13.5897 8.857 13.58C8.12435 13.5704 7.43969 13.6347 6.91202 13.8785C6.72879 13.9632 6.64576 14.1217 6.61744 14.1791C6.57843 14.2582 6.55152 14.3437 6.53164 14.4198C6.49113 14.5749 6.45953 14.7721 6.43334 14.992C6.3804 15.4364 6.34178 16.0431 6.31361 16.7489C6.25713 18.164 6.2411 20.0213 6.2446 21.8734C6.24809 23.7271 6.27118 25.5816 6.29337 26.9934C6.3077 27.9046 6.32151 28.6247 6.32957 29.0452C6.33408 29.2802 6.33679 29.4215 6.33679 29.4502C6.33679 29.774 6.49163 30.0463 6.68404 30.2571C6.87626 30.4676 7.13663 30.6521 7.43246 30.8155C8.02562 31.143 8.85289 31.4352 9.83694 31.6804C11.8122 32.1726 14.5178 32.4994 17.4927 32.4994Z" fill="#62E3C4" stroke="#232326"/>
<path d="M17.4938 17.0943C20.4558 17.0943 23.1496 16.8872 25.1137 16.5481C26.0917 16.3792 26.913 16.1735 27.5013 15.9334C27.7932 15.8142 28.0567 15.6751 28.2557 15.5072C28.4503 15.3429 28.6497 15.0921 28.6497 14.7542C28.6497 14.4163 28.4503 14.1655 28.2557 14.0012C28.0567 13.8333 27.7932 13.6942 27.5013 13.575C26.913 13.3348 26.0917 13.1292 25.1137 12.9603C23.1496 12.6211 20.4558 12.4141 17.4938 12.4141C14.5318 12.4141 11.838 12.6211 9.87385 12.9603C8.89583 13.1292 8.07459 13.3348 7.48629 13.575C7.19441 13.6942 6.93087 13.8333 6.73191 14.0012C6.53727 14.1655 6.33789 14.4163 6.33789 14.7542C6.33789 15.0921 6.53727 15.3429 6.73191 15.5072C6.93087 15.6751 7.19441 15.8142 7.48629 15.9334C8.07459 16.1735 8.89583 16.3792 9.87385 16.5481C11.838 16.8872 14.5318 17.0943 17.4938 17.0943Z" fill="#A9C6D6" stroke="#232326"/>
<path d="M21.1437 14.2716C21.1437 13.7922 21.0493 13.3175 20.8658 12.8746C20.6824 12.4317 20.4135 12.0293 20.0745 11.6903C19.7355 11.3513 19.3331 11.0824 18.8902 10.899C18.4473 10.7155 17.9726 10.6211 17.4932 10.6211C17.0138 10.6211 16.5392 10.7155 16.0963 10.899C15.6534 11.0824 15.2509 11.3513 14.912 11.6903C14.573 12.0293 14.3041 12.4317 14.1206 12.8746C13.9372 13.3175 13.8428 13.7922 13.8428 14.2716L17.4932 14.2716H21.1437Z" fill="#FFD979"/>
<rect x="12.3008" y="14.29" width="10.3731" height="0.930014" rx="0.465007" fill="#232326"/>
<path d="M15.668 21.5439H19.0804" stroke="#232326" stroke-width="1.2" stroke-linecap="round" stroke-linejoin="round"/>
<path d="M15.668 23.1436H19.0804" stroke="#232326" stroke-width="1.2" stroke-linecap="round" stroke-linejoin="round"/>
<path d="M15.668 24.7432L18.0851 27.3025" stroke="#232326" stroke-width="1.2" stroke-linecap="round" stroke-linejoin="round"/>
<path d="M15.668 24.7432H16.5211" stroke="#232326" stroke-width="1.2" stroke-linecap="round" stroke-linejoin="round"/>
<path d="M16.5215 24.7431C18.4174 24.7431 18.4174 21.5439 16.5215 21.5439" stroke="#232326" stroke-width="1.2" stroke-linecap="round" stroke-linejoin="round"/>
<circle opacity="0.4" cx="6.2892" cy="7.7228" r="1.25405" fill="#FFD979"/>
<circle cx="30.4025" cy="10.879" r="1.25405" fill="#FFD979"/>
<path d="M19.0978 0.308594L19.5495 1.52905L20.7699 1.98066L19.5495 2.43226L19.0978 3.65272L18.6462 2.43226L17.4258 1.98066L18.6462 1.52905L19.0978 0.308594Z" fill="#FFD979"/>
<defs>
<linearGradient id="paint0_linear_1336_2126" x1="17.5653" y1="5.54636e-08" x2="17.5508" y2="19.5971" gradientUnits="userSpaceOnUse">
<stop stop-color="#55AF95" stop-opacity="0"/>
<stop offset="1" stop-color="#55AF95"/>
</linearGradient>
</defs>
</svg>
