<svg width="48" height="33" viewBox="0 0 48 33" fill="none" xmlns="http://www.w3.org/2000/svg">
<path d="M29.5937 11.4893H16.7167C15.6056 11.4893 14.5744 12.0671 13.9944 13.0148L3.2475 30.5729C2.92305 31.103 3.30237 31.7841 3.92386 31.7874L21.6312 31.8809C22.6971 31.8865 23.6955 31.3597 24.2924 30.4766L29.5937 16.692C30.7639 14.9606 31.3839 23.5116 32.764 25.0809L37.8954 30.9159C38.5013 31.605 39.3745 31.9999 40.2921 31.9999H42.7269C43.3534 31.9999 43.7355 31.3109 43.4038 30.7795L32.3013 12.9911C31.7183 12.0569 30.6949 11.4893 29.5937 11.4893Z" fill="#62E3C4" stroke="black"/>
<circle opacity="0.4" cx="22.7696" cy="6.39268" r="1.27843" fill="#FFD979"/>
<circle cx="44.0763" cy="14.9151" r="1.27843" fill="#FFD979"/>
<circle cx="38.5369" cy="0.852284" r="0.852284" fill="#FFD979"/>
<circle cx="5.3933" cy="15.199" r="0.852284" fill="#FFD979"/>
<path d="M7.94969 3.41113L8.41007 4.65531L9.65425 5.1157L8.41007 5.57609L7.94969 6.82027L7.4893 5.57609L6.24512 5.1157L7.4893 4.65531L7.94969 3.41113Z" fill="#FFD979"/>
<path d="M39.2931 31.9887C39.4696 31.9887 39.633 31.8957 39.7231 31.744C39.8132 31.5922 39.8166 31.4042 39.7321 31.2493L30.5571 14.4285C30.4436 14.2205 30.1996 14.1207 29.9728 14.1896C29.746 14.2585 29.5988 14.4772 29.6202 14.7132L31.1494 31.534C31.1728 31.7915 31.3887 31.9887 31.6473 31.9887H39.2931Z" fill="#FFD979" stroke="#232326" stroke-linejoin="round"/>
<path d="M21.4529 31.9887C21.2786 31.9887 21.1168 31.8979 21.026 31.749C20.9352 31.6002 20.9286 31.4148 21.0084 31.2598L29.6737 14.439C29.7945 14.2045 30.0768 14.1041 30.3185 14.2099C30.5602 14.3156 30.6782 14.5909 30.5881 14.8388L24.4714 31.6596C24.3996 31.8572 24.2118 31.9887 24.0015 31.9887H21.4529Z" fill="#FFD979" stroke="#232326" stroke-linejoin="round"/>
</svg>
