<svg width="40" height="33" viewBox="0 0 40 33" fill="none" xmlns="http://www.w3.org/2000/svg">
<path d="M22.195 17.2032C21.7721 15.1642 21.6875 11.154 24.7329 11.4259C25.5357 11.5823 27.1413 11.3162 27.1413 9" stroke="#FFD979" stroke-width="1.5" stroke-linecap="round"/>
<rect x="6.44141" y="15.4346" width="32.915" height="16.8993" rx="8.44967" fill="#A9C6D6"/>
<rect x="3.4668" y="15.585" width="32.915" height="16.8993" rx="8.44967" fill="#62E3C4" stroke="#232326"/>
<path d="M15.4396 23.74L17.0538 25.3436C17.1567 25.4458 17.2042 25.5401 17.1962 25.6266C17.1962 25.7052 17.1448 25.7956 17.0419 25.8978L16.3773 26.5581C16.1953 26.7389 16.0133 26.7389 15.8313 26.5581L14.2171 24.9545L12.5792 26.5816C12.3893 26.7703 12.1994 26.7703 12.0094 26.5816L11.3092 25.886C11.1193 25.6973 11.1193 25.5086 11.3092 25.32L12.9471 23.6928L11.3329 22.0892C11.1509 21.9084 11.1509 21.7276 11.3329 21.5468L11.9976 20.8865C12.1004 20.7843 12.1914 20.7332 12.2706 20.7332C12.3576 20.7253 12.4526 20.7725 12.5554 20.8747L14.1696 22.4783L15.7957 20.8629C15.9856 20.6742 16.1755 20.6742 16.3654 20.8629L17.0657 21.5586C17.2556 21.7472 17.2556 21.9359 17.0657 22.1245L15.4396 23.74Z" fill="#232326"/>
<path d="M29.5133 23.6436C29.5133 25.2068 28.2363 26.4825 26.6507 26.4825C25.0651 26.4825 23.7881 25.2068 23.7881 23.6436C23.7881 22.0804 25.0651 20.8047 26.6507 20.8047C28.2363 20.8047 29.5133 22.0804 29.5133 23.6436Z" stroke="#232326" stroke-width="1.5"/>
<ellipse cx="26.6499" cy="23.6447" rx="1.97604" ry="1.96308" fill="#FFD979"/>
<circle opacity="0.4" cx="1.2859" cy="14.9822" r="1.2859" fill="#FFD979"/>
<circle cx="38.1209" cy="11.3074" r="1.2859" fill="#FFD979"/>
</svg>
