<svg width="50" height="33" viewBox="0 0 50 33" fill="none" xmlns="http://www.w3.org/2000/svg">
<path opacity="0.5" d="M0.533203 1.41602H49.4664L43.2398 24.5471C42.058 28.9375 38.0632 31.978 33.5166 31.9476L16.2463 31.832C11.7387 31.8018 7.80846 28.7596 6.64943 24.4034L0.533203 1.41602Z" fill="url(#paint0_linear_1336_2130)"/>
<path d="M30.5937 11.4893H17.7167C16.6056 11.4893 15.5744 12.0671 14.9944 13.0148L4.2475 30.5729C3.92305 31.103 4.30237 31.7841 4.92386 31.7874L22.6312 31.8809C23.6971 31.8865 24.6955 31.3597 25.2924 30.4766L30.5937 16.692C31.7639 14.9606 32.3839 23.5116 33.764 25.0809L38.8954 30.9159C39.5013 31.605 40.3745 31.9999 41.2921 31.9999H43.7269C44.3534 31.9999 44.7355 31.3109 44.4038 30.7795L33.3013 12.9911C32.7183 12.0569 31.6949 11.4893 30.5937 11.4893Z" fill="#62E3C4" stroke="black"/>
<circle opacity="0.4" cx="23.7696" cy="6.39268" r="1.27843" fill="#FFD979"/>
<circle cx="45.0763" cy="14.9151" r="1.27843" fill="#FFD979"/>
<circle cx="39.5369" cy="0.852284" r="0.852284" fill="#FFD979"/>
<circle cx="6.3933" cy="15.199" r="0.852284" fill="#FFD979"/>
<path d="M8.94969 3.41113L9.41007 4.65531L10.6543 5.1157L9.41007 5.57609L8.94969 6.82027L8.4893 5.57609L7.24512 5.1157L8.4893 4.65531L8.94969 3.41113Z" fill="#FFD979"/>
<path d="M31.5571 14.4285C31.4436 14.2205 31.1996 14.1207 30.9728 14.1896C30.746 14.2585 30.5988 14.4772 30.6202 14.7132L32.1494 31.534C32.1728 31.7915 32.3887 31.9887 32.6473 31.9887H40.2931C40.4696 31.9887 40.633 31.8957 40.7231 31.744C40.8132 31.5922 40.8166 31.4042 40.7321 31.2493L31.5571 14.4285Z" fill="#FFD979" stroke="#232326" stroke-linejoin="round"/>
<path d="M30.6737 14.439C30.7945 14.2045 31.0768 14.1041 31.3185 14.2099C31.5602 14.3156 31.6782 14.5909 31.5881 14.8388L25.4714 31.6596C25.3996 31.8572 25.2118 31.9887 25.0015 31.9887H22.4529C22.2786 31.9887 22.1168 31.8979 22.026 31.749C21.9352 31.6002 21.9286 31.4148 22.0084 31.2598L30.6737 14.439Z" fill="#FFD979" stroke="#232326" stroke-linejoin="round"/>
<defs>
<linearGradient id="paint0_linear_1336_2130" x1="25.0911" y1="1.41602" x2="25.0787" y2="22.8211" gradientUnits="userSpaceOnUse">
<stop stop-color="#55AF95" stop-opacity="0"/>
<stop offset="1" stop-color="#55AF95"/>
</linearGradient>
</defs>
</svg>
