<svg width="44" height="33" viewBox="0 0 44 33" fill="none" xmlns="http://www.w3.org/2000/svg">
<path d="M11.8232 31.8161L11.0015 20.7914H29.1537H38.3962L37.4021 31.8161H29.1537H11.8232Z" fill="#A7A7A8"/>
<path d="M29.1537 20.063H37.3962C37.9485 20.063 38.3993 19.6128 38.3071 19.0682C38.0671 17.6505 37.3306 15.9014 35.9538 14.4097C34.9989 13.3752 33.5681 13.0004 32.1602 13.0003L16.4445 13C13.3208 13 11.3015 17.2336 11.0311 19.5656C10.9993 19.8399 11.2239 20.063 11.5 20.063H29.1537Z" fill="#A7A7A8"/>
<path d="M11.0015 20.7914V20.3271H10.5014L10.5385 20.8259L11.0015 20.7914ZM11.8232 31.8161L11.3602 31.8506L11.3922 32.2803H11.8232V31.8161ZM37.4021 31.8161V32.2803H37.8264L37.8645 31.8578L37.4021 31.8161ZM38.3962 20.7914L38.8587 20.8331L38.9043 20.3271H38.3962V20.7914ZM11.0311 19.5656L11.4923 19.619L11.4923 19.619L11.0311 19.5656ZM16.4445 13L16.4445 12.5357H16.4445V13ZM32.1602 13.0003L32.1602 12.5361L32.1602 13.0003ZM35.9538 14.4097L36.295 14.0948L36.295 14.0948L35.9538 14.4097ZM38.3071 19.0682L38.7649 18.9907L38.7649 18.9907L38.3071 19.0682ZM10.5385 20.8259L11.3602 31.8506L12.2862 31.7816L11.4645 20.7569L10.5385 20.8259ZM11.8232 32.2803H29.1537V31.3518H11.8232V32.2803ZM29.6179 31.8161V20.7914H28.6894V31.8161H29.6179ZM29.1537 20.3271H11.0015V21.2557H29.1537V20.3271ZM29.1537 32.2803H37.4021V31.3518H29.1537V32.2803ZM37.8645 31.8578L38.8587 20.8331L37.9338 20.7497L36.9397 31.7744L37.8645 31.8578ZM38.3962 20.3271H29.1537V21.2557H38.3962V20.3271ZM37.3962 19.5987H29.1537V20.5273H37.3962V19.5987ZM29.1537 19.5987H11.5V20.5273H29.1537V19.5987ZM11.4923 19.619C11.6184 18.5314 12.1623 16.9616 13.0502 15.6715C13.9439 14.3731 15.1077 13.4643 16.4445 13.4643V12.5357C14.6576 12.5357 13.2499 13.7437 12.2853 15.1451C11.315 16.5548 10.7142 18.2677 10.5699 19.5121L11.4923 19.619ZM16.4445 13.4643L32.1601 13.4646L32.1602 12.5361L16.4445 12.5357L16.4445 13.4643ZM35.6126 14.7247C36.9253 16.1467 37.6236 17.8121 37.8493 19.1457L38.7649 18.9907C38.5107 17.4889 37.736 15.656 36.295 14.0948L35.6126 14.7247ZM32.1601 13.4646C33.5003 13.4647 34.7802 13.8228 35.6126 14.7247L36.295 14.0948C35.2175 12.9276 33.6358 12.5361 32.1602 12.5361L32.1601 13.4646ZM11.5 19.5987C11.4875 19.5987 11.4833 19.5939 11.4846 19.5952C11.4855 19.5961 11.4881 19.5992 11.4901 19.6051C11.4911 19.608 11.4918 19.611 11.4921 19.6138C11.4925 19.6167 11.4923 19.6185 11.4923 19.619L10.5699 19.5121C10.502 20.0972 10.9828 20.5273 11.5 20.5273V19.5987ZM37.3962 20.5273C38.1828 20.5273 38.9135 19.8686 38.7649 18.9907L37.8493 19.1457C37.8851 19.3569 37.7142 19.5987 37.3962 19.5987V20.5273Z" fill="#232326"/>
<path fill-rule="evenodd" clip-rule="evenodd" d="M32.4883 14.2972C32.5702 14.5609 32.4228 14.8411 32.159 14.923C31.4036 15.1576 30.8867 15.7269 30.544 16.4001C30.1995 17.0768 30.0574 17.8111 30.0335 18.2648C30.019 18.5405 29.7836 18.7523 29.5079 18.7377C29.2321 18.7232 29.0203 18.4878 29.0349 18.2121C29.065 17.641 29.2355 16.7663 29.6529 15.9464C30.072 15.123 30.7664 14.3083 31.8625 13.9679C32.1262 13.886 32.4064 14.0334 32.4883 14.2972Z" fill="#232326"/>
</svg>
