<svg width="49" height="34" viewBox="0 0 49 34" fill="none" xmlns="http://www.w3.org/2000/svg">
<path opacity="0.5" d="M0 0H49L44.3782 31.143C44.3052 31.6349 43.8819 31.9984 43.3846 31.9962L5.23339 31.8289C4.73529 31.8267 4.31474 31.4582 4.24705 30.9647L0 0Z" fill="url(#paint0_linear_1090_1782)"/>
<path d="M30.4855 11.8818H17.854C16.7641 11.8818 15.7526 12.4486 15.1837 13.3782L4.64172 30.6016C4.32346 31.1216 4.69555 31.7897 5.30519 31.7929L22.6749 31.8846C23.7204 31.8901 24.6998 31.3733 25.2853 30.5071L30.4855 16.9854C31.6334 15.287 32.2416 23.6749 33.5953 25.2143L38.6288 30.938C39.2232 31.6139 40.0798 32.0013 40.9799 32.0013H43.3682C43.9828 32.0013 44.3576 31.3255 44.0322 30.8042L33.1415 13.355C32.5695 12.4386 31.5657 11.8818 30.4855 11.8818Z" fill="#62E3C4" stroke="black"/>
<circle opacity="0.4" cx="23.7912" cy="6.88198" r="1.25405" fill="#FFD979"/>
<circle cx="44.6915" cy="15.2423" r="1.25405" fill="#FFD979"/>
<circle cx="39.2579" cy="1.44736" r="0.836031" fill="#FFD979"/>
<circle cx="6.74619" cy="15.5206" r="0.836031" fill="#FFD979"/>
<path d="M9.25409 3.95703L9.7057 5.17748L10.9262 5.62909L9.7057 6.0807L9.25409 7.30116L8.80248 6.0807L7.58203 5.62909L8.80248 5.17748L9.25409 3.95703Z" fill="#FFD979"/>
<path d="M31.3963 14.5776C31.2834 14.3699 31.0404 14.2696 30.8138 14.3374C30.5873 14.4051 30.4391 14.6222 30.4588 14.8579L31.8921 32.0759C31.9137 32.335 32.1303 32.5344 32.3904 32.5344H40.3176C40.4939 32.5344 40.6572 32.4415 40.7474 32.2899C40.8375 32.1383 40.8411 31.9505 40.7569 31.7956L31.3963 14.5776Z" fill="#FFD979" stroke="#232326" stroke-linejoin="round"/>
<path d="M30.3914 14.6823C30.5201 14.4514 30.8064 14.3606 31.0447 14.4751C31.2829 14.5896 31.3909 14.8698 31.2911 15.1146L24.3145 32.2232C24.2378 32.4114 24.0548 32.5344 23.8516 32.5344H21.2899C21.1126 32.5344 20.9486 32.4405 20.8588 32.2876C20.769 32.1348 20.7669 31.9458 20.8532 31.7909L30.3914 14.6823Z" fill="#FFD979" stroke="#232326" stroke-linejoin="round"/>
<defs>
<linearGradient id="paint0_linear_1090_1782" x1="24.5003" y1="3.49113" x2="24.4948" y2="31.336" gradientUnits="userSpaceOnUse">
<stop offset="0.027769" stop-color="#55AF95" stop-opacity="0"/>
<stop offset="1" stop-color="#55AF95"/>
</linearGradient>
</defs>
</svg>
