<svg width="40" height="33" viewBox="0 0 40 33" fill="none" xmlns="http://www.w3.org/2000/svg">
<path opacity="0.5" d="M3.07617 0H38.9653L34.6122 20.6995C33.6322 25.3594 29.5022 28.6819 24.7405 28.6411L17.0655 28.5754C12.3594 28.5351 8.31828 25.2187 7.36048 20.6109L3.07617 0Z" fill="url(#paint0_linear_1336_2128)"/>
<path d="M22.195 16.7188C21.7721 14.6798 21.6875 10.6696 24.7329 10.9415C25.5357 11.098 27.1413 10.8318 27.1413 8.51562" stroke="#FFD979" stroke-width="1.5" stroke-linecap="round"/>
<rect x="6.44141" y="14.9502" width="32.915" height="16.8993" rx="8.44967" fill="#A9C6D6"/>
<rect x="3.4668" y="15.1006" width="32.915" height="16.8993" rx="8.44967" fill="#62E3C4" stroke="#232326"/>
<path d="M15.4396 23.2556L17.0538 24.8592C17.1567 24.9614 17.2042 25.0557 17.1962 25.1422C17.1962 25.2208 17.1448 25.3112 17.0419 25.4134L16.3773 26.0737C16.1953 26.2545 16.0133 26.2545 15.8313 26.0737L14.2171 24.4701L12.5792 26.0973C12.3893 26.2859 12.1994 26.2859 12.0094 26.0973L11.3092 25.4016C11.1193 25.2129 11.1193 25.0243 11.3092 24.8356L12.9471 23.2084L11.3329 21.6048C11.1509 21.424 11.1509 21.2432 11.3329 21.0624L11.9976 20.4021C12.1004 20.2999 12.1914 20.2488 12.2706 20.2488C12.3576 20.2409 12.4526 20.2881 12.5554 20.3903L14.1696 21.9939L15.7957 20.3785C15.9856 20.1898 16.1755 20.1898 16.3654 20.3785L17.0657 21.0742C17.2556 21.2629 17.2556 21.4515 17.0657 21.6402L15.4396 23.2556Z" fill="#232326"/>
<path d="M29.5133 23.1592C29.5133 24.7225 28.2363 25.9981 26.6507 25.9981C25.0651 25.9981 23.7881 24.7225 23.7881 23.1592C23.7881 21.596 25.0651 20.3203 26.6507 20.3203C28.2363 20.3203 29.5133 21.596 29.5133 23.1592Z" stroke="#232326" stroke-width="1.5"/>
<ellipse cx="26.6499" cy="23.1604" rx="1.97604" ry="1.96308" fill="#FFD979"/>
<circle opacity="0.4" cx="1.2859" cy="14.4978" r="1.2859" fill="#FFD979"/>
<circle cx="38.1209" cy="10.823" r="1.2859" fill="#FFD979"/>
<defs>
<linearGradient id="paint0_linear_1336_2128" x1="21.0877" y1="5.68725e-08" x2="21.0728" y2="20.0949" gradientUnits="userSpaceOnUse">
<stop stop-color="#55AF95" stop-opacity="0"/>
<stop offset="1" stop-color="#55AF95"/>
</linearGradient>
</defs>
</svg>
