<svg width="36" height="25" viewBox="0 0 36 25" fill="none" xmlns="http://www.w3.org/2000/svg">
<path d="M18.1429 9.33105C18.227 9.73663 18.624 9.99721 19.0296 9.91308C19.4351 9.82895 19.6957 9.43195 19.6116 9.02638L18.1429 9.33105ZM21.3522 3.54448L21.4957 2.80833L21.4576 2.8009L21.4189 2.79745L21.3522 3.54448ZM24.451 1.17871C24.451 0.764497 24.1152 0.428711 23.701 0.428711C23.2868 0.428711 22.951 0.764497 22.951 1.17871H24.451ZM19.6116 9.02638C19.4166 8.08629 19.3134 6.73753 19.5738 5.69881C19.7026 5.18489 19.9029 4.81714 20.1542 4.59266C20.3832 4.38807 20.7217 4.24118 21.2855 4.29151L21.4189 2.79745C20.4977 2.71521 19.7328 2.95775 19.1549 3.474C18.5992 3.97038 18.289 4.6549 18.1188 5.33411C17.781 6.68165 17.9254 8.28258 18.1429 9.33105L19.6116 9.02638ZM21.2088 4.28063C21.7367 4.38352 22.5404 4.35657 23.2379 3.88876C23.9815 3.39009 24.451 2.4963 24.451 1.17871H22.951C22.951 2.11994 22.6375 2.48533 22.4024 2.64298C22.1213 2.83151 21.7507 2.85803 21.4957 2.80833L21.2088 4.28063Z" fill="#A9C6D6"/>
<rect x="3.5127" y="7.4541" width="32.0996" height="16.4807" rx="8.24034" fill="#A9C6D6"/>
<rect x="0.612305" y="7.59961" width="32.0996" height="16.4807" rx="8.24034" fill="#A7A7A8" stroke="#232326"/>
<path d="M12.2876 15.5527L13.8619 17.1166C13.9622 17.2163 14.0085 17.3083 14.0008 17.3926C14.0008 17.4692 13.9506 17.5574 13.8503 17.6571L13.2021 18.301C13.0246 18.4773 12.8471 18.4773 12.6696 18.301L11.0954 16.7371L9.49806 18.324C9.31286 18.508 9.12766 18.508 8.94246 18.324L8.25953 17.6456C8.07433 17.4616 8.07433 17.2776 8.25953 17.0936L9.85689 15.5067L8.28268 13.9428C8.1052 13.7665 8.1052 13.5902 8.28268 13.4139L8.93088 12.7699C9.0312 12.6703 9.11994 12.6204 9.19711 12.6204C9.28199 12.6128 9.37459 12.6588 9.47491 12.7584L11.0491 14.3223L12.6349 12.7469C12.8201 12.5629 13.0053 12.5629 13.1905 12.7469L13.8734 13.4254C14.0586 13.6094 14.0586 13.7933 13.8734 13.9773L12.2876 15.5527Z" fill="#232326"/>
<path d="M25.9944 15.4609C25.9944 16.9751 24.7575 18.2109 23.2213 18.2109C21.6851 18.2109 20.4482 16.9751 20.4482 15.4609C20.4482 13.9468 21.6851 12.7109 23.2213 12.7109C24.7575 12.7109 25.9944 13.9468 25.9944 15.4609Z" stroke="#232326" stroke-width="1.5"/>
</svg>
