<svg width="26" height="24" viewBox="0 0 26 24" fill="none" xmlns="http://www.w3.org/2000/svg">
<path d="M24.8212 2.92395L24.5352 3.33203L24.8212 2.92395C24.3354 2.58356 23.6456 2.47734 22.9117 2.45787C22.1577 2.43786 21.2509 2.50943 20.2552 2.60908C19.8867 2.64595 19.5045 2.68681 19.1102 2.72896C17.3531 2.9168 15.3572 3.13016 13.2763 3.13016C11.3589 3.13016 9.42431 2.89053 7.6628 2.67233C7.34118 2.63249 7.02533 2.59337 6.71641 2.55655C5.72508 2.4384 4.79838 2.34342 4.00036 2.33299C3.21466 2.32271 2.48623 2.39196 1.9273 2.65022C1.74262 2.73555 1.65821 2.89574 1.62858 2.95582C1.58826 3.03758 1.5601 3.12666 1.53904 3.20732C1.49618 3.37149 1.46247 3.58131 1.4344 3.8169C1.37771 4.2928 1.33628 4.94333 1.30604 5.7011C1.2454 7.22024 1.22818 9.21455 1.23193 11.2038C1.23569 13.1945 1.26048 15.1862 1.28432 16.7026C1.29968 17.6797 1.31451 18.4529 1.32317 18.905C1.32803 19.1584 1.33096 19.311 1.33096 19.342C1.33096 19.6774 1.49132 19.9614 1.69425 20.1836C1.89698 20.4056 2.17287 20.6015 2.48867 20.7759C3.12178 21.1256 4.00685 21.4385 5.06234 21.7014C7.1805 22.2292 10.0835 22.58 13.2763 22.58C16.4692 22.58 19.3722 22.2292 21.4903 21.7014C22.5458 21.4385 23.4309 21.1256 24.064 20.7759C24.3798 20.6015 24.6557 20.4056 24.8584 20.1836C25.0613 19.9614 25.2217 19.6774 25.2217 19.342C25.2217 19.3282 25.2223 19.2504 25.2232 19.1168C25.2296 18.2128 25.2542 14.7556 25.2484 11.3285C25.245 9.35612 25.2316 7.38119 25.1989 5.88397C25.1825 5.13631 25.1613 4.50224 25.1336 4.04552C25.1198 3.81865 25.104 3.62611 25.085 3.48215C25.0757 3.41192 25.0639 3.33933 25.0476 3.27511C25.0396 3.2439 25.0269 3.19977 25.0064 3.15327L25.0061 3.15256C24.9934 3.12382 24.943 3.00929 24.8212 2.92395Z" fill="#A7A7A8" stroke="#232326"/>
<path d="M13.2774 6.03299C16.4574 6.03299 19.3486 5.81066 21.4556 5.44681C22.505 5.26559 23.3841 5.04527 24.0123 4.78877C24.3242 4.66144 24.6032 4.51376 24.8127 4.33698C25.0179 4.16385 25.2228 3.90386 25.2228 3.55654C25.2228 3.20921 25.0179 2.94922 24.8127 2.77609C24.6032 2.59932 24.3242 2.45163 24.0123 2.3243C23.3841 2.0678 22.505 1.84749 21.4556 1.66626C19.3486 1.30241 16.4574 1.08008 13.2774 1.08008C10.0974 1.08008 7.20622 1.30241 5.09922 1.66626C4.04977 1.84749 3.17073 2.0678 2.54247 2.3243C2.23061 2.45163 1.95157 2.59932 1.74209 2.77609C1.53694 2.94922 1.33203 3.20921 1.33203 3.55654C1.33203 3.90386 1.53694 4.16385 1.74209 4.33698C1.95157 4.51376 2.23061 4.66144 2.54247 4.78877C3.17073 5.04527 4.04977 5.26559 5.09922 5.44681C7.20622 5.81066 10.0974 6.03299 13.2774 6.03299Z" fill="#A9C6D6" stroke="#232326"/>
<rect x="7.66992" y="2.84668" width="11.1417" height="0.998917" rx="0.499458" fill="#232326"/>
<path d="M11.1797 10.8506H14.845" stroke="#232326" stroke-width="1.2" stroke-linecap="round" stroke-linejoin="round"/>
<path d="M11.1797 12.5688H14.845" stroke="#232326" stroke-width="1.2" stroke-linecap="round" stroke-linejoin="round"/>
<path d="M11.1797 14.2866L13.7759 17.0356" stroke="#232326" stroke-width="1.2" stroke-linecap="round" stroke-linejoin="round"/>
<path d="M11.1797 14.2866H12.096" stroke="#232326" stroke-width="1.2" stroke-linecap="round" stroke-linejoin="round"/>
<path d="M12.0967 14.2868C14.133 14.2868 14.133 10.8506 12.0967 10.8506" stroke="#232326" stroke-width="1.2" stroke-linecap="round" stroke-linejoin="round"/>
</svg>
