<svg width="26" height="25" viewBox="0 0 26 25" fill="none" xmlns="http://www.w3.org/2000/svg">
<path d="M24.8212 3.97181L24.5352 4.37988L24.8212 3.9718C24.3354 3.63141 23.6456 3.52519 22.9117 3.50572C22.1577 3.48571 21.2509 3.55728 20.2552 3.65693C19.8867 3.6938 19.5045 3.73467 19.1102 3.77681C17.3531 3.96465 15.3572 4.17801 13.2763 4.17801C11.3589 4.17801 9.42431 3.93838 7.6628 3.72018C7.34118 3.68035 7.02533 3.64122 6.71641 3.6044C5.72508 3.48625 4.79838 3.39127 4.00036 3.38084C3.21466 3.37057 2.48623 3.43981 1.9273 3.69807C1.74262 3.78341 1.65821 3.94359 1.62858 4.00367C1.58826 4.08543 1.5601 4.17451 1.53904 4.25517C1.49618 4.41934 1.46247 4.62916 1.4344 4.86476C1.37771 5.34066 1.33628 5.99118 1.30604 6.74895C1.2454 8.26809 1.22818 10.2624 1.23193 12.2516C1.23569 14.2423 1.26048 16.2341 1.28432 17.7504C1.29968 18.7276 1.31451 19.5007 1.32317 19.9528C1.32803 20.2063 1.33096 20.3588 1.33096 20.3898C1.33096 20.7252 1.49132 21.0092 1.69425 21.2315C1.89698 21.4535 2.17287 21.6494 2.48867 21.8238C3.12178 22.1734 4.00685 22.4863 5.06234 22.7493C7.1805 23.2771 10.0835 23.6279 13.2763 23.6279C16.4692 23.6279 19.3722 23.2771 21.4903 22.7493C22.5458 22.4863 23.4309 22.1734 24.064 21.8238C24.3798 21.6494 24.6557 21.4535 24.8584 21.2315C25.0613 21.0092 25.2217 20.7252 25.2217 20.3898C25.2217 20.3761 25.2223 20.2982 25.2232 20.1646C25.2296 19.2606 25.2542 15.8035 25.2484 12.3763C25.245 10.404 25.2316 8.42905 25.1989 6.93183C25.1825 6.18416 25.1613 5.55009 25.1336 5.09337C25.1198 4.8665 25.104 4.67397 25.085 4.53C25.0757 4.45977 25.0639 4.38718 25.0476 4.32296C25.0396 4.29176 25.0269 4.24762 25.0064 4.20112L25.0061 4.20041C24.9934 4.17167 24.943 4.05714 24.8212 3.97181Z" fill="#62E3C4" stroke="#232326"/>
<path d="M13.2774 7.08085C16.4574 7.08085 19.3486 6.85851 21.4556 6.49466C22.505 6.31344 23.3841 6.09312 24.0123 5.83662C24.3242 5.7093 24.6032 5.56161 24.8127 5.38483C25.0179 5.2117 25.2228 4.95172 25.2228 4.60439C25.2228 4.25706 25.0179 3.99707 24.8127 3.82394C24.6032 3.64717 24.3242 3.49948 24.0123 3.37216C23.3841 3.11565 22.505 2.89534 21.4556 2.71411C19.3486 2.35026 16.4574 2.12793 13.2774 2.12793C10.0974 2.12793 7.20622 2.35026 5.09922 2.71411C4.04977 2.89534 3.17073 3.11565 2.54247 3.37216C2.23061 3.49948 1.95157 3.64717 1.74209 3.82394C1.53694 3.99707 1.33203 4.25706 1.33203 4.60439C1.33203 4.95172 1.53694 5.2117 1.74209 5.38483C1.95157 5.56161 2.23061 5.7093 2.54247 5.83662C3.17073 6.09312 4.04977 6.31344 5.09922 6.49466C7.20622 6.85851 10.0974 7.08085 13.2774 7.08085Z" fill="#A9C6D6" stroke="#232326"/>
<path d="M17.1973 4.08596C17.1973 3.57105 17.0959 3.06119 16.8988 2.58549C16.7018 2.10978 16.413 1.67754 16.0489 1.31345C15.6848 0.949358 15.2526 0.660545 14.7769 0.463501C14.3011 0.266457 13.7913 0.165039 13.2764 0.165039C12.7615 0.165039 12.2516 0.266457 11.7759 0.463501C11.3002 0.660546 10.868 0.949358 10.5039 1.31345C10.1398 1.67754 9.85098 2.10978 9.65393 2.58549C9.45689 3.06119 9.35547 3.57105 9.35547 4.08596L13.2764 4.08596H17.1973Z" fill="#FFD979"/>
<rect x="7.69922" y="4.10547" width="11.1417" height="0.998917" rx="0.499458" fill="#232326"/>
<path d="M11.3164 11.8984H14.9817" stroke="#232326" stroke-width="1.2" stroke-linecap="round" stroke-linejoin="round"/>
<path d="M11.3164 13.6167H14.9817" stroke="#232326" stroke-width="1.2" stroke-linecap="round" stroke-linejoin="round"/>
<path d="M11.3164 15.3345L13.9126 18.0834" stroke="#232326" stroke-width="1.2" stroke-linecap="round" stroke-linejoin="round"/>
<path d="M11.3164 15.3345H12.2327" stroke="#232326" stroke-width="1.2" stroke-linecap="round" stroke-linejoin="round"/>
<path d="M12.2334 15.3346C14.2698 15.3346 14.2698 11.8984 12.2334 11.8984" stroke="#232326" stroke-width="1.2" stroke-linecap="round" stroke-linejoin="round"/>
</svg>
