<svg width="30" height="24" viewBox="0 0 30 24" fill="none" xmlns="http://www.w3.org/2000/svg">
<path d="M2.02087 23.1719L1.19922 12.1472H19.3513H28.5939L27.5998 23.1719H19.3513H2.02087Z" fill="#A7A7A8"/>
<path d="M21.9187 5.09136L26.7486 11.5724C27.1533 12.1156 27.9731 12.1051 28.2931 11.508C30.5904 7.22143 28.6013 3.25906 25.9316 1.43692L8.05484 1.43652C5.80825 1.43652 4.24426 3.15313 3.59619 4.66014C3.48055 4.92904 3.52193 5.23492 3.67538 5.48419L5.48745 8.42773L8.05484 7.95111L6.56952 5.88303C6.33194 5.55223 6.56835 5.09136 6.97563 5.09136H21.9187Z" fill="#A7A7A8"/>
<path d="M1.19922 12.1472V11.683H0.699046L0.73622 12.1817L1.19922 12.1472ZM2.02087 23.1719L1.55787 23.2064L1.5899 23.6362H2.02087V23.1719ZM27.5998 23.1719V23.6362H28.024L28.0622 23.2136L27.5998 23.1719ZM28.5939 12.1472L29.0563 12.1889L29.102 11.683H28.5939V12.1472ZM26.7486 11.5724L27.1208 11.295L26.7486 11.5724ZM21.9187 5.09136L22.291 4.81393L22.1518 4.62707H21.9187V5.09136ZM6.56952 5.88303L6.19242 6.15387L6.56952 5.88303ZM8.05484 7.95111L8.13958 8.40759L8.85846 8.27413L8.43194 7.68027L8.05484 7.95111ZM5.48745 8.42773L5.09208 8.67113L5.25905 8.94235L5.5722 8.88422L5.48745 8.42773ZM3.67538 5.48419L3.28001 5.72758L3.67538 5.48419ZM3.59619 4.66014L3.16967 4.47672L3.16967 4.47672L3.59619 4.66014ZM8.05484 1.43652L8.05485 0.972241H8.05484V1.43652ZM25.9316 1.43692L26.1933 1.05344L26.0749 0.972641L25.9316 0.972638L25.9316 1.43692ZM28.2931 11.508L28.7023 11.7274V11.7274L28.2931 11.508ZM0.73622 12.1817L1.55787 23.2064L2.48387 23.1374L1.66222 12.1127L0.73622 12.1817ZM2.02087 23.6362H19.3513V22.7076H2.02087V23.6362ZM19.8156 23.1719V12.1472H18.8871V23.1719H19.8156ZM19.3513 11.683H1.19922V12.6115H19.3513V11.683ZM19.3513 23.6362H27.5998V22.7076H19.3513V23.6362ZM28.0622 23.2136L29.0563 12.1889L28.1315 12.1055L27.1373 23.1302L28.0622 23.2136ZM28.5939 11.683H19.3513V12.6115H28.5939V11.683ZM27.1208 11.295L22.291 4.81393L21.5464 5.36879L26.3763 11.8498L27.1208 11.295ZM21.9187 4.62707H6.97563V5.55564H21.9187V4.62707ZM6.19242 6.15387L7.67774 8.22195L8.43194 7.68027L6.94662 5.61219L6.19242 6.15387ZM7.9701 7.49463L5.40271 7.97125L5.5722 8.88422L8.13958 8.40759L7.9701 7.49463ZM5.88282 8.18434L4.07075 5.24079L3.28001 5.72758L5.09208 8.67113L5.88282 8.18434ZM4.0227 4.84355C4.63051 3.43019 6.06504 1.90081 8.05484 1.90081V0.972241C5.55147 0.972241 3.85802 2.87606 3.16967 4.47672L4.0227 4.84355ZM8.05483 1.90081L25.9316 1.9012L25.9316 0.972638L8.05485 0.972241L8.05483 1.90081ZM25.6698 1.8204C28.1867 3.5382 30.0461 7.25418 27.8839 11.2887L28.7023 11.7274C31.1347 7.18867 29.0159 2.97992 26.1933 1.05344L25.6698 1.8204ZM6.97563 4.62707C6.19017 4.62707 5.73422 5.5159 6.19242 6.15387L6.94662 5.61219C6.93972 5.60258 6.93921 5.59725 6.93907 5.59455C6.93882 5.59005 6.93979 5.58298 6.94385 5.57506C6.94792 5.56713 6.9531 5.56222 6.95689 5.5598C6.95918 5.55834 6.9638 5.55564 6.97563 5.55564V4.62707ZM4.07075 5.24079C3.98391 5.09974 3.9757 4.95285 4.0227 4.84355L3.16967 4.47672C2.9854 4.90522 3.05994 5.37011 3.28001 5.72758L4.07075 5.24079ZM26.3763 11.8498C26.9545 12.6257 28.1988 12.6668 28.7023 11.7274L27.8839 11.2887C27.7474 11.5434 27.3522 11.6054 27.1208 11.295L26.3763 11.8498Z" fill="#232326"/>
<path d="M23.38 11.8046H4.27539C4.57885 10.5907 5.66947 9.73919 6.92066 9.73919H8.92469C9.59173 9.73919 10.2389 9.51217 10.7598 9.09547L11.2719 8.6858C12.0165 8.09008 13.0699 8.07362 13.8328 8.6458C14.3211 9.01206 14.9452 9.14664 15.5411 9.01421L17.788 8.51488C18.7155 8.30878 19.6867 8.51824 20.4468 9.08829L20.9439 9.46112C21.1845 9.64162 21.4772 9.73919 21.7781 9.73919C22.4161 9.73919 22.9722 10.1734 23.1269 10.7923L23.38 11.8046Z" fill="#A9C6D6"/>
</svg>
