<svg width="35" height="23" viewBox="0 0 35 23" fill="none" xmlns="http://www.w3.org/2000/svg">
<path d="M7.02087 22.2129L6.19922 11.1882H24.3513H33.5939L32.5998 22.2129H24.3513H7.02087Z" fill="#62E3C4"/>
<path d="M26.9187 4.13237L31.7486 10.6134C32.1533 11.1566 32.9731 11.1461 33.2931 10.5491C35.5904 6.26244 33.6013 2.30007 30.9316 0.477936L13.0548 0.477539C10.8083 0.477539 9.24426 2.19414 8.59619 3.70115C8.48055 3.97005 8.52193 4.27594 8.67538 4.5252L10.4875 7.46875L13.0548 6.99212L11.5695 4.92405C11.3319 4.59325 11.5684 4.13237 11.9756 4.13237H26.9187Z" fill="#62E3C4"/>
<path d="M24.3513 22.2129H7.02087L6.19922 11.1882H24.3513M24.3513 22.2129V11.1882M24.3513 22.2129H32.5998L33.5939 11.1882H24.3513M26.9187 4.13237L31.7486 10.6134C32.1533 11.1566 32.9731 11.1461 33.2931 10.5491C35.5904 6.26244 33.6013 2.30007 30.9316 0.477936L13.0548 0.477539C10.8083 0.477539 9.24426 2.19414 8.59619 3.70115C8.48055 3.97005 8.52193 4.27594 8.67538 4.5252L10.4875 7.46875L13.0548 6.99212L11.5695 4.92405C11.3319 4.59325 11.5684 4.13237 11.9756 4.13237H26.9187Z" stroke="#232326" stroke-width="0.928565"/>
<circle opacity="0.4" cx="6.19936" cy="3.34389" r="1.25405" fill="#FFD979"/>
<path d="M1.87128 6.71484L2.32289 7.9353L3.54334 8.38691L2.32289 8.83851L1.87128 10.059L1.41967 8.83851L0.199219 8.38691L1.41967 7.9353L1.87128 6.71484Z" fill="#FFD979"/>
<path d="M28.38 10.8456H9.27539C9.57885 9.63174 10.6695 8.78021 11.9207 8.78021H13.9247C14.5917 8.78021 15.2389 8.55319 15.7598 8.13649L16.2719 7.72682C17.0165 7.13109 18.0699 7.11464 18.8328 7.68681C19.3211 8.05307 19.9452 8.18765 20.5411 8.05523L22.788 7.5559C23.7155 7.3498 24.6867 7.55926 25.4468 8.1293L25.9439 8.50213C26.1845 8.68263 26.4772 8.78021 26.7781 8.78021C27.4161 8.78021 27.9722 9.21441 28.1269 9.83336L28.38 10.8456Z" fill="#FFD979"/>
</svg>
