<svg id="Capa_1" enable-background="new 0 0 512 512" height="512" viewBox="0 0 512 512" width="512" xmlns="http://www.w3.org/2000/svg"><g><g><g><path d="m241 33.377h30v81.54h-30z" fill="#d0b9a4"/></g><g><path d="m409.3 91.621h82.429v29.999h-82.429z" fill="#d0b9a4" transform="matrix(.625 -.781 .781 .625 85.827 391.812)"/></g><g><path d="m332.311 84.803h30v30.114h-30z" fill="#ebd5ae"/></g><g><path d="m481.886 182.016h30.114v30h-30.114z" fill="#ebd5ae"/></g><g><path d="m46.486 65.406h29.999v82.429h-29.999z" fill="#d0b9a4" transform="matrix(.781 -.625 .625 .781 -53.132 61.774)"/></g><g><path d="m149.689 84.803h30v30.114h-30z" fill="#ebd5ae"/></g><g><path d="m0 182.016h30.114v30h-30.114z" fill="#ebd5ae"/></g></g><g><g><path d="m164.196 154.656-40.28 180.261 95.888-18.278h36.196l15-81.449-15-80.534z" fill="#ecbd2c"/></g><path d="m347.804 154.656h-91.804v161.983h36.196l95.888 18.278z" fill="#e68f21"/><g><g><g><path d="m212.63 257.598-29.278-6.542 12.829-57.416h51.368v30h-27.332z" fill="#f9e997"/></g></g></g></g><g><g><path d="m36.196 316.639-36.196 161.984h128l15-81.45-15-80.534z" fill="#ecbd2c"/></g><path d="m219.804 316.639h-91.804v161.984h128z" fill="#e68f21"/><g><g><g><path d="m84.63 419.581-29.279-6.542 12.83-57.416h51.368v30h-27.332z" fill="#f9e997"/></g></g></g></g><g><g><path d="m292.196 316.639-36.196 161.984h128l15-81.45-15-80.534z" fill="#ecbd2c"/></g><path d="m475.804 316.639h-91.804v161.984h128z" fill="#e68f21"/><g><g><g><path d="m340.63 419.581-29.278-6.542 12.829-57.416h51.368v30h-27.332z" fill="#f9e997"/></g></g></g></g></g></svg>