<svg id="Layer_1" enable-background="new 0 0 512 512" height="512" viewBox="0 0 512 512" width="512" xmlns="http://www.w3.org/2000/svg"><g><path d="m111.251 491.577c-51.13-4.433-91.251-47.335-91.251-99.614v-168.272c0-31.191 14.554-60.596 39.355-79.512l136-103.729c35.816-27.317 85.474-27.317 121.29 0l9.2 7.017c-24.56-2.424-49.828 4.224-70.489 19.983l-161.744 123.364c-8.578 6.542-13.612 16.713-13.612 27.501v200.647c0 28.598 12.007 54.389 31.251 72.615z" fill="#cee1f2"/><path d="m392 511.963h-272c-66.168 0-120-53.832-120-120v-168.271c0-37.191 17.655-72.86 47.226-95.415l136-103.729c42.849-32.681 102.699-32.681 145.548 0l43.226 32.94v-25.525c0-11.046 8.954-20 20-20s20 8.954 20 20v65.911c0 7.603-4.311 14.548-11.125 17.923-6.814 3.374-14.951 2.592-20.998-2.015l-75.355-57.423c-28.572-21.792-68.474-21.792-97.039-.005l-136 103.729c-19.713 15.035-31.483 38.814-31.483 63.609v168.271c0 44.112 35.888 80 80 80h272c44.112 0 80-35.888 80-80v-168.271c0-25.099-11.637-48.959-31.129-63.827-8.783-6.699-10.472-19.249-3.773-28.031 6.699-8.783 19.25-10.472 28.031-3.773 29.349 22.384 46.871 58.134 46.871 95.631v168.271c0 66.168-53.832 120-120 120z" fill="#1428bf"/><path d="m241 255.962c0 13.807-11.193 25-25 25s-25-11.193-25-25c0-13.807 11.193-25 25-25s25 11.193 25 25zm55-24.999c-13.807 0-25 11.193-25 25 0 13.807 11.193 25 25 25s25-11.193 25-25c0-13.808-11.193-25-25-25zm-80 80c-13.807 0-25 11.193-25 25 0 13.807 11.193 25 25 25s25-11.193 25-25c0-13.808-11.193-25-25-25zm80 0c-13.807 0-25 11.193-25 25 0 13.807 11.193 25 25 25s25-11.193 25-25c0-13.808-11.193-25-25-25z" fill="#df5cf0"/></g></svg>