<?xml version="1.0" encoding="utf-8"?>
<!-- Generator: Adobe Illustrator 25.2.0, SVG Export Plug-In . SVG Version: 6.00 Build 0)  -->
<svg version="1.1" id="_x3C_Layer_x3E_" xmlns="http://www.w3.org/2000/svg" xmlns:xlink="http://www.w3.org/1999/xlink" x="0px"
	 y="0px" viewBox="0 0 3200 1600" style="enable-background:new 0 0 3200 1600;" xml:space="preserve">
<style type="text/css">
	.st0{fill:#EBF2F9;}
	.st1{fill:#F8FBFF;}
	.st2{fill:#C9E0F2;}
	.st3{fill:#A8D29F;}
	.st4{fill:#FFB27D;}
	.st5{fill:#233862;}
	.st6{fill:#2B478B;}
	.st7{fill:#E8945B;}
	.st8{fill:#EE9849;}
	.st9{fill:#E58638;}
	.st10{fill:#C65447;}
	.st11{fill:#BA4C43;}
	.st12{fill:#F1A34F;}
	.st13{fill:#CE8032;}
	.st14{fill:#E89746;}
	.st15{fill:#82B378;}
	.st16{fill:#2E3552;}
</style>
<g>
	<path class="st0" d="M2857.85,1454.97l-622.7-0.18l-528.79-0.15l-72.83-0.02l-1233.26-0.37c0,0-65.02-160.78-47.6-334.62
		c2.17-21.75,5.64-43.69,10.69-65.55c0.02-0.07,0.03-0.13,0.05-0.19c3.1-13.42,6.79-26.81,11.15-40.09
		c18.44-56.23,48.72-110.7,95.91-158.32c286.11-288.74,655.84-47.39,794.58-54.42c138.72-7.04,146.55-284.09,561.06-317.18
		c229.92-18.35,476.74,24.59,556.44,217.41c31.41,75.98,36.87,175.23,5.13,303.17c-18.46,74.41-2.63,119.93,32.59,149.42
		c73.15,61.26,229.97,53.34,336.88,91.48C2836.83,1273.76,2888.79,1327.75,2857.85,1454.97z"/>
	<path class="st1" d="M2420.28,1153.87L622.83,1387.39c-16.31-59.08-24.69-123.22-20.48-191.59l1780.21-494.53
		c31.41,75.98,36.87,175.23,5.13,303.17C2369.22,1078.86,2385.06,1124.38,2420.28,1153.87z"/>
	<path class="st1" d="M1668.62,792.04L352.68,1119.62c2.17-21.75,5.64-43.69,10.69-65.55c0.02-0.07,0.03-0.13,0.05-0.19
		c3.1-13.42,6.79-26.81,11.15-40.09L1668.62,792.04z"/>
	<path class="st2" d="M1633.55,1454.63l-1233.27-0.39c0,0-82.3-203.51-36.91-400.18c0.02-0.07,0.03-0.13,0.05-0.19
		c76.2-3.55,201.4,5.42,333.2,80.36c208.14,118.37,549.85,31.76,648.75,98.15c98.9,66.4,121.61,135.15,195.16,146.96
		c64.17,10.3,88,62.19,93.01,75.26C1633.55,1454.62,1633.55,1454.62,1633.55,1454.63z"/>
	<path class="st1" d="M2131.13,656.87c0-19,15.4-34.4,34.4-34.4c19,0,34.4,15.4,34.4,34.4c0,19-15.4,34.4-34.4,34.4
		C2146.53,691.27,2131.13,675.87,2131.13,656.87z"/>
	<path class="st3" d="M2010.3,1356.41c34.14-10.71,78.08-28.13,54.19-41.21c-25.59-14.01-58.22,15.72-75.91,35.39
		c-0.92-0.15-1.83-0.3-2.76-0.43c-4.52-0.65-9.11-0.95-13.75-0.97c33.72-54.05,71.34-126,39.3-135.15
		c-34.52-9.86-59.25,77.63-71.46,138.91c-33.73,7.32-70.02,23.69-107.82,34.6c-13.36-48.59-44.12-121.05-108.56-119.45
		c-67.67,1.68,16.82,80.33,73.74,127.47c-12.72,2.06-25.58,3.05-38.53,2.45c-82.75-3.85-134.59,52.25-134.59,52.25l444.41,0
		C2085.25,1423.8,2059.97,1375.02,2010.3,1356.41z"/>
	<g>
		<path class="st4" d="M1257.15,265.64c0,0-30.97-33.79-40.55-34.91c-9.57-1.13-48.99,17.76-51.25,25.21
			c-2.25,7.45,43.36-7.45,45.9,0c2.53,7.45,5.35,12.52,18.3,13.08c12.95,0.56,24.22,7.88,24.22,7.88L1257.15,265.64z"/>
		<path class="st5" d="M1294.31,1450.26c-9.84-6.01-4.24-50.82-4.24-50.82s45.86-36.69,52.17-8.6c6.31,28.09,43.57,40.7,64.78,44.14
			c14.64,2.37,19.17,10.48,20.58,15.28H1294.31z"/>
		<path class="st6" d="M1286.09,1421.78c-11.75-4.43-77.19-161.52-74.47-212.52c0.33-6.05-0.86-55.68-2.72-65.97
			c-1.45-8.01-3.4-17.34-5.74-27.69c-3.58-15.76-8.04-33.91-13-53.37c-13.91-54.69-31.64-119.72-43.86-171.49
			c21.94-49.2,50.05-92.26,75.84-106.96c18.4,2.24,36.14,5.64,49.28,8.49c10.47,6.15,18.29,11.41,24.1,15.9
			c2.04,10.2,5.02,27.22,7.43,49.13c1.55,14.34,2.86,30.78,3.47,48.76c4.37,127.6-17.94,266.25,38.94,492.56
			C1346.95,1404.92,1304.29,1428.64,1286.09,1421.78z"/>
		<path class="st5" d="M1302.95,857.29c-9.48,47.44-32.29,148.83-112.78,204.93c-13.91-54.69-31.64-119.72-43.86-171.49
			c21.94-49.2,50.05-92.26,75.84-106.96c18.4,2.24,36.14,5.64,49.28,8.49c10.47,6.15,18.29,11.41,24.1,15.9
			C1297.56,818.36,1300.54,835.38,1302.95,857.29z"/>
		<path class="st4" d="M1203.98,410.96l-0.04,7.96c0,0,2.17,24.89-28.48,28.52c-30.65,3.64-53.86-9.71-53.03-28.91
			c2.76-14.87,5.79-25.08,6-37.39c0.08-4.57-0.24-9.42-1.09-14.9l59.38-1.19l17.49,2.86L1203.98,410.96z"/>
		<path class="st7" d="M1204.21,367.92l-0.23,43.05c-6.31,2.93-13.43,4.72-21.41,4.72c-27.29,0-44.93-20.01-54.15-34.54
			c0.08-4.57-0.24-9.42-1.09-14.9l59.38-1.19L1204.21,367.92z"/>
		<path class="st4" d="M1207.67,388.83c0,0-76.05,15.36-84.89-32.15c-8.84-47.51-24.61-77.53,23.58-89.34
			c48.19-11.82,61.02,4.55,67.83,19.69C1220.99,302.17,1227.23,383.61,1207.67,388.83z"/>
		<path class="st5" d="M1152.91,1450.26c0,0-4.15-22.74-10.74-35.9c-6.58-13.16-48.47-4.79-48.47-4.79s-8.38,7.18-10.17,40.69
			H1152.91z"/>
		<path class="st6" d="M1234.99,808.92c0,0-41.69,185.75-55.05,269.6c-5,31.37-15.42,131.88-17.05,163.61
			c-2.23,43.54-16.59,176.79-16.59,176.79s-24.21-15.3-60.15-1.02c0,0-9.08-59.73-14.85-184.83c-1.69-36.67,5.39-91.76,4.53-109.65
			c-4.23-87.98-32.34-315.44-9.99-330.04C1088.19,778.77,1234.99,808.92,1234.99,808.92z"/>
		<path class="st5" d="M1228.97,251.74c0,0-21.21-1.63-46.23-12.51c-20.3-8.83-45.92,0.89-54.23,5.27c0.22-1.34,0.76-3.17,2.03-5
			c0,0-3.73,2.65-4.28,6.35c-0.38,0.28-0.56,0.48-0.46,0.54c0,0-4.23-0.77-6.95,0.45c0,0,1.9-0.27,2.58,0.95
			c0.07,0.13,0.18,0.24,0.3,0.34c-31.67,15.3-34.6,65.36-24.4,76.94c12.26,13.93,26.96,45.31,26.96,45.31s5.36-7.41,3.13-19.68
			c-2.23-12.26,8.36-12.26,21.74-17.84c13.38-5.57,2.23-21.18,13.93-30.66c11.71-9.48,54.62-3.9,54.07-11.15
			C1233.1,285.27,1228.97,253.37,1228.97,251.74z"/>
		<path class="st8" d="M1249.27,249.2c0,0-6.41,2.6-10.26,11.66c-4.92,11.59-0.91,17.91-0.91,17.91s80.49,73,75.26,86.29
			c-2.73,6.94-65.09,43.51-91.01,58.47c-10.66-0.89-18.9-0.82-19.17-0.82l-0.01,0.01c0,0-17.63,53.71-80.75-4.19
			c-11.09,16.13-97.03,55.74-82.11,124.1c3.51,16.06,6.54,31.22,9.15,45.51c17.74,96.86,16.35,154,12.89,185.51
			c-2.69,24.59-12.89,27.07-3.77,33.61c0,0,17.75,7.96,50.96,14.84c24.69,5.11,57.91,9.66,98.73,9.92
			c64.93,0.41,89.51-21.97,89.51-21.97c17.19-16.81-16.81-82.97-14.09-130.72c1.4-24.5-0.14-108.37-0.38-146.91
			c0,0,0.01-0.01,0.02-0.02c0.01-0.01,0.03-0.03,0.05-0.05c3.11-3.41,98.11-107.93,116.81-167.26c0-0.01,0.01-0.01,0.01-0.03
			c0.94-2.99,1.69-5.86,2.22-8.61C1408.13,327.25,1249.27,249.2,1249.27,249.2z"/>
		<path class="st9" d="M1062.36,773.66c3.46-31.51,4.84-88.65-12.89-185.51c1.22-3.85,2.42-7.56,3.61-11.09
			c5.38-15.97,28.23-15.17,32.45,1.15C1098.64,628.88,1110.44,715.03,1062.36,773.66z"/>
		<path class="st4" d="M1042.97,720.71c0,0,39.48-23.87,51.71-20.84c12.24,3.02,38.78,14.56,37.14,21.62
			c-1.64,7.05-32.48,11.87-37.85,11.04c-5.37-0.83-14.03,0.14-17.54,3.18c-3.52,3.03-31.49,4.17-34.91-4.03
			C1038.11,723.48,1042.97,720.71,1042.97,720.71z"/>
		<path class="st8" d="M1122.42,418.53c0,0-48.4,3.51-74.7,18.92c-17.01,9.97-115.61,167.07-115.61,190.19
			c0,23.12,103.54,105.15,103.54,105.15s19.22,6.38,19.9-24.22c0,0-51.65-76.35-48.93-85.19c1.71-5.55,77.83-66.62,77.83-66.62
			L1122.42,418.53z"/>
		<path class="st9" d="M1400.22,365.08c-18.7,59.33-113.69,163.84-116.81,167.26c-0.03,0.03-0.04,0.04-0.05,0.05
			c-0.01,0.01-0.03,0.03-0.03,0.03s0-0.01-0.01-0.03c-0.27-1.05-8.11-30.94,10.6-52.32
			C1312.96,458.31,1378.66,403.77,1400.22,365.08z"/>
		<g>
			<path class="st9" d="M1104.17,427.48c-0.21-4.19,19.66-9.99,19.66-9.99s22.74,31.52,60.19,32.07c0,0-10.67,20.77-23.26,26.15
				C1160.77,475.71,1105.41,452.38,1104.17,427.48z"/>
			<path class="st9" d="M1184.02,448.82c0,0,19.84-11.76,19.91-24.52c0,0,12.81-1.6,18.41,4.61c0,0,4.71,21.86-1.54,34.55
				C1220.81,463.47,1192.24,459.11,1184.02,448.82z"/>
			<path class="st10" d="M1253.01,744.93c-0.38,10.3-4.58,20.09-11.79,27.46l-11.33,11.59c-2.84,2.91-7.56,2.77-10.24-0.29
				l-15.72-17.95c-4.22-4.81-6.41-11.07-6.13-17.46c0.64-14.24,1.78-41.67,2.46-68.13c0.56-21.44,0.82-42.25,0.26-54.87
				c-1.78-40.3-16.49-168.34-16.49-168.34h9.68c0,0,26.59,48.61,42.69,115.8c3.97,16.54,7.29,34.19,9.44,52.54
				C1245.85,625.28,1254.71,698.39,1253.01,744.93z"/>
			<path class="st11" d="M1170.55,446.93l26.91-6.45c0,0,3.51,0.31,3.42,4.69c-0.1,4.38-7.58,17.19-10.89,18.21
				C1186.67,464.41,1164.19,455.8,1170.55,446.93z"/>
			<path class="st8" d="M1104.17,421.36c-0.21-4.19,19.66-9.99,19.66-9.99s22.74,31.52,60.19,32.07c0,0-10.67,20.77-23.26,26.15
				C1160.77,469.59,1105.41,446.26,1104.17,421.36z"/>
			<path class="st8" d="M1184.02,443.44c0,0,19.84-11.76,19.91-24.52c0,0,12.81-1.6,18.41,4.61c0,0,4.71,21.86-1.54,34.55
				C1220.81,458.08,1192.24,453.73,1184.02,443.44z"/>
			<path class="st11" d="M1253.01,744.93c-0.38,10.3-4.58,20.09-11.79,27.46l-11.33,11.59c-2.84,2.91-7.56,2.77-10.24-0.29
				l-15.72-17.95c-4.22-4.81-6.41-11.07-6.13-17.46c0.64-14.24,1.78-41.67,2.46-68.13c25.12-31.38,33.77-73.38,36.15-107.41
				c3.97,16.54,7.29,34.19,9.44,52.54C1245.85,625.28,1254.71,698.39,1253.01,744.93z"/>
		</g>
	</g>
	<g>
		<path class="st5" d="M1010.95,1450.26H846.37c-8.98,0-16.32-7.34-16.32-16.32v-110.57c0-8.98,7.34-16.32,16.32-16.32h164.58
			c8.98,0,16.32,7.34,16.32,16.32v110.57C1027.27,1442.91,1019.92,1450.26,1010.95,1450.26z"/>
		<path class="st6" d="M1012.31,1323.36v110.58c0,8.98-7.34,16.32-16.32,16.32H831.41c-8.98,0-16.32-7.34-16.32-16.32v-110.58
			c0-8.98,7.34-16.32,16.32-16.32h164.58C1004.96,1307.04,1012.31,1314.38,1012.31,1323.36z"/>
		<g>
			<path class="st5" d="M877.74,1307.04c10.53-12.44,24.24-17.34,33.01-17.34c21.46,0,33.44,16.7,33.89,17.34l-5.23,0.35
				c-0.38-0.54-8.87-11.23-27.42-11.23c-7.62,0-18.8,0.03-27.98,10.88C883.42,1307.74,877.61,1307.19,877.74,1307.04z"/>
		</g>
		<path class="st5" d="M1012.31,1327.89v32.14c0,8.98-7.34,16.32-16.32,16.32H831.41c-8.98,0-16.32-7.34-16.32-16.32v-32.14
			c0-8.98,7.34-16.32,16.32-16.32h164.58C1004.96,1311.57,1012.31,1318.92,1012.31,1327.89z"/>
		<path class="st6" d="M1012.31,1323.36v32.14c0,8.98-7.34,16.32-16.32,16.32H831.41c-8.98,0-16.32-7.34-16.32-16.32v-32.14
			c0-8.98,7.34-16.32,16.32-16.32h164.58C1004.96,1307.04,1012.31,1314.38,1012.31,1323.36z"/>
		<path class="st5" d="M905.76,1359.18c0-2.75,2.23-4.99,4.99-4.99c2.75,0,4.99,2.23,4.99,4.99c0,2.75-2.23,4.99-4.99,4.99
			C908,1364.16,905.76,1361.93,905.76,1359.18z"/>
	</g>
	<path class="st3" d="M2857.85,1454.97l-622.7-0.18l-0.83-0.15c0,0,54.84-75.55,161.66-75.28c106.81,0.27,105.47-55.15,245.37-89.66
		c41.42-10.22,80.83-26.49,115.8-44.35C2836.83,1273.76,2888.79,1327.75,2857.85,1454.97z"/>
	<g>
		<path class="st12" d="M1923.29,555.61v880.25c0,7.92-6.04,14.4-13.42,14.4h-13.42c-3.68,0-7.02-1.61-9.46-4.21
			c-2.44-2.61-3.96-6.23-3.96-10.19V555.61c0-5.17,2.57-9.73,6.41-12.25c2.04-1.36,4.45-2.15,7.01-2.15h13.42
			C1917.25,541.21,1923.29,547.68,1923.29,555.61z"/>
		<path class="st9" d="M1893.38,553.54v880.25c0,5.16-2.57,9.73-6.4,12.25c-2.44-2.61-3.96-6.23-3.96-10.19V555.61
			c0-5.17,2.57-9.73,6.41-12.25C1891.86,545.95,1893.38,549.57,1893.38,553.54z"/>
		<polygon class="st12" points="1739.64,899.13 1665.35,949.2 1732.72,1008.27 1899.45,997.75 1899.45,930.4 		"/>
		<path class="st13" d="M1888.32,939.6c-0.76,2.05-0.52,4.91,0.54,6.39c1.06,1.47,2.53,1,3.29-1.05c0.76-2.05,0.52-4.91-0.54-6.39
			C1890.55,937.08,1889.08,937.55,1888.32,939.6z"/>
		<path class="st13" d="M1888.32,979.42c-0.76,2.05-0.52,4.91,0.54,6.39c1.06,1.47,2.53,1,3.29-1.05c0.76-2.05,0.52-4.91-0.54-6.39
			C1890.55,976.9,1889.08,977.37,1888.32,979.42z"/>
		<g>
			<polygon class="st12" points="2169.11,763.06 2285.21,813.05 2173.57,872.33 1906.42,863.05 1906.42,779.66 			"/>
			<polygon class="st14" points="2169.11,763.06 2185.98,763.06 2302.07,813.05 2285.21,813.05 			"/>
			<polygon class="st13" points="2173.57,872.33 2182.56,872.33 2302.07,813.05 2285.21,813.05 			"/>
			<path class="st13" d="M1923.9,792.18c0.98,2.63,0.67,6.3-0.69,8.19c-1.36,1.89-3.25,1.29-4.22-1.34
				c-0.98-2.63-0.67-6.3,0.69-8.19C1921.04,788.94,1922.93,789.54,1923.9,792.18z"/>
			<path class="st13" d="M1923.9,843.27c0.98,2.63,0.67,6.3-0.69,8.19c-1.36,1.89-3.25,1.29-4.22-1.34
				c-0.98-2.63-0.67-6.3,0.69-8.19C1921.04,840.03,1922.93,840.63,1923.9,843.27z"/>
		</g>
		<g>
			<polygon class="st12" points="1643.73,618.46 1527.64,668.45 1639.27,727.73 1906.42,718.45 1906.42,635.06 			"/>
			<polygon class="st14" points="1643.73,618.46 1626.87,618.46 1510.78,668.45 1527.64,668.45 			"/>
			<polygon class="st13" points="1639.27,727.73 1630.28,727.73 1510.78,668.45 1527.64,668.45 			"/>
			<path class="st13" d="M1888.94,647.58c-0.98,2.63-0.67,6.3,0.69,8.19c1.36,1.89,3.25,1.29,4.22-1.34
				c0.97-2.63,0.67-6.3-0.69-8.19C1891.81,644.34,1889.92,644.95,1888.94,647.58z"/>
			<path class="st13" d="M1888.94,698.67c-0.98,2.63-0.67,6.3,0.69,8.19c1.36,1.89,3.25,1.29,4.22-1.34
				c0.97-2.63,0.67-6.3-0.69-8.19C1891.81,695.44,1889.92,696.04,1888.94,698.67z"/>
		</g>
		<polygon class="st14" points="1739.64,899.13 1730.02,899.13 1651.12,949.65 1665.35,949.65 		"/>
		<polygon class="st13" points="1732.72,1008.27 1719.76,1008.27 1651.12,949.65 1665.35,949.65 		"/>
		<path class="st12" d="M1953.18,1350.92v99.34h-100.07v-99.73c0-18.51,14.05-33.72,32.06-35.58c1.22-0.13,2.46-0.19,3.71-0.19
			h28.13C1937,1314.76,1953.18,1330.95,1953.18,1350.92z"/>
		<path class="st9" d="M1917.58,1350.92v99.34h-64.47v-99.73c0-18.51,14.05-33.72,32.06-35.58
			C1903.39,1316.83,1917.58,1332.22,1917.58,1350.92z"/>
		<g>
			<g>
				<path class="st9" d="M1907.8,513.28v-3.47h-8.84l0,0.06c-2.41,0.23-4.5,1.2-6.26,2.92c-2.03,1.98-3.05,4.43-3.05,7.33
					c0,2.81,1.04,5.22,3.12,7.26c2.08,2.03,4.52,3.05,7.33,3.05h7.69v-3.46c1.64-1.89,2.47-4.17,2.47-6.84
					C1910.27,517.44,1909.44,515.17,1907.8,513.28z"/>
				<path class="st9" d="M1924.78,428.83c-6.29-5.32-14.13-7.98-23.51-7.98c-6,0-11.71,1.38-17.13,4.14
					c-5.42,2.76-9.63,6.65-12.63,11.68c-1.84,3.1-2.76,6.19-2.76,9.29c0,2.42,0.75,4.43,2.25,6.02c1.5,1.6,3.41,2.39,5.73,2.39h7.69
					c0,0-0.09-2.89-0.1-4.86l5.32-7.18c2.8-2.8,6.53-4.21,11.18-4.21c3.96,0,7.28,1.09,9.94,3.27c2.66,2.18,3.99,5.25,3.99,9.21
					c0,4.55-1.4,8.08-4.21,10.59c-2.03,1.84-5.51,3.53-10.45,5.08c-3.68,1.16-6.12,2.35-7.33,3.56c-1.21,1.21-1.82,3.02-1.82,5.44
					v14.51c0,2.9,0.77,5.32,2.32,7.26c1.55,1.94,3.72,2.9,6.53,2.9h7.69v-4.4c0.35-0.69,0.65-1.43,0.87-2.28
					c0.38-1.55,0.58-5.51,0.58-11.9c7.93-1.55,14.2-4.96,18.79-10.23c4.59-5.27,6.89-11.92,6.89-19.96
					C1934.65,441.99,1931.36,434.54,1924.78,428.83z"/>
			</g>
			<g>
				<path class="st12" d="M1942.34,451.18c0,8.03-2.3,14.68-6.89,19.96c-4.6,5.27-10.86,8.68-18.79,10.23
					c0,6.39-0.19,10.36-0.58,11.9c-1.16,4.45-4.02,6.68-8.56,6.68c-2.81,0-4.98-0.97-6.53-2.9c-1.55-1.93-2.32-4.35-2.32-7.26
					v-14.51c0-2.42,0.6-4.23,1.82-5.44c1.21-1.21,3.65-2.39,7.33-3.56c4.93-1.55,8.42-3.24,10.45-5.08
					c2.81-2.51,4.21-6.04,4.21-10.59c0-3.97-1.33-7.04-3.99-9.21c-2.66-2.18-5.98-3.27-9.94-3.27c-4.64,0-8.37,1.4-11.18,4.21
					l-5.8,7.84c-2.03,2.81-4.4,4.21-7.11,4.21c-2.32,0-4.23-0.8-5.73-2.39c-1.5-1.6-2.25-3.6-2.25-6.02c0-3.09,0.92-6.19,2.76-9.29
					c3-5.03,7.21-8.92,12.63-11.68c5.42-2.76,11.12-4.14,17.13-4.14c9.38,0,17.22,2.66,23.51,7.98
					C1939.05,434.54,1942.34,441.99,1942.34,451.18z M1917.96,520.11c0,2.9-0.97,5.35-2.9,7.33c-1.94,1.98-4.35,2.97-7.26,2.97
					c-2.81,0-5.25-1.02-7.33-3.05c-2.08-2.03-3.12-4.45-3.12-7.25c0-2.9,1.02-5.35,3.05-7.33c2.03-1.98,4.5-2.98,7.4-2.98
					s5.32,0.99,7.26,2.98C1916.99,514.77,1917.96,517.21,1917.96,520.11z"/>
			</g>
		</g>
	</g>
	<path class="st15" d="M252.79,1450.87l468.16,3.06c0,0-43.29-87.03-150.71-68.41c-67.8,11.75-90.25-5.97-118.15-23.35
		c51.65-19.54,128.16-51.84,92.55-59.65c-33.99-7.45-80.32,25.66-108.85,50.26c-5.97-3.07-12.47-5.92-19.83-8.37
		c61.06-57.03,175.97-170.74,125.21-173.98c-49.8-3.18-112.82,109.31-142.81,169.34c-3.45-0.69-7.08-1.29-10.89-1.79
		c-15.54-2.05-30.03,0.76-43.32,6.65c-6.62-24.91-18.84-53.4-35.09-47.6c-16.4,5.86,2.14,34.72,19.16,56.41
		C281.07,1384.78,252.79,1450.87,252.79,1450.87z"/>
	<path class="st16" d="M2989,1457.6H226.3c-1.73,0-3.14-1.41-3.14-3.14v-1.07c0-1.73,1.41-3.14,3.14-3.14H2989
		c1.72,0,3.14,1.41,3.14,3.14v1.07C2992.14,1456.19,2990.73,1457.6,2989,1457.6z"/>
</g>
<g>
	<g>
		<path d="M1698.12,697.75l9.25-49.1h16.46l4.81,14.28c2.11,6.34,3.72,12.24,5.25,18.87h0.22c0.07-5.25,0.8-9.98,2.04-16.68
			l3.06-16.46h12.38l-9.25,49.1h-14.28l-5.46-16.32c-2.19-6.7-4.01-12.24-5.68-18.94h-0.29c-0.51,4.88-1.89,12.31-3.35,20.03
			l-2.84,15.22H1698.12z"/>
		<path d="M1793.25,676.34c0,14.5-10.42,22.29-23.53,22.29c-8.89,0-16.97-4.88-16.97-15.66c0-12.46,9.4-21.93,23.31-21.93
			C1785.6,661.04,1793.25,666.79,1793.25,676.34z M1766.37,682.82c0,4.01,2.11,5.97,5.32,5.97c5.61,0,7.94-7.14,7.94-11.8
			c0-3.35-1.46-6.12-5.17-6.12C1768.34,670.87,1766.37,678.89,1766.37,682.82z"/>
	</g>
</g>
<g>
	<g>
		<path d="M1968.92,808.2h-8.18l1.31-6.65h24.31l-1.27,6.65h-8.4l-4.24,22.83h-7.78L1968.92,808.2z"/>
		<path d="M1984.49,831.03l2.19-11.59c0.7-3.8,0.92-8.27,1.09-9.93h6.73c-0.09,1.53-0.17,3.06-0.31,4.59h0.13
			c1.53-2.84,4.11-5.12,7.52-5.12c0.44,0,0.88,0,1.31,0l-1.53,7.52c-0.31,0-0.61,0-0.96,0c-5.12,0-6.38,3.89-7.13,7.83l-1.27,6.69
			H1984.49z"/>
		<path d="M2017.73,831.03c0.09-1.27,0.17-2.54,0.22-3.8h-0.09c-1.92,3.41-4.77,4.33-7.22,4.33c-4.02,0-7.22-3.02-7.22-8
			c0-7.35,4.99-14.56,16.57-14.56c2.89,0,6.04,0.61,8.09,1.27l-2.27,11.06c-0.44,2.36-0.92,6.73-0.83,9.71H2017.73z M2019.31,815.02
			c-0.48-0.09-1.05-0.13-1.49-0.13c-3.59,0-6.12,3.94-6.12,7.3c0,2.14,1.09,3.15,2.36,3.15c1.44,0,3.5-1.27,4.5-6.78L2019.31,815.02
			z"/>
		<path d="M2029.37,831.03l2.62-14.04c0.61-3.06,0.96-5.55,1.27-7.48h6.91l-0.39,3.54h0.09c2.27-3.02,4.99-4.07,7.83-4.07
			c4.16,0,5.95,2.54,5.95,6.17c0,0.88-0.17,2.67-0.31,3.46l-2.36,12.42h-7.78l2.1-11.2c0.13-0.74,0.22-1.62,0.22-2.36
			c0-1.36-0.39-2.27-1.79-2.27c-2.1,0-4.07,2.67-4.94,7.3l-1.62,8.53H2029.37z"/>
		<path d="M2057.27,824.16c1.44,0.66,4.42,1.79,6.87,1.79c1.53,0,2.14-0.48,2.14-1.09c0-0.74-0.74-1.31-2.71-2.06
			c-2.62-1.01-5.55-2.75-5.55-5.99c0-4.99,4.5-7.83,10.71-7.83c2.97,0,5.25,0.57,6.52,1.22l-1.84,5.38
			c-1.09-0.44-2.84-1.01-5.2-1.01c-1.4,0-2.27,0.35-2.27,1.09c0,0.52,0.92,1.18,2.8,1.92c2.19,0.83,5.77,2.27,5.77,6.08
			c0,5.2-4.72,7.87-11.2,7.87c-3.15,0-6.3-0.83-7.87-2.01L2057.27,824.16z"/>
		<path d="M2091.69,831.03c0.09-1.27,0.17-2.54,0.22-3.8h-0.09c-1.92,3.41-4.77,4.33-7.22,4.33c-4.02,0-7.22-3.02-7.22-8
			c0-7.35,4.99-14.56,16.57-14.56c2.89,0,6.04,0.61,8.09,1.27l-2.27,11.06c-0.44,2.36-0.92,6.73-0.83,9.71H2091.69z M2093.27,815.02
			c-0.48-0.09-1.05-0.13-1.49-0.13c-3.59,0-6.12,3.94-6.12,7.3c0,2.14,1.09,3.15,2.36,3.15c1.44,0,3.5-1.27,4.5-6.78L2093.27,815.02
			z"/>
		<path d="M2121.08,830.33c-1.79,0.87-4.15,1.22-6.73,1.22c-5.29,0-10.15-2.75-10.15-9.49c0-7.57,6.25-13.08,15.22-13.08
			c1.84,0,3.5,0.26,4.77,0.7l-1.84,5.82c-0.74-0.31-1.57-0.48-2.93-0.48c-4.5,0-6.95,3.02-6.95,6.3c0,2.97,2.19,4.07,4.16,4.07
			c1.88,0,3.15-0.35,4.37-0.87L2121.08,830.33z"/>
		<path d="M2138.01,803.3l-1.14,6.21h4.46l-1.18,6.04h-4.46l-1.05,4.94c-0.18,0.74-0.39,2.05-0.39,2.75c0,0.79,0.26,1.62,1.75,1.62
			c0.57,0,1.22,0,1.79-0.04l-1.01,6.17c-0.83,0.35-2.67,0.57-4.24,0.57c-4.15,0-6.25-1.88-6.25-4.68c0-1.18,0.09-2.27,0.48-4.24
			l1.4-7.08h-2.67l1.14-6.04h2.67l0.83-4.42L2138.01,803.3z"/>
		<path d="M2141.16,831.03l4.07-21.52h7.78l-4.07,21.52H2141.16z M2146.19,803.83c0-2.67,2.19-4.11,4.37-4.11
			c2.1,0,3.8,1.27,3.8,3.54c0,2.62-2.1,4.07-4.5,4.07C2147.9,807.32,2146.19,806.06,2146.19,803.83z"/>
		<path d="M2179.34,818.17c0,8.7-6.25,13.38-14.13,13.38c-5.33,0-10.19-2.93-10.19-9.4c0-7.48,5.64-13.16,13.99-13.16
			C2174.75,808.99,2179.34,812.44,2179.34,818.17z M2163.21,822.06c0,2.41,1.27,3.59,3.19,3.59c3.37,0,4.77-4.29,4.77-7.08
			c0-2.01-0.88-3.67-3.11-3.67C2164.39,814.89,2163.21,819.7,2163.21,822.06z"/>
		<path d="M2181.27,831.03l2.62-14.04c0.61-3.06,0.96-5.55,1.27-7.48h6.91l-0.39,3.54h0.09c2.27-3.02,4.99-4.07,7.83-4.07
			c4.16,0,5.95,2.54,5.95,6.17c0,0.88-0.18,2.67-0.31,3.46l-2.36,12.42h-7.78l2.1-11.2c0.13-0.74,0.22-1.62,0.22-2.36
			c0-1.36-0.39-2.27-1.79-2.27c-2.1,0-4.07,2.67-4.94,7.3l-1.62,8.53H2181.27z"/>
		<path d="M2209.18,824.16c1.44,0.66,4.42,1.79,6.87,1.79c1.53,0,2.14-0.48,2.14-1.09c0-0.74-0.74-1.31-2.71-2.06
			c-2.62-1.01-5.55-2.75-5.55-5.99c0-4.99,4.5-7.83,10.71-7.83c2.97,0,5.25,0.57,6.52,1.22l-1.84,5.38
			c-1.09-0.44-2.84-1.01-5.2-1.01c-1.4,0-2.27,0.35-2.27,1.09c0,0.52,0.92,1.18,2.8,1.92c2.19,0.83,5.77,2.27,5.77,6.08
			c0,5.2-4.72,7.87-11.2,7.87c-3.15,0-6.3-0.83-7.87-2.01L2209.18,824.16z"/>
	</g>
</g>
<g>
	<g>
		<path d="M1750.27,973.52l2.8-14.84l-8.24-20.75h10.09l2.22,8.08c0.69,2.43,1.21,3.96,1.74,6.18h0.11
			c1.27-2.06,2.38-3.85,3.86-6.39l4.65-7.87h11.67l-16.58,20.39l-2.9,15.21H1750.27z"/>
		<path d="M1801.08,971.88c-3.8,1.95-8.45,2.27-10.88,2.27c-7.92,0-12.57-3.91-12.57-11.62c0-7.97,6.18-15.63,16.37-15.63
			c5.49,0,10.35,2.69,10.35,8.5c0,6.18-5.97,8.87-17.85,8.56c0.16,0.53,0.53,1.16,1,1.58c1.11,0.95,2.85,1.37,5.02,1.37
			c2.8,0,5.6-0.53,8.03-1.69L1801.08,971.88z M1792.89,953.5c-3.7,0-5.28,2.43-5.49,3.7c6.23,0,8.03-0.58,8.03-2.11
			C1795.42,954.29,1794.47,953.5,1792.89,953.5z"/>
		<path d="M1822.78,940.04l-1.37,7.5h5.39l-1.43,7.29h-5.39l-1.27,5.97c-0.21,0.9-0.48,2.48-0.48,3.33c0,0.95,0.32,1.95,2.11,1.95
			c0.69,0,1.48,0,2.17-0.05l-1.21,7.45c-1,0.42-3.22,0.69-5.12,0.69c-5.02,0-7.55-2.27-7.55-5.65c0-1.43,0.11-2.75,0.58-5.12
			l1.69-8.56h-3.22l1.37-7.29h3.22l1-5.33L1822.78,940.04z"/>
	</g>
</g>
</svg>
