<svg xmlns="http://www.w3.org/2000/svg" width="370.386" height="254.896" viewBox="0 0 370.386 254.896">
  <g id="Group_4236" data-name="Group 4236" transform="translate(-289.873 -77.148)">
    <path id="Path_22162" data-name="Path 22162" d="M518.641,80.088c-42.722,0-80.244,23.276-101.621,58.365l0,0c-8.831,14.819-21.91,33.317-37.083,41.064-21.1,10.775-59.48,12.885-56.182,61.193,6.487,95.022,315.307,148.057,315.307-34.639C639.06,136.491,585.147,80.088,518.641,80.088Z" fill="#96cbc4" fill-rule="evenodd"/>
    <path id="Path_22163" data-name="Path 22163" d="M504.561,80.942c-48.487-16.9-68.548,26.334-87.541,57.511l0,0c-8.831,14.819-21.911,33.316-37.083,41.065-21.1,10.774-59.48,12.884-56.182,61.192,3.155,46.2,77.782,82.466,153.634,86.545,70.041-3.949,133.579-38.315,133.579-121.185C610.966,141.452,553.047,97.845,504.561,80.942Z" fill="#43869f" fill-rule="evenodd"/>
    <g id="Group_4214" data-name="Group 4214">
      <rect id="Rectangle_1932" data-name="Rectangle 1932" width="3.433" height="171.214" transform="translate(421.503 142.416)" fill="#fff"/>
      <rect id="Rectangle_1933" data-name="Rectangle 1933" width="56.847" height="73.521" transform="translate(394.796 77.382)"/>
      <rect id="Rectangle_1934" data-name="Rectangle 1934" width="45.042" height="73.521" transform="translate(394.796 77.382)" fill="#3b6560"/>
    </g>
    <g id="Group_4219" data-name="Group 4219">
      <g id="Group_4215" data-name="Group 4215">
        <path id="Path_22164" data-name="Path 22164" d="M387.587,153.764c27.418,30.368,50.5,93.708,38.317,133.909C392.27,262.4,373.58,197.84,377.763,157.084,378.412,150.774,383.321,149.039,387.587,153.764Z" fill="#caeaf9" fill-rule="evenodd"/>
        <path id="Path_22165" data-name="Path 22165" d="M382.977,154.765a.648.648,0,1,1,1.237-.389l37.227,117.118a.648.648,0,0,1-1.236.389Z" fill="#fff"/>
      </g>
      <g id="Group_4216" data-name="Group 4216">
        <path id="Path_22166" data-name="Path 22166" d="M348.688,171.754c35.352,20.594,76.6,73.917,77.216,115.919C386.18,273.827,348.744,218,340.339,177.9,339.038,171.694,343.188,168.548,348.688,171.754Z" fill="#5adcca" fill-rule="evenodd"/>
        <path id="Path_22167" data-name="Path 22167" d="M344.6,174.108a.648.648,0,1,1,1.059-.747l71.074,100.255a.649.649,0,0,1-1.061.747Z" fill="#fff"/>
      </g>
      <g id="Group_4217" data-name="Group 4217">
        <path id="Path_22168" data-name="Path 22168" d="M317.1,200.717c39.939,8.872,95.448,47.13,108.8,86.956-42.054-1.113-94.689-42.915-114.888-78.56C307.889,203.594,310.885,199.336,317.1,200.717Z" fill="#caeaf9" fill-rule="evenodd"/>
        <path id="Path_22169" data-name="Path 22169" d="M313.921,204.2a.649.649,0,0,1,.784-1.034l98.189,73.9a.649.649,0,0,1-.783,1.034Z" fill="#fff"/>
      </g>
      <g id="Group_4218" data-name="Group 4218">
        <path id="Path_22170" data-name="Path 22170" d="M295.813,237.914c40.746-3.692,105.259,15.878,130.091,49.759-40.4,11.725-103.254-12.1-133.335-39.911C287.913,243.455,289.473,238.488,295.813,237.914Z" fill="#5adcca" fill-rule="evenodd"/>
        <path id="Path_22171" data-name="Path 22171" d="M293.845,242.2a.649.649,0,0,1,.432-1.223l116.009,40.551a.648.648,0,1,1-.432,1.222Z" fill="#fff"/>
      </g>
    </g>
    <path id="Path_22172" data-name="Path 22172" d="M486.686,218.168h-53.58c-9.415.093-17.024,4.363-24.876,9.773l-45.1,31.077c-6.994,4.818-11.3,30.285-12.528,40.053h272.17c-1.232-9.768-5.534-35.235-12.529-40.053l-45.1-31.077c-7.852-5.41-15.46-9.68-24.875-9.773Z" fill="#34c3a7" fill-rule="evenodd"/>
    <path id="Path_22173" data-name="Path 22173" d="M486.686,297.258H331.171L313.113,324.89H660.259L642.2,297.258Z" fill="#1fa291" fill-rule="evenodd"/>
    <path id="Path_22174" data-name="Path 22174" d="M629.662,297.257a23.91,23.91,0,0,1-40.03,8.535H560.073a16.167,16.167,0,0,1-1.864-.108,19.988,19.988,0,0,1-28.217-4.17h-1.48c0,5.266-18.727,9.536-41.826,9.536s-41.826-4.27-41.826-9.536h-1.481a19.987,19.987,0,0,1-28.216,4.17,16.184,16.184,0,0,1-1.865.108H383.739a23.909,23.909,0,0,1-40.029-8.535H629.662Z" fill="#0a7063" fill-rule="evenodd"/>
    <g id="Group_4221" data-name="Group 4221">
      <circle id="Ellipse_1411" data-name="Ellipse 1411" cx="23.907" cy="23.907" r="23.907" transform="matrix(0.995, -0.095, 0.095, 0.995, 340.239, 261.185)" fill="#1dab99"/>
      <g id="Group_4220" data-name="Group 4220">
        <path id="Path_22175" data-name="Path 22175" d="M427.216,262.417a20.3,20.3,0,0,1,0,40.6,19.888,19.888,0,0,1-12.053-4.05,16.185,16.185,0,0,1-1.865.107H367.286a16.4,16.4,0,0,1-16.356-16.355h0a16.4,16.4,0,0,1,16.356-16.357H413.3a16.4,16.4,0,0,1,1.865.107A19.9,19.9,0,0,1,427.216,262.417Z" fill="#f2a877" fill-rule="evenodd"/>
        <path id="Path_22176" data-name="Path 22176" d="M427.216,262.417a20.173,20.173,0,0,1,19.862,17.1,20.173,20.173,0,0,1-19.862,17.1,19.9,19.9,0,0,1-12.053-4.05,16.191,16.191,0,0,1-1.865.108H367.286a16.42,16.42,0,0,1-16.04-13.162,16.419,16.419,0,0,1,16.04-13.161H413.3a16.4,16.4,0,0,1,1.865.107A19.9,19.9,0,0,1,427.216,262.417Z" fill="#f9bf97" fill-rule="evenodd"/>
      </g>
    </g>
    <path id="Path_22244" data-name="Path 22244" d="M23.907,0A23.907,23.907,0,1,1,0,23.907,23.907,23.907,0,0,1,23.907,0Z" transform="translate(580.924 261.277) rotate(-5.646)" fill="#1dab99"/>
    <path id="Path_22245" data-name="Path 22245" d="M0,0H347.146V7.155H0Z" transform="translate(313.113 324.889)" fill="#0a7063"/>
    <g id="Group_4222" data-name="Group 4222">
      <path id="Path_22177" data-name="Path 22177" d="M505.046,204.376c19.712,8.366,29.366,31.491,24.4,54.881a12.42,12.42,0,0,1,3.211.882,12.752,12.752,0,0,1-9.965,23.475,12.44,12.44,0,0,1-3.028-1.829c-13.463,19.243-36.424,27.994-55.859,19.745s-29.089-30.845-24.6-53.9a12.455,12.455,0,0,1-3.414-.907,12.753,12.753,0,0,1,9.965-23.476,12.417,12.417,0,0,1,2.861,1.695C462,205.128,485.336,196.01,505.046,204.376Z" fill="#f9bf97" fill-rule="evenodd"/>
      <path id="Path_22178" data-name="Path 22178" d="M505.046,204.376c19.712,8.366,29.366,31.491,24.4,54.881a12.42,12.42,0,0,1,3.211.882,12.752,12.752,0,0,1-9.965,23.475,12.44,12.44,0,0,1-3.028-1.829c-12.232,17.483-32.3,26.3-50.447,21.585,20.444-.711,36.624-11.312,48.823-31.136L516.1,270.69l.373-17.858c-22.461-4.483-41.18-11.87-58.844-25.847,0,0-.8-6.02-1.76-10.821C469.486,202.628,488.538,197.368,505.046,204.376Z" fill="#f2a877" fill-rule="evenodd"/>
      <path id="Path_22179" data-name="Path 22179" d="M445.811,228.544c.15.064.3.132.441.2a11.324,11.324,0,0,0-6.136,14.456c-.151-.054-.3-.113-.452-.176a7.869,7.869,0,1,1,6.147-14.482Z" fill="#f2a877" fill-rule="evenodd"/>
      <path id="Path_22180" data-name="Path 22180" d="M528.814,263.776c-.149-.063-.3-.121-.451-.175a11.323,11.323,0,0,1-6.136,14.455c.144.071.29.139.44.2a7.869,7.869,0,1,0,6.147-14.483Z" fill="#db8f5c" fill-rule="evenodd"/>
      <path id="Path_22181" data-name="Path 22181" d="M444.3,222.736c4.394-33.181,30.637-46.252,61.922-34.344,22.4,8.527,31.98,24.192,32.058,38.8,7.717,3.642,9.233,17.61,3.34,31.493a47.79,47.79,0,0,1-3.255,6.33,14.424,14.424,0,0,0-5.705-4.878,8.909,8.909,0,0,0-3.228-.85l-5.92,7.248-2.867-.888a147.842,147.842,0,0,1,1.17-20.544,134.2,134.2,0,0,1-64.182-18.12,50.288,50.288,0,0,1-7.35,12.248l-2.769-1.113,1.106-13.174A11.93,11.93,0,0,0,444.3,222.736Z" fill="#2e2e2e" fill-rule="evenodd"/>
      <path id="Path_22182" data-name="Path 22182" d="M469.926,249.6a5.881,5.881,0,1,1-11.2-3.288,6.1,6.1,0,0,1,.668-1.183,7.263,7.263,0,0,0,10.53,4.471Z" fill="#043033" fill-rule="evenodd"/>
      <path id="Path_22183" data-name="Path 22183" d="M508.915,266.147a5.881,5.881,0,1,1-11.2-3.287,5.989,5.989,0,0,1,.669-1.183,7.263,7.263,0,0,0,10.529,4.47Z" fill="#043033" fill-rule="evenodd"/>
      <path id="Path_22184" data-name="Path 22184" d="M444.3,222.736c5.064-32.263,27.621-46.034,61.922-34.344a54.506,54.506,0,0,1,25.285,18.32c1.508,13.638-3.324,23.256-22.477,21.089,6.049,8.923,1.609,16.52-12.648,14.223a131.781,131.781,0,0,1-38.749-15.039,50.288,50.288,0,0,1-7.35,12.248l-2.769-1.113,1.106-13.174A11.93,11.93,0,0,0,444.3,222.736Z" fill="#414141" fill-rule="evenodd"/>
      <path id="Path_22185" data-name="Path 22185" d="M473.086,279.677c4.733,2.009,7.484,6.2,6.145,9.351s-6.262,4.084-10.995,2.075-7.484-6.2-6.145-9.35S468.353,277.668,473.086,279.677Z" fill="#ff836b" fill-rule="evenodd"/>
    </g>
    <path id="Path_22186" data-name="Path 22186" d="M546.156,262.417a20.3,20.3,0,0,0,0,40.6,19.888,19.888,0,0,0,12.053-4.05,16.168,16.168,0,0,0,1.864.107h46.012a16.4,16.4,0,0,0,16.357-16.355h0a16.4,16.4,0,0,0-16.357-16.357H560.073a16.4,16.4,0,0,0-1.864.107A19.9,19.9,0,0,0,546.156,262.417Z" fill="#f2a877" fill-rule="evenodd"/>
    <path id="Path_22187" data-name="Path 22187" d="M546.156,262.417a20.173,20.173,0,0,0-19.862,17.1,20.173,20.173,0,0,0,19.862,17.1,19.9,19.9,0,0,0,12.053-4.05,16.174,16.174,0,0,0,1.864.108h46.012a16.419,16.419,0,0,0,16.04-13.162,16.418,16.418,0,0,0-16.04-13.161H560.073a16.4,16.4,0,0,0-1.864.107A19.9,19.9,0,0,0,546.156,262.417Z" fill="#f9bf97" fill-rule="evenodd"/>
    <text id="Z" transform="translate(555.774 137.502)" fill="#fff" font-size="44.179" font-family="Arial-BoldMT, Arial" font-weight="700"><tspan x="0" y="0">Z</tspan></text>
    <text id="Z-2" data-name="Z" transform="translate(533.671 178.719)" fill="#fff" font-size="41.148" font-family="Arial-BoldMT, Arial" font-weight="700"><tspan x="0" y="0">Z</tspan></text>
    <text id="Z-3" data-name="Z" transform="translate(550.971 217.141)" fill="#fff" font-size="33.744" font-family="Arial-BoldMT, Arial" font-weight="700"><tspan x="0" y="0">Z</tspan></text>
    <path id="Path_22188" data-name="Path 22188" d="M428.485,183.58a1.931,1.931,0,1,0-1.931-1.931A1.935,1.935,0,0,0,428.485,183.58Z" fill="#fff" fill-rule="evenodd"/>
    <path id="Path_22189" data-name="Path 22189" d="M464.957,163.448a1.931,1.931,0,1,0-1.932-1.931A1.935,1.935,0,0,0,464.957,163.448Z" fill="#fff" fill-rule="evenodd"/>
    <path id="Path_22190" data-name="Path 22190" d="M443.046,124.081a1.931,1.931,0,1,0-1.931-1.931A1.935,1.935,0,0,0,443.046,124.081Z" fill="#fff" fill-rule="evenodd"/>
    <path id="Path_22191" data-name="Path 22191" d="M398.632,117.515a1.931,1.931,0,1,0-1.931-1.931A1.934,1.934,0,0,0,398.632,117.515Z" fill="#fff" fill-rule="evenodd"/>
    <path id="Path_22192" data-name="Path 22192" d="M478.964,105.543a1.931,1.931,0,1,0-1.931-1.931A1.934,1.934,0,0,0,478.964,105.543Z" fill="#fff" fill-rule="evenodd"/>
    <path id="Path_22193" data-name="Path 22193" d="M505.1,142.619a1.931,1.931,0,1,0-1.931-1.931A1.935,1.935,0,0,0,505.1,142.619Z" fill="#fff" fill-rule="evenodd"/>
    <path id="Path_22194" data-name="Path 22194" d="M522.219,187.419a1.931,1.931,0,1,0-1.931-1.931A1.934,1.934,0,0,0,522.219,187.419Z" fill="#fff" fill-rule="evenodd"/>
    <path id="Path_22195" data-name="Path 22195" d="M583.958,222.943a1.931,1.931,0,1,0-1.931-1.931A1.935,1.935,0,0,0,583.958,222.943Z" fill="#fff" fill-rule="evenodd"/>
    <path id="Path_22196" data-name="Path 22196" d="M604.11,172.221a1.931,1.931,0,1,0-1.931-1.931A1.935,1.935,0,0,0,604.11,172.221Z" fill="#fff" fill-rule="evenodd"/>
    <path id="Path_22197" data-name="Path 22197" d="M618.522,222.931a1.931,1.931,0,1,0-1.931-1.93A1.934,1.934,0,0,0,618.522,222.931Z" fill="#fff" fill-rule="evenodd"/>
    <path id="Path_22198" data-name="Path 22198" d="M522.981,307.321a1.931,1.931,0,1,0-1.931-1.931A1.935,1.935,0,0,0,522.981,307.321Z" fill="#fff" fill-rule="evenodd"/>
    <path id="Path_22199" data-name="Path 22199" d="M430.562,280.289a1.932,1.932,0,1,0-1.931-1.932A1.935,1.935,0,0,0,430.562,280.289Z" fill="#fff" fill-rule="evenodd"/>
    <path id="Path_22200" data-name="Path 22200" d="M602.138,141.636a1.931,1.931,0,1,0-1.931-1.93A1.934,1.934,0,0,0,602.138,141.636Z" fill="#fff" fill-rule="evenodd"/>
  </g>
</svg>
