<?xml version="1.0" encoding="iso-8859-1"?>
<!-- Generator: Adobe Illustrator 19.0.0, SVG Export Plug-In . SVG Version: 6.00 Build 0)  -->
<svg xmlns="http://www.w3.org/2000/svg" xmlns:xlink="http://www.w3.org/1999/xlink" version="1.1" id="Layer_1" x="0px" y="0px" viewBox="0 0 512 512" style="enable-background:new 0 0 512 512;" xml:space="preserve" width="512" height="512">
<g>
	
		<ellipse transform="matrix(0.7071 -0.7071 0.7071 0.7071 -87.8571 385.9178)" style="fill:#FFE07D;" cx="421.915" cy="299.012" rx="28.903" ry="41.29"/>
	<path style="fill:#FFF5D7;" d="M427.757,313.108c2.113,0,4.226-0.806,5.839-2.419c3.226-3.226,3.226-8.452,0-11.677l-11.677-11.677   c-3.226-3.226-8.452-3.226-11.677,0c-3.226,3.226-3.226,8.452,0,11.677l11.677,11.677   C423.531,312.301,425.644,313.108,427.757,313.108z"/>
	<circle style="fill:#FFE07D;" cx="342.069" cy="189.935" r="41.29"/>
	<path style="fill:#FFD064;" d="M356.119,217.175c-22.804,0-41.29-18.486-41.29-41.29c0-7.787,2.171-15.103,5.92-21.319   c-11.985,7.227-19.969,20.355-19.969,35.37c0,22.804,18.486,41.29,41.29,41.29c15.016,0,28.139-7.991,35.365-19.977   C371.217,214.997,363.908,217.175,356.119,217.175z"/>
	<path style="fill:#FFF5D7;" d="M347.908,206.097c-2.645,0-5.282-1.008-7.298-3.024l-11.677-11.677   c-4.032-4.032-4.032-10.565,0-14.597s10.565-4.032,14.597,0l11.677,11.677c4.032,4.032,4.032,10.565,0,14.597   C353.19,205.089,350.553,206.097,347.908,206.097z"/>
	
		<ellipse transform="matrix(-0.7071 -0.7071 0.7071 -0.7071 687.4211 537.7008)" style="fill:#FFE07D;" cx="455.072" cy="126.481" rx="28.903" ry="41.29"/>
	<path style="fill:#FFF5D7;" d="M449.23,140.577c-2.113,0-4.226-0.806-5.839-2.419c-3.226-3.226-3.226-8.452,0-11.677l11.677-11.677   c3.226-3.226,8.452-3.226,11.677,0c3.226,3.226,3.226,8.452,0,11.677l-11.677,11.677   C453.456,139.77,451.343,140.577,449.23,140.577z"/>
	<path style="fill:#FFD064;" d="M439.353,147.419c-11.287-11.287-7.366-33.51,8.759-49.635c1.321-1.321,2.734-2.565,4.127-3.72   c-6.123,2.55-12.209,6.582-17.605,11.978c-16.125,16.125-20.046,38.347-8.759,49.635c10.363,10.363,29.985,7.868,45.601-5.083   C459.301,155.665,446.863,154.929,439.353,147.419z"/>
	<path style="fill:#FFD064;" d="M174.22,68.331l36.521-56.929c8.726-13.607,27.934-15.348,38.965-3.532l31.704,33.963   L168.778,93.388L174.22,68.331z"/>
	<path style="fill:#FFC250;" d="M182.932,95.657c-2.105,0-4.21-0.798-5.823-2.403c-3.234-3.214-3.25-8.444-0.032-11.677   l50.621-50.907c3.218-3.234,8.444-3.25,11.677-0.032c3.234,3.214,3.25,8.444,0.032,11.677l-50.621,50.907   C187.174,94.847,185.053,95.657,182.932,95.657z"/>
	<path style="fill:#FFE07D;" d="M109.334,57.819C93.332,55.529,79.46,68.93,81.195,85.001l4.985,46.194l127.65-58.428   L109.334,57.819z"/>
	<path style="fill:#FFD064;" d="M113.408,99.742c-4.298,0-7.919-3.327-8.226-7.677c-0.323-4.548,3.105-8.496,7.653-8.819   l97.976-6.919c4.492-0.335,8.492,3.113,8.815,7.657c0.323,4.548-3.105,8.496-7.653,8.819l-97.976,6.919   C113.803,99.734,113.601,99.742,113.408,99.742z"/>
	<path style="fill:#C8EB82;" d="M61.295,239.484v264.258c0,4.561,3.697,8.258,8.258,8.258h330.323c4.561,0,8.258-3.697,8.258-8.258   V239.484c0-4.561-3.697-8.258-8.258-8.258H69.553C64.992,231.226,61.295,234.923,61.295,239.484z"/>
	<path style="fill:#C8EB82;" d="M375.85,89.426L60.479,233.779c-4.147,1.898-9.048,0.075-10.946-4.072l-27.496-60.071   c-1.898-4.147-0.075-9.048,4.072-10.946L341.481,14.338c4.147-1.898,9.048-0.075,10.946,4.072l27.496,60.071   C381.821,82.627,379.997,87.528,375.85,89.426z"/>
	<path style="fill:#AEDB81;" d="M77.811,421.161V231.226h-8.258c-4.561,0-8.258,3.697-8.258,8.258v264.258   c0,4.561,3.697,8.258,8.258,8.258h330.323c4.561,0,8.258-3.697,8.258-8.258v-8.258h-256   C111.086,495.484,77.811,462.208,77.811,421.161z"/>
	<rect x="218.198" y="231.226" style="fill:#FFE07D;" width="33.032" height="280.774"/>
	<rect x="218.198" y="495.484" style="fill:#FFD064;" width="33.032" height="16.516"/>
	<path style="fill:#AEDB81;" d="M376.537,71.085L107.58,194.193c-24.882,11.389-54.286,0.451-65.675-24.431l-6.926-15.131   l-8.87,4.06c-4.147,1.898-5.971,6.799-4.072,10.946l27.495,60.071c1.898,4.147,6.799,5.97,10.946,4.072L375.85,89.426   c4.147-1.898,5.97-6.799,4.072-10.946L376.537,71.085z"/>
	
		<rect x="184.464" y="82.768" transform="matrix(0.9093 -0.4162 0.4162 0.9093 -33.3986 94.9032)" style="fill:#FFE07D;" width="33.032" height="82.581"/>
	
		<rect x="198.238" y="145.955" transform="matrix(-0.9093 0.4162 -0.4162 -0.9093 474.181 204.936)" style="fill:#FFD064;" width="33.033" height="16.391"/>
</g>















</svg>
