<svg xmlns="http://www.w3.org/2000/svg" width="4252.746" height="1687.097" viewBox="0 0 4252.746 1687.097">
  <g id="Group_4239" data-name="Group 4239" transform="translate(-579.666 -1283.323)">
    <g id="Group_4237" data-name="Group 4237">
      <path id="Path_22246" data-name="Path 22246" d="M1292.031,1687.144c-1.42-3.769-.244-.233.285.748Q1292.172,1687.518,1292.031,1687.144Z" fill="#ef8f8a"/>
      <path id="Path_22247" data-name="Path 22247" d="M1278.374,1663.475c.242.346.179.254,0,0Z" fill="#ef8f8a"/>
      <path id="Path_22248" data-name="Path 22248" d="M1295.113,1748.479a3.682,3.682,0,0,0-.287.694A3.008,3.008,0,0,0,1295.113,1748.479Z" fill="#ef8f8a"/>
      <path id="Path_22249" data-name="Path 22249" d="M1255.786,1640.421a1.911,1.911,0,0,0,.394.274S1256.025,1640.593,1255.786,1640.421Z" fill="#ef8f8a"/>
      <path id="Path_22250" data-name="Path 22250" d="M1289.563,1758.181c.385-.42.721-.816.687-.889A4.128,4.128,0,0,0,1289.563,1758.181Z" fill="#ef8f8a"/>
      <path id="Path_22251" data-name="Path 22251" d="M1285.959,1762.311c-.667.458-1.819,1.23-1.768,1.228A3.472,3.472,0,0,0,1285.959,1762.311Z" fill="#ef8f8a"/>
      <path id="Path_22252" data-name="Path 22252" d="M1255.476,1640.173c-2.923-2.418-.957-.751.124.1Z" fill="#ef8f8a"/>
      <path id="Path_22253" data-name="Path 22253" d="M1278.591,2228.264c1.512,1.1,4.082,1.688,5.786,2.372q3.156,1.267,6.333,2.475a1014.547,1014.547,0,0,1,59.269-150.008c-7.744.411-15.508.509-23.307.171-74.165-3.21-147.528-35.63-197.088-91.439-48.926-55.1-76.262-129.894-71.434-203.742,2.492-38.12,13.074-75.229,37.274-105.338,21.193-26.368,55.226-42.019,89.189-38.5,36.624,3.8,68.174,25.39,77.125,62.526a186,186,0,0,1,3.166,19.37c.338,2.576.65,5.154.961,7.733.084.7.459,3.555.588,4.63.139.852.332,2.055.369,2.273.186,1.092.374,2.185.592,3.271q.591,2.952,1.4,5.849c.474,1.676,1.145,3.3,1.6,4.977.038.137.066.245.092.346.232.43.462.842.629,1.165.882,1.719,2.032,3.3,2.932,4.995.223.3.418.569.524.683a27.4,27.4,0,0,1,2.337,2.335l.069.1.279.169a9.245,9.245,0,0,1,1.13.452c.221.1.4.179.569.26.266,0,.538-.007.808-.014a12.7,12.7,0,0,1,2.085-.524c.473-.278.931-.568,1.015-.624.914-.609,1.857-1.223,2.788-1.8.177-.111.307-.191.417-.258.96-1.027,1.931-2.34,2.419-2.878.065-.072.4-.411.753-.789,1.09-1.771,2.314-3.441,3.35-5.252.944-1.651,1.75-3.359,2.593-5.057.226-.66.47-1.424.5-1.525a83.018,83.018,0,0,0,2.765-10.9c.045-.233.075-.5.1-.792-.317.634-.622-.341.374-2.36.117-1.332.235-2.662.308-4a105.521,105.521,0,0,0,.023-10.936c-.1-1.959-.28-3.907-.446-5.861l-.016-.2c-.047-.259-.1-.572-.171-.962q-.859-4.977-2.151-9.862-1.508-5.721-3.569-11.275c-.188-.508-.384-1.013-.578-1.518-.859-.83-1.538-3.495-2.037-4.519a137.591,137.591,0,0,0-11.871-19.863c-.126-.175-.476-.681-.8-1.152l-.172-.225c-1.279-1.564-2.562-3.12-3.892-4.643q-3.423-3.918-7.12-7.584-4.315-4.279-8.979-8.188c-.586-.491-1.18-.973-1.77-1.459-1.036-.743-3.481-2.53-3.76-2.723A137.194,137.194,0,0,0,1231.7,1626c-.2-.094-.776-.363-1.3-.612l-.159-.064c-1.886-.717-3.768-1.433-5.677-2.084q-4.908-1.673-9.941-2.931c-4.081-1.018-8.2-1.722-12.339-2.427l-.3-.053c-.617-.035-1.218-.052-1.659-.091q-2.762-.249-5.532-.394a191.808,191.808,0,0,0-24.831.774l-.046,0c-.612.094-1.225.185-1.837.286q-2.727.451-5.441,1-5.888,1.18-11.68,2.785-6.257,1.727-12.373,3.916c-2.044.731-4.065,1.516-6.09,2.3-.231.09-.414.16-.581.223-.169.079-.362.169-.6.279a208.636,208.636,0,0,0-22.344,11.806q-5.21,3.2-10.217,6.719c-1.688,1.186-3.333,2.426-5,3.639-.485.387-.971.774-1.452,1.165a203.006,203.006,0,0,0-18.7,17.245q-4.553,4.76-8.786,9.812c-1.206,1.44-2.363,2.92-3.557,4.37,2.62-3.184.35-.44-.815,1.157a218.8,218.8,0,0,0-14.642,23.062q-3.491,6.312-6.589,12.828-1.329,2.789-2.585,5.611c-.141.317-.647,1.5-.965,2.231-.119.292-.219.539-.249.616a290.479,290.479,0,0,0-15.147,52.568q-.766,4.088-1.426,8.194c-.165,1.028-.318,2.057-.482,3.085-.022.136-.1.648-.175,1.132-.051.365-.1.692-.109.8-.125,1.035-.252,2.071-.371,3.106q-.417,3.628-.758,7.264-1.26,13.524-1.481,27.12a397.087,397.087,0,0,0,2.863,54.436,16.166,16.166,0,0,1,.45,3.4c.216,1.487.428,2.974.66,4.458q.827,5.3,1.789,10.58,2.16,11.867,5,23.594a437.277,437.277,0,0,0,13.6,45.3q2.117,5.883,4.4,11.7,1.14,2.91,2.323,5.8c.273.671,1.81,4.269,1.573,3.761.488,1.108,1.081,2.454,1.271,2.884q1.266,2.859,2.573,5.7,2.425,5.279,4.983,10.5a467.1,467.1,0,0,0,23.005,41.426q6.393,10.255,13.3,20.176,3.327,4.776,6.77,9.469,1.854,2.529,3.741,5.031c.251.335.5.691.726,1.027l-.092-.154c.095.162.208.32.307.48.087.142.182.282.271.424,3.972,6.323,9.923,12.209,14.746,17.8q7.6,8.819,15.63,17.26a474.382,474.382,0,0,0,35.035,33.277q4.755,4.074,9.618,8.022,2.082,1.692,4.185,3.358c.434.344,2.372,1.847,3.037,2.37l1.344,1.017q1.072.806,2.148,1.606,2.152,1.6,4.322,3.176,4.7,3.413,9.487,6.706a449.492,449.492,0,0,0,40.328,24.74q10.592,5.75,21.488,10.912,5.649,2.676,11.374,5.185c.817.359,1.642.7,2.457,1.067C1282.66,2230.03,1278.677,2228.327,1278.591,2228.264Z" fill="#f4a427"/>
      <path id="Path_22254" data-name="Path 22254" d="M1119.649,2065.484c-135.989-182.887-91.355-298.395-71.049-354.293q2.312-7.251,4.981-14.394.261-1.393.55-2.776-4.413,6.78-8.345,13.856-3.491,6.312-6.589,12.828-1.329,2.789-2.585,5.611c-.141.317-.647,1.5-.965,2.231-.119.292-.219.539-.249.616a290.479,290.479,0,0,0-15.147,52.568q-.766,4.088-1.426,8.194c-.165,1.028-.318,2.057-.482,3.085-.022.136-.1.648-.175,1.132-.051.365-.1.692-.109.8-.125,1.035-.252,2.071-.371,3.106q-.417,3.628-.758,7.264-1.26,13.524-1.481,27.12a397.087,397.087,0,0,0,2.863,54.436,16.166,16.166,0,0,1,.45,3.4c.216,1.487.428,2.974.66,4.458q.827,5.3,1.789,10.58,2.16,11.867,5,23.594a437.277,437.277,0,0,0,13.6,45.3q2.117,5.882,4.4,11.7,1.14,2.91,2.323,5.8c.273.671,1.81,4.27,1.573,3.761.488,1.108,1.081,2.454,1.271,2.884q1.266,2.859,2.573,5.7,2.425,5.279,4.983,10.5a467.1,467.1,0,0,0,23.005,41.426q6.393,10.255,13.3,20.176,3.327,4.776,6.77,9.469,1.854,2.529,3.741,5.031c.251.335.5.691.726,1.027l-.092-.154c.095.162.208.32.307.48.087.142.182.282.271.424,3.972,6.323,9.923,12.209,14.746,17.8q7.6,8.819,15.63,17.26a474.382,474.382,0,0,0,35.035,33.277q4.755,4.074,9.618,8.022,2.082,1.692,4.185,3.358c.434.344,2.372,1.847,3.037,2.37l1.344,1.017q1.072.806,2.148,1.606,2.152,1.6,4.322,3.176,4.7,3.413,9.487,6.706a449.492,449.492,0,0,0,40.328,24.74q10.592,5.75,21.488,10.912,5.649,2.676,11.374,5.185c.817.359,1.642.7,2.457,1.067,2.494,1.114-1.49-.589-1.576-.652,1.513,1.1,4.082,1.688,5.786,2.372q3.156,1.267,6.333,2.475c2.334-7.65,16.587-28.663,19.106-36.255C1262.157,2192.388,1170.673,2127.887,1119.649,2065.484Z" fill="#f6f9fa"/>
      <path id="Path_22255" data-name="Path 22255" d="M792.9,2606.342c-.974,1.22-.762,1,0,0Z" fill="#ef8f8a"/>
      <path id="Path_22256" data-name="Path 22256" d="M1281.514,1765.062l-.19.063.122-.024Z" fill="#ef8f8a"/>
      <path id="Path_22257" data-name="Path 22257" d="M1912.543,2901.039c-.581-.431-.9-.66,0,0Z" fill="#ef8f8a"/>
      <path id="Path_22258" data-name="Path 22258" d="M1299.061,1732.4l-.1.213-.012.13A2.739,2.739,0,0,1,1299.061,1732.4Z" fill="#ef8f8a"/>
      <path id="Path_22259" data-name="Path 22259" d="M1202.381,1617.854c.722.11,1.57.245,1.622.261A7.393,7.393,0,0,0,1202.381,1617.854Z" fill="#ef8f8a"/>
      <path id="Path_22260" data-name="Path 22260" d="M1298.865,1733.671c.026-.31.054-.62.081-.929a10.615,10.615,0,0,0-.362,2.23A3.887,3.887,0,0,0,1298.865,1733.671Z" fill="#ef8f8a"/>
      <path id="Path_22261" data-name="Path 22261" d="M3986.31,1434.872l1.992.806A6.443,6.443,0,0,0,3986.31,1434.872Z" fill="#ef8f8a"/>
      <path id="Path_22262" data-name="Path 22262" d="M3964.679,1514.375c-.133.027-.11.225-.007.5.13.125.3.3.482.506C3964.968,1514.757,3964.8,1514.352,3964.679,1514.375Z" fill="#ef8f8a"/>
      <path id="Path_22263" data-name="Path 22263" d="M3933.876,1567.858q-13.173,15.136-25.527,30.954c-.631.814-1.98,2.551-2.3,2.975q-1.644,2.162-3.274,4.334-2.932,3.911-5.817,7.859-4.968,6.8-9.769,13.717,8,4.755,15.876,9.713,26.684,16.851,51.525,36.075,4.219-20.386,7.166-41.007c.114-.911.573-4.343.581-4.41q.3-2.4.574-4.8.834-7.206,1.505-14.431,1.173-12.642,1.842-25.324,1.212-22.943.772-45.932-.051-2.648-.127-5.3c-1.7,1.722-3.406,3.443-5.093,5.182Q3947.435,1552.281,3933.876,1567.858Z" fill="#ef8f8a"/>
      <path id="Path_22264" data-name="Path 22264" d="M4020.237,1522.566q-.35-2.934-.724-5.863c-.042-.326-.268-2.01-.39-2.927-.133-.932-.311-2.177-.351-2.453q-.337-2.338-.691-4.675c-.824-5.444-1.676-10.889-2.708-16.3a179.727,179.727,0,0,0-7.3-27.478,33.045,33.045,0,0,1-1.809-4.514c-.863-1.778-1.711-3.559-2.655-5.3-1.05-1.934-2.171-3.833-3.368-5.68-.592-.912-1.235-1.789-1.829-2.7a5.407,5.407,0,0,1-.638-1.132c-1.233-1.28-2.9-2.659-3.427-3.169-.652-.628-1.41-1.193-2.048-1.838-1.53-.932-3.049-1.936-4.57-2.865-.577-.32-1.169-.614-1.762-.9-.358-.1-.653-.178-.771-.216-1.665-.539-3.465-.766-5.1-1.344l-.137-.052c-2.649-.05-5.223-.227-7.886-.054-.37.025-1.525.195-2.3.3-.666.151-1.362.306-1.614.362a83.945,83.945,0,0,0-8.14,2.29c-1.7.567-3.36,1.228-5.044,1.833l.67-.241c1-.38,2.013-.727,0,0-.391.149-.777.3-.982.4-2.648,1.252-5.283,2.52-7.875,3.889-5.183,2.738-10.23,5.728-15.206,8.824-46.872,29.176-93.015,59.6-139.491,89.4l-40.022,25.663a708.837,708.837,0,0,1,93.275,38.937l129.908,87.342c7.321,6.594,32.538,27.042,39.566,33.948,1.066-5.938,2.077-11.887,2.992-17.85.464-3.027.9-6.058,1.325-9.091.068-.578.572-4.343.589-4.475q.292-2.343.569-4.691a712.921,712.921,0,0,0-.058-167.381Z" fill="#f4a427"/>
      <path id="Path_22265" data-name="Path 22265" d="M4372.374,2317.643c.076.048,1.189.892,1.713,1.3A16.188,16.188,0,0,0,4372.374,2317.643Z" fill="#ef8f8a"/>
      <path id="Path_22266" data-name="Path 22266" d="M1280.62,1765.348l.167-.007a3.173,3.173,0,0,1,.537-.216A6.88,6.88,0,0,0,1280.62,1765.348Z" fill="#ef8f8a"/>
      <path id="Path_22267" data-name="Path 22267" d="M4006.611,1459.067c-.077-.155-.151-.311-.226-.466C4006.859,1459.847,4008.231,1462.375,4006.611,1459.067Z" fill="#ef8f8a"/>
      <path id="Path_22268" data-name="Path 22268" d="M1277.071,1765.225a2.222,2.222,0,0,0,1.022.155l-.051-.026C1277.434,1765.174,1276.957,1765.064,1277.071,1765.225Z" fill="#ef8f8a"/>
      <path id="Path_22269" data-name="Path 22269" d="M1275.292,1763.263a2.7,2.7,0,0,0,.785.652C1275.637,1763.471,1275.262,1763.113,1275.292,1763.263Z" fill="#ef8f8a"/>
      <path id="Path_22270" data-name="Path 22270" d="M1280.736,1765.408c.026.019.13-.018.261-.078l-.21.011Z" fill="#ef8f8a"/>
      <path id="Path_22271" data-name="Path 22271" d="M3965.314,1516.106l.071.115,0-.015Z" fill="#ef8f8a"/>
      <path id="Path_22272" data-name="Path 22272" d="M1155.85,1694.85c0-.007-.393.179-.946.448C1155.439,1695.1,1155.872,1694.915,1155.85,1694.85Z" fill="#ef8f8a"/>
      <path id="Path_22273" data-name="Path 22273" d="M1196.52,1695.3c-.25-.121-.5-.24-.745-.367C1192.892,1693.455,1195.149,1694.7,1196.52,1695.3Z" fill="#ef8f8a"/>
      <path id="Path_22274" data-name="Path 22274" d="M1281.445,1765.1c-.175.1-.324.172-.448.228a9.158,9.158,0,0,0,.981-.073C1282,1765.057,1281.771,1765.037,1281.445,1765.1Z" fill="#ef8f8a"/>
      <path id="Path_22275" data-name="Path 22275" d="M3286.482,1456.869c-.072-.086-.5,0-1.042.146C3286.037,1457,3286.561,1456.966,3286.482,1456.869Z" fill="#ef8f8a"/>
      <path id="Path_22276" data-name="Path 22276" d="M1846.842,2815.265c.306.764.215.533,0,0Z" fill="#ef8f8a"/>
      <path id="Path_22277" data-name="Path 22277" d="M3293.637,1458.628c.953.315,1.744.51,0,0Z" fill="#ef8f8a"/>
      <path id="Path_22278" data-name="Path 22278" d="M1831.412,2759.385l.083.317-.008-.087Z" fill="#ef8f8a"/>
      <path id="Path_22279" data-name="Path 22279" d="M3299.1,1462.025l-.062-.057C3295.882,1459.108,3298.243,1461.423,3299.1,1462.025Z" fill="#ef8f8a"/>
      <path id="Path_22280" data-name="Path 22280" d="M3283.978,1457.2a1.77,1.77,0,0,0-.782.3C3283.683,1457.349,3284.045,1457.226,3283.978,1457.2Z" fill="#ef8f8a"/>
      <path id="Path_22281" data-name="Path 22281" d="M3317.295,1490.149l-.055-.12.012.029Z" fill="#ef8f8a"/>
      <path id="Path_22282" data-name="Path 22282" d="M3262.874,1487.041l-.1.243C3263.208,1486.865,3265.233,1481.343,3262.874,1487.041Z" fill="#ef8f8a"/>
      <path id="Path_22283" data-name="Path 22283" d="M3316.533,1488.477c.235.518.469,1.035.707,1.551C3317.025,1489.539,3316.693,1488.818,3316.533,1488.477Z" fill="#ef8f8a"/>
      <path id="Path_22284" data-name="Path 22284" d="M3228.14,1349.616q.638-.452,1.268-.911C3229.1,1348.916,3228.538,1349.31,3228.14,1349.616Z" fill="#ef8f8a"/>
      <path id="Path_22285" data-name="Path 22285" d="M3612.51,1581.75l.39.048c-.171-.02-.343-.044-.514-.065l.052.007Z" fill="#ef8f8a"/>
      <path id="Path_22286" data-name="Path 22286" d="M4512.735,2555.9c-.15-1.273-.466-2.674-.52-3.969-.18-1.218-.355-2.439-.546-3.656q-.882-5.655-1.934-11.28-2.272-12.119-5.34-24.072a359.187,359.187,0,0,0-15.274-46.229c-.1-.243-.458-1.1-.72-1.728l-.021-.046c-.851-1.917-1.69-3.838-2.559-5.747q-2.419-5.31-5.008-10.541-5.372-10.848-11.449-21.326-6.291-10.851-13.295-21.268c-4.161-6.191-8.336-13.606-13.549-19.036.887,1.015,1.324,1.808-.145-.034-.746-.933-1.485-1.873-2.233-2.8q-1.687-2.1-3.4-4.169-3.714-4.494-7.558-8.875-8.283-9.447-17.143-18.363a414.218,414.218,0,0,0-36.839-32.9c-.3-.238-.6-.491-.905-.745-.09-.063-.295-.213-.674-.493-1.686-1.25-3.349-2.531-5.038-3.775q-4.708-3.469-9.51-6.807-9.972-6.933-20.332-13.286a420.343,420.343,0,0,0-43.6-23.325q-3.265-1.507-6.556-2.958l-2.545-1.108c-.958-.391-3.487-1.446-4.189-1.729q-2.5-1.006-5.013-1.98-11.719-4.542-23.705-8.358-14.387-4.577-29.086-8.069-8.868-2.1-17.827-3.794-6.6-1.245-13.246-2.259c-.316-.047-1.222-.184-2.1-.319.011.021-3.951-.517-4.886-.626-3.091-.361-6.188-.671-9.287-.957q.447-22.369-.646-44.736c-.05-1.011-.112-2.022-.165-3.033q-.724-13.55-1.991-27.062-.733-7.752-1.647-15.487-.4-3.384-.835-6.763c-.047-.369-.2-1.472-.3-2.207-.068-.471-.13-.908-.159-1.113a687.2,687.2,0,0,0-27.258-116.512q-4.857-14.817-10.371-29.407-2.758-7.293-5.678-14.523-1.277-3.164-2.586-6.313c-.136-.326-.58-1.37-.872-2.059-.065-.151-.119-.275-.144-.334-8.028-18.477-16.714-36.644-26.255-54.391q-14.3-26.592-30.893-51.865-8.289-12.61-17.133-24.845c-3.231-4.471-6.533-8.888-9.859-13.291l-.235-.308c-.455-.592-1.178-1.531-1.4-1.81q-2.1-2.683-4.226-5.346c-3.824-4.786-7.736-9.5-11.692-14.18-.43-.075-.862-.134-1.29-.232l-17.154-20.693a637.447,637.447,0,0,0-53.613-51.818c-7.732-6.638-15.648-13.041-23.655-19.343-.182-.136-.39-.293-.666-.5-1.049-.793-2.094-1.59-3.146-2.38q-2.757-2.073-5.537-4.117-5.956-4.38-12.011-8.623-21.48-15.05-44.113-28.357-3.727-2.195-7.482-4.343-16.939-9.672-34.421-18.353-9.9-4.92-19.956-9.52c-4.784-2.187-9.6-4.3-14.425-6.394l-.665-.289q-1.37-.572-2.74-1.14-3.192-1.317-6.4-2.6-14.193-5.691-28.627-10.752-23.262-8.154-47.065-14.636-32.369-8.829-65.488-14.515c-1.955-.335-3.91-.67-5.869-.988-5.169-.841-10.351-1.6-15.535-2.345-2.737-.335-2.59-.326-1.8-.231q-.864-.113-1.728-.22-3.426-.427-6.856-.82-15.186-1.739-30.441-2.8-30.486-2.123-61.081-1.49-20.493.428-40.93,2.137c10.526,76.734,4.877,155.829-17.594,229.8-3.874,12.755-16.422,19.551-29.275,16.622-12.307-2.8-20.242-17.365-16.624-29.276q5.656-18.618,9.9-37.618c1.357-6.127,2.572-12.277,3.686-18.447q1.783-9.873,3.235-19.808c.046-.314.085-.575.121-.8.026-.249.062-.566.11-.982.2-1.694.414-3.386.609-5.08q.527-4.575.97-9.159c.364-3.763.673-7.532.955-11.3.2-2.694.393-5.388.552-8.084a524.972,524.972,0,0,0-1.308-78.753c-.572-6.241-1.274-12.467-2.062-18.683-.049-.3-.2-1.382-.376-2.595-.217-1.538-.464-3.284-.559-3.907q-.695-4.557-1.468-9.1-2.874-16.863-6.857-33.513c-.363-1.525-.71-3.053-1.087-4.574a519.35,519.35,0,0,0-24.534-74.567c-.314-.731-.957-2.236-1.3-3.015q-.819-1.875-1.655-3.744-2.086-4.671-4.269-9.3-3.927-8.331-8.157-16.513-8.932-17.28-19.2-33.82c-3.461-5.573-7.024-11.086-10.774-16.472-1.577-2.266-3.205-4.491-4.844-6.712,1.08,1.489-2.123-2.73-3.083-3.892a163.579,163.579,0,0,0-13.033-14.094c-2.289-2.185-4.671-4.25-7.083-6.294l-.148-.125c-1.093-.787-2.18-1.579-3.3-2.333a94.568,94.568,0,0,0-8.77-5.278c-1.1-.579-2.228-1.088-3.323-1.667l-.292-.155-.014,0c-2.686-.857-5.3-1.875-8.036-2.594q-2.346-.618-4.727-1.08c-.608-.119-1.735-.243-2.434-.314-2.564-.18-5.126-.3-7.706-.253-1.618.031-3.232.117-4.845.242-.55.043-1.46.037-2.139.015-5.055.4-10.81,2.666-15.366,4.263-.479.168-3.776,1.481-3.682,1.386q-1.266.582-2.517,1.191-4.038,1.966-7.919,4.231-4.32,2.52-8.429,5.381c-.547.379-1.084.771-1.621,1.163.433-.293.354-.212-1.368.989l-.167.136a171.72,171.72,0,0,0-14.95,14.166q-3.618,3.914-7,8.038c-.552.672-1.091,1.353-1.636,2.031-.363.483-1.463,1.912-1.836,2.419-16.4,22.311-28.923,47.2-42.325,71.342q-20.236,36.456-41.431,72.369-42.947,72.762-89.744,143.155-44.646,67.158-92.676,132-14.249,19.253-28.778,38.3-40.244,52.724-82.6,103.779-76.492,92.19-159.829,178.382l103.633,50.686,48.879,23.907c.2.1.374.221.569.324l-36.351,24.12-9.463,6.278-119.129,79.045q74.659,53.082,149.32,106.162c10.865,7.724,15.014,20.308,8.539,32.563-5.639,10.674-22.383,15.775-32.563,8.538l-167.626-119.176-41.5-29.5q6.246-4.146,12.5-8.29,14.917-9.9,29.835-19.8l111.142-73.746q-2.082-1.018-4.164-2.037-44.336-21.682-88.67-43.367l-45.223-22.118,35.315-35.579q107-109.566,203.053-229.148,13.743-17.11,27.247-34.409,3.376-4.326,6.738-8.662c.363-.467.642-.826.863-1.109.206-.27.46-.6.784-1.019q1.338-1.738,2.675-3.478,5.535-7.2,11.023-14.441c-99.1-86.063-217.811-150.492-342.643-189.374a1029.077,1029.077,0,0,0-108.459-27.41q-27.456-5.37-55.178-9.239c-.791-.111-1.583-.218-2.374-.327.364.052-.412-.047-2.388-.309-2.467-.3-4.933-.624-7.4-.923q-6.169-.746-12.348-1.417-13.59-1.476-27.216-2.586a1000.821,1000.821,0,0,0-111.657-2.872q-27.279.828-54.483,3.175c-19.262,1.665-36.985,3.748-52.772,6.106A923.692,923.692,0,0,0,1881,1635.608c-1,.411-1.522.622-1.787.729-.2.091-.654.288-1.592.692-2.258.973-4.516,1.944-6.768,2.93q-6.19,2.709-12.34,5.513-11.734,5.349-23.312,11.028-25.339,12.426-49.881,26.4a951.507,951.507,0,0,0-92.551,60.072c-14.862,10.913-24.729,18.613-39.7,30.99q-21.769,18-42.486,37.223a1013.5,1013.5,0,0,0-76.845,79.518,912.249,912.249,0,0,0-65.537,84.631,1025.926,1025.926,0,0,0-57.833,94.337c-31.737,58.683-55.7,115.559-74.8,178.887-2.206,7.312-4.363,14.689-6.444,22.187-1.868,6.733-3.639,13.494-5.36,20.268-.12.476-.243.951-.362,1.428q-8.058,31.928-13.874,64.365c-1.3,7.251-2.534,14.515-3.659,21.8q-1.039,6.734-1.972,13.486c-.147,1.126-.593,4.441-.6,4.495q-.309,2.436-.606,4.873-1.633,13.411-2.863,26.867-2.577,28.179-3.368,56.472c-.377,12.9-10.592,23.8-23.8,23.8-12.593,0-24.175-10.941-23.8-23.8q.807-27.668,3.258-55.248,2.082-23.112,5.308-46.073c-43.819,19.885-89.875,35.322-135.422,49.789-38.342,12.18-76.869,23.805-114.762,37.349q-14.445,5.163-28.744,10.723-7.377,2.879-14.7,5.888c-.786.324-2.612,1.083-3.292,1.363q-2.794,1.188-5.579,2.4c-18.584,8.09-36.845,16.948-54.536,26.848a454.373,454.373,0,0,0-49.979,32.241c-1.118.835-2.226,1.683-3.341,2.52l.717-.539c.811-.614,1.575-1.183,0,0-.341.26-.689.525-.868.667-1.915,1.524-3.83,3.048-5.724,4.6q-5.044,4.129-9.939,8.434-10.35,9.15-19.854,19.2c-6.379,6.74-12.394,13.782-18.205,21.013-.105.131-.177.223-.264.331-.622.824-1.248,1.645-1.863,2.474q-2.007,2.7-3.953,5.442-3.615,5.088-7.025,10.319-7.579,11.637-14.068,23.937-3.33,6.326-6.348,12.81c-.928,2-1.793,4.029-2.714,6.032-.3.739-.608,1.478-.9,2.219a248.737,248.737,0,0,0-14.5,51.312c-.133.8-1.039,4.053-.717,4.583-.017-.028.547-4.6.234-1.735-.236,2.146-.5,4.287-.706,6.437q-.6,6.435-.821,12.9a201.048,201.048,0,0,0,.794,25.786c.212,2.206.428,8.2.256,2.848a45.616,45.616,0,0,0,1.042,6.4q1.156,6.414,2.755,12.735,1.73,6.832,3.974,13.521c.983,2.922,2.09,9.268,4.257,11.7-.838-1.06-1.317-3.18-.08-.492.5,1.089.984,2.186,1.491,3.272q1.137,2.439,2.341,4.846,2.8,5.592,5.941,11a241.485,241.485,0,0,0,14.061,21.133c.687.838,1.355,1.693,2.041,2.53q1.981,2.42,4.025,4.785,3.807,4.4,7.824,8.62c6.01,6.322,12.346,12.33,18.937,18.043,3.443,2.985,7,5.81,10.523,8.7l.079.066c.543.412,1.084.826,1.63,1.235q2.571,1.924,5.18,3.8,10.5,7.552,21.526,14.329c1.116.689,2.244,1.359,3.367,2.037l674.785-7.845,324.807-3.775a278.966,278.966,0,0,1-52.826-87.127c-25.756-67.931-18.206-142.106,15.849-205.681,36.121-67.433,97.467-118.792,163.579-155.34,74.06-40.941,155.258-66.188,233.276-98.162q3.4-1.391,6.783-2.8,1.452-.6,2.9-1.214l.115-.05c4.5-1.943,9-3.865,13.488-5.845q12.969-5.73,25.759-11.851c17.612-8.455,34.923-17.554,51.719-27.537q12.526-7.446,24.626-15.58,6.457-4.348,12.764-8.918,2.518-1.826,5.013-3.688c.779-.58,3.5-2.687,3.753-2.868a392.88,392.88,0,0,0,41.787-38.19c9.108-9.69,24.4-8.5,33.658,0,9.672,8.878,8.531,24.582,0,33.657q-9.621,10.236-19.976,19.732C2355.188,2350,2283.53,2384.052,2211.019,2413c-37.5,14.97-75.508,28.625-113.005,43.6q-7.846,3.133-15.66,6.352c-2.082.858-4.157,1.733-6.239,2.591l-.262.108q-1.69.719-3.379,1.44-13.947,5.977-27.709,12.371c-18.3,8.538-36.308,17.737-53.777,27.882a471.09,471.09,0,0,0-46,30.235c-.943.707-1.879,1.422-2.817,2.135l-.045.037c-1.505,1.218-3.038,2.4-4.544,3.622q-4.9,3.96-9.673,8.07-10.272,8.845-19.911,18.393-9.248,9.174-17.815,19-4.417,5.075-8.627,10.323c-.387.482-2.156,2.772-2.61,3.34l-.128.172c-.756,1.027-1.522,2.046-2.274,3.077a283.3,283.3,0,0,0-26.468,43.9q-1.642,3.411-3.186,6.867c-.827,1.853-2.092,5.172-.579,1.271-1.484,3.824-3.017,7.622-4.383,11.491a234.38,234.38,0,0,0-7.2,24.589q-1.5,6.428-2.626,12.938c-.075.434-.258,1.554-.428,2.6-.044.47-.433,3.306-.5,3.936a206.27,206.27,0,0,0-1.126,23.233,228.342,228.342,0,0,0,1.44,23.043,8.538,8.538,0,0,1,.32,2.386q.459,2.946.995,5.879,1.011,5.508,2.292,10.96,2.659,11.338,6.443,22.374,1.959,5.723,4.206,11.341c.1.245.2.489.3.734.931.708,1.92,4.368,2.44,5.493a246.114,246.114,0,0,0,23.562,40.3c.768,1.067,1.554,2.123,2.333,3.184.46.575,1.993,2.562,2.349,3q3.537,4.37,7.273,8.572,7.747,8.712,16.324,16.635,4.75,4.386,9.738,8.5c.526.433,3.831,2.545,4.007,3.189.455.343.91.684,1.37,1.021,2,1.469,4.039,2.892,6.09,4.293l1242.134-14.439,1236.673-14.377q10.56-10.2,20.3-21.2,4.082-4.616,8.013-9.361,1.968-2.373,3.893-4.777l1.184-1.478c.006-.025,1.807-2.32,2.122-2.739q.8-1.056,1.584-2.115,1.838-2.474,3.641-4.974,3.345-4.645,6.554-9.39a405.255,405.255,0,0,0,24.7-41.7q5.454-10.6,10.29-21.5c.2-.449,1.466-2.81,2.112-4.349-.4.912-.858,1.6,0-.527.331-.819.668-1.635,1-2.454q2.153-5.327,4.158-10.71a421.8,421.8,0,0,0,14.313-46.44q2.851-11.588,5.047-23.322,1.137-6.079,2.092-12.192c.236-1.509.452-3.022.675-4.534.048-1.011.3-2.144.423-3.136A402.145,402.145,0,0,0,4512.735,2555.9Zm-3180.1-271.418c-1.073.829-.823.629-.221.157C1333.17,2284.066,1334.047,2283.4,1332.638,2284.485Zm2019.509-526.7c.19-1.207-.353,2.9,0,0Zm953.6,875.333h-24.189l-21.25,80.756a4.9,4.9,0,0,1-9.54-.251c-4.864-23.593-12.341-61.727-13.921-80.505h-51.1a122.318,122.318,0,1,1,0-244.635h120a122.318,122.318,0,0,1,0,244.635Z" fill="#f4a427"/>
      <path id="Path_22287" data-name="Path 22287" d="M3337.6,1639.543c-.564-6.182-1.274-12.345-2.02-18.506-.013,0-.548-4.132-.586-4.394q-.327-2.241-.671-4.478-.774-5.037-1.645-10.056a544.524,544.524,0,0,0-17.4-71.434q-5.468-17.265-12.1-34.135c-.812-2.065-1.642-4.122-2.474-6.179-.032-.078-.078-.186-.13-.3-.846-1.832-.913-1.993-.72-1.58-.923-2.035-1.837-4.073-2.836-6.075-2.387-4.791-5.265-9.161-8.077-13.693-.079-.127-.138-.228-.187-.314-.172-.174-.377-.384-.654-.678-.969-1.03-1.888-2.1-2.892-3.1-.9-.891-1.824-1.724-2.759-2.57-2.067-1.287-4.133-2.48-6.263-3.646l-.153-.045c-1.233-.354-2.483-.694-3.711-1.059-.149-.045-.255-.08-.377-.119a28.2,28.2,0,0,1-3.689-.022c-.808.241-1.685.538-1.977.6l-.391.086c-.625.367-1.265.777-1.491.912-.1.058-.72.388-1.348.761-.117.133-.25.279-.427.455-1.616,1.616-3.149,3.265-4.677,4.953-.574.935-1.246,1.82-1.837,2.746a115.2,115.2,0,0,0-6.776,12.411c-.764,1.6-1.858,6.238-3.242,7.208q-.872,2.1-1.745,4.2-3.465,8.361-6.887,16.739-38.125,93.318-70.963,188.67a1264.177,1264.177,0,0,1,173.346-8.071c0-2.87-.012-5.739-.058-8.608Q3339.45,1659.854,3337.6,1639.543Z" fill="#f6f9fa"/>
      <path id="Path_22288" data-name="Path 22288" d="M3339.778,1680.229q-.328-20.375-2.181-40.686c-.564-6.182-1.274-12.345-2.02-18.506-.013,0-.548-4.132-.586-4.394q-.327-2.241-.671-4.479-.774-5.035-1.645-10.055a544.524,544.524,0,0,0-17.4-71.434q-5.468-17.265-12.1-34.135c-.812-2.065-1.642-4.122-2.474-6.179-.032-.078-.078-.186-.13-.3-.846-1.832-.913-1.993-.72-1.58-.923-2.035-1.837-4.073-2.836-6.075-2.387-4.791-5.265-9.161-8.077-13.693-.079-.127-.138-.228-.187-.314-.173-.174-.377-.384-.654-.678-.969-1.03-1.888-2.1-2.892-3.1-.9-.891-1.824-1.724-2.759-2.57-2.067-1.288-4.133-2.48-6.263-3.646l-.153-.045c-1.232-.354-2.483-.694-3.711-1.059-.149-.045-.255-.08-.377-.119a28.2,28.2,0,0,1-3.689-.022c-.808.241-1.685.538-1.977.6l-.391.086c-.625.367-1.265.777-1.491.912-.1.058-.72.388-1.348.761-.117.133-.25.279-.427.455-1.616,1.616-3.148,3.265-4.677,4.953-.574.935-1.246,1.82-1.837,2.746a115.2,115.2,0,0,0-6.776,12.411c-.362.759-.8,2.2-1.306,3.611,2.436,3.886,4.865,7.714,6.926,11.853,1,2,1.913,4.04,2.837,6.075-.194-.413-.127-.252.719,1.58.052.118.1.226.13.3.832,2.057,1.663,4.114,2.474,6.179q6.63,16.853,12.1,34.135a544.463,544.463,0,0,1,17.4,71.435q.869,5.019,1.645,10.055.345,2.237.671,4.478c.038.262.573,4.4.586,4.394.746,6.162,1.456,12.324,2.02,18.506q1.634,17.917,2.06,35.919,21.122-.237,42.245.225C3339.835,1685.967,3339.824,1683.1,3339.778,1680.229Z" fill="#050505" opacity="0.13" style="mix-blend-mode: multiply;isolation: isolate"/>
      <path id="Path_22289" data-name="Path 22289" d="M3378.539,1589.359q-4.059-23.418-10.151-46.42c-1.247-4.713-2.537-9.414-3.91-14.092-7.54-25.67-16.152-52.742-29.351-76.113-13.8-24.442-39.978-46.174-69.762-42.926-27.284,2.974-45.79,22.459-57.139,46.255-12,25.164-21.728,51.672-31.973,77.589q-15.3,38.715-29.713,77.779-16.989,46.063-32.7,92.581-8.562,25.325-16.742,50.778c7.42-1.323,14.845-2.607,22.289-3.794q7.741-1.236,15.5-2.376,4.176-.613,8.357-1.2c1.194-.167,2.39-.328,3.585-.5l.4-.056.45-.056c.7-.088,1.4-.168,2.1-.256,21.649-2.708,43.322-5.059,65.077-6.736q61.317-4.727,122.9-3.445c3.23.067,6.46.119,9.69.21q18.764.53,37.5,1.628,2.007-23.736,2.1-47.446a588.667,588.667,0,0,0-5.826-84.537C3380.414,1600.592,3379.511,1594.969,3378.539,1589.359Zm-96.186-127.391.062.057C3281.56,1461.423,3279.2,1459.108,3282.353,1461.968Zm-5.4-3.34c1.744.51.952.315,0,0Zm-7.156-1.759c.079.1-.445.131-1.041.146C3269.3,1456.868,3269.727,1456.783,3269.8,1456.869Zm-2.5.331c.067.026-.295.149-.783.3A1.776,1.776,0,0,1,3267.295,1457.2Zm-21.1,29.841c2.358-5.7.334-.176-.1.243Zm-79.7,209.867q32.843-95.3,70.963-188.67,3.422-8.379,6.887-16.739.871-2.1,1.745-4.2c1.384-.97,2.478-5.607,3.242-7.208a115.2,115.2,0,0,1,6.776-12.411c.591-.926,1.263-1.811,1.837-2.746,1.528-1.688,3.061-3.337,4.677-4.953.177-.176.31-.322.427-.455.628-.373,1.249-.7,1.348-.761.226-.135.866-.545,1.491-.912l.391-.086c.292-.066,1.169-.363,1.977-.6a28.2,28.2,0,0,0,3.689.022c.122.039.228.074.377.119,1.228.365,2.478.7,3.711,1.059l.153.045c2.13,1.166,4.2,2.359,6.263,3.646.935.846,1.862,1.679,2.759,2.57,1,1,1.923,2.066,2.892,3.1.277.294.482.5.654.678.049.086.108.187.187.314,2.812,4.532,5.69,8.9,8.077,13.693,1,2,1.913,4.04,2.836,6.075.161.341.492,1.062.708,1.551l.054.121-.042-.092c.052.118.1.226.13.3.832,2.057,1.662,4.114,2.474,6.179q6.63,16.852,12.1,34.135a544.524,544.524,0,0,1,17.4,71.434q.867,5.021,1.645,10.056.345,2.236.671,4.478c.038.262.573,4.4.586,4.394.746,6.161,1.456,12.324,2.02,18.506q1.85,20.292,2.181,40.686c.046,2.869.057,5.738.058,8.608A1264.177,1264.177,0,0,0,3166.49,1696.908Z" fill="#2a3333"/>
      <path id="Path_22290" data-name="Path 22290" d="M4512.215,2551.934c-.18-1.218-.355-2.439-.546-3.656q-.882-5.655-1.934-11.28-2.272-12.119-5.34-24.072a359.187,359.187,0,0,0-15.274-46.229c-.1-.243-.458-1.1-.72-1.728l-.021-.046c-.851-1.917-1.69-3.838-2.559-5.747q-2.419-5.31-5.008-10.541-5.372-10.848-11.449-21.326-6.291-10.851-13.295-21.268c-4.161-6.191-8.336-13.606-13.549-19.036.887,1.015,1.324,1.808-.145-.034-.746-.933-1.485-1.873-2.233-2.8q-1.687-2.1-3.4-4.169-3.714-4.494-7.558-8.875-8.283-9.447-17.143-18.363a414.218,414.218,0,0,0-36.839-32.9c-.3-.238-.6-.491-.905-.745-.09-.063-.295-.213-.674-.493-1.686-1.25-3.349-2.531-5.038-3.775q-4.708-3.469-9.51-6.807-9.972-6.933-20.332-13.286a420.343,420.343,0,0,0-43.6-23.325q-3.265-1.507-6.556-2.958l-2.545-1.108c-.958-.391-3.487-1.446-4.189-1.729q-2.5-1.006-5.013-1.98-11.719-4.542-23.705-8.358-14.387-4.577-29.086-8.069-8.868-2.1-17.827-3.794-6.6-1.245-13.246-2.259c-.316-.047-1.222-.184-2.1-.319.011.021-3.951-.517-4.886-.626-.824-.1-1.649-.181-2.475-.27-41.484-4.194-591.9-46.728-592.548,648.118l809.365-9.409q10.56-10.2,20.3-21.2,4.082-4.616,8.013-9.361,1.968-2.373,3.893-4.777l1.184-1.478c.006-.025,1.807-2.32,2.122-2.739q.8-1.056,1.584-2.115,1.838-2.474,3.641-4.974,3.345-4.645,6.554-9.39a405.255,405.255,0,0,0,24.7-41.7q5.454-10.6,10.29-21.5c.2-.449,1.466-2.81,2.112-4.349-.4.912-.858,1.6,0-.527.331-.819.668-1.635,1-2.454q2.153-5.327,4.158-10.71a421.8,421.8,0,0,0,14.313-46.44q2.851-11.588,5.047-23.322,1.137-6.079,2.092-12.192c.236-1.509.452-3.022.675-4.534.048-1.011.3-2.144.423-3.136a402.145,402.145,0,0,0,.3-95.86C4512.585,2554.63,4512.269,2553.229,4512.215,2551.934Zm-206.468,81.184h-24.189l-21.25,80.756a4.9,4.9,0,0,1-9.54-.251c-4.864-23.593-12.341-61.727-13.921-80.505h-51.1a122.318,122.318,0,1,1,0-244.635h120a122.318,122.318,0,0,1,0,244.635Z" fill="#f8eded"/>
      <path id="Path_22291" data-name="Path 22291" d="M3227.781,1349.875l.259-.181.1-.078C3228.02,1349.7,3227.9,1349.79,3227.781,1349.875Z" fill="#ef8f8a"/>
      <path id="Path_22292" data-name="Path 22292" d="M3610.714,1581.519q.835.109,1.672.214C3611.959,1581.672,3611.216,1581.579,3610.714,1581.519Z" fill="#ef8f8a"/>
      <path id="Path_22293" data-name="Path 22293" d="M1831.495,2759.7c.033.3.058.6.091.892a6.314,6.314,0,0,0,.22,1.406l-.01-.062C1831.691,2761.265,1831.673,2760.4,1831.495,2759.7Z" fill="#ef8f8a"/>
      <path id="Path_22294" data-name="Path 22294" d="M3612.51,1581.75l-.072-.01-.052-.007q-.837-.105-1.672-.214C3609.92,1581.424,3609.773,1581.415,3612.51,1581.75Z" fill="#070707"/>
      <path id="Path_22295" data-name="Path 22295" d="M1831.486,2759.614l.009.088c.178.7.2,1.563.3,2.236l.01.062A8.538,8.538,0,0,0,1831.486,2759.614Z" fill="#070707"/>
      <path id="Path_22296" data-name="Path 22296" d="M847.79,2552.054c1.575-1.183.811-.614,0,0Z" fill="#070707"/>
      <path id="Path_22297" data-name="Path 22297" d="M3229.408,1348.7q-.63.461-1.268.911l-.1.078C3229.762,1348.493,3229.841,1348.412,3229.408,1348.7Z" fill="#070707"/>
      <path id="Path_22298" data-name="Path 22298" d="M3955.646,1437.655c2.014-.727,1-.38,0,0Z" fill="#070707"/>
      <path id="Path_22299" data-name="Path 22299" d="M3317.252,1490.057l-.012-.029c-.238-.516-.472-1.033-.707-1.551C3316.339,1488.064,3316.406,1488.225,3317.252,1490.057Z" fill="#070707"/>
      <path id="Path_22300" data-name="Path 22300" d="M3352.147,1757.785c-.353,2.9.19-1.207,0,0Z" fill="#070707"/>
      <path id="Path_22301" data-name="Path 22301" d="M1209.822,1705.19c.957,1.926.689.808,0,0Z" fill="#070707"/>
      <path id="Path_22302" data-name="Path 22302" d="M1281.324,1765.125a3.173,3.173,0,0,0-.537.216l.21-.011c.124-.056.273-.131.448-.228Z" fill="#070707"/>
      <path id="Path_22303" data-name="Path 22303" d="M1298.584,1734.972a10.615,10.615,0,0,1,.362-2.23l.012-.13C1297.962,1734.631,1298.267,1735.606,1298.584,1734.972Z" fill="#070707"/>
      <path id="Path_22304" data-name="Path 22304" d="M1332.638,2284.485c1.409-1.088.532-.419-.221.157C1331.815,2285.114,1331.565,2285.314,1332.638,2284.485Z" fill="#070707"/>
    </g>
    <path id="Path_22305" data-name="Path 22305" d="M3863.787,1631.867l107.971-121.282s22.288,76.171-6.6,178.226C3949.572,1685.113,3863.787,1631.867,3863.787,1631.867Z" fill="#f6f9fa"/>
    <path id="Path_22306" data-name="Path 22306" d="M3971.758,1510.585l-30.32,34.058a379.921,379.921,0,0,1-11.454,126.654c15.839,8.947,29.751,16.228,35.17,17.514C3994.046,1586.756,3971.758,1510.585,3971.758,1510.585Z" fill="#050505" opacity="0.13" style="mix-blend-mode: multiply;isolation: isolate"/>
    <ellipse id="Ellipse_1416" data-name="Ellipse 1416" cx="49.029" cy="125.272" rx="49.029" ry="125.272" transform="translate(3561.952 1682.315) rotate(-76.677)" fill="#f6f9fa"/>
    <path id="Path_22307" data-name="Path 22307" d="M1998.541,2684.478c-19.762-133.392,99.473-227.876,99.473-227.876-73.441,1.855-171.11,64.841-240.276,146.358-103.749,160.564,39.524,316.967,39.524,316.967s195.147,1.691,293.956,0C2196.158,2802.135,2033.736,2846.373,1998.541,2684.478Z" fill="#f8eded"/>
    <path id="Path_22308" data-name="Path 22308" d="M910.473,2684.478c-19.761-133.392,99.474-227.876,99.474-227.876-73.442,1.855-171.11,64.841-240.276,146.358C665.922,2763.524,809.2,2919.927,809.2,2919.927s195.147,1.691,293.955,0C1108.091,2802.135,945.669,2846.373,910.473,2684.478Z" fill="#f8eded"/>
    <path id="Path_22309" data-name="Path 22309" d="M4489.452,2796.583s0-461.654-700.929-51.889c-240.379,140.526-721.547,92.478-987.906-173.159-94.2-90.23-120.27,34.807-256.614,146-156.49,142.5-657.993,193.224-653.824-128.694l-58.767-1.72S1725.437,2663.209,1702.7,2776.9c-45.476,64.965-139.676,48.3-139.676,48.3l-459.762,1.917s-256.273,33.6-262.063-269.793c-48,48.646-239.056,170.855,7.508,391.738,337.516-6.5,3566.306-42.227,3566.306-42.227S4476.207,2868.045,4489.452,2796.583Z" fill="#050505" opacity="0.13" style="mix-blend-mode: multiply;isolation: isolate"/>
    <path id="Path_22310" data-name="Path 22310" d="M1232.466,2233.111s31.531-97,77.35-176.3c50.881,6.749,67.753,11.811,67.753,11.811l-72.551,198.387Z" fill="#050505" opacity="0.13" style="mix-blend-mode: multiply;isolation: isolate"/>
    <path id="Path_22311" data-name="Path 22311" d="M2905.935,1801.831S2552.956,1437.909,1946.8,1599.7c-235.726,72.8-674.328,412.54-664.819,856.9,0,0,103.552-502.369,570.893-735.407,20.936,35.1,95.778,53.207,190.382,41.156C2151.2,1748.6,2244,1700.792,2238.235,1655.569c-1.038-8.148-4.9-15.652-11.131-22.406,354.912,5.308,613.3,243.135,613.3,243.135Z" fill="#f6f9fa"/>
    <path id="Path_22312" data-name="Path 22312" d="M2627.446,2123.973l278.489-331.952-61.026-33.176c-1.541-.272-302.844,377.9-302.844,377.9l142.4,64.7-166.145,96.857,253.819,146.178-144.7-148.551,151.056-98.983Z" fill="#050505" opacity="0.13" style="mix-blend-mode: multiply;isolation: isolate"/>
    <path id="Path_22313" data-name="Path 22313" d="M3456.51,1634.81s311.126-54.5,610.4,228.66c-8.253-54.469-141.584-330.191-610.4-305.231C3450.059,1615.456,3456.51,1634.81,3456.51,1634.81Z" fill="#f6f9fa"/>
    <rect id="Rectangle_1935" data-name="Rectangle 1935" width="65.84" height="227.269" rx="26.454" transform="translate(3583.461 2138.277)" fill="#fff8f9"/>
    <rect id="Rectangle_1936" data-name="Rectangle 1936" width="65.84" height="227.269" rx="26.454" transform="translate(4007.577 2002.136)" fill="#fff8f9"/>
    <g id="Group_4238" data-name="Group 4238">
      <path id="Path_22314" data-name="Path 22314" d="M3612.51,1581.75l-.072-.01-.052-.007q-.837-.105-1.672-.214C3609.92,1581.424,3609.773,1581.415,3612.51,1581.75Z" fill="#070707"/>
      <path id="Path_22315" data-name="Path 22315" d="M1831.486,2759.614l.009.088c.178.7.2,1.563.3,2.236l.01.062A8.538,8.538,0,0,0,1831.486,2759.614Z" fill="#070707"/>
      <path id="Path_22316" data-name="Path 22316" d="M847.79,2552.054c1.575-1.183.811-.614,0,0Z" fill="#070707"/>
      <path id="Path_22317" data-name="Path 22317" d="M3229.408,1348.7q-.63.461-1.268.911l-.1.078C3229.762,1348.493,3229.841,1348.412,3229.408,1348.7Z" fill="#070707"/>
      <path id="Path_22318" data-name="Path 22318" d="M3955.646,1437.655c2.014-.727,1-.38,0,0Z" fill="#070707"/>
      <path id="Path_22319" data-name="Path 22319" d="M3317.252,1490.057l-.012-.029c-.238-.516-.472-1.033-.707-1.551C3316.339,1488.064,3316.406,1488.225,3317.252,1490.057Z" fill="#070707"/>
      <path id="Path_22320" data-name="Path 22320" d="M3352.147,1757.785c-.353,2.9.19-1.207,0,0Z" fill="#070707"/>
      <path id="Path_22321" data-name="Path 22321" d="M1209.822,1705.19c.957,1.926.689.808,0,0Z" fill="#070707"/>
      <path id="Path_22322" data-name="Path 22322" d="M1281.324,1765.125a3.173,3.173,0,0,0-.537.216l.21-.011c.124-.056.273-.131.448-.228Z" fill="#070707"/>
      <path id="Path_22323" data-name="Path 22323" d="M1298.584,1734.972a10.615,10.615,0,0,1,.362-2.23l.012-.13C1297.962,1734.631,1298.267,1735.606,1298.584,1734.972Z" fill="#070707"/>
      <path id="Path_22324" data-name="Path 22324" d="M1332.638,2284.485c1.409-1.088.532-.419-.221.157C1331.815,2285.114,1331.565,2285.314,1332.638,2284.485Z" fill="#070707"/>
      <path id="Path_22325" data-name="Path 22325" d="M4809.425,2873.916l-344.135,4a410.049,410.049,0,0,0,58.426-94.466c28.334-63.839,42.694-133.932,38.7-203.867-4-70.034-25.669-138.387-64.743-196.823A438.948,438.948,0,0,0,4223.84,2198.5a700.053,700.053,0,0,0-26.254-162.7c-22.836-80.227-59.72-157-109-224.343q-16.162-22.085-33.929-42.774a743.626,743.626,0,0,0,18.045-150.61,712.464,712.464,0,0,0-3.566-83.759c-2.574-25.281-5.216-51.418-12.471-75.876-6.848-23.092-18.173-44.351-37.63-59.073-22-16.647-51.74-17.031-76.709-7.363-26.926,10.425-50.626,27.8-74.785,43.286l-74.34,47.668-101.991,65.4q-11.15-2.67-22.368-4.977a709.907,709.907,0,0,0-207.628-11.754q-5.814-25.612-14.083-50.541c-17.479-52.581-42.4-104.984-77.457-148.213-17.08-21.059-39.591-39.269-66.224-46.282-29.588-7.791-60.975-1-87.147,13.984-51.935,29.738-77.241,87.667-105.3,137.608q-42.2,75.093-88.452,147.8-46.527,73.14-97.013,143.657-12.151,16.974-24.53,33.783c-90.239-77.672-194.989-138.008-306.737-179.485-143-53.074-298.884-74.744-450.866-60.821-154.037,14.111-302.792,64.54-432.329,149.392-127.544,83.545-235.314,196.253-314.8,326.254q-10.467,17.115-20.245,34.634a34.823,34.823,0,0,0-6.427.389c-.818.126-1.639.244-2.458.372l-.03,0c-1.967.189-3.928.449-5.9.637q-6.887.659-13.8.929a253.039,253.039,0,0,1-26.66-.369q-6.408-.424-12.791-1.175c-.354-.041-1.413-.183-2.159-.282l-.33-.051c-2.6-.419-5.206-.831-7.8-1.306a262.754,262.754,0,0,1-25.973-6.135c-8.559-2.485-16.931-5.466-25.221-8.73-.355-.14-.61-.239-.825-.321s-.447-.2-.778-.354c-2.1-.946-4.21-1.886-6.3-2.87q-6.258-2.952-12.352-6.235a254.714,254.714,0,0,1-22.784-13.85q-2.856-1.95-5.656-3.979c-.8-.579-1.592-1.169-2.391-1.75-.109-.079-.506-.372-.88-.648-.265-.2-.5-.38-.574-.442-1.029-.825-2.058-1.646-3.078-2.481q-2.674-2.193-5.287-4.463a242.7,242.7,0,0,1-19.049-18.469q-4.323-4.674-8.4-9.573c-1.463-1.757-2.876-3.552-4.316-5.326,2.883,3.552-.655-.9-1.61-2.2a259.064,259.064,0,0,1-27.086-46.491c-.414-.918-1.073-2.449-1.319-3-.662-1.623-1.324-3.246-1.955-4.881q-2.472-6.405-4.607-12.931a261.909,261.909,0,0,1-6.95-25.529q-1.36-6.222-2.412-12.508c-.268-1.6-.5-3.2-.741-4.809.026.032-.384-3.061-.524-4.394a251.119,251.119,0,0,1-1.38-26.4,235.926,235.926,0,0,1,1.448-26.2c.038-.339.154-1.23.244-1.919l.026-.164c.311-1.869.606-3.739.95-5.6q1.206-6.531,2.87-12.968,1.668-6.414,3.83-12.687c.617-1.78,1.291-3.534,1.945-5.3.358-.817,1.114-2.6,1.279-2.955,1.7-3.653,3.568-7.233,5.606-10.712q1.4-2.394,2.911-4.719c.5-.773,1.011-1.543,1.532-2.3.019-.027.511-.735,1.005-1.449.426-.494,2.145-2.72,2.553-3.192q2.1-2.43,4.347-4.724,1.932-1.963,3.976-3.815c1.462-1.327,6.419-4.9,2.329-2.131a103.562,103.562,0,0,1,8.942-5.709c.265-.142,2.024-1.012,3.342-1.656.757-.263,1.507-.567,2.261-.822a79.068,79.068,0,0,1,9.708-2.6c.589-.117,1.2-.2,1.793-.321,1.389-.117,2.777-.265,4.173-.33,3.354-.154,6.671,0,10.019.158.316.014.578.024.8.03,1.644.322,3.289.61,4.921,1,1.022.245,7.73,2.993,9.121,2.942.2.1.4.194.6.3,1.526.785,3.025,1.624,4.481,2.532.255.158,1.124.758,1.925,1.306.813.7,2.165,1.815,2.475,2.113,1.055,1.013,2,2.123,3.03,3.16l.147.162-.148-.3c-1.6-3.313.308.521.735,1.176q1.227,1.88,2.284,3.863c.324.608.6,1.267.935,1.869l.06.276c1.174,5.015,2.8,9.8,3.648,14.926.151.907.285,1.816.425,2.724.282,2.5.595,4.99.906,7.483.811,6.512,1.554,13.07,2.847,19.508,3.847,19.149,14.322,37.96,31.1,48.557,18.154,11.465,42.221,9.458,59.1-3.26,32.526-24.5,39.67-67.661,32.533-105.659-6.217-33.1-25.859-64.528-51.13-86.489-27.819-24.177-61.471-38.2-98.343-40.12-36.516-1.9-73.522,8.854-105.009,26.984-67.273,38.735-106.74,110.267-117.634,185.691-10.289,71.229-1,144.774,24.565,211.965a499.811,499.811,0,0,0,108.08,169.986,483.328,483.328,0,0,0,166.937,112.166q3.094,1.244,6.209,2.429-5.884,23.219-10.633,46.708-14.773,7.769-29.967,14.7-6.737,3.085-13.538,6.025c-1.141.494-2.284.981-3.426,1.471-2.505,1.035-5.008,2.078-7.52,3.1q-14.784,6-29.77,11.488c-19.683,7.239-39.566,13.919-59.523,20.363-79.919,25.8-161.567,48.433-236.167,87.914-71.133,37.648-134.4,92.5-168.809,166.519-16.729,35.991-27.228,75.071-26.729,114.988a217.517,217.517,0,0,0,32.111,111.017,262.605,262.605,0,0,0,48.648,57.585l-169.956,1.976c-30.608.356-30.69,47.957,0,47.6l236.55-2.75,110.7-1.287,957.867-11.135,82.8-.962,257.847-3,1637.366-19.035,473.536-5.5,59.218-.689,390.889-4.544C4840.033,2921.159,4840.115,2873.559,4809.425,2873.916Zm-435.338-554.975c-.524-.406-1.637-1.25-1.713-1.3A16.057,16.057,0,0,1,4374.087,2318.941Zm-367.476-859.874c1.62,3.308.248.78-.226-.466C4006.46,1458.756,4006.534,1458.912,4006.611,1459.067Zm-18.309-23.389-1.992-.806A6.443,6.443,0,0,1,3988.3,1435.678Zm-196.209,104.486c46.476-29.8,92.619-60.221,139.491-89.4,4.976-3.1,10.023-6.086,15.206-8.824,2.592-1.369,5.227-2.637,7.875-3.889.205-.1.591-.25.982-.4l-.67.241c1.684-.6,3.346-1.266,5.044-1.833a83.945,83.945,0,0,1,8.14-2.29c.252-.056.948-.211,1.614-.362.778-.108,1.933-.278,2.3-.3,2.663-.173,5.237,0,7.886.054l.137.052c1.632.578,3.432.805,5.1,1.344.118.038.413.117.771.216.593.289,1.185.583,1.762.9,1.521.929,3.04,1.933,4.57,2.865.638.645,1.4,1.21,2.048,1.838.527.51,2.194,1.889,3.427,3.169a5.407,5.407,0,0,0,.638,1.132c.594.909,1.237,1.786,1.829,2.7,1.2,1.847,2.318,3.746,3.368,5.68.944,1.74,1.792,3.521,2.655,5.3a33.045,33.045,0,0,0,1.809,4.514,179.727,179.727,0,0,1,7.3,27.478c1.032,5.409,1.884,10.854,2.708,16.3q.354,2.337.691,4.675c.04.276.218,1.521.351,2.453.122.917.348,2.6.39,2.927q.375,2.93.724,5.863a712.921,712.921,0,0,1,.058,167.381q-.277,2.346-.569,4.691c-.017.132-.521,3.9-.589,4.475-.427,3.033-.861,6.064-1.325,9.091-.915,5.963-1.926,11.912-2.992,17.85-5.516-5.421-11.152-10.718-16.849-15.947-1.77-1.264-12.532-8.991-13.376-10.532,11.746-58.6,20.339-142.395,8.582-189.141-15.72-62.5-54.108-17.832-56.95-15.248-.047.047-.094.1-.142.143l-1.362,1.378c-5.843,5.936-11.465,12.126-17.055,18.12a812.76,812.76,0,0,0-61.814,75.129c-3.57,4.889-7.058,9.835-10.508,14.808a708.837,708.837,0,0,0-93.275-38.937Zm174.808-7.881c.047,1.765.093,3.53.127,5.3q.442,22.969-.772,45.932-.669,12.68-1.843,25.324-.669,7.224-1.5,14.431-.277,2.4-.574,4.8c-.008.067-.467,3.5-.581,4.41q-2.931,20.62-7.166,41.007-24.831-19.194-51.525-36.075-7.863-4.967-15.876-9.713,4.815-6.909,9.769-13.717,2.881-3.948,5.817-7.859,1.629-2.173,3.274-4.334c.322-.424,1.671-2.161,2.3-2.975q12.382-15.789,25.527-30.954,13.549-15.573,27.932-30.393C3963.5,1535.726,3965.2,1534.005,3966.9,1532.283Zm-2.223-17.908c.121-.023.29.382.476,1.005-.186-.208-.352-.381-.482-.506C3964.569,1514.6,3964.546,1514.4,3964.678,1514.375ZM1154.9,1695.3c.553-.269.944-.455.946-.448C1155.872,1694.915,1155.439,1695.1,1154.9,1695.3Zm40.871-.361c.246.127.495.246.745.367C1195.149,1694.7,1192.892,1693.455,1195.775,1694.937Zm79.517,68.326c-.03-.15.345.208.785.652A2.7,2.7,0,0,1,1275.292,1763.263Zm1.779,1.962c-.114-.162.363-.051.971.129l.051.026A2.222,2.222,0,0,1,1277.071,1765.225Zm3.926.1c-.131.06-.235.1-.262.078l.052-.067-.167.007a6.88,6.88,0,0,1,.7-.223l.19-.063-.069.04c.326-.065.551-.045.533.155A9.158,9.158,0,0,1,1281,1765.33Zm3.194-1.791c-.051,0,1.1-.77,1.768-1.228A3.472,3.472,0,0,1,1284.191,1763.539Zm5.372-5.358a4.128,4.128,0,0,1,.687-.889C1290.284,1757.365,1289.948,1757.761,1289.563,1758.181Zm5.263-9.008a3.6,3.6,0,0,1,.287-.694A3.008,3.008,0,0,1,1294.826,1749.173Zm-2.8-62.029q.141.375.285.748C1291.787,1686.911,1290.611,1683.375,1292.031,1687.144Zm-13.657-23.669c.18.254.242.346,0,0Zm-22.194-22.78a1.911,1.911,0,0,1-.394-.274C1256.026,1640.592,1256.177,1640.7,1256.18,1640.695Zm-.7-.522.124.1C1254.519,1639.422,1252.553,1637.755,1255.476,1640.173ZM1204,1618.115c-.052-.016-.9-.151-1.622-.261A7.393,7.393,0,0,1,1204,1618.115Zm73.707,609.734q-5.724-2.51-11.374-5.185-10.892-5.157-21.488-10.912a449.492,449.492,0,0,1-40.328-24.74q-4.785-3.293-9.487-6.706-2.169-1.575-4.322-3.176-1.076-.8-2.148-1.606l-1.344-1.017c-.665-.523-2.6-2.026-3.037-2.37q-2.1-1.667-4.185-3.358-4.863-3.947-9.618-8.022a474.382,474.382,0,0,1-35.035-33.277q-8.025-8.439-15.63-17.26c-4.823-5.593-10.774-11.479-14.746-17.8-.089-.142-.184-.282-.271-.424-.1-.16-.212-.318-.307-.48l.092.154c-.226-.336-.475-.692-.726-1.027q-1.887-2.5-3.741-5.031-3.443-4.692-6.77-9.469-6.909-9.917-13.3-20.176a467.1,467.1,0,0,1-23.005-41.426q-2.558-5.217-4.983-10.5-1.3-2.841-2.573-5.7c-.19-.43-.783-1.776-1.271-2.884.237.509-1.3-3.09-1.573-3.761q-1.182-2.893-2.323-5.8-2.281-5.82-4.4-11.7a437.277,437.277,0,0,1-13.6-45.3q-2.834-11.722-5-23.594-.961-5.278-1.789-10.58c-.232-1.484-.444-2.971-.66-4.458a16.166,16.166,0,0,0-.45-3.4,397.087,397.087,0,0,1-2.863-54.436q.234-13.581,1.481-27.12.34-3.636.758-7.264c.119-1.035.246-2.071.371-3.106.013-.1.058-.432.109-.8.075-.484.153-1,.175-1.132.164-1.028.317-2.057.482-3.085q.658-4.107,1.426-8.194a290.479,290.479,0,0,1,15.147-52.568c.03-.077.13-.324.249-.616.318-.733.824-1.914.965-2.231q1.257-2.821,2.585-5.611,3.1-6.511,6.589-12.828a218.8,218.8,0,0,1,14.642-23.062c1.165-1.6,3.435-4.341.815-1.157,1.194-1.45,2.351-2.93,3.557-4.37q4.227-5.05,8.786-9.812a203.12,203.12,0,0,1,18.7-17.245c.482-.391.968-.778,1.453-1.165,1.669-1.213,3.314-2.453,5-3.639q5-3.516,10.216-6.719A208.743,208.743,0,0,1,1131.3,1628.9c.24-.11.434-.2.6-.279.167-.063.35-.133.581-.223,2.025-.783,4.046-1.568,6.09-2.3q6.112-2.184,12.373-3.916,5.789-1.6,11.681-2.785,2.711-.545,5.44-1c.612-.1,1.225-.192,1.837-.286l.046,0a191.808,191.808,0,0,1,24.831-.774q2.769.146,5.532.394c.441.039,1.042.056,1.659.091l.3.053c4.143.7,8.258,1.409,12.339,2.427q5.031,1.254,9.941,2.931c1.909.65,3.791,1.367,5.677,2.084l.159.064c.526.249,1.1.518,1.3.612a137.194,137.194,0,0,1,20.259,11.651c.279.193,2.724,1.98,3.76,2.723.59.486,1.184.968,1.77,1.459q4.659,3.9,8.979,8.188,3.7,3.665,7.12,7.584c1.33,1.523,2.613,3.079,3.892,4.643l.172.225c.325.471.675.977.8,1.152a137.591,137.591,0,0,1,11.871,19.863c.5,1.023,1.178,3.689,2.037,4.519.194.505.39,1.01.577,1.518q2.055,5.548,3.57,11.275,1.287,4.883,2.151,9.862c.067.39.124.7.171.962l.016.2c.166,1.954.349,3.9.446,5.861a105.521,105.521,0,0,1-.023,10.936c-.073,1.336-.191,2.666-.308,4l.1-.213a2.739,2.739,0,0,0-.115.343c-.027.309-.055.619-.081.929a3.887,3.887,0,0,1-.281,1.3c-.028.288-.058.559-.1.792a83.018,83.018,0,0,1-2.765,10.9c-.034.1-.278.865-.5,1.525-.843,1.7-1.649,3.406-2.593,5.057-1.036,1.811-2.261,3.481-3.35,5.252-.356.378-.688.717-.753.789-.488.538-1.459,1.851-2.419,2.878-.11.067-.24.147-.417.258-.931.581-1.874,1.2-2.788,1.8-.084.056-.542.346-1.015.624a12.7,12.7,0,0,0-2.085.524c-.27.007-.542.012-.808.014-.174-.081-.348-.16-.569-.26a9.245,9.245,0,0,0-1.13-.452l-.279-.169-.069-.1a27.4,27.4,0,0,0-2.337-2.335c-.106-.114-.3-.384-.524-.683-.9-1.7-2.05-3.277-2.932-4.995-.167-.323-.4-.735-.629-1.165-.026-.1-.054-.209-.092-.346-.46-1.674-1.131-3.3-1.6-4.977q-.819-2.9-1.4-5.849c-.218-1.086-.406-2.179-.592-3.271-.037-.218-.23-1.421-.369-2.273-.129-1.075-.5-3.934-.588-4.63-.311-2.579-.623-5.157-.961-7.733a186,186,0,0,0-3.166-19.37c-8.951-37.136-40.5-58.73-77.125-62.526-33.963-3.52-68,12.131-89.189,38.5-24.2,30.109-34.782,67.218-37.274,105.338-4.828,73.848,22.508,148.646,71.433,203.742,49.561,55.809,122.924,88.229,197.089,91.439,7.8.338,15.563.24,23.307-.171a1014.547,1014.547,0,0,0-59.269,150.008q-3.175-1.214-6.333-2.475c-1.7-.684-4.273-1.272-5.786-2.372.086.063,4.07,1.766,1.576.652C1279.352,2228.553,1278.527,2228.208,1277.71,2227.849ZM792.9,2606.342c-.762,1-.974,1.22,0,0Zm1119.644,294.7c-.9-.66-.581-.431,0,0Zm2528.527-69.016q-1.8,2.5-3.641,4.974-.788,1.059-1.584,2.115c-.315.419-2.117,2.714-2.123,2.739l-1.183,1.478q-1.928,2.4-3.893,4.777-3.932,4.743-8.013,9.361-9.727,11-20.3,21.2l-1236.673,14.377-1242.134,14.439c-2.051-1.4-4.087-2.824-6.09-4.293-.46-.337-.915-.678-1.37-1.021-.176-.644-3.481-2.756-4.007-3.189q-4.988-4.113-9.738-8.5-8.565-7.908-16.323-16.635-3.735-4.2-7.274-8.572c-.356-.44-1.889-2.427-2.349-3-.78-1.061-1.565-2.117-2.333-3.184a246.114,246.114,0,0,1-23.562-40.3c-.52-1.125-1.509-4.785-2.44-5.493-.1-.245-.2-.489-.3-.734q-2.245-5.617-4.206-11.341-3.774-11.019-6.443-22.374-1.28-5.451-2.292-10.96-.539-2.932-.995-5.879a6.314,6.314,0,0,1-.22-1.406c-.033-.3-.058-.594-.091-.892l-.083-.317.074.229a228.342,228.342,0,0,1-1.44-23.043,206.27,206.27,0,0,1,1.126-23.233c.067-.63.456-3.466.5-3.936.17-1.041.353-2.161.428-2.6q1.119-6.505,2.626-12.938a234.38,234.38,0,0,1,7.2-24.589c1.366-3.869,2.9-7.667,4.383-11.491-1.513,3.9-.248.582.579-1.271q1.542-3.458,3.186-6.867a283.3,283.3,0,0,1,26.468-43.9c.751-1.031,1.518-2.05,2.274-3.077l.128-.172c.454-.568,2.223-2.858,2.61-3.34q4.208-5.249,8.627-10.323,8.552-9.825,17.815-19,9.623-9.547,19.911-18.393,4.774-4.109,9.673-8.07c1.506-1.219,3.039-2.4,4.544-3.622l.045-.037c.938-.713,1.874-1.428,2.817-2.135a471.09,471.09,0,0,1,46-30.235c17.469-10.145,35.473-19.344,53.777-27.882q13.75-6.414,27.709-12.371,1.688-.723,3.379-1.44l.262-.108c2.082-.858,4.157-1.733,6.239-2.591q7.812-3.221,15.66-6.352c37.5-14.979,75.505-28.634,113.005-43.6,72.511-28.946,144.169-63,202.353-116.155q10.373-9.474,19.976-19.731c8.531-9.075,9.672-24.779,0-33.657-9.258-8.5-24.55-9.69-33.658,0a392.88,392.88,0,0,1-41.787,38.19c-.258.181-2.974,2.288-3.753,2.868q-2.494,1.861-5.013,3.688-6.306,4.568-12.764,8.918-12.084,8.145-24.626,15.58c-16.8,9.983-34.107,19.082-51.719,27.537q-12.781,6.136-25.759,11.851c-4.483,1.98-8.989,3.9-13.488,5.845l-.115.05q-1.451.609-2.9,1.214-3.387,1.411-6.783,2.8c-78.018,31.974-159.216,57.221-233.276,98.162-66.112,36.548-127.458,87.907-163.579,155.34-34.055,63.575-41.6,137.75-15.849,205.681a278.966,278.966,0,0,0,52.826,87.127l-324.807,3.775-674.785,7.845c-1.123-.678-2.251-1.348-3.367-2.037q-11.007-6.789-21.526-14.329-2.609-1.878-5.18-3.8c-.546-.409-1.087-.823-1.63-1.235l-.079-.066c-3.519-2.892-7.08-5.717-10.523-8.7-6.591-5.713-12.927-11.721-18.937-18.043q-4.012-4.218-7.824-8.62-2.044-2.365-4.024-4.785c-.687-.837-1.355-1.692-2.042-2.53a241.485,241.485,0,0,1-14.061-21.133q-3.138-5.41-5.941-11-1.2-2.406-2.341-4.846c-.507-1.086-.99-2.183-1.491-3.272-1.237-2.688-.758-.568.08.492-2.167-2.434-3.274-8.78-4.257-11.7q-2.246-6.681-3.974-13.521-1.6-6.318-2.755-12.735a45.616,45.616,0,0,1-1.042-6.4c.171,5.35-.044-.642-.256-2.848a201.048,201.048,0,0,1-.794-25.786q.211-6.459.821-12.9c.2-2.15.47-4.291.706-6.437.313-2.868-.251,1.707-.234,1.735-.322-.53.584-3.784.717-4.583a248.781,248.781,0,0,1,14.5-51.312c.3-.741.6-1.48.9-2.219.921-2,1.786-4.032,2.714-6.032q3.01-6.484,6.348-12.81,6.47-12.288,14.068-23.937,3.407-5.231,7.025-10.319,1.947-2.742,3.953-5.442c.615-.829,1.241-1.65,1.863-2.474l.264-.331c5.811-7.231,11.826-14.273,18.205-21.013q9.5-10.032,19.854-19.2,4.884-4.315,9.939-8.434c1.894-1.55,3.809-3.074,5.725-4.6.178-.142.526-.407.867-.667l-.717.539c1.115-.837,2.223-1.685,3.341-2.52a454.281,454.281,0,0,1,49.979-32.241c17.691-9.9,35.952-18.758,54.536-26.848q2.784-1.212,5.579-2.4c.68-.28,2.506-1.039,3.292-1.363q7.322-3.011,14.7-5.888,14.289-5.577,28.744-10.723c37.893-13.544,76.42-25.169,114.762-37.349,45.547-14.467,91.6-29.9,135.422-49.789q-3.2,22.957-5.308,46.073-2.483,27.57-3.258,55.248c-.375,12.859,11.207,23.8,23.8,23.8,13.208,0,23.423-10.9,23.8-23.8q.823-28.283,3.368-56.472,1.232-13.452,2.863-26.867.3-2.437.606-4.873c.006-.054.452-3.369.6-4.495q.941-6.749,1.972-13.486c1.125-7.282,2.361-14.546,3.659-21.8q5.8-32.415,13.874-64.365c.119-.476.242-.952.362-1.428,1.721-6.774,3.492-13.535,5.36-20.268,2.081-7.5,4.238-14.875,6.444-22.187,19.1-63.328,43.066-120.2,74.8-178.887a1025.7,1025.7,0,0,1,57.834-94.337,912.048,912.048,0,0,1,65.536-84.631,1013.5,1013.5,0,0,1,76.845-79.518q20.711-19.206,42.486-37.223c14.969-12.377,24.836-20.077,39.7-30.99a951.507,951.507,0,0,1,92.551-60.072q24.53-13.958,49.881-26.4,11.578-5.678,23.312-11.028,6.15-2.8,12.34-5.513c2.252-.987,4.51-1.957,6.768-2.93.938-.4,1.388-.6,1.592-.692.265-.107.786-.318,1.787-.729a923.692,923.692,0,0,1,214.568-59.234c15.787-2.358,33.51-4.441,52.772-6.106q27.19-2.35,54.483-3.175a1001.055,1001.055,0,0,1,111.657,2.871q13.625,1.11,27.216,2.587,6.178.671,12.348,1.417c2.468.3,4.934.618,7.4.923,1.976.262,2.752.361,2.388.309.791.109,1.583.216,2.374.327q27.708,3.866,55.178,9.239a1029.077,1029.077,0,0,1,108.459,27.41c124.832,38.882,243.538,103.311,342.643,189.374q-5.495,7.234-11.022,14.441-1.337,1.74-2.676,3.478c-.324.419-.578.749-.784,1.019-.221.283-.5.641-.863,1.109q-3.368,4.332-6.738,8.662-13.5,17.3-27.247,34.408-95.9,119.4-203.053,229.149l-35.315,35.579,45.223,22.118,88.67,43.368,4.164,2.036-111.142,73.746q-14.919,9.9-29.835,19.8l-12.5,8.29,41.5,29.5L2778.5,2447.43c10.18,7.237,26.924,2.136,32.563-8.538,6.475-12.255,2.326-24.839-8.539-32.563q-74.659-53.079-149.32-106.162l119.13-79.045,9.462-6.278,36.35-24.12c-.194-.1-.369-.227-.568-.324l-48.879-23.907-103.633-50.686q83.244-86.13,159.829-178.382,42.345-51.036,82.6-103.779,14.533-19.039,28.778-38.3,47.985-64.83,92.676-132,46.775-70.362,89.744-143.155,21.193-35.908,41.431-72.369c13.4-24.146,25.926-49.031,42.325-71.342.373-.507,1.473-1.936,1.836-2.419.545-.678,1.084-1.359,1.636-2.031q3.382-4.118,7-8.038a171.72,171.72,0,0,1,14.95-14.166l.167-.136-.259.181c.121-.085.239-.173.359-.259.4-.306.957-.7,1.268-.911.537-.392,1.074-.784,1.621-1.163q4.106-2.854,8.429-5.381,3.879-2.264,7.919-4.231,1.252-.609,2.517-1.191c-.094.095,3.2-1.218,3.682-1.386,4.556-1.6,10.311-3.866,15.366-4.263.679.022,1.589.028,2.139-.015,1.613-.125,3.227-.211,4.845-.242,2.58-.05,5.142.073,7.706.253.7.071,1.826.195,2.434.314q2.381.467,4.727,1.08c2.735.719,5.35,1.737,8.036,2.594l.014,0,.292.155c1.095.579,2.226,1.088,3.323,1.667a94.568,94.568,0,0,1,8.77,5.278c1.116.754,2.2,1.546,3.3,2.333l.148.125c2.412,2.044,4.794,4.109,7.083,6.294a163.579,163.579,0,0,1,13.033,14.094c.96,1.162,4.163,5.381,3.083,3.892,1.639,2.221,3.267,4.446,4.844,6.712,3.75,5.386,7.313,10.9,10.774,16.472q10.262,16.524,19.2,33.819,4.23,8.181,8.157,16.514,2.183,4.627,4.269,9.3.836,1.869,1.655,3.744c.341.779.983,2.284,1.3,3.015a519.471,519.471,0,0,1,24.534,74.567c.377,1.521.724,3.049,1.087,4.574q3.959,16.643,6.857,33.513.775,4.542,1.468,9.1c.095.623.342,2.369.559,3.907.173,1.213.327,2.294.376,2.595.788,6.216,1.49,12.442,2.062,18.683a524.972,524.972,0,0,1,1.308,78.753c-.159,2.7-.352,5.39-.552,8.084-.282,3.77-.591,7.539-.955,11.3q-.442,4.584-.97,9.159c-.2,1.694-.412,3.386-.609,5.08-.048.416-.084.733-.11.982-.036.23-.075.491-.121.8q-1.464,9.935-3.235,19.808c-1.114,6.169-2.329,12.32-3.686,18.447q-4.2,19-9.9,37.618c-3.618,11.911,4.317,26.473,16.624,29.276,12.853,2.929,25.4-3.867,29.275-16.622,22.471-73.969,28.12-153.064,17.594-229.8q20.425-1.7,40.93-2.137,30.554-.639,61.081,1.49,15.249,1.061,30.441,2.8,3.429.394,6.856.82.864.107,1.728.22c.5.06,1.245.153,1.672.214.171.021.343.045.514.065l-.39-.048c5.184.744,10.366,1.5,15.535,2.345,1.959.318,3.914.652,5.869.988q33.069,5.67,65.488,14.515,23.779,6.486,47.065,14.636,14.43,5.058,28.627,10.752,3.2,1.286,6.4,2.6,1.371.567,2.74,1.14l.665.289c4.824,2.095,9.641,4.207,14.425,6.394q10.054,4.6,19.956,9.52,17.469,8.68,34.421,18.353,3.757,2.145,7.482,4.343,22.607,13.3,44.113,28.357,6.054,4.242,12.011,8.623,2.78,2.045,5.538,4.117c1.051.79,2.1,1.587,3.145,2.38l.666.5c8.007,6.3,15.923,12.7,23.655,19.343a637.608,637.608,0,0,1,53.614,51.818s18.443,20.925,17.153,20.693c-.432-.077.86.157,1.29.232q5.934,7.019,11.693,14.18,2.127,2.663,4.225,5.346c.218.278.941,1.218,1.4,1.81l.235.308c3.326,4.4,6.628,8.82,9.859,13.291q8.844,12.229,17.133,24.845,16.581,25.234,30.893,51.865c9.541,17.747,18.227,35.914,26.255,54.391.025.059.079.183.144.334.292.689.736,1.733.872,2.059q1.307,3.151,2.586,6.313,2.921,7.23,5.678,14.523,5.514,14.585,10.371,29.407a687.2,687.2,0,0,1,27.258,116.512c.029.205.091.642.159,1.113.1.735.253,1.838.3,2.207q.435,3.379.835,6.763.912,7.734,1.647,15.487,1.277,13.51,1.99,27.062c.054,1.011.116,2.022.166,3.033q1.091,22.348.646,44.736c3.1.286,6.2.6,9.287.957.935.109,4.9.647,4.886.626.883.135,1.789.272,2.1.319q6.644,1.016,13.247,2.259,8.955,1.689,17.827,3.794,14.688,3.484,29.086,8.069,11.977,3.81,23.705,8.358,2.511.973,5.013,1.98c.7.283,3.231,1.338,4.189,1.729l2.546,1.108q3.289,1.452,6.555,2.958a420.343,420.343,0,0,1,43.6,23.325q10.353,6.351,20.332,13.286,4.8,3.339,9.51,6.807c1.689,1.244,3.352,2.525,5.038,3.775.379.28.584.43.674.493.3.254.6.507.905.745a414.218,414.218,0,0,1,36.839,32.9q8.854,8.913,17.143,18.363,3.843,4.381,7.558,8.875,1.711,2.073,3.4,4.169c.748.931,1.487,1.871,2.233,2.8,1.469,1.842,1.032,1.049.145.034,5.213,5.43,9.388,12.845,13.549,19.036q7,10.41,13.295,21.268,6.071,10.473,11.449,21.326,2.588,5.229,5.008,10.541c.869,1.909,1.708,3.83,2.559,5.747l.021.046c.262.631.621,1.485.72,1.728a359.187,359.187,0,0,1,15.274,46.229q3.069,11.941,5.34,24.072,1.053,5.625,1.934,11.28c.191,1.217.366,2.438.546,3.656.053,1.295.37,2.7.52,3.97a402.137,402.137,0,0,1-.3,95.859c-.121.992-.375,2.125-.423,3.136-.223,1.512-.439,3.025-.675,4.534q-.954,6.109-2.092,12.192-2.193,11.727-5.047,23.322a421.8,421.8,0,0,1-14.313,46.44q-2.008,5.382-4.158,10.71c-.331.819-.669,1.636-1,2.455-.863,2.13-.4,1.438,0,.526-.646,1.539-1.912,3.9-2.112,4.349q-4.835,10.9-10.29,21.5a405.124,405.124,0,0,1-24.7,41.7Q4444.415,2827.374,4441.07,2832.023Zm-2594.228-16.758c.215.533.306.764,0,0Z" fill="#2a3333"/>
      <path id="Path_22326" data-name="Path 22326" d="M4305.747,2388.483h-120a122.318,122.318,0,1,0,0,244.635h51.1c1.58,18.778,9.057,56.912,13.921,80.505a4.9,4.9,0,0,0,9.54.251l21.25-80.756h24.189a122.318,122.318,0,0,0,0-244.635Z" fill="#2a3333"/>
      <path id="Path_22327" data-name="Path 22327" d="M4353.192,2489.132c25.65,0,38.648-31.236,20.275-49.134a106.623,106.623,0,0,0-74.644-30.345H4193.839A106.624,106.624,0,0,0,4119.195,2440c-18.373,17.9-5.375,49.134,20.275,49.134Z" fill="#f6fbfc"/>
    </g>
    <path id="Path_22328" data-name="Path 22328" d="M3616.38,1931.032c-43.5,0-78.768,57.218-78.768,127.8s35.266,127.8,78.768,127.8,78.77-57.218,78.77-127.8S3659.885,1931.032,3616.38,1931.032Zm-7.545,215.673c-9.793,0-17.732-10.178-17.732-22.732s7.939-22.732,17.732-22.732,17.731,10.176,17.731,22.732S3618.627,2146.705,3608.835,2146.705Zm63.383-110.585c0,24.541-14.391,44.436-32.145,44.436s-32.145-19.9-32.145-44.436,14.391-44.436,32.145-44.436S3672.218,2011.579,3672.218,2036.12Z" fill="#2a3333"/>
    <ellipse id="Ellipse_1417" data-name="Ellipse 1417" cx="32.145" cy="44.436" rx="32.145" ry="44.436" transform="translate(3607.928 1991.684)" fill="#fff8f9"/>
    <path id="Path_22329" data-name="Path 22329" d="M3608.835,2101.241c-9.793,0-17.732,10.176-17.732,22.732s7.939,22.732,17.732,22.732,17.731-10.178,17.731-22.732S3618.627,2101.241,3608.835,2101.241Z" fill="#fff8f9"/>
    <path id="Path_22330" data-name="Path 22330" d="M4040.5,1931.032c-43.5,0-78.769,57.218-78.769,127.8s35.267,127.8,78.769,127.8,78.77-57.218,78.77-127.8S4084,1931.032,4040.5,1931.032Zm-7.546,215.673c-9.793,0-17.731-10.178-17.731-22.732s7.938-22.732,17.731-22.732,17.73,10.176,17.73,22.732S4042.743,2146.705,4032.951,2146.705Zm31.238-66.149c-17.752,0-32.145-19.9-32.145-44.436s14.393-44.436,32.145-44.436,32.146,19.9,32.146,44.436S4081.943,2080.556,4064.189,2080.556Z" fill="#2a3333"/>
    <path id="Path_22331" data-name="Path 22331" d="M4064.189,1991.684c-17.752,0-32.145,19.9-32.145,44.436s14.393,44.436,32.145,44.436,32.146-19.9,32.146-44.436S4081.943,1991.684,4064.189,1991.684Z" fill="#fff8f9"/>
    <path id="Path_22332" data-name="Path 22332" d="M4032.951,2101.241c-9.793,0-17.731,10.176-17.731,22.732s7.938,22.732,17.731,22.732,17.73-10.178,17.73-22.732S4042.743,2101.241,4032.951,2101.241Z" fill="#fff8f9"/>
  </g>
</svg>
