<svg height="512pt" viewBox="-120 0 512 512.00115" width="512pt" xmlns="http://www.w3.org/2000/svg"><path d="m270.214844 180.054688c-2.628906-4.816407-7.679688-7.816407-13.167969-7.816407h-54.425781l24.753906-154.871093c1.082031-6.773438-2.570312-13.417969-8.867188-16.136719-6.292968-2.71875-13.640624-.820313-17.828124 4.613281l-197.5625 256.398438c-3.488282 4.527343-4.097657 10.644531-1.578126 15.777343 2.523438 5.128907 7.746094 8.378907 13.460938 8.378907h85.816406l-57.566406 206.574218c-1.992188 7.144532 1.539062 14.675782 8.304688 17.710938 1.988281.890625 4.074218 1.316406 6.136718 1.316406 4.96875 0 9.78125-2.476562 12.621094-6.882812l199.351562-309.761719c2.96875-4.613281 3.179688-10.484375.550782-15.300781zm0 0" fill="#fedc56"/><path d="m270.214844 180.054688c-2.628906-4.816407-7.679688-7.816407-13.167969-7.816407h-54.425781l24.753906-154.871093c1.082031-6.773438-2.570312-13.417969-8.867188-16.136719-6.292968-2.71875-13.640624-.820313-17.828124 4.613281l-64.65625 83.914062v313.25l133.640624-207.652343c2.96875-4.613281 3.179688-10.484375.550782-15.300781zm0 0" fill="#feca05"/></svg>