<svg width="357" height="374" viewBox="0 0 357 374" fill="none" xmlns="http://www.w3.org/2000/svg">
<path d="M342.546 124.222C325.446 104.102 296.793 101.852 274.513 88.6616C236.168 65.9616 221.305 14.2716 186.419 -14.0484C164.394 -31.9284 134.631 -38.8584 108.009 -34.9384C70.2273 -29.3784 34.674 -2.43839 24.0042 37.0216C21.043 47.9716 19.8585 59.8516 20.7704 72.4316C22.4813 95.9816 27.238 119.832 22.7445 142.962C17.7904 168.452 2.20408 189.982 -7.11197 214.052C-18.7124 244.022 -20.3105 277.652 -15.3469 309.632C-11.9627 331.452 -5.21304 353.482 8.86915 369.742C9.93142 370.972 11.0407 372.142 12.1688 373.292H165.973C175.618 360.202 182.932 344.712 191.421 330.972C212.779 296.382 246.978 271.732 284.327 260.162C301.06 254.982 319.185 251.892 332.628 240.102C346.466 227.962 352.821 208.602 355.566 189.762C358.912 166.932 357.107 141.352 342.546 124.222Z" fill="#407BFF" fill-opacity="0.5"/>
<path opacity="0.7" d="M342.546 124.222C325.446 104.102 296.793 101.852 274.513 88.6616C236.168 65.9616 221.305 14.2716 186.419 -14.0484C164.394 -31.9284 134.631 -38.8584 108.009 -34.9384C70.2273 -29.3784 34.674 -2.43839 24.0042 37.0216C21.043 47.9716 19.8585 59.8516 20.7704 72.4316C22.4813 95.9816 27.238 119.832 22.7445 142.962C17.7904 168.452 2.20408 189.982 -7.11197 214.052C-18.7124 244.022 -20.3105 277.652 -15.3469 309.632C-11.9627 331.452 -5.21304 353.482 8.86915 369.742C9.93142 370.972 11.0407 372.142 12.1688 373.292H165.973C175.618 360.202 182.932 344.712 191.421 330.972C212.779 296.382 246.978 271.732 284.327 260.162C301.06 254.982 319.185 251.892 332.628 240.102C346.466 227.962 352.821 208.602 355.566 189.762C358.912 166.932 357.107 141.352 342.546 124.222Z" fill="white"/>
</svg>
