<svg width="375" height="411" viewBox="0 0 375 411" fill="none" xmlns="http://www.w3.org/2000/svg">
<path d="M360.546 160.224C343.446 140.104 314.793 137.854 292.513 124.664C254.168 101.964 239.305 50.2744 204.419 21.9544C182.394 4.07435 152.631 -2.85565 126.009 1.06435C88.2273 6.62435 52.674 33.5644 42.0042 73.0244C39.043 83.9743 37.8585 95.8544 38.7704 108.434C40.4813 131.984 45.238 155.834 40.7445 178.964C35.7904 204.454 20.2041 225.984 10.888 250.054C-0.712389 280.024 -2.3105 313.654 2.65305 345.634C6.03729 367.454 12.787 389.484 26.8692 405.744C27.9314 406.974 29.0407 408.144 30.1688 409.294H183.973C193.618 396.204 200.932 380.714 209.421 366.974C230.779 332.384 264.978 307.734 302.327 296.164C319.06 290.984 337.185 287.894 350.628 276.104C364.466 263.964 370.821 244.604 373.566 225.764C376.912 202.934 375.107 177.354 360.546 160.224Z" fill="#407BFF" fill-opacity="0.5"/>
<path opacity="0.7" d="M360.546 160.224C343.446 140.104 314.793 137.854 292.513 124.664C254.168 101.964 239.305 50.2744 204.419 21.9544C182.394 4.07435 152.631 -2.85565 126.009 1.06435C88.2273 6.62435 52.674 33.5644 42.0042 73.0244C39.043 83.9743 37.8585 95.8544 38.7704 108.434C40.4813 131.984 45.238 155.834 40.7445 178.964C35.7904 204.454 20.2041 225.984 10.888 250.054C-0.712389 280.024 -2.3105 313.654 2.65305 345.634C6.03729 367.454 12.787 389.484 26.8692 405.744C27.9314 406.974 29.0407 408.144 30.1688 409.294H183.973C193.618 396.204 200.932 380.714 209.421 366.974C230.779 332.384 264.978 307.734 302.327 296.164C319.06 290.984 337.185 287.894 350.628 276.104C364.466 263.964 370.821 244.604 373.566 225.764C376.912 202.934 375.107 177.354 360.546 160.224Z" fill="white"/>
<path d="M293.373 98.9065L291.89 99.0809C279.403 100.571 268.629 108.635 264.197 120.281C263.626 121.78 263.166 123.318 262.825 124.888C260.351 136.186 264.07 148.673 272.347 156.919C277.215 161.763 283.692 165.442 286.46 171.697C290.067 179.84 286.095 189.084 282.186 197.02C278.277 204.957 274.329 214.217 277.976 222.344C280.259 227.434 285.191 230.962 290.408 233.007C304.235 238.423 320.583 234.498 332.016 225.261C343.449 216.025 350.394 202.182 353.7 187.887C358.338 167.86 356.111 145.803 345.185 128.194C334.276 110.569 314.114 98.2088 293.373 98.9065Z" fill="#F5F5F5"/>
<path d="M74.6522 300.827L76.1349 300.986C88.6379 302.333 100.951 296.895 107.872 286.54C108.76 285.208 109.561 283.813 110.243 282.362C115.182 271.912 114.366 258.902 108.142 249.015C104.479 243.195 99.0004 238.161 97.7001 231.446C96.0114 222.701 101.95 214.582 107.539 207.732C113.129 200.874 119.051 192.739 117.323 184.002C116.245 178.531 112.225 173.988 107.595 170.817C95.3374 162.437 78.5213 162.595 65.3047 169.033C52.088 175.471 42.2251 187.411 35.7951 200.596C26.7885 219.069 24.0135 241.071 30.7051 260.686C37.4046 280.292 54.2842 296.863 74.6522 300.827Z" fill="#F5F5F5"/>
<path d="M303.775 305.679C315.725 305.679 325.412 295.992 325.412 284.043C325.412 272.093 315.725 262.406 303.775 262.406C291.826 262.406 282.138 272.093 282.138 284.043C282.138 295.992 291.826 305.679 303.775 305.679Z" fill="#F5F5F5"/>
<path d="M304.092 247.39L246.437 225.586C242.449 224.08 240.443 219.624 241.949 215.644L272.133 135.837C273.639 131.849 278.095 129.843 282.075 131.35L318.641 145.177L335.917 185.057L314.042 242.902C312.528 246.89 308.072 248.896 304.092 247.39Z" fill="#F5F5F5"/>
<path d="M318.641 145.177L310.15 167.638C308.746 171.34 310.617 175.487 314.32 176.882L335.917 185.057L318.641 145.177Z" fill="#EBEBEB"/>
<path d="M309.69 169.723C309.69 169.723 307.343 175.067 312.869 179.197C313.075 179.356 313.297 179.491 313.519 179.626C316.151 181.195 333.467 191.518 333.626 191.09C333.8 190.63 335.909 185.056 335.909 185.056L314.312 176.89C314.312 176.89 308.992 174.67 309.69 169.723Z" fill="#E0E0E0"/>
<path d="M305.654 164.895C305.543 165.18 299.486 163.158 292.12 160.375C284.755 157.593 278.872 155.095 278.983 154.81C279.094 154.524 285.151 156.546 292.517 159.329C299.882 162.112 305.765 164.609 305.654 164.895Z" fill="#E0E0E0"/>
<path d="M318.078 184.113C317.967 184.399 308.048 180.918 295.926 176.335C283.803 171.753 274.059 167.796 274.17 167.511C274.281 167.226 284.192 170.706 296.322 175.289C308.445 179.871 318.189 183.82 318.078 184.113Z" fill="#E0E0E0"/>
<path d="M318.022 196.212C317.911 196.497 307.113 192.684 293.896 187.689C280.68 182.694 270.056 178.405 270.167 178.119C270.278 177.834 281.076 181.647 294.293 186.65C307.509 191.637 318.133 195.918 318.022 196.212Z" fill="#E0E0E0"/>
<path d="M314.241 206.217C314.13 206.503 303.331 202.689 290.114 197.694C276.898 192.7 266.274 188.41 266.385 188.125C266.496 187.839 277.294 191.653 290.511 196.656C303.72 201.643 314.352 205.924 314.241 206.217Z" fill="#E0E0E0"/>
<path d="M310.459 216.223C310.348 216.508 299.549 212.695 286.333 207.7C273.116 202.697 262.492 198.416 262.603 198.13C262.714 197.845 273.512 201.659 286.729 206.661C299.938 211.648 310.562 215.93 310.459 216.223Z" fill="#E0E0E0"/>
<path d="M306.669 226.229C306.558 226.514 295.759 222.701 282.543 217.706C269.326 212.703 258.702 208.422 258.813 208.136C258.924 207.851 269.723 211.664 282.939 216.667C296.156 221.654 306.78 225.935 306.669 226.229Z" fill="#E0E0E0"/>
<path d="M153.302 282.972L77.2924 309.588C74.6602 310.508 71.7822 309.12 70.8625 306.496L32.7268 197.583C31.8071 194.951 33.1946 192.073 35.8189 191.153L111.829 164.538C114.461 163.618 117.339 165.006 118.258 167.63L156.394 276.542C157.314 279.175 155.934 282.053 153.302 282.972Z" fill="#EBEBEB"/>
<path d="M112.812 171.31L39.2781 197.06L77.0791 305.007L150.613 279.257L112.812 171.31Z" fill="#E0E0E0"/>
<path d="M111.499 170.795L37.9651 196.545L75.0455 302.435L148.579 276.685L111.499 170.795Z" fill="#FAFAFA"/>
<path d="M148.569 276.685C148.259 275.797 133.33 233.293 111.392 170.833L111.527 170.896C89.2246 178.706 64.2739 187.451 38.0071 196.648H37.9992L38.0706 196.497C51.9294 236.274 64.8289 273.006 75.1279 302.389L75.009 302.333C119.733 286.746 147.847 276.939 148.569 276.685C147.847 276.939 119.757 286.81 75.0724 302.524L74.9852 302.555L74.9535 302.468C64.6545 273.078 51.7867 236.345 37.8565 196.584L37.8169 196.473L37.9279 196.434H37.9358C64.2026 187.237 89.1612 178.508 111.464 170.698L111.567 170.666L111.599 170.77C133.41 233.261 148.259 275.805 148.569 276.685Z" fill="#E0E0E0"/>
<path d="M122.492 285.819C122.492 285.819 138.864 272.007 141.703 257.625C141.703 257.625 137.16 264.753 127.701 266.053C127.701 266.053 127.376 281.157 122.492 285.819Z" fill="#E0E0E0"/>
<path d="M66.2402 229.131L62.3711 230.486C60.9599 230.978 59.4138 230.24 58.9144 228.821L57.5586 224.952C57.067 223.541 57.8044 221.995 59.2236 221.495L63.0926 220.14C64.5039 219.648 66.0499 220.385 66.5494 221.805L67.9052 225.674C68.3967 227.085 67.6594 228.639 66.2402 229.131Z" fill="#EBEBEB"/>
<path d="M62.6248 226.807C62.6248 226.807 62.6169 226.807 62.6248 226.807C62.5614 226.831 62.4901 226.823 62.4425 226.792L60.6665 225.761C60.5635 225.697 60.5238 225.563 60.5872 225.46C60.6507 225.357 60.7855 225.317 60.8885 225.38L62.4504 226.284L64.3215 222.28C64.377 222.169 64.5039 222.122 64.6149 222.177C64.7259 222.233 64.7734 222.36 64.7179 222.471L62.7438 226.696C62.7279 226.744 62.6803 226.792 62.6248 226.807Z" fill="white"/>
<path d="M113.398 203.752C113.422 203.815 103.868 207.208 92.0709 211.339C80.2655 215.47 70.688 218.776 70.6642 218.713C70.6405 218.649 80.1942 215.256 91.9916 211.125C103.797 206.994 113.382 203.696 113.398 203.752Z" fill="#E0E0E0"/>
<path d="M90.9768 218.99C90.9847 219.006 90.739 219.109 90.287 219.283C89.7955 219.466 89.1533 219.704 88.3684 219.997C86.743 220.584 84.4993 221.384 82.0177 222.257C79.5282 223.129 77.2765 223.906 75.6433 224.453C74.8504 224.714 74.2003 224.928 73.7008 225.095C73.241 225.238 72.9873 225.317 72.9793 225.301C72.9714 225.285 73.2172 225.182 73.6691 225.008C74.1607 224.825 74.8029 224.587 75.5878 224.294C77.2131 223.707 79.4568 222.907 81.9463 222.035C84.4279 221.162 86.6875 220.385 88.3208 219.838C89.1136 219.577 89.7638 219.363 90.2632 219.196C90.7152 219.046 90.9689 218.974 90.9768 218.99Z" fill="#E0E0E0"/>
<path d="M114.421 206.669C114.445 206.733 104.891 210.126 93.0937 214.257C81.2883 218.387 71.7108 221.694 71.687 221.63C71.6632 221.567 81.2169 218.173 93.0144 214.043C104.82 209.912 114.397 206.606 114.421 206.669Z" fill="#E0E0E0"/>
<path d="M71.7663 244.908L67.8972 246.264C66.486 246.755 64.9399 246.018 64.4405 244.599L63.0847 240.73C62.5931 239.319 63.3305 237.772 64.7497 237.273L68.6187 235.917C70.03 235.426 71.576 236.163 72.0755 237.582L73.4313 241.451C73.9228 242.863 73.1776 244.409 71.7663 244.908Z" fill="#EBEBEB"/>
<path d="M68.1509 242.585C68.143 242.585 68.143 242.585 68.1509 242.585C68.0875 242.609 68.0162 242.601 67.9686 242.569L66.1926 241.538C66.0896 241.475 66.0499 241.34 66.1133 241.237C66.1768 241.134 66.3116 241.094 66.4146 241.158L67.9765 242.062L69.8476 238.058C69.9031 237.947 70.03 237.899 70.141 237.947C70.252 238.002 70.2995 238.129 70.244 238.24L68.2699 242.466C68.254 242.522 68.2064 242.561 68.1509 242.585Z" fill="white"/>
<path d="M118.924 219.529C118.948 219.593 109.394 222.986 97.597 227.117C85.7916 231.247 76.2141 234.554 76.1904 234.49C76.1666 234.427 85.7203 231.033 97.5177 226.903C109.323 222.772 118.909 219.474 118.924 219.529Z" fill="#E0E0E0"/>
<path d="M96.5029 234.768C96.5108 234.783 96.2651 234.886 95.8131 235.061C95.3216 235.243 94.6794 235.481 93.8945 235.774C92.2691 236.361 90.0254 237.162 87.5438 238.034C85.0543 238.906 82.8026 239.683 81.1694 240.23C80.3766 240.492 79.7264 240.706 79.2269 240.872C78.7671 241.015 78.5134 241.094 78.5055 241.079C78.4975 241.063 78.7433 240.96 79.1952 240.785C79.6868 240.603 80.329 240.365 81.1139 240.072C82.7392 239.485 84.9829 238.684 87.4725 237.812C89.954 236.94 92.2136 236.163 93.8469 235.616C94.6397 235.354 95.2899 235.14 95.7894 234.974C96.2413 234.823 96.495 234.752 96.5029 234.768Z" fill="#E0E0E0"/>
<path d="M119.947 222.447C119.971 222.51 110.417 225.904 98.6198 230.034C86.8144 234.165 77.2369 237.471 77.2131 237.408C77.1893 237.344 86.7431 233.951 98.5405 229.82C110.338 225.682 119.923 222.383 119.947 222.447Z" fill="#E0E0E0"/>
<path d="M77.2924 260.686L73.4233 262.041C72.0121 262.533 70.466 261.795 69.9665 260.376L68.6108 256.507C68.1192 255.096 68.8566 253.55 70.2757 253.05L74.1448 251.695C75.5561 251.203 77.1021 251.94 77.6016 253.36L78.9574 257.229C79.4489 258.64 78.7036 260.186 77.2924 260.686Z" fill="#EBEBEB"/>
<path d="M73.677 258.363C73.6691 258.363 73.6691 258.363 73.677 258.363C73.6136 258.386 73.5422 258.378 73.4947 258.347L71.7187 257.316C71.6157 257.253 71.576 257.118 71.6394 257.015C71.7029 256.912 71.8376 256.872 71.9407 256.935L73.5026 257.839L75.3737 253.835C75.4292 253.724 75.5561 253.677 75.6671 253.732C75.778 253.788 75.8256 253.915 75.7701 254.026L73.796 258.252C73.7722 258.299 73.7325 258.339 73.677 258.363Z" fill="white"/>
<path d="M124.451 235.307C124.474 235.37 114.921 238.763 103.123 242.894C91.3177 247.025 81.7402 250.331 81.7164 250.268C81.6926 250.204 91.2464 246.811 103.044 242.68C114.849 238.549 124.427 235.251 124.451 235.307Z" fill="#E0E0E0"/>
<path d="M102.029 250.537C102.037 250.553 101.791 250.656 101.339 250.831C100.848 251.013 100.205 251.251 99.4206 251.544C97.7952 252.131 95.5515 252.932 93.0699 253.804C90.5804 254.676 88.3287 255.453 86.6955 256C85.9026 256.261 85.2525 256.476 84.753 256.642C84.2932 256.785 84.0395 256.864 84.0315 256.848C84.0236 256.832 84.2694 256.729 84.7213 256.555C85.2129 256.372 85.8551 256.135 86.64 255.841C88.2653 255.255 90.509 254.454 92.9986 253.582C95.4801 252.71 97.7397 251.933 99.373 251.386C100.166 251.124 100.816 250.91 101.315 250.743C101.759 250.601 102.021 250.529 102.029 250.537Z" fill="#E0E0E0"/>
<path d="M125.473 238.224C125.497 238.288 115.943 241.681 104.146 245.812C92.3405 249.943 82.763 253.249 82.7392 253.185C82.7154 253.122 92.2692 249.729 104.067 245.598C115.864 241.459 125.45 238.161 125.473 238.224Z" fill="#E0E0E0"/>
<path d="M82.8185 276.463L78.9494 277.819C77.5382 278.31 75.9921 277.573 75.4926 276.154L74.1369 272.285C73.6453 270.873 74.3827 269.327 75.8019 268.828L79.6709 267.472C81.0822 266.981 82.6282 267.718 83.1277 269.137L84.4835 273.006C84.975 274.417 84.2298 275.963 82.8185 276.463Z" fill="#EBEBEB"/>
<path d="M79.1952 274.14C79.1318 274.164 79.0604 274.156 79.0129 274.124L77.2369 273.093C77.1338 273.03 77.0942 272.895 77.1576 272.792C77.221 272.689 77.3558 272.649 77.4589 272.713L79.0208 273.617L80.8919 269.613C80.9474 269.502 81.0742 269.454 81.1852 269.51C81.2962 269.565 81.3438 269.692 81.2883 269.803L79.3141 274.029C79.2983 274.077 79.2507 274.116 79.1952 274.14Z" fill="white"/>
<path d="M129.977 251.084C130 251.148 120.447 254.541 108.649 258.672C96.8438 262.802 87.2663 266.109 87.2425 266.045C87.2188 265.982 96.7725 262.588 108.57 258.458C120.367 254.327 129.953 251.021 129.977 251.084Z" fill="#E0E0E0"/>
<path d="M107.547 266.315C107.555 266.33 107.309 266.434 106.857 266.608C106.366 266.79 105.724 267.028 104.939 267.322C103.313 267.908 101.07 268.709 98.5881 269.581C96.0986 270.453 93.8469 271.23 92.2136 271.777C91.4208 272.039 90.7707 272.253 90.2712 272.42C89.8113 272.562 89.5576 272.641 89.5497 272.626C89.5418 272.61 89.7875 272.507 90.2395 272.332C90.731 272.15 91.3732 271.912 92.1581 271.619C93.7835 271.032 96.0272 270.231 98.5167 269.359C100.998 268.487 103.258 267.71 104.891 267.163C105.684 266.901 106.334 266.687 106.834 266.521C107.286 266.378 107.547 266.299 107.547 266.315Z" fill="#E0E0E0"/>
<path d="M130.999 254.002C131.023 254.065 121.469 257.459 109.672 261.589C97.8666 265.72 88.2891 269.026 88.2653 268.963C88.2415 268.899 97.7952 265.506 109.593 261.375C121.39 257.237 130.976 253.938 130.999 254.002Z" fill="#E0E0E0"/>
<path d="M46.2923 186.23L48.2348 191.772C49.3606 194.991 52.8808 196.68 56.0998 195.554L96.7725 181.314C99.9914 180.188 101.68 176.668 100.554 173.449L98.6198 167.915L46.2923 186.23Z" fill="#E0E0E0"/>
<path d="M72.9952 178.714C69.9824 179.768 66.6763 178.175 65.6218 175.162C64.5673 172.149 66.1609 168.843 69.1737 167.788C72.1865 166.734 75.4926 168.328 76.5471 171.34C77.5937 174.353 76.0001 177.659 72.9952 178.714ZM69.9031 169.889C68.0479 170.54 67.0647 172.577 67.7149 174.432C68.365 176.288 70.4026 177.271 72.2578 176.621C74.1131 175.971 75.0962 173.933 74.4461 172.078C73.796 170.222 71.7584 169.239 69.9031 169.889Z" fill="#E0E0E0"/>
<path d="M105.502 193.096C105.541 193.199 94.8141 197.052 81.5499 201.698C68.2857 206.344 57.5031 210.023 57.4634 209.92C57.4238 209.817 68.1509 205.964 81.4151 201.318C94.6794 196.672 105.462 192.993 105.502 193.096Z" fill="#E0E0E0"/>
<path d="M91.7617 195.07C91.8014 195.173 87.076 196.925 81.217 198.979C75.3579 201.032 70.577 202.61 70.5374 202.507C70.4977 202.404 75.2231 200.652 81.0822 198.598C86.9492 196.545 91.73 194.967 91.7617 195.07Z" fill="#E0E0E0"/>
<path d="M303.062 355.723C305.908 354.256 309.262 354.066 312.425 354.589C314.122 354.867 315.898 355.374 317.047 356.651C318.205 357.927 318.419 360.171 317.095 361.265C316.302 361.915 315.2 362.018 314.177 362.003C311.704 361.971 308.96 361.535 306.978 363.025C305.852 363.874 305.099 365.285 303.751 365.705C302.435 366.117 300.945 365.333 300.247 364.143C299.549 362.954 299.525 361.463 299.851 360.124C299.851 360.131 300.191 357.206 303.062 355.723Z" fill="#2EB19F"/>
<path d="M296.536 343.133C298.281 345.623 301.658 344.798 303.228 343.276C304.798 341.761 305.464 339.557 306.066 337.456C307.446 332.66 308.833 327.633 307.811 322.749C307.501 321.29 306.954 319.831 305.932 318.753C304.909 317.667 303.331 317.025 301.888 317.405C300.184 317.857 299.121 319.53 298.352 321.116C296.1 325.786 294.903 330.971 294.887 336.156C294.887 338.59 295.173 341.127 296.536 343.133Z" fill="#2EB19F"/>
<path d="M291.756 346.701C293.643 344.457 294.007 341.183 293.167 338.376C292.327 335.561 290.424 333.175 288.235 331.224C285.667 328.933 282.646 327.157 279.403 326.016C278.127 325.564 276.779 325.215 275.431 325.342C274.083 325.468 272.727 326.158 272.101 327.355C271.174 329.131 272.062 331.28 273.029 333.032C274.725 336.124 276.668 339.082 278.832 341.864C280.569 344.108 282.567 346.32 285.215 347.327C287.863 348.342 290.614 348.223 292.025 346.384" fill="#2EB19F"/>
<path d="M296.425 380.642C296.457 380.642 296.513 380.238 296.584 379.508C296.663 378.684 296.766 377.653 296.885 376.424C297.028 375.124 297.218 373.586 297.583 371.897C297.94 370.216 298.503 368.401 299.224 366.561C299.969 364.73 300.881 363.065 301.952 361.733C303.006 360.393 304.243 359.426 305.4 358.871C306.55 358.3 307.589 358.07 308.302 357.967C309.024 357.896 309.428 357.832 309.428 357.801C309.428 357.769 309.024 357.761 308.286 357.785C307.549 357.832 306.479 358.023 305.258 358.57C304.037 359.109 302.729 360.092 301.619 361.463C300.501 362.827 299.557 364.524 298.796 366.395C298.059 368.274 297.504 370.105 297.163 371.818C296.822 373.53 296.663 375.092 296.56 376.4C296.465 377.709 296.425 378.771 296.41 379.5C296.378 380.238 296.394 380.642 296.425 380.642Z" fill="#263238"/>
<path d="M296.632 378.272C296.648 378.272 296.655 378.089 296.663 377.748C296.663 377.352 296.663 376.86 296.655 376.25C296.655 374.95 296.655 373.063 296.719 370.74C296.838 366.086 297.234 361.083 298.011 354.027C298.741 347.391 299.724 339.668 300.762 334.65C300.984 333.508 301.206 332.477 301.42 331.581C301.619 330.677 301.793 329.9 301.96 329.274C302.102 328.68 302.221 328.196 302.308 327.815C302.38 327.482 302.419 327.3 302.404 327.3C302.388 327.292 302.324 327.466 302.221 327.792C302.11 328.172 301.96 328.648 301.785 329.227C301.595 329.853 301.397 330.622 301.167 331.518C300.929 332.414 300.683 333.437 300.437 334.578C299.415 339.129 298.32 345.488 297.543 352.56C296.766 359.632 296.418 366.07 296.386 370.732C296.362 373.063 296.41 374.95 296.465 376.25C296.505 376.86 296.537 377.352 296.56 377.748C296.6 378.089 296.616 378.272 296.632 378.272Z" fill="#263238"/>
<path d="M296.663 365.856C296.695 365.856 296.687 365.301 296.655 364.286C296.6 363.279 296.457 361.828 296.18 360.044C295.878 358.268 295.458 356.151 294.8 353.86C294.515 352.814 293.841 350.3 292.216 346.542C290.075 341.452 287.157 337.298 284.62 334.721C284.025 334.039 283.367 333.547 282.836 333.064C282.559 332.834 282.321 332.604 282.075 332.422C281.829 332.247 281.599 332.089 281.385 331.946C280.553 331.375 280.085 331.074 280.069 331.106C279.998 331.209 281.94 332.35 284.39 334.959C286.832 337.567 289.663 341.698 291.795 346.74C292.985 349.476 293.809 351.918 294.396 353.987C295.078 356.262 295.522 358.348 295.863 360.108C296.188 361.876 296.37 363.311 296.489 364.31C296.568 365.301 296.632 365.856 296.663 365.856Z" fill="#263238"/>
<path d="M284.66 387.762L285.904 404.808H307.811L309.055 387.762H284.66Z" fill="#263238"/>
<path d="M311.672 381.039H282.551V387.762H311.672V381.039Z" fill="#263238"/>
<path d="M282.551 404.15V406.013H283.914H311.18V404.15H282.551Z" fill="#455A64"/>
<path d="M285.254 409.296L283.914 406.013H310.142L308.58 409.296H285.254Z" fill="#455A64"/>
<path d="M308.643 393.328C308.651 393.328 308.611 393.383 308.54 393.486C308.453 393.605 308.342 393.748 308.215 393.922C307.906 394.319 307.478 394.866 306.939 395.556L306.883 395.627L306.828 395.548C306.027 394.438 304.956 392.955 303.696 391.211H303.878C302.943 392.535 301.904 394.002 300.794 395.579L300.699 395.714L300.588 395.587C299.446 394.231 298.209 392.765 296.925 391.235H297.139C297.076 391.314 297.004 391.401 296.941 391.488C295.807 392.907 294.705 394.287 293.666 395.587L293.555 395.722L293.452 395.579C292.342 394.009 291.304 392.535 290.368 391.211L290.551 391.219C289.028 392.955 287.736 394.422 286.745 395.548L286.674 395.627L286.626 395.54C286.126 394.699 285.722 394.025 285.437 393.542C285.31 393.328 285.215 393.145 285.127 393.011C285.064 392.892 285.032 392.82 285.032 392.82C285.04 392.82 285.08 392.876 285.159 392.987C285.246 393.122 285.357 393.288 285.5 393.502C285.801 393.978 286.222 394.636 286.753 395.468L286.634 395.46C287.609 394.319 288.878 392.828 290.376 391.076L290.471 390.965L290.558 391.084C291.502 392.408 292.556 393.867 293.674 395.437L293.468 395.429C294.507 394.12 295.601 392.749 296.735 391.322C296.806 391.235 296.869 391.147 296.933 391.068L297.036 390.941L297.147 391.068C298.431 392.598 299.66 394.073 300.794 395.429L300.588 395.437C301.714 393.867 302.76 392.4 303.704 391.092L303.799 390.965L303.886 391.092C305.123 392.852 306.169 394.35 306.954 395.476H306.843C307.406 394.802 307.85 394.271 308.167 393.883C308.31 393.716 308.429 393.581 308.524 393.47C308.596 393.375 308.643 393.328 308.643 393.328Z" fill="#E0E0E0"/>
<path d="M309.357 387.643C309.357 387.722 303.87 387.778 297.099 387.778C290.329 387.778 284.842 387.714 284.842 387.643C284.842 387.572 290.329 387.508 297.099 387.508C303.87 387.508 309.357 387.572 309.357 387.643Z" fill="#455A64"/>
<path d="M310.467 406.203C310.467 406.283 304.505 406.338 297.147 406.338C289.789 406.338 283.827 406.275 283.827 406.203C283.827 406.132 289.789 406.069 297.147 406.069C304.497 406.061 310.467 406.124 310.467 406.203Z" fill="#263238"/>
<path d="M94.4257 351.815C94.3622 351.886 93.8628 351.593 93.3078 351.141C92.7528 350.697 92.3484 350.276 92.4119 350.197C92.4753 350.126 92.9748 350.427 93.5298 350.871C94.0847 351.315 94.4812 351.735 94.4257 351.815Z" fill="#263238"/>
<path d="M109.609 329.116C109.704 326.991 109.759 324.818 109.093 322.805C108.427 320.791 106.873 318.936 104.788 318.507C102.417 318.016 99.9835 319.514 98.6515 321.536C97.3195 323.558 96.8676 326.023 96.4712 328.41C93.7676 344.885 92.7686 361.638 93.498 378.319L103.21 379.683C107.476 362.264 108.84 347.034 109.609 329.116Z" fill="#455A64"/>
<path d="M103.448 318.428C103.456 318.428 103.44 318.484 103.401 318.587C103.361 318.706 103.305 318.848 103.242 319.031C103.084 319.443 102.869 319.998 102.592 320.711C102.457 321.076 102.275 321.473 102.132 321.924C101.989 322.376 101.831 322.868 101.664 323.391C101.498 323.922 101.315 324.485 101.117 325.08C100.959 325.69 100.792 326.333 100.618 327.007C99.8884 329.694 99.2779 332.969 98.7387 336.616C98.2155 340.271 97.8666 344.314 97.5971 348.564C97.0976 357.071 97.0262 364.793 96.8042 370.375C96.7011 373.166 96.606 375.425 96.495 376.987C96.4474 377.74 96.3999 378.343 96.3761 378.779C96.3602 378.969 96.3444 379.12 96.3364 379.247C96.3285 379.35 96.3206 379.405 96.3126 379.405C96.3047 379.405 96.3047 379.35 96.3047 379.247C96.3047 379.12 96.3047 378.969 96.3126 378.779C96.3285 378.343 96.3444 377.74 96.3681 376.979C96.4316 375.417 96.495 373.158 96.5664 370.367C96.7249 364.785 96.7646 357.063 97.2561 348.54C97.5257 344.283 97.8825 340.231 98.4295 336.568C98.9845 332.913 99.6188 329.639 100.388 326.943C100.57 326.269 100.745 325.627 100.911 325.017C101.109 324.422 101.308 323.859 101.482 323.328C101.664 322.805 101.831 322.313 101.981 321.861C102.132 321.409 102.322 321.021 102.473 320.656C102.774 319.958 103.012 319.403 103.179 318.999C103.258 318.824 103.321 318.69 103.369 318.571C103.416 318.476 103.44 318.428 103.448 318.428Z" fill="#263238"/>
<path d="M104.344 318.436C104.344 318.436 104.939 319.046 105.533 320.442C106.144 321.829 106.524 324.033 106.421 326.721C106.16 332.089 105.684 339.478 105.042 347.644C104.4 355.81 103.686 363.184 103.115 368.52C102.83 371.184 102.584 373.34 102.402 374.831C102.306 375.552 102.235 376.123 102.18 376.543C102.156 376.718 102.132 376.868 102.116 376.987C102.1 377.09 102.084 377.138 102.084 377.138C102.077 377.138 102.077 377.082 102.084 376.987C102.092 376.868 102.1 376.718 102.116 376.535C102.156 376.115 102.203 375.536 102.275 374.815C102.417 373.293 102.632 371.136 102.885 368.488C103.393 363.152 104.067 355.771 104.709 347.605C105.343 339.446 105.866 332.049 106.183 326.705C106.318 324.033 105.985 321.869 105.414 320.482C104.859 319.102 104.304 318.46 104.344 318.436Z" fill="#263238"/>
<path d="M111.075 343.561C111.044 343.648 110.219 343.442 109.236 343.085C108.253 342.729 107.484 342.372 107.515 342.285C107.547 342.197 108.372 342.404 109.355 342.76C110.338 343.109 111.107 343.474 111.075 343.561Z" fill="#263238"/>
<path d="M112.249 333.666C112.288 333.754 111.503 334.19 110.497 334.642C109.49 335.094 108.641 335.387 108.602 335.3C108.562 335.212 109.347 334.776 110.354 334.324C111.361 333.873 112.209 333.579 112.249 333.666Z" fill="#263238"/>
<path d="M111.638 325.587C111.63 325.683 110.98 325.714 110.187 325.659C109.394 325.603 108.76 325.484 108.76 325.389C108.768 325.294 109.418 325.262 110.211 325.318C111.004 325.373 111.646 325.492 111.638 325.587Z" fill="#263238"/>
<path d="M101.617 320.418C101.537 320.466 101.109 319.942 100.665 319.237C100.221 318.531 99.928 317.921 100.007 317.865C100.087 317.818 100.515 318.341 100.959 319.046C101.411 319.752 101.704 320.363 101.617 320.418Z" fill="#263238"/>
<path d="M98.3106 325.302C98.3106 325.397 97.6922 325.461 96.931 325.445C96.1699 325.429 95.5594 325.342 95.5594 325.239C95.5594 325.143 96.1778 325.08 96.939 325.096C97.7001 325.112 98.3106 325.207 98.3106 325.302Z" fill="#263238"/>
<path d="M95.9321 335.07C95.8924 335.157 95.2502 334.983 94.4812 334.673C93.7121 334.364 93.1254 334.039 93.1571 333.952C93.1968 333.865 93.839 334.039 94.608 334.348C95.3771 334.658 95.9638 334.983 95.9321 335.07Z" fill="#263238"/>
<path d="M95.6783 343.284C95.6942 343.379 95.1471 343.569 94.4415 343.72C93.7359 343.87 93.1571 343.91 93.1333 343.815C93.1175 343.72 93.6645 343.529 94.3702 343.379C95.0758 343.236 95.6546 343.196 95.6783 343.284Z" fill="#263238"/>
<path d="M94.5604 356.73C94.5763 356.825 93.9896 357.008 93.2523 357.142C92.507 357.277 91.8965 357.309 91.8807 357.214C91.8648 357.119 92.4515 356.936 93.1888 356.802C93.9262 356.667 94.5446 356.635 94.5604 356.73Z" fill="#263238"/>
<path d="M93.8152 364.151C93.8627 364.238 93.3712 364.579 92.7211 364.928C92.0709 365.269 91.508 365.483 91.4684 365.396C91.4208 365.309 91.9124 364.968 92.5625 364.619C93.2126 364.27 93.7676 364.064 93.8152 364.151Z" fill="#263238"/>
<path d="M99.8725 372.571C99.7932 372.619 99.3651 372.032 98.9211 371.255C98.4771 370.478 98.1837 369.812 98.271 369.764C98.3502 369.717 98.7784 370.304 99.2224 371.081C99.6664 371.857 99.9597 372.523 99.8725 372.571Z" fill="#263238"/>
<path d="M101.625 358.577C101.688 358.649 101.22 359.22 100.562 359.862C99.9121 360.504 99.3254 360.964 99.2541 360.9C99.1906 360.829 99.6584 360.258 100.316 359.616C100.975 358.974 101.553 358.506 101.625 358.577Z" fill="#263238"/>
<path d="M101.236 351.228C101.165 351.291 100.729 350.934 100.253 350.419C99.7773 349.912 99.4523 349.444 99.5236 349.373C99.595 349.309 100.031 349.666 100.507 350.181C100.982 350.697 101.308 351.164 101.236 351.228Z" fill="#263238"/>
<path d="M102.441 341.849C102.513 341.912 102.116 342.475 101.553 343.093C100.99 343.72 100.483 344.172 100.412 344.108C100.34 344.045 100.737 343.482 101.3 342.863C101.855 342.237 102.37 341.785 102.441 341.849Z" fill="#263238"/>
<path d="M103.115 335.038C103.052 335.109 102.497 334.673 101.878 334.071C101.26 333.468 100.816 332.921 100.887 332.85C100.951 332.778 101.506 333.215 102.124 333.817C102.735 334.428 103.179 334.975 103.115 335.038Z" fill="#263238"/>
<path d="M104.447 325.833C104.526 325.881 104.249 326.499 103.829 327.213C103.401 327.926 102.996 328.465 102.909 328.41C102.83 328.362 103.107 327.744 103.527 327.03C103.948 326.325 104.36 325.786 104.447 325.833Z" fill="#263238"/>
<path d="M106.945 317.302C107.032 317.35 106.786 317.968 106.398 318.682C106.009 319.395 105.629 319.942 105.541 319.895C105.454 319.847 105.7 319.229 106.088 318.515C106.477 317.802 106.857 317.263 106.945 317.302Z" fill="#263238"/>
<path d="M109.783 321.179C109.823 321.266 109.434 321.536 108.919 321.79C108.396 322.036 107.944 322.17 107.904 322.083C107.864 321.996 108.253 321.726 108.768 321.473C109.283 321.227 109.743 321.092 109.783 321.179Z" fill="#263238"/>
<path d="M109.846 351.815C109.831 351.902 108.951 351.783 107.944 351.355C106.945 350.927 106.247 350.379 106.294 350.3C106.35 350.213 107.111 350.625 108.078 351.038C109.054 351.45 109.87 351.719 109.846 351.815Z" fill="#263238"/>
<path d="M108.689 358.3C108.705 358.395 108.126 358.585 107.381 358.728C106.643 358.871 106.025 358.91 106.009 358.815C105.993 358.72 106.572 358.53 107.317 358.387C108.055 358.244 108.673 358.205 108.689 358.3Z" fill="#263238"/>
<path d="M107.262 369.423C107.206 369.495 106.461 368.987 105.787 368.123C105.105 367.267 104.78 366.427 104.859 366.387C104.947 366.339 105.399 367.077 106.057 367.909C106.715 368.742 107.333 369.352 107.262 369.423Z" fill="#263238"/>
<path d="M91.6587 374.514C91.5952 374.442 91.9917 373.998 92.5387 373.53C93.0858 373.063 93.5853 372.738 93.6487 372.809C93.7121 372.88 93.3157 373.324 92.7686 373.792C92.2136 374.268 91.7221 374.585 91.6587 374.514Z" fill="#263238"/>
<path d="M87.1712 350.237C86.5369 348.263 85.3556 345.963 83.2783 345.932C82.0494 345.916 80.9395 346.796 80.3686 347.882C79.7898 348.968 79.5441 350.229 79.5837 351.458C79.8216 359.576 81.2249 368.861 84.0395 377.32H91.619C91.5159 367.917 90.0333 359.18 87.1712 350.237Z" fill="#455A64"/>
<path d="M73.463 337.813C72.4006 333.571 69.2451 331.288 65.5742 331.074C62.2205 331.661 60.9202 334.959 60.5238 338.336C60.1274 341.714 61.1739 345.075 62.2126 348.318C65.5425 358.72 68.8645 369.122 72.1944 379.532C75.3341 379.191 78.4817 378.842 81.6213 378.502C78.6323 364.563 76.9198 351.64 73.463 337.813Z" fill="#455A64"/>
<path d="M83.2863 345.932C83.318 345.955 82.9771 346.273 82.6441 347.002C82.319 347.739 82.1604 348.913 82.2873 350.356C82.4379 351.799 82.5965 353.535 82.8423 355.43C83.0881 357.333 83.429 359.418 83.8571 361.598C84.7134 365.951 85.6807 369.86 86.2911 372.706C86.6003 374.133 86.8382 375.283 86.9809 376.083C87.0443 376.448 87.0998 376.757 87.1395 377.011C87.1712 377.225 87.187 377.336 87.1712 377.336C87.1553 377.336 87.1236 377.233 87.0681 377.027C87.0047 376.781 86.9333 376.48 86.8461 376.115C86.6479 375.267 86.3784 374.141 86.0454 372.761C85.3714 369.931 84.3645 366.03 83.5083 361.662C83.0801 359.481 82.7471 357.38 82.5172 355.47C82.3983 354.51 82.319 353.598 82.2397 352.742C82.1684 351.894 82.0812 351.101 82.0336 350.364C81.9305 348.905 82.1287 347.684 82.5093 346.939C82.8978 346.209 83.2863 345.932 83.2863 345.932Z" fill="#263238"/>
<path d="M65.709 330.804C65.7407 330.836 65.2095 331.28 64.5673 332.334C63.933 333.373 63.2591 335.07 63.1323 337.266C62.9896 339.462 63.4811 342.063 64.2977 344.861C65.1223 347.668 66.0341 350.744 66.9855 353.979C68.8645 360.441 70.5691 366.292 71.8139 370.573C72.4085 372.674 72.8921 374.387 73.241 375.616C73.3916 376.186 73.5185 376.646 73.6136 376.987C73.6929 377.304 73.7325 377.471 73.7167 377.471C73.7087 377.471 73.6453 377.312 73.5423 377.003C73.4313 376.662 73.2885 376.21 73.1062 375.647C72.7336 374.426 72.2103 372.73 71.576 370.637C70.3075 366.363 68.5711 360.528 66.6525 354.074C65.709 350.839 64.8052 347.755 63.9885 344.941C63.1798 342.134 62.7041 339.478 62.8865 337.242C63.0451 335.006 63.7665 333.286 64.4484 332.255C65.1381 331.217 65.709 330.804 65.709 330.804Z" fill="#263238"/>
<path d="M79.5599 377.495C79.552 377.503 79.4727 377.344 79.3459 377.043C79.219 376.741 79.0208 376.297 78.8067 375.719C78.3548 374.561 77.784 372.857 77.1814 370.708C76.5788 368.567 75.9921 365.983 75.4213 363.105C74.8742 360.219 74.2717 357.047 73.6453 353.725C72.9873 350.403 72.2579 347.264 71.4095 344.457C70.5612 341.65 69.6177 339.185 68.6584 337.187C67.707 335.189 66.7952 333.643 66.1133 332.604C65.7883 332.073 65.4949 331.692 65.3205 331.415C65.1382 331.145 65.0509 330.995 65.0589 330.987C65.0668 330.979 65.1778 331.114 65.376 331.367C65.5663 331.629 65.8834 332.002 66.2244 332.517C66.9458 333.532 67.8893 335.07 68.8724 337.068C69.8635 339.066 70.8387 341.531 71.7029 344.346C72.575 347.161 73.3123 350.308 73.9704 353.638C74.5888 356.968 75.1834 360.139 75.7226 363.025C76.2776 365.903 76.8326 368.488 77.4034 370.629C77.9663 372.769 78.5054 374.482 78.9177 375.655C79.108 376.242 79.2904 376.694 79.3934 377.003C79.5203 377.32 79.5758 377.487 79.5599 377.495Z" fill="#263238"/>
<path d="M62.3791 346.764C62.4028 346.859 61.8875 347.065 61.2294 347.224C60.5714 347.383 60.0243 347.438 60.0005 347.343C59.9767 347.248 60.4921 347.042 61.1502 346.883C61.8082 346.725 62.3553 346.669 62.3791 346.764Z" fill="#263238"/>
<path d="M61.3801 340.326C61.3722 340.421 60.6586 340.461 59.7865 340.501C58.9144 340.532 58.2008 340.548 58.185 340.453C58.1691 340.358 58.8827 340.184 59.7706 340.152C60.6665 340.112 61.388 340.231 61.3801 340.326Z" fill="#263238"/>
<path d="M62.4425 334.443C62.3791 334.515 61.8717 334.182 61.3008 333.698C60.73 333.215 60.3177 332.763 60.3811 332.691C60.4445 332.62 60.952 332.953 61.5228 333.437C62.0937 333.92 62.5059 334.372 62.4425 334.443Z" fill="#263238"/>
<path d="M65.3205 329.005C65.4156 329.028 65.3919 329.488 65.376 330.035C65.3602 330.59 65.3601 331.05 65.265 331.066C65.1699 331.082 65.0113 330.622 65.0351 330.027C65.043 329.433 65.2254 328.981 65.3205 329.005Z" fill="#263238"/>
<path d="M71.1955 331.565C71.2747 331.621 71.0448 332.089 70.6801 332.604C70.3154 333.119 69.9586 333.5 69.8793 333.444C69.8 333.389 70.03 332.921 70.3947 332.406C70.7594 331.89 71.1162 331.51 71.1955 331.565Z" fill="#263238"/>
<path d="M75.009 338.194C75.0487 338.281 74.5571 338.566 73.9149 338.828C73.2727 339.089 72.7256 339.224 72.6939 339.137C72.6543 339.05 73.1459 338.764 73.7881 338.503C74.4303 338.249 74.9773 338.106 75.009 338.194Z" fill="#263238"/>
<path d="M77.3241 345.012C77.3637 345.099 76.7136 345.464 75.8256 345.662C74.9377 345.868 74.2003 345.813 74.1924 345.718C74.1845 345.622 74.898 345.519 75.7464 345.321C76.6026 345.139 77.2845 344.925 77.3241 345.012Z" fill="#263238"/>
<path d="M66.7001 343.077C66.6049 343.046 66.6763 342.578 66.8507 342.023C67.0251 341.468 67.2392 341.048 67.3264 341.072C67.4216 341.103 67.3502 341.571 67.1758 342.126C67.0093 342.681 66.7952 343.109 66.7001 343.077Z" fill="#263238"/>
<path d="M68.1827 351.64C68.0955 351.601 68.2857 350.966 68.6108 350.221C68.9359 349.476 69.2689 348.905 69.3561 348.945C69.4433 348.984 69.253 349.618 68.9279 350.364C68.6029 351.109 68.2699 351.68 68.1827 351.64Z" fill="#263238"/>
<path d="M64.5198 353.987C64.4801 354.074 63.8855 353.916 63.164 353.686C62.4425 353.456 61.8558 353.25 61.8796 353.154C61.8955 353.059 62.5297 353.123 63.2671 353.353C64.0044 353.583 64.5594 353.9 64.5198 353.987Z" fill="#263238"/>
<path d="M66.6287 360.964C66.6842 361.043 66.2799 361.424 65.7249 361.82C65.1699 362.217 64.6783 362.47 64.6228 362.391C64.5673 362.312 64.9717 361.931 65.5267 361.535C66.0816 361.146 66.5732 360.885 66.6287 360.964Z" fill="#263238"/>
<path d="M68.3254 367.925C68.3492 368.02 67.8497 368.218 67.2075 368.377C66.5653 368.536 66.0341 368.583 66.0103 368.488C65.9865 368.393 66.486 368.195 67.1282 368.036C67.7625 367.877 68.3016 367.83 68.3254 367.925Z" fill="#263238"/>
<path d="M77.5144 350.831C77.562 350.911 77.1338 351.252 76.5154 351.489C75.897 351.727 75.3499 351.751 75.3341 351.656C75.3182 351.561 75.8018 351.386 76.3965 351.164C76.9832 350.935 77.4668 350.744 77.5144 350.831Z" fill="#263238"/>
<path d="M78.8226 361.654C78.7829 361.741 78.2755 361.59 77.6888 361.313C77.1021 361.035 76.6581 360.742 76.6978 360.655C76.7374 360.568 77.2448 360.718 77.8315 360.996C78.4262 361.273 78.8701 361.567 78.8226 361.654Z" fill="#263238"/>
<path d="M81.1456 369.408C81.1139 369.495 80.44 369.321 79.6471 369.003C78.8543 368.694 78.2359 368.369 78.2755 368.282C78.3072 368.195 78.9811 368.369 79.774 368.686C80.5589 368.988 81.1773 369.313 81.1456 369.408Z" fill="#263238"/>
<path d="M68.698 375.473C68.6504 375.386 69.2689 374.973 69.9824 374.403C70.696 373.84 71.251 373.34 71.3223 373.404C71.3937 373.467 70.9418 374.093 70.1965 374.672C69.4512 375.267 68.7377 375.56 68.698 375.473Z" fill="#263238"/>
<path d="M74.8187 371.532C74.7236 371.54 74.5888 371.025 74.351 370.423C74.121 369.812 73.8673 369.344 73.9466 369.281C74.018 369.225 74.4223 369.638 74.676 370.296C74.9297 370.946 74.9139 371.525 74.8187 371.532Z" fill="#263238"/>
<path d="M73.2013 362.217C73.1458 362.296 72.7494 362.106 72.3213 361.796C71.8852 361.487 71.5839 361.17 71.6394 361.091C71.6949 361.011 72.0914 361.202 72.5195 361.511C72.9476 361.82 73.2568 362.137 73.2013 362.217Z" fill="#263238"/>
<path d="M87.4804 347.613C87.5359 347.692 87.1553 348.072 86.6162 348.461C86.085 348.857 85.6093 349.111 85.5459 349.032C85.4904 348.952 85.8709 348.572 86.4101 348.183C86.9413 347.795 87.4249 347.533 87.4804 347.613Z" fill="#263238"/>
<path d="M89.629 353.495C89.6369 353.591 89.0344 353.717 88.2891 353.63C87.5438 353.551 86.9809 353.297 87.0047 353.21C87.0364 353.115 87.6152 353.21 88.3208 353.289C89.0344 353.369 89.6211 353.4 89.629 353.495Z" fill="#263238"/>
<path d="M80.3765 354.819C80.4003 354.915 79.8374 355.113 79.1159 355.16C78.3944 355.208 77.8157 355.089 77.8236 354.994C77.8315 354.899 78.4024 354.867 79.0921 354.819C79.7898 354.764 80.3607 354.724 80.3765 354.819Z" fill="#263238"/>
<path d="M81.1773 349.254C81.1694 349.349 80.6065 349.357 79.9881 349.071C79.3697 348.786 79.0129 348.35 79.0763 348.286C79.1397 348.215 79.5679 348.5 80.1308 348.754C80.6937 349.024 81.1853 349.159 81.1773 349.254Z" fill="#263238"/>
<path d="M90.4218 359.814C90.3743 359.894 89.7955 359.624 89.1295 359.204C88.4635 358.784 87.972 358.387 88.0195 358.3C88.0671 358.221 88.6459 358.49 89.3119 358.911C89.9778 359.331 90.4773 359.735 90.4218 359.814Z" fill="#263238"/>
<path d="M112.994 376.321H63.6397V385.066H112.994V376.321Z" fill="#2EB19F"/>
<path d="M67.3264 383.338L73.3282 409.478H102.743L109.315 383.338H67.3264Z" fill="#2EB19F"/>
<path d="M112.97 385.082C112.97 385.177 101.839 385.257 88.1067 385.257C74.3747 385.257 63.2433 385.177 63.2433 385.082C63.2433 384.987 74.3747 384.908 88.1067 384.908C101.839 384.908 112.97 384.987 112.97 385.082Z" fill="#263238"/>
<path d="M85.5221 355.01C85.4428 355.057 85.1019 354.669 84.7689 354.13C84.4359 353.591 84.2297 353.115 84.309 353.067C84.3883 353.02 84.7292 353.408 85.0622 353.947C85.3952 354.479 85.6014 354.954 85.5221 355.01Z" fill="#263238"/>
<path d="M85.5379 362.042C85.4507 362.01 85.5617 361.416 85.7996 360.71C86.0295 360.005 86.2991 359.458 86.3863 359.489C86.4735 359.521 86.3625 360.116 86.1246 360.821C85.8947 361.527 85.6331 362.074 85.5379 362.042Z" fill="#263238"/>
<path d="M87.9482 369.431C87.861 369.471 87.4963 368.884 87.1236 368.115C86.7589 367.346 86.529 366.688 86.6162 366.649C86.7034 366.609 87.0681 367.196 87.4408 367.965C87.8055 368.734 88.0354 369.392 87.9482 369.431Z" fill="#263238"/>
<path d="M82.7392 375.378C82.6679 375.314 82.9612 374.855 83.3973 374.355C83.8333 373.856 84.2456 373.499 84.317 373.562C84.3883 373.626 84.095 374.085 83.6589 374.585C83.2229 375.084 82.8106 375.441 82.7392 375.378Z" fill="#263238"/>
<path d="M81.6451 364.587C81.6292 364.682 81.1535 364.674 80.5827 364.579C80.0118 364.476 79.5678 364.318 79.5837 364.23C79.5996 364.135 80.0753 364.143 80.6461 364.238C81.209 364.333 81.6609 364.492 81.6451 364.587Z" fill="#263238"/>
<path d="M253.35 316.208H136.311V409.541H253.35V316.208Z" fill="#E0E0E0"/>
<g opacity="0.3">
<g opacity="0.3">
<path opacity="0.3" d="M144.834 316.398C158.614 321.314 173.813 322.361 188.599 322.638C191.66 322.694 194.76 322.694 197.725 323.463C200.69 324.232 203.56 325.897 205.082 328.553C206.739 331.447 206.565 335.07 205.622 338.265C204.678 341.46 203.053 344.409 201.871 347.533C199.802 353.004 199.16 359.014 200.024 364.793C200.389 367.251 201.047 369.725 202.466 371.77C203.885 373.808 206.177 375.362 208.666 375.402C213.114 375.465 216.158 371.096 218.362 367.227C227.409 351.378 237.192 333.365 242.98 316.065L144.834 316.398Z" fill="black"/>
</g>
</g>
<path d="M176.191 409.042C176.08 409.042 175.985 388.357 175.985 362.843C175.985 337.321 176.08 316.636 176.191 316.636C176.302 316.636 176.397 337.321 176.397 362.843C176.397 388.357 176.302 409.042 176.191 409.042Z" fill="#455A64"/>
<path d="M224.15 247.231C223.801 244.908 216.848 237.21 216.848 237.21C216.848 237.21 213.368 223.248 212.329 219.133C212.067 218.102 211.512 216.937 210.815 215.763C208.389 211.648 204.829 208.311 200.658 205.964L191.033 200.549L188.726 195.427L165.599 183.542L159.328 194.602C159.328 194.602 144.097 199.447 142.083 202.903C140.069 206.36 143.082 252.694 143.082 252.694C143.082 252.694 136.708 279.428 135.36 284.962C134.02 290.496 135.796 297.093 135.796 297.093L147.142 282.853C150.67 278.429 158.408 276.4 163.966 276.479L211.465 276.685L209.578 263.381L247.983 270.85C247.983 270.85 254.595 257.966 255.111 257.704C255.626 257.451 224.15 247.231 224.15 247.231Z" fill="#2EB19F"/>
<path d="M164.608 198.955C164.275 198.614 167.296 208.81 171.077 219.188C173.115 224.778 174.138 230.708 174.138 236.686V259.536V274.267L196.916 272.721L193.515 247.968C193.515 247.968 190.74 232.001 189.963 225.927C189.249 220.37 186.807 205.29 186.807 205.29C186.807 205.29 174.146 208.667 164.608 198.955Z" fill="white"/>
<path d="M215.143 256.571C215.12 256.571 215.112 256.365 215.143 256C215.175 255.635 215.262 255.104 215.445 254.47C215.794 253.201 216.61 251.497 218.045 250.054C219.488 248.611 221.193 247.794 222.461 247.437C223.096 247.255 223.627 247.168 223.992 247.136C224.356 247.104 224.562 247.112 224.562 247.136C224.57 247.207 223.762 247.294 222.549 247.715C221.336 248.127 219.718 248.952 218.339 250.339C216.959 251.726 216.135 253.344 215.722 254.557C215.302 255.77 215.215 256.579 215.143 256.571Z" fill="#263238"/>
<path d="M216.317 247.548C216.269 247.461 217.76 246.7 219.797 246.541C221.827 246.367 223.429 246.866 223.389 246.969C223.365 247.096 221.78 246.787 219.829 246.954C217.871 247.104 216.364 247.667 216.317 247.548Z" fill="#263238"/>
<g opacity="0.3">
<g opacity="0.3">
<path opacity="0.3" d="M140.783 268.059L138.809 270.303C140.926 272.768 143.677 274.83 146.832 275.607C149.988 276.384 153.262 276.471 156.513 276.487C157.829 276.487 159.161 276.479 160.43 276.114C161.714 275.742 162.919 275.012 164.259 274.933C165.155 274.877 166.035 275.123 166.915 275.313C167.795 275.504 168.723 275.631 169.579 275.353C170.435 275.076 171.181 274.283 171.125 273.387C161.246 270.501 151.05 268.709 140.783 268.059Z" fill="black"/>
</g>
</g>
<path d="M205.796 270.929L200.206 264.991L188.71 262.081C188.71 262.081 178.173 265.236 177.928 265.228C177.674 265.221 168.762 262.794 168.762 262.794L165.646 274.219L181.702 275.321L200.032 274.584C200.032 274.584 200.991 273.696 200.42 273.085C199.858 272.475 203.489 274.116 203.917 274.132C204.337 274.148 205.178 274.481 205.74 273.799C206.129 273.339 206.652 271.841 205.796 270.929Z" fill="#FFBE9D"/>
<path d="M200.42 273.093C200.397 273.149 199.707 272.927 198.597 272.57C197.479 272.213 195.941 271.746 194.22 271.302C192.492 270.858 190.914 270.533 189.773 270.303C188.623 270.073 187.917 269.93 187.925 269.875C187.933 269.819 188.663 269.859 189.82 270.017C190.986 270.176 192.587 270.461 194.324 270.905C196.06 271.349 197.606 271.872 198.7 272.301C199.786 272.721 200.444 273.046 200.42 273.093Z" fill="#EB996E"/>
<path d="M205.796 270.929C205.772 270.985 204.813 270.628 203.243 270.104C201.681 269.573 199.493 268.931 197.059 268.249C194.633 267.528 192.468 266.806 190.827 266.711C189.194 266.576 188.195 266.893 188.179 266.814C188.171 266.79 188.409 266.695 188.869 266.584C189.321 266.473 190.003 266.394 190.843 266.418C192.54 266.442 194.768 267.139 197.17 267.853C199.604 268.535 201.792 269.224 203.338 269.827C204.115 270.12 204.734 270.39 205.154 270.58C205.582 270.778 205.804 270.905 205.796 270.929Z" fill="#EB996E"/>
<path d="M142.075 202.903C142.075 202.903 133.79 208.667 131.776 216.96C129.763 225.261 121.025 259.139 122.817 264.214C124.609 269.288 159.454 274.259 159.454 274.259L163.585 256.84L145.889 251.996C145.889 251.996 146.111 235.862 146.341 229.178C146.571 222.494 142.075 202.903 142.075 202.903Z" fill="#2EB19F"/>
<path d="M163.347 259.441L169.048 260.844L165.615 273.989L160.017 273.093L163.347 259.441Z" fill="white"/>
<path d="M122.683 262.422C122.714 262.422 122.667 262.715 122.77 263.246C122.881 263.77 123.222 264.531 123.983 265.22C125.497 266.632 128.391 267.805 132.054 268.463H132.07L132.086 268.471C133.758 269.018 135.669 269.462 137.715 269.922C139.76 270.382 141.956 270.85 144.272 271.317C148.91 272.269 154.039 273.26 159.47 274.283L159.232 274.433C159.629 272.816 160.041 271.111 160.461 269.375C161.437 265.379 162.388 261.502 163.284 257.831L163.427 258.069C157.575 256.396 152.232 254.874 147.705 253.582H147.697H147.689C145.286 252.598 142.9 252.242 140.831 252.377C138.753 252.472 137.009 253.027 135.653 253.59C134.298 254.168 133.33 254.803 132.68 255.239C132.379 255.461 132.141 255.627 131.959 255.762C131.792 255.881 131.705 255.936 131.705 255.928C131.697 255.92 131.776 255.849 131.927 255.722C132.086 255.595 132.308 255.397 132.625 255.159C133.259 254.7 134.218 254.034 135.582 253.423C136.938 252.828 138.698 252.234 140.815 252.115C142.916 251.948 145.358 252.289 147.816 253.272L147.8 253.264C152.343 254.541 157.686 256.039 163.545 257.681L163.728 257.736L163.68 257.926C162.784 261.597 161.841 265.474 160.874 269.47C160.453 271.199 160.033 272.911 159.637 274.528L159.589 274.719L159.399 274.679C153.96 273.656 148.83 272.641 144.2 271.674C141.885 271.191 139.689 270.707 137.643 270.239C135.598 269.763 133.703 269.312 131.998 268.733L132.022 268.741C128.312 268.035 125.418 266.814 123.888 265.332C123.119 264.602 122.794 263.801 122.698 263.254C122.611 262.707 122.683 262.422 122.683 262.422Z" fill="#263238"/>
<path d="M146.84 253.153C146.793 253.209 146.198 252.662 145.136 251.948C144.073 251.235 142.503 250.394 140.64 249.847C138.769 249.308 136.993 249.173 135.717 249.205C134.44 249.237 133.647 249.372 133.64 249.308C133.632 249.269 134.401 249.023 135.709 248.92C137.009 248.809 138.841 248.904 140.759 249.459C142.678 250.022 144.272 250.926 145.31 251.718C146.349 252.503 146.872 253.122 146.84 253.153Z" fill="#263238"/>
<path d="M149.163 224.77C149.195 224.77 149.195 225.15 149.171 225.832C149.155 226.514 149.1 227.505 149.005 228.718C148.807 231.152 148.45 234.514 147.808 238.185C147.181 241.863 146.38 245.154 145.611 247.477C145.413 248.056 145.215 248.579 145.048 249.031C144.858 249.459 144.692 249.839 144.541 250.172C144.216 250.775 144.026 251.1 144.002 251.092C143.978 251.076 144.121 250.727 144.398 250.109C144.525 249.768 144.676 249.38 144.834 248.951C144.985 248.492 145.159 247.976 145.334 247.39C146.032 245.059 146.777 241.776 147.403 238.113C148.038 234.45 148.442 231.113 148.711 228.686C148.83 227.537 148.933 226.578 149.013 225.816C149.076 225.142 149.132 224.77 149.163 224.77Z" fill="#263238"/>
<path d="M169.365 215.787C169.341 215.795 169.286 215.573 169.087 215.2C168.889 214.836 168.54 214.32 167.898 213.9C167.272 213.488 166.313 213.186 165.321 213.519C164.346 213.837 163.387 214.748 163.149 215.985L163.038 216.548L162.792 216.025C161.96 214.225 161.104 212.156 160.366 209.904C159.026 205.821 158.448 201.912 158.574 199.09C158.574 198.384 158.67 197.75 158.717 197.195C158.812 196.64 158.884 196.164 158.971 195.784C159.169 195.023 159.296 194.602 159.32 194.61C159.423 194.626 158.852 196.299 158.868 199.098C158.82 201.881 159.431 205.734 160.763 209.777C161.492 212.005 162.325 214.074 163.133 215.866L162.776 215.906C163.07 214.518 164.148 213.543 165.226 213.218C166.336 212.877 167.383 213.234 168.025 213.71C168.691 214.185 169.032 214.756 169.198 215.145C169.278 215.343 169.333 215.502 169.349 215.613C169.373 215.724 169.381 215.779 169.365 215.787Z" fill="#263238"/>
<path d="M188.694 217.571C188.671 217.571 188.615 217.238 188.512 216.627C188.425 216.017 188.227 215.121 188.346 213.971C188.504 212.845 189.035 211.474 190.256 210.459C190.859 209.96 191.683 209.627 192.563 209.634C193.428 209.634 194.371 209.967 194.99 210.721L194.641 210.919C194.403 210.308 194.149 209.674 193.887 209.024C192.405 205.29 191.089 201.896 190.161 199.439C189.725 198.265 189.36 197.282 189.075 196.521C188.829 195.831 188.702 195.443 188.726 195.427C188.75 195.419 188.924 195.784 189.226 196.457C189.543 197.211 189.947 198.178 190.431 199.335C191.438 201.769 192.793 205.139 194.276 208.881C194.53 209.531 194.783 210.166 195.021 210.776L195.505 211.997L194.672 210.974C194.157 210.34 193.333 210.031 192.563 210.023C191.779 210.015 191.049 210.293 190.486 210.744C189.352 211.648 188.797 212.956 188.623 214.011C188.472 215.097 188.631 216.001 188.671 216.611C188.718 217.23 188.726 217.571 188.694 217.571Z" fill="#263238"/>
<path d="M203.402 219.537C203.513 219.521 205.304 231.572 207.405 246.454C209.506 261.344 211.108 273.419 210.997 273.434C210.886 273.45 209.094 261.399 206.993 246.51C204.9 231.636 203.291 219.553 203.402 219.537Z" fill="#263238"/>
<g opacity="0.3">
<g opacity="0.3">
<path opacity="0.3" d="M160.612 210.031C160.707 213.107 161.381 216.168 162.586 218.982C163.45 217.92 164.41 216.786 165.718 216.477C167.359 216.088 169.008 217.095 170.197 218.324C169.944 217.095 169.531 215.874 168.77 214.907C168.009 213.932 166.844 213.234 165.631 213.266C164.41 213.297 163.205 214.193 162.983 215.422L160.707 210.086" fill="black"/>
</g>
</g>
<path d="M147.221 218.744C147.142 218.744 147.173 217.912 146.928 216.62C146.69 215.327 146.111 213.575 145.001 211.902C144.438 211.07 143.812 210.356 143.185 209.746C142.543 209.159 141.933 208.675 141.37 208.334C140.26 207.629 139.475 207.359 139.499 207.288C139.507 207.264 139.705 207.312 140.069 207.43C140.252 207.486 140.466 207.565 140.712 207.676C140.957 207.787 141.235 207.906 141.528 208.081C142.123 208.398 142.781 208.881 143.455 209.468C144.113 210.079 144.771 210.816 145.35 211.672C146.499 213.401 147.054 215.232 147.221 216.572C147.308 217.238 147.332 217.785 147.3 218.166C147.276 218.538 147.253 218.744 147.221 218.744Z" fill="#263238"/>
<path d="M193.245 162.167C192.31 153.367 184.762 146.762 175.914 146.992L175.034 147.016C165.567 147.817 160.953 156.3 162.015 165.743L164.616 198.955L165.718 200.303C170.808 206.55 179.466 208.596 186.815 205.274L186.086 194.586C186.086 194.586 195.164 192.937 195.045 183.82C194.974 179.411 194.117 170.357 193.245 162.167Z" fill="#FFBE9D"/>
<path d="M186.141 194.578C186.141 194.578 180.33 195.078 174.106 191.391C174.106 191.391 177.087 197.877 186.157 196.822L186.141 194.578Z" fill="#EB996E"/>
<path d="M190.359 169.707C190.399 170.397 189.852 170.999 189.138 171.055C188.425 171.11 187.806 170.603 187.767 169.913C187.727 169.223 188.274 168.621 188.988 168.565C189.701 168.51 190.32 169.017 190.359 169.707Z" fill="#263238"/>
<path d="M190.938 164.752C190.835 164.91 189.804 165.021 188.568 165.687C187.331 166.345 186.593 167.186 186.419 167.17C186.34 167.17 186.411 166.94 186.728 166.567C187.045 166.203 187.632 165.687 188.401 165.275C189.17 164.863 189.892 164.673 190.336 164.633C190.795 164.593 190.994 164.673 190.938 164.752Z" fill="#263238"/>
<path d="M177.198 170.397C177.238 171.087 176.691 171.689 175.977 171.745C175.264 171.8 174.645 171.293 174.606 170.603C174.566 169.913 175.113 169.311 175.827 169.255C176.54 169.2 177.159 169.707 177.198 170.397Z" fill="#263238"/>
<path d="M177 166.663C176.818 166.702 175.969 166.131 174.614 165.79C173.258 165.45 172.156 165.537 172.029 165.418C171.965 165.362 172.172 165.259 172.655 165.22C173.131 165.172 173.908 165.212 174.756 165.418C175.605 165.632 176.263 165.957 176.627 166.211C176.992 166.472 177.087 166.647 177 166.663Z" fill="#263238"/>
<path d="M182.494 177.548C182.486 177.469 183.351 177.295 184.762 177.081C185.119 177.033 185.452 176.954 185.507 176.708C185.586 176.446 185.428 176.066 185.238 175.653C184.881 174.797 184.5 173.901 184.112 172.958C182.542 169.12 181.4 165.957 181.551 165.894C181.709 165.83 183.105 168.89 184.675 172.736C185.055 173.679 185.412 174.583 185.761 175.447C185.904 175.852 186.149 176.304 185.983 176.843C185.896 177.112 185.634 177.31 185.412 177.382C185.182 177.461 184.984 177.469 184.809 177.485C183.382 177.604 182.502 177.628 182.494 177.548Z" fill="#263238"/>
<path d="M177.024 161.255C176.865 161.628 175.478 161.382 173.829 161.501C172.172 161.588 170.824 162.001 170.626 161.652C170.538 161.485 170.784 161.136 171.339 160.796C171.886 160.455 172.75 160.145 173.741 160.082C174.732 160.019 175.628 160.225 176.215 160.494C176.802 160.764 177.087 161.073 177.024 161.255Z" fill="#263238"/>
<path d="M190.906 161.565C190.605 161.89 189.392 161.565 187.949 161.565C186.498 161.525 185.277 161.803 184.992 161.477C184.865 161.319 185.055 160.994 185.586 160.693C186.11 160.383 186.99 160.13 187.989 160.145C188.98 160.161 189.852 160.439 190.351 160.764C190.867 161.081 191.041 161.406 190.906 161.565Z" fill="#263238"/>
<path d="M195.901 154.104C195.727 153.279 194.91 152.574 194.078 152.701C194.522 152.542 194.982 152.376 195.338 152.058C195.695 151.741 195.917 151.234 195.767 150.79C195.537 150.084 194.633 149.942 193.919 149.735C192.984 149.474 192.143 148.911 191.541 148.15C190.676 147.056 190.343 145.629 189.59 144.455C188.623 142.933 186.934 141.878 185.142 141.68C183.343 141.482 181.472 142.14 180.195 143.417C178.8 141.989 176.699 141.284 174.725 141.585C172.75 141.886 170.959 143.187 170.055 144.963C167.637 143.956 164.687 144.368 162.634 146.009C160.588 147.642 159.534 150.433 159.978 153.018L165.654 156.498C165.75 154.746 167.708 153.351 169.397 153.834C171.109 154.326 172.203 156.316 173.987 156.451C175.375 156.554 176.548 155.484 177.896 155.127C179.521 154.691 181.242 155.341 182.708 156.173C184.175 156.998 185.571 158.029 187.204 158.441C189.123 158.924 191.16 158.504 192.992 157.751C193.776 157.434 194.553 157.038 195.132 156.427C195.711 155.801 196.076 154.929 195.901 154.104Z" fill="#263238"/>
<path d="M166.638 153.811L192.643 153.66C191.786 151.892 190.304 150.497 188.702 149.347C185.253 146.881 181.059 145.399 176.818 145.438C172.576 145.478 164.093 150.885 161.104 153.89C158.709 156.3 158.78 158.322 158.78 158.322C158.487 161.699 160.477 165.481 161.318 168.764C161.754 170.46 162.642 175.598 162.642 175.598C164.077 175.55 164.576 174.401 164.315 172.989L163.894 167.44C163.894 167.44 168.667 163.84 166.186 157.577C165.805 157.093 164.949 154.802 166.638 153.811Z" fill="#263238"/>
<path d="M163.498 167.083C162.174 162.476 160.961 157.545 162.364 152.962C162.11 152.954 161.849 152.938 161.595 152.931L161.27 153.168C159.819 152.677 158.075 153.232 157.171 154.477C156.267 155.713 156.275 157.545 157.179 158.782C155.641 158.71 154.158 159.995 154.023 161.533C153.928 162.595 154.388 163.618 154.864 164.569C155.34 165.521 155.847 166.512 155.855 167.574C155.863 168.637 155.181 169.794 154.127 169.921C154.602 171.015 155.918 171.657 157.068 171.348C156.703 172.252 156.077 173.037 155.284 173.6C156.981 174.749 159.304 174.361 161.143 173.465C162.237 172.934 163.308 172.173 163.752 171.047C164.243 169.786 163.863 168.383 163.498 167.083Z" fill="#263238"/>
<path d="M163.07 172.45C162.911 172.387 156.759 170.762 157.116 176.985C157.472 183.209 163.649 181.568 163.656 181.386C163.656 181.211 163.07 172.45 163.07 172.45Z" fill="#FFBE9D"/>
<path d="M162.166 179.126C162.134 179.11 162.063 179.205 161.881 179.3C161.706 179.396 161.405 179.467 161.072 179.364C160.398 179.158 159.787 178.151 159.692 177.025C159.645 176.462 159.732 175.915 159.906 175.455C160.073 174.987 160.342 174.654 160.675 174.575C161 174.48 161.246 174.662 161.333 174.837C161.429 175.003 161.397 175.13 161.429 175.138C161.444 175.154 161.555 175.027 161.492 174.773C161.46 174.654 161.381 174.512 161.222 174.401C161.064 174.29 160.842 174.242 160.612 174.274C160.136 174.337 159.724 174.805 159.534 175.305C159.312 175.812 159.201 176.43 159.256 177.065C159.367 178.317 160.081 179.451 160.993 179.665C161.437 179.752 161.793 179.602 161.976 179.443C162.166 179.277 162.19 179.134 162.166 179.126Z" fill="#EB996E"/>
<path d="M156.608 167.289C156.592 167.305 156.434 167.051 156.497 166.567C156.553 166.092 156.901 165.402 157.663 164.942C158.416 164.482 159.454 164.371 160.517 164.252C161.563 164.141 162.761 163.84 163.363 162.809C163.966 161.802 163.982 160.574 163.847 159.543C163.696 158.496 163.419 157.545 163.284 156.728C162.951 155.079 163.268 154.025 163.323 154.056C163.395 154.064 163.212 155.079 163.617 156.657C163.791 157.45 164.1 158.377 164.283 159.479C164.433 160.566 164.457 161.882 163.767 163.063C163.419 163.642 162.872 164.086 162.285 164.316C161.698 164.554 161.111 164.633 160.564 164.696C159.478 164.791 158.519 164.871 157.829 165.243C157.147 165.6 156.79 166.187 156.687 166.599C156.568 167.019 156.648 167.281 156.608 167.289Z" fill="#455A64"/>
<path d="M155.102 164.57C155.078 164.577 154.967 164.395 154.911 164.007C154.864 163.626 154.888 163.031 155.221 162.405C155.387 162.096 155.625 161.779 155.958 161.517C156.283 161.248 156.727 161.073 157.155 160.962C157.575 160.835 158.019 160.732 158.337 160.478C158.654 160.225 158.796 159.812 158.804 159.337C158.82 158.861 158.749 158.362 158.765 157.862C158.773 157.371 158.828 156.895 158.923 156.451C159.113 155.563 159.439 154.81 159.819 154.223C160.192 153.62 160.794 153.327 161.199 153.343C161.611 153.343 161.785 153.533 161.762 153.549C161.746 153.589 161.555 153.478 161.207 153.533C160.858 153.573 160.414 153.842 160.105 154.405C159.795 154.96 159.518 155.698 159.359 156.538C159.28 156.958 159.24 157.402 159.24 157.87C159.232 158.33 159.312 158.813 159.296 159.361C159.296 159.892 159.098 160.51 158.638 160.851C158.186 161.192 157.694 161.279 157.282 161.398C156.426 161.565 155.855 162.04 155.522 162.587C154.856 163.689 155.197 164.577 155.102 164.57Z" fill="#455A64"/>
<path d="M191.541 148.15C191.58 148.158 191.073 148.491 190.256 148.102C189.86 147.928 189.463 147.547 189.083 147.103C188.702 146.651 188.266 146.168 187.64 145.819C186.427 145.129 184.453 144.947 182.946 146.128C182.177 146.683 181.495 147.468 180.599 148.118C180.155 148.435 179.632 148.721 179.038 148.84C178.451 148.958 177.825 148.871 177.262 148.673C176.136 148.269 175.256 147.579 174.288 147.23C173.321 146.857 172.314 146.691 171.363 146.707C169.444 146.715 167.779 147.436 166.645 148.332C165.488 149.228 164.814 150.227 164.418 150.941C164.029 151.662 163.886 152.106 163.847 152.09C163.831 152.082 163.855 151.971 163.91 151.757C163.966 151.543 164.077 151.234 164.251 150.853C164.608 150.1 165.258 149.03 166.431 148.063C167.581 147.095 169.325 146.287 171.355 146.263C172.362 146.239 173.424 146.398 174.455 146.794C175.502 147.175 176.405 147.864 177.42 148.221C177.928 148.403 178.443 148.467 178.942 148.372C179.442 148.277 179.894 148.031 180.314 147.737C181.154 147.143 181.852 146.358 182.677 145.771C183.493 145.161 184.492 144.859 185.396 144.867C186.308 144.875 187.14 145.129 187.806 145.518C188.48 145.906 188.94 146.461 189.289 146.921C189.654 147.381 189.987 147.737 190.343 147.928C191.057 148.34 191.541 148.102 191.541 148.15Z" fill="#455A64"/>
<path d="M179.038 179.181C179.236 179.134 179.458 180.466 180.758 181.219C182.058 181.972 183.446 181.584 183.493 181.774C183.525 181.853 183.224 182.083 182.621 182.202C182.035 182.321 181.147 182.274 180.354 181.814C179.561 181.354 179.133 180.632 178.998 180.093C178.847 179.546 178.942 179.189 179.038 179.181Z" fill="#263238"/>
<path d="M261.081 303.063C258.726 300.962 255.467 299.987 252.32 300.169L246.96 317.199C250.885 317.374 254.801 319.395 258.591 318.357C261.636 317.524 263.943 314.662 264.363 311.538C264.799 308.414 263.443 305.164 261.081 303.063Z" fill="#2EB19F"/>
<path d="M252.423 299.773C252.431 299.638 253.002 299.527 254.048 299.543C255.079 299.574 256.617 299.685 258.433 300.367C260.256 301.041 262.238 302.421 263.768 304.514C264.537 305.56 265.18 306.805 265.552 308.208C265.933 309.604 265.996 311.166 265.687 312.672C265.378 314.186 264.712 315.606 263.737 316.739C262.761 317.881 261.517 318.666 260.28 319.134C257.782 320.069 255.38 319.919 253.541 319.57C251.685 319.205 250.29 318.666 249.339 318.269C248.395 317.865 247.904 317.564 247.943 317.429C247.983 317.294 248.562 317.334 249.569 317.5C250.576 317.659 252.003 317.968 253.747 318.127C255.475 318.285 257.568 318.23 259.566 317.374C260.557 316.945 261.477 316.311 262.191 315.439C262.912 314.567 263.42 313.457 263.665 312.26C264.181 309.842 263.443 307.423 262.214 305.6C260.978 303.76 259.368 302.444 257.846 301.699C256.316 300.938 254.904 300.597 253.937 300.335C252.962 300.082 252.407 299.915 252.423 299.773Z" fill="#F5F5F5"/>
<path d="M202.767 363.636L191.113 396.293L231.666 411C232.832 407.044 214.676 391.655 214.676 391.655L223.001 371.041L202.767 363.636Z" fill="#2EB19F"/>
<g opacity="0.6">
<g opacity="0.6">
<g opacity="0.6">
<g opacity="0.6">
<g opacity="0.6">
<g opacity="0.6">
<g opacity="0.6">
<g opacity="0.6">
<g opacity="0.6">
<g opacity="0.6">
<path opacity="0.6" d="M202.775 385.352C201.911 385.28 201.047 385.97 200.944 386.826C200.841 387.683 201.53 388.571 202.387 388.65C203.251 388.737 204.305 387.944 204.313 387.08C204.321 386.216 203.457 385.225 202.601 385.344" fill="#2EB19F"/>
</g>
</g>
</g>
</g>
</g>
</g>
</g>
</g>
</g>
</g>
<path d="M191.113 396.293L192.286 392.995L230.81 408.36C230.81 408.36 232.332 409.803 231.666 411L191.113 396.293Z" fill="#2EB19F"/>
<path d="M215.413 391.686C215.334 391.885 214.311 391.615 213.106 391.893C211.893 392.146 211.076 392.82 210.926 392.678C210.759 392.574 211.481 391.496 212.947 391.179C214.406 390.854 215.516 391.52 215.413 391.686Z" fill="#2EB19F"/>
<path d="M219.028 394.993C219.005 395.199 218.022 395.223 217.046 395.817C216.055 396.38 215.556 397.228 215.358 397.149C215.159 397.109 215.445 395.904 216.674 395.191C217.895 394.461 219.092 394.802 219.028 394.993Z" fill="#2EB19F"/>
<path d="M219.591 400.955C219.393 400.931 219.48 399.845 220.384 398.941C221.28 398.037 222.366 397.942 222.39 398.14C222.446 398.346 221.629 398.711 220.9 399.456C220.154 400.194 219.798 401.01 219.591 400.955Z" fill="#2EB19F"/>
<path d="M216.785 386.779C216.634 386.929 215.825 386.327 214.684 385.994C213.542 385.637 212.535 385.701 212.495 385.494C212.432 385.312 213.55 384.884 214.898 385.296C216.238 385.693 216.943 386.66 216.785 386.779Z" fill="#2EB19F"/>
<path d="M217.562 381.617C217.538 381.697 216.705 381.538 215.532 380.872C214.945 380.539 214.287 380.071 213.645 379.445C213.32 379.136 213.003 378.787 212.702 378.406C212.559 378.216 212.384 378.018 212.265 377.709C212.123 377.423 212.186 376.852 212.559 376.623C212.876 376.385 213.296 376.385 213.59 376.488C213.891 376.583 214.113 376.734 214.311 376.868C214.723 377.138 215.096 377.447 215.413 377.756C216.063 378.391 216.531 379.064 216.84 379.667C217.467 380.88 217.514 381.736 217.435 381.752C217.324 381.784 217.086 380.999 216.388 379.929C216.039 379.397 215.564 378.803 214.945 378.248C214.636 377.97 214.287 377.709 213.907 377.463C213.518 377.193 213.153 377.059 212.971 377.209C212.908 377.265 212.892 377.296 212.931 377.455C212.979 377.606 213.114 377.78 213.257 377.97C213.534 378.335 213.819 378.668 214.105 378.969C214.684 379.58 215.278 380.063 215.794 380.436C216.864 381.181 217.609 381.514 217.562 381.617Z" fill="#2EB19F"/>
<path d="M217.205 381.808C217.126 381.816 216.991 380.959 217.379 379.651C217.578 379.001 217.918 378.256 218.466 377.526C218.735 377.162 219.06 376.813 219.433 376.48C219.813 376.163 220.297 375.735 221.098 375.925C221.502 376.052 221.724 376.488 221.74 376.797C221.772 377.122 221.716 377.368 221.677 377.614C221.581 378.113 221.399 378.573 221.185 378.985C220.741 379.802 220.13 380.388 219.56 380.769C218.386 381.53 217.474 381.467 217.482 381.395C217.451 381.269 218.283 381.142 219.25 380.349C219.726 379.96 220.234 379.397 220.582 378.676C220.757 378.311 220.9 377.915 220.971 377.487C221.066 377.035 221.026 376.623 220.852 376.615C220.654 376.535 220.194 376.741 219.901 377.019C219.56 377.304 219.258 377.621 218.997 377.939C218.473 378.581 218.109 379.239 217.871 379.826C217.379 380.999 217.324 381.816 217.205 381.808Z" fill="#2EB19F"/>
<path d="M163.482 276.423C157.33 276.566 151.494 277.438 147.261 281.894C141.639 287.809 134.694 296.244 134.298 302.088C133.711 310.825 138.975 313.425 142.829 315.55C144.533 316.493 146.476 316.914 148.418 316.842L219.52 316.303L221.756 304.26L175.771 292.93L177.682 275.623L163.482 276.423Z" fill="#263238"/>
<path d="M177.666 275.623L200.032 274.592C200.032 274.592 238.667 276.74 246.913 284.296C255.158 291.852 254.128 300.438 251.376 308.676C248.625 316.922 224.42 369.63 224.42 369.63C224.42 369.63 226.386 372.983 225.276 376.329C223.563 381.506 218.965 382.339 218.965 382.339L197.463 374.434C197.463 374.434 194.546 373.404 196.607 370.66C198.668 367.909 200.04 367.402 200.04 367.402V361.907C200.04 361.907 207.596 348.167 208.285 346.28C208.975 344.394 216.214 316.438 216.214 316.438L221.026 308.169C221.026 308.169 209.395 302.698 199.31 298.734L175.763 292.93L177.666 275.623Z" fill="#263238"/>
<path d="M213.946 373.443C213.907 373.499 213.225 372.96 212.059 372.206C210.894 371.453 209.221 370.518 207.247 369.764C205.273 369.019 203.394 368.599 202.022 368.393C200.65 368.179 199.786 368.131 199.794 368.068C199.794 368.02 200.666 367.965 202.062 368.107C203.457 368.242 205.384 368.623 207.397 369.384C209.411 370.153 211.092 371.144 212.234 371.969C213.36 372.793 213.978 373.411 213.946 373.443Z" fill="#455A64"/>
<path d="M224.689 369.669C224.65 369.701 224.166 369.202 223.437 368.353C222.715 367.505 221.748 366.292 220.733 364.92C219.718 363.549 218.854 362.264 218.259 361.321C217.665 360.377 217.332 359.767 217.371 359.735C217.419 359.703 217.839 360.25 218.497 361.154C219.25 362.185 220.107 363.366 221.058 364.674C222.025 365.975 222.897 367.148 223.659 368.171C224.333 369.067 224.737 369.63 224.689 369.669Z" fill="#455A64"/>
<path d="M232.57 300.621C232.586 300.684 231.777 300.859 230.533 301.271C229.288 301.683 227.607 302.381 225.902 303.443C224.206 304.506 222.834 305.711 221.922 306.646C221.003 307.582 220.495 308.232 220.44 308.192C220.4 308.169 220.828 307.455 221.708 306.448C222.58 305.441 223.952 304.173 225.688 303.087C227.425 302.008 229.161 301.334 230.453 300.986C231.738 300.645 232.562 300.573 232.57 300.621Z" fill="#455A64"/>
<path d="M210.577 337.948C210.561 337.948 210.593 337.781 210.664 337.48C210.751 337.139 210.862 336.703 210.997 336.172C211.314 334.983 211.75 333.357 212.281 331.375C213.423 327.284 214.969 321.726 216.682 315.59C217.578 312.513 218.339 309.572 219.203 306.916C220.202 304.276 221.788 302.246 223.254 300.74C224.729 299.233 226.116 298.219 227.1 297.568C227.599 297.251 227.988 297.013 228.257 296.871C228.527 296.72 228.677 296.649 228.677 296.665C228.693 296.696 228.138 297.029 227.187 297.703C226.235 298.385 224.895 299.424 223.46 300.938C222.041 302.444 220.511 304.466 219.56 307.043C218.735 309.667 217.966 312.632 217.078 315.701C215.318 321.829 213.732 327.371 212.559 331.454C211.972 333.429 211.496 335.038 211.148 336.219C210.981 336.743 210.846 337.171 210.743 337.512C210.648 337.797 210.593 337.956 210.577 337.948Z" fill="#455A64"/>
<path d="M190.795 297.679C190.684 297.687 190.209 293.509 189.749 288.34C189.281 283.17 188.996 278.968 189.107 278.96C189.218 278.952 189.693 283.131 190.153 288.3C190.621 293.469 190.906 297.671 190.795 297.679Z" fill="#455A64"/>
<path d="M153.564 308.843C153.5 308.874 153.159 308.2 152.454 307.201C151.756 306.21 150.662 304.926 149.203 303.792C147.744 302.658 146.238 301.897 145.104 301.469C143.97 301.033 143.233 300.859 143.249 300.787C143.257 300.748 144.026 300.811 145.207 301.192C146.388 301.564 147.958 302.302 149.465 303.467C150.963 304.64 152.057 305.988 152.699 307.043C153.35 308.097 153.603 308.827 153.564 308.843Z" fill="#455A64"/>
<path d="M167.272 293.66C167.232 293.723 166.281 293.113 164.64 292.367C162.998 291.614 160.628 290.798 157.908 290.401C155.181 290.013 152.676 290.139 150.892 290.393C149.108 290.647 148.022 290.964 148.006 290.893C147.998 290.869 148.26 290.766 148.743 290.615C149.227 290.449 149.948 290.274 150.844 290.108C152.636 289.775 155.189 289.6 157.964 289.989C160.731 290.393 163.133 291.273 164.759 292.106C165.575 292.518 166.209 292.891 166.63 293.184C167.058 293.469 167.28 293.636 167.272 293.66Z" fill="#455A64"/>
<path d="M220.828 304.252C220.828 304.268 220.63 304.236 220.273 304.157C219.869 304.07 219.346 303.959 218.695 303.816C217.284 303.499 215.31 303.055 212.9 302.516C208.008 301.422 201.237 299.947 193.729 298.464C186.221 296.982 179.402 295.761 174.455 294.904C172.021 294.484 170.031 294.143 168.604 293.898C167.946 293.779 167.415 293.683 167.01 293.612C166.645 293.541 166.455 293.501 166.463 293.485C166.471 293.469 166.661 293.485 167.026 293.533C167.43 293.588 167.962 293.652 168.628 293.739C170.015 293.929 172.029 294.223 174.503 294.611C179.458 295.388 186.292 296.561 193.808 298.052C201.316 299.543 208.087 301.057 212.963 302.222C215.405 302.809 217.371 303.293 218.727 303.649C219.369 303.824 219.893 303.959 220.289 304.07C220.646 304.181 220.828 304.236 220.828 304.252Z" fill="#455A64"/>
<path d="M175.755 294.968C175.676 294.992 175.509 294.024 174.772 292.692C174.399 292.034 173.86 291.297 173.147 290.591C172.441 289.878 171.577 289.156 170.657 288.435C168.802 287.016 166.915 286.009 165.567 285.271C164.204 284.542 163.363 284.09 163.395 284.035C163.419 283.987 164.307 284.344 165.702 285.01C167.089 285.684 169.024 286.659 170.911 288.102C171.847 288.831 172.711 289.561 173.424 290.314C174.146 291.059 174.685 291.844 175.034 292.542C175.383 293.247 175.573 293.858 175.668 294.278C175.763 294.722 175.779 294.968 175.755 294.968Z" fill="#455A64"/>
<path d="M254.952 305.727C255.047 305.814 253.858 307.019 252.93 308.843C251.987 310.658 251.701 312.331 251.575 312.307C251.471 312.307 251.582 310.547 252.558 308.66C253.525 306.749 254.889 305.639 254.952 305.727Z" fill="#263238"/>
<g opacity="0.3">
<g opacity="0.3">
<path opacity="0.3" d="M204.06 224.476L209.15 260.329L209.403 260.9C210.601 248.563 208.753 235.941 204.06 224.476Z" fill="black"/>
</g>
</g>
<path d="M231.468 245.074L214.922 274.021L174.146 274.909L174.043 276.756L213.526 276.463L214.779 276.423L256.474 276.503L264.902 261.97L275.669 246.541C276.375 245.526 275.645 244.147 274.416 244.147L232.8 244.305C232.237 244.313 231.738 244.607 231.468 245.074Z" fill="#E0E0E0"/>
<path d="M264.894 261.97C264.894 261.97 267.035 263.936 266.702 265.601C266.361 267.266 266.48 268.511 264.894 268.622C264.894 268.622 265.005 270.762 262.754 271.103C262.754 271.103 263.237 273.72 260.193 274.172C260.193 274.172 259.257 276.97 257.338 276.289C255.42 275.615 254.183 274.822 254.183 274.822L253.62 273.807C253.62 273.807 250.798 272.745 251.495 271.151C251.915 270.184 253.382 269.93 253.382 269.93C253.382 269.93 252.772 268.511 253.565 267.448C254.238 266.537 256.45 267.29 256.45 267.29C256.45 267.29 256.324 266.116 257.148 265.133C257.901 264.245 261.406 266.663 261.406 266.663L263.324 264.38L264.894 261.97Z" fill="#FFBE9D"/>
<path d="M260.193 274.172C260.129 274.267 258.559 273.395 256.672 272.229C254.786 271.056 253.311 270.033 253.374 269.938C253.438 269.843 255.008 270.707 256.894 271.88C258.774 273.046 260.248 274.077 260.193 274.172Z" fill="#EB996E"/>
<path d="M262.754 271.103C262.698 271.199 261.231 270.429 259.487 269.375C257.743 268.321 256.379 267.393 256.435 267.298C256.49 267.203 257.957 267.972 259.701 269.026C261.445 270.073 262.809 271.008 262.754 271.103Z" fill="#EB996E"/>
<path d="M259.265 265.363C259.329 265.244 260.637 265.934 262.159 266.901C263.681 267.876 264.91 268.63 264.878 268.709C264.823 268.844 263.459 268.225 261.937 267.25C260.407 266.283 259.218 265.45 259.265 265.363Z" fill="#EB996E"/>
<path d="M275.661 245.249C275.661 245.257 275.59 245.265 275.463 245.273C275.304 245.281 275.114 245.289 274.876 245.296C274.329 245.304 273.576 245.32 272.624 245.336C270.634 245.352 267.812 245.376 264.347 245.4C257.323 245.415 247.682 245.439 237.034 245.463C236.368 245.463 235.702 245.463 235.044 245.463C234.417 245.415 233.855 245.693 233.529 246.177C232.903 247.31 232.285 248.42 231.674 249.522C230.453 251.718 229.28 253.843 228.162 255.865C225.918 259.901 223.896 263.532 222.192 266.592C220.495 269.613 219.108 272.071 218.133 273.807C217.657 274.632 217.284 275.282 217.015 275.757C216.896 275.964 216.793 276.122 216.713 276.257C216.642 276.368 216.602 276.423 216.602 276.423C216.594 276.423 216.626 276.36 216.682 276.241C216.753 276.098 216.84 275.932 216.943 275.718C217.197 275.234 217.554 274.568 217.998 273.728C218.949 271.976 220.289 269.502 221.938 266.449C223.619 263.373 225.617 259.726 227.837 255.675C228.947 253.645 230.12 251.52 231.333 249.316C231.944 248.214 232.562 247.088 233.196 245.947C233.585 245.328 234.362 244.987 235.052 245.043C235.71 245.043 236.376 245.043 237.042 245.043C247.698 245.067 257.338 245.09 264.355 245.106C267.828 245.13 270.642 245.154 272.632 245.17C273.584 245.186 274.337 245.201 274.884 245.209C275.122 245.217 275.312 245.225 275.471 245.233C275.598 245.233 275.661 245.241 275.661 245.249Z" fill="#263238"/>
<path d="M246.326 259.798C245.589 260.614 245.573 261.795 246.286 262.446C247 263.088 248.181 262.953 248.918 262.136C249.656 261.32 249.672 260.138 248.958 259.488C248.237 258.846 247.055 258.981 246.326 259.798Z" fill="white"/>
<g opacity="0.3">
<g opacity="0.3">
<path opacity="0.3" d="M130.571 248.603C130.214 248.745 129.818 248.983 129.81 249.364C129.81 249.673 130.096 249.919 130.397 249.982C130.698 250.046 131.792 249.594 132.094 249.53C136.383 248.587 139.911 249.491 143.994 251.092L144.129 250.957C142.503 247.524 135.186 246.747 130.571 248.603Z" fill="black"/>
</g>
</g>
<path d="M351.48 409.541C351.48 409.652 279.76 409.747 191.319 409.747C102.838 409.747 31.1412 409.652 31.1412 409.541C31.1412 409.43 102.846 409.335 191.319 409.335C279.768 409.335 351.48 409.422 351.48 409.541Z" fill="#263238"/>
<path d="M108.396 156.823C108.53 156.958 134.861 147.912 134.861 147.912L124.736 124.682L101.3 133.641L114.191 141.046L108.396 156.823Z" fill="#455A64"/>
<path d="M120.74 131.675V100.048C120.74 100.048 157.06 93.4121 183.224 93.8006C209.388 94.1891 236.336 98.4863 236.336 98.4863V128.852C236.344 128.852 154.333 121.526 120.74 131.675Z" fill="#455A64"/>
<path d="M120.558 131.706L134.861 148.047V128.852C134.861 128.852 122.897 130.279 120.558 131.706Z" fill="#263238"/>
<path d="M120.74 100.04C120.851 100.04 120.907 107.128 120.851 115.873C120.796 124.618 120.661 131.706 120.55 131.706C120.439 131.706 120.383 124.618 120.439 115.873C120.494 107.128 120.629 100.04 120.74 100.04Z" fill="#263238"/>
<path d="M248.649 154.397C248.514 154.532 222.184 145.486 222.184 145.486L232.309 122.256L255.745 131.215L242.853 138.62L248.649 154.397Z" fill="#455A64"/>
<path d="M236.487 129.28L222.184 145.621V127.813C226.957 127.972 231.722 128.464 236.487 129.28Z" fill="#263238"/>
<path d="M236.344 98.4863C236.455 98.4863 236.582 105.376 236.622 113.883C236.661 122.39 236.606 129.28 236.487 129.28C236.376 129.28 236.249 122.39 236.209 113.883C236.17 105.384 236.225 98.4863 236.344 98.4863Z" fill="#263238"/>
<path d="M141.227 113.915C140.878 111.394 142.567 109.316 145.167 108.96C146.61 108.761 147.895 109.118 148.814 109.967L147.728 111.283C147.078 110.712 146.325 110.482 145.492 110.593C143.931 110.807 142.971 112.068 143.185 113.645C143.407 115.223 144.668 116.167 146.238 115.953C147.078 115.834 147.736 115.405 148.204 114.668L149.607 115.643C148.949 116.722 147.816 117.411 146.357 117.618C143.764 117.974 141.576 116.436 141.227 113.915Z" fill="white"/>
<path d="M149.877 112.726C149.623 110.228 151.375 108.183 154.023 107.905C156.664 107.636 158.812 109.269 159.066 111.774C159.328 114.28 157.56 116.317 154.919 116.595C152.271 116.864 150.139 115.223 149.877 112.726ZM157.1 111.98C156.933 110.387 155.696 109.412 154.198 109.562C152.699 109.713 151.685 110.926 151.843 112.52C152.01 114.113 153.246 115.088 154.745 114.938C156.251 114.787 157.266 113.574 157.1 111.98Z" fill="white"/>
<path d="M168.564 115.366L168.223 110.308L166.011 114.629L165.131 114.684L162.404 110.783L162.721 115.731L160.889 115.849L160.35 107.422L161.96 107.319L165.448 112.353L168.215 106.914L169.817 106.811L170.38 115.239L168.564 115.366Z" fill="white"/>
<path d="M179.482 109.594C179.537 111.473 178.157 112.686 175.898 112.749L174.201 112.797L174.265 115.128L172.314 115.183L172.076 106.74L175.731 106.637C177.983 106.573 179.426 107.707 179.482 109.594ZM177.499 109.649C177.476 108.722 176.857 108.199 175.66 108.23L174.066 108.278L174.146 111.211L175.739 111.164C176.937 111.132 177.523 110.569 177.499 109.649Z" fill="white"/>
<path d="M180.964 106.526H182.915V113.376H187.148V114.969H180.964V106.526Z" fill="white"/>
<path d="M194.76 113.622L194.712 115.191L188.171 115.001L188.417 106.557L194.799 106.74L194.752 108.31L190.312 108.183L190.256 110.014L194.173 110.125L194.125 111.647L190.209 111.536L190.153 113.487L194.76 113.622Z" fill="white"/>
<path d="M198.375 108.532L195.679 108.373L195.774 106.787L203.116 107.231L203.021 108.817L200.325 108.651L199.913 115.485L197.963 115.366L198.375 108.532Z" fill="white"/>
<path d="M210.228 114.779L210.085 116.341L203.576 115.738L204.353 107.326L210.712 107.913L210.569 109.475L206.145 109.063L205.978 110.886L209.879 111.251L209.736 112.765L205.836 112.401L205.653 114.343L210.228 114.779Z" fill="white"/>
<path d="M212.67 108.127L216.468 108.635C219.203 108.999 220.86 110.902 220.519 113.431C220.178 115.968 218.085 117.364 215.35 116.999L211.552 116.492L212.67 108.127ZM215.469 115.398C217.134 115.62 218.347 114.771 218.561 113.17C218.775 111.568 217.823 110.426 216.158 110.212L214.39 109.975L213.701 115.16L215.469 115.398Z" fill="white"/>
<path d="M252.589 101.364L254.667 103.798L260.518 101.364L258.805 98.8034L252.589 101.364Z" fill="#455A64"/>
<path d="M249.91 89.7809C249.91 91.4617 248.546 92.8254 246.865 92.8254C245.184 92.8254 243.821 91.4617 243.821 89.7809C243.821 88.1001 245.184 86.7364 246.865 86.7364C248.546 86.7364 249.91 88.1001 249.91 89.7809Z" fill="#2EB19F"/>
<path d="M181.709 135.195C181.709 136.035 181.028 136.717 180.187 136.717C179.347 136.717 178.665 136.035 178.665 135.195C178.665 134.354 179.347 133.673 180.187 133.673C181.028 133.673 181.709 134.354 181.709 135.195Z" fill="#606060"/>
<path d="M110.79 112.313C110.79 112.956 110.275 113.471 109.632 113.471C108.998 113.471 108.475 112.956 108.475 112.313C108.475 111.671 108.99 111.156 109.632 111.156C110.267 111.156 110.79 111.671 110.79 112.313Z" fill="#2EB19F"/>
<path d="M106.493 99.5725L109.902 99.7787L111.519 93.0712L108.34 93.206L106.493 99.5725Z" fill="#455A64"/>
<path d="M213.05 153.113L214.2 156.332L221.003 155.19L219.631 152.312L213.05 153.113Z" fill="#2EB19F"/>
<path d="M144.248 134.537L142.147 137.232L146.753 142.362L148.45 139.658L144.248 134.537Z" fill="#455A64"/>
<path d="M136.097 71.2047L144.153 79.4185L155.49 75.1372L155.934 77.9518L151.027 87.9971L155.554 95.4973L155.173 97.7411L144.208 95.8938L137.723 103.006L136.2 101.856L134.861 92.8096L124.633 87.4817L124.181 85.4203L134.48 82.5978L136.097 71.2047Z" fill="#2EB19F"/>
<path d="M136.097 71.2047L144.153 79.4185L155.49 75.1372L155.934 77.9518L151.027 87.9971L155.554 95.4973L155.173 97.7411L144.208 95.8938L137.723 103.006L136.2 101.856L134.861 92.8096L124.633 87.4817L124.181 85.4203L134.48 82.5978L136.097 71.2047Z" fill="#207061"/>
<path d="M136.097 68.9055L144.153 77.1193L155.49 75.1372L150.162 85.3331L155.554 95.4973L144.208 93.5945L136.2 101.856L134.512 90.4786L124.181 85.4203L134.48 80.2906L136.097 68.9055Z" fill="#2EB19F"/>
<path d="M219.552 71.2047L211.496 79.4185L200.167 75.1372L199.715 77.9518L204.623 87.9971L200.095 95.4973L200.476 97.7411L211.441 95.8938L217.926 103.006L219.449 101.856L220.789 92.8096L231.016 87.4817L231.468 85.4203L221.169 82.5978L219.552 71.2047Z" fill="#FF725E"/>
<path d="M219.552 71.2047L211.496 79.4185L200.167 75.1372L199.715 77.9518L204.623 87.9971L200.095 95.4973L200.476 97.7411L211.441 95.8938L217.926 103.006L219.449 101.856L220.789 92.8096L231.016 87.4817L231.468 85.4203L221.169 82.5978L219.552 71.2047Z" fill="#207061"/>
<path d="M219.552 68.9055L211.496 77.1193L200.167 75.1372L205.487 85.3331L200.095 95.4973L211.441 93.5945L219.449 101.856L221.137 90.4786L231.468 85.4203L221.169 80.2906L219.552 68.9055Z" fill="#2EB19F"/>
<path d="M177.563 56.8066L184.262 69.8964L199.715 68.9847L199.192 72.5842L189.376 82.9783L192.04 93.8561L190.724 96.4407L178.047 90.0108L167.43 96.2267L166.011 94.2366L167.819 82.6849L157.369 72.2908L157.607 69.6031L171.244 70.0867L177.563 56.8066Z" fill="#FF725E"/>
<path d="M177.563 56.8066L184.262 69.8964L199.715 68.9847L199.192 72.5842L189.376 82.9783L192.04 93.8561L190.724 96.4407L178.047 90.0108L167.43 96.2267L166.011 94.2366L167.819 82.6849L157.369 72.2908L157.607 69.6031L171.244 70.0867L177.563 56.8066Z" fill="#207061"/>
<path d="M178.435 54L185.135 67.0819L199.715 68.9847L189.337 79.4026L192.04 93.8561L178.927 87.2041L166.011 94.2366L168.287 79.7118L157.607 69.6031L172.124 67.2721L178.435 54Z" fill="#2EB19F"/>
<path d="M205.13 171.427L216.325 172.664C219.021 168.827 222.779 165.664 227.401 163.673C240.697 157.949 256.11 164.094 261.834 177.39C267.558 190.686 261.414 206.098 248.118 211.823C234.822 217.547 219.409 211.402 213.685 198.107C211.298 192.557 210.981 186.634 212.384 181.203L212.377 181.219L205.13 171.427Z" fill="#FAFAFA"/>
<path d="M205.13 171.428C205.566 172.014 207.834 175.011 212.464 181.156L212.289 181.164L212.297 181.148C212.321 181.1 212.384 181.076 212.44 181.108C212.48 181.132 212.503 181.179 212.488 181.227C211.56 184.85 211.203 189.615 212.662 194.761C213.035 196.037 213.487 197.345 214.113 198.614C214.43 199.248 214.731 199.898 215.08 200.541C215.469 201.159 215.857 201.785 216.253 202.42C217.958 204.877 220.17 207.193 222.874 209.064C225.569 210.943 228.757 212.386 232.221 213.139C235.686 213.9 239.436 213.987 243.131 213.186C246.817 212.386 250.433 210.76 253.572 208.35C256.696 205.94 259.408 202.784 261.144 199.058C262.936 195.276 263.887 191.138 263.745 187.094C263.634 183.058 262.571 179.15 260.811 175.741C259.051 172.331 256.593 169.39 253.723 167.194C250.869 164.982 247.658 163.459 244.439 162.595C241.212 161.731 237.985 161.533 234.972 161.834C231.952 162.151 229.216 163.055 226.767 164.102C221.891 166.337 218.529 169.715 216.404 172.704C216.38 172.736 216.349 172.752 216.309 172.744C209.229 171.919 205.82 171.515 205.13 171.428C205.828 171.499 209.237 171.84 216.341 172.561L216.246 172.601C218.355 169.572 221.724 166.139 226.648 163.848C229.113 162.77 231.888 161.842 234.941 161.517C237.985 161.2 241.26 161.39 244.534 162.262C247.801 163.126 251.051 164.665 253.961 166.9C256.871 169.12 259.368 172.101 261.168 175.558C262.968 179.015 264.046 182.979 264.165 187.086C264.315 191.193 263.348 195.395 261.533 199.24C259.765 203.03 257.013 206.233 253.834 208.683C250.647 211.133 246.968 212.782 243.226 213.583C239.476 214.384 235.662 214.288 232.15 213.511C228.63 212.734 225.411 211.268 222.676 209.357C219.94 207.446 217.704 205.099 215.992 202.602C215.595 201.96 215.199 201.326 214.811 200.699C214.462 200.049 214.16 199.391 213.843 198.749C213.217 197.464 212.765 196.14 212.392 194.848C210.941 189.639 211.338 184.826 212.297 181.179L212.488 181.259L212.48 181.275C212.456 181.322 212.392 181.346 212.337 181.314C212.321 181.306 212.313 181.298 212.305 181.283C207.77 175.059 205.558 172.014 205.13 171.428Z" fill="#263238"/>
<path d="M228.099 178.412C228.106 178.42 228.114 178.539 228.122 178.777C228.13 179.039 228.138 179.372 228.146 179.792C228.154 180.704 228.17 181.988 228.194 183.605C228.217 186.896 228.249 191.526 228.281 197.076L228.099 196.893C233.529 196.886 239.928 196.878 246.754 196.862C246.802 196.814 246.366 197.25 246.548 197.068V197.06V197.052V197.028V196.989V196.909V196.751V196.434V195.799C246.548 195.379 246.548 194.951 246.548 194.531C246.548 193.69 246.548 192.858 246.548 192.033C246.548 190.384 246.548 188.775 246.556 187.213C246.564 184.081 246.572 181.124 246.58 178.412L246.762 178.595C241.212 178.555 236.582 178.523 233.292 178.508C231.674 178.484 230.398 178.476 229.478 178.46C229.058 178.452 228.725 178.444 228.463 178.436C228.233 178.428 228.106 178.42 228.099 178.412C228.091 178.404 228.202 178.397 228.424 178.389C228.677 178.381 229.002 178.373 229.407 178.365C230.311 178.357 231.579 178.341 233.181 178.317C236.495 178.293 241.172 178.262 246.762 178.23H246.936V178.412C246.944 181.124 246.952 184.081 246.96 187.213C246.96 188.783 246.96 190.392 246.968 192.033C246.968 192.858 246.968 193.69 246.968 194.531C246.968 194.951 246.968 195.371 246.968 195.799V196.434V196.751V196.909V196.989V197.028V197.052V197.06V197.068C247.15 196.886 246.714 197.322 246.762 197.274C239.936 197.266 233.537 197.258 228.106 197.242H227.924V197.06C227.964 191.463 227.995 186.793 228.011 183.479C228.027 181.885 228.043 180.616 228.059 179.705C228.067 179.3 228.075 178.975 228.083 178.722C228.083 178.515 228.091 178.412 228.099 178.412Z" fill="#263238"/>
<path d="M244.74 181.497C245.01 181.711 242.496 185.326 239.135 189.568C238.461 190.416 237.811 191.225 237.2 191.962L236.804 192.446L236.36 192.041C233.442 189.417 231.468 187.403 231.65 187.197C231.833 186.991 234.108 188.656 237.129 191.153L236.281 191.233C236.859 190.471 237.494 189.647 238.168 188.799C241.529 184.557 244.479 181.29 244.74 181.497Z" fill="#2EB19F"/>
</svg>
