<svg width="34" height="35" viewBox="0 0 34 35" fill="none" xmlns="http://www.w3.org/2000/svg">
<circle cx="17" cy="17.5" r="17" fill="#EFAF4E"/>
<mask id="mask0_226_4090" style="mask-type:alpha" maskUnits="userSpaceOnUse" x="0" y="0" width="34" height="35">
<circle cx="17" cy="17.5" r="17" fill="#D9D9D9"/>
</mask>
<g mask="url(#mask0_226_4090)">
<path d="M41.2856 21.9355L20.6133 22.9914L39.8074 11.7988L41.2856 21.9355Z" fill="black"/>
<path d="M41.6223 4.93555L20.6126 17.0655L20.6126 23.0746L41.6223 10.9446L41.6223 4.93555Z" fill="#232326"/>
<path d="M34.9263 1.13281L13.9379 13.2504L20.5764 17.0832L41.5647 4.96553L34.9263 1.13281Z" fill="#B17518"/>
<path d="M14.0669 13.2559L20.6135 17.0355L20.6135 23.0119L14.0669 19.2323L14.0669 13.2559Z" fill="black"/>
</g>
<path d="M18.7951 26.2641C18.7951 27.4305 16.8569 28.3759 14.4659 28.3759C12.075 28.3759 10.1367 27.4305 10.1367 26.2641C10.1367 25.0978 12.075 24.1523 14.4659 24.1523C16.8569 24.1523 18.7951 25.0978 18.7951 26.2641Z" fill="black"/>
<path d="M17.1056 22.5677C17.1056 25.0753 15.0729 27.1081 12.5653 27.1081C10.0577 27.1081 8.0249 25.0753 8.0249 22.5677C8.0249 20.0601 10.0577 18.0273 12.5653 18.0273C15.0729 18.0273 17.1056 20.0601 17.1056 22.5677Z" fill="#495DB2"/>
<path fill-rule="evenodd" clip-rule="evenodd" d="M11.7643 20.0162C11.8322 20.1775 11.7565 20.3632 11.5953 20.4311C10.7006 20.8077 10.2827 21.4809 10.1183 22.1664C9.95019 22.8672 10.0525 23.5672 10.1933 23.9318C10.2564 24.095 10.1752 24.2784 10.012 24.3414C9.84878 24.4045 9.66538 24.3233 9.60234 24.1601C9.41685 23.6799 9.30308 22.8489 9.50219 22.0187C9.70497 21.1731 10.2374 20.3153 11.3494 19.8472C11.5107 19.7793 11.6964 19.855 11.7643 20.0162Z" fill="black"/>
<path d="M13.4785 19.6119C13.4785 19.9035 13.2421 20.1399 12.9506 20.1399C12.659 20.1399 12.4226 19.9035 12.4226 19.6119C12.4226 19.3204 12.659 19.084 12.9506 19.084C13.2421 19.084 13.4785 19.3204 13.4785 19.6119Z" fill="black"/>
</svg>
