<svg width="232" height="231" viewBox="0 0 232 231" fill="none" xmlns="http://www.w3.org/2000/svg">
<circle cx="116.203" cy="115.535" r="115.306" fill="#CEF8F5"/>
<mask id="mask0_1390_2113" style="mask-type:alpha" maskUnits="userSpaceOnUse" x="0" y="0" width="232" height="231">
<circle cx="116.203" cy="115.535" r="115.306" fill="#CEF8F5"/>
</mask>
<g mask="url(#mask0_1390_2113)">
<ellipse cx="115.984" cy="153.465" rx="65.8894" ry="23.59" fill="#332A63"/>
<path d="M179.941 159.159C181.203 157.335 181.873 155.428 181.873 153.465C181.873 140.436 152.374 129.875 115.984 129.875C79.5941 129.875 50.0945 140.436 50.0945 153.465C50.0945 155.428 50.7644 157.335 52.0268 159.159C59.1418 148.881 85.0778 141.263 115.984 141.263C146.89 141.263 172.826 148.881 179.941 159.159Z" fill="#01656B"/>
<path fill-rule="evenodd" clip-rule="evenodd" d="M115.872 55.8921C87.8155 55.8921 65.0708 78.6368 65.0708 106.694V151.552V152.657H65.1627C66.7576 162.22 88.9248 169.799 116.036 169.799C144.184 169.799 167.002 161.63 167.002 151.552C167.002 150.849 166.891 150.155 166.674 149.472V106.694C166.674 78.6367 143.929 55.8921 115.872 55.8921Z" fill="#8975EE"/>
<circle cx="134.699" cy="116.997" r="18.4737" fill="#495DB2"/>
<path d="M76.4395 110.024C76.4387 101.54 79.3949 89.3257 86.0479 82.6727M99.3538 70.106C97.2192 71.3673 95.2502 72.7942 93.4401 74.3466" stroke="white" stroke-width="5.27535" stroke-linecap="round"/>
</g>
</svg>
