<svg width="231" height="232" viewBox="0 0 231 232" fill="none" xmlns="http://www.w3.org/2000/svg">
<circle cx="115.306" cy="115.74" r="115.306" fill="#CEC5FF"/>
<mask id="mask0_1390_2103" style="mask-type:alpha" maskUnits="userSpaceOnUse" x="0" y="0" width="231" height="232">
<circle cx="115.306" cy="115.741" r="115.306" fill="#CEC5FF"/>
</mask>
<g mask="url(#mask0_1390_2103)">
<path d="M68.7534 124.339L130.346 158.802V263.996L-10.0273 189.685L68.7534 124.339Z" fill="#A5E4FF"/>
<path d="M160.035 123.618L114.331 154.615L115.301 258.262L231.786 185.612L160.035 123.618Z" fill="#495DB2"/>
<path d="M114.747 97.4888L146.234 115.668C158.306 122.638 158.306 133.938 146.234 140.907L136.605 146.467C124.533 153.436 104.961 153.436 92.889 146.467L83.26 140.907C71.1881 133.938 71.1881 122.638 83.26 115.668L114.747 97.4888Z" fill="white"/>
<path d="M114.747 111.81L130.102 120.675C138.582 125.571 138.582 133.509 130.102 138.405V138.405C121.622 143.301 107.873 143.301 99.3925 138.405V138.405C90.9123 133.509 90.9123 125.571 99.3925 120.675L114.747 111.81Z" fill="#232326"/>
<path d="M82.1187 82.6314L101.15 55.8562C108.412 45.6406 123.623 45.7681 130.712 56.104L149.136 82.9665C155.176 91.7726 152.28 103.869 142.908 108.987L124.596 118.985C119.295 121.879 112.897 121.927 107.553 119.112L88.41 109.026C78.7604 103.942 75.7999 91.5213 82.1187 82.6314Z" fill="#8975EE"/>
<path d="M112.439 56.3037L97.3992 78.5056M93.1021 84.9512L88.8049 90.6808" stroke="white" stroke-width="3.82" stroke-linecap="round"/>
</g>
</svg>
