<svg width="43" height="33" viewBox="0 0 43 33" fill="none" xmlns="http://www.w3.org/2000/svg">
<path d="M27.1886 11.5801H14.5571C13.4672 11.5801 12.4557 12.1469 11.8867 13.0765L1.34481 30.2998C1.02654 30.8198 1.39863 31.4879 2.00827 31.4911L40.0625 31.6921C40.6789 31.6953 41.057 31.0179 40.7306 30.4949L29.8446 13.0532C29.2726 12.1369 28.2687 11.5801 27.1886 11.5801Z" fill="#62E3C4" stroke="#232326" stroke-width="1.56544"/>
<circle opacity="0.4" cx="20.4943" cy="6.58022" r="1.25405" fill="#FFD979"/>
<circle cx="41.3947" cy="14.9406" r="1.25405" fill="#FFD979"/>
<circle cx="35.961" cy="1.1456" r="0.836031" fill="#FFD979"/>
<circle cx="3.44931" cy="15.2188" r="0.836031" fill="#FFD979"/>
<path d="M5.95722 3.6543L6.40883 4.87475L7.62928 5.32636L6.40883 5.77797L5.95722 6.99842L5.50561 5.77797L4.28516 5.32636L5.50561 4.87475L5.95722 3.6543Z" fill="#FFD979"/>
<path d="M37.0216 30.9643L27.5068 14.5664L28.4347 30.9643H37.0216Z" fill="#FFD979" stroke="#232326" stroke-linejoin="round"/>
<path d="M19.415 31.2671L27.1027 14.5666L28.0089 31.2671H19.415Z" fill="#232326"/>
</svg>
