<svg width="36" height="25" viewBox="0 0 36 25" fill="none" xmlns="http://www.w3.org/2000/svg">
<path d="M18.8772 9.17188C18.4647 7.18332 18.3822 3.2725 21.3522 3.53764C22.1351 3.69023 23.701 3.4307 23.701 1.17188" stroke="#FFD979" stroke-width="1.5" stroke-linecap="round"/>
<rect x="3.5127" y="7.44727" width="32.0996" height="16.4807" rx="8.24034" fill="#A9C6D6"/>
<rect x="0.612305" y="7.59277" width="32.0996" height="16.4807" rx="8.24034" fill="#62E3C4" stroke="#232326"/>
<path d="M12.2876 15.5459L13.8619 17.1098C13.9622 17.2094 14.0085 17.3014 14.0008 17.3857C14.0008 17.4624 13.9506 17.5506 13.8503 17.6502L13.2021 18.2942C13.0246 18.4705 12.8471 18.4705 12.6696 18.2942L11.0954 16.7303L9.49806 18.3172C9.31286 18.5012 9.12766 18.5012 8.94246 18.3172L8.25953 17.6387C8.07433 17.4547 8.07433 17.2708 8.25953 17.0868L9.85689 15.4999L8.28268 13.936C8.1052 13.7597 8.1052 13.5834 8.28268 13.407L8.93088 12.7631C9.0312 12.6634 9.11994 12.6136 9.19711 12.6136C9.28199 12.6059 9.37459 12.6519 9.47491 12.7516L11.0491 14.3155L12.6349 12.7401C12.8201 12.5561 13.0053 12.5561 13.1905 12.7401L13.8734 13.4185C14.0586 13.6025 14.0586 13.7865 13.8734 13.9705L12.2876 15.5459Z" fill="#232326"/>
<path d="M25.9944 15.4541C25.9944 16.9682 24.7575 18.2041 23.2213 18.2041C21.6851 18.2041 20.4482 16.9682 20.4482 15.4541C20.4482 13.94 21.6851 12.7041 23.2213 12.7041C24.7575 12.7041 25.9944 13.94 25.9944 15.4541Z" stroke="#232326" stroke-width="1.5"/>
</svg>
