<svg width="18" height="17" viewBox="0 0 18 17" fill="none" xmlns="http://www.w3.org/2000/svg">
<path d="M17.19 12.0598L16.06 10.1798C15.81 9.7698 15.59 8.9798 15.59 8.4998V6.6298C15.59 2.9998 12.64 0.0498047 9.01996 0.0498047C5.38996 0.0598047 2.43996 2.9998 2.43996 6.6298V8.4898C2.43996 8.9698 2.21996 9.7598 1.97996 10.1698L0.849959 12.0498C0.419959 12.7798 0.319959 13.6098 0.589959 14.3298C0.859959 15.0598 1.46996 15.6398 2.26996 15.8998C3.34996 16.2598 4.43996 16.5198 5.54996 16.7098C5.65996 16.7298 5.76996 16.7398 5.87996 16.7598C6.01996 16.7798 6.16996 16.7998 6.31996 16.8198C6.57996 16.8598 6.83996 16.8898 7.10996 16.9098C7.73996 16.9698 8.37996 16.9998 9.01996 16.9998C9.64996 16.9998 10.28 16.9698 10.9 16.9098C11.13 16.8898 11.36 16.8698 11.58 16.8398C11.76 16.8198 11.94 16.7998 12.12 16.7698C12.23 16.7598 12.34 16.7398 12.45 16.7198C13.57 16.5398 14.68 16.2598 15.76 15.8998C16.53 15.6398 17.12 15.0598 17.4 14.3198C17.68 13.5698 17.6 12.7498 17.19 12.0598ZM9.74996 7.9998C9.74996 8.4198 9.40996 8.7598 8.98996 8.7598C8.56996 8.7598 8.22996 8.4198 8.22996 7.9998V4.89981C8.22996 4.4798 8.56996 4.1398 8.98996 4.1398C9.40996 4.1398 9.74996 4.4798 9.74996 4.89981V7.9998Z" fill="white"/>
</svg>
