<svg width="20" height="20" viewBox="0 0 20 20" fill="none" xmlns="http://www.w3.org/2000/svg">
<path d="M6.58937 5.6001C6.58937 3.39096 8.38023 1.6001 10.5894 1.6001H13.3063C15.5154 1.6001 17.3063 3.39096 17.3063 5.6001V11.7812L18.5947 14.0359C18.9757 14.7026 18.4943 15.5321 17.7265 15.5321H6.16916C5.40134 15.5321 4.91997 14.7026 5.30092 14.0359L6.58937 11.7812V5.6001Z" fill="#A9C6D6"/>
<path d="M9.90699 1.1001H7.19007C4.70479 1.1001 2.69007 3.11482 2.69007 5.6001V11.6484L1.46751 13.7879C0.896087 14.7879 1.61814 16.0321 2.76987 16.0321H14.3272C15.4789 16.0321 16.201 14.7879 15.6296 13.7879L14.407 11.6484V5.6001C14.407 3.11482 12.3923 1.1001 9.90699 1.1001Z" fill="white" stroke="#194343"/>
<rect x="6.94098" y="0.00244141" width="3.21507" height="2.14338" rx="1" fill="white"/>
<rect x="5.90515" y="16.1038" width="6.35846" height="3.14338" rx="1.57169" fill="white" stroke="#194343"/>
</svg>
