<svg width="24" height="24" viewBox="0 0 24 24" fill="none" xmlns="http://www.w3.org/2000/svg">
<path d="M22 21.25C22 21.66 21.66 22 21.25 22H2.75C2.34 22 2 21.66 2 21.25C2 20.84 2.34 20.5 2.75 20.5H21.25C21.66 20.5 22 20.84 22 21.25Z" fill="#34C3A7"/>
<path d="M15.3904 4.51977L4.65043 15.2598C4.24043 15.6698 3.58043 15.6698 3.18043 15.2598H3.17043C1.78043 13.8598 1.78043 11.5998 3.17043 10.2098L10.3204 3.05977C11.7204 1.65977 13.9804 1.65977 15.3804 3.05977C15.7904 3.44977 15.7904 4.11977 15.3904 4.51977Z" fill="#34C3A7"/>
<path d="M20.8204 8.48982L17.7704 5.43982C17.3604 5.02982 16.7004 5.02982 16.3004 5.43982L5.56043 16.1798C5.15043 16.5798 5.15043 17.2398 5.56043 17.6498L8.61043 20.7098C10.0104 22.0998 12.2704 22.0998 13.6704 20.7098L20.8104 13.5598C22.2304 12.1598 22.2304 9.88982 20.8204 8.48982ZM12.7604 17.5198L11.5504 18.7398C11.3004 18.9898 10.8904 18.9898 10.6304 18.7398C10.3804 18.4898 10.3804 18.0798 10.6304 17.8198L11.8504 16.5998C12.0904 16.3598 12.5104 16.3598 12.7604 16.5998C13.0104 16.8498 13.0104 17.2798 12.7604 17.5198ZM16.7304 13.5498L14.2904 15.9998C14.0404 16.2398 13.6304 16.2398 13.3704 15.9998C13.1204 15.7498 13.1204 15.3398 13.3704 15.0798L15.8204 12.6298C16.0604 12.3898 16.4804 12.3898 16.7304 12.6298C16.9804 12.8898 16.9804 13.2998 16.7304 13.5498Z" fill="#34C3A7"/>
</svg>
