<svg width="45" height="46" viewBox="0 0 45 46" fill="none" xmlns="http://www.w3.org/2000/svg">
<circle cx="22.5" cy="23.418" r="22.5" fill="#024A4F" fill-opacity="0.5"/>
<circle cx="22.5" cy="23.4189" r="16.4189" fill="#03474B"/>
<g style="mix-blend-mode:multiply" opacity="0.3">
<path d="M26.5951 24.5658C26.603 23.1001 24.5513 21.9008 22.0125 21.8871C19.4738 21.8734 17.4093 23.0504 17.4013 24.5161C17.3934 25.9818 19.445 27.1811 21.9838 27.1948C24.5226 27.2085 26.5871 26.0315 26.5951 24.5658Z" fill="#6BACD1"/>
</g>
<path d="M19.1898 33.1867H19.1901L19.1894 33.1731L19.0041 29.6635H24.9916L24.8062 33.177L24.8057 33.1864L24.8059 33.1958C24.8127 33.5282 24.6004 33.9132 24.0444 34.2345C23.4961 34.5509 22.7595 34.7159 22.0079 34.7146C21.2565 34.7133 20.5178 34.5457 19.9654 34.2267L19.1898 33.1867ZM19.1898 33.1867C19.1898 33.1873 19.1899 33.1881 19.19 33.1891L19.1907 33.1986L19.1917 33.2139L19.1921 33.221V33.2277C19.2079 33.5486 19.4301 33.9174 19.9654 34.2267L19.1898 33.1867Z" fill="white" stroke="black" stroke-width="0.514403"/>
<path d="M24.2703 30.4794C23.0232 31.1997 20.9956 31.1958 19.7407 30.4716C18.4858 29.7475 18.4795 28.5763 19.7266 27.8561C20.9737 27.1359 23.0021 27.1398 24.2562 27.8639C25.5112 28.5881 25.5174 29.7592 24.2703 30.4794Z" fill="#A2878F"/>
<path d="M24.2788 31.5806C23.027 32.3032 20.9916 32.2992 19.7319 31.5727C19.1589 31.2416 18.8481 30.8181 18.7941 30.3867C18.726 30.9089 19.0375 31.4459 19.7319 31.8467C20.9916 32.574 23.027 32.5779 24.2788 31.8546C24.9606 31.4608 25.2667 30.9324 25.2018 30.4157C25.1462 30.8408 24.8401 31.2565 24.2788 31.5806Z" fill="black"/>
<path d="M24.2382 32.6454C23.0084 33.3554 21.0089 33.3515 19.772 32.6375C19.2092 32.3127 18.9038 31.8962 18.8514 31.4727C18.7841 31.9854 19.0902 32.5131 19.772 32.9068C21.0089 33.6208 23.0091 33.6247 24.2382 32.9147C24.9083 32.5279 25.2082 32.0089 25.1456 31.5008C25.0908 31.9181 24.7901 32.3268 24.2382 32.6454Z" fill="black"/>
<path d="M24.138 30.4008C22.9637 31.0788 21.0543 31.0757 19.8722 30.393C18.6909 29.7111 18.6846 28.6081 19.8589 27.9301C21.0332 27.2522 22.9426 27.2553 24.1247 27.938C25.306 28.6198 25.3123 29.7229 24.138 30.4008Z" fill="#846A72"/>
<path d="M19.4971 30.13C19.6051 30.2231 19.7296 30.3116 19.8721 30.393C21.0534 31.0749 22.9636 31.0788 24.1378 30.4009C24.2748 30.3218 24.3938 30.2365 24.4987 30.1472C24.3829 29.903 24.1605 29.672 23.8278 29.4794C22.8109 28.8923 21.1685 28.8892 20.1578 29.4732C19.8313 29.6618 19.6121 29.8889 19.4979 30.1292L19.4971 30.13Z" fill="#6D5159"/>
<path d="M24.2033 33.7094C22.993 34.4085 21.0241 34.4046 19.806 33.7016C19.2518 33.3814 18.9511 32.9719 18.8995 32.5547C18.8337 33.0596 19.1343 33.5794 19.806 33.967C21.0241 34.67 22.993 34.6739 24.2033 33.9748C24.8633 33.5935 25.1584 33.0831 25.0966 32.5829C25.0425 32.9939 24.7466 33.3955 24.2033 33.7094Z" fill="black"/>
<path d="M20.732 26.2852C20.4987 24.1347 19.9906 21.83 19.2227 19.4352L19.362 19.3906C20.1331 21.7948 20.6428 24.1089 20.8776 26.2696L20.732 26.2852Z" fill="#6D5159"/>
<path d="M23.2248 26.2852L23.0792 26.2696C23.3141 24.1089 23.8237 21.7948 24.5948 19.3906L24.7342 19.4352C23.9662 21.83 23.4581 24.1347 23.2248 26.2852Z" fill="#6D5159"/>
<path d="M22.1403 22.0118C22.0871 22.0118 21.9634 21.982 21.9634 21.7041C21.9634 21.3651 22.1927 20.962 22.4237 20.6778C22.3548 20.5439 22.2554 20.4445 22.1168 20.4445C21.9587 20.4445 21.8248 20.5463 21.7285 20.6692C21.7653 20.7467 21.788 20.8351 21.788 20.9338C21.788 21.0481 21.7567 21.2415 21.6393 21.2415C21.561 21.2415 21.5124 21.1655 21.5124 21.0442C21.5124 20.962 21.5704 20.8038 21.6721 20.6645C21.5696 20.4743 21.3754 20.3615 21.2572 20.3615C21.2009 20.3615 21.1281 20.3834 21.0568 20.4226C21.114 20.5173 21.1414 20.6238 21.1414 20.7271C21.1414 20.8305 21.0748 21.0958 20.9511 21.0958C20.8196 21.0958 20.7499 20.9205 20.7499 20.7937C20.7499 20.6246 20.8611 20.4907 20.9887 20.4077C20.8799 20.259 20.685 20.1486 20.3937 20.1486C20.1534 20.1486 19.888 20.2308 19.625 20.3858L19.6007 20.3443C19.8708 20.1846 20.1448 20.1008 20.3937 20.1008C20.7061 20.1008 20.9143 20.2206 21.0302 20.3827C21.1108 20.338 21.1946 20.3138 21.2572 20.3138C21.3864 20.3138 21.5907 20.4265 21.7042 20.6222C21.8076 20.497 21.9493 20.396 22.1176 20.396C22.2695 20.396 22.3791 20.4993 22.4558 20.6387C22.6178 20.4469 22.776 20.3185 22.8503 20.3185C22.9466 20.3185 23.0093 20.3928 23.0468 20.486C23.2598 20.2965 23.6121 20.1212 24.0927 20.1212C24.2266 20.1212 24.3973 20.1306 24.4458 20.1768L24.4129 20.212C24.3855 20.1862 24.2603 20.1697 24.0927 20.1697C23.5956 20.1697 23.2582 20.3513 23.0633 20.5353C23.0821 20.5979 23.0899 20.6645 23.0899 20.7193C23.0899 20.8007 23.0899 21.0176 22.9318 21.0176C22.873 21.0176 22.8104 20.9588 22.8104 20.8641C22.8104 20.7811 22.8777 20.6512 23.0085 20.5236C22.9779 20.4375 22.9255 20.3686 22.8503 20.3686C22.7916 20.3686 22.6398 20.4993 22.4816 20.6919C22.5701 20.8813 22.6045 21.1185 22.6045 21.2634C22.6045 21.6501 22.3431 22.0133 22.1411 22.0133L22.1403 22.0118ZM22.4487 20.7302C22.2311 21.0042 22.0119 21.3871 22.0119 21.7041C22.0119 21.7949 22.0252 21.8646 22.0518 21.9092C22.0738 21.946 22.1035 21.964 22.1403 21.964C22.3008 21.964 22.556 21.6423 22.556 21.2618C22.556 21.1272 22.5255 20.908 22.4487 20.7302ZM21.6948 20.7146C21.6087 20.8391 21.5594 20.9753 21.5594 21.045C21.5594 21.07 21.5633 21.1945 21.6385 21.1945C21.7136 21.1945 21.7395 21.0348 21.7395 20.9346C21.7395 20.8539 21.723 20.7803 21.6948 20.7146ZM21.0145 20.4484C20.8979 20.5244 20.7969 20.6465 20.7969 20.7944C20.7969 20.8853 20.8478 21.0481 20.9504 21.0481C21.0255 21.0481 21.0928 20.8305 21.0928 20.7279C21.0928 20.6332 21.067 20.5353 21.0145 20.4484ZM23.0234 20.5745C22.9114 20.6911 22.8582 20.8031 22.8582 20.8633C22.8582 20.9322 22.9004 20.969 22.9318 20.969C23.0077 20.969 23.0421 20.8915 23.0421 20.7185C23.0421 20.6739 23.0359 20.623 23.0241 20.5737L23.0234 20.5745Z" fill="#6D5159"/>
<path d="M23.3686 30.4838H20.5879C20.573 30.4838 20.5597 30.4767 20.5511 30.4642C20.5433 30.4517 20.5417 30.436 20.5472 30.4227C20.5495 30.4173 20.7844 29.8646 20.7766 28.8774C20.7719 28.2237 20.8361 27.7923 20.876 27.5904C20.7531 26.8498 20.7382 26.3276 20.7366 26.2305H20.7382C20.7374 26.2266 20.7366 26.2219 20.7366 26.218C20.7382 25.9957 20.8682 25.789 21.1022 25.6348C21.5782 25.3224 22.3556 25.324 22.8355 25.6379C23.0766 25.7961 23.2081 26.0074 23.2058 26.2337C23.2058 26.236 23.2058 26.2384 23.2058 26.2415C23.205 26.2689 23.2026 26.2939 23.1987 26.319C23.1776 26.557 23.1204 27.1606 23.0586 27.581C23.122 27.916 23.1674 28.5509 23.1838 28.875C23.2058 29.2939 23.4085 30.4212 23.4109 30.4329C23.4132 30.4454 23.4093 30.4587 23.4015 30.4689C23.3929 30.4791 23.3811 30.4846 23.3678 30.4846L23.3686 30.4838ZM20.6513 30.3961H23.3162C23.2754 30.1667 23.1173 29.2563 23.0977 28.8789C23.0813 28.5548 23.0359 27.9184 22.9725 27.5896C22.9717 27.5849 22.9717 27.5802 22.9725 27.5747C23.0343 27.1567 23.0923 26.5492 23.1134 26.3073C23.1173 26.283 23.1189 26.2619 23.1197 26.2407C23.1197 26.2407 23.1197 26.2391 23.1197 26.2384C23.1236 26.0403 23.0061 25.8532 22.7885 25.7107C22.336 25.414 21.6009 25.4125 21.1516 25.7076C20.9425 25.8446 20.8267 26.0254 20.8251 26.2172C20.8251 26.2211 20.8251 26.2251 20.8235 26.2282H20.8251C20.8267 26.3253 20.8415 26.8451 20.9645 27.5833C20.9652 27.5888 20.9645 27.5943 20.9645 27.599C20.9331 27.7571 20.8595 28.1971 20.865 28.8766C20.8713 29.7064 20.7132 30.2255 20.6521 30.3961H20.6513Z" fill="#6D5159"/>
<path d="M21.9791 28.2956C21.7035 28.2956 21.4264 28.2267 21.2158 28.0882C21.0185 27.959 20.9034 27.7852 20.8917 27.5981C20.8901 27.5738 20.9081 27.5535 20.9324 27.5519C20.9543 27.5519 20.977 27.5683 20.9786 27.5926C20.9888 27.7508 21.0898 27.9011 21.2636 28.0146C21.6573 28.2721 22.2946 28.2737 22.6852 28.0177C22.859 27.9034 22.9592 27.7531 22.9663 27.5934C22.967 27.5691 22.9882 27.5472 23.0117 27.5519C23.0359 27.5527 23.0547 27.573 23.0532 27.5973C23.0446 27.786 22.931 27.9613 22.733 28.0913C22.5255 28.2275 22.2523 28.2956 21.9783 28.2956H21.9791Z" fill="#6D5159"/>
<path d="M22.8105 26.5519C22.7964 26.5519 22.7823 26.5449 22.7737 26.5324C22.7604 26.512 22.7659 26.4854 22.7863 26.4721C22.9546 26.3617 23.0618 26.2216 23.0963 26.0673C23.1018 26.0439 23.1252 26.029 23.1487 26.0345C23.1722 26.0399 23.1871 26.0626 23.1816 26.0869C23.1425 26.2638 23.0219 26.4228 22.834 26.5457C22.827 26.5504 22.8184 26.5527 22.8105 26.5527V26.5519Z" fill="#6D5159"/>
<path d="M22.8472 26.4866C22.8339 26.4662 22.8073 26.4607 22.7869 26.474C22.3407 26.766 21.6134 26.7645 21.1641 26.4709C20.9918 26.3574 20.8822 26.2149 20.8478 26.0583C20.8431 26.0348 20.8196 26.02 20.7961 26.0247C20.7726 26.0301 20.7578 26.0529 20.7625 26.0763C20.8016 26.2556 20.9237 26.4169 21.1163 26.5429C21.3551 26.6995 21.6682 26.7778 21.9806 26.7778C22.2929 26.7778 22.5998 26.7011 22.8347 26.5468C22.855 26.5335 22.8605 26.5069 22.8472 26.4866Z" fill="#6D5159"/>
<path d="M20.8055 26.1098C20.8016 26.1098 20.7969 26.1098 20.7922 26.1074C20.7695 26.1004 20.7562 26.0761 20.7632 26.0526C20.7719 26.0244 20.7836 25.9955 20.7969 25.9681C20.8071 25.9461 20.8337 25.9367 20.8548 25.9477C20.8768 25.9579 20.8862 25.9845 20.8752 26.0056C20.8634 26.0299 20.8541 26.0542 20.8462 26.0784C20.8407 26.0972 20.8235 26.109 20.8047 26.109L20.8055 26.1098Z" fill="#6D5159"/>
<path d="M23.1852 28.8755C23.1688 28.5514 23.1234 27.9165 23.0599 27.5815C23.1218 27.1611 23.1789 26.5575 23.2001 26.3195C23.204 26.2944 23.2063 26.2694 23.2071 26.242C23.2071 26.2396 23.2071 26.2373 23.2071 26.2342C23.2087 26.0079 23.0772 25.7965 22.8368 25.6384C22.5268 25.4357 22.0923 25.3652 21.6946 25.4239C21.9138 25.4568 22.1229 25.5265 22.2935 25.6384C22.5346 25.7965 22.6662 26.0079 22.6638 26.2342C22.6638 26.2365 22.6638 26.2389 22.6638 26.242C22.663 26.2694 22.6607 26.2944 22.6568 26.3195C22.6356 26.5575 22.5785 27.1611 22.5166 27.5815C22.454 27.8492 21.9405 28.1788 20.9736 27.8476C21.8559 28.618 22.5808 28.0668 22.5879 28.1302C22.6168 28.4199 22.6325 28.679 22.6427 28.8755C22.6646 29.2944 22.8674 30.4217 22.8697 30.4334C22.8721 30.4459 22.8681 30.4592 22.8603 30.4694C22.8517 30.4796 22.84 30.4851 22.8267 30.4851H23.37C23.3833 30.4851 23.395 30.4796 23.4036 30.4694C23.4122 30.4592 23.4154 30.4467 23.413 30.4334C23.4107 30.4217 23.2079 29.2944 23.186 28.8755H23.1852Z" fill="#6D5159"/>
<path d="M21.9946 24.1316C21.8803 24.1316 21.766 24.1065 21.6791 24.0564C21.5883 24.004 21.5389 23.9327 21.5389 23.8552C21.5389 23.7777 21.5883 23.708 21.6775 23.6564C21.8505 23.557 22.1323 23.557 22.3054 23.6572C22.3962 23.7096 22.4455 23.7809 22.4455 23.8584C22.4455 23.9359 22.3962 24.0055 22.3069 24.0572C22.2208 24.1065 22.1081 24.1316 21.9946 24.1316ZM21.9891 23.6454C21.8873 23.6454 21.7863 23.6673 21.7096 23.712C21.6415 23.7519 21.6031 23.802 21.6031 23.8544C21.6031 23.9069 21.6415 23.9586 21.7112 23.9993C21.867 24.0893 22.1198 24.0893 22.274 24.0001C22.3422 23.9601 22.3805 23.91 22.3805 23.8576C22.3805 23.8051 22.3422 23.7527 22.2725 23.7127C22.1942 23.6673 22.0916 23.6446 21.9891 23.6446V23.6454Z" fill="#6D5159"/>
<path d="M21.995 25.9608C21.8807 25.9608 21.7664 25.9357 21.6795 25.8856C21.584 25.8308 21.5347 25.7533 21.5409 25.6711V25.6617V23.8408H22.4365V25.6312C22.4678 25.7252 22.4185 25.8222 22.3074 25.8864C22.2212 25.9357 22.1085 25.9608 21.995 25.9608ZM21.6059 25.6289H21.6114L21.6075 25.6664C21.5981 25.7252 21.6364 25.7847 21.7124 25.8285C21.8682 25.9185 22.1203 25.9185 22.2753 25.8293C22.3622 25.7792 22.3982 25.7126 22.3739 25.6469L22.3715 25.6359V23.9058H21.6059V25.6289Z" fill="#6D5159"/>
<path d="M22.4122 23.8785C22.182 24.0116 21.807 24.0108 21.5753 23.8769C21.3436 23.743 21.342 23.527 21.573 23.3939C21.8031 23.2608 22.1781 23.2616 22.4098 23.3954C22.6416 23.5293 22.6431 23.7454 22.4122 23.8785Z" fill="#6D5159"/>
<path d="M21.5845 23.6079C21.5774 23.6079 21.5704 23.6025 21.5688 23.5954C21.4169 22.739 21.2369 21.8285 20.9488 20.9705C20.9464 20.9627 20.9504 20.9533 20.959 20.9509C20.9668 20.9478 20.9754 20.9525 20.9785 20.9611C21.2674 21.8207 21.4475 22.7327 21.5993 23.5899C21.6009 23.5985 21.5954 23.6064 21.5868 23.6079C21.586 23.6079 21.5853 23.6079 21.5845 23.6079Z" fill="#6D5159"/>
<path d="M22.5013 23.5494C22.5013 23.5494 22.4998 23.5494 22.499 23.5494C22.4904 23.5478 22.4849 23.54 22.4865 23.5314C22.6744 22.3994 22.8388 21.5445 23.018 20.7601C23.0204 20.7515 23.0282 20.7468 23.0368 20.7483C23.0454 20.7499 23.0501 20.7585 23.0486 20.7671C22.8693 21.5508 22.7057 22.4057 22.5178 23.5369C22.5162 23.5447 22.51 23.5502 22.5021 23.5502L22.5013 23.5494Z" fill="#6D5159"/>
<path d="M29.6279 19.6203C29.5338 22.422 28.172 24.7652 25.8674 26.3201C25.8898 26.2941 25.4181 27.5984 25.2229 28.2983C25.1675 28.497 24.9183 29.4187 24.9414 29.3962C24.9843 30.7469 23.0243 31.1814 22.0064 31.1786C20.9829 31.1758 19.0511 30.7377 19.0609 29.3983C19.084 29.4208 18.8405 28.4879 18.7885 28.2955C18.599 27.5991 18.1069 26.3096 18.1307 26.3356C13.6675 23.5332 13.0673 17.0742 17.0897 13.6422C20.0331 11.1305 24.4353 11.3172 27.2306 13.9574C28.8087 15.4477 29.5352 17.4863 29.6286 19.6218L29.6279 19.6203Z" fill="#E7B445" stroke="black" stroke-width="0.606812" stroke-miterlimit="10"/>
<path d="M19.1926 31.2793C19.1926 31.2793 20.4335 32.391 22.6834 32.1451C22.6834 32.1451 20.4922 32.6689 19.1926 31.2793Z" fill="#949DAB"/>
<path d="M19.1926 32.332C19.1926 32.332 20.4335 33.4437 22.6834 33.1979C22.6834 33.1979 20.4922 33.7216 19.1926 32.332Z" fill="#949DAB"/>
<path d="M19.1926 33.3867C19.1926 33.3867 20.4335 34.4984 22.6834 34.2526C22.6834 34.2526 20.4922 34.7763 19.1926 33.3867Z" fill="#949DAB"/>
<g style="mix-blend-mode:multiply" opacity="0.5">
<path d="M25.173 29.7155C25.1017 29.8814 24.9968 30.0294 24.8778 30.1617C24.7557 30.2924 24.6218 30.4036 24.4731 30.5054C24.4363 30.532 24.4019 30.5516 24.3666 30.575C24.3275 30.6017 24.2899 30.6189 24.2515 30.6408C24.1748 30.6815 24.1005 30.7285 24.0198 30.7614C23.94 30.7958 23.8625 30.8357 23.781 30.8655L23.5556 30.9438L23.4241 33.4489C23.4342 33.9084 23.1415 34.3343 22.5426 34.6138C22.1668 34.7892 21.7159 34.8855 21.2375 34.9089C22.2553 35.0624 23.3794 34.9129 24.174 34.4541C24.7784 34.1049 25.0735 33.6462 25.0641 33.1874L25.263 29.4102C25.2466 29.5158 25.2176 29.6192 25.1737 29.7163L25.173 29.7155Z" fill="#48484A"/>
</g>
<g style="mix-blend-mode:multiply" opacity="0.5">
<path d="M25.1727 29.7191C25.1015 29.8851 24.9966 30.033 24.8776 30.1653C24.7555 30.2961 24.6216 30.4072 24.4728 30.509C24.4361 30.5356 24.4016 30.5552 24.3664 30.5787C24.3272 30.6053 24.2897 30.6225 24.2513 30.6444C24.1746 30.6851 24.1002 30.7321 24.0196 30.765C23.9397 30.7994 23.8622 30.8394 23.7808 30.8691L23.535 30.9544C23.369 31.0014 23.2015 31.0468 23.0324 31.0781C22.9478 31.0977 22.8625 31.1079 22.7772 31.1212C22.6918 31.1345 22.6065 31.1463 22.5204 31.1517C22.349 31.1705 22.1767 31.1752 22.0045 31.1791C21.8323 31.1736 21.66 31.169 21.4894 31.1486C21.4033 31.1423 21.3179 31.1298 21.2334 31.1165C21.1481 31.1032 21.0627 31.0922 20.979 31.0727C20.8091 31.0413 20.6431 30.9952 20.4764 30.9474L20.2313 30.8605C20.1499 30.8308 20.0693 30.7893 19.9886 30.754C19.9049 30.7196 19.8376 30.6758 19.7624 30.6358C19.7233 30.6131 19.6943 30.6006 19.6473 30.5701C19.6105 30.5458 19.5729 30.5239 19.5369 30.4988C19.3921 30.4002 19.2551 30.2882 19.1338 30.1583C19.0868 30.1066 19.043 30.0526 19.0015 29.9962C19.2833 30.5114 19.9879 31.1635 21.7524 31.2551C23.582 31.3506 24.6615 30.6875 25.222 30.163L25.2541 29.5469H25.2322C25.2158 29.6048 25.197 29.6627 25.1719 29.7183L25.1727 29.7191Z" fill="#868D9C"/>
</g>
<path d="M21.0914 30L20.0005 21H24.0005L22.5459 30" stroke="white" stroke-width="0.5"/>
</svg>
