<svg width="21" height="22" viewBox="0 0 21 22" fill="none" xmlns="http://www.w3.org/2000/svg">
<path fill-rule="evenodd" clip-rule="evenodd" d="M10.7183 1.10017C11.6067 0.211726 13.0471 0.211726 13.9355 1.10017L14.9434 2.10797C15.4717 2.63638 15.3812 3.38911 15.1251 3.85743C14.999 4.08791 14.9272 4.35242 14.9272 4.63568C14.9272 5.53313 15.6546 6.26068 16.5522 6.26068C16.8354 6.26068 17.1 6.18875 17.3303 6.06269C17.7987 5.80652 18.5514 5.71604 19.0799 6.24445L20.0875 7.25207C20.9759 8.14052 20.9759 9.58097 20.0875 10.4694L10.0356 20.5213C9.14713 21.4098 7.70668 21.4098 6.81823 20.5213L5.81071 19.5138C5.28222 18.9853 5.37279 18.2324 5.62906 17.7642C5.75518 17.5336 5.82715 17.269 5.82715 16.9857C5.82715 16.0882 5.09962 15.3607 4.20215 15.3607C3.91882 15.3607 3.65424 15.4326 3.42371 15.5587C2.95537 15.8151 2.20253 15.9056 1.67404 15.3771L0.666334 14.3693C-0.222112 13.4809 -0.222112 12.0405 0.666334 11.1521L10.7183 1.10017ZM10.3772 12.8108C11.4818 12.8108 12.3772 11.9154 12.3772 10.8108C12.3772 9.70622 11.4818 8.81079 10.3772 8.81079C9.27263 8.81079 8.3772 9.70622 8.3772 10.8108C8.3772 11.9154 9.27263 12.8108 10.3772 12.8108Z" fill="#A9C6D6"/>
</svg>
