<svg xmlns="http://www.w3.org/2000/svg" viewBox="0 0 77.67 148.73"><defs><style>.cls-1{fill:#3a56ff;}</style></defs><title>Asset 1</title><g id="Layer_2" data-name="Layer 2"><g id="OBJECTS"><path class="cls-1" d="M69.51,0H66.05A1.46,1.46,0,0,1,66,.54,1.48,1.48,0,0,1,64,1.38,1.48,1.48,0,0,1,63.11,0H61.37a1.46,1.46,0,0,1-.09.54,1.48,1.48,0,0,1-1.92.84A1.48,1.48,0,0,1,58.43,0H56.69a1.46,1.46,0,0,1-.09.54,1.48,1.48,0,0,1-1.92.84A1.48,1.48,0,0,1,53.75,0H52a1.7,1.7,0,0,1-.09.54A1.48,1.48,0,0,1,50,1.38,1.51,1.51,0,0,1,49.06,0H47.33a1.47,1.47,0,0,1-.1.54,1.47,1.47,0,0,1-1.91.84A1.48,1.48,0,0,1,44.38,0H42.65a1.47,1.47,0,0,1-.1.54,1.47,1.47,0,0,1-1.91.84A1.48,1.48,0,0,1,39.7,0H38a1.47,1.47,0,0,1-.1.54A1.47,1.47,0,0,1,36,1.38,1.48,1.48,0,0,1,35,0H33.28a1.46,1.46,0,0,1-.09.54,1.48,1.48,0,0,1-1.92.84A1.48,1.48,0,0,1,30.34,0H28.6a1.46,1.46,0,0,1-.09.54,1.48,1.48,0,0,1-1.92.84A1.48,1.48,0,0,1,25.66,0H23.92a1.46,1.46,0,0,1-.09.54,1.48,1.48,0,0,1-1.92.84A1.48,1.48,0,0,1,21,0H19.24a1.7,1.7,0,0,1-.09.54,1.48,1.48,0,0,1-1.92.84A1.49,1.49,0,0,1,16.29,0H14.56a1.47,1.47,0,0,1-.1.54,1.47,1.47,0,0,1-1.91.84A1.48,1.48,0,0,1,11.61,0H8.15A8.15,8.15,0,0,1,0,8.15V89.33a7.65,7.65,0,0,1,1.34.11,8.13,8.13,0,0,1,6.8,8h3.47a1.48,1.48,0,1,1,3,0h1.73a1.48,1.48,0,1,1,2.95,0H21a1.46,1.46,0,0,1,.09-.54,1.47,1.47,0,0,1,2.85.54h1.74a1.46,1.46,0,0,1,.09-.54,1.47,1.47,0,0,1,2.85.54h1.74a1.46,1.46,0,0,1,.09-.54,1.47,1.47,0,0,1,2.85.54H35a1.7,1.7,0,0,1,.09-.54,1.48,1.48,0,0,1,2.86.54H39.7a1.48,1.48,0,1,1,2.95,0h1.73a1.48,1.48,0,1,1,2.95,0h1.73a1.48,1.48,0,1,1,2.95,0h1.74a1.46,1.46,0,0,1,.09-.54,1.47,1.47,0,0,1,2.85.54h1.74a1.46,1.46,0,0,1,.09-.54,1.47,1.47,0,0,1,2.85.54h1.74a1.46,1.46,0,0,1,.09-.54,1.47,1.47,0,0,1,2.85.54h3.47a7.65,7.65,0,0,1,.11-1.34,8.15,8.15,0,0,1,8-6.81V8.15A8.15,8.15,0,0,1,69.51,0Z"/><path class="cls-1" d="M76.33,105.52a8.16,8.16,0,0,1-6.81-8H66.05A1.38,1.38,0,0,1,66,98a1.47,1.47,0,0,1-2.85-.53H61.37a1.38,1.38,0,0,1-.09.53,1.47,1.47,0,0,1-2.85-.53H56.69a1.38,1.38,0,0,1-.09.53,1.47,1.47,0,0,1-2.85-.53H52a1.6,1.6,0,0,1-.09.53,1.49,1.49,0,0,1-1.92.85,1.51,1.51,0,0,1-.94-1.38H47.33a1.39,1.39,0,0,1-.1.53,1.47,1.47,0,0,1-2.85-.53H42.65a1.39,1.39,0,0,1-.1.53,1.47,1.47,0,0,1-2.85-.53H38a1.39,1.39,0,0,1-.1.53A1.47,1.47,0,0,1,35,97.48H33.28a1.38,1.38,0,0,1-.09.53,1.47,1.47,0,0,1-2.85-.53H28.6a1.38,1.38,0,0,1-.09.53,1.47,1.47,0,0,1-2.85-.53H23.92a1.38,1.38,0,0,1-.09.53A1.47,1.47,0,0,1,21,97.48H19.24a1.6,1.6,0,0,1-.09.53,1.48,1.48,0,0,1-2.86-.53H14.56a1.39,1.39,0,0,1-.1.53,1.47,1.47,0,0,1-2.85-.53H8.14A7.52,7.52,0,0,1,8,98.81a8.14,8.14,0,0,1-8,6.81v35a8.15,8.15,0,0,1,8.15,8.15h3.46a1.48,1.48,0,1,1,3,0h1.73a1.48,1.48,0,1,1,2.95,0H21a1.46,1.46,0,0,1,.09-.54,1.47,1.47,0,0,1,2.85.54h1.74a1.46,1.46,0,0,1,.09-.54,1.47,1.47,0,0,1,2.85.54h1.74a1.46,1.46,0,0,1,.09-.54,1.47,1.47,0,0,1,2.85.54H35a1.7,1.7,0,0,1,.09-.54,1.48,1.48,0,0,1,2.86.54H39.7a1.48,1.48,0,1,1,2.95,0h1.73a1.48,1.48,0,1,1,2.95,0h1.73a1.48,1.48,0,1,1,2.95,0h1.74a1.46,1.46,0,0,1,.09-.54,1.47,1.47,0,0,1,2.85.54h1.74a1.46,1.46,0,0,1,.09-.54,1.47,1.47,0,0,1,2.85.54h1.74a1.46,1.46,0,0,1,.09-.54,1.47,1.47,0,0,1,2.85.54h3.46a8.15,8.15,0,0,1,8.16-8.15v-35A8.73,8.73,0,0,1,76.33,105.52Z"/></g></g></svg>