<svg width="25" height="24" viewBox="0 0 25 24" fill="none" xmlns="http://www.w3.org/2000/svg">
<path d="M23.7028 12.9019C24.2326 12.2983 24.2326 11.3955 23.7028 10.7919L22.3184 9.21455C22.0286 8.88445 21.8874 8.44973 21.9278 8.01237L22.1207 5.92462C22.1945 5.1256 21.6649 4.39556 20.8824 4.21782L18.8297 3.75156C18.4021 3.65443 18.0331 3.386 17.8091 3.00905L16.7356 1.20287C16.3254 0.512782 15.4673 0.23365 14.7296 0.550402L12.798 1.37986C12.3951 1.55288 11.9388 1.55289 11.5359 1.37986L9.60423 0.550402C8.86659 0.23365 8.00843 0.512782 7.59828 1.20287L6.52607 3.00691C6.30129 3.38511 5.93064 3.65402 5.50135 3.75034L3.45594 4.20928C2.67142 4.38531 2.13953 5.11639 2.2135 5.91701L2.4062 8.00272C2.44652 8.43909 2.30602 8.87289 2.01753 9.20276L0.627544 10.7921C0.0995546 11.3959 0.100357 12.2973 0.62942 12.9001L2.01565 14.4795C2.30529 14.8094 2.44652 15.244 2.40624 15.6812L2.21278 17.7809C2.13917 18.5797 2.6688 19.3095 3.45114 19.4873L5.50419 19.9536C5.93179 20.0507 6.30076 20.3192 6.5248 20.6961L7.59649 22.4993C8.00741 23.1906 8.86784 23.4693 9.60608 23.1502L11.5344 22.3165C11.9381 22.1419 12.396 22.1413 12.8002 22.3149L14.7296 23.1434C15.4673 23.4602 16.3254 23.181 16.7356 22.491L17.8091 20.6848C18.0331 20.3078 18.4021 20.0394 18.8297 19.9423L20.8824 19.476C21.6649 19.2983 22.1945 18.5682 22.1207 17.7692L21.9278 15.6815C21.8874 15.2441 22.0286 14.8094 22.3184 14.4793L23.7028 12.9019ZM11.0321 16.3805C10.4075 17.0051 9.3948 17.0051 8.7702 16.3805L6.16902 13.7793C5.72749 13.3377 5.72749 12.6219 6.16902 12.1803V12.1803C6.60995 11.7394 7.32462 11.7387 7.7664 12.1788L9.90114 14.3053L16.5626 7.64388C17.0063 7.2001 17.7262 7.20137 18.1684 7.64671V7.64671C18.6084 8.08983 18.6072 8.80536 18.1656 9.24692L11.0321 16.3805Z" fill="#A9C6D6"/>
</svg>
