<svg width="19" height="19" viewBox="0 0 19 19" fill="none" xmlns="http://www.w3.org/2000/svg">
<path d="M19 0.738889V18.2611C19 18.4571 18.9222 18.645 18.7836 18.7836C18.645 18.9221 18.4571 19 18.2611 19H13.071C12.991 18.9994 12.9134 18.9732 12.8495 18.9251C12.7856 18.877 12.7389 18.8096 12.7163 18.7329C12.5062 18.06 12.0866 17.4717 11.5186 17.054C10.9507 16.6362 10.2641 16.4109 9.55912 16.4107C8.85424 16.4109 8.16786 16.6363 7.6001 17.0541C7.03235 17.4718 6.61293 18.06 6.40302 18.7329C6.38037 18.8096 6.33365 18.877 6.26978 18.9251C6.20592 18.9732 6.12828 18.9994 6.04834 19H0.738889C0.542923 19 0.354988 18.9221 0.21642 18.7836C0.0778513 18.645 0 18.4571 0 18.2611V0.738889C0 0.542923 0.0778513 0.354988 0.21642 0.21642C0.354988 0.0778513 0.542923 0 0.738889 0H6.11274C6.18872 0.000413533 6.26273 0.0241046 6.32483 0.0678921C6.38692 0.11168 6.43412 0.173453 6.46002 0.244883C6.69568 0.876637 7.11881 1.42127 7.67272 1.80576C8.22663 2.19025 8.88484 2.39623 9.55912 2.39611C10.2335 2.39615 10.8918 2.19015 11.4459 1.80568C11.9999 1.42121 12.4233 0.876636 12.6593 0.244883C12.6852 0.173453 12.7324 0.11168 12.7945 0.0678921C12.8566 0.0241046 12.9306 0.000413533 13.0066 0H18.2611C18.3581 0 18.4542 0.0191113 18.5439 0.0562439C18.6335 0.0933765 18.715 0.147808 18.7836 0.21642C18.8522 0.285032 18.9066 0.366477 18.9438 0.456123C18.9809 0.545769 19 0.641857 19 0.738889Z" fill="#F2B826"/>
<path d="M10.5617 7.90012L10.6193 8.06966H10.7984H13.0233C13.3848 8.06966 13.5308 8.53564 13.2338 8.74187L11.4582 9.975L11.3035 10.0825L11.3641 10.2608L12.0573 12.3002C12.1719 12.6373 11.7898 12.9252 11.4974 12.7221L9.6426 11.434L9.5 11.3349L9.3574 11.434L7.50262 12.7221C7.21017 12.9252 6.82807 12.6373 6.94266 12.3002L7.63589 10.2608L7.69651 10.0825L7.54179 9.975L5.76618 8.74187C5.46922 8.53564 5.61516 8.06966 5.97671 8.06966H8.20163H8.38069L8.43832 7.90012L9.15056 5.8048C9.264 5.47107 9.736 5.47107 9.84943 5.8048L10.5617 7.90012Z" fill="#232326" stroke="#232326" stroke-width="0.5"/>
</svg>
