<svg width="24" height="24" viewBox="0 0 24 24" fill="none" xmlns="http://www.w3.org/2000/svg">
<circle opacity="0.2" cx="12" cy="12" r="12" fill="white"/>
<path d="M17.5687 11.4502V8.70645C17.5687 8.19395 17.1812 7.6127 16.6999 7.41895L13.2187 5.99395C12.4374 5.6752 11.5562 5.6752 10.7749 5.99395L7.29365 7.41895C6.81865 7.6127 6.43115 8.19395 6.43115 8.70645V11.4502C6.43115 14.5064 8.6499 17.3689 11.6812 18.2064C11.8874 18.2627 12.1124 18.2627 12.3187 18.2064C15.3499 17.3689 17.5687 14.5064 17.5687 11.4502ZM12.4687 12.5439V14.1877C12.4687 14.4439 12.2562 14.6564 11.9999 14.6564C11.7437 14.6564 11.5312 14.4439 11.5312 14.1877V12.5439C10.8999 12.3439 10.4374 11.7564 10.4374 11.0627C10.4374 10.2002 11.1374 9.5002 11.9999 9.5002C12.8624 9.5002 13.5624 10.2002 13.5624 11.0627C13.5624 11.7627 13.0999 12.3439 12.4687 12.5439Z" fill="white"/>
</svg>
