<svg width="24" height="24" viewBox="0 0 24 24" fill="none" xmlns="http://www.w3.org/2000/svg">
<circle opacity="0.2" cx="12" cy="12" r="12" fill="white"/>
<path d="M17.8592 14.2542H17.8616C17.8276 13.4643 17.6914 10.7711 17.3635 9.2861C17.2689 8.85556 16.8685 8.35985 16.3616 7.73196C15.9542 7.22712 15.4925 6.65454 15.148 6.04728C14.8724 5.56212 14.466 5.36501 14.0617 5.52134C13.6098 5.69548 13.2432 6.30345 13.2149 7.13103C12.7548 6.62009 12.4543 6.60907 12.1377 6.81532C11.69 7.10642 11.4924 7.98439 11.9368 8.94978C12.1478 9.40821 12.4822 9.6747 12.7768 9.90954C12.9983 10.086 13.1893 10.2384 13.2777 10.4315L13.3618 10.6246C13.1462 10.5196 12.9449 10.4242 12.7653 10.3392C12.3292 10.1327 12.0109 10.041 11.7324 10.041C11.3556 10.041 11.0832 10.2067 10.7387 10.417C10.306 10.6802 9.71401 11.0404 8.52761 11.3399C8.17487 11.4288 7.92831 11.6052 7.81534 11.8504C7.70237 12.0953 7.72862 12.3871 7.89339 12.7183L7.89784 12.727C6.8469 12.9874 7.32315 14.2764 7.14925 15.5324C7.10354 15.8617 7.05268 16.1193 7.27276 16.4636C8.64854 18.614 10.3128 19.5313 12.8375 19.5313C13.8465 19.5313 14.5585 19.507 15.238 19.1831C16.0864 18.779 17.6317 16.7329 17.8614 15.0709C17.9021 14.7787 17.8996 14.5061 17.8592 14.2542ZM13.9147 6.26923C14.1078 5.70767 14.6061 5.75876 14.8114 6.13235C15.166 6.77782 15.6456 7.42259 16.0644 7.94149C16.4954 8.47493 16.9309 9.01681 17.0024 9.34001C17.2297 10.3696 17.3352 12.2322 17.4055 13.3757C16.9585 12.7898 16.1649 12.2399 15.6278 11.8902C15.5544 11.4374 15.4138 10.6481 15.1747 9.59337C15.0156 8.88767 14.1669 8.47657 13.9412 7.49173C13.8371 7.03517 13.7992 6.60532 13.9147 6.26923ZM12.3402 8.50564C12.2178 8.25814 12.0805 7.32368 12.4274 7.06517C12.7501 6.82446 13.0086 7.29439 13.2381 7.66587C13.3457 8.34931 13.7577 8.95728 14.0476 9.30415C14.2735 9.57439 14.4685 9.80735 14.525 10.0778C14.5951 10.412 14.6907 10.9602 14.7585 11.3594C14.5515 11.241 14.3424 11.1263 14.1315 11.0151C13.9437 10.5679 13.742 10.1266 13.5268 9.69181C13.3154 9.26079 12.6378 9.10657 12.3402 8.50564ZM14.8869 18.4907C14.2824 18.7795 13.6581 18.805 12.6742 18.805C10.4361 18.805 8.21378 17.691 7.51722 16.1242C7.39886 15.8584 7.51276 15.4811 7.51276 14.9793C7.51276 13.7784 7.54206 13.068 8.15026 13.068C8.44229 13.068 9.36432 13.7711 9.36432 15.5556L11.5815 16.5567C12.2284 15.8934 14.0675 14.8492 14.0675 14.8492C13.7783 14.4815 13.9346 13.4327 13.9346 13.4327C13.3283 13.3546 12.0388 12.7436 11.5944 11.8888C11.027 12.378 8.39143 13.2885 8.22128 12.138C8.17089 11.7974 8.47675 11.6774 8.59722 11.6472C9.85229 11.3303 10.4589 10.9656 10.8908 10.7027C11.2056 10.5107 11.503 10.3511 11.7482 10.3511C11.9537 10.3511 12.272 10.454 12.6421 10.6295C13.6937 11.1269 15.4449 11.9097 17.0024 13.2733C17.1474 13.4006 17.3319 13.6797 17.3907 13.8592C17.9216 15.4823 15.7262 18.089 14.8869 18.4907ZM13.5655 14.8696C13.1429 15.093 12.1564 15.6402 11.5649 16.1772L9.92425 15.1197C9.92425 14.2249 9.72995 13.5775 9.44636 13.1587C10.1642 13.1125 11.0523 12.9245 11.503 12.6834C11.8213 13.0152 12.631 13.7697 13.5163 13.8895C13.483 14.1494 13.4612 14.545 13.5655 14.8696Z" fill="white"/>
</svg>
