<svg width="24" height="24" viewBox="0 0 24 24" fill="none" xmlns="http://www.w3.org/2000/svg">
<circle opacity="0.2" cx="12" cy="12" r="12" fill="white"/>
<path d="M11.7813 5.96895L8.4751 9.27519C8.3501 9.40019 8.3501 9.59395 8.4751 9.71895L9.28134 10.5252C9.40634 10.6502 9.6001 10.6502 9.7251 10.5252L11.7813 8.46895C11.9063 8.34395 12.1001 8.34395 12.2251 8.46895L14.2813 10.5252C14.4063 10.6502 14.6001 10.6502 14.7251 10.5252L15.5313 9.71895C15.6563 9.59395 15.6563 9.40019 15.5313 9.27519L12.2251 5.96895C12.1001 5.8502 11.9001 5.8502 11.7813 5.96895Z" fill="white"/>
<path d="M11.7813 18.0313L8.4751 14.7251C8.3501 14.6001 8.3501 14.4063 8.4751 14.2813L9.28134 13.4751C9.40634 13.3501 9.6001 13.3501 9.7251 13.4751L11.7813 15.5313C11.9063 15.6563 12.1001 15.6563 12.2251 15.5313L14.2813 13.4751C14.4063 13.3501 14.6001 13.3501 14.7251 13.4751L15.5313 14.2813C15.6563 14.4063 15.6563 14.6001 15.5313 14.7251L12.2251 18.0313C12.1001 18.1501 11.9001 18.1501 11.7813 18.0313Z" fill="white"/>
<path d="M17.0625 10.8127L18.025 11.7752C18.15 11.9002 18.15 12.0939 18.025 12.2189L17.0625 13.1814C16.9375 13.3064 16.7437 13.3064 16.6187 13.1814L15.6563 12.2189C15.5312 12.0939 15.5312 11.9002 15.6563 11.7752L16.6187 10.8127C16.7437 10.6939 16.9438 10.6939 17.0625 10.8127Z" fill="white"/>
<path d="M7.375 10.8127L8.3375 11.7752C8.4625 11.9002 8.4625 12.0939 8.3375 12.2189L7.375 13.1814C7.25 13.3064 7.05625 13.3064 6.93125 13.1814L5.96875 12.2189C5.84375 12.0939 5.84375 11.9002 5.96875 11.7752L6.93125 10.8127C7.05625 10.6939 7.25625 10.6939 7.375 10.8127Z" fill="white"/>
<path d="M12.2187 10.6748L13.325 11.7811C13.45 11.9061 13.45 12.0998 13.325 12.2248L12.2187 13.3311C12.0937 13.4561 11.9 13.4561 11.775 13.3311L10.6687 12.2248C10.5437 12.0998 10.5437 11.9061 10.6687 11.7811L11.775 10.6748C11.9 10.5498 12.1 10.5498 12.2187 10.6748Z" fill="white"/>
</svg>
