<svg width="19" height="20" viewBox="0 0 19 20" fill="none" xmlns="http://www.w3.org/2000/svg">
<g clip-path="url(#clip0_996_1901)">
<path d="M19 1.42956V18.9518C19 19.1478 18.9222 19.3357 18.7836 19.4743C18.645 19.6128 18.4571 19.6907 18.2611 19.6907H13.071C12.991 19.6901 12.9134 19.6638 12.8495 19.6157C12.7856 19.5676 12.7389 19.5003 12.7163 19.4236C12.5062 18.7506 12.0866 18.1624 11.5186 17.7446C10.9507 17.3269 10.2641 17.1015 9.55912 17.1014C8.85424 17.1016 8.16786 17.327 7.6001 17.7447C7.03235 18.1625 6.61293 18.7507 6.40302 19.4236C6.38037 19.5003 6.33365 19.5676 6.26978 19.6157C6.20592 19.6638 6.12828 19.6901 6.04834 19.6907H0.738889C0.542923 19.6907 0.354988 19.6128 0.21642 19.4743C0.0778513 19.3357 0 19.1478 0 18.9518V1.42956C0 1.2336 0.0778513 1.04566 0.21642 0.907094C0.354988 0.768525 0.542923 0.690674 0.738889 0.690674H6.11274C6.18872 0.691087 6.26273 0.714778 6.32483 0.758566C6.38692 0.802354 6.43412 0.864127 6.46002 0.935557C6.69568 1.56731 7.11881 2.11194 7.67272 2.49643C8.22663 2.88092 8.88484 3.08691 9.55912 3.08678C10.2335 3.08682 10.8918 2.88082 11.4459 2.49635C11.9999 2.11189 12.4233 1.56731 12.6593 0.935557C12.6852 0.864127 12.7324 0.802354 12.7945 0.758566C12.8566 0.714778 12.9306 0.691087 13.0066 0.690674H18.2611C18.3581 0.690674 18.4542 0.709785 18.5439 0.746918C18.6335 0.78405 18.715 0.838481 18.7836 0.907094C18.8522 0.975706 18.9066 1.05715 18.9438 1.1468C18.9809 1.23644 19 1.33253 19 1.42956Z" fill="#A9C6D6"/>
<path d="M10.5617 8.59079L10.6193 8.76033H10.7984H13.0233C13.3848 8.76033 13.5308 9.22631 13.2338 9.43254L11.4582 10.6657L11.3035 10.7731L11.3641 10.9515L12.0573 12.9908C12.1719 13.328 11.7898 13.6159 11.4974 13.4128L9.6426 12.1247L9.5 12.0256L9.3574 12.1247L7.50262 13.4128C7.21017 13.6159 6.82807 13.328 6.94266 12.9908L7.63589 10.9515L7.69651 10.7731L7.54179 10.6657L5.76618 9.43254C5.46922 9.22631 5.61516 8.76033 5.97671 8.76033H8.20163H8.38069L8.43832 8.59079L9.15056 6.49547C9.264 6.16175 9.736 6.16175 9.84943 6.49547L10.5617 8.59079Z" fill="#232326" stroke="#232326" stroke-width="0.5"/>
</g>
<defs>
<clipPath id="clip0_996_1901">
<rect width="19" height="19" fill="white" transform="translate(0 0.690674)"/>
</clipPath>
</defs>
</svg>
