<svg width="28" height="28" viewBox="0 0 28 28" fill="none" xmlns="http://www.w3.org/2000/svg">
<g opacity="0.8">
<path d="M18.2623 26.9412V26.9412C18.0086 26.9393 17.7622 26.856 17.5596 26.7034C17.3587 26.5521 17.2114 26.3409 17.1388 26.1004C16.9154 25.3874 16.4704 24.7643 15.8684 24.3216C15.2655 23.8781 14.5367 23.6388 13.7883 23.6386L18.2623 26.9412ZM18.2623 26.9412H18.2674M18.2623 26.9412H18.2674M18.2674 26.9412H24.8873C25.3248 26.9412 25.7444 26.7674 26.0538 26.458C26.3632 26.1486 26.5369 25.7291 26.5369 25.2916V2.94244C26.5369 2.72588 26.4943 2.51137 26.4113 2.31116L26.4113 2.31115C26.3284 2.11104 26.207 1.9292 26.0538 1.77601L26.0538 1.776C25.9006 1.62284 25.7188 1.50132 25.5186 1.41842C25.3184 1.33551 25.1039 1.29285 24.8873 1.29285L18.1853 1.29284L18.1814 1.29286C17.94 1.29418 17.7046 1.36946 17.5072 1.50868C17.3109 1.64708 17.1616 1.84195 17.079 2.06725C16.8283 2.73703 16.3791 3.31438 15.7915 3.72213C15.2032 4.13034 14.5042 4.34907 13.7882 4.34903H13.788C13.0721 4.34916 12.3734 4.13048 11.7853 3.72229C11.1979 3.31456 10.7491 2.7372 10.4987 2.06745C10.416 1.84195 10.2666 1.64704 10.0704 1.50868C9.873 1.36949 9.6377 1.29418 9.3962 1.29286V1.29285H9.39235H2.53814C2.10063 1.29285 1.68106 1.46666 1.37171 1.77601C1.06237 2.08536 0.888555 2.50492 0.888555 2.94244V25.2916C0.888555 25.7291 1.06237 26.1487 1.37171 26.458C1.68106 26.7674 2.10063 26.9412 2.53814 26.9412L9.31021 26.9412L9.31531 26.9412M18.2674 26.9412L9.31531 26.9412M9.31531 26.9412C9.56901 26.9393 9.81537 26.856 10.018 26.7034C10.2188 26.5522 10.3662 26.3409 10.4388 26.1003C10.6621 25.3874 11.1068 24.7644 11.7085 24.3216C12.3112 23.8782 13.0398 23.6389 13.788 23.6386L9.31531 26.9412Z" fill="#FEF5DC" fill-opacity="0.05" stroke="#FEF5DC" stroke-width="1.4143"/>
<path d="M15.2003 12.0308L15.2413 12.1516H15.369H19.3191C19.5768 12.1516 19.6808 12.4838 19.4692 12.6308L16.2908 14.8381L16.1805 14.9147L16.2238 15.0418L17.4485 18.6447C17.5301 18.885 17.2578 19.0902 17.0494 18.9455L13.8146 16.699L13.7129 16.6284L13.6113 16.699L10.3765 18.9455C10.1681 19.0902 9.89572 18.885 9.97739 18.6447L11.2021 15.0418L11.2453 14.9147L11.135 14.8381L7.95669 12.6308C7.74503 12.4838 7.84904 12.1516 8.10674 12.1516H12.0569H12.1845L12.2256 12.0308L13.4639 8.38796C13.5447 8.15009 13.8811 8.15009 13.962 8.38796L15.2003 12.0308Z" fill="#FEF5DC" stroke="#232326" stroke-width="0.356383"/>
</g>
</svg>
