<svg width="24" height="19" viewBox="0 0 24 19" fill="none" xmlns="http://www.w3.org/2000/svg">
    <path opacity="0.5"
        d="M0 0H23.88L21.6783 17.1231C21.6139 17.6239 21.1863 17.9981 20.6814 17.9955L3.01097 17.9061C2.50626 17.9035 2.08257 17.5253 2.02302 17.0241L0 0Z"
        fill="url(#paint0_linear_2092_1689)" />
    <path
        d="M14.8167 8.20508H8.6774C8.14767 8.20508 7.65605 8.48057 7.37951 8.93239L2.25576 17.3035C2.10107 17.5563 2.28192 17.881 2.57823 17.8826L11.0205 17.9271C11.5287 17.9298 12.0047 17.6786 12.2893 17.2576L14.8167 10.6856C15.3747 9.8601 15.6703 13.9369 16.3282 14.6851L18.7747 17.467C19.0636 17.7956 19.4799 17.9839 19.9174 17.9839H21.0782C21.3769 17.9839 21.5591 17.6554 21.4009 17.402L16.1076 8.92108C15.8297 8.47571 15.3417 8.20508 14.8167 8.20508Z"
        fill="#62E3C4" />
    <circle opacity="0.4" cx="11.5626" cy="5.77553" r="0.60951" fill="#FFD979" />
    <circle cx="21.7218" cy="9.839" r="0.60951" fill="#FFD979" />
    <circle cx="19.0802" cy="3.13388" r="0.40634" fill="#FFD979" />
    <circle cx="3.27841" cy="9.97372" r="0.40634" fill="#FFD979" />
    <path
        d="M4.49725 4.35352L4.71675 4.9467L5.30993 5.1662L4.71675 5.38569L4.49725 5.97888L4.27775 5.38569L3.68457 5.1662L4.27775 4.9467L4.49725 4.35352Z"
        fill="#FFD979" />
    <path d="M19.5955 18.0004L15.0459 9.63184L15.7426 18.0004H19.5955Z" fill="#FFD979"
        stroke="#1A1A1A" stroke-width="0.5" stroke-linejoin="round" />
    <path d="M10.3475 17.9999L14.9834 9.68457L11.5925 17.9999H10.3475Z" fill="#FFD979"
        stroke="#1A1A1A" stroke-width="0.5" stroke-linejoin="round" />
    <defs>
        <linearGradient id="paint0_linear_2092_1689" x1="11.9401" y1="1.96376" x2="11.9366"
            y2="17.6265" gradientUnits="userSpaceOnUse">
            <stop offset="0.027769" stop-color="#55AF95" stop-opacity="0" />
            <stop offset="1" stop-color="#55AF95" />
        </linearGradient>
    </defs>
</svg>
