<svg width="32" height="32" viewBox="0 0 32 32" fill="none" xmlns="http://www.w3.org/2000/svg">
<g opacity="0.7">
<path d="M16 19.9998C20.9706 19.9998 25 16.1196 25 11.3332C25 6.5467 20.9706 2.6665 16 2.6665C11.0294 2.6665 7 6.5467 7 11.3332C7 16.1196 11.0294 19.9998 16 19.9998Z" fill="white"/>
<path d="M21.0533 20.8133C21.4933 20.5866 22 20.9199 22 21.4133V27.8799C22 29.0799 21.16 29.6666 20.12 29.1733L16.5467 27.4799C16.24 27.3466 15.76 27.3466 15.4533 27.4799L11.88 29.1733C10.84 29.6533 10 29.0666 10 27.8666L10.0267 21.4133C10.0267 20.9199 10.5467 20.5999 10.9733 20.8133C12.48 21.5733 14.1867 21.9999 16 21.9999C17.8133 21.9999 19.5333 21.5733 21.0533 20.8133Z" fill="white"/>
</g>
</svg>
