<svg width="32" height="32" viewBox="0 0 32 32" fill="none" xmlns="http://www.w3.org/2000/svg">
<path d="M21.587 2.6665H10.4137C5.56033 2.6665 2.66699 5.55984 2.66699 10.4132V21.5732C2.66699 26.4398 5.56033 29.3332 10.4137 29.3332H21.5737C26.427 29.3332 29.3203 26.4398 29.3203 21.5865V10.4132C29.3337 5.55984 26.4403 2.6665 21.587 2.6665ZM21.827 19.5065L18.867 22.4665C18.147 23.1865 17.2137 23.5332 16.2803 23.5332C15.347 23.5332 14.4003 23.1732 13.6937 22.4665C12.267 21.0398 12.267 18.7065 13.6937 17.2798L15.5737 15.3998C15.9603 15.0132 16.6003 15.0132 16.987 15.3998C17.3737 15.7865 17.3737 16.4265 16.987 16.8132L15.107 18.6932C14.4537 19.3465 14.4537 20.3998 15.107 21.0532C15.7603 21.7065 16.8137 21.7065 17.467 21.0532L20.427 18.0932C21.2403 17.2798 21.6937 16.1865 21.6937 15.0265C21.6937 13.8665 21.2403 12.7865 20.427 11.9598C18.787 10.3198 15.9337 10.3198 14.2937 11.9598L11.0537 15.1998C9.66699 16.5865 9.66699 18.8532 11.0537 20.2532C11.4403 20.6398 11.4403 21.2798 11.0537 21.6665C10.667 22.0532 10.027 22.0532 9.64033 21.6665C7.46699 19.4932 7.46699 15.9598 9.64033 13.7865L12.867 10.5598C14.067 9.35984 15.6537 8.7065 17.347 8.7065C19.0403 8.7065 20.627 9.35984 21.827 10.5598C23.027 11.7598 23.6803 13.3465 23.6803 15.0398C23.6803 16.7332 23.027 18.3198 21.827 19.5065Z" fill="#FF9E0B"/>
</svg>
