<?xml version="1.0" encoding="UTF-8"?>
<svg id="Layer_1" data-name="Layer 1" xmlns="http://www.w3.org/2000/svg" viewBox="0 0 285.27 285.27">
  <defs>
    <style>
      .cls-1 {
        fill: #d1d3d4;
      }
    </style>
  </defs>
  <path class="cls-1" d="M5.54,147.37c.27-6.42,.51-12.84,.82-19.26,.14-2.91,.6-5.79,1.25-8.64,.57-2.52,.92-5.09,1.53-7.6,.76-3.12,1.67-6.21,2.54-9.3,.44-1.57,.87-3.16,1.43-4.69,1.26-3.41,2.47-6.85,3.93-10.18,1.99-4.52,4.14-8.97,6.34-13.39,.89-1.78,2.1-3.38,3.15-5.08,.4-.65,.73-1.35,1.15-1.99,.76-1.18,1.5-2.39,2.36-3.49,2.96-3.75,5.88-7.55,9-11.17,2.77-3.2,5.72-6.26,8.73-9.24,2.65-2.63,5.37-5.19,8.4-7.41,1.87-1.37,3.53-3.01,5.38-4.41,1.33-1.01,2.81-1.83,4.23-2.73,.57-.36,1.2-.64,1.73-1.05,3.32-2.59,6.96-4.64,10.76-6.43,1.27-.6,2.5-1.3,3.77-1.91,2.12-1.02,4.28-1.95,6.38-3,6.42-3.23,13.37-4.88,20.22-6.83,1.14-.32,2.24-.79,3.39-1.03,3.39-.69,6.79-1.36,10.2-1.92,2.6-.43,5.23-.87,7.85-.95,4.37-.13,8.75,.04,13.12,.06,1.73,0,3.46-.15,5.19-.05,4.5,.26,9.02,.25,13.47,1.09,4.07,.77,8.16,1.42,12.19,2.36,4.11,.96,8.18,2.13,12.23,3.35,1.94,.58,3.79,1.48,5.68,2.23,2.98,1.19,6,2.29,8.94,3.57,4.22,1.84,8.31,3.95,12.18,6.43,4.32,2.77,8.6,5.61,12.79,8.58,2.07,1.46,3.88,3.29,5.83,4.93,2.05,1.73,4.19,3.36,6.14,5.2,1.65,1.55,3.08,3.33,4.61,5.02,.27,.3,.47,.68,.75,.97,2.94,2.92,5.53,6.11,7.89,9.51,2.95,4.27,5.98,8.48,8.95,12.74,.83,1.19,1.64,2.4,2.36,3.67,.78,1.38,1.45,2.83,2.17,4.25,.47,.93,.89,1.9,1.41,2.8,.92,1.58,1.56,3.27,2.21,4.97,1.09,2.83,2.39,5.59,3.37,8.46,1.22,3.57,2.27,7.21,3.29,10.84,.92,3.28,1.79,6.58,2.5,9.92,.6,2.8,1.03,5.65,1.38,8.49,.38,3.07,.68,6.16,.83,9.25,.16,3.09,.19,6.2,.11,9.3-.13,4.92-.27,9.84-.67,14.74-.4,4.9-1.3,9.74-2.25,14.58-.79,4.05-2.01,7.93-3.5,11.76-.41,1.05-.82,2.09-1.33,3.09-.08,.16-.17,.33-.18,.51-.1,1.97-1.12,3.62-1.86,5.36-1.06,2.49-2.24,4.94-3.41,7.39-.88,1.84-1.82,3.64-2.72,5.47-.22,.45-.39,.92-.63,1.35-1.15,2.07-2.28,4.14-3.47,6.18-.94,1.6-1.92,3.19-2.95,4.73-1.21,1.82-2.46,3.6-3.74,5.37-.94,1.29-1.88,2.58-2.94,3.77-3.7,4.15-7.35,8.33-11.2,12.34-2.68,2.79-5.61,5.33-8.48,7.92-1.48,1.34-3.02,2.62-4.64,3.79-2.54,1.83-5.12,3.61-7.77,5.27-3.15,1.97-6.37,3.85-9.6,5.68-3.21,1.81-6.43,3.63-9.75,5.22-2.57,1.23-5.17,2.44-7.92,3.28-3.12,.95-6.16,2.19-9.29,3.11-2.83,.83-5.73,1.43-8.6,2.07-2.74,.62-5.49,1.25-8.26,1.73-4.68,.81-9.4,1.21-14.15,1.28-5.42,.08-10.84,.14-16.25,.06-2.26-.03-4.52-.45-6.78-.7-1.49-.17-3-.27-4.48-.54-3.89-.69-7.77-1.42-11.64-2.2-3.86-.77-7.66-1.81-11.38-3.1-3.21-1.12-6.38-2.34-9.53-3.59-2.62-1.04-5.25-2.09-7.8-3.29-2.09-.98-4.08-2.19-6.12-3.29-.48-.26-1-.45-1.47-.73-1.87-1.12-3.76-2.22-5.59-3.39-1.99-1.27-3.94-2.62-5.89-3.94-3.13-2.12-6.13-4.41-8.96-6.91-2.7-2.38-5.47-4.68-8.08-7.15-2.01-1.9-3.86-3.99-5.72-6.04-1.34-1.48-2.56-3.08-3.88-4.58-3.38-3.84-6.41-7.93-9.04-12.31-1.91-3.18-3.87-6.34-5.64-9.6-1.61-2.95-3.06-6-4.48-9.05-1.31-2.8-2.52-5.64-3.73-8.49-1.55-3.67-2.84-7.44-3.82-11.3-.84-3.3-1.46-6.65-2.18-9.97-.53-2.44-1.13-4.87-1.56-7.33-.65-3.74-.62-7.53-.65-11.32,0-1.14,0-2.28,0-3.42h-.13Zm268.66-6.57h-.01c0-2.51,.01-5.02,0-7.52-.02-3.69-.16-7.34-1.13-10.96-1.61-6.02-2.89-12.14-4.41-18.18-.99-3.92-2.18-7.8-3.89-11.49-1.5-3.22-3.11-6.39-4.59-9.61-3.14-6.81-7.26-13.05-11.57-19.13-2.81-3.96-6.15-7.56-9.39-11.2-3.79-4.26-7.91-8.2-12.48-11.65-2.04-1.54-3.9-3.3-5.92-4.85-1.69-1.3-3.46-2.51-5.26-3.65-1.8-1.14-3.69-2.15-5.54-3.22-3.23-1.87-6.37-3.9-9.7-5.56-3.57-1.78-7.22-3.43-10.99-4.79-9.02-3.25-18.33-5.36-27.76-6.98-3.99-.68-8.05-.95-12.09-1.26-5.64-.43-11.29-.23-16.93,.23-5.53,.46-11.07,.65-16.49,2.16-2.65,.74-5.43,1.06-8.07,1.97-3.14,1.08-6.38,1.88-9.49,3.04-7.61,2.82-15.16,5.8-22.04,10.18-4.76,3.03-9.53,6.07-14.16,9.29-2.34,1.63-4.42,3.66-6.55,5.58-1.73,1.55-3.34,3.24-5.05,4.81-1.68,1.54-3.42,3-5.13,4.5-.16,.14-.3,.32-.42,.5-.46,.67-.84,1.4-1.37,2.01-.8,.93-1.74,1.73-2.52,2.68-2.11,2.57-4.27,5.09-5.98,7.97-1.11,1.87-2.43,3.62-3.64,5.43-.63,.94-1.25,1.9-1.84,2.87-1.02,1.66-2.11,3.29-2.99,5.03-1.48,2.93-2.82,5.92-4.22,8.89-7.1,15.13-10.91,31.08-11.81,47.73-.64,11.85,.35,23.58,2.88,35.19,4.86,22.29,14.96,41.96,29.73,59.25,4.72,5.52,10.21,10.28,15.72,15,2.17,1.87,4.54,3.52,6.88,5.17,8.94,6.31,18.64,11.23,28.79,15.28,9.16,3.66,18.53,6.6,28.38,7.78,2.8,.33,5.6,.88,8.41,.97,6.01,.2,12.03,.22,18.05,.21,5.2,0,10.37-.49,15.46-1.59,4.35-.94,8.71-1.86,13.04-2.9,6.71-1.61,13.05-4.31,19.33-7.1,6.67-2.96,12.93-6.71,19.04-10.68,2.48-1.61,5-3.22,7.25-5.12,3.79-3.2,7.44-6.58,11.05-9.98,1.95-1.84,3.82-3.8,5.53-5.87,4.23-5.13,8.52-10.2,12.35-15.66,2.23-3.18,4.06-6.56,5.85-9.97,1.72-3.26,3.33-6.59,4.85-9.94,1.15-2.52,2.18-5.11,3.09-7.72,.93-2.66,1.62-5.39,2.46-8.08,.91-2.91,2.06-5.75,2.75-8.71,.74-3.18,1.11-6.46,1.57-9.7,.66-4.65,1.09-9.32,1.01-14.03-.04-2.19,0-4.38,0-6.57Z"/>
  <path class="cls-1" d="M269.02,141.82c-.1,4.06-.1,8.12-.33,12.17-.15,2.72-.59,5.43-.94,8.14-.25,1.94-.52,3.88-.9,5.79-.36,1.82-.85,3.62-1.35,5.41-.53,1.93-1.13,3.83-1.71,5.74-1.88,6.09-3.88,12.14-6.57,17.94-1.04,2.24-2.38,4.28-3.52,6.44-1.85,3.52-3.97,6.85-6.27,10.08-2.55,3.59-4.79,7.42-7.77,10.7-2.6,2.86-5.13,5.78-7.75,8.63-1.88,2.04-3.91,3.92-6.18,5.57-2.93,2.13-5.68,4.51-8.57,6.71-2.38,1.81-4.83,3.51-7.5,4.88-1.65,.85-3.18,1.95-4.77,2.92-.81,.49-1.64,.97-2.49,1.39-2.97,1.47-5.93,2.98-8.95,4.34-3.01,1.36-6.05,2.66-9.15,3.8-2.3,.85-4.69,1.43-7.05,2.09-.7,.19-1.43,.24-2.15,.35-.22,.04-.49,0-.67,.11-2.2,1.3-4.7,1.63-7.12,2.23-4.49,1.11-9.06,1.55-13.65,1.84-2.13,.13-4.27,.11-6.4,.1-5.83-.05-11.67,.02-17.49-.26-3.44-.17-6.87-.83-10.27-1.45-3.17-.57-6.33-1.27-9.45-2.11-3.18-.86-6.32-1.91-9.43-2.99-2.83-.99-5.65-2-8.37-3.24-3.88-1.77-7.67-3.74-11.49-5.65-.69-.34-1.31-.82-1.99-1.2-1.34-.75-2.75-1.4-4.04-2.23-1.37-.88-2.64-1.93-3.95-2.9-.33-.24-.62-.54-.97-.74-2.91-1.65-5.53-3.69-7.97-5.96-.53-.49-1.19-.85-1.72-1.34-3.62-3.37-7.24-6.75-10.84-10.15-1.93-1.82-3.5-3.94-5.02-6.12-1.22-1.75-2.63-3.36-3.9-5.08-2.68-3.62-5.2-7.35-7.29-11.37-1.94-3.73-3.96-7.42-5.88-11.16-.92-1.81-1.74-3.68-2.49-5.57-1.16-2.89-2.3-5.79-3.3-8.74-.78-2.28-1.44-4.61-1.95-6.96-.73-3.32-1.14-6.72-1.94-10.02-1.21-5.02-1.22-10.12-1.33-15.21-.1-4.59-.01-9.19,0-13.78,0-3.93,.49-7.82,1.26-11.67,.46-2.32,1.01-4.62,1.49-6.93,.32-1.55,.51-3.14,.9-4.67,.91-3.55,1.84-7.1,2.91-10.6,.47-1.55,1.3-2.99,1.93-4.5,.52-1.25,.98-2.52,1.49-3.77,.42-1.04,.83-2.1,1.33-3.11,1.3-2.61,2.64-5.19,3.97-7.78,.74-1.46,1.39-2.98,2.24-4.37,1.46-2.41,3.01-4.77,4.61-7.1,1.15-1.68,2.49-3.24,3.66-4.92,3.05-4.4,7.1-7.89,10.64-11.84,2.93-3.28,6.16-6.21,9.43-9.1,2.15-1.9,4.32-3.76,6.79-5.26,2.04-1.24,3.92-2.75,5.91-4.08,1.24-.83,2.53-1.6,3.87-2.27,3.56-1.81,7.15-3.56,10.73-5.31,1.71-.83,3.41-1.72,5.18-2.4,3.52-1.34,7.06-2.66,10.66-3.8,3.29-1.04,6.63-1.95,9.99-2.7,2.88-.64,5.83-.98,8.74-1.47,1.12-.19,2.24-.39,3.36-.59,.36-.06,.71-.18,1.07-.2,3.55-.13,7.1-.25,10.65-.37,2.27-.07,4.54-.19,6.81-.19,2.45,0,4.91,.1,7.36,.22,4.19,.21,8.35,.78,12.42,1.71,5.71,1.29,11.34,2.94,17.01,4.43,5.54,1.45,10.7,3.83,15.78,6.43,2.73,1.4,5.54,2.66,8.25,4.12,3.36,1.81,6.65,3.73,9.66,6.11,1.63,1.29,3.36,2.46,4.97,3.77,1.33,1.09,2.59,2.28,3.82,3.49,4.1,4.02,8.21,8.03,12.22,12.14,2,2.04,3.79,4.29,5.65,6.46,1.18,1.38,2.34,2.78,3.45,4.22,.52,.68,.87,1.48,1.33,2.22,1.05,1.7,2.15,3.37,3.17,5.09,1.27,2.14,2.57,4.27,3.71,6.48,1.35,2.62,2.52,5.32,3.81,7.98,1.89,3.9,3.41,7.94,4.66,12.08,.32,1.04,.56,2.11,.87,3.16,.55,1.87,1.05,3.76,1.71,5.59,.92,2.55,1.26,5.21,1.71,7.86,.35,2.11,.77,4.21,1.04,6.34,.26,2.12,.47,4.26,.53,6.39,.09,3.19,.02,6.38,.02,9.57,.04,0,.08,0,.12,0Zm-3.22,1.37s-.08,0-.12,0c0-3.69,.07-7.39-.02-11.08-.06-2.32-.31-4.63-.55-6.94-.1-1.04-.38-2.06-.56-3.09-.39-2.28-.67-4.58-1.16-6.83-.44-1.99-1.11-3.93-1.68-5.89-6.32-21.81-17.64-40.59-34.11-56.25-5.29-5.04-10.73-9.91-16.94-13.8-6.91-4.33-14.01-8.32-21.6-11.37-.8-.32-1.56-.75-2.37-1.03-1.46-.5-2.95-.92-4.42-1.39-.82-.26-1.62-.63-2.45-.83-4.81-1.21-9.63-2.41-14.46-3.55-1.9-.45-3.83-.85-5.77-1.05-2.58-.27-5.18-.42-7.78-.43-9.92-.05-19.87-.87-29.74,.95-1.25,.23-2.54,.26-3.78,.53-1.42,.3-2.79,.8-4.2,1.14-8.84,2.1-17.44,4.9-25.63,8.88-.45,.22-.92,.39-1.36,.63-2.38,1.32-4.75,2.65-7.13,3.97-.31,.17-.64,.31-.94,.51-3.55,2.46-7.24,4.75-10.62,7.43-8.88,7.03-17.21,14.64-24.03,23.76-1.17,1.57-2.52,3-3.61,4.62-1.44,2.15-2.91,4.26-4.14,6.56-2.97,5.54-6.01,11.01-8.36,16.87-2.9,7.2-5.41,14.5-7.06,22.1-1.16,5.36-1.65,10.8-2.07,16.25-.29,3.81-.34,7.65-.35,11.48-.01,3.26-.13,6.54,.6,9.76,.04,.18,.03,.36,.05,.54,.52,4.24,.55,8.55,2.01,12.64,.11,.3,.14,.62,.21,.93,.53,2.44,.95,4.91,1.6,7.33,1.9,7.07,4.69,13.79,7.93,20.34,2.63,5.31,5.37,10.56,9.03,15.27,.58,.75,1.07,1.58,1.61,2.36,4.03,5.83,8.5,11.3,13.7,16.12,4.01,3.72,8.25,7.17,12.39,10.75,.38,.32,.69,.73,1.11,.99,1.22,.78,2.54,1.4,3.69,2.26,3.26,2.43,6.71,4.53,10.33,6.37,6.5,3.3,13.22,6.12,19.99,8.83,8.89,3.57,18.18,5.32,27.68,5.9,6.04,.36,12.12,.28,18.18,.17,6.56-.12,13.09-.6,19.54-2.05,6.53-1.47,12.97-3.2,19.15-5.78,6.1-2.55,12.06-5.41,17.83-8.61,2.54-1.41,4.96-3.05,7.33-4.73,2.82-2,5.68-3.98,8.26-6.28,4.02-3.57,7.77-7.44,11.7-11.11,2.55-2.38,4.69-5.08,6.79-7.83,.85-1.12,1.5-2.4,2.39-3.49,1.96-2.4,3.9-4.78,5.38-7.53,1.29-2.4,2.78-4.7,4.11-7.08,4.71-8.39,8.12-17.31,10.67-26.56,1.71-6.2,3.1-12.48,3.46-18.92,.24-4.23,.2-8.48,.29-12.71Z"/>
  <path class="cls-1" d="M209.39,189.2c.45,.66,.77,1.21,1.17,1.69,1.18,1.4,1.35,2.97,.77,4.62-.41,1.15-.98,2.25-1.53,3.49-1.21,0-2.39-.06-3.56,0-11.47,.63-22.96,.81-34.45,.81-5.65,0-11.31,.08-16.96,.09-24.7,.06-49.4,.11-74.1,.16-.91,0-1.82-.02-2.73-.06-1.73-.08-2.74-1.37-2.77-2.94-.04-2.83,1.05-4.85,3.55-5.84,.86-.34,1.87-.46,2.8-.43,1.49,.04,2.3-.65,2.73-1.97,.04-.13,.13-.25,.15-.38,.43-2.93,2.61-4.04,5.1-4.61,1.46-.33,2.29-1.13,2.67-2.41,.51-1.69,.9-3.43,1.25-5.17,1.04-5.17,1.21-10.4,1.11-15.65-.03-1.5-.16-3.01-.18-4.51-.03-1.82-.98-2.97-2.56-3.7-1.69-.78-3.44-.79-5.22-.41-.36,.08-.71,.15-1.06,.25-2.46,.68-4.75,.3-6.89-1.08-.69-.44-1.4-.86-2.07-1.32-.57-.39-1.08-.5-1.75-.12-.86,.49-1.78,.95-2.73,1.18-1.18,.28-2.43,.47-3.63,.4-1.05-.06-1.92-.67-2.48-1.7-.49-.92-.89-1.85-1.23-2.85-.31-.91-1.03-1.7-1.63-2.49-.79-1.05-1.7-2.02-2.46-3.09-1.17-1.65-1.09-3.46-.3-5.2,.49-1.06,1.14-2.11,1.94-2.95,1.98-2.08,4.09-4.03,6.15-6.03,1.33-1.29,3.03-1.81,4.78-2.13,1.3-.24,2.61-.42,3.93-.49,1.01-.05,1.85-.42,2.63-.98,1.18-.86,2.29-1.81,3.51-2.61,1.25-.83,2.57-1.53,3.88-2.27,.7-.39,1.3-.22,1.79,.41,.65,.83,1.33,1.62,1.98,2.44,1.53,1.94,3.48,3.08,5.94,3.56,5.18,1.01,10.32,2.19,15.47,3.3,3.37,.73,6.74,1.49,10.11,2.18,2.38,.49,2.76,.18,2.82-2.22,.03-1.4,.38-2.7,.99-3.93,.77-1.55,1.56-3.09,2.4-4.6,.38-.67,.32-1.26-.17-1.74-.58-.57-1.23-1.09-1.91-1.52-.55-.35-.84-.69-.82-1.4,.04-1.18-.45-1.47-1.51-.9-.72,.38-1.35,.92-2.02,1.39-.68,.47-1.36,.94-2.24,.86-.77-.06-.98-.43-.57-1.08,.34-.54,.74-1.03,1.11-1.54,.26-.36,.52-.72,.86-1.19-1.3-.12-2.29,.16-3.09,1.02-.88,.93-1.76,1.85-2.67,2.75-.31,.31-.63,.69-1.18,.4-.57-.31-.52-.82-.42-1.31,.1-.49,.31-.95,.45-1.43,.13-.41,.24-.83,.36-1.28-.72-.3-1.11,.09-1.47,.38-.67,.54-1.28,1.17-1.94,1.72-.97,.81-1.96,1.59-3.06,2.46-.17-.68-.28-1.15-.46-1.86-1.56,1.29-3.03,2.51-4.58,3.79-.23-.38-.43-.57-.48-.8-.21-.94-.84-1.17-1.71-1.22-1.3-.08-1.74-.78-1.32-2.03,.17-.49,.35-.82-.16-1.29-.36-.33,.06-.81,.45-.94,.81-.27,1.65-.48,2.49-.64,.62-.12,1.27-.09,1.9-.2,1.1-.19,1.16-.28,1.28-1.4,.03-.26,.07-.52,.13-.98,1.35,.14,2.63,.26,4.03,.41,.1-.6,.18-1.07,.25-1.55,.14-.91,.38-1.1,1.29-.86,.92,.24,1.83,.55,2.75,.82,.97,.28,1.86,.23,2.71-.44,.69-.55,1.41-.66,2.25-.11,.97,.64,2.11,.89,3.27,.6,1.42-.36,2.45,.27,3.43,1.16,.81,.73,1.63,1.45,2.47,2.15,.3,.25,.67,.43,1.06,.68-.03-1.11-.89-2.45-1.92-3.19-.35-.25-.6-.64-.95-.88-.85-.59-1.72-1.16-2.61-1.69-.35-.21-.76-.32-1.15-.42-1.08-.25-1.85-.75-1.74-2.02-1.01-.39-1.82,.18-2.67,.39-.86,.21-1.72,.63-2.63,.23-.42-1.26,1.08-1.79,1-3.07-.51,.04-.99,0-1.43,.13-1.52,.42-2.8,1.28-3.96,2.35-.45,.42-.82,.98-1.65,1-.38-1.86-.2-3.59,.9-5.19-.07-.07-.14-.15-.2-.22-.45,.11-.95,.14-1.35,.34-.85,.43-1.67,.93-2.48,1.43-1.08,.67-2.13,1.39-3.23,2.04-.28,.16-.82,.3-.98,.16-.25-.22-.38-.69-.38-1.06,0-.39,.19-.79,.33-1.17,.16-.42,.36-.82,.56-1.27-.54-.39-1.03-.31-1.44-.04-.64,.42-1.29,.86-1.82,1.4-.7,.71-1.37,1.32-2.53,1.1-.14-.28-.3-.59-.46-.91-.16,.02-.31,0-.42,.06-1.01,.47-1.54,1.38-2.06,2.3-.82,1.45-1.07,1.57-2.74,1.22-.62-.13-1.25-.25-1.85-.46-.59-.2-.83-.63-.67-1.3,.28-1.15,.26-1.15-.35-2.12,.25-.61,.84-.58,1.36-.67,.63-.11,1.28-.12,1.89-.28,1.81-.45,2.14-1.09,1.41-2.87,1.92-.9,4-.43,6.13-.78,.03-.44,.1-.92,.1-1.39,0-.36-.17-.71-.15-1.07,.03-.8,.43-1.09,1.16-.83,.55,.2,1.05,.54,1.58,.8,.93,.47,1.85,.99,2.81,1.38,.55,.22,1.2,.48,1.85,0-.07-1.23-1.5-2.29-.41-3.82,.89,.8,1.72,1.55,2.55,2.29,.47,.43,.91,.9,1.41,1.29,.81,.63,1.16,.57,1.78-.28,.36-.5,.74-.92,1.57-1.01,.83,.87,1.71,1.83,2.63,2.75,.45,.45,.91,.9,1.45,1.22,.61,.35,1.07,.06,1.14-.65,.04-.4-.06-.82,0-1.22,.1-.71,.55-.93,1.18-.59,1.08,.58,1.77,1.51,2.25,2.62,.2,.45,.38,.93,.68,1.31,.32,.4,.77,.55,1.34,.37,1.35-.42,1.68-.27,2.06,1.07,.38,1.34,1.1,2.1,2.57,2.21,.43,.03,.89,.56,1.22,.96,.39,.47,.66,1.05,.97,1.58,.08-.04,.16-.08,.24-.11-.24-.57-.41-1.18-.72-1.69-.43-.7-.94-1.35-1.46-1.97-.55-.66-.93-1.35-.8-2.24,.12-.78-.29-1.21-.96-1.44-.64-.22-1.3-.39-1.96-.58-.6-.17-1.2-.34-1.87-.53,.6-1.24,1.85-1.52,2.73-2.52-.59-.29-1.07-.59-1.59-.77-1.23-.42-2.15-1.04-2.51-2.43-.29-1.11-1.12-1.34-2.29-.97-1.12,.36-2.25,.73-3.4,.99-.69,.16-1.6,.31-1.96-.47-.38-.82,.42-1.31,.97-1.73,.82-.63,1.7-1.18,2.56-1.76l-.06-.3c-.42-.02-.84-.09-1.25-.05-1.18,.12-2.35,.28-3.53,.42-.27,.03-.55,.04-.82,.03-1.43-.04-1.72-.44-1.29-1.77,.05-.16,.12-.32,.22-.58-.95-.25-1.78,.06-2.59,.21-.71,.13-1.4,.41-2.1,.59-1.56,.39-1.96,.1-2.17-1.47-.02-.13-.05-.26-.1-.47-.29-.04-.59-.07-.9-.12-.26-.04-.51-.09-.93-.16,.24-.36,.35-.74,.56-.81,1.11-.36,2.25-.87,3.39-.91,1.76-.05,3.55,.12,5.29,.41,1.79,.3,3.54,.85,5.3,1.29,2.33,.59,4.34,1.86,6.33,3.13,2.4,1.53,4.54,3.42,5.92,5.95,1.36,2.49,3.22,4.74,3.79,7.63,.24,1.2,.54,2.39,.84,3.58,.16,.63,.38,1.25,.69,1.83,.34-1.3,.09-2.56-.22-3.76-.52-2.07-1.13-4.13-1.85-6.14-.92-2.55-2.33-4.84-4.21-6.82-.5-.53-1-1.07-1.48-1.61-2.03-2.31-4.39-4.2-7.07-5.72-1.94-1.1-3.81-2.31-5.68-3.52-.48-.31-.92-.76-1.23-1.23-.41-.63-.22-1.05,.5-1.2,1.46-.29,2.91-.33,4.21,.57,.56,.39,1.09,.82,1.65,1.22,.31,.23,.65,.42,1.17,.76,.2-1.18,.37-2.14,.54-3.14,.74-.17,1.33-.17,1.65,.7,.37,1.01,.86,1.98,1.25,2.99,.38,.98,.93,1.82,1.67,2.6,1-.59,.96-1.48,1.04-2.32,.1-1.16,.21-2.32,.34-3.72,.49,.29,.86,.38,.95,.59,.47,1.07,1,2.13,1.27,3.26,.42,1.77,.64,3.58,.97,5.37,.08,.46,.26,.9,.47,1.6,.35-.59,.52-.95,.76-1.26,.42-.55,1.07-.59,1.5-.04,.29,.38,.51,.87,.59,1.34,.18,1.03,.25,2.08,.37,3.12,.06,.49,.15,.97,.25,1.61,.8-.74,.66-2.41,2.38-1.94,0,.42,0,.86,0,1.31-.01,1.55-.04,3.1-.04,4.65,0,.67,.03,1.25,.6,1.84,.45,.46,.66,1.33,.65,2.02-.04,2.46-.1,4.93-.39,7.36-.3,2.57-.83,5.11-1.36,7.64-.18,.88-.62,1.7-.98,2.53-.12,.28-.33,.6-.58,.73-.94,.48-1.28,1.34-1.68,2.23-.68,1.49-1.49,2.91-2.22,4.38-.24,.48-.36,1.02-.53,1.53-.3,.94-.6,1.89-.88,2.84-.15,.51-.31,1.05-.31,1.57,0,.28,.3,.77,.51,.8,.26,.04,.65-.26,.85-.51,.21-.27,.29-.66,.37-1.01,.13-.54,.31-1.02,.82-1.36,.24-.16,.4-.48,.51-.76,1.04-2.66,1.92-5.4,3.11-7.98,1.88-4.08,2.95-8.32,3.18-12.78,.07-1.37,.04-2.74,.08-4.1,.01-.54,.07-1.07,.12-1.68,.78,.07,1.44,.13,2.22,.2,0-.39,.06-.7-.01-.98-.25-1.01-.51-2.02-.85-3.01-.34-1.01-.19-1.94,.72-2.49,.94-.57,1.08-1.32,.76-2.21-.29-.81-.71-1.57-1.08-2.35-.25-.53-.6-1.04-.77-1.59-.25-.79,.08-1.22,.9-1.29,.35-.03,.71,0,1.32,0-.25-.5-.37-.88-.6-1.16-.6-.75-1.29-1.42-1.86-2.18-.57-.75-1.04-1.56-1.55-2.35,.87-.9,1.82-.17,2.73-.58-1.16-1.8-3.37-2.64-4.18-4.7,.02-.07,.03-.16,.07-.24,.84-1.49,.86-1.52-.49-2.63-.84-.69-1.76-1.27-2.65-1.9,.24-1.21,1.27-2.29,2.4-2.4,.31-.03,.73,.1,.97,.31,.65,.56,1.24,1.19,1.83,1.83,.55,.59,1.07,1.22,1.66,1.9,.47-.31,.82-.57,1.2-.78,.58-.32,.96-.21,1.16,.43,.17,.51,.24,1.07,.26,1.61,.04,1,0,2.01,.02,3.01,.01,.77,.22,1.44,1.07,1.83,.69-.56,1.01-1.63,2.14-1.78,.61,.74,.57,1.55,.21,2.38-.25,.58-.58,1.13-.82,1.71-.39,.93-.61,1.89-.14,2.95,1.36-.46,2.26-1.45,3.33-2.16,.71,.91,.64,2.06-.21,3.04-.36,.41-.84,.71-1.19,1.13-.5,.58-1.02,1.17-1.36,1.85-.38,.76-.11,1.15,.73,1.38,1.4,.39,1.59,.92,.76,2.1-.55,.78-1.15,1.53-1.63,2.35-.37,.63-.52,1.31-.04,2.06,.23,.37,.17,.95,.15,1.44-.01,.39-.16,.79-.28,1.37,1.14-.73,1.3-1.74,1.43-2.75,.09-.72,.13-1.45,.23-2.17,.03-.25,.17-.48,.32-.87,.68,.52,1.27,.96,2.03,1.54,.66-2.61-.34-5.06,.17-7.42,1.24-.22,1.36-.18,1.8,.73,.31,.63,.59,1.28,.97,2.08,.65-.91,.64-1.73,.7-2.52,.1-1.23,.15-2.46,.23-3.68,.01-.23,.05-.45,.09-.68,.09-.48,.3-.89,.84-.94,.58-.05,.8,.37,.89,.84,.09,.49,.12,.99,.14,1.49,.03,1.02,.43,1.88,1.1,2.98,.29-.54,.48-.81,.58-1.11,.61-1.72,1.15-3.45,1.79-5.16,.54-1.42,1.41-2.61,2.7-3.42,.69,.13,.82,.6,.73,1.13-.16,.89-.32,1.79-.6,2.65-.3,.94-.34,1.78,.49,2.63,.25-.32,.55-.59,.73-.93,.49-.97,1.07-1.93,1.37-2.97,.54-1.82,1.71-3.08,3.17-4.15,.26-.19,.73-.36,.96-.25,.24,.12,.44,.59,.43,.9-.02,.53-.18,1.07-.35,1.58-.25,.73-.59,1.43-.84,2.16-.12,.36-.12,.75-.22,1.48,.79-.47,1.32-.71,1.75-1.06,.89-.72,1.7-1.52,2.58-2.24,.88-.72,1.8-1.38,2.7-2.07,.38-.29,.75-.56,1.21-.16,.51,.45,.64,1.21,.25,1.72-.52,.69-1.1,1.34-1.63,2.02-.17,.23-.26,.53-.43,.89,1.4,.06,2.59-.17,3.72-.67,.66-.29,1.31-.61,1.98-.84,1.14-.39,1.77,.15,1.6,1.34-.13,.94,.04,1.22,.96,1.39,.73,.13,1.43,.11,2.11-.3,.9-.55,1.86-.92,2.96-.78,.64,.08,.91,.41,.84,.99-.07,.58-.24,1.15-.38,1.75,.28,.36,.63,.73,.87,1.15,.44,.77,.07,1.49-.82,1.54-.74,.05-1.37,.05-1.89,.79-.33,.47-1.05,.52-1.59,.04-.55-.48-1.08-.98-1.63-1.45-.55-.46-1.09-.98-1.94-.69-.59,1.37,1.22,2.66,.04,4.17-1.32-.59-2.3-1.53-3.13-2.67-.59-.81-1.22-1.58-1.86-2.35-.12-.14-.38-.16-.71-.3-.25,1.62,.59,3.15,.01,4.61-.76,.27-1.18-.23-1.62-.59-.96-.76-1.87-1.6-2.86-2.33-.44-.33-1-.48-1.7-.8,.07,1.94,2.04,2.75,1.95,4.51-1,.6-1.91,.3-2.77-.28-1.25-.84-2.58-1.46-4.24-1.76,.2,.97,.81,1.53,1.25,2.18,.61,.9,1.24,1.79,1.79,2.73,.24,.4,.3,.91,.47,1.49-.71,.07-1.24,.12-1.9,.18v2.1c.24-.05,.44-.04,.58-.12,.66-.37,1.03-.08,1.26,.54,.06,.17,.15,.34,.16,.52,.05,.74,.25,1.35,1.1,1.5,.74,.13,1.62-.28,2.1-1,.6-.91,1.1-1.91,1.83-2.7,.79-.85,1.8-1.49,2.73-2.21,.14-.11,.33-.16,.51-.2,.57-.13,1.29-.44,1.6,.2,.18,.38-.05,1.05-.27,1.5-.36,.73-.87,1.38-1.3,2.08-.12,.19-.24,.39-.28,.6-.18,.98,.46,1.57,1.35,1.16,.74-.33,1.42-.82,2.07-1.31,1.72-1.27,3.37-2.65,5.13-3.86,1.11-.76,2.37-1.31,3.61-1.86,.39-.17,.92-.03,1.7-.03-.44,.66-.67,1.08-.98,1.44-1.32,1.51-2.68,2.98-3.99,4.5-.52,.61-.93,1.31-1.38,1.96,.55,.67,.95,.48,1.4,.15,1.21-.88,2.38-1.84,3.69-2.55,1.74-.96,3.57-1.73,5.38-2.54,.67-.3,1.39-.36,2.1-.2,.36,.91-.2,1.34-.74,1.75-1.23,.94-2.48,1.86-3.7,2.81-.5,.39-1.01,.79-1.45,1.24-.88,.89-.67,1.62,.53,2.01,.8,.26,1.55,.09,2.21-.37,.97-.68,1.96-1.33,2.84-2.12,1.2-1.08,2.65-1.55,4.15-1.91,.71-.17,1.44-.05,2.13,.46-.36,1.17-1.21,1.83-2.15,2.48-1.26,.88-2.42,1.91-3.6,2.9-.19,.16-.28,.44-.44,.7,.83,.69,1.7,.72,2.59,.4,2.15-.77,4.37-.85,6.61-.81,.23,0,.46,.01,.68,.05,.47,.09,.98,.3,.93,.82-.03,.31-.41,.69-.73,.85-.69,.34-1.46,.51-2.17,.82-.7,.31-1.42,.63-2.05,1.06-.55,.38-.47,.88,.14,1.16,.45,.21,.94,.32,1.43,.42,1.11,.22,2.24,.39,3.35,.62,.81,.17,1.1,.49,1.5,1.57-.45,.22-.91,.48-1.4,.68-.86,.35-1.11,.85-.49,1.54,.72,.8,1.64,1.43,2.49,2.1,.46,.37,1.02,.62,1.44,1.03,.33,.32,.5,.79,.72,1.14-.18,.21-.22,.32-.29,.35-1.54,.67-1.65,.78-.69,2.12,1.11,1.55,2.42,2.95,3.61,4.45,.58,.73,1.1,1.52,1.67,2.32-.68,.58-1.35,.31-1.94,.39-1.2,.16-1.35,.29-1.45,1.53-.08,.91-.13,1.82-.26,2.72-.1,.66-.21,1.38-1.1,1.52-.85-.67-1.18-1.6-1.39-2.63-.68-.08-1.37-.1-2.02-.26-1.04-.26-1.08-.63-.53-1.52,.4-.63,.68-1.38,.84-2.11,.36-1.62,.22-3.21-.5-4.92-.37,.32-.6,.5-.81,.71-.59,.57-1.12,1.22-1.78,1.68-.34,.24-1.02,.36-1.35,.18-.48-.27-.27-.85-.09-1.35,.58-1.59,1.02-3.21,.85-4.93-.06-.58-.18-1.18-.4-1.72-.12-.3-.5-.71-.72-.69-.33,.03-.68,.36-.92,.65-.23,.27-.32,.65-.48,.98-.39,.82-.75,1.65-1.19,2.44-.44,.77-1.11,1.16-2.19,.95,.06-.78,.15-1.53,.18-2.28,.1-1.86,.12-3.73,.27-5.59,.15-1.96-.98-3.1-2.54-4.29-.09,.55-.18,.92-.22,1.3-.19,1.86-.32,3.72-.56,5.58-.09,.71-.37,1.41-.64,2.07-.19,.47-.6,.96-1.14,.75-.31-.12-.58-.68-.63-1.07-.16-1.31-.21-2.63-.3-3.95-.13-1.87-.41-3.71-1.06-5.48-.41-1.11-.59-1.34-1.54-2.01,0,.54-.01,.97,0,1.39,.06,1.54,.43,3.06,.13,4.61-.12,.62-.28,1.23-.4,1.85-.13,.63-.56,1.04-1.14,.9-.29-.07-.56-.67-.63-1.06-.24-1.34-.33-2.71-.58-4.06-.31-1.68-.96-3.23-2.03-4.58-.69-.86-1.54-1.41-2.88-1.27,.23,2.27,.45,4.54,.68,6.79-1.31,.3-1.48,.24-1.94-.75-.52-1.11-.96-2.27-1.53-3.35-.46-.88-1.03-1.72-1.63-2.52-.31-.41-.79-.7-1.22-1.06-.73,.74-.42,1.48-.32,2.15,.16,1.03,.45,2.05,.63,3.08,.11,.62,.21,1.27-.26,1.85-.6,.14-.93-.32-1.23-.66-.98-1.13-1.9-2.32-2.86-3.47-.47-.56-.95-1.11-1.46-1.62-.27-.27-.63-.47-.94-.7-.08,.05-.16,.1-.24,.15,.09,.37,.16,.74,.28,1.1,.15,.48,.4,.94,.47,1.42,.05,.37,0,.91-.23,1.11-.21,.19-.77,.14-1.1,.01-.72-.28-1.4-.66-2.08-1.02-.56-.3-1.07-.72-1.66-.94-.49-.19-1.06-.27-1.58-.21-.8,.1-1.04,.64-.73,1.38,.09,.21,.25,.39,.32,.6,.35,1.01-.23,1.74-1.3,1.57-.62-.1-1.22-.34-1.83-.53-.39-.12-.78-.27-1.17-.38-1.06-.3-1.16-.24-1.44,.77-.1,.35-.21,.69-.34,1.11-1.06,.11-2.09,.32-3.13,.31-1.02,0-1.63,.4-2,1.31-.16,.4-.39,.77-.65,1.27,.32,.03,.5,.08,.65,.05,3.01-.61,6.06-.75,9.12-.68,2.49,.06,4.78,.95,7.01,1.97,.7,.32,1.42,.6,2.11,.95,2.96,1.51,5.52,3.54,7.72,6.02,.71,.8,.49,1.84-.51,2.69-.75,.64-1.58,.6-2.29-.18-.37-.4-.62-.89-.93-1.34-.39-.56-.79-1.12-1.18-1.68-.21-.3-.41-.6-.61-.9-.12,.05-.24,.11-.36,.16-.13,.86-.27,1.72-.4,2.56-1.39,.28-1.37,.27-1.97-.93-.69-1.38-1.58-2.63-2.67-3.82-.12,1.73-.23,3.37-.35,5.11-.89-.18-1.22-.65-1.58-1.2-1.06-1.64-2.18-3.24-3.3-4.84-.23-.32-.56-.56-.92-.91,.18,1.1,.36,2.06,.49,3.02,.04,.31,0,.64-.04,.95-.15,1.33-.73,1.59-1.79,.74-.67-.54-1.22-1.22-1.8-1.86-.79-.88-1.54-1.8-2.36-2.65-.36-.37-.84-.63-1.28-.95-.69,.64-.31,1.13-.02,1.55,.39,.56,.87,1.05,1.3,1.57,.77,.94,1.3,1.99,1.34,3.22,.04,1.12-.48,1.49-1.42,.92-.81-.49-1.52-1.15-2.26-1.74-.96-.76-1.89-1.57-2.89-2.28-.57-.41-1.25-.6-1.89,.2,.18,.26,.37,.55,.56,.84,.2,.3,.43,.6,.58,.92,.32,.68,.14,1.37-.22,1.96-.38,.61-1.04,.43-1.62,.35-.65-.08-1.23-.56-1.97-.15-1.02,.57-1.92,1.23-2.37,2.34-.69,1.73-1.39,3.46-2.02,5.21-.33,.93-.23,1.89,.14,2.81,.4,.97,1.05,1.52,2.17,1.56,3.78,.13,7.56,.29,11.34,.48,2.5,.13,5,.36,7.5,.49,1.41,.07,2.83,.07,4.24,.03,2.82-.09,5.65-.25,8.47-.35,5.89-.21,11.59,.88,17.28,2.26,4.01,.97,7.6,2.99,11.46,4.32,1.34,.46,2.54,1.39,3.76,2.17,4.21,2.67,8.06,5.77,11.35,9.53,2.86,3.26,5.04,6.83,6.13,11.1,.44,1.71,.96,3.41,1.13,5.16,.23,2.37,.03,4.75-.89,6.99-.96,2.33-1.86,4.68-3.41,6.75-.97,1.3-2.2,2.15-3.5,2.94-2.18,1.32-4.49,2.36-6.93,3.15-.48,.15-.88,.55-1.38,.87Zm-14.36-33.71c-.09-1.32-.75-1.96-1.33-2.65-.58-.69-1.18-1.38-1.73-2.1-.72-.95-.61-1.25,.48-1.57,.13-.04,.27-.04,.4-.08,.88-.27,1.1-.57,.69-1.39-.46-.93-1.03-1.83-1.69-2.63-2.57-3.16-5.52-5.94-8.65-8.54-.09-.08-.23-.1-.34-.15-.55,.46-1.05,.92-1.6,1.32-.52,.38-1.04,.46-1.62,0-1.45-1.17-2.92-1.36-4.44-.05-.47,.4-1.18,.63-1.62,.13-.84-.96-1.85-.96-2.87-.65-1.38,.42-2.69,.33-4.02-.12-.34-.12-.71-.16-1.07-.21-.57-.08-1.09-.01-1.45,.51-.55,.78-1.37,.94-2.19,.72-.77-.21-1.52-.58-2.21-.99-.68-.4-1.3-.62-2.05-.24-.91,.46-1.83,.39-2.78,.02-.97-.38-2.07-.48-2.92,.07-1.09,.7-2.02,.54-3.05,.04-.24-.12-.51-.19-.78-.25-1.2-.28-1.66-.09-1.91,1.03-.31,1.42-1.16,1.59-2.25,.56-.4-.37-.7-.84-1.07-1.24-.51-.55-1.14-.71-1.87-.49-.68,.21-.63,.76-.7,1.32-.05,.39-.32,.76-.59,1.36-.6-.57-1.05-.94-1.43-1.37-.36-.41-.62-.91-.97-1.32-.8-.95-1.77-1.37-3.17-.88,.16,.59,.28,1.15,.46,1.69,.26,.78,.64,1.52,.79,2.32,.08,.41-.11,1.1-.42,1.3-.47,.31-.9-.2-1.25-.56-.06-.06-.12-.14-.17-.22-.61-.95-1.18-1.94-1.85-2.85-.48-.65-1.04-1.27-1.67-1.77-.71-.56-1.51-.51-2.28,.04-1.19,.86-1.19,.83-2.32-.06-1.02-.8-2.06-1.56-3.12-2.36-.61,.72-.7,1.74-1.82,1.79-.51-.41-1.09-.84-1.64-1.3-.98-.83-2.01-1.58-3.3-1.85-1.29-.27-2.57-.55-3.87-.79-1.65-.3-1.98-.12-2.64,1.38-1.26,2.87-1.91,5.89-2.09,9.01-.18,2.99,.11,5.94,1.33,8.7,.37,.85,1,1.61,1.63,2.3,.24,.26,.92,.38,1.22,.23,.28-.15,.49-.77,.44-1.15-.08-.71-.36-1.4-.56-2.1-.21-.74-.48-1.47-.63-2.23-.11-.53-.14-1.17,.44-1.47,.59-.3,1.02,.16,1.42,.55,.28,.27,.56,.55,.83,.82,1.04-.93,1.22-1.31,.75-2.43-.56-1.34-1.28-2.61-1.93-3.92-.34-.68-.79-1.33-.61-2.17,.68-.26,1.13,.14,1.5,.49,.92,.88,1.76,1.84,2.66,2.74,.39,.39,.67,1.02,1.47,.83,.34-1.29,.3-2.52-.35-3.7-.38-.68-.82-1.32-1.17-2-.34-.66-.94-1.35-.31-2.13,.39-.48,1.26-.22,2.12,.67,.73,.75,1.34,1.61,2.07,2.37,.46,.48,.99,.96,1.57,1.27,.9,.46,1.62,.06,1.86-.9,.09-.37,.14-.76,.27-1.49,.86,.89,1.61,1.48,2.12,2.23,1.97,2.89,3.93,5.79,5.76,8.77,2.51,4.11,4.14,8.58,5.04,13.3,.33,1.7,.48,3.43,.82,5.13,.28,1.39,1,1.91,2.4,1.97,1.23,.06,1.73-.34,1.69-1.56-.03-.9-.21-1.81-.4-2.69-.54-2.49-1.15-4.96-1.68-7.44-.15-.7-.15-1.43,.31-2.04,.69-.05,.81,.45,.97,.85,.39,.97,.7,1.97,1.08,2.95,.9,2.33,1.76,4.69,2.77,6.98,.41,.94,1.1,1.78,1.74,2.6,.41,.53,.98,.92,1.87,.77-.08-.56-.11-1.05-.22-1.53-.31-1.42-.67-2.84-.99-4.26-.8-3.6-1.51-7.23-2.99-10.64-.09-.21-.21-.44-.19-.65,.04-.37,.06-.91,.3-1.07,.44-.29,.98-.16,1.29,.36,.37,.63,.81,1.24,1.04,1.91,.7,2.07,1.29,4.17,1.99,6.24,.68,2.02,1.39,4.05,2.22,6.02,.36,.86,.96,1.66,1.59,2.36,.89,.98,1.93,1.09,3.11,.47-.08-.27-.11-.6-.27-.84-.71-1.09-1.02-2.29-1.24-3.57-.44-2.55-1.02-5.05-2.21-7.39-.61-1.21-.97-2.55-1.4-3.84-.18-.55-.31-1.15,.16-1.71,.73,.14,1.07,.68,1.33,1.25,1.07,2.4,2.07,4.84,3.19,7.22,.85,1.82,1.49,3.69,2.01,5.63,.41,1.53,1.82,2.53,3.5,2.58,.44,.01,.9-.27,1.35-.42-.17-.44-.33-.89-.51-1.33-.03-.08-.11-.15-.18-.2-.77-.53-1.03-1.35-1.25-2.2-.85-3.29-1.72-6.57-2.66-10.13,.26,.33,.37,.56,.44,.55,1.33-.16,1.57,.94,1.93,1.76,.73,1.65,1.35,3.36,2.01,5.05,.41,1.06,.7,2.17,1.22,3.17,1.01,1.94,3.66,2.58,5.8,1.37-.37-.51-.69-1.03-1.09-1.49-.73-.84-1.36-1.74-1.53-2.85-.31-2.07-1.17-3.9-2.2-5.7-.67-1.18-1.14-2.47-1.65-3.74-.2-.49-.32-1.05,.14-1.51,.17,.02,.34-.02,.43,.05,.21,.16,.42,.35,.55,.57,1.17,2,2.36,3.99,3.48,6.01,.44,.79,.87,1.64,1.06,2.51,.47,2.12,1.9,3.36,3.67,4.32,.41,.22,.97,.28,1.45,.26,.83-.03,1.18-.51,.89-1.29-.31-.85-.72-1.68-1.2-2.45-.79-1.27-1.25-2.64-1.36-4.11-.14-1.86-.23-3.73-.28-5.6-.02-.68,.11-1.36,.22-2.03,.04-.21,.25-.39,.56-.84,.15,.66,.28,1.04,.32,1.42,.09,.86,.12,1.73,.2,2.59,.27,3.01,1.16,5.8,3.17,8.13,2.16,2.51,4.86,4.24,7.95,5.36,.41,.15,.83,.3,1.47-.05-.44-.38-.76-.66-1.08-.94-1.4-1.19-2.64-2.51-3.54-4.12-.28-.5-.48-1.01,.3-1.48,.46,.26,.98,.51,1.46,.84,1.92,1.31,3.85,2.6,6.12,3.23,.55,.15,.86,.54,.84,1.1,0,.45-.07,.91-.17,1.35-.32,1.32-.13,2.56,.68,3.64,.76,1.02,1.58,2,2.45,2.93,1.87,1.99,3.92,3.79,5.53,6.04,.77,1.08,1.34,2.17,1.32,3.49-.02,1.04-.14,2.09-.27,3.12-.3,2.45-.36,2.5-2.85,2.67-.18,.01-.37,0-.54,.04-.88,.22-1.81,.34-2.61,.72-1.67,.8-2.13,2.76-1.13,4.44,1.04-.03,1.5-.9,2.1-1.54,.99-1.05,1.49-.99,2.1,.29,.22,.45,.43,.91,.71,1.32,.16,.23,.45,.36,.91,.7,0-.65,0-1.03,0-1.41,0-1.35,.73-1.83,1.92-1.19,.92,.5,1.8,1.07,2.68,1.63,.46,.29,.94,.4,1.4,.07,.47-.34,.05-.74-.03-1.11-.21-.92-.51-1.85,.15-2.73,.8,.1,1.33,1.19,2.43,.44-.18-.44-.29-.97-.58-1.38-.44-.63-1.03-1.16-1.52-1.76-.55-.67-1.1-1.34-1.57-2.06-.14-.21-.11-.62,0-.86,.07-.14,.5-.22,.7-.15,.55,.19,1.08,.47,1.61,.71,.35,.15,.7,.29,1.09,.46,.4-.92,.3-1.6-.27-2.17-.45-.45-.93-.87-1.44-1.24-.84-.62-1.73-1.17-2.55-1.81-.34-.27-.6-.66-.81-1.05-.11-.2-.12-.61,0-.73,.2-.19,.59-.34,.83-.27,.52,.14,1.01,.4,1.48,.67,.72,.43,1.48,.43,2.25,.27,.84-.18,1.03-.57,.74-1.39-.3-.84-.94-1.29-1.74-1.61-1.64-.66-3.3-1.27-4.86-2.09-2.21-1.16-4.34-2.47-6.48-3.75-.2-.12-.3-.42-.45-.63l.17-.28c.62,.06,1.27,0,1.84,.2,1.29,.44,2.53,1.03,3.8,1.5,1.7,.64,3.42,1.24,5.13,1.83,.29,.1,.64,.13,.95,.09,.29-.04,.75-.15,.81-.33,.09-.28,.02-.75-.18-.97-.42-.46-.91-.92-1.46-1.19-1.38-.69-2.82-1.28-4.23-1.91-4.3-1.93-8.64-3.79-12.34-6.82-2.47-2.03-4.83-4.17-6.81-6.69-.39-.5-.82-1.01-.31-1.86,.43,.21,.89,.38,1.27,.65,.7,.5,1.37,1.06,2.04,1.61,1.29,1.08,2.58,2.17,3.85,3.27,.83,.71,1.74,1.37,2.42,2.21,1.06,1.33,2.49,2.19,3.91,2.9,2.52,1.26,5.23,2.11,8,2.7,.46,.1,.94,.08,1.53,.12-.53-1.84-1.79-2.59-3.28-3.04-1.76-.53-3.44-1.21-4.91-2.33-2.06-1.57-4.1-3.17-6.17-4.72-3.26-2.44-6.14-5.29-8.8-8.36-.47-.54-.8-1.21-1.1-1.87-.1-.22,.02-.64,.18-.85,.1-.13,.56-.14,.73-.02,1.02,.75,2.22,1.39,2.94,2.37,.81,1.11,1.62,2.13,2.7,2.98,1,.79,1.85,1.75,2.85,2.53,1.62,1.26,3.3,2.43,4.97,3.62,.52,.37,1.06,.71,1.64,.97,.37,.16,.82,.14,1.4,.23Zm-109.51-10.77c-1.01-.6-1.01-.56-2.35-.54-.67,0-1.35-.07-2.01-.22-.48-.11-.6-.52-.41-.97,.09-.21,.24-.39,.33-.59,.49-1,.36-1.53-.64-1.96-.58-.25-.73-.6-.75-1.14-.03-1.05,0-2.11-.14-3.14-.11-.78-.1-1.37,.58-1.92,.4-.32,.59-.9,.85-1.37,.3-.54,.65-.98,1.52-.89,.03,.4,.1,.78,.1,1.16,0,.91-.03,1.82-.06,2.73-.06,1.84,.68,3.27,2.23,4.27,2.44,1.58,4.42,3.64,6.23,5.9,.45,.57,.96,1.11,1.51,1.58,.62,.52,1,.43,1.46-.23,.28-.4,.53-.82,.94-1.47,.36,.78,.68,1.32,.86,1.9,.72,2.35,1.98,4.4,3.53,6.27,.32,.39,.85,.64,1.34,.83,1.82,.71,3.67,1.36,5.48,2.07,.34,.13,.82,.46,.83,.72,.03,.6-.56,.75-1.05,.86-.21,.05-.45-.05-.67-.07-2.21-.2-4.23-1.06-6.29-1.78-.54-.19-1.08-.34-1.74-.54-.17,2.61-.03,5.02,.29,7.41,.11,.78,.61,1.36,1.3,1.66,1.04,.45,2.1,.87,3.2,1.14,1.14,.28,2.34,.37,3.51,.56,.74,.12,1.32,.41,1.79,1.08,.95,1.33,2.01,2.59,3.06,3.85,.3,.35,.57,.85,1.34,.73-.09-.5-.13-.99-.28-1.44-.65-1.89-1.92-3.38-3.2-4.87-.86-1-1.67-2.04-2.46-3.1-.19-.25-.21-.62-.41-1.23,.69,.17,1.16,.18,1.51,.38,2,1.17,4.02,2.34,5.19,4.49,.25,.47,.55,1,1.31,1.17-.19-1.1-.53-1.95-1.14-2.72-.51-.64-1.03-1.29-1.4-2-.28-.55-.44-1.2-.47-1.82-.03-.68,.5-.97,1.12-.66,.36,.18,.71,.44,.96,.75,.43,.53,.77,1.13,1.16,1.69,.81,1.17,1.12,1.24,2.33,.55,1-.57,1.49-.42,1.74,.71,.2,.88,.22,1.8,.27,2.71,.05,.97,.2,1.9,.79,2.71,1.12,1.54,2.29,3.05,3.32,4.65,1.66,2.54,2.73,5.34,3.32,8.31,.39,1.95,.19,2.14-1.83,2.42-1.28,.18-2.51,.5-3.53,1.34-1.74,1.43-1.51,3.53,.66,4.74,.53-.69,1.11-1.38,1.61-2.12,.78-1.16,1.24-1.21,2.16-.17,.53,.6,1.12,1.14,1.81,1.84,.27-.37,.42-.6,.6-.8,.54-.59,1.04-1.58,1.65-1.65,.63-.07,1.37,.73,2.04,1.17,.49,.32,.98,.85,1.58,.48,.67-.42,.41-1.15,.28-1.75-.1-.48-.35-.94-.57-1.39-.22-.45-.53-.86-.72-1.32-.17-.43-.23-.91-.34-1.32,.28-.15,.39-.24,.52-.28,1.62-.56,1.81-1.06,.9-2.55-.35-.58-.81-1.11-1.12-1.71-.33-.64-.64-1.32-.77-2.02-.16-.86,.36-1.18,1.15-.81,.44,.21,.85,.46,1.35,.72,.41-.86,.37-1.63-.02-2.31-.46-.82-1.02-1.6-1.6-2.36-.54-.7-1.17-1.34-1.21-2.43,.62,.03,1.16,.05,1.7,.09,.52,.04,1.04,.12,1.57,.18,.04-2.37-.04-2.52-1.9-3.5-.87-.46-1.77-.89-2.5-1.79,1.45-.6,2.99,.14,4.5-.58-.39-.59-.66-1.1-1.02-1.54-.52-.63-1.13-1.19-1.65-1.82-.34-.42-.66-.9-.3-1.49,.33-.55,.82-.68,1.41-.55,.11,.02,.23-.04,.48-.09-.38-.46-.68-.85-.99-1.22-.5-.59-1.04-1.15-1.5-1.78-.76-1.03-.5-1.89,.7-2.26,.69-.22,.86-.59,.68-1.22-.07-.26-.14-.53-.22-.79-.88-3-2.67-5.46-4.67-7.79-.7-.81-1.57-1.37-2.62-1.64-2.14-.55-3.98,.58-4.37,2.74-.11,.62-.16,1.26-.25,1.94-.29,.12-.58,.26-.87,.35-1.24,.36-2.15,1.15-2.88,2.18-.64,.9-1.12,1.88-1.25,2.99-.18,1.48-1.01,2.49-2.34,3.12-1.01,.48-1.76,.27-2.5-.55-1.96-2.19-3.33-4.76-4.68-7.33-1.36-2.57-2.43-5.26-3.46-8-1.48-3.94-3.86-7.42-6.71-10.55-.2-.22-.5-.34-.91-.61-.53,1.57-1.02,3.02-1.52,4.5-1.78,0-3.48-.26-5.11-1.05,.15-1.02,.8-1.35,1.52-1.69,.59-.28,1.31-.63,1.61-1.15,.53-.94,.79-2.04,.63-3.17-.29-2.04-1.17-3.81-2.42-5.43-.4-.53-.85-.64-1.4-.23-1.52,1.12-2.93,2.39-3.62,4.18-.42,1.1-1.08,1.45-2.14,1.48-1.5,.04-3.01,.13-4.51,.22-2.38,.14-4.53,.92-6.46,2.31-2.45,1.78-4.59,3.89-6.4,6.32-.46,.62-.86,1.29-1.19,1.99-.18,.39-.31,.91-.21,1.31,.36,1.51,1.3,2.58,2.72,3.22,.49,.22,.84,.12,1.08-.44,.25-.57,.6-1.1,.96-1.61,.31-.45,.72-.84,.51-1.45-.4-.22-.78-.44-1.26-.7,.41-.79,.79-1.49,1.13-2.15-.18-.38-.5-.73-.44-1.01,.09-.47,.37-.92,.65-1.33,.69-.99,1.76-1.69,2.18-2.93,.19-.55,.88-.65,1.43-.5,.3,.08,.73,.38,.77,.63,.17,.99,.29,2.06-.49,2.85-1.01,1.01-.97,2.2-.83,3.44,.1,.87,.51,1.54,1.41,1.83,.47,.15,.95,.35,1.38,.59,.57,.32,1,.78,.97,1.51-.04,1.05-1.72,3.09-2.76,3.32-.7,.16-1.44,.2-2.13,.42-.59,.19-1.21,.46-1.65,.87-.76,.72-.51,1.72,.37,2.24,.45,.26,.88,.63,1.19,1.04,.56,.76,.71,.87,1.52,.58,.43-.15,.85-.35,1.22-.6,1.02-.69,2.03-1.38,3-2.14,.81-.63,1.55-.87,2.46-.18,.28,.21,.77,.29,1.12,.22,1.74-.32,3.48-.68,5.21-1.07,.5-.11,.97-.36,1.59-.59Zm60.63,45.6v-.1c1.14,0,2.28,.03,3.42,0,2.14-.06,4.28-.11,6.41-.26,1.27-.09,1.44-.3,1.67-1.56,.23-1.31,.89-2.28,2.08-2.86,1.3-.64,2.61-1.28,3.95-1.83,1.24-.52,2.33-1.23,2.59-2.59,.5-2.56,.83-5.15-.84-7.49-.15-.21-.18-.51-.29-.76-.99-2.14-2.28-3.05-4.17-2.89-2.27,.19-4.55,.33-6.78,.71-3.39,.59-6.76,.89-10.18,.43-1.98-.27-3.98-.46-5.98-.56-2.3-.11-2.54,.1-2.57,2.37-.05,4.41,0,8.83,.02,13.25,0,1.11,.34,2.14,.8,3.15,.35,.77,.84,1.04,1.69,1.02,2.73-.05,5.47-.02,8.2-.02Zm28.38,6.26c.61-.36,1.21-.73,1.84-1.08,.47-.26,.95-.56,1.46-.72,.73-.22,1.07,.02,1.34,.75,.39,1.07,.8,1.3,1.78,.8,.64-.32,1.19-.82,1.77-1.26,.95-.73,1.28-.7,2.04,.21,1.13,1.36,1.72,1.43,3.05,.39,.89-.7,1.52-.63,2.37,.16,.31,.29,.73,.57,1.13,.64,.95,.18,1.97,.16,2.78-.4,1.26-.85,2.38-.86,3.66,0,.96,.64,2.11,.73,3.08-.03,1.02-.8,1.86-.85,2.92-.02,1.1,.87,3.2,.64,4.22-.26,.88-.78,.78-1.91-.22-2.51-.86-.51-1.88-.42-2.66,.22-.38,.31-.76,.68-1.2,.86-2.43,1.01-4.97,1.12-7.5,.53-2.83-.66-5.63-1.44-8.44-2.17-.22-.06-.45-.08-.68-.11-3.55-.45-7.1-.34-10.64-.05-1.08,.09-2.2,.22-3.22,.56-.98,.33-1.94,.43-2.95,.4-5.24-.13-10.48-.33-15.72-.37-6.61-.05-13.22,.01-19.83,.06-1.13,0-2.25,.24-3.38,.25-1.91,.02-3.83-.04-5.74-.08-2.23-.04-4.47-.06-6.7-.15-2.96-.11-5.92-.38-8.88-.4-2.64-.01-5.28,.2-7.91,.38-.56,.04-1.22,.21-1.62,.57-1.01,.89-2.16,1.1-3.42,1.01-2.68-.2-5.36-.44-8.04-.61-2.64-.17-5.27-.33-7.91-.4-.7-.02-1.46,.18-2.09,.5-1.16,.59-1.38,1.96-.58,2.89,.53,.61,.93,.64,1.46,.03,.33-.38,.58-.82,.9-1.2,.43-.52,.81-1.25,1.6-1.08,.75,.16,.69,.98,.86,1.57,.41,1.41,1.19,1.64,2.26,.66,.53-.48,1.11-.93,1.61-1.44,.57-.58,1.07-.37,1.54,.07,.29,.28,.54,.62,.77,.95,.44,.64,1.05,.76,1.68,.46,.52-.24,.96-.66,1.43-1.01,.24-.18,.46-.4,.75-.66,.27,.28,.5,.49,.68,.73,1.07,1.42,1.74,1.49,3.15,.35,.46-.37,.9-.78,1.42-1.06,.96-.52,1.55-.24,1.84,.8,.07,.26,.08,.54,.16,.8,.27,.84,.75,.98,1.41,.37,.43-.4,.76-.9,1.16-1.34,1.1-1.2,1.74-1.08,2.26,.44,.03,.09,.04,.18,.07,.26,.43,1.06,1.23,1.25,1.98,.38,.53-.61,.92-1.34,1.32-2.05,.29-.52,.55-1.04,1.4-1.14,.12,.58,.23,1.14,.35,1.7,.25,1.16,1.2,2,2.38,2.11,1.21,.11,1.78-.3,2.4-1.57,.21-.42,.54-.83,.91-1.12,.61-.47,1.26-.23,1.47,.51,.11,.39,.1,.82,.21,1.21,.22,.76,.81,.99,1.46,.55,.29-.2,.5-.52,.74-.79,.3-.34,.54-.75,.89-1.02,.84-.66,1.5-.45,1.9,.54,.13,.32,.27,.64,.48,1.16,.85-.52,1.65-.88,2.28-1.43,.68-.59,1.32-.68,2.12-.3,.01,.3,.02,.57,.04,.84,.06,.94,.46,1.27,1.31,.93,.61-.25,1.15-.7,1.69-1.11,.58-.44,1.09-.96,1.67-1.4,.59-.46,.91-.41,1.35,.14,.14,.18,.23,.39,.34,.59,.35,.58,.9,.74,1.52,.71,.66-.02,.91-.43,1.09-1.02,.25-.78,.81-.97,1.44-.46,.37,.29,.6,.77,.85,1.19,.2,.33,.34,.69,.55,1.15,.62-.34,1.08-.6,1.56-.85,.65-.33,1.28-.69,1.96-.96,.93-.38,1.11-.29,1.69,.5,.53,.74,.93,.86,1.72,.5,.25-.11,.48-.26,.69-.43,.78-.62,1.48-.66,2.33,0,1.1,.86,3.41,.69,4.35-.18,.99-.9,2.01-.69,2.54,.51,.2,.44,.43,.86,.63,1.28,1.83-.43,2.75-2.05,4.21-2.77,1.46,2.02,2.28,2.11,4.1,.59,.4-.34,.88-.58,1.49-.97,.24,.55,.41,.94,.57,1.34,.34,.83,.71,1.11,1.57,.83,.67-.22,1.29-.64,1.88-1.04,.59-.4,1.05-1.03,1.95-.97,.45,.63,.92,1.29,1.47,2.05Zm29.02-45.16c-.12,.76-.27,1.27-.26,1.78,.04,1.78,.16,3.55,.22,5.33,.11,3.35,.93,6.46,2.83,9.27,.46,.67,.83,1.42,1.12,2.18,.24,.62,.4,1.3,.45,1.97,.14,2.04,.21,4.09,.32,6.13,.03,.59,.12,1.18,.24,1.75,.11,.56,.5,.9,1.07,.85,1.45-.13,2.93-.22,4.13-1.18,1.66-1.32,2.99-2.93,4.01-4.79,.28-.51,.52-1.1,.56-1.67,.16-2.57,.02-5.14-1.04-7.51-1.19-2.67-2.79-5.16-4.8-7.27-1.93-2.03-4.21-3.75-6.4-5.53-.64-.53-1.49-.81-2.46-1.32Zm-95.87,24.9c.15-.06,.29-.11,.44-.17,.02-.46,.18-.98,.03-1.37-.49-1.22-1.04-2.41-1.67-3.56-.8-1.48-2.15-2.16-3.79-2.33-.63-.07-1.27-.14-1.88-.3-1.45-.37-2.45,.01-3.1,1.36-.27,.57-.46,1.19-.57,1.81-.39,2.14-.62,4.33-1.13,6.44-.58,2.38-1.42,4.7-2.11,7.05-.19,.65-.63,.99-1.22,1.16-.43,.13-.89,.16-1.34,.23-1.44,.22-2.71,.78-3.71,1.86-.61,.66-.57,.97,.06,1.68,.5-.37,.97-.81,1.5-1.11,.92-.53,1.46-.23,1.59,.81,.04,.32,.01,.64,.07,.95,.14,.77,.58,.95,1.28,.54,.55-.32,.82-.81,.98-1.41,.14-.53,.59-.92,1.12-.77,.36,.1,.69,.52,.92,.86,.16,.24,.1,.63,.22,.92,.1,.23,.3,.47,.51,.57,.5,.24,1.56-.02,1.91-.43,.49-.56,.24-1.08-.07-1.62-.33-.58-.69-1.17-.44-1.91,.71-.28,1.24-.1,1.77,.36,.46,.39,1.01,.68,1.56,1.04,1.41-3.11,2.3-6.1,.43-9.24-.36-.6-.56-1.32-.21-2.06,1.72,.2,2.4,1.96,4.03,2.49-.07-.48-.08-.83-.18-1.16-.27-.87-.6-1.72-.87-2.58-.22-.69-.46-1.39-.57-2.1-.1-.66,.34-.98,.92-.65,.66,.38,1.25,.91,1.86,1.37,.57,.43,1.13,.86,1.7,1.28Zm68.83,12.58c1.78,.57,8.42,.66,9.97,.22,.3-.09,.59-.38,.79-.64,.55-.72,.98-1.55,1.6-2.21,.85-.9,1.5-2.1,2.93-2.27,.49-.06,1-.06,1.49-.12,1.88-.22,3.07-1.81,2.5-3.61-.91-2.81-2.64-5.07-5.16-6.65-1.12-.7-2.35-.71-3.5-.01-1.62,.98-2.99,2.24-3.92,3.91-.27,.49-.4,1.09-.5,1.66-.22,1.28-.25,2.6-1.14,3.68-.7,.84-1.4,1.68-2.01,2.59-.85,1.28-1.53,2.69-3.04,3.46Zm-.44-10.03c1.13-2.14,.83-3.31-1.08-3.86-1.59-.45-2.9-1.3-4.15-2.28-1.11-.87-2.15-1.83-3.23-2.74-.21-.17-.48-.27-.86-.47,.77,3.13,2.39,5.57,4.49,7.85-.56,.65-1.03,1.19-1.5,1.72-.71,.81-.71,.97-.2,1.91,.25,.46,.42,.97,.64,1.49-1.27,.56-1.52,1.61-1.76,2.7-.29,1.35-.61,1.57-1.99,1.47-.95-.07-1.9-.21-2.85-.3-.67-.06-1.27,.13-1.69,.7-.44,.61-.74,1.28-.93,2.3,.58-.46,.92-.75,1.29-1,.36-.24,.74-.45,1.2-.72,.19,.5,.35,.82,.44,1.17,.09,.35,.09,.73,.18,1.07,.38,1.37,1.19,1.65,2.31,.81,.18-.14,.35-.29,.52-.44,.71-.62,1.45-.7,2.25-.18,.23,.15,.45,.31,.69,.45,1.34,.75,2.29,.28,2.53-1.26,.02-.13,.01-.27,.03-.41,.09-.72,.41-1.16,1.22-1.18,.41-.01,.8-.24,1.36-.41-.42-.63-.74-1.06-1.02-1.52-.72-1.17-.5-1.92,.72-2.55,.43-.22,.87-.41,1.5-.71-.59-.69-1.02-1.26-1.51-1.77-.59-.61-.78-1.33-.69-2.13,.05-.52,.4-.72,.87-.48,.4,.2,.76,.47,1.22,.76Zm45.67-2.65c.94-1.55,1.02-3.15,1.24-4.72,.38-2.73-.33-5.34-.91-7.95-.37-1.7-1.13-3.25-2.21-4.65-.78-1-1.51-2.04-2.21-3.09-.68-1.01-1.45-1.84-2.65-2.24-.78-.26-1.47-.68-1.77-1.56-.13-.37-.41-.71-.69-1.01-1.76-1.91-3.46-3.87-6.24-4.38-.66-.12-1.38-.6-1.8-1.13-1.11-1.39-2.39-2.45-4.11-3.01-1.14-.37-2.22-.76-3.34,.16-.47-.36-.92-.67-1.32-1.03-1.53-1.39-3.27-2.47-5.11-3.38-.38-.19-.76-.47-1.37-.18,2.05,2.24,3.59,4.79,6.02,6.57,.91,.66,1.71,1.46,2.83,1.83,.81,.26,1.56,.67,2.36,1.02,1.05-1.36,1.26-1.41,2.78-.38,.68,.46,1.31,.99,1.96,1.49,.75,.58,1.55,.96,2.53,.72,.83-.2,1.42,.2,1.88,.82,.63,.84,1.21,1.71,1.82,2.56,.55,.77,1.1,1.53,1.63,2.26,1.62-.51,2.18-.33,2.85,1.1,.45,.98,.75,2.04,1.02,3.09,.29,1.1,.74,2.08,1.75,2.65,.92,.52,1.35,1.32,1.57,2.28,.12,.53,.2,1.07,.29,1.61,.25,1.38,.38,2.75,1.18,4.02,.59,.93,.45,2.14-.11,3.14-.65,1.14-.68,2.2,.13,3.41Zm-71.33-76.68c.51,.31,.95,.51,1.32,.8,.26,.2,.62,.51,.61,.76-.01,.34-.25,.82-.54,.97-.59,.31-1.26,.5-1.92,.62-1.16,.22-2.02,.81-2.52,1.88-.25,.53-.42,1.11-.68,1.63-.36,.73-.69,1.49-1.18,2.13-1.42,1.83-2.95,3.58-4.37,5.41-1.35,1.73-2.39,3.66-3.11,5.74-1.07,3.09-2.1,6.19-3.15,9.29-.33,.96-.22,1.91,.18,2.79,.13,.29,.61,.56,.95,.58,.24,.02,.63-.34,.74-.62,.32-.78,.71-1.53,.38-2.48-.17-.49,.1-1.15,.24-1.71,.26-1.06,.69-2.08,.84-3.15,.15-1.08,.61-1.88,1.47-2.5,.55-.4,1.12-.78,1.65-1.21,.21-.17,.33-.46,.6-.87-.99-.11-1.78-.19-2.73-.3,.11-.61,.08-1.2,.33-1.63,.55-.93,1.2-1.81,1.87-2.66,1.49-1.89,3.2-3.61,4.19-5.87,.13-.3,.6-.52,.96-.63,1.78-.53,3.21-1.41,3.91-3.27,.37-1,1.46-1.45,2.34-1.13,1.27,.46,1.89,.27,2.58-.85,.31-.5,.47-1.11,.84-1.55,1.51-1.79,1.41-3.73,.72-5.79-.29-.86-.87-1.19-1.73-1.26-.89-.07-1.39,.46-2.08,1.04,.43,.28,.78,.47,1.08,.72,.69,.6,.5,1.54-.36,1.84-.34,.12-.71,.13-1.07,.21-.79,.17-1.59,.34-2.35,1.06Zm-37.64,76.56c-1.03,.12-1.63,.46-2.09,1.07-.25,.32-.46,.69-.74,.98-2.43,2.45-4.19,5.37-5.83,8.37-.26,.47-.5,.98-.62,1.51-.18,.77,.17,1.23,.94,1.36,.91,.15,1.79-.05,2.4-.71,.67-.72,1.34-1.52,1.73-2.41,.81-1.87,1.52-3.8,2.13-5.75,.46-1.49,1.05-2.89,2.09-4.41Zm66.77,5.51c.21-.33,.35-.47,.38-.62,.5-2.98,2.31-5.27,3.96-7.65,.67-.97,1.45-1.87,2.08-2.86,.51-.8,.39-.99-.57-1.58-.32,.29-.66,.57-.99,.89-1.67,1.62-2.98,3.51-4.22,5.48-1.06,1.68-1.18,3.46-1.15,5.31,0,.3,.28,.59,.51,1.03Zm-75.38-41.03c-.02-4.4-1.5-8.24-4.63-11.38-.45-.45-1.1-.69-1.66-1.02l-.25,.24c2.33,3.96,4.81,7.84,6.54,12.16Zm15.98,42.53c.99,0,1.56-.53,1.49-1.28-.06-.75-.37-1.38-1.11-1.75-.68-.34-1.35-.72-1.99-1.14-.65-.42-1.23-.93-1.87-1.36-.36-.24-.83-.64-1.2-.19-.18,.22-.12,.79,.03,1.11,.81,1.72,1.99,3.15,3.6,4.18,.37,.24,.82,.35,1.04,.44Zm49.49-15.46c.23,.33,.37,.61,.57,.82,1.3,1.4,2.62,2.76,4.28,3.76,1.33,.8,3.12,.67,4.37-.48-.61-.76-1.49-1.04-2.36-1.19-1.67-.28-3.09-.94-4.28-2.17-.64-.66-1.48-1-2.58-.75Zm-55.86,14.59c-.5,.73-1.23,1.33-.93,2.21,.4,1.19,1.27,2.1,2.4,2.65,.83,.41,1.57-.16,1.49-1.09-.03-.35-.14-.72-.31-1.03-.63-1.11-1.47-2.03-2.65-2.74Zm-10.25-53.32c.17,1.8,1.07,3.4,2.29,4.07,.3-.9,.6-1.77,.9-2.67-.9-.87-1.89-1.29-3.18-1.4Zm76.14,40.1c.47-.1,1.02-.16,1.53-.34,.72-.25,.95-.66,.79-1.22-.19-.68-1.26-1.56-1.69-1.29-.71,.46-1.37,1.03-1.92,1.67-.37,.43-.14,.86,.41,1.04,.26,.08,.54,.08,.88,.14Zm20.33-10.11c.12-.08,.24-.15,.36-.23-.1-.81-.15-1.62-.31-2.41-.06-.3-.34-.65-.61-.78-.46-.23-.99-.22-1.37,.24-.36,.44-.37,1-.02,1.39,.59,.65,1.3,1.21,1.95,1.8Zm-2.3-9.72c-.52,.69-.45,1.4-.13,2.08,.26,.56,.81,.55,1.3,.36,.53-.21,.42-.67,.23-1.03-.31-.6-.65-1.2-1.4-1.4Zm12.68,37.23c.37-1.02,.06-1.81-.84-2.26-.21-.1-.63-.16-.72-.05-.16,.2-.27,.59-.18,.81,.3,.73,.86,1.24,1.73,1.5Zm-68.78-79.85c.93-.5,2.45-3.88,2.41-4.97-.13,.05-.31,.07-.35,.15-.7,1.6-1.38,3.21-2.06,4.82Zm18.26-5.14c1.34-.22,2.29-.92,3.14-1.93-1.53-.13-2.78,.63-3.14,1.93Zm-48.69,87.58c.68,.58,1.42,.43,2.18,.31-.31-1-.85-1.66-1.3-1.54-.6,.15-.8,.65-.88,1.23Zm9.17-12.52c-.32-1.16-1.76-2.7-2.92-3.17,.73,1.29,1.43,2.54,2.92,3.17Zm36.46-84.97c1.23,.29,2.42,.26,3.65-.47-1.41-.69-2.54-.14-3.65,.47Zm59.32,91.75c-.86-.77-1.5-.85-2.14-.47-.2,.12-.38,.55-.31,.77,.07,.22,.49,.52,.67,.48,.54-.14,1.04-.44,1.78-.78Zm-144.65-42.39c-1.02-.54-2.01-.25-2.73,.72,1.26,.44,1.78,.32,2.73-.72Zm149.73,36.03c-.44,.46-.89,.91-1.31,1.39-.41,.46-.98,.81-1.3,1.67,1.45-.75,2.36-1.61,2.6-3.06Zm-132.11-28.59c-.72-.85-1.38-.86-2.18-.08,.72,.56,1.42,.66,2.18,.08Zm85.1,18.38c.82-.38,1.4-.69,1.45-1.56-1.13,.03-1.41,.3-1.45,1.56Zm-91.53-17.57c-.7-.26-1.24-.24-1.96-.03,.72,.57,1.25,.56,1.96,.03Zm98.09,10.28c-.05-.3-.04-.43-.1-.49-.24-.23-.5-.43-.93-.78,.1,.34,.1,.49,.18,.56,.22,.21,.46,.39,.85,.71Z"/>
  <path class="cls-1" d="M127.19,48.83c-2.41,1.54-4.79,2.29-7.47,1.54-.36-.7-.05-1.17,.31-1.67,.31-.43,.55-.9,.68-1.59-.35,.11-.73,.18-1.05,.34-1.38,.68-2.73,1.42-4.12,2.08-.47,.22-1.03,.41-1.53,.38-2.77-.21-5.35-1.05-7.76-2.43-.7-.4-1.24-.94-1.29-1.95,1.28-.8,2.61-1.64,3.98-2.5-.14-.41-.21-.72-.34-.99-.66-1.32-.95-1.48-2.36-1.16-2.77,.62-5.35,1.79-7.92,2.95-.61,.27-.81,.71-.66,1.32,.13,.53,.23,1.09,.48,1.56,1.21,2.24,2.43,4.48,3.76,6.65,.33,.54,1.03,.85,1.59,1.24,.47,.33,.98,.61,1.45,.9-.66,1.51-4.1,3.51-6.17,3.6-.1-.55-.28-1.11-.29-1.68-.03-1.73-.5-3.29-1.4-4.78-.77-1.28-1.39-2.65-2.07-3.98-.17-.32-.31-.66-.49-.97-.39-.68-.98-.94-1.73-.77-1.68,.39-3.1,1.29-4.41,2.38-.52,.44-.39,.98-.11,1.49,.5,.92,1,1.84,1.54,2.74,.83,1.36,1.7,2.69,2.55,4.04,.76,1.21,1.79,2.03,3.44,2.21-.32,.57-.54,1.06-.84,1.48-.92,1.25-2.24,1.99-3.63,2.58-.84,.35-1.07,.25-1.41-.67-.2-.55-.26-1.15-.44-1.71-.31-.94-.65-1.88-1.03-2.8-.23-.55-.68-.67-1.25-.44-2.18,.88-4.12,2.12-5.84,3.73-.5,.47-.46,.94,0,1.42,.38,.4,.75,.8,1.13,1.19,.78,.83,1.6,1.62,2.35,2.48,.94,1.08,.71,1.74-.73,2.04-.5,.11-1.15,.12-1.57-.11-1.72-.94-3.3-2.1-4.55-3.65-1.16-1.44-1.14-3.19,.1-4.57,.78-.87,1.58-1.74,2.4-2.58,.28-.29,.62-.57,.98-.73,1.2-.51,2.06-1.48,3.04-2.26,1.07-.86,1.07-1.19,.31-2.42-.19-.3-.38-.61-.55-.9-3.22,1.64-6.12,3.65-8.75,6.07-.7,.64-1.46,1.24-2.26,1.75-1.73,1.1-2.69,2.79-3.74,4.54,2.91,2.64,3.61,5.6,1.15,9,.38,.24,.71,.46,1.05,.65,.84,.48,1.59,.43,2.38-.22,.58-.48,1.3-.82,2-1.13,.61-.27,1.29-.29,1.74,.32,.39,.53,.03,1-.21,1.51-.68,1.43-1.83,2.37-3.12,3.16-1.21,.75-2.56,.67-3.84,.28-2.21-.68-4.39-1.47-6.65-2.23,0-.95-.02-1.8,0-2.65,.03-.86,.51-1.3,1.36-1.41,.54-.07,1.07-.2,1.59-.37,.59-.19,.99-.59,1.23-1.19,.22-.57,.21-1.05-.22-1.51-1.72-1.8-2.07-2-3.76-.1-1.88,2.11-3.73,4.25-5.58,6.39-.59,.69-1.12,1.42-1.74,2.21,.8,.69,1.51,1.4,2.31,1.97,1.81,1.3,3.67,2.52,5.5,3.8,.45,.32,.88,.43,1.4,.27,.3-.09,.62-.17,.94-.18,.92-.02,1.43,.56,1.09,1.41-.67,1.64-1.37,3.29-2.71,4.54-1.03,.97-2.05,.83-2.4-.5-.5-1.91-1.78-2.98-3.33-3.94-1.81-1.13-3.56-2.36-5.44-3.62-.38,.38-.79,.67-1.05,1.07-.62,.94-1.22,1.91-1.75,2.91-.57,1.09-.51,1.53,.45,2.23,1.91,1.4,3.85,2.76,5.84,4.03,.66,.42,1.52,.55,2.3,.77,.91,.26,1.89,.31,2.63,1.02-.57,1.69-1.51,3.12-2.77,4.33-1.03,.99-1.51,.85-2.01-.52-.14-.38-.31-.77-.55-1.08-.94-1.2-1.65-1.18-2.55,.06-.5,.7-1.04,1.38-1.47,2.12-.49,.85-.21,1.68,.3,2.43,.46,.68,1,1.31,1.39,2.02,.19,.34,.27,.92,.11,1.24-.55,1.06-1.45,1.77-2.7,1.8-1.99,.06-4.06-1.35-4.79-3.22-.55-1.42-1.75-2.05-3.03-2.57-.56-.23-2.01,.74-2.45,1.47-.25,.43-.47,.9-.81,1.25-.75,.78-1.69,.53-1.95-.5-.4-1.59-.3-3.09,1.03-4.27,.61-.54,1.2-1.15,1.9-1.54,.85-.47,1.75-.89,2.81-.27,.85,.5,1.84,.74,2.72,1.19,.92,.46,1.36,.55,2.05-.27,.87-1.03,1.59-2.2,2.32-3.35,.28-.44,.1-.89-.38-1.15-.84-.44-1.66-.95-2.55-1.28-.34-.13-.89,.03-1.23,.24-.37,.22-.6,.67-.9,1.01-.42,.48-.8,.99-1.26,1.42-.36,.34-.84,.69-1.33,.24-.43-.39-.56-.95-.35-1.51,.18-.47,.45-.9,.64-1.36,1.29-3.13,2.84-6.1,4.88-8.82,1.33-1.78,2.51-3.68,3.67-5.57,1.2-1.95,2.59-3.73,4.19-5.37,1.33-1.36,2.55-2.82,3.88-4.19,1.61-1.67,3.29-3.27,4.93-4.92,.77-.77,1.49-1.59,2.24-2.38,.19-.2,.38-.38,.59-.55,1.81-1.44,3.61-2.89,5.44-4.3,1.91-1.48,3.83-2.93,5.76-4.37,.69-.51,.86-.95,.42-1.89-.74-1.55-.73-3.18-.65-4.82,.06-1.15,.59-1.98,1.68-2.43,2.41-.99,4.85-1.48,7.44-.66,1.77,.56,3.61,.93,5.4,1.45,.66,.19,1.15-.09,1.68-.33,5.02-2.29,10.25-4.03,15.52-5.63,2.26-.68,4.6-1.08,6.91-1.62,1.68-.4,3.35-.79,5.01-1.26,1.43-.4,2.71-.05,3.91,.67,.27,.16,.59,.6,.54,.83-.08,.32-.44,.69-.76,.8-.77,.26-1.59,.38-2.38,.56-.44,.1-.89,.18-1.32,.32-.54,.17-.83,.59-.78,1.15,.07,.77,.19,1.53,.34,2.29,.15,.8,.43,1.59,.52,2.4,.23,2.04,.82,3.89,2.31,5.39,.37,.38,.61,.89,.98,1.44Zm-15.66-3.31c.19,.16,.25,.24,.33,.27,2.67,.88,6.5-1,7.42-3.65,.06-.17,.1-.36,.1-.53-.03-1-.03-2-.15-2.98-.04-.35-.34-.87-.62-.95-.81-.23-1.75-.53-2.5-.32-1.28,.36-2.46,1.1-3.69,1.68-.48,.23-.65,.6-.5,1.12,.09,.31,.17,.61,.25,.92,.23,.97,.46,1.92-.15,2.88-.29,.46-.33,1.07-.47,1.56Zm-21.21-1.41c-2.08-.78-4.01-.78-5.95-.08-.13,.04-.24,.12-.35,.2-.67,.51-.91,1.34-.59,2.05,.33,.72,1.12,1.11,1.95,.77,1.69-.7,3.47-1.3,4.94-2.94Z"/>
  <path class="cls-1" d="M200.8,47.95c1.5-4.13,3.44-5.69,6.09-4.99,2.8,.75,4.47,2.07,3.89,6.24-.79,.24-1.54,0-2.2-.38-.33-.19-.57-.67-.71-1.06-.23-.65-.31-1.41-1.15-1.53-.76-.11-1.08,.6-1.47,1.07-.58,.69-.61,1.24-.1,1.97,.63,.89,1.35,1.71,1.99,2.6,.45,.62,.9,1.26,1.22,1.95,.26,.56,.18,1.2-.36,1.62-.52,.4-1.02,.14-1.49-.2-.37-.27-.77-.48-1.16-.7-2.3,1.39-5.29,6.9-6,11.05-1.12,.5-2.12-.1-3.11-.46-.88-.32-1.71-.78-2.14-1.77-.45-1.05-.48-1.24,.4-1.96,.17-.14,.34-.28,.7-.58-.99-.38-1.83-.67-2.65-1.03-1.29-.56-2.65-1.03-3.81-1.8-1.64-1.08-2.35-2.83-2.65-4.74-.05-.31,.03-.68-.1-.94-.61-1.18-.04-2.1,.55-3.04,.6-.97,1.54-1.21,2.59-1.22,2.44-.02,4.69,.59,6.63,2.1,.83,.64,1.59,1.37,2.38,2.05,.28,.24,.55,.48,.84,.7,.81,.61,1.28,.65,1.67,.18,.35-.43,.22-.81-.57-1.44-.5-.4-1.02-.76-1.56-1.11-2.34-1.49-4.64-3.04-7.18-4.21-1.11-.51-2.14-1.21-3.22-1.79-.6-.32-1.23-.58-1.88-.8-1.74-.57-2.71-.11-3.45,1.63-.37,.88-.7,1.77-1.05,2.66-.33,.85-.63,1.71-.97,2.55-.44,1.09-.66,2.17-.12,3.31,.13,.28,.17,.61,.19,.93,.11,1.52-.58,2.03-2,1.5-.5-.19-1.01-.36-1.52-.52-1.17-.38-2.13-1.04-2.78-2.1-.42-.69-.29-.9,.28-1.52,.86-.93,1.64-1.93,2.42-2.93,.21-.27,.27-.65,.41-1.01-1.06-.55-2.06-1.06-3.23-1.67-.27,.46-.62,.97-.88,1.52-.3,.61-.51,1.27-.77,1.9-.74,1.76-3.3,3.28-5.31,2.62-.82-.27-1.67-.49-2.42-.9-1.19-.63-1.92-1.57-2.39-2.96-.52-1.52-.79-2.98-.63-4.52,.08-.79,.36-1.59,.72-2.3,.44-.86,1.61-.87,2.06-.02,.28,.53,.4,1.21,.39,1.82-.01,1.76,.77,3.17,1.87,4.42,.75,.85,1.34,.79,1.99-.16,.69-1.03,1.14-2.17,1.12-3.45,0-.67,.07-1.34,.11-2.02,1.18-.18,2.19-.22,3.23,.08,1.44,.41,2.9,.76,4.36,1.12,.54,.13,1.07,.17,1.51-.32,.94-1.04,.85-1.87-.5-2.41-1.73-.69-3.5-1.31-5.31-1.75-4.07-.98-8.17-1.86-12.27-2.71-2.2-.46-2.46-.25-2.59,2-.09,1.49-.74,2.48-2.05,3.12-.86,.42-1.71,.86-2.53,1.35-.86,.5-.92,.8-.5,1.67,.52,1.06,1.4,1.63,2.51,1.94,.6,.17,1.2,.41,1.74,.71,.62,.34,.85,.99,.7,1.65-.07,.32-.45,.77-.74,.8-1.96,.25-3.91,.15-5.74-.69-.24-.11-.45-.31-.62-.52-1.99-2.54-3.13-5.52-4.25-8.49-.28-.74,.2-1.4,.74-1.94,.52-.51,.99-.24,1.49,.02,.85,.44,1.71,.85,2.55,1.31,.64,.35,1.23,.33,1.75-.18,.46-.44,.94-.87,1.3-1.39,.62-.89,.46-1.7-.5-2.17-.8-.4-1.7-.73-2.58-.82-2.99-.3-6-.48-9-.7-.08,0-.17,.06-.36,.13-.04,.35-.13,.74-.13,1.14,0,3.01,0,6.02,.07,9.02,0,.4,.28,.84,.53,1.18,.61,.8,.95,1.64,.65,2.72-1.6,.65-3.27,.61-4.93,.31-.99-.18-1.41-.85-1.1-1.82,.9-2.85,.76-5.76,.73-8.68,0-.36-.03-.73-.07-1.09-.27-2.19-.71-2.62-2.89-2.85-1.43-.15-1.79-.69-1.56-2.53,.62-.07,1.28-.15,1.94-.23,1-.13,1.13-.25,1.35-1.22,.17-.75,.32-1.5,.51-2.25,.45-1.86,2.01-3.12,3.95-3.08,1.63,.04,3.27,.16,4.89,.34,1.83,.2,3.31,1.21,4.72,2.3,.94,.72,1.84,1.5,2.74,2.27,1.88,1.6,4.04,2.56,6.45,3.09,2.87,.63,5.72,1.37,8.57,2.1,2.41,.61,4.82,1.23,7.21,1.9,5.62,1.59,11.03,3.72,16.19,6.47,.91,.49,1.9,.86,2.81,1.35,1.4,.76,2.76,1.59,4.13,2.38,.46,.27,.92,.53,1.4,.8Zm-3.26,8.87c-.1-.37-.14-.69-.27-.96-1.04-2.31-4.49-4.31-7.02-4.09-.14,.01-.27,.02-.41,.05-1.05,.23-1.28,.75-.66,1.63,1.33,1.87,4.87,4.38,8.35,3.37Zm-46.53-24.86c-.12-.27-.14-.44-.23-.5-1.38-.94-2.71-2.01-4.19-2.76-.84-.42-1.94-.44-2.92-.42-1.33,.03-2.39,.98-2.78,2.35,3.23,1.33,6.6,1.48,10.13,1.33Z"/>
  <path class="cls-1" d="M226,69.02c.85-1.08,1.22-2.19,1.01-3.48-.13-.81-.18-1.63-.23-2.45-.03-.62,.32-.89,.93-.92,1.04-.05,1.76,.5,2.23,1.32,.59,1.04,.88,2.19,.6,3.41-.15,.62-.26,1.26-.51,1.84-.99,2.26-.3,4.29,.89,6.2,.96,1.54,2.09,2.97,3.05,4.51,1.99,3.21,3.96,6.43,5.84,9.71,1.4,2.44,2.64,4.97,3.91,7.49,.24,.47,.38,1.04,.42,1.57,.05,.73-.47,1.15-1.15,.87-.51-.21-1.01-.63-1.31-1.09-.76-1.18-1.39-2.45-2.11-3.65-.42-.7-.88-1.39-1.4-2.02-.19-.23-.61-.43-.9-.4-.53,.06-.77,.57-.69,1.02,.09,.51,.32,1.05,.64,1.46,1.24,1.62,1.82,3.44,1.84,5.46,.02,1.87-1.04,3.31-2.86,3.86-1.53,.46-3.05,.52-4.42-.52-1.06-.81-1.75-1.85-1.68-3.22,.06-1.21,.79-1.57,1.87-.99,.52,.28,1,.68,1.55,.86,.38,.12,1,.09,1.24-.15,.23-.24,.28-.88,.13-1.23-.65-1.66-2.03-2.51-3.66-3.01-.22-.07-.56,0-.74,.15-.85,.68-1.69,1.36-2.12,2.43-.47,1.16-.99,1.31-2.08,.73-.16-.09-.36-.16-.45-.31-.76-1.32-1.92-2.44-2.06-4.06-.06-.73,.16-1,.91-1.05,.63-.04,1.27,0,2.11,0-.25-.39-.38-.65-.55-.87-1.04-1.26-2.1-2.51-3.13-3.78-.25-.31-.47-.69-.53-1.07-.25-1.58-.32-3.17,.1-4.74,.19-.71,.58-1.23,1.25-1.53,1.36-.62,2.66-.91,4.12-.05,2.48,1.46,4,3.64,5.08,6.19,.47,1.11,.64,1.37,1.32,1.05,.99-.48,1.11-.99,.61-1.86-.45-.78-.9-1.57-1.42-2.31-1.38-1.98-2.79-3.94-4.2-5.89-.53-.74-1.09-1.46-1.65-2.18-.36-.46-.81-.55-1.33-.24-.39,.23-.81,.43-1.18,.69-2.45,1.78-4.66,3.8-6.41,6.29-1.15,1.64-2.2,1.72-3.72,.4-.89-.77-1.25-1.78-1.42-2.87-.15-.98,.07-1.22,1.06-1.49,.26-.07,.51-.17,.77-.26,.02-.59-.45-.66-.78-.83-3.24-1.61-4.98-4.37-5.94-7.73-.07-.26-.08-.54-.08-.81,0-1.59,2.13-4.25,3.7-4.48,.63-.09,1.33,.12,1.98,.27,2.39,.57,4.2,1.93,5.42,4.06,.54,.95,1.04,1.92,1.6,2.87,.27,.46,.62,.86,.91,1.27,1.66-.71,1.89-1.3,.95-2.58-1.75-2.4-3.73-4.58-6.09-6.42-1.13-.88-1.85-2.11-2.36-3.43,.85-.75,1.71-.8,2.71-.1,.9,.62,1.74,1.33,2.63,1.96,.5,.36,1,.8,1.91,.64-.05-.53-.04-1.05-.15-1.54-.2-.98-.53-1.94-.68-2.92-.16-1.02,.09-1.46,.72-1.72,.74-.3,1.54-.12,2.11,.53,.94,1.09,1.25,2.43,1.35,3.8,.14,1.82,.15,3.64,.26,5.46,.04,.65,.19,1.29,.29,1.94Zm3.52,21.78c.77-2.31-.42-5.17-2.29-6.03-.85-.39-1.28-.17-1.41,.77-.04,.27-.02,.54,0,.81,.11,2.38,1.99,3.23,3.7,4.45Zm-16.09-18.62c1-.54,1.32-1.34,1.34-2.27,.01-.64-.78-1.39-1.41-1.46-.43-.05-.73,.15-.79,.56-.17,1.16,.09,2.2,.85,3.17Zm5.32,3.55c.13-1.4-.38-2.46-1.34-2.95-.96,1.63-.45,2.84,1.34,2.95Z"/>
  <path class="cls-1" d="M60.25,194.6c.43,.34,.74,.54,.97,.8,1.6,1.75,3.09,3.57,4.24,5.67,.66,1.2,1.44,2.34,1.47,3.76,.02,.99,0,2.01-.19,2.97-.24,1.18-1.05,1.89-2.29,2-.59,.05-1.19,.19-1.76,.12-1.09-.13-1.96,.3-2.76,.94-.39,.31-.73,.69-1.13,.99-.99,.77-1.5,1.69-1.08,2.97,.03,.08,.02,.18,.03,.27,.19,1.79-.59,2.44-2.34,1.94-1.66-.48-2.62-2.43-2.12-4.12,.39-1.32,1.12-2.38,2.15-3.25,.91-.77,1.55-1.72,1.59-2.91,.02-.54-.17-1.22-.52-1.59-.45-.48-1.12-.18-1.63,.15-1.16,.76-2.24,1.61-2.62,3.02-.19,.7-.56,.75-1.12,.51-1.04-.44-1.84-1.19-2.47-2.1-.52-.75-.97-1.54-1.4-2.34-.43-.82-.12-1.38,.79-1.38,1.61,.02,3.05-.57,4.35-1.36,1.67-1,3.26-2.17,4.78-3.39,.72-.58,1.21-1.45,1.81-2.19,.39-.48,.78-.96,1.22-1.5Zm3.39,9.51c-.11-.33-.22-.93-.49-1.44-.97-1.79-2.29-2.02-3.75-.71-.63,.57-.81,1.11-.35,1.81,.5,.75,1.12,1.43,1.78,2.05,.52,.48,1.19,.68,1.9,.28,.68-.38,.85-1.03,.92-1.99Z"/>
  <path class="cls-1" d="M176.87,249.94c-1.94,1.61-4.06,2.02-6.34,2.38-.1-1.03-.18-1.97-.28-2.91-.32-3.06-1.1-6-2.33-8.81-.37-.84-.8-1.65-1.74-2.01-.53-.2-.84-.53-.74-1.13,.09-.57,.35-1.01,.94-1.23,1.59-.58,3.24-.9,4.93-.91,1.23,0,1.56,.39,1.01,1.51-.79,1.6-.29,2.99,.38,4.68,.41-.57,.77-.95,.98-1.4,.78-1.64,1.6-3.26,1.49-5.18-.07-1.26,.58-2.08,1.79-2.4,.96-.26,1.93-.55,2.91-.69,.38-.05,.91,.16,1.19,.44,.39,.39,.01,.84-.22,1.23-.1,.15-.19,.32-.32,.44-1.43,1.31-2,3.11-2.75,4.81-.33,.74-.28,1.27,.36,1.79,2.29,1.88,4.58,3.79,7.36,4.9,1.13,.45,1.15,1,.34,1.77-1.15,1.1-2.53,1.76-4.05,2.12-.78,.18-1.26-.34-1.65-.96-.92-1.44-2.12-2.62-3.49-3.63-.46-.34-.94-.8-1.6-.49-.73,.34-.88,1.04-.9,1.72-.04,1.05,.31,1.96,1.18,2.64,.5,.38,.96,.81,1.55,1.32Z"/>
  <path class="cls-1" d="M30.46,131.66c-.23-.85-.53-1.42-.51-1.97,.06-1.4,.18-2.81,.44-4.19,.19-1.02,1.3-1.42,1.94-.66,1.17,1.38,2.72,1.59,4.29,1.77,1.85,.21,3.72,.29,5.58,.41,.7,.05,1.36-.06,1.91-.56,.16-.15,.39-.24,.6-.33,1.09-.46,1.54-.3,1.64,.9,.14,1.72,.2,3.46,.06,5.17-.14,1.76-.5,3.5-.87,5.23-.46,2.17-1.67,3.05-3.91,2.99-1.36-.04-2.6-.42-3.62-1.37-.73-.68-1.59-1.04-2.57-1.13-1.17-.11-2.34-.19-3.54-.28,.07,.94,.12,1.74,.18,2.52-2.28,.62-4.1-.94-3.82-3.17,.08-.67,.33-1.21,1.06-1.44,.94-.3,1.87-.65,2.81-.96,.82-.27,1.67-.45,2.47-.77,1.19-.48,1.63-1.34,1.52-2.6-.05-.55-.29-.85-.83-.89-1.01-.07-1.99,.03-2.92,.52-.55,.29-1.14,.48-1.91,.81Zm10.78,5.18c1.84-1.47,2.52-3.09,2.22-5.28-.03-.21-.1-.46-.25-.61-.84-.85-2.91-.48-3.44,.59-.96,1.96-.42,4,1.46,5.29Z"/>
  <path class="cls-1" d="M91.97,237.77c.4,1.81-1.15,3.96-2.74,4.44-.29,.09-.66,.16-.91,.05-1.4-.63-2.79-1.31-4.16-2-.85-.43-1.7-.88-2.5-1.39-1.14-.74-2.34-1.44-3.34-2.35-1.2-1.1-1.06-2.19,.34-3,1.59-.92,2.75-2.24,3.76-3.71,1.19-1.72,2.35-3.46,3.37-4.98-.36-.88-.73-1.54-.89-2.24-.13-.56,.25-1,.87-.94,.62,.06,1.31,.11,1.82,.41,2.35,1.37,4.66,2.82,6.98,4.24,.27,.17,.54,.34,.81,.51,.7,.43,1.37,.84,1.43,1.83,.07,1.19-.12,2.29-.84,3.22-.67,.87-1.84,.63-2.06-.51-.36-1.87-1.73-2.83-3.08-3.82-.7-.51-1.26-.49-1.89-.02-.7,.53-1.06,1.26-1.01,2.13,.01,.2,.41,.48,.66,.53,.71,.14,1.45,.15,2.17,.25,.88,.12,1.11,.45,.86,1.3-.44,1.48-1.29,2.71-2.47,3.7-.24,.2-.54,.35-.84,.45-.72,.22-1.12,0-1.26-.79-.13-.76-.32-1.55-1.13-1.68-.86-.13-1.16,.75-1.54,1.34-.61,.97-.58,1.32,.36,1.93,.87,.56,1.83,1.01,2.79,1.4,.73,.29,1.5,.24,2.27-.06,.66-.26,1.36-.52,2.16-.22Z"/>
  <path class="cls-1" d="M240.65,178.7c-1.27-1.46-2.64-2.19-4.4-2.06-.63,.05-1.27,.17-1.9,.17-.7,0-.93-.26-.82-.92,.23-1.47,.85-2.78,1.75-3.95,.32-.42,.74-.51,1.19-.17,.25,.19,.54,.36,.74,.6,1.3,1.52,3.04,2.25,4.86,2.9,1.96,.7,3.91,1.45,5.83,2.26,.61,.26,1.16,.73,1.64,1.2,.73,.71,.7,1.35-.11,1.94-.5,.36-1.11,.64-1.72,.77-1.77,.41-3.56,.71-5.34,1.08-1.69,.35-3.37,.73-5.4,1.17,1.61,1.14,3.1,1.85,4.65,2.45,1.6,.61,3.23,.15,4.98,.01,.19,2.45-.9,4.31-2.33,6.2-.46-.47-.97-.92-1.38-1.44-.69-.88-1.52-1.58-2.53-2.04-2.12-.95-4.25-1.86-6.37-2.79-.79-.34-1.53-.46-2.34,.04-.34,.21-.89,.25-1.3,.17-.84-.15-1.18-.97-.81-1.76,.17-.37,.36-.73,.49-1.12,.84-2.45,2.82-3.27,5.13-3.62,1.39-.21,2.79-.41,4.18-.65,.38-.06,.74-.25,1.3-.45Z"/>
  <path class="cls-1" d="M146.5,256.16c-.32-1.05-.14-1.76,.14-2.56,.66-1.92,.76-3.95,.5-5.94-.18-1.44-.62-2.84-1-4.25-.15-.56-.39-1.12-.68-1.63-.23-.39-.62-.67-.36-1.21,.27-.56,.64-.98,1.28-1.12,2.15-.46,3.93,.11,5.35,1.83,1.39,1.68,2.82,3.34,4.23,5.01,.26,.3,.56,.57,.98,1,.27-1.52-.09-2.81-.3-4.13-.22-1.4-1.06-2.46-1.96-3.46,2.35-2.07,5.17-2.43,6.71-.86-.14,.25-.25,.56-.46,.78-.96,1.02-1.12,2.25-1.01,3.56,.16,2.09,.33,4.18,.49,6.27,.1,1.32,.21,2.63,.25,3.95,.01,.42-.06,.92-.29,1.24-.24,.34-1.54,.2-1.92-.14-.71-.64-1.43-1.28-2.08-1.97-1.52-1.63-3-3.31-4.52-4.94-.38-.41-.83-.75-1.41-1.27-.11,.57-.22,.87-.22,1.16,0,.91,.06,1.82,.02,2.73-.04,1.27,.43,2.3,1.27,3.21,.22,.23,.44,.47,.62,.73,.46,.67,.35,1.09-.37,1.4-.29,.13-.6,.23-.92,.26-1.44,.13-2.88,.23-4.37,.34Z"/>
  <path class="cls-1" d="M111.65,235c.64,.05,1.15,.03,1.63,.14,3.22,.71,6.25,1.91,9.1,3.57,1.83,1.07,1.89,2.67,1.44,3.84-.28,.74-.7,1.44-1.15,2.1-.38,.55-.36,1.07-.22,1.68,.27,1.17,.28,2.31-.17,3.48-.72,1.86-2.34,3.23-4.31,3.12-3.19-.18-6.32-.79-9.28-2.09-.37-.16-.73-.39-1.03-.66-.71-.65-.54-1.8,.39-1.91,1.45-.18,1.85-1.16,2.18-2.27,.62-2.09,1.21-4.2,1.8-6.3,.2-.72,.16-1.43-.19-2.12-.38-.75-.4-1.56-.21-2.57Zm2.3,12.81c-.02,1.55,.47,2.32,1.61,2.43,.97,.09,1.91-.13,2.72-.7,.9-.64,1.08-1.69,.3-2.47-.52-.53-1.22-.97-1.92-1.22-1.98-.72-2.69-.17-2.71,1.96Zm1.44-6.15c1.3,1.04,3.21,1.19,4.33,.45,.79-.52,.92-.97,.34-1.67-.49-.59-1.08-1.1-1.66-1.61-.45-.4-.95-.38-1.29,.13-.61,.89-1.16,1.81-1.72,2.7Z"/>
  <path class="cls-1" d="M46.3,188.81c-.99-1.27-1.23-1.32-2.51-.62-1.4,.77-1.63,1.3-1.12,2.61,.26,.68,.53,1.35,.81,2.02,.31,.74,.96,1.06,1.66,1.31,.51,.19,1.06,.32,1.52,.59,.86,.5,.92,1.22,.22,1.9-1.87,1.8-4.53,1.14-5.32-1.3-.19-.59-.53-1.14-.79-1.71-.4-.87-.77-1.74-1.18-2.6-.37-.77-.73-1.55-1.15-2.29-.54-.94-.91-2.82-.78-4.48,.43,0,.87-.03,1.3,0,2.18,.18,4.26-.14,6.26-1.04,.95-.43,1.93-.81,2.92-1.14,1.17-.4,1.94-1.12,2.21-2.35,.14-.63,.36-1.23,1.05-1.57,.96,.35,1.42,1.25,1.85,2.04,1.32,2.44,2.51,4.95,3.75,7.43,.04,.08,.08,.17,.1,.25,1.12,3.44,.51,3.51-2.62,4.49-.95,.3-1.34-.19-1.12-1.21,.02-.09,.03-.19,.07-.26,.79-1.29,.42-2.52-.15-3.76-.4-.87-.74-1.76-1.16-2.79-1.07,.64-2.1,1.25-3.16,1.89,.45,1.06,1.11,1.58,2.17,1.62,0,.37,.09,.71-.01,.96-.66,1.58-3,3.05-4.7,3.01-.98-.03-1.22-.36-.88-1.3,.22-.59,.51-1.16,.76-1.7Z"/>
  <path class="cls-1" d="M251.98,171.12c-.46-.29-.75-.43-.99-.63-2.67-2.32-6.05-2.8-9.32-3.51-.87-.19-1.74-.06-2.63,.4-.71,.37-1.65,.3-2.5,.42-.5-1.32-.07-2.44,.23-3.48,.73-2.61,1.64-5.17,2.5-7.75,.1-.29,.26-.61,.49-.81,1.81-1.65,5-3.47,7.92-2.12,1.39,.64,2.8,1.23,4.16,1.92,1.39,.71,2.09,2.01,2.38,3.46,.52,2.58,.16,5.17-.4,7.71-.25,1.13-.72,2.22-1.14,3.31-.14,.36-.43,.66-.71,1.08Zm-2.6-6.63c1.75,.08,2.76-.62,2.54-1.88-.35-2-1.04-3.9-3.19-4.73-1.01-.39-2.04-.75-3.08-1.03-.41-.11-.93-.07-1.33,.09-1.68,.65-2.96,1.75-3.63,3.47-.41,1.06-.26,1.51,.77,1.95,2.6,1.11,5.27,1.93,7.92,2.12Z"/>
  <path class="cls-1" d="M29.24,145.91c.65-.37,1.19-.27,1.73,.06,.88,.54,1.85,.74,2.87,.74,2,0,4.01-.02,6.01-.04,1.28-.01,2.4-.35,3.28-1.37,.33-.39,.84-.62,1.28-.94,1.05,1.25,1.3,2.63,1.41,4.03,.21,2.54,.36,5.08,.48,7.62,.03,.67-.02,1.54-.69,1.82-.93,.39-1.92,.88-3,.62-.22-.05-.51-.43-.51-.65,.01-.38,.15-.83,.38-1.13,.86-1.08,1.21-2.29,1.29-3.66,.06-1.09-.21-2.04-1.06-2.61-.87-.58-2.46,0-3.32,1.06,.38,.5,.8,1.02,1.18,1.57,.67,.99,.41,1.74-.76,2.01-.88,.2-1.8,.29-2.71,.34-1.46,.08-2.05-.89-1.4-2.21,.65-1.33,.35-1.88-1.11-2.03-.09,0-.18-.02-.27-.02-1.75,.02-2.41,.32-2.2,2.36,.16,1.58,.61,3.02,2.19,3.86,.52,.28,.89,.84,1.32,1.27-1.19,1.42-4.17,1.73-5.26,.53-.45-.5-.69-1.29-.78-1.99-.2-1.53-.31-3.08-.35-4.63-.05-2.18-.01-4.36-.01-6.62Z"/>
  <path class="cls-1" d="M44.79,166.24c-.28,.74-.54,1.35-.74,1.98-.69,2.21-1.41,4.42-2.02,6.66-.53,1.92-2.02,2.62-3.69,2.71-1.83,.1-3.63-.31-4.78-2.07-.65-.99-.83-2.1-.96-3.22-.12-1-.16-2-.28-2.99-.05-.4-.11-.85-.33-1.15-.48-.63-.27-1.08,.2-1.55,1.04-1.02,2.34-1.57,3.71-1.93,.74-.19,1.29,.19,1.28,.98,0,.65-.19,1.34-.45,1.95-.25,.57-.68,1.07-1.06,1.58-1.24,1.67-1.06,3.36,.52,4.72,.85,.72,1.62,.64,2.1-.39,.4-.85,.62-1.8,.81-2.73,.29-1.37,.5-2.77,.72-4.15,.19-1.18,.85-2.1,1.64-2.92,.29-.3,.78-.56,1.18-.56,1.22,0,2.49-.03,3.65,.27,1.72,.44,2.8,1.65,3.02,3.48,.18,1.45,.32,2.9,.49,4.34,.04,.3,.14,.61,.26,.89,.3,.7,.24,1.17-.44,1.42-1.1,.39-2.26,.66-3.41,.89-.23,.04-.73-.3-.78-.54-.14-.64-.22-1.34-.1-1.98,.12-.65,.5-1.26,.79-1.88,.83-1.78,.62-2.51-1.34-3.79Z"/>
  <path class="cls-1" d="M211.1,231.36c.2,1.44-.68,2.31-1.53,3.23-1.04,1.12-2.31,1.89-3.65,2.57-.31,.16-.7,.16-1.06,.2-3.59,.44-6.25-1.16-8.26-3.95-.65-.9-1.1-1.97-1.54-3-1.19-2.77-.44-5.33,.99-7.78,.13-.23,.3-.48,.51-.63,1.54-1.08,3.26-1.81,5.06-2.19,1.7-.35,3.41,.16,4.8,1.1,2.2,1.49,4.08,3.32,4.28,6.26,.09,1.4,.27,2.8,.41,4.19Zm-13.55-4.64c.06,1.66,.93,3.41,2.26,4.99,1.17,1.4,2.76,2.19,4.3,3.06,.48,.27,.85,.03,1.24-.25,2.22-1.57,2.85-3.73,1.71-6.2-.59-1.28-1.33-2.48-1.97-3.73-.49-.97-1.32-1.49-2.28-1.82-2.97-1.01-5.27,.54-5.27,3.95Z"/>
  <path class="cls-1" d="M135,256.23c.13-1.01,.23-1.73,.31-2.45,.1-.96-.04-1.83-1.02-2.32-.92-.46-2.34-.27-3.09,.37-.46,.4-.42,.83-.27,1.36,.36,1.32,.23,1.54-1.12,1.59-1.36,.06-2.73,.04-4.09,.01-1.16-.03-1.59-.75-1.11-1.81,.09-.2,.24-.39,.4-.54,2.62-2.41,4.17-5.49,5.31-8.78,.57-1.65,1.49-2.99,2.77-4.13,1.07-.95,1.95-.88,2.64,.39,.54,.98,.93,2.05,1.29,3.11,.92,2.66,1.74,5.36,2.69,8.01,.4,1.1,.99,2.14,1.57,3.16,.62,1.11,.44,1.62-.8,1.72-1.75,.13-3.51,.2-5.48,.3Zm-1.54-11.17c-.85,.86-1.19,1.79-1.37,2.77-.13,.69,.17,1.01,.86,1.12,.92,.15,1.65-.42,1.61-1.36-.04-.9-.29-1.76-1.1-2.53Z"/>
  <path class="cls-1" d="M253.06,121.33c1.5,1.86,2.17,5.23,1.48,7.4-.62-.07-1.29-.14-1.94-.24-1.22-.18-1.81,.23-1.7,1.43,.08,.88,.38,1.77,.72,2.6,.27,.65,.68,.72,1.34,.35,.51-.28,.98-.63,1.52-.98,1.08,.89,.83,2.1,.84,3.18,.01,1.15,.12,2.38-.94,3.32-.69-.45-1.3-.92-1.98-1.26-.65-.33-1.35-.54-2.05-.76-.74-.23-1.49-.41-2.24-.61-2.71-.73-5.44-1.44-8.14-2.22-.75-.22-1.39-.66-1.44-1.61-.05-.92,.05-1.72,1-2.19,1.82-.91,3.63-1.84,5.44-2.76,1.18-.59,2.35-1.19,3.55-1.75,1.56-.72,2.85-1.75,3.81-3.2,.16-.24,.42-.43,.71-.71Zm-8.1,10.12c.85,.69,1.58,.9,2.27,.71,.6-.17,.96-.67,.83-1.19-.14-.59-.61-.58-1.07-.56-.79,.03-1.47,.29-2.03,1.03Z"/>
  <path class="cls-1" d="M217.67,227.57c-.17-.61-.39-1.03-.39-1.45,.01-.8-.31-1.42-.83-1.95-2.06-2.06-4.08-4.17-6.23-6.12-.78-.71-1.87-1.07-2.85-1.54-.86-.41-.99-.61-.53-1.43,.29-.51,.64-1,1-1.46,1.83-2.34,3.94-4.42,6.22-6.32,1.13-.94,2.4-.97,3.63-.16,.26,.17,.56,.31,.79,.51,.63,.56,1.13,1.19,.85,2.2-.54,0-1.08,.02-1.62,0-1.01-.05-1.89,.22-2.62,.93-.81,.8-1.64,1.58-2.4,2.43-.61,.68-.56,.96,.09,1.62,.16,.16,.34,.31,.51,.45,1.11,.86,1.75,.7,2.01-.66,.38-2.02,1.58-2.27,3.09-.93,.73,.65,1.31,1.5,1.82,2.34,.42,.7,.11,1.18-.69,1.38-.86,.22-1.83,.19-2.49,1.17,1.17,2.44,3.46,3,5.87,3.32-.29,.75-3.07,4.57-3.55,4.85-.49,.29-1.02,.5-1.69,.83Z"/>
  <path class="cls-1" d="M70.63,208.14c1.94,1,3.28,2.34,4.5,3.81,.24,.29,.37,.73,.43,1.12,.09,.59-.07,1.12-.76,1.23-.84,.14-1.45,.64-1.79,1.34-.81,1.62-1.53,3.29-2.26,4.95-.08,.17-.01,.41-.01,.87,1.21-.61,2.28-1.07,3.27-1.66,1.34-.8,2.45-1.83,3.14-3.3,.55-1.17,.99-1.3,2.01-.58,1.07,.76,2.04,1.66,3.01,2.55,.36,.33,.69,.78,.28,1.32-.37,.48-.85,1.01-1.47,.73-1.01-.46-1.91-.14-2.74,.27-1.5,.73-2.95,1.59-4.41,2.41-1.98,1.1-3.82,2.45-6.1,2.95-.97,.21-1.46,.23-2.69-.25,.09-.65,.06-1.39,.29-2.05,.7-2.02,1.49-4,2.24-6,.99-2.64,2.01-5.27,2.49-8.07,.09-.52,.35-1,.59-1.65Z"/>
  <path class="cls-1" d="M255.13,143.22c.63,2.52,.43,5.94-.47,7.11-.49-.36-1.05-.66-1.47-1.09-1.39-1.43-3.04-1.84-4.96-1.53-1.12,.18-2.26,.22-3.39,.34-1.36,.15-2.68,.43-3.87,1.17-.29,.18-.65,.27-1.12,.45-.24-.56-.54-1.03-.65-1.53-.35-1.61-.41-3.25-.06-4.87,.24-1.14,.79-1.35,1.74-.7,.26,.18,.5,.4,.74,.61,.6,.53,1.29,.84,2.1,.84,2.73-.02,5.45-.02,8.18-.08,.52-.01,1.12-.17,1.53-.47,.57-.42,1.08-.35,1.72-.24Z"/>
  <path class="cls-1" d="M223.92,196.14c-.23-1.07,.09-1.95,.61-2.68,.67-.96,1.47-1.84,2.31-2.66,.57-.55,.99-.39,1.37,.33,.59,1.11,1.41,1.94,2.54,2.53,1.72,.9,3.39,1.91,5.08,2.87,.35,.2,.73,.36,1.1,.54,.98,.51,1.97,.69,2.93,.02,.85,.4,.71,1.06,.52,1.66-.48,1.56-1,3.12-2.29,4.26-.29,.26-.5,.61-.87,1.08-.31-.43-.74-.76-.77-1.12-.13-1.4-1.16-2.08-2.12-2.8-.84-.62-1.73-1.17-2.61-1.74-2.18-1.41-4.51-2.36-7.17-2.23-.18,0-.35-.04-.63-.07Z"/>
  <path class="cls-1" d="M245.33,114.36c-.18,.47-.28,.88-.48,1.22-.62,1.06-1.67,1.53-2.8,1.7-1.12,.17-1.79-.35-2.17-1.43-.37-1.08,.28-2.89,1.25-3.48,1.01-.62,2.81-.3,3.59,.71,.29,.37,.42,.87,.61,1.3Z"/>
  <path class="cls-1" d="M42.87,117.81c-1.39-.05-2.08-.98-2.56-2.12-.51-1.22-.35-1.95,.6-2.8,.22-.2,.55-.33,.84-.39,1.7-.33,3.37,1.25,3.15,2.95-.04,.31-.09,.63-.17,.94-.26,.99-.86,1.44-1.87,1.42Z"/>
  <path class="cls-1" d="M169.31,54.65c.96,0,1.68,.56,1.71,1.34,.03,.96-.64,1.82-1.42,1.83-.84,0-1.76-1.11-1.74-2.1,.01-.63,.62-1.08,1.46-1.08Z"/>
  <path class="cls-1" d="M234.35,71.05c-.54,.31-.97,.63-1.46,.83-.94,.39-1.61-.1-1.6-1.11,0-.18,.04-.36,.07-.53,.11-.65,.31-1.24,1.05-1.41,.57-.13,1.15,.28,1.52,1.08,.16,.35,.27,.73,.41,1.14Z"/>
  <path class="cls-1" d="M182.84,140.55c.83-.03,1.34,.28,1.79,.78,1.46,1.63,2.94,3.23,4.38,4.87,.56,.63,1.02,1.35,1.52,2.03-.83,.65-1.39,.73-1.98,.23-1.24-1.07-2.51-2.12-3.63-3.3-.74-.78-1.26-1.77-1.89-2.66-.44-.63-.25-1.27-.18-1.94Z"/>
  <path class="cls-1" d="M167.18,149.6c-.35-.16-.62-.2-.72-.35-1.57-2.38-2.51-5-2.8-7.84-.02-.23-.03-.46,0-.68,.09-.74,.61-1.08,1.23-.68,.46,.3,.94,.77,1.12,1.28,.45,1.27,.79,2.59,1.06,3.91,.21,1.02,.27,2.07,.34,3.11,.02,.37-.13,.76-.22,1.25Z"/>
  <path class="cls-1" d="M132.7,145.85c-.92,.18-1.15-.48-1.48-.92-1.57-2.05-2.71-4.91-2.65-6.59,.92-.32,1.69,.1,2.09,.81,1.04,1.86,2.11,3.74,2.1,5.98,0,.22-.04,.45-.06,.73Z"/>
  <path class="cls-1" d="M148.42,146.65c-1.24-.3-1.87-1.21-2.3-2.3-.35-.89-.67-1.81-.37-2.79,.29-.93,1.11-1.17,1.78-.55,1.04,.95,1.58,4.34,.88,5.64Z"/>
  <path class="cls-1" d="M160.39,143.83c0,.55-.11,1.03-.68,1.23-.58,.2-1.09,.06-1.45-.45-.9-1.26-1.34-2.68-1.39-4.21-.03-.81,.57-1.12,1.31-.77,.2,.09,.4,.23,.55,.4,.99,1.08,1.41,2.41,1.66,3.8Z"/>
  <path class="cls-1" d="M151.9,139.72c1.63,.41,1.95,1.67,2.3,2.89,.16,.56,.23,1.14-.11,1.71-.41,.67-.84,.8-1.39,.24-.25-.25-.45-.57-.6-.9-.58-1.24-.7-2.5-.19-3.95Z"/>
  <path class="cls-1" d="M171.9,143.26c-.17,.14-.42,.51-.71,.54-.84,.09-1.92-.96-1.93-1.78,0-.52,.1-1.01,.72-1.16,.62-.15,1.45,.18,1.6,.71,.13,.47,.19,.97,.32,1.69Z"/>
  <path class="cls-1" d="M178.6,156.9c-1.63,.21-2.43-.42-3.09-2.42,.61-.53,1.19-.24,1.7,.16,.73,.57,1.56,1.12,1.39,2.26Z"/>
  <path class="cls-1" d="M137.25,146.15c-.9,.11-1.32-.47-1.47-1.13-.09-.41,.08-.98,.32-1.36,.38-.59,.94-.51,1.26,.11,.42,.81,.48,1.63-.11,2.38Z"/>
  <path class="cls-1" d="M109.33,142.37c-.45,.39-.71,.77-1.06,.9-.32,.12-.72-.6-.66-1.16,.05-.46,.21-1.04,.75-.9,.35,.09,.57,.66,.97,1.16Z"/>
  <path class="cls-1" d="M141.92,145.56c-.38-.34-.61-.72-.1-1.09,.13-.09,.59,.02,.66,.16,.26,.52,0,.82-.56,.93Z"/>
  <path class="cls-1" d="M111.08,137.34c-.31-.4-.56-.6-.56-.79,0-.17,.37-.5,.44-.47,.24,.11,.52,.32,.59,.55,.04,.15-.25,.4-.47,.71Z"/>
  <path class="cls-1" d="M113.17,157.24c1.26-1.41,1.89-1.54,3.25-.68,1.43,.89,2.83,1.82,4.21,2.79,1.6,1.13,3.18,2.28,4.72,3.49,.55,.44,1.02,1.03,1.39,1.63,.5,.79,.33,1.38-.32,1.71-.7,.35-1.59,.15-1.87-.55-.47-1.17-1.36-1.75-2.5-2.14-.56,.54-.35,1.14-.12,1.66,.61,1.42,1.29,2.81,1.93,4.22,.32,.7,.66,1.39,.91,2.11,.11,.32,.08,.72,.04,1.07-.06,.54-.33,1.04-.89,1.05-.31,0-.75-.34-.93-.65-1.12-1.97-2.19-3.97-3.27-5.97-.19-.36-.31-.77-.52-1.11-.62-.97-1-2.01-1.22-3.16-.3-1.6-1.01-2.97-2.62-3.75-.78-.38-1.4-1.09-2.17-1.71Z"/>
  <path class="cls-1" d="M95.1,136.36c.99-.17,1.47,.44,1.82,1.04,.92,1.56,1.85,3.12,2.6,4.76,1.52,3.3,2.95,6.64,4.39,9.98,.21,.48,.3,1.01,.44,1.5-1.52,.6-3.35,0-3.82-1.23-1.77-4.61-3.5-9.23-5.23-13.85-.25-.67-.53-1.36-.21-2.21Z"/>
  <path class="cls-1" d="M124.62,160.27c-.93-.64-1.9-1.1-2.6-1.82-1.23-1.26-2.32-2.67-3.43-4.05-.21-.26-.34-.65-.36-.99-.04-.76,.43-1.07,1.15-.82,.21,.07,.42,.19,.61,.31,1.24,.77,2.49,1.51,3.7,2.33,1.67,1.15,2.06,2.96,.93,5.04Z"/>
  <path class="cls-1" d="M120.77,149.52c.88-.35,1.63-.12,2.31,.21,1.41,.69,2.87,1.33,3.78,2.72,.46,.71,.51,1.37,.11,1.88-.45,.57-1.06,.64-1.72,.49-.22-.05-.44-.13-.64-.22-1.72-.82-2.6-2.44-3.6-3.92-.2-.3-.16-.76-.24-1.17Z"/>
  <path class="cls-1" d="M88.01,127.51c-1.08,.45-1.8,.82-2.56,1.05-.44,.13-1.03,.2-1.39,0-.24-.13-.3-.8-.25-1.2,.14-1.21,.73-2.24,1.47-3.18,.37-.47,.89-.84,1.55-.67,.68,.17,.85,.78,.92,1.38,.12,.93,.2,1.86,.27,2.63Z"/>
  <path class="cls-1" d="M126.56,149.73c-2.04-1.06-3.31-2.7-3.3-4.34,.33-.02,.7-.13,1.01-.03,1.25,.38,2.24,1.17,3.08,2.16,.37,.44,.35,.93,0,1.37-.24,.31-.54,.58-.79,.84Z"/>
  <path class="cls-1" d="M88.59,137.65c-.45,0-.93,.08-1.35-.03-.29-.08-.67-.38-.73-.64-.05-.26,.18-.7,.42-.87,.97-.68,2.07-.84,3.24-.64,.64,.11,.96,.51,.99,1.11,.02,.6-.4,.89-.94,.98-.54,.08-1.08,.1-1.63,.15,0-.02,0-.04,0-.05Z"/>
  <path class="cls-1" d="M75.8,131.41c0,1.01-.44,1.52-1.33,1.54-.97,.02-1.64-.56-1.63-1.44,0-.97,.47-1.42,1.44-1.41,1.08,.02,1.53,.4,1.52,1.31Z"/>
  <path class="cls-1" d="M91.61,141.46h-3.77v-1.41c2.28-.42,3.53,.02,3.77,1.41Z"/>
  <path class="cls-1" d="M79.68,129.58c1.03-.25,1.66-.19,2.05,.56,.23,.43,.35,.85-.16,1.19-.59,.39-1.32,.35-1.56-.18-.2-.46-.22-1-.33-1.57Z"/>
  <path class="cls-1" d="M101.86,162.26c-.83,.41-1.39,.18-1.87-.28-.43-.41-.41-.93-.02-1.32,.39-.39,.9-.37,1.26,.17,.28,.42,.42,.94,.63,1.43Z"/>
  <path class="cls-1" d="M128.85,175.52c-.44,.31-.69,.62-.9,.6-.28-.04-.61-.29-.74-.54-.06-.12,.33-.67,.46-.65,.34,.05,.65,.31,1.18,.6Z"/>
  <path class="cls-1" d="M125.8,170.33c-.33-1.47-.19-1.59,1.34-1.18-.46,.41-.83,.73-1.34,1.18Z"/>
  <path class="cls-1" d="M98.7,182c.94,.18,1.37,.69,1.54,1.36,.09,.35,.1,.9-.11,1.12-.19,.21-.8,.25-1.08,.1-.34-.19-.69-.64-.73-1.01-.05-.45,.21-.95,.38-1.57Z"/>
  <path class="cls-1" d="M99.13,171.5c.43-.61,1.01-.84,1.72-.59,.25,.09,.54,.41,.56,.65,.01,.22-.28,.54-.52,.66-.66,.34-1.15,.12-1.76-.72Z"/>
</svg>