<svg width="36" height="29" viewBox="0 0 36 29" fill="none" xmlns="http://www.w3.org/2000/svg">
<path d="M25.6484 28L35.7974 20.9248L22.7795 19.8679L25.6484 28Z" fill="black"/>
<path d="M5.18858 12.2319L1.5 27.148L25.6483 28L28.6251 12.9437L18.6702 3.58203L5.18858 12.2319Z" fill="#F4EDD9" stroke="black" stroke-width="0.32" stroke-miterlimit="10"/>
<path d="M28.6251 12.9437L1.5 27.148L25.6483 28L28.6251 12.9437Z" fill="#45BA9B" stroke="black" stroke-width="0.32" stroke-miterlimit="10"/>
<path d="M5.18858 12.2318L25.6483 28L1.5 27.1479L5.18858 12.2318Z" fill="#00E6C3" stroke="black" stroke-width="0.32" stroke-miterlimit="10"/>
<path d="M10.1823 2.57898L7.83105 14.2703L15.0896 19.8679L24.5807 15.0576L26.7054 4.18599C26.9427 3.01039 26.0906 1.88872 24.8934 1.81322L12.253 1.00432C11.2716 0.939608 10.3872 1.6083 10.193 2.57898H10.1823Z" fill="#FF927A" stroke="black" stroke-width="0.32" stroke-miterlimit="10"/>
<path d="M17.8505 14.9605C20.5667 14.9605 22.7686 12.7586 22.7686 10.0424C22.7686 7.32624 20.5667 5.12433 17.8505 5.12433C15.1343 5.12433 12.9324 7.32624 12.9324 10.0424C12.9324 12.7586 15.1343 14.9605 17.8505 14.9605Z" fill="#873B0C"/>
<path d="M16.7289 14.4645C19.4451 14.4645 21.647 12.2625 21.647 9.54634C21.647 6.83015 19.4451 4.62823 16.7289 4.62823C14.0127 4.62823 11.8108 6.83015 11.8108 9.54634C11.8108 12.2625 14.0127 14.4645 16.7289 14.4645Z" fill="#F4EDD9"/>
<mask id="mask0_1284_12922" style="mask-type:luminance" maskUnits="userSpaceOnUse" x="11" y="4" width="11" height="11">
<path d="M16.7289 14.4645C19.4451 14.4645 21.647 12.2625 21.647 9.54634C21.647 6.83015 19.4451 4.62823 16.7289 4.62823C14.0127 4.62823 11.8108 6.83015 11.8108 9.54634C11.8108 12.2625 14.0127 14.4645 16.7289 14.4645Z" fill="white"/>
</mask>
<g mask="url(#mask0_1284_12922)">
<path d="M16.7613 10.215C17.7083 10.215 18.4761 9.44724 18.4761 8.50015C18.4761 7.55305 17.7083 6.78528 16.7613 6.78528C15.8142 6.78528 15.0464 7.55305 15.0464 8.50015C15.0464 9.44724 15.8142 10.215 16.7613 10.215Z" fill="black"/>
<path d="M16.179 17.247C18.1685 17.247 19.7813 15.6342 19.7813 13.6447C19.7813 11.6552 18.1685 10.0424 16.179 10.0424C14.1895 10.0424 12.5767 11.6552 12.5767 13.6447C12.5767 15.6342 14.1895 17.247 16.179 17.247Z" fill="black"/>
</g>
<path d="M16.7289 14.4645C19.4451 14.4645 21.647 12.2625 21.647 9.54634C21.647 6.83015 19.4451 4.62823 16.7289 4.62823C14.0127 4.62823 11.8108 6.83015 11.8108 9.54634C11.8108 12.2625 14.0127 14.4645 16.7289 14.4645Z" stroke="black" stroke-width="0.33" stroke-miterlimit="10"/>
<path d="M17.1064 19.1237L25.465 27.7843C25.465 27.7843 25.4542 27.849 25.4219 27.8274L15.2944 20.0188L17.1064 19.1237Z" fill="#01656B"/>
<path opacity="0.61" d="M25.6807 10.1826L27.0612 11.5739L26.3494 14.2487L24.5051 14.9713L25.6807 10.1826Z" fill="#232326"/>
</svg>
