<svg width="32" height="32" viewBox="0 0 32 32" fill="none" xmlns="http://www.w3.org/2000/svg">
<path d="M5.21317 22.9066C4.95984 22.9066 4.7065 22.8132 4.5065 22.6132C2.67984 20.7732 1.6665 18.3466 1.6665 15.7732C1.6665 10.4266 5.99984 6.0799 11.3332 6.0799L19.4265 6.10657L17.9732 4.7199C17.5732 4.33324 17.5598 3.70657 17.9465 3.30657C18.3332 2.90657 18.9598 2.89324 19.3598 3.2799L22.6132 6.3999C22.9065 6.6799 22.9998 7.1199 22.8532 7.49324C22.7065 7.86657 22.3332 8.1199 21.9198 8.1199L11.3332 8.09324C7.1065 8.09324 3.6665 11.5466 3.6665 15.7866C3.6665 17.8266 4.4665 19.7599 5.91984 21.2132C6.3065 21.5999 6.3065 22.2399 5.91984 22.6266C5.71984 22.8132 5.4665 22.9066 5.21317 22.9066Z" fill="#34C3A7"/>
<path d="M13.3332 29.0002C13.0799 29.0002 12.8399 28.9068 12.6399 28.7202L9.38653 25.6002C9.0932 25.3202 8.99987 24.8802 9.14653 24.5068C9.2932 24.1335 9.66653 23.8802 10.0799 23.8802L20.6799 23.9068C24.9065 23.9068 28.3465 20.4535 28.3465 16.2135C28.3465 14.1735 27.5465 12.2402 26.0932 10.7868C25.7065 10.4002 25.7065 9.76016 26.0932 9.3735C26.4799 8.98683 27.1199 8.98683 27.5065 9.3735C29.3332 11.2135 30.3465 13.6402 30.3465 16.2135C30.3465 21.5602 26.0132 25.9068 20.6799 25.9068L12.5865 25.8802L14.0399 27.2668C14.4399 27.6535 14.4532 28.2802 14.0665 28.6802C13.8532 28.8935 13.5999 29.0002 13.3332 29.0002Z" fill="#34C3A7"/>
<path d="M12.0002 20.6668H20.0002C22.5602 20.6668 24.6668 18.5735 24.6668 16.0002C24.6668 13.4402 22.5735 11.3335 20.0002 11.3335H12.0002C9.44016 11.3335 7.3335 13.4268 7.3335 16.0002C7.3335 18.5735 9.42683 20.6668 12.0002 20.6668Z" fill="#34C3A7"/>
</svg>
