<svg width="16" height="16" viewBox="0 0 16 16" fill="none" xmlns="http://www.w3.org/2000/svg">
<path d="M8 1.75C4.55 1.75 1.75 4.55 1.75 8C1.75 11.45 4.55 14.25 8 14.25C11.45 14.25 14.25 11.45 14.25 8C14.25 4.55 11.45 1.75 8 1.75ZM8 5.96875C7.74375 5.96875 7.53125 5.75625 7.53125 5.5C7.53125 5.24375 7.74375 5.03125 8 5.03125C9.6375 5.03125 10.9688 6.3625 10.9688 8C10.9688 9.6375 9.6375 10.9688 8 10.9688C7.74375 10.9688 7.53125 10.7563 7.53125 10.5C7.53125 10.2437 7.74375 10.0312 8 10.0312C9.11875 10.0312 10.0312 9.11875 10.0312 8C10.0312 6.88125 9.11875 5.96875 8 5.96875ZM8 12.8438C5.33125 12.8438 3.15625 10.6687 3.15625 8C3.15625 7.74375 3.36875 7.53125 3.625 7.53125C3.88125 7.53125 4.09375 7.74375 4.09375 8C4.09375 10.1562 5.84375 11.9062 8 11.9062C10.1562 11.9062 11.9062 10.1562 11.9062 8C11.9062 5.84375 10.1562 4.09375 8 4.09375C7.74375 4.09375 7.53125 3.88125 7.53125 3.625C7.53125 3.36875 7.74375 3.15625 8 3.15625C10.6687 3.15625 12.8438 5.33125 12.8438 8C12.8438 10.6687 10.6687 12.8438 8 12.8438Z" fill="#11192B"/>
</svg>
