<svg width="25" height="24" viewBox="0 0 25 24" fill="none" xmlns="http://www.w3.org/2000/svg">
<path fill-rule="evenodd" clip-rule="evenodd" d="M17.0714 21.7927H15.0816V18.0911H17.0158C17.5565 18.0911 18.0447 18.3321 18.3197 18.6102C18.4866 18.777 18.6009 18.9161 18.6998 19.1416C19.1107 20.0655 18.6998 21.1439 17.8068 21.5919C17.6369 21.6784 17.3124 21.7927 17.0714 21.7927ZM16.7655 15.6347H15.0816V12.622H16.6574C17.0931 12.622 17.5905 12.8136 17.8563 12.999C18.8481 13.6788 18.5453 14.9981 17.399 15.4647C17.2445 15.5265 16.9664 15.6347 16.7655 15.6347ZM0.0278087 10.2738C0.0278087 11.8496 1.01038 12.2914 2.34829 12.2914H4.88815V17.4021C5.78729 17.4021 9.65579 17.4608 10.2923 17.3341C10.4962 17.2939 10.7527 17.1765 10.8763 17.0653C11.1884 16.7748 11.3243 16.3886 11.3243 15.7984V13.9754H8.92041V14.9981H7.59486V12.6777H12.6777V21.7649H3.25979C3.17328 21.7649 2.53986 21.0882 2.43789 20.9863C2.14127 20.6897 1.74577 20.2633 1.4306 20.0006C1.35027 19.9357 1.29774 19.8739 1.22049 19.7967C1.08763 19.6638 0.123594 18.6504 0 18.6164C0 18.7554 0.0278087 18.7678 0.0278087 18.9192V23.866H17.4855C18.2827 23.866 19.0768 23.6374 19.6793 23.2419C19.7874 23.1708 19.8523 23.1245 19.9512 23.0472C20.4548 22.6363 20.6927 22.3767 21.0388 21.7587C21.4992 20.9492 21.5177 20.6 21.5177 19.7225C21.5177 19.0119 21.1902 18.1931 20.7576 17.6369C20.4486 17.2414 20.0037 16.9355 19.5557 16.7099C19.4723 16.6667 19.4012 16.6358 19.3085 16.6018C19.188 16.5554 19.1262 16.574 19.1138 16.4349C19.2992 16.3917 19.6206 16.1507 19.7658 16.0363C20.359 15.5759 20.7453 14.6768 20.7453 13.8395C20.7453 13.0392 20.702 12.6499 20.3034 11.9577C19.8307 11.1358 19.086 10.5457 18.1807 10.2151C17.7697 10.0667 17.1271 9.88753 16.574 9.88753H7.59486V7.84205H8.92041V8.83698H11.3243V6.87801C11.3243 6.396 10.9319 5.9974 10.6291 5.80274C10.283 5.58336 9.76084 5.44123 9.19849 5.44123H4.80472V9.85972H2.81795V4.47411C2.81795 4.36287 4.12804 3.14856 4.3845 2.8921C4.46484 2.80868 4.86343 2.37301 4.94376 2.37301H20.4394C20.5321 2.37301 21.4498 3.34013 21.5239 3.41738C21.6043 3.49462 22.5683 4.41231 22.5683 4.50192V7.53924C22.5683 7.65357 22.216 7.90693 22.145 7.97491L20.22 9.91534H23.8104C24.277 9.91843 24.1534 9.835 24.6601 9.32827C24.7281 9.26029 25 9.03782 25 8.94821V0.0803362C25 0.0185391 24.9784 0 24.9166 0H0.0278087V10.2738Z" fill="white"/>
<path fill-rule="evenodd" clip-rule="evenodd" d="M22.5695 21.93C22.5695 22.0629 22.0134 22.5047 21.8619 22.6592C21.6209 22.8972 20.7434 23.7407 20.6631 23.8643L24.7819 23.8674C24.8838 23.8674 24.9734 23.889 24.9734 23.7809V13.6152H22.5695V21.93Z" fill="white"/>
<path fill-rule="evenodd" clip-rule="evenodd" d="M23.7345 10.7656C24.3988 10.7656 24.9395 11.3063 24.9395 11.9738C24.9395 12.6412 24.3988 13.1819 23.7345 13.1819C23.0671 13.1819 22.5264 12.6412 22.5264 11.9738C22.5264 11.3063 23.0671 10.7656 23.7345 10.7656Z" fill="white"/>
</svg>
