<svg width="34" height="25" viewBox="0 0 34 25" fill="none" xmlns="http://www.w3.org/2000/svg">
<rect width="14.4208" height="24.6373" rx="1.02401" transform="matrix(-0.86602 -0.50001 -0.86602 0.50001 33.9128 12.1956)" fill="#151D22"/>
<path d="M33.0315 6.86749V7.96011C33.0315 8.29655 32.8072 8.58812 32.5989 8.78999C32.5284 8.85727 32.4579 8.91495 32.397 8.95981L13.1598 20.5012C13.0733 20.5428 12.99 20.5813 12.9035 20.6133C12.4613 20.7863 12.0288 20.844 11.6347 20.8344C11.0862 20.821 10.321 20.5909 10.0326 20.4563C9.91086 20.3986 9.84358 20.3602 9.84358 20.3602C9.84358 20.3602 3.57641 16.5985 1.78533 15.5251C1.69562 15.4707 1.61552 15.4194 1.54503 15.3649C1.13491 15.0605 0.990723 14.7625 0.990723 14.4902V13.4008C0.990723 13.5706 1.04519 13.75 1.18617 13.9327C1.31113 14.0961 1.50337 14.2659 1.78213 14.4357C3.57321 15.5123 9.84037 19.2708 9.84037 19.2708C9.84037 19.2708 9.84678 19.274 9.8596 19.2836C9.98776 19.3541 10.6991 19.7322 11.6314 19.7482C12.1793 19.7578 12.8009 19.6457 13.4225 19.2708C13.5347 19.2035 13.7045 19.101 13.9288 18.9664C13.9832 18.9311 14.0441 18.8991 14.105 18.8606C14.3517 18.7133 14.6529 18.5338 14.9893 18.3288L15.2521 18.1718C17.8794 16.5953 22.6278 13.7468 26.4343 11.4623L26.7515 11.2732C26.8796 11.1963 27.0078 11.1194 27.1328 11.0425L27.5076 10.8182C30.2183 9.19051 32.2304 7.98574 32.2304 7.98574C32.2304 7.98574 32.2304 7.98574 32.24 7.97934C32.2977 7.94409 32.6149 7.73582 32.8296 7.42822C32.836 7.41861 32.8424 7.409 32.8488 7.39618C32.9097 7.30646 32.9578 7.20713 32.9898 7.1046C33.0122 7.03091 33.025 6.9508 33.025 6.8707L33.0315 6.86749Z" fill="#FFD979" stroke="black" stroke-width="0.102402" stroke-miterlimit="10"/>
<path d="M32.9958 6.7659V7.96105C32.9958 8.35516 32.5985 8.78452 32.3902 8.90948L13.1145 20.4348C12.6147 20.6687 12.0219 20.7681 11.6406 20.7488V19.7395C11.7528 19.6722 13.7137 19.0923 13.9379 18.9577C13.9924 18.9225 14.0533 18.8904 14.1142 18.852C14.3609 18.7046 14.6621 18.5251 14.9985 18.3201L15.2612 18.1631C17.8886 16.5866 22.637 13.7381 26.4434 11.4536L26.7606 11.2645C26.8888 11.1876 27.017 11.1107 27.1419 11.0338L27.5168 10.8095C30.2274 9.18183 32.2396 7.97707 32.2396 7.97707C32.2396 7.97707 32.2396 7.97707 32.2492 7.97066C32.3069 7.93542 32.6241 7.72715 32.8388 7.41955C32.8452 7.40994 32.8516 7.40032 32.858 7.38751C32.9573 7.22089 32.999 6.95494 32.999 6.7627L32.9958 6.7659Z" fill="#FFD979"/>
<path d="M33.0315 6.86611C33.0315 7.07117 32.9481 7.26342 32.836 7.42363C32.6213 7.73123 32.3041 7.9395 32.2465 7.97474C32.24 7.97795 32.2368 7.98115 32.2368 7.98115C32.2368 7.98115 30.2247 9.18591 27.514 10.8136L27.1392 11.0379C27.0142 11.1148 26.886 11.1885 26.7579 11.2686L26.4407 11.4577C22.6342 13.7422 17.8858 16.5907 15.2585 18.1672L14.9957 18.3242C14.6561 18.5292 14.3581 18.7055 14.1114 18.8561C14.0505 18.8945 13.9896 18.9297 13.9352 18.9618C13.7109 19.0964 13.5411 19.1989 13.4289 19.2662C11.75 20.2755 10.0711 19.3911 9.86601 19.279C9.85319 19.2726 9.84678 19.2662 9.84678 19.2662C9.84678 19.2662 3.57961 15.5045 1.78854 14.4311C1.50978 14.2613 1.31754 14.0947 1.19258 13.9281C1.0484 13.7422 0.990723 13.5628 0.990723 13.393C0.990723 12.7553 1.78533 12.2779 1.78533 12.2779C1.78533 12.2779 18.799 2.06949 20.59 0.992891C22.3811 -0.0837045 24.1722 0.992891 24.1722 0.992891C24.1722 0.992891 30.4426 4.75457 32.2336 5.82796C32.8296 6.18683 33.0283 6.54569 33.0283 6.8629L33.0315 6.86611Z" fill="white" stroke="black" stroke-width="0.102402" stroke-miterlimit="10"/>
<path d="M11.6335 18.1874L15.9743 15.516L11.9681 13.025L7.52829 15.732L11.6335 18.1874Z" fill="#FFD979"/>
<path d="M16.6002 10.2434L21.7048 7.10715L17.8264 4.82568L12.8054 7.92109L16.6002 10.2434Z" fill="#FFD979"/>
<path d="M7.56812 15.653L26.3728 4.36792" stroke="#3D3D3D" stroke-width="0.774131" stroke-miterlimit="10"/>
<path d="M7.99219 10.6539L16.0504 15.4889" stroke="#3D3D3D" stroke-width="0.774131" stroke-miterlimit="10"/>
<path d="M12.6604 7.81183L20.7186 12.6501" stroke="#3D3D3D" stroke-width="0.774131" stroke-miterlimit="10"/>
<path d="M17.8242 4.86395L25.8825 9.70222" stroke="#3D3D3D" stroke-width="0.774131" stroke-miterlimit="10"/>
<path d="M3.58203 13.3578L22.3867 2.07281L30.4482 6.90788L11.6403 18.1929L3.58203 13.3578Z" stroke="#3D3D3D" stroke-width="0.774131" stroke-miterlimit="10"/>
<path d="M3.58154 13.3581L8.14274 10.6571L11.9568 12.9932L7.55029 15.635L3.58154 13.3581Z" fill="#3D3D3D"/>
<path d="M11.9827 12.9717L16.6141 10.2048L20.909 12.7156L16.1544 15.4747L11.9827 12.9717Z" fill="#3D3D3D"/>
<path d="M17.8625 4.84182L22.3885 2.07281L26.261 4.39457L21.7305 7.16358L17.8625 4.84182Z" fill="#3D3D3D"/>
</svg>
