<svg width="20" height="20" viewBox="0 0 20 20" fill="none" xmlns="http://www.w3.org/2000/svg">
<path d="M3.05841 3.75C3.05008 3.75 3.04175 3.75 3.03341 3.76667C2.80008 3.95 2.67508 4.19167 2.67508 4.475C2.67508 4.91667 2.96675 5.45 3.58341 6.025C4.31675 6.70833 4.25841 7.75834 3.45841 8.35833L2.34175 9.2C1.89175 9.53333 1.66675 9.975 1.66675 10.4167C1.66675 10.8583 1.89175 11.3 2.34175 11.6333L3.46675 12.4833C4.25841 13.075 4.31675 14.1167 3.59175 14.8L3.58342 14.8083C2.57508 15.75 2.42508 16.5917 3.03342 17.0667C3.04175 17.0833 3.05008 17.0833 3.05842 17.0833C3.70008 17.3833 4.60008 17.5 5.86675 17.5L14.1334 17.5C15.4001 17.5 16.3001 17.3833 16.9418 17.0833C16.9501 17.0833 16.9668 17.075 16.9751 17.0667C17.5751 16.5833 17.4251 15.75 16.4168 14.8083L16.4084 14.8C15.6834 14.1167 15.7418 13.075 16.5334 12.4833L17.6584 11.6333C18.1084 11.3 18.3334 10.8583 18.3334 10.4167C18.3334 9.975 18.1084 9.53333 17.6584 9.2L16.5418 8.35833C15.7418 7.75833 15.6834 6.70833 16.4168 6.025C17.0334 5.45 17.3251 4.91667 17.3251 4.475C17.3251 4.19167 17.2084 3.95 16.9751 3.76667C16.9668 3.75834 16.9501 3.75 16.9417 3.75C16.3001 3.45 15.4001 3.33334 14.1334 3.33334L5.86675 3.33334C4.60008 3.33334 3.70008 3.45 3.05841 3.75ZM12.0834 8.33333L12.0834 13.3333C12.0834 13.675 11.8001 13.9583 11.4584 13.9583C11.1167 13.9583 10.8334 13.675 10.8334 13.3333L10.8334 8.33333C10.8334 7.99167 11.1167 7.70833 11.4584 7.70833C11.8001 7.70833 12.0834 7.99167 12.0834 8.33333ZM9.16675 6.66667L9.16675 13.3333C9.16675 13.675 8.88342 13.9583 8.54175 13.9583C8.20008 13.9583 7.91675 13.675 7.91675 13.3333L7.91675 6.66667C7.91675 6.325 8.20008 6.04167 8.54175 6.04167C8.88342 6.04167 9.16675 6.325 9.16675 6.66667Z" fill="#FF9E0B"/>
</svg>
