<svg xmlns="http://www.w3.org/2000/svg" xmlns:xlink="http://www.w3.org/1999/xlink" width="287" height="287" viewBox="0 0 287 287">
  <defs>
    <linearGradient id="linear-gradient" x1="0.5" x2="0.5" y2="1" gradientUnits="objectBoundingBox">
      <stop offset="0" stop-color="#ff9e0b"/>
      <stop offset="1" stop-color="#ffae0b"/>
    </linearGradient>
  </defs>
  <g id="Group_4493" data-name="Group 4493" transform="translate(-9417 -1496)">
    <path id="Subtraction_24" data-name="Subtraction 24" d="M143.5,287a144.561,144.561,0,0,1-28.92-2.915,142.714,142.714,0,0,1-51.312-21.592,143.92,143.92,0,0,1-51.991-63.136A142.778,142.778,0,0,1,2.915,172.42a144.9,144.9,0,0,1,0-57.84A142.713,142.713,0,0,1,24.508,63.268,143.92,143.92,0,0,1,87.643,11.277,142.778,142.778,0,0,1,114.58,2.915a144.9,144.9,0,0,1,57.84,0,142.714,142.714,0,0,1,51.312,21.592,143.919,143.919,0,0,1,51.991,63.136,142.774,142.774,0,0,1,8.362,26.936,144.9,144.9,0,0,1,0,57.84,142.715,142.715,0,0,1-21.592,51.312,143.919,143.919,0,0,1-63.136,51.991,142.776,142.776,0,0,1-26.937,8.362A144.563,144.563,0,0,1,143.5,287ZM182.528,52.509l-30.056,33.9V216.491h30.056Zm-48,44.645-30.057,24.672v94.666h30.057Z" transform="translate(9417 1496)" fill="url(#linear-gradient)"/>
  </g>
</svg>
