<svg width="32" height="32" viewBox="0 0 32 32" fill="none" xmlns="http://www.w3.org/2000/svg">
<g opacity="0.7">
<path d="M28.5998 18.1867V19.52C28.5998 19.88 28.3198 20.1734 27.9465 20.1867H25.9998C25.2932 20.1867 24.6532 19.6667 24.5998 18.9734C24.5598 18.56 24.7198 18.1734 24.9865 17.9067C25.2265 17.6534 25.5598 17.52 25.9198 17.52H27.9332C28.3198 17.5334 28.5998 17.8267 28.5998 18.1867Z" fill="white"/>
<path d="M23.9868 16.9199C23.3202 17.5732 23.0002 18.5465 23.2668 19.5599C23.6135 20.7999 24.8268 21.5865 26.1068 21.5865H27.2668C28.0002 21.5865 28.6002 22.1865 28.6002 22.9199V23.1732C28.6002 25.9332 26.3468 28.1865 23.5868 28.1865H8.28018C5.52018 28.1865 3.26685 25.9332 3.26685 23.1732V14.1999C3.26685 12.5599 4.05351 11.1065 5.26685 10.1999C6.10685 9.55986 7.14685 9.18652 8.28018 9.18652H23.5868C26.3468 9.18652 28.6002 11.4399 28.6002 14.1999V14.7865C28.6002 15.5199 28.0002 16.1199 27.2668 16.1199H25.9068C25.1602 16.1199 24.4802 16.4132 23.9868 16.9199Z" fill="white"/>
<path d="M21.5999 6.4265C21.9599 6.7865 21.6532 7.3465 21.1466 7.3465L10.9066 7.33317C10.3199 7.33317 10.0132 6.61317 10.4399 6.19984L12.5999 4.0265C14.4266 2.21317 17.3866 2.21317 19.2132 4.0265L21.5466 6.3865C21.5599 6.39984 21.5866 6.41317 21.5999 6.4265Z" fill="white"/>
</g>
</svg>
