<svg width="32" height="32" viewBox="0 0 32 32" fill="none" xmlns="http://www.w3.org/2000/svg">
<path d="M27.1466 16.9734C26.6533 16.9734 26.24 16.6001 26.1866 16.1068C25.8666 13.1734 24.2933 10.5334 21.8666 8.85343C21.4266 8.54676 21.32 7.94676 21.6266 7.50676C21.9333 7.06676 22.5333 6.9601 22.9733 7.26676C25.8666 9.2801 27.7333 12.4268 28.12 15.9068C28.1733 16.4401 27.7866 16.9201 27.2533 16.9734C27.2133 16.9734 27.1866 16.9734 27.1466 16.9734Z" fill="#34C3A7"/>
<path d="M4.98689 17.0403C4.96022 17.0403 4.92022 17.0403 4.89356 17.0403C4.36022 16.9869 3.97356 16.5069 4.02689 15.9736C4.38689 12.4936 6.22689 9.34693 9.09355 7.32027C9.52022 7.0136 10.1336 7.12027 10.4402 7.54694C10.7469 7.98694 10.6402 8.58694 10.2136 8.8936C7.81355 10.6003 6.25355 13.2403 5.96022 16.1603C5.90689 16.6669 5.48022 17.0403 4.98689 17.0403Z" fill="#34C3A7"/>
<path d="M21.3201 28.1331C19.6801 28.9198 17.9201 29.3198 16.0801 29.3198C14.1601 29.3198 12.3335 28.8931 10.6268 28.0265C10.1468 27.7998 9.96013 27.2131 10.2001 26.7331C10.4268 26.2531 11.0135 26.0665 11.4935 26.2931C12.3335 26.7198 13.2268 27.0131 14.1335 27.1865C15.3601 27.4265 16.6135 27.4398 17.8401 27.2265C18.7468 27.0665 19.6401 26.7865 20.4668 26.3865C20.9601 26.1598 21.5468 26.3465 21.7601 26.8398C22.0001 27.3198 21.8135 27.9065 21.3201 28.1331Z" fill="#34C3A7"/>
<path d="M16.0666 2.67969C14 2.67969 12.3066 4.35969 12.3066 6.43969C12.3066 8.51969 13.9866 10.1997 16.0666 10.1997C18.1466 10.1997 19.8266 8.51969 19.8266 6.43969C19.8266 4.35969 18.1466 2.67969 16.0666 2.67969Z" fill="#34C3A7"/>
<path d="M6.73314 18.4932C4.66648 18.4932 2.97314 20.1732 2.97314 22.2532C2.97314 24.3332 4.65314 26.0132 6.73314 26.0132C8.81314 26.0132 10.4931 24.3332 10.4931 22.2532C10.4931 20.1732 8.79981 18.4932 6.73314 18.4932Z" fill="#34C3A7"/>
<path d="M25.2668 18.4932C23.2002 18.4932 21.5068 20.1732 21.5068 22.2532C21.5068 24.3332 23.1868 26.0132 25.2668 26.0132C27.3468 26.0132 29.0268 24.3332 29.0268 22.2532C29.0268 20.1732 27.3468 18.4932 25.2668 18.4932Z" fill="#34C3A7"/>
</svg>
