<svg width="21" height="18" viewBox="0 0 21 18" fill="none" xmlns="http://www.w3.org/2000/svg">
<path d="M15.1875 0.171875C14.1022 0.171875 13.1072 0.515781 12.2302 1.19406C11.3894 1.84434 10.8296 2.67258 10.5 3.27484C10.1704 2.67254 9.61063 1.84434 8.7698 1.19406C7.89277 0.515781 6.89777 0.171875 5.8125 0.171875C2.78391 0.171875 0.5 2.6491 0.5 5.93414C0.5 9.48312 3.34934 11.9113 7.66285 15.5872C8.39535 16.2114 9.22563 16.919 10.0886 17.6737C10.2023 17.7733 10.3484 17.8281 10.5 17.8281C10.6516 17.8281 10.7977 17.7733 10.9114 17.6737C11.7745 16.9189 12.6047 16.2114 13.3376 15.5868C17.6507 11.9113 20.5 9.48312 20.5 5.93414C20.5 2.6491 18.2161 0.171875 15.1875 0.171875Z" fill="white"/>
</svg>
