<svg width="17" height="18" viewBox="0 0 17 18" fill="none" xmlns="http://www.w3.org/2000/svg">
<path d="M16.3622 1.151C15.9453 0.723181 15.3284 0.563797 14.7532 0.731569L1.33935 4.63228C0.732431 4.8009 0.302255 5.28492 0.186374 5.89981C0.0679923 6.5256 0.481495 7.32 1.02172 7.65219L5.21593 10.23C5.64611 10.4943 6.20134 10.428 6.55731 10.069L11.3601 5.23627C11.6019 4.98461 12.002 4.98461 12.2438 5.23627C12.4856 5.47954 12.4856 5.8738 12.2438 6.12546L7.43267 10.959C7.07586 11.3172 7.00917 11.875 7.27177 12.3079L9.83449 16.5441C10.1346 17.0475 10.6515 17.3327 11.2184 17.3327C11.2851 17.3327 11.3601 17.3327 11.4268 17.3243C12.0771 17.2404 12.594 16.7958 12.7857 16.1667L16.7623 2.77001C16.9374 2.19958 16.779 1.57882 16.3622 1.151Z" fill="white"/>
</svg>
